<?xml version="1.0" encoding="UTF-8" standalone="no"?>
<!DOCTYPE svg PUBLIC "-//W3C//DTD SVG 1.1//EN"
 "http://www.w3.org/Graphics/SVG/1.1/DTD/svg11.dtd">
<!-- Generated by graphviz version 2.44.1 (20211215.1903)
 -->
<!-- Title: Roar::Session::ReadIntermediate&lt; BodyT &gt; Pages: 1 -->
<svg width="1361pt" height="353pt"
 viewBox="0.00 0.00 1360.50 353.00" xmlns="http://www.w3.org/2000/svg" xmlns:xlink="http://www.w3.org/1999/xlink">
<g id="graph0" class="graph" transform="scale(1 1) rotate(0) translate(4 349)">
<title>Roar::Session::ReadIntermediate&lt; BodyT &gt;</title>
<!-- Node1 -->
<g id="node1" class="node">
<title>Node1</title>
<g id="a_node1"><a xlink:title=" ">
<polygon fill="#bfbfbf" stroke="black" points="408,-0.5 408,-134.5 617,-134.5 617,-0.5 408,-0.5"/>
<text text-anchor="middle" x="512.5" y="-122.5" font-family="Helvetica,sans-Serif" font-size="10.00">Roar::Session::ReadIntermediate&lt; BodyT &gt;</text>
<polyline fill="none" stroke="black" points="408,-115.5 617,-115.5 "/>
<text text-anchor="middle" x="512.5" y="-103.5" font-family="Helvetica,sans-Serif" font-size="10.00"> </text>
<polyline fill="none" stroke="black" points="408,-96.5 617,-96.5 "/>
<text text-anchor="start" x="416" y="-84.5" font-family="Helvetica,sans-Serif" font-size="10.00">+ ReadIntermediate()</text>
<text text-anchor="start" x="416" y="-73.5" font-family="Helvetica,sans-Serif" font-size="10.00">+ operator=()</text>
<text text-anchor="start" x="416" y="-62.5" font-family="Helvetica,sans-Serif" font-size="10.00">+ bodyLimit()</text>
<text text-anchor="start" x="416" y="-51.5" font-family="Helvetica,sans-Serif" font-size="10.00">+ bodyLimit()</text>
<text text-anchor="start" x="416" y="-40.5" font-family="Helvetica,sans-Serif" font-size="10.00">+ noBodyLimit()</text>
<text text-anchor="start" x="416" y="-29.5" font-family="Helvetica,sans-Serif" font-size="10.00">+ readChunk()</text>
<text text-anchor="start" x="416" y="-18.5" font-family="Helvetica,sans-Serif" font-size="10.00">+ start()</text>
<text text-anchor="start" x="416" y="-7.5" font-family="Helvetica,sans-Serif" font-size="10.00">&#45; ReadIntermediate()</text>
</a>
</g>
</g>
<!-- Node2 -->
<g id="node2" class="node">
<title>Node2</title>
<g id="a_node2"><a xlink:title=" ">
<polygon fill="none" stroke="black" points="0,-182.5 0,-239.5 287,-239.5 287,-182.5 0,-182.5"/>
<text text-anchor="middle" x="143.5" y="-227.5" font-family="Helvetica,sans-Serif" font-size="10.00">std::enable_shared_from_this&lt; ReadIntermediate&lt; BodyT &gt; &gt;</text>
<polyline fill="none" stroke="black" points="0,-220.5 287,-220.5 "/>
<text text-anchor="middle" x="143.5" y="-208.5" font-family="Helvetica,sans-Serif" font-size="10.00"> </text>
<polyline fill="none" stroke="black" points="0,-201.5 287,-201.5 "/>
<text text-anchor="middle" x="143.5" y="-189.5" font-family="Helvetica,sans-Serif" font-size="10.00"> </text>
</a>
</g>
</g>
<!-- Node2&#45;&gt;Node1 -->
<g id="edge1" class="edge">
<title>Node2&#45;&gt;Node1</title>
<path fill="none" stroke="midnightblue" d="M225.02,-178.74C278.84,-158.1 349.85,-130.87 407.83,-108.64"/>
<polygon fill="none" stroke="midnightblue" points="223.61,-175.53 215.52,-182.38 226.11,-182.07 223.61,-175.53"/>
</g>
<!-- Node3 -->
<g id="node3" class="node">
<title>Node3</title>
<g id="a_node3"><a xlink:title=" ">
<polygon fill="none" stroke="black" points="305,-182.5 305,-239.5 346,-239.5 346,-182.5 305,-182.5"/>
<text text-anchor="middle" x="325.5" y="-227.5" font-family="Helvetica,sans-Serif" font-size="10.00">friend</text>
<polyline fill="none" stroke="black" points="305,-220.5 346,-220.5 "/>
<text text-anchor="middle" x="325.5" y="-208.5" font-family="Helvetica,sans-Serif" font-size="10.00"> </text>
<polyline fill="none" stroke="black" points="305,-201.5 346,-201.5 "/>
<text text-anchor="middle" x="325.5" y="-189.5" font-family="Helvetica,sans-Serif" font-size="10.00"> </text>
</a>
</g>
</g>
<!-- Node3&#45;&gt;Node1 -->
<g id="edge2" class="edge">
<title>Node3&#45;&gt;Node1</title>
<path fill="none" stroke="#404040" d="M346.07,-189.44C348.85,-186.87 351.71,-184.33 354.5,-182 370.69,-168.49 388.38,-154.82 405.88,-141.87"/>
<polygon fill="none" stroke="#404040" points="405.9,-141.85 408.37,-135.08 415.57,-134.75 413.1,-141.53 405.9,-141.85"/>
<text text-anchor="middle" x="409.5" y="-156" font-family="Helvetica,sans-Serif" font-size="10.00"> &#45;Session</text>
</g>
<!-- Node4 -->
<g id="node4" class="node">
<title>Node4</title>
<g id="a_node4"><a xlink:title=" ">
<polygon fill="none" stroke="black" points="364,-182.5 364,-239.5 507,-239.5 507,-182.5 364,-182.5"/>
<text text-anchor="middle" x="435.5" y="-227.5" font-family="Helvetica,sans-Serif" font-size="10.00">shared_ptr&lt; Roar::Session &gt;</text>
<polyline fill="none" stroke="black" points="364,-220.5 507,-220.5 "/>
<text text-anchor="middle" x="435.5" y="-208.5" font-family="Helvetica,sans-Serif" font-size="10.00"> </text>
<polyline fill="none" stroke="black" points="364,-201.5 507,-201.5 "/>
<text text-anchor="middle" x="435.5" y="-189.5" font-family="Helvetica,sans-Serif" font-size="10.00"> </text>
</a>
</g>
</g>
<!-- Node4&#45;&gt;Node1 -->
<g id="edge3" class="edge">
<title>Node4&#45;&gt;Node1</title>
<path fill="none" stroke="#404040" d="M450.53,-182.38C456.4,-171.59 463.45,-158.64 470.65,-145.4"/>
<polygon fill="none" stroke="#404040" points="470.71,-145.29 470.07,-138.11 476.45,-134.75 477.09,-141.93 470.71,-145.29"/>
<text text-anchor="middle" x="488.5" y="-156" font-family="Helvetica,sans-Serif" font-size="10.00"> &#45;session_</text>
</g>
<!-- Node5 -->
<g id="node5" class="node">
<title>Node5</title>
<g id="a_node5"><a xlink:title=" ">
<polygon fill="none" stroke="black" points="525.5,-182.5 525.5,-239.5 653.5,-239.5 653.5,-182.5 525.5,-182.5"/>
<text text-anchor="middle" x="589.5" y="-227.5" font-family="Helvetica,sans-Serif" font-size="10.00">request_parser&lt; BodyT &gt;</text>
<polyline fill="none" stroke="black" points="525.5,-220.5 653.5,-220.5 "/>
<text text-anchor="middle" x="589.5" y="-208.5" font-family="Helvetica,sans-Serif" font-size="10.00"> </text>
<polyline fill="none" stroke="black" points="525.5,-201.5 653.5,-201.5 "/>
<text text-anchor="middle" x="589.5" y="-189.5" font-family="Helvetica,sans-Serif" font-size="10.00"> </text>
</a>
</g>
</g>
<!-- Node5&#45;&gt;Node1 -->
<g id="edge4" class="edge">
<title>Node5&#45;&gt;Node1</title>
<path fill="none" stroke="#404040" d="M574.47,-182.38C568.6,-171.59 561.55,-158.64 554.35,-145.4"/>
<polygon fill="none" stroke="#404040" points="554.29,-145.29 547.91,-141.93 548.55,-134.75 554.93,-138.11 554.29,-145.29"/>
<text text-anchor="middle" x="575" y="-156" font-family="Helvetica,sans-Serif" font-size="10.00"> &#45;req_</text>
</g>
<!-- Node6 -->
<g id="node6" class="node">
<title>Node6</title>
<g id="a_node6"><a xlink:title=" ">
<polygon fill="none" stroke="black" points="672,-182.5 672,-239.5 1021,-239.5 1021,-182.5 672,-182.5"/>
<text text-anchor="middle" x="846.5" y="-227.5" font-family="Helvetica,sans-Serif" font-size="10.00">function&lt; void(Roar::Session &amp;session, Roar::Request&lt; BodyT &gt; const &amp;)&gt;</text>
<polyline fill="none" stroke="black" points="672,-220.5 1021,-220.5 "/>
<text text-anchor="middle" x="846.5" y="-208.5" font-family="Helvetica,sans-Serif" font-size="10.00"> </text>
<polyline fill="none" stroke="black" points="672,-201.5 1021,-201.5 "/>
<text text-anchor="middle" x="846.5" y="-189.5" font-family="Helvetica,sans-Serif" font-size="10.00"> </text>
</a>
</g>
</g>
<!-- Node6&#45;&gt;Node1 -->
<g id="edge5" class="edge">
<title>Node6&#45;&gt;Node1</title>
<path fill="none" stroke="#404040" d="M781.31,-182.38C737.89,-163.99 679.62,-139.3 628.43,-117.61"/>
<polygon fill="none" stroke="#404040" points="628.34,-117.57 621.25,-118.92 617.29,-112.89 624.37,-111.55 628.34,-117.57"/>
<text text-anchor="middle" x="773.5" y="-156" font-family="Helvetica,sans-Serif" font-size="10.00"> &#45;onReadComplete_</text>
</g>
<!-- Node7 -->
<g id="node7" class="node">
<title>Node7</title>
<g id="a_node7"><a xlink:href="$structRoar_1_1Detail_1_1RequestExtensions.html" xlink:title=" ">
<polygon fill="none" stroke="black" points="1039,-182.5 1039,-239.5 1200,-239.5 1200,-182.5 1039,-182.5"/>
<text text-anchor="middle" x="1119.5" y="-227.5" font-family="Helvetica,sans-Serif" font-size="10.00">Roar::Detail::RequestExtensions</text>
<polyline fill="none" stroke="black" points="1039,-220.5 1200,-220.5 "/>
<text text-anchor="middle" x="1119.5" y="-208.5" font-family="Helvetica,sans-Serif" font-size="10.00"> </text>
<polyline fill="none" stroke="black" points="1039,-201.5 1200,-201.5 "/>
<text text-anchor="middle" x="1119.5" y="-189.5" font-family="Helvetica,sans-Serif" font-size="10.00"> </text>
</a>
</g>
</g>
<!-- Node7&#45;&gt;Node1 -->
<g id="edge6" class="edge">
<title>Node7&#45;&gt;Node1</title>
<path fill="none" stroke="#404040" d="M1038.64,-184.49C1035.56,-183.63 1032.51,-182.8 1029.5,-182 893.07,-145.87 734.26,-112.24 629.03,-91.12"/>
<polygon fill="none" stroke="#404040" points="628.87,-91.09 622.2,-93.83 617.1,-88.73 623.77,-85.99 628.87,-91.09"/>
<text text-anchor="middle" x="992" y="-156" font-family="Helvetica,sans-Serif" font-size="10.00"> &#45;originalExtensions_</text>
</g>
<!-- Node8 -->
<g id="node8" class="node">
<title>Node8</title>
<g id="a_node8"><a xlink:title=" ">
<polygon fill="none" stroke="black" points="905.5,-287.5 905.5,-344.5 1081.5,-344.5 1081.5,-287.5 905.5,-287.5"/>
<text text-anchor="middle" x="993.5" y="-332.5" font-family="Helvetica,sans-Serif" font-size="10.00">optional&lt; std::vector&lt; std::string &gt; &gt;</text>
<polyline fill="none" stroke="black" points="905.5,-325.5 1081.5,-325.5 "/>
<text text-anchor="middle" x="993.5" y="-313.5" font-family="Helvetica,sans-Serif" font-size="10.00"> </text>
<polyline fill="none" stroke="black" points="905.5,-306.5 1081.5,-306.5 "/>
<text text-anchor="middle" x="993.5" y="-294.5" font-family="Helvetica,sans-Serif" font-size="10.00"> </text>
</a>
</g>
</g>
<!-- Node8&#45;&gt;Node7 -->
<g id="edge7" class="edge">
<title>Node8&#45;&gt;Node7</title>
<path fill="none" stroke="#404040" d="M1012.48,-287.37C1020.15,-277.39 1029.54,-266.51 1039.5,-258 1044.25,-253.94 1049.41,-250.05 1054.75,-246.38"/>
<polygon fill="none" stroke="#404040" points="1055.11,-246.14 1057.95,-239.51 1065.16,-239.58 1062.32,-246.21 1055.11,-246.14"/>
<text text-anchor="middle" x="1077.5" y="-261" font-family="Helvetica,sans-Serif" font-size="10.00"> +regexMatches_</text>
</g>
<!-- Node9 -->
<g id="node9" class="node">
<title>Node9</title>
<g id="a_node9"><a xlink:title=" ">
<polygon fill="none" stroke="black" points="1099,-287.5 1099,-344.5 1140,-344.5 1140,-287.5 1099,-287.5"/>
<text text-anchor="middle" x="1119.5" y="-332.5" font-family="Helvetica,sans-Serif" font-size="10.00">string</text>
<polyline fill="none" stroke="black" points="1099,-325.5 1140,-325.5 "/>
<text text-anchor="middle" x="1119.5" y="-313.5" font-family="Helvetica,sans-Serif" font-size="10.00"> </text>
<polyline fill="none" stroke="black" points="1099,-306.5 1140,-306.5 "/>
<text text-anchor="middle" x="1119.5" y="-294.5" font-family="Helvetica,sans-Serif" font-size="10.00"> </text>
</a>
</g>
</g>
<!-- Node9&#45;&gt;Node7 -->
<g id="edge8" class="edge">
<title>Node9&#45;&gt;Node7</title>
<path fill="none" stroke="#404040" d="M1119.5,-287.4C1119.5,-276.55 1119.5,-263.87 1119.5,-252.05"/>
<polygon fill="none" stroke="#404040" points="1119.5,-251.68 1115.5,-245.68 1119.5,-239.68 1123.5,-245.68 1119.5,-251.68"/>
<text text-anchor="middle" x="1136.5" y="-261" font-family="Helvetica,sans-Serif" font-size="10.00"> +path_</text>
</g>
<!-- Node10 -->
<g id="node10" class="node">
<title>Node10</title>
<g id="a_node10"><a xlink:title=" ">
<polygon fill="none" stroke="black" points="1158.5,-287.5 1158.5,-344.5 1352.5,-344.5 1352.5,-287.5 1158.5,-287.5"/>
<text text-anchor="middle" x="1255.5" y="-332.5" font-family="Helvetica,sans-Serif" font-size="10.00">unordered_map&lt; std::string, std::string &gt;</text>
<polyline fill="none" stroke="black" points="1158.5,-325.5 1352.5,-325.5 "/>
<text text-anchor="middle" x="1255.5" y="-313.5" font-family="Helvetica,sans-Serif" font-size="10.00"> </text>
<polyline fill="none" stroke="black" points="1158.5,-306.5 1352.5,-306.5 "/>
<text text-anchor="middle" x="1255.5" y="-294.5" font-family="Helvetica,sans-Serif" font-size="10.00"> </text>
</a>
</g>
</g>
<!-- Node10&#45;&gt;Node7 -->
<g id="edge9" class="edge">
<title>Node10&#45;&gt;Node7</title>
<path fill="none" stroke="#404040" d="M1219.05,-287.4C1202.74,-275.04 1183.32,-260.33 1165.98,-247.2"/>
<polygon fill="none" stroke="#404040" points="1165.61,-246.92 1158.41,-246.49 1156.05,-239.68 1163.24,-240.11 1165.61,-246.92"/>
<text text-anchor="middle" x="1211" y="-261" font-family="Helvetica,sans-Serif" font-size="10.00"> +query_</text>
</g>
</g>
</svg>
