<?xml version="1.0" encoding="UTF-8" standalone="no"?>
<!DOCTYPE svg PUBLIC "-//W3C//DTD SVG 1.1//EN"
 "http://www.w3.org/Graphics/SVG/1.1/DTD/svg11.dtd">
<!-- Generated by graphviz version 2.44.1 (20211215.1903)
 -->
<!-- Title: include/roar/curl/request.hpp Pages: 1 -->
<svg width="1056pt" height="196pt"
 viewBox="0.00 0.00 1056.00 196.00" xmlns="http://www.w3.org/2000/svg" xmlns:xlink="http://www.w3.org/1999/xlink">
<g id="graph0" class="graph" transform="scale(1 1) rotate(0) translate(4 192)">
<title>include/roar/curl/request.hpp</title>
<!-- Node1 -->
<g id="node1" class="node">
<title>Node1</title>
<g id="a_node1"><a xlink:title=" ">
<polygon fill="#bfbfbf" stroke="black" points="487,-168.5 487,-187.5 627,-187.5 627,-168.5 487,-168.5"/>
<text text-anchor="middle" x="557" y="-175.5" font-family="Helvetica,sans-Serif" font-size="10.00">include/roar/curl/request.hpp</text>
</a>
</g>
</g>
<!-- Node2 -->
<g id="node2" class="node">
<title>Node2</title>
<g id="a_node2"><a xlink:href="instance_8hpp.html" target="_top" xlink:title=" ">
<polygon fill="none" stroke="black" points="61,-56.5 61,-75.5 133,-75.5 133,-56.5 61,-56.5"/>
<text text-anchor="middle" x="97" y="-63.5" font-family="Helvetica,sans-Serif" font-size="10.00">instance.hpp</text>
</a>
</g>
</g>
<!-- Node1&#45;&gt;Node2 -->
<g id="edge1" class="edge">
<title>Node1&#45;&gt;Node2</title>
<path fill="none" stroke="midnightblue" d="M486.73,-175.9C415.32,-172.95 302.38,-163.18 210,-132 174.91,-120.16 138.51,-96.9 116.82,-81.66"/>
<polygon fill="midnightblue" stroke="midnightblue" points="118.63,-78.65 108.46,-75.67 114.55,-84.34 118.63,-78.65"/>
</g>
<!-- Node3 -->
<g id="node3" class="node">
<title>Node3</title>
<g id="a_node3"><a xlink:title=" ">
<polygon fill="none" stroke="#bfbfbf" points="147.5,-0.5 147.5,-19.5 206.5,-19.5 206.5,-0.5 147.5,-0.5"/>
<text text-anchor="middle" x="177" y="-7.5" font-family="Helvetica,sans-Serif" font-size="10.00">curl/curl.h</text>
</a>
</g>
</g>
<!-- Node1&#45;&gt;Node3 -->
<g id="edge12" class="edge">
<title>Node1&#45;&gt;Node3</title>
<path fill="none" stroke="midnightblue" d="M505.11,-168.49C479.69,-162.08 450.09,-151 429,-132 401.23,-106.99 422.37,-79.12 393,-56 366.07,-34.8 271.23,-21.25 216.59,-15.01"/>
<polygon fill="midnightblue" stroke="midnightblue" points="216.88,-11.52 206.55,-13.9 216.11,-18.48 216.88,-11.52"/>
</g>
<!-- Node4 -->
<g id="node4" class="node">
<title>Node4</title>
<g id="a_node4"><a xlink:title=" ">
<polygon fill="none" stroke="#bfbfbf" points="0,-0.5 0,-19.5 52,-19.5 52,-0.5 0,-0.5"/>
<text text-anchor="middle" x="26" y="-7.5" font-family="Helvetica,sans-Serif" font-size="10.00">memory</text>
</a>
</g>
</g>
<!-- Node1&#45;&gt;Node4 -->
<g id="edge18" class="edge">
<title>Node1&#45;&gt;Node4</title>
<path fill="none" stroke="midnightblue" d="M486.67,-176.29C406.88,-173.81 273.61,-164.57 164,-132 110.65,-116.15 89.68,-116.95 52,-76 40.05,-63.01 33.29,-43.85 29.68,-29.69"/>
<polygon fill="midnightblue" stroke="midnightblue" points="33.03,-28.62 27.42,-19.63 26.2,-30.15 33.03,-28.62"/>
</g>
<!-- Node6 -->
<g id="node6" class="node">
<title>Node6</title>
<g id="a_node6"><a xlink:href="curl_2response_8hpp.html" target="_top" xlink:title=" ">
<polygon fill="none" stroke="black" points="219.5,-112.5 219.5,-131.5 294.5,-131.5 294.5,-112.5 219.5,-112.5"/>
<text text-anchor="middle" x="257" y="-119.5" font-family="Helvetica,sans-Serif" font-size="10.00">response.hpp</text>
</a>
</g>
</g>
<!-- Node1&#45;&gt;Node6 -->
<g id="edge5" class="edge">
<title>Node1&#45;&gt;Node6</title>
<path fill="none" stroke="midnightblue" d="M509.46,-168.44C453.47,-158.36 360.99,-141.72 304.86,-131.61"/>
<polygon fill="midnightblue" stroke="midnightblue" points="305.28,-128.13 294.81,-129.81 304.04,-135.02 305.28,-128.13"/>
</g>
<!-- Node8 -->
<g id="node8" class="node">
<title>Node8</title>
<g id="a_node8"><a xlink:title=" ">
<polygon fill="none" stroke="#bfbfbf" points="343.5,-56.5 343.5,-75.5 384.5,-75.5 384.5,-56.5 343.5,-56.5"/>
<text text-anchor="middle" x="364" y="-63.5" font-family="Helvetica,sans-Serif" font-size="10.00">string</text>
</a>
</g>
</g>
<!-- Node1&#45;&gt;Node8 -->
<g id="edge19" class="edge">
<title>Node1&#45;&gt;Node8</title>
<path fill="none" stroke="midnightblue" d="M486.84,-170.33C456.17,-164.37 421.46,-153.14 396,-132 381.66,-120.09 373.2,-100.18 368.61,-85.53"/>
<polygon fill="midnightblue" stroke="midnightblue" points="371.89,-84.26 365.83,-75.57 365.15,-86.14 371.89,-84.26"/>
</g>
<!-- Node9 -->
<g id="node9" class="node">
<title>Node9</title>
<g id="a_node9"><a xlink:href="source_8hpp.html" target="_top" xlink:title=" ">
<polygon fill="none" stroke="black" points="438.5,-112.5 438.5,-131.5 503.5,-131.5 503.5,-112.5 438.5,-112.5"/>
<text text-anchor="middle" x="471" y="-119.5" font-family="Helvetica,sans-Serif" font-size="10.00">source.hpp</text>
</a>
</g>
</g>
<!-- Node1&#45;&gt;Node9 -->
<g id="edge10" class="edge">
<title>Node1&#45;&gt;Node9</title>
<path fill="none" stroke="midnightblue" d="M543.18,-168.32C529.77,-159.9 509.18,-146.97 493.41,-137.07"/>
<polygon fill="midnightblue" stroke="midnightblue" points="495.11,-134.01 484.78,-131.65 491.39,-139.94 495.11,-134.01"/>
</g>
<!-- Node10 -->
<g id="node10" class="node">
<title>Node10</title>
<g id="a_node10"><a xlink:title=" ">
<polygon fill="none" stroke="#bfbfbf" points="477.5,-56.5 477.5,-75.5 526.5,-75.5 526.5,-56.5 477.5,-56.5"/>
<text text-anchor="middle" x="502" y="-63.5" font-family="Helvetica,sans-Serif" font-size="10.00">cstddef</text>
</a>
</g>
</g>
<!-- Node1&#45;&gt;Node10 -->
<g id="edge14" class="edge">
<title>Node1&#45;&gt;Node10</title>
<path fill="none" stroke="midnightblue" d="M552.68,-168.37C543.69,-150.38 522.78,-108.55 510.81,-84.63"/>
<polygon fill="midnightblue" stroke="midnightblue" points="513.9,-82.97 506.3,-75.59 507.64,-86.1 513.9,-82.97"/>
</g>
<!-- Node11 -->
<g id="node11" class="node">
<title>Node11</title>
<g id="a_node11"><a xlink:title=" ">
<polygon fill="none" stroke="#bfbfbf" points="560,-112.5 560,-131.5 606,-131.5 606,-112.5 560,-112.5"/>
<text text-anchor="middle" x="583" y="-119.5" font-family="Helvetica,sans-Serif" font-size="10.00">chrono</text>
</a>
</g>
</g>
<!-- Node1&#45;&gt;Node11 -->
<g id="edge13" class="edge">
<title>Node1&#45;&gt;Node11</title>
<path fill="none" stroke="midnightblue" d="M561.29,-168.08C564.85,-160.69 570.02,-149.95 574.42,-140.81"/>
<polygon fill="midnightblue" stroke="midnightblue" points="577.6,-142.28 578.79,-131.75 571.29,-139.24 577.6,-142.28"/>
</g>
<!-- Node12 -->
<g id="node12" class="node">
<title>Node12</title>
<g id="a_node12"><a xlink:title=" ">
<polygon fill="none" stroke="#bfbfbf" points="624,-112.5 624,-131.5 686,-131.5 686,-112.5 624,-112.5"/>
<text text-anchor="middle" x="655" y="-119.5" font-family="Helvetica,sans-Serif" font-size="10.00">filesystem</text>
</a>
</g>
</g>
<!-- Node1&#45;&gt;Node12 -->
<g id="edge15" class="edge">
<title>Node1&#45;&gt;Node12</title>
<path fill="none" stroke="midnightblue" d="M572.75,-168.32C588.32,-159.74 612.38,-146.49 630.46,-136.52"/>
<polygon fill="midnightblue" stroke="midnightblue" points="632.22,-139.55 639.29,-131.65 628.85,-133.42 632.22,-139.55"/>
</g>
<!-- Node13 -->
<g id="node13" class="node">
<title>Node13</title>
<g id="a_node13"><a xlink:title=" ">
<polygon fill="none" stroke="#bfbfbf" points="704.5,-112.5 704.5,-131.5 763.5,-131.5 763.5,-112.5 704.5,-112.5"/>
<text text-anchor="middle" x="734" y="-119.5" font-family="Helvetica,sans-Serif" font-size="10.00">functional</text>
</a>
</g>
</g>
<!-- Node1&#45;&gt;Node13 -->
<g id="edge16" class="edge">
<title>Node1&#45;&gt;Node13</title>
<path fill="none" stroke="midnightblue" d="M585.05,-168.44C615.08,-159.28 662.91,-144.69 696.24,-134.52"/>
<polygon fill="midnightblue" stroke="midnightblue" points="697.54,-137.78 706.09,-131.52 695.5,-131.09 697.54,-137.78"/>
</g>
<!-- Node14 -->
<g id="node14" class="node">
<title>Node14</title>
<g id="a_node14"><a xlink:title=" ">
<polygon fill="none" stroke="#bfbfbf" points="781.5,-112.5 781.5,-131.5 826.5,-131.5 826.5,-112.5 781.5,-112.5"/>
<text text-anchor="middle" x="804" y="-119.5" font-family="Helvetica,sans-Serif" font-size="10.00">iosfwd</text>
</a>
</g>
</g>
<!-- Node1&#45;&gt;Node14 -->
<g id="edge17" class="edge">
<title>Node1&#45;&gt;Node14</title>
<path fill="none" stroke="midnightblue" d="M603.16,-168.45C644.91,-160.48 708.27,-147.8 771.61,-132.21"/>
<polygon fill="midnightblue" stroke="midnightblue" points="772.51,-135.6 781.37,-129.79 770.82,-128.8 772.51,-135.6"/>
</g>
<!-- Node15 -->
<g id="node15" class="node">
<title>Node15</title>
<g id="a_node15"><a xlink:title=" ">
<polygon fill="none" stroke="#bfbfbf" points="844.5,-112.5 844.5,-131.5 927.5,-131.5 927.5,-112.5 844.5,-112.5"/>
<text text-anchor="middle" x="886" y="-119.5" font-family="Helvetica,sans-Serif" font-size="10.00">unordered_map</text>
</a>
</g>
</g>
<!-- Node1&#45;&gt;Node15 -->
<g id="edge20" class="edge">
<title>Node1&#45;&gt;Node15</title>
<path fill="none" stroke="midnightblue" d="M611.58,-168.5C665.66,-160 751.13,-146.4 834.16,-132.29"/>
<polygon fill="midnightblue" stroke="midnightblue" points="835,-135.7 844.27,-130.57 833.82,-128.8 835,-135.7"/>
</g>
<!-- Node16 -->
<g id="node16" class="node">
<title>Node16</title>
<g id="a_node16"><a xlink:title=" ">
<polygon fill="none" stroke="#bfbfbf" points="946,-112.5 946,-131.5 986,-131.5 986,-112.5 946,-112.5"/>
<text text-anchor="middle" x="966" y="-119.5" font-family="Helvetica,sans-Serif" font-size="10.00">utility</text>
</a>
</g>
</g>
<!-- Node1&#45;&gt;Node16 -->
<g id="edge21" class="edge">
<title>Node1&#45;&gt;Node16</title>
<path fill="none" stroke="midnightblue" d="M627.32,-172.54C701.89,-166.95 823.16,-155.36 936,-131.86"/>
<polygon fill="midnightblue" stroke="midnightblue" points="936.79,-135.27 945.84,-129.77 935.34,-128.42 936.79,-135.27"/>
</g>
<!-- Node17 -->
<g id="node17" class="node">
<title>Node17</title>
<g id="a_node17"><a xlink:title=" ">
<polygon fill="none" stroke="#bfbfbf" points="1004,-112.5 1004,-131.5 1048,-131.5 1048,-112.5 1004,-112.5"/>
<text text-anchor="middle" x="1026" y="-119.5" font-family="Helvetica,sans-Serif" font-size="10.00">vector</text>
</a>
</g>
</g>
<!-- Node1&#45;&gt;Node17 -->
<g id="edge22" class="edge">
<title>Node1&#45;&gt;Node17</title>
<path fill="none" stroke="midnightblue" d="M627.36,-173.68C712.25,-168.8 859.3,-157.57 993.7,-131.93"/>
<polygon fill="midnightblue" stroke="midnightblue" points="994.62,-135.32 1003.77,-129.97 993.28,-128.44 994.62,-135.32"/>
</g>
<!-- Node2&#45;&gt;Node3 -->
<g id="edge2" class="edge">
<title>Node2&#45;&gt;Node3</title>
<path fill="none" stroke="midnightblue" d="M109.85,-56.32C122.22,-47.98 141.13,-35.21 155.74,-25.35"/>
<polygon fill="midnightblue" stroke="midnightblue" points="157.85,-28.15 164.18,-19.65 153.93,-22.35 157.85,-28.15"/>
</g>
<!-- Node2&#45;&gt;Node4 -->
<g id="edge3" class="edge">
<title>Node2&#45;&gt;Node4</title>
<path fill="none" stroke="midnightblue" d="M85.59,-56.32C74.89,-48.18 58.66,-35.84 45.84,-26.09"/>
<polygon fill="midnightblue" stroke="midnightblue" points="47.69,-23.1 37.61,-19.83 43.46,-28.67 47.69,-23.1"/>
</g>
<!-- Node5 -->
<g id="node5" class="node">
<title>Node5</title>
<g id="a_node5"><a xlink:title=" ">
<polygon fill="none" stroke="#bfbfbf" points="70.5,-0.5 70.5,-19.5 129.5,-19.5 129.5,-0.5 70.5,-0.5"/>
<text text-anchor="middle" x="100" y="-7.5" font-family="Helvetica,sans-Serif" font-size="10.00">stdexcept</text>
</a>
</g>
</g>
<!-- Node2&#45;&gt;Node5 -->
<g id="edge4" class="edge">
<title>Node2&#45;&gt;Node5</title>
<path fill="none" stroke="midnightblue" d="M97.5,-56.08C97.89,-49.01 98.45,-38.86 98.95,-29.99"/>
<polygon fill="midnightblue" stroke="midnightblue" points="102.45,-29.93 99.51,-19.75 95.46,-29.54 102.45,-29.93"/>
</g>
<!-- Node6&#45;&gt;Node2 -->
<g id="edge6" class="edge">
<title>Node6&#45;&gt;Node2</title>
<path fill="none" stroke="midnightblue" d="M231.65,-112.44C204.73,-103.36 162,-88.94 131.91,-78.78"/>
<polygon fill="midnightblue" stroke="midnightblue" points="132.83,-75.4 122.23,-75.52 130.59,-82.03 132.83,-75.4"/>
</g>
<!-- Node6&#45;&gt;Node3 -->
<g id="edge7" class="edge">
<title>Node6&#45;&gt;Node3</title>
<path fill="none" stroke="midnightblue" d="M229.29,-112.48C211.95,-105.59 190.9,-94.02 180,-76 171.69,-62.26 171.68,-43.73 173.32,-29.97"/>
<polygon fill="midnightblue" stroke="midnightblue" points="176.83,-30.17 174.94,-19.74 169.92,-29.07 176.83,-30.17"/>
</g>
<!-- Node7 -->
<g id="node7" class="node">
<title>Node7</title>
<g id="a_node7"><a xlink:title=" ">
<polygon fill="none" stroke="#bfbfbf" points="189,-56.5 189,-75.5 325,-75.5 325,-56.5 189,-56.5"/>
<text text-anchor="middle" x="257" y="-63.5" font-family="Helvetica,sans-Serif" font-size="10.00">boost/beast/http/status.hpp</text>
</a>
</g>
</g>
<!-- Node6&#45;&gt;Node7 -->
<g id="edge8" class="edge">
<title>Node6&#45;&gt;Node7</title>
<path fill="none" stroke="midnightblue" d="M257,-112.08C257,-105.01 257,-94.86 257,-85.99"/>
<polygon fill="midnightblue" stroke="midnightblue" points="260.5,-85.75 257,-75.75 253.5,-85.75 260.5,-85.75"/>
</g>
<!-- Node6&#45;&gt;Node8 -->
<g id="edge9" class="edge">
<title>Node6&#45;&gt;Node8</title>
<path fill="none" stroke="midnightblue" d="M274.19,-112.32C291.35,-103.66 317.95,-90.24 337.75,-80.25"/>
<polygon fill="midnightblue" stroke="midnightblue" points="339.5,-83.28 346.85,-75.65 336.35,-77.04 339.5,-83.28"/>
</g>
<!-- Node9&#45;&gt;Node10 -->
<g id="edge11" class="edge">
<title>Node9&#45;&gt;Node10</title>
<path fill="none" stroke="midnightblue" d="M476.12,-112.08C480.41,-104.61 486.66,-93.72 491.94,-84.52"/>
<polygon fill="midnightblue" stroke="midnightblue" points="495.03,-86.17 496.98,-75.75 488.96,-82.68 495.03,-86.17"/>
</g>
</g>
</svg>
