<?xml version="1.0" encoding="UTF-8" standalone="no"?>
<!DOCTYPE svg PUBLIC "-//W3C//DTD SVG 1.1//EN"
 "http://www.w3.org/Graphics/SVG/1.1/DTD/svg11.dtd">
<!-- Generated by graphviz version 2.44.1 (20211215.1903)
 -->
<!-- Title: src/roar/curl/request.cpp Pages: 1 -->
<svg width="1785pt" height="252pt"
 viewBox="0.00 0.00 1784.50 252.00" xmlns="http://www.w3.org/2000/svg" xmlns:xlink="http://www.w3.org/1999/xlink">
<g id="graph0" class="graph" transform="scale(1 1) rotate(0) translate(4 248)">
<title>src/roar/curl/request.cpp</title>
<!-- Node1 -->
<g id="node1" class="node">
<title>Node1</title>
<g id="a_node1"><a xlink:title=" ">
<polygon fill="#bfbfbf" stroke="black" points="1139,-224.5 1139,-243.5 1261,-243.5 1261,-224.5 1139,-224.5"/>
<text text-anchor="middle" x="1200" y="-231.5" font-family="Helvetica,sans-Serif" font-size="10.00">src/roar/curl/request.cpp</text>
</a>
</g>
</g>
<!-- Node2 -->
<g id="node2" class="node">
<title>Node2</title>
<g id="a_node2"><a xlink:href="$curl_2request_8hpp.html" xlink:title=" ">
<polygon fill="none" stroke="black" points="801,-168.5 801,-187.5 907,-187.5 907,-168.5 801,-168.5"/>
<text text-anchor="middle" x="854" y="-175.5" font-family="Helvetica,sans-Serif" font-size="10.00">roar/curl/request.hpp</text>
</a>
</g>
</g>
<!-- Node1&#45;&gt;Node2 -->
<g id="edge1" class="edge">
<title>Node1&#45;&gt;Node2</title>
<path fill="none" stroke="midnightblue" d="M1145.18,-224.44C1083.23,-214.78 982.55,-199.06 917.3,-188.88"/>
<polygon fill="midnightblue" stroke="midnightblue" points="917.57,-185.38 907.15,-187.29 916.49,-192.3 917.57,-185.38"/>
</g>
<!-- Node3 -->
<g id="node3" class="node">
<title>Node3</title>
<g id="a_node3"><a xlink:href="$instance_8hpp.html" xlink:title=" ">
<polygon fill="none" stroke="black" points="1242,-56.5 1242,-75.5 1314,-75.5 1314,-56.5 1242,-56.5"/>
<text text-anchor="middle" x="1278" y="-63.5" font-family="Helvetica,sans-Serif" font-size="10.00">instance.hpp</text>
</a>
</g>
</g>
<!-- Node1&#45;&gt;Node3 -->
<g id="edge28" class="edge">
<title>Node1&#45;&gt;Node3</title>
<path fill="none" stroke="midnightblue" d="M1208.03,-224.35C1222.84,-207.83 1254.31,-170.04 1269,-132 1274.71,-117.2 1276.87,-99.28 1277.66,-86"/>
<polygon fill="midnightblue" stroke="midnightblue" points="1281.16,-85.85 1278.04,-75.73 1274.17,-85.59 1281.16,-85.85"/>
</g>
<!-- Node5 -->
<g id="node5" class="node">
<title>Node5</title>
<g id="a_node5"><a xlink:title=" ">
<polygon fill="none" stroke="#bfbfbf" points="1252,-0.5 1252,-19.5 1304,-19.5 1304,-0.5 1252,-0.5"/>
<text text-anchor="middle" x="1278" y="-7.5" font-family="Helvetica,sans-Serif" font-size="10.00">memory</text>
</a>
</g>
</g>
<!-- Node1&#45;&gt;Node5 -->
<g id="edge48" class="edge">
<title>Node1&#45;&gt;Node5</title>
<path fill="none" stroke="midnightblue" d="M1214.13,-224.3C1226.72,-216.06 1245.08,-202.78 1258,-188 1295.88,-144.67 1308.04,-131.58 1323,-76 1325.31,-67.42 1326.4,-64.21 1323,-56 1318.08,-44.12 1308.33,-33.74 1299.17,-25.96"/>
<polygon fill="midnightblue" stroke="midnightblue" points="1301.08,-23.01 1291.06,-19.56 1296.75,-28.51 1301.08,-23.01"/>
</g>
<!-- Node6 -->
<g id="node6" class="node">
<title>Node6</title>
<g id="a_node6"><a xlink:title=" ">
<polygon fill="none" stroke="#bfbfbf" points="1336.5,-0.5 1336.5,-19.5 1395.5,-19.5 1395.5,-0.5 1336.5,-0.5"/>
<text text-anchor="middle" x="1366" y="-7.5" font-family="Helvetica,sans-Serif" font-size="10.00">stdexcept</text>
</a>
</g>
</g>
<!-- Node1&#45;&gt;Node6 -->
<g id="edge49" class="edge">
<title>Node1&#45;&gt;Node6</title>
<path fill="none" stroke="midnightblue" d="M1220.64,-224.46C1237.8,-216.67 1262.21,-203.97 1280,-188 1329.1,-143.93 1353.06,-65.64 1361.87,-29.82"/>
<polygon fill="midnightblue" stroke="midnightblue" points="1365.35,-30.32 1364.21,-19.79 1358.53,-28.73 1365.35,-30.32"/>
</g>
<!-- Node7 -->
<g id="node7" class="node">
<title>Node7</title>
<g id="a_node7"><a xlink:href="$curl_2response_8hpp.html" xlink:title=" ">
<polygon fill="none" stroke="black" points="1162.5,-112.5 1162.5,-131.5 1237.5,-131.5 1237.5,-112.5 1162.5,-112.5"/>
<text text-anchor="middle" x="1200" y="-119.5" font-family="Helvetica,sans-Serif" font-size="10.00">response.hpp</text>
</a>
</g>
</g>
<!-- Node1&#45;&gt;Node7 -->
<g id="edge29" class="edge">
<title>Node1&#45;&gt;Node7</title>
<path fill="none" stroke="midnightblue" d="M1200,-224.37C1200,-206.62 1200,-165.67 1200,-141.6"/>
<polygon fill="midnightblue" stroke="midnightblue" points="1203.5,-141.59 1200,-131.59 1196.5,-141.59 1203.5,-141.59"/>
</g>
<!-- Node10 -->
<g id="node10" class="node">
<title>Node10</title>
<g id="a_node10"><a xlink:href="$source_8hpp.html" xlink:title=" ">
<polygon fill="none" stroke="black" points="382.5,-112.5 382.5,-131.5 447.5,-131.5 447.5,-112.5 382.5,-112.5"/>
<text text-anchor="middle" x="415" y="-119.5" font-family="Helvetica,sans-Serif" font-size="10.00">source.hpp</text>
</a>
</g>
</g>
<!-- Node1&#45;&gt;Node10 -->
<g id="edge32" class="edge">
<title>Node1&#45;&gt;Node10</title>
<path fill="none" stroke="midnightblue" d="M1138.73,-231.92C1035.9,-229.23 822.44,-219.95 645,-188 573.96,-175.21 493.27,-149.79 448.84,-134.81"/>
<polygon fill="midnightblue" stroke="midnightblue" points="449.74,-131.42 439.14,-131.51 447.48,-138.04 449.74,-131.42"/>
</g>
<!-- Node19 -->
<g id="node19" class="node">
<title>Node19</title>
<g id="a_node19"><a xlink:href="$curl__error_8hpp.html" xlink:title=" ">
<polygon fill="none" stroke="black" points="0,-112.5 0,-131.5 114,-131.5 114,-112.5 0,-112.5"/>
<text text-anchor="middle" x="57" y="-119.5" font-family="Helvetica,sans-Serif" font-size="10.00">roar/curl/curl_error.hpp</text>
</a>
</g>
</g>
<!-- Node1&#45;&gt;Node19 -->
<g id="edge24" class="edge">
<title>Node1&#45;&gt;Node19</title>
<path fill="none" stroke="midnightblue" d="M1138.63,-232.26C911.88,-229.31 132.08,-217.07 88,-188 72.21,-177.59 64.26,-156.78 60.39,-141.5"/>
<polygon fill="midnightblue" stroke="midnightblue" points="63.78,-140.62 58.25,-131.58 56.94,-142.1 63.78,-140.62"/>
</g>
<!-- Node21 -->
<g id="node21" class="node">
<title>Node21</title>
<g id="a_node21"><a xlink:href="$sink_8hpp.html" xlink:title=" ">
<polygon fill="none" stroke="black" points="654,-168.5 654,-187.5 746,-187.5 746,-168.5 654,-168.5"/>
<text text-anchor="middle" x="700" y="-175.5" font-family="Helvetica,sans-Serif" font-size="10.00">roar/curl/sink.hpp</text>
</a>
</g>
</g>
<!-- Node1&#45;&gt;Node21 -->
<g id="edge30" class="edge">
<title>Node1&#45;&gt;Node21</title>
<path fill="none" stroke="midnightblue" d="M1138.69,-226.38C1040.82,-215.81 850.7,-195.28 756.17,-185.07"/>
<polygon fill="midnightblue" stroke="midnightblue" points="756.54,-181.59 746.23,-183.99 755.79,-188.55 756.54,-181.59"/>
</g>
<!-- Node22 -->
<g id="node22" class="node">
<title>Node22</title>
<g id="a_node22"><a xlink:href="$file__source_8hpp.html" xlink:title=" ">
<polygon fill="none" stroke="black" points="329,-168.5 329,-187.5 487,-187.5 487,-168.5 329,-168.5"/>
<text text-anchor="middle" x="408" y="-175.5" font-family="Helvetica,sans-Serif" font-size="10.00">roar/curl/sources/file_source.hpp</text>
</a>
</g>
</g>
<!-- Node1&#45;&gt;Node22 -->
<g id="edge33" class="edge">
<title>Node1&#45;&gt;Node22</title>
<path fill="none" stroke="midnightblue" d="M1138.85,-228.87C1022.07,-220.97 759.23,-203.18 538,-188 524.87,-187.1 511,-186.14 497.39,-185.2"/>
<polygon fill="midnightblue" stroke="midnightblue" points="497.28,-181.69 487.06,-184.49 496.79,-188.67 497.28,-181.69"/>
</g>
<!-- Node23 -->
<g id="node23" class="node">
<title>Node23</title>
<g id="a_node23"><a xlink:title=" ">
<polygon fill="none" stroke="#bfbfbf" points="208,-112.5 208,-131.5 258,-131.5 258,-112.5 208,-112.5"/>
<text text-anchor="middle" x="233" y="-119.5" font-family="Helvetica,sans-Serif" font-size="10.00">fstream</text>
</a>
</g>
</g>
<!-- Node1&#45;&gt;Node23 -->
<g id="edge47" class="edge">
<title>Node1&#45;&gt;Node23</title>
<path fill="none" stroke="midnightblue" d="M1138.7,-231.93C951.67,-228.37 396.4,-215.57 320,-188 291.61,-177.75 264.7,-154.9 248.53,-139.22"/>
<polygon fill="midnightblue" stroke="midnightblue" points="250.64,-136.38 241.1,-131.77 245.69,-141.32 250.64,-136.38"/>
</g>
<!-- Node25 -->
<g id="node25" class="node">
<title>Node25</title>
<g id="a_node25"><a xlink:href="$string__source_8hpp.html" xlink:title=" ">
<polygon fill="none" stroke="black" points="97,-168.5 97,-187.5 267,-187.5 267,-168.5 97,-168.5"/>
<text text-anchor="middle" x="182" y="-175.5" font-family="Helvetica,sans-Serif" font-size="10.00">roar/curl/sources/string_source.hpp</text>
</a>
</g>
</g>
<!-- Node1&#45;&gt;Node25 -->
<g id="edge39" class="edge">
<title>Node1&#45;&gt;Node25</title>
<path fill="none" stroke="midnightblue" d="M1138.78,-230.84C991.36,-225.45 605,-210.24 283,-188 281.06,-187.87 279.09,-187.73 277.11,-187.58"/>
<polygon fill="midnightblue" stroke="midnightblue" points="277.35,-184.09 267.12,-186.83 276.83,-191.07 277.35,-184.09"/>
</g>
<!-- Node26 -->
<g id="node26" class="node">
<title>Node26</title>
<g id="a_node26"><a xlink:title=" ">
<polygon fill="none" stroke="#bfbfbf" points="1408,-168.5 1408,-187.5 1484,-187.5 1484,-168.5 1408,-168.5"/>
<text text-anchor="middle" x="1446" y="-175.5" font-family="Helvetica,sans-Serif" font-size="10.00">curl/system.h</text>
</a>
</g>
</g>
<!-- Node1&#45;&gt;Node26 -->
<g id="edge43" class="edge">
<title>Node1&#45;&gt;Node26</title>
<path fill="none" stroke="midnightblue" d="M1238.98,-224.44C1282.02,-215 1351.35,-199.78 1397.78,-189.59"/>
<polygon fill="midnightblue" stroke="midnightblue" points="1398.59,-192.99 1407.61,-187.43 1397.09,-186.15 1398.59,-192.99"/>
</g>
<!-- Node27 -->
<g id="node27" class="node">
<title>Node27</title>
<g id="a_node27"><a xlink:title=" ">
<polygon fill="none" stroke="#bfbfbf" points="1502.5,-168.5 1502.5,-187.5 1651.5,-187.5 1651.5,-168.5 1502.5,-168.5"/>
<text text-anchor="middle" x="1577" y="-175.5" font-family="Helvetica,sans-Serif" font-size="10.00">boost/algorithm/string/trim.hpp</text>
</a>
</g>
</g>
<!-- Node1&#45;&gt;Node27 -->
<g id="edge44" class="edge">
<title>Node1&#45;&gt;Node27</title>
<path fill="none" stroke="midnightblue" d="M1259.74,-224.44C1327.02,-214.81 1436.23,-199.16 1507.34,-188.98"/>
<polygon fill="midnightblue" stroke="midnightblue" points="1508.14,-192.4 1517.54,-187.52 1507.15,-185.47 1508.14,-192.4"/>
</g>
<!-- Node28 -->
<g id="node28" class="node">
<title>Node28</title>
<g id="a_node28"><a xlink:title=" ">
<polygon fill="none" stroke="#bfbfbf" points="1669,-168.5 1669,-187.5 1715,-187.5 1715,-168.5 1669,-168.5"/>
<text text-anchor="middle" x="1692" y="-175.5" font-family="Helvetica,sans-Serif" font-size="10.00">cctype</text>
</a>
</g>
</g>
<!-- Node1&#45;&gt;Node28 -->
<g id="edge45" class="edge">
<title>Node1&#45;&gt;Node28</title>
<path fill="none" stroke="midnightblue" d="M1261.29,-230.63C1348.11,-226.47 1511.88,-215.71 1658.66,-188.17"/>
<polygon fill="midnightblue" stroke="midnightblue" points="1659.59,-191.56 1668.75,-186.25 1658.27,-184.69 1659.59,-191.56"/>
</g>
<!-- Node29 -->
<g id="node29" class="node">
<title>Node29</title>
<g id="a_node29"><a xlink:title=" ">
<polygon fill="none" stroke="#bfbfbf" points="1733.5,-168.5 1733.5,-187.5 1776.5,-187.5 1776.5,-168.5 1733.5,-168.5"/>
<text text-anchor="middle" x="1755" y="-175.5" font-family="Helvetica,sans-Serif" font-size="10.00">cstdio</text>
</a>
</g>
</g>
<!-- Node1&#45;&gt;Node29 -->
<g id="edge46" class="edge">
<title>Node1&#45;&gt;Node29</title>
<path fill="none" stroke="midnightblue" d="M1261.04,-231.65C1357.44,-228.66 1550.84,-219.21 1723.42,-187.7"/>
<polygon fill="midnightblue" stroke="midnightblue" points="1724.26,-191.11 1733.45,-185.84 1722.98,-184.23 1724.26,-191.11"/>
</g>
<!-- Node2&#45;&gt;Node3 -->
<g id="edge2" class="edge">
<title>Node2&#45;&gt;Node3</title>
<path fill="none" stroke="midnightblue" d="M907.19,-177.14C1001.63,-176.38 1193.69,-170.05 1247,-132 1262.23,-121.13 1270.25,-100.75 1274.28,-85.7"/>
<polygon fill="midnightblue" stroke="midnightblue" points="1277.71,-86.42 1276.56,-75.89 1270.89,-84.84 1277.71,-86.42"/>
</g>
<!-- Node4 -->
<g id="node4" class="node">
<title>Node4</title>
<g id="a_node4"><a xlink:title=" ">
<polygon fill="none" stroke="#bfbfbf" points="907.5,-0.5 907.5,-19.5 966.5,-19.5 966.5,-0.5 907.5,-0.5"/>
<text text-anchor="middle" x="937" y="-7.5" font-family="Helvetica,sans-Serif" font-size="10.00">curl/curl.h</text>
</a>
</g>
</g>
<!-- Node2&#45;&gt;Node4 -->
<g id="edge13" class="edge">
<title>Node2&#45;&gt;Node4</title>
<path fill="none" stroke="midnightblue" d="M800.79,-169.56C757.93,-162.35 702.65,-149.87 689,-132 683.6,-124.94 684.04,-119.38 689,-112 735.77,-42.45 839.66,-20.77 897.02,-14.03"/>
<polygon fill="midnightblue" stroke="midnightblue" points="897.6,-17.49 907.16,-12.93 896.85,-10.53 897.6,-17.49"/>
</g>
<!-- Node2&#45;&gt;Node5 -->
<g id="edge19" class="edge">
<title>Node2&#45;&gt;Node5</title>
<path fill="none" stroke="midnightblue" d="M907.19,-175.62C975.67,-172.58 1088.97,-162.9 1115,-132 1120.73,-125.2 1119.71,-119.54 1115,-112 1095.6,-80.99 1060.4,-107.01 1041,-76 1036.29,-68.46 1035.33,-62.85 1041,-56 1066.07,-25.72 1181.82,-15.65 1241.77,-12.43"/>
<polygon fill="midnightblue" stroke="midnightblue" points="1242.12,-15.92 1251.94,-11.93 1241.77,-8.93 1242.12,-15.92"/>
</g>
<!-- Node2&#45;&gt;Node7 -->
<g id="edge6" class="edge">
<title>Node2&#45;&gt;Node7</title>
<path fill="none" stroke="midnightblue" d="M907.16,-169.18C966.08,-160.44 1063.91,-145.71 1148,-132 1149.3,-131.79 1150.61,-131.57 1151.94,-131.35"/>
<polygon fill="midnightblue" stroke="midnightblue" points="1152.96,-134.73 1162.24,-129.62 1151.8,-127.83 1152.96,-134.73"/>
</g>
<!-- Node9 -->
<g id="node9" class="node">
<title>Node9</title>
<g id="a_node9"><a xlink:title=" ">
<polygon fill="none" stroke="#bfbfbf" points="284.5,-56.5 284.5,-75.5 325.5,-75.5 325.5,-56.5 284.5,-56.5"/>
<text text-anchor="middle" x="305" y="-63.5" font-family="Helvetica,sans-Serif" font-size="10.00">string</text>
</a>
</g>
</g>
<!-- Node2&#45;&gt;Node9 -->
<g id="edge20" class="edge">
<title>Node2&#45;&gt;Node9</title>
<path fill="none" stroke="midnightblue" d="M800.92,-168.77C750.9,-160.66 673.98,-147.29 608,-132 576.06,-124.6 568.9,-119.57 537,-112 465.3,-94.98 380.02,-79.69 335.5,-72.08"/>
<polygon fill="midnightblue" stroke="midnightblue" points="336.05,-68.63 325.61,-70.4 334.88,-75.53 336.05,-68.63"/>
</g>
<!-- Node2&#45;&gt;Node10 -->
<g id="edge11" class="edge">
<title>Node2&#45;&gt;Node10</title>
<path fill="none" stroke="midnightblue" d="M800.68,-171.61C712.21,-162.57 537.71,-144.26 458.09,-132"/>
<polygon fill="midnightblue" stroke="midnightblue" points="458.38,-128.5 447.96,-130.38 457.28,-135.41 458.38,-128.5"/>
</g>
<!-- Node11 -->
<g id="node11" class="node">
<title>Node11</title>
<g id="a_node11"><a xlink:title=" ">
<polygon fill="none" stroke="#bfbfbf" points="390.5,-56.5 390.5,-75.5 439.5,-75.5 439.5,-56.5 390.5,-56.5"/>
<text text-anchor="middle" x="415" y="-63.5" font-family="Helvetica,sans-Serif" font-size="10.00">cstddef</text>
</a>
</g>
</g>
<!-- Node2&#45;&gt;Node11 -->
<g id="edge15" class="edge">
<title>Node2&#45;&gt;Node11</title>
<path fill="none" stroke="midnightblue" d="M805.77,-168.44C765.3,-160.69 706.2,-148.03 656,-132 633.98,-124.97 630,-119.09 608,-112 553.82,-94.53 489.06,-80.85 450.03,-73.35"/>
<polygon fill="midnightblue" stroke="midnightblue" points="450.2,-69.82 439.73,-71.4 448.9,-76.7 450.2,-69.82"/>
</g>
<!-- Node12 -->
<g id="node12" class="node">
<title>Node12</title>
<g id="a_node12"><a xlink:title=" ">
<polygon fill="none" stroke="#bfbfbf" points="760,-112.5 760,-131.5 806,-131.5 806,-112.5 760,-112.5"/>
<text text-anchor="middle" x="783" y="-119.5" font-family="Helvetica,sans-Serif" font-size="10.00">chrono</text>
</a>
</g>
</g>
<!-- Node2&#45;&gt;Node12 -->
<g id="edge14" class="edge">
<title>Node2&#45;&gt;Node12</title>
<path fill="none" stroke="midnightblue" d="M842.59,-168.32C831.89,-160.18 815.66,-147.84 802.84,-138.09"/>
<polygon fill="midnightblue" stroke="midnightblue" points="804.69,-135.1 794.61,-131.83 800.46,-140.67 804.69,-135.1"/>
</g>
<!-- Node13 -->
<g id="node13" class="node">
<title>Node13</title>
<g id="a_node13"><a xlink:title=" ">
<polygon fill="none" stroke="#bfbfbf" points="466,-112.5 466,-131.5 528,-131.5 528,-112.5 466,-112.5"/>
<text text-anchor="middle" x="497" y="-119.5" font-family="Helvetica,sans-Serif" font-size="10.00">filesystem</text>
</a>
</g>
</g>
<!-- Node2&#45;&gt;Node13 -->
<g id="edge16" class="edge">
<title>Node2&#45;&gt;Node13</title>
<path fill="none" stroke="midnightblue" d="M800.94,-168.97C729.37,-158.15 603.38,-139.09 538.38,-129.26"/>
<polygon fill="midnightblue" stroke="midnightblue" points="538.52,-125.74 528.11,-127.71 537.48,-132.66 538.52,-125.74"/>
</g>
<!-- Node14 -->
<g id="node14" class="node">
<title>Node14</title>
<g id="a_node14"><a xlink:title=" ">
<polygon fill="none" stroke="#bfbfbf" points="824.5,-112.5 824.5,-131.5 883.5,-131.5 883.5,-112.5 824.5,-112.5"/>
<text text-anchor="middle" x="854" y="-119.5" font-family="Helvetica,sans-Serif" font-size="10.00">functional</text>
</a>
</g>
</g>
<!-- Node2&#45;&gt;Node14 -->
<g id="edge17" class="edge">
<title>Node2&#45;&gt;Node14</title>
<path fill="none" stroke="midnightblue" d="M854,-168.08C854,-161.01 854,-150.86 854,-141.99"/>
<polygon fill="midnightblue" stroke="midnightblue" points="857.5,-141.75 854,-131.75 850.5,-141.75 857.5,-141.75"/>
</g>
<!-- Node15 -->
<g id="node15" class="node">
<title>Node15</title>
<g id="a_node15"><a xlink:title=" ">
<polygon fill="none" stroke="#bfbfbf" points="901.5,-112.5 901.5,-131.5 946.5,-131.5 946.5,-112.5 901.5,-112.5"/>
<text text-anchor="middle" x="924" y="-119.5" font-family="Helvetica,sans-Serif" font-size="10.00">iosfwd</text>
</a>
</g>
</g>
<!-- Node2&#45;&gt;Node15 -->
<g id="edge18" class="edge">
<title>Node2&#45;&gt;Node15</title>
<path fill="none" stroke="midnightblue" d="M865.25,-168.32C875.8,-160.18 891.8,-147.84 904.44,-138.09"/>
<polygon fill="midnightblue" stroke="midnightblue" points="906.77,-140.71 912.55,-131.83 902.49,-135.17 906.77,-140.71"/>
</g>
<!-- Node16 -->
<g id="node16" class="node">
<title>Node16</title>
<g id="a_node16"><a xlink:title=" ">
<polygon fill="none" stroke="#bfbfbf" points="964.5,-112.5 964.5,-131.5 1047.5,-131.5 1047.5,-112.5 964.5,-112.5"/>
<text text-anchor="middle" x="1006" y="-119.5" font-family="Helvetica,sans-Serif" font-size="10.00">unordered_map</text>
</a>
</g>
</g>
<!-- Node2&#45;&gt;Node16 -->
<g id="edge21" class="edge">
<title>Node2&#45;&gt;Node16</title>
<path fill="none" stroke="midnightblue" d="M878.08,-168.44C903.54,-159.4 943.89,-145.06 972.46,-134.92"/>
<polygon fill="midnightblue" stroke="midnightblue" points="973.78,-138.16 982.03,-131.52 971.43,-131.57 973.78,-138.16"/>
</g>
<!-- Node17 -->
<g id="node17" class="node">
<title>Node17</title>
<g id="a_node17"><a xlink:title=" ">
<polygon fill="none" stroke="#bfbfbf" points="1066,-112.5 1066,-131.5 1106,-131.5 1106,-112.5 1066,-112.5"/>
<text text-anchor="middle" x="1086" y="-119.5" font-family="Helvetica,sans-Serif" font-size="10.00">utility</text>
</a>
</g>
</g>
<!-- Node2&#45;&gt;Node17 -->
<g id="edge22" class="edge">
<title>Node2&#45;&gt;Node17</title>
<path fill="none" stroke="midnightblue" d="M896.38,-168.49C937.41,-160.03 1001.25,-146.29 1056,-132 1056.1,-131.97 1056.2,-131.95 1056.3,-131.92"/>
<polygon fill="midnightblue" stroke="midnightblue" points="1057.03,-135.35 1065.72,-129.3 1055.15,-128.61 1057.03,-135.35"/>
</g>
<!-- Node18 -->
<g id="node18" class="node">
<title>Node18</title>
<g id="a_node18"><a xlink:title=" ">
<polygon fill="none" stroke="#bfbfbf" points="698,-112.5 698,-131.5 742,-131.5 742,-112.5 698,-112.5"/>
<text text-anchor="middle" x="720" y="-119.5" font-family="Helvetica,sans-Serif" font-size="10.00">vector</text>
</a>
</g>
</g>
<!-- Node2&#45;&gt;Node18 -->
<g id="edge23" class="edge">
<title>Node2&#45;&gt;Node18</title>
<path fill="none" stroke="midnightblue" d="M832.77,-168.44C810.62,-159.52 775.68,-145.44 750.56,-135.32"/>
<polygon fill="midnightblue" stroke="midnightblue" points="751.72,-132.01 741.13,-131.52 749.1,-138.5 751.72,-132.01"/>
</g>
<!-- Node3&#45;&gt;Node4 -->
<g id="edge3" class="edge">
<title>Node3&#45;&gt;Node4</title>
<path fill="none" stroke="midnightblue" d="M1241.97,-58.4C1237.27,-57.58 1232.52,-56.76 1228,-56 1138.47,-41.02 1033.15,-25.17 977.01,-16.87"/>
<polygon fill="midnightblue" stroke="midnightblue" points="977.19,-13.36 966.78,-15.36 976.16,-20.28 977.19,-13.36"/>
</g>
<!-- Node3&#45;&gt;Node5 -->
<g id="edge4" class="edge">
<title>Node3&#45;&gt;Node5</title>
<path fill="none" stroke="midnightblue" d="M1278,-56.08C1278,-49.01 1278,-38.86 1278,-29.99"/>
<polygon fill="midnightblue" stroke="midnightblue" points="1281.5,-29.75 1278,-19.75 1274.5,-29.75 1281.5,-29.75"/>
</g>
<!-- Node3&#45;&gt;Node6 -->
<g id="edge5" class="edge">
<title>Node3&#45;&gt;Node6</title>
<path fill="none" stroke="midnightblue" d="M1292.14,-56.32C1305.87,-47.9 1326.94,-34.97 1343.06,-25.07"/>
<polygon fill="midnightblue" stroke="midnightblue" points="1345.2,-27.87 1351.9,-19.65 1341.54,-21.9 1345.2,-27.87"/>
</g>
<!-- Node7&#45;&gt;Node3 -->
<g id="edge7" class="edge">
<title>Node7&#45;&gt;Node3</title>
<path fill="none" stroke="midnightblue" d="M1212.53,-112.32C1224.59,-103.98 1243.03,-91.21 1257.27,-81.35"/>
<polygon fill="midnightblue" stroke="midnightblue" points="1259.27,-84.22 1265.5,-75.65 1255.28,-78.47 1259.27,-84.22"/>
</g>
<!-- Node7&#45;&gt;Node4 -->
<g id="edge8" class="edge">
<title>Node7&#45;&gt;Node4</title>
<path fill="none" stroke="midnightblue" d="M1202.36,-112.13C1205.46,-98.25 1209,-71.41 1195,-56 1166.4,-24.52 1041.81,-15.02 976.81,-12.18"/>
<polygon fill="midnightblue" stroke="midnightblue" points="976.66,-8.67 966.53,-11.77 976.38,-15.67 976.66,-8.67"/>
</g>
<!-- Node8 -->
<g id="node8" class="node">
<title>Node8</title>
<g id="a_node8"><a xlink:title=" ">
<polygon fill="none" stroke="#bfbfbf" points="1050,-56.5 1050,-75.5 1186,-75.5 1186,-56.5 1050,-56.5"/>
<text text-anchor="middle" x="1118" y="-63.5" font-family="Helvetica,sans-Serif" font-size="10.00">boost/beast/http/status.hpp</text>
</a>
</g>
</g>
<!-- Node7&#45;&gt;Node8 -->
<g id="edge9" class="edge">
<title>Node7&#45;&gt;Node8</title>
<path fill="none" stroke="midnightblue" d="M1186.83,-112.32C1174.15,-103.98 1154.77,-91.21 1139.79,-81.35"/>
<polygon fill="midnightblue" stroke="midnightblue" points="1141.42,-78.23 1131.14,-75.65 1137.57,-84.08 1141.42,-78.23"/>
</g>
<!-- Node7&#45;&gt;Node9 -->
<g id="edge10" class="edge">
<title>Node7&#45;&gt;Node9</title>
<path fill="none" stroke="midnightblue" d="M1162.38,-116.56C1147.63,-114.93 1130.53,-113.2 1115,-112 789.36,-86.79 706.48,-103.22 381,-76 366.02,-74.75 349.43,-72.84 335.59,-71.11"/>
<polygon fill="midnightblue" stroke="midnightblue" points="335.97,-67.63 325.61,-69.83 335.08,-74.57 335.97,-67.63"/>
</g>
<!-- Node10&#45;&gt;Node11 -->
<g id="edge12" class="edge">
<title>Node10&#45;&gt;Node11</title>
<path fill="none" stroke="midnightblue" d="M415,-112.08C415,-105.01 415,-94.86 415,-85.99"/>
<polygon fill="midnightblue" stroke="midnightblue" points="418.5,-85.75 415,-75.75 411.5,-85.75 418.5,-85.75"/>
</g>
<!-- Node19&#45;&gt;Node4 -->
<g id="edge25" class="edge">
<title>Node19&#45;&gt;Node4</title>
<path fill="none" stroke="midnightblue" d="M79.51,-112.47C118.62,-98.07 201.94,-69.21 275,-56 507.93,-13.9 793.43,-10.39 897.04,-10.65"/>
<polygon fill="midnightblue" stroke="midnightblue" points="897.34,-14.15 907.35,-10.69 897.36,-7.15 897.34,-14.15"/>
</g>
<!-- Node19&#45;&gt;Node9 -->
<g id="edge27" class="edge">
<title>Node19&#45;&gt;Node9</title>
<path fill="none" stroke="midnightblue" d="M96.3,-112.44C145.74,-101.68 229.59,-83.42 274.48,-73.65"/>
<polygon fill="midnightblue" stroke="midnightblue" points="275.46,-77.01 284.49,-71.47 273.97,-70.17 275.46,-77.01"/>
</g>
<!-- Node20 -->
<g id="node20" class="node">
<title>Node20</title>
<g id="a_node20"><a xlink:title=" ">
<polygon fill="none" stroke="#bfbfbf" points="27.5,-56.5 27.5,-75.5 86.5,-75.5 86.5,-56.5 27.5,-56.5"/>
<text text-anchor="middle" x="57" y="-63.5" font-family="Helvetica,sans-Serif" font-size="10.00">exception</text>
</a>
</g>
</g>
<!-- Node19&#45;&gt;Node20 -->
<g id="edge26" class="edge">
<title>Node19&#45;&gt;Node20</title>
<path fill="none" stroke="midnightblue" d="M57,-112.08C57,-105.01 57,-94.86 57,-85.99"/>
<polygon fill="midnightblue" stroke="midnightblue" points="60.5,-85.75 57,-75.75 53.5,-85.75 60.5,-85.75"/>
</g>
<!-- Node21&#45;&gt;Node11 -->
<g id="edge31" class="edge">
<title>Node21&#45;&gt;Node11</title>
<path fill="none" stroke="midnightblue" d="M678.97,-168.41C647.98,-155.8 588.2,-131.65 537,-112 507.18,-100.56 473.05,-88.01 448.48,-79.08"/>
<polygon fill="midnightblue" stroke="midnightblue" points="449.51,-75.73 438.91,-75.61 447.12,-82.31 449.51,-75.73"/>
</g>
<!-- Node22&#45;&gt;Node10 -->
<g id="edge34" class="edge">
<title>Node22&#45;&gt;Node10</title>
<path fill="none" stroke="midnightblue" d="M409.16,-168.08C410.08,-160.93 411.42,-150.64 412.58,-141.69"/>
<polygon fill="midnightblue" stroke="midnightblue" points="416.05,-142.12 413.87,-131.75 409.11,-141.22 416.05,-142.12"/>
</g>
<!-- Node22&#45;&gt;Node11 -->
<g id="edge35" class="edge">
<title>Node22&#45;&gt;Node11</title>
<path fill="none" stroke="midnightblue" d="M397.9,-168.49C384.82,-156.36 364.63,-133.22 373,-112 377.51,-100.55 386.47,-90.29 394.95,-82.47"/>
<polygon fill="midnightblue" stroke="midnightblue" points="397.47,-84.93 402.79,-75.76 392.91,-79.61 397.47,-84.93"/>
</g>
<!-- Node22&#45;&gt;Node13 -->
<g id="edge36" class="edge">
<title>Node22&#45;&gt;Node13</title>
<path fill="none" stroke="midnightblue" d="M422.3,-168.32C436.18,-159.9 457.49,-146.97 473.8,-137.07"/>
<polygon fill="midnightblue" stroke="midnightblue" points="476,-139.83 482.74,-131.65 472.37,-133.85 476,-139.83"/>
</g>
<!-- Node22&#45;&gt;Node23 -->
<g id="edge37" class="edge">
<title>Node22&#45;&gt;Node23</title>
<path fill="none" stroke="midnightblue" d="M380.27,-168.44C349.79,-159.04 300.77,-143.91 267.74,-133.72"/>
<polygon fill="midnightblue" stroke="midnightblue" points="268.64,-130.33 258.05,-130.73 266.57,-137.02 268.64,-130.33"/>
</g>
<!-- Node24 -->
<g id="node24" class="node">
<title>Node24</title>
<g id="a_node24"><a xlink:title=" ">
<polygon fill="none" stroke="#bfbfbf" points="276,-112.5 276,-131.5 326,-131.5 326,-112.5 276,-112.5"/>
<text text-anchor="middle" x="301" y="-119.5" font-family="Helvetica,sans-Serif" font-size="10.00">optional</text>
</a>
</g>
</g>
<!-- Node22&#45;&gt;Node24 -->
<g id="edge38" class="edge">
<title>Node22&#45;&gt;Node24</title>
<path fill="none" stroke="midnightblue" d="M390.81,-168.32C373.65,-159.66 347.05,-146.24 327.25,-136.25"/>
<polygon fill="midnightblue" stroke="midnightblue" points="328.65,-133.04 318.15,-131.65 325.5,-139.28 328.65,-133.04"/>
</g>
<!-- Node25&#45;&gt;Node9 -->
<g id="edge42" class="edge">
<title>Node25&#45;&gt;Node9</title>
<path fill="none" stroke="midnightblue" d="M175.64,-168.13C166.89,-154.74 153.56,-129.11 166,-112 190.6,-78.18 241.16,-69.26 274.05,-67.19"/>
<polygon fill="midnightblue" stroke="midnightblue" points="274.62,-70.67 284.46,-66.73 274.31,-63.68 274.62,-70.67"/>
</g>
<!-- Node25&#45;&gt;Node10 -->
<g id="edge40" class="edge">
<title>Node25&#45;&gt;Node10</title>
<path fill="none" stroke="midnightblue" d="M218.92,-168.44C260.7,-158.76 328.65,-143.01 372.58,-132.83"/>
<polygon fill="midnightblue" stroke="midnightblue" points="373.44,-136.23 382.39,-130.56 371.86,-129.41 373.44,-136.23"/>
</g>
<!-- Node25&#45;&gt;Node11 -->
<g id="edge41" class="edge">
<title>Node25&#45;&gt;Node11</title>
<path fill="none" stroke="midnightblue" d="M181.59,-168.43C181.43,-154.49 183.28,-126.95 199,-112 212.03,-99.61 322.2,-81.18 379.96,-72.24"/>
<polygon fill="midnightblue" stroke="midnightblue" points="380.75,-75.66 390.1,-70.68 379.69,-68.74 380.75,-75.66"/>
</g>
</g>
</svg>
