<?xml version="1.0" encoding="UTF-8" standalone="no"?>
<!DOCTYPE svg PUBLIC "-//W3C//DTD SVG 1.1//EN"
 "http://www.w3.org/Graphics/SVG/1.1/DTD/svg11.dtd">
<!-- Generated by graphviz version 2.44.1 (20211215.1903)
 -->
<!-- Title: include/roar/error.hpp Pages: 1 -->
<!--zoomable 252 -->
<svg id="main" version="1.1" xmlns="http://www.w3.org/2000/svg" xmlns:xlink="http://www.w3.org/1999/xlink" xml:space="preserve" onload="init(evt)">
<style type="text/css"><![CDATA[
.edge:hover path { stroke: red; }
.edge:hover polygon { stroke: red; fill: red; }
]]></style>
<script type="text/javascript"><![CDATA[
var edges = document.getElementsByTagName('g');
if (edges && edges.length) {
  for (var i=0;i<edges.length;i++) {
    if (edges[i].id.substr(0,4)=='edge') {
      edges[i].setAttribute('class','edge');
    }
  }
}
]]></script>
        <defs>
                <circle id="rim" cx="0" cy="0" r="7"/>
                <circle id="rim2" cx="0" cy="0" r="3.5"/>
                <g id="zoomPlus">
                        <use xlink:href="#rim" fill="#404040">
                                <set attributeName="fill" to="#808080" begin="zoomplus.mouseover" end="zoomplus.mouseout"/>
                        </use>
                        <path d="M-4,0h8M0,-4v8" fill="none" stroke="white" stroke-width="1.5" pointer-events="none"/>
                </g>
                <g id="zoomMin">
                        <use xlink:href="#rim" fill="#404040">
                                <set attributeName="fill" to="#808080" begin="zoomminus.mouseover" end="zoomminus.mouseout"/>
                        </use>
                        <path d="M-4,0h8" fill="none" stroke="white" stroke-width="1.5" pointer-events="none"/>
                </g>
                <g id="dirArrow">
                        <path fill="none" stroke="white" stroke-width="1.5" d="M0,-3.0v7 M-2.5,-0.5L0,-3.0L2.5,-0.5"/>
                </g>
               <g id="resetDef">
                       <use xlink:href="#rim2" fill="#404040">
                               <set attributeName="fill" to="#808080" begin="reset.mouseover" end="reset.mouseout"/>
                       </use>
               </g>
        </defs>

<script type="text/javascript">
var viewWidth = 1263;
var viewHeight = 252;
var sectionId = 'dynsection-1';
</script>
<script xlink:href="svgpan.js"/>
<svg id="graph" class="graph">
<g id="viewport">
<title>include/roar/error.hpp</title>
<!-- Node1 -->
<g id="node1" class="node">
<title>Node1</title>
<g id="a_node1"><a xlink:title=" ">
<polygon fill="#bfbfbf" stroke="black" points="277.87,-224.5 277.87,-243.5 385.87,-243.5 385.87,-224.5 277.87,-224.5"/>
<text text-anchor="middle" x="331.87" y="-231.5" font-family="Helvetica,sans-Serif" font-size="10.00">include/roar/error.hpp</text>
</a>
</g>
</g>
<!-- Node2 -->
<g id="node2" class="node">
<title>Node2</title>
<g id="a_node2"><a xlink:href="simple__server_2main_8cpp.html" target="_top" xlink:title=" ">
<polygon fill="none" stroke="black" points="1090.37,-0.5 1090.37,-19.5 1255.37,-19.5 1255.37,-0.5 1090.37,-0.5"/>
<text text-anchor="middle" x="1172.87" y="-7.5" font-family="Helvetica,sans-Serif" font-size="10.00">examples/simple_server/main.cpp</text>
</a>
</g>
</g>
<!-- Node1&#45;&gt;Node2 -->
<g id="edge1" class="edge">
<title>Node1&#45;&gt;Node2</title>
<path fill="none" stroke="midnightblue" d="M395.93,-224.08C457.7,-215.35 553.79,-201.44 636.87,-188 878.41,-148.92 1025.61,-269.09 1175.87,-76 1188.64,-59.6 1181.5,-33.19 1176.48,-19.64"/>
<polygon fill="midnightblue" stroke="midnightblue" points="395.35,-220.62 385.94,-225.49 396.33,-227.56 395.35,-220.62"/>
</g>
<!-- Node3 -->
<g id="node3" class="node">
<title>Node3</title>
<g id="a_node3"><a xlink:href="websocket_2main_8cpp.html" target="_top" xlink:title=" ">
<polygon fill="none" stroke="black" points="275.87,-0.5 275.87,-19.5 427.87,-19.5 427.87,-0.5 275.87,-0.5"/>
<text text-anchor="middle" x="351.87" y="-7.5" font-family="Helvetica,sans-Serif" font-size="10.00">examples/websocket/main.cpp</text>
</a>
</g>
</g>
<!-- Node1&#45;&gt;Node3 -->
<g id="edge2" class="edge">
<title>Node1&#45;&gt;Node3</title>
<path fill="none" stroke="midnightblue" d="M267.55,-233.28C185.25,-232.11 49.52,-224.5 17.87,-188 -66.49,-90.69 174.78,-38.56 292,-19.52"/>
<polygon fill="midnightblue" stroke="midnightblue" points="267.52,-236.78 277.56,-233.39 267.6,-229.78 267.52,-236.78"/>
</g>
<!-- Node4 -->
<g id="node4" class="node">
<title>Node4</title>
<g id="a_node4"><a xlink:href="server_8hpp.html" target="_top" xlink:title=" ">
<polygon fill="none" stroke="black" points="303.87,-56.5 303.87,-75.5 419.87,-75.5 419.87,-56.5 303.87,-56.5"/>
<text text-anchor="middle" x="361.87" y="-63.5" font-family="Helvetica,sans-Serif" font-size="10.00">include/roar/server.hpp</text>
</a>
</g>
</g>
<!-- Node1&#45;&gt;Node4 -->
<g id="edge3" class="edge">
<title>Node1&#45;&gt;Node4</title>
<path fill="none" stroke="midnightblue" d="M395.96,-225.21C493.26,-211.91 670.98,-181.39 708.87,-132 762.33,-62.34 995.29,-152.25 425.87,-76 423.98,-75.75 422.06,-75.49 420.12,-75.22"/>
<polygon fill="midnightblue" stroke="midnightblue" points="395.38,-221.75 385.94,-226.55 396.32,-228.69 395.38,-221.75"/>
</g>
<!-- Node7 -->
<g id="node7" class="node">
<title>Node7</title>
<g id="a_node7"><a xlink:href="factory_8hpp.html" target="_top" xlink:title=" ">
<polygon fill="none" stroke="black" points="27.37,-168.5 27.37,-187.5 182.37,-187.5 182.37,-168.5 27.37,-168.5"/>
<text text-anchor="middle" x="104.87" y="-175.5" font-family="Helvetica,sans-Serif" font-size="10.00">include/roar/session/factory.hpp</text>
</a>
</g>
</g>
<!-- Node1&#45;&gt;Node7 -->
<g id="edge8" class="edge">
<title>Node1&#45;&gt;Node7</title>
<path fill="none" stroke="midnightblue" d="M286,-222.09C243.12,-211.89 179.96,-196.86 140.67,-187.52"/>
<polygon fill="midnightblue" stroke="midnightblue" points="285.37,-225.53 295.9,-224.44 286.99,-218.72 285.37,-225.53"/>
</g>
<!-- Node9 -->
<g id="node9" class="node">
<title>Node9</title>
<g id="a_node9"><a xlink:href="session_8hpp.html" target="_top" xlink:title=" ">
<polygon fill="none" stroke="black" points="252.37,-168.5 252.37,-187.5 411.37,-187.5 411.37,-168.5 252.37,-168.5"/>
<text text-anchor="middle" x="331.87" y="-175.5" font-family="Helvetica,sans-Serif" font-size="10.00">include/roar/session/session.hpp</text>
</a>
</g>
</g>
<!-- Node1&#45;&gt;Node9 -->
<g id="edge11" class="edge">
<title>Node1&#45;&gt;Node9</title>
<path fill="none" stroke="midnightblue" d="M331.87,-213.8C331.87,-204.91 331.87,-194.78 331.87,-187.75"/>
<polygon fill="midnightblue" stroke="midnightblue" points="328.37,-214.08 331.87,-224.08 335.37,-214.08 328.37,-214.08"/>
</g>
<!-- Node4&#45;&gt;Node2 -->
<g id="edge4" class="edge">
<title>Node4&#45;&gt;Node2</title>
<path fill="none" stroke="midnightblue" d="M430.06,-58.89C442.31,-57.87 454.97,-56.86 466.87,-56 738.19,-36.38 806.65,-40.83 1077.87,-20 1081.92,-19.69 1086.06,-19.36 1090.25,-19.01"/>
<polygon fill="midnightblue" stroke="midnightblue" points="429.56,-55.42 419.89,-59.75 430.15,-62.39 429.56,-55.42"/>
</g>
<!-- Node4&#45;&gt;Node3 -->
<g id="edge5" class="edge">
<title>Node4&#45;&gt;Node3</title>
<path fill="none" stroke="midnightblue" d="M358.37,-46.1C356.71,-37.14 354.81,-26.86 353.49,-19.75"/>
<polygon fill="midnightblue" stroke="midnightblue" points="354.96,-46.89 360.22,-56.08 361.84,-45.61 354.96,-46.89"/>
</g>
<!-- Node5 -->
<g id="node5" class="node">
<title>Node5</title>
<g id="a_node5"><a xlink:href="src_2roar_2routing_2request__listener_8cpp.html" target="_top" xlink:title=" ">
<polygon fill="none" stroke="black" points="664.37,-0.5 664.37,-19.5 837.37,-19.5 837.37,-0.5 664.37,-0.5"/>
<text text-anchor="middle" x="750.87" y="-7.5" font-family="Helvetica,sans-Serif" font-size="10.00">src/roar/routing/request_listener.cpp</text>
</a>
</g>
</g>
<!-- Node4&#45;&gt;Node5 -->
<g id="edge6" class="edge">
<title>Node4&#45;&gt;Node5</title>
<path fill="none" stroke="midnightblue" d="M430.16,-55.52C503.44,-45.35 618.79,-29.34 689.34,-19.54"/>
<polygon fill="midnightblue" stroke="midnightblue" points="429.53,-52.07 420.11,-56.92 430.5,-59.01 429.53,-52.07"/>
</g>
<!-- Node6 -->
<g id="node6" class="node">
<title>Node6</title>
<g id="a_node6"><a xlink:href="server_8cpp.html" target="_top" xlink:title=" ">
<polygon fill="none" stroke="black" points="152.87,-0.5 152.87,-19.5 250.87,-19.5 250.87,-0.5 152.87,-0.5"/>
<text text-anchor="middle" x="201.87" y="-7.5" font-family="Helvetica,sans-Serif" font-size="10.00">src/roar/server.cpp</text>
</a>
</g>
</g>
<!-- Node4&#45;&gt;Node6 -->
<g id="edge7" class="edge">
<title>Node4&#45;&gt;Node6</title>
<path fill="none" stroke="midnightblue" d="M326.83,-53.17C296.7,-43 253.98,-28.59 227.11,-19.52"/>
<polygon fill="midnightblue" stroke="midnightblue" points="325.93,-56.56 336.52,-56.44 328.17,-49.93 325.93,-56.56"/>
</g>
<!-- Node7&#45;&gt;Node6 -->
<g id="edge9" class="edge">
<title>Node7&#45;&gt;Node6</title>
<path fill="none" stroke="midnightblue" d="M68.83,-164.49C42.56,-153.19 13.68,-134.84 26.87,-112 57.13,-59.6 126.07,-31.96 167.82,-19.5"/>
<polygon fill="midnightblue" stroke="midnightblue" points="67.73,-167.82 78.31,-168.33 70.36,-161.33 67.73,-167.82"/>
</g>
<!-- Node8 -->
<g id="node8" class="node">
<title>Node8</title>
<g id="a_node8"><a xlink:href="factory_8cpp.html" target="_top" xlink:title=" ">
<polygon fill="none" stroke="black" points="36.37,-112.5 36.37,-131.5 173.37,-131.5 173.37,-112.5 36.37,-112.5"/>
<text text-anchor="middle" x="104.87" y="-119.5" font-family="Helvetica,sans-Serif" font-size="10.00">src/roar/session/factory.cpp</text>
</a>
</g>
</g>
<!-- Node7&#45;&gt;Node8 -->
<g id="edge10" class="edge">
<title>Node7&#45;&gt;Node8</title>
<path fill="none" stroke="midnightblue" d="M104.87,-157.8C104.87,-148.91 104.87,-138.78 104.87,-131.75"/>
<polygon fill="midnightblue" stroke="midnightblue" points="101.37,-158.08 104.87,-168.08 108.37,-158.08 101.37,-158.08"/>
</g>
<!-- Node9&#45;&gt;Node4 -->
<g id="edge24" class="edge">
<title>Node9&#45;&gt;Node4</title>
<path fill="none" stroke="midnightblue" d="M299.12,-164.49C273.58,-152.75 244.64,-133.75 258.87,-112 271.32,-92.98 293.77,-81.95 314.54,-75.58"/>
<polygon fill="midnightblue" stroke="midnightblue" points="297.72,-167.7 308.29,-168.49 300.52,-161.29 297.72,-167.7"/>
</g>
<!-- Node9&#45;&gt;Node6 -->
<g id="edge27" class="edge">
<title>Node9&#45;&gt;Node6</title>
<path fill="none" stroke="midnightblue" d="M298.24,-164.22C282.45,-156.81 264.39,-146.12 251.87,-132 221.12,-97.3 207.63,-41.07 203.42,-19.65"/>
<polygon fill="midnightblue" stroke="midnightblue" points="297.15,-167.56 307.71,-168.41 299.98,-161.16 297.15,-167.56"/>
</g>
<!-- Node9&#45;&gt;Node8 -->
<g id="edge28" class="edge">
<title>Node9&#45;&gt;Node8</title>
<path fill="none" stroke="midnightblue" d="M286,-166.09C243.12,-155.89 179.96,-140.86 140.67,-131.52"/>
<polygon fill="midnightblue" stroke="midnightblue" points="285.37,-169.53 295.9,-168.44 286.99,-162.72 285.37,-169.53"/>
</g>
<!-- Node10 -->
<g id="node10" class="node">
<title>Node10</title>
<g id="a_node10"><a xlink:href="include_2roar_2routing_2request__listener_8hpp.html" target="_top" xlink:title=" ">
<polygon fill="none" stroke="black" points="755.87,-112.5 755.87,-131.5 945.87,-131.5 945.87,-112.5 755.87,-112.5"/>
<text text-anchor="middle" x="850.87" y="-119.5" font-family="Helvetica,sans-Serif" font-size="10.00">include/roar/routing/request_listener.hpp</text>
</a>
</g>
</g>
<!-- Node9&#45;&gt;Node10 -->
<g id="edge12" class="edge">
<title>Node9&#45;&gt;Node10</title>
<path fill="none" stroke="midnightblue" d="M421.71,-167.65C519.49,-157.48 674.49,-141.35 769.02,-131.52"/>
<polygon fill="midnightblue" stroke="midnightblue" points="421.13,-164.19 411.55,-168.71 421.86,-171.16 421.13,-164.19"/>
</g>
<!-- Node16 -->
<g id="node16" class="node">
<title>Node16</title>
<g id="a_node16"><a xlink:href="route_8cpp.html" target="_top" xlink:title=" ">
<polygon fill="none" stroke="black" points="574.37,-112.5 574.37,-131.5 699.37,-131.5 699.37,-112.5 574.37,-112.5"/>
<text text-anchor="middle" x="636.87" y="-119.5" font-family="Helvetica,sans-Serif" font-size="10.00">src/roar/routing/route.cpp</text>
</a>
</g>
</g>
<!-- Node9&#45;&gt;Node16 -->
<g id="edge25" class="edge">
<title>Node9&#45;&gt;Node16</title>
<path fill="none" stroke="midnightblue" d="M390.25,-166.66C447.89,-156.46 534.99,-141.04 588.77,-131.52"/>
<polygon fill="midnightblue" stroke="midnightblue" points="389.44,-163.25 380.2,-168.44 390.66,-170.15 389.44,-163.25"/>
</g>
<!-- Node17 -->
<g id="node17" class="node">
<title>Node17</title>
<g id="a_node17"><a xlink:href="router_8cpp.html" target="_top" xlink:title=" ">
<polygon fill="none" stroke="black" points="267.87,-112.5 267.87,-131.5 395.87,-131.5 395.87,-112.5 267.87,-112.5"/>
<text text-anchor="middle" x="331.87" y="-119.5" font-family="Helvetica,sans-Serif" font-size="10.00">src/roar/routing/router.cpp</text>
</a>
</g>
</g>
<!-- Node9&#45;&gt;Node17 -->
<g id="edge26" class="edge">
<title>Node9&#45;&gt;Node17</title>
<path fill="none" stroke="midnightblue" d="M331.87,-157.8C331.87,-148.91 331.87,-138.78 331.87,-131.75"/>
<polygon fill="midnightblue" stroke="midnightblue" points="328.37,-158.08 331.87,-168.08 335.37,-158.08 328.37,-158.08"/>
</g>
<!-- Node18 -->
<g id="node18" class="node">
<title>Node18</title>
<g id="a_node18"><a xlink:href="session_8cpp.html" target="_top" xlink:title=" ">
<polygon fill="none" stroke="black" points="413.87,-112.5 413.87,-131.5 555.87,-131.5 555.87,-112.5 413.87,-112.5"/>
<text text-anchor="middle" x="484.87" y="-119.5" font-family="Helvetica,sans-Serif" font-size="10.00">src/roar/session/session.cpp</text>
</a>
</g>
</g>
<!-- Node9&#45;&gt;Node18 -->
<g id="edge29" class="edge">
<title>Node9&#45;&gt;Node18</title>
<path fill="none" stroke="midnightblue" d="M365.76,-165.04C394.55,-154.88 435.16,-140.55 460.74,-131.52"/>
<polygon fill="midnightblue" stroke="midnightblue" points="364.38,-161.81 356.12,-168.44 366.71,-168.42 364.38,-161.81"/>
</g>
<!-- Node10&#45;&gt;Node2 -->
<g id="edge14" class="edge">
<title>Node10&#45;&gt;Node2</title>
<path fill="none" stroke="midnightblue" d="M956.14,-117.61C1032.36,-112.97 1126.88,-101.98 1155.87,-76 1172.03,-61.52 1173.68,-33.77 1173.38,-19.67"/>
<polygon fill="midnightblue" stroke="midnightblue" points="955.77,-114.12 945.99,-118.2 956.17,-121.11 955.77,-114.12"/>
</g>
<!-- Node10&#45;&gt;Node3 -->
<g id="edge18" class="edge">
<title>Node10&#45;&gt;Node3</title>
<path fill="none" stroke="midnightblue" d="M752.4,-111.5C647.66,-101.08 493.42,-84.66 466.87,-76 456.25,-72.53 395.08,-36.63 366.54,-19.72"/>
<polygon fill="midnightblue" stroke="midnightblue" points="752.08,-114.99 762.38,-112.49 752.77,-108.02 752.08,-114.99"/>
</g>
<!-- Node10&#45;&gt;Node4 -->
<g id="edge22" class="edge">
<title>Node10&#45;&gt;Node4</title>
<path fill="none" stroke="midnightblue" d="M758.06,-111.44C673.52,-102.62 545.25,-88.97 433.87,-76 429.37,-75.48 424.71,-74.92 420.02,-74.35"/>
<polygon fill="midnightblue" stroke="midnightblue" points="757.84,-114.93 768.15,-112.49 758.56,-107.97 757.84,-114.93"/>
</g>
<!-- Node10&#45;&gt;Node5 -->
<g id="edge23" class="edge">
<title>Node10&#45;&gt;Node5</title>
<path fill="none" stroke="midnightblue" d="M781.5,-109.29C762.99,-102.66 745.05,-92.27 733.87,-76 721.86,-58.5 735.52,-33.03 744.42,-19.77"/>
<polygon fill="midnightblue" stroke="midnightblue" points="780.61,-112.68 791.2,-112.43 782.76,-106.02 780.61,-112.68"/>
</g>
<!-- Node11 -->
<g id="node11" class="node">
<title>Node11</title>
<g id="a_node11"><a xlink:href="request__listener_2main_8cpp.html" target="_top" xlink:title=" ">
<polygon fill="none" stroke="black" points="973.37,-56.5 973.37,-75.5 1146.37,-75.5 1146.37,-56.5 973.37,-56.5"/>
<text text-anchor="middle" x="1059.87" y="-63.5" font-family="Helvetica,sans-Serif" font-size="10.00">examples/request_listener/main.cpp</text>
</a>
</g>
</g>
<!-- Node10&#45;&gt;Node11 -->
<g id="edge13" class="edge">
<title>Node10&#45;&gt;Node11</title>
<path fill="none" stroke="midnightblue" d="M893.86,-109.89C933.33,-99.7 990.97,-84.8 1026.91,-75.52"/>
<polygon fill="midnightblue" stroke="midnightblue" points="892.8,-106.55 883.99,-112.44 894.55,-113.33 892.8,-106.55"/>
</g>
<!-- Node12 -->
<g id="node12" class="node">
<title>Node12</title>
<g id="a_node12"><a xlink:href="examples_2simple__server_2request__listener_8hpp.html" target="_top" xlink:title=" ">
<polygon fill="none" stroke="black" points="742.37,-56.5 742.37,-75.5 955.37,-75.5 955.37,-56.5 742.37,-56.5"/>
<text text-anchor="middle" x="848.87" y="-63.5" font-family="Helvetica,sans-Serif" font-size="10.00">examples/simple_server/request_listener.hpp</text>
</a>
</g>
</g>
<!-- Node10&#45;&gt;Node12 -->
<g id="edge15" class="edge">
<title>Node10&#45;&gt;Node12</title>
<path fill="none" stroke="midnightblue" d="M850.16,-101.8C849.83,-92.91 849.46,-82.78 849.2,-75.75"/>
<polygon fill="midnightblue" stroke="midnightblue" points="846.68,-102.22 850.54,-112.08 853.67,-101.96 846.68,-102.22"/>
</g>
<!-- Node14 -->
<g id="node14" class="node">
<title>Node14</title>
<g id="a_node14"><a xlink:href="examples_2websocket_2request__listener_8hpp.html" target="_top" xlink:title=" ">
<polygon fill="none" stroke="black" points="475.87,-56.5 475.87,-75.5 675.87,-75.5 675.87,-56.5 475.87,-56.5"/>
<text text-anchor="middle" x="575.87" y="-63.5" font-family="Helvetica,sans-Serif" font-size="10.00">examples/websocket/request_listener.hpp</text>
</a>
</g>
</g>
<!-- Node10&#45;&gt;Node14 -->
<g id="edge19" class="edge">
<title>Node10&#45;&gt;Node14</title>
<path fill="none" stroke="midnightblue" d="M797.27,-110.47C745.29,-100.27 667.44,-84.98 619.24,-75.52"/>
<polygon fill="midnightblue" stroke="midnightblue" points="796.81,-113.95 807.3,-112.44 798.16,-107.08 796.81,-113.95"/>
</g>
<!-- Node12&#45;&gt;Node2 -->
<g id="edge16" class="edge">
<title>Node12&#45;&gt;Node2</title>
<path fill="none" stroke="midnightblue" d="M910.13,-54.79C971.35,-44.59 1064.41,-29.08 1121.78,-19.52"/>
<polygon fill="midnightblue" stroke="midnightblue" points="909.5,-51.35 900.21,-56.44 910.65,-58.25 909.5,-51.35"/>
</g>
<!-- Node13 -->
<g id="node13" class="node">
<title>Node13</title>
<g id="a_node13"><a xlink:href="examples_2simple__server_2request__listener_8cpp.html" target="_top" xlink:title=" ">
<polygon fill="none" stroke="black" points="855.37,-0.5 855.37,-19.5 1068.37,-19.5 1068.37,-0.5 855.37,-0.5"/>
<text text-anchor="middle" x="961.87" y="-7.5" font-family="Helvetica,sans-Serif" font-size="10.00">examples/simple_server/request_listener.cpp</text>
</a>
</g>
</g>
<!-- Node12&#45;&gt;Node13 -->
<g id="edge17" class="edge">
<title>Node12&#45;&gt;Node13</title>
<path fill="none" stroke="midnightblue" d="M875.88,-52.1C896.99,-42.01 925.74,-28.27 944.05,-19.52"/>
<polygon fill="midnightblue" stroke="midnightblue" points="874.29,-48.97 866.78,-56.44 877.31,-55.29 874.29,-48.97"/>
</g>
<!-- Node14&#45;&gt;Node3 -->
<g id="edge20" class="edge">
<title>Node14&#45;&gt;Node3</title>
<path fill="none" stroke="midnightblue" d="M530.61,-54.09C488.29,-43.89 425.96,-28.86 387.2,-19.52"/>
<polygon fill="midnightblue" stroke="midnightblue" points="529.84,-57.5 540.38,-56.44 531.48,-50.7 529.84,-57.5"/>
</g>
<!-- Node15 -->
<g id="node15" class="node">
<title>Node15</title>
<g id="a_node15"><a xlink:href="examples_2websocket_2request__listener_8cpp.html" target="_top" xlink:title=" ">
<polygon fill="none" stroke="black" points="445.87,-0.5 445.87,-19.5 645.87,-19.5 645.87,-0.5 445.87,-0.5"/>
<text text-anchor="middle" x="545.87" y="-7.5" font-family="Helvetica,sans-Serif" font-size="10.00">examples/websocket/request_listener.cpp</text>
</a>
</g>
</g>
<!-- Node14&#45;&gt;Node15 -->
<g id="edge21" class="edge">
<title>Node14&#45;&gt;Node15</title>
<path fill="none" stroke="midnightblue" d="M566.03,-47.27C560.9,-38.05 554.86,-27.17 550.74,-19.75"/>
<polygon fill="midnightblue" stroke="midnightblue" points="563,-49.04 570.92,-56.08 569.12,-45.64 563,-49.04"/>
</g>
</g>
</svg>
        <g id="navigator" transform="translate(0 0)" fill="#404254">
                <rect fill="#f2f5e9" fill-opacity="0.5" stroke="#606060" stroke-width=".5" x="0" y="0" width="60" height="60"/>
                <use id="zoomplus" xlink:href="#zoomPlus" x="17" y="9" onmousedown="handleZoom(evt,'in')"/>
                <use id="zoomminus" xlink:href="#zoomMin" x="42" y="9" onmousedown="handleZoom(evt,'out')"/>
                <use id="reset" xlink:href="#resetDef" x="30" y="36" onmousedown="handleReset()"/>
                <g id="arrowUp" xlink:href="#dirArrow" transform="translate(30 24)" onmousedown="handlePan(0,-1)">
                  <use xlink:href="#rim" fill="#404040">
                        <set attributeName="fill" to="#808080" begin="arrowUp.mouseover" end="arrowUp.mouseout"/>
                  </use>
                  <path fill="none" stroke="white" stroke-width="1.5" d="M0,-3.0v7 M-2.5,-0.5L0,-3.0L2.5,-0.5"/>
                </g>
                <g id="arrowRight" xlink:href="#dirArrow" transform="rotate(90) translate(36 -43)" onmousedown="handlePan(1,0)">
                  <use xlink:href="#rim" fill="#404040">
                        <set attributeName="fill" to="#808080" begin="arrowRight.mouseover" end="arrowRight.mouseout"/>
                  </use>
                  <path fill="none" stroke="white" stroke-width="1.5" d="M0,-3.0v7 M-2.5,-0.5L0,-3.0L2.5,-0.5"/>
                </g>
                <g id="arrowDown" xlink:href="#dirArrow" transform="rotate(180) translate(-30 -48)" onmousedown="handlePan(0,1)">
                  <use xlink:href="#rim" fill="#404040">
                        <set attributeName="fill" to="#808080" begin="arrowDown.mouseover" end="arrowDown.mouseout"/>
                  </use>
                  <path fill="none" stroke="white" stroke-width="1.5" d="M0,-3.0v7 M-2.5,-0.5L0,-3.0L2.5,-0.5"/>
                </g>
                <g id="arrowLeft" xlink:href="#dirArrow" transform="rotate(270) translate(-36 17)" onmousedown="handlePan(-1,0)">
                  <use xlink:href="#rim" fill="#404040">
                        <set attributeName="fill" to="#808080" begin="arrowLeft.mouseover" end="arrowLeft.mouseout"/>
                  </use>
                  <path fill="none" stroke="white" stroke-width="1.5" d="M0,-3.0v7 M-2.5,-0.5L0,-3.0L2.5,-0.5"/>
                </g>
        </g>
        <svg viewBox="0 0 15 15" width="100%" height="30px" preserveAspectRatio="xMaxYMin meet">
         <g id="arrow_out" transform="scale(0.3 0.3)">
          <a xlink:href="error_8hpp__dep__incl_org.svg" target="_base">
           <rect id="button" ry="5" rx="5" y="6" x="6" height="38" width="38"
                fill="#f2f5e9" fill-opacity="0.5" stroke="#606060" stroke-width="1.0"/>
           <path id="arrow"
             d="M 11.500037,31.436501 C 11.940474,20.09759 22.043105,11.32322 32.158766,21.979434 L 37.068811,17.246167 C 37.068811,17.246167 37.088388,32 37.088388,32 L 22.160133,31.978069 C 22.160133,31.978069 26.997745,27.140456 26.997745,27.140456 C 18.528582,18.264221 13.291696,25.230495 11.500037,31.436501 z"
             style="fill:#404040;"/>
          </a>
         </g>
        </svg>
</svg>
