<?xml version="1.0" encoding="UTF-8" standalone="no"?>
<!DOCTYPE svg PUBLIC "-//W3C//DTD SVG 1.1//EN"
 "http://www.w3.org/Graphics/SVG/1.1/DTD/svg11.dtd">
<!-- Generated by graphviz version 2.44.1 (20211215.1903)
 -->
<!-- Title: include/roar/session/factory.hpp Pages: 1 -->
<!--zoomable 140 -->
<svg id="main" version="1.1" xmlns="http://www.w3.org/2000/svg" xmlns:xlink="http://www.w3.org/1999/xlink" xml:space="preserve" onload="init(evt)">
<style type="text/css"><![CDATA[
.edge:hover path { stroke: red; }
.edge:hover polygon { stroke: red; fill: red; }
]]></style>
<script type="text/javascript"><![CDATA[
var edges = document.getElementsByTagName('g');
if (edges && edges.length) {
  for (var i=0;i<edges.length;i++) {
    if (edges[i].id.substr(0,4)=='edge') {
      edges[i].setAttribute('class','edge');
    }
  }
}
]]></script>
        <defs>
                <circle id="rim" cx="0" cy="0" r="7"/>
                <circle id="rim2" cx="0" cy="0" r="3.5"/>
                <g id="zoomPlus">
                        <use xlink:href="#rim" fill="#404040">
                                <set attributeName="fill" to="#808080" begin="zoomplus.mouseover" end="zoomplus.mouseout"/>
                        </use>
                        <path d="M-4,0h8M0,-4v8" fill="none" stroke="white" stroke-width="1.5" pointer-events="none"/>
                </g>
                <g id="zoomMin">
                        <use xlink:href="#rim" fill="#404040">
                                <set attributeName="fill" to="#808080" begin="zoomminus.mouseover" end="zoomminus.mouseout"/>
                        </use>
                        <path d="M-4,0h8" fill="none" stroke="white" stroke-width="1.5" pointer-events="none"/>
                </g>
                <g id="dirArrow">
                        <path fill="none" stroke="white" stroke-width="1.5" d="M0,-3.0v7 M-2.5,-0.5L0,-3.0L2.5,-0.5"/>
                </g>
               <g id="resetDef">
                       <use xlink:href="#rim2" fill="#404040">
                               <set attributeName="fill" to="#808080" begin="reset.mouseover" end="reset.mouseout"/>
                       </use>
               </g>
        </defs>

<script type="text/javascript">
var viewWidth = 1545;
var viewHeight = 140;
var sectionId = 'dynsection-0';
</script>
<script xlink:href="svgpan.js"/>
<svg id="graph" class="graph">
<g id="viewport">
<title>include/roar/session/factory.hpp</title>
<!-- Node1 -->
<g id="node1" class="node">
<title>Node1</title>
<g id="a_node1"><a xlink:title=" ">
<polygon fill="#bfbfbf" stroke="black" points="1093,-112.5 1093,-131.5 1248,-131.5 1248,-112.5 1093,-112.5"/>
<text text-anchor="middle" x="1170.5" y="-119.5" font-family="Helvetica,sans-Serif" font-size="10.00">include/roar/session/factory.hpp</text>
</a>
</g>
</g>
<!-- Node2 -->
<g id="node2" class="node">
<title>Node2</title>
<g id="a_node2"><a xlink:href="forward_8hpp.html" target="_top" xlink:title=" ">
<polygon fill="none" stroke="black" points="760.5,-0.5 760.5,-19.5 874.5,-19.5 874.5,-0.5 760.5,-0.5"/>
<text text-anchor="middle" x="817.5" y="-7.5" font-family="Helvetica,sans-Serif" font-size="10.00">roar/beast/forward.hpp</text>
</a>
</g>
</g>
<!-- Node1&#45;&gt;Node2 -->
<g id="edge1" class="edge">
<title>Node1&#45;&gt;Node2</title>
<path fill="none" stroke="midnightblue" d="M1143.09,-112.46C1080.41,-92.93 926.49,-44.96 855.05,-22.7"/>
<polygon fill="midnightblue" stroke="midnightblue" points="855.72,-19.24 845.13,-19.61 853.64,-25.93 855.72,-19.24"/>
</g>
<!-- Node3 -->
<g id="node3" class="node">
<title>Node3</title>
<g id="a_node3"><a xlink:href="pimpl__special__functions_8hpp.html" target="_top" xlink:title=" ">
<polygon fill="none" stroke="black" points="1217,-56.5 1217,-75.5 1402,-75.5 1402,-56.5 1217,-56.5"/>
<text text-anchor="middle" x="1309.5" y="-63.5" font-family="Helvetica,sans-Serif" font-size="10.00">roar/detail/pimpl_special_functions.hpp</text>
</a>
</g>
</g>
<!-- Node1&#45;&gt;Node3 -->
<g id="edge2" class="edge">
<title>Node1&#45;&gt;Node3</title>
<path fill="none" stroke="midnightblue" d="M1192.52,-112.44C1215.6,-103.48 1252.06,-89.31 1278.14,-79.18"/>
<polygon fill="midnightblue" stroke="midnightblue" points="1279.52,-82.4 1287.58,-75.52 1276.99,-75.88 1279.52,-82.4"/>
</g>
<!-- Node4 -->
<g id="node4" class="node">
<title>Node4</title>
<g id="a_node4"><a xlink:href="standard__response__provider_8hpp.html" target="_top" xlink:title=" ">
<polygon fill="none" stroke="black" points="406,-56.5 406,-75.5 583,-75.5 583,-56.5 406,-56.5"/>
<text text-anchor="middle" x="494.5" y="-63.5" font-family="Helvetica,sans-Serif" font-size="10.00">roar/standard_response_provider.hpp</text>
</a>
</g>
</g>
<!-- Node1&#45;&gt;Node4 -->
<g id="edge3" class="edge">
<title>Node1&#45;&gt;Node4</title>
<path fill="none" stroke="midnightblue" d="M1092.95,-114.81C969.55,-104.95 728.6,-85.7 593.11,-74.88"/>
<polygon fill="midnightblue" stroke="midnightblue" points="593.39,-71.39 583.14,-74.08 592.83,-78.37 593.39,-71.39"/>
</g>
<!-- Node10 -->
<g id="node10" class="node">
<title>Node10</title>
<g id="a_node10"><a xlink:href="error_8hpp.html" target="_top" xlink:title=" ">
<polygon fill="none" stroke="black" points="1049.5,-56.5 1049.5,-75.5 1123.5,-75.5 1123.5,-56.5 1049.5,-56.5"/>
<text text-anchor="middle" x="1086.5" y="-63.5" font-family="Helvetica,sans-Serif" font-size="10.00">roar/error.hpp</text>
</a>
</g>
</g>
<!-- Node1&#45;&gt;Node10 -->
<g id="edge9" class="edge">
<title>Node1&#45;&gt;Node10</title>
<path fill="none" stroke="midnightblue" d="M1157,-112.32C1143.9,-103.9 1123.79,-90.97 1108.39,-81.07"/>
<polygon fill="midnightblue" stroke="midnightblue" points="1110.27,-78.12 1099.96,-75.65 1106.48,-84.01 1110.27,-78.12"/>
</g>
<!-- Node14 -->
<g id="node14" class="node">
<title>Node14</title>
<g id="a_node14"><a xlink:title=" ">
<polygon fill="none" stroke="#bfbfbf" points="1189.5,-0.5 1189.5,-19.5 1239.5,-19.5 1239.5,-0.5 1189.5,-0.5"/>
<text text-anchor="middle" x="1214.5" y="-7.5" font-family="Helvetica,sans-Serif" font-size="10.00">optional</text>
</a>
</g>
</g>
<!-- Node1&#45;&gt;Node14 -->
<g id="edge18" class="edge">
<title>Node1&#45;&gt;Node14</title>
<path fill="none" stroke="midnightblue" d="M1169.49,-112.19C1168.37,-99.3 1167.65,-74.8 1175.5,-56 1180.1,-44.98 1188.49,-34.74 1196.31,-26.83"/>
<polygon fill="midnightblue" stroke="midnightblue" points="1198.93,-29.16 1203.78,-19.74 1194.12,-24.08 1198.93,-29.16"/>
</g>
<!-- Node15 -->
<g id="node15" class="node">
<title>Node15</title>
<g id="a_node15"><a xlink:title=" ">
<polygon fill="none" stroke="#bfbfbf" points="1258,-0.5 1258,-19.5 1317,-19.5 1317,-0.5 1258,-0.5"/>
<text text-anchor="middle" x="1287.5" y="-7.5" font-family="Helvetica,sans-Serif" font-size="10.00">functional</text>
</a>
</g>
</g>
<!-- Node1&#45;&gt;Node15 -->
<g id="edge19" class="edge">
<title>Node1&#45;&gt;Node15</title>
<path fill="none" stroke="midnightblue" d="M1173.77,-112.48C1179.25,-99.09 1191.4,-72.91 1208.5,-56 1222.16,-42.49 1240.7,-31.65 1256.38,-24"/>
<polygon fill="midnightblue" stroke="midnightblue" points="1258.12,-27.05 1265.7,-19.65 1255.16,-20.71 1258.12,-27.05"/>
</g>
<!-- Node16 -->
<g id="node16" class="node">
<title>Node16</title>
<g id="a_node16"><a xlink:title=" ">
<polygon fill="none" stroke="#bfbfbf" points="1420.5,-56.5 1420.5,-75.5 1472.5,-75.5 1472.5,-56.5 1420.5,-56.5"/>
<text text-anchor="middle" x="1446.5" y="-63.5" font-family="Helvetica,sans-Serif" font-size="10.00">memory</text>
</a>
</g>
</g>
<!-- Node1&#45;&gt;Node16 -->
<g id="edge17" class="edge">
<title>Node1&#45;&gt;Node16</title>
<path fill="none" stroke="midnightblue" d="M1221.95,-112.42C1268.68,-104.4 1339.73,-91.63 1410.23,-76.17"/>
<polygon fill="midnightblue" stroke="midnightblue" points="1411.16,-79.55 1420.17,-73.97 1409.65,-72.71 1411.16,-79.55"/>
</g>
<!-- Node17 -->
<g id="node17" class="node">
<title>Node17</title>
<g id="a_node17"><a xlink:title=" ">
<polygon fill="none" stroke="#bfbfbf" points="1490.5,-56.5 1490.5,-75.5 1536.5,-75.5 1536.5,-56.5 1490.5,-56.5"/>
<text text-anchor="middle" x="1513.5" y="-63.5" font-family="Helvetica,sans-Serif" font-size="10.00">chrono</text>
</a>
</g>
</g>
<!-- Node1&#45;&gt;Node17 -->
<g id="edge20" class="edge">
<title>Node1&#45;&gt;Node17</title>
<path fill="none" stroke="midnightblue" d="M1248.32,-112.6C1309.12,-105.37 1395.87,-93.63 1480.17,-76.06"/>
<polygon fill="midnightblue" stroke="midnightblue" points="1481.11,-79.43 1490.17,-73.94 1479.66,-72.59 1481.11,-79.43"/>
</g>
<!-- Node5 -->
<g id="node5" class="node">
<title>Node5</title>
<g id="a_node5"><a xlink:title=" ">
<polygon fill="none" stroke="#bfbfbf" points="334,-0.5 334,-19.5 483,-19.5 483,-0.5 334,-0.5"/>
<text text-anchor="middle" x="408.5" y="-7.5" font-family="Helvetica,sans-Serif" font-size="10.00">boost/beast/http/message.hpp</text>
</a>
</g>
</g>
<!-- Node4&#45;&gt;Node5 -->
<g id="edge4" class="edge">
<title>Node4&#45;&gt;Node5</title>
<path fill="none" stroke="midnightblue" d="M480.68,-56.32C467.27,-47.9 446.68,-34.97 430.91,-25.07"/>
<polygon fill="midnightblue" stroke="midnightblue" points="432.61,-22.01 422.28,-19.65 428.89,-27.94 432.61,-22.01"/>
</g>
<!-- Node6 -->
<g id="node6" class="node">
<title>Node6</title>
<g id="a_node6"><a xlink:title=" ">
<polygon fill="none" stroke="#bfbfbf" points="500.5,-0.5 500.5,-19.5 658.5,-19.5 658.5,-0.5 500.5,-0.5"/>
<text text-anchor="middle" x="579.5" y="-7.5" font-family="Helvetica,sans-Serif" font-size="10.00">boost/beast/http/string_body.hpp</text>
</a>
</g>
</g>
<!-- Node4&#45;&gt;Node6 -->
<g id="edge5" class="edge">
<title>Node4&#45;&gt;Node6</title>
<path fill="none" stroke="midnightblue" d="M508.16,-56.32C521.42,-47.9 541.77,-34.97 557.35,-25.07"/>
<polygon fill="midnightblue" stroke="midnightblue" points="559.31,-27.97 565.88,-19.65 555.56,-22.06 559.31,-27.97"/>
</g>
<!-- Node7 -->
<g id="node7" class="node">
<title>Node7</title>
<g id="a_node7"><a xlink:title=" ">
<polygon fill="none" stroke="#bfbfbf" points="0,-0.5 0,-19.5 161,-19.5 161,-0.5 0,-0.5"/>
<text text-anchor="middle" x="80.5" y="-7.5" font-family="Helvetica,sans-Serif" font-size="10.00">boost/beast/http/empty_body.hpp</text>
</a>
</g>
</g>
<!-- Node4&#45;&gt;Node7 -->
<g id="edge6" class="edge">
<title>Node4&#45;&gt;Node7</title>
<path fill="none" stroke="midnightblue" d="M428.9,-56.44C354.71,-46.77 234.1,-31.04 156.04,-20.85"/>
<polygon fill="midnightblue" stroke="midnightblue" points="156.16,-17.34 145.79,-19.52 155.26,-24.28 156.16,-17.34"/>
</g>
<!-- Node8 -->
<g id="node8" class="node">
<title>Node8</title>
<g id="a_node8"><a xlink:title=" ">
<polygon fill="none" stroke="#bfbfbf" points="179.5,-0.5 179.5,-19.5 315.5,-19.5 315.5,-0.5 179.5,-0.5"/>
<text text-anchor="middle" x="247.5" y="-7.5" font-family="Helvetica,sans-Serif" font-size="10.00">boost/beast/http/status.hpp</text>
</a>
</g>
</g>
<!-- Node4&#45;&gt;Node8 -->
<g id="edge7" class="edge">
<title>Node4&#45;&gt;Node8</title>
<path fill="none" stroke="midnightblue" d="M455.36,-56.44C412.27,-47.02 342.94,-31.87 296.33,-21.68"/>
<polygon fill="midnightblue" stroke="midnightblue" points="296.97,-18.23 286.45,-19.52 295.48,-25.07 296.97,-18.23"/>
</g>
<!-- Node9 -->
<g id="node9" class="node">
<title>Node9</title>
<g id="a_node9"><a xlink:title=" ">
<polygon fill="none" stroke="#bfbfbf" points="676.5,-0.5 676.5,-19.5 742.5,-19.5 742.5,-0.5 676.5,-0.5"/>
<text text-anchor="middle" x="709.5" y="-7.5" font-family="Helvetica,sans-Serif" font-size="10.00">string_view</text>
</a>
</g>
</g>
<!-- Node4&#45;&gt;Node9 -->
<g id="edge8" class="edge">
<title>Node4&#45;&gt;Node9</title>
<path fill="none" stroke="midnightblue" d="M528.57,-56.44C565.9,-47.07 625.86,-32.01 666.43,-21.82"/>
<polygon fill="midnightblue" stroke="midnightblue" points="667.45,-25.17 676.3,-19.34 665.75,-18.38 667.45,-25.17"/>
</g>
<!-- Node10&#45;&gt;Node2 -->
<g id="edge10" class="edge">
<title>Node10&#45;&gt;Node2</title>
<path fill="none" stroke="midnightblue" d="M1049.38,-57.55C1002.8,-48.2 922.64,-32.11 869.85,-21.51"/>
<polygon fill="midnightblue" stroke="midnightblue" points="870.49,-18.07 860,-19.53 869.11,-24.93 870.49,-18.07"/>
</g>
<!-- Node10&#45;&gt;Node9 -->
<g id="edge16" class="edge">
<title>Node10&#45;&gt;Node9</title>
<path fill="none" stroke="midnightblue" d="M1049.18,-60.94C988.91,-54.19 866.24,-39.57 752.82,-20.12"/>
<polygon fill="midnightblue" stroke="midnightblue" points="753.38,-16.66 742.93,-18.41 752.18,-23.56 753.38,-16.66"/>
</g>
<!-- Node11 -->
<g id="node11" class="node">
<title>Node11</title>
<g id="a_node11"><a xlink:title=" ">
<polygon fill="none" stroke="#bfbfbf" points="893,-0.5 893,-19.5 1048,-19.5 1048,-0.5 893,-0.5"/>
<text text-anchor="middle" x="970.5" y="-7.5" font-family="Helvetica,sans-Serif" font-size="10.00">boost/system/system_error.hpp</text>
</a>
</g>
</g>
<!-- Node10&#45;&gt;Node11 -->
<g id="edge11" class="edge">
<title>Node10&#45;&gt;Node11</title>
<path fill="none" stroke="midnightblue" d="M1068.12,-56.44C1049.28,-47.68 1019.77,-33.94 998.12,-23.86"/>
<polygon fill="midnightblue" stroke="midnightblue" points="999.34,-20.56 988.79,-19.52 996.38,-26.91 999.34,-20.56"/>
</g>
<!-- Node12 -->
<g id="node12" class="node">
<title>Node12</title>
<g id="a_node12"><a xlink:title=" ">
<polygon fill="none" stroke="#bfbfbf" points="1066,-0.5 1066,-19.5 1107,-19.5 1107,-0.5 1066,-0.5"/>
<text text-anchor="middle" x="1086.5" y="-7.5" font-family="Helvetica,sans-Serif" font-size="10.00">string</text>
</a>
</g>
</g>
<!-- Node10&#45;&gt;Node12 -->
<g id="edge12" class="edge">
<title>Node10&#45;&gt;Node12</title>
<path fill="none" stroke="midnightblue" d="M1086.5,-56.08C1086.5,-49.01 1086.5,-38.86 1086.5,-29.99"/>
<polygon fill="midnightblue" stroke="midnightblue" points="1090,-29.75 1086.5,-19.75 1083,-29.75 1090,-29.75"/>
</g>
<!-- Node13 -->
<g id="node13" class="node">
<title>Node13</title>
<g id="a_node13"><a xlink:title=" ">
<polygon fill="none" stroke="#bfbfbf" points="1125.5,-0.5 1125.5,-19.5 1171.5,-19.5 1171.5,-0.5 1125.5,-0.5"/>
<text text-anchor="middle" x="1148.5" y="-7.5" font-family="Helvetica,sans-Serif" font-size="10.00">variant</text>
</a>
</g>
</g>
<!-- Node10&#45;&gt;Node13 -->
<g id="edge13" class="edge">
<title>Node10&#45;&gt;Node13</title>
<path fill="none" stroke="midnightblue" d="M1096.46,-56.32C1105.63,-48.34 1119.44,-36.31 1130.53,-26.65"/>
<polygon fill="midnightblue" stroke="midnightblue" points="1133.12,-29.04 1138.36,-19.83 1128.52,-23.76 1133.12,-29.04"/>
</g>
<!-- Node10&#45;&gt;Node14 -->
<g id="edge14" class="edge">
<title>Node10&#45;&gt;Node14</title>
<path fill="none" stroke="midnightblue" d="M1106.78,-56.44C1127.85,-47.56 1161.02,-33.56 1184.99,-23.45"/>
<polygon fill="midnightblue" stroke="midnightblue" points="1186.46,-26.63 1194.31,-19.52 1183.74,-20.18 1186.46,-26.63"/>
</g>
<!-- Node10&#45;&gt;Node15 -->
<g id="edge15" class="edge">
<title>Node10&#45;&gt;Node15</title>
<path fill="none" stroke="midnightblue" d="M1118.35,-56.44C1153.51,-47 1210.14,-31.78 1248.07,-21.59"/>
<polygon fill="midnightblue" stroke="midnightblue" points="1249.02,-24.96 1257.77,-18.99 1247.2,-18.2 1249.02,-24.96"/>
</g>
</g>
</svg>
        <g id="navigator" transform="translate(0 0)" fill="#404254">
                <rect fill="#f2f5e9" fill-opacity="0.5" stroke="#606060" stroke-width=".5" x="0" y="0" width="60" height="60"/>
                <use id="zoomplus" xlink:href="#zoomPlus" x="17" y="9" onmousedown="handleZoom(evt,'in')"/>
                <use id="zoomminus" xlink:href="#zoomMin" x="42" y="9" onmousedown="handleZoom(evt,'out')"/>
                <use id="reset" xlink:href="#resetDef" x="30" y="36" onmousedown="handleReset()"/>
                <g id="arrowUp" xlink:href="#dirArrow" transform="translate(30 24)" onmousedown="handlePan(0,-1)">
                  <use xlink:href="#rim" fill="#404040">
                        <set attributeName="fill" to="#808080" begin="arrowUp.mouseover" end="arrowUp.mouseout"/>
                  </use>
                  <path fill="none" stroke="white" stroke-width="1.5" d="M0,-3.0v7 M-2.5,-0.5L0,-3.0L2.5,-0.5"/>
                </g>
                <g id="arrowRight" xlink:href="#dirArrow" transform="rotate(90) translate(36 -43)" onmousedown="handlePan(1,0)">
                  <use xlink:href="#rim" fill="#404040">
                        <set attributeName="fill" to="#808080" begin="arrowRight.mouseover" end="arrowRight.mouseout"/>
                  </use>
                  <path fill="none" stroke="white" stroke-width="1.5" d="M0,-3.0v7 M-2.5,-0.5L0,-3.0L2.5,-0.5"/>
                </g>
                <g id="arrowDown" xlink:href="#dirArrow" transform="rotate(180) translate(-30 -48)" onmousedown="handlePan(0,1)">
                  <use xlink:href="#rim" fill="#404040">
                        <set attributeName="fill" to="#808080" begin="arrowDown.mouseover" end="arrowDown.mouseout"/>
                  </use>
                  <path fill="none" stroke="white" stroke-width="1.5" d="M0,-3.0v7 M-2.5,-0.5L0,-3.0L2.5,-0.5"/>
                </g>
                <g id="arrowLeft" xlink:href="#dirArrow" transform="rotate(270) translate(-36 17)" onmousedown="handlePan(-1,0)">
                  <use xlink:href="#rim" fill="#404040">
                        <set attributeName="fill" to="#808080" begin="arrowLeft.mouseover" end="arrowLeft.mouseout"/>
                  </use>
                  <path fill="none" stroke="white" stroke-width="1.5" d="M0,-3.0v7 M-2.5,-0.5L0,-3.0L2.5,-0.5"/>
                </g>
        </g>
        <svg viewBox="0 0 15 15" width="100%" height="30px" preserveAspectRatio="xMaxYMin meet">
         <g id="arrow_out" transform="scale(0.3 0.3)">
          <a xlink:href="factory_8hpp__incl_org.svg" target="_base">
           <rect id="button" ry="5" rx="5" y="6" x="6" height="38" width="38"
                fill="#f2f5e9" fill-opacity="0.5" stroke="#606060" stroke-width="1.0"/>
           <path id="arrow"
             d="M 11.500037,31.436501 C 11.940474,20.09759 22.043105,11.32322 32.158766,21.979434 L 37.068811,17.246167 C 37.068811,17.246167 37.088388,32 37.088388,32 L 22.160133,31.978069 C 22.160133,31.978069 26.997745,27.140456 26.997745,27.140456 C 18.528582,18.264221 13.291696,25.230495 11.500037,31.436501 z"
             style="fill:#404040;"/>
          </a>
         </g>
        </svg>
</svg>
