<?xml version="1.0" encoding="UTF-8" standalone="no"?>
<!DOCTYPE svg PUBLIC "-//W3C//DTD SVG 1.1//EN"
 "http://www.w3.org/Graphics/SVG/1.1/DTD/svg11.dtd">
<!-- Generated by graphviz version 2.44.1 (20211215.1903)
 -->
<!-- Title: include/roar/beast/forward.hpp Pages: 1 -->
<svg width="1302pt" height="308pt"
 viewBox="0.00 0.00 1302.50 308.00" xmlns="http://www.w3.org/2000/svg" xmlns:xlink="http://www.w3.org/1999/xlink">
<g id="graph0" class="graph" transform="scale(1 1) rotate(0) translate(4 304)">
<title>include/roar/beast/forward.hpp</title>
<!-- Node1 -->
<g id="node1" class="node">
<title>Node1</title>
<g id="a_node1"><a xlink:title=" ">
<polygon fill="#bfbfbf" stroke="black" points="194,-280.5 194,-299.5 342,-299.5 342,-280.5 194,-280.5"/>
<text text-anchor="middle" x="268" y="-287.5" font-family="Helvetica,sans-Serif" font-size="10.00">include/roar/beast/forward.hpp</text>
</a>
</g>
</g>
<!-- Node2 -->
<g id="node2" class="node">
<title>Node2</title>
<g id="a_node2"><a xlink:href="error_8hpp.html" target="_top" xlink:title=" ">
<polygon fill="none" stroke="black" points="266,-224.5 266,-243.5 374,-243.5 374,-224.5 266,-224.5"/>
<text text-anchor="middle" x="320" y="-231.5" font-family="Helvetica,sans-Serif" font-size="10.00">include/roar/error.hpp</text>
</a>
</g>
</g>
<!-- Node1&#45;&gt;Node2 -->
<g id="edge1" class="edge">
<title>Node1&#45;&gt;Node2</title>
<path fill="none" stroke="midnightblue" d="M283.68,-272.72C292.84,-263.2 304.05,-251.56 311.57,-243.75"/>
<polygon fill="midnightblue" stroke="midnightblue" points="281,-270.45 276.59,-280.08 286.04,-275.31 281,-270.45"/>
</g>
<!-- Node5 -->
<g id="node5" class="node">
<title>Node5</title>
<g id="a_node5"><a xlink:href="server_8hpp.html" target="_top" xlink:title=" ">
<polygon fill="none" stroke="black" points="175,-56.5 175,-75.5 291,-75.5 291,-56.5 175,-56.5"/>
<text text-anchor="middle" x="233" y="-63.5" font-family="Helvetica,sans-Serif" font-size="10.00">include/roar/server.hpp</text>
</a>
</g>
</g>
<!-- Node1&#45;&gt;Node5 -->
<g id="edge31" class="edge">
<title>Node1&#45;&gt;Node5</title>
<path fill="none" stroke="midnightblue" d="M228.9,-277.08C189.86,-262.85 132.02,-234.89 106,-188 89.61,-158.47 86.51,-139.59 106,-112 121.73,-89.74 149.44,-78.42 174.97,-72.7"/>
<polygon fill="midnightblue" stroke="midnightblue" points="227.8,-280.4 238.39,-280.41 230.11,-273.8 227.8,-280.4"/>
</g>
<!-- Node8 -->
<g id="node8" class="node">
<title>Node8</title>
<g id="a_node8"><a xlink:href="factory_8hpp.html" target="_top" xlink:title=" ">
<polygon fill="none" stroke="black" points="115.5,-168.5 115.5,-187.5 270.5,-187.5 270.5,-168.5 115.5,-168.5"/>
<text text-anchor="middle" x="193" y="-175.5" font-family="Helvetica,sans-Serif" font-size="10.00">include/roar/session/factory.hpp</text>
</a>
</g>
</g>
<!-- Node1&#45;&gt;Node8 -->
<g id="edge32" class="edge">
<title>Node1&#45;&gt;Node8</title>
<path fill="none" stroke="midnightblue" d="M256.38,-271.96C240.13,-248.12 211.21,-205.71 198.86,-187.59"/>
<polygon fill="midnightblue" stroke="midnightblue" points="253.59,-274.08 262.11,-280.37 259.37,-270.13 253.59,-274.08"/>
</g>
<!-- Node10 -->
<g id="node10" class="node">
<title>Node10</title>
<g id="a_node10"><a xlink:href="session_8hpp.html" target="_top" xlink:title=" ">
<polygon fill="none" stroke="black" points="384.5,-168.5 384.5,-187.5 543.5,-187.5 543.5,-168.5 384.5,-168.5"/>
<text text-anchor="middle" x="464" y="-175.5" font-family="Helvetica,sans-Serif" font-size="10.00">include/roar/session/session.hpp</text>
</a>
</g>
</g>
<!-- Node1&#45;&gt;Node10 -->
<g id="edge33" class="edge">
<title>Node1&#45;&gt;Node10</title>
<path fill="none" stroke="midnightblue" d="M306.73,-277.14C329.69,-269.31 358.92,-257.94 383,-244 411.71,-227.38 441,-201.07 455.2,-187.59"/>
<polygon fill="midnightblue" stroke="midnightblue" points="305.37,-273.9 296.99,-280.37 307.58,-280.54 305.37,-273.9"/>
</g>
<!-- Node3 -->
<g id="node3" class="node">
<title>Node3</title>
<g id="a_node3"><a xlink:href="simple__server_2main_8cpp.html" target="_top" xlink:title=" ">
<polygon fill="none" stroke="black" points="803.5,-0.5 803.5,-19.5 968.5,-19.5 968.5,-0.5 803.5,-0.5"/>
<text text-anchor="middle" x="886" y="-7.5" font-family="Helvetica,sans-Serif" font-size="10.00">examples/simple_server/main.cpp</text>
</a>
</g>
</g>
<!-- Node2&#45;&gt;Node3 -->
<g id="edge2" class="edge">
<title>Node2&#45;&gt;Node3</title>
<path fill="none" stroke="midnightblue" d="M384.29,-228.66C551.78,-216.69 991.56,-180.87 1034,-132 1076.76,-82.76 966.68,-37.82 913.2,-19.59"/>
<polygon fill="midnightblue" stroke="midnightblue" points="383.86,-225.18 374.13,-229.38 384.36,-232.16 383.86,-225.18"/>
</g>
<!-- Node4 -->
<g id="node4" class="node">
<title>Node4</title>
<g id="a_node4"><a xlink:href="websocket_2main_8cpp.html" target="_top" xlink:title=" ">
<polygon fill="none" stroke="black" points="319,-0.5 319,-19.5 471,-19.5 471,-0.5 319,-0.5"/>
<text text-anchor="middle" x="395" y="-7.5" font-family="Helvetica,sans-Serif" font-size="10.00">examples/websocket/main.cpp</text>
</a>
</g>
</g>
<!-- Node2&#45;&gt;Node4 -->
<g id="edge3" class="edge">
<title>Node2&#45;&gt;Node4</title>
<path fill="none" stroke="midnightblue" d="M326.22,-214.58C341.58,-169.14 380.84,-52.92 392,-19.88"/>
<polygon fill="midnightblue" stroke="midnightblue" points="322.82,-213.7 322.94,-224.3 329.46,-215.94 322.82,-213.7"/>
</g>
<!-- Node2&#45;&gt;Node5 -->
<g id="edge4" class="edge">
<title>Node2&#45;&gt;Node5</title>
<path fill="none" stroke="midnightblue" d="M312.25,-215.05C301.71,-191.11 281.9,-147.6 262,-112 254.74,-99.02 245.23,-84.69 239.11,-75.76"/>
<polygon fill="midnightblue" stroke="midnightblue" points="309.08,-216.54 316.28,-224.3 315.49,-213.74 309.08,-216.54"/>
</g>
<!-- Node2&#45;&gt;Node8 -->
<g id="edge9" class="edge">
<title>Node2&#45;&gt;Node8</title>
<path fill="none" stroke="midnightblue" d="M290.61,-220.5C266.8,-210.38 233.89,-196.39 213.03,-187.52"/>
<polygon fill="midnightblue" stroke="midnightblue" points="289.3,-223.75 299.88,-224.44 292.04,-217.31 289.3,-223.75"/>
</g>
<!-- Node2&#45;&gt;Node10 -->
<g id="edge12" class="edge">
<title>Node2&#45;&gt;Node10</title>
<path fill="none" stroke="midnightblue" d="M352.25,-220.91C379.32,-210.75 417.32,-196.51 441.29,-187.52"/>
<polygon fill="midnightblue" stroke="midnightblue" points="350.95,-217.66 342.82,-224.44 353.41,-224.21 350.95,-217.66"/>
</g>
<!-- Node5&#45;&gt;Node3 -->
<g id="edge5" class="edge">
<title>Node5&#45;&gt;Node3</title>
<path fill="none" stroke="midnightblue" d="M301.47,-59.34C422.31,-49.34 672.95,-28.62 803.26,-17.84"/>
<polygon fill="midnightblue" stroke="midnightblue" points="300.91,-55.87 291.24,-60.18 301.49,-62.85 300.91,-55.87"/>
</g>
<!-- Node5&#45;&gt;Node4 -->
<g id="edge6" class="edge">
<title>Node5&#45;&gt;Node4</title>
<path fill="none" stroke="midnightblue" d="M268.48,-53.17C298.99,-43 342.24,-28.59 369.45,-19.52"/>
<polygon fill="midnightblue" stroke="midnightblue" points="267.05,-49.96 258.67,-56.44 269.26,-56.6 267.05,-49.96"/>
</g>
<!-- Node6 -->
<g id="node6" class="node">
<title>Node6</title>
<g id="a_node6"><a xlink:href="src_2roar_2routing_2request__listener_8cpp.html" target="_top" xlink:title=" ">
<polygon fill="none" stroke="black" points="127.5,-0.5 127.5,-19.5 300.5,-19.5 300.5,-0.5 127.5,-0.5"/>
<text text-anchor="middle" x="214" y="-7.5" font-family="Helvetica,sans-Serif" font-size="10.00">src/roar/routing/request_listener.cpp</text>
</a>
</g>
</g>
<!-- Node5&#45;&gt;Node6 -->
<g id="edge7" class="edge">
<title>Node5&#45;&gt;Node6</title>
<path fill="none" stroke="midnightblue" d="M226.45,-46.4C223.28,-37.36 219.61,-26.94 217.08,-19.75"/>
<polygon fill="midnightblue" stroke="midnightblue" points="223.24,-47.81 229.86,-56.08 229.85,-45.49 223.24,-47.81"/>
</g>
<!-- Node7 -->
<g id="node7" class="node">
<title>Node7</title>
<g id="a_node7"><a xlink:href="server_8cpp.html" target="_top" xlink:title=" ">
<polygon fill="none" stroke="black" points="0,-0.5 0,-19.5 98,-19.5 98,-0.5 0,-0.5"/>
<text text-anchor="middle" x="49" y="-7.5" font-family="Helvetica,sans-Serif" font-size="10.00">src/roar/server.cpp</text>
</a>
</g>
</g>
<!-- Node5&#45;&gt;Node7 -->
<g id="edge8" class="edge">
<title>Node5&#45;&gt;Node7</title>
<path fill="none" stroke="midnightblue" d="M194.05,-53.57C159.34,-43.38 109.32,-28.7 78.02,-19.52"/>
<polygon fill="midnightblue" stroke="midnightblue" points="193.26,-56.99 203.84,-56.44 195.23,-50.27 193.26,-56.99"/>
</g>
<!-- Node8&#45;&gt;Node7 -->
<g id="edge10" class="edge">
<title>Node8&#45;&gt;Node7</title>
<path fill="none" stroke="midnightblue" d="M156.49,-164.44C139.45,-157.12 119.91,-146.43 106,-132 73.13,-97.89 56.45,-41.31 51.03,-19.73"/>
<polygon fill="midnightblue" stroke="midnightblue" points="155.59,-167.85 166.18,-168.37 158.23,-161.37 155.59,-167.85"/>
</g>
<!-- Node9 -->
<g id="node9" class="node">
<title>Node9</title>
<g id="a_node9"><a xlink:href="factory_8cpp.html" target="_top" xlink:title=" ">
<polygon fill="none" stroke="black" points="115.5,-112.5 115.5,-131.5 252.5,-131.5 252.5,-112.5 115.5,-112.5"/>
<text text-anchor="middle" x="184" y="-119.5" font-family="Helvetica,sans-Serif" font-size="10.00">src/roar/session/factory.cpp</text>
</a>
</g>
</g>
<!-- Node8&#45;&gt;Node9 -->
<g id="edge11" class="edge">
<title>Node8&#45;&gt;Node9</title>
<path fill="none" stroke="midnightblue" d="M189.85,-158.1C188.36,-149.14 186.64,-138.86 185.46,-131.75"/>
<polygon fill="midnightblue" stroke="midnightblue" points="186.42,-158.79 191.51,-168.08 193.32,-157.64 186.42,-158.79"/>
</g>
<!-- Node10&#45;&gt;Node5 -->
<g id="edge25" class="edge">
<title>Node10&#45;&gt;Node5</title>
<path fill="none" stroke="midnightblue" d="M436.74,-164.02C388.97,-141.27 291.36,-94.79 251.04,-75.59"/>
<polygon fill="midnightblue" stroke="midnightblue" points="435.34,-167.23 445.87,-168.37 438.35,-160.91 435.34,-167.23"/>
</g>
<!-- Node10&#45;&gt;Node7 -->
<g id="edge28" class="edge">
<title>Node10&#45;&gt;Node7</title>
<path fill="none" stroke="midnightblue" d="M374.12,-170.21C275.21,-162.04 127.32,-147.47 106,-132 67.29,-103.9 53.97,-42.67 50.24,-19.83"/>
<polygon fill="midnightblue" stroke="midnightblue" points="373.87,-173.71 384.13,-171.03 374.44,-166.73 373.87,-173.71"/>
</g>
<!-- Node10&#45;&gt;Node9 -->
<g id="edge29" class="edge">
<title>Node10&#45;&gt;Node9</title>
<path fill="none" stroke="midnightblue" d="M409.75,-166.54C356.83,-156.33 277.33,-141 228.16,-131.52"/>
<polygon fill="midnightblue" stroke="midnightblue" points="409.15,-169.99 419.63,-168.44 410.48,-163.11 409.15,-169.99"/>
</g>
<!-- Node11 -->
<g id="node11" class="node">
<title>Node11</title>
<g id="a_node11"><a xlink:href="include_2roar_2routing_2request__listener_8hpp.html" target="_top" xlink:title=" ">
<polygon fill="none" stroke="black" points="385,-112.5 385,-131.5 575,-131.5 575,-112.5 385,-112.5"/>
<text text-anchor="middle" x="480" y="-119.5" font-family="Helvetica,sans-Serif" font-size="10.00">include/roar/routing/request_listener.hpp</text>
</a>
</g>
</g>
<!-- Node10&#45;&gt;Node11 -->
<g id="edge13" class="edge">
<title>Node10&#45;&gt;Node11</title>
<path fill="none" stroke="midnightblue" d="M469.51,-158.4C472.19,-149.36 475.28,-138.94 477.41,-131.75"/>
<polygon fill="midnightblue" stroke="midnightblue" points="466.13,-157.5 466.64,-168.08 472.84,-159.49 466.13,-157.5"/>
</g>
<!-- Node17 -->
<g id="node17" class="node">
<title>Node17</title>
<g id="a_node17"><a xlink:href="route_8cpp.html" target="_top" xlink:title=" ">
<polygon fill="none" stroke="black" points="593.5,-112.5 593.5,-131.5 718.5,-131.5 718.5,-112.5 593.5,-112.5"/>
<text text-anchor="middle" x="656" y="-119.5" font-family="Helvetica,sans-Serif" font-size="10.00">src/roar/routing/route.cpp</text>
</a>
</g>
</g>
<!-- Node10&#45;&gt;Node17 -->
<g id="edge26" class="edge">
<title>Node10&#45;&gt;Node17</title>
<path fill="none" stroke="midnightblue" d="M504.18,-165.7C540.42,-155.51 592.91,-140.74 625.72,-131.52"/>
<polygon fill="midnightblue" stroke="midnightblue" points="503.1,-162.37 494.42,-168.44 505,-169.11 503.1,-162.37"/>
</g>
<!-- Node18 -->
<g id="node18" class="node">
<title>Node18</title>
<g id="a_node18"><a xlink:href="router_8cpp.html" target="_top" xlink:title=" ">
<polygon fill="none" stroke="black" points="737,-112.5 737,-131.5 865,-131.5 865,-112.5 737,-112.5"/>
<text text-anchor="middle" x="801" y="-119.5" font-family="Helvetica,sans-Serif" font-size="10.00">src/roar/routing/router.cpp</text>
</a>
</g>
</g>
<!-- Node10&#45;&gt;Node18 -->
<g id="edge27" class="edge">
<title>Node10&#45;&gt;Node18</title>
<path fill="none" stroke="midnightblue" d="M527.32,-166.85C590.99,-156.65 688.06,-141.1 747.85,-131.52"/>
<polygon fill="midnightblue" stroke="midnightblue" points="526.72,-163.41 517.4,-168.44 527.83,-170.32 526.72,-163.41"/>
</g>
<!-- Node19 -->
<g id="node19" class="node">
<title>Node19</title>
<g id="a_node19"><a xlink:href="session_8cpp.html" target="_top" xlink:title=" ">
<polygon fill="none" stroke="black" points="883,-112.5 883,-131.5 1025,-131.5 1025,-112.5 883,-112.5"/>
<text text-anchor="middle" x="954" y="-119.5" font-family="Helvetica,sans-Serif" font-size="10.00">src/roar/session/session.cpp</text>
</a>
</g>
</g>
<!-- Node10&#45;&gt;Node19 -->
<g id="edge30" class="edge">
<title>Node10&#45;&gt;Node19</title>
<path fill="none" stroke="midnightblue" d="M552.38,-167.37C635.42,-158.31 763.15,-144.32 874,-132 876.92,-131.68 879.89,-131.34 882.9,-131.01"/>
<polygon fill="midnightblue" stroke="midnightblue" points="551.79,-163.91 542.22,-168.48 552.55,-170.87 551.79,-163.91"/>
</g>
<!-- Node11&#45;&gt;Node3 -->
<g id="edge15" class="edge">
<title>Node11&#45;&gt;Node3</title>
<path fill="none" stroke="midnightblue" d="M525.6,-109.88C556.19,-101.84 597.11,-89.97 632,-76 650.08,-68.76 652.64,-62.5 671,-56 720.97,-38.32 780.06,-26.57 823.64,-19.53"/>
<polygon fill="midnightblue" stroke="midnightblue" points="524.45,-106.56 515.65,-112.45 526.21,-113.34 524.45,-106.56"/>
</g>
<!-- Node11&#45;&gt;Node4 -->
<g id="edge19" class="edge">
<title>Node11&#45;&gt;Node4</title>
<path fill="none" stroke="midnightblue" d="M452.01,-107.69C438.75,-100.09 423.74,-89.4 414,-76 401.42,-58.69 397.12,-33.14 395.69,-19.81"/>
<polygon fill="midnightblue" stroke="midnightblue" points="450.35,-110.77 460.81,-112.44 453.68,-104.61 450.35,-110.77"/>
</g>
<!-- Node11&#45;&gt;Node5 -->
<g id="edge23" class="edge">
<title>Node11&#45;&gt;Node5</title>
<path fill="none" stroke="midnightblue" d="M430.97,-110.28C384.3,-100.08 314.97,-84.92 271.95,-75.52"/>
<polygon fill="midnightblue" stroke="midnightblue" points="430.35,-113.73 440.86,-112.44 431.84,-106.89 430.35,-113.73"/>
</g>
<!-- Node11&#45;&gt;Node6 -->
<g id="edge24" class="edge">
<title>Node11&#45;&gt;Node6</title>
<path fill="none" stroke="midnightblue" d="M449.64,-108.45C395.01,-85.86 281.49,-38.91 234.78,-19.59"/>
<polygon fill="midnightblue" stroke="midnightblue" points="448.55,-111.78 459.13,-112.37 451.22,-105.31 448.55,-111.78"/>
</g>
<!-- Node12 -->
<g id="node12" class="node">
<title>Node12</title>
<g id="a_node12"><a xlink:href="request__listener_2main_8cpp.html" target="_top" xlink:title=" ">
<polygon fill="none" stroke="black" points="679.5,-56.5 679.5,-75.5 852.5,-75.5 852.5,-56.5 679.5,-56.5"/>
<text text-anchor="middle" x="766" y="-63.5" font-family="Helvetica,sans-Serif" font-size="10.00">examples/request_listener/main.cpp</text>
</a>
</g>
</g>
<!-- Node11&#45;&gt;Node12 -->
<g id="edge14" class="edge">
<title>Node11&#45;&gt;Node12</title>
<path fill="none" stroke="midnightblue" d="M535.41,-110.54C589.47,-100.33 670.67,-85 720.89,-75.52"/>
<polygon fill="midnightblue" stroke="midnightblue" points="534.49,-107.15 525.32,-112.44 535.79,-114.03 534.49,-107.15"/>
</g>
<!-- Node13 -->
<g id="node13" class="node">
<title>Node13</title>
<g id="a_node13"><a xlink:href="examples_2simple__server_2request__listener_8hpp.html" target="_top" xlink:title=" ">
<polygon fill="none" stroke="black" points="1081.5,-56.5 1081.5,-75.5 1294.5,-75.5 1294.5,-56.5 1081.5,-56.5"/>
<text text-anchor="middle" x="1188" y="-63.5" font-family="Helvetica,sans-Serif" font-size="10.00">examples/simple_server/request_listener.hpp</text>
</a>
</g>
</g>
<!-- Node11&#45;&gt;Node13 -->
<g id="edge16" class="edge">
<title>Node11&#45;&gt;Node13</title>
<path fill="none" stroke="midnightblue" d="M584.69,-112.02C584.79,-112.02 584.9,-112.01 585,-112 758.84,-98.06 960.99,-83.26 1081.5,-74.59"/>
<polygon fill="midnightblue" stroke="midnightblue" points="584.69,-108.51 575,-112.81 585.25,-115.49 584.69,-108.51"/>
</g>
<!-- Node15 -->
<g id="node15" class="node">
<title>Node15</title>
<g id="a_node15"><a xlink:href="examples_2websocket_2request__listener_8hpp.html" target="_top" xlink:title=" ">
<polygon fill="none" stroke="black" points="423,-56.5 423,-75.5 623,-75.5 623,-56.5 423,-56.5"/>
<text text-anchor="middle" x="523" y="-63.5" font-family="Helvetica,sans-Serif" font-size="10.00">examples/websocket/request_listener.hpp</text>
</a>
</g>
</g>
<!-- Node11&#45;&gt;Node15 -->
<g id="edge20" class="edge">
<title>Node11&#45;&gt;Node15</title>
<path fill="none" stroke="midnightblue" d="M493.42,-104.14C500.91,-94.74 509.94,-83.4 516.03,-75.75"/>
<polygon fill="midnightblue" stroke="midnightblue" points="490.59,-102.08 487.1,-112.08 496.07,-106.44 490.59,-102.08"/>
</g>
<!-- Node13&#45;&gt;Node3 -->
<g id="edge17" class="edge">
<title>Node13&#45;&gt;Node3</title>
<path fill="none" stroke="midnightblue" d="M1130.2,-54.66C1073.12,-44.46 986.88,-29.04 933.63,-19.52"/>
<polygon fill="midnightblue" stroke="midnightblue" points="1129.69,-58.13 1140.15,-56.44 1130.92,-51.24 1129.69,-58.13"/>
</g>
<!-- Node14 -->
<g id="node14" class="node">
<title>Node14</title>
<g id="a_node14"><a xlink:href="examples_2simple__server_2request__listener_8cpp.html" target="_top" xlink:title=" ">
<polygon fill="none" stroke="black" points="1081.5,-0.5 1081.5,-19.5 1294.5,-19.5 1294.5,-0.5 1081.5,-0.5"/>
<text text-anchor="middle" x="1188" y="-7.5" font-family="Helvetica,sans-Serif" font-size="10.00">examples/simple_server/request_listener.cpp</text>
</a>
</g>
</g>
<!-- Node13&#45;&gt;Node14 -->
<g id="edge18" class="edge">
<title>Node13&#45;&gt;Node14</title>
<path fill="none" stroke="midnightblue" d="M1188,-45.8C1188,-36.91 1188,-26.78 1188,-19.75"/>
<polygon fill="midnightblue" stroke="midnightblue" points="1184.5,-46.08 1188,-56.08 1191.5,-46.08 1184.5,-46.08"/>
</g>
<!-- Node15&#45;&gt;Node4 -->
<g id="edge21" class="edge">
<title>Node15&#45;&gt;Node4</title>
<path fill="none" stroke="midnightblue" d="M493.38,-52.5C469.38,-42.38 436.22,-28.39 415.19,-19.52"/>
<polygon fill="midnightblue" stroke="midnightblue" points="492.14,-55.78 502.72,-56.44 494.86,-49.33 492.14,-55.78"/>
</g>
<!-- Node16 -->
<g id="node16" class="node">
<title>Node16</title>
<g id="a_node16"><a xlink:href="examples_2websocket_2request__listener_8cpp.html" target="_top" xlink:title=" ">
<polygon fill="none" stroke="black" points="489,-0.5 489,-19.5 689,-19.5 689,-0.5 489,-0.5"/>
<text text-anchor="middle" x="589" y="-7.5" font-family="Helvetica,sans-Serif" font-size="10.00">examples/websocket/request_listener.cpp</text>
</a>
</g>
</g>
<!-- Node15&#45;&gt;Node16 -->
<g id="edge22" class="edge">
<title>Node15&#45;&gt;Node16</title>
<path fill="none" stroke="midnightblue" d="M541.55,-49.82C553.38,-40.15 568.29,-27.95 578.2,-19.83"/>
<polygon fill="midnightblue" stroke="midnightblue" points="539.13,-47.28 533.6,-56.32 543.56,-52.7 539.13,-47.28"/>
</g>
</g>
</svg>
