<?xml version="1.0" encoding="UTF-8" standalone="no"?>
<!DOCTYPE svg PUBLIC "-//W3C//DTD SVG 1.1//EN"
 "http://www.w3.org/Graphics/SVG/1.1/DTD/svg11.dtd">
<!-- Generated by graphviz version 2.44.1 (20211215.1903)
 -->
<!-- Title: include/roar/routing/route.hpp Pages: 1 -->
<svg width="1153pt" height="196pt"
 viewBox="0.00 0.00 1152.50 196.00" xmlns="http://www.w3.org/2000/svg" xmlns:xlink="http://www.w3.org/1999/xlink">
<g id="graph0" class="graph" transform="scale(1 1) rotate(0) translate(4 192)">
<title>include/roar/routing/route.hpp</title>
<!-- Node1 -->
<g id="node1" class="node">
<title>Node1</title>
<g id="a_node1"><a xlink:title=" ">
<polygon fill="#bfbfbf" stroke="black" points="731,-168.5 731,-187.5 874,-187.5 874,-168.5 731,-168.5"/>
<text text-anchor="middle" x="802.5" y="-175.5" font-family="Helvetica,sans-Serif" font-size="10.00">include/roar/routing/route.hpp</text>
</a>
</g>
</g>
<!-- Node2 -->
<g id="node2" class="node">
<title>Node2</title>
<g id="a_node2"><a xlink:href="proto__route_8hpp.html" target="_top" xlink:title=" ">
<polygon fill="none" stroke="black" points="734.5,-112.5 734.5,-131.5 870.5,-131.5 870.5,-112.5 734.5,-112.5"/>
<text text-anchor="middle" x="802.5" y="-119.5" font-family="Helvetica,sans-Serif" font-size="10.00">roar/routing/proto_route.hpp</text>
</a>
</g>
</g>
<!-- Node1&#45;&gt;Node2 -->
<g id="edge1" class="edge">
<title>Node1&#45;&gt;Node2</title>
<path fill="none" stroke="midnightblue" d="M802.5,-168.08C802.5,-161.01 802.5,-150.86 802.5,-141.99"/>
<polygon fill="midnightblue" stroke="midnightblue" points="806,-141.75 802.5,-131.75 799,-141.75 806,-141.75"/>
</g>
<!-- Node3 -->
<g id="node3" class="node">
<title>Node3</title>
<g id="a_node3"><a xlink:title=" ">
<polygon fill="none" stroke="#bfbfbf" points="581,-56.5 581,-75.5 742,-75.5 742,-56.5 581,-56.5"/>
<text text-anchor="middle" x="661.5" y="-63.5" font-family="Helvetica,sans-Serif" font-size="10.00">boost/beast/http/empty_body.hpp</text>
</a>
</g>
</g>
<!-- Node1&#45;&gt;Node3 -->
<g id="edge21" class="edge">
<title>Node1&#45;&gt;Node3</title>
<path fill="none" stroke="midnightblue" d="M784.85,-168.39C768.68,-160.12 744.44,-146.73 725.5,-132 706.66,-117.35 687.82,-97.42 675.51,-83.5"/>
<polygon fill="midnightblue" stroke="midnightblue" points="677.95,-80.97 668.75,-75.72 672.66,-85.56 677.95,-80.97"/>
</g>
<!-- Node14 -->
<g id="node14" class="node">
<title>Node14</title>
<g id="a_node14"><a xlink:href="pimpl__special__functions_8hpp.html" target="_top" xlink:title=" ">
<polygon fill="none" stroke="black" points="889,-112.5 889,-131.5 1074,-131.5 1074,-112.5 889,-112.5"/>
<text text-anchor="middle" x="981.5" y="-119.5" font-family="Helvetica,sans-Serif" font-size="10.00">roar/detail/pimpl_special_functions.hpp</text>
</a>
</g>
</g>
<!-- Node1&#45;&gt;Node14 -->
<g id="edge14" class="edge">
<title>Node1&#45;&gt;Node14</title>
<path fill="none" stroke="midnightblue" d="M830.86,-168.44C861.24,-159.28 909.61,-144.69 943.32,-134.52"/>
<polygon fill="midnightblue" stroke="midnightblue" points="944.71,-137.76 953.27,-131.52 942.68,-131.05 944.71,-137.76"/>
</g>
<!-- Node15 -->
<g id="node15" class="node">
<title>Node15</title>
<g id="a_node15"><a xlink:href="standard__response__provider_8hpp.html" target="_top" xlink:title=" ">
<polygon fill="none" stroke="black" points="382,-112.5 382,-131.5 559,-131.5 559,-112.5 382,-112.5"/>
<text text-anchor="middle" x="470.5" y="-119.5" font-family="Helvetica,sans-Serif" font-size="10.00">roar/standard_response_provider.hpp</text>
</a>
</g>
</g>
<!-- Node1&#45;&gt;Node15 -->
<g id="edge15" class="edge">
<title>Node1&#45;&gt;Node15</title>
<path fill="none" stroke="midnightblue" d="M749.89,-168.44C691.01,-158.87 595.65,-143.36 533.01,-133.17"/>
<polygon fill="midnightblue" stroke="midnightblue" points="533.29,-129.67 522.86,-131.52 532.17,-136.58 533.29,-129.67"/>
</g>
<!-- Node20 -->
<g id="node20" class="node">
<title>Node20</title>
<g id="a_node20"><a xlink:title=" ">
<polygon fill="none" stroke="#bfbfbf" points="1092.5,-112.5 1092.5,-131.5 1144.5,-131.5 1144.5,-112.5 1092.5,-112.5"/>
<text text-anchor="middle" x="1118.5" y="-119.5" font-family="Helvetica,sans-Serif" font-size="10.00">memory</text>
</a>
</g>
</g>
<!-- Node1&#45;&gt;Node20 -->
<g id="edge22" class="edge">
<title>Node1&#45;&gt;Node20</title>
<path fill="none" stroke="midnightblue" d="M866.42,-168.49C921.23,-160.8 1002.5,-148.47 1082,-132.16"/>
<polygon fill="midnightblue" stroke="midnightblue" points="1083.11,-135.5 1092.19,-130.05 1081.69,-128.65 1083.11,-135.5"/>
</g>
<!-- Node2&#45;&gt;Node3 -->
<g id="edge2" class="edge">
<title>Node2&#45;&gt;Node3</title>
<path fill="none" stroke="midnightblue" d="M780.16,-112.44C756.75,-103.48 719.76,-89.31 693.31,-79.18"/>
<polygon fill="midnightblue" stroke="midnightblue" points="694.33,-75.82 683.74,-75.52 691.82,-82.36 694.33,-75.82"/>
</g>
<!-- Node4 -->
<g id="node4" class="node">
<title>Node4</title>
<g id="a_node4"><a xlink:href="cors_8hpp.html" target="_top" xlink:title=" ">
<polygon fill="none" stroke="black" points="798.5,-56.5 798.5,-75.5 872.5,-75.5 872.5,-56.5 798.5,-56.5"/>
<text text-anchor="middle" x="835.5" y="-63.5" font-family="Helvetica,sans-Serif" font-size="10.00">roar/cors.hpp</text>
</a>
</g>
</g>
<!-- Node2&#45;&gt;Node4 -->
<g id="edge3" class="edge">
<title>Node2&#45;&gt;Node4</title>
<path fill="none" stroke="midnightblue" d="M807.95,-112.08C812.51,-104.61 819.17,-93.72 824.79,-84.52"/>
<polygon fill="midnightblue" stroke="midnightblue" points="827.92,-86.11 830.15,-75.75 821.95,-82.46 827.92,-86.11"/>
</g>
<!-- Node7 -->
<g id="node7" class="node">
<title>Node7</title>
<g id="a_node7"><a xlink:title=" ">
<polygon fill="none" stroke="#bfbfbf" points="608,-0.5 608,-19.5 649,-19.5 649,-0.5 608,-0.5"/>
<text text-anchor="middle" x="628.5" y="-7.5" font-family="Helvetica,sans-Serif" font-size="10.00">string</text>
</a>
</g>
</g>
<!-- Node2&#45;&gt;Node7 -->
<g id="edge10" class="edge">
<title>Node2&#45;&gt;Node7</title>
<path fill="none" stroke="midnightblue" d="M797.73,-112.15C789.86,-98.3 772.85,-71.51 751.5,-56 743.75,-50.37 692.88,-32.64 659.03,-21.19"/>
<polygon fill="midnightblue" stroke="midnightblue" points="659.74,-17.74 649.14,-17.86 657.5,-24.37 659.74,-17.74"/>
</g>
<!-- Node11 -->
<g id="node11" class="node">
<title>Node11</title>
<g id="a_node11"><a xlink:title=" ">
<polygon fill="none" stroke="#bfbfbf" points="891,-56.5 891,-75.5 950,-75.5 950,-56.5 891,-56.5"/>
<text text-anchor="middle" x="920.5" y="-63.5" font-family="Helvetica,sans-Serif" font-size="10.00">functional</text>
</a>
</g>
</g>
<!-- Node2&#45;&gt;Node11 -->
<g id="edge11" class="edge">
<title>Node2&#45;&gt;Node11</title>
<path fill="none" stroke="midnightblue" d="M821.2,-112.44C840.44,-103.64 870.65,-89.81 892.7,-79.72"/>
<polygon fill="midnightblue" stroke="midnightblue" points="894.25,-82.86 901.89,-75.52 891.34,-76.5 894.25,-82.86"/>
</g>
<!-- Node12 -->
<g id="node12" class="node">
<title>Node12</title>
<g id="a_node12"><a xlink:title=" ">
<polygon fill="none" stroke="#bfbfbf" points="968.5,-56.5 968.5,-75.5 1014.5,-75.5 1014.5,-56.5 968.5,-56.5"/>
<text text-anchor="middle" x="991.5" y="-63.5" font-family="Helvetica,sans-Serif" font-size="10.00">variant</text>
</a>
</g>
</g>
<!-- Node2&#45;&gt;Node12 -->
<g id="edge12" class="edge">
<title>Node2&#45;&gt;Node12</title>
<path fill="none" stroke="midnightblue" d="M832.45,-112.44C866.74,-102.65 922.76,-86.64 958.35,-76.47"/>
<polygon fill="midnightblue" stroke="midnightblue" points="959.59,-79.76 968.25,-73.64 957.67,-73.03 959.59,-79.76"/>
</g>
<!-- Node13 -->
<g id="node13" class="node">
<title>Node13</title>
<g id="a_node13"><a xlink:title=" ">
<polygon fill="none" stroke="#bfbfbf" points="1033,-56.5 1033,-75.5 1074,-75.5 1074,-56.5 1033,-56.5"/>
<text text-anchor="middle" x="1053.5" y="-63.5" font-family="Helvetica,sans-Serif" font-size="10.00">regex</text>
</a>
</g>
</g>
<!-- Node2&#45;&gt;Node13 -->
<g id="edge13" class="edge">
<title>Node2&#45;&gt;Node13</title>
<path fill="none" stroke="midnightblue" d="M850.64,-112.5C893.4,-104.66 957.78,-92.14 1022.88,-75.96"/>
<polygon fill="midnightblue" stroke="midnightblue" points="1024.07,-79.28 1032.91,-73.44 1022.36,-72.49 1024.07,-79.28"/>
</g>
<!-- Node5 -->
<g id="node5" class="node">
<title>Node5</title>
<g id="a_node5"><a xlink:title=" ">
<polygon fill="none" stroke="#bfbfbf" points="1008,-0.5 1008,-19.5 1135,-19.5 1135,-0.5 1008,-0.5"/>
<text text-anchor="middle" x="1071.5" y="-7.5" font-family="Helvetica,sans-Serif" font-size="10.00">boost/beast/http/field.hpp</text>
</a>
</g>
</g>
<!-- Node4&#45;&gt;Node5 -->
<g id="edge4" class="edge">
<title>Node4&#45;&gt;Node5</title>
<path fill="none" stroke="midnightblue" d="M872.63,-56.5C913.58,-47.13 979.55,-32.04 1024.18,-21.83"/>
<polygon fill="midnightblue" stroke="midnightblue" points="1025.23,-25.18 1034.19,-19.54 1023.66,-18.36 1025.23,-25.18"/>
</g>
<!-- Node6 -->
<g id="node6" class="node">
<title>Node6</title>
<g id="a_node6"><a xlink:title=" ">
<polygon fill="none" stroke="#bfbfbf" points="667.5,-0.5 667.5,-19.5 795.5,-19.5 795.5,-0.5 667.5,-0.5"/>
<text text-anchor="middle" x="731.5" y="-7.5" font-family="Helvetica,sans-Serif" font-size="10.00">boost/beast/http/verb.hpp</text>
</a>
</g>
</g>
<!-- Node4&#45;&gt;Node6 -->
<g id="edge5" class="edge">
<title>Node4&#45;&gt;Node6</title>
<path fill="none" stroke="midnightblue" d="M818.79,-56.32C802.19,-47.7 776.5,-34.36 757.28,-24.39"/>
<polygon fill="midnightblue" stroke="midnightblue" points="758.66,-21.16 748.17,-19.65 755.43,-27.37 758.66,-21.16"/>
</g>
<!-- Node4&#45;&gt;Node7 -->
<g id="edge6" class="edge">
<title>Node4&#45;&gt;Node7</title>
<path fill="none" stroke="midnightblue" d="M800.12,-56.47C766.34,-48.23 713.77,-35.13 659.01,-20.05"/>
<polygon fill="midnightblue" stroke="midnightblue" points="659.69,-16.61 649.12,-17.31 657.83,-23.35 659.69,-16.61"/>
</g>
<!-- Node8 -->
<g id="node8" class="node">
<title>Node8</title>
<g id="a_node8"><a xlink:title=" ">
<polygon fill="none" stroke="#bfbfbf" points="813.5,-0.5 813.5,-19.5 857.5,-19.5 857.5,-0.5 813.5,-0.5"/>
<text text-anchor="middle" x="835.5" y="-7.5" font-family="Helvetica,sans-Serif" font-size="10.00">vector</text>
</a>
</g>
</g>
<!-- Node4&#45;&gt;Node8 -->
<g id="edge7" class="edge">
<title>Node4&#45;&gt;Node8</title>
<path fill="none" stroke="midnightblue" d="M835.5,-56.08C835.5,-49.01 835.5,-38.86 835.5,-29.99"/>
<polygon fill="midnightblue" stroke="midnightblue" points="839,-29.75 835.5,-19.75 832,-29.75 839,-29.75"/>
</g>
<!-- Node9 -->
<g id="node9" class="node">
<title>Node9</title>
<g id="a_node9"><a xlink:title=" ">
<polygon fill="none" stroke="#bfbfbf" points="875.5,-0.5 875.5,-19.5 921.5,-19.5 921.5,-0.5 875.5,-0.5"/>
<text text-anchor="middle" x="898.5" y="-7.5" font-family="Helvetica,sans-Serif" font-size="10.00">cctype</text>
</a>
</g>
</g>
<!-- Node4&#45;&gt;Node9 -->
<g id="edge8" class="edge">
<title>Node4&#45;&gt;Node9</title>
<path fill="none" stroke="midnightblue" d="M845.62,-56.32C855.03,-48.26 869.24,-36.08 880.57,-26.37"/>
<polygon fill="midnightblue" stroke="midnightblue" points="882.88,-29 888.19,-19.83 878.32,-23.68 882.88,-29"/>
</g>
<!-- Node10 -->
<g id="node10" class="node">
<title>Node10</title>
<g id="a_node10"><a xlink:title=" ">
<polygon fill="none" stroke="#bfbfbf" points="939.5,-0.5 939.5,-19.5 989.5,-19.5 989.5,-0.5 939.5,-0.5"/>
<text text-anchor="middle" x="964.5" y="-7.5" font-family="Helvetica,sans-Serif" font-size="10.00">optional</text>
</a>
</g>
</g>
<!-- Node4&#45;&gt;Node10 -->
<g id="edge9" class="edge">
<title>Node4&#45;&gt;Node10</title>
<path fill="none" stroke="midnightblue" d="M855.94,-56.44C877.17,-47.56 910.6,-33.56 934.75,-23.45"/>
<polygon fill="midnightblue" stroke="midnightblue" points="936.28,-26.61 944.16,-19.52 933.58,-20.15 936.28,-26.61"/>
</g>
<!-- Node15&#45;&gt;Node3 -->
<g id="edge18" class="edge">
<title>Node15&#45;&gt;Node3</title>
<path fill="none" stroke="midnightblue" d="M500.76,-112.44C533.46,-103.2 585.68,-88.44 621.68,-78.26"/>
<polygon fill="midnightblue" stroke="midnightblue" points="622.71,-81.61 631.38,-75.52 620.8,-74.87 622.71,-81.61"/>
</g>
<!-- Node16 -->
<g id="node16" class="node">
<title>Node16</title>
<g id="a_node16"><a xlink:title=" ">
<polygon fill="none" stroke="#bfbfbf" points="0,-56.5 0,-75.5 149,-75.5 149,-56.5 0,-56.5"/>
<text text-anchor="middle" x="74.5" y="-63.5" font-family="Helvetica,sans-Serif" font-size="10.00">boost/beast/http/message.hpp</text>
</a>
</g>
</g>
<!-- Node15&#45;&gt;Node16 -->
<g id="edge16" class="edge">
<title>Node15&#45;&gt;Node16</title>
<path fill="none" stroke="midnightblue" d="M407.75,-112.44C336.93,-102.79 221.9,-87.1 147.21,-76.92"/>
<polygon fill="midnightblue" stroke="midnightblue" points="147.34,-73.4 136.95,-75.52 146.39,-80.34 147.34,-73.4"/>
</g>
<!-- Node17 -->
<g id="node17" class="node">
<title>Node17</title>
<g id="a_node17"><a xlink:title=" ">
<polygon fill="none" stroke="#bfbfbf" points="166.5,-56.5 166.5,-75.5 324.5,-75.5 324.5,-56.5 166.5,-56.5"/>
<text text-anchor="middle" x="245.5" y="-63.5" font-family="Helvetica,sans-Serif" font-size="10.00">boost/beast/http/string_body.hpp</text>
</a>
</g>
</g>
<!-- Node15&#45;&gt;Node17 -->
<g id="edge17" class="edge">
<title>Node15&#45;&gt;Node17</title>
<path fill="none" stroke="midnightblue" d="M434.85,-112.44C395.84,-103.08 333.23,-88.06 290.78,-77.87"/>
<polygon fill="midnightblue" stroke="midnightblue" points="291.53,-74.45 280.99,-75.52 289.89,-81.25 291.53,-74.45"/>
</g>
<!-- Node18 -->
<g id="node18" class="node">
<title>Node18</title>
<g id="a_node18"><a xlink:title=" ">
<polygon fill="none" stroke="#bfbfbf" points="342.5,-56.5 342.5,-75.5 478.5,-75.5 478.5,-56.5 342.5,-56.5"/>
<text text-anchor="middle" x="410.5" y="-63.5" font-family="Helvetica,sans-Serif" font-size="10.00">boost/beast/http/status.hpp</text>
</a>
</g>
</g>
<!-- Node15&#45;&gt;Node18 -->
<g id="edge19" class="edge">
<title>Node15&#45;&gt;Node18</title>
<path fill="none" stroke="midnightblue" d="M460.86,-112.32C451.99,-104.34 438.63,-92.31 427.89,-82.65"/>
<polygon fill="midnightblue" stroke="midnightblue" points="430.09,-79.92 420.32,-75.83 425.41,-85.13 430.09,-79.92"/>
</g>
<!-- Node19 -->
<g id="node19" class="node">
<title>Node19</title>
<g id="a_node19"><a xlink:title=" ">
<polygon fill="none" stroke="#bfbfbf" points="496.5,-56.5 496.5,-75.5 562.5,-75.5 562.5,-56.5 496.5,-56.5"/>
<text text-anchor="middle" x="529.5" y="-63.5" font-family="Helvetica,sans-Serif" font-size="10.00">string_view</text>
</a>
</g>
</g>
<!-- Node15&#45;&gt;Node19 -->
<g id="edge20" class="edge">
<title>Node15&#45;&gt;Node19</title>
<path fill="none" stroke="midnightblue" d="M479.98,-112.32C488.7,-104.34 501.84,-92.31 512.4,-82.65"/>
<polygon fill="midnightblue" stroke="midnightblue" points="514.83,-85.17 519.85,-75.83 510.11,-80 514.83,-85.17"/>
</g>
</g>
</svg>
