<?xml version="1.0" encoding="UTF-8" standalone="no"?>
<!DOCTYPE svg PUBLIC "-//W3C//DTD SVG 1.1//EN"
 "http://www.w3.org/Graphics/SVG/1.1/DTD/svg11.dtd">
<!-- Generated by graphviz version 2.44.1 (20211215.1903)
 -->
<!-- Title: include/roar/standard_response_provider.hpp Pages: 1 -->
<svg width="1693pt" height="252pt"
 viewBox="0.00 0.00 1692.66 252.00" xmlns="http://www.w3.org/2000/svg" xmlns:xlink="http://www.w3.org/1999/xlink">
<g id="graph0" class="graph" transform="scale(1 1) rotate(0) translate(4 248)">
<title>include/roar/standard_response_provider.hpp</title>
<!-- Node1 -->
<g id="node1" class="node">
<title>Node1</title>
<g id="a_node1"><a xlink:title=" ">
<polygon fill="#bfbfbf" stroke="black" points="403.66,-224.5 403.66,-243.5 614.66,-243.5 614.66,-224.5 403.66,-224.5"/>
<text text-anchor="middle" x="509.16" y="-231.5" font-family="Helvetica,sans-Serif" font-size="10.00">include/roar/standard_response_provider.hpp</text>
</a>
</g>
</g>
<!-- Node2 -->
<g id="node2" class="node">
<title>Node2</title>
<g id="a_node2"><a xlink:href="route_8hpp.html" target="_top" xlink:title=" ">
<polygon fill="none" stroke="black" points="181.66,-168.5 181.66,-187.5 324.66,-187.5 324.66,-168.5 181.66,-168.5"/>
<text text-anchor="middle" x="253.16" y="-175.5" font-family="Helvetica,sans-Serif" font-size="10.00">include/roar/routing/route.hpp</text>
</a>
</g>
</g>
<!-- Node1&#45;&gt;Node2 -->
<g id="edge1" class="edge">
<title>Node1&#45;&gt;Node2</title>
<path fill="none" stroke="midnightblue" d="M458.65,-222.35C410.27,-212.14 338.21,-196.94 293.53,-187.52"/>
<polygon fill="midnightblue" stroke="midnightblue" points="458.09,-225.8 468.6,-224.44 459.53,-218.95 458.09,-225.8"/>
</g>
<!-- Node5 -->
<g id="node5" class="node">
<title>Node5</title>
<g id="a_node5"><a xlink:href="router_8hpp.html" target="_top" xlink:title=" ">
<polygon fill="none" stroke="black" points="11.16,-168.5 11.16,-187.5 157.16,-187.5 157.16,-168.5 11.16,-168.5"/>
<text text-anchor="middle" x="84.16" y="-175.5" font-family="Helvetica,sans-Serif" font-size="10.00">include/roar/routing/router.hpp</text>
</a>
</g>
</g>
<!-- Node1&#45;&gt;Node5 -->
<g id="edge4" class="edge">
<title>Node1&#45;&gt;Node5</title>
<path fill="none" stroke="midnightblue" d="M431.77,-223.17C351.53,-212.97 227.37,-197.2 151.19,-187.52"/>
<polygon fill="midnightblue" stroke="midnightblue" points="431.46,-226.66 441.82,-224.44 432.34,-219.71 431.46,-226.66"/>
</g>
<!-- Node8 -->
<g id="node8" class="node">
<title>Node8</title>
<g id="a_node8"><a xlink:href="server_8hpp.html" target="_top" xlink:title=" ">
<polygon fill="none" stroke="black" points="734.16,-56.5 734.16,-75.5 850.16,-75.5 850.16,-56.5 734.16,-56.5"/>
<text text-anchor="middle" x="792.16" y="-63.5" font-family="Helvetica,sans-Serif" font-size="10.00">include/roar/server.hpp</text>
</a>
</g>
</g>
<!-- Node1&#45;&gt;Node8 -->
<g id="edge8" class="edge">
<title>Node1&#45;&gt;Node8</title>
<path fill="none" stroke="midnightblue" d="M624.98,-228.61C743.97,-222.88 914.66,-210.78 935.16,-188 978.12,-140.26 869.68,-94.16 817.88,-75.59"/>
<polygon fill="midnightblue" stroke="midnightblue" points="624.54,-225.13 614.72,-229.09 624.87,-232.12 624.54,-225.13"/>
</g>
<!-- Node12 -->
<g id="node12" class="node">
<title>Node12</title>
<g id="a_node12"><a xlink:href="factory_8hpp.html" target="_top" xlink:title=" ">
<polygon fill="none" stroke="black" points="519.66,-168.5 519.66,-187.5 674.66,-187.5 674.66,-168.5 519.66,-168.5"/>
<text text-anchor="middle" x="597.16" y="-175.5" font-family="Helvetica,sans-Serif" font-size="10.00">include/roar/session/factory.hpp</text>
</a>
</g>
</g>
<!-- Node1&#45;&gt;Node12 -->
<g id="edge13" class="edge">
<title>Node1&#45;&gt;Node12</title>
<path fill="none" stroke="midnightblue" d="M532.14,-218.9C548.27,-209 569.34,-196.07 583.06,-187.65"/>
<polygon fill="midnightblue" stroke="midnightblue" points="529.99,-216.11 523.3,-224.32 533.65,-222.08 529.99,-216.11"/>
</g>
<!-- Node14 -->
<g id="node14" class="node">
<title>Node14</title>
<g id="a_node14"><a xlink:href="session_8hpp.html" target="_top" xlink:title=" ">
<polygon fill="none" stroke="black" points="342.66,-168.5 342.66,-187.5 501.66,-187.5 501.66,-168.5 342.66,-168.5"/>
<text text-anchor="middle" x="422.16" y="-175.5" font-family="Helvetica,sans-Serif" font-size="10.00">include/roar/session/session.hpp</text>
</a>
</g>
</g>
<!-- Node1&#45;&gt;Node14 -->
<g id="edge16" class="edge">
<title>Node1&#45;&gt;Node14</title>
<path fill="none" stroke="midnightblue" d="M486.44,-218.9C470.49,-209 449.66,-196.07 436.1,-187.65"/>
<polygon fill="midnightblue" stroke="midnightblue" points="484.84,-222.02 495.18,-224.32 488.53,-216.08 484.84,-222.02"/>
</g>
<!-- Node21 -->
<g id="node21" class="node">
<title>Node21</title>
<g id="a_node21"><a xlink:href="standard__text__response__provider_8hpp.html" target="_top" xlink:title=" ">
<polygon fill="none" stroke="black" points="692.66,-168.5 692.66,-187.5 925.66,-187.5 925.66,-168.5 692.66,-168.5"/>
<text text-anchor="middle" x="809.16" y="-175.5" font-family="Helvetica,sans-Serif" font-size="10.00">include/roar/standard_text_response_provider.hpp</text>
</a>
</g>
</g>
<!-- Node1&#45;&gt;Node21 -->
<g id="edge35" class="edge">
<title>Node1&#45;&gt;Node21</title>
<path fill="none" stroke="midnightblue" d="M566.58,-222.66C623.27,-212.46 708.94,-197.04 761.85,-187.52"/>
<polygon fill="midnightblue" stroke="midnightblue" points="565.92,-219.23 556.7,-224.44 567.16,-226.12 565.92,-219.23"/>
</g>
<!-- Node3 -->
<g id="node3" class="node">
<title>Node3</title>
<g id="a_node3"><a xlink:href="route_8cpp.html" target="_top" xlink:title=" ">
<polygon fill="none" stroke="black" points="320.66,-112.5 320.66,-131.5 445.66,-131.5 445.66,-112.5 320.66,-112.5"/>
<text text-anchor="middle" x="383.16" y="-119.5" font-family="Helvetica,sans-Serif" font-size="10.00">src/roar/routing/route.cpp</text>
</a>
</g>
</g>
<!-- Node2&#45;&gt;Node3 -->
<g id="edge2" class="edge">
<title>Node2&#45;&gt;Node3</title>
<path fill="none" stroke="midnightblue" d="M283.24,-164.5C307.62,-154.38 341.3,-140.39 362.66,-131.52"/>
<polygon fill="midnightblue" stroke="midnightblue" points="281.65,-161.38 273.76,-168.44 284.34,-167.84 281.65,-161.38"/>
</g>
<!-- Node4 -->
<g id="node4" class="node">
<title>Node4</title>
<g id="a_node4"><a xlink:href="router_8cpp.html" target="_top" xlink:title=" ">
<polygon fill="none" stroke="black" points="14.16,-112.5 14.16,-131.5 142.16,-131.5 142.16,-112.5 14.16,-112.5"/>
<text text-anchor="middle" x="78.16" y="-119.5" font-family="Helvetica,sans-Serif" font-size="10.00">src/roar/routing/router.cpp</text>
</a>
</g>
</g>
<!-- Node2&#45;&gt;Node4 -->
<g id="edge3" class="edge">
<title>Node2&#45;&gt;Node4</title>
<path fill="none" stroke="midnightblue" d="M215.68,-165.44C182.69,-155.26 135.4,-140.66 105.76,-131.52"/>
<polygon fill="midnightblue" stroke="midnightblue" points="214.84,-168.84 225.43,-168.44 216.91,-162.15 214.84,-168.84"/>
</g>
<!-- Node5&#45;&gt;Node4 -->
<g id="edge5" class="edge">
<title>Node5&#45;&gt;Node4</title>
<path fill="none" stroke="midnightblue" d="M82.06,-158.1C81.06,-149.14 79.92,-138.86 79.13,-131.75"/>
<polygon fill="midnightblue" stroke="midnightblue" points="78.59,-158.53 83.17,-168.08 85.54,-157.76 78.59,-158.53"/>
</g>
<!-- Node6 -->
<g id="node6" class="node">
<title>Node6</title>
<g id="a_node6"><a xlink:href="server_8cpp.html" target="_top" xlink:title=" ">
<polygon fill="none" stroke="black" points="512.16,-0.5 512.16,-19.5 610.16,-19.5 610.16,-0.5 512.16,-0.5"/>
<text text-anchor="middle" x="561.16" y="-7.5" font-family="Helvetica,sans-Serif" font-size="10.00">src/roar/server.cpp</text>
</a>
</g>
</g>
<!-- Node5&#45;&gt;Node6 -->
<g id="edge6" class="edge">
<title>Node5&#45;&gt;Node6</title>
<path fill="none" stroke="midnightblue" d="M49.22,-164.7C20.57,-152.72 -12.58,-133.25 5.16,-112 69.68,-34.71 388.15,-16.43 511.88,-12.22"/>
<polygon fill="midnightblue" stroke="midnightblue" points="48.1,-168.02 58.68,-168.47 50.68,-161.52 48.1,-168.02"/>
</g>
<!-- Node7 -->
<g id="node7" class="node">
<title>Node7</title>
<g id="a_node7"><a xlink:href="session_8cpp.html" target="_top" xlink:title=" ">
<polygon fill="none" stroke="black" points="160.16,-112.5 160.16,-131.5 302.16,-131.5 302.16,-112.5 160.16,-112.5"/>
<text text-anchor="middle" x="231.16" y="-119.5" font-family="Helvetica,sans-Serif" font-size="10.00">src/roar/session/session.cpp</text>
</a>
</g>
</g>
<!-- Node5&#45;&gt;Node7 -->
<g id="edge7" class="edge">
<title>Node5&#45;&gt;Node7</title>
<path fill="none" stroke="midnightblue" d="M117.08,-164.91C144.72,-154.75 183.5,-140.51 207.98,-131.52"/>
<polygon fill="midnightblue" stroke="midnightblue" points="115.63,-161.71 107.45,-168.44 118.05,-168.28 115.63,-161.71"/>
</g>
<!-- Node8&#45;&gt;Node6 -->
<g id="edge12" class="edge">
<title>Node8&#45;&gt;Node6</title>
<path fill="none" stroke="midnightblue" d="M745.76,-54.15C702.11,-43.95 637.65,-28.88 597.59,-19.52"/>
<polygon fill="midnightblue" stroke="midnightblue" points="745.02,-57.58 755.56,-56.44 746.62,-50.76 745.02,-57.58"/>
</g>
<!-- Node9 -->
<g id="node9" class="node">
<title>Node9</title>
<g id="a_node9"><a xlink:href="simple__server_2main_8cpp.html" target="_top" xlink:title=" ">
<polygon fill="none" stroke="black" points="1288.66,-0.5 1288.66,-19.5 1453.66,-19.5 1453.66,-0.5 1288.66,-0.5"/>
<text text-anchor="middle" x="1371.16" y="-7.5" font-family="Helvetica,sans-Serif" font-size="10.00">examples/simple_server/main.cpp</text>
</a>
</g>
</g>
<!-- Node8&#45;&gt;Node9 -->
<g id="edge9" class="edge">
<title>Node8&#45;&gt;Node9</title>
<path fill="none" stroke="midnightblue" d="M860.23,-58.83C954.39,-50.26 1129.71,-34.21 1279.16,-20 1282.19,-19.71 1285.29,-19.42 1288.41,-19.12"/>
<polygon fill="midnightblue" stroke="midnightblue" points="859.91,-55.34 850.27,-59.73 860.54,-62.31 859.91,-55.34"/>
</g>
<!-- Node10 -->
<g id="node10" class="node">
<title>Node10</title>
<g id="a_node10"><a xlink:href="websocket_2main_8cpp.html" target="_top" xlink:title=" ">
<polygon fill="none" stroke="black" points="708.16,-0.5 708.16,-19.5 860.16,-19.5 860.16,-0.5 708.16,-0.5"/>
<text text-anchor="middle" x="784.16" y="-7.5" font-family="Helvetica,sans-Serif" font-size="10.00">examples/websocket/main.cpp</text>
</a>
</g>
</g>
<!-- Node8&#45;&gt;Node10 -->
<g id="edge10" class="edge">
<title>Node8&#45;&gt;Node10</title>
<path fill="none" stroke="midnightblue" d="M789.36,-46.1C788.03,-37.14 786.51,-26.86 785.46,-19.75"/>
<polygon fill="midnightblue" stroke="midnightblue" points="785.91,-46.7 790.84,-56.08 792.83,-45.68 785.91,-46.7"/>
</g>
<!-- Node11 -->
<g id="node11" class="node">
<title>Node11</title>
<g id="a_node11"><a xlink:href="src_2roar_2routing_2request__listener_8cpp.html" target="_top" xlink:title=" ">
<polygon fill="none" stroke="black" points="878.66,-0.5 878.66,-19.5 1051.66,-19.5 1051.66,-0.5 878.66,-0.5"/>
<text text-anchor="middle" x="965.16" y="-7.5" font-family="Helvetica,sans-Serif" font-size="10.00">src/roar/routing/request_listener.cpp</text>
</a>
</g>
</g>
<!-- Node8&#45;&gt;Node11 -->
<g id="edge11" class="edge">
<title>Node8&#45;&gt;Node11</title>
<path fill="none" stroke="midnightblue" d="M829.21,-53.44C861.82,-43.26 908.57,-28.66 937.88,-19.52"/>
<polygon fill="midnightblue" stroke="midnightblue" points="828.07,-50.12 819.57,-56.44 830.16,-56.8 828.07,-50.12"/>
</g>
<!-- Node12&#45;&gt;Node6 -->
<g id="edge14" class="edge">
<title>Node12&#45;&gt;Node6</title>
<path fill="none" stroke="midnightblue" d="M640.01,-165.17C668.73,-154.73 699.26,-137.21 687.16,-112 664.96,-65.75 610.11,-34.01 580.64,-19.67"/>
<polygon fill="midnightblue" stroke="midnightblue" points="638.74,-161.9 630.4,-168.44 641,-168.53 638.74,-161.9"/>
</g>
<!-- Node13 -->
<g id="node13" class="node">
<title>Node13</title>
<g id="a_node13"><a xlink:href="factory_8cpp.html" target="_top" xlink:title=" ">
<polygon fill="none" stroke="black" points="540.66,-112.5 540.66,-131.5 677.66,-131.5 677.66,-112.5 540.66,-112.5"/>
<text text-anchor="middle" x="609.16" y="-119.5" font-family="Helvetica,sans-Serif" font-size="10.00">src/roar/session/factory.cpp</text>
</a>
</g>
</g>
<!-- Node12&#45;&gt;Node13 -->
<g id="edge15" class="edge">
<title>Node12&#45;&gt;Node13</title>
<path fill="none" stroke="midnightblue" d="M601.36,-158.1C603.35,-149.14 605.64,-138.86 607.21,-131.75"/>
<polygon fill="midnightblue" stroke="midnightblue" points="597.89,-157.56 599.14,-168.08 604.73,-159.08 597.89,-157.56"/>
</g>
<!-- Node14&#45;&gt;Node3 -->
<g id="edge30" class="edge">
<title>Node14&#45;&gt;Node3</title>
<path fill="none" stroke="midnightblue" d="M409.78,-159.86C403.02,-150.5 394.95,-139.33 389.48,-131.75"/>
<polygon fill="midnightblue" stroke="midnightblue" points="407.03,-162.03 415.72,-168.08 412.7,-157.93 407.03,-162.03"/>
</g>
<!-- Node14&#45;&gt;Node4 -->
<g id="edge31" class="edge">
<title>Node14&#45;&gt;Node4</title>
<path fill="none" stroke="midnightblue" d="M357.52,-166.85C292.53,-156.65 193.45,-141.1 132.41,-131.52"/>
<polygon fill="midnightblue" stroke="midnightblue" points="357.23,-170.35 367.65,-168.44 358.32,-163.44 357.23,-170.35"/>
</g>
<!-- Node14&#45;&gt;Node6 -->
<g id="edge32" class="edge">
<title>Node14&#45;&gt;Node6</title>
<path fill="none" stroke="midnightblue" d="M436.22,-160.21C465.48,-125.26 532.03,-45.79 553.98,-19.57"/>
<polygon fill="midnightblue" stroke="midnightblue" points="433.37,-158.16 429.63,-168.08 438.74,-162.66 433.37,-158.16"/>
</g>
<!-- Node14&#45;&gt;Node7 -->
<g id="edge34" class="edge">
<title>Node14&#45;&gt;Node7</title>
<path fill="none" stroke="midnightblue" d="M382.19,-165.7C346.14,-155.51 293.92,-140.74 261.28,-131.52"/>
<polygon fill="midnightblue" stroke="midnightblue" points="381.32,-169.09 391.89,-168.44 383.22,-162.35 381.32,-169.09"/>
</g>
<!-- Node14&#45;&gt;Node8 -->
<g id="edge29" class="edge">
<title>Node14&#45;&gt;Node8</title>
<path fill="none" stroke="midnightblue" d="M441.83,-162.37C463.02,-147.35 498.28,-124.47 532.16,-112 598.91,-87.44 680.32,-76.12 734.06,-71.01"/>
<polygon fill="midnightblue" stroke="midnightblue" points="439.71,-159.58 433.65,-168.27 443.81,-165.26 439.71,-159.58"/>
</g>
<!-- Node14&#45;&gt;Node13 -->
<g id="edge33" class="edge">
<title>Node14&#45;&gt;Node13</title>
<path fill="none" stroke="midnightblue" d="M461.75,-165.57C497.03,-155.38 547.85,-140.7 579.67,-131.52"/>
<polygon fill="midnightblue" stroke="midnightblue" points="460.43,-162.31 451.79,-168.44 462.37,-169.03 460.43,-162.31"/>
</g>
<!-- Node15 -->
<g id="node15" class="node">
<title>Node15</title>
<g id="a_node15"><a xlink:href="include_2roar_2routing_2request__listener_8hpp.html" target="_top" xlink:title=" ">
<polygon fill="none" stroke="black" points="1049.16,-112.5 1049.16,-131.5 1239.16,-131.5 1239.16,-112.5 1049.16,-112.5"/>
<text text-anchor="middle" x="1144.16" y="-119.5" font-family="Helvetica,sans-Serif" font-size="10.00">include/roar/routing/request_listener.hpp</text>
</a>
</g>
</g>
<!-- Node14&#45;&gt;Node15 -->
<g id="edge17" class="edge">
<title>Node14&#45;&gt;Node15</title>
<path fill="none" stroke="midnightblue" d="M511.71,-167.98C709.13,-151.1 927.04,-136.61 1048.91,-128.88"/>
<polygon fill="midnightblue" stroke="midnightblue" points="511.39,-164.49 501.72,-168.84 511.99,-171.47 511.39,-164.49"/>
</g>
<!-- Node15&#45;&gt;Node8 -->
<g id="edge27" class="edge">
<title>Node15&#45;&gt;Node8</title>
<path fill="none" stroke="midnightblue" d="M1078.43,-110.92C1011.93,-100.71 910.26,-85.12 847.67,-75.52"/>
<polygon fill="midnightblue" stroke="midnightblue" points="1077.97,-114.39 1088.38,-112.44 1079.03,-107.47 1077.97,-114.39"/>
</g>
<!-- Node15&#45;&gt;Node9 -->
<g id="edge19" class="edge">
<title>Node15&#45;&gt;Node9</title>
<path fill="none" stroke="midnightblue" d="M1237.9,-110.39C1267.34,-103.82 1298.75,-93.19 1324.16,-76 1345.61,-61.48 1360.7,-33.75 1367.35,-19.67"/>
<polygon fill="midnightblue" stroke="midnightblue" points="1237.08,-106.99 1228.01,-112.46 1238.51,-113.84 1237.08,-106.99"/>
</g>
<!-- Node15&#45;&gt;Node10 -->
<g id="edge23" class="edge">
<title>Node15&#45;&gt;Node10</title>
<path fill="none" stroke="midnightblue" d="M1046.76,-111.07C1000.46,-104.39 944.92,-93.49 897.16,-76 886.8,-72.21 826.66,-36.48 798.58,-19.67"/>
<polygon fill="midnightblue" stroke="midnightblue" points="1046.41,-114.55 1056.8,-112.47 1047.38,-107.62 1046.41,-114.55"/>
</g>
<!-- Node15&#45;&gt;Node11 -->
<g id="edge28" class="edge">
<title>Node15&#45;&gt;Node11</title>
<path fill="none" stroke="midnightblue" d="M1243.46,-110.77C1291.26,-101.91 1333.14,-85.62 1307.16,-56 1298.76,-46.42 1150.27,-29.68 1051.74,-19.54"/>
<polygon fill="midnightblue" stroke="midnightblue" points="1242.77,-107.33 1233.52,-112.49 1243.97,-114.23 1242.77,-107.33"/>
</g>
<!-- Node16 -->
<g id="node16" class="node">
<title>Node16</title>
<g id="a_node16"><a xlink:href="request__listener_2main_8cpp.html" target="_top" xlink:title=" ">
<polygon fill="none" stroke="black" points="1124.66,-56.5 1124.66,-75.5 1297.66,-75.5 1297.66,-56.5 1124.66,-56.5"/>
<text text-anchor="middle" x="1211.16" y="-63.5" font-family="Helvetica,sans-Serif" font-size="10.00">examples/request_listener/main.cpp</text>
</a>
</g>
</g>
<!-- Node15&#45;&gt;Node16 -->
<g id="edge18" class="edge">
<title>Node15&#45;&gt;Node16</title>
<path fill="none" stroke="midnightblue" d="M1162.99,-105.82C1175,-96.15 1190.13,-83.95 1200.2,-75.83"/>
<polygon fill="midnightblue" stroke="midnightblue" points="1160.51,-103.32 1154.92,-112.32 1164.91,-108.77 1160.51,-103.32"/>
</g>
<!-- Node17 -->
<g id="node17" class="node">
<title>Node17</title>
<g id="a_node17"><a xlink:href="examples_2simple__server_2request__listener_8hpp.html" target="_top" xlink:title=" ">
<polygon fill="none" stroke="black" points="1392.66,-56.5 1392.66,-75.5 1605.66,-75.5 1605.66,-56.5 1392.66,-56.5"/>
<text text-anchor="middle" x="1499.16" y="-63.5" font-family="Helvetica,sans-Serif" font-size="10.00">examples/simple_server/request_listener.hpp</text>
</a>
</g>
</g>
<!-- Node15&#45;&gt;Node17 -->
<g id="edge20" class="edge">
<title>Node15&#45;&gt;Node17</title>
<path fill="none" stroke="midnightblue" d="M1210.45,-110.92C1277.51,-100.71 1380.05,-85.12 1443.17,-75.52"/>
<polygon fill="midnightblue" stroke="midnightblue" points="1209.77,-107.48 1200.41,-112.44 1210.82,-114.4 1209.77,-107.48"/>
</g>
<!-- Node19 -->
<g id="node19" class="node">
<title>Node19</title>
<g id="a_node19"><a xlink:href="examples_2websocket_2request__listener_8hpp.html" target="_top" xlink:title=" ">
<polygon fill="none" stroke="black" points="906.16,-56.5 906.16,-75.5 1106.16,-75.5 1106.16,-56.5 906.16,-56.5"/>
<text text-anchor="middle" x="1006.16" y="-63.5" font-family="Helvetica,sans-Serif" font-size="10.00">examples/websocket/request_listener.hpp</text>
</a>
</g>
</g>
<!-- Node15&#45;&gt;Node19 -->
<g id="edge24" class="edge">
<title>Node15&#45;&gt;Node19</title>
<path fill="none" stroke="midnightblue" d="M1112.91,-108.77C1086.99,-98.63 1050.8,-84.47 1027.92,-75.52"/>
<polygon fill="midnightblue" stroke="midnightblue" points="1111.7,-112.06 1122.29,-112.44 1114.26,-105.54 1111.7,-112.06"/>
</g>
<!-- Node17&#45;&gt;Node9 -->
<g id="edge21" class="edge">
<title>Node17&#45;&gt;Node9</title>
<path fill="none" stroke="midnightblue" d="M1469.54,-52.5C1445.54,-42.38 1412.38,-28.39 1391.35,-19.52"/>
<polygon fill="midnightblue" stroke="midnightblue" points="1468.3,-55.78 1478.88,-56.44 1471.02,-49.33 1468.3,-55.78"/>
</g>
<!-- Node18 -->
<g id="node18" class="node">
<title>Node18</title>
<g id="a_node18"><a xlink:href="examples_2simple__server_2request__listener_8cpp.html" target="_top" xlink:title=" ">
<polygon fill="none" stroke="black" points="1471.66,-0.5 1471.66,-19.5 1684.66,-19.5 1684.66,-0.5 1471.66,-0.5"/>
<text text-anchor="middle" x="1578.16" y="-7.5" font-family="Helvetica,sans-Serif" font-size="10.00">examples/simple_server/request_listener.cpp</text>
</a>
</g>
</g>
<!-- Node17&#45;&gt;Node18 -->
<g id="edge22" class="edge">
<title>Node17&#45;&gt;Node18</title>
<path fill="none" stroke="midnightblue" d="M1520.19,-50.62C1534.63,-40.76 1553.3,-27.99 1565.5,-19.65"/>
<polygon fill="midnightblue" stroke="midnightblue" points="1518.13,-47.79 1511.85,-56.32 1522.08,-53.57 1518.13,-47.79"/>
</g>
<!-- Node19&#45;&gt;Node10 -->
<g id="edge25" class="edge">
<title>Node19&#45;&gt;Node10</title>
<path fill="none" stroke="midnightblue" d="M961.03,-54.02C919.1,-43.82 857.51,-28.84 819.17,-19.52"/>
<polygon fill="midnightblue" stroke="midnightblue" points="960.44,-57.48 970.98,-56.44 962.09,-50.68 960.44,-57.48"/>
</g>
<!-- Node20 -->
<g id="node20" class="node">
<title>Node20</title>
<g id="a_node20"><a xlink:href="examples_2websocket_2request__listener_8cpp.html" target="_top" xlink:title=" ">
<polygon fill="none" stroke="black" points="1070.16,-0.5 1070.16,-19.5 1270.16,-19.5 1270.16,-0.5 1070.16,-0.5"/>
<text text-anchor="middle" x="1170.16" y="-7.5" font-family="Helvetica,sans-Serif" font-size="10.00">examples/websocket/request_listener.cpp</text>
</a>
</g>
</g>
<!-- Node19&#45;&gt;Node20 -->
<g id="edge26" class="edge">
<title>Node19&#45;&gt;Node20</title>
<path fill="none" stroke="midnightblue" d="M1041.68,-53.3C1072.58,-43.13 1116.63,-28.62 1144.29,-19.52"/>
<polygon fill="midnightblue" stroke="midnightblue" points="1040.55,-49.99 1032.15,-56.44 1042.74,-56.64 1040.55,-49.99"/>
</g>
<!-- Node21&#45;&gt;Node8 -->
<g id="edge36" class="edge">
<title>Node21&#45;&gt;Node8</title>
<path fill="none" stroke="midnightblue" d="M806.28,-158.35C802.55,-134.25 796.22,-93.31 793.49,-75.59"/>
<polygon fill="midnightblue" stroke="midnightblue" points="802.84,-159.02 807.83,-168.37 809.76,-157.95 802.84,-159.02"/>
</g>
</g>
</svg>
