<?xml version="1.0" encoding="UTF-8" standalone="no"?>
<!DOCTYPE svg PUBLIC "-//W3C//DTD SVG 1.1//EN"
 "http://www.w3.org/Graphics/SVG/1.1/DTD/svg11.dtd">
<!-- Generated by graphviz version 2.44.1 (20211215.1903)
 -->
<!-- Title: Roar::CorsSettings Pages: 1 -->
<svg width="998pt" height="182pt"
 viewBox="0.00 0.00 998.00 182.00" xmlns="http://www.w3.org/2000/svg" xmlns:xlink="http://www.w3.org/1999/xlink">
<g id="graph0" class="graph" transform="scale(1 1) rotate(0) translate(4 178)">
<title>Roar::CorsSettings</title>
<!-- Node1 -->
<g id="node1" class="node">
<title>Node1</title>
<g id="a_node1"><a xlink:title="Settings object to control CORS requests.">
<polygon fill="#bfbfbf" stroke="black" points="587.5,-0.5 587.5,-57.5 688.5,-57.5 688.5,-0.5 587.5,-0.5"/>
<text text-anchor="middle" x="638" y="-45.5" font-family="Helvetica,sans-Serif" font-size="10.00">Roar::CorsSettings</text>
<polyline fill="none" stroke="black" points="587.5,-38.5 688.5,-38.5 "/>
<text text-anchor="middle" x="638" y="-26.5" font-family="Helvetica,sans-Serif" font-size="10.00"> </text>
<polyline fill="none" stroke="black" points="587.5,-19.5 688.5,-19.5 "/>
<text text-anchor="middle" x="638" y="-7.5" font-family="Helvetica,sans-Serif" font-size="10.00"> </text>
</a>
</g>
</g>
<!-- Node2 -->
<g id="node2" class="node">
<title>Node2</title>
<g id="a_node2"><a xlink:title=" ">
<polygon fill="none" stroke="black" points="0,-116.5 0,-173.5 196,-173.5 196,-116.5 0,-116.5"/>
<text text-anchor="middle" x="98" y="-161.5" font-family="Helvetica,sans-Serif" font-size="10.00">function&lt; std::string(std::string const &amp;)&gt;</text>
<polyline fill="none" stroke="black" points="0,-154.5 196,-154.5 "/>
<text text-anchor="middle" x="98" y="-142.5" font-family="Helvetica,sans-Serif" font-size="10.00"> </text>
<polyline fill="none" stroke="black" points="0,-135.5 196,-135.5 "/>
<text text-anchor="middle" x="98" y="-123.5" font-family="Helvetica,sans-Serif" font-size="10.00"> </text>
</a>
</g>
</g>
<!-- Node2&#45;&gt;Node1 -->
<g id="edge1" class="edge">
<title>Node2&#45;&gt;Node1</title>
<path fill="none" stroke="#404040" d="M196.19,-118.06C199.16,-117.36 202.1,-116.67 205,-116 336.17,-85.84 491.14,-56.59 575.53,-41.19"/>
<polygon fill="none" stroke="#404040" points="575.65,-41.17 580.84,-36.16 587.46,-39.02 582.27,-44.03 575.65,-41.17"/>
<text text-anchor="middle" x="417" y="-84.5" font-family="Helvetica,sans-Serif" font-size="10.00"> +allowedOrigin</text>
</g>
<!-- Node3 -->
<g id="node3" class="node">
<title>Node3</title>
<g id="a_node3"><a xlink:title=" ">
<polygon fill="none" stroke="black" points="213.5,-116.5 213.5,-173.5 538.5,-173.5 538.5,-116.5 213.5,-116.5"/>
<text text-anchor="middle" x="376" y="-161.5" font-family="Helvetica,sans-Serif" font-size="10.00">function&lt; std::vector&lt; std::string &gt;(std::vector&lt; std::string &gt; const &amp;)&gt;</text>
<polyline fill="none" stroke="black" points="213.5,-154.5 538.5,-154.5 "/>
<text text-anchor="middle" x="376" y="-142.5" font-family="Helvetica,sans-Serif" font-size="10.00"> </text>
<polyline fill="none" stroke="black" points="213.5,-135.5 538.5,-135.5 "/>
<text text-anchor="middle" x="376" y="-123.5" font-family="Helvetica,sans-Serif" font-size="10.00"> </text>
</a>
</g>
</g>
<!-- Node3&#45;&gt;Node1 -->
<g id="edge2" class="edge">
<title>Node3&#45;&gt;Node1</title>
<path fill="none" stroke="#404040" d="M438.55,-116.43C466.77,-104.03 500.54,-89.23 531,-76 545.63,-69.65 561.41,-62.84 576.23,-56.46"/>
<polygon fill="none" stroke="#404040" points="576.32,-56.42 580.26,-50.38 587.35,-51.68 583.41,-57.73 576.32,-56.42"/>
<text text-anchor="middle" x="582.5" y="-90" font-family="Helvetica,sans-Serif" font-size="10.00"> +headerAllowSelection</text>
<text text-anchor="middle" x="582.5" y="-79" font-family="Helvetica,sans-Serif" font-size="10.00">+methodAllowSelection</text>
</g>
<!-- Node4 -->
<g id="node4" class="node">
<title>Node4</title>
<g id="a_node4"><a xlink:title=" ">
<polygon fill="none" stroke="black" points="557,-116.5 557,-173.5 719,-173.5 719,-116.5 557,-116.5"/>
<text text-anchor="middle" x="638" y="-161.5" font-family="Helvetica,sans-Serif" font-size="10.00">vector&lt; boost::beast::http::field &gt;</text>
<polyline fill="none" stroke="black" points="557,-154.5 719,-154.5 "/>
<text text-anchor="middle" x="638" y="-142.5" font-family="Helvetica,sans-Serif" font-size="10.00"> </text>
<polyline fill="none" stroke="black" points="557,-135.5 719,-135.5 "/>
<text text-anchor="middle" x="638" y="-123.5" font-family="Helvetica,sans-Serif" font-size="10.00"> </text>
</a>
</g>
</g>
<!-- Node4&#45;&gt;Node1 -->
<g id="edge3" class="edge">
<title>Node4&#45;&gt;Node1</title>
<path fill="none" stroke="#404040" d="M638,-116.4C638,-102.5 638,-85.39 638,-70.07"/>
<polygon fill="none" stroke="#404040" points="638,-69.74 634,-63.74 638,-57.74 642,-63.74 638,-69.74"/>
<text text-anchor="middle" x="677" y="-84.5" font-family="Helvetica,sans-Serif" font-size="10.00"> +exposeHeaders</text>
</g>
<!-- Node5 -->
<g id="node5" class="node">
<title>Node5</title>
<g id="a_node5"><a xlink:title=" ">
<polygon fill="none" stroke="black" points="737,-116.5 737,-173.5 823,-173.5 823,-116.5 737,-116.5"/>
<text text-anchor="middle" x="780" y="-161.5" font-family="Helvetica,sans-Serif" font-size="10.00">optional&lt; bool &gt;</text>
<polyline fill="none" stroke="black" points="737,-154.5 823,-154.5 "/>
<text text-anchor="middle" x="780" y="-142.5" font-family="Helvetica,sans-Serif" font-size="10.00"> </text>
<polyline fill="none" stroke="black" points="737,-135.5 823,-135.5 "/>
<text text-anchor="middle" x="780" y="-123.5" font-family="Helvetica,sans-Serif" font-size="10.00"> </text>
</a>
</g>
</g>
<!-- Node5&#45;&gt;Node1 -->
<g id="edge4" class="edge">
<title>Node5&#45;&gt;Node1</title>
<path fill="none" stroke="#404040" d="M759.09,-116.2C748.33,-103.03 734.45,-87.67 720,-76 713.53,-70.77 706.38,-65.8 699.09,-61.19"/>
<polygon fill="none" stroke="#404040" points="699,-61.14 691.79,-61.46 688.73,-54.93 695.93,-54.61 699,-61.14"/>
<text text-anchor="middle" x="782" y="-84.5" font-family="Helvetica,sans-Serif" font-size="10.00"> +allowCredentials</text>
</g>
<!-- Node6 -->
<g id="node6" class="node">
<title>Node6</title>
<g id="a_node6"><a xlink:title=" ">
<polygon fill="none" stroke="black" points="854.5,-116.5 854.5,-173.5 889.5,-173.5 889.5,-116.5 854.5,-116.5"/>
<text text-anchor="middle" x="872" y="-161.5" font-family="Helvetica,sans-Serif" font-size="10.00">bool</text>
<polyline fill="none" stroke="black" points="854.5,-154.5 889.5,-154.5 "/>
<text text-anchor="middle" x="872" y="-142.5" font-family="Helvetica,sans-Serif" font-size="10.00"> </text>
<polyline fill="none" stroke="black" points="854.5,-135.5 889.5,-135.5 "/>
<text text-anchor="middle" x="872" y="-123.5" font-family="Helvetica,sans-Serif" font-size="10.00"> </text>
</a>
</g>
</g>
<!-- Node6&#45;&gt;Node1 -->
<g id="edge5" class="edge">
<title>Node6&#45;&gt;Node1</title>
<path fill="none" stroke="#404040" d="M859.9,-116.46C852.37,-102.36 841.36,-86.09 827,-76 790.02,-50.02 740.05,-38.63 700.78,-33.68"/>
<polygon fill="none" stroke="#404040" points="700.62,-33.66 694.21,-36.96 688.7,-32.31 695.11,-29.01 700.62,-33.66"/>
<text text-anchor="middle" x="918.5" y="-84.5" font-family="Helvetica,sans-Serif" font-size="10.00"> +generatePreflightOptionsRoute</text>
</g>
</g>
</svg>
