<?xml version="1.0" encoding="UTF-8" standalone="no"?>
<!DOCTYPE svg PUBLIC "-//W3C//DTD SVG 1.1//EN"
 "http://www.w3.org/Graphics/SVG/1.1/DTD/svg11.dtd">
<!-- Generated by graphviz version 2.44.1 (20211215.1903)
 -->
<!-- Title: Roar::Url::Remote Pages: 1 -->
<svg width="199pt" height="171pt"
 viewBox="0.00 0.00 199.50 171.00" xmlns="http://www.w3.org/2000/svg" xmlns:xlink="http://www.w3.org/1999/xlink">
<g id="graph0" class="graph" transform="scale(1 1) rotate(0) translate(4 167)">
<title>Roar::Url::Remote</title>
<!-- Node1 -->
<g id="node1" class="node">
<title>Node1</title>
<g id="a_node1"><a xlink:title=" ">
<polygon fill="#bfbfbf" stroke="black" points="24,-0.5 24,-57.5 121,-57.5 121,-0.5 24,-0.5"/>
<text text-anchor="middle" x="72.5" y="-45.5" font-family="Helvetica,sans-Serif" font-size="10.00">Roar::Url::Remote</text>
<polyline fill="none" stroke="black" points="24,-38.5 121,-38.5 "/>
<text text-anchor="middle" x="72.5" y="-26.5" font-family="Helvetica,sans-Serif" font-size="10.00"> </text>
<polyline fill="none" stroke="black" points="24,-19.5 121,-19.5 "/>
<text text-anchor="middle" x="72.5" y="-7.5" font-family="Helvetica,sans-Serif" font-size="10.00"> </text>
</a>
</g>
</g>
<!-- Node2 -->
<g id="node2" class="node">
<title>Node2</title>
<g id="a_node2"><a xlink:title=" ">
<polygon fill="none" stroke="black" points="0,-105.5 0,-162.5 41,-162.5 41,-105.5 0,-105.5"/>
<text text-anchor="middle" x="20.5" y="-150.5" font-family="Helvetica,sans-Serif" font-size="10.00">string</text>
<polyline fill="none" stroke="black" points="0,-143.5 41,-143.5 "/>
<text text-anchor="middle" x="20.5" y="-131.5" font-family="Helvetica,sans-Serif" font-size="10.00"> </text>
<polyline fill="none" stroke="black" points="0,-124.5 41,-124.5 "/>
<text text-anchor="middle" x="20.5" y="-112.5" font-family="Helvetica,sans-Serif" font-size="10.00"> </text>
</a>
</g>
</g>
<!-- Node2&#45;&gt;Node1 -->
<g id="edge1" class="edge">
<title>Node2&#45;&gt;Node1</title>
<path fill="none" stroke="#404040" d="M34.44,-105.4C40.15,-94.08 46.86,-80.79 53.04,-68.54"/>
<polygon fill="none" stroke="#404040" points="53.12,-68.39 52.25,-61.23 58.53,-57.68 59.39,-64.84 53.12,-68.39"/>
<text text-anchor="middle" x="62.5" y="-79" font-family="Helvetica,sans-Serif" font-size="10.00"> +host</text>
</g>
<!-- Node3 -->
<g id="node3" class="node">
<title>Node3</title>
<g id="a_node3"><a xlink:title=" ">
<polygon fill="none" stroke="black" points="59.5,-105.5 59.5,-162.5 191.5,-162.5 191.5,-105.5 59.5,-105.5"/>
<text text-anchor="middle" x="125.5" y="-150.5" font-family="Helvetica,sans-Serif" font-size="10.00">optional&lt; unsigned short &gt;</text>
<polyline fill="none" stroke="black" points="59.5,-143.5 191.5,-143.5 "/>
<text text-anchor="middle" x="125.5" y="-131.5" font-family="Helvetica,sans-Serif" font-size="10.00"> </text>
<polyline fill="none" stroke="black" points="59.5,-124.5 191.5,-124.5 "/>
<text text-anchor="middle" x="125.5" y="-112.5" font-family="Helvetica,sans-Serif" font-size="10.00"> </text>
</a>
</g>
</g>
<!-- Node3&#45;&gt;Node1 -->
<g id="edge2" class="edge">
<title>Node3&#45;&gt;Node1</title>
<path fill="none" stroke="#404040" d="M111.3,-105.4C105.47,-94.08 98.64,-80.79 92.33,-68.54"/>
<polygon fill="none" stroke="#404040" points="92.23,-68.35 85.93,-64.84 86.74,-57.68 93.04,-61.18 92.23,-68.35"/>
<text text-anchor="middle" x="113.5" y="-79" font-family="Helvetica,sans-Serif" font-size="10.00"> +port</text>
</g>
</g>
</svg>
