<?xml version="1.0" encoding="UTF-8" standalone="no"?>
<!DOCTYPE svg PUBLIC "-//W3C//DTD SVG 1.1//EN"
 "http://www.w3.org/Graphics/SVG/1.1/DTD/svg11.dtd">
<!-- Generated by graphviz version 2.44.1 (20211215.1903)
 -->
<!-- Title: Roar::RouteOptions Pages: 1 -->
<svg width="214pt" height="182pt"
 viewBox="0.00 0.00 213.50 182.00" xmlns="http://www.w3.org/2000/svg" xmlns:xlink="http://www.w3.org/1999/xlink">
<g id="graph0" class="graph" transform="scale(1 1) rotate(0) translate(4 178)">
<title>Roar::RouteOptions</title>
<!-- Node1 -->
<g id="node1" class="node">
<title>Node1</title>
<g id="a_node1"><a xlink:title=" ">
<polygon fill="#bfbfbf" stroke="black" points="21.5,-0.5 21.5,-57.5 125.5,-57.5 125.5,-0.5 21.5,-0.5"/>
<text text-anchor="middle" x="73.5" y="-45.5" font-family="Helvetica,sans-Serif" font-size="10.00">Roar::RouteOptions</text>
<polyline fill="none" stroke="black" points="21.5,-38.5 125.5,-38.5 "/>
<text text-anchor="middle" x="73.5" y="-26.5" font-family="Helvetica,sans-Serif" font-size="10.00"> </text>
<polyline fill="none" stroke="black" points="21.5,-19.5 125.5,-19.5 "/>
<text text-anchor="middle" x="73.5" y="-7.5" font-family="Helvetica,sans-Serif" font-size="10.00"> </text>
</a>
</g>
</g>
<!-- Node2 -->
<g id="node2" class="node">
<title>Node2</title>
<g id="a_node2"><a xlink:title=" ">
<polygon fill="none" stroke="black" points="0,-116.5 0,-173.5 35,-173.5 35,-116.5 0,-116.5"/>
<text text-anchor="middle" x="17.5" y="-161.5" font-family="Helvetica,sans-Serif" font-size="10.00">bool</text>
<polyline fill="none" stroke="black" points="0,-154.5 35,-154.5 "/>
<text text-anchor="middle" x="17.5" y="-142.5" font-family="Helvetica,sans-Serif" font-size="10.00"> </text>
<polyline fill="none" stroke="black" points="0,-135.5 35,-135.5 "/>
<text text-anchor="middle" x="17.5" y="-123.5" font-family="Helvetica,sans-Serif" font-size="10.00"> </text>
</a>
</g>
</g>
<!-- Node2&#45;&gt;Node1 -->
<g id="edge1" class="edge">
<title>Node2&#45;&gt;Node1</title>
<path fill="none" stroke="#404040" d="M21.48,-116.17C24.03,-103.44 28.11,-88.45 34.5,-76 35.97,-73.13 37.66,-70.28 39.48,-67.5"/>
<polygon fill="none" stroke="#404040" points="39.51,-67.45 39.79,-60.25 46.55,-57.74 46.27,-64.94 39.51,-67.45"/>
<text text-anchor="middle" x="71" y="-90" font-family="Helvetica,sans-Serif" font-size="10.00"> +allowInsecure</text>
<text text-anchor="middle" x="71" y="-79" font-family="Helvetica,sans-Serif" font-size="10.00">+expectUpgrade</text>
</g>
<!-- Node3 -->
<g id="node3" class="node">
<title>Node3</title>
<g id="a_node3"><a xlink:title=" ">
<polygon fill="none" stroke="black" points="53.5,-116.5 53.5,-173.5 205.5,-173.5 205.5,-116.5 53.5,-116.5"/>
<text text-anchor="middle" x="129.5" y="-161.5" font-family="Helvetica,sans-Serif" font-size="10.00">optional&lt; Roar::CorsSettings &gt;</text>
<polyline fill="none" stroke="black" points="53.5,-154.5 205.5,-154.5 "/>
<text text-anchor="middle" x="129.5" y="-142.5" font-family="Helvetica,sans-Serif" font-size="10.00"> </text>
<polyline fill="none" stroke="black" points="53.5,-135.5 205.5,-135.5 "/>
<text text-anchor="middle" x="129.5" y="-123.5" font-family="Helvetica,sans-Serif" font-size="10.00"> </text>
</a>
</g>
</g>
<!-- Node3&#45;&gt;Node1 -->
<g id="edge2" class="edge">
<title>Node3&#45;&gt;Node1</title>
<path fill="none" stroke="#404040" d="M122.77,-116.39C119.12,-103.7 114.02,-88.69 107.5,-76 106.11,-73.29 104.57,-70.58 102.92,-67.89"/>
<polygon fill="none" stroke="#404040" points="102.85,-67.78 96.2,-64.98 96.23,-57.77 102.88,-60.57 102.85,-67.78"/>
<text text-anchor="middle" x="130.5" y="-84.5" font-family="Helvetica,sans-Serif" font-size="10.00"> +cors</text>
</g>
</g>
</svg>
