<?xml version="1.0" encoding="UTF-8" standalone="no"?>
<!DOCTYPE svg PUBLIC "-//W3C//DTD SVG 1.1//EN"
 "http://www.w3.org/Graphics/SVG/1.1/DTD/svg11.dtd">
<!-- Generated by graphviz version 2.44.1 (20211215.1903)
 -->
<!-- Title: Roar::Curl::VerboseLogEntry Pages: 1 -->
<svg width="152pt" height="171pt"
 viewBox="0.00 0.00 152.00 171.00" xmlns="http://www.w3.org/2000/svg" xmlns:xlink="http://www.w3.org/1999/xlink">
<g id="graph0" class="graph" transform="scale(1 1) rotate(0) translate(4 167)">
<title>Roar::Curl::VerboseLogEntry</title>
<!-- Node1 -->
<g id="node1" class="node">
<title>Node1</title>
<g id="a_node1"><a xlink:title=" ">
<polygon fill="#bfbfbf" stroke="black" points="2,-0.5 2,-57.5 144,-57.5 144,-0.5 2,-0.5"/>
<text text-anchor="middle" x="73" y="-45.5" font-family="Helvetica,sans-Serif" font-size="10.00">Roar::Curl::VerboseLogEntry</text>
<polyline fill="none" stroke="black" points="2,-38.5 144,-38.5 "/>
<text text-anchor="middle" x="73" y="-26.5" font-family="Helvetica,sans-Serif" font-size="10.00"> </text>
<polyline fill="none" stroke="black" points="2,-19.5 144,-19.5 "/>
<text text-anchor="middle" x="73" y="-7.5" font-family="Helvetica,sans-Serif" font-size="10.00"> </text>
</a>
</g>
</g>
<!-- Node2 -->
<g id="node2" class="node">
<title>Node2</title>
<g id="a_node2"><a xlink:title=" ">
<polygon fill="none" stroke="black" points="0,-105.5 0,-162.5 72,-162.5 72,-105.5 0,-105.5"/>
<text text-anchor="middle" x="36" y="-150.5" font-family="Helvetica,sans-Serif" font-size="10.00">curl_infotype</text>
<polyline fill="none" stroke="black" points="0,-143.5 72,-143.5 "/>
<text text-anchor="middle" x="36" y="-131.5" font-family="Helvetica,sans-Serif" font-size="10.00"> </text>
<polyline fill="none" stroke="black" points="0,-124.5 72,-124.5 "/>
<text text-anchor="middle" x="36" y="-112.5" font-family="Helvetica,sans-Serif" font-size="10.00"> </text>
</a>
</g>
</g>
<!-- Node2&#45;&gt;Node1 -->
<g id="edge1" class="edge">
<title>Node2&#45;&gt;Node1</title>
<path fill="none" stroke="#404040" d="M45.92,-105.4C49.9,-94.31 54.56,-81.33 58.88,-69.3"/>
<polygon fill="none" stroke="#404040" points="59,-68.97 57.26,-61.97 63.06,-57.68 64.79,-64.68 59,-68.97"/>
<text text-anchor="middle" x="70" y="-79" font-family="Helvetica,sans-Serif" font-size="10.00"> +type</text>
</g>
<!-- Node3 -->
<g id="node3" class="node">
<title>Node3</title>
<g id="a_node3"><a xlink:title=" ">
<polygon fill="none" stroke="black" points="90.5,-105.5 90.5,-162.5 131.5,-162.5 131.5,-105.5 90.5,-105.5"/>
<text text-anchor="middle" x="111" y="-150.5" font-family="Helvetica,sans-Serif" font-size="10.00">string</text>
<polyline fill="none" stroke="black" points="90.5,-143.5 131.5,-143.5 "/>
<text text-anchor="middle" x="111" y="-131.5" font-family="Helvetica,sans-Serif" font-size="10.00"> </text>
<polyline fill="none" stroke="black" points="90.5,-124.5 131.5,-124.5 "/>
<text text-anchor="middle" x="111" y="-112.5" font-family="Helvetica,sans-Serif" font-size="10.00"> </text>
</a>
</g>
</g>
<!-- Node3&#45;&gt;Node1 -->
<g id="edge2" class="edge">
<title>Node3&#45;&gt;Node1</title>
<path fill="none" stroke="#404040" d="M100.82,-105.4C96.73,-94.31 91.94,-81.33 87.5,-69.3"/>
<polygon fill="none" stroke="#404040" points="87.37,-68.94 81.54,-64.69 83.21,-57.68 89.04,-61.92 87.37,-68.94"/>
<text text-anchor="middle" x="107" y="-79" font-family="Helvetica,sans-Serif" font-size="10.00"> +data</text>
</g>
</g>
</svg>
