<?xml version="1.0" encoding="UTF-8" standalone="no"?>
<!DOCTYPE svg PUBLIC "-//W3C//DTD SVG 1.1//EN"
 "http://www.w3.org/Graphics/SVG/1.1/DTD/svg11.dtd">
<!-- Generated by graphviz version 2.44.1 (20211215.1903)
 -->
<!-- Title: src/roar/utility/url.cpp Pages: 1 -->
<svg width="349pt" height="140pt"
 viewBox="0.00 0.00 348.50 140.00" xmlns="http://www.w3.org/2000/svg" xmlns:xlink="http://www.w3.org/1999/xlink">
<g id="graph0" class="graph" transform="scale(1 1) rotate(0) translate(4 136)">
<title>src/roar/utility/url.cpp</title>
<!-- Node1 -->
<g id="node1" class="node">
<title>Node1</title>
<g id="a_node1"><a xlink:title=" ">
<polygon fill="#bfbfbf" stroke="black" points="168.5,-112.5 168.5,-131.5 276.5,-131.5 276.5,-112.5 168.5,-112.5"/>
<text text-anchor="middle" x="222.5" y="-119.5" font-family="Helvetica,sans-Serif" font-size="10.00">src/roar/utility/url.cpp</text>
</a>
</g>
</g>
<!-- Node2 -->
<g id="node2" class="node">
<title>Node2</title>
<g id="a_node2"><a xlink:href="url_8hpp.html" target="_top" xlink:title=" ">
<polygon fill="none" stroke="black" points="54.5,-56.5 54.5,-75.5 146.5,-75.5 146.5,-56.5 54.5,-56.5"/>
<text text-anchor="middle" x="100.5" y="-63.5" font-family="Helvetica,sans-Serif" font-size="10.00">roar/utility/url.hpp</text>
</a>
</g>
</g>
<!-- Node1&#45;&gt;Node2 -->
<g id="edge1" class="edge">
<title>Node1&#45;&gt;Node2</title>
<path fill="none" stroke="midnightblue" d="M203.17,-112.44C183.18,-103.6 151.76,-89.69 128.94,-79.59"/>
<polygon fill="midnightblue" stroke="midnightblue" points="130.3,-76.36 119.74,-75.52 127.47,-82.76 130.3,-76.36"/>
</g>
<!-- Node6 -->
<g id="node6" class="node">
<title>Node6</title>
<g id="a_node6"><a xlink:title=" ">
<polygon fill="none" stroke="#bfbfbf" points="165,-56.5 165,-75.5 212,-75.5 212,-56.5 165,-56.5"/>
<text text-anchor="middle" x="188.5" y="-63.5" font-family="Helvetica,sans-Serif" font-size="10.00">iterator</text>
</a>
</g>
</g>
<!-- Node1&#45;&gt;Node6 -->
<g id="edge5" class="edge">
<title>Node1&#45;&gt;Node6</title>
<path fill="none" stroke="midnightblue" d="M216.89,-112.08C212.13,-104.53 205.18,-93.49 199.35,-84.23"/>
<polygon fill="midnightblue" stroke="midnightblue" points="202.3,-82.35 194.01,-75.75 196.38,-86.08 202.3,-82.35"/>
</g>
<!-- Node7 -->
<g id="node7" class="node">
<title>Node7</title>
<g id="a_node7"><a xlink:title=" ">
<polygon fill="none" stroke="#bfbfbf" points="230.5,-56.5 230.5,-75.5 282.5,-75.5 282.5,-56.5 230.5,-56.5"/>
<text text-anchor="middle" x="256.5" y="-63.5" font-family="Helvetica,sans-Serif" font-size="10.00">sstream</text>
</a>
</g>
</g>
<!-- Node1&#45;&gt;Node7 -->
<g id="edge6" class="edge">
<title>Node1&#45;&gt;Node7</title>
<path fill="none" stroke="midnightblue" d="M228.11,-112.08C232.87,-104.53 239.82,-93.49 245.65,-84.23"/>
<polygon fill="midnightblue" stroke="midnightblue" points="248.62,-86.08 250.99,-75.75 242.7,-82.35 248.62,-86.08"/>
</g>
<!-- Node8 -->
<g id="node8" class="node">
<title>Node8</title>
<g id="a_node8"><a xlink:title=" ">
<polygon fill="none" stroke="#bfbfbf" points="300.5,-56.5 300.5,-75.5 340.5,-75.5 340.5,-56.5 300.5,-56.5"/>
<text text-anchor="middle" x="320.5" y="-63.5" font-family="Helvetica,sans-Serif" font-size="10.00">utility</text>
</a>
</g>
</g>
<!-- Node1&#45;&gt;Node8 -->
<g id="edge7" class="edge">
<title>Node1&#45;&gt;Node8</title>
<path fill="none" stroke="midnightblue" d="M238.25,-112.32C253.82,-103.74 277.88,-90.49 295.96,-80.52"/>
<polygon fill="midnightblue" stroke="midnightblue" points="297.72,-83.55 304.79,-75.65 294.35,-77.42 297.72,-83.55"/>
</g>
<!-- Node3 -->
<g id="node3" class="node">
<title>Node3</title>
<g id="a_node3"><a xlink:title=" ">
<polygon fill="none" stroke="#bfbfbf" points="0,-0.5 0,-19.5 41,-19.5 41,-0.5 0,-0.5"/>
<text text-anchor="middle" x="20.5" y="-7.5" font-family="Helvetica,sans-Serif" font-size="10.00">string</text>
</a>
</g>
</g>
<!-- Node2&#45;&gt;Node3 -->
<g id="edge2" class="edge">
<title>Node2&#45;&gt;Node3</title>
<path fill="none" stroke="midnightblue" d="M87.65,-56.32C75.28,-47.98 56.37,-35.21 41.76,-25.35"/>
<polygon fill="midnightblue" stroke="midnightblue" points="43.57,-22.35 33.32,-19.65 39.65,-28.15 43.57,-22.35"/>
</g>
<!-- Node4 -->
<g id="node4" class="node">
<title>Node4</title>
<g id="a_node4"><a xlink:title=" ">
<polygon fill="none" stroke="#bfbfbf" points="59,-0.5 59,-19.5 142,-19.5 142,-0.5 59,-0.5"/>
<text text-anchor="middle" x="100.5" y="-7.5" font-family="Helvetica,sans-Serif" font-size="10.00">unordered_map</text>
</a>
</g>
</g>
<!-- Node2&#45;&gt;Node4 -->
<g id="edge3" class="edge">
<title>Node2&#45;&gt;Node4</title>
<path fill="none" stroke="midnightblue" d="M100.5,-56.08C100.5,-49.01 100.5,-38.86 100.5,-29.99"/>
<polygon fill="midnightblue" stroke="midnightblue" points="104,-29.75 100.5,-19.75 97,-29.75 104,-29.75"/>
</g>
<!-- Node5 -->
<g id="node5" class="node">
<title>Node5</title>
<g id="a_node5"><a xlink:title=" ">
<polygon fill="none" stroke="#bfbfbf" points="160.5,-0.5 160.5,-19.5 210.5,-19.5 210.5,-0.5 160.5,-0.5"/>
<text text-anchor="middle" x="185.5" y="-7.5" font-family="Helvetica,sans-Serif" font-size="10.00">optional</text>
</a>
</g>
</g>
<!-- Node2&#45;&gt;Node5 -->
<g id="edge4" class="edge">
<title>Node2&#45;&gt;Node5</title>
<path fill="none" stroke="midnightblue" d="M114.16,-56.32C127.42,-47.9 147.77,-34.97 163.35,-25.07"/>
<polygon fill="midnightblue" stroke="midnightblue" points="165.31,-27.97 171.88,-19.65 161.56,-22.06 165.31,-27.97"/>
</g>
</g>
</svg>
