<?xml version="1.0" encoding="UTF-8" standalone="no"?>
<!DOCTYPE svg PUBLIC "-//W3C//DTD SVG 1.1//EN"
 "http://www.w3.org/Graphics/SVG/1.1/DTD/svg11.dtd">
<!-- Generated by graphviz version 2.44.1 (20211215.1903)
 -->
<!-- Title: src/roar/authorization/authorization.cpp Pages: 1 -->
<svg width="435pt" height="140pt"
 viewBox="0.00 0.00 435.00 140.00" xmlns="http://www.w3.org/2000/svg" xmlns:xlink="http://www.w3.org/1999/xlink">
<g id="graph0" class="graph" transform="scale(1 1) rotate(0) translate(4 136)">
<title>src/roar/authorization/authorization.cpp</title>
<!-- Node1 -->
<g id="node1" class="node">
<title>Node1</title>
<g id="a_node1"><a xlink:title=" ">
<polygon fill="#bfbfbf" stroke="black" points="180.5,-112.5 180.5,-131.5 365.5,-131.5 365.5,-112.5 180.5,-112.5"/>
<text text-anchor="middle" x="273" y="-119.5" font-family="Helvetica,sans-Serif" font-size="10.00">src/roar/authorization/authorization.cpp</text>
</a>
</g>
</g>
<!-- Node2 -->
<g id="node2" class="node">
<title>Node2</title>
<g id="a_node2"><a xlink:href="authorization_8hpp.html" target="_top" xlink:title=" ">
<polygon fill="none" stroke="black" points="36.5,-56.5 36.5,-75.5 205.5,-75.5 205.5,-56.5 36.5,-56.5"/>
<text text-anchor="middle" x="121" y="-63.5" font-family="Helvetica,sans-Serif" font-size="10.00">roar/authorization/authorization.hpp</text>
</a>
</g>
</g>
<!-- Node1&#45;&gt;Node2 -->
<g id="edge1" class="edge">
<title>Node1&#45;&gt;Node2</title>
<path fill="none" stroke="midnightblue" d="M248.92,-112.44C223.46,-103.4 183.11,-89.06 154.54,-78.92"/>
<polygon fill="midnightblue" stroke="midnightblue" points="155.57,-75.57 144.97,-75.52 153.22,-82.16 155.57,-75.57"/>
</g>
<!-- Node7 -->
<g id="node7" class="node">
<title>Node7</title>
<g id="a_node7"><a xlink:title=" ">
<polygon fill="none" stroke="#bfbfbf" points="223.5,-56.5 223.5,-75.5 322.5,-75.5 322.5,-56.5 223.5,-56.5"/>
<text text-anchor="middle" x="273" y="-63.5" font-family="Helvetica,sans-Serif" font-size="10.00">boost/describe.hpp</text>
</a>
</g>
</g>
<!-- Node1&#45;&gt;Node7 -->
<g id="edge6" class="edge">
<title>Node1&#45;&gt;Node7</title>
<path fill="none" stroke="midnightblue" d="M273,-112.08C273,-105.01 273,-94.86 273,-85.99"/>
<polygon fill="midnightblue" stroke="midnightblue" points="276.5,-85.75 273,-75.75 269.5,-85.75 276.5,-85.75"/>
</g>
<!-- Node8 -->
<g id="node8" class="node">
<title>Node8</title>
<g id="a_node8"><a xlink:title=" ">
<polygon fill="none" stroke="#bfbfbf" points="341,-56.5 341,-75.5 427,-75.5 427,-56.5 341,-56.5"/>
<text text-anchor="middle" x="384" y="-63.5" font-family="Helvetica,sans-Serif" font-size="10.00">boost/mp11.hpp</text>
</a>
</g>
</g>
<!-- Node1&#45;&gt;Node8 -->
<g id="edge7" class="edge">
<title>Node1&#45;&gt;Node8</title>
<path fill="none" stroke="midnightblue" d="M290.83,-112.32C308.72,-103.62 336.48,-90.12 357.05,-80.11"/>
<polygon fill="midnightblue" stroke="midnightblue" points="358.75,-83.18 366.21,-75.65 355.69,-76.88 358.75,-83.18"/>
</g>
<!-- Node3 -->
<g id="node3" class="node">
<title>Node3</title>
<g id="a_node3"><a xlink:title=" ">
<polygon fill="none" stroke="#bfbfbf" points="0,-0.5 0,-19.5 46,-19.5 46,-0.5 0,-0.5"/>
<text text-anchor="middle" x="23" y="-7.5" font-family="Helvetica,sans-Serif" font-size="10.00">variant</text>
</a>
</g>
</g>
<!-- Node2&#45;&gt;Node3 -->
<g id="edge2" class="edge">
<title>Node2&#45;&gt;Node3</title>
<path fill="none" stroke="midnightblue" d="M105.25,-56.32C89.68,-47.74 65.62,-34.49 47.54,-24.52"/>
<polygon fill="midnightblue" stroke="midnightblue" points="49.15,-21.42 38.71,-19.65 45.78,-27.55 49.15,-21.42"/>
</g>
<!-- Node4 -->
<g id="node4" class="node">
<title>Node4</title>
<g id="a_node4"><a xlink:title=" ">
<polygon fill="none" stroke="#bfbfbf" points="64.5,-0.5 64.5,-19.5 105.5,-19.5 105.5,-0.5 64.5,-0.5"/>
<text text-anchor="middle" x="85" y="-7.5" font-family="Helvetica,sans-Serif" font-size="10.00">string</text>
</a>
</g>
</g>
<!-- Node2&#45;&gt;Node4 -->
<g id="edge3" class="edge">
<title>Node2&#45;&gt;Node4</title>
<path fill="none" stroke="midnightblue" d="M115.06,-56.08C110.02,-48.53 102.66,-37.49 96.49,-28.23"/>
<polygon fill="midnightblue" stroke="midnightblue" points="99.29,-26.13 90.83,-19.75 93.47,-30.01 99.29,-26.13"/>
</g>
<!-- Node5 -->
<g id="node5" class="node">
<title>Node5</title>
<g id="a_node5"><a xlink:title=" ">
<polygon fill="none" stroke="#bfbfbf" points="124,-0.5 124,-19.5 190,-19.5 190,-0.5 124,-0.5"/>
<text text-anchor="middle" x="157" y="-7.5" font-family="Helvetica,sans-Serif" font-size="10.00">string_view</text>
</a>
</g>
</g>
<!-- Node2&#45;&gt;Node5 -->
<g id="edge4" class="edge">
<title>Node2&#45;&gt;Node5</title>
<path fill="none" stroke="midnightblue" d="M126.94,-56.08C131.98,-48.53 139.34,-37.49 145.51,-28.23"/>
<polygon fill="midnightblue" stroke="midnightblue" points="148.53,-30.01 151.17,-19.75 142.71,-26.13 148.53,-30.01"/>
</g>
<!-- Node6 -->
<g id="node6" class="node">
<title>Node6</title>
<g id="a_node6"><a xlink:title=" ">
<polygon fill="none" stroke="#bfbfbf" points="208,-0.5 208,-19.5 334,-19.5 334,-0.5 208,-0.5"/>
<text text-anchor="middle" x="271" y="-7.5" font-family="Helvetica,sans-Serif" font-size="10.00">boost/describe/enum.hpp</text>
</a>
</g>
</g>
<!-- Node2&#45;&gt;Node6 -->
<g id="edge5" class="edge">
<title>Node2&#45;&gt;Node6</title>
<path fill="none" stroke="midnightblue" d="M144.77,-56.44C169.89,-47.4 209.71,-33.06 237.9,-22.92"/>
<polygon fill="midnightblue" stroke="midnightblue" points="239.12,-26.2 247.34,-19.52 236.75,-19.61 239.12,-26.2"/>
</g>
</g>
</svg>
