<?xml version="1.0" encoding="UTF-8" standalone="no"?>
<!DOCTYPE svg PUBLIC "-//W3C//DTD SVG 1.1//EN"
 "http://www.w3.org/Graphics/SVG/1.1/DTD/svg11.dtd">
<!-- Generated by graphviz version 8.1.0 (0)
 -->
<!-- Title: src/roar/authorization/authorization.cpp Pages: 1 -->
<svg width="430pt" height="140pt"
 viewBox="0.00 0.00 430.12 140.00" xmlns="http://www.w3.org/2000/svg" xmlns:xlink="http://www.w3.org/1999/xlink">

<svg id="main" version="1.1" xmlns="http://www.w3.org/2000/svg" xmlns:xlink="http://www.w3.org/1999/xlink" xml:space="preserve" onload="init(evt)">
<style type="text/css"><![CDATA[
.node, .edge {opacity: 0.7;}
.node.selected, .edge.selected {opacity: 1;}
.edge:hover path { stroke: red; }
.edge:hover polygon { stroke: red; fill: red; }
]]></style>
<script type="application/ecmascript" xlink:href="svg.min.js"/>
<svg id="graph" class="graph">
<g id="graph0" class="graph" transform="scale(1 1) rotate(0) translate(4 136)">
<title>src/roar/authorization/authorization.cpp</title>
<!-- Node1 -->
<g id="Node000001" class="node">
<title>Node1</title>
<g id="a_Node000001"><a xlink:title=" ">
<polygon fill="#999999" stroke="#666666" points="362,-132 177.25,-132 177.25,-112 362,-112 362,-132"/>
<text text-anchor="middle" x="269.62" y="-118.5" font-family="Helvetica,sans-Serif" font-size="10.00">src/roar/authorization/authorization.cpp</text>
</a>
</g>
</g>
<!-- Node2 -->
<g id="Node000002" class="node">
<title>Node2</title>
<g id="a_Node000002"><a xlink:href="authorization_8hpp.html" target="_top" xlink:title=" ">
<polygon fill="white" stroke="#666666" points="202.75,-76 34.5,-76 34.5,-56 202.75,-56 202.75,-76"/>
<text text-anchor="middle" x="118.62" y="-62.5" font-family="Helvetica,sans-Serif" font-size="10.00">roar/authorization/authorization.hpp</text>
</a>
</g>
</g>
<!-- Node1&#45;&gt;Node2 -->
<g id="edge1_Node000001_Node000002" class="edge">
<title>Node1&#45;&gt;Node2</title>
<g id="a_edge1_Node000001_Node000002"><a xlink:title=" ">
<path fill="none" stroke="#63b8ff" d="M243.32,-111.59C219,-102.9 182.63,-89.89 155.43,-80.16"/>
<polygon fill="#63b8ff" stroke="#63b8ff" points="156.73,-76.55 146.13,-76.48 154.37,-83.14 156.73,-76.55"/>
</a>
</g>
</g>
<!-- Node7 -->
<g id="Node000007" class="node">
<title>Node7</title>
<g id="a_Node000007"><a xlink:title=" ">
<polygon fill="#e0e0e0" stroke="#999999" points="318.88,-76 220.38,-76 220.38,-56 318.88,-56 318.88,-76"/>
<text text-anchor="middle" x="269.62" y="-62.5" font-family="Helvetica,sans-Serif" font-size="10.00">boost/describe.hpp</text>
</a>
</g>
</g>
<!-- Node1&#45;&gt;Node7 -->
<g id="edge6_Node000001_Node000007" class="edge">
<title>Node1&#45;&gt;Node7</title>
<g id="a_edge6_Node000001_Node000007"><a xlink:title=" ">
<path fill="none" stroke="#63b8ff" d="M269.62,-111.59C269.62,-104.86 269.62,-95.53 269.62,-87.15"/>
<polygon fill="#63b8ff" stroke="#63b8ff" points="273.13,-87.3 269.62,-77.3 266.13,-87.3 273.13,-87.3"/>
</a>
</g>
</g>
<!-- Node8 -->
<g id="Node000008" class="node">
<title>Node8</title>
<g id="a_Node000008"><a xlink:title=" ">
<polygon fill="#e0e0e0" stroke="#999999" points="422.12,-76 337.12,-76 337.12,-56 422.12,-56 422.12,-76"/>
<text text-anchor="middle" x="379.62" y="-62.5" font-family="Helvetica,sans-Serif" font-size="10.00">boost/mp11.hpp</text>
</a>
</g>
</g>
<!-- Node1&#45;&gt;Node8 -->
<g id="edge7_Node000001_Node000008" class="edge">
<title>Node1&#45;&gt;Node8</title>
<g id="a_edge7_Node000001_Node000008"><a xlink:title=" ">
<path fill="none" stroke="#63b8ff" d="M288.79,-111.59C305.87,-103.21 331.14,-90.8 350.69,-81.21"/>
<polygon fill="#63b8ff" stroke="#63b8ff" points="351.88,-84.03 359.31,-76.48 348.8,-77.74 351.88,-84.03"/>
</a>
</g>
</g>
<!-- Node3 -->
<g id="Node000003" class="node">
<title>Node3</title>
<g id="a_Node000003"><a xlink:title=" ">
<polygon fill="#e0e0e0" stroke="#999999" points="45.25,-20 0,-20 0,0 45.25,0 45.25,-20"/>
<text text-anchor="middle" x="22.62" y="-6.5" font-family="Helvetica,sans-Serif" font-size="10.00">variant</text>
</a>
</g>
</g>
<!-- Node2&#45;&gt;Node3 -->
<g id="edge2_Node000002_Node000003" class="edge">
<title>Node2&#45;&gt;Node3</title>
<g id="a_edge2_Node000002_Node000003"><a xlink:title=" ">
<path fill="none" stroke="#63b8ff" d="M101.9,-55.59C87.26,-47.36 65.75,-35.26 48.82,-25.74"/>
<polygon fill="#63b8ff" stroke="#63b8ff" points="50.91,-22.33 40.48,-20.48 47.48,-28.43 50.91,-22.33"/>
</a>
</g>
</g>
<!-- Node4 -->
<g id="Node000004" class="node">
<title>Node4</title>
<g id="a_Node000004"><a xlink:title=" ">
<polygon fill="#e0e0e0" stroke="#999999" points="103.62,-20 63.62,-20 63.62,0 103.62,0 103.62,-20"/>
<text text-anchor="middle" x="83.62" y="-6.5" font-family="Helvetica,sans-Serif" font-size="10.00">string</text>
</a>
</g>
</g>
<!-- Node2&#45;&gt;Node4 -->
<g id="edge3_Node000002_Node000004" class="edge">
<title>Node2&#45;&gt;Node4</title>
<g id="a_edge3_Node000002_Node000004"><a xlink:title=" ">
<path fill="none" stroke="#63b8ff" d="M112.53,-55.59C107.86,-48.39 101.28,-38.23 95.57,-29.43"/>
<polygon fill="#63b8ff" stroke="#63b8ff" points="98.03,-27.79 89.65,-21.3 92.15,-31.59 98.03,-27.79"/>
</a>
</g>
</g>
<!-- Node5 -->
<g id="Node000005" class="node">
<title>Node5</title>
<g id="a_Node000005"><a xlink:title=" ">
<polygon fill="#e0e0e0" stroke="#999999" points="187.38,-20 121.88,-20 121.88,0 187.38,0 187.38,-20"/>
<text text-anchor="middle" x="154.62" y="-6.5" font-family="Helvetica,sans-Serif" font-size="10.00">string_view</text>
</a>
</g>
</g>
<!-- Node2&#45;&gt;Node5 -->
<g id="edge4_Node000002_Node000005" class="edge">
<title>Node2&#45;&gt;Node5</title>
<g id="a_edge4_Node000002_Node000005"><a xlink:title=" ">
<path fill="none" stroke="#63b8ff" d="M124.9,-55.59C129.7,-48.39 136.47,-38.23 142.34,-29.43"/>
<polygon fill="#63b8ff" stroke="#63b8ff" points="145.79,-31.56 148.43,-21.3 139.97,-27.68 145.79,-31.56"/>
</a>
</g>
</g>
<!-- Node6 -->
<g id="Node000006" class="node">
<title>Node6</title>
<g id="a_Node000006"><a xlink:title=" ">
<polygon fill="#e0e0e0" stroke="#999999" points="331.38,-20 205.88,-20 205.88,0 331.38,0 331.38,-20"/>
<text text-anchor="middle" x="268.62" y="-6.5" font-family="Helvetica,sans-Serif" font-size="10.00">boost/describe/enum.hpp</text>
</a>
</g>
</g>
<!-- Node2&#45;&gt;Node6 -->
<g id="edge5_Node000002_Node000006" class="edge">
<title>Node2&#45;&gt;Node6</title>
<g id="a_edge5_Node000002_Node000006"><a xlink:title=" ">
<path fill="none" stroke="#63b8ff" d="M144.75,-55.59C168.91,-46.9 205.05,-33.89 232.07,-24.16"/>
<polygon fill="#63b8ff" stroke="#63b8ff" points="233.07,-27.16 241.29,-20.48 230.7,-20.57 233.07,-27.16"/>
</a>
</g>
</g>
</g>
</svg>
</svg>

<style type='text/css'>
<![CDATA[
[data-mouse-over-selected='false'] { opacity: 0.7; }
[data-mouse-over-selected='true']  { opacity: 1.0; }
]]>
</style>
<script type="application/ecmascript"><![CDATA[
document.addEventListener('DOMContentLoaded', (event) => {
  highlightEdges();
  highlightAdjacentNodes();
});
]]></script>
</svg>
