<?xml version="1.0" encoding="UTF-8" standalone="no"?>
<!DOCTYPE svg PUBLIC "-//W3C//DTD SVG 1.1//EN"
 "http://www.w3.org/Graphics/SVG/1.1/DTD/svg11.dtd">
<!-- Generated by graphviz version 8.1.0 (0)
 -->
<!-- Title: src/roar/utility/base64.cpp Pages: 1 -->
<svg width="559pt" height="140pt"
 viewBox="0.00 0.00 558.88 140.00" xmlns="http://www.w3.org/2000/svg" xmlns:xlink="http://www.w3.org/1999/xlink">
<g id="graph0" class="graph" transform="scale(1 1) rotate(0) translate(4 136)">
<title>src/roar/utility/base64.cpp</title>
<!-- Node1 -->
<g id="Node000001" class="node">
<title>Node1</title>
<g id="a_Node000001"><a xlink:title=" ">
<polygon fill="#999999" stroke="#666666" points="369.25,-132 240.75,-132 240.75,-112 369.25,-112 369.25,-132"/>
<text text-anchor="middle" x="305" y="-118.5" font-family="Helvetica,sans-Serif" font-size="10.00">src/roar/utility/base64.cpp</text>
</a>
</g>
</g>
<!-- Node2 -->
<g id="Node000002" class="node">
<title>Node2</title>
<g id="a_Node000002"><a xlink:href="base64_8hpp.html" target="_top" xlink:title=" ">
<polygon fill="white" stroke="#666666" points="112,-76 0,-76 0,-56 112,-56 112,-76"/>
<text text-anchor="middle" x="56" y="-62.5" font-family="Helvetica,sans-Serif" font-size="10.00">roar/utility/base64.hpp</text>
</a>
</g>
</g>
<!-- Node1&#45;&gt;Node2 -->
<g id="edge1_Node000001_Node000002" class="edge">
<title>Node1&#45;&gt;Node2</title>
<g id="a_edge1_Node000001_Node000002"><a xlink:title=" ">
<path fill="none" stroke="#63b8ff" d="M261.34,-111.53C219.25,-102.4 155.43,-88.56 110.13,-78.74"/>
<polygon fill="#63b8ff" stroke="#63b8ff" points="111.12,-75.16 100.61,-76.46 109.64,-82 111.12,-75.16"/>
</a>
</g>
</g>
<!-- Node5 -->
<g id="Node000005" class="node">
<title>Node5</title>
<g id="a_Node000005"><a xlink:title=" ">
<polygon fill="#e0e0e0" stroke="#999999" points="298.12,-76 129.88,-76 129.88,-56 298.12,-56 298.12,-76"/>
<text text-anchor="middle" x="214" y="-62.5" font-family="Helvetica,sans-Serif" font-size="10.00">boost/beast/core/detail/base64.hpp</text>
</a>
</g>
</g>
<!-- Node1&#45;&gt;Node5 -->
<g id="edge4_Node000001_Node000005" class="edge">
<title>Node1&#45;&gt;Node5</title>
<g id="a_edge4_Node000001_Node000005"><a xlink:title=" ">
<path fill="none" stroke="#63b8ff" d="M289.15,-111.59C275.4,-103.44 255.26,-91.48 239.29,-82"/>
<polygon fill="#63b8ff" stroke="#63b8ff" points="241.36,-78.57 230.97,-76.48 237.79,-84.59 241.36,-78.57"/>
</a>
</g>
</g>
<!-- Node6 -->
<g id="Node000006" class="node">
<title>Node6</title>
<g id="a_Node000006"><a xlink:title=" ">
<polygon fill="#e0e0e0" stroke="#999999" points="477.38,-76 316.62,-76 316.62,-56 477.38,-56 477.38,-76"/>
<text text-anchor="middle" x="397" y="-62.5" font-family="Helvetica,sans-Serif" font-size="10.00">boost/beast/core/detail/string.hpp</text>
</a>
</g>
</g>
<!-- Node1&#45;&gt;Node6 -->
<g id="edge5_Node000001_Node000006" class="edge">
<title>Node1&#45;&gt;Node6</title>
<g id="a_edge5_Node000001_Node000006"><a xlink:title=" ">
<path fill="none" stroke="#63b8ff" d="M321.03,-111.59C334.92,-103.44 355.29,-91.48 371.44,-82"/>
<polygon fill="#63b8ff" stroke="#63b8ff" points="373,-84.56 379.85,-76.48 369.45,-78.52 373,-84.56"/>
</a>
</g>
</g>
<!-- Node7 -->
<g id="Node000007" class="node">
<title>Node7</title>
<g id="a_Node000007"><a xlink:title=" ">
<polygon fill="#e0e0e0" stroke="#999999" points="550.88,-76 495.12,-76 495.12,-56 550.88,-56 550.88,-76"/>
<text text-anchor="middle" x="523" y="-62.5" font-family="Helvetica,sans-Serif" font-size="10.00">algorithm</text>
</a>
</g>
</g>
<!-- Node1&#45;&gt;Node7 -->
<g id="edge6_Node000001_Node000007" class="edge">
<title>Node1&#45;&gt;Node7</title>
<g id="a_edge6_Node000001_Node000007"><a xlink:title=" ">
<path fill="none" stroke="#63b8ff" d="M343.22,-111.53C382.85,-101.72 444.46,-86.46 484.27,-76.59"/>
<polygon fill="#63b8ff" stroke="#63b8ff" points="485.02,-79.77 493.88,-73.96 483.33,-72.97 485.02,-79.77"/>
</a>
</g>
</g>
<!-- Node3 -->
<g id="Node000003" class="node">
<title>Node3</title>
<g id="a_Node000003"><a xlink:title=" ">
<polygon fill="#e0e0e0" stroke="#999999" points="46,-20 6,-20 6,0 46,0 46,-20"/>
<text text-anchor="middle" x="26" y="-6.5" font-family="Helvetica,sans-Serif" font-size="10.00">string</text>
</a>
</g>
</g>
<!-- Node2&#45;&gt;Node3 -->
<g id="edge2_Node000002_Node000003" class="edge">
<title>Node2&#45;&gt;Node3</title>
<g id="a_edge2_Node000002_Node000003"><a xlink:title=" ">
<path fill="none" stroke="#63b8ff" d="M50.77,-55.59C46.82,-48.47 41.25,-38.45 36.4,-29.72"/>
<polygon fill="#63b8ff" stroke="#63b8ff" points="39.08,-28.34 31.17,-21.3 32.96,-31.74 39.08,-28.34"/>
</a>
</g>
</g>
<!-- Node4 -->
<g id="Node000004" class="node">
<title>Node4</title>
<g id="a_Node000004"><a xlink:title=" ">
<polygon fill="#e0e0e0" stroke="#999999" points="107.5,-20 64.5,-20 64.5,0 107.5,0 107.5,-20"/>
<text text-anchor="middle" x="86" y="-6.5" font-family="Helvetica,sans-Serif" font-size="10.00">vector</text>
</a>
</g>
</g>
<!-- Node2&#45;&gt;Node4 -->
<g id="edge3_Node000002_Node000004" class="edge">
<title>Node2&#45;&gt;Node4</title>
<g id="a_edge3_Node000002_Node000004"><a xlink:title=" ">
<path fill="none" stroke="#63b8ff" d="M61.23,-55.59C65.18,-48.47 70.75,-38.45 75.6,-29.72"/>
<polygon fill="#63b8ff" stroke="#63b8ff" points="79.04,-31.74 80.83,-21.3 72.92,-28.34 79.04,-31.74"/>
</a>
</g>
</g>
</g>
</svg>
