<?xml version="1.0" encoding="UTF-8" standalone="no"?>
<!DOCTYPE svg PUBLIC "-//W3C//DTD SVG 1.1//EN"
 "http://www.w3.org/Graphics/SVG/1.1/DTD/svg11.dtd">
<!-- Generated by graphviz version 8.1.0 (0)
 -->
<!-- Title: src/roar/authorization/basic_auth.cpp Pages: 1 -->
<svg width="313pt" height="140pt"
 viewBox="0.00 0.00 312.88 140.00" xmlns="http://www.w3.org/2000/svg" xmlns:xlink="http://www.w3.org/1999/xlink">

<svg id="main" version="1.1" xmlns="http://www.w3.org/2000/svg" xmlns:xlink="http://www.w3.org/1999/xlink" xml:space="preserve" onload="init(evt)">
<style type="text/css"><![CDATA[
.node, .edge {opacity: 0.7;}
.node.selected, .edge.selected {opacity: 1;}
.edge:hover path { stroke: red; }
.edge:hover polygon { stroke: red; fill: red; }
]]></style>
<script type="application/ecmascript" xlink:href="svg.min.js"/>
<svg id="graph" class="graph">
<g id="graph0" class="graph" transform="scale(1 1) rotate(0) translate(4 136)">
<title>src/roar/authorization/basic_auth.cpp</title>
<!-- Node1 -->
<g id="Node000001" class="node">
<title>Node1</title>
<g id="a_Node000001"><a xlink:title=" ">
<polygon fill="#999999" stroke="#666666" points="260.12,-132 83.62,-132 83.62,-112 260.12,-112 260.12,-132"/>
<text text-anchor="middle" x="171.88" y="-118.5" font-family="Helvetica,sans-Serif" font-size="10.00">src/roar/authorization/basic_auth.cpp</text>
</a>
</g>
</g>
<!-- Node2 -->
<g id="Node000002" class="node">
<title>Node2</title>
<g id="a_Node000002"><a xlink:href="basic__auth_8hpp.html" target="_top" xlink:title=" ">
<polygon fill="white" stroke="#666666" points="174.88,-76 14.88,-76 14.88,-56 174.88,-56 174.88,-76"/>
<text text-anchor="middle" x="94.88" y="-62.5" font-family="Helvetica,sans-Serif" font-size="10.00">roar/authorization/basic_auth.hpp</text>
</a>
</g>
</g>
<!-- Node1&#45;&gt;Node2 -->
<g id="edge1_Node000001_Node000002" class="edge">
<title>Node1&#45;&gt;Node2</title>
<g id="a_edge1_Node000001_Node000002"><a xlink:title=" ">
<path fill="none" stroke="#63b8ff" d="M158.46,-111.59C147.05,-103.59 130.43,-91.93 117.04,-82.54"/>
<polygon fill="#63b8ff" stroke="#63b8ff" points="119.59,-79.36 109.39,-76.48 115.57,-85.09 119.59,-79.36"/>
</a>
</g>
</g>
<!-- Node6 -->
<g id="Node000006" class="node">
<title>Node6</title>
<g id="a_Node000006"><a xlink:href="base64_8hpp.html" target="_top" xlink:title=" ">
<polygon fill="white" stroke="#666666" points="304.88,-76 192.88,-76 192.88,-56 304.88,-56 304.88,-76"/>
<text text-anchor="middle" x="248.88" y="-62.5" font-family="Helvetica,sans-Serif" font-size="10.00">roar/utility/base64.hpp</text>
</a>
</g>
</g>
<!-- Node1&#45;&gt;Node6 -->
<g id="edge5_Node000001_Node000006" class="edge">
<title>Node1&#45;&gt;Node6</title>
<g id="a_edge5_Node000001_Node000006"><a xlink:title=" ">
<path fill="none" stroke="#63b8ff" d="M185.29,-111.59C196.7,-103.59 213.32,-91.93 226.71,-82.54"/>
<polygon fill="#63b8ff" stroke="#63b8ff" points="228.18,-85.09 234.36,-76.48 224.16,-79.36 228.18,-85.09"/>
</a>
</g>
</g>
<!-- Node3 -->
<g id="Node000003" class="node">
<title>Node3</title>
<g id="a_Node000003"><a xlink:title=" ">
<polygon fill="#e0e0e0" stroke="#999999" points="49.75,-20 0,-20 0,0 49.75,0 49.75,-20"/>
<text text-anchor="middle" x="24.88" y="-6.5" font-family="Helvetica,sans-Serif" font-size="10.00">optional</text>
</a>
</g>
</g>
<!-- Node2&#45;&gt;Node3 -->
<g id="edge2_Node000002_Node000003" class="edge">
<title>Node2&#45;&gt;Node3</title>
<g id="a_edge2_Node000002_Node000003"><a xlink:title=" ">
<path fill="none" stroke="#63b8ff" d="M82.68,-55.59C72.44,-47.7 57.59,-36.24 45.51,-26.92"/>
<polygon fill="#63b8ff" stroke="#63b8ff" points="47.98,-23.64 37.93,-20.3 43.71,-29.18 47.98,-23.64"/>
</a>
</g>
</g>
<!-- Node4 -->
<g id="Node000004" class="node">
<title>Node4</title>
<g id="a_Node000004"><a xlink:title=" ">
<polygon fill="#e0e0e0" stroke="#999999" points="202.88,-20 162.88,-20 162.88,0 202.88,0 202.88,-20"/>
<text text-anchor="middle" x="182.88" y="-6.5" font-family="Helvetica,sans-Serif" font-size="10.00">string</text>
</a>
</g>
</g>
<!-- Node2&#45;&gt;Node4 -->
<g id="edge3_Node000002_Node000004" class="edge">
<title>Node2&#45;&gt;Node4</title>
<g id="a_edge3_Node000002_Node000004"><a xlink:title=" ">
<path fill="none" stroke="#63b8ff" d="M110.2,-55.59C123.5,-47.44 142.98,-35.48 158.42,-26"/>
<polygon fill="#63b8ff" stroke="#63b8ff" points="159.73,-28.69 166.43,-20.48 156.07,-22.73 159.73,-28.69"/>
</a>
</g>
</g>
<!-- Node5 -->
<g id="Node000005" class="node">
<title>Node5</title>
<g id="a_Node000005"><a xlink:title=" ">
<polygon fill="#e0e0e0" stroke="#999999" points="133.62,-20 68.12,-20 68.12,0 133.62,0 133.62,-20"/>
<text text-anchor="middle" x="100.88" y="-6.5" font-family="Helvetica,sans-Serif" font-size="10.00">string_view</text>
</a>
</g>
</g>
<!-- Node2&#45;&gt;Node5 -->
<g id="edge4_Node000002_Node000005" class="edge">
<title>Node2&#45;&gt;Node5</title>
<g id="a_edge4_Node000002_Node000005"><a xlink:title=" ">
<path fill="none" stroke="#63b8ff" d="M95.92,-55.59C96.67,-48.86 97.7,-39.53 98.64,-31.15"/>
<polygon fill="#63b8ff" stroke="#63b8ff" points="102.22,-31.62 99.84,-21.3 95.26,-30.85 102.22,-31.62"/>
</a>
</g>
</g>
<!-- Node6&#45;&gt;Node4 -->
<g id="edge6_Node000006_Node000004" class="edge">
<title>Node6&#45;&gt;Node4</title>
<g id="a_edge6_Node000006_Node000004"><a xlink:title=" ">
<path fill="none" stroke="#63b8ff" d="M237.38,-55.59C227.82,-47.77 214,-36.46 202.67,-27.19"/>
<polygon fill="#63b8ff" stroke="#63b8ff" points="205.2,-23.92 195.24,-20.3 200.76,-29.34 205.2,-23.92"/>
</a>
</g>
</g>
<!-- Node7 -->
<g id="Node000007" class="node">
<title>Node7</title>
<g id="a_Node000007"><a xlink:title=" ">
<polygon fill="#e0e0e0" stroke="#999999" points="270.38,-20 227.38,-20 227.38,0 270.38,0 270.38,-20"/>
<text text-anchor="middle" x="248.88" y="-6.5" font-family="Helvetica,sans-Serif" font-size="10.00">vector</text>
</a>
</g>
</g>
<!-- Node6&#45;&gt;Node7 -->
<g id="edge7_Node000006_Node000007" class="edge">
<title>Node6&#45;&gt;Node7</title>
<g id="a_edge7_Node000006_Node000007"><a xlink:title=" ">
<path fill="none" stroke="#63b8ff" d="M248.88,-55.59C248.88,-48.86 248.88,-39.53 248.88,-31.15"/>
<polygon fill="#63b8ff" stroke="#63b8ff" points="252.38,-31.3 248.88,-21.3 245.38,-31.3 252.38,-31.3"/>
</a>
</g>
</g>
</g>
</svg>
</svg>

<style type='text/css'>
<![CDATA[
[data-mouse-over-selected='false'] { opacity: 0.7; }
[data-mouse-over-selected='true']  { opacity: 1.0; }
]]>
</style>
<script type="application/ecmascript"><![CDATA[
document.addEventListener('DOMContentLoaded', (event) => {
  highlightEdges();
  highlightAdjacentNodes();
});
]]></script>
</svg>
