<?xml version="1.0" encoding="UTF-8" standalone="no"?>
<!DOCTYPE svg PUBLIC "-//W3C//DTD SVG 1.1//EN"
 "http://www.w3.org/Graphics/SVG/1.1/DTD/svg11.dtd">
<!-- Generated by graphviz version 8.1.0 (0)
 -->
<!-- Title: include/roar/detail/bytes_to_human_readable.hpp Pages: 1 -->
<svg width="241pt" height="84pt"
 viewBox="0.00 0.00 240.62 84.00" xmlns="http://www.w3.org/2000/svg" xmlns:xlink="http://www.w3.org/1999/xlink">
<g id="graph0" class="graph" transform="scale(1 1) rotate(0) translate(4 80)">
<title>include/roar/detail/bytes_to_human_readable.hpp</title>
<!-- Node1 -->
<g id="Node000001" class="node">
<title>Node1</title>
<g id="a_Node000001"><a xlink:title=" ">
<polygon fill="#999999" stroke="#666666" points="228.25,-76 0,-76 0,-56 228.25,-56 228.25,-76"/>
<text text-anchor="middle" x="114.13" y="-62.5" font-family="Helvetica,sans-Serif" font-size="10.00">include/roar/detail/bytes_to_human_readable.hpp</text>
</a>
</g>
</g>
<!-- Node2 -->
<g id="Node000002" class="node">
<title>Node2</title>
<g id="a_Node000002"><a xlink:title=" ">
<polygon fill="#e0e0e0" stroke="#999999" points="41.13,-20 1.13,-20 1.13,0 41.13,0 41.13,-20"/>
<text text-anchor="middle" x="21.13" y="-6.5" font-family="Helvetica,sans-Serif" font-size="10.00">string</text>
</a>
</g>
</g>
<!-- Node1&#45;&gt;Node2 -->
<g id="edge1_Node000001_Node000002" class="edge">
<title>Node1&#45;&gt;Node2</title>
<g id="a_edge1_Node000001_Node000002"><a xlink:title=" ">
<path fill="none" stroke="#63b8ff" d="M97.93,-55.59C83.74,-47.36 62.9,-35.26 46.51,-25.74"/>
<polygon fill="#63b8ff" stroke="#63b8ff" points="48.86,-22.47 38.45,-20.48 45.34,-28.53 48.86,-22.47"/>
</a>
</g>
</g>
<!-- Node3 -->
<g id="Node000003" class="node">
<title>Node3</title>
<g id="a_Node000003"><a xlink:title=" ">
<polygon fill="#e0e0e0" stroke="#999999" points="104.75,-20 59.5,-20 59.5,0 104.75,0 104.75,-20"/>
<text text-anchor="middle" x="82.13" y="-6.5" font-family="Helvetica,sans-Serif" font-size="10.00">cstdint</text>
</a>
</g>
</g>
<!-- Node1&#45;&gt;Node3 -->
<g id="edge2_Node000001_Node000003" class="edge">
<title>Node1&#45;&gt;Node3</title>
<g id="a_edge2_Node000001_Node000003"><a xlink:title=" ">
<path fill="none" stroke="#63b8ff" d="M108.55,-55.59C104.33,-48.47 98.39,-38.45 93.22,-29.72"/>
<polygon fill="#63b8ff" stroke="#63b8ff" points="95.74,-28.12 87.64,-21.3 89.72,-31.69 95.74,-28.12"/>
</a>
</g>
</g>
<!-- Node4 -->
<g id="Node000004" class="node">
<title>Node4</title>
<g id="a_Node000004"><a xlink:title=" ">
<polygon fill="#e0e0e0" stroke="#999999" points="171.25,-20 123,-20 123,0 171.25,0 171.25,-20"/>
<text text-anchor="middle" x="147.12" y="-6.5" font-family="Helvetica,sans-Serif" font-size="10.00">cstddef</text>
</a>
</g>
</g>
<!-- Node1&#45;&gt;Node4 -->
<g id="edge3_Node000001_Node000004" class="edge">
<title>Node1&#45;&gt;Node4</title>
<g id="a_edge3_Node000001_Node000004"><a xlink:title=" ">
<path fill="none" stroke="#63b8ff" d="M119.87,-55.59C124.27,-48.39 130.48,-38.23 135.86,-29.43"/>
<polygon fill="#63b8ff" stroke="#63b8ff" points="139.21,-31.66 141.44,-21.3 133.24,-28.01 139.21,-31.66"/>
</a>
</g>
</g>
<!-- Node5 -->
<g id="Node000005" class="node">
<title>Node5</title>
<g id="a_Node000005"><a xlink:title=" ">
<polygon fill="#e0e0e0" stroke="#999999" points="232.62,-20 189.62,-20 189.62,0 232.62,0 232.62,-20"/>
<text text-anchor="middle" x="211.12" y="-6.5" font-family="Helvetica,sans-Serif" font-size="10.00">cmath</text>
</a>
</g>
</g>
<!-- Node1&#45;&gt;Node5 -->
<g id="edge4_Node000001_Node000005" class="edge">
<title>Node1&#45;&gt;Node5</title>
<g id="a_edge4_Node000001_Node000005"><a xlink:title=" ">
<path fill="none" stroke="#63b8ff" d="M131.02,-55.59C145.81,-47.36 167.55,-35.26 184.65,-25.74"/>
<polygon fill="#63b8ff" stroke="#63b8ff" points="186.06,-28.4 193.1,-20.48 182.66,-22.29 186.06,-28.4"/>
</a>
</g>
</g>
</g>
</svg>
