<?xml version="1.0" encoding="UTF-8" standalone="no"?>
<!DOCTYPE svg PUBLIC "-//W3C//DTD SVG 1.1//EN"
 "http://www.w3.org/Graphics/SVG/1.1/DTD/svg11.dtd">
<!-- Generated by graphviz version 2.44.1 (20211215.1903)
 -->
<!-- Title: Roar::Curl::FileSource Pages: 1 -->
<svg width="308pt" height="281pt"
 viewBox="0.00 0.00 308.00 281.00" xmlns="http://www.w3.org/2000/svg" xmlns:xlink="http://www.w3.org/1999/xlink">
<g id="graph0" class="graph" transform="scale(1 1) rotate(0) translate(4 277)">
<title>Roar::Curl::FileSource</title>
<!-- Node1 -->
<g id="node1" class="node">
<title>Node1</title>
<g id="a_node1"><a xlink:title=" ">
<polygon fill="#bfbfbf" stroke="black" points="85,-0.5 85,-79.5 199,-79.5 199,-0.5 85,-0.5"/>
<text text-anchor="middle" x="142" y="-67.5" font-family="Helvetica,sans-Serif" font-size="10.00">Roar::Curl::FileSource</text>
<polyline fill="none" stroke="black" points="85,-60.5 199,-60.5 "/>
<text text-anchor="middle" x="142" y="-48.5" font-family="Helvetica,sans-Serif" font-size="10.00"> </text>
<polyline fill="none" stroke="black" points="85,-41.5 199,-41.5 "/>
<text text-anchor="start" x="93" y="-29.5" font-family="Helvetica,sans-Serif" font-size="10.00">+ FileSource()</text>
<text text-anchor="start" x="93" y="-18.5" font-family="Helvetica,sans-Serif" font-size="10.00">+ fetch()</text>
<text text-anchor="start" x="93" y="-7.5" font-family="Helvetica,sans-Serif" font-size="10.00">+ size()</text>
</a>
</g>
</g>
<!-- Node2 -->
<g id="node2" class="node">
<title>Node2</title>
<g id="a_node2"><a xlink:href="classRoar_1_1Curl_1_1Source.html" target="_top" xlink:title=" ">
<polygon fill="none" stroke="black" points="0,-127.5 0,-272.5 98,-272.5 98,-127.5 0,-127.5"/>
<text text-anchor="middle" x="49" y="-260.5" font-family="Helvetica,sans-Serif" font-size="10.00">Roar::Curl::Source</text>
<polyline fill="none" stroke="black" points="0,-253.5 98,-253.5 "/>
<text text-anchor="middle" x="49" y="-241.5" font-family="Helvetica,sans-Serif" font-size="10.00"> </text>
<polyline fill="none" stroke="black" points="0,-234.5 98,-234.5 "/>
<text text-anchor="start" x="8" y="-222.5" font-family="Helvetica,sans-Serif" font-size="10.00">+ fetch()</text>
<text text-anchor="start" x="8" y="-211.5" font-family="Helvetica,sans-Serif" font-size="10.00">+ size()</text>
<text text-anchor="start" x="8" y="-200.5" font-family="Helvetica,sans-Serif" font-size="10.00">+ isChunked()</text>
<text text-anchor="start" x="8" y="-189.5" font-family="Helvetica,sans-Serif" font-size="10.00">+ Source()</text>
<text text-anchor="start" x="8" y="-178.5" font-family="Helvetica,sans-Serif" font-size="10.00">+ ~Source()</text>
<text text-anchor="start" x="8" y="-167.5" font-family="Helvetica,sans-Serif" font-size="10.00">+ Source()</text>
<text text-anchor="start" x="8" y="-156.5" font-family="Helvetica,sans-Serif" font-size="10.00">+ Source()</text>
<text text-anchor="start" x="8" y="-145.5" font-family="Helvetica,sans-Serif" font-size="10.00">+ operator=()</text>
<text text-anchor="start" x="8" y="-134.5" font-family="Helvetica,sans-Serif" font-size="10.00">+ operator=()</text>
</a>
</g>
</g>
<!-- Node2&#45;&gt;Node1 -->
<g id="edge1" class="edge">
<title>Node2&#45;&gt;Node1</title>
<path fill="none" stroke="midnightblue" d="M96.39,-118.48C104.39,-104.9 112.35,-91.38 119.32,-79.52"/>
<polygon fill="none" stroke="midnightblue" points="93.2,-117 91.15,-127.4 99.24,-120.55 93.2,-117"/>
</g>
<!-- Node3 -->
<g id="node3" class="node">
<title>Node3</title>
<g id="a_node3"><a xlink:title=" ">
<polygon fill="none" stroke="black" points="116,-171.5 116,-228.5 168,-228.5 168,-171.5 116,-171.5"/>
<text text-anchor="middle" x="142" y="-216.5" font-family="Helvetica,sans-Serif" font-size="10.00">ifstream</text>
<polyline fill="none" stroke="black" points="116,-209.5 168,-209.5 "/>
<text text-anchor="middle" x="142" y="-197.5" font-family="Helvetica,sans-Serif" font-size="10.00"> </text>
<polyline fill="none" stroke="black" points="116,-190.5 168,-190.5 "/>
<text text-anchor="middle" x="142" y="-178.5" font-family="Helvetica,sans-Serif" font-size="10.00"> </text>
</a>
</g>
</g>
<!-- Node3&#45;&gt;Node1 -->
<g id="edge2" class="edge">
<title>Node3&#45;&gt;Node1</title>
<path fill="none" stroke="#404040" d="M142,-171.48C142,-149.57 142,-118.31 142,-91.88"/>
<polygon fill="none" stroke="#404040" points="142,-91.75 138,-85.75 142,-79.75 146,-85.75 142,-91.75"/>
<text text-anchor="middle" x="161.5" y="-101" font-family="Helvetica,sans-Serif" font-size="10.00"> &#45;reader_</text>
</g>
<!-- Node4 -->
<g id="node4" class="node">
<title>Node4</title>
<g id="a_node4"><a xlink:title=" ">
<polygon fill="none" stroke="black" points="186,-171.5 186,-228.5 300,-228.5 300,-171.5 186,-171.5"/>
<text text-anchor="middle" x="243" y="-216.5" font-family="Helvetica,sans-Serif" font-size="10.00">optional&lt; std::size_t &gt;</text>
<polyline fill="none" stroke="black" points="186,-209.5 300,-209.5 "/>
<text text-anchor="middle" x="243" y="-197.5" font-family="Helvetica,sans-Serif" font-size="10.00"> </text>
<polyline fill="none" stroke="black" points="186,-190.5 300,-190.5 "/>
<text text-anchor="middle" x="243" y="-178.5" font-family="Helvetica,sans-Serif" font-size="10.00"> </text>
</a>
</g>
</g>
<!-- Node4&#45;&gt;Node1 -->
<g id="edge3" class="edge">
<title>Node4&#45;&gt;Node1</title>
<path fill="none" stroke="#404040" d="M228.39,-171.44C217.17,-150.81 200.94,-122.13 185,-98 183.2,-95.28 181.32,-92.52 179.4,-89.75"/>
<polygon fill="none" stroke="#404040" points="179.25,-89.54 172.5,-86.99 172.27,-79.78 179.01,-82.34 179.25,-89.54"/>
<text text-anchor="middle" x="237" y="-101" font-family="Helvetica,sans-Serif" font-size="10.00"> &#45;memoizedFileSize_</text>
</g>
</g>
</svg>
