<?xml version="1.0" encoding="UTF-8" standalone="no"?>
<!DOCTYPE svg PUBLIC "-//W3C//DTD SVG 1.1//EN"
 "http://www.w3.org/Graphics/SVG/1.1/DTD/svg11.dtd">
<!-- Generated by graphviz version 2.44.1 (20211215.1903)
 -->
<!-- Title: Roar::Route Pages: 1 -->
<svg width="217pt" height="204pt"
 viewBox="0.00 0.00 217.00 204.00" xmlns="http://www.w3.org/2000/svg" xmlns:xlink="http://www.w3.org/1999/xlink">
<g id="graph0" class="graph" transform="scale(1 1) rotate(0) translate(4 200)">
<title>Roar::Route</title>
<!-- Node1 -->
<g id="node1" class="node">
<title>Node1</title>
<g id="a_node1"><a xlink:title="A route represents the mapping of a verb+path to a user provided function.">
<polygon fill="#bfbfbf" stroke="black" points="0,-0.5 0,-90.5 209,-90.5 209,-0.5 0,-0.5"/>
<text text-anchor="middle" x="104.5" y="-78.5" font-family="Helvetica,sans-Serif" font-size="10.00">Roar::Route</text>
<polyline fill="none" stroke="black" points="0,-71.5 209,-71.5 "/>
<text text-anchor="middle" x="104.5" y="-59.5" font-family="Helvetica,sans-Serif" font-size="10.00"> </text>
<polyline fill="none" stroke="black" points="0,-52.5 209,-52.5 "/>
<text text-anchor="start" x="8" y="-40.5" font-family="Helvetica,sans-Serif" font-size="10.00">+ Route()</text>
<text text-anchor="start" x="8" y="-29.5" font-family="Helvetica,sans-Serif" font-size="10.00">+ ROAR_PIMPL_SPECIAL_FUNCTIONS()</text>
<text text-anchor="start" x="8" y="-18.5" font-family="Helvetica,sans-Serif" font-size="10.00">+ operator()()</text>
<text text-anchor="start" x="8" y="-7.5" font-family="Helvetica,sans-Serif" font-size="10.00">+ matches()</text>
</a>
</g>
</g>
<!-- Node2 -->
<g id="node2" class="node">
<title>Node2</title>
<g id="a_node2"><a xlink:title=" ">
<polygon fill="none" stroke="black" points="1.5,-138.5 1.5,-195.5 207.5,-195.5 207.5,-138.5 1.5,-138.5"/>
<text text-anchor="middle" x="104.5" y="-183.5" font-family="Helvetica,sans-Serif" font-size="10.00">unique_ptr&lt; Roar::Route::Implementation &gt;</text>
<polyline fill="none" stroke="black" points="1.5,-176.5 207.5,-176.5 "/>
<text text-anchor="middle" x="104.5" y="-164.5" font-family="Helvetica,sans-Serif" font-size="10.00"> </text>
<polyline fill="none" stroke="black" points="1.5,-157.5 207.5,-157.5 "/>
<text text-anchor="middle" x="104.5" y="-145.5" font-family="Helvetica,sans-Serif" font-size="10.00"> </text>
</a>
</g>
</g>
<!-- Node2&#45;&gt;Node1 -->
<g id="edge1" class="edge">
<title>Node2&#45;&gt;Node1</title>
<path fill="none" stroke="#404040" d="M104.5,-138.28C104.5,-127.73 104.5,-115.29 104.5,-103.03"/>
<polygon fill="none" stroke="#404040" points="104.5,-102.91 100.5,-96.91 104.5,-90.91 108.5,-96.91 104.5,-102.91"/>
<text text-anchor="middle" x="119.5" y="-112" font-family="Helvetica,sans-Serif" font-size="10.00"> &#45;impl_</text>
</g>
</g>
</svg>
