<?xml version="1.0" encoding="UTF-8" standalone="no"?>
<!DOCTYPE svg PUBLIC "-//W3C//DTD SVG 1.1//EN"
 "http://www.w3.org/Graphics/SVG/1.1/DTD/svg11.dtd">
<!-- Generated by graphviz version 2.44.1 (20211215.1903)
 -->
<!-- Title: Roar::Session::SendIntermediate&lt; BodyT &gt; Pages: 1 -->
<!--zoomable 303 -->
<svg id="main" version="1.1" xmlns="http://www.w3.org/2000/svg" xmlns:xlink="http://www.w3.org/1999/xlink" xml:space="preserve" onload="init(evt)">
<style type="text/css"><![CDATA[
.edge:hover path { stroke: red; }
.edge:hover polygon { stroke: red; fill: red; }
]]></style>
<script type="text/javascript"><![CDATA[
var edges = document.getElementsByTagName('g');
if (edges && edges.length) {
  for (var i=0;i<edges.length;i++) {
    if (edges[i].id.substr(0,4)=='edge') {
      edges[i].setAttribute('class','edge');
    }
  }
}
]]></script>
        <defs>
                <circle id="rim" cx="0" cy="0" r="7"/>
                <circle id="rim2" cx="0" cy="0" r="3.5"/>
                <g id="zoomPlus">
                        <use xlink:href="#rim" fill="#404040">
                                <set attributeName="fill" to="#808080" begin="zoomplus.mouseover" end="zoomplus.mouseout"/>
                        </use>
                        <path d="M-4,0h8M0,-4v8" fill="none" stroke="white" stroke-width="1.5" pointer-events="none"/>
                </g>
                <g id="zoomMin">
                        <use xlink:href="#rim" fill="#404040">
                                <set attributeName="fill" to="#808080" begin="zoomminus.mouseover" end="zoomminus.mouseout"/>
                        </use>
                        <path d="M-4,0h8" fill="none" stroke="white" stroke-width="1.5" pointer-events="none"/>
                </g>
                <g id="dirArrow">
                        <path fill="none" stroke="white" stroke-width="1.5" d="M0,-3.0v7 M-2.5,-0.5L0,-3.0L2.5,-0.5"/>
                </g>
               <g id="resetDef">
                       <use xlink:href="#rim2" fill="#404040">
                               <set attributeName="fill" to="#808080" begin="reset.mouseover" end="reset.mouseout"/>
                       </use>
               </g>
        </defs>

<script type="text/javascript">
var viewWidth = 1398;
var viewHeight = 303;
var sectionId = 'dynsection-0';
</script>
<script xlink:href="svgpan.js"/>
<svg id="graph" class="graph">
<g id="viewport">
<title>Roar::Session::SendIntermediate&lt; BodyT &gt;</title>
<!-- Node1 -->
<g id="node1" class="node">
<title>Node1</title>
<g id="a_node1"><a xlink:title="Helper class to prepare and send a response.">
<polygon fill="#bfbfbf" stroke="black" points="555,-0.5 555,-189.5 763,-189.5 763,-0.5 555,-0.5"/>
<text text-anchor="middle" x="659" y="-177.5" font-family="Helvetica,sans-Serif" font-size="10.00">Roar::Session::SendIntermediate&lt; BodyT &gt;</text>
<polyline fill="none" stroke="black" points="555,-170.5 763,-170.5 "/>
<text text-anchor="middle" x="659" y="-158.5" font-family="Helvetica,sans-Serif" font-size="10.00"> </text>
<polyline fill="none" stroke="black" points="555,-151.5 763,-151.5 "/>
<text text-anchor="start" x="563" y="-139.5" font-family="Helvetica,sans-Serif" font-size="10.00">+ SendIntermediate()</text>
<text text-anchor="start" x="563" y="-128.5" font-family="Helvetica,sans-Serif" font-size="10.00">+ SendIntermediate()</text>
<text text-anchor="start" x="563" y="-117.5" font-family="Helvetica,sans-Serif" font-size="10.00">+ SendIntermediate()</text>
<text text-anchor="start" x="563" y="-106.5" font-family="Helvetica,sans-Serif" font-size="10.00">+ SendIntermediate()</text>
<text text-anchor="start" x="563" y="-95.5" font-family="Helvetica,sans-Serif" font-size="10.00">+ SendIntermediate()</text>
<text text-anchor="start" x="563" y="-84.5" font-family="Helvetica,sans-Serif" font-size="10.00">+ operator=()</text>
<text text-anchor="start" x="563" y="-73.5" font-family="Helvetica,sans-Serif" font-size="10.00">+ operator=()</text>
<text text-anchor="start" x="563" y="-62.5" font-family="Helvetica,sans-Serif" font-size="10.00">+ status()</text>
<text text-anchor="start" x="563" y="-51.5" font-family="Helvetica,sans-Serif" font-size="10.00">+ body()</text>
<text text-anchor="start" x="563" y="-40.5" font-family="Helvetica,sans-Serif" font-size="10.00">+ body()</text>
<text text-anchor="start" x="563" y="-29.5" font-family="Helvetica,sans-Serif" font-size="10.00">and 11 more...</text>
<text text-anchor="start" x="563" y="-18.5" font-family="Helvetica,sans-Serif" font-size="10.00">&#45; writeHeader()</text>
<text text-anchor="start" x="563" y="-7.5" font-family="Helvetica,sans-Serif" font-size="10.00">&#45; writeChunk()</text>
</a>
</g>
</g>
<!-- Node2 -->
<g id="node2" class="node">
<title>Node2</title>
<g id="a_node2"><a xlink:title=" ">
<polygon fill="none" stroke="black" points="0,-237.5 0,-294.5 286,-294.5 286,-237.5 0,-237.5"/>
<text text-anchor="middle" x="143" y="-282.5" font-family="Helvetica,sans-Serif" font-size="10.00">std::enable_shared_from_this&lt; SendIntermediate&lt; BodyT &gt; &gt;</text>
<polyline fill="none" stroke="black" points="0,-275.5 286,-275.5 "/>
<text text-anchor="middle" x="143" y="-263.5" font-family="Helvetica,sans-Serif" font-size="10.00"> </text>
<polyline fill="none" stroke="black" points="0,-256.5 286,-256.5 "/>
<text text-anchor="middle" x="143" y="-244.5" font-family="Helvetica,sans-Serif" font-size="10.00"> </text>
</a>
</g>
</g>
<!-- Node2&#45;&gt;Node1 -->
<g id="edge1" class="edge">
<title>Node2&#45;&gt;Node1</title>
<path fill="none" stroke="midnightblue" d="M236.68,-234.32C326.5,-204.9 461.81,-160.58 554.94,-130.08"/>
<polygon fill="none" stroke="midnightblue" points="235.47,-231.03 227.05,-237.47 237.65,-237.68 235.47,-231.03"/>
</g>
<!-- Node3 -->
<g id="node3" class="node">
<title>Node3</title>
<g id="a_node3"><a xlink:title=" ">
<polygon fill="none" stroke="black" points="304.5,-237.5 304.5,-294.5 447.5,-294.5 447.5,-237.5 304.5,-237.5"/>
<text text-anchor="middle" x="376" y="-282.5" font-family="Helvetica,sans-Serif" font-size="10.00">shared_ptr&lt; Roar::Session &gt;</text>
<polyline fill="none" stroke="black" points="304.5,-275.5 447.5,-275.5 "/>
<text text-anchor="middle" x="376" y="-263.5" font-family="Helvetica,sans-Serif" font-size="10.00"> </text>
<polyline fill="none" stroke="black" points="304.5,-256.5 447.5,-256.5 "/>
<text text-anchor="middle" x="376" y="-244.5" font-family="Helvetica,sans-Serif" font-size="10.00"> </text>
</a>
</g>
</g>
<!-- Node3&#45;&gt;Node1 -->
<g id="edge2" class="edge">
<title>Node3&#45;&gt;Node1</title>
<path fill="none" stroke="#404040" d="M422.1,-237.47C455.23,-217.68 501.43,-190.1 544.24,-164.53"/>
<polygon fill="none" stroke="#404040" points="544.45,-164.41 547.55,-157.9 554.75,-158.25 551.65,-164.76 544.45,-164.41"/>
<text text-anchor="middle" x="491" y="-211" font-family="Helvetica,sans-Serif" font-size="10.00"> &#45;session_</text>
</g>
<!-- Node4 -->
<g id="node4" class="node">
<title>Node4</title>
<g id="a_node4"><a xlink:title=" ">
<polygon fill="none" stroke="black" points="465.5,-237.5 465.5,-294.5 572.5,-294.5 572.5,-237.5 465.5,-237.5"/>
<text text-anchor="middle" x="519" y="-282.5" font-family="Helvetica,sans-Serif" font-size="10.00">Response&lt; BodyT &gt;</text>
<polyline fill="none" stroke="black" points="465.5,-275.5 572.5,-275.5 "/>
<text text-anchor="middle" x="519" y="-263.5" font-family="Helvetica,sans-Serif" font-size="10.00"> </text>
<polyline fill="none" stroke="black" points="465.5,-256.5 572.5,-256.5 "/>
<text text-anchor="middle" x="519" y="-244.5" font-family="Helvetica,sans-Serif" font-size="10.00"> </text>
</a>
</g>
</g>
<!-- Node4&#45;&gt;Node1 -->
<g id="edge3" class="edge">
<title>Node4&#45;&gt;Node1</title>
<path fill="none" stroke="#404040" d="M541.81,-237.47C550.89,-226.5 561.97,-213.13 573.65,-199.04"/>
<polygon fill="none" stroke="#404040" points="573.73,-198.93 574.48,-191.76 581.39,-189.69 580.64,-196.86 573.73,-198.93"/>
<text text-anchor="middle" x="591" y="-211" font-family="Helvetica,sans-Serif" font-size="10.00"> &#45;response_</text>
</g>
<!-- Node5 -->
<g id="node5" class="node">
<title>Node5</title>
<g id="a_node5"><a xlink:title=" ">
<polygon fill="none" stroke="black" points="591,-237.5 591,-294.5 727,-294.5 727,-237.5 591,-237.5"/>
<text text-anchor="middle" x="659" y="-282.5" font-family="Helvetica,sans-Serif" font-size="10.00">function&lt; bool(std::size_t)&gt;</text>
<polyline fill="none" stroke="black" points="591,-275.5 727,-275.5 "/>
<text text-anchor="middle" x="659" y="-263.5" font-family="Helvetica,sans-Serif" font-size="10.00"> </text>
<polyline fill="none" stroke="black" points="591,-256.5 727,-256.5 "/>
<text text-anchor="middle" x="659" y="-244.5" font-family="Helvetica,sans-Serif" font-size="10.00"> </text>
</a>
</g>
</g>
<!-- Node5&#45;&gt;Node1 -->
<g id="edge4" class="edge">
<title>Node5&#45;&gt;Node1</title>
<path fill="none" stroke="#404040" d="M659,-237.47C659,-227.23 659,-214.9 659,-201.84"/>
<polygon fill="none" stroke="#404040" points="659,-201.69 655,-195.69 659,-189.69 663,-195.69 659,-201.69"/>
<text text-anchor="middle" x="684.5" y="-211" font-family="Helvetica,sans-Serif" font-size="10.00"> &#45;onChunk_</text>
</g>
<!-- Node6 -->
<g id="node6" class="node">
<title>Node6</title>
<g id="a_node6"><a xlink:title=" ">
<polygon fill="none" stroke="black" points="745,-237.5 745,-294.5 901,-294.5 901,-237.5 745,-237.5"/>
<text text-anchor="middle" x="823" y="-282.5" font-family="Helvetica,sans-Serif" font-size="10.00">unique_ptr&lt; promise::Promise &gt;</text>
<polyline fill="none" stroke="black" points="745,-275.5 901,-275.5 "/>
<text text-anchor="middle" x="823" y="-263.5" font-family="Helvetica,sans-Serif" font-size="10.00"> </text>
<polyline fill="none" stroke="black" points="745,-256.5 901,-256.5 "/>
<text text-anchor="middle" x="823" y="-244.5" font-family="Helvetica,sans-Serif" font-size="10.00"> </text>
</a>
</g>
</g>
<!-- Node6&#45;&gt;Node1 -->
<g id="edge5" class="edge">
<title>Node6&#45;&gt;Node1</title>
<path fill="none" stroke="#404040" d="M796.29,-237.47C785.54,-226.39 772.42,-212.87 758.6,-198.63"/>
<polygon fill="none" stroke="#404040" points="758.27,-198.3 751.22,-196.78 749.92,-189.69 756.96,-191.21 758.27,-198.3"/>
<text text-anchor="middle" x="798" y="-211" font-family="Helvetica,sans-Serif" font-size="10.00"> &#45;promise_</text>
</g>
<!-- Node7 -->
<g id="node7" class="node">
<title>Node7</title>
<g id="a_node7"><a xlink:title=" ">
<polygon fill="none" stroke="black" points="919.5,-237.5 919.5,-294.5 1096.5,-294.5 1096.5,-237.5 919.5,-237.5"/>
<text text-anchor="middle" x="1008" y="-282.5" font-family="Helvetica,sans-Serif" font-size="10.00">optional&lt; std::chrono::milliseconds &gt;</text>
<polyline fill="none" stroke="black" points="919.5,-275.5 1096.5,-275.5 "/>
<text text-anchor="middle" x="1008" y="-263.5" font-family="Helvetica,sans-Serif" font-size="10.00"> </text>
<polyline fill="none" stroke="black" points="919.5,-256.5 1096.5,-256.5 "/>
<text text-anchor="middle" x="1008" y="-244.5" font-family="Helvetica,sans-Serif" font-size="10.00"> </text>
</a>
</g>
</g>
<!-- Node7&#45;&gt;Node1 -->
<g id="edge6" class="edge">
<title>Node7&#45;&gt;Node1</title>
<path fill="none" stroke="#404040" d="M951.15,-237.47C903.33,-214.31 833.44,-180.47 774.01,-151.69"/>
<polygon fill="none" stroke="#404040" points="773.84,-151.61 766.7,-152.6 763.04,-146.38 770.18,-145.4 773.84,-151.61"/>
<text text-anchor="middle" x="942" y="-211" font-family="Helvetica,sans-Serif" font-size="10.00"> &#45;overallTimeout_</text>
</g>
<!-- Node8 -->
<g id="node8" class="node">
<title>Node8</title>
<g id="a_node8"><a xlink:title=" ">
<polygon fill="none" stroke="black" points="1114.5,-237.5 1114.5,-294.5 1389.5,-294.5 1389.5,-237.5 1114.5,-237.5"/>
<text text-anchor="middle" x="1252" y="-282.5" font-family="Helvetica,sans-Serif" font-size="10.00">unique_ptr&lt; boost::beast::http::serializer&lt; false, BodyT &gt; &gt;</text>
<polyline fill="none" stroke="black" points="1114.5,-275.5 1389.5,-275.5 "/>
<text text-anchor="middle" x="1252" y="-263.5" font-family="Helvetica,sans-Serif" font-size="10.00"> </text>
<polyline fill="none" stroke="black" points="1114.5,-256.5 1389.5,-256.5 "/>
<text text-anchor="middle" x="1252" y="-244.5" font-family="Helvetica,sans-Serif" font-size="10.00"> </text>
</a>
</g>
</g>
<!-- Node8&#45;&gt;Node1 -->
<g id="edge7" class="edge">
<title>Node8&#45;&gt;Node1</title>
<path fill="none" stroke="#404040" d="M1155.4,-237.47C1051.28,-207.8 885.58,-160.57 774.61,-128.95"/>
<polygon fill="none" stroke="#404040" points="774.58,-128.94 767.71,-131.14 763.04,-125.65 769.91,-123.45 774.58,-128.94"/>
<text text-anchor="middle" x="1101.5" y="-211" font-family="Helvetica,sans-Serif" font-size="10.00"> &#45;serializer_</text>
</g>
</g>
</svg>
        <g id="navigator" transform="translate(0 0)" fill="#404254">
                <rect fill="#f2f5e9" fill-opacity="0.5" stroke="#606060" stroke-width=".5" x="0" y="0" width="60" height="60"/>
                <use id="zoomplus" xlink:href="#zoomPlus" x="17" y="9" onmousedown="handleZoom(evt,'in')"/>
                <use id="zoomminus" xlink:href="#zoomMin" x="42" y="9" onmousedown="handleZoom(evt,'out')"/>
                <use id="reset" xlink:href="#resetDef" x="30" y="36" onmousedown="handleReset()"/>
                <g id="arrowUp" xlink:href="#dirArrow" transform="translate(30 24)" onmousedown="handlePan(0,-1)">
                  <use xlink:href="#rim" fill="#404040">
                        <set attributeName="fill" to="#808080" begin="arrowUp.mouseover" end="arrowUp.mouseout"/>
                  </use>
                  <path fill="none" stroke="white" stroke-width="1.5" d="M0,-3.0v7 M-2.5,-0.5L0,-3.0L2.5,-0.5"/>
                </g>
                <g id="arrowRight" xlink:href="#dirArrow" transform="rotate(90) translate(36 -43)" onmousedown="handlePan(1,0)">
                  <use xlink:href="#rim" fill="#404040">
                        <set attributeName="fill" to="#808080" begin="arrowRight.mouseover" end="arrowRight.mouseout"/>
                  </use>
                  <path fill="none" stroke="white" stroke-width="1.5" d="M0,-3.0v7 M-2.5,-0.5L0,-3.0L2.5,-0.5"/>
                </g>
                <g id="arrowDown" xlink:href="#dirArrow" transform="rotate(180) translate(-30 -48)" onmousedown="handlePan(0,1)">
                  <use xlink:href="#rim" fill="#404040">
                        <set attributeName="fill" to="#808080" begin="arrowDown.mouseover" end="arrowDown.mouseout"/>
                  </use>
                  <path fill="none" stroke="white" stroke-width="1.5" d="M0,-3.0v7 M-2.5,-0.5L0,-3.0L2.5,-0.5"/>
                </g>
                <g id="arrowLeft" xlink:href="#dirArrow" transform="rotate(270) translate(-36 17)" onmousedown="handlePan(-1,0)">
                  <use xlink:href="#rim" fill="#404040">
                        <set attributeName="fill" to="#808080" begin="arrowLeft.mouseover" end="arrowLeft.mouseout"/>
                  </use>
                  <path fill="none" stroke="white" stroke-width="1.5" d="M0,-3.0v7 M-2.5,-0.5L0,-3.0L2.5,-0.5"/>
                </g>
        </g>
        <svg viewBox="0 0 15 15" width="100%" height="30px" preserveAspectRatio="xMaxYMin meet">
         <g id="arrow_out" transform="scale(0.3 0.3)">
          <a xlink:href="classRoar_1_1Session_1_1SendIntermediate__coll__graph_org.svg" target="_base">
           <rect id="button" ry="5" rx="5" y="6" x="6" height="38" width="38"
                fill="#f2f5e9" fill-opacity="0.5" stroke="#606060" stroke-width="1.0"/>
           <path id="arrow"
             d="M 11.500037,31.436501 C 11.940474,20.09759 22.043105,11.32322 32.158766,21.979434 L 37.068811,17.246167 C 37.068811,17.246167 37.088388,32 37.088388,32 L 22.160133,31.978069 C 22.160133,31.978069 26.997745,27.140456 26.997745,27.140456 C 18.528582,18.264221 13.291696,25.230495 11.500037,31.436501 z"
             style="fill:#404040;"/>
          </a>
         </g>
        </svg>
</svg>
