<?xml version="1.0" encoding="UTF-8" standalone="no"?>
<!DOCTYPE svg PUBLIC "-//W3C//DTD SVG 1.1//EN"
 "http://www.w3.org/Graphics/SVG/1.1/DTD/svg11.dtd">
<!-- Generated by graphviz version 8.1.0 (0)
 -->
<!-- Title: Roar::Request&lt; BodyT &gt; Pages: 1 -->
<svg width="497pt" height="465pt"
 viewBox="0.00 0.00 497.00 465.00" xmlns="http://www.w3.org/2000/svg" xmlns:xlink="http://www.w3.org/1999/xlink">
<g id="graph0" class="graph" transform="scale(1 1) rotate(0) translate(4 461)">
<title>Roar::Request&lt; BodyT &gt;</title>
<!-- Node1 -->
<g id="Node000001" class="node">
<title>Node1</title>
<g id="a_Node000001"><a xlink:title="This class extends the boost::beast::http::request&lt;BodyT&gt; with additional convenience.">
<polygon fill="#999999" stroke="none" points="157.5,-244 37.5,-244 37.5,0 157.5,0 157.5,-244"/>
<text text-anchor="start" x="42.38" y="-230.5" font-family="Helvetica,sans-Serif" font-size="10.00">Roar::Request&lt; BodyT &gt;</text>
<text text-anchor="start" x="96" y="-214.5" font-family="Helvetica,sans-Serif" font-size="10.00"> </text>
<text text-anchor="start" x="51" y="-198.5" font-family="Helvetica,sans-Serif" font-size="10.00">+</text>
<text text-anchor="start" x="70.5" y="-198.5" font-family="Helvetica,sans-Serif" font-size="10.00">Request()</text>
<text text-anchor="start" x="51" y="-182.5" font-family="Helvetica,sans-Serif" font-size="10.00">+</text>
<text text-anchor="start" x="70.5" y="-182.5" font-family="Helvetica,sans-Serif" font-size="10.00">Request()</text>
<text text-anchor="start" x="51" y="-166.5" font-family="Helvetica,sans-Serif" font-size="10.00">+</text>
<text text-anchor="start" x="70.5" y="-166.5" font-family="Helvetica,sans-Serif" font-size="10.00">Request()</text>
<text text-anchor="start" x="51" y="-150.5" font-family="Helvetica,sans-Serif" font-size="10.00">+</text>
<text text-anchor="start" x="70.5" y="-150.5" font-family="Helvetica,sans-Serif" font-size="10.00">path()</text>
<text text-anchor="start" x="51" y="-134.5" font-family="Helvetica,sans-Serif" font-size="10.00">+</text>
<text text-anchor="start" x="70.5" y="-134.5" font-family="Helvetica,sans-Serif" font-size="10.00">target()</text>
<text text-anchor="start" x="51" y="-118.5" font-family="Helvetica,sans-Serif" font-size="10.00">+</text>
<text text-anchor="start" x="70.5" y="-118.5" font-family="Helvetica,sans-Serif" font-size="10.00">target()</text>
<text text-anchor="start" x="51" y="-102.5" font-family="Helvetica,sans-Serif" font-size="10.00">+</text>
<text text-anchor="start" x="70.5" y="-102.5" font-family="Helvetica,sans-Serif" font-size="10.00">host()</text>
<text text-anchor="start" x="51" y="-86.5" font-family="Helvetica,sans-Serif" font-size="10.00">+</text>
<text text-anchor="start" x="70.5" y="-86.5" font-family="Helvetica,sans-Serif" font-size="10.00">host()</text>
<text text-anchor="start" x="51" y="-70.5" font-family="Helvetica,sans-Serif" font-size="10.00">+</text>
<text text-anchor="start" x="70.5" y="-70.5" font-family="Helvetica,sans-Serif" font-size="10.00">host()</text>
<text text-anchor="start" x="51" y="-54.5" font-family="Helvetica,sans-Serif" font-size="10.00">+</text>
<text text-anchor="start" x="70.5" y="-54.5" font-family="Helvetica,sans-Serif" font-size="10.00">host()</text>
<text text-anchor="start" x="70.5" y="-38.5" font-family="Helvetica,sans-Serif" font-size="10.00">and 27 more...</text>
<text text-anchor="start" x="52.5" y="-22.5" font-family="Helvetica,sans-Serif" font-size="10.00">&#45;</text>
<text text-anchor="start" x="70.5" y="-22.5" font-family="Helvetica,sans-Serif" font-size="10.00">parseTarget()</text>
<text text-anchor="start" x="52.5" y="-6.5" font-family="Helvetica,sans-Serif" font-size="10.00">&#45;</text>
<text text-anchor="start" x="70.5" y="-6.5" font-family="Helvetica,sans-Serif" font-size="10.00">parseQuery()</text>
<polygon fill="#666666" stroke="#666666" points="37.5,-226 37.5,-226 157.5,-226 157.5,-226 37.5,-226"/>
<polygon fill="#666666" stroke="#666666" points="37.5,-210 37.5,-210 157.5,-210 157.5,-210 37.5,-210"/>
<polygon fill="none" stroke="#666666" points="37.5,0 37.5,-244 157.5,-244 157.5,0 37.5,0"/>
</a>
</g>
</g>
<!-- Node2 -->
<g id="Node000002" class="node">
<title>Node2</title>
<g id="a_Node000002"><a xlink:href="classboost_1_1beast_1_1http_1_1request.html" target="_top" xlink:title=" ">
<polygon fill="white" stroke="none" points="171,-333 0,-333 0,-281 171,-281 171,-333"/>
<text text-anchor="start" x="4.88" y="-319.5" font-family="Helvetica,sans-Serif" font-size="10.00">boost::beast::http::request&lt; BodyT &gt;</text>
<text text-anchor="start" x="84" y="-303.5" font-family="Helvetica,sans-Serif" font-size="10.00"> </text>
<text text-anchor="start" x="84" y="-287.5" font-family="Helvetica,sans-Serif" font-size="10.00"> </text>
<polygon fill="#666666" stroke="#666666" points="0,-315 0,-315 171,-315 171,-315 0,-315"/>
<polygon fill="#666666" stroke="#666666" points="0,-299 0,-299 171,-299 171,-299 0,-299"/>
<polygon fill="none" stroke="#666666" points="0,-281 0,-333 171,-333 171,-281 0,-281"/>
</a>
</g>
</g>
<!-- Node2&#45;&gt;Node1 -->
<g id="edge1_Node000001_Node000002" class="edge">
<title>Node2&#45;&gt;Node1</title>
<g id="a_edge1_Node000001_Node000002"><a xlink:title=" ">
<path fill="none" stroke="#63b8ff" d="M87.82,-270.55C88.36,-262.45 88.95,-253.4 89.57,-243.87"/>
<polygon fill="none" stroke="#63b8ff" points="84.28,-270.11 87.12,-280.32 91.27,-270.57 84.28,-270.11"/>
</a>
</g>
</g>
<!-- Node3 -->
<g id="Node000003" class="node">
<title>Node3</title>
<g id="a_Node000003"><a xlink:href="structRoar_1_1Detail_1_1RequestExtensions.html" target="_top" xlink:title=" ">
<polygon fill="white" stroke="none" points="343.5,-333 189.5,-333 189.5,-281 343.5,-281 343.5,-333"/>
<text text-anchor="start" x="194.5" y="-319.5" font-family="Helvetica,sans-Serif" font-size="10.00">Roar::Detail::RequestExtensions</text>
<text text-anchor="start" x="265" y="-303.5" font-family="Helvetica,sans-Serif" font-size="10.00"> </text>
<text text-anchor="start" x="265" y="-287.5" font-family="Helvetica,sans-Serif" font-size="10.00"> </text>
<polygon fill="#666666" stroke="#666666" points="189.5,-315 189.5,-315 343.5,-315 343.5,-315 189.5,-315"/>
<polygon fill="#666666" stroke="#666666" points="189.5,-299 189.5,-299 343.5,-299 343.5,-299 189.5,-299"/>
<polygon fill="none" stroke="#666666" points="189.5,-281 189.5,-333 343.5,-333 343.5,-281 189.5,-281"/>
</a>
</g>
</g>
<!-- Node3&#45;&gt;Node1 -->
<g id="edge2_Node000001_Node000003" class="edge">
<title>Node3&#45;&gt;Node1</title>
<g id="a_edge2_Node000001_Node000003"><a xlink:title=" ">
<path fill="none" stroke="#8b1a1a" d="M236.33,-273.33C214.42,-249.61 184.05,-216.72 157.3,-187.76"/>
<polygon fill="none" stroke="#8b1a1a" points="233.35,-275.35 242.71,-280.32 238.49,-270.6 233.35,-275.35"/>
</a>
</g>
</g>
<!-- Node4 -->
<g id="Node000004" class="node">
<title>Node4</title>
<g id="a_Node000004"><a xlink:title=" ">
<polygon fill="white" stroke="none" points="231,-457 62,-457 62,-405 231,-405 231,-457"/>
<text text-anchor="start" x="66.62" y="-443.5" font-family="Helvetica,sans-Serif" font-size="10.00">optional&lt; std::vector&lt; std::string &gt; &gt;</text>
<text text-anchor="start" x="145" y="-427.5" font-family="Helvetica,sans-Serif" font-size="10.00"> </text>
<text text-anchor="start" x="145" y="-411.5" font-family="Helvetica,sans-Serif" font-size="10.00"> </text>
<polygon fill="#666666" stroke="#666666" points="62,-439 62,-439 231,-439 231,-439 62,-439"/>
<polygon fill="#666666" stroke="#666666" points="62,-423 62,-423 231,-423 231,-423 62,-423"/>
<polygon fill="none" stroke="#666666" points="62,-405 62,-457 231,-457 231,-405 62,-405"/>
</a>
</g>
</g>
<!-- Node4&#45;&gt;Node3 -->
<g id="edge3_Node000003_Node000004" class="edge">
<title>Node4&#45;&gt;Node3</title>
<g id="a_edge3_Node000003_Node000004"><a xlink:title=" ">
<path fill="none" stroke="#63b8ff" d="M154.67,-405.17C161.22,-388.28 171.8,-366.3 186.75,-351 190.52,-347.14 194.72,-343.54 199.15,-340.2"/>
<polygon fill="none" stroke="#63b8ff" points="199.2,-340.17 201.89,-333.48 209.1,-333.4 206.41,-340.09 199.2,-340.17"/>
</a>
</g>
<text text-anchor="middle" x="225.38" y="-365.5" font-family="Helvetica,sans-Serif" font-size="10.00" fill="grey"> +regexMatches_</text>
</g>
<!-- Node5 -->
<g id="Node000005" class="node">
<title>Node5</title>
<g id="a_Node000005"><a xlink:title=" ">
<polygon fill="white" stroke="none" points="283.5,-457 249.5,-457 249.5,-405 283.5,-405 283.5,-457"/>
<text text-anchor="start" x="254.5" y="-443.5" font-family="Helvetica,sans-Serif" font-size="10.00">string</text>
<text text-anchor="start" x="265" y="-427.5" font-family="Helvetica,sans-Serif" font-size="10.00"> </text>
<text text-anchor="start" x="265" y="-411.5" font-family="Helvetica,sans-Serif" font-size="10.00"> </text>
<polygon fill="#666666" stroke="#666666" points="249.5,-439 249.5,-439 283.5,-439 283.5,-439 249.5,-439"/>
<polygon fill="#666666" stroke="#666666" points="249.5,-423 249.5,-423 283.5,-423 283.5,-423 249.5,-423"/>
<polygon fill="none" stroke="#666666" points="249.5,-405 249.5,-457 283.5,-457 283.5,-405 249.5,-405"/>
</a>
</g>
</g>
<!-- Node5&#45;&gt;Node3 -->
<g id="edge4_Node000003_Node000005" class="edge">
<title>Node5&#45;&gt;Node3</title>
<g id="a_edge4_Node000003_Node000005"><a xlink:title=" ">
<path fill="none" stroke="#63b8ff" d="M266.5,-405.02C266.5,-387.99 266.5,-365.14 266.5,-345.89"/>
<polygon fill="none" stroke="#63b8ff" points="266.5,-345.85 262.5,-339.85 266.5,-333.85 270.5,-339.85 266.5,-345.85"/>
</a>
</g>
<text text-anchor="middle" x="283" y="-377.5" font-family="Helvetica,sans-Serif" font-size="10.00" fill="grey"> +host_</text>
<text text-anchor="middle" x="283" y="-365.5" font-family="Helvetica,sans-Serif" font-size="10.00" fill="grey">+path_</text>
<text text-anchor="middle" x="283" y="-353.5" font-family="Helvetica,sans-Serif" font-size="10.00" fill="grey">+port_</text>
</g>
<!-- Node6 -->
<g id="Node000006" class="node">
<title>Node6</title>
<g id="a_Node000006"><a xlink:title=" ">
<polygon fill="white" stroke="none" points="489,-457 302,-457 302,-405 489,-405 489,-457"/>
<text text-anchor="start" x="306.62" y="-443.5" font-family="Helvetica,sans-Serif" font-size="10.00">unordered_map&lt; std::string, std::string &gt;</text>
<text text-anchor="start" x="394" y="-427.5" font-family="Helvetica,sans-Serif" font-size="10.00"> </text>
<text text-anchor="start" x="394" y="-411.5" font-family="Helvetica,sans-Serif" font-size="10.00"> </text>
<polygon fill="#666666" stroke="#666666" points="302,-439 302,-439 489,-439 489,-439 302,-439"/>
<polygon fill="#666666" stroke="#666666" points="302,-423 302,-423 489,-423 489,-423 302,-423"/>
<polygon fill="none" stroke="#666666" points="302,-405 302,-457 489,-457 489,-405 302,-405"/>
</a>
</g>
</g>
<!-- Node6&#45;&gt;Node3 -->
<g id="edge5_Node000003_Node000006" class="edge">
<title>Node6&#45;&gt;Node3</title>
<g id="a_edge5_Node000003_Node000006"><a xlink:title=" ">
<path fill="none" stroke="#63b8ff" d="M369.08,-405.02C349.78,-386.76 323.38,-361.8 302.2,-341.76"/>
<polygon fill="none" stroke="#63b8ff" points="302.25,-341.81 295.15,-340.6 293.54,-333.57 300.64,-334.79 302.25,-341.81"/>
</a>
</g>
<text text-anchor="middle" x="364.62" y="-365.5" font-family="Helvetica,sans-Serif" font-size="10.00" fill="grey"> +query_</text>
</g>
</g>
</svg>
