<?xml version="1.0" encoding="UTF-8" standalone="no"?>
<!DOCTYPE svg PUBLIC "-//W3C//DTD SVG 1.1//EN"
 "http://www.w3.org/Graphics/SVG/1.1/DTD/svg11.dtd">
<!-- Generated by graphviz version 2.44.1 (20211215.1903)
 -->
<!-- Title: Roar::Session::ReadIntermediate&lt; BodyT &gt; Pages: 1 -->
<!--zoomable 375 -->
<svg id="main" version="1.1" xmlns="http://www.w3.org/2000/svg" xmlns:xlink="http://www.w3.org/1999/xlink" xml:space="preserve" onload="init(evt)">
<style type="text/css"><![CDATA[
.edge:hover path { stroke: red; }
.edge:hover polygon { stroke: red; fill: red; }
]]></style>
<script type="text/javascript"><![CDATA[
var edges = document.getElementsByTagName('g');
if (edges && edges.length) {
  for (var i=0;i<edges.length;i++) {
    if (edges[i].id.substr(0,4)=='edge') {
      edges[i].setAttribute('class','edge');
    }
  }
}
]]></script>
        <defs>
                <circle id="rim" cx="0" cy="0" r="7"/>
                <circle id="rim2" cx="0" cy="0" r="3.5"/>
                <g id="zoomPlus">
                        <use xlink:href="#rim" fill="#404040">
                                <set attributeName="fill" to="#808080" begin="zoomplus.mouseover" end="zoomplus.mouseout"/>
                        </use>
                        <path d="M-4,0h8M0,-4v8" fill="none" stroke="white" stroke-width="1.5" pointer-events="none"/>
                </g>
                <g id="zoomMin">
                        <use xlink:href="#rim" fill="#404040">
                                <set attributeName="fill" to="#808080" begin="zoomminus.mouseover" end="zoomminus.mouseout"/>
                        </use>
                        <path d="M-4,0h8" fill="none" stroke="white" stroke-width="1.5" pointer-events="none"/>
                </g>
                <g id="dirArrow">
                        <path fill="none" stroke="white" stroke-width="1.5" d="M0,-3.0v7 M-2.5,-0.5L0,-3.0L2.5,-0.5"/>
                </g>
               <g id="resetDef">
                       <use xlink:href="#rim2" fill="#404040">
                               <set attributeName="fill" to="#808080" begin="reset.mouseover" end="reset.mouseout"/>
                       </use>
               </g>
        </defs>

<script type="text/javascript">
var viewWidth = 1483;
var viewHeight = 375;
var sectionId = 'dynsection-0';
</script>
<script xlink:href="svgpan.js"/>
<svg id="graph" class="graph">
<g id="viewport">
<title>Roar::Session::ReadIntermediate&lt; BodyT &gt;</title>
<!-- Node1 -->
<g id="node1" class="node">
<title>Node1</title>
<g id="a_node1"><a xlink:title="Utility class to build up read operations.">
<polygon fill="#bfbfbf" stroke="black" points="538,-0.5 538,-156.5 747,-156.5 747,-0.5 538,-0.5"/>
<text text-anchor="middle" x="642.5" y="-144.5" font-family="Helvetica,sans-Serif" font-size="10.00">Roar::Session::ReadIntermediate&lt; BodyT &gt;</text>
<polyline fill="none" stroke="black" points="538,-137.5 747,-137.5 "/>
<text text-anchor="middle" x="642.5" y="-125.5" font-family="Helvetica,sans-Serif" font-size="10.00"> </text>
<polyline fill="none" stroke="black" points="538,-118.5 747,-118.5 "/>
<text text-anchor="start" x="546" y="-106.5" font-family="Helvetica,sans-Serif" font-size="10.00">+ ReadIntermediate()</text>
<text text-anchor="start" x="546" y="-95.5" font-family="Helvetica,sans-Serif" font-size="10.00">+ operator=()</text>
<text text-anchor="start" x="546" y="-84.5" font-family="Helvetica,sans-Serif" font-size="10.00">+ bodyLimit()</text>
<text text-anchor="start" x="546" y="-73.5" font-family="Helvetica,sans-Serif" font-size="10.00">+ bodyLimit()</text>
<text text-anchor="start" x="546" y="-62.5" font-family="Helvetica,sans-Serif" font-size="10.00">+ noBodyLimit()</text>
<text text-anchor="start" x="546" y="-51.5" font-family="Helvetica,sans-Serif" font-size="10.00">+ onReadSome()</text>
<text text-anchor="start" x="546" y="-40.5" font-family="Helvetica,sans-Serif" font-size="10.00">+ commit()</text>
<text text-anchor="start" x="546" y="-29.5" font-family="Helvetica,sans-Serif" font-size="10.00">+ useFixedTimeout()</text>
<text text-anchor="start" x="546" y="-18.5" font-family="Helvetica,sans-Serif" font-size="10.00">&#45; ReadIntermediate()</text>
<text text-anchor="start" x="546" y="-7.5" font-family="Helvetica,sans-Serif" font-size="10.00">&#45; readChunk()</text>
</a>
</g>
</g>
<!-- Node2 -->
<g id="node2" class="node">
<title>Node2</title>
<g id="a_node2"><a xlink:title=" ">
<polygon fill="none" stroke="black" points="0,-204.5 0,-261.5 287,-261.5 287,-204.5 0,-204.5"/>
<text text-anchor="middle" x="143.5" y="-249.5" font-family="Helvetica,sans-Serif" font-size="10.00">std::enable_shared_from_this&lt; ReadIntermediate&lt; BodyT &gt; &gt;</text>
<polyline fill="none" stroke="black" points="0,-242.5 287,-242.5 "/>
<text text-anchor="middle" x="143.5" y="-230.5" font-family="Helvetica,sans-Serif" font-size="10.00"> </text>
<polyline fill="none" stroke="black" points="0,-223.5 287,-223.5 "/>
<text text-anchor="middle" x="143.5" y="-211.5" font-family="Helvetica,sans-Serif" font-size="10.00"> </text>
</a>
</g>
</g>
<!-- Node2&#45;&gt;Node1 -->
<g id="edge1" class="edge">
<title>Node2&#45;&gt;Node1</title>
<path fill="none" stroke="midnightblue" d="M243.27,-201.51C328.54,-175.45 450.84,-138.07 537.57,-111.57"/>
<polygon fill="none" stroke="midnightblue" points="242.12,-198.2 233.58,-204.47 244.16,-204.9 242.12,-198.2"/>
</g>
<!-- Node3 -->
<g id="node3" class="node">
<title>Node3</title>
<g id="a_node3"><a xlink:title=" ">
<polygon fill="none" stroke="black" points="305,-204.5 305,-261.5 346,-261.5 346,-204.5 305,-204.5"/>
<text text-anchor="middle" x="325.5" y="-249.5" font-family="Helvetica,sans-Serif" font-size="10.00">friend</text>
<polyline fill="none" stroke="black" points="305,-242.5 346,-242.5 "/>
<text text-anchor="middle" x="325.5" y="-230.5" font-family="Helvetica,sans-Serif" font-size="10.00"> </text>
<polyline fill="none" stroke="black" points="305,-223.5 346,-223.5 "/>
<text text-anchor="middle" x="325.5" y="-211.5" font-family="Helvetica,sans-Serif" font-size="10.00"> </text>
</a>
</g>
</g>
<!-- Node3&#45;&gt;Node1 -->
<g id="edge2" class="edge">
<title>Node3&#45;&gt;Node1</title>
<path fill="none" stroke="#404040" d="M346.29,-210.27C348.94,-208.01 351.7,-205.86 354.5,-204 407.39,-168.74 471.91,-139.76 526.46,-118.65"/>
<polygon fill="none" stroke="#404040" points="526.74,-118.55 530.91,-112.67 537.95,-114.27 533.77,-120.15 526.74,-118.55"/>
<text text-anchor="middle" x="419.5" y="-178" font-family="Helvetica,sans-Serif" font-size="10.00"> &#45;Session</text>
</g>
<!-- Node4 -->
<g id="node4" class="node">
<title>Node4</title>
<g id="a_node4"><a xlink:title=" ">
<polygon fill="none" stroke="black" points="364,-204.5 364,-261.5 507,-261.5 507,-204.5 364,-204.5"/>
<text text-anchor="middle" x="435.5" y="-249.5" font-family="Helvetica,sans-Serif" font-size="10.00">shared_ptr&lt; Roar::Session &gt;</text>
<polyline fill="none" stroke="black" points="364,-242.5 507,-242.5 "/>
<text text-anchor="middle" x="435.5" y="-230.5" font-family="Helvetica,sans-Serif" font-size="10.00"> </text>
<polyline fill="none" stroke="black" points="364,-223.5 507,-223.5 "/>
<text text-anchor="middle" x="435.5" y="-211.5" font-family="Helvetica,sans-Serif" font-size="10.00"> </text>
</a>
</g>
</g>
<!-- Node4&#45;&gt;Node1 -->
<g id="edge3" class="edge">
<title>Node4&#45;&gt;Node1</title>
<path fill="none" stroke="#404040" d="M472.99,-204.38C488.81,-192.73 508.16,-178.47 528.05,-163.81"/>
<polygon fill="none" stroke="#404040" points="528.19,-163.71 530.65,-156.93 537.85,-156.6 535.39,-163.38 528.19,-163.71"/>
<text text-anchor="middle" x="531.5" y="-178" font-family="Helvetica,sans-Serif" font-size="10.00"> &#45;session_</text>
</g>
<!-- Node5 -->
<g id="node5" class="node">
<title>Node5</title>
<g id="a_node5"><a xlink:title=" ">
<polygon fill="none" stroke="black" points="525.5,-204.5 525.5,-261.5 653.5,-261.5 653.5,-204.5 525.5,-204.5"/>
<text text-anchor="middle" x="589.5" y="-249.5" font-family="Helvetica,sans-Serif" font-size="10.00">request_parser&lt; BodyT &gt;</text>
<polyline fill="none" stroke="black" points="525.5,-242.5 653.5,-242.5 "/>
<text text-anchor="middle" x="589.5" y="-230.5" font-family="Helvetica,sans-Serif" font-size="10.00"> </text>
<polyline fill="none" stroke="black" points="525.5,-223.5 653.5,-223.5 "/>
<text text-anchor="middle" x="589.5" y="-211.5" font-family="Helvetica,sans-Serif" font-size="10.00"> </text>
</a>
</g>
</g>
<!-- Node5&#45;&gt;Node1 -->
<g id="edge4" class="edge">
<title>Node5&#45;&gt;Node1</title>
<path fill="none" stroke="#404040" d="M599.1,-204.38C602.74,-193.89 607.12,-181.3 611.67,-168.2"/>
<polygon fill="none" stroke="#404040" points="611.77,-167.93 609.96,-160.95 615.71,-156.6 617.51,-163.58 611.77,-167.93"/>
<text text-anchor="middle" x="621" y="-178" font-family="Helvetica,sans-Serif" font-size="10.00"> &#45;req_</text>
</g>
<!-- Node6 -->
<g id="node6" class="node">
<title>Node6</title>
<g id="a_node6"><a xlink:href="structRoar_1_1Detail_1_1RequestExtensions.html" target="_top" xlink:title=" ">
<polygon fill="none" stroke="black" points="672,-204.5 672,-261.5 833,-261.5 833,-204.5 672,-204.5"/>
<text text-anchor="middle" x="752.5" y="-249.5" font-family="Helvetica,sans-Serif" font-size="10.00">Roar::Detail::RequestExtensions</text>
<polyline fill="none" stroke="black" points="672,-242.5 833,-242.5 "/>
<text text-anchor="middle" x="752.5" y="-230.5" font-family="Helvetica,sans-Serif" font-size="10.00"> </text>
<polyline fill="none" stroke="black" points="672,-223.5 833,-223.5 "/>
<text text-anchor="middle" x="752.5" y="-211.5" font-family="Helvetica,sans-Serif" font-size="10.00"> </text>
</a>
</g>
</g>
<!-- Node6&#45;&gt;Node1 -->
<g id="edge5" class="edge">
<title>Node6&#45;&gt;Node1</title>
<path fill="none" stroke="#404040" d="M732.58,-204.38C724.71,-193.47 715.19,-180.28 705.33,-166.61"/>
<polygon fill="none" stroke="#404040" points="705.13,-166.33 698.38,-163.8 698.11,-156.6 704.86,-159.12 705.13,-166.33"/>
<text text-anchor="middle" x="763" y="-178" font-family="Helvetica,sans-Serif" font-size="10.00"> &#45;originalExtensions_</text>
</g>
<!-- Node7 -->
<g id="node7" class="node">
<title>Node7</title>
<g id="a_node7"><a xlink:title=" ">
<polygon fill="none" stroke="black" points="538.5,-309.5 538.5,-366.5 714.5,-366.5 714.5,-309.5 538.5,-309.5"/>
<text text-anchor="middle" x="626.5" y="-354.5" font-family="Helvetica,sans-Serif" font-size="10.00">optional&lt; std::vector&lt; std::string &gt; &gt;</text>
<polyline fill="none" stroke="black" points="538.5,-347.5 714.5,-347.5 "/>
<text text-anchor="middle" x="626.5" y="-335.5" font-family="Helvetica,sans-Serif" font-size="10.00"> </text>
<polyline fill="none" stroke="black" points="538.5,-328.5 714.5,-328.5 "/>
<text text-anchor="middle" x="626.5" y="-316.5" font-family="Helvetica,sans-Serif" font-size="10.00"> </text>
</a>
</g>
</g>
<!-- Node7&#45;&gt;Node6 -->
<g id="edge6" class="edge">
<title>Node7&#45;&gt;Node6</title>
<path fill="none" stroke="#404040" d="M645.48,-309.37C653.15,-299.39 662.54,-288.51 672.5,-280 677.25,-275.94 682.41,-272.05 687.75,-268.38"/>
<polygon fill="none" stroke="#404040" points="688.11,-268.14 690.95,-261.51 698.16,-261.58 695.32,-268.21 688.11,-268.14"/>
<text text-anchor="middle" x="710.5" y="-283" font-family="Helvetica,sans-Serif" font-size="10.00"> +regexMatches_</text>
</g>
<!-- Node8 -->
<g id="node8" class="node">
<title>Node8</title>
<g id="a_node8"><a xlink:title=" ">
<polygon fill="none" stroke="black" points="732,-309.5 732,-366.5 773,-366.5 773,-309.5 732,-309.5"/>
<text text-anchor="middle" x="752.5" y="-354.5" font-family="Helvetica,sans-Serif" font-size="10.00">string</text>
<polyline fill="none" stroke="black" points="732,-347.5 773,-347.5 "/>
<text text-anchor="middle" x="752.5" y="-335.5" font-family="Helvetica,sans-Serif" font-size="10.00"> </text>
<polyline fill="none" stroke="black" points="732,-328.5 773,-328.5 "/>
<text text-anchor="middle" x="752.5" y="-316.5" font-family="Helvetica,sans-Serif" font-size="10.00"> </text>
</a>
</g>
</g>
<!-- Node8&#45;&gt;Node6 -->
<g id="edge7" class="edge">
<title>Node8&#45;&gt;Node6</title>
<path fill="none" stroke="#404040" d="M752.5,-309.4C752.5,-298.55 752.5,-285.87 752.5,-274.05"/>
<polygon fill="none" stroke="#404040" points="752.5,-273.68 748.5,-267.68 752.5,-261.68 756.5,-267.68 752.5,-273.68"/>
<text text-anchor="middle" x="769.5" y="-283" font-family="Helvetica,sans-Serif" font-size="10.00"> +path_</text>
</g>
<!-- Node9 -->
<g id="node9" class="node">
<title>Node9</title>
<g id="a_node9"><a xlink:title=" ">
<polygon fill="none" stroke="black" points="791.5,-309.5 791.5,-366.5 985.5,-366.5 985.5,-309.5 791.5,-309.5"/>
<text text-anchor="middle" x="888.5" y="-354.5" font-family="Helvetica,sans-Serif" font-size="10.00">unordered_map&lt; std::string, std::string &gt;</text>
<polyline fill="none" stroke="black" points="791.5,-347.5 985.5,-347.5 "/>
<text text-anchor="middle" x="888.5" y="-335.5" font-family="Helvetica,sans-Serif" font-size="10.00"> </text>
<polyline fill="none" stroke="black" points="791.5,-328.5 985.5,-328.5 "/>
<text text-anchor="middle" x="888.5" y="-316.5" font-family="Helvetica,sans-Serif" font-size="10.00"> </text>
</a>
</g>
</g>
<!-- Node9&#45;&gt;Node6 -->
<g id="edge8" class="edge">
<title>Node9&#45;&gt;Node6</title>
<path fill="none" stroke="#404040" d="M852.05,-309.4C835.74,-297.04 816.32,-282.33 798.98,-269.2"/>
<polygon fill="none" stroke="#404040" points="798.61,-268.92 791.41,-268.49 789.05,-261.68 796.24,-262.11 798.61,-268.92"/>
<text text-anchor="middle" x="845" y="-283" font-family="Helvetica,sans-Serif" font-size="10.00"> +query_</text>
</g>
<!-- Node10 -->
<g id="node10" class="node">
<title>Node10</title>
<g id="a_node10"><a xlink:title=" ">
<polygon fill="none" stroke="black" points="851.5,-204.5 851.5,-261.5 1105.5,-261.5 1105.5,-204.5 851.5,-204.5"/>
<text text-anchor="middle" x="978.5" y="-249.5" font-family="Helvetica,sans-Serif" font-size="10.00">function&lt; bool(boost::beast::flat_buffer &amp;, std::size_t)&gt;</text>
<polyline fill="none" stroke="black" points="851.5,-242.5 1105.5,-242.5 "/>
<text text-anchor="middle" x="978.5" y="-230.5" font-family="Helvetica,sans-Serif" font-size="10.00"> </text>
<polyline fill="none" stroke="black" points="851.5,-223.5 1105.5,-223.5 "/>
<text text-anchor="middle" x="978.5" y="-211.5" font-family="Helvetica,sans-Serif" font-size="10.00"> </text>
</a>
</g>
</g>
<!-- Node10&#45;&gt;Node1 -->
<g id="edge9" class="edge">
<title>Node10&#45;&gt;Node1</title>
<path fill="none" stroke="#404040" d="M917.65,-204.38C873.24,-184.23 811.69,-156.29 758.06,-131.95"/>
<polygon fill="none" stroke="#404040" points="758.03,-131.94 750.91,-133.1 747.1,-126.98 754.22,-125.81 758.03,-131.94"/>
<text text-anchor="middle" x="896" y="-178" font-family="Helvetica,sans-Serif" font-size="10.00"> &#45;onChunk_</text>
</g>
<!-- Node11 -->
<g id="node11" class="node">
<title>Node11</title>
<g id="a_node11"><a xlink:title=" ">
<polygon fill="none" stroke="black" points="1123.5,-204.5 1123.5,-261.5 1279.5,-261.5 1279.5,-204.5 1123.5,-204.5"/>
<text text-anchor="middle" x="1201.5" y="-249.5" font-family="Helvetica,sans-Serif" font-size="10.00">unique_ptr&lt; promise::Promise &gt;</text>
<polyline fill="none" stroke="black" points="1123.5,-242.5 1279.5,-242.5 "/>
<text text-anchor="middle" x="1201.5" y="-230.5" font-family="Helvetica,sans-Serif" font-size="10.00"> </text>
<polyline fill="none" stroke="black" points="1123.5,-223.5 1279.5,-223.5 "/>
<text text-anchor="middle" x="1201.5" y="-211.5" font-family="Helvetica,sans-Serif" font-size="10.00"> </text>
</a>
</g>
</g>
<!-- Node11&#45;&gt;Node1 -->
<g id="edge10" class="edge">
<title>Node11&#45;&gt;Node1</title>
<path fill="none" stroke="#404040" d="M1123.31,-206.62C1120.34,-205.72 1117.39,-204.85 1114.5,-204 994.06,-168.76 855.04,-132.64 759.22,-108.44"/>
<polygon fill="none" stroke="#404040" points="759.1,-108.41 752.3,-110.82 747.46,-105.47 754.26,-103.06 759.1,-108.41"/>
<text text-anchor="middle" x="1073.5" y="-178" font-family="Helvetica,sans-Serif" font-size="10.00"> &#45;promise_</text>
</g>
<!-- Node12 -->
<g id="node12" class="node">
<title>Node12</title>
<g id="a_node12"><a xlink:title=" ">
<polygon fill="none" stroke="black" points="1298,-204.5 1298,-261.5 1475,-261.5 1475,-204.5 1298,-204.5"/>
<text text-anchor="middle" x="1386.5" y="-249.5" font-family="Helvetica,sans-Serif" font-size="10.00">optional&lt; std::chrono::milliseconds &gt;</text>
<polyline fill="none" stroke="black" points="1298,-242.5 1475,-242.5 "/>
<text text-anchor="middle" x="1386.5" y="-230.5" font-family="Helvetica,sans-Serif" font-size="10.00"> </text>
<polyline fill="none" stroke="black" points="1298,-223.5 1475,-223.5 "/>
<text text-anchor="middle" x="1386.5" y="-211.5" font-family="Helvetica,sans-Serif" font-size="10.00"> </text>
</a>
</g>
</g>
<!-- Node12&#45;&gt;Node1 -->
<g id="edge11" class="edge">
<title>Node12&#45;&gt;Node1</title>
<path fill="none" stroke="#404040" d="M1297.92,-206.31C1294.74,-205.51 1291.6,-204.74 1288.5,-204 1104.82,-160.15 888.94,-121.01 759.06,-98.79"/>
<polygon fill="none" stroke="#404040" points="758.99,-98.77 752.4,-101.71 747.16,-96.75 753.74,-93.82 758.99,-98.77"/>
<text text-anchor="middle" x="1238.5" y="-178" font-family="Helvetica,sans-Serif" font-size="10.00"> &#45;overallTimeout_</text>
</g>
</g>
</svg>
        <g id="navigator" transform="translate(0 0)" fill="#404254">
                <rect fill="#f2f5e9" fill-opacity="0.5" stroke="#606060" stroke-width=".5" x="0" y="0" width="60" height="60"/>
                <use id="zoomplus" xlink:href="#zoomPlus" x="17" y="9" onmousedown="handleZoom(evt,'in')"/>
                <use id="zoomminus" xlink:href="#zoomMin" x="42" y="9" onmousedown="handleZoom(evt,'out')"/>
                <use id="reset" xlink:href="#resetDef" x="30" y="36" onmousedown="handleReset()"/>
                <g id="arrowUp" xlink:href="#dirArrow" transform="translate(30 24)" onmousedown="handlePan(0,-1)">
                  <use xlink:href="#rim" fill="#404040">
                        <set attributeName="fill" to="#808080" begin="arrowUp.mouseover" end="arrowUp.mouseout"/>
                  </use>
                  <path fill="none" stroke="white" stroke-width="1.5" d="M0,-3.0v7 M-2.5,-0.5L0,-3.0L2.5,-0.5"/>
                </g>
                <g id="arrowRight" xlink:href="#dirArrow" transform="rotate(90) translate(36 -43)" onmousedown="handlePan(1,0)">
                  <use xlink:href="#rim" fill="#404040">
                        <set attributeName="fill" to="#808080" begin="arrowRight.mouseover" end="arrowRight.mouseout"/>
                  </use>
                  <path fill="none" stroke="white" stroke-width="1.5" d="M0,-3.0v7 M-2.5,-0.5L0,-3.0L2.5,-0.5"/>
                </g>
                <g id="arrowDown" xlink:href="#dirArrow" transform="rotate(180) translate(-30 -48)" onmousedown="handlePan(0,1)">
                  <use xlink:href="#rim" fill="#404040">
                        <set attributeName="fill" to="#808080" begin="arrowDown.mouseover" end="arrowDown.mouseout"/>
                  </use>
                  <path fill="none" stroke="white" stroke-width="1.5" d="M0,-3.0v7 M-2.5,-0.5L0,-3.0L2.5,-0.5"/>
                </g>
                <g id="arrowLeft" xlink:href="#dirArrow" transform="rotate(270) translate(-36 17)" onmousedown="handlePan(-1,0)">
                  <use xlink:href="#rim" fill="#404040">
                        <set attributeName="fill" to="#808080" begin="arrowLeft.mouseover" end="arrowLeft.mouseout"/>
                  </use>
                  <path fill="none" stroke="white" stroke-width="1.5" d="M0,-3.0v7 M-2.5,-0.5L0,-3.0L2.5,-0.5"/>
                </g>
        </g>
        <svg viewBox="0 0 15 15" width="100%" height="30px" preserveAspectRatio="xMaxYMin meet">
         <g id="arrow_out" transform="scale(0.3 0.3)">
          <a xlink:href="classRoar_1_1Session_1_1ReadIntermediate__coll__graph_org.svg" target="_base">
           <rect id="button" ry="5" rx="5" y="6" x="6" height="38" width="38"
                fill="#f2f5e9" fill-opacity="0.5" stroke="#606060" stroke-width="1.0"/>
           <path id="arrow"
             d="M 11.500037,31.436501 C 11.940474,20.09759 22.043105,11.32322 32.158766,21.979434 L 37.068811,17.246167 C 37.068811,17.246167 37.088388,32 37.088388,32 L 22.160133,31.978069 C 22.160133,31.978069 26.997745,27.140456 26.997745,27.140456 C 18.528582,18.264221 13.291696,25.230495 11.500037,31.436501 z"
             style="fill:#404040;"/>
          </a>
         </g>
        </svg>
</svg>
