<?xml version="1.0" encoding="UTF-8" standalone="no"?>
<!DOCTYPE svg PUBLIC "-//W3C//DTD SVG 1.1//EN"
 "http://www.w3.org/Graphics/SVG/1.1/DTD/svg11.dtd">
<!-- Generated by graphviz version 2.44.1 (20211215.1903)
 -->
<!-- Title: Roar::Request&lt; BodyT &gt; Pages: 1 -->
<svg width="651pt" height="387pt"
 viewBox="0.00 0.00 651.00 387.00" xmlns="http://www.w3.org/2000/svg" xmlns:xlink="http://www.w3.org/1999/xlink">
<g id="graph0" class="graph" transform="scale(1 1) rotate(0) translate(4 383)">
<title>Roar::Request&lt; BodyT &gt;</title>
<!-- Node1 -->
<g id="node1" class="node">
<title>Node1</title>
<g id="a_node1"><a xlink:title="This class extends the boost::beast::http::request&lt;BodyT&gt; with additional convenience.">
<polygon fill="#bfbfbf" stroke="black" points="238.5,-0.5 238.5,-178.5 421.5,-178.5 421.5,-0.5 238.5,-0.5"/>
<text text-anchor="middle" x="330" y="-166.5" font-family="Helvetica,sans-Serif" font-size="10.00">Roar::Request&lt; BodyT &gt;</text>
<polyline fill="none" stroke="black" points="238.5,-159.5 421.5,-159.5 "/>
<text text-anchor="middle" x="330" y="-147.5" font-family="Helvetica,sans-Serif" font-size="10.00"> </text>
<polyline fill="none" stroke="black" points="238.5,-140.5 421.5,-140.5 "/>
<text text-anchor="start" x="246.5" y="-128.5" font-family="Helvetica,sans-Serif" font-size="10.00">+ Request()</text>
<text text-anchor="start" x="246.5" y="-117.5" font-family="Helvetica,sans-Serif" font-size="10.00">+ Request()</text>
<text text-anchor="start" x="246.5" y="-106.5" font-family="Helvetica,sans-Serif" font-size="10.00">+ path()</text>
<text text-anchor="start" x="246.5" y="-95.5" font-family="Helvetica,sans-Serif" font-size="10.00">+ query()</text>
<text text-anchor="start" x="246.5" y="-84.5" font-family="Helvetica,sans-Serif" font-size="10.00">+ pathMatches()</text>
<text text-anchor="start" x="246.5" y="-73.5" font-family="Helvetica,sans-Serif" font-size="10.00">+ pathMatches()</text>
<text text-anchor="start" x="246.5" y="-62.5" font-family="Helvetica,sans-Serif" font-size="10.00">+ splitCommaSeperatedHeaderEntry()</text>
<text text-anchor="start" x="246.5" y="-51.5" font-family="Helvetica,sans-Serif" font-size="10.00">+ isWebsocketUpgrade()</text>
<text text-anchor="start" x="246.5" y="-40.5" font-family="Helvetica,sans-Serif" font-size="10.00">+ expectsContinue()</text>
<text text-anchor="start" x="246.5" y="-29.5" font-family="Helvetica,sans-Serif" font-size="10.00">+ contentLength()</text>
<text text-anchor="start" x="246.5" y="-18.5" font-family="Helvetica,sans-Serif" font-size="10.00">&#45; parseTarget()</text>
<text text-anchor="start" x="246.5" y="-7.5" font-family="Helvetica,sans-Serif" font-size="10.00">&#45; parseQuery()</text>
</a>
</g>
</g>
<!-- Node2 -->
<g id="node2" class="node">
<title>Node2</title>
<g id="a_node2"><a xlink:href="classboost_1_1beast_1_1http_1_1request.html" target="_top" xlink:title=" ">
<polygon fill="none" stroke="black" points="0,-216.5 0,-273.5 178,-273.5 178,-216.5 0,-216.5"/>
<text text-anchor="middle" x="89" y="-261.5" font-family="Helvetica,sans-Serif" font-size="10.00">boost::beast::http::request&lt; BodyT &gt;</text>
<polyline fill="none" stroke="black" points="0,-254.5 178,-254.5 "/>
<text text-anchor="middle" x="89" y="-242.5" font-family="Helvetica,sans-Serif" font-size="10.00"> </text>
<polyline fill="none" stroke="black" points="0,-235.5 178,-235.5 "/>
<text text-anchor="middle" x="89" y="-223.5" font-family="Helvetica,sans-Serif" font-size="10.00"> </text>
</a>
</g>
</g>
<!-- Node2&#45;&gt;Node1 -->
<g id="edge1" class="edge">
<title>Node2&#45;&gt;Node1</title>
<path fill="none" stroke="midnightblue" d="M140.92,-210.93C169.33,-192.84 205.35,-169.89 238.31,-148.9"/>
<polygon fill="none" stroke="midnightblue" points="138.92,-208.06 132.36,-216.38 142.68,-213.96 138.92,-208.06"/>
</g>
<!-- Node3 -->
<g id="node3" class="node">
<title>Node3</title>
<g id="a_node3"><a xlink:href="structRoar_1_1Detail_1_1RequestExtensions.html" target="_top" xlink:title=" ">
<polygon fill="none" stroke="black" points="379.5,-216.5 379.5,-273.5 540.5,-273.5 540.5,-216.5 379.5,-216.5"/>
<text text-anchor="middle" x="460" y="-261.5" font-family="Helvetica,sans-Serif" font-size="10.00">Roar::Detail::RequestExtensions</text>
<polyline fill="none" stroke="black" points="379.5,-254.5 540.5,-254.5 "/>
<text text-anchor="middle" x="460" y="-242.5" font-family="Helvetica,sans-Serif" font-size="10.00"> </text>
<polyline fill="none" stroke="black" points="379.5,-235.5 540.5,-235.5 "/>
<text text-anchor="middle" x="460" y="-223.5" font-family="Helvetica,sans-Serif" font-size="10.00"> </text>
</a>
</g>
</g>
<!-- Node3&#45;&gt;Node1 -->
<g id="edge2" class="edge">
<title>Node3&#45;&gt;Node1</title>
<path fill="none" stroke="#8b1a1a" d="M429.92,-208.48C422.17,-199.34 413.5,-189.09 404.57,-178.55"/>
<polygon fill="none" stroke="#8b1a1a" points="427.32,-210.83 436.46,-216.2 432.67,-206.31 427.32,-210.83"/>
</g>
<!-- Node4 -->
<g id="node4" class="node">
<title>Node4</title>
<g id="a_node4"><a xlink:title=" ">
<polygon fill="none" stroke="black" points="142,-321.5 142,-378.5 318,-378.5 318,-321.5 142,-321.5"/>
<text text-anchor="middle" x="230" y="-366.5" font-family="Helvetica,sans-Serif" font-size="10.00">optional&lt; std::vector&lt; std::string &gt; &gt;</text>
<polyline fill="none" stroke="black" points="142,-359.5 318,-359.5 "/>
<text text-anchor="middle" x="230" y="-347.5" font-family="Helvetica,sans-Serif" font-size="10.00"> </text>
<polyline fill="none" stroke="black" points="142,-340.5 318,-340.5 "/>
<text text-anchor="middle" x="230" y="-328.5" font-family="Helvetica,sans-Serif" font-size="10.00"> </text>
</a>
</g>
</g>
<!-- Node4&#45;&gt;Node1 -->
<g id="edge6" class="edge">
<title>Node4&#45;&gt;Node1</title>
<path fill="none" stroke="#404040" d="M231.42,-321.45C233.55,-293.97 238.85,-250.94 252,-216 255.3,-207.22 259.26,-198.39 263.6,-189.7"/>
<polygon fill="none" stroke="#404040" points="263.75,-189.42 262.98,-182.25 269.3,-178.79 270.07,-185.96 263.75,-189.42"/>
<text text-anchor="middle" x="288.5" y="-242.5" font-family="Helvetica,sans-Serif" font-size="10.00"> &#45;regexMatches_</text>
</g>
<!-- Node4&#45;&gt;Node3 -->
<g id="edge3" class="edge">
<title>Node4&#45;&gt;Node3</title>
<path fill="none" stroke="#404040" d="M279.09,-321.43C297.34,-311.63 318.38,-300.84 338,-292 348.68,-287.19 360.03,-282.45 371.34,-277.94"/>
<polygon fill="none" stroke="#404040" points="371.44,-277.9 375.56,-271.98 382.61,-273.51 378.49,-279.43 371.44,-277.9"/>
<text text-anchor="middle" x="376" y="-295" font-family="Helvetica,sans-Serif" font-size="10.00"> +regexMatches_</text>
</g>
<!-- Node5 -->
<g id="node5" class="node">
<title>Node5</title>
<g id="a_node5"><a xlink:title=" ">
<polygon fill="none" stroke="black" points="358.5,-321.5 358.5,-378.5 399.5,-378.5 399.5,-321.5 358.5,-321.5"/>
<text text-anchor="middle" x="379" y="-366.5" font-family="Helvetica,sans-Serif" font-size="10.00">string</text>
<polyline fill="none" stroke="black" points="358.5,-359.5 399.5,-359.5 "/>
<text text-anchor="middle" x="379" y="-347.5" font-family="Helvetica,sans-Serif" font-size="10.00"> </text>
<polyline fill="none" stroke="black" points="358.5,-340.5 399.5,-340.5 "/>
<text text-anchor="middle" x="379" y="-328.5" font-family="Helvetica,sans-Serif" font-size="10.00"> </text>
</a>
</g>
</g>
<!-- Node5&#45;&gt;Node1 -->
<g id="edge7" class="edge">
<title>Node5&#45;&gt;Node1</title>
<path fill="none" stroke="#404040" d="M360.49,-321.4C352.35,-307.74 343.6,-290.64 339,-274 331.68,-247.49 328.27,-218.01 326.96,-190.58"/>
<polygon fill="none" stroke="#404040" points="326.96,-190.55 322.74,-184.7 326.52,-178.55 330.74,-184.4 326.96,-190.55"/>
<text text-anchor="middle" x="354.5" y="-242.5" font-family="Helvetica,sans-Serif" font-size="10.00"> &#45;path_</text>
</g>
<!-- Node5&#45;&gt;Node3 -->
<g id="edge4" class="edge">
<title>Node5&#45;&gt;Node3</title>
<path fill="none" stroke="#404040" d="M399.65,-322.74C409.06,-310.77 420.37,-296.39 430.65,-283.32"/>
<polygon fill="none" stroke="#404040" points="430.84,-283.08 431.4,-275.89 438.26,-273.65 437.69,-280.84 430.84,-283.08"/>
<text text-anchor="middle" x="439" y="-295" font-family="Helvetica,sans-Serif" font-size="10.00"> +path_</text>
</g>
<!-- Node6 -->
<g id="node6" class="node">
<title>Node6</title>
<g id="a_node6"><a xlink:title=" ">
<polygon fill="none" stroke="black" points="449,-321.5 449,-378.5 643,-378.5 643,-321.5 449,-321.5"/>
<text text-anchor="middle" x="546" y="-366.5" font-family="Helvetica,sans-Serif" font-size="10.00">unordered_map&lt; std::string, std::string &gt;</text>
<polyline fill="none" stroke="black" points="449,-359.5 643,-359.5 "/>
<text text-anchor="middle" x="546" y="-347.5" font-family="Helvetica,sans-Serif" font-size="10.00"> </text>
<polyline fill="none" stroke="black" points="449,-340.5 643,-340.5 "/>
<text text-anchor="middle" x="546" y="-328.5" font-family="Helvetica,sans-Serif" font-size="10.00"> </text>
</a>
</g>
</g>
<!-- Node6&#45;&gt;Node1 -->
<g id="edge8" class="edge">
<title>Node6&#45;&gt;Node1</title>
<path fill="none" stroke="#404040" d="M554.82,-321.46C562.2,-293.03 568.8,-248.36 550,-216 524.45,-172.01 477.06,-142.15 432.79,-122.63"/>
<polygon fill="none" stroke="#404040" points="432.66,-122.57 425.58,-123.91 421.62,-117.89 428.7,-116.55 432.66,-122.57"/>
<text text-anchor="middle" x="580" y="-242.5" font-family="Helvetica,sans-Serif" font-size="10.00"> &#45;query_</text>
</g>
<!-- Node6&#45;&gt;Node3 -->
<g id="edge5" class="edge">
<title>Node6&#45;&gt;Node3</title>
<path fill="none" stroke="#404040" d="M522.95,-321.4C513.12,-309.62 501.5,-295.7 490.94,-283.05"/>
<polygon fill="none" stroke="#404040" points="490.8,-282.89 483.89,-280.85 483.11,-273.68 490.03,-275.72 490.8,-282.89"/>
<text text-anchor="middle" x="524.5" y="-295" font-family="Helvetica,sans-Serif" font-size="10.00"> +query_</text>
</g>
</g>
</svg>
