<?xml version="1.0" encoding="UTF-8" standalone="no"?>
<!DOCTYPE svg PUBLIC "-//W3C//DTD SVG 1.1//EN"
 "http://www.w3.org/Graphics/SVG/1.1/DTD/svg11.dtd">
<!-- Generated by graphviz version 8.1.0 (0)
 -->
<!-- Title: Roar::Route Pages: 1 -->
<svg width="209pt" height="208pt"
 viewBox="0.00 0.00 209.00 208.00" xmlns="http://www.w3.org/2000/svg" xmlns:xlink="http://www.w3.org/1999/xlink">
<g id="graph0" class="graph" transform="scale(1 1) rotate(0) translate(4 204)">
<title>Roar::Route</title>
<!-- Node1 -->
<g id="Node000001" class="node">
<title>Node1</title>
<g id="a_Node000001"><a xlink:title="A route represents the mapping of a verb+path to a user provided function.">
<polygon fill="#999999" stroke="none" points="201,-100 0,-100 0,0 201,0 201,-100"/>
<text text-anchor="start" x="73.88" y="-86.5" font-family="Helvetica,sans-Serif" font-size="10.00">Roar::Route</text>
<text text-anchor="start" x="99" y="-70.5" font-family="Helvetica,sans-Serif" font-size="10.00"> </text>
<text text-anchor="start" x="4" y="-54.5" font-family="Helvetica,sans-Serif" font-size="10.00">+</text>
<text text-anchor="start" x="14" y="-54.5" font-family="Helvetica,sans-Serif" font-size="10.00">Route()</text>
<text text-anchor="start" x="4" y="-38.5" font-family="Helvetica,sans-Serif" font-size="10.00">+</text>
<text text-anchor="start" x="14" y="-38.5" font-family="Helvetica,sans-Serif" font-size="10.00">ROAR_PIMPL_SPECIAL_FUNCTIONS()</text>
<text text-anchor="start" x="4" y="-22.5" font-family="Helvetica,sans-Serif" font-size="10.00">+</text>
<text text-anchor="start" x="14" y="-22.5" font-family="Helvetica,sans-Serif" font-size="10.00">operator()()</text>
<text text-anchor="start" x="4" y="-6.5" font-family="Helvetica,sans-Serif" font-size="10.00">+</text>
<text text-anchor="start" x="14" y="-6.5" font-family="Helvetica,sans-Serif" font-size="10.00">matches()</text>
<polygon fill="#666666" stroke="#666666" points="0,-82 0,-82 201,-82 201,-82 0,-82"/>
<polygon fill="#666666" stroke="#666666" points="0,-66 0,-66 201,-66 201,-66 0,-66"/>
<polygon fill="none" stroke="#666666" points="0,0 0,-100 201,-100 201,0 0,0"/>
</a>
</g>
</g>
<!-- Node2 -->
<g id="Node000002" class="node">
<title>Node2</title>
<g id="a_Node000002"><a xlink:title=" ">
<polygon fill="white" stroke="none" points="200,-200 1,-200 1,-148 200,-148 200,-200"/>
<text text-anchor="start" x="6" y="-186.5" font-family="Helvetica,sans-Serif" font-size="10.00">unique_ptr&lt; Roar::Route::Implementation &gt;</text>
<text text-anchor="start" x="99" y="-170.5" font-family="Helvetica,sans-Serif" font-size="10.00"> </text>
<text text-anchor="start" x="99" y="-154.5" font-family="Helvetica,sans-Serif" font-size="10.00"> </text>
<polygon fill="#666666" stroke="#666666" points="1,-182 1,-182 200,-182 200,-182 1,-182"/>
<polygon fill="#666666" stroke="#666666" points="1,-166 1,-166 200,-166 200,-166 1,-166"/>
<polygon fill="none" stroke="#666666" points="1,-148 1,-200 200,-200 200,-148 1,-148"/>
</a>
</g>
</g>
<!-- Node2&#45;&gt;Node1 -->
<g id="edge1_Node000001_Node000002" class="edge">
<title>Node2&#45;&gt;Node1</title>
<g id="a_edge1_Node000001_Node000002"><a xlink:title=" ">
<path fill="none" stroke="#63b8ff" d="M100.5,-148.02C100.5,-137.67 100.5,-125.17 100.5,-112.63"/>
<polygon fill="none" stroke="#63b8ff" points="100.5,-112.54 96.5,-106.54 100.5,-100.54 104.5,-106.54 100.5,-112.54"/>
</a>
</g>
<text text-anchor="middle" x="115.12" y="-120.5" font-family="Helvetica,sans-Serif" font-size="10.00" fill="grey"> &#45;impl_</text>
</g>
</g>
</svg>
