<?xml version="1.0" encoding="UTF-8" standalone="no"?>
<!DOCTYPE svg PUBLIC "-//W3C//DTD SVG 1.1//EN"
 "http://www.w3.org/Graphics/SVG/1.1/DTD/svg11.dtd">
<!-- Generated by graphviz version 8.1.0 (0)
 -->
<!-- Title: Roar::Session Pages: 1 -->
<svg width="600pt" height="476pt"
 viewBox="0.00 0.00 599.50 476.00" xmlns="http://www.w3.org/2000/svg" xmlns:xlink="http://www.w3.org/1999/xlink">
<g id="graph0" class="graph" transform="scale(1 1) rotate(0) translate(4 472)">
<title>Roar::Session</title>
<!-- Node1 -->
<g id="Node000001" class="node">
<title>Node1</title>
<g id="a_Node000001"><a xlink:title=" ">
<polygon fill="#999999" stroke="none" points="387,-356 186,-356 186,0 387,0 387,-356"/>
<text text-anchor="start" x="255.38" y="-342.5" font-family="Helvetica,sans-Serif" font-size="10.00">Roar::Session</text>
<text text-anchor="start" x="285" y="-326.5" font-family="Helvetica,sans-Serif" font-size="10.00"> </text>
<text text-anchor="start" x="190" y="-310.5" font-family="Helvetica,sans-Serif" font-size="10.00">+</text>
<text text-anchor="start" x="200" y="-310.5" font-family="Helvetica,sans-Serif" font-size="10.00">Session()</text>
<text text-anchor="start" x="190" y="-294.5" font-family="Helvetica,sans-Serif" font-size="10.00">+</text>
<text text-anchor="start" x="200" y="-294.5" font-family="Helvetica,sans-Serif" font-size="10.00">ROAR_PIMPL_SPECIAL_FUNCTIONS()</text>
<text text-anchor="start" x="190" y="-278.5" font-family="Helvetica,sans-Serif" font-size="10.00">+</text>
<text text-anchor="start" x="200" y="-278.5" font-family="Helvetica,sans-Serif" font-size="10.00">close()</text>
<text text-anchor="start" x="190" y="-262.5" font-family="Helvetica,sans-Serif" font-size="10.00">+</text>
<text text-anchor="start" x="200" y="-262.5" font-family="Helvetica,sans-Serif" font-size="10.00">send()</text>
<text text-anchor="start" x="190" y="-246.5" font-family="Helvetica,sans-Serif" font-size="10.00">+</text>
<text text-anchor="start" x="200" y="-246.5" font-family="Helvetica,sans-Serif" font-size="10.00">send()</text>
<text text-anchor="start" x="190" y="-230.5" font-family="Helvetica,sans-Serif" font-size="10.00">+</text>
<text text-anchor="start" x="200" y="-230.5" font-family="Helvetica,sans-Serif" font-size="10.00">send()</text>
<text text-anchor="start" x="190" y="-214.5" font-family="Helvetica,sans-Serif" font-size="10.00">+</text>
<text text-anchor="start" x="200" y="-214.5" font-family="Helvetica,sans-Serif" font-size="10.00">sendWithAllAcceptedCors()</text>
<text text-anchor="start" x="190" y="-198.5" font-family="Helvetica,sans-Serif" font-size="10.00">+</text>
<text text-anchor="start" x="200" y="-198.5" font-family="Helvetica,sans-Serif" font-size="10.00">send()</text>
<text text-anchor="start" x="190" y="-182.5" font-family="Helvetica,sans-Serif" font-size="10.00">+</text>
<text text-anchor="start" x="200" y="-182.5" font-family="Helvetica,sans-Serif" font-size="10.00">readLimit()</text>
<text text-anchor="start" x="190" y="-166.5" font-family="Helvetica,sans-Serif" font-size="10.00">+</text>
<text text-anchor="start" x="200" y="-166.5" font-family="Helvetica,sans-Serif" font-size="10.00">writeLimit()</text>
<text text-anchor="start" x="200" y="-150.5" font-family="Helvetica,sans-Serif" font-size="10.00">and 10 more...</text>
<text text-anchor="start" x="191.5" y="-134.5" font-family="Helvetica,sans-Serif" font-size="10.00">&#45;</text>
<text text-anchor="start" x="200" y="-134.5" font-family="Helvetica,sans-Serif" font-size="10.00">setupRouteOptions()</text>
<text text-anchor="start" x="191.5" y="-118.5" font-family="Helvetica,sans-Serif" font-size="10.00">&#45;</text>
<text text-anchor="start" x="200" y="-118.5" font-family="Helvetica,sans-Serif" font-size="10.00">readHeader()</text>
<text text-anchor="start" x="191.5" y="-102.5" font-family="Helvetica,sans-Serif" font-size="10.00">&#45;</text>
<text text-anchor="start" x="200" y="-102.5" font-family="Helvetica,sans-Serif" font-size="10.00">performSslHandshake()</text>
<text text-anchor="start" x="191.5" y="-86.5" font-family="Helvetica,sans-Serif" font-size="10.00">&#45;</text>
<text text-anchor="start" x="200" y="-86.5" font-family="Helvetica,sans-Serif" font-size="10.00">onWriteComplete()</text>
<text text-anchor="start" x="191.5" y="-70.5" font-family="Helvetica,sans-Serif" font-size="10.00">&#45;</text>
<text text-anchor="start" x="200" y="-70.5" font-family="Helvetica,sans-Serif" font-size="10.00">stream()</text>
<text text-anchor="start" x="191.5" y="-54.5" font-family="Helvetica,sans-Serif" font-size="10.00">&#45;</text>
<text text-anchor="start" x="200" y="-54.5" font-family="Helvetica,sans-Serif" font-size="10.00">parser()</text>
<text text-anchor="start" x="191.5" y="-38.5" font-family="Helvetica,sans-Serif" font-size="10.00">&#45;</text>
<text text-anchor="start" x="200" y="-38.5" font-family="Helvetica,sans-Serif" font-size="10.00">buffer()</text>
<text text-anchor="start" x="191.5" y="-22.5" font-family="Helvetica,sans-Serif" font-size="10.00">&#45;</text>
<text text-anchor="start" x="200" y="-22.5" font-family="Helvetica,sans-Serif" font-size="10.00">standardResponseProvider()</text>
<text text-anchor="start" x="191.5" y="-6.5" font-family="Helvetica,sans-Serif" font-size="10.00">&#45;</text>
<text text-anchor="start" x="200" y="-6.5" font-family="Helvetica,sans-Serif" font-size="10.00">startup()</text>
<polygon fill="#666666" stroke="#666666" points="186,-338 186,-338 387,-338 387,-338 186,-338"/>
<polygon fill="#666666" stroke="#666666" points="186,-322 186,-322 387,-322 387,-322 186,-322"/>
<polygon fill="none" stroke="#666666" points="186,0 186,-356 387,-356 387,0 186,0"/>
</a>
</g>
</g>
<!-- Node2 -->
<g id="Node000002" class="node">
<title>Node2</title>
<g id="a_Node000002"><a xlink:title=" ">
<polygon fill="white" stroke="none" points="191,-468 0,-468 0,-416 191,-416 191,-468"/>
<text text-anchor="start" x="4.75" y="-454.5" font-family="Helvetica,sans-Serif" font-size="10.00">std::enable_shared_from_this&lt; Session &gt;</text>
<text text-anchor="start" x="94" y="-438.5" font-family="Helvetica,sans-Serif" font-size="10.00"> </text>
<text text-anchor="start" x="94" y="-422.5" font-family="Helvetica,sans-Serif" font-size="10.00"> </text>
<polygon fill="#666666" stroke="#666666" points="0,-450 0,-450 191,-450 191,-450 0,-450"/>
<polygon fill="#666666" stroke="#666666" points="0,-434 0,-434 191,-434 191,-434 0,-434"/>
<polygon fill="none" stroke="#666666" points="0,-416 0,-468 191,-468 191,-416 0,-416"/>
</a>
</g>
</g>
<!-- Node2&#45;&gt;Node1 -->
<g id="edge1_Node000001_Node000002" class="edge">
<title>Node2&#45;&gt;Node1</title>
<g id="a_edge1_Node000001_Node000002"><a xlink:title=" ">
<path fill="none" stroke="#63b8ff" d="M119.93,-407.49C137.14,-383.88 161.43,-350.56 186.17,-316.63"/>
<polygon fill="none" stroke="#63b8ff" points="116.53,-405.21 113.47,-415.35 122.19,-409.33 116.53,-405.21"/>
</a>
</g>
</g>
<!-- Node3 -->
<g id="Node000003" class="node">
<title>Node3</title>
<g id="a_Node000003"><a xlink:title=" ">
<polygon fill="white" stroke="none" points="253.5,-468 209.5,-468 209.5,-416 253.5,-416 253.5,-468"/>
<text text-anchor="start" x="214.25" y="-454.5" font-family="Helvetica,sans-Serif" font-size="10.00">uint64_t</text>
<text text-anchor="start" x="230" y="-438.5" font-family="Helvetica,sans-Serif" font-size="10.00"> </text>
<text text-anchor="start" x="230" y="-422.5" font-family="Helvetica,sans-Serif" font-size="10.00"> </text>
<polygon fill="#666666" stroke="#666666" points="209.5,-450 209.5,-450 253.5,-450 253.5,-450 209.5,-450"/>
<polygon fill="#666666" stroke="#666666" points="209.5,-434 209.5,-434 253.5,-434 253.5,-434 209.5,-434"/>
<polygon fill="none" stroke="#666666" points="209.5,-416 209.5,-468 253.5,-468 253.5,-416 209.5,-416"/>
</a>
</g>
</g>
<!-- Node3&#45;&gt;Node1 -->
<g id="edge2_Node000001_Node000003" class="edge">
<title>Node3&#45;&gt;Node1</title>
<g id="a_edge2_Node000001_Node000003"><a xlink:title=" ">
<path fill="none" stroke="#63b8ff" d="M230.49,-416.06C230.35,-403.4 230.75,-387.82 232.75,-374 233.01,-372.22 233.28,-370.43 233.56,-368.64"/>
<polygon fill="none" stroke="#63b8ff" points="233.57,-368.54 230.62,-361.96 235.56,-356.71 238.51,-363.29 233.57,-368.54"/>
</a>
</g>
<text text-anchor="middle" x="277.38" y="-388.5" font-family="Helvetica,sans-Serif" font-size="10.00" fill="grey"> +defaultBodyLimit</text>
<text text-anchor="middle" x="277.38" y="-376.5" font-family="Helvetica,sans-Serif" font-size="10.00" fill="grey">+defaultHeaderLimit</text>
</g>
<!-- Node4 -->
<g id="Node000004" class="node">
<title>Node4</title>
<g id="a_Node000004"><a xlink:title=" ">
<polygon fill="white" stroke="none" points="365.5,-468 319.5,-468 319.5,-416 365.5,-416 365.5,-468"/>
<text text-anchor="start" x="324.12" y="-454.5" font-family="Helvetica,sans-Serif" font-size="10.00">seconds</text>
<text text-anchor="start" x="341" y="-438.5" font-family="Helvetica,sans-Serif" font-size="10.00"> </text>
<text text-anchor="start" x="341" y="-422.5" font-family="Helvetica,sans-Serif" font-size="10.00"> </text>
<polygon fill="#666666" stroke="#666666" points="319.5,-450 319.5,-450 365.5,-450 365.5,-450 319.5,-450"/>
<polygon fill="#666666" stroke="#666666" points="319.5,-434 319.5,-434 365.5,-434 365.5,-434 319.5,-434"/>
<polygon fill="none" stroke="#666666" points="319.5,-416 319.5,-468 365.5,-468 365.5,-416 319.5,-416"/>
</a>
</g>
</g>
<!-- Node4&#45;&gt;Node1 -->
<g id="edge3_Node000001_Node000004" class="edge">
<title>Node4&#45;&gt;Node1</title>
<g id="a_edge3_Node000001_Node000004"><a xlink:title=" ">
<path fill="none" stroke="#63b8ff" d="M337.23,-416.35C334.53,-403.71 330.97,-387.05 326.98,-368.4"/>
<polygon fill="none" stroke="#63b8ff" points="327,-368.5 321.84,-363.47 324.5,-356.76 329.66,-361.79 327,-368.5"/>
</a>
</g>
<text text-anchor="middle" x="371.5" y="-382.5" font-family="Helvetica,sans-Serif" font-size="10.00" fill="grey"> +sessionTimeout</text>
</g>
<!-- Node5 -->
<g id="Node000005" class="node">
<title>Node5</title>
<g id="a_Node000005"><a xlink:title=" ">
<polygon fill="white" stroke="none" points="591.5,-468 383.5,-468 383.5,-416 591.5,-416 591.5,-468"/>
<text text-anchor="start" x="388.5" y="-454.5" font-family="Helvetica,sans-Serif" font-size="10.00">unique_ptr&lt; Roar::Session::Implementation &gt;</text>
<text text-anchor="start" x="486" y="-438.5" font-family="Helvetica,sans-Serif" font-size="10.00"> </text>
<text text-anchor="start" x="486" y="-422.5" font-family="Helvetica,sans-Serif" font-size="10.00"> </text>
<polygon fill="#666666" stroke="#666666" points="383.5,-450 383.5,-450 591.5,-450 591.5,-450 383.5,-450"/>
<polygon fill="#666666" stroke="#666666" points="383.5,-434 383.5,-434 591.5,-434 591.5,-434 383.5,-434"/>
<polygon fill="none" stroke="#666666" points="383.5,-416 383.5,-468 591.5,-468 591.5,-416 383.5,-416"/>
</a>
</g>
</g>
<!-- Node5&#45;&gt;Node1 -->
<g id="edge4_Node000001_Node000005" class="edge">
<title>Node5&#45;&gt;Node1</title>
<g id="a_edge4_Node000001_Node000005"><a xlink:title=" ">
<path fill="none" stroke="#63b8ff" d="M468.59,-416.35C450.96,-393.37 423.15,-357.13 394.53,-319.81"/>
<polygon fill="none" stroke="#63b8ff" points="394.69,-320.03 387.87,-317.7 387.39,-310.51 394.21,-312.83 394.69,-320.03"/>
</a>
</g>
<text text-anchor="middle" x="468.12" y="-382.5" font-family="Helvetica,sans-Serif" font-size="10.00" fill="grey"> &#45;impl_</text>
</g>
</g>
</svg>
