<?xml version="1.0" encoding="UTF-8" standalone="no"?>
<!DOCTYPE svg PUBLIC "-//W3C//DTD SVG 1.1//EN"
 "http://www.w3.org/Graphics/SVG/1.1/DTD/svg11.dtd">
<!-- Generated by graphviz version 2.44.1 (20211215.1903)
 -->
<!-- Title: Roar::Session::SendIntermediate&lt; BodyT &gt; Pages: 1 -->
<svg width="581pt" height="303pt"
 viewBox="0.00 0.00 580.50 303.00" xmlns="http://www.w3.org/2000/svg" xmlns:xlink="http://www.w3.org/1999/xlink">
<g id="graph0" class="graph" transform="scale(1 1) rotate(0) translate(4 299)">
<title>Roar::Session::SendIntermediate&lt; BodyT &gt;</title>
<!-- Node1 -->
<g id="node1" class="node">
<title>Node1</title>
<g id="a_node1"><a xlink:title="Helper class to prepare and send a response.">
<polygon fill="#bfbfbf" stroke="black" points="272,-0.5 272,-189.5 480,-189.5 480,-0.5 272,-0.5"/>
<text text-anchor="middle" x="376" y="-177.5" font-family="Helvetica,sans-Serif" font-size="10.00">Roar::Session::SendIntermediate&lt; BodyT &gt;</text>
<polyline fill="none" stroke="black" points="272,-170.5 480,-170.5 "/>
<text text-anchor="middle" x="376" y="-158.5" font-family="Helvetica,sans-Serif" font-size="10.00"> </text>
<polyline fill="none" stroke="black" points="272,-151.5 480,-151.5 "/>
<text text-anchor="start" x="280" y="-139.5" font-family="Helvetica,sans-Serif" font-size="10.00">+ SendIntermediate()</text>
<text text-anchor="start" x="280" y="-128.5" font-family="Helvetica,sans-Serif" font-size="10.00">+ SendIntermediate()</text>
<text text-anchor="start" x="280" y="-117.5" font-family="Helvetica,sans-Serif" font-size="10.00">+ SendIntermediate()</text>
<text text-anchor="start" x="280" y="-106.5" font-family="Helvetica,sans-Serif" font-size="10.00">+ operator=()</text>
<text text-anchor="start" x="280" y="-95.5" font-family="Helvetica,sans-Serif" font-size="10.00">+ operator=()</text>
<text text-anchor="start" x="280" y="-84.5" font-family="Helvetica,sans-Serif" font-size="10.00">+ status()</text>
<text text-anchor="start" x="280" y="-73.5" font-family="Helvetica,sans-Serif" font-size="10.00">+ body()</text>
<text text-anchor="start" x="280" y="-62.5" font-family="Helvetica,sans-Serif" font-size="10.00">+ body()</text>
<text text-anchor="start" x="280" y="-51.5" font-family="Helvetica,sans-Serif" font-size="10.00">+ chunked()</text>
<text text-anchor="start" x="280" y="-40.5" font-family="Helvetica,sans-Serif" font-size="10.00">+ contentType()</text>
<text text-anchor="start" x="280" y="-29.5" font-family="Helvetica,sans-Serif" font-size="10.00">+ setHeader()</text>
<text text-anchor="start" x="280" y="-18.5" font-family="Helvetica,sans-Serif" font-size="10.00">+ enableCors()</text>
<text text-anchor="start" x="280" y="-7.5" font-family="Helvetica,sans-Serif" font-size="10.00">+ commit()</text>
</a>
</g>
</g>
<!-- Node2 -->
<g id="node2" class="node">
<title>Node2</title>
<g id="a_node2"><a xlink:title=" ">
<polygon fill="none" stroke="black" points="0,-237.5 0,-294.5 286,-294.5 286,-237.5 0,-237.5"/>
<text text-anchor="middle" x="143" y="-282.5" font-family="Helvetica,sans-Serif" font-size="10.00">std::enable_shared_from_this&lt; SendIntermediate&lt; BodyT &gt; &gt;</text>
<polyline fill="none" stroke="black" points="0,-275.5 286,-275.5 "/>
<text text-anchor="middle" x="143" y="-263.5" font-family="Helvetica,sans-Serif" font-size="10.00"> </text>
<polyline fill="none" stroke="black" points="0,-256.5 286,-256.5 "/>
<text text-anchor="middle" x="143" y="-244.5" font-family="Helvetica,sans-Serif" font-size="10.00"> </text>
</a>
</g>
</g>
<!-- Node2&#45;&gt;Node1 -->
<g id="edge1" class="edge">
<title>Node2&#45;&gt;Node1</title>
<path fill="none" stroke="midnightblue" d="M189.09,-231.57C212.88,-214.32 242.93,-192.52 271.93,-171.48"/>
<polygon fill="none" stroke="midnightblue" points="186.99,-228.77 180.95,-237.47 191.1,-234.43 186.99,-228.77"/>
</g>
<!-- Node3 -->
<g id="node3" class="node">
<title>Node3</title>
<g id="a_node3"><a xlink:title=" ">
<polygon fill="none" stroke="black" points="304.5,-237.5 304.5,-294.5 447.5,-294.5 447.5,-237.5 304.5,-237.5"/>
<text text-anchor="middle" x="376" y="-282.5" font-family="Helvetica,sans-Serif" font-size="10.00">shared_ptr&lt; Roar::Session &gt;</text>
<polyline fill="none" stroke="black" points="304.5,-275.5 447.5,-275.5 "/>
<text text-anchor="middle" x="376" y="-263.5" font-family="Helvetica,sans-Serif" font-size="10.00"> </text>
<polyline fill="none" stroke="black" points="304.5,-256.5 447.5,-256.5 "/>
<text text-anchor="middle" x="376" y="-244.5" font-family="Helvetica,sans-Serif" font-size="10.00"> </text>
</a>
</g>
</g>
<!-- Node3&#45;&gt;Node1 -->
<g id="edge2" class="edge">
<title>Node3&#45;&gt;Node1</title>
<path fill="none" stroke="#404040" d="M376,-237.47C376,-227.23 376,-214.9 376,-201.84"/>
<polygon fill="none" stroke="#404040" points="376,-201.69 372,-195.69 376,-189.69 380,-195.69 376,-201.69"/>
<text text-anchor="middle" x="399" y="-211" font-family="Helvetica,sans-Serif" font-size="10.00"> &#45;session_</text>
</g>
<!-- Node4 -->
<g id="node4" class="node">
<title>Node4</title>
<g id="a_node4"><a xlink:title=" ">
<polygon fill="none" stroke="black" points="465.5,-237.5 465.5,-294.5 572.5,-294.5 572.5,-237.5 465.5,-237.5"/>
<text text-anchor="middle" x="519" y="-282.5" font-family="Helvetica,sans-Serif" font-size="10.00">Response&lt; BodyT &gt;</text>
<polyline fill="none" stroke="black" points="465.5,-275.5 572.5,-275.5 "/>
<text text-anchor="middle" x="519" y="-263.5" font-family="Helvetica,sans-Serif" font-size="10.00"> </text>
<polyline fill="none" stroke="black" points="465.5,-256.5 572.5,-256.5 "/>
<text text-anchor="middle" x="519" y="-244.5" font-family="Helvetica,sans-Serif" font-size="10.00"> </text>
</a>
</g>
</g>
<!-- Node4&#45;&gt;Node1 -->
<g id="edge3" class="edge">
<title>Node4&#45;&gt;Node1</title>
<path fill="none" stroke="#404040" d="M495.71,-237.47C486.42,-226.5 475.11,-213.13 463.18,-199.04"/>
<polygon fill="none" stroke="#404040" points="463.02,-198.85 456.1,-196.85 455.27,-189.69 462.2,-191.68 463.02,-198.85"/>
<text text-anchor="middle" x="502" y="-211" font-family="Helvetica,sans-Serif" font-size="10.00"> &#45;response_</text>
</g>
</g>
</svg>
