<?xml version="1.0" encoding="UTF-8" standalone="no"?>
<!DOCTYPE svg PUBLIC "-//W3C//DTD SVG 1.1//EN"
 "http://www.w3.org/Graphics/SVG/1.1/DTD/svg11.dtd">
<!-- Generated by graphviz version 2.44.1 (20211215.1903)
 -->
<!-- Title: Roar::Router Pages: 1 -->
<svg width="428pt" height="204pt"
 viewBox="0.00 0.00 427.50 204.00" xmlns="http://www.w3.org/2000/svg" xmlns:xlink="http://www.w3.org/1999/xlink">
<g id="graph0" class="graph" transform="scale(1 1) rotate(0) translate(4 200)">
<title>Roar::Router</title>
<!-- Node1 -->
<g id="node1" class="node">
<title>Node1</title>
<g id="a_node1"><a xlink:title="The route routes http requests to their respective handler functions.">
<polygon fill="#bfbfbf" stroke="black" points="100.5,-0.5 100.5,-90.5 309.5,-90.5 309.5,-0.5 100.5,-0.5"/>
<text text-anchor="middle" x="205" y="-78.5" font-family="Helvetica,sans-Serif" font-size="10.00">Roar::Router</text>
<polyline fill="none" stroke="black" points="100.5,-71.5 309.5,-71.5 "/>
<text text-anchor="middle" x="205" y="-59.5" font-family="Helvetica,sans-Serif" font-size="10.00"> </text>
<polyline fill="none" stroke="black" points="100.5,-52.5 309.5,-52.5 "/>
<text text-anchor="start" x="108.5" y="-40.5" font-family="Helvetica,sans-Serif" font-size="10.00">+ Router()</text>
<text text-anchor="start" x="108.5" y="-29.5" font-family="Helvetica,sans-Serif" font-size="10.00">+ ROAR_PIMPL_SPECIAL_FUNCTIONS()</text>
<text text-anchor="start" x="108.5" y="-18.5" font-family="Helvetica,sans-Serif" font-size="10.00">+ addRoutes()</text>
<text text-anchor="start" x="108.5" y="-7.5" font-family="Helvetica,sans-Serif" font-size="10.00">+ followRoute()</text>
</a>
</g>
</g>
<!-- Node2 -->
<g id="node2" class="node">
<title>Node2</title>
<g id="a_node2"><a xlink:title=" ">
<polygon fill="none" stroke="black" points="0,-138.5 0,-195.5 192,-195.5 192,-138.5 0,-138.5"/>
<text text-anchor="middle" x="96" y="-183.5" font-family="Helvetica,sans-Serif" font-size="10.00">std::enable_shared_from_this&lt; Router &gt;</text>
<polyline fill="none" stroke="black" points="0,-176.5 192,-176.5 "/>
<text text-anchor="middle" x="96" y="-164.5" font-family="Helvetica,sans-Serif" font-size="10.00"> </text>
<polyline fill="none" stroke="black" points="0,-157.5 192,-157.5 "/>
<text text-anchor="middle" x="96" y="-145.5" font-family="Helvetica,sans-Serif" font-size="10.00"> </text>
</a>
</g>
</g>
<!-- Node2&#45;&gt;Node1 -->
<g id="edge1" class="edge">
<title>Node2&#45;&gt;Node1</title>
<path fill="none" stroke="midnightblue" d="M128.15,-130.76C139.53,-118.27 152.5,-104.06 164.49,-90.91"/>
<polygon fill="none" stroke="midnightblue" points="125.43,-128.54 121.28,-138.28 130.61,-133.25 125.43,-128.54"/>
</g>
<!-- Node3 -->
<g id="node3" class="node">
<title>Node3</title>
<g id="a_node3"><a xlink:title=" ">
<polygon fill="none" stroke="black" points="210.5,-138.5 210.5,-195.5 419.5,-195.5 419.5,-138.5 210.5,-138.5"/>
<text text-anchor="middle" x="315" y="-183.5" font-family="Helvetica,sans-Serif" font-size="10.00">unique_ptr&lt; Roar::Router::Implementation &gt;</text>
<polyline fill="none" stroke="black" points="210.5,-176.5 419.5,-176.5 "/>
<text text-anchor="middle" x="315" y="-164.5" font-family="Helvetica,sans-Serif" font-size="10.00"> </text>
<polyline fill="none" stroke="black" points="210.5,-157.5 419.5,-157.5 "/>
<text text-anchor="middle" x="315" y="-145.5" font-family="Helvetica,sans-Serif" font-size="10.00"> </text>
</a>
</g>
</g>
<!-- Node3&#45;&gt;Node1 -->
<g id="edge2" class="edge">
<title>Node3&#45;&gt;Node1</title>
<path fill="none" stroke="#404040" d="M289.49,-138.28C278.97,-126.86 266.4,-113.21 254.22,-99.97"/>
<polygon fill="none" stroke="#404040" points="254.01,-99.74 247,-98.04 245.88,-90.91 252.89,-92.62 254.01,-99.74"/>
<text text-anchor="middle" x="285" y="-112" font-family="Helvetica,sans-Serif" font-size="10.00"> &#45;impl_</text>
</g>
</g>
</svg>
