<?xml version="1.0" encoding="UTF-8" standalone="no"?>
<!DOCTYPE svg PUBLIC "-//W3C//DTD SVG 1.1//EN"
 "http://www.w3.org/Graphics/SVG/1.1/DTD/svg11.dtd">
<!-- Generated by graphviz version 2.44.1 (20211215.1903)
 -->
<!-- Title: Roar::WebsocketSession Pages: 1 -->
<!--zoomable 524 -->
<svg id="main" version="1.1" xmlns="http://www.w3.org/2000/svg" xmlns:xlink="http://www.w3.org/1999/xlink" xml:space="preserve" onload="init(evt)">
<style type="text/css"><![CDATA[
.edge:hover path { stroke: red; }
.edge:hover polygon { stroke: red; fill: red; }
]]></style>
<script type="text/javascript"><![CDATA[
var edges = document.getElementsByTagName('g');
if (edges && edges.length) {
  for (var i=0;i<edges.length;i++) {
    if (edges[i].id.substr(0,4)=='edge') {
      edges[i].setAttribute('class','edge');
    }
  }
}
]]></script>
        <defs>
                <circle id="rim" cx="0" cy="0" r="7"/>
                <circle id="rim2" cx="0" cy="0" r="3.5"/>
                <g id="zoomPlus">
                        <use xlink:href="#rim" fill="#404040">
                                <set attributeName="fill" to="#808080" begin="zoomplus.mouseover" end="zoomplus.mouseout"/>
                        </use>
                        <path d="M-4,0h8M0,-4v8" fill="none" stroke="white" stroke-width="1.5" pointer-events="none"/>
                </g>
                <g id="zoomMin">
                        <use xlink:href="#rim" fill="#404040">
                                <set attributeName="fill" to="#808080" begin="zoomminus.mouseover" end="zoomminus.mouseout"/>
                        </use>
                        <path d="M-4,0h8" fill="none" stroke="white" stroke-width="1.5" pointer-events="none"/>
                </g>
                <g id="dirArrow">
                        <path fill="none" stroke="white" stroke-width="1.5" d="M0,-3.0v7 M-2.5,-0.5L0,-3.0L2.5,-0.5"/>
                </g>
               <g id="resetDef">
                       <use xlink:href="#rim2" fill="#404040">
                               <set attributeName="fill" to="#808080" begin="reset.mouseover" end="reset.mouseout"/>
                       </use>
               </g>
        </defs>

<script type="text/javascript">
var viewWidth = 1016;
var viewHeight = 524;
var sectionId = 'dynsection-0';
</script>
<script xlink:href="svgpan.js"/>
<svg id="graph" class="graph">
<g id="viewport">
<title>Roar::WebsocketSession</title>
<!-- Node1 -->
<g id="node1" class="node">
<title>Node1</title>
<g id="a_node1"><a xlink:title="A WebsocketSession allows you to interact with a client via websocket protocol.">
<polygon fill="#bfbfbf" stroke="black" points="586.5,-0.5 586.5,-79.5 849.5,-79.5 849.5,-0.5 586.5,-0.5"/>
<text text-anchor="middle" x="718" y="-67.5" font-family="Helvetica,sans-Serif" font-size="10.00">Roar::WebsocketSession</text>
<polyline fill="none" stroke="black" points="586.5,-60.5 849.5,-60.5 "/>
<text text-anchor="middle" x="718" y="-48.5" font-family="Helvetica,sans-Serif" font-size="10.00"> </text>
<polyline fill="none" stroke="black" points="586.5,-41.5 849.5,-41.5 "/>
<text text-anchor="start" x="594.5" y="-29.5" font-family="Helvetica,sans-Serif" font-size="10.00">+ WebsocketSession()</text>
<text text-anchor="start" x="594.5" y="-18.5" font-family="Helvetica,sans-Serif" font-size="10.00">+ ROAR_PIMPL_SPECIAL_FUNCTIONS_NO_MOVE()</text>
<text text-anchor="start" x="594.5" y="-7.5" font-family="Helvetica,sans-Serif" font-size="10.00">+ accept()</text>
</a>
</g>
</g>
<!-- Node2 -->
<g id="node2" class="node">
<title>Node2</title>
<g id="a_node2"><a xlink:href="structRoar_1_1Detail_1_1SharedFromBase.html" target="_top" xlink:title=" ">
<polygon fill="none" stroke="black" points="396,-127.5 396,-184.5 726,-184.5 726,-127.5 396,-127.5"/>
<text text-anchor="middle" x="561" y="-172.5" font-family="Helvetica,sans-Serif" font-size="10.00">Roar::Detail::SharedFromBase&lt; WebsocketBase, WebsocketSession &gt;</text>
<polyline fill="none" stroke="black" points="396,-165.5 726,-165.5 "/>
<text text-anchor="middle" x="561" y="-153.5" font-family="Helvetica,sans-Serif" font-size="10.00"> </text>
<polyline fill="none" stroke="black" points="396,-146.5 726,-146.5 "/>
<text text-anchor="start" x="404" y="-134.5" font-family="Helvetica,sans-Serif" font-size="10.00">+ shared_from_this()</text>
</a>
</g>
</g>
<!-- Node2&#45;&gt;Node1 -->
<g id="edge1" class="edge">
<title>Node2&#45;&gt;Node1</title>
<path fill="none" stroke="midnightblue" d="M607.12,-121.51C625.25,-108.35 646.17,-93.16 664.92,-79.54"/>
<polygon fill="none" stroke="midnightblue" points="605.04,-118.7 599.01,-127.4 609.15,-124.36 605.04,-118.7"/>
</g>
<!-- Node3 -->
<g id="node3" class="node">
<title>Node3</title>
<g id="a_node3"><a xlink:href="classRoar_1_1WebsocketBase.html" target="_top" xlink:title=" ">
<polygon fill="none" stroke="black" points="388.5,-232.5 388.5,-399.5 503.5,-399.5 503.5,-232.5 388.5,-232.5"/>
<text text-anchor="middle" x="446" y="-387.5" font-family="Helvetica,sans-Serif" font-size="10.00">Roar::WebsocketBase</text>
<polyline fill="none" stroke="black" points="388.5,-380.5 503.5,-380.5 "/>
<text text-anchor="middle" x="446" y="-368.5" font-family="Helvetica,sans-Serif" font-size="10.00"> </text>
<polyline fill="none" stroke="black" points="388.5,-361.5 503.5,-361.5 "/>
<text text-anchor="start" x="396.5" y="-349.5" font-family="Helvetica,sans-Serif" font-size="10.00">+ WebsocketBase()</text>
<text text-anchor="start" x="396.5" y="-338.5" font-family="Helvetica,sans-Serif" font-size="10.00">+ WebsocketBase()</text>
<text text-anchor="start" x="396.5" y="-327.5" font-family="Helvetica,sans-Serif" font-size="10.00">+ WebsocketBase()</text>
<text text-anchor="start" x="396.5" y="-316.5" font-family="Helvetica,sans-Serif" font-size="10.00">+ operator=()</text>
<text text-anchor="start" x="396.5" y="-305.5" font-family="Helvetica,sans-Serif" font-size="10.00">+ WebsocketBase()</text>
<text text-anchor="start" x="396.5" y="-294.5" font-family="Helvetica,sans-Serif" font-size="10.00">+ operator=()</text>
<text text-anchor="start" x="396.5" y="-283.5" font-family="Helvetica,sans-Serif" font-size="10.00">+ ~WebsocketBase()</text>
<text text-anchor="start" x="396.5" y="-272.5" font-family="Helvetica,sans-Serif" font-size="10.00">+ withStreamDo()</text>
<text text-anchor="start" x="396.5" y="-261.5" font-family="Helvetica,sans-Serif" font-size="10.00">+ withStreamDo()</text>
<text text-anchor="start" x="396.5" y="-250.5" font-family="Helvetica,sans-Serif" font-size="10.00">+ readMessageMax()</text>
<text text-anchor="start" x="396.5" y="-239.5" font-family="Helvetica,sans-Serif" font-size="10.00">and 8 more...</text>
</a>
</g>
</g>
<!-- Node3&#45;&gt;Node2 -->
<g id="edge2" class="edge">
<title>Node3&#45;&gt;Node2</title>
<path fill="none" stroke="midnightblue" d="M509.75,-227.41C521.03,-211.92 531.98,-196.87 540.85,-184.69"/>
<polygon fill="none" stroke="midnightblue" points="506.89,-225.39 503.84,-235.54 512.55,-229.51 506.89,-225.39"/>
</g>
<!-- Node4 -->
<g id="node4" class="node">
<title>Node4</title>
<g id="a_node4"><a xlink:title=" ">
<polygon fill="none" stroke="black" points="0,-453 0,-510 234,-510 234,-453 0,-453"/>
<text text-anchor="middle" x="117" y="-498" font-family="Helvetica,sans-Serif" font-size="10.00">std::enable_shared_from_this&lt; WebsocketBase &gt;</text>
<polyline fill="none" stroke="black" points="0,-491 234,-491 "/>
<text text-anchor="middle" x="117" y="-479" font-family="Helvetica,sans-Serif" font-size="10.00"> </text>
<polyline fill="none" stroke="black" points="0,-472 234,-472 "/>
<text text-anchor="middle" x="117" y="-460" font-family="Helvetica,sans-Serif" font-size="10.00"> </text>
</a>
</g>
</g>
<!-- Node4&#45;&gt;Node3 -->
<g id="edge3" class="edge">
<title>Node4&#45;&gt;Node3</title>
<path fill="none" stroke="midnightblue" d="M181.47,-448.46C241.63,-418.57 330.56,-374.37 388.4,-345.63"/>
<polygon fill="none" stroke="midnightblue" points="179.84,-445.36 172.44,-452.95 182.95,-451.63 179.84,-445.36"/>
</g>
<!-- Node5 -->
<g id="node5" class="node">
<title>Node5</title>
<g id="a_node5"><a xlink:title=" ">
<polygon fill="none" stroke="black" points="252,-447.5 252,-515.5 640,-515.5 640,-447.5 252,-447.5"/>
<text text-anchor="start" x="260" y="-503.5" font-family="Helvetica,sans-Serif" font-size="10.00">variant&lt; boost::beast::websocket::stream&lt; boost::beast::ssl_stream</text>
<text text-anchor="middle" x="446" y="-492.5" font-family="Helvetica,sans-Serif" font-size="10.00">&lt; Detail::StreamType &gt; &gt;, boost::beast::websocket::stream&lt; Detail::StreamType &gt; &gt;</text>
<polyline fill="none" stroke="black" points="252,-485.5 640,-485.5 "/>
<text text-anchor="middle" x="446" y="-473.5" font-family="Helvetica,sans-Serif" font-size="10.00"> </text>
<polyline fill="none" stroke="black" points="252,-466.5 640,-466.5 "/>
<text text-anchor="middle" x="446" y="-454.5" font-family="Helvetica,sans-Serif" font-size="10.00"> </text>
</a>
</g>
</g>
<!-- Node5&#45;&gt;Node3 -->
<g id="edge4" class="edge">
<title>Node5&#45;&gt;Node3</title>
<path fill="none" stroke="#404040" d="M446,-447.41C446,-436.88 446,-424.65 446,-411.98"/>
<polygon fill="none" stroke="#404040" points="446,-411.74 442,-405.74 446,-399.74 450,-405.74 446,-411.74"/>
<text text-anchor="middle" x="459.5" y="-421" font-family="Helvetica,sans-Serif" font-size="10.00"> #ws_</text>
</g>
<!-- Node6 -->
<g id="node6" class="node">
<title>Node6</title>
<g id="a_node6"><a xlink:href="structRoar_1_1Detail_1_1SharedFromBase.html" target="_top" xlink:title=" ">
<polygon fill="none" stroke="black" points="541.5,-287.5 541.5,-344.5 772.5,-344.5 772.5,-287.5 541.5,-287.5"/>
<text text-anchor="middle" x="657" y="-332.5" font-family="Helvetica,sans-Serif" font-size="10.00">Roar::Detail::SharedFromBase&lt; Base, Derived &gt;</text>
<polyline fill="none" stroke="black" points="541.5,-325.5 772.5,-325.5 "/>
<text text-anchor="middle" x="657" y="-313.5" font-family="Helvetica,sans-Serif" font-size="10.00"> </text>
<polyline fill="none" stroke="black" points="541.5,-306.5 772.5,-306.5 "/>
<text text-anchor="start" x="549.5" y="-294.5" font-family="Helvetica,sans-Serif" font-size="10.00">+ shared_from_this()</text>
</a>
</g>
</g>
<!-- Node6&#45;&gt;Node2 -->
<g id="edge5" class="edge">
<title>Node6&#45;&gt;Node2</title>
<path fill="none" stroke="orange" d="M634.88,-278.6C617.52,-250.02 593.7,-210.82 577.85,-184.74"/>
<polygon fill="orange" stroke="orange" points="632.09,-280.75 640.28,-287.48 638.08,-277.11 632.09,-280.75"/>
<text text-anchor="middle" x="686.5" y="-206" font-family="Helvetica,sans-Serif" font-size="10.00"> &lt; WebsocketBase, WebsocketSession &gt;</text>
</g>
<!-- Node7 -->
<g id="node7" class="node">
<title>Node7</title>
<g id="a_node7"><a xlink:href="classBase.html" target="_top" xlink:title=" ">
<polygon fill="none" stroke="black" points="657.5,-453 657.5,-510 696.5,-510 696.5,-453 657.5,-453"/>
<text text-anchor="middle" x="677" y="-498" font-family="Helvetica,sans-Serif" font-size="10.00">Base</text>
<polyline fill="none" stroke="black" points="657.5,-491 696.5,-491 "/>
<text text-anchor="middle" x="677" y="-479" font-family="Helvetica,sans-Serif" font-size="10.00"> </text>
<polyline fill="none" stroke="black" points="657.5,-472 696.5,-472 "/>
<text text-anchor="middle" x="677" y="-460" font-family="Helvetica,sans-Serif" font-size="10.00"> </text>
</a>
</g>
</g>
<!-- Node7&#45;&gt;Node6 -->
<g id="edge6" class="edge">
<title>Node7&#45;&gt;Node6</title>
<path fill="none" stroke="midnightblue" d="M672.37,-442.67C668.71,-412.7 663.67,-371.53 660.38,-344.6"/>
<polygon fill="none" stroke="midnightblue" points="668.92,-443.26 673.61,-452.76 675.87,-442.41 668.92,-443.26"/>
</g>
<!-- Node8 -->
<g id="node8" class="node">
<title>Node8</title>
<g id="a_node8"><a xlink:title=" ">
<polygon fill="none" stroke="black" points="744.5,-127.5 744.5,-184.5 1007.5,-184.5 1007.5,-127.5 744.5,-127.5"/>
<text text-anchor="middle" x="876" y="-172.5" font-family="Helvetica,sans-Serif" font-size="10.00">unique_ptr&lt; Roar::WebsocketSession::Implementation &gt;</text>
<polyline fill="none" stroke="black" points="744.5,-165.5 1007.5,-165.5 "/>
<text text-anchor="middle" x="876" y="-153.5" font-family="Helvetica,sans-Serif" font-size="10.00"> </text>
<polyline fill="none" stroke="black" points="744.5,-146.5 1007.5,-146.5 "/>
<text text-anchor="middle" x="876" y="-134.5" font-family="Helvetica,sans-Serif" font-size="10.00"> </text>
</a>
</g>
</g>
<!-- Node8&#45;&gt;Node1 -->
<g id="edge7" class="edge">
<title>Node8&#45;&gt;Node1</title>
<path fill="none" stroke="#404040" d="M837.75,-127.4C820.8,-115.17 800.4,-100.45 781.27,-86.65"/>
<polygon fill="none" stroke="#404040" points="781.15,-86.56 773.94,-86.3 771.42,-79.54 778.62,-79.81 781.15,-86.56"/>
<text text-anchor="middle" x="827" y="-101" font-family="Helvetica,sans-Serif" font-size="10.00"> &#45;impl_</text>
</g>
</g>
</svg>
        <g id="navigator" transform="translate(0 0)" fill="#404254">
                <rect fill="#f2f5e9" fill-opacity="0.5" stroke="#606060" stroke-width=".5" x="0" y="0" width="60" height="60"/>
                <use id="zoomplus" xlink:href="#zoomPlus" x="17" y="9" onmousedown="handleZoom(evt,'in')"/>
                <use id="zoomminus" xlink:href="#zoomMin" x="42" y="9" onmousedown="handleZoom(evt,'out')"/>
                <use id="reset" xlink:href="#resetDef" x="30" y="36" onmousedown="handleReset()"/>
                <g id="arrowUp" xlink:href="#dirArrow" transform="translate(30 24)" onmousedown="handlePan(0,-1)">
                  <use xlink:href="#rim" fill="#404040">
                        <set attributeName="fill" to="#808080" begin="arrowUp.mouseover" end="arrowUp.mouseout"/>
                  </use>
                  <path fill="none" stroke="white" stroke-width="1.5" d="M0,-3.0v7 M-2.5,-0.5L0,-3.0L2.5,-0.5"/>
                </g>
                <g id="arrowRight" xlink:href="#dirArrow" transform="rotate(90) translate(36 -43)" onmousedown="handlePan(1,0)">
                  <use xlink:href="#rim" fill="#404040">
                        <set attributeName="fill" to="#808080" begin="arrowRight.mouseover" end="arrowRight.mouseout"/>
                  </use>
                  <path fill="none" stroke="white" stroke-width="1.5" d="M0,-3.0v7 M-2.5,-0.5L0,-3.0L2.5,-0.5"/>
                </g>
                <g id="arrowDown" xlink:href="#dirArrow" transform="rotate(180) translate(-30 -48)" onmousedown="handlePan(0,1)">
                  <use xlink:href="#rim" fill="#404040">
                        <set attributeName="fill" to="#808080" begin="arrowDown.mouseover" end="arrowDown.mouseout"/>
                  </use>
                  <path fill="none" stroke="white" stroke-width="1.5" d="M0,-3.0v7 M-2.5,-0.5L0,-3.0L2.5,-0.5"/>
                </g>
                <g id="arrowLeft" xlink:href="#dirArrow" transform="rotate(270) translate(-36 17)" onmousedown="handlePan(-1,0)">
                  <use xlink:href="#rim" fill="#404040">
                        <set attributeName="fill" to="#808080" begin="arrowLeft.mouseover" end="arrowLeft.mouseout"/>
                  </use>
                  <path fill="none" stroke="white" stroke-width="1.5" d="M0,-3.0v7 M-2.5,-0.5L0,-3.0L2.5,-0.5"/>
                </g>
        </g>
        <svg viewBox="0 0 15 15" width="100%" height="30px" preserveAspectRatio="xMaxYMin meet">
         <g id="arrow_out" transform="scale(0.3 0.3)">
          <a xlink:href="classRoar_1_1WebsocketSession__coll__graph_org.svg" target="_base">
           <rect id="button" ry="5" rx="5" y="6" x="6" height="38" width="38"
                fill="#f2f5e9" fill-opacity="0.5" stroke="#606060" stroke-width="1.0"/>
           <path id="arrow"
             d="M 11.500037,31.436501 C 11.940474,20.09759 22.043105,11.32322 32.158766,21.979434 L 37.068811,17.246167 C 37.068811,17.246167 37.088388,32 37.088388,32 L 22.160133,31.978069 C 22.160133,31.978069 26.997745,27.140456 26.997745,27.140456 C 18.528582,18.264221 13.291696,25.230495 11.500037,31.436501 z"
             style="fill:#404040;"/>
          </a>
         </g>
        </svg>
</svg>
