<?xml version="1.0" encoding="UTF-8" standalone="no"?>
<!DOCTYPE svg PUBLIC "-//W3C//DTD SVG 1.1//EN"
 "http://www.w3.org/Graphics/SVG/1.1/DTD/svg11.dtd">
<!-- Generated by graphviz version 8.1.0 (0)
 -->
<!-- Title: FileServer Pages: 1 -->
<svg width="212pt" height="240pt"
 viewBox="0.00 0.00 212.00 240.00" xmlns="http://www.w3.org/2000/svg" xmlns:xlink="http://www.w3.org/1999/xlink">

<svg id="main" version="1.1" xmlns="http://www.w3.org/2000/svg" xmlns:xlink="http://www.w3.org/1999/xlink" xml:space="preserve" onload="init(evt)">
<style type="text/css"><![CDATA[
.node, .edge {opacity: 0.7;}
.node.selected, .edge.selected {opacity: 1;}
.edge:hover path { stroke: red; }
.edge:hover polygon { stroke: red; fill: red; }
]]></style>
<script type="application/ecmascript" xlink:href="svg.min.js"/>
<svg id="graph" class="graph">
<g id="graph0" class="graph" transform="scale(1 1) rotate(0) translate(4 236)">
<title>FileServer</title>
<!-- Node1 -->
<g id="Node000001" class="node">
<title>Node1</title>
<g id="a_Node000001"><a xlink:title=" ">
<polygon fill="#999999" stroke="none" points="149,-132 8,-132 8,0 149,0 149,-132"/>
<text text-anchor="start" x="56.38" y="-118.5" font-family="Helvetica,sans-Serif" font-size="10.00">FileServer</text>
<text text-anchor="start" x="77" y="-102.5" font-family="Helvetica,sans-Serif" font-size="10.00"> </text>
<text text-anchor="start" x="12" y="-86.5" font-family="Helvetica,sans-Serif" font-size="10.00">+</text>
<text text-anchor="start" x="22" y="-86.5" font-family="Helvetica,sans-Serif" font-size="10.00">FileServer()</text>
<text text-anchor="start" x="13.5" y="-70.5" font-family="Helvetica,sans-Serif" font-size="10.00">&#45;</text>
<text text-anchor="start" x="22" y="-70.5" font-family="Helvetica,sans-Serif" font-size="10.00">ROAR_MAKE_LISTENER()</text>
<text text-anchor="start" x="13.5" y="-54.5" font-family="Helvetica,sans-Serif" font-size="10.00">&#45;</text>
<text text-anchor="start" x="22" y="-54.5" font-family="Helvetica,sans-Serif" font-size="10.00">serve()</text>
<text text-anchor="start" x="13.5" y="-38.5" font-family="Helvetica,sans-Serif" font-size="10.00">&#45;</text>
<text text-anchor="start" x="22" y="-38.5" font-family="Helvetica,sans-Serif" font-size="10.00">serveAppdata()</text>
<text text-anchor="start" x="13.5" y="-22.5" font-family="Helvetica,sans-Serif" font-size="10.00">&#45;</text>
<text text-anchor="start" x="22" y="-22.5" font-family="Helvetica,sans-Serif" font-size="10.00">getServePath()</text>
<text text-anchor="start" x="13.5" y="-6.5" font-family="Helvetica,sans-Serif" font-size="10.00">&#45;</text>
<text text-anchor="start" x="22" y="-6.5" font-family="Helvetica,sans-Serif" font-size="10.00">createDummyFile()</text>
<polygon fill="#666666" stroke="#666666" points="8,-114 8,-114 149,-114 149,-114 8,-114"/>
<polygon fill="#666666" stroke="#666666" points="8,-98 8,-98 149,-98 149,-98 8,-98"/>
<polygon fill="none" stroke="#666666" points="8,0 8,-132 149,-132 149,0 8,0"/>
</a>
</g>
</g>
<!-- Node2 -->
<g id="Node000002" class="node">
<title>Node2</title>
<g id="a_Node000002"><a xlink:title=" ">
<polygon fill="white" stroke="none" points="47,-232 0,-232 0,-180 47,-180 47,-232"/>
<text text-anchor="start" x="4.75" y="-218.5" font-family="Helvetica,sans-Serif" font-size="10.00">mt19937</text>
<text text-anchor="start" x="22" y="-202.5" font-family="Helvetica,sans-Serif" font-size="10.00"> </text>
<text text-anchor="start" x="22" y="-186.5" font-family="Helvetica,sans-Serif" font-size="10.00"> </text>
<polygon fill="#666666" stroke="#666666" points="0,-214 0,-214 47,-214 47,-214 0,-214"/>
<polygon fill="#666666" stroke="#666666" points="0,-198 0,-198 47,-198 47,-198 0,-198"/>
<polygon fill="none" stroke="#666666" points="0,-180 0,-232 47,-232 47,-180 0,-180"/>
</a>
</g>
</g>
<!-- Node2&#45;&gt;Node1 -->
<g id="edge1_Node000001_Node000002" class="edge">
<title>Node2&#45;&gt;Node1</title>
<g id="a_edge1_Node000001_Node000002"><a xlink:title=" ">
<path fill="none" stroke="#63b8ff" d="M33.46,-180.01C37.61,-169.6 42.67,-156.9 47.88,-143.82"/>
<polygon fill="none" stroke="#63b8ff" points="47.91,-143.75 46.42,-136.69 52.36,-132.6 53.85,-139.65 47.91,-143.75"/>
</a>
</g>
<text text-anchor="middle" x="55.38" y="-152.5" font-family="Helvetica,sans-Serif" font-size="10.00" fill="grey"> &#45;gen</text>
</g>
<!-- Node3 -->
<g id="Node000003" class="node">
<title>Node3</title>
<g id="a_Node000003"><a xlink:title=" ">
<polygon fill="white" stroke="none" points="204,-232 65,-232 65,-180 204,-180 204,-232"/>
<text text-anchor="start" x="70" y="-218.5" font-family="Helvetica,sans-Serif" font-size="10.00">uniform_int_distribution&lt; int &gt;</text>
<text text-anchor="start" x="133" y="-202.5" font-family="Helvetica,sans-Serif" font-size="10.00"> </text>
<text text-anchor="start" x="133" y="-186.5" font-family="Helvetica,sans-Serif" font-size="10.00"> </text>
<polygon fill="#666666" stroke="#666666" points="65,-214 65,-214 204,-214 204,-214 65,-214"/>
<polygon fill="#666666" stroke="#666666" points="65,-198 65,-198 204,-198 204,-198 65,-198"/>
<polygon fill="none" stroke="#666666" points="65,-180 65,-232 204,-232 204,-180 65,-180"/>
</a>
</g>
</g>
<!-- Node3&#45;&gt;Node1 -->
<g id="edge2_Node000001_Node000003" class="edge">
<title>Node3&#45;&gt;Node1</title>
<g id="a_edge2_Node000001_Node000003"><a xlink:title=" ">
<path fill="none" stroke="#63b8ff" d="M124.36,-180.01C120.14,-169.6 114.98,-156.9 109.68,-143.82"/>
<polygon fill="none" stroke="#63b8ff" points="109.63,-143.72 103.67,-139.66 105.12,-132.6 111.08,-136.65 109.63,-143.72"/>
</a>
</g>
<text text-anchor="middle" x="132" y="-152.5" font-family="Helvetica,sans-Serif" font-size="10.00" fill="grey"> &#45;letters</text>
</g>
</g>
</svg>
</svg>

<style type='text/css'>
<![CDATA[
[data-mouse-over-selected='false'] { opacity: 0.7; }
[data-mouse-over-selected='true']  { opacity: 1.0; }
]]>
</style>
<script type="application/ecmascript"><![CDATA[
document.addEventListener('DOMContentLoaded', (event) => {
  highlightEdges();
  highlightAdjacentNodes();
});
]]></script>
</svg>
