<?xml version="1.0" encoding="UTF-8" standalone="no"?>
<!DOCTYPE svg PUBLIC "-//W3C//DTD SVG 1.1//EN"
 "http://www.w3.org/Graphics/SVG/1.1/DTD/svg11.dtd">
<!-- Generated by graphviz version 2.44.1 (20211215.1903)
 -->
<!-- Title: Roar::Detail::DirectoryServer&lt; RequestListenerT &gt; Pages: 1 -->
<!--zoomable 430 -->
<svg id="main" version="1.1" xmlns="http://www.w3.org/2000/svg" xmlns:xlink="http://www.w3.org/1999/xlink" xml:space="preserve" onload="init(evt)">
<style type="text/css"><![CDATA[
.edge:hover path { stroke: red; }
.edge:hover polygon { stroke: red; fill: red; }
]]></style>
<script type="text/javascript"><![CDATA[
var edges = document.getElementsByTagName('g');
if (edges && edges.length) {
  for (var i=0;i<edges.length;i++) {
    if (edges[i].id.substr(0,4)=='edge') {
      edges[i].setAttribute('class','edge');
    }
  }
}
]]></script>
        <defs>
                <circle id="rim" cx="0" cy="0" r="7"/>
                <circle id="rim2" cx="0" cy="0" r="3.5"/>
                <g id="zoomPlus">
                        <use xlink:href="#rim" fill="#404040">
                                <set attributeName="fill" to="#808080" begin="zoomplus.mouseover" end="zoomplus.mouseout"/>
                        </use>
                        <path d="M-4,0h8M0,-4v8" fill="none" stroke="white" stroke-width="1.5" pointer-events="none"/>
                </g>
                <g id="zoomMin">
                        <use xlink:href="#rim" fill="#404040">
                                <set attributeName="fill" to="#808080" begin="zoomminus.mouseover" end="zoomminus.mouseout"/>
                        </use>
                        <path d="M-4,0h8" fill="none" stroke="white" stroke-width="1.5" pointer-events="none"/>
                </g>
                <g id="dirArrow">
                        <path fill="none" stroke="white" stroke-width="1.5" d="M0,-3.0v7 M-2.5,-0.5L0,-3.0L2.5,-0.5"/>
                </g>
               <g id="resetDef">
                       <use xlink:href="#rim2" fill="#404040">
                               <set attributeName="fill" to="#808080" begin="reset.mouseover" end="reset.mouseout"/>
                       </use>
               </g>
        </defs>

<script type="text/javascript">
var viewWidth = 530;
var viewHeight = 430;
var sectionId = 'dynsection-0';
</script>
<script xlink:href="svgpan.js"/>
<svg id="graph" class="graph">
<g id="viewport">
<title>Roar::Detail::DirectoryServer&lt; RequestListenerT &gt;</title>
<!-- Node1 -->
<g id="node1" class="node">
<title>Node1</title>
<g id="a_node1"><a xlink:title="Internal helper class to serve directories.">
<polygon fill="#bfbfbf" stroke="black" points="283,-0.5 283,-167.5 522,-167.5 522,-0.5 283,-0.5"/>
<text text-anchor="middle" x="402.5" y="-155.5" font-family="Helvetica,sans-Serif" font-size="10.00">Roar::Detail::DirectoryServer&lt; RequestListenerT &gt;</text>
<polyline fill="none" stroke="black" points="283,-148.5 522,-148.5 "/>
<text text-anchor="middle" x="402.5" y="-136.5" font-family="Helvetica,sans-Serif" font-size="10.00"> </text>
<polyline fill="none" stroke="black" points="283,-129.5 522,-129.5 "/>
<text text-anchor="start" x="291" y="-117.5" font-family="Helvetica,sans-Serif" font-size="10.00">+ DirectoryServer()</text>
<text text-anchor="start" x="291" y="-106.5" font-family="Helvetica,sans-Serif" font-size="10.00">+ operator()()</text>
<text text-anchor="start" x="291" y="-95.5" font-family="Helvetica,sans-Serif" font-size="10.00">&#45; resolvePath()</text>
<text text-anchor="start" x="291" y="-84.5" font-family="Helvetica,sans-Serif" font-size="10.00">&#45; listingStyle()</text>
<text text-anchor="start" x="291" y="-73.5" font-family="Helvetica,sans-Serif" font-size="10.00">&#45; getFileAndStatus()</text>
<text text-anchor="start" x="291" y="-62.5" font-family="Helvetica,sans-Serif" font-size="10.00">&#45; handleFileServe()</text>
<text text-anchor="start" x="291" y="-51.5" font-family="Helvetica,sans-Serif" font-size="10.00">&#45; sendHeadResponse()</text>
<text text-anchor="start" x="291" y="-40.5" font-family="Helvetica,sans-Serif" font-size="10.00">&#45; sendOptionsResponse()</text>
<text text-anchor="start" x="291" y="-29.5" font-family="Helvetica,sans-Serif" font-size="10.00">&#45; makeListing()</text>
<text text-anchor="start" x="291" y="-18.5" font-family="Helvetica,sans-Serif" font-size="10.00">&#45; upload()</text>
<text text-anchor="start" x="291" y="-7.5" font-family="Helvetica,sans-Serif" font-size="10.00">&#45; download()</text>
</a>
</g>
</g>
<!-- Node2 -->
<g id="node2" class="node">
<title>Node2</title>
<g id="a_node2"><a xlink:href="structRoar_1_1Detail_1_1DirectoryServerConstructionArgs.html" target="_top" xlink:title=" ">
<polygon fill="none" stroke="black" points="5.5,-237.5 5.5,-294.5 319.5,-294.5 319.5,-237.5 5.5,-237.5"/>
<text text-anchor="middle" x="162.5" y="-282.5" font-family="Helvetica,sans-Serif" font-size="10.00">Roar::Detail::DirectoryServerConstructionArgs&lt; RequestListenerT &gt;</text>
<polyline fill="none" stroke="black" points="5.5,-275.5 319.5,-275.5 "/>
<text text-anchor="middle" x="162.5" y="-263.5" font-family="Helvetica,sans-Serif" font-size="10.00"> </text>
<polyline fill="none" stroke="black" points="5.5,-256.5 319.5,-256.5 "/>
<text text-anchor="middle" x="162.5" y="-244.5" font-family="Helvetica,sans-Serif" font-size="10.00"> </text>
</a>
</g>
</g>
<!-- Node2&#45;&gt;Node1 -->
<g id="edge1" class="edge">
<title>Node2&#45;&gt;Node1</title>
<path fill="none" stroke="#8b1a1a" d="M207.43,-231.3C231.5,-213.25 262.3,-190.15 292.29,-167.66"/>
<polygon fill="none" stroke="#8b1a1a" points="205.11,-228.67 199.21,-237.47 209.31,-234.27 205.11,-228.67"/>
</g>
<!-- Node3 -->
<g id="node3" class="node">
<title>Node3</title>
<g id="a_node3"><a xlink:title=" ">
<polygon fill="none" stroke="black" points="0,-364.5 0,-421.5 35,-421.5 35,-364.5 0,-364.5"/>
<text text-anchor="middle" x="17.5" y="-409.5" font-family="Helvetica,sans-Serif" font-size="10.00">bool</text>
<polyline fill="none" stroke="black" points="0,-402.5 35,-402.5 "/>
<text text-anchor="middle" x="17.5" y="-390.5" font-family="Helvetica,sans-Serif" font-size="10.00"> </text>
<polyline fill="none" stroke="black" points="0,-383.5 35,-383.5 "/>
<text text-anchor="middle" x="17.5" y="-371.5" font-family="Helvetica,sans-Serif" font-size="10.00"> </text>
</a>
</g>
</g>
<!-- Node3&#45;&gt;Node2 -->
<g id="edge2" class="edge">
<title>Node3&#45;&gt;Node2</title>
<path fill="none" stroke="#404040" d="M34.41,-364.27C41.18,-354.39 49.51,-343.59 58.5,-335 71.48,-322.58 87.03,-311.05 102.09,-301.13"/>
<polygon fill="none" stroke="#404040" points="102.29,-301 105.19,-294.4 112.4,-294.54 109.5,-301.14 102.29,-301"/>
<text text-anchor="middle" x="99" y="-338" font-family="Helvetica,sans-Serif" font-size="10.00"> +serverIsSecure_</text>
</g>
<!-- Node4 -->
<g id="node4" class="node">
<title>Node4</title>
<g id="a_node4"><a xlink:title=" ">
<polygon fill="none" stroke="black" points="53.5,-364.5 53.5,-421.5 207.5,-421.5 207.5,-364.5 53.5,-364.5"/>
<text text-anchor="middle" x="130.5" y="-409.5" font-family="Helvetica,sans-Serif" font-size="10.00">ServeInfo&lt; RequestListenerT &gt;</text>
<polyline fill="none" stroke="black" points="53.5,-402.5 207.5,-402.5 "/>
<text text-anchor="middle" x="130.5" y="-390.5" font-family="Helvetica,sans-Serif" font-size="10.00"> </text>
<polyline fill="none" stroke="black" points="53.5,-383.5 207.5,-383.5 "/>
<text text-anchor="middle" x="130.5" y="-371.5" font-family="Helvetica,sans-Serif" font-size="10.00"> </text>
</a>
</g>
</g>
<!-- Node4&#45;&gt;Node2 -->
<g id="edge3" class="edge">
<title>Node4&#45;&gt;Node2</title>
<path fill="none" stroke="#404040" d="M137.6,-364.26C141.95,-347.27 147.59,-325.25 152.4,-306.46"/>
<polygon fill="none" stroke="#404040" points="152.44,-306.29 150.05,-299.48 155.42,-294.66 157.81,-301.47 152.44,-306.29"/>
<text text-anchor="middle" x="173" y="-338" font-family="Helvetica,sans-Serif" font-size="10.00"> +serveInfo_</text>
</g>
<!-- Node5 -->
<g id="node5" class="node">
<title>Node5</title>
<g id="a_node5"><a xlink:title=" ">
<polygon fill="none" stroke="black" points="225.5,-364.5 225.5,-421.5 383.5,-421.5 383.5,-364.5 225.5,-364.5"/>
<text text-anchor="middle" x="304.5" y="-409.5" font-family="Helvetica,sans-Serif" font-size="10.00">shared_ptr&lt; RequestListenerT &gt;</text>
<polyline fill="none" stroke="black" points="225.5,-402.5 383.5,-402.5 "/>
<text text-anchor="middle" x="304.5" y="-390.5" font-family="Helvetica,sans-Serif" font-size="10.00"> </text>
<polyline fill="none" stroke="black" points="225.5,-383.5 383.5,-383.5 "/>
<text text-anchor="middle" x="304.5" y="-371.5" font-family="Helvetica,sans-Serif" font-size="10.00"> </text>
</a>
</g>
</g>
<!-- Node5&#45;&gt;Node2 -->
<g id="edge4" class="edge">
<title>Node5&#45;&gt;Node2</title>
<path fill="none" stroke="#404040" d="M272.99,-364.26C252.4,-346.13 225.31,-322.29 203.11,-302.75"/>
<polygon fill="none" stroke="#404040" points="202.93,-302.59 195.79,-301.63 193.93,-294.66 201.07,-295.63 202.93,-302.59"/>
<text text-anchor="middle" x="273.5" y="-338" font-family="Helvetica,sans-Serif" font-size="10.00"> +listener_</text>
</g>
<!-- Node6 -->
<g id="node6" class="node">
<title>Node6</title>
<g id="a_node6"><a xlink:href="classRoar_1_1Jail.html" target="_top" xlink:title=" ">
<polygon fill="none" stroke="black" points="353.5,-215.5 353.5,-316.5 451.5,-316.5 451.5,-215.5 353.5,-215.5"/>
<text text-anchor="middle" x="402.5" y="-304.5" font-family="Helvetica,sans-Serif" font-size="10.00">Roar::Jail</text>
<polyline fill="none" stroke="black" points="353.5,-297.5 451.5,-297.5 "/>
<text text-anchor="middle" x="402.5" y="-285.5" font-family="Helvetica,sans-Serif" font-size="10.00"> </text>
<polyline fill="none" stroke="black" points="353.5,-278.5 451.5,-278.5 "/>
<text text-anchor="start" x="361.5" y="-266.5" font-family="Helvetica,sans-Serif" font-size="10.00">+ Jail()</text>
<text text-anchor="start" x="361.5" y="-255.5" font-family="Helvetica,sans-Serif" font-size="10.00">+ isWithinJail()</text>
<text text-anchor="start" x="361.5" y="-244.5" font-family="Helvetica,sans-Serif" font-size="10.00">+ relativeToRoot()</text>
<text text-anchor="start" x="361.5" y="-233.5" font-family="Helvetica,sans-Serif" font-size="10.00">+ pathAsIsInJail()</text>
<text text-anchor="start" x="361.5" y="-222.5" font-family="Helvetica,sans-Serif" font-size="10.00">+ fakeJailAsRoot()</text>
</a>
</g>
</g>
<!-- Node6&#45;&gt;Node1 -->
<g id="edge5" class="edge">
<title>Node6&#45;&gt;Node1</title>
<path fill="none" stroke="#404040" d="M402.5,-215.34C402.5,-204.26 402.5,-192.14 402.5,-179.91"/>
<polygon fill="none" stroke="#404040" points="402.5,-179.67 398.5,-173.67 402.5,-167.67 406.5,-173.67 402.5,-179.67"/>
<text text-anchor="middle" x="414.5" y="-189" font-family="Helvetica,sans-Serif" font-size="10.00"> &#45;jail_</text>
</g>
<!-- Node7 -->
<g id="node7" class="node">
<title>Node7</title>
<g id="a_node7"><a xlink:title=" ">
<polygon fill="none" stroke="black" points="401,-364.5 401,-421.5 436,-421.5 436,-364.5 401,-364.5"/>
<text text-anchor="middle" x="418.5" y="-409.5" font-family="Helvetica,sans-Serif" font-size="10.00">path</text>
<polyline fill="none" stroke="black" points="401,-402.5 436,-402.5 "/>
<text text-anchor="middle" x="418.5" y="-390.5" font-family="Helvetica,sans-Serif" font-size="10.00"> </text>
<polyline fill="none" stroke="black" points="401,-383.5 436,-383.5 "/>
<text text-anchor="middle" x="418.5" y="-371.5" font-family="Helvetica,sans-Serif" font-size="10.00"> </text>
</a>
</g>
</g>
<!-- Node7&#45;&gt;Node6 -->
<g id="edge6" class="edge">
<title>Node7&#45;&gt;Node6</title>
<path fill="none" stroke="#404040" d="M414.95,-364.26C413.61,-353.79 412.03,-341.42 410.45,-329.07"/>
<polygon fill="none" stroke="#404040" points="410.4,-328.7 405.67,-323.26 408.87,-316.8 413.6,-322.25 410.4,-328.7"/>
<text text-anchor="middle" x="434" y="-338" font-family="Helvetica,sans-Serif" font-size="10.00"> &#45;jailRoot_</text>
</g>
<!-- Node8 -->
<g id="node8" class="node">
<title>Node8</title>
<g id="a_node8"><a xlink:title=" ">
<polygon fill="none" stroke="black" points="470,-237.5 470,-294.5 511,-294.5 511,-237.5 470,-237.5"/>
<text text-anchor="middle" x="490.5" y="-282.5" font-family="Helvetica,sans-Serif" font-size="10.00">string</text>
<polyline fill="none" stroke="black" points="470,-275.5 511,-275.5 "/>
<text text-anchor="middle" x="490.5" y="-263.5" font-family="Helvetica,sans-Serif" font-size="10.00"> </text>
<polyline fill="none" stroke="black" points="470,-256.5 511,-256.5 "/>
<text text-anchor="middle" x="490.5" y="-244.5" font-family="Helvetica,sans-Serif" font-size="10.00"> </text>
</a>
</g>
</g>
<!-- Node8&#45;&gt;Node1 -->
<g id="edge7" class="edge">
<title>Node8&#45;&gt;Node1</title>
<path fill="none" stroke="#404040" d="M476.94,-237.27C469.11,-221.24 458.74,-200.04 448.25,-178.57"/>
<polygon fill="none" stroke="#404040" points="448.2,-178.47 441.97,-174.84 442.93,-167.69 449.16,-171.33 448.2,-178.47"/>
<text text-anchor="middle" x="483" y="-189" font-family="Helvetica,sans-Serif" font-size="10.00"> &#45;basePath_</text>
</g>
</g>
</svg>
        <g id="navigator" transform="translate(0 0)" fill="#404254">
                <rect fill="#f2f5e9" fill-opacity="0.5" stroke="#606060" stroke-width=".5" x="0" y="0" width="60" height="60"/>
                <use id="zoomplus" xlink:href="#zoomPlus" x="17" y="9" onmousedown="handleZoom(evt,'in')"/>
                <use id="zoomminus" xlink:href="#zoomMin" x="42" y="9" onmousedown="handleZoom(evt,'out')"/>
                <use id="reset" xlink:href="#resetDef" x="30" y="36" onmousedown="handleReset()"/>
                <g id="arrowUp" xlink:href="#dirArrow" transform="translate(30 24)" onmousedown="handlePan(0,-1)">
                  <use xlink:href="#rim" fill="#404040">
                        <set attributeName="fill" to="#808080" begin="arrowUp.mouseover" end="arrowUp.mouseout"/>
                  </use>
                  <path fill="none" stroke="white" stroke-width="1.5" d="M0,-3.0v7 M-2.5,-0.5L0,-3.0L2.5,-0.5"/>
                </g>
                <g id="arrowRight" xlink:href="#dirArrow" transform="rotate(90) translate(36 -43)" onmousedown="handlePan(1,0)">
                  <use xlink:href="#rim" fill="#404040">
                        <set attributeName="fill" to="#808080" begin="arrowRight.mouseover" end="arrowRight.mouseout"/>
                  </use>
                  <path fill="none" stroke="white" stroke-width="1.5" d="M0,-3.0v7 M-2.5,-0.5L0,-3.0L2.5,-0.5"/>
                </g>
                <g id="arrowDown" xlink:href="#dirArrow" transform="rotate(180) translate(-30 -48)" onmousedown="handlePan(0,1)">
                  <use xlink:href="#rim" fill="#404040">
                        <set attributeName="fill" to="#808080" begin="arrowDown.mouseover" end="arrowDown.mouseout"/>
                  </use>
                  <path fill="none" stroke="white" stroke-width="1.5" d="M0,-3.0v7 M-2.5,-0.5L0,-3.0L2.5,-0.5"/>
                </g>
                <g id="arrowLeft" xlink:href="#dirArrow" transform="rotate(270) translate(-36 17)" onmousedown="handlePan(-1,0)">
                  <use xlink:href="#rim" fill="#404040">
                        <set attributeName="fill" to="#808080" begin="arrowLeft.mouseover" end="arrowLeft.mouseout"/>
                  </use>
                  <path fill="none" stroke="white" stroke-width="1.5" d="M0,-3.0v7 M-2.5,-0.5L0,-3.0L2.5,-0.5"/>
                </g>
        </g>
        <svg viewBox="0 0 15 15" width="100%" height="30px" preserveAspectRatio="xMaxYMin meet">
         <g id="arrow_out" transform="scale(0.3 0.3)">
          <a xlink:href="classRoar_1_1Detail_1_1DirectoryServer__coll__graph_org.svg" target="_base">
           <rect id="button" ry="5" rx="5" y="6" x="6" height="38" width="38"
                fill="#f2f5e9" fill-opacity="0.5" stroke="#606060" stroke-width="1.0"/>
           <path id="arrow"
             d="M 11.500037,31.436501 C 11.940474,20.09759 22.043105,11.32322 32.158766,21.979434 L 37.068811,17.246167 C 37.068811,17.246167 37.088388,32 37.088388,32 L 22.160133,31.978069 C 22.160133,31.978069 26.997745,27.140456 26.997745,27.140456 C 18.528582,18.264221 13.291696,25.230495 11.500037,31.436501 z"
             style="fill:#404040;"/>
          </a>
         </g>
        </svg>
</svg>
