<?xml version="1.0" encoding="UTF-8" standalone="no"?>
<!DOCTYPE svg PUBLIC "-//W3C//DTD SVG 1.1//EN"
 "http://www.w3.org/Graphics/SVG/1.1/DTD/svg11.dtd">
<!-- Generated by graphviz version 2.44.1 (20211215.1903)
 -->
<!-- Title: Roar::Detail::RangeFileBodyImpl Pages: 1 -->
<svg width="600pt" height="292pt"
 viewBox="0.00 0.00 599.50 292.00" xmlns="http://www.w3.org/2000/svg" xmlns:xlink="http://www.w3.org/1999/xlink">
<g id="graph0" class="graph" transform="scale(1 1) rotate(0) translate(4 288)">
<title>Roar::Detail::RangeFileBodyImpl</title>
<!-- Node1 -->
<g id="node1" class="node">
<title>Node1</title>
<g id="a_node1"><a xlink:title="Support range requests for get requests including multipart/byterange.">
<polygon fill="#bfbfbf" stroke="black" points="261.5,-0.5 261.5,-167.5 422.5,-167.5 422.5,-0.5 261.5,-0.5"/>
<text text-anchor="middle" x="342" y="-155.5" font-family="Helvetica,sans-Serif" font-size="10.00">Roar::Detail::RangeFileBodyImpl</text>
<polyline fill="none" stroke="black" points="261.5,-148.5 422.5,-148.5 "/>
<text text-anchor="middle" x="342" y="-136.5" font-family="Helvetica,sans-Serif" font-size="10.00"> </text>
<polyline fill="none" stroke="black" points="261.5,-129.5 422.5,-129.5 "/>
<text text-anchor="start" x="269.5" y="-117.5" font-family="Helvetica,sans-Serif" font-size="10.00">+ RangeFileBodyImpl()</text>
<text text-anchor="start" x="269.5" y="-106.5" font-family="Helvetica,sans-Serif" font-size="10.00">+ ~RangeFileBodyImpl()</text>
<text text-anchor="start" x="269.5" y="-95.5" font-family="Helvetica,sans-Serif" font-size="10.00">+ RangeFileBodyImpl()</text>
<text text-anchor="start" x="269.5" y="-84.5" font-family="Helvetica,sans-Serif" font-size="10.00">+ RangeFileBodyImpl()</text>
<text text-anchor="start" x="269.5" y="-73.5" font-family="Helvetica,sans-Serif" font-size="10.00">+ operator=()</text>
<text text-anchor="start" x="269.5" y="-62.5" font-family="Helvetica,sans-Serif" font-size="10.00">+ operator=()</text>
<text text-anchor="start" x="269.5" y="-51.5" font-family="Helvetica,sans-Serif" font-size="10.00">+ file()</text>
<text text-anchor="start" x="269.5" y="-40.5" font-family="Helvetica,sans-Serif" font-size="10.00">+ size()</text>
<text text-anchor="start" x="269.5" y="-29.5" font-family="Helvetica,sans-Serif" font-size="10.00">+ remaining()</text>
<text text-anchor="start" x="269.5" y="-18.5" font-family="Helvetica,sans-Serif" font-size="10.00">+ isMultipart()</text>
<text text-anchor="start" x="269.5" y="-7.5" font-family="Helvetica,sans-Serif" font-size="10.00">and 11 more...</text>
</a>
</g>
</g>
<!-- Node2 -->
<g id="node2" class="node">
<title>Node2</title>
<g id="a_node2"><a xlink:title=" ">
<polygon fill="none" stroke="black" points="0,-226.5 0,-283.5 128,-283.5 128,-226.5 0,-226.5"/>
<text text-anchor="middle" x="64" y="-271.5" font-family="Helvetica,sans-Serif" font-size="10.00">static constexpr unsigned</text>
<polyline fill="none" stroke="black" points="0,-264.5 128,-264.5 "/>
<text text-anchor="middle" x="64" y="-252.5" font-family="Helvetica,sans-Serif" font-size="10.00"> </text>
<polyline fill="none" stroke="black" points="0,-245.5 128,-245.5 "/>
<text text-anchor="middle" x="64" y="-233.5" font-family="Helvetica,sans-Serif" font-size="10.00"> </text>
</a>
</g>
</g>
<!-- Node2&#45;&gt;Node1 -->
<g id="edge1" class="edge">
<title>Node2&#45;&gt;Node1</title>
<path fill="none" stroke="#404040" d="M96.45,-226.42C112.39,-213.45 132.18,-198.2 151,-186 182.39,-165.66 218.31,-145.84 250.47,-129.22"/>
<polygon fill="none" stroke="#404040" points="250.54,-129.18 254.05,-122.89 261.22,-123.71 257.7,-130.01 250.54,-129.18"/>
<text text-anchor="middle" x="184.5" y="-194.5" font-family="Helvetica,sans-Serif" font-size="10.00"> &#45;SplitterLength</text>
</g>
<!-- Node3 -->
<g id="node3" class="node">
<title>Node3</title>
<g id="a_node3"><a xlink:title=" ">
<polygon fill="none" stroke="black" points="146,-226.5 146,-283.5 196,-283.5 196,-226.5 146,-226.5"/>
<text text-anchor="middle" x="171" y="-271.5" font-family="Helvetica,sans-Serif" font-size="10.00">fstream</text>
<polyline fill="none" stroke="black" points="146,-264.5 196,-264.5 "/>
<text text-anchor="middle" x="171" y="-252.5" font-family="Helvetica,sans-Serif" font-size="10.00"> </text>
<polyline fill="none" stroke="black" points="146,-245.5 196,-245.5 "/>
<text text-anchor="middle" x="171" y="-233.5" font-family="Helvetica,sans-Serif" font-size="10.00"> </text>
</a>
</g>
</g>
<!-- Node3&#45;&gt;Node1 -->
<g id="edge2" class="edge">
<title>Node3&#45;&gt;Node1</title>
<path fill="none" stroke="#404040" d="M196.23,-229.06C211.5,-213.97 231.99,-193.73 252.77,-173.19"/>
<polygon fill="none" stroke="#404040" points="252.83,-173.13 254.28,-166.07 261.36,-164.69 259.91,-171.76 252.83,-173.13"/>
<text text-anchor="middle" x="249.5" y="-194.5" font-family="Helvetica,sans-Serif" font-size="10.00"> &#45;file_</text>
</g>
<!-- Node4 -->
<g id="node4" class="node">
<title>Node4</title>
<g id="a_node4"><a xlink:title=" ">
<polygon fill="none" stroke="black" points="214.5,-226.5 214.5,-283.5 469.5,-283.5 469.5,-226.5 214.5,-226.5"/>
<text text-anchor="middle" x="342" y="-271.5" font-family="Helvetica,sans-Serif" font-size="10.00">vector&lt; Roar::Detail::RangeFileBodyImpl::Sequence &gt;</text>
<polyline fill="none" stroke="black" points="214.5,-264.5 469.5,-264.5 "/>
<text text-anchor="middle" x="342" y="-252.5" font-family="Helvetica,sans-Serif" font-size="10.00"> </text>
<polyline fill="none" stroke="black" points="214.5,-245.5 469.5,-245.5 "/>
<text text-anchor="middle" x="342" y="-233.5" font-family="Helvetica,sans-Serif" font-size="10.00"> </text>
</a>
</g>
</g>
<!-- Node4&#45;&gt;Node1 -->
<g id="edge3" class="edge">
<title>Node4&#45;&gt;Node1</title>
<path fill="none" stroke="#404040" d="M342,-226.47C342,-213.45 342,-197.05 342,-180.07"/>
<polygon fill="none" stroke="#404040" points="342,-179.65 338,-173.65 342,-167.65 346,-173.65 342,-179.65"/>
<text text-anchor="middle" x="371.5" y="-194.5" font-family="Helvetica,sans-Serif" font-size="10.00"> &#45;sequences_</text>
</g>
<!-- Node5 -->
<g id="node5" class="node">
<title>Node5</title>
<g id="a_node5"><a xlink:title=" ">
<polygon fill="none" stroke="black" points="487.5,-226.5 487.5,-283.5 528.5,-283.5 528.5,-226.5 487.5,-226.5"/>
<text text-anchor="middle" x="508" y="-271.5" font-family="Helvetica,sans-Serif" font-size="10.00">string</text>
<polyline fill="none" stroke="black" points="487.5,-264.5 528.5,-264.5 "/>
<text text-anchor="middle" x="508" y="-252.5" font-family="Helvetica,sans-Serif" font-size="10.00"> </text>
<polyline fill="none" stroke="black" points="487.5,-245.5 528.5,-245.5 "/>
<text text-anchor="middle" x="508" y="-233.5" font-family="Helvetica,sans-Serif" font-size="10.00"> </text>
</a>
</g>
</g>
<!-- Node5&#45;&gt;Node1 -->
<g id="edge4" class="edge">
<title>Node5&#45;&gt;Node1</title>
<path fill="none" stroke="#404040" d="M487.31,-232.94C472.73,-218.1 452.11,-197.1 430.97,-175.58"/>
<polygon fill="none" stroke="#404040" points="430.95,-175.55 423.89,-174.08 422.54,-166.99 429.59,-168.47 430.95,-175.55"/>
<text text-anchor="middle" x="478.5" y="-194.5" font-family="Helvetica,sans-Serif" font-size="10.00"> &#45;splitter_</text>
</g>
<!-- Node6 -->
<g id="node6" class="node">
<title>Node6</title>
<g id="a_node6"><a xlink:title=" ">
<polygon fill="none" stroke="black" points="548.5,-226.5 548.5,-283.5 591.5,-283.5 591.5,-226.5 548.5,-226.5"/>
<text text-anchor="middle" x="570" y="-271.5" font-family="Helvetica,sans-Serif" font-size="10.00">size_t</text>
<polyline fill="none" stroke="black" points="548.5,-264.5 591.5,-264.5 "/>
<text text-anchor="middle" x="570" y="-252.5" font-family="Helvetica,sans-Serif" font-size="10.00"> </text>
<polyline fill="none" stroke="black" points="548.5,-245.5 591.5,-245.5 "/>
<text text-anchor="middle" x="570" y="-233.5" font-family="Helvetica,sans-Serif" font-size="10.00"> </text>
</a>
</g>
</g>
<!-- Node6&#45;&gt;Node1 -->
<g id="edge5" class="edge">
<title>Node6&#45;&gt;Node1</title>
<path fill="none" stroke="#404040" d="M548.31,-229.32C535.77,-215.75 519.28,-199.07 503,-186 481.37,-168.63 456.59,-151.78 433.05,-136.98"/>
<polygon fill="none" stroke="#404040" points="432.89,-136.88 425.69,-137.11 422.7,-130.55 429.91,-130.32 432.89,-136.88"/>
<text text-anchor="middle" x="554.5" y="-200" font-family="Helvetica,sans-Serif" font-size="10.00"> &#45;consumed_</text>
<text text-anchor="middle" x="554.5" y="-189" font-family="Helvetica,sans-Serif" font-size="10.00">&#45;totalSize_</text>
</g>
</g>
</svg>
