<?xml version="1.0" encoding="UTF-8" standalone="no"?>
<!DOCTYPE svg PUBLIC "-//W3C//DTD SVG 1.1//EN"
 "http://www.w3.org/Graphics/SVG/1.1/DTD/svg11.dtd">
<!-- Generated by graphviz version 8.1.0 (0)
 -->
<!-- Title: Roar::WebsocketSession Pages: 1 -->
<svg width="992pt" height="564pt"
 viewBox="0.00 0.00 991.50 564.00" xmlns="http://www.w3.org/2000/svg" xmlns:xlink="http://www.w3.org/1999/xlink">
<g id="graph0" class="graph" transform="scale(1 1) rotate(0) translate(4 560)">
<title>Roar::WebsocketSession</title>
<!-- Node1 -->
<g id="Node000001" class="node">
<title>Node1</title>
<g id="a_Node000001"><a xlink:title="A WebsocketSession allows you to interact with a client via websocket protocol.">
<polygon fill="#999999" stroke="none" points="829,-84 574,-84 574,0 829,0 829,-84"/>
<text text-anchor="start" x="646" y="-70.5" font-family="Helvetica,sans-Serif" font-size="10.00">Roar::WebsocketSession</text>
<text text-anchor="start" x="700" y="-54.5" font-family="Helvetica,sans-Serif" font-size="10.00"> </text>
<text text-anchor="start" x="578" y="-38.5" font-family="Helvetica,sans-Serif" font-size="10.00">+</text>
<text text-anchor="start" x="588" y="-38.5" font-family="Helvetica,sans-Serif" font-size="10.00">WebsocketSession()</text>
<text text-anchor="start" x="578" y="-22.5" font-family="Helvetica,sans-Serif" font-size="10.00">+</text>
<text text-anchor="start" x="588" y="-22.5" font-family="Helvetica,sans-Serif" font-size="10.00">ROAR_PIMPL_SPECIAL_FUNCTIONS_NO_MOVE()</text>
<text text-anchor="start" x="578" y="-6.5" font-family="Helvetica,sans-Serif" font-size="10.00">+</text>
<text text-anchor="start" x="588" y="-6.5" font-family="Helvetica,sans-Serif" font-size="10.00">accept()</text>
<polygon fill="#666666" stroke="#666666" points="574,-66 574,-66 829,-66 829,-66 574,-66"/>
<polygon fill="#666666" stroke="#666666" points="574,-50 574,-50 829,-50 829,-50 574,-50"/>
<polygon fill="none" stroke="#666666" points="574,0 574,-84 829,-84 829,0 574,0"/>
</a>
</g>
</g>
<!-- Node2 -->
<g id="Node000002" class="node">
<title>Node2</title>
<g id="a_Node000002"><a xlink:href="structRoar_1_1Detail_1_1SharedFromBase.html" target="_top" xlink:title=" ">
<polygon fill="white" stroke="none" points="709,-184 386,-184 386,-132 709,-132 709,-184"/>
<text text-anchor="start" x="390.75" y="-170.5" font-family="Helvetica,sans-Serif" font-size="10.00">Roar::Detail::SharedFromBase&lt; WebsocketBase, WebsocketSession &gt;</text>
<text text-anchor="start" x="546" y="-154.5" font-family="Helvetica,sans-Serif" font-size="10.00"> </text>
<text text-anchor="start" x="446" y="-138.5" font-family="Helvetica,sans-Serif" font-size="10.00">+</text>
<text text-anchor="start" x="512" y="-138.5" font-family="Helvetica,sans-Serif" font-size="10.00">shared_from_this()</text>
<polygon fill="#666666" stroke="#666666" points="386,-166 386,-166 709,-166 709,-166 386,-166"/>
<polygon fill="#666666" stroke="#666666" points="386,-150 386,-150 709,-150 709,-150 386,-150"/>
<polygon fill="none" stroke="#666666" points="386,-132 386,-184 709,-184 709,-132 386,-132"/>
</a>
</g>
</g>
<!-- Node2&#45;&gt;Node1 -->
<g id="edge1_Node000001_Node000002" class="edge">
<title>Node2&#45;&gt;Node1</title>
<g id="a_edge1_Node000001_Node000002"><a xlink:title=" ">
<path fill="none" stroke="#63b8ff" d="M589.75,-125.72C607.22,-112.79 627.72,-97.62 646.35,-83.82"/>
<polygon fill="none" stroke="#63b8ff" points="587.87,-123.5 581.92,-132.26 592.04,-129.13 587.87,-123.5"/>
</a>
</g>
</g>
<!-- Node3 -->
<g id="Node000003" class="node">
<title>Node3</title>
<g id="a_Node000003"><a xlink:href="classRoar_1_1WebsocketBase.html" target="_top" xlink:title=" ">
<polygon fill="white" stroke="none" points="489.5,-444 381.5,-444 381.5,-232 489.5,-232 489.5,-444"/>
<text text-anchor="start" x="386.38" y="-430.5" font-family="Helvetica,sans-Serif" font-size="10.00">Roar::WebsocketBase</text>
<text text-anchor="start" x="434" y="-414.5" font-family="Helvetica,sans-Serif" font-size="10.00"> </text>
<text text-anchor="start" x="387" y="-398.5" font-family="Helvetica,sans-Serif" font-size="10.00">+</text>
<text text-anchor="start" x="398.5" y="-398.5" font-family="Helvetica,sans-Serif" font-size="10.00">WebsocketBase()</text>
<text text-anchor="start" x="387" y="-382.5" font-family="Helvetica,sans-Serif" font-size="10.00">+</text>
<text text-anchor="start" x="398.5" y="-382.5" font-family="Helvetica,sans-Serif" font-size="10.00">WebsocketBase()</text>
<text text-anchor="start" x="387" y="-366.5" font-family="Helvetica,sans-Serif" font-size="10.00">+</text>
<text text-anchor="start" x="398.5" y="-366.5" font-family="Helvetica,sans-Serif" font-size="10.00">WebsocketBase()</text>
<text text-anchor="start" x="387" y="-350.5" font-family="Helvetica,sans-Serif" font-size="10.00">+</text>
<text text-anchor="start" x="398.5" y="-350.5" font-family="Helvetica,sans-Serif" font-size="10.00">operator=()</text>
<text text-anchor="start" x="387" y="-334.5" font-family="Helvetica,sans-Serif" font-size="10.00">+</text>
<text text-anchor="start" x="398.5" y="-334.5" font-family="Helvetica,sans-Serif" font-size="10.00">WebsocketBase()</text>
<text text-anchor="start" x="387" y="-318.5" font-family="Helvetica,sans-Serif" font-size="10.00">+</text>
<text text-anchor="start" x="398.5" y="-318.5" font-family="Helvetica,sans-Serif" font-size="10.00">operator=()</text>
<text text-anchor="start" x="387" y="-302.5" font-family="Helvetica,sans-Serif" font-size="10.00">+</text>
<text text-anchor="start" x="398.5" y="-302.5" font-family="Helvetica,sans-Serif" font-size="10.00">~WebsocketBase()</text>
<text text-anchor="start" x="387" y="-286.5" font-family="Helvetica,sans-Serif" font-size="10.00">+</text>
<text text-anchor="start" x="398.5" y="-286.5" font-family="Helvetica,sans-Serif" font-size="10.00">withStreamDo()</text>
<text text-anchor="start" x="387" y="-270.5" font-family="Helvetica,sans-Serif" font-size="10.00">+</text>
<text text-anchor="start" x="398.5" y="-270.5" font-family="Helvetica,sans-Serif" font-size="10.00">withStreamDo()</text>
<text text-anchor="start" x="387" y="-254.5" font-family="Helvetica,sans-Serif" font-size="10.00">+</text>
<text text-anchor="start" x="398.5" y="-254.5" font-family="Helvetica,sans-Serif" font-size="10.00">readMessageMax()</text>
<text text-anchor="start" x="398.5" y="-238.5" font-family="Helvetica,sans-Serif" font-size="10.00">and 9 more...</text>
<polygon fill="#666666" stroke="#666666" points="381.5,-426 381.5,-426 489.5,-426 489.5,-426 381.5,-426"/>
<polygon fill="#666666" stroke="#666666" points="381.5,-410 381.5,-410 489.5,-410 489.5,-410 381.5,-410"/>
<polygon fill="none" stroke="#666666" points="381.5,-232 381.5,-444 489.5,-444 489.5,-232 381.5,-232"/>
</a>
</g>
</g>
<!-- Node3&#45;&gt;Node2 -->
<g id="edge2_Node000002_Node000003" class="edge">
<title>Node3&#45;&gt;Node2</title>
<g id="a_edge2_Node000002_Node000003"><a xlink:title=" ">
<path fill="none" stroke="#63b8ff" d="M495.21,-242.1C508.82,-220.47 522.14,-199.3 531.93,-183.74"/>
<polygon fill="none" stroke="#63b8ff" points="491.73,-240.06 489.37,-250.39 497.66,-243.79 491.73,-240.06"/>
</a>
</g>
</g>
<!-- Node4 -->
<g id="Node000004" class="node">
<title>Node4</title>
<g id="a_Node000004"><a xlink:title=" ">
<polygon fill="white" stroke="none" points="227,-550 0,-550 0,-498 227,-498 227,-550"/>
<text text-anchor="start" x="4.75" y="-536.5" font-family="Helvetica,sans-Serif" font-size="10.00">std::enable_shared_from_this&lt; WebsocketBase &gt;</text>
<text text-anchor="start" x="112" y="-520.5" font-family="Helvetica,sans-Serif" font-size="10.00"> </text>
<text text-anchor="start" x="112" y="-504.5" font-family="Helvetica,sans-Serif" font-size="10.00"> </text>
<polygon fill="#666666" stroke="#666666" points="0,-532 0,-532 227,-532 227,-532 0,-532"/>
<polygon fill="#666666" stroke="#666666" points="0,-516 0,-516 227,-516 227,-516 0,-516"/>
<polygon fill="none" stroke="#666666" points="0,-498 0,-550 227,-550 227,-498 0,-498"/>
</a>
</g>
</g>
<!-- Node4&#45;&gt;Node3 -->
<g id="edge3_Node000003_Node000004" class="edge">
<title>Node4&#45;&gt;Node3</title>
<g id="a_edge3_Node000003_Node000004"><a xlink:title=" ">
<path fill="none" stroke="#63b8ff" d="M166.13,-492.93C225.5,-459 321.58,-404.1 381.51,-369.85"/>
<polygon fill="none" stroke="#63b8ff" points="164.87,-490.18 157.93,-498.18 168.35,-496.26 164.87,-490.18"/>
</a>
</g>
</g>
<!-- Node5 -->
<g id="Node000005" class="node">
<title>Node5</title>
<g id="a_Node000005"><a xlink:title=" ">
<polygon fill="white" stroke="none" points="626,-556 245,-556 245,-492 626,-492 626,-556"/>
<text text-anchor="start" x="249.88" y="-542.5" font-family="Helvetica,sans-Serif" font-size="10.00">variant&lt; boost::beast::websocket::stream&lt; boost::beast::ssl_stream</text>
<text text-anchor="start" x="249.88" y="-530.5" font-family="Helvetica,sans-Serif" font-size="10.00">&lt; Detail::StreamType &gt; &gt;, boost::beast::websocket::stream&lt; Detail::StreamType &gt; &gt;</text>
<text text-anchor="start" x="434" y="-514.5" font-family="Helvetica,sans-Serif" font-size="10.00"> </text>
<text text-anchor="start" x="434" y="-498.5" font-family="Helvetica,sans-Serif" font-size="10.00"> </text>
<polygon fill="#666666" stroke="#666666" points="245,-526 245,-526 626,-526 626,-526 245,-526"/>
<polygon fill="#666666" stroke="#666666" points="245,-510 245,-510 626,-510 626,-510 245,-510"/>
<polygon fill="none" stroke="#666666" points="245,-492 245,-556 626,-556 626,-492 245,-492"/>
</a>
</g>
</g>
<!-- Node5&#45;&gt;Node3 -->
<g id="edge4_Node000003_Node000005" class="edge">
<title>Node5&#45;&gt;Node3</title>
<g id="a_edge4_Node000003_Node000005"><a xlink:title=" ">
<path fill="none" stroke="#63b8ff" d="M435.5,-492.2C435.5,-481.81 435.5,-469.52 435.5,-456.48"/>
<polygon fill="none" stroke="#63b8ff" points="435.5,-456.7 431.5,-450.7 435.5,-444.7 439.5,-450.7 435.5,-456.7"/>
</a>
</g>
<text text-anchor="middle" x="448.62" y="-464.5" font-family="Helvetica,sans-Serif" font-size="10.00" fill="grey"> #ws_</text>
</g>
<!-- Node6 -->
<g id="Node000006" class="node">
<title>Node6</title>
<g id="a_Node000006"><a xlink:href="structRoar_1_1Detail_1_1SharedFromBase.html" target="_top" xlink:title=" ">
<polygon fill="white" stroke="none" points="752.5,-364 528.5,-364 528.5,-312 752.5,-312 752.5,-364"/>
<text text-anchor="start" x="533.25" y="-350.5" font-family="Helvetica,sans-Serif" font-size="10.00">Roar::Detail::SharedFromBase&lt; Base, Derived &gt;</text>
<text text-anchor="start" x="639" y="-334.5" font-family="Helvetica,sans-Serif" font-size="10.00"> </text>
<text text-anchor="start" x="563.5" y="-318.5" font-family="Helvetica,sans-Serif" font-size="10.00">+</text>
<text text-anchor="start" x="604.5" y="-318.5" font-family="Helvetica,sans-Serif" font-size="10.00">shared_from_this()</text>
<polygon fill="#666666" stroke="#666666" points="528.5,-346 528.5,-346 752.5,-346 752.5,-346 528.5,-346"/>
<polygon fill="#666666" stroke="#666666" points="528.5,-330 528.5,-330 752.5,-330 752.5,-330 528.5,-330"/>
<polygon fill="none" stroke="#666666" points="528.5,-312 528.5,-364 752.5,-364 752.5,-312 528.5,-312"/>
</a>
</g>
</g>
<!-- Node6&#45;&gt;Node2 -->
<g id="edge5_Node000002_Node000006" class="edge">
<title>Node6&#45;&gt;Node2</title>
<g id="a_edge5_Node000002_Node000006"><a xlink:title=" ">
<path fill="none" stroke="orange" d="M622.48,-302.5C604.28,-267.67 576.62,-214.73 560.47,-183.83"/>
<polygon fill="orange" stroke="orange" points="619.84,-304.01 627.57,-311.25 626.04,-300.77 619.84,-304.01"/>
</a>
</g>
<text text-anchor="middle" x="666.62" y="-204.5" font-family="Helvetica,sans-Serif" font-size="10.00" fill="grey"> &lt; WebsocketBase, WebsocketSession &gt;</text>
</g>
<!-- Node7 -->
<g id="Node000007" class="node">
<title>Node7</title>
<g id="a_Node000007"><a xlink:href="classBase.html" target="_top" xlink:title=" ">
<polygon fill="white" stroke="none" points="676.5,-550 644.5,-550 644.5,-498 676.5,-498 676.5,-550"/>
<text text-anchor="start" x="649.25" y="-536.5" font-family="Helvetica,sans-Serif" font-size="10.00">Base</text>
<text text-anchor="start" x="659" y="-520.5" font-family="Helvetica,sans-Serif" font-size="10.00"> </text>
<text text-anchor="start" x="659" y="-504.5" font-family="Helvetica,sans-Serif" font-size="10.00"> </text>
<polygon fill="#666666" stroke="#666666" points="644.5,-532 644.5,-532 676.5,-532 676.5,-532 644.5,-532"/>
<polygon fill="#666666" stroke="#666666" points="644.5,-516 644.5,-516 676.5,-516 676.5,-516 644.5,-516"/>
<polygon fill="none" stroke="#666666" points="644.5,-498 644.5,-550 676.5,-550 676.5,-498 644.5,-498"/>
</a>
</g>
</g>
<!-- Node7&#45;&gt;Node6 -->
<g id="edge6_Node000006_Node000007" class="edge">
<title>Node7&#45;&gt;Node6</title>
<g id="a_edge6_Node000006_Node000007"><a xlink:title=" ">
<path fill="none" stroke="#63b8ff" d="M656.65,-487.57C652.7,-451.21 646.65,-395.58 643.19,-363.72"/>
<polygon fill="none" stroke="#63b8ff" points="653.24,-487.62 657.8,-497.18 660.2,-486.87 653.24,-487.62"/>
</a>
</g>
</g>
<!-- Node8 -->
<g id="Node000008" class="node">
<title>Node8</title>
<g id="a_Node000008"><a xlink:title=" ">
<polygon fill="white" stroke="none" points="983.5,-184 727.5,-184 727.5,-132 983.5,-132 983.5,-184"/>
<text text-anchor="start" x="732.12" y="-170.5" font-family="Helvetica,sans-Serif" font-size="10.00">unique_ptr&lt; Roar::WebsocketSession::Implementation &gt;</text>
<text text-anchor="start" x="854" y="-154.5" font-family="Helvetica,sans-Serif" font-size="10.00"> </text>
<text text-anchor="start" x="854" y="-138.5" font-family="Helvetica,sans-Serif" font-size="10.00"> </text>
<polygon fill="#666666" stroke="#666666" points="727.5,-166 727.5,-166 983.5,-166 983.5,-166 727.5,-166"/>
<polygon fill="#666666" stroke="#666666" points="727.5,-150 727.5,-150 983.5,-150 983.5,-150 727.5,-150"/>
<polygon fill="none" stroke="#666666" points="727.5,-132 727.5,-184 983.5,-184 983.5,-132 727.5,-132"/>
</a>
</g>
</g>
<!-- Node8&#45;&gt;Node1 -->
<g id="edge7_Node000001_Node000008" class="edge">
<title>Node8&#45;&gt;Node1</title>
<g id="a_edge7_Node000001_Node000008"><a xlink:title=" ">
<path fill="none" stroke="#63b8ff" d="M822.08,-132.26C805.96,-120.33 786.04,-105.58 767.06,-91.53"/>
<polygon fill="none" stroke="#63b8ff" points="767.02,-91.5 759.82,-91.15 757.37,-84.36 764.58,-84.72 767.02,-91.5"/>
</a>
</g>
<text text-anchor="middle" x="812.12" y="-104.5" font-family="Helvetica,sans-Serif" font-size="10.00" fill="grey"> &#45;impl_</text>
</g>
</g>
</svg>
