<?xml version="1.0" encoding="UTF-8" standalone="no"?>
<!DOCTYPE svg PUBLIC "-//W3C//DTD SVG 1.1//EN"
 "http://www.w3.org/Graphics/SVG/1.1/DTD/svg11.dtd">
<!-- Generated by graphviz version 2.44.1 (20211215.1903)
 -->
<!-- Title: Roar::Curl::Request Pages: 1 -->
<!--zoomable 474 -->
<svg id="main" version="1.1" xmlns="http://www.w3.org/2000/svg" xmlns:xlink="http://www.w3.org/1999/xlink" xml:space="preserve" onload="init(evt)">
<style type="text/css"><![CDATA[
.edge:hover path { stroke: red; }
.edge:hover polygon { stroke: red; fill: red; }
]]></style>
<script type="text/javascript"><![CDATA[
var edges = document.getElementsByTagName('g');
if (edges && edges.length) {
  for (var i=0;i<edges.length;i++) {
    if (edges[i].id.substr(0,4)=='edge') {
      edges[i].setAttribute('class','edge');
    }
  }
}
]]></script>
        <defs>
                <circle id="rim" cx="0" cy="0" r="7"/>
                <circle id="rim2" cx="0" cy="0" r="3.5"/>
                <g id="zoomPlus">
                        <use xlink:href="#rim" fill="#404040">
                                <set attributeName="fill" to="#808080" begin="zoomplus.mouseover" end="zoomplus.mouseout"/>
                        </use>
                        <path d="M-4,0h8M0,-4v8" fill="none" stroke="white" stroke-width="1.5" pointer-events="none"/>
                </g>
                <g id="zoomMin">
                        <use xlink:href="#rim" fill="#404040">
                                <set attributeName="fill" to="#808080" begin="zoomminus.mouseover" end="zoomminus.mouseout"/>
                        </use>
                        <path d="M-4,0h8" fill="none" stroke="white" stroke-width="1.5" pointer-events="none"/>
                </g>
                <g id="dirArrow">
                        <path fill="none" stroke="white" stroke-width="1.5" d="M0,-3.0v7 M-2.5,-0.5L0,-3.0L2.5,-0.5"/>
                </g>
               <g id="resetDef">
                       <use xlink:href="#rim2" fill="#404040">
                               <set attributeName="fill" to="#808080" begin="reset.mouseover" end="reset.mouseout"/>
                       </use>
               </g>
        </defs>

<script type="text/javascript">
var viewWidth = 1335;
var viewHeight = 474;
var sectionId = 'dynsection-0';
</script>
<script xlink:href="svgpan.js"/>
<svg id="graph" class="graph">
<g id="viewport">
<title>Roar::Curl::Request</title>
<!-- Node1 -->
<g id="node1" class="node">
<title>Node1</title>
<g id="a_node1"><a xlink:title=" ">
<polygon fill="#bfbfbf" stroke="black" points="522,-0.5 522,-233.5 626,-233.5 626,-0.5 522,-0.5"/>
<text text-anchor="middle" x="574" y="-221.5" font-family="Helvetica,sans-Serif" font-size="10.00">Roar::Curl::Request</text>
<polyline fill="none" stroke="black" points="522,-214.5 626,-214.5 "/>
<text text-anchor="middle" x="574" y="-202.5" font-family="Helvetica,sans-Serif" font-size="10.00"> </text>
<polyline fill="none" stroke="black" points="522,-195.5 626,-195.5 "/>
<text text-anchor="start" x="530" y="-183.5" font-family="Helvetica,sans-Serif" font-size="10.00">+ Request()</text>
<text text-anchor="start" x="530" y="-172.5" font-family="Helvetica,sans-Serif" font-size="10.00">+ basicAuth()</text>
<text text-anchor="start" x="530" y="-161.5" font-family="Helvetica,sans-Serif" font-size="10.00">+ bearerAuth()</text>
<text text-anchor="start" x="530" y="-150.5" font-family="Helvetica,sans-Serif" font-size="10.00">+ acceptEncoding()</text>
<text text-anchor="start" x="530" y="-139.5" font-family="Helvetica,sans-Serif" font-size="10.00">+ setHeaderFields()</text>
<text text-anchor="start" x="530" y="-128.5" font-family="Helvetica,sans-Serif" font-size="10.00">+ setHeaderField()</text>
<text text-anchor="start" x="530" y="-117.5" font-family="Helvetica,sans-Serif" font-size="10.00">+ verifyPeer()</text>
<text text-anchor="start" x="530" y="-106.5" font-family="Helvetica,sans-Serif" font-size="10.00">+ verifyHost()</text>
<text text-anchor="start" x="530" y="-95.5" font-family="Helvetica,sans-Serif" font-size="10.00">+ connectTimeout()</text>
<text text-anchor="start" x="530" y="-84.5" font-family="Helvetica,sans-Serif" font-size="10.00">+ transferTimeout()</text>
<text text-anchor="start" x="530" y="-73.5" font-family="Helvetica,sans-Serif" font-size="10.00">and 25 more...</text>
<text text-anchor="start" x="530" y="-62.5" font-family="Helvetica,sans-Serif" font-size="10.00">&#45; verb()</text>
<text text-anchor="start" x="530" y="-51.5" font-family="Helvetica,sans-Serif" font-size="10.00">&#45; url()</text>
<text text-anchor="start" x="530" y="-40.5" font-family="Helvetica,sans-Serif" font-size="10.00">&#45; check()</text>
<text text-anchor="start" x="530" y="-29.5" font-family="Helvetica,sans-Serif" font-size="10.00">&#45; setupSource()</text>
<text text-anchor="start" x="530" y="-18.5" font-family="Helvetica,sans-Serif" font-size="10.00">&#45; setupSinks()</text>
<text text-anchor="start" x="530" y="-7.5" font-family="Helvetica,sans-Serif" font-size="10.00">&#45; perform()</text>
</a>
</g>
</g>
<!-- Node2 -->
<g id="node2" class="node">
<title>Node2</title>
<g id="a_node2"><a xlink:href="classRoar_1_1Curl_1_1Instance.html" target="_top" xlink:title=" ">
<polygon fill="none" stroke="black" points="1.5,-281.5 1.5,-360.5 106.5,-360.5 106.5,-281.5 1.5,-281.5"/>
<text text-anchor="middle" x="54" y="-348.5" font-family="Helvetica,sans-Serif" font-size="10.00">Roar::Curl::Instance</text>
<polyline fill="none" stroke="black" points="1.5,-341.5 106.5,-341.5 "/>
<text text-anchor="middle" x="54" y="-329.5" font-family="Helvetica,sans-Serif" font-size="10.00"> </text>
<polyline fill="none" stroke="black" points="1.5,-322.5 106.5,-322.5 "/>
<text text-anchor="start" x="9.5" y="-310.5" font-family="Helvetica,sans-Serif" font-size="10.00">+ Instance()</text>
<text text-anchor="start" x="9.5" y="-299.5" font-family="Helvetica,sans-Serif" font-size="10.00">+ operator CURL *()</text>
<text text-anchor="start" x="9.5" y="-288.5" font-family="Helvetica,sans-Serif" font-size="10.00">+ get()</text>
</a>
</g>
</g>
<!-- Node2&#45;&gt;Node1 -->
<g id="edge1" class="edge">
<title>Node2&#45;&gt;Node1</title>
<path fill="none" stroke="#404040" d="M106.82,-285.23C109.55,-283.75 112.29,-282.33 115,-281 250.39,-214.75 419.77,-161.74 510.16,-135.64"/>
<polygon fill="none" stroke="#404040" points="510.32,-135.6 514.98,-130.1 521.85,-132.29 517.19,-137.79 510.32,-135.6"/>
<text text-anchor="middle" x="200.5" y="-255" font-family="Helvetica,sans-Serif" font-size="10.00"> &#45;instance_</text>
</g>
<!-- Node3 -->
<g id="node3" class="node">
<title>Node3</title>
<g id="a_node3"><a xlink:title=" ">
<polygon fill="none" stroke="black" points="0,-408.5 0,-465.5 108,-465.5 108,-408.5 0,-408.5"/>
<text text-anchor="middle" x="54" y="-453.5" font-family="Helvetica,sans-Serif" font-size="10.00">shared_ptr&lt; CURL &gt;</text>
<polyline fill="none" stroke="black" points="0,-446.5 108,-446.5 "/>
<text text-anchor="middle" x="54" y="-434.5" font-family="Helvetica,sans-Serif" font-size="10.00"> </text>
<polyline fill="none" stroke="black" points="0,-427.5 108,-427.5 "/>
<text text-anchor="middle" x="54" y="-415.5" font-family="Helvetica,sans-Serif" font-size="10.00"> </text>
</a>
</g>
</g>
<!-- Node3&#45;&gt;Node2 -->
<g id="edge2" class="edge">
<title>Node3&#45;&gt;Node2</title>
<path fill="none" stroke="#404040" d="M54,-408.4C54,-397.63 54,-384.93 54,-372.62"/>
<polygon fill="none" stroke="#404040" points="54,-372.54 50,-366.54 54,-360.54 58,-366.54 54,-372.54"/>
<text text-anchor="middle" x="78.5" y="-382" font-family="Helvetica,sans-Serif" font-size="10.00"> &#45;instance_</text>
</g>
<!-- Node4 -->
<g id="node4" class="node">
<title>Node4</title>
<g id="a_node4"><a xlink:title=" ">
<polygon fill="none" stroke="black" points="124.5,-292.5 124.5,-349.5 291.5,-349.5 291.5,-292.5 124.5,-292.5"/>
<text text-anchor="middle" x="208" y="-337.5" font-family="Helvetica,sans-Serif" font-size="10.00">function&lt; void(char *, std::size_t)&gt;</text>
<polyline fill="none" stroke="black" points="124.5,-330.5 291.5,-330.5 "/>
<text text-anchor="middle" x="208" y="-318.5" font-family="Helvetica,sans-Serif" font-size="10.00"> </text>
<polyline fill="none" stroke="black" points="124.5,-311.5 291.5,-311.5 "/>
<text text-anchor="middle" x="208" y="-299.5" font-family="Helvetica,sans-Serif" font-size="10.00"> </text>
</a>
</g>
</g>
<!-- Node4&#45;&gt;Node1 -->
<g id="edge3" class="edge">
<title>Node4&#45;&gt;Node1</title>
<path fill="none" stroke="#404040" d="M258.12,-292.34C323.95,-256 439.55,-192.21 511.16,-152.68"/>
<polygon fill="none" stroke="#404040" points="511.32,-152.59 514.64,-146.19 521.82,-146.8 518.5,-153.2 511.32,-152.59"/>
<text text-anchor="middle" x="342" y="-255" font-family="Helvetica,sans-Serif" font-size="10.00"> &#45;sink_</text>
</g>
<!-- Node5 -->
<g id="node5" class="node">
<title>Node5</title>
<g id="a_node5"><a xlink:title=" ">
<polygon fill="none" stroke="black" points="309.5,-287 309.5,-355 596.5,-355 596.5,-287 309.5,-287"/>
<text text-anchor="start" x="317.5" y="-343" font-family="Helvetica,sans-Serif" font-size="10.00">vector&lt; std::pair&lt; std::function&lt; void(char *, std::size_t)&gt;, std</text>
<text text-anchor="middle" x="453" y="-332" font-family="Helvetica,sans-Serif" font-size="10.00">::function&lt; void()&gt; &gt; &gt;</text>
<polyline fill="none" stroke="black" points="309.5,-325 596.5,-325 "/>
<text text-anchor="middle" x="453" y="-313" font-family="Helvetica,sans-Serif" font-size="10.00"> </text>
<polyline fill="none" stroke="black" points="309.5,-306 596.5,-306 "/>
<text text-anchor="middle" x="453" y="-294" font-family="Helvetica,sans-Serif" font-size="10.00"> </text>
</a>
</g>
</g>
<!-- Node5&#45;&gt;Node1 -->
<g id="edge4" class="edge">
<title>Node5&#45;&gt;Node1</title>
<path fill="none" stroke="#404040" d="M472.98,-286.64C484.72,-267.04 500.23,-241.16 515.56,-215.56"/>
<polygon fill="none" stroke="#404040" points="515.71,-215.31 515.36,-208.11 521.88,-205.02 522.22,-212.22 515.71,-215.31"/>
<text text-anchor="middle" x="510.5" y="-255" font-family="Helvetica,sans-Serif" font-size="10.00"> &#45;sinks_</text>
</g>
<!-- Node6 -->
<g id="node6" class="node">
<title>Node6</title>
<g id="a_node6"><a xlink:title=" ">
<polygon fill="none" stroke="black" points="614.5,-292.5 614.5,-349.5 775.5,-349.5 775.5,-292.5 614.5,-292.5"/>
<text text-anchor="middle" x="695" y="-337.5" font-family="Helvetica,sans-Serif" font-size="10.00">unique_ptr&lt; Roar::Curl::Source &gt;</text>
<polyline fill="none" stroke="black" points="614.5,-330.5 775.5,-330.5 "/>
<text text-anchor="middle" x="695" y="-318.5" font-family="Helvetica,sans-Serif" font-size="10.00"> </text>
<polyline fill="none" stroke="black" points="614.5,-311.5 775.5,-311.5 "/>
<text text-anchor="middle" x="695" y="-299.5" font-family="Helvetica,sans-Serif" font-size="10.00"> </text>
</a>
</g>
</g>
<!-- Node6&#45;&gt;Node1 -->
<g id="edge5" class="edge">
<title>Node6&#45;&gt;Node1</title>
<path fill="none" stroke="#404040" d="M678.43,-292.34C666.38,-272.22 649.29,-243.69 632.42,-215.52"/>
<polygon fill="none" stroke="#404040" points="632.39,-215.47 625.87,-212.38 626.22,-205.18 632.73,-208.27 632.39,-215.47"/>
<text text-anchor="middle" x="680.5" y="-255" font-family="Helvetica,sans-Serif" font-size="10.00"> &#45;source_</text>
</g>
<!-- Node7 -->
<g id="node7" class="node">
<title>Node7</title>
<g id="a_node7"><a xlink:title=" ">
<polygon fill="none" stroke="black" points="793.5,-292.5 793.5,-349.5 1114.5,-349.5 1114.5,-292.5 793.5,-292.5"/>
<text text-anchor="middle" x="954" y="-337.5" font-family="Helvetica,sans-Serif" font-size="10.00">vector&lt; std::function&lt; void(std::string const &amp;, std::string const &amp;)&gt; &gt;</text>
<polyline fill="none" stroke="black" points="793.5,-330.5 1114.5,-330.5 "/>
<text text-anchor="middle" x="954" y="-318.5" font-family="Helvetica,sans-Serif" font-size="10.00"> </text>
<polyline fill="none" stroke="black" points="793.5,-311.5 1114.5,-311.5 "/>
<text text-anchor="middle" x="954" y="-299.5" font-family="Helvetica,sans-Serif" font-size="10.00"> </text>
</a>
</g>
</g>
<!-- Node7&#45;&gt;Node1 -->
<g id="edge6" class="edge">
<title>Node7&#45;&gt;Node1</title>
<path fill="none" stroke="#404040" d="M901.96,-292.34C832.94,-255.65 711.21,-190.94 637.05,-151.52"/>
<polygon fill="none" stroke="#404040" points="636.62,-151.29 629.44,-152 626.02,-145.65 633.2,-144.94 636.62,-151.29"/>
<text text-anchor="middle" x="884.5" y="-255" font-family="Helvetica,sans-Serif" font-size="10.00"> &#45;headerReceivers_</text>
</g>
<!-- Node8 -->
<g id="node8" class="node">
<title>Node8</title>
<g id="a_node8"><a xlink:title=" ">
<polygon fill="none" stroke="black" points="1133,-292.5 1133,-349.5 1327,-349.5 1327,-292.5 1133,-292.5"/>
<text text-anchor="middle" x="1230" y="-337.5" font-family="Helvetica,sans-Serif" font-size="10.00">unordered_map&lt; std::string, std::string &gt;</text>
<polyline fill="none" stroke="black" points="1133,-330.5 1327,-330.5 "/>
<text text-anchor="middle" x="1230" y="-318.5" font-family="Helvetica,sans-Serif" font-size="10.00"> </text>
<polyline fill="none" stroke="black" points="1133,-311.5 1327,-311.5 "/>
<text text-anchor="middle" x="1230" y="-299.5" font-family="Helvetica,sans-Serif" font-size="10.00"> </text>
</a>
</g>
</g>
<!-- Node8&#45;&gt;Node1 -->
<g id="edge7" class="edge">
<title>Node8&#45;&gt;Node1</title>
<path fill="none" stroke="#404040" d="M1156.94,-292.42C1145.94,-288.47 1134.7,-284.55 1124,-281 949.65,-223.16 741.02,-164.05 638.02,-135.53"/>
<polygon fill="none" stroke="#404040" points="637.86,-135.48 631.01,-137.74 626.29,-132.28 633.14,-130.03 637.86,-135.48"/>
<text text-anchor="middle" x="1097.5" y="-255" font-family="Helvetica,sans-Serif" font-size="10.00"> &#45;headerFields_</text>
</g>
</g>
</svg>
        <g id="navigator" transform="translate(0 0)" fill="#404254">
                <rect fill="#f2f5e9" fill-opacity="0.5" stroke="#606060" stroke-width=".5" x="0" y="0" width="60" height="60"/>
                <use id="zoomplus" xlink:href="#zoomPlus" x="17" y="9" onmousedown="handleZoom(evt,'in')"/>
                <use id="zoomminus" xlink:href="#zoomMin" x="42" y="9" onmousedown="handleZoom(evt,'out')"/>
                <use id="reset" xlink:href="#resetDef" x="30" y="36" onmousedown="handleReset()"/>
                <g id="arrowUp" xlink:href="#dirArrow" transform="translate(30 24)" onmousedown="handlePan(0,-1)">
                  <use xlink:href="#rim" fill="#404040">
                        <set attributeName="fill" to="#808080" begin="arrowUp.mouseover" end="arrowUp.mouseout"/>
                  </use>
                  <path fill="none" stroke="white" stroke-width="1.5" d="M0,-3.0v7 M-2.5,-0.5L0,-3.0L2.5,-0.5"/>
                </g>
                <g id="arrowRight" xlink:href="#dirArrow" transform="rotate(90) translate(36 -43)" onmousedown="handlePan(1,0)">
                  <use xlink:href="#rim" fill="#404040">
                        <set attributeName="fill" to="#808080" begin="arrowRight.mouseover" end="arrowRight.mouseout"/>
                  </use>
                  <path fill="none" stroke="white" stroke-width="1.5" d="M0,-3.0v7 M-2.5,-0.5L0,-3.0L2.5,-0.5"/>
                </g>
                <g id="arrowDown" xlink:href="#dirArrow" transform="rotate(180) translate(-30 -48)" onmousedown="handlePan(0,1)">
                  <use xlink:href="#rim" fill="#404040">
                        <set attributeName="fill" to="#808080" begin="arrowDown.mouseover" end="arrowDown.mouseout"/>
                  </use>
                  <path fill="none" stroke="white" stroke-width="1.5" d="M0,-3.0v7 M-2.5,-0.5L0,-3.0L2.5,-0.5"/>
                </g>
                <g id="arrowLeft" xlink:href="#dirArrow" transform="rotate(270) translate(-36 17)" onmousedown="handlePan(-1,0)">
                  <use xlink:href="#rim" fill="#404040">
                        <set attributeName="fill" to="#808080" begin="arrowLeft.mouseover" end="arrowLeft.mouseout"/>
                  </use>
                  <path fill="none" stroke="white" stroke-width="1.5" d="M0,-3.0v7 M-2.5,-0.5L0,-3.0L2.5,-0.5"/>
                </g>
        </g>
        <svg viewBox="0 0 15 15" width="100%" height="30px" preserveAspectRatio="xMaxYMin meet">
         <g id="arrow_out" transform="scale(0.3 0.3)">
          <a xlink:href="classRoar_1_1Curl_1_1Request__coll__graph_org.svg" target="_base">
           <rect id="button" ry="5" rx="5" y="6" x="6" height="38" width="38"
                fill="#f2f5e9" fill-opacity="0.5" stroke="#606060" stroke-width="1.0"/>
           <path id="arrow"
             d="M 11.500037,31.436501 C 11.940474,20.09759 22.043105,11.32322 32.158766,21.979434 L 37.068811,17.246167 C 37.068811,17.246167 37.088388,32 37.088388,32 L 22.160133,31.978069 C 22.160133,31.978069 26.997745,27.140456 26.997745,27.140456 C 18.528582,18.264221 13.291696,25.230495 11.500037,31.436501 z"
             style="fill:#404040;"/>
          </a>
         </g>
        </svg>
</svg>
