<?xml version="1.0" encoding="UTF-8" standalone="no"?>
<!DOCTYPE svg PUBLIC "-//W3C//DTD SVG 1.1//EN"
 "http://www.w3.org/Graphics/SVG/1.1/DTD/svg11.dtd">
<!-- Generated by graphviz version 8.1.0 (0)
 -->
<!-- Title: Roar::Jail Pages: 1 -->
<svg width="98pt" height="224pt"
 viewBox="0.00 0.00 98.00 224.00" xmlns="http://www.w3.org/2000/svg" xmlns:xlink="http://www.w3.org/1999/xlink">
<g id="graph0" class="graph" transform="scale(1 1) rotate(0) translate(4 220)">
<title>Roar::Jail</title>
<!-- Node1 -->
<g id="Node000001" class="node">
<title>Node1</title>
<g id="a_Node000001"><a xlink:title=" ">
<polygon fill="#999999" stroke="none" points="90,-116 0,-116 0,0 90,0 90,-116"/>
<text text-anchor="start" x="24" y="-102.5" font-family="Helvetica,sans-Serif" font-size="10.00">Roar::Jail</text>
<text text-anchor="start" x="43.5" y="-86.5" font-family="Helvetica,sans-Serif" font-size="10.00"> </text>
<text text-anchor="start" x="4" y="-70.5" font-family="Helvetica,sans-Serif" font-size="10.00">+</text>
<text text-anchor="start" x="14" y="-70.5" font-family="Helvetica,sans-Serif" font-size="10.00">Jail()</text>
<text text-anchor="start" x="4" y="-54.5" font-family="Helvetica,sans-Serif" font-size="10.00">+</text>
<text text-anchor="start" x="14" y="-54.5" font-family="Helvetica,sans-Serif" font-size="10.00">isWithinJail()</text>
<text text-anchor="start" x="4" y="-38.5" font-family="Helvetica,sans-Serif" font-size="10.00">+</text>
<text text-anchor="start" x="14" y="-38.5" font-family="Helvetica,sans-Serif" font-size="10.00">relativeToRoot()</text>
<text text-anchor="start" x="4" y="-22.5" font-family="Helvetica,sans-Serif" font-size="10.00">+</text>
<text text-anchor="start" x="14" y="-22.5" font-family="Helvetica,sans-Serif" font-size="10.00">pathAsIsInJail()</text>
<text text-anchor="start" x="4" y="-6.5" font-family="Helvetica,sans-Serif" font-size="10.00">+</text>
<text text-anchor="start" x="14" y="-6.5" font-family="Helvetica,sans-Serif" font-size="10.00">fakeJailAsRoot()</text>
<polygon fill="#666666" stroke="#666666" points="0,-98 0,-98 90,-98 90,-98 0,-98"/>
<polygon fill="#666666" stroke="#666666" points="0,-82 0,-82 90,-82 90,-82 0,-82"/>
<polygon fill="none" stroke="#666666" points="0,0 0,-116 90,-116 90,0 0,0"/>
</a>
</g>
</g>
<!-- Node2 -->
<g id="Node000002" class="node">
<title>Node2</title>
<g id="a_Node000002"><a xlink:title=" ">
<polygon fill="white" stroke="none" points="59,-216 31,-216 31,-164 59,-164 59,-216"/>
<text text-anchor="start" x="35.62" y="-202.5" font-family="Helvetica,sans-Serif" font-size="10.00">path</text>
<text text-anchor="start" x="43.5" y="-186.5" font-family="Helvetica,sans-Serif" font-size="10.00"> </text>
<text text-anchor="start" x="43.5" y="-170.5" font-family="Helvetica,sans-Serif" font-size="10.00"> </text>
<polygon fill="#666666" stroke="#666666" points="31,-198 31,-198 59,-198 59,-198 31,-198"/>
<polygon fill="#666666" stroke="#666666" points="31,-182 31,-182 59,-182 59,-182 31,-182"/>
<polygon fill="none" stroke="#666666" points="31,-164 31,-216 59,-216 59,-164 31,-164"/>
</a>
</g>
</g>
<!-- Node2&#45;&gt;Node1 -->
<g id="edge1_Node000001_Node000002" class="edge">
<title>Node2&#45;&gt;Node1</title>
<g id="a_edge1_Node000001_Node000002"><a xlink:title=" ">
<path fill="none" stroke="#63b8ff" d="M45,-164.24C45,-153.91 45,-141.34 45,-128.54"/>
<polygon fill="none" stroke="#63b8ff" points="45,-128.63 41,-122.63 45,-116.63 49,-122.63 45,-128.63"/>
</a>
</g>
<text text-anchor="middle" x="67.12" y="-136.5" font-family="Helvetica,sans-Serif" font-size="10.00" fill="grey"> &#45;jailRoot_</text>
</g>
</g>
</svg>
