<?xml version="1.0" encoding="UTF-8" standalone="no"?>
<!DOCTYPE svg PUBLIC "-//W3C//DTD SVG 1.1//EN"
 "http://www.w3.org/Graphics/SVG/1.1/DTD/svg11.dtd">
<!-- Generated by graphviz version 2.44.1 (20211215.1903)
 -->
<!-- Title: Roar::Session::SendIntermediate&lt; BodyT &gt; Pages: 1 -->
<svg width="581pt" height="314pt"
 viewBox="0.00 0.00 580.50 314.00" xmlns="http://www.w3.org/2000/svg" xmlns:xlink="http://www.w3.org/1999/xlink">
<g id="graph0" class="graph" transform="scale(1 1) rotate(0) translate(4 310)">
<title>Roar::Session::SendIntermediate&lt; BodyT &gt;</title>
<!-- Node1 -->
<g id="node1" class="node">
<title>Node1</title>
<g id="a_node1"><a xlink:title="Helper class to prepare and send a response.">
<polygon fill="#bfbfbf" stroke="black" points="272,-0.5 272,-200.5 480,-200.5 480,-0.5 272,-0.5"/>
<text text-anchor="middle" x="376" y="-188.5" font-family="Helvetica,sans-Serif" font-size="10.00">Roar::Session::SendIntermediate&lt; BodyT &gt;</text>
<polyline fill="none" stroke="black" points="272,-181.5 480,-181.5 "/>
<text text-anchor="middle" x="376" y="-169.5" font-family="Helvetica,sans-Serif" font-size="10.00"> </text>
<polyline fill="none" stroke="black" points="272,-162.5 480,-162.5 "/>
<text text-anchor="start" x="280" y="-150.5" font-family="Helvetica,sans-Serif" font-size="10.00">+ SendIntermediate()</text>
<text text-anchor="start" x="280" y="-139.5" font-family="Helvetica,sans-Serif" font-size="10.00">+ SendIntermediate()</text>
<text text-anchor="start" x="280" y="-128.5" font-family="Helvetica,sans-Serif" font-size="10.00">+ SendIntermediate()</text>
<text text-anchor="start" x="280" y="-117.5" font-family="Helvetica,sans-Serif" font-size="10.00">+ operator=()</text>
<text text-anchor="start" x="280" y="-106.5" font-family="Helvetica,sans-Serif" font-size="10.00">+ operator=()</text>
<text text-anchor="start" x="280" y="-95.5" font-family="Helvetica,sans-Serif" font-size="10.00">+ status()</text>
<text text-anchor="start" x="280" y="-84.5" font-family="Helvetica,sans-Serif" font-size="10.00">+ body()</text>
<text text-anchor="start" x="280" y="-73.5" font-family="Helvetica,sans-Serif" font-size="10.00">+ body()</text>
<text text-anchor="start" x="280" y="-62.5" font-family="Helvetica,sans-Serif" font-size="10.00">+ chunked()</text>
<text text-anchor="start" x="280" y="-51.5" font-family="Helvetica,sans-Serif" font-size="10.00">+ contentType()</text>
<text text-anchor="start" x="280" y="-40.5" font-family="Helvetica,sans-Serif" font-size="10.00">+ setHeader()</text>
<text text-anchor="start" x="280" y="-29.5" font-family="Helvetica,sans-Serif" font-size="10.00">+ enableCors()</text>
<text text-anchor="start" x="280" y="-18.5" font-family="Helvetica,sans-Serif" font-size="10.00">+ preparePayload()</text>
<text text-anchor="start" x="280" y="-7.5" font-family="Helvetica,sans-Serif" font-size="10.00">+ commit()</text>
</a>
</g>
</g>
<!-- Node2 -->
<g id="node2" class="node">
<title>Node2</title>
<g id="a_node2"><a xlink:title=" ">
<polygon fill="none" stroke="black" points="0,-248.5 0,-305.5 286,-305.5 286,-248.5 0,-248.5"/>
<text text-anchor="middle" x="143" y="-293.5" font-family="Helvetica,sans-Serif" font-size="10.00">std::enable_shared_from_this&lt; SendIntermediate&lt; BodyT &gt; &gt;</text>
<polyline fill="none" stroke="black" points="0,-286.5 286,-286.5 "/>
<text text-anchor="middle" x="143" y="-274.5" font-family="Helvetica,sans-Serif" font-size="10.00"> </text>
<polyline fill="none" stroke="black" points="0,-267.5 286,-267.5 "/>
<text text-anchor="middle" x="143" y="-255.5" font-family="Helvetica,sans-Serif" font-size="10.00"> </text>
</a>
</g>
</g>
<!-- Node2&#45;&gt;Node1 -->
<g id="edge1" class="edge">
<title>Node2&#45;&gt;Node1</title>
<path fill="none" stroke="midnightblue" d="M188.09,-242.23C212.01,-224.32 242.46,-201.51 271.85,-179.5"/>
<polygon fill="none" stroke="midnightblue" points="185.83,-239.55 179.92,-248.35 190.02,-245.16 185.83,-239.55"/>
</g>
<!-- Node3 -->
<g id="node3" class="node">
<title>Node3</title>
<g id="a_node3"><a xlink:title=" ">
<polygon fill="none" stroke="black" points="304.5,-248.5 304.5,-305.5 447.5,-305.5 447.5,-248.5 304.5,-248.5"/>
<text text-anchor="middle" x="376" y="-293.5" font-family="Helvetica,sans-Serif" font-size="10.00">shared_ptr&lt; Roar::Session &gt;</text>
<polyline fill="none" stroke="black" points="304.5,-286.5 447.5,-286.5 "/>
<text text-anchor="middle" x="376" y="-274.5" font-family="Helvetica,sans-Serif" font-size="10.00"> </text>
<polyline fill="none" stroke="black" points="304.5,-267.5 447.5,-267.5 "/>
<text text-anchor="middle" x="376" y="-255.5" font-family="Helvetica,sans-Serif" font-size="10.00"> </text>
</a>
</g>
</g>
<!-- Node3&#45;&gt;Node1 -->
<g id="edge2" class="edge">
<title>Node3&#45;&gt;Node1</title>
<path fill="none" stroke="#404040" d="M376,-248.35C376,-238.2 376,-225.98 376,-212.98"/>
<polygon fill="none" stroke="#404040" points="376,-212.87 372,-206.87 376,-200.87 380,-206.87 376,-212.87"/>
<text text-anchor="middle" x="399" y="-222" font-family="Helvetica,sans-Serif" font-size="10.00"> &#45;session_</text>
</g>
<!-- Node4 -->
<g id="node4" class="node">
<title>Node4</title>
<g id="a_node4"><a xlink:title=" ">
<polygon fill="none" stroke="black" points="465.5,-248.5 465.5,-305.5 572.5,-305.5 572.5,-248.5 465.5,-248.5"/>
<text text-anchor="middle" x="519" y="-293.5" font-family="Helvetica,sans-Serif" font-size="10.00">Response&lt; BodyT &gt;</text>
<polyline fill="none" stroke="black" points="465.5,-286.5 572.5,-286.5 "/>
<text text-anchor="middle" x="519" y="-274.5" font-family="Helvetica,sans-Serif" font-size="10.00"> </text>
<polyline fill="none" stroke="black" points="465.5,-267.5 572.5,-267.5 "/>
<text text-anchor="middle" x="519" y="-255.5" font-family="Helvetica,sans-Serif" font-size="10.00"> </text>
</a>
</g>
</g>
<!-- Node4&#45;&gt;Node1 -->
<g id="edge3" class="edge">
<title>Node4&#45;&gt;Node1</title>
<path fill="none" stroke="#404040" d="M496.34,-248.35C487.43,-237.47 476.57,-224.22 465.07,-210.19"/>
<polygon fill="none" stroke="#404040" points="465.04,-210.15 458.14,-208.04 457.43,-200.87 464.33,-202.97 465.04,-210.15"/>
<text text-anchor="middle" x="506" y="-222" font-family="Helvetica,sans-Serif" font-size="10.00"> &#45;response_</text>
</g>
</g>
</svg>
