<?xml version="1.0" encoding="UTF-8" standalone="no"?>
<!DOCTYPE svg PUBLIC "-//W3C//DTD SVG 1.1//EN"
 "http://www.w3.org/Graphics/SVG/1.1/DTD/svg11.dtd">
<!-- Generated by graphviz version 2.44.1 (20211215.1903)
 -->
<!-- Title: Roar::Request&lt; BodyT &gt; Pages: 1 -->
<svg width="651pt" height="365pt"
 viewBox="0.00 0.00 651.00 365.00" xmlns="http://www.w3.org/2000/svg" xmlns:xlink="http://www.w3.org/1999/xlink">
<g id="graph0" class="graph" transform="scale(1 1) rotate(0) translate(4 361)">
<title>Roar::Request&lt; BodyT &gt;</title>
<!-- Node1 -->
<g id="node1" class="node">
<title>Node1</title>
<g id="a_node1"><a xlink:title="This class extends the boost::beast::http::request&lt;BodyT&gt; with additional convenience.">
<polygon fill="#bfbfbf" stroke="black" points="238.5,-0.5 238.5,-156.5 421.5,-156.5 421.5,-0.5 238.5,-0.5"/>
<text text-anchor="middle" x="330" y="-144.5" font-family="Helvetica,sans-Serif" font-size="10.00">Roar::Request&lt; BodyT &gt;</text>
<polyline fill="none" stroke="black" points="238.5,-137.5 421.5,-137.5 "/>
<text text-anchor="middle" x="330" y="-125.5" font-family="Helvetica,sans-Serif" font-size="10.00"> </text>
<polyline fill="none" stroke="black" points="238.5,-118.5 421.5,-118.5 "/>
<text text-anchor="start" x="246.5" y="-106.5" font-family="Helvetica,sans-Serif" font-size="10.00">+ Request()</text>
<text text-anchor="start" x="246.5" y="-95.5" font-family="Helvetica,sans-Serif" font-size="10.00">+ Request()</text>
<text text-anchor="start" x="246.5" y="-84.5" font-family="Helvetica,sans-Serif" font-size="10.00">+ path()</text>
<text text-anchor="start" x="246.5" y="-73.5" font-family="Helvetica,sans-Serif" font-size="10.00">+ query()</text>
<text text-anchor="start" x="246.5" y="-62.5" font-family="Helvetica,sans-Serif" font-size="10.00">+ pathMatches()</text>
<text text-anchor="start" x="246.5" y="-51.5" font-family="Helvetica,sans-Serif" font-size="10.00">+ pathMatches()</text>
<text text-anchor="start" x="246.5" y="-40.5" font-family="Helvetica,sans-Serif" font-size="10.00">+ splitCommaSeperatedHeaderEntry()</text>
<text text-anchor="start" x="246.5" y="-29.5" font-family="Helvetica,sans-Serif" font-size="10.00">+ isWebsocketUpgrade()</text>
<text text-anchor="start" x="246.5" y="-18.5" font-family="Helvetica,sans-Serif" font-size="10.00">&#45; parseTarget()</text>
<text text-anchor="start" x="246.5" y="-7.5" font-family="Helvetica,sans-Serif" font-size="10.00">&#45; parseQuery()</text>
</a>
</g>
</g>
<!-- Node2 -->
<g id="node2" class="node">
<title>Node2</title>
<g id="a_node2"><a xlink:href="classboost_1_1beast_1_1http_1_1request.html" target="_top" xlink:title=" ">
<polygon fill="none" stroke="black" points="0,-194.5 0,-251.5 178,-251.5 178,-194.5 0,-194.5"/>
<text text-anchor="middle" x="89" y="-239.5" font-family="Helvetica,sans-Serif" font-size="10.00">boost::beast::http::request&lt; BodyT &gt;</text>
<polyline fill="none" stroke="black" points="0,-232.5 178,-232.5 "/>
<text text-anchor="middle" x="89" y="-220.5" font-family="Helvetica,sans-Serif" font-size="10.00"> </text>
<polyline fill="none" stroke="black" points="0,-213.5 178,-213.5 "/>
<text text-anchor="middle" x="89" y="-201.5" font-family="Helvetica,sans-Serif" font-size="10.00"> </text>
</a>
</g>
</g>
<!-- Node2&#45;&gt;Node1 -->
<g id="edge1" class="edge">
<title>Node2&#45;&gt;Node1</title>
<path fill="none" stroke="midnightblue" d="M144.55,-189.15C172.4,-172.69 206.85,-152.32 238.47,-133.62"/>
<polygon fill="none" stroke="midnightblue" points="142.58,-186.25 135.75,-194.36 146.14,-192.28 142.58,-186.25"/>
</g>
<!-- Node3 -->
<g id="node3" class="node">
<title>Node3</title>
<g id="a_node3"><a xlink:href="structRoar_1_1Detail_1_1RequestExtensions.html" target="_top" xlink:title=" ">
<polygon fill="none" stroke="black" points="379.5,-194.5 379.5,-251.5 540.5,-251.5 540.5,-194.5 379.5,-194.5"/>
<text text-anchor="middle" x="460" y="-239.5" font-family="Helvetica,sans-Serif" font-size="10.00">Roar::Detail::RequestExtensions</text>
<polyline fill="none" stroke="black" points="379.5,-232.5 540.5,-232.5 "/>
<text text-anchor="middle" x="460" y="-220.5" font-family="Helvetica,sans-Serif" font-size="10.00"> </text>
<polyline fill="none" stroke="black" points="379.5,-213.5 540.5,-213.5 "/>
<text text-anchor="middle" x="460" y="-201.5" font-family="Helvetica,sans-Serif" font-size="10.00"> </text>
</a>
</g>
</g>
<!-- Node3&#45;&gt;Node1 -->
<g id="edge2" class="edge">
<title>Node3&#45;&gt;Node1</title>
<path fill="none" stroke="#8b1a1a" d="M427.81,-186.71C419.39,-177.49 409.98,-167.17 400.41,-156.69"/>
<polygon fill="none" stroke="#8b1a1a" points="425.3,-189.16 434.63,-194.19 430.47,-184.44 425.3,-189.16"/>
</g>
<!-- Node4 -->
<g id="node4" class="node">
<title>Node4</title>
<g id="a_node4"><a xlink:title=" ">
<polygon fill="none" stroke="black" points="142,-299.5 142,-356.5 318,-356.5 318,-299.5 142,-299.5"/>
<text text-anchor="middle" x="230" y="-344.5" font-family="Helvetica,sans-Serif" font-size="10.00">optional&lt; std::vector&lt; std::string &gt; &gt;</text>
<polyline fill="none" stroke="black" points="142,-337.5 318,-337.5 "/>
<text text-anchor="middle" x="230" y="-325.5" font-family="Helvetica,sans-Serif" font-size="10.00"> </text>
<polyline fill="none" stroke="black" points="142,-318.5 318,-318.5 "/>
<text text-anchor="middle" x="230" y="-306.5" font-family="Helvetica,sans-Serif" font-size="10.00"> </text>
</a>
</g>
</g>
<!-- Node4&#45;&gt;Node1 -->
<g id="edge6" class="edge">
<title>Node4&#45;&gt;Node1</title>
<path fill="none" stroke="#404040" d="M231.41,-299.34C233.58,-271.78 239.08,-228.69 253,-194 256.62,-184.99 261.02,-175.96 265.86,-167.15"/>
<polygon fill="none" stroke="#404040" points="265.99,-166.93 265.51,-159.73 271.97,-156.53 272.45,-163.72 265.99,-166.93"/>
<text text-anchor="middle" x="289.5" y="-220.5" font-family="Helvetica,sans-Serif" font-size="10.00"> &#45;regexMatches_</text>
</g>
<!-- Node4&#45;&gt;Node3 -->
<g id="edge3" class="edge">
<title>Node4&#45;&gt;Node3</title>
<path fill="none" stroke="#404040" d="M279.09,-299.43C297.34,-289.63 318.38,-278.84 338,-270 348.68,-265.19 360.03,-260.45 371.34,-255.94"/>
<polygon fill="none" stroke="#404040" points="371.44,-255.9 375.56,-249.98 382.61,-251.51 378.49,-257.43 371.44,-255.9"/>
<text text-anchor="middle" x="376" y="-273" font-family="Helvetica,sans-Serif" font-size="10.00"> +regexMatches_</text>
</g>
<!-- Node5 -->
<g id="node5" class="node">
<title>Node5</title>
<g id="a_node5"><a xlink:title=" ">
<polygon fill="none" stroke="black" points="358.5,-299.5 358.5,-356.5 399.5,-356.5 399.5,-299.5 358.5,-299.5"/>
<text text-anchor="middle" x="379" y="-344.5" font-family="Helvetica,sans-Serif" font-size="10.00">string</text>
<polyline fill="none" stroke="black" points="358.5,-337.5 399.5,-337.5 "/>
<text text-anchor="middle" x="379" y="-325.5" font-family="Helvetica,sans-Serif" font-size="10.00"> </text>
<polyline fill="none" stroke="black" points="358.5,-318.5 399.5,-318.5 "/>
<text text-anchor="middle" x="379" y="-306.5" font-family="Helvetica,sans-Serif" font-size="10.00"> </text>
</a>
</g>
</g>
<!-- Node5&#45;&gt;Node1 -->
<g id="edge7" class="edge">
<title>Node5&#45;&gt;Node1</title>
<path fill="none" stroke="#404040" d="M360.52,-299.39C352.37,-285.73 343.62,-268.64 339,-252 331.65,-225.57 328.41,-195.99 327.27,-168.9"/>
<polygon fill="none" stroke="#404040" points="327.26,-168.65 323.08,-162.77 326.89,-156.65 331.08,-162.52 327.26,-168.65"/>
<text text-anchor="middle" x="354.5" y="-220.5" font-family="Helvetica,sans-Serif" font-size="10.00"> &#45;path_</text>
</g>
<!-- Node5&#45;&gt;Node3 -->
<g id="edge4" class="edge">
<title>Node5&#45;&gt;Node3</title>
<path fill="none" stroke="#404040" d="M399.65,-300.74C409.06,-288.77 420.37,-274.39 430.65,-261.32"/>
<polygon fill="none" stroke="#404040" points="430.84,-261.08 431.4,-253.89 438.26,-251.65 437.69,-258.84 430.84,-261.08"/>
<text text-anchor="middle" x="439" y="-273" font-family="Helvetica,sans-Serif" font-size="10.00"> +path_</text>
</g>
<!-- Node6 -->
<g id="node6" class="node">
<title>Node6</title>
<g id="a_node6"><a xlink:title=" ">
<polygon fill="none" stroke="black" points="449,-299.5 449,-356.5 643,-356.5 643,-299.5 449,-299.5"/>
<text text-anchor="middle" x="546" y="-344.5" font-family="Helvetica,sans-Serif" font-size="10.00">unordered_map&lt; std::string, std::string &gt;</text>
<polyline fill="none" stroke="black" points="449,-337.5 643,-337.5 "/>
<text text-anchor="middle" x="546" y="-325.5" font-family="Helvetica,sans-Serif" font-size="10.00"> </text>
<polyline fill="none" stroke="black" points="449,-318.5 643,-318.5 "/>
<text text-anchor="middle" x="546" y="-306.5" font-family="Helvetica,sans-Serif" font-size="10.00"> </text>
</a>
</g>
</g>
<!-- Node6&#45;&gt;Node1 -->
<g id="edge8" class="edge">
<title>Node6&#45;&gt;Node1</title>
<path fill="none" stroke="#404040" d="M555.08,-299.31C562.66,-270.75 569.42,-225.99 550,-194 524.26,-151.59 477.13,-124.16 433.07,-106.82"/>
<polygon fill="none" stroke="#404040" points="432.88,-106.75 425.85,-108.37 421.65,-102.51 428.67,-100.89 432.88,-106.75"/>
<text text-anchor="middle" x="580" y="-220.5" font-family="Helvetica,sans-Serif" font-size="10.00"> &#45;query_</text>
</g>
<!-- Node6&#45;&gt;Node3 -->
<g id="edge5" class="edge">
<title>Node6&#45;&gt;Node3</title>
<path fill="none" stroke="#404040" d="M522.95,-299.4C513.12,-287.62 501.5,-273.7 490.94,-261.05"/>
<polygon fill="none" stroke="#404040" points="490.8,-260.89 483.89,-258.85 483.11,-251.68 490.03,-253.72 490.8,-260.89"/>
<text text-anchor="middle" x="524.5" y="-273" font-family="Helvetica,sans-Serif" font-size="10.00"> +query_</text>
</g>
</g>
</svg>
