<?xml version="1.0" encoding="UTF-8" standalone="no"?>
<!DOCTYPE svg PUBLIC "-//W3C//DTD SVG 1.1//EN"
 "http://www.w3.org/Graphics/SVG/1.1/DTD/svg11.dtd">
<!-- Generated by graphviz version 2.44.1 (20211215.1903)
 -->
<!-- Title: Roar::Session Pages: 1 -->
<!--zoomable 391 -->
<svg id="main" version="1.1" xmlns="http://www.w3.org/2000/svg" xmlns:xlink="http://www.w3.org/1999/xlink" xml:space="preserve" onload="init(evt)">
<style type="text/css"><![CDATA[
.edge:hover path { stroke: red; }
.edge:hover polygon { stroke: red; fill: red; }
]]></style>
<script type="text/javascript"><![CDATA[
var edges = document.getElementsByTagName('g');
if (edges && edges.length) {
  for (var i=0;i<edges.length;i++) {
    if (edges[i].id.substr(0,4)=='edge') {
      edges[i].setAttribute('class','edge');
    }
  }
}
]]></script>
        <defs>
                <circle id="rim" cx="0" cy="0" r="7"/>
                <circle id="rim2" cx="0" cy="0" r="3.5"/>
                <g id="zoomPlus">
                        <use xlink:href="#rim" fill="#404040">
                                <set attributeName="fill" to="#808080" begin="zoomplus.mouseover" end="zoomplus.mouseout"/>
                        </use>
                        <path d="M-4,0h8M0,-4v8" fill="none" stroke="white" stroke-width="1.5" pointer-events="none"/>
                </g>
                <g id="zoomMin">
                        <use xlink:href="#rim" fill="#404040">
                                <set attributeName="fill" to="#808080" begin="zoomminus.mouseover" end="zoomminus.mouseout"/>
                        </use>
                        <path d="M-4,0h8" fill="none" stroke="white" stroke-width="1.5" pointer-events="none"/>
                </g>
                <g id="dirArrow">
                        <path fill="none" stroke="white" stroke-width="1.5" d="M0,-3.0v7 M-2.5,-0.5L0,-3.0L2.5,-0.5"/>
                </g>
               <g id="resetDef">
                       <use xlink:href="#rim2" fill="#404040">
                               <set attributeName="fill" to="#808080" begin="reset.mouseover" end="reset.mouseout"/>
                       </use>
               </g>
        </defs>

<script type="text/javascript">
var viewWidth = 621;
var viewHeight = 391;
var sectionId = 'dynsection-0';
</script>
<script xlink:href="svgpan.js"/>
<svg id="graph" class="graph">
<g id="viewport">
<title>Roar::Session</title>
<!-- Node1 -->
<g id="node1" class="node">
<title>Node1</title>
<g id="a_node1"><a xlink:title=" ">
<polygon fill="#bfbfbf" stroke="black" points="192.5,-0.5 192.5,-266.5 401.5,-266.5 401.5,-0.5 192.5,-0.5"/>
<text text-anchor="middle" x="297" y="-254.5" font-family="Helvetica,sans-Serif" font-size="10.00">Roar::Session</text>
<polyline fill="none" stroke="black" points="192.5,-247.5 401.5,-247.5 "/>
<text text-anchor="middle" x="297" y="-235.5" font-family="Helvetica,sans-Serif" font-size="10.00"> </text>
<polyline fill="none" stroke="black" points="192.5,-228.5 401.5,-228.5 "/>
<text text-anchor="start" x="200.5" y="-216.5" font-family="Helvetica,sans-Serif" font-size="10.00">+ Session()</text>
<text text-anchor="start" x="200.5" y="-205.5" font-family="Helvetica,sans-Serif" font-size="10.00">+ ROAR_PIMPL_SPECIAL_FUNCTIONS()</text>
<text text-anchor="start" x="200.5" y="-194.5" font-family="Helvetica,sans-Serif" font-size="10.00">+ close()</text>
<text text-anchor="start" x="200.5" y="-183.5" font-family="Helvetica,sans-Serif" font-size="10.00">+ send()</text>
<text text-anchor="start" x="200.5" y="-172.5" font-family="Helvetica,sans-Serif" font-size="10.00">+ send()</text>
<text text-anchor="start" x="200.5" y="-161.5" font-family="Helvetica,sans-Serif" font-size="10.00">+ send()</text>
<text text-anchor="start" x="200.5" y="-150.5" font-family="Helvetica,sans-Serif" font-size="10.00">+ readLimit()</text>
<text text-anchor="start" x="200.5" y="-139.5" font-family="Helvetica,sans-Serif" font-size="10.00">+ writeLimit()</text>
<text text-anchor="start" x="200.5" y="-128.5" font-family="Helvetica,sans-Serif" font-size="10.00">+ read()</text>
<text text-anchor="start" x="200.5" y="-117.5" font-family="Helvetica,sans-Serif" font-size="10.00">+ prepareResponse()</text>
<text text-anchor="start" x="200.5" y="-106.5" font-family="Helvetica,sans-Serif" font-size="10.00">and 7 more...</text>
<text text-anchor="start" x="200.5" y="-95.5" font-family="Helvetica,sans-Serif" font-size="10.00">&#45; setupRouteOptions()</text>
<text text-anchor="start" x="200.5" y="-84.5" font-family="Helvetica,sans-Serif" font-size="10.00">&#45; readHeader()</text>
<text text-anchor="start" x="200.5" y="-73.5" font-family="Helvetica,sans-Serif" font-size="10.00">&#45; performSslHandshake()</text>
<text text-anchor="start" x="200.5" y="-62.5" font-family="Helvetica,sans-Serif" font-size="10.00">&#45; onWriteComplete()</text>
<text text-anchor="start" x="200.5" y="-51.5" font-family="Helvetica,sans-Serif" font-size="10.00">&#45; stream()</text>
<text text-anchor="start" x="200.5" y="-40.5" font-family="Helvetica,sans-Serif" font-size="10.00">&#45; parser()</text>
<text text-anchor="start" x="200.5" y="-29.5" font-family="Helvetica,sans-Serif" font-size="10.00">&#45; buffer()</text>
<text text-anchor="start" x="200.5" y="-18.5" font-family="Helvetica,sans-Serif" font-size="10.00">&#45; standardResponseProvider()</text>
<text text-anchor="start" x="200.5" y="-7.5" font-family="Helvetica,sans-Serif" font-size="10.00">&#45; startup()</text>
</a>
</g>
</g>
<!-- Node2 -->
<g id="node2" class="node">
<title>Node2</title>
<g id="a_node2"><a xlink:title=" ">
<polygon fill="none" stroke="black" points="0,-325.5 0,-382.5 198,-382.5 198,-325.5 0,-325.5"/>
<text text-anchor="middle" x="99" y="-370.5" font-family="Helvetica,sans-Serif" font-size="10.00">std::enable_shared_from_this&lt; Session &gt;</text>
<polyline fill="none" stroke="black" points="0,-363.5 198,-363.5 "/>
<text text-anchor="middle" x="99" y="-351.5" font-family="Helvetica,sans-Serif" font-size="10.00"> </text>
<polyline fill="none" stroke="black" points="0,-344.5 198,-344.5 "/>
<text text-anchor="middle" x="99" y="-332.5" font-family="Helvetica,sans-Serif" font-size="10.00"> </text>
</a>
</g>
</g>
<!-- Node2&#45;&gt;Node1 -->
<g id="edge1" class="edge">
<title>Node2&#45;&gt;Node1</title>
<path fill="none" stroke="midnightblue" d="M131.04,-317.64C148.03,-298.9 169.96,-274.69 192.29,-250.05"/>
<polygon fill="none" stroke="midnightblue" points="128.2,-315.57 124.08,-325.33 133.39,-320.27 128.2,-315.57"/>
</g>
<!-- Node3 -->
<g id="node3" class="node">
<title>Node3</title>
<g id="a_node3"><a xlink:title=" ">
<polygon fill="none" stroke="black" points="216.5,-325.5 216.5,-382.5 267.5,-382.5 267.5,-325.5 216.5,-325.5"/>
<text text-anchor="middle" x="242" y="-370.5" font-family="Helvetica,sans-Serif" font-size="10.00">uint64_t</text>
<polyline fill="none" stroke="black" points="216.5,-363.5 267.5,-363.5 "/>
<text text-anchor="middle" x="242" y="-351.5" font-family="Helvetica,sans-Serif" font-size="10.00"> </text>
<polyline fill="none" stroke="black" points="216.5,-344.5 267.5,-344.5 "/>
<text text-anchor="middle" x="242" y="-332.5" font-family="Helvetica,sans-Serif" font-size="10.00"> </text>
</a>
</g>
</g>
<!-- Node3&#45;&gt;Node1 -->
<g id="edge2" class="edge">
<title>Node3&#45;&gt;Node1</title>
<path fill="none" stroke="#404040" d="M240.36,-325.34C240.14,-312.91 240.62,-298.13 243,-285 243.38,-282.93 243.77,-280.86 244.2,-278.78"/>
<polygon fill="none" stroke="#404040" points="244.26,-278.51 241.66,-271.78 246.86,-266.8 249.46,-273.52 244.26,-278.51"/>
<text text-anchor="middle" x="287" y="-299" font-family="Helvetica,sans-Serif" font-size="10.00"> +defaultBodyLimit</text>
<text text-anchor="middle" x="287" y="-288" font-family="Helvetica,sans-Serif" font-size="10.00">+defaultHeaderLimit</text>
</g>
<!-- Node4 -->
<g id="node4" class="node">
<title>Node4</title>
<g id="a_node4"><a xlink:title=" ">
<polygon fill="none" stroke="black" points="326.5,-325.5 326.5,-382.5 379.5,-382.5 379.5,-325.5 326.5,-325.5"/>
<text text-anchor="middle" x="353" y="-370.5" font-family="Helvetica,sans-Serif" font-size="10.00">seconds</text>
<polyline fill="none" stroke="black" points="326.5,-363.5 379.5,-363.5 "/>
<text text-anchor="middle" x="353" y="-351.5" font-family="Helvetica,sans-Serif" font-size="10.00"> </text>
<polyline fill="none" stroke="black" points="326.5,-344.5 379.5,-344.5 "/>
<text text-anchor="middle" x="353" y="-332.5" font-family="Helvetica,sans-Serif" font-size="10.00"> </text>
</a>
</g>
</g>
<!-- Node4&#45;&gt;Node1 -->
<g id="edge3" class="edge">
<title>Node4&#45;&gt;Node1</title>
<path fill="none" stroke="#404040" d="M345.91,-325.33C342.62,-312.52 338.45,-296.23 333.93,-278.59"/>
<polygon fill="none" stroke="#404040" points="333.89,-278.44 328.53,-273.62 330.91,-266.82 336.28,-271.64 333.89,-278.44"/>
<text text-anchor="middle" x="379.5" y="-293.5" font-family="Helvetica,sans-Serif" font-size="10.00"> +sessionTimeout</text>
</g>
<!-- Node5 -->
<g id="node5" class="node">
<title>Node5</title>
<g id="a_node5"><a xlink:title=" ">
<polygon fill="none" stroke="black" points="397.5,-325.5 397.5,-382.5 612.5,-382.5 612.5,-325.5 397.5,-325.5"/>
<text text-anchor="middle" x="505" y="-370.5" font-family="Helvetica,sans-Serif" font-size="10.00">unique_ptr&lt; Roar::Session::Implementation &gt;</text>
<polyline fill="none" stroke="black" points="397.5,-363.5 612.5,-363.5 "/>
<text text-anchor="middle" x="505" y="-351.5" font-family="Helvetica,sans-Serif" font-size="10.00"> </text>
<polyline fill="none" stroke="black" points="397.5,-344.5 612.5,-344.5 "/>
<text text-anchor="middle" x="505" y="-332.5" font-family="Helvetica,sans-Serif" font-size="10.00"> </text>
</a>
</g>
</g>
<!-- Node5&#45;&gt;Node1 -->
<g id="edge4" class="edge">
<title>Node5&#45;&gt;Node1</title>
<path fill="none" stroke="#404040" d="M478.66,-325.33C460.8,-306.57 435.85,-280.36 410.16,-253.37"/>
<polygon fill="none" stroke="#404040" points="410.07,-253.27 403.03,-251.69 401.79,-244.58 408.83,-246.17 410.07,-253.27"/>
<text text-anchor="middle" x="475" y="-293.5" font-family="Helvetica,sans-Serif" font-size="10.00"> &#45;impl_</text>
</g>
</g>
</svg>
        <g id="navigator" transform="translate(0 0)" fill="#404254">
                <rect fill="#f2f5e9" fill-opacity="0.5" stroke="#606060" stroke-width=".5" x="0" y="0" width="60" height="60"/>
                <use id="zoomplus" xlink:href="#zoomPlus" x="17" y="9" onmousedown="handleZoom(evt,'in')"/>
                <use id="zoomminus" xlink:href="#zoomMin" x="42" y="9" onmousedown="handleZoom(evt,'out')"/>
                <use id="reset" xlink:href="#resetDef" x="30" y="36" onmousedown="handleReset()"/>
                <g id="arrowUp" xlink:href="#dirArrow" transform="translate(30 24)" onmousedown="handlePan(0,-1)">
                  <use xlink:href="#rim" fill="#404040">
                        <set attributeName="fill" to="#808080" begin="arrowUp.mouseover" end="arrowUp.mouseout"/>
                  </use>
                  <path fill="none" stroke="white" stroke-width="1.5" d="M0,-3.0v7 M-2.5,-0.5L0,-3.0L2.5,-0.5"/>
                </g>
                <g id="arrowRight" xlink:href="#dirArrow" transform="rotate(90) translate(36 -43)" onmousedown="handlePan(1,0)">
                  <use xlink:href="#rim" fill="#404040">
                        <set attributeName="fill" to="#808080" begin="arrowRight.mouseover" end="arrowRight.mouseout"/>
                  </use>
                  <path fill="none" stroke="white" stroke-width="1.5" d="M0,-3.0v7 M-2.5,-0.5L0,-3.0L2.5,-0.5"/>
                </g>
                <g id="arrowDown" xlink:href="#dirArrow" transform="rotate(180) translate(-30 -48)" onmousedown="handlePan(0,1)">
                  <use xlink:href="#rim" fill="#404040">
                        <set attributeName="fill" to="#808080" begin="arrowDown.mouseover" end="arrowDown.mouseout"/>
                  </use>
                  <path fill="none" stroke="white" stroke-width="1.5" d="M0,-3.0v7 M-2.5,-0.5L0,-3.0L2.5,-0.5"/>
                </g>
                <g id="arrowLeft" xlink:href="#dirArrow" transform="rotate(270) translate(-36 17)" onmousedown="handlePan(-1,0)">
                  <use xlink:href="#rim" fill="#404040">
                        <set attributeName="fill" to="#808080" begin="arrowLeft.mouseover" end="arrowLeft.mouseout"/>
                  </use>
                  <path fill="none" stroke="white" stroke-width="1.5" d="M0,-3.0v7 M-2.5,-0.5L0,-3.0L2.5,-0.5"/>
                </g>
        </g>
        <svg viewBox="0 0 15 15" width="100%" height="30px" preserveAspectRatio="xMaxYMin meet">
         <g id="arrow_out" transform="scale(0.3 0.3)">
          <a xlink:href="classRoar_1_1Session__coll__graph_org.svg" target="_base">
           <rect id="button" ry="5" rx="5" y="6" x="6" height="38" width="38"
                fill="#f2f5e9" fill-opacity="0.5" stroke="#606060" stroke-width="1.0"/>
           <path id="arrow"
             d="M 11.500037,31.436501 C 11.940474,20.09759 22.043105,11.32322 32.158766,21.979434 L 37.068811,17.246167 C 37.068811,17.246167 37.088388,32 37.088388,32 L 22.160133,31.978069 C 22.160133,31.978069 26.997745,27.140456 26.997745,27.140456 C 18.528582,18.264221 13.291696,25.230495 11.500037,31.436501 z"
             style="fill:#404040;"/>
          </a>
         </g>
        </svg>
</svg>
