<?xml version="1.0" encoding="UTF-8" standalone="no"?>
<!DOCTYPE svg PUBLIC "-//W3C//DTD SVG 1.1//EN"
 "http://www.w3.org/Graphics/SVG/1.1/DTD/svg11.dtd">
<!-- Generated by graphviz version 8.1.0 (0)
 -->
<!-- Title: Roar::Curl::Response Pages: 1 -->
<svg width="184pt" height="404pt"
 viewBox="0.00 0.00 183.50 404.00" xmlns="http://www.w3.org/2000/svg" xmlns:xlink="http://www.w3.org/1999/xlink">

<svg id="main" version="1.1" xmlns="http://www.w3.org/2000/svg" xmlns:xlink="http://www.w3.org/1999/xlink" xml:space="preserve" onload="init(evt)">
<style type="text/css"><![CDATA[
.node, .edge {opacity: 0.7;}
.node.selected, .edge.selected {opacity: 1;}
.edge:hover path { stroke: red; }
.edge:hover polygon { stroke: red; fill: red; }
]]></style>
<script type="application/ecmascript" xlink:href="svg.min.js"/>
<svg id="graph" class="graph">
<g id="graph0" class="graph" transform="scale(1 1) rotate(0) translate(4 400)">
<title>Roar::Curl::Response</title>
<!-- Node1 -->
<g id="Node000001" class="node">
<title>Node1</title>
<g id="a_Node000001"><a xlink:title="This class is returned by a Request class when the request is performed.">
<polygon fill="#999999" stroke="none" points="163,-164 58,-164 58,0 163,0 163,-164"/>
<text text-anchor="start" x="62.88" y="-150.5" font-family="Helvetica,sans-Serif" font-size="10.00">Roar::Curl::Response</text>
<text text-anchor="start" x="109" y="-134.5" font-family="Helvetica,sans-Serif" font-size="10.00"> </text>
<text text-anchor="start" x="64" y="-118.5" font-family="Helvetica,sans-Serif" font-size="10.00">+</text>
<text text-anchor="start" x="76" y="-118.5" font-family="Helvetica,sans-Serif" font-size="10.00">result()</text>
<text text-anchor="start" x="64" y="-102.5" font-family="Helvetica,sans-Serif" font-size="10.00">+</text>
<text text-anchor="start" x="76" y="-102.5" font-family="Helvetica,sans-Serif" font-size="10.00">redirectUrl()</text>
<text text-anchor="start" x="64" y="-86.5" font-family="Helvetica,sans-Serif" font-size="10.00">+</text>
<text text-anchor="start" x="76" y="-86.5" font-family="Helvetica,sans-Serif" font-size="10.00">sizeOfDownload()</text>
<text text-anchor="start" x="64" y="-70.5" font-family="Helvetica,sans-Serif" font-size="10.00">+</text>
<text text-anchor="start" x="76" y="-70.5" font-family="Helvetica,sans-Serif" font-size="10.00">sizeOfUpload()</text>
<text text-anchor="start" x="64" y="-54.5" font-family="Helvetica,sans-Serif" font-size="10.00">+</text>
<text text-anchor="start" x="76" y="-54.5" font-family="Helvetica,sans-Serif" font-size="10.00">code()</text>
<text text-anchor="start" x="64" y="-38.5" font-family="Helvetica,sans-Serif" font-size="10.00">+</text>
<text text-anchor="start" x="76" y="-38.5" font-family="Helvetica,sans-Serif" font-size="10.00">proxyCode()</text>
<text text-anchor="start" x="64" y="-22.5" font-family="Helvetica,sans-Serif" font-size="10.00">+</text>
<text text-anchor="start" x="76" y="-22.5" font-family="Helvetica,sans-Serif" font-size="10.00">operator bool()</text>
<text text-anchor="start" x="65.5" y="-6.5" font-family="Helvetica,sans-Serif" font-size="10.00">&#45;</text>
<text text-anchor="start" x="76" y="-6.5" font-family="Helvetica,sans-Serif" font-size="10.00">Response()</text>
<polygon fill="#666666" stroke="#666666" points="58,-146 58,-146 163,-146 163,-146 58,-146"/>
<polygon fill="#666666" stroke="#666666" points="58,-130 58,-130 163,-130 163,-130 58,-130"/>
<polygon fill="none" stroke="#666666" points="58,0 58,-164 163,-164 163,0 58,0"/>
</a>
</g>
</g>
<!-- Node2 -->
<g id="Node000002" class="node">
<title>Node2</title>
<g id="a_Node000002"><a xlink:href="classRoar_1_1Curl_1_1Instance.html" target="_top" xlink:title=" ">
<polygon fill="white" stroke="none" points="99.5,-296 1.5,-296 1.5,-212 99.5,-212 99.5,-296"/>
<text text-anchor="start" x="6.25" y="-282.5" font-family="Helvetica,sans-Serif" font-size="10.00">Roar::Curl::Instance</text>
<text text-anchor="start" x="49" y="-266.5" font-family="Helvetica,sans-Serif" font-size="10.00"> </text>
<text text-anchor="start" x="6" y="-250.5" font-family="Helvetica,sans-Serif" font-size="10.00">+</text>
<text text-anchor="start" x="16.5" y="-250.5" font-family="Helvetica,sans-Serif" font-size="10.00">Instance()</text>
<text text-anchor="start" x="6" y="-234.5" font-family="Helvetica,sans-Serif" font-size="10.00">+</text>
<text text-anchor="start" x="16.5" y="-234.5" font-family="Helvetica,sans-Serif" font-size="10.00">operator CURL *()</text>
<text text-anchor="start" x="6" y="-218.5" font-family="Helvetica,sans-Serif" font-size="10.00">+</text>
<text text-anchor="start" x="16.5" y="-218.5" font-family="Helvetica,sans-Serif" font-size="10.00">get()</text>
<polygon fill="#666666" stroke="#666666" points="1.5,-278 1.5,-278 99.5,-278 99.5,-278 1.5,-278"/>
<polygon fill="#666666" stroke="#666666" points="1.5,-262 1.5,-262 99.5,-262 99.5,-262 1.5,-262"/>
<polygon fill="none" stroke="#666666" points="1.5,-212 1.5,-296 99.5,-296 99.5,-212 1.5,-212"/>
</a>
</g>
</g>
<!-- Node2&#45;&gt;Node1 -->
<g id="edge1_Node000001_Node000002" class="edge">
<title>Node2&#45;&gt;Node1</title>
<g id="a_edge1_Node000001_Node000002"><a xlink:title=" ">
<path fill="none" stroke="#63b8ff" d="M64.87,-212.28C68.79,-201.19 73.19,-188.7 77.69,-175.97"/>
<polygon fill="none" stroke="#63b8ff" points="77.71,-175.9 75.94,-168.91 81.7,-164.59 83.48,-171.58 77.71,-175.9"/>
</a>
</g>
<text text-anchor="middle" x="99.5" y="-184.5" font-family="Helvetica,sans-Serif" font-size="10.00" fill="grey"> &#45;instance_</text>
</g>
<!-- Node3 -->
<g id="Node000003" class="node">
<title>Node3</title>
<g id="a_Node000003"><a xlink:title=" ">
<polygon fill="white" stroke="none" points="101,-396 0,-396 0,-344 101,-344 101,-396"/>
<text text-anchor="start" x="4.75" y="-382.5" font-family="Helvetica,sans-Serif" font-size="10.00">shared_ptr&lt; CURL &gt;</text>
<text text-anchor="start" x="49" y="-366.5" font-family="Helvetica,sans-Serif" font-size="10.00"> </text>
<text text-anchor="start" x="49" y="-350.5" font-family="Helvetica,sans-Serif" font-size="10.00"> </text>
<polygon fill="#666666" stroke="#666666" points="0,-378 0,-378 101,-378 101,-378 0,-378"/>
<polygon fill="#666666" stroke="#666666" points="0,-362 0,-362 101,-362 101,-362 0,-362"/>
<polygon fill="none" stroke="#666666" points="0,-344 0,-396 101,-396 101,-344 0,-344"/>
</a>
</g>
</g>
<!-- Node3&#45;&gt;Node2 -->
<g id="edge2_Node000002_Node000003" class="edge">
<title>Node3&#45;&gt;Node2</title>
<g id="a_edge2_Node000002_Node000003"><a xlink:title=" ">
<path fill="none" stroke="#63b8ff" d="M50.5,-344.26C50.5,-333.77 50.5,-321.09 50.5,-308.63"/>
<polygon fill="none" stroke="#63b8ff" points="50.5,-308.73 46.5,-302.73 50.5,-296.73 54.5,-302.73 50.5,-308.73"/>
</a>
</g>
<text text-anchor="middle" x="74.5" y="-316.5" font-family="Helvetica,sans-Serif" font-size="10.00" fill="grey"> &#45;instance_</text>
</g>
<!-- Node4 -->
<g id="Node000004" class="node">
<title>Node4</title>
<g id="a_Node000004"><a xlink:title=" ">
<polygon fill="white" stroke="none" points="175.5,-280 117.5,-280 117.5,-228 175.5,-228 175.5,-280"/>
<text text-anchor="start" x="122.12" y="-266.5" font-family="Helvetica,sans-Serif" font-size="10.00">CURLcode</text>
<text text-anchor="start" x="145" y="-250.5" font-family="Helvetica,sans-Serif" font-size="10.00"> </text>
<text text-anchor="start" x="145" y="-234.5" font-family="Helvetica,sans-Serif" font-size="10.00"> </text>
<polygon fill="#666666" stroke="#666666" points="117.5,-262 117.5,-262 175.5,-262 175.5,-262 117.5,-262"/>
<polygon fill="#666666" stroke="#666666" points="117.5,-246 117.5,-246 175.5,-246 175.5,-246 117.5,-246"/>
<polygon fill="none" stroke="#666666" points="117.5,-228 117.5,-280 175.5,-280 175.5,-228 117.5,-228"/>
</a>
</g>
</g>
<!-- Node4&#45;&gt;Node1 -->
<g id="edge3_Node000001_Node000004" class="edge">
<title>Node4&#45;&gt;Node1</title>
<g id="a_edge3_Node000001_Node000004"><a xlink:title=" ">
<path fill="none" stroke="#63b8ff" d="M141.27,-228.28C138.29,-214.23 134.36,-195.65 130.3,-176.49"/>
<polygon fill="none" stroke="#63b8ff" points="130.3,-176.48 125.14,-171.44 127.81,-164.74 132.97,-169.78 130.3,-176.48"/>
</a>
</g>
<text text-anchor="middle" x="149.62" y="-184.5" font-family="Helvetica,sans-Serif" font-size="10.00" fill="grey"> &#45;code_</text>
</g>
</g>
</svg>
</svg>

<style type='text/css'>
<![CDATA[
[data-mouse-over-selected='false'] { opacity: 0.7; }
[data-mouse-over-selected='true']  { opacity: 1.0; }
]]>
</style>
<script type="application/ecmascript"><![CDATA[
document.addEventListener('DOMContentLoaded', (event) => {
  highlightEdges();
  highlightAdjacentNodes();
});
]]></script>
</svg>
