<?xml version="1.0" encoding="UTF-8" standalone="no"?>
<!DOCTYPE svg PUBLIC "-//W3C//DTD SVG 1.1//EN"
 "http://www.w3.org/Graphics/SVG/1.1/DTD/svg11.dtd">
<!-- Generated by graphviz version 8.1.0 (0)
 -->
<!-- Title: Roar::Curl::CurlError Pages: 1 -->
<svg width="226pt" height="192pt"
 viewBox="0.00 0.00 225.50 192.00" xmlns="http://www.w3.org/2000/svg" xmlns:xlink="http://www.w3.org/1999/xlink">

<svg id="main" version="1.1" xmlns="http://www.w3.org/2000/svg" xmlns:xlink="http://www.w3.org/1999/xlink" xml:space="preserve" onload="init(evt)">
<style type="text/css"><![CDATA[
.node, .edge {opacity: 0.7;}
.node.selected, .edge.selected {opacity: 1;}
.edge:hover path { stroke: red; }
.edge:hover polygon { stroke: red; fill: red; }
]]></style>
<script type="application/ecmascript" xlink:href="svg.min.js"/>
<svg id="graph" class="graph">
<g id="graph0" class="graph" transform="scale(1 1) rotate(0) translate(4 188)">
<title>Roar::Curl::CurlError</title>
<!-- Node1 -->
<g id="Node000001" class="node">
<title>Node1</title>
<g id="a_Node000001"><a xlink:title=" ">
<polygon fill="#999999" stroke="none" points="156.5,-84 56.5,-84 56.5,0 156.5,0 156.5,-84"/>
<text text-anchor="start" x="61.5" y="-70.5" font-family="Helvetica,sans-Serif" font-size="10.00">Roar::Curl::CurlError</text>
<text text-anchor="start" x="105" y="-54.5" font-family="Helvetica,sans-Serif" font-size="10.00"> </text>
<text text-anchor="start" x="69.5" y="-38.5" font-family="Helvetica,sans-Serif" font-size="10.00">+</text>
<text text-anchor="start" x="88.5" y="-38.5" font-family="Helvetica,sans-Serif" font-size="10.00">CurlError()</text>
<text text-anchor="start" x="69.5" y="-22.5" font-family="Helvetica,sans-Serif" font-size="10.00">+</text>
<text text-anchor="start" x="88.5" y="-22.5" font-family="Helvetica,sans-Serif" font-size="10.00">what()</text>
<text text-anchor="start" x="69.5" y="-6.5" font-family="Helvetica,sans-Serif" font-size="10.00">+</text>
<text text-anchor="start" x="88.5" y="-6.5" font-family="Helvetica,sans-Serif" font-size="10.00">code()</text>
<polygon fill="#666666" stroke="#666666" points="56.5,-66 56.5,-66 156.5,-66 156.5,-66 56.5,-66"/>
<polygon fill="#666666" stroke="#666666" points="56.5,-50 56.5,-50 156.5,-50 156.5,-50 56.5,-50"/>
<polygon fill="none" stroke="#666666" points="56.5,0 56.5,-84 156.5,-84 156.5,0 56.5,0"/>
</a>
</g>
</g>
<!-- Node2 -->
<g id="Node000002" class="node">
<title>Node2</title>
<g id="a_Node000002"><a xlink:title=" ">
<polygon fill="white" stroke="none" points="71,-184 0,-184 0,-132 71,-132 71,-184"/>
<text text-anchor="start" x="4.75" y="-170.5" font-family="Helvetica,sans-Serif" font-size="10.00">std::exception</text>
<text text-anchor="start" x="34" y="-154.5" font-family="Helvetica,sans-Serif" font-size="10.00"> </text>
<text text-anchor="start" x="34" y="-138.5" font-family="Helvetica,sans-Serif" font-size="10.00"> </text>
<polygon fill="#666666" stroke="#666666" points="0,-166 0,-166 71,-166 71,-166 0,-166"/>
<polygon fill="#666666" stroke="#666666" points="0,-150 0,-150 71,-150 71,-150 0,-150"/>
<polygon fill="none" stroke="#666666" points="0,-132 0,-184 71,-184 71,-132 0,-132"/>
</a>
</g>
</g>
<!-- Node2&#45;&gt;Node1 -->
<g id="edge1_Node000001_Node000002" class="edge">
<title>Node2&#45;&gt;Node1</title>
<g id="a_edge1_Node000001_Node000002"><a xlink:title=" ">
<path fill="none" stroke="#63b8ff" d="M56.55,-123.2C64.25,-110.85 73.04,-96.73 81.07,-83.82"/>
<polygon fill="none" stroke="#63b8ff" points="53.22,-120.93 50.91,-131.26 59.16,-124.63 53.22,-120.93"/>
</a>
</g>
</g>
<!-- Node3 -->
<g id="Node000003" class="node">
<title>Node3</title>
<g id="a_Node000003"><a xlink:title=" ">
<polygon fill="white" stroke="none" points="123.5,-184 89.5,-184 89.5,-132 123.5,-132 123.5,-184"/>
<text text-anchor="start" x="94.5" y="-170.5" font-family="Helvetica,sans-Serif" font-size="10.00">string</text>
<text text-anchor="start" x="105" y="-154.5" font-family="Helvetica,sans-Serif" font-size="10.00"> </text>
<text text-anchor="start" x="105" y="-138.5" font-family="Helvetica,sans-Serif" font-size="10.00"> </text>
<polygon fill="#666666" stroke="#666666" points="89.5,-166 89.5,-166 123.5,-166 123.5,-166 89.5,-166"/>
<polygon fill="#666666" stroke="#666666" points="89.5,-150 89.5,-150 123.5,-150 123.5,-150 89.5,-150"/>
<polygon fill="none" stroke="#666666" points="89.5,-132 89.5,-184 123.5,-184 123.5,-132 89.5,-132"/>
</a>
</g>
</g>
<!-- Node3&#45;&gt;Node1 -->
<g id="edge2_Node000001_Node000003" class="edge">
<title>Node3&#45;&gt;Node1</title>
<g id="a_edge2_Node000001_Node000003"><a xlink:title=" ">
<path fill="none" stroke="#63b8ff" d="M106.5,-132.26C106.5,-121.77 106.5,-109.09 106.5,-96.63"/>
<polygon fill="none" stroke="#63b8ff" points="106.5,-96.73 102.5,-90.73 106.5,-84.73 110.5,-90.73 106.5,-96.73"/>
</a>
</g>
<text text-anchor="middle" x="136.12" y="-104.5" font-family="Helvetica,sans-Serif" font-size="10.00" fill="grey"> &#45;m_message</text>
</g>
<!-- Node4 -->
<g id="Node000004" class="node">
<title>Node4</title>
<g id="a_Node000004"><a xlink:title=" ">
<polygon fill="white" stroke="none" points="217.5,-184 159.5,-184 159.5,-132 217.5,-132 217.5,-184"/>
<text text-anchor="start" x="164.12" y="-170.5" font-family="Helvetica,sans-Serif" font-size="10.00">CURLcode</text>
<text text-anchor="start" x="187" y="-154.5" font-family="Helvetica,sans-Serif" font-size="10.00"> </text>
<text text-anchor="start" x="187" y="-138.5" font-family="Helvetica,sans-Serif" font-size="10.00"> </text>
<polygon fill="#666666" stroke="#666666" points="159.5,-166 159.5,-166 217.5,-166 217.5,-166 159.5,-166"/>
<polygon fill="#666666" stroke="#666666" points="159.5,-150 159.5,-150 217.5,-150 217.5,-150 159.5,-150"/>
<polygon fill="none" stroke="#666666" points="159.5,-132 159.5,-184 217.5,-184 217.5,-132 159.5,-132"/>
</a>
</g>
</g>
<!-- Node4&#45;&gt;Node1 -->
<g id="edge3_Node000001_Node000004" class="edge">
<title>Node4&#45;&gt;Node1</title>
<g id="a_edge3_Node000001_Node000004"><a xlink:title=" ">
<path fill="none" stroke="#63b8ff" d="M181.01,-132.1C177.44,-122.27 172.6,-111.16 166.5,-102 164.69,-99.29 162.75,-96.6 160.7,-93.95"/>
<polygon fill="none" stroke="#63b8ff" points="160.64,-93.88 153.72,-91.84 152.94,-84.67 159.86,-86.71 160.64,-93.88"/>
</a>
</g>
<text text-anchor="middle" x="192.75" y="-104.5" font-family="Helvetica,sans-Serif" font-size="10.00" fill="grey"> &#45;m_code</text>
</g>
</g>
</svg>
</svg>

<style type='text/css'>
<![CDATA[
[data-mouse-over-selected='false'] { opacity: 0.7; }
[data-mouse-over-selected='true']  { opacity: 1.0; }
]]>
</style>
<script type="application/ecmascript"><![CDATA[
document.addEventListener('DOMContentLoaded', (event) => {
  highlightEdges();
  highlightAdjacentNodes();
});
]]></script>
</svg>
