<?xml version="1.0" encoding="UTF-8" standalone="no"?>
<!DOCTYPE svg PUBLIC "-//W3C//DTD SVG 1.1//EN"
 "http://www.w3.org/Graphics/SVG/1.1/DTD/svg11.dtd">
<!-- Generated by graphviz version 8.1.0 (0)
 -->
<!-- Title: Roar::Cookie Pages: 1 -->
<svg width="312pt" height="384pt"
 viewBox="0.00 0.00 312.00 384.00" xmlns="http://www.w3.org/2000/svg" xmlns:xlink="http://www.w3.org/1999/xlink">
<g id="graph0" class="graph" transform="scale(1 1) rotate(0) translate(4 380)">
<title>Roar::Cookie</title>
<!-- Node1 -->
<g id="Node000001" class="node">
<title>Node1</title>
<g id="a_Node000001"><a xlink:title=" ">
<polygon fill="#999999" stroke="none" points="206,-228 92,-228 92,0 206,0 206,-228"/>
<text text-anchor="start" x="120.12" y="-214.5" font-family="Helvetica,sans-Serif" font-size="10.00">Roar::Cookie</text>
<text text-anchor="start" x="147.5" y="-198.5" font-family="Helvetica,sans-Serif" font-size="10.00"> </text>
<text text-anchor="start" x="96" y="-182.5" font-family="Helvetica,sans-Serif" font-size="10.00">+</text>
<text text-anchor="start" x="106" y="-182.5" font-family="Helvetica,sans-Serif" font-size="10.00">Cookie()</text>
<text text-anchor="start" x="96" y="-166.5" font-family="Helvetica,sans-Serif" font-size="10.00">+</text>
<text text-anchor="start" x="106" y="-166.5" font-family="Helvetica,sans-Serif" font-size="10.00">Cookie()</text>
<text text-anchor="start" x="96" y="-150.5" font-family="Helvetica,sans-Serif" font-size="10.00">+</text>
<text text-anchor="start" x="106" y="-150.5" font-family="Helvetica,sans-Serif" font-size="10.00">setName()</text>
<text text-anchor="start" x="96" y="-134.5" font-family="Helvetica,sans-Serif" font-size="10.00">+</text>
<text text-anchor="start" x="106" y="-134.5" font-family="Helvetica,sans-Serif" font-size="10.00">setValue()</text>
<text text-anchor="start" x="96" y="-118.5" font-family="Helvetica,sans-Serif" font-size="10.00">+</text>
<text text-anchor="start" x="106" y="-118.5" font-family="Helvetica,sans-Serif" font-size="10.00">setExpiry()</text>
<text text-anchor="start" x="96" y="-102.5" font-family="Helvetica,sans-Serif" font-size="10.00">+</text>
<text text-anchor="start" x="106" y="-102.5" font-family="Helvetica,sans-Serif" font-size="10.00">makeSessionCookie()</text>
<text text-anchor="start" x="96" y="-86.5" font-family="Helvetica,sans-Serif" font-size="10.00">+</text>
<text text-anchor="start" x="106" y="-86.5" font-family="Helvetica,sans-Serif" font-size="10.00">setSecure()</text>
<text text-anchor="start" x="96" y="-70.5" font-family="Helvetica,sans-Serif" font-size="10.00">+</text>
<text text-anchor="start" x="106" y="-70.5" font-family="Helvetica,sans-Serif" font-size="10.00">setHttpOnly()</text>
<text text-anchor="start" x="96" y="-54.5" font-family="Helvetica,sans-Serif" font-size="10.00">+</text>
<text text-anchor="start" x="106" y="-54.5" font-family="Helvetica,sans-Serif" font-size="10.00">setDomain()</text>
<text text-anchor="start" x="96" y="-38.5" font-family="Helvetica,sans-Serif" font-size="10.00">+</text>
<text text-anchor="start" x="106" y="-38.5" font-family="Helvetica,sans-Serif" font-size="10.00">setPath()</text>
<text text-anchor="start" x="106" y="-22.5" font-family="Helvetica,sans-Serif" font-size="10.00">and 11 more...</text>
<text text-anchor="start" x="96" y="-6.5" font-family="Helvetica,sans-Serif" font-size="10.00">+</text>
<text text-anchor="start" x="106" y="-6.5" font-family="Helvetica,sans-Serif" font-size="10.00">parseCookies()</text>
<polygon fill="#666666" stroke="#666666" points="92,-210 92,-210 206,-210 206,-210 92,-210"/>
<polygon fill="#666666" stroke="#666666" points="92,-194 92,-194 206,-194 206,-194 92,-194"/>
<polygon fill="none" stroke="#666666" points="92,0 92,-228 206,-228 206,0 92,0"/>
</a>
</g>
</g>
<!-- Node2 -->
<g id="Node000002" class="node">
<title>Node2</title>
<g id="a_Node000002"><a xlink:title=" ">
<polygon fill="white" stroke="none" points="34,-376 0,-376 0,-324 34,-324 34,-376"/>
<text text-anchor="start" x="5" y="-362.5" font-family="Helvetica,sans-Serif" font-size="10.00">string</text>
<text text-anchor="start" x="15.5" y="-346.5" font-family="Helvetica,sans-Serif" font-size="10.00"> </text>
<text text-anchor="start" x="15.5" y="-330.5" font-family="Helvetica,sans-Serif" font-size="10.00"> </text>
<polygon fill="#666666" stroke="#666666" points="0,-358 0,-358 34,-358 34,-358 0,-358"/>
<polygon fill="#666666" stroke="#666666" points="0,-342 0,-342 34,-342 34,-342 0,-342"/>
<polygon fill="none" stroke="#666666" points="0,-324 0,-376 34,-376 34,-324 0,-324"/>
</a>
</g>
</g>
<!-- Node2&#45;&gt;Node1 -->
<g id="edge1_Node000001_Node000002" class="edge">
<title>Node2&#45;&gt;Node1</title>
<g id="a_edge1_Node000001_Node000002"><a xlink:title=" ">
<path fill="none" stroke="#63b8ff" d="M25.9,-324.24C33.9,-302.97 46.53,-271.77 60.5,-246 67.93,-232.29 76.43,-218.22 85.14,-204.61"/>
<polygon fill="none" stroke="#63b8ff" points="85.13,-204.63 85.05,-197.42 91.67,-194.57 91.75,-201.79 85.13,-204.63"/>
</a>
</g>
<text text-anchor="middle" x="84.75" y="-296.5" font-family="Helvetica,sans-Serif" font-size="10.00" fill="grey"> &#45;domain_</text>
<text text-anchor="middle" x="84.75" y="-284.5" font-family="Helvetica,sans-Serif" font-size="10.00" fill="grey">&#45;name_</text>
<text text-anchor="middle" x="84.75" y="-272.5" font-family="Helvetica,sans-Serif" font-size="10.00" fill="grey">&#45;path_</text>
<text text-anchor="middle" x="84.75" y="-260.5" font-family="Helvetica,sans-Serif" font-size="10.00" fill="grey">&#45;sameSite_</text>
<text text-anchor="middle" x="84.75" y="-248.5" font-family="Helvetica,sans-Serif" font-size="10.00" fill="grey">&#45;value_</text>
</g>
<!-- Node3 -->
<g id="Node000003" class="node">
<title>Node3</title>
<g id="a_Node000003"><a xlink:title=" ">
<polygon fill="white" stroke="none" points="159.5,-376 52.5,-376 52.5,-324 159.5,-324 159.5,-376"/>
<text text-anchor="start" x="57.25" y="-362.5" font-family="Helvetica,sans-Serif" font-size="10.00">optional&lt; Roar::date &gt;</text>
<text text-anchor="start" x="104.5" y="-346.5" font-family="Helvetica,sans-Serif" font-size="10.00"> </text>
<text text-anchor="start" x="104.5" y="-330.5" font-family="Helvetica,sans-Serif" font-size="10.00"> </text>
<polygon fill="#666666" stroke="#666666" points="52.5,-358 52.5,-358 159.5,-358 159.5,-358 52.5,-358"/>
<polygon fill="#666666" stroke="#666666" points="52.5,-342 52.5,-342 159.5,-342 159.5,-342 52.5,-342"/>
<polygon fill="none" stroke="#666666" points="52.5,-324 52.5,-376 159.5,-376 159.5,-324 52.5,-324"/>
</a>
</g>
</g>
<!-- Node3&#45;&gt;Node1 -->
<g id="edge2_Node000001_Node000003" class="edge">
<title>Node3&#45;&gt;Node1</title>
<g id="a_edge2_Node000001_Node000003"><a xlink:title=" ">
<path fill="none" stroke="#63b8ff" d="M110.52,-324.4C114.31,-303.79 120.03,-272.66 125.91,-240.67"/>
<polygon fill="none" stroke="#63b8ff" points="125.92,-240.6 123.07,-233.97 128.09,-228.8 130.94,-235.42 125.92,-240.6"/>
</a>
</g>
<text text-anchor="middle" x="145.38" y="-272.5" font-family="Helvetica,sans-Serif" font-size="10.00" fill="grey"> &#45;expires_</text>
</g>
<!-- Node4 -->
<g id="Node000004" class="node">
<title>Node4</title>
<g id="a_Node000004"><a xlink:title=" ">
<polygon fill="white" stroke="none" points="222,-376 178,-376 178,-324 222,-324 222,-376"/>
<text text-anchor="start" x="182.75" y="-362.5" font-family="Helvetica,sans-Serif" font-size="10.00">uint64_t</text>
<text text-anchor="start" x="198.5" y="-346.5" font-family="Helvetica,sans-Serif" font-size="10.00"> </text>
<text text-anchor="start" x="198.5" y="-330.5" font-family="Helvetica,sans-Serif" font-size="10.00"> </text>
<polygon fill="#666666" stroke="#666666" points="178,-358 178,-358 222,-358 222,-358 178,-358"/>
<polygon fill="#666666" stroke="#666666" points="178,-342 178,-342 222,-342 222,-342 178,-342"/>
<polygon fill="none" stroke="#666666" points="178,-324 178,-376 222,-376 222,-324 178,-324"/>
</a>
</g>
</g>
<!-- Node4&#45;&gt;Node1 -->
<g id="edge3_Node000001_Node000004" class="edge">
<title>Node4&#45;&gt;Node1</title>
<g id="a_edge3_Node000001_Node000004"><a xlink:title=" ">
<path fill="none" stroke="#63b8ff" d="M194.64,-324.4C190.13,-303.69 183.3,-272.39 176.3,-240.25"/>
<polygon fill="none" stroke="#63b8ff" points="176.36,-240.52 171.17,-235.51 173.8,-228.79 178.99,-233.8 176.36,-240.52"/>
</a>
</g>
<text text-anchor="middle" x="213.62" y="-272.5" font-family="Helvetica,sans-Serif" font-size="10.00" fill="grey"> &#45;maxAge_</text>
</g>
<!-- Node5 -->
<g id="Node000005" class="node">
<title>Node5</title>
<g id="a_Node000005"><a xlink:title=" ">
<polygon fill="white" stroke="none" points="276,-376 248,-376 248,-324 276,-324 276,-376"/>
<text text-anchor="start" x="253" y="-362.5" font-family="Helvetica,sans-Serif" font-size="10.00">bool</text>
<text text-anchor="start" x="260.5" y="-346.5" font-family="Helvetica,sans-Serif" font-size="10.00"> </text>
<text text-anchor="start" x="260.5" y="-330.5" font-family="Helvetica,sans-Serif" font-size="10.00"> </text>
<polygon fill="#666666" stroke="#666666" points="248,-358 248,-358 276,-358 276,-358 248,-358"/>
<polygon fill="#666666" stroke="#666666" points="248,-342 248,-342 276,-342 276,-342 248,-342"/>
<polygon fill="none" stroke="#666666" points="248,-324 248,-376 276,-376 276,-324 248,-324"/>
</a>
</g>
</g>
<!-- Node5&#45;&gt;Node1 -->
<g id="edge4_Node000001_Node000005" class="edge">
<title>Node5&#45;&gt;Node1</title>
<g id="a_edge4_Node000001_Node000005"><a xlink:title=" ">
<path fill="none" stroke="#63b8ff" d="M259.47,-324.02C256.66,-302.62 250.98,-271.34 240,-246 232.76,-229.28 223.22,-212.49 213.05,-196.79"/>
<polygon fill="none" stroke="#63b8ff" points="213.09,-196.84 206.43,-194.06 206.43,-186.85 213.09,-189.63 213.09,-196.84"/>
</a>
</g>
<text text-anchor="middle" x="280" y="-278.5" font-family="Helvetica,sans-Serif" font-size="10.00" fill="grey"> &#45;httpOnly_</text>
<text text-anchor="middle" x="280" y="-266.5" font-family="Helvetica,sans-Serif" font-size="10.00" fill="grey">&#45;secure_</text>
</g>
</g>
</svg>
