<?xml version="1.0" encoding="UTF-8" standalone="no"?>
<!DOCTYPE svg PUBLIC "-//W3C//DTD SVG 1.1//EN"
 "http://www.w3.org/Graphics/SVG/1.1/DTD/svg11.dtd">
<!-- Generated by graphviz version 2.44.1 (20211215.1903)
 -->
<!-- Title: Roar::RangeFileBody::writer Pages: 1 -->
<svg width="803pt" height="524pt"
 viewBox="0.00 0.00 803.00 524.00" xmlns="http://www.w3.org/2000/svg" xmlns:xlink="http://www.w3.org/1999/xlink">
<g id="graph0" class="graph" transform="scale(1 1) rotate(0) translate(4 520)">
<title>Roar::RangeFileBody::writer</title>
<!-- Node1 -->
<g id="node1" class="node">
<title>Node1</title>
<g id="a_node1"><a xlink:title=" ">
<polygon fill="#bfbfbf" stroke="black" points="174.5,-0.5 174.5,-79.5 314.5,-79.5 314.5,-0.5 174.5,-0.5"/>
<text text-anchor="middle" x="244.5" y="-67.5" font-family="Helvetica,sans-Serif" font-size="10.00">Roar::RangeFileBody::writer</text>
<polyline fill="none" stroke="black" points="174.5,-60.5 314.5,-60.5 "/>
<text text-anchor="middle" x="244.5" y="-48.5" font-family="Helvetica,sans-Serif" font-size="10.00"> </text>
<polyline fill="none" stroke="black" points="174.5,-41.5 314.5,-41.5 "/>
<text text-anchor="start" x="182.5" y="-29.5" font-family="Helvetica,sans-Serif" font-size="10.00">+ writer()</text>
<text text-anchor="start" x="182.5" y="-18.5" font-family="Helvetica,sans-Serif" font-size="10.00">+ init()</text>
<text text-anchor="start" x="182.5" y="-7.5" font-family="Helvetica,sans-Serif" font-size="10.00">+ get()</text>
</a>
</g>
</g>
<!-- Node2 -->
<g id="node2" class="node">
<title>Node2</title>
<g id="a_node2"><a xlink:href="structRoar_1_1Detail_1_1Buffer.html" target="_top" xlink:title=" ">
<polygon fill="none" stroke="black" points="18,-182.5 18,-239.5 215,-239.5 215,-182.5 18,-182.5"/>
<text text-anchor="middle" x="116.5" y="-227.5" font-family="Helvetica,sans-Serif" font-size="10.00">Roar::Detail::Buffer&lt; Detail::bufferSize()&gt;</text>
<polyline fill="none" stroke="black" points="18,-220.5 215,-220.5 "/>
<text text-anchor="middle" x="116.5" y="-208.5" font-family="Helvetica,sans-Serif" font-size="10.00"> </text>
<polyline fill="none" stroke="black" points="18,-201.5 215,-201.5 "/>
<text text-anchor="middle" x="116.5" y="-189.5" font-family="Helvetica,sans-Serif" font-size="10.00"> </text>
</a>
</g>
</g>
<!-- Node2&#45;&gt;Node1 -->
<g id="edge1" class="edge">
<title>Node2&#45;&gt;Node1</title>
<path fill="none" stroke="#8b1a1a" d="M143.6,-174.22C164.64,-146.45 193.75,-108.01 215.29,-79.56"/>
<polygon fill="none" stroke="#8b1a1a" points="140.6,-172.39 137.35,-182.47 146.18,-176.61 140.6,-172.39"/>
</g>
<!-- Node3 -->
<g id="node3" class="node">
<title>Node3</title>
<g id="a_node3"><a xlink:href="classchar.html" target="_top" xlink:title=" ">
<polygon fill="none" stroke="black" points="0,-458.5 0,-515.5 35,-515.5 35,-458.5 0,-458.5"/>
<text text-anchor="middle" x="17.5" y="-503.5" font-family="Helvetica,sans-Serif" font-size="10.00">char</text>
<polyline fill="none" stroke="black" points="0,-496.5 35,-496.5 "/>
<text text-anchor="middle" x="17.5" y="-484.5" font-family="Helvetica,sans-Serif" font-size="10.00"> </text>
<polyline fill="none" stroke="black" points="0,-477.5 35,-477.5 "/>
<text text-anchor="middle" x="17.5" y="-465.5" font-family="Helvetica,sans-Serif" font-size="10.00"> </text>
</a>
</g>
</g>
<!-- Node3&#45;&gt;Node2 -->
<g id="edge2" class="edge">
<title>Node3&#45;&gt;Node2</title>
<path fill="none" stroke="#404040" d="M10.29,-458.46C4.41,-431 -1.18,-387.98 10.5,-353 23.91,-312.85 53.73,-274.96 78.34,-248.59"/>
<polygon fill="none" stroke="#404040" points="78.5,-248.42 79.75,-241.32 86.79,-239.75 85.53,-246.85 78.5,-248.42"/>
<text text-anchor="middle" x="24.5" y="-379.5" font-family="Helvetica,sans-Serif" font-size="10.00"> +buf_</text>
</g>
<!-- Node4 -->
<g id="node4" class="node">
<title>Node4</title>
<g id="a_node4"><a xlink:href="structRoar_1_1Detail_1_1Buffer.html" target="_top" xlink:title=" ">
<polygon fill="none" stroke="black" points="47.5,-353.5 47.5,-410.5 185.5,-410.5 185.5,-353.5 47.5,-353.5"/>
<text text-anchor="middle" x="116.5" y="-398.5" font-family="Helvetica,sans-Serif" font-size="10.00">Roar::Detail::Buffer&lt; Size &gt;</text>
<polyline fill="none" stroke="black" points="47.5,-391.5 185.5,-391.5 "/>
<text text-anchor="middle" x="116.5" y="-379.5" font-family="Helvetica,sans-Serif" font-size="10.00"> </text>
<polyline fill="none" stroke="black" points="47.5,-372.5 185.5,-372.5 "/>
<text text-anchor="middle" x="116.5" y="-360.5" font-family="Helvetica,sans-Serif" font-size="10.00"> </text>
</a>
</g>
</g>
<!-- Node3&#45;&gt;Node4 -->
<g id="edge4" class="edge">
<title>Node3&#45;&gt;Node4</title>
<path fill="none" stroke="#404040" d="M35.2,-467.59C48.06,-454.21 65.88,-435.67 81.56,-419.35"/>
<polygon fill="none" stroke="#404040" points="81.69,-419.21 82.97,-412.12 90.01,-410.56 88.73,-417.66 81.69,-419.21"/>
<text text-anchor="middle" x="84.5" y="-432" font-family="Helvetica,sans-Serif" font-size="10.00"> +buf_</text>
</g>
<!-- Node4&#45;&gt;Node2 -->
<g id="edge3" class="edge">
<title>Node4&#45;&gt;Node2</title>
<path fill="none" stroke="orange" d="M116.5,-343.33C116.5,-311.87 116.5,-267.75 116.5,-239.52"/>
<polygon fill="orange" stroke="orange" points="113,-343.47 116.5,-353.47 120,-343.47 113,-343.47"/>
<text text-anchor="middle" x="166.5" y="-321.5" font-family="Helvetica,sans-Serif" font-size="10.00"> &lt; Detail::bufferSize()&gt;</text>
</g>
<!-- Node5 -->
<g id="node5" class="node">
<title>Node5</title>
<g id="a_node5"><a xlink:href="classRoar_1_1Detail_1_1RangeFileBodyImpl.html" target="_top" xlink:title="Support range requests for get requests including multipart/byterange.">
<polygon fill="none" stroke="black" points="379,-127.5 379,-294.5 540,-294.5 540,-127.5 379,-127.5"/>
<text text-anchor="middle" x="459.5" y="-282.5" font-family="Helvetica,sans-Serif" font-size="10.00">Roar::Detail::RangeFileBodyImpl</text>
<polyline fill="none" stroke="black" points="379,-275.5 540,-275.5 "/>
<text text-anchor="middle" x="459.5" y="-263.5" font-family="Helvetica,sans-Serif" font-size="10.00"> </text>
<polyline fill="none" stroke="black" points="379,-256.5 540,-256.5 "/>
<text text-anchor="start" x="387" y="-244.5" font-family="Helvetica,sans-Serif" font-size="10.00">+ RangeFileBodyImpl()</text>
<text text-anchor="start" x="387" y="-233.5" font-family="Helvetica,sans-Serif" font-size="10.00">+ ~RangeFileBodyImpl()</text>
<text text-anchor="start" x="387" y="-222.5" font-family="Helvetica,sans-Serif" font-size="10.00">+ RangeFileBodyImpl()</text>
<text text-anchor="start" x="387" y="-211.5" font-family="Helvetica,sans-Serif" font-size="10.00">+ RangeFileBodyImpl()</text>
<text text-anchor="start" x="387" y="-200.5" font-family="Helvetica,sans-Serif" font-size="10.00">+ operator=()</text>
<text text-anchor="start" x="387" y="-189.5" font-family="Helvetica,sans-Serif" font-size="10.00">+ operator=()</text>
<text text-anchor="start" x="387" y="-178.5" font-family="Helvetica,sans-Serif" font-size="10.00">+ file()</text>
<text text-anchor="start" x="387" y="-167.5" font-family="Helvetica,sans-Serif" font-size="10.00">+ size()</text>
<text text-anchor="start" x="387" y="-156.5" font-family="Helvetica,sans-Serif" font-size="10.00">+ remaining()</text>
<text text-anchor="start" x="387" y="-145.5" font-family="Helvetica,sans-Serif" font-size="10.00">+ isMultipart()</text>
<text text-anchor="start" x="387" y="-134.5" font-family="Helvetica,sans-Serif" font-size="10.00">and 11 more...</text>
</a>
</g>
</g>
<!-- Node5&#45;&gt;Node1 -->
<g id="edge5" class="edge">
<title>Node5&#45;&gt;Node1</title>
<path fill="none" stroke="#404040" d="M378.83,-146.59C353.81,-126.92 326.71,-105.62 303.46,-87.34"/>
<polygon fill="none" stroke="#404040" points="303.18,-87.12 295.99,-86.56 293.74,-79.71 300.93,-80.27 303.18,-87.12"/>
<text text-anchor="middle" x="343" y="-101" font-family="Helvetica,sans-Serif" font-size="10.00"> &#45;body_</text>
</g>
<!-- Node6 -->
<g id="node6" class="node">
<title>Node6</title>
<g id="a_node6"><a xlink:title=" ">
<polygon fill="none" stroke="black" points="203.5,-353.5 203.5,-410.5 331.5,-410.5 331.5,-353.5 203.5,-353.5"/>
<text text-anchor="middle" x="267.5" y="-398.5" font-family="Helvetica,sans-Serif" font-size="10.00">static constexpr unsigned</text>
<polyline fill="none" stroke="black" points="203.5,-391.5 331.5,-391.5 "/>
<text text-anchor="middle" x="267.5" y="-379.5" font-family="Helvetica,sans-Serif" font-size="10.00"> </text>
<polyline fill="none" stroke="black" points="203.5,-372.5 331.5,-372.5 "/>
<text text-anchor="middle" x="267.5" y="-360.5" font-family="Helvetica,sans-Serif" font-size="10.00"> </text>
</a>
</g>
</g>
<!-- Node6&#45;&gt;Node5 -->
<g id="edge6" class="edge">
<title>Node6&#45;&gt;Node5</title>
<path fill="none" stroke="#404040" d="M290.93,-353.19C302.13,-340.46 316.01,-325.47 329.5,-313 341.95,-301.49 355.61,-289.9 369.25,-278.87"/>
<polygon fill="none" stroke="#404040" points="369.3,-278.83 371.49,-271.96 378.67,-271.34 376.48,-278.21 369.3,-278.83"/>
<text text-anchor="middle" x="363" y="-321.5" font-family="Helvetica,sans-Serif" font-size="10.00"> &#45;SplitterLength</text>
</g>
<!-- Node7 -->
<g id="node7" class="node">
<title>Node7</title>
<g id="a_node7"><a xlink:title=" ">
<polygon fill="none" stroke="black" points="349.5,-353.5 349.5,-410.5 399.5,-410.5 399.5,-353.5 349.5,-353.5"/>
<text text-anchor="middle" x="374.5" y="-398.5" font-family="Helvetica,sans-Serif" font-size="10.00">fstream</text>
<polyline fill="none" stroke="black" points="349.5,-391.5 399.5,-391.5 "/>
<text text-anchor="middle" x="374.5" y="-379.5" font-family="Helvetica,sans-Serif" font-size="10.00"> </text>
<polyline fill="none" stroke="black" points="349.5,-372.5 399.5,-372.5 "/>
<text text-anchor="middle" x="374.5" y="-360.5" font-family="Helvetica,sans-Serif" font-size="10.00"> </text>
</a>
</g>
</g>
<!-- Node7&#45;&gt;Node5 -->
<g id="edge7" class="edge">
<title>Node7&#45;&gt;Node5</title>
<path fill="none" stroke="#404040" d="M388.35,-353.47C395.09,-340.07 403.62,-323.09 412.43,-305.59"/>
<polygon fill="none" stroke="#404040" points="412.54,-305.37 411.66,-298.21 417.93,-294.65 418.81,-301.81 412.54,-305.37"/>
<text text-anchor="middle" x="420" y="-321.5" font-family="Helvetica,sans-Serif" font-size="10.00"> &#45;file_</text>
</g>
<!-- Node8 -->
<g id="node8" class="node">
<title>Node8</title>
<g id="a_node8"><a xlink:title=" ">
<polygon fill="none" stroke="black" points="418,-353.5 418,-410.5 673,-410.5 673,-353.5 418,-353.5"/>
<text text-anchor="middle" x="545.5" y="-398.5" font-family="Helvetica,sans-Serif" font-size="10.00">vector&lt; Roar::Detail::RangeFileBodyImpl::Sequence &gt;</text>
<polyline fill="none" stroke="black" points="418,-391.5 673,-391.5 "/>
<text text-anchor="middle" x="545.5" y="-379.5" font-family="Helvetica,sans-Serif" font-size="10.00"> </text>
<polyline fill="none" stroke="black" points="418,-372.5 673,-372.5 "/>
<text text-anchor="middle" x="545.5" y="-360.5" font-family="Helvetica,sans-Serif" font-size="10.00"> </text>
</a>
</g>
</g>
<!-- Node8&#45;&gt;Node5 -->
<g id="edge8" class="edge">
<title>Node8&#45;&gt;Node5</title>
<path fill="none" stroke="#404040" d="M531.49,-353.47C524.67,-340.07 516.03,-323.09 507.13,-305.59"/>
<polygon fill="none" stroke="#404040" points="507,-305.35 500.71,-301.81 501.56,-294.65 507.84,-298.18 507,-305.35"/>
<text text-anchor="middle" x="550" y="-321.5" font-family="Helvetica,sans-Serif" font-size="10.00"> &#45;sequences_</text>
</g>
<!-- Node9 -->
<g id="node9" class="node">
<title>Node9</title>
<g id="a_node9"><a xlink:title=" ">
<polygon fill="none" stroke="black" points="691,-353.5 691,-410.5 732,-410.5 732,-353.5 691,-353.5"/>
<text text-anchor="middle" x="711.5" y="-398.5" font-family="Helvetica,sans-Serif" font-size="10.00">string</text>
<polyline fill="none" stroke="black" points="691,-391.5 732,-391.5 "/>
<text text-anchor="middle" x="711.5" y="-379.5" font-family="Helvetica,sans-Serif" font-size="10.00"> </text>
<polyline fill="none" stroke="black" points="691,-372.5 732,-372.5 "/>
<text text-anchor="middle" x="711.5" y="-360.5" font-family="Helvetica,sans-Serif" font-size="10.00"> </text>
</a>
</g>
</g>
<!-- Node9&#45;&gt;Node5 -->
<g id="edge9" class="edge">
<title>Node9&#45;&gt;Node5</title>
<path fill="none" stroke="#404040" d="M690.73,-359.99C688.03,-357.55 685.25,-355.16 682.5,-353 641.16,-320.53 592.06,-288.83 550.47,-263.74"/>
<polygon fill="none" stroke="#404040" points="550.37,-263.67 543.16,-264.02 540.07,-257.51 547.28,-257.16 550.37,-263.67"/>
<text text-anchor="middle" x="674" y="-321.5" font-family="Helvetica,sans-Serif" font-size="10.00"> &#45;splitter_</text>
</g>
<!-- Node10 -->
<g id="node10" class="node">
<title>Node10</title>
<g id="a_node10"><a xlink:title=" ">
<polygon fill="none" stroke="black" points="752,-353.5 752,-410.5 795,-410.5 795,-353.5 752,-353.5"/>
<text text-anchor="middle" x="773.5" y="-398.5" font-family="Helvetica,sans-Serif" font-size="10.00">size_t</text>
<polyline fill="none" stroke="black" points="752,-391.5 795,-391.5 "/>
<text text-anchor="middle" x="773.5" y="-379.5" font-family="Helvetica,sans-Serif" font-size="10.00"> </text>
<polyline fill="none" stroke="black" points="752,-372.5 795,-372.5 "/>
<text text-anchor="middle" x="773.5" y="-360.5" font-family="Helvetica,sans-Serif" font-size="10.00"> </text>
</a>
</g>
</g>
<!-- Node10&#45;&gt;Node5 -->
<g id="edge10" class="edge">
<title>Node10&#45;&gt;Node5</title>
<path fill="none" stroke="#404040" d="M751.84,-357.7C737.68,-343.44 718.2,-325.58 698.5,-313 652.91,-283.9 597.51,-259.87 551.53,-242.57"/>
<polygon fill="none" stroke="#404040" points="551.3,-242.49 544.29,-244.15 540.05,-238.32 547.07,-236.65 551.3,-242.49"/>
<text text-anchor="middle" x="755" y="-327" font-family="Helvetica,sans-Serif" font-size="10.00"> &#45;consumed_</text>
<text text-anchor="middle" x="755" y="-316" font-family="Helvetica,sans-Serif" font-size="10.00">&#45;totalSize_</text>
</g>
</g>
</svg>
