<?xml version="1.0" encoding="UTF-8" standalone="no"?>
<!DOCTYPE svg PUBLIC "-//W3C//DTD SVG 1.1//EN"
 "http://www.w3.org/Graphics/SVG/1.1/DTD/svg11.dtd">
<!-- Generated by graphviz version 8.1.0 (0)
 -->
<!-- Title: Roar::Detail::PromiseTypeBindBase Pages: 1 -->
<svg width="175pt" height="176pt"
 viewBox="0.00 0.00 175.00 176.00" xmlns="http://www.w3.org/2000/svg" xmlns:xlink="http://www.w3.org/1999/xlink">

<svg id="main" version="1.1" xmlns="http://www.w3.org/2000/svg" xmlns:xlink="http://www.w3.org/1999/xlink" xml:space="preserve" onload="init(evt)">
<style type="text/css"><![CDATA[
.node, .edge {opacity: 0.7;}
.node.selected, .edge.selected {opacity: 1;}
.edge:hover path { stroke: red; }
.edge:hover polygon { stroke: red; fill: red; }
]]></style>
<script type="application/ecmascript" xlink:href="svg.min.js"/>
<svg id="graph" class="graph">
<g id="graph0" class="graph" transform="scale(1 1) rotate(0) translate(4 172)">
<title>Roar::Detail::PromiseTypeBindBase</title>
<!-- Node1 -->
<g id="Node000001" class="node">
<title>Node1</title>
<g id="a_Node000001"><a xlink:title=" ">
<polygon fill="#999999" stroke="none" points="167,-68 0,-68 0,0 167,0 167,-68"/>
<text text-anchor="start" x="4.75" y="-54.5" font-family="Helvetica,sans-Serif" font-size="10.00">Roar::Detail::PromiseTypeBindBase</text>
<text text-anchor="start" x="82" y="-38.5" font-family="Helvetica,sans-Serif" font-size="10.00"> </text>
<text text-anchor="start" x="13.5" y="-22.5" font-family="Helvetica,sans-Serif" font-size="10.00">+</text>
<text text-anchor="start" x="33" y="-22.5" font-family="Helvetica,sans-Serif" font-size="10.00">PromiseTypeBindBase()</text>
<text text-anchor="start" x="13.5" y="-6.5" font-family="Helvetica,sans-Serif" font-size="10.00">+</text>
<text text-anchor="start" x="33" y="-6.5" font-family="Helvetica,sans-Serif" font-size="10.00">~PromiseTypeBindBase()</text>
<polygon fill="#666666" stroke="#666666" points="0,-50 0,-50 167,-50 167,-50 0,-50"/>
<polygon fill="#666666" stroke="#666666" points="0,-34 0,-34 167,-34 167,-34 0,-34"/>
<polygon fill="none" stroke="#666666" points="0,0 0,-68 167,-68 167,0 0,0"/>
</a>
</g>
</g>
<!-- Node2 -->
<g id="Node000002" class="node">
<title>Node2</title>
<g id="a_Node000002"><a xlink:title=" ">
<polygon fill="white" stroke="none" points="106.5,-168 60.5,-168 60.5,-116 106.5,-116 106.5,-168"/>
<text text-anchor="start" x="65.5" y="-154.5" font-family="Helvetica,sans-Serif" font-size="10.00">Promise</text>
<text text-anchor="start" x="82" y="-138.5" font-family="Helvetica,sans-Serif" font-size="10.00"> </text>
<text text-anchor="start" x="82" y="-122.5" font-family="Helvetica,sans-Serif" font-size="10.00"> </text>
<polygon fill="#666666" stroke="#666666" points="60.5,-150 60.5,-150 106.5,-150 106.5,-150 60.5,-150"/>
<polygon fill="#666666" stroke="#666666" points="60.5,-134 60.5,-134 106.5,-134 106.5,-134 60.5,-134"/>
<polygon fill="none" stroke="#666666" points="60.5,-116 60.5,-168 106.5,-168 106.5,-116 60.5,-116"/>
</a>
</g>
</g>
<!-- Node2&#45;&gt;Node1 -->
<g id="edge1_Node000001_Node000002" class="edge">
<title>Node2&#45;&gt;Node1</title>
<g id="a_edge1_Node000001_Node000002"><a xlink:title=" ">
<path fill="none" stroke="#63b8ff" d="M83.5,-116.15C83.5,-105.54 83.5,-92.82 83.5,-80.63"/>
<polygon fill="none" stroke="#63b8ff" points="83.5,-80.63 79.5,-74.63 83.5,-68.63 87.5,-74.63 83.5,-80.63"/>
</a>
</g>
<text text-anchor="middle" x="107.5" y="-88.5" font-family="Helvetica,sans-Serif" font-size="10.00" fill="grey"> #promise_</text>
</g>
</g>
</svg>
</svg>

<style type='text/css'>
<![CDATA[
[data-mouse-over-selected='false'] { opacity: 0.7; }
[data-mouse-over-selected='true']  { opacity: 1.0; }
]]>
</style>
<script type="application/ecmascript"><![CDATA[
document.addEventListener('DOMContentLoaded', (event) => {
  highlightEdges();
  highlightAdjacentNodes();
});
]]></script>
</svg>
