<?xml version="1.0" encoding="UTF-8" standalone="no"?>
<!DOCTYPE svg PUBLIC "-//W3C//DTD SVG 1.1//EN"
 "http://www.w3.org/Graphics/SVG/1.1/DTD/svg11.dtd">
<!-- Generated by graphviz version 2.44.1 (20211215.1903)
 -->
<!-- Title: Roar::Factory Pages: 1 -->
<svg width="295pt" height="193pt"
 viewBox="0.00 0.00 294.50 193.00" xmlns="http://www.w3.org/2000/svg" xmlns:xlink="http://www.w3.org/1999/xlink">
<g id="graph0" class="graph" transform="scale(1 1) rotate(0) translate(4 189)">
<title>Roar::Factory</title>
<!-- Node1 -->
<g id="node1" class="node">
<title>Node1</title>
<g id="a_node1"><a xlink:title="This factory creates sessions.">
<polygon fill="#bfbfbf" stroke="black" points="0,-0.5 0,-79.5 209,-79.5 209,-0.5 0,-0.5"/>
<text text-anchor="middle" x="104.5" y="-67.5" font-family="Helvetica,sans-Serif" font-size="10.00">Roar::Factory</text>
<polyline fill="none" stroke="black" points="0,-60.5 209,-60.5 "/>
<text text-anchor="middle" x="104.5" y="-48.5" font-family="Helvetica,sans-Serif" font-size="10.00"> </text>
<polyline fill="none" stroke="black" points="0,-41.5 209,-41.5 "/>
<text text-anchor="start" x="8" y="-29.5" font-family="Helvetica,sans-Serif" font-size="10.00">+ Factory()</text>
<text text-anchor="start" x="8" y="-18.5" font-family="Helvetica,sans-Serif" font-size="10.00">+ ROAR_PIMPL_SPECIAL_FUNCTIONS()</text>
<text text-anchor="start" x="8" y="-7.5" font-family="Helvetica,sans-Serif" font-size="10.00">+ makeSession()</text>
</a>
</g>
</g>
<!-- Node2 -->
<g id="node2" class="node">
<title>Node2</title>
<g id="a_node2"><a xlink:title=" ">
<polygon fill="none" stroke="black" points="3,-127.5 3,-184.5 56,-184.5 56,-127.5 3,-127.5"/>
<text text-anchor="middle" x="29.5" y="-172.5" font-family="Helvetica,sans-Serif" font-size="10.00">seconds</text>
<polyline fill="none" stroke="black" points="3,-165.5 56,-165.5 "/>
<text text-anchor="middle" x="29.5" y="-153.5" font-family="Helvetica,sans-Serif" font-size="10.00"> </text>
<polyline fill="none" stroke="black" points="3,-146.5 56,-146.5 "/>
<text text-anchor="middle" x="29.5" y="-134.5" font-family="Helvetica,sans-Serif" font-size="10.00"> </text>
</a>
</g>
</g>
<!-- Node2&#45;&gt;Node1 -->
<g id="edge1" class="edge">
<title>Node2&#45;&gt;Node1</title>
<path fill="none" stroke="#404040" d="M42.1,-127.39C46.83,-117.84 52.52,-107.23 58.5,-98 60.29,-95.24 62.18,-92.46 64.14,-89.69"/>
<polygon fill="none" stroke="#404040" points="64.35,-89.41 64.69,-82.21 71.47,-79.75 71.13,-86.96 64.35,-89.41"/>
<text text-anchor="middle" x="108.5" y="-101" font-family="Helvetica,sans-Serif" font-size="10.00"> +sslDetectionTimeout</text>
</g>
<!-- Node3 -->
<g id="node3" class="node">
<title>Node3</title>
<g id="a_node3"><a xlink:title=" ">
<polygon fill="none" stroke="black" points="74.5,-127.5 74.5,-184.5 286.5,-184.5 286.5,-127.5 74.5,-127.5"/>
<text text-anchor="middle" x="180.5" y="-172.5" font-family="Helvetica,sans-Serif" font-size="10.00">unique_ptr&lt; Roar::Factory::Implementation &gt;</text>
<polyline fill="none" stroke="black" points="74.5,-165.5 286.5,-165.5 "/>
<text text-anchor="middle" x="180.5" y="-153.5" font-family="Helvetica,sans-Serif" font-size="10.00"> </text>
<polyline fill="none" stroke="black" points="74.5,-146.5 286.5,-146.5 "/>
<text text-anchor="middle" x="180.5" y="-134.5" font-family="Helvetica,sans-Serif" font-size="10.00"> </text>
</a>
</g>
</g>
<!-- Node3&#45;&gt;Node1 -->
<g id="edge2" class="edge">
<title>Node3&#45;&gt;Node1</title>
<path fill="none" stroke="#404040" d="M172.26,-127.29C168.76,-117.63 164.16,-106.97 158.5,-98 156.56,-94.93 154.44,-91.88 152.2,-88.88"/>
<polygon fill="none" stroke="#404040" points="152.19,-88.88 145.32,-86.7 144.69,-79.51 151.56,-81.69 152.19,-88.88"/>
<text text-anchor="middle" x="178.5" y="-101" font-family="Helvetica,sans-Serif" font-size="10.00"> &#45;impl_</text>
</g>
</g>
</svg>
