<?xml version="1.0" encoding="UTF-8" standalone="no"?>
<!DOCTYPE svg PUBLIC "-//W3C//DTD SVG 1.1//EN"
 "http://www.w3.org/Graphics/SVG/1.1/DTD/svg11.dtd">
<!-- Generated by graphviz version 2.44.1 (20211215.1903)
 -->
<!-- Title: Roar::WebsocketClient Pages: 1 -->
<!--zoomable 568 -->
<svg id="main" version="1.1" xmlns="http://www.w3.org/2000/svg" xmlns:xlink="http://www.w3.org/1999/xlink" xml:space="preserve" onload="init(evt)">
<style type="text/css"><![CDATA[
.edge:hover path { stroke: red; }
.edge:hover polygon { stroke: red; fill: red; }
]]></style>
<script type="text/javascript"><![CDATA[
var edges = document.getElementsByTagName('g');
if (edges && edges.length) {
  for (var i=0;i<edges.length;i++) {
    if (edges[i].id.substr(0,4)=='edge') {
      edges[i].setAttribute('class','edge');
    }
  }
}
]]></script>
        <defs>
                <circle id="rim" cx="0" cy="0" r="7"/>
                <circle id="rim2" cx="0" cy="0" r="3.5"/>
                <g id="zoomPlus">
                        <use xlink:href="#rim" fill="#404040">
                                <set attributeName="fill" to="#808080" begin="zoomplus.mouseover" end="zoomplus.mouseout"/>
                        </use>
                        <path d="M-4,0h8M0,-4v8" fill="none" stroke="white" stroke-width="1.5" pointer-events="none"/>
                </g>
                <g id="zoomMin">
                        <use xlink:href="#rim" fill="#404040">
                                <set attributeName="fill" to="#808080" begin="zoomminus.mouseover" end="zoomminus.mouseout"/>
                        </use>
                        <path d="M-4,0h8" fill="none" stroke="white" stroke-width="1.5" pointer-events="none"/>
                </g>
                <g id="dirArrow">
                        <path fill="none" stroke="white" stroke-width="1.5" d="M0,-3.0v7 M-2.5,-0.5L0,-3.0L2.5,-0.5"/>
                </g>
               <g id="resetDef">
                       <use xlink:href="#rim2" fill="#404040">
                               <set attributeName="fill" to="#808080" begin="reset.mouseover" end="reset.mouseout"/>
                       </use>
               </g>
        </defs>

<script type="text/javascript">
var viewWidth = 1073;
var viewHeight = 568;
var sectionId = 'dynsection-0';
</script>
<script xlink:href="svgpan.js"/>
<svg id="graph" class="graph">
<g id="viewport">
<title>Roar::WebsocketClient</title>
<!-- Node1 -->
<g id="node1" class="node">
<title>Node1</title>
<g id="a_node1"><a xlink:title=" ">
<polygon fill="#bfbfbf" stroke="black" points="707,-0.5 707,-123.5 825,-123.5 825,-0.5 707,-0.5"/>
<text text-anchor="middle" x="766" y="-111.5" font-family="Helvetica,sans-Serif" font-size="10.00">Roar::WebsocketClient</text>
<polyline fill="none" stroke="black" points="707,-104.5 825,-104.5 "/>
<text text-anchor="middle" x="766" y="-92.5" font-family="Helvetica,sans-Serif" font-size="10.00"> </text>
<polyline fill="none" stroke="black" points="707,-85.5 825,-85.5 "/>
<text text-anchor="start" x="715" y="-73.5" font-family="Helvetica,sans-Serif" font-size="10.00">+ WebsocketClient()</text>
<text text-anchor="start" x="715" y="-62.5" font-family="Helvetica,sans-Serif" font-size="10.00">+ ~WebsocketClient()</text>
<text text-anchor="start" x="715" y="-51.5" font-family="Helvetica,sans-Serif" font-size="10.00">+ WebsocketClient()</text>
<text text-anchor="start" x="715" y="-40.5" font-family="Helvetica,sans-Serif" font-size="10.00">+ operator=()</text>
<text text-anchor="start" x="715" y="-29.5" font-family="Helvetica,sans-Serif" font-size="10.00">+ WebsocketClient()</text>
<text text-anchor="start" x="715" y="-18.5" font-family="Helvetica,sans-Serif" font-size="10.00">+ operator=()</text>
<text text-anchor="start" x="715" y="-7.5" font-family="Helvetica,sans-Serif" font-size="10.00">+ connect()</text>
</a>
</g>
</g>
<!-- Node2 -->
<g id="node2" class="node">
<title>Node2</title>
<g id="a_node2"><a xlink:href="structRoar_1_1Detail_1_1SharedFromBase.html" target="_top" xlink:title=" ">
<polygon fill="none" stroke="black" points="401,-171.5 401,-228.5 721,-228.5 721,-171.5 401,-171.5"/>
<text text-anchor="middle" x="561" y="-216.5" font-family="Helvetica,sans-Serif" font-size="10.00">Roar::Detail::SharedFromBase&lt; WebsocketBase, WebsocketClient &gt;</text>
<polyline fill="none" stroke="black" points="401,-209.5 721,-209.5 "/>
<text text-anchor="middle" x="561" y="-197.5" font-family="Helvetica,sans-Serif" font-size="10.00"> </text>
<polyline fill="none" stroke="black" points="401,-190.5 721,-190.5 "/>
<text text-anchor="start" x="409" y="-178.5" font-family="Helvetica,sans-Serif" font-size="10.00">+ shared_from_this()</text>
</a>
</g>
</g>
<!-- Node2&#45;&gt;Node1 -->
<g id="edge1" class="edge">
<title>Node2&#45;&gt;Node1</title>
<path fill="none" stroke="midnightblue" d="M611.18,-165.71C640.03,-146.57 676.44,-122.41 706.71,-102.34"/>
<polygon fill="none" stroke="midnightblue" points="608.88,-163.03 602.48,-171.48 612.75,-168.87 608.88,-163.03"/>
</g>
<!-- Node3 -->
<g id="node3" class="node">
<title>Node3</title>
<g id="a_node3"><a xlink:href="classRoar_1_1WebsocketBase.html" target="_top" xlink:title=" ">
<polygon fill="none" stroke="black" points="388.5,-276.5 388.5,-443.5 503.5,-443.5 503.5,-276.5 388.5,-276.5"/>
<text text-anchor="middle" x="446" y="-431.5" font-family="Helvetica,sans-Serif" font-size="10.00">Roar::WebsocketBase</text>
<polyline fill="none" stroke="black" points="388.5,-424.5 503.5,-424.5 "/>
<text text-anchor="middle" x="446" y="-412.5" font-family="Helvetica,sans-Serif" font-size="10.00"> </text>
<polyline fill="none" stroke="black" points="388.5,-405.5 503.5,-405.5 "/>
<text text-anchor="start" x="396.5" y="-393.5" font-family="Helvetica,sans-Serif" font-size="10.00">+ WebsocketBase()</text>
<text text-anchor="start" x="396.5" y="-382.5" font-family="Helvetica,sans-Serif" font-size="10.00">+ WebsocketBase()</text>
<text text-anchor="start" x="396.5" y="-371.5" font-family="Helvetica,sans-Serif" font-size="10.00">+ WebsocketBase()</text>
<text text-anchor="start" x="396.5" y="-360.5" font-family="Helvetica,sans-Serif" font-size="10.00">+ operator=()</text>
<text text-anchor="start" x="396.5" y="-349.5" font-family="Helvetica,sans-Serif" font-size="10.00">+ WebsocketBase()</text>
<text text-anchor="start" x="396.5" y="-338.5" font-family="Helvetica,sans-Serif" font-size="10.00">+ operator=()</text>
<text text-anchor="start" x="396.5" y="-327.5" font-family="Helvetica,sans-Serif" font-size="10.00">+ ~WebsocketBase()</text>
<text text-anchor="start" x="396.5" y="-316.5" font-family="Helvetica,sans-Serif" font-size="10.00">+ withStreamDo()</text>
<text text-anchor="start" x="396.5" y="-305.5" font-family="Helvetica,sans-Serif" font-size="10.00">+ withStreamDo()</text>
<text text-anchor="start" x="396.5" y="-294.5" font-family="Helvetica,sans-Serif" font-size="10.00">+ readMessageMax()</text>
<text text-anchor="start" x="396.5" y="-283.5" font-family="Helvetica,sans-Serif" font-size="10.00">and 8 more...</text>
</a>
</g>
</g>
<!-- Node3&#45;&gt;Node2 -->
<g id="edge2" class="edge">
<title>Node3&#45;&gt;Node2</title>
<path fill="none" stroke="midnightblue" d="M509.75,-271.41C521.03,-255.92 531.98,-240.87 540.85,-228.69"/>
<polygon fill="none" stroke="midnightblue" points="506.89,-269.39 503.84,-279.54 512.55,-273.51 506.89,-269.39"/>
</g>
<!-- Node4 -->
<g id="node4" class="node">
<title>Node4</title>
<g id="a_node4"><a xlink:title=" ">
<polygon fill="none" stroke="black" points="0,-497 0,-554 234,-554 234,-497 0,-497"/>
<text text-anchor="middle" x="117" y="-542" font-family="Helvetica,sans-Serif" font-size="10.00">std::enable_shared_from_this&lt; WebsocketBase &gt;</text>
<polyline fill="none" stroke="black" points="0,-535 234,-535 "/>
<text text-anchor="middle" x="117" y="-523" font-family="Helvetica,sans-Serif" font-size="10.00"> </text>
<polyline fill="none" stroke="black" points="0,-516 234,-516 "/>
<text text-anchor="middle" x="117" y="-504" font-family="Helvetica,sans-Serif" font-size="10.00"> </text>
</a>
</g>
</g>
<!-- Node4&#45;&gt;Node3 -->
<g id="edge3" class="edge">
<title>Node4&#45;&gt;Node3</title>
<path fill="none" stroke="midnightblue" d="M181.47,-492.46C241.63,-462.57 330.56,-418.37 388.4,-389.63"/>
<polygon fill="none" stroke="midnightblue" points="179.84,-489.36 172.44,-496.95 182.95,-495.63 179.84,-489.36"/>
</g>
<!-- Node5 -->
<g id="node5" class="node">
<title>Node5</title>
<g id="a_node5"><a xlink:title=" ">
<polygon fill="none" stroke="black" points="252,-491.5 252,-559.5 640,-559.5 640,-491.5 252,-491.5"/>
<text text-anchor="start" x="260" y="-547.5" font-family="Helvetica,sans-Serif" font-size="10.00">variant&lt; boost::beast::websocket::stream&lt; boost::beast::ssl_stream</text>
<text text-anchor="middle" x="446" y="-536.5" font-family="Helvetica,sans-Serif" font-size="10.00">&lt; Detail::StreamType &gt; &gt;, boost::beast::websocket::stream&lt; Detail::StreamType &gt; &gt;</text>
<polyline fill="none" stroke="black" points="252,-529.5 640,-529.5 "/>
<text text-anchor="middle" x="446" y="-517.5" font-family="Helvetica,sans-Serif" font-size="10.00"> </text>
<polyline fill="none" stroke="black" points="252,-510.5 640,-510.5 "/>
<text text-anchor="middle" x="446" y="-498.5" font-family="Helvetica,sans-Serif" font-size="10.00"> </text>
</a>
</g>
</g>
<!-- Node5&#45;&gt;Node3 -->
<g id="edge4" class="edge">
<title>Node5&#45;&gt;Node3</title>
<path fill="none" stroke="#404040" d="M446,-491.41C446,-480.88 446,-468.65 446,-455.98"/>
<polygon fill="none" stroke="#404040" points="446,-455.74 442,-449.74 446,-443.74 450,-449.74 446,-455.74"/>
<text text-anchor="middle" x="459.5" y="-465" font-family="Helvetica,sans-Serif" font-size="10.00"> #ws_</text>
</g>
<!-- Node6 -->
<g id="node6" class="node">
<title>Node6</title>
<g id="a_node6"><a xlink:href="structRoar_1_1Detail_1_1SharedFromBase.html" target="_top" xlink:title=" ">
<polygon fill="none" stroke="black" points="541.5,-331.5 541.5,-388.5 772.5,-388.5 772.5,-331.5 541.5,-331.5"/>
<text text-anchor="middle" x="657" y="-376.5" font-family="Helvetica,sans-Serif" font-size="10.00">Roar::Detail::SharedFromBase&lt; Base, Derived &gt;</text>
<polyline fill="none" stroke="black" points="541.5,-369.5 772.5,-369.5 "/>
<text text-anchor="middle" x="657" y="-357.5" font-family="Helvetica,sans-Serif" font-size="10.00"> </text>
<polyline fill="none" stroke="black" points="541.5,-350.5 772.5,-350.5 "/>
<text text-anchor="start" x="549.5" y="-338.5" font-family="Helvetica,sans-Serif" font-size="10.00">+ shared_from_this()</text>
</a>
</g>
</g>
<!-- Node6&#45;&gt;Node2 -->
<g id="edge5" class="edge">
<title>Node6&#45;&gt;Node2</title>
<path fill="none" stroke="orange" d="M634.88,-322.6C617.52,-294.02 593.7,-254.82 577.85,-228.74"/>
<polygon fill="orange" stroke="orange" points="632.09,-324.75 640.28,-331.48 638.08,-321.11 632.09,-324.75"/>
<text text-anchor="middle" x="681.5" y="-250" font-family="Helvetica,sans-Serif" font-size="10.00"> &lt; WebsocketBase, WebsocketClient &gt;</text>
</g>
<!-- Node7 -->
<g id="node7" class="node">
<title>Node7</title>
<g id="a_node7"><a xlink:href="classBase.html" target="_top" xlink:title=" ">
<polygon fill="none" stroke="black" points="657.5,-497 657.5,-554 696.5,-554 696.5,-497 657.5,-497"/>
<text text-anchor="middle" x="677" y="-542" font-family="Helvetica,sans-Serif" font-size="10.00">Base</text>
<polyline fill="none" stroke="black" points="657.5,-535 696.5,-535 "/>
<text text-anchor="middle" x="677" y="-523" font-family="Helvetica,sans-Serif" font-size="10.00"> </text>
<polyline fill="none" stroke="black" points="657.5,-516 696.5,-516 "/>
<text text-anchor="middle" x="677" y="-504" font-family="Helvetica,sans-Serif" font-size="10.00"> </text>
</a>
</g>
</g>
<!-- Node7&#45;&gt;Node6 -->
<g id="edge6" class="edge">
<title>Node7&#45;&gt;Node6</title>
<path fill="none" stroke="midnightblue" d="M672.37,-486.67C668.71,-456.7 663.67,-415.53 660.38,-388.6"/>
<polygon fill="none" stroke="midnightblue" points="668.92,-487.26 673.61,-496.76 675.87,-486.41 668.92,-487.26"/>
</g>
<!-- Node8 -->
<g id="node8" class="node">
<title>Node8</title>
<g id="a_node8"><a xlink:title=" ">
<polygon fill="none" stroke="black" points="739.5,-171.5 739.5,-228.5 792.5,-228.5 792.5,-171.5 739.5,-171.5"/>
<text text-anchor="middle" x="766" y="-216.5" font-family="Helvetica,sans-Serif" font-size="10.00">seconds</text>
<polyline fill="none" stroke="black" points="739.5,-209.5 792.5,-209.5 "/>
<text text-anchor="middle" x="766" y="-197.5" font-family="Helvetica,sans-Serif" font-size="10.00"> </text>
<polyline fill="none" stroke="black" points="739.5,-190.5 792.5,-190.5 "/>
<text text-anchor="middle" x="766" y="-178.5" font-family="Helvetica,sans-Serif" font-size="10.00"> </text>
</a>
</g>
</g>
<!-- Node8&#45;&gt;Node1 -->
<g id="edge7" class="edge">
<title>Node8&#45;&gt;Node1</title>
<path fill="none" stroke="#404040" d="M766,-171.48C766,-161.01 766,-148.53 766,-135.82"/>
<polygon fill="none" stroke="#404040" points="766,-135.62 762,-129.62 766,-123.62 770,-129.62 766,-135.62"/>
<text text-anchor="middle" x="803" y="-145" font-family="Helvetica,sans-Serif" font-size="10.00"> +defaultTimeout</text>
</g>
<!-- Node9 -->
<g id="node9" class="node">
<title>Node9</title>
<g id="a_node9"><a xlink:title=" ">
<polygon fill="none" stroke="black" points="811,-171.5 811,-228.5 1065,-228.5 1065,-171.5 811,-171.5"/>
<text text-anchor="middle" x="938" y="-216.5" font-family="Helvetica,sans-Serif" font-size="10.00">unique_ptr&lt; Roar::WebsocketClient::Implementation &gt;</text>
<polyline fill="none" stroke="black" points="811,-209.5 1065,-209.5 "/>
<text text-anchor="middle" x="938" y="-197.5" font-family="Helvetica,sans-Serif" font-size="10.00"> </text>
<polyline fill="none" stroke="black" points="811,-190.5 1065,-190.5 "/>
<text text-anchor="middle" x="938" y="-178.5" font-family="Helvetica,sans-Serif" font-size="10.00"> </text>
</a>
</g>
</g>
<!-- Node9&#45;&gt;Node1 -->
<g id="edge8" class="edge">
<title>Node9&#45;&gt;Node1</title>
<path fill="none" stroke="#404040" d="M903.19,-171.48C883.52,-155.92 858.23,-135.93 834.74,-117.35"/>
<polygon fill="none" stroke="#404040" points="834.56,-117.21 827.37,-116.63 825.15,-109.77 832.33,-110.35 834.56,-117.21"/>
<text text-anchor="middle" x="892" y="-145" font-family="Helvetica,sans-Serif" font-size="10.00"> &#45;impl_</text>
</g>
</g>
</svg>
        <g id="navigator" transform="translate(0 0)" fill="#404254">
                <rect fill="#f2f5e9" fill-opacity="0.5" stroke="#606060" stroke-width=".5" x="0" y="0" width="60" height="60"/>
                <use id="zoomplus" xlink:href="#zoomPlus" x="17" y="9" onmousedown="handleZoom(evt,'in')"/>
                <use id="zoomminus" xlink:href="#zoomMin" x="42" y="9" onmousedown="handleZoom(evt,'out')"/>
                <use id="reset" xlink:href="#resetDef" x="30" y="36" onmousedown="handleReset()"/>
                <g id="arrowUp" xlink:href="#dirArrow" transform="translate(30 24)" onmousedown="handlePan(0,-1)">
                  <use xlink:href="#rim" fill="#404040">
                        <set attributeName="fill" to="#808080" begin="arrowUp.mouseover" end="arrowUp.mouseout"/>
                  </use>
                  <path fill="none" stroke="white" stroke-width="1.5" d="M0,-3.0v7 M-2.5,-0.5L0,-3.0L2.5,-0.5"/>
                </g>
                <g id="arrowRight" xlink:href="#dirArrow" transform="rotate(90) translate(36 -43)" onmousedown="handlePan(1,0)">
                  <use xlink:href="#rim" fill="#404040">
                        <set attributeName="fill" to="#808080" begin="arrowRight.mouseover" end="arrowRight.mouseout"/>
                  </use>
                  <path fill="none" stroke="white" stroke-width="1.5" d="M0,-3.0v7 M-2.5,-0.5L0,-3.0L2.5,-0.5"/>
                </g>
                <g id="arrowDown" xlink:href="#dirArrow" transform="rotate(180) translate(-30 -48)" onmousedown="handlePan(0,1)">
                  <use xlink:href="#rim" fill="#404040">
                        <set attributeName="fill" to="#808080" begin="arrowDown.mouseover" end="arrowDown.mouseout"/>
                  </use>
                  <path fill="none" stroke="white" stroke-width="1.5" d="M0,-3.0v7 M-2.5,-0.5L0,-3.0L2.5,-0.5"/>
                </g>
                <g id="arrowLeft" xlink:href="#dirArrow" transform="rotate(270) translate(-36 17)" onmousedown="handlePan(-1,0)">
                  <use xlink:href="#rim" fill="#404040">
                        <set attributeName="fill" to="#808080" begin="arrowLeft.mouseover" end="arrowLeft.mouseout"/>
                  </use>
                  <path fill="none" stroke="white" stroke-width="1.5" d="M0,-3.0v7 M-2.5,-0.5L0,-3.0L2.5,-0.5"/>
                </g>
        </g>
        <svg viewBox="0 0 15 15" width="100%" height="30px" preserveAspectRatio="xMaxYMin meet">
         <g id="arrow_out" transform="scale(0.3 0.3)">
          <a xlink:href="classRoar_1_1WebsocketClient__coll__graph_org.svg" target="_base">
           <rect id="button" ry="5" rx="5" y="6" x="6" height="38" width="38"
                fill="#f2f5e9" fill-opacity="0.5" stroke="#606060" stroke-width="1.0"/>
           <path id="arrow"
             d="M 11.500037,31.436501 C 11.940474,20.09759 22.043105,11.32322 32.158766,21.979434 L 37.068811,17.246167 C 37.068811,17.246167 37.088388,32 37.088388,32 L 22.160133,31.978069 C 22.160133,31.978069 26.997745,27.140456 26.997745,27.140456 C 18.528582,18.264221 13.291696,25.230495 11.500037,31.436501 z"
             style="fill:#404040;"/>
          </a>
         </g>
        </svg>
</svg>
