<?xml version="1.0" encoding="UTF-8" standalone="no"?>
<!DOCTYPE svg PUBLIC "-//W3C//DTD SVG 1.1//EN"
 "http://www.w3.org/Graphics/SVG/1.1/DTD/svg11.dtd">
<!-- Generated by graphviz version 8.1.0 (0)
 -->
<!-- Title: Roar::Curl::Request Pages: 1 -->
<svg width="1293pt" height="500pt"
 viewBox="0.00 0.00 1293.00 500.00" xmlns="http://www.w3.org/2000/svg" xmlns:xlink="http://www.w3.org/1999/xlink">
<g id="graph0" class="graph" transform="scale(1 1) rotate(0) translate(4 496)">
<title>Roar::Curl::Request</title>
<!-- Node1 -->
<g id="Node000001" class="node">
<title>Node1</title>
<g id="a_Node000001"><a xlink:title=" ">
<polygon fill="#999999" stroke="none" points="601,-260 504,-260 504,0 601,0 601,-260"/>
<text text-anchor="start" x="508.62" y="-246.5" font-family="Helvetica,sans-Serif" font-size="10.00">Roar::Curl::Request</text>
<text text-anchor="start" x="551" y="-230.5" font-family="Helvetica,sans-Serif" font-size="10.00"> </text>
<text text-anchor="start" x="508.5" y="-214.5" font-family="Helvetica,sans-Serif" font-size="10.00">+</text>
<text text-anchor="start" x="519" y="-214.5" font-family="Helvetica,sans-Serif" font-size="10.00">Request()</text>
<text text-anchor="start" x="508.5" y="-198.5" font-family="Helvetica,sans-Serif" font-size="10.00">+</text>
<text text-anchor="start" x="519" y="-198.5" font-family="Helvetica,sans-Serif" font-size="10.00">basicAuth()</text>
<text text-anchor="start" x="508.5" y="-182.5" font-family="Helvetica,sans-Serif" font-size="10.00">+</text>
<text text-anchor="start" x="519" y="-182.5" font-family="Helvetica,sans-Serif" font-size="10.00">bearerAuth()</text>
<text text-anchor="start" x="508.5" y="-166.5" font-family="Helvetica,sans-Serif" font-size="10.00">+</text>
<text text-anchor="start" x="519" y="-166.5" font-family="Helvetica,sans-Serif" font-size="10.00">acceptEncoding()</text>
<text text-anchor="start" x="508.5" y="-150.5" font-family="Helvetica,sans-Serif" font-size="10.00">+</text>
<text text-anchor="start" x="519" y="-150.5" font-family="Helvetica,sans-Serif" font-size="10.00">followRedirects()</text>
<text text-anchor="start" x="508.5" y="-134.5" font-family="Helvetica,sans-Serif" font-size="10.00">+</text>
<text text-anchor="start" x="519" y="-134.5" font-family="Helvetica,sans-Serif" font-size="10.00">maxRedirects()</text>
<text text-anchor="start" x="508.5" y="-118.5" font-family="Helvetica,sans-Serif" font-size="10.00">+</text>
<text text-anchor="start" x="519" y="-118.5" font-family="Helvetica,sans-Serif" font-size="10.00">autoReferer()</text>
<text text-anchor="start" x="508.5" y="-102.5" font-family="Helvetica,sans-Serif" font-size="10.00">+</text>
<text text-anchor="start" x="519" y="-102.5" font-family="Helvetica,sans-Serif" font-size="10.00">setHeaderFields()</text>
<text text-anchor="start" x="508.5" y="-86.5" font-family="Helvetica,sans-Serif" font-size="10.00">+</text>
<text text-anchor="start" x="519" y="-86.5" font-family="Helvetica,sans-Serif" font-size="10.00">setHeader()</text>
<text text-anchor="start" x="508.5" y="-70.5" font-family="Helvetica,sans-Serif" font-size="10.00">+</text>
<text text-anchor="start" x="519" y="-70.5" font-family="Helvetica,sans-Serif" font-size="10.00">setHeader()</text>
<text text-anchor="start" x="519" y="-54.5" font-family="Helvetica,sans-Serif" font-size="10.00">and 37 more...</text>
<text text-anchor="start" x="510" y="-38.5" font-family="Helvetica,sans-Serif" font-size="10.00">&#45;</text>
<text text-anchor="start" x="519" y="-38.5" font-family="Helvetica,sans-Serif" font-size="10.00">check()</text>
<text text-anchor="start" x="510" y="-22.5" font-family="Helvetica,sans-Serif" font-size="10.00">&#45;</text>
<text text-anchor="start" x="519" y="-22.5" font-family="Helvetica,sans-Serif" font-size="10.00">setupSource()</text>
<text text-anchor="start" x="510" y="-6.5" font-family="Helvetica,sans-Serif" font-size="10.00">&#45;</text>
<text text-anchor="start" x="519" y="-6.5" font-family="Helvetica,sans-Serif" font-size="10.00">setupSinks()</text>
<polygon fill="#666666" stroke="#666666" points="504,-242 504,-242 601,-242 601,-242 504,-242"/>
<polygon fill="#666666" stroke="#666666" points="504,-226 504,-226 601,-226 601,-226 504,-226"/>
<polygon fill="none" stroke="#666666" points="504,0 504,-260 601,-260 601,0 504,0"/>
</a>
</g>
</g>
<!-- Node2 -->
<g id="Node000002" class="node">
<title>Node2</title>
<g id="a_Node000002"><a xlink:href="classRoar_1_1Curl_1_1Instance.html" target="_top" xlink:title=" ">
<polygon fill="white" stroke="none" points="99.5,-392 1.5,-392 1.5,-308 99.5,-308 99.5,-392"/>
<text text-anchor="start" x="6.25" y="-378.5" font-family="Helvetica,sans-Serif" font-size="10.00">Roar::Curl::Instance</text>
<text text-anchor="start" x="49" y="-362.5" font-family="Helvetica,sans-Serif" font-size="10.00"> </text>
<text text-anchor="start" x="6" y="-346.5" font-family="Helvetica,sans-Serif" font-size="10.00">+</text>
<text text-anchor="start" x="16.5" y="-346.5" font-family="Helvetica,sans-Serif" font-size="10.00">Instance()</text>
<text text-anchor="start" x="6" y="-330.5" font-family="Helvetica,sans-Serif" font-size="10.00">+</text>
<text text-anchor="start" x="16.5" y="-330.5" font-family="Helvetica,sans-Serif" font-size="10.00">operator CURL *()</text>
<text text-anchor="start" x="6" y="-314.5" font-family="Helvetica,sans-Serif" font-size="10.00">+</text>
<text text-anchor="start" x="16.5" y="-314.5" font-family="Helvetica,sans-Serif" font-size="10.00">get()</text>
<polygon fill="#666666" stroke="#666666" points="1.5,-374 1.5,-374 99.5,-374 99.5,-374 1.5,-374"/>
<polygon fill="#666666" stroke="#666666" points="1.5,-358 1.5,-358 99.5,-358 99.5,-358 1.5,-358"/>
<polygon fill="none" stroke="#666666" points="1.5,-308 1.5,-392 99.5,-392 99.5,-308 1.5,-308"/>
</a>
</g>
</g>
<!-- Node2&#45;&gt;Node1 -->
<g id="edge1_Node000001_Node000002" class="edge">
<title>Node2&#45;&gt;Node1</title>
<g id="a_edge1_Node000001_Node000002"><a xlink:title=" ">
<path fill="none" stroke="#63b8ff" d="M99.35,-313.28C102.4,-311.42 105.47,-309.65 108.5,-308 239.18,-237.06 404.45,-178.71 491.86,-150.08"/>
<polygon fill="none" stroke="#63b8ff" points="491.91,-150.07 496.38,-144.41 503.33,-146.36 498.86,-152.01 491.91,-150.07"/>
</a>
</g>
<text text-anchor="middle" x="190.5" y="-280.5" font-family="Helvetica,sans-Serif" font-size="10.00" fill="grey"> &#45;instance_</text>
</g>
<!-- Node3 -->
<g id="Node000003" class="node">
<title>Node3</title>
<g id="a_Node000003"><a xlink:title=" ">
<polygon fill="white" stroke="none" points="101,-492 0,-492 0,-440 101,-440 101,-492"/>
<text text-anchor="start" x="4.75" y="-478.5" font-family="Helvetica,sans-Serif" font-size="10.00">shared_ptr&lt; CURL &gt;</text>
<text text-anchor="start" x="49" y="-462.5" font-family="Helvetica,sans-Serif" font-size="10.00"> </text>
<text text-anchor="start" x="49" y="-446.5" font-family="Helvetica,sans-Serif" font-size="10.00"> </text>
<polygon fill="#666666" stroke="#666666" points="0,-474 0,-474 101,-474 101,-474 0,-474"/>
<polygon fill="#666666" stroke="#666666" points="0,-458 0,-458 101,-458 101,-458 0,-458"/>
<polygon fill="none" stroke="#666666" points="0,-440 0,-492 101,-492 101,-440 0,-440"/>
</a>
</g>
</g>
<!-- Node3&#45;&gt;Node2 -->
<g id="edge2_Node000002_Node000003" class="edge">
<title>Node3&#45;&gt;Node2</title>
<g id="a_edge2_Node000002_Node000003"><a xlink:title=" ">
<path fill="none" stroke="#63b8ff" d="M50.5,-440.26C50.5,-429.77 50.5,-417.09 50.5,-404.63"/>
<polygon fill="none" stroke="#63b8ff" points="50.5,-404.73 46.5,-398.73 50.5,-392.73 54.5,-398.73 50.5,-404.73"/>
</a>
</g>
<text text-anchor="middle" x="74.5" y="-412.5" font-family="Helvetica,sans-Serif" font-size="10.00" fill="grey"> &#45;instance_</text>
</g>
<!-- Node4 -->
<g id="Node000004" class="node">
<title>Node4</title>
<g id="a_Node000004"><a xlink:title=" ">
<polygon fill="white" stroke="none" points="277.5,-376 117.5,-376 117.5,-324 277.5,-324 277.5,-376"/>
<text text-anchor="start" x="122.12" y="-362.5" font-family="Helvetica,sans-Serif" font-size="10.00">function&lt; void(char *, std::size_t)&gt;</text>
<text text-anchor="start" x="196" y="-346.5" font-family="Helvetica,sans-Serif" font-size="10.00"> </text>
<text text-anchor="start" x="196" y="-330.5" font-family="Helvetica,sans-Serif" font-size="10.00"> </text>
<polygon fill="#666666" stroke="#666666" points="117.5,-358 117.5,-358 277.5,-358 277.5,-358 117.5,-358"/>
<polygon fill="#666666" stroke="#666666" points="117.5,-342 117.5,-342 277.5,-342 277.5,-342 117.5,-342"/>
<polygon fill="none" stroke="#666666" points="117.5,-324 117.5,-376 277.5,-376 277.5,-324 117.5,-324"/>
</a>
</g>
</g>
<!-- Node4&#45;&gt;Node1 -->
<g id="edge3_Node000001_Node000004" class="edge">
<title>Node4&#45;&gt;Node1</title>
<g id="a_edge3_Node000001_Node000004"><a xlink:title=" ">
<path fill="none" stroke="#63b8ff" d="M237.88,-324.2C300.45,-285.78 421.16,-211.66 493.5,-167.23"/>
<polygon fill="none" stroke="#63b8ff" points="493.26,-167.38 496.28,-160.83 503.48,-161.1 500.46,-167.65 493.26,-167.38"/>
</a>
</g>
<text text-anchor="middle" x="327.12" y="-280.5" font-family="Helvetica,sans-Serif" font-size="10.00" fill="grey"> &#45;sink_</text>
</g>
<!-- Node5 -->
<g id="Node000005" class="node">
<title>Node5</title>
<g id="a_Node000005"><a xlink:title=" ">
<polygon fill="white" stroke="none" points="575.5,-382 295.5,-382 295.5,-318 575.5,-318 575.5,-382"/>
<text text-anchor="start" x="300.5" y="-368.5" font-family="Helvetica,sans-Serif" font-size="10.00">vector&lt; std::pair&lt; std::function&lt; void(char *, std::size_t)&gt;, std</text>
<text text-anchor="start" x="386.75" y="-356.5" font-family="Helvetica,sans-Serif" font-size="10.00">::function&lt; void()&gt; &gt; &gt;</text>
<text text-anchor="start" x="434" y="-340.5" font-family="Helvetica,sans-Serif" font-size="10.00"> </text>
<text text-anchor="start" x="434" y="-324.5" font-family="Helvetica,sans-Serif" font-size="10.00"> </text>
<polygon fill="#666666" stroke="#666666" points="295.5,-352 295.5,-352 575.5,-352 575.5,-352 295.5,-352"/>
<polygon fill="#666666" stroke="#666666" points="295.5,-336 295.5,-336 575.5,-336 575.5,-336 295.5,-336"/>
<polygon fill="none" stroke="#666666" points="295.5,-318 295.5,-382 575.5,-382 575.5,-318 295.5,-318"/>
</a>
</g>
</g>
<!-- Node5&#45;&gt;Node1 -->
<g id="edge4_Node000001_Node000005" class="edge">
<title>Node5&#45;&gt;Node1</title>
<g id="a_edge4_Node000001_Node000005"><a xlink:title=" ">
<path fill="none" stroke="#63b8ff" d="M452.02,-318.23C464.13,-295.65 481.33,-263.61 498.08,-232.4"/>
<polygon fill="none" stroke="#63b8ff" points="498.12,-232.32 497.43,-225.15 503.79,-221.75 504.48,-228.93 498.12,-232.32"/>
</a>
</g>
<text text-anchor="middle" x="490.75" y="-280.5" font-family="Helvetica,sans-Serif" font-size="10.00" fill="grey"> &#45;sinks_</text>
</g>
<!-- Node6 -->
<g id="Node000006" class="node">
<title>Node6</title>
<g id="a_Node000006"><a xlink:title=" ">
<polygon fill="white" stroke="none" points="747.5,-376 593.5,-376 593.5,-324 747.5,-324 747.5,-376"/>
<text text-anchor="start" x="598.12" y="-362.5" font-family="Helvetica,sans-Serif" font-size="10.00">unique_ptr&lt; Roar::Curl::Source &gt;</text>
<text text-anchor="start" x="669" y="-346.5" font-family="Helvetica,sans-Serif" font-size="10.00"> </text>
<text text-anchor="start" x="669" y="-330.5" font-family="Helvetica,sans-Serif" font-size="10.00"> </text>
<polygon fill="#666666" stroke="#666666" points="593.5,-358 593.5,-358 747.5,-358 747.5,-358 593.5,-358"/>
<polygon fill="#666666" stroke="#666666" points="593.5,-342 593.5,-342 747.5,-342 747.5,-342 593.5,-342"/>
<polygon fill="none" stroke="#666666" points="593.5,-324 593.5,-376 747.5,-376 747.5,-324 593.5,-324"/>
</a>
</g>
</g>
<!-- Node6&#45;&gt;Node1 -->
<g id="edge5_Node000001_Node000006" class="edge">
<title>Node6&#45;&gt;Node1</title>
<g id="a_edge5_Node000001_Node000006"><a xlink:title=" ">
<path fill="none" stroke="#63b8ff" d="M657.19,-324.42C644.85,-301.61 625.62,-266.09 607,-231.69"/>
<polygon fill="none" stroke="#63b8ff" points="607.13,-231.92 600.75,-228.55 601.41,-221.37 607.79,-224.74 607.13,-231.92"/>
</a>
</g>
<text text-anchor="middle" x="656.75" y="-280.5" font-family="Helvetica,sans-Serif" font-size="10.00" fill="grey"> &#45;source_</text>
</g>
<!-- Node7 -->
<g id="Node000007" class="node">
<title>Node7</title>
<g id="a_Node000007"><a xlink:title=" ">
<polygon fill="white" stroke="none" points="1079.5,-376 765.5,-376 765.5,-324 1079.5,-324 1079.5,-376"/>
<text text-anchor="start" x="770.25" y="-362.5" font-family="Helvetica,sans-Serif" font-size="10.00">vector&lt; std::function&lt; void(std::string const &amp;, std::string const &amp;)&gt; &gt;</text>
<text text-anchor="start" x="921" y="-346.5" font-family="Helvetica,sans-Serif" font-size="10.00"> </text>
<text text-anchor="start" x="921" y="-330.5" font-family="Helvetica,sans-Serif" font-size="10.00"> </text>
<polygon fill="#666666" stroke="#666666" points="765.5,-358 765.5,-358 1079.5,-358 1079.5,-358 765.5,-358"/>
<polygon fill="#666666" stroke="#666666" points="765.5,-342 765.5,-342 1079.5,-342 1079.5,-342 765.5,-342"/>
<polygon fill="none" stroke="#666666" points="765.5,-324 765.5,-376 1079.5,-376 1079.5,-324 765.5,-324"/>
</a>
</g>
</g>
<!-- Node7&#45;&gt;Node1 -->
<g id="edge6_Node000001_Node000007" class="edge">
<title>Node7&#45;&gt;Node1</title>
<g id="a_edge6_Node000001_Node000007"><a xlink:title=" ">
<path fill="none" stroke="#63b8ff" d="M880.42,-324.2C814.66,-285.46 687.3,-210.43 612.12,-166.13"/>
<polygon fill="none" stroke="#63b8ff" points="612.09,-166.11 604.89,-166.51 601.75,-160.02 608.95,-159.62 612.09,-166.11"/>
</a>
</g>
<text text-anchor="middle" x="855.88" y="-280.5" font-family="Helvetica,sans-Serif" font-size="10.00" fill="grey"> &#45;headerReceivers_</text>
</g>
<!-- Node8 -->
<g id="Node000008" class="node">
<title>Node8</title>
<g id="a_Node000008"><a xlink:title=" ">
<polygon fill="white" stroke="none" points="1285,-376 1098,-376 1098,-324 1285,-324 1285,-376"/>
<text text-anchor="start" x="1102.62" y="-362.5" font-family="Helvetica,sans-Serif" font-size="10.00">unordered_map&lt; std::string, std::string &gt;</text>
<text text-anchor="start" x="1190" y="-346.5" font-family="Helvetica,sans-Serif" font-size="10.00"> </text>
<text text-anchor="start" x="1190" y="-330.5" font-family="Helvetica,sans-Serif" font-size="10.00"> </text>
<polygon fill="#666666" stroke="#666666" points="1098,-358 1098,-358 1285,-358 1285,-358 1098,-358"/>
<polygon fill="#666666" stroke="#666666" points="1098,-342 1098,-342 1285,-342 1285,-342 1098,-342"/>
<polygon fill="none" stroke="#666666" points="1098,-324 1098,-376 1285,-376 1285,-324 1098,-324"/>
</a>
</g>
</g>
<!-- Node8&#45;&gt;Node1 -->
<g id="edge7_Node000001_Node000008" class="edge">
<title>Node8&#45;&gt;Node1</title>
<g id="a_edge7_Node000001_Node000008"><a xlink:title=" ">
<path fill="none" stroke="#63b8ff" d="M1130.46,-324C1116.72,-318.57 1102.16,-312.97 1088.5,-308 917.61,-245.83 712.84,-180.79 613.09,-149.71"/>
<polygon fill="none" stroke="#63b8ff" points="613.2,-149.74 606.28,-151.78 601.74,-146.17 608.66,-144.14 613.2,-149.74"/>
</a>
</g>
<text text-anchor="middle" x="1063.88" y="-280.5" font-family="Helvetica,sans-Serif" font-size="10.00" fill="grey"> &#45;headerFields_</text>
</g>
</g>
</svg>
