<?xml version="1.0" encoding="UTF-8" standalone="no"?>
<!DOCTYPE svg PUBLIC "-//W3C//DTD SVG 1.1//EN"
 "http://www.w3.org/Graphics/SVG/1.1/DTD/svg11.dtd">
<!-- Generated by graphviz version 8.1.0 (0)
 -->
<!-- Title: Roar::Factory Pages: 1 -->
<svg width="283pt" height="192pt"
 viewBox="0.00 0.00 283.00 192.00" xmlns="http://www.w3.org/2000/svg" xmlns:xlink="http://www.w3.org/1999/xlink">

<svg id="main" version="1.1" xmlns="http://www.w3.org/2000/svg" xmlns:xlink="http://www.w3.org/1999/xlink" xml:space="preserve" onload="init(evt)">
<style type="text/css"><![CDATA[
.node, .edge {opacity: 0.7;}
.node.selected, .edge.selected {opacity: 1;}
.edge:hover path { stroke: red; }
.edge:hover polygon { stroke: red; fill: red; }
]]></style>
<script type="application/ecmascript" xlink:href="svg.min.js"/>
<svg id="graph" class="graph">
<g id="graph0" class="graph" transform="scale(1 1) rotate(0) translate(4 188)">
<title>Roar::Factory</title>
<!-- Node1 -->
<g id="Node000001" class="node">
<title>Node1</title>
<g id="a_Node000001"><a xlink:title="This factory creates sessions.">
<polygon fill="#999999" stroke="none" points="201,-84 0,-84 0,0 201,0 201,-84"/>
<text text-anchor="start" x="70.5" y="-70.5" font-family="Helvetica,sans-Serif" font-size="10.00">Roar::Factory</text>
<text text-anchor="start" x="99" y="-54.5" font-family="Helvetica,sans-Serif" font-size="10.00"> </text>
<text text-anchor="start" x="4" y="-38.5" font-family="Helvetica,sans-Serif" font-size="10.00">+</text>
<text text-anchor="start" x="14" y="-38.5" font-family="Helvetica,sans-Serif" font-size="10.00">Factory()</text>
<text text-anchor="start" x="4" y="-22.5" font-family="Helvetica,sans-Serif" font-size="10.00">+</text>
<text text-anchor="start" x="14" y="-22.5" font-family="Helvetica,sans-Serif" font-size="10.00">ROAR_PIMPL_SPECIAL_FUNCTIONS()</text>
<text text-anchor="start" x="4" y="-6.5" font-family="Helvetica,sans-Serif" font-size="10.00">+</text>
<text text-anchor="start" x="14" y="-6.5" font-family="Helvetica,sans-Serif" font-size="10.00">makeSession()</text>
<polygon fill="#666666" stroke="#666666" points="0,-66 0,-66 201,-66 201,-66 0,-66"/>
<polygon fill="#666666" stroke="#666666" points="0,-50 0,-50 201,-50 201,-50 0,-50"/>
<polygon fill="none" stroke="#666666" points="0,0 0,-84 201,-84 201,0 0,0"/>
</a>
</g>
</g>
<!-- Node2 -->
<g id="Node000002" class="node">
<title>Node2</title>
<g id="a_Node000002"><a xlink:title=" ">
<polygon fill="white" stroke="none" points="51.5,-184 5.5,-184 5.5,-132 51.5,-132 51.5,-184"/>
<text text-anchor="start" x="10.12" y="-170.5" font-family="Helvetica,sans-Serif" font-size="10.00">seconds</text>
<text text-anchor="start" x="27" y="-154.5" font-family="Helvetica,sans-Serif" font-size="10.00"> </text>
<text text-anchor="start" x="27" y="-138.5" font-family="Helvetica,sans-Serif" font-size="10.00"> </text>
<polygon fill="#666666" stroke="#666666" points="5.5,-166 5.5,-166 51.5,-166 51.5,-166 5.5,-166"/>
<polygon fill="#666666" stroke="#666666" points="5.5,-150 5.5,-150 51.5,-150 51.5,-150 5.5,-150"/>
<polygon fill="none" stroke="#666666" points="5.5,-132 5.5,-184 51.5,-184 51.5,-132 5.5,-132"/>
</a>
</g>
</g>
<!-- Node2&#45;&gt;Node1 -->
<g id="edge1_Node000001_Node000002" class="edge">
<title>Node2&#45;&gt;Node1</title>
<g id="a_edge1_Node000001_Node000002"><a xlink:title=" ">
<path fill="none" stroke="#63b8ff" d="M37.08,-132.15C40.9,-122.43 45.82,-111.38 51.5,-102 53.07,-99.41 54.75,-96.81 56.51,-94.22"/>
<polygon fill="none" stroke="#63b8ff" points="56.52,-94.2 56.79,-87 63.55,-84.48 63.28,-91.68 56.52,-94.2"/>
</a>
</g>
<text text-anchor="middle" x="101" y="-104.5" font-family="Helvetica,sans-Serif" font-size="10.00" fill="grey"> +sslDetectionTimeout</text>
</g>
<!-- Node3 -->
<g id="Node000003" class="node">
<title>Node3</title>
<g id="a_Node000003"><a xlink:title=" ">
<polygon fill="white" stroke="none" points="275,-184 70,-184 70,-132 275,-132 275,-184"/>
<text text-anchor="start" x="74.62" y="-170.5" font-family="Helvetica,sans-Serif" font-size="10.00">unique_ptr&lt; Roar::Factory::Implementation &gt;</text>
<text text-anchor="start" x="171" y="-154.5" font-family="Helvetica,sans-Serif" font-size="10.00"> </text>
<text text-anchor="start" x="171" y="-138.5" font-family="Helvetica,sans-Serif" font-size="10.00"> </text>
<polygon fill="#666666" stroke="#666666" points="70,-166 70,-166 275,-166 275,-166 70,-166"/>
<polygon fill="#666666" stroke="#666666" points="70,-150 70,-150 275,-150 275,-150 70,-150"/>
<polygon fill="none" stroke="#666666" points="70,-132 70,-184 275,-184 275,-132 70,-132"/>
</a>
</g>
</g>
<!-- Node3&#45;&gt;Node1 -->
<g id="edge2_Node000001_Node000003" class="edge">
<title>Node3&#45;&gt;Node1</title>
<g id="a_edge2_Node000001_Node000003"><a xlink:title=" ">
<path fill="none" stroke="#63b8ff" d="M164.48,-132.1C160.86,-122.38 156.12,-111.34 150.5,-102 148.95,-99.43 147.29,-96.85 145.55,-94.3"/>
<polygon fill="none" stroke="#63b8ff" points="145.62,-94.39 138.86,-91.89 138.57,-84.69 145.33,-87.19 145.62,-94.39"/>
</a>
</g>
<text text-anchor="middle" x="171.12" y="-104.5" font-family="Helvetica,sans-Serif" font-size="10.00" fill="grey"> &#45;impl_</text>
</g>
</g>
</svg>
</svg>

<style type='text/css'>
<![CDATA[
[data-mouse-over-selected='false'] { opacity: 0.7; }
[data-mouse-over-selected='true']  { opacity: 1.0; }
]]>
</style>
<script type="application/ecmascript"><![CDATA[
document.addEventListener('DOMContentLoaded', (event) => {
  highlightEdges();
  highlightAdjacentNodes();
});
]]></script>
</svg>
