<?xml version="1.0" encoding="UTF-8" standalone="no"?>
<!DOCTYPE svg PUBLIC "-//W3C//DTD SVG 1.1//EN"
 "http://www.w3.org/Graphics/SVG/1.1/DTD/svg11.dtd">
<!-- Generated by graphviz version 8.1.0 (0)
 -->
<!-- Title: Roar::WebsocketClient Pages: 1 -->
<svg width="1042pt" height="628pt"
 viewBox="0.00 0.00 1042.00 628.00" xmlns="http://www.w3.org/2000/svg" xmlns:xlink="http://www.w3.org/1999/xlink">
<g id="graph0" class="graph" transform="scale(1 1) rotate(0) translate(4 624)">
<title>Roar::WebsocketClient</title>
<!-- Node1 -->
<g id="Node000001" class="node">
<title>Node1</title>
<g id="a_Node000001"><a xlink:title=" ">
<polygon fill="#999999" stroke="none" points="801,-148 690,-148 690,0 801,0 801,-148"/>
<text text-anchor="start" x="694.88" y="-134.5" font-family="Helvetica,sans-Serif" font-size="10.00">Roar::WebsocketClient</text>
<text text-anchor="start" x="744" y="-118.5" font-family="Helvetica,sans-Serif" font-size="10.00"> </text>
<text text-anchor="start" x="695.5" y="-102.5" font-family="Helvetica,sans-Serif" font-size="10.00">+</text>
<text text-anchor="start" x="707" y="-102.5" font-family="Helvetica,sans-Serif" font-size="10.00">WebsocketClient()</text>
<text text-anchor="start" x="695.5" y="-86.5" font-family="Helvetica,sans-Serif" font-size="10.00">+</text>
<text text-anchor="start" x="707" y="-86.5" font-family="Helvetica,sans-Serif" font-size="10.00">~WebsocketClient()</text>
<text text-anchor="start" x="695.5" y="-70.5" font-family="Helvetica,sans-Serif" font-size="10.00">+</text>
<text text-anchor="start" x="707" y="-70.5" font-family="Helvetica,sans-Serif" font-size="10.00">WebsocketClient()</text>
<text text-anchor="start" x="695.5" y="-54.5" font-family="Helvetica,sans-Serif" font-size="10.00">+</text>
<text text-anchor="start" x="707" y="-54.5" font-family="Helvetica,sans-Serif" font-size="10.00">operator=()</text>
<text text-anchor="start" x="695.5" y="-38.5" font-family="Helvetica,sans-Serif" font-size="10.00">+</text>
<text text-anchor="start" x="707" y="-38.5" font-family="Helvetica,sans-Serif" font-size="10.00">WebsocketClient()</text>
<text text-anchor="start" x="695.5" y="-22.5" font-family="Helvetica,sans-Serif" font-size="10.00">+</text>
<text text-anchor="start" x="707" y="-22.5" font-family="Helvetica,sans-Serif" font-size="10.00">operator=()</text>
<text text-anchor="start" x="695.5" y="-6.5" font-family="Helvetica,sans-Serif" font-size="10.00">+</text>
<text text-anchor="start" x="707" y="-6.5" font-family="Helvetica,sans-Serif" font-size="10.00">connect()</text>
<polygon fill="#666666" stroke="#666666" points="690,-130 690,-130 801,-130 801,-130 690,-130"/>
<polygon fill="#666666" stroke="#666666" points="690,-114 690,-114 801,-114 801,-114 690,-114"/>
<polygon fill="none" stroke="#666666" points="690,0 690,-148 801,-148 801,0 690,0"/>
</a>
</g>
</g>
<!-- Node2 -->
<g id="Node000002" class="node">
<title>Node2</title>
<g id="a_Node000002"><a xlink:href="structRoar_1_1Detail_1_1SharedFromBase.html" target="_top" xlink:title=" ">
<polygon fill="white" stroke="none" points="704,-248 391,-248 391,-196 704,-196 704,-248"/>
<text text-anchor="start" x="395.62" y="-234.5" font-family="Helvetica,sans-Serif" font-size="10.00">Roar::Detail::SharedFromBase&lt; WebsocketBase, WebsocketClient &gt;</text>
<text text-anchor="start" x="546" y="-218.5" font-family="Helvetica,sans-Serif" font-size="10.00"> </text>
<text text-anchor="start" x="448.5" y="-202.5" font-family="Helvetica,sans-Serif" font-size="10.00">+</text>
<text text-anchor="start" x="512" y="-202.5" font-family="Helvetica,sans-Serif" font-size="10.00">shared_from_this()</text>
<polygon fill="#666666" stroke="#666666" points="391,-230 391,-230 704,-230 704,-230 391,-230"/>
<polygon fill="#666666" stroke="#666666" points="391,-214 391,-214 704,-214 704,-214 391,-214"/>
<polygon fill="none" stroke="#666666" points="391,-196 391,-248 704,-248 704,-196 391,-196"/>
</a>
</g>
</g>
<!-- Node2&#45;&gt;Node1 -->
<g id="edge1_Node000001_Node000002" class="edge">
<title>Node2&#45;&gt;Node1</title>
<g id="a_edge1_Node000001_Node000002"><a xlink:title=" ">
<path fill="none" stroke="#63b8ff" d="M589.86,-189.77C619.22,-168.12 658.59,-139.09 690.39,-115.64"/>
<polygon fill="none" stroke="#63b8ff" points="588.06,-187.48 582.09,-196.23 592.21,-193.12 588.06,-187.48"/>
</a>
</g>
</g>
<!-- Node3 -->
<g id="Node000003" class="node">
<title>Node3</title>
<g id="a_Node000003"><a xlink:href="classRoar_1_1WebsocketBase.html" target="_top" xlink:title=" ">
<polygon fill="white" stroke="none" points="489.5,-508 381.5,-508 381.5,-296 489.5,-296 489.5,-508"/>
<text text-anchor="start" x="386.38" y="-494.5" font-family="Helvetica,sans-Serif" font-size="10.00">Roar::WebsocketBase</text>
<text text-anchor="start" x="434" y="-478.5" font-family="Helvetica,sans-Serif" font-size="10.00"> </text>
<text text-anchor="start" x="387" y="-462.5" font-family="Helvetica,sans-Serif" font-size="10.00">+</text>
<text text-anchor="start" x="398.5" y="-462.5" font-family="Helvetica,sans-Serif" font-size="10.00">WebsocketBase()</text>
<text text-anchor="start" x="387" y="-446.5" font-family="Helvetica,sans-Serif" font-size="10.00">+</text>
<text text-anchor="start" x="398.5" y="-446.5" font-family="Helvetica,sans-Serif" font-size="10.00">WebsocketBase()</text>
<text text-anchor="start" x="387" y="-430.5" font-family="Helvetica,sans-Serif" font-size="10.00">+</text>
<text text-anchor="start" x="398.5" y="-430.5" font-family="Helvetica,sans-Serif" font-size="10.00">WebsocketBase()</text>
<text text-anchor="start" x="387" y="-414.5" font-family="Helvetica,sans-Serif" font-size="10.00">+</text>
<text text-anchor="start" x="398.5" y="-414.5" font-family="Helvetica,sans-Serif" font-size="10.00">operator=()</text>
<text text-anchor="start" x="387" y="-398.5" font-family="Helvetica,sans-Serif" font-size="10.00">+</text>
<text text-anchor="start" x="398.5" y="-398.5" font-family="Helvetica,sans-Serif" font-size="10.00">WebsocketBase()</text>
<text text-anchor="start" x="387" y="-382.5" font-family="Helvetica,sans-Serif" font-size="10.00">+</text>
<text text-anchor="start" x="398.5" y="-382.5" font-family="Helvetica,sans-Serif" font-size="10.00">operator=()</text>
<text text-anchor="start" x="387" y="-366.5" font-family="Helvetica,sans-Serif" font-size="10.00">+</text>
<text text-anchor="start" x="398.5" y="-366.5" font-family="Helvetica,sans-Serif" font-size="10.00">~WebsocketBase()</text>
<text text-anchor="start" x="387" y="-350.5" font-family="Helvetica,sans-Serif" font-size="10.00">+</text>
<text text-anchor="start" x="398.5" y="-350.5" font-family="Helvetica,sans-Serif" font-size="10.00">withStreamDo()</text>
<text text-anchor="start" x="387" y="-334.5" font-family="Helvetica,sans-Serif" font-size="10.00">+</text>
<text text-anchor="start" x="398.5" y="-334.5" font-family="Helvetica,sans-Serif" font-size="10.00">withStreamDo()</text>
<text text-anchor="start" x="387" y="-318.5" font-family="Helvetica,sans-Serif" font-size="10.00">+</text>
<text text-anchor="start" x="398.5" y="-318.5" font-family="Helvetica,sans-Serif" font-size="10.00">readMessageMax()</text>
<text text-anchor="start" x="398.5" y="-302.5" font-family="Helvetica,sans-Serif" font-size="10.00">and 9 more...</text>
<polygon fill="#666666" stroke="#666666" points="381.5,-490 381.5,-490 489.5,-490 489.5,-490 381.5,-490"/>
<polygon fill="#666666" stroke="#666666" points="381.5,-474 381.5,-474 489.5,-474 489.5,-474 381.5,-474"/>
<polygon fill="none" stroke="#666666" points="381.5,-296 381.5,-508 489.5,-508 489.5,-296 381.5,-296"/>
</a>
</g>
</g>
<!-- Node3&#45;&gt;Node2 -->
<g id="edge2_Node000002_Node000003" class="edge">
<title>Node3&#45;&gt;Node2</title>
<g id="a_edge2_Node000002_Node000003"><a xlink:title=" ">
<path fill="none" stroke="#63b8ff" d="M495.21,-306.1C508.82,-284.47 522.14,-263.3 531.93,-247.74"/>
<polygon fill="none" stroke="#63b8ff" points="491.73,-304.06 489.37,-314.39 497.66,-307.79 491.73,-304.06"/>
</a>
</g>
</g>
<!-- Node4 -->
<g id="Node000004" class="node">
<title>Node4</title>
<g id="a_Node000004"><a xlink:title=" ">
<polygon fill="white" stroke="none" points="227,-614 0,-614 0,-562 227,-562 227,-614"/>
<text text-anchor="start" x="4.75" y="-600.5" font-family="Helvetica,sans-Serif" font-size="10.00">std::enable_shared_from_this&lt; WebsocketBase &gt;</text>
<text text-anchor="start" x="112" y="-584.5" font-family="Helvetica,sans-Serif" font-size="10.00"> </text>
<text text-anchor="start" x="112" y="-568.5" font-family="Helvetica,sans-Serif" font-size="10.00"> </text>
<polygon fill="#666666" stroke="#666666" points="0,-596 0,-596 227,-596 227,-596 0,-596"/>
<polygon fill="#666666" stroke="#666666" points="0,-580 0,-580 227,-580 227,-580 0,-580"/>
<polygon fill="none" stroke="#666666" points="0,-562 0,-614 227,-614 227,-562 0,-562"/>
</a>
</g>
</g>
<!-- Node4&#45;&gt;Node3 -->
<g id="edge3_Node000003_Node000004" class="edge">
<title>Node4&#45;&gt;Node3</title>
<g id="a_edge3_Node000003_Node000004"><a xlink:title=" ">
<path fill="none" stroke="#63b8ff" d="M166.13,-556.93C225.5,-523 321.58,-468.1 381.51,-433.85"/>
<polygon fill="none" stroke="#63b8ff" points="164.87,-554.18 157.93,-562.18 168.35,-560.26 164.87,-554.18"/>
</a>
</g>
</g>
<!-- Node5 -->
<g id="Node000005" class="node">
<title>Node5</title>
<g id="a_Node000005"><a xlink:title=" ">
<polygon fill="white" stroke="none" points="626,-620 245,-620 245,-556 626,-556 626,-620"/>
<text text-anchor="start" x="249.88" y="-606.5" font-family="Helvetica,sans-Serif" font-size="10.00">variant&lt; boost::beast::websocket::stream&lt; boost::beast::ssl_stream</text>
<text text-anchor="start" x="249.88" y="-594.5" font-family="Helvetica,sans-Serif" font-size="10.00">&lt; Detail::StreamType &gt; &gt;, boost::beast::websocket::stream&lt; Detail::StreamType &gt; &gt;</text>
<text text-anchor="start" x="434" y="-578.5" font-family="Helvetica,sans-Serif" font-size="10.00"> </text>
<text text-anchor="start" x="434" y="-562.5" font-family="Helvetica,sans-Serif" font-size="10.00"> </text>
<polygon fill="#666666" stroke="#666666" points="245,-590 245,-590 626,-590 626,-590 245,-590"/>
<polygon fill="#666666" stroke="#666666" points="245,-574 245,-574 626,-574 626,-574 245,-574"/>
<polygon fill="none" stroke="#666666" points="245,-556 245,-620 626,-620 626,-556 245,-556"/>
</a>
</g>
</g>
<!-- Node5&#45;&gt;Node3 -->
<g id="edge4_Node000003_Node000005" class="edge">
<title>Node5&#45;&gt;Node3</title>
<g id="a_edge4_Node000003_Node000005"><a xlink:title=" ">
<path fill="none" stroke="#63b8ff" d="M435.5,-556.2C435.5,-545.81 435.5,-533.52 435.5,-520.48"/>
<polygon fill="none" stroke="#63b8ff" points="435.5,-520.7 431.5,-514.7 435.5,-508.7 439.5,-514.7 435.5,-520.7"/>
</a>
</g>
<text text-anchor="middle" x="448.62" y="-528.5" font-family="Helvetica,sans-Serif" font-size="10.00" fill="grey"> #ws_</text>
</g>
<!-- Node6 -->
<g id="Node000006" class="node">
<title>Node6</title>
<g id="a_Node000006"><a xlink:href="structRoar_1_1Detail_1_1SharedFromBase.html" target="_top" xlink:title=" ">
<polygon fill="white" stroke="none" points="752.5,-428 528.5,-428 528.5,-376 752.5,-376 752.5,-428"/>
<text text-anchor="start" x="533.25" y="-414.5" font-family="Helvetica,sans-Serif" font-size="10.00">Roar::Detail::SharedFromBase&lt; Base, Derived &gt;</text>
<text text-anchor="start" x="639" y="-398.5" font-family="Helvetica,sans-Serif" font-size="10.00"> </text>
<text text-anchor="start" x="563.5" y="-382.5" font-family="Helvetica,sans-Serif" font-size="10.00">+</text>
<text text-anchor="start" x="604.5" y="-382.5" font-family="Helvetica,sans-Serif" font-size="10.00">shared_from_this()</text>
<polygon fill="#666666" stroke="#666666" points="528.5,-410 528.5,-410 752.5,-410 752.5,-410 528.5,-410"/>
<polygon fill="#666666" stroke="#666666" points="528.5,-394 528.5,-394 752.5,-394 752.5,-394 528.5,-394"/>
<polygon fill="none" stroke="#666666" points="528.5,-376 528.5,-428 752.5,-428 752.5,-376 528.5,-376"/>
</a>
</g>
</g>
<!-- Node6&#45;&gt;Node2 -->
<g id="edge5_Node000002_Node000006" class="edge">
<title>Node6&#45;&gt;Node2</title>
<g id="a_edge5_Node000002_Node000006"><a xlink:title=" ">
<path fill="none" stroke="orange" d="M622.48,-366.5C604.28,-331.67 576.62,-278.73 560.47,-247.83"/>
<polygon fill="orange" stroke="orange" points="619.84,-368.01 627.57,-375.25 626.04,-364.77 619.84,-368.01"/>
</a>
</g>
<text text-anchor="middle" x="661.75" y="-268.5" font-family="Helvetica,sans-Serif" font-size="10.00" fill="grey"> &lt; WebsocketBase, WebsocketClient &gt;</text>
</g>
<!-- Node7 -->
<g id="Node000007" class="node">
<title>Node7</title>
<g id="a_Node000007"><a xlink:href="classBase.html" target="_top" xlink:title=" ">
<polygon fill="white" stroke="none" points="676.5,-614 644.5,-614 644.5,-562 676.5,-562 676.5,-614"/>
<text text-anchor="start" x="649.25" y="-600.5" font-family="Helvetica,sans-Serif" font-size="10.00">Base</text>
<text text-anchor="start" x="659" y="-584.5" font-family="Helvetica,sans-Serif" font-size="10.00"> </text>
<text text-anchor="start" x="659" y="-568.5" font-family="Helvetica,sans-Serif" font-size="10.00"> </text>
<polygon fill="#666666" stroke="#666666" points="644.5,-596 644.5,-596 676.5,-596 676.5,-596 644.5,-596"/>
<polygon fill="#666666" stroke="#666666" points="644.5,-580 644.5,-580 676.5,-580 676.5,-580 644.5,-580"/>
<polygon fill="none" stroke="#666666" points="644.5,-562 644.5,-614 676.5,-614 676.5,-562 644.5,-562"/>
</a>
</g>
</g>
<!-- Node7&#45;&gt;Node6 -->
<g id="edge6_Node000006_Node000007" class="edge">
<title>Node7&#45;&gt;Node6</title>
<g id="a_edge6_Node000006_Node000007"><a xlink:title=" ">
<path fill="none" stroke="#63b8ff" d="M656.65,-551.57C652.7,-515.21 646.65,-459.58 643.19,-427.72"/>
<polygon fill="none" stroke="#63b8ff" points="653.24,-551.62 657.8,-561.18 660.2,-550.87 653.24,-551.62"/>
</a>
</g>
</g>
<!-- Node8 -->
<g id="Node000008" class="node">
<title>Node8</title>
<g id="a_Node000008"><a xlink:title=" ">
<polygon fill="white" stroke="none" points="768.5,-248 722.5,-248 722.5,-196 768.5,-196 768.5,-248"/>
<text text-anchor="start" x="727.12" y="-234.5" font-family="Helvetica,sans-Serif" font-size="10.00">seconds</text>
<text text-anchor="start" x="744" y="-218.5" font-family="Helvetica,sans-Serif" font-size="10.00"> </text>
<text text-anchor="start" x="744" y="-202.5" font-family="Helvetica,sans-Serif" font-size="10.00"> </text>
<polygon fill="#666666" stroke="#666666" points="722.5,-230 722.5,-230 768.5,-230 768.5,-230 722.5,-230"/>
<polygon fill="#666666" stroke="#666666" points="722.5,-214 722.5,-214 768.5,-214 768.5,-214 722.5,-214"/>
<polygon fill="none" stroke="#666666" points="722.5,-196 722.5,-248 768.5,-248 768.5,-196 722.5,-196"/>
</a>
</g>
</g>
<!-- Node8&#45;&gt;Node1 -->
<g id="edge7_Node000001_Node000008" class="edge">
<title>Node8&#45;&gt;Node1</title>
<g id="a_edge7_Node000001_Node000008"><a xlink:title=" ">
<path fill="none" stroke="#63b8ff" d="M745.5,-196.23C745.5,-186.1 745.5,-173.73 745.5,-160.81"/>
<polygon fill="none" stroke="#63b8ff" points="745.5,-160.66 741.5,-154.66 745.5,-148.66 749.5,-154.66 745.5,-160.66"/>
</a>
</g>
<text text-anchor="middle" x="782.25" y="-168.5" font-family="Helvetica,sans-Serif" font-size="10.00" fill="grey"> +defaultTimeout</text>
</g>
<!-- Node9 -->
<g id="Node000009" class="node">
<title>Node9</title>
<g id="a_Node000009"><a xlink:title=" ">
<polygon fill="white" stroke="none" points="1034,-248 787,-248 787,-196 1034,-196 1034,-248"/>
<text text-anchor="start" x="792" y="-234.5" font-family="Helvetica,sans-Serif" font-size="10.00">unique_ptr&lt; Roar::WebsocketClient::Implementation &gt;</text>
<text text-anchor="start" x="909" y="-218.5" font-family="Helvetica,sans-Serif" font-size="10.00"> </text>
<text text-anchor="start" x="909" y="-202.5" font-family="Helvetica,sans-Serif" font-size="10.00"> </text>
<polygon fill="#666666" stroke="#666666" points="787,-230 787,-230 1034,-230 1034,-230 787,-230"/>
<polygon fill="#666666" stroke="#666666" points="787,-214 787,-214 1034,-214 1034,-214 787,-214"/>
<polygon fill="none" stroke="#666666" points="787,-196 787,-248 1034,-248 1034,-196 787,-196"/>
</a>
</g>
</g>
<!-- Node9&#45;&gt;Node1 -->
<g id="edge8_Node000001_Node000009" class="edge">
<title>Node9&#45;&gt;Node1</title>
<g id="a_edge8_Node000001_Node000009"><a xlink:title=" ">
<path fill="none" stroke="#63b8ff" d="M882.51,-196.23C862.7,-178.7 835.3,-154.46 810.2,-132.25"/>
<polygon fill="none" stroke="#63b8ff" points="810.38,-132.41 803.23,-131.43 801.39,-124.46 808.54,-125.44 810.38,-132.41"/>
</a>
</g>
<text text-anchor="middle" x="876.12" y="-168.5" font-family="Helvetica,sans-Serif" font-size="10.00" fill="grey"> &#45;impl_</text>
</g>
</g>
</svg>
