<?xml version="1.0" encoding="UTF-8" standalone="no"?>
<!DOCTYPE svg PUBLIC "-//W3C//DTD SVG 1.1//EN"
 "http://www.w3.org/Graphics/SVG/1.1/DTD/svg11.dtd">
<!-- Generated by graphviz version 2.44.1 (20211215.1903)
 -->
<!-- Title: RequestListener Pages: 1 -->
<svg width="452pt" height="204pt"
 viewBox="0.00 0.00 451.50 204.00" xmlns="http://www.w3.org/2000/svg" xmlns:xlink="http://www.w3.org/1999/xlink">
<g id="graph0" class="graph" transform="scale(1 1) rotate(0) translate(4 200)">
<title>RequestListener</title>
<!-- Node1 -->
<g id="node1" class="node">
<title>Node1</title>
<g id="a_node1"><a xlink:title=" ">
<polygon fill="#bfbfbf" stroke="black" points="159,-0.5 159,-90.5 305,-90.5 305,-0.5 159,-0.5"/>
<text text-anchor="middle" x="232" y="-78.5" font-family="Helvetica,sans-Serif" font-size="10.00">RequestListener</text>
<polyline fill="none" stroke="black" points="159,-71.5 305,-71.5 "/>
<text text-anchor="middle" x="232" y="-59.5" font-family="Helvetica,sans-Serif" font-size="10.00"> </text>
<polyline fill="none" stroke="black" points="159,-52.5 305,-52.5 "/>
<text text-anchor="start" x="167" y="-40.5" font-family="Helvetica,sans-Serif" font-size="10.00">&#45; ROAR_MAKE_LISTENER()</text>
<text text-anchor="start" x="167" y="-29.5" font-family="Helvetica,sans-Serif" font-size="10.00">&#45; index()</text>
<text text-anchor="start" x="167" y="-18.5" font-family="Helvetica,sans-Serif" font-size="10.00">&#45; upload()</text>
<text text-anchor="start" x="167" y="-7.5" font-family="Helvetica,sans-Serif" font-size="10.00">&#45; ROAR_MAKE_LISTENER()</text>
</a>
</g>
</g>
<!-- Node2 -->
<g id="node2" class="node">
<title>Node2</title>
<g id="a_node2"><a xlink:title=" ">
<polygon fill="none" stroke="black" points="0,-138.5 0,-195.5 234,-195.5 234,-138.5 0,-138.5"/>
<text text-anchor="middle" x="117" y="-183.5" font-family="Helvetica,sans-Serif" font-size="10.00">std::enable_shared_from_this&lt; RequestListener &gt;</text>
<polyline fill="none" stroke="black" points="0,-176.5 234,-176.5 "/>
<text text-anchor="middle" x="117" y="-164.5" font-family="Helvetica,sans-Serif" font-size="10.00"> </text>
<polyline fill="none" stroke="black" points="0,-157.5 234,-157.5 "/>
<text text-anchor="middle" x="117" y="-145.5" font-family="Helvetica,sans-Serif" font-size="10.00"> </text>
</a>
</g>
</g>
<!-- Node2&#45;&gt;Node1 -->
<g id="edge1" class="edge">
<title>Node2&#45;&gt;Node1</title>
<path fill="none" stroke="midnightblue" d="M150.91,-130.76C162.93,-118.27 176.61,-104.06 189.26,-90.91"/>
<polygon fill="none" stroke="midnightblue" points="148.08,-128.65 143.67,-138.28 153.13,-133.51 148.08,-128.65"/>
</g>
<!-- Node3 -->
<g id="node3" class="node">
<title>Node3</title>
<g id="a_node3"><a xlink:title=" ">
<polygon fill="none" stroke="black" points="252.5,-138.5 252.5,-195.5 443.5,-195.5 443.5,-138.5 252.5,-138.5"/>
<text text-anchor="middle" x="348" y="-183.5" font-family="Helvetica,sans-Serif" font-size="10.00">shared_ptr&lt; Roar::WebsocketSession &gt;</text>
<polyline fill="none" stroke="black" points="252.5,-176.5 443.5,-176.5 "/>
<text text-anchor="middle" x="348" y="-164.5" font-family="Helvetica,sans-Serif" font-size="10.00"> </text>
<polyline fill="none" stroke="black" points="252.5,-157.5 443.5,-157.5 "/>
<text text-anchor="middle" x="348" y="-145.5" font-family="Helvetica,sans-Serif" font-size="10.00"> </text>
</a>
</g>
</g>
<!-- Node3&#45;&gt;Node1 -->
<g id="edge2" class="edge">
<title>Node3&#45;&gt;Node1</title>
<path fill="none" stroke="#404040" d="M321.1,-138.28C309.9,-126.75 296.5,-112.95 283.54,-99.59"/>
<polygon fill="none" stroke="#404040" points="283.47,-99.52 276.42,-98 275.11,-90.91 282.16,-92.43 283.47,-99.52"/>
<text text-anchor="middle" x="313.5" y="-112" font-family="Helvetica,sans-Serif" font-size="10.00"> &#45;ws_</text>
</g>
</g>
</svg>
