<?xml version="1.0" encoding="UTF-8" standalone="no"?>
<!DOCTYPE svg PUBLIC "-//W3C//DTD SVG 1.1//EN"
 "http://www.w3.org/Graphics/SVG/1.1/DTD/svg11.dtd">
<!-- Generated by graphviz version 8.1.0 (0)
 -->
<!-- Title: include/roar/mechanics/cookie.hpp Pages: 1 -->
<svg width="485pt" height="140pt"
 viewBox="0.00 0.00 484.50 140.00" xmlns="http://www.w3.org/2000/svg" xmlns:xlink="http://www.w3.org/1999/xlink">

<svg id="main" version="1.1" xmlns="http://www.w3.org/2000/svg" xmlns:xlink="http://www.w3.org/1999/xlink" xml:space="preserve" onload="init(evt)">
<style type="text/css"><![CDATA[
.node, .edge {opacity: 0.7;}
.node.selected, .edge.selected {opacity: 1;}
.edge:hover path { stroke: red; }
.edge:hover polygon { stroke: red; fill: red; }
]]></style>
<script type="application/ecmascript" xlink:href="svg.min.js"/>
<svg id="graph" class="graph">
<g id="graph0" class="graph" transform="scale(1 1) rotate(0) translate(4 136)">
<title>include/roar/mechanics/cookie.hpp</title>
<!-- Node1 -->
<g id="Node000001" class="node">
<title>Node1</title>
<g id="a_Node000001"><a xlink:title=" ">
<polygon fill="#999999" stroke="#666666" points="340.38,-132 173.62,-132 173.62,-112 340.38,-112 340.38,-132"/>
<text text-anchor="middle" x="257" y="-118.5" font-family="Helvetica,sans-Serif" font-size="10.00">include/roar/mechanics/cookie.hpp</text>
</a>
</g>
</g>
<!-- Node2 -->
<g id="Node000002" class="node">
<title>Node2</title>
<g id="a_Node000002"><a xlink:href="date_8hpp.html" target="_top" xlink:title=" ">
<polygon fill="white" stroke="#666666" points="138.62,-76 39.38,-76 39.38,-56 138.62,-56 138.62,-76"/>
<text text-anchor="middle" x="89" y="-62.5" font-family="Helvetica,sans-Serif" font-size="10.00">roar/utility/date.hpp</text>
</a>
</g>
</g>
<!-- Node1&#45;&gt;Node2 -->
<g id="edge1_Node000001_Node000002" class="edge">
<title>Node1&#45;&gt;Node2</title>
<g id="a_edge1_Node000001_Node000002"><a xlink:title=" ">
<path fill="none" stroke="#63b8ff" d="M227.74,-111.59C200.32,-102.78 159.13,-89.54 128.75,-79.78"/>
<polygon fill="#63b8ff" stroke="#63b8ff" points="130.08,-76.21 119.49,-76.48 127.94,-82.87 130.08,-76.21"/>
</a>
</g>
</g>
<!-- Node3 -->
<g id="Node000003" class="node">
<title>Node3</title>
<g id="a_Node000003"><a xlink:title=" ">
<polygon fill="#e0e0e0" stroke="#999999" points="40,-20 0,-20 0,0 40,0 40,-20"/>
<text text-anchor="middle" x="20" y="-6.5" font-family="Helvetica,sans-Serif" font-size="10.00">string</text>
</a>
</g>
</g>
<!-- Node1&#45;&gt;Node3 -->
<g id="edge5_Node000001_Node000003" class="edge">
<title>Node1&#45;&gt;Node3</title>
<g id="a_edge5_Node000001_Node000003"><a xlink:title=" ">
<path fill="none" stroke="#63b8ff" d="M173.19,-114.37C116.94,-108.11 49.66,-96.53 30,-76 18.77,-64.28 16.93,-45.52 17.51,-31.17"/>
<polygon fill="#63b8ff" stroke="#63b8ff" points="21.07,-31.65 18.42,-21.39 14.09,-31.06 21.07,-31.65"/>
</a>
</g>
</g>
<!-- Node5 -->
<g id="Node000005" class="node">
<title>Node5</title>
<g id="a_Node000005"><a xlink:title=" ">
<polygon fill="#e0e0e0" stroke="#999999" points="251.75,-76 156.25,-76 156.25,-56 251.75,-56 251.75,-76"/>
<text text-anchor="middle" x="204" y="-62.5" font-family="Helvetica,sans-Serif" font-size="10.00">boost/optional.hpp</text>
</a>
</g>
</g>
<!-- Node1&#45;&gt;Node5 -->
<g id="edge4_Node000001_Node000005" class="edge">
<title>Node1&#45;&gt;Node5</title>
<g id="a_edge4_Node000001_Node000005"><a xlink:title=" ">
<path fill="none" stroke="#63b8ff" d="M247.77,-111.59C240.32,-104.01 229.65,-93.13 220.71,-84.02"/>
<polygon fill="#63b8ff" stroke="#63b8ff" points="223.63,-81.98 214.13,-77.3 218.63,-86.89 223.63,-81.98"/>
</a>
</g>
</g>
<!-- Node6 -->
<g id="Node000006" class="node">
<title>Node6</title>
<g id="a_Node000006"><a xlink:title=" ">
<polygon fill="#e0e0e0" stroke="#999999" points="352.38,-76 269.62,-76 269.62,-56 352.38,-56 352.38,-76"/>
<text text-anchor="middle" x="311" y="-62.5" font-family="Helvetica,sans-Serif" font-size="10.00">unordered_map</text>
</a>
</g>
</g>
<!-- Node1&#45;&gt;Node6 -->
<g id="edge6_Node000001_Node000006" class="edge">
<title>Node1&#45;&gt;Node6</title>
<g id="a_edge6_Node000001_Node000006"><a xlink:title=" ">
<path fill="none" stroke="#63b8ff" d="M266.41,-111.59C273.99,-104.01 284.87,-93.13 293.98,-84.02"/>
<polygon fill="#63b8ff" stroke="#63b8ff" points="296.11,-86.84 300.7,-77.3 291.16,-81.89 296.11,-86.84"/>
</a>
</g>
</g>
<!-- Node7 -->
<g id="Node000007" class="node">
<title>Node7</title>
<g id="a_Node000007"><a xlink:title=" ">
<polygon fill="#e0e0e0" stroke="#999999" points="415.62,-76 370.38,-76 370.38,-56 415.62,-56 415.62,-76"/>
<text text-anchor="middle" x="393" y="-62.5" font-family="Helvetica,sans-Serif" font-size="10.00">cstdint</text>
</a>
</g>
</g>
<!-- Node1&#45;&gt;Node7 -->
<g id="edge7_Node000001_Node000007" class="edge">
<title>Node1&#45;&gt;Node7</title>
<g id="a_edge7_Node000001_Node000007"><a xlink:title=" ">
<path fill="none" stroke="#63b8ff" d="M280.69,-111.59C302.66,-102.87 335.57,-89.8 360.1,-80.06"/>
<polygon fill="#63b8ff" stroke="#63b8ff" points="361.03,-83.06 369.04,-76.12 358.45,-76.56 361.03,-83.06"/>
</a>
</g>
</g>
<!-- Node8 -->
<g id="Node000008" class="node">
<title>Node8</title>
<g id="a_Node000008"><a xlink:title=" ">
<polygon fill="#e0e0e0" stroke="#999999" points="476.5,-76 433.5,-76 433.5,-56 476.5,-56 476.5,-76"/>
<text text-anchor="middle" x="455" y="-62.5" font-family="Helvetica,sans-Serif" font-size="10.00">vector</text>
</a>
</g>
</g>
<!-- Node1&#45;&gt;Node8 -->
<g id="edge8_Node000001_Node000008" class="edge">
<title>Node1&#45;&gt;Node8</title>
<g id="a_edge8_Node000001_Node000008"><a xlink:title=" ">
<path fill="none" stroke="#63b8ff" d="M293.46,-111.57C325.35,-103.24 373.17,-90.59 422.79,-76.58"/>
<polygon fill="#63b8ff" stroke="#63b8ff" points="423.4,-79.76 432.07,-73.66 421.49,-73.02 423.4,-79.76"/>
</a>
</g>
</g>
<!-- Node2&#45;&gt;Node3 -->
<g id="edge2_Node000002_Node000003" class="edge">
<title>Node2&#45;&gt;Node3</title>
<g id="a_edge2_Node000002_Node000003"><a xlink:title=" ">
<path fill="none" stroke="#63b8ff" d="M76.98,-55.59C66.89,-47.7 52.25,-36.24 40.34,-26.92"/>
<polygon fill="#63b8ff" stroke="#63b8ff" points="42.91,-23.71 32.88,-20.3 38.6,-29.22 42.91,-23.71"/>
</a>
</g>
</g>
<!-- Node4 -->
<g id="Node000004" class="node">
<title>Node4</title>
<g id="a_Node000004"><a xlink:title=" ">
<polygon fill="#e0e0e0" stroke="#999999" points="111.62,-20 66.38,-20 66.38,0 111.62,0 111.62,-20"/>
<text text-anchor="middle" x="89" y="-6.5" font-family="Helvetica,sans-Serif" font-size="10.00">chrono</text>
</a>
</g>
</g>
<!-- Node2&#45;&gt;Node4 -->
<g id="edge3_Node000002_Node000004" class="edge">
<title>Node2&#45;&gt;Node4</title>
<g id="a_edge3_Node000002_Node000004"><a xlink:title=" ">
<path fill="none" stroke="#63b8ff" d="M89,-55.59C89,-48.86 89,-39.53 89,-31.15"/>
<polygon fill="#63b8ff" stroke="#63b8ff" points="92.5,-31.3 89,-21.3 85.5,-31.3 92.5,-31.3"/>
</a>
</g>
</g>
</g>
</svg>
</svg>

<style type='text/css'>
<![CDATA[
[data-mouse-over-selected='false'] { opacity: 0.7; }
[data-mouse-over-selected='true']  { opacity: 1.0; }
]]>
</style>
<script type="application/ecmascript"><![CDATA[
document.addEventListener('DOMContentLoaded', (event) => {
  highlightEdges();
  highlightAdjacentNodes();
});
]]></script>
</svg>
