<?xml version="1.0" encoding="UTF-8" standalone="no"?>
<!DOCTYPE svg PUBLIC "-//W3C//DTD SVG 1.1//EN"
 "http://www.w3.org/Graphics/SVG/1.1/DTD/svg11.dtd">
<!-- Generated by graphviz version 2.44.1 (20211215.1903)
 -->
<!-- Title: include/roar/cors.hpp Pages: 1 -->
<!--zoomable 308 -->
<svg id="main" version="1.1" xmlns="http://www.w3.org/2000/svg" xmlns:xlink="http://www.w3.org/1999/xlink" xml:space="preserve" onload="init(evt)">
<style type="text/css"><![CDATA[
.edge:hover path { stroke: red; }
.edge:hover polygon { stroke: red; fill: red; }
]]></style>
<script type="text/javascript"><![CDATA[
var edges = document.getElementsByTagName('g');
if (edges && edges.length) {
  for (var i=0;i<edges.length;i++) {
    if (edges[i].id.substr(0,4)=='edge') {
      edges[i].setAttribute('class','edge');
    }
  }
}
]]></script>
        <defs>
                <circle id="rim" cx="0" cy="0" r="7"/>
                <circle id="rim2" cx="0" cy="0" r="3.5"/>
                <g id="zoomPlus">
                        <use xlink:href="#rim" fill="#404040">
                                <set attributeName="fill" to="#808080" begin="zoomplus.mouseover" end="zoomplus.mouseout"/>
                        </use>
                        <path d="M-4,0h8M0,-4v8" fill="none" stroke="white" stroke-width="1.5" pointer-events="none"/>
                </g>
                <g id="zoomMin">
                        <use xlink:href="#rim" fill="#404040">
                                <set attributeName="fill" to="#808080" begin="zoomminus.mouseover" end="zoomminus.mouseout"/>
                        </use>
                        <path d="M-4,0h8" fill="none" stroke="white" stroke-width="1.5" pointer-events="none"/>
                </g>
                <g id="dirArrow">
                        <path fill="none" stroke="white" stroke-width="1.5" d="M0,-3.0v7 M-2.5,-0.5L0,-3.0L2.5,-0.5"/>
                </g>
               <g id="resetDef">
                       <use xlink:href="#rim2" fill="#404040">
                               <set attributeName="fill" to="#808080" begin="reset.mouseover" end="reset.mouseout"/>
                       </use>
               </g>
        </defs>

<script type="text/javascript">
var viewWidth = 1776;
var viewHeight = 308;
var sectionId = 'dynsection-1';
</script>
<script xlink:href="svgpan.js"/>
<svg id="graph" class="graph">
<g id="viewport">
<title>include/roar/cors.hpp</title>
<!-- Node1 -->
<g id="node1" class="node">
<title>Node1</title>
<g id="a_node1"><a xlink:title=" ">
<polygon fill="#bfbfbf" stroke="black" points="441.38,-280.5 441.38,-299.5 548.38,-299.5 548.38,-280.5 441.38,-280.5"/>
<text text-anchor="middle" x="494.88" y="-287.5" font-family="Helvetica,sans-Serif" font-size="10.00">include/roar/cors.hpp</text>
</a>
</g>
</g>
<!-- Node2 -->
<g id="node2" class="node">
<title>Node2</title>
<g id="a_node2"><a xlink:href="response_8hpp.html" target="_top" xlink:title=" ">
<polygon fill="none" stroke="black" points="347.88,-224.5 347.88,-243.5 475.88,-243.5 475.88,-224.5 347.88,-224.5"/>
<text text-anchor="middle" x="411.88" y="-231.5" font-family="Helvetica,sans-Serif" font-size="10.00">include/roar/response.hpp</text>
</a>
</g>
</g>
<!-- Node1&#45;&gt;Node2 -->
<g id="edge1" class="edge">
<title>Node1&#45;&gt;Node2</title>
<path fill="none" stroke="midnightblue" d="M472.78,-274.62C457.62,-264.76 438,-251.99 425.18,-243.65"/>
<polygon fill="midnightblue" stroke="midnightblue" points="471.25,-277.8 481.54,-280.32 475.07,-271.94 471.25,-277.8"/>
</g>
<!-- Node23 -->
<g id="node23" class="node">
<title>Node23</title>
<g id="a_node23"><a xlink:href="proto__route_8hpp.html" target="_top" xlink:title=" ">
<polygon fill="none" stroke="black" points="493.88,-224.5 493.88,-243.5 663.88,-243.5 663.88,-224.5 493.88,-224.5"/>
<text text-anchor="middle" x="578.88" y="-231.5" font-family="Helvetica,sans-Serif" font-size="10.00">include/roar/routing/proto_route.hpp</text>
</a>
</g>
</g>
<!-- Node1&#45;&gt;Node23 -->
<g id="edge31" class="edge">
<title>Node1&#45;&gt;Node23</title>
<path fill="none" stroke="midnightblue" d="M516.81,-274.9C532.22,-265 552.33,-252.07 565.42,-243.65"/>
<polygon fill="midnightblue" stroke="midnightblue" points="514.9,-271.97 508.38,-280.32 518.68,-277.86 514.9,-271.97"/>
</g>
<!-- Node3 -->
<g id="node3" class="node">
<title>Node3</title>
<g id="a_node3"><a xlink:href="session_8hpp.html" target="_top" xlink:title=" ">
<polygon fill="none" stroke="black" points="416.38,-168.5 416.38,-187.5 575.38,-187.5 575.38,-168.5 416.38,-168.5"/>
<text text-anchor="middle" x="495.88" y="-175.5" font-family="Helvetica,sans-Serif" font-size="10.00">include/roar/session/session.hpp</text>
</a>
</g>
</g>
<!-- Node2&#45;&gt;Node3 -->
<g id="edge2" class="edge">
<title>Node2&#45;&gt;Node3</title>
<path fill="none" stroke="midnightblue" d="M433.81,-218.9C449.22,-209 469.33,-196.07 482.42,-187.65"/>
<polygon fill="midnightblue" stroke="midnightblue" points="431.9,-215.97 425.38,-224.32 435.68,-221.86 431.9,-215.97"/>
</g>
<!-- Node4 -->
<g id="node4" class="node">
<title>Node4</title>
<g id="a_node4"><a xlink:href="include_2roar_2routing_2request__listener_8hpp.html" target="_top" xlink:title=" ">
<polygon fill="none" stroke="black" points="776.88,-112.5 776.88,-131.5 966.88,-131.5 966.88,-112.5 776.88,-112.5"/>
<text text-anchor="middle" x="871.88" y="-119.5" font-family="Helvetica,sans-Serif" font-size="10.00">include/roar/routing/request_listener.hpp</text>
</a>
</g>
</g>
<!-- Node3&#45;&gt;Node4 -->
<g id="edge3" class="edge">
<title>Node3&#45;&gt;Node4</title>
<path fill="none" stroke="midnightblue" d="M565.65,-166.98C636.68,-156.78 745.59,-141.14 812.58,-131.52"/>
<polygon fill="midnightblue" stroke="midnightblue" points="564.86,-163.56 555.46,-168.44 565.85,-170.49 564.86,-163.56"/>
</g>
<!-- Node15 -->
<g id="node15" class="node">
<title>Node15</title>
<g id="a_node15"><a xlink:href="server_8hpp.html" target="_top" xlink:title=" ">
<polygon fill="none" stroke="black" points="650.88,-56.5 650.88,-75.5 766.88,-75.5 766.88,-56.5 650.88,-56.5"/>
<text text-anchor="middle" x="708.88" y="-63.5" font-family="Helvetica,sans-Serif" font-size="10.00">include/roar/server.hpp</text>
</a>
</g>
</g>
<!-- Node3&#45;&gt;Node15 -->
<g id="edge25" class="edge">
<title>Node3&#45;&gt;Node15</title>
<path fill="none" stroke="midnightblue" d="M502.31,-158.78C508.44,-144.01 519.1,-123.79 534.88,-112 568.37,-86.97 614.48,-75.82 650.81,-70.87"/>
<polygon fill="midnightblue" stroke="midnightblue" points="498.95,-157.77 498.64,-168.36 505.48,-160.28 498.95,-157.77"/>
</g>
<!-- Node18 -->
<g id="node18" class="node">
<title>Node18</title>
<g id="a_node18"><a xlink:href="server_8cpp.html" target="_top" xlink:title=" ">
<polygon fill="none" stroke="black" points="84.88,-0.5 84.88,-19.5 182.88,-19.5 182.88,-0.5 84.88,-0.5"/>
<text text-anchor="middle" x="133.88" y="-7.5" font-family="Helvetica,sans-Serif" font-size="10.00">src/roar/server.cpp</text>
</a>
</g>
</g>
<!-- Node3&#45;&gt;Node18 -->
<g id="edge28" class="edge">
<title>Node3&#45;&gt;Node18</title>
<path fill="none" stroke="midnightblue" d="M489.3,-158.98C483.07,-144.34 472.36,-124.18 456.88,-112 411.92,-76.62 248.44,-36.62 172.78,-19.5"/>
<polygon fill="midnightblue" stroke="midnightblue" points="486.12,-160.46 493.04,-168.47 492.63,-157.89 486.12,-160.46"/>
</g>
<!-- Node19 -->
<g id="node19" class="node">
<title>Node19</title>
<g id="a_node19"><a xlink:href="route_8cpp.html" target="_top" xlink:title=" ">
<polygon fill="none" stroke="black" points="323.38,-112.5 323.38,-131.5 448.38,-131.5 448.38,-112.5 323.38,-112.5"/>
<text text-anchor="middle" x="385.88" y="-119.5" font-family="Helvetica,sans-Serif" font-size="10.00">src/roar/routing/route.cpp</text>
</a>
</g>
</g>
<!-- Node3&#45;&gt;Node19 -->
<g id="edge26" class="edge">
<title>Node3&#45;&gt;Node19</title>
<path fill="none" stroke="midnightblue" d="M469.12,-163.86C448.72,-153.85 421.21,-140.35 403.51,-131.65"/>
<polygon fill="midnightblue" stroke="midnightblue" points="467.69,-167.06 478.21,-168.32 470.77,-160.78 467.69,-167.06"/>
</g>
<!-- Node20 -->
<g id="node20" class="node">
<title>Node20</title>
<g id="a_node20"><a xlink:href="router_8cpp.html" target="_top" xlink:title=" ">
<polygon fill="none" stroke="black" points="16.88,-112.5 16.88,-131.5 144.88,-131.5 144.88,-112.5 16.88,-112.5"/>
<text text-anchor="middle" x="80.88" y="-119.5" font-family="Helvetica,sans-Serif" font-size="10.00">src/roar/routing/router.cpp</text>
</a>
</g>
</g>
<!-- Node3&#45;&gt;Node20 -->
<g id="edge27" class="edge">
<title>Node3&#45;&gt;Node20</title>
<path fill="none" stroke="midnightblue" d="M419.77,-167.1C340.92,-156.84 219.06,-140.98 144.97,-131.34"/>
<polygon fill="midnightblue" stroke="midnightblue" points="419.75,-170.62 430.12,-168.44 420.66,-163.68 419.75,-170.62"/>
</g>
<!-- Node21 -->
<g id="node21" class="node">
<title>Node21</title>
<g id="a_node21"><a xlink:href="factory_8cpp.html" target="_top" xlink:title=" ">
<polygon fill="none" stroke="black" points="543.38,-112.5 543.38,-131.5 680.38,-131.5 680.38,-112.5 543.38,-112.5"/>
<text text-anchor="middle" x="611.88" y="-119.5" font-family="Helvetica,sans-Serif" font-size="10.00">src/roar/session/factory.cpp</text>
</a>
</g>
</g>
<!-- Node3&#45;&gt;Node21 -->
<g id="edge29" class="edge">
<title>Node3&#45;&gt;Node21</title>
<path fill="none" stroke="midnightblue" d="M523.6,-164.1C545.27,-154.01 574.78,-140.27 593.59,-131.52"/>
<polygon fill="midnightblue" stroke="midnightblue" points="521.85,-161.05 514.26,-168.44 524.8,-167.4 521.85,-161.05"/>
</g>
<!-- Node22 -->
<g id="node22" class="node">
<title>Node22</title>
<g id="a_node22"><a xlink:href="session_8cpp.html" target="_top" xlink:title=" ">
<polygon fill="none" stroke="black" points="162.88,-112.5 162.88,-131.5 304.88,-131.5 304.88,-112.5 162.88,-112.5"/>
<text text-anchor="middle" x="233.88" y="-119.5" font-family="Helvetica,sans-Serif" font-size="10.00">src/roar/session/session.cpp</text>
</a>
</g>
</g>
<!-- Node3&#45;&gt;Node22 -->
<g id="edge30" class="edge">
<title>Node3&#45;&gt;Node22</title>
<path fill="none" stroke="midnightblue" d="M444.5,-166.41C394.98,-156.2 321.02,-140.96 275.2,-131.52"/>
<polygon fill="midnightblue" stroke="midnightblue" points="443.86,-169.85 454.37,-168.44 445.28,-163 443.86,-169.85"/>
</g>
<!-- Node5 -->
<g id="node5" class="node">
<title>Node5</title>
<g id="a_node5"><a xlink:href="100__continue_2main_8cpp.html" target="_top" xlink:title=" ">
<polygon fill="none" stroke="black" points="1377.88,-0.5 1377.88,-19.5 1539.88,-19.5 1539.88,-0.5 1377.88,-0.5"/>
<text text-anchor="middle" x="1458.88" y="-7.5" font-family="Helvetica,sans-Serif" font-size="10.00">examples/100_continue/main.cpp</text>
</a>
</g>
</g>
<!-- Node4&#45;&gt;Node5 -->
<g id="edge4" class="edge">
<title>Node4&#45;&gt;Node5</title>
<path fill="none" stroke="midnightblue" d="M977.3,-115.92C1059.48,-110.36 1176.02,-98.97 1275.88,-76 1307.59,-68.71 1395.5,-35.47 1436.85,-19.55"/>
<polygon fill="midnightblue" stroke="midnightblue" points="976.95,-112.43 967.2,-116.58 977.41,-119.42 976.95,-112.43"/>
</g>
<!-- Node6 -->
<g id="node6" class="node">
<title>Node6</title>
<g id="a_node6"><a xlink:href="examples_2100__continue_2request__listener_8hpp.html" target="_top" xlink:title=" ">
<polygon fill="none" stroke="black" points="1353.88,-56.5 1353.88,-75.5 1563.88,-75.5 1563.88,-56.5 1353.88,-56.5"/>
<text text-anchor="middle" x="1458.88" y="-63.5" font-family="Helvetica,sans-Serif" font-size="10.00">examples/100_continue/request_listener.hpp</text>
</a>
</g>
</g>
<!-- Node4&#45;&gt;Node6 -->
<g id="edge5" class="edge">
<title>Node4&#45;&gt;Node6</title>
<path fill="none" stroke="midnightblue" d="M974.74,-111.54C1085.36,-101.36 1259.68,-85.33 1366.19,-75.53"/>
<polygon fill="midnightblue" stroke="midnightblue" points="974.21,-108.07 964.57,-112.47 974.85,-115.04 974.21,-108.07"/>
</g>
<!-- Node8 -->
<g id="node8" class="node">
<title>Node8</title>
<g id="a_node8"><a xlink:href="request__listener_2main_8cpp.html" target="_top" xlink:title=" ">
<polygon fill="none" stroke="black" points="785.38,-56.5 785.38,-75.5 958.38,-75.5 958.38,-56.5 785.38,-56.5"/>
<text text-anchor="middle" x="871.88" y="-63.5" font-family="Helvetica,sans-Serif" font-size="10.00">examples/request_listener/main.cpp</text>
</a>
</g>
</g>
<!-- Node4&#45;&gt;Node8 -->
<g id="edge8" class="edge">
<title>Node4&#45;&gt;Node8</title>
<path fill="none" stroke="midnightblue" d="M871.88,-101.8C871.88,-92.91 871.88,-82.78 871.88,-75.75"/>
<polygon fill="midnightblue" stroke="midnightblue" points="868.38,-102.08 871.88,-112.08 875.38,-102.08 868.38,-102.08"/>
</g>
<!-- Node9 -->
<g id="node9" class="node">
<title>Node9</title>
<g id="a_node9"><a xlink:href="simple__server_2main_8cpp.html" target="_top" xlink:title=" ">
<polygon fill="none" stroke="black" points="963.38,-0.5 963.38,-19.5 1128.38,-19.5 1128.38,-0.5 963.38,-0.5"/>
<text text-anchor="middle" x="1045.88" y="-7.5" font-family="Helvetica,sans-Serif" font-size="10.00">examples/simple_server/main.cpp</text>
</a>
</g>
</g>
<!-- Node4&#45;&gt;Node9 -->
<g id="edge9" class="edge">
<title>Node4&#45;&gt;Node9</title>
<path fill="none" stroke="midnightblue" d="M912.88,-109.23C935.04,-101.74 962.22,-90.68 983.88,-76 1007.64,-59.9 1029.27,-33.37 1039.56,-19.71"/>
<polygon fill="midnightblue" stroke="midnightblue" points="911.52,-105.99 903.09,-112.42 913.68,-112.65 911.52,-105.99"/>
</g>
<!-- Node10 -->
<g id="node10" class="node">
<title>Node10</title>
<g id="a_node10"><a xlink:href="examples_2simple__server_2request__listener_8hpp.html" target="_top" xlink:title=" ">
<polygon fill="none" stroke="black" points="1053.38,-56.5 1053.38,-75.5 1266.38,-75.5 1266.38,-56.5 1053.38,-56.5"/>
<text text-anchor="middle" x="1159.88" y="-63.5" font-family="Helvetica,sans-Serif" font-size="10.00">examples/simple_server/request_listener.hpp</text>
</a>
</g>
</g>
<!-- Node4&#45;&gt;Node10 -->
<g id="edge10" class="edge">
<title>Node4&#45;&gt;Node10</title>
<path fill="none" stroke="midnightblue" d="M927.68,-110.54C982.11,-100.33 1063.88,-85 1114.46,-75.52"/>
<polygon fill="midnightblue" stroke="midnightblue" points="926.7,-107.16 917.51,-112.44 927.99,-114.04 926.7,-107.16"/>
</g>
<!-- Node12 -->
<g id="node12" class="node">
<title>Node12</title>
<g id="a_node12"><a xlink:href="websocket_2main_8cpp.html" target="_top" xlink:title=" ">
<polygon fill="none" stroke="black" points="418.88,-0.5 418.88,-19.5 570.88,-19.5 570.88,-0.5 418.88,-0.5"/>
<text text-anchor="middle" x="494.88" y="-7.5" font-family="Helvetica,sans-Serif" font-size="10.00">examples/websocket/main.cpp</text>
</a>
</g>
</g>
<!-- Node4&#45;&gt;Node12 -->
<g id="edge13" class="edge">
<title>Node4&#45;&gt;Node12</title>
<path fill="none" stroke="midnightblue" d="M790.32,-110.96C745.64,-104 689.78,-92.88 641.88,-76 623.88,-69.66 621.16,-64.09 603.88,-56 574.4,-42.19 539.49,-28.18 517.27,-19.54"/>
<polygon fill="midnightblue" stroke="midnightblue" points="789.84,-114.43 800.25,-112.47 790.89,-107.51 789.84,-114.43"/>
</g>
<!-- Node13 -->
<g id="node13" class="node">
<title>Node13</title>
<g id="a_node13"><a xlink:href="examples_2websocket_2request__listener_8hpp.html" target="_top" xlink:title=" ">
<polygon fill="none" stroke="black" points="394.88,-56.5 394.88,-75.5 594.88,-75.5 594.88,-56.5 394.88,-56.5"/>
<text text-anchor="middle" x="494.88" y="-63.5" font-family="Helvetica,sans-Serif" font-size="10.00">examples/websocket/request_listener.hpp</text>
</a>
</g>
</g>
<!-- Node4&#45;&gt;Node13 -->
<g id="edge14" class="edge">
<title>Node4&#45;&gt;Node13</title>
<path fill="none" stroke="midnightblue" d="M801.92,-110.98C730.71,-100.78 621.5,-85.14 554.34,-75.52"/>
<polygon fill="midnightblue" stroke="midnightblue" points="801.75,-114.49 812.14,-112.44 802.74,-107.56 801.75,-114.49"/>
</g>
<!-- Node4&#45;&gt;Node15 -->
<g id="edge17" class="edge">
<title>Node4&#45;&gt;Node15</title>
<path fill="none" stroke="midnightblue" d="M836.18,-109.17C805.48,-99 761.96,-84.59 734.59,-75.52"/>
<polygon fill="midnightblue" stroke="midnightblue" points="835.46,-112.62 846.05,-112.44 837.66,-105.98 835.46,-112.62"/>
</g>
<!-- Node17 -->
<g id="node17" class="node">
<title>Node17</title>
<g id="a_node17"><a xlink:href="src_2roar_2routing_2request__listener_8cpp.html" target="_top" xlink:title=" ">
<polygon fill="none" stroke="black" points="772.38,-0.5 772.38,-19.5 945.38,-19.5 945.38,-0.5 772.38,-0.5"/>
<text text-anchor="middle" x="858.88" y="-7.5" font-family="Helvetica,sans-Serif" font-size="10.00">src/roar/routing/request_listener.cpp</text>
</a>
</g>
</g>
<!-- Node4&#45;&gt;Node17 -->
<g id="edge24" class="edge">
<title>Node4&#45;&gt;Node17</title>
<path fill="none" stroke="midnightblue" d="M917.16,-109.41C949.48,-98.77 984.51,-80.86 967.88,-56 955.07,-36.86 932.47,-25.85 911.16,-19.52"/>
<polygon fill="midnightblue" stroke="midnightblue" points="915.79,-106.17 907.28,-112.48 917.86,-112.86 915.79,-106.17"/>
</g>
<!-- Node6&#45;&gt;Node5 -->
<g id="edge6" class="edge">
<title>Node6&#45;&gt;Node5</title>
<path fill="none" stroke="midnightblue" d="M1458.88,-45.8C1458.88,-36.91 1458.88,-26.78 1458.88,-19.75"/>
<polygon fill="midnightblue" stroke="midnightblue" points="1455.38,-46.08 1458.88,-56.08 1462.38,-46.08 1455.38,-46.08"/>
</g>
<!-- Node7 -->
<g id="node7" class="node">
<title>Node7</title>
<g id="a_node7"><a xlink:href="examples_2100__continue_2request__listener_8cpp.html" target="_top" xlink:title=" ">
<polygon fill="none" stroke="black" points="1557.88,-0.5 1557.88,-19.5 1767.88,-19.5 1767.88,-0.5 1557.88,-0.5"/>
<text text-anchor="middle" x="1662.88" y="-7.5" font-family="Helvetica,sans-Serif" font-size="10.00">examples/100_continue/request_listener.cpp</text>
</a>
</g>
</g>
<!-- Node6&#45;&gt;Node7 -->
<g id="edge7" class="edge">
<title>Node6&#45;&gt;Node7</title>
<path fill="none" stroke="midnightblue" d="M1501.08,-53.83C1539.6,-43.63 1595.7,-28.78 1630.71,-19.52"/>
<polygon fill="midnightblue" stroke="midnightblue" points="1499.98,-50.5 1491.2,-56.44 1501.77,-57.27 1499.98,-50.5"/>
</g>
<!-- Node10&#45;&gt;Node9 -->
<g id="edge11" class="edge">
<title>Node10&#45;&gt;Node9</title>
<path fill="none" stroke="midnightblue" d="M1132.64,-52.1C1111.34,-42.01 1082.34,-28.27 1063.86,-19.52"/>
<polygon fill="midnightblue" stroke="midnightblue" points="1131.28,-55.33 1141.82,-56.44 1134.28,-49 1131.28,-55.33"/>
</g>
<!-- Node11 -->
<g id="node11" class="node">
<title>Node11</title>
<g id="a_node11"><a xlink:href="examples_2simple__server_2request__listener_8cpp.html" target="_top" xlink:title=" ">
<polygon fill="none" stroke="black" points="1146.38,-0.5 1146.38,-19.5 1359.38,-19.5 1359.38,-0.5 1146.38,-0.5"/>
<text text-anchor="middle" x="1252.88" y="-7.5" font-family="Helvetica,sans-Serif" font-size="10.00">examples/simple_server/request_listener.cpp</text>
</a>
</g>
</g>
<!-- Node10&#45;&gt;Node11 -->
<g id="edge12" class="edge">
<title>Node10&#45;&gt;Node11</title>
<path fill="none" stroke="midnightblue" d="M1183.69,-51.18C1200.8,-41.24 1223.35,-28.15 1237.98,-19.65"/>
<polygon fill="midnightblue" stroke="midnightblue" points="1181.71,-48.28 1174.82,-56.32 1185.23,-54.33 1181.71,-48.28"/>
</g>
<!-- Node13&#45;&gt;Node12 -->
<g id="edge15" class="edge">
<title>Node13&#45;&gt;Node12</title>
<path fill="none" stroke="midnightblue" d="M494.88,-45.8C494.88,-36.91 494.88,-26.78 494.88,-19.75"/>
<polygon fill="midnightblue" stroke="midnightblue" points="491.38,-46.08 494.88,-56.08 498.38,-46.08 491.38,-46.08"/>
</g>
<!-- Node14 -->
<g id="node14" class="node">
<title>Node14</title>
<g id="a_node14"><a xlink:href="examples_2websocket_2request__listener_8cpp.html" target="_top" xlink:title=" ">
<polygon fill="none" stroke="black" points="200.88,-0.5 200.88,-19.5 400.88,-19.5 400.88,-0.5 200.88,-0.5"/>
<text text-anchor="middle" x="300.88" y="-7.5" font-family="Helvetica,sans-Serif" font-size="10.00">examples/websocket/request_listener.cpp</text>
</a>
</g>
</g>
<!-- Node13&#45;&gt;Node14 -->
<g id="edge16" class="edge">
<title>Node13&#45;&gt;Node14</title>
<path fill="none" stroke="midnightblue" d="M454.28,-53.7C417.66,-43.51 364.62,-28.74 331.48,-19.52"/>
<polygon fill="midnightblue" stroke="midnightblue" points="453.57,-57.13 464.14,-56.44 455.45,-50.39 453.57,-57.13"/>
</g>
<!-- Node15&#45;&gt;Node5 -->
<g id="edge18" class="edge">
<title>Node15&#45;&gt;Node5</title>
<path fill="none" stroke="midnightblue" d="M777.36,-56.04C1040.99,-30.95 1109.47,-40.85 1368.88,-20 1371.7,-19.77 1374.56,-19.53 1377.46,-19.29"/>
<polygon fill="midnightblue" stroke="midnightblue" points="776.71,-52.58 767.09,-57.02 777.38,-59.55 776.71,-52.58"/>
</g>
<!-- Node15&#45;&gt;Node9 -->
<g id="edge20" class="edge">
<title>Node15&#45;&gt;Node9</title>
<path fill="none" stroke="midnightblue" d="M772.2,-54.85C835.87,-44.65 932.94,-29.1 992.73,-19.52"/>
<polygon fill="midnightblue" stroke="midnightblue" points="771.6,-51.41 762.28,-56.44 772.71,-58.32 771.6,-51.41"/>
</g>
<!-- Node15&#45;&gt;Node12 -->
<g id="edge21" class="edge">
<title>Node15&#45;&gt;Node12</title>
<path fill="none" stroke="midnightblue" d="M665.12,-53.96C624.71,-43.76 565.51,-28.82 528.63,-19.52"/>
<polygon fill="midnightblue" stroke="midnightblue" points="664.42,-57.39 674.97,-56.44 666.13,-50.6 664.42,-57.39"/>
</g>
<!-- Node16 -->
<g id="node16" class="node">
<title>Node16</title>
<g id="a_node16"><a xlink:href="most__minimal_2main_8cpp.html" target="_top" xlink:title=" ">
<polygon fill="none" stroke="black" points="589.38,-0.5 589.38,-19.5 754.38,-19.5 754.38,-0.5 589.38,-0.5"/>
<text text-anchor="middle" x="671.88" y="-7.5" font-family="Helvetica,sans-Serif" font-size="10.00">examples/most_minimal/main.cpp</text>
</a>
</g>
</g>
<!-- Node15&#45;&gt;Node16 -->
<g id="edge19" class="edge">
<title>Node15&#45;&gt;Node16</title>
<path fill="none" stroke="midnightblue" d="M696.93,-47.57C690.57,-38.27 683.01,-27.25 677.88,-19.75"/>
<polygon fill="midnightblue" stroke="midnightblue" points="694.23,-49.81 702.77,-56.08 700.01,-45.86 694.23,-49.81"/>
</g>
<!-- Node15&#45;&gt;Node17 -->
<g id="edge22" class="edge">
<title>Node15&#45;&gt;Node17</title>
<path fill="none" stroke="midnightblue" d="M742.1,-53.04C770.33,-42.88 810.14,-28.55 835.22,-19.52"/>
<polygon fill="midnightblue" stroke="midnightblue" points="740.87,-49.76 732.65,-56.44 743.24,-56.35 740.87,-49.76"/>
</g>
<!-- Node15&#45;&gt;Node18 -->
<g id="edge23" class="edge">
<title>Node15&#45;&gt;Node18</title>
<path fill="none" stroke="midnightblue" d="M640.54,-59.11C502.58,-47.22 202.88,-21.33 191.88,-20 188.95,-19.65 185.93,-19.26 182.9,-18.84"/>
<polygon fill="midnightblue" stroke="midnightblue" points="640.32,-62.61 650.59,-59.98 640.93,-55.63 640.32,-62.61"/>
</g>
<!-- Node23&#45;&gt;Node3 -->
<g id="edge41" class="edge">
<title>Node23&#45;&gt;Node3</title>
<path fill="none" stroke="midnightblue" d="M556.78,-218.62C541.62,-208.76 522,-195.99 509.18,-187.65"/>
<polygon fill="midnightblue" stroke="midnightblue" points="555.25,-221.8 565.54,-224.32 559.07,-215.94 555.25,-221.8"/>
</g>
<!-- Node23&#45;&gt;Node4 -->
<g id="edge32" class="edge">
<title>Node23&#45;&gt;Node4</title>
<path fill="none" stroke="midnightblue" d="M619.35,-221.63C648.43,-213.15 688.42,-200.86 722.88,-188 771,-170.04 826.01,-144.77 853.79,-131.65"/>
<polygon fill="midnightblue" stroke="midnightblue" points="618.18,-218.33 609.54,-224.47 620.12,-225.05 618.18,-218.33"/>
</g>
<!-- Node23&#45;&gt;Node15 -->
<g id="edge40" class="edge">
<title>Node23&#45;&gt;Node15</title>
<path fill="none" stroke="midnightblue" d="M600.84,-218.66C625.97,-201.14 666.64,-169.19 689.88,-132 701.22,-113.85 706.04,-88.66 707.88,-75.6"/>
<polygon fill="midnightblue" stroke="midnightblue" points="598.64,-215.93 592.35,-224.45 602.58,-221.71 598.64,-215.93"/>
</g>
<!-- Node24 -->
<g id="node24" class="node">
<title>Node24</title>
<g id="a_node24"><a xlink:href="route_8hpp.html" target="_top" xlink:title=" ">
<polygon fill="none" stroke="black" points="255.38,-168.5 255.38,-187.5 398.38,-187.5 398.38,-168.5 255.38,-168.5"/>
<text text-anchor="middle" x="326.88" y="-175.5" font-family="Helvetica,sans-Serif" font-size="10.00">include/roar/routing/route.hpp</text>
</a>
</g>
</g>
<!-- Node23&#45;&gt;Node24 -->
<g id="edge33" class="edge">
<title>Node23&#45;&gt;Node24</title>
<path fill="none" stroke="midnightblue" d="M529.16,-222.35C481.54,-212.14 410.6,-196.94 366.62,-187.52"/>
<polygon fill="midnightblue" stroke="midnightblue" points="528.44,-225.77 538.95,-224.44 529.91,-218.93 528.44,-225.77"/>
</g>
<!-- Node25 -->
<g id="node25" class="node">
<title>Node25</title>
<g id="a_node25"><a xlink:href="router_8hpp.html" target="_top" xlink:title=" ">
<polygon fill="none" stroke="black" points="58.88,-168.5 58.88,-187.5 204.88,-187.5 204.88,-168.5 58.88,-168.5"/>
<text text-anchor="middle" x="131.88" y="-175.5" font-family="Helvetica,sans-Serif" font-size="10.00">include/roar/routing/router.hpp</text>
</a>
</g>
</g>
<!-- Node23&#45;&gt;Node25 -->
<g id="edge36" class="edge">
<title>Node23&#45;&gt;Node25</title>
<path fill="none" stroke="midnightblue" d="M498,-223.23C413.62,-213.04 282.67,-197.22 202.38,-187.52"/>
<polygon fill="midnightblue" stroke="midnightblue" points="497.7,-226.72 508.05,-224.44 498.54,-219.77 497.7,-226.72"/>
</g>
<!-- Node24&#45;&gt;Node19 -->
<g id="edge34" class="edge">
<title>Node24&#45;&gt;Node19</title>
<path fill="none" stroke="midnightblue" d="M343.77,-161.54C354.29,-151.91 367.45,-139.87 376.23,-131.83"/>
<polygon fill="midnightblue" stroke="midnightblue" points="341.37,-158.99 336.36,-168.32 346.1,-164.15 341.37,-158.99"/>
</g>
<!-- Node24&#45;&gt;Node20 -->
<g id="edge35" class="edge">
<title>Node24&#45;&gt;Node20</title>
<path fill="none" stroke="midnightblue" d="M278.05,-166.28C231.56,-156.08 162.52,-140.92 119.68,-131.52"/>
<polygon fill="midnightblue" stroke="midnightblue" points="277.38,-169.72 287.9,-168.44 278.88,-162.88 277.38,-169.72"/>
</g>
<!-- Node25&#45;&gt;Node18 -->
<g id="edge38" class="edge">
<title>Node25&#45;&gt;Node18</title>
<path fill="none" stroke="midnightblue" d="M55.95,-165.35C37.23,-158.7 19.29,-148.28 7.88,-132 -26.41,-83.07 66.69,-37.79 111.42,-19.52"/>
<polygon fill="midnightblue" stroke="midnightblue" points="54.89,-168.69 65.48,-168.41 57.03,-162.02 54.89,-168.69"/>
</g>
<!-- Node25&#45;&gt;Node20 -->
<g id="edge37" class="edge">
<title>Node25&#45;&gt;Node20</title>
<path fill="none" stroke="midnightblue" d="M116.5,-160.72C107.51,-151.2 96.52,-139.56 89.15,-131.75"/>
<polygon fill="midnightblue" stroke="midnightblue" points="114.05,-163.22 123.46,-168.08 119.14,-158.41 114.05,-163.22"/>
</g>
<!-- Node25&#45;&gt;Node22 -->
<g id="edge39" class="edge">
<title>Node25&#45;&gt;Node22</title>
<path fill="none" stroke="midnightblue" d="M157.21,-163.59C176.07,-153.61 201.26,-140.27 217.53,-131.65"/>
<polygon fill="midnightblue" stroke="midnightblue" points="155.47,-160.55 148.27,-168.32 158.74,-166.74 155.47,-160.55"/>
</g>
</g>
</svg>
        <g id="navigator" transform="translate(0 0)" fill="#404254">
                <rect fill="#f2f5e9" fill-opacity="0.5" stroke="#606060" stroke-width=".5" x="0" y="0" width="60" height="60"/>
                <use id="zoomplus" xlink:href="#zoomPlus" x="17" y="9" onmousedown="handleZoom(evt,'in')"/>
                <use id="zoomminus" xlink:href="#zoomMin" x="42" y="9" onmousedown="handleZoom(evt,'out')"/>
                <use id="reset" xlink:href="#resetDef" x="30" y="36" onmousedown="handleReset()"/>
                <g id="arrowUp" xlink:href="#dirArrow" transform="translate(30 24)" onmousedown="handlePan(0,-1)">
                  <use xlink:href="#rim" fill="#404040">
                        <set attributeName="fill" to="#808080" begin="arrowUp.mouseover" end="arrowUp.mouseout"/>
                  </use>
                  <path fill="none" stroke="white" stroke-width="1.5" d="M0,-3.0v7 M-2.5,-0.5L0,-3.0L2.5,-0.5"/>
                </g>
                <g id="arrowRight" xlink:href="#dirArrow" transform="rotate(90) translate(36 -43)" onmousedown="handlePan(1,0)">
                  <use xlink:href="#rim" fill="#404040">
                        <set attributeName="fill" to="#808080" begin="arrowRight.mouseover" end="arrowRight.mouseout"/>
                  </use>
                  <path fill="none" stroke="white" stroke-width="1.5" d="M0,-3.0v7 M-2.5,-0.5L0,-3.0L2.5,-0.5"/>
                </g>
                <g id="arrowDown" xlink:href="#dirArrow" transform="rotate(180) translate(-30 -48)" onmousedown="handlePan(0,1)">
                  <use xlink:href="#rim" fill="#404040">
                        <set attributeName="fill" to="#808080" begin="arrowDown.mouseover" end="arrowDown.mouseout"/>
                  </use>
                  <path fill="none" stroke="white" stroke-width="1.5" d="M0,-3.0v7 M-2.5,-0.5L0,-3.0L2.5,-0.5"/>
                </g>
                <g id="arrowLeft" xlink:href="#dirArrow" transform="rotate(270) translate(-36 17)" onmousedown="handlePan(-1,0)">
                  <use xlink:href="#rim" fill="#404040">
                        <set attributeName="fill" to="#808080" begin="arrowLeft.mouseover" end="arrowLeft.mouseout"/>
                  </use>
                  <path fill="none" stroke="white" stroke-width="1.5" d="M0,-3.0v7 M-2.5,-0.5L0,-3.0L2.5,-0.5"/>
                </g>
        </g>
        <svg viewBox="0 0 15 15" width="100%" height="30px" preserveAspectRatio="xMaxYMin meet">
         <g id="arrow_out" transform="scale(0.3 0.3)">
          <a xlink:href="cors_8hpp__dep__incl_org.svg" target="_base">
           <rect id="button" ry="5" rx="5" y="6" x="6" height="38" width="38"
                fill="#f2f5e9" fill-opacity="0.5" stroke="#606060" stroke-width="1.0"/>
           <path id="arrow"
             d="M 11.500037,31.436501 C 11.940474,20.09759 22.043105,11.32322 32.158766,21.979434 L 37.068811,17.246167 C 37.068811,17.246167 37.088388,32 37.088388,32 L 22.160133,31.978069 C 22.160133,31.978069 26.997745,27.140456 26.997745,27.140456 C 18.528582,18.264221 13.291696,25.230495 11.500037,31.436501 z"
             style="fill:#404040;"/>
          </a>
         </g>
        </svg>
</svg>
