<?xml version="1.0" encoding="UTF-8" standalone="no"?>
<!DOCTYPE svg PUBLIC "-//W3C//DTD SVG 1.1//EN"
 "http://www.w3.org/Graphics/SVG/1.1/DTD/svg11.dtd">
<!-- Generated by graphviz version 8.1.0 (0)
 -->
<!-- Title: include/roar/cors.hpp Pages: 1 -->
<svg width="531pt" height="84pt"
 viewBox="0.00 0.00 531.00 84.00" xmlns="http://www.w3.org/2000/svg" xmlns:xlink="http://www.w3.org/1999/xlink">
<g id="graph0" class="graph" transform="scale(1 1) rotate(0) translate(4 80)">
<title>include/roar/cors.hpp</title>
<!-- Node1 -->
<g id="Node000001" class="node">
<title>Node1</title>
<g id="a_Node000001"><a xlink:title=" ">
<polygon fill="#999999" stroke="#666666" points="393.5,-76 286.75,-76 286.75,-56 393.5,-56 393.5,-76"/>
<text text-anchor="middle" x="340.12" y="-62.5" font-family="Helvetica,sans-Serif" font-size="10.00">include/roar/cors.hpp</text>
</a>
</g>
</g>
<!-- Node2 -->
<g id="Node000002" class="node">
<title>Node2</title>
<g id="a_Node000002"><a xlink:title=" ">
<polygon fill="#e0e0e0" stroke="#999999" points="126.25,-20 0,-20 0,0 126.25,0 126.25,-20"/>
<text text-anchor="middle" x="63.12" y="-6.5" font-family="Helvetica,sans-Serif" font-size="10.00">boost/beast/http/field.hpp</text>
</a>
</g>
</g>
<!-- Node1&#45;&gt;Node2 -->
<g id="edge1_Node000001_Node000002" class="edge">
<title>Node1&#45;&gt;Node2</title>
<g id="a_edge1_Node000001_Node000002"><a xlink:title=" ">
<path fill="none" stroke="#63b8ff" d="M291.56,-55.53C244.43,-46.35 172.84,-32.39 122.38,-22.55"/>
<polygon fill="#63b8ff" stroke="#63b8ff" points="123.12,-18.94 112.64,-20.46 121.78,-25.81 123.12,-18.94"/>
</a>
</g>
</g>
<!-- Node3 -->
<g id="Node000003" class="node">
<title>Node3</title>
<g id="a_Node000003"><a xlink:title=" ">
<polygon fill="#e0e0e0" stroke="#999999" points="271.62,-20 144.62,-20 144.62,0 271.62,0 271.62,-20"/>
<text text-anchor="middle" x="208.12" y="-6.5" font-family="Helvetica,sans-Serif" font-size="10.00">boost/beast/http/verb.hpp</text>
</a>
</g>
</g>
<!-- Node1&#45;&gt;Node3 -->
<g id="edge2_Node000001_Node000003" class="edge">
<title>Node1&#45;&gt;Node3</title>
<g id="a_edge2_Node000001_Node000003"><a xlink:title=" ">
<path fill="none" stroke="#63b8ff" d="M317.13,-55.59C296.16,-47.01 264.92,-34.23 241.25,-24.55"/>
<polygon fill="#63b8ff" stroke="#63b8ff" points="242.88,-21.03 232.3,-20.48 240.23,-27.51 242.88,-21.03"/>
</a>
</g>
</g>
<!-- Node4 -->
<g id="Node000004" class="node">
<title>Node4</title>
<g id="a_Node000004"><a xlink:title=" ">
<polygon fill="#e0e0e0" stroke="#999999" points="330.12,-20 290.12,-20 290.12,0 330.12,0 330.12,-20"/>
<text text-anchor="middle" x="310.12" y="-6.5" font-family="Helvetica,sans-Serif" font-size="10.00">string</text>
</a>
</g>
</g>
<!-- Node1&#45;&gt;Node4 -->
<g id="edge3_Node000001_Node000004" class="edge">
<title>Node1&#45;&gt;Node4</title>
<g id="a_edge3_Node000001_Node000004"><a xlink:title=" ">
<path fill="none" stroke="#63b8ff" d="M334.9,-55.59C330.94,-48.47 325.38,-38.45 320.52,-29.72"/>
<polygon fill="#63b8ff" stroke="#63b8ff" points="323.21,-28.34 315.29,-21.3 317.09,-31.74 323.21,-28.34"/>
</a>
</g>
</g>
<!-- Node5 -->
<g id="Node000005" class="node">
<title>Node5</title>
<g id="a_Node000005"><a xlink:title=" ">
<polygon fill="#e0e0e0" stroke="#999999" points="391.62,-20 348.62,-20 348.62,0 391.62,0 391.62,-20"/>
<text text-anchor="middle" x="370.12" y="-6.5" font-family="Helvetica,sans-Serif" font-size="10.00">vector</text>
</a>
</g>
</g>
<!-- Node1&#45;&gt;Node5 -->
<g id="edge4_Node000001_Node000005" class="edge">
<title>Node1&#45;&gt;Node5</title>
<g id="a_edge4_Node000001_Node000005"><a xlink:title=" ">
<path fill="none" stroke="#63b8ff" d="M345.35,-55.59C349.31,-48.47 354.87,-38.45 359.73,-29.72"/>
<polygon fill="#63b8ff" stroke="#63b8ff" points="363.16,-31.74 364.96,-21.3 357.04,-28.34 363.16,-31.74"/>
</a>
</g>
</g>
<!-- Node6 -->
<g id="Node000006" class="node">
<title>Node6</title>
<g id="a_Node000006"><a xlink:title=" ">
<polygon fill="#e0e0e0" stroke="#999999" points="454.75,-20 409.5,-20 409.5,0 454.75,0 454.75,-20"/>
<text text-anchor="middle" x="432.12" y="-6.5" font-family="Helvetica,sans-Serif" font-size="10.00">cctype</text>
</a>
</g>
</g>
<!-- Node1&#45;&gt;Node6 -->
<g id="edge5_Node000001_Node000006" class="edge">
<title>Node1&#45;&gt;Node6</title>
<g id="a_edge5_Node000001_Node000006"><a xlink:title=" ">
<path fill="none" stroke="#63b8ff" d="M356.15,-55.59C370.05,-47.44 390.41,-35.48 406.56,-26"/>
<polygon fill="#63b8ff" stroke="#63b8ff" points="408.12,-28.56 414.97,-20.48 404.58,-22.52 408.12,-28.56"/>
</a>
</g>
</g>
<!-- Node7 -->
<g id="Node000007" class="node">
<title>Node7</title>
<g id="a_Node000007"><a xlink:title=" ">
<polygon fill="#e0e0e0" stroke="#999999" points="523,-20 473.25,-20 473.25,0 523,0 523,-20"/>
<text text-anchor="middle" x="498.12" y="-6.5" font-family="Helvetica,sans-Serif" font-size="10.00">optional</text>
</a>
</g>
</g>
<!-- Node1&#45;&gt;Node7 -->
<g id="edge6_Node000001_Node000007" class="edge">
<title>Node1&#45;&gt;Node7</title>
<g id="a_edge6_Node000001_Node000007"><a xlink:title=" ">
<path fill="none" stroke="#63b8ff" d="M367.65,-55.59C394.1,-46.55 434.21,-32.85 462.97,-23.02"/>
<polygon fill="#63b8ff" stroke="#63b8ff" points="463.67,-26.13 472,-19.59 461.41,-19.51 463.67,-26.13"/>
</a>
</g>
</g>
</g>
</svg>
