<?xml version="1.0" encoding="UTF-8" standalone="no"?>
<!DOCTYPE svg PUBLIC "-//W3C//DTD SVG 1.1//EN"
 "http://www.w3.org/Graphics/SVG/1.1/DTD/svg11.dtd">
<!-- Generated by graphviz version 8.1.0 (0)
 -->
<!-- Title: include/roar/curl/request.hpp Pages: 1 -->
<svg width="1253pt" height="196pt"
 viewBox="0.00 0.00 1253.12 196.00" xmlns="http://www.w3.org/2000/svg" xmlns:xlink="http://www.w3.org/1999/xlink">
<g id="graph0" class="graph" transform="scale(1 1) rotate(0) translate(4 192)">
<title>include/roar/curl/request.hpp</title>
<!-- Node1 -->
<g id="Node000001" class="node">
<title>Node1</title>
<g id="a_Node000001"><a xlink:title=" ">
<polygon fill="#999999" stroke="#666666" points="699.12,-188 560.12,-188 560.12,-168 699.12,-168 699.12,-188"/>
<text text-anchor="middle" x="629.62" y="-174.5" font-family="Helvetica,sans-Serif" font-size="10.00">include/roar/curl/request.hpp</text>
</a>
</g>
</g>
<!-- Node2 -->
<g id="Node000002" class="node">
<title>Node2</title>
<g id="a_Node000002"><a xlink:href="instance_8hpp.html" target="_top" xlink:title=" ">
<polygon fill="white" stroke="#666666" points="131.38,-76 59.88,-76 59.88,-56 131.38,-56 131.38,-76"/>
<text text-anchor="middle" x="95.62" y="-62.5" font-family="Helvetica,sans-Serif" font-size="10.00">instance.hpp</text>
</a>
</g>
</g>
<!-- Node1&#45;&gt;Node2 -->
<g id="edge1_Node000001_Node000002" class="edge">
<title>Node1&#45;&gt;Node2</title>
<g id="a_edge1_Node000001_Node000002"><a xlink:title=" ">
<path fill="none" stroke="#63b8ff" d="M559.71,-172.98C457.6,-166.53 272.95,-152.46 209.62,-132 174.88,-120.77 138.95,-98.13 116.95,-82.76"/>
<polygon fill="#63b8ff" stroke="#63b8ff" points="119.31,-79.43 109.14,-76.47 115.25,-85.13 119.31,-79.43"/>
</a>
</g>
</g>
<!-- Node3 -->
<g id="Node000003" class="node">
<title>Node3</title>
<g id="a_Node000003"><a xlink:title=" ">
<polygon fill="#e0e0e0" stroke="#999999" points="205,-20 146.25,-20 146.25,0 205,0 205,-20"/>
<text text-anchor="middle" x="175.62" y="-6.5" font-family="Helvetica,sans-Serif" font-size="10.00">curl/curl.h</text>
</a>
</g>
</g>
<!-- Node1&#45;&gt;Node3 -->
<g id="edge14_Node000001_Node000003" class="edge">
<title>Node1&#45;&gt;Node3</title>
<g id="a_edge14_Node000001_Node000003"><a xlink:title=" ">
<path fill="none" stroke="#63b8ff" d="M559.64,-168.3C509.04,-160.78 446.14,-148.52 425.62,-132 396.67,-108.67 419.71,-79.17 390.62,-56 364.12,-34.88 270.76,-21.39 216.17,-15.12"/>
<polygon fill="#63b8ff" stroke="#63b8ff" points="216.8,-11.56 206.48,-13.93 216.03,-18.52 216.8,-11.56"/>
</a>
</g>
</g>
<!-- Node4 -->
<g id="Node000004" class="node">
<title>Node4</title>
<g id="a_Node000004"><a xlink:title=" ">
<polygon fill="#e0e0e0" stroke="#999999" points="51.25,-20 0,-20 0,0 51.25,0 51.25,-20"/>
<text text-anchor="middle" x="25.62" y="-6.5" font-family="Helvetica,sans-Serif" font-size="10.00">memory</text>
</a>
</g>
</g>
<!-- Node1&#45;&gt;Node4 -->
<g id="edge20_Node000001_Node000004" class="edge">
<title>Node1&#45;&gt;Node4</title>
<g id="a_edge20_Node000001_Node000004"><a xlink:title=" ">
<path fill="none" stroke="#63b8ff" d="M560.01,-173.38C448.8,-167.07 236.21,-152.73 163.62,-132 109.73,-116.61 88.38,-117.43 50.62,-76 39.05,-63.29 32.62,-44.65 29.19,-30.58"/>
<polygon fill="#63b8ff" stroke="#63b8ff" points="32.46,-30.14 26.97,-21.08 25.61,-31.58 32.46,-30.14"/>
</a>
</g>
</g>
<!-- Node6 -->
<g id="Node000006" class="node">
<title>Node6</title>
<g id="a_Node000006"><a xlink:href="curl_2response_8hpp.html" target="_top" xlink:title=" ">
<polygon fill="white" stroke="#666666" points="292.88,-132 218.38,-132 218.38,-112 292.88,-112 292.88,-132"/>
<text text-anchor="middle" x="255.62" y="-118.5" font-family="Helvetica,sans-Serif" font-size="10.00">response.hpp</text>
</a>
</g>
</g>
<!-- Node1&#45;&gt;Node6 -->
<g id="edge5_Node000001_Node000006" class="edge">
<title>Node1&#45;&gt;Node6</title>
<g id="a_edge5_Node000001_Node000006"><a xlink:title=" ">
<path fill="none" stroke="#63b8ff" d="M564.05,-167.53C489.63,-156.79 370.01,-139.52 303.74,-129.95"/>
<polygon fill="#63b8ff" stroke="#63b8ff" points="304.58,-126.39 294.18,-128.42 303.58,-133.32 304.58,-126.39"/>
</a>
</g>
</g>
<!-- Node8 -->
<g id="Node000008" class="node">
<title>Node8</title>
<g id="a_Node000008"><a xlink:title=" ">
<polygon fill="#e0e0e0" stroke="#999999" points="381.62,-76 341.62,-76 341.62,-56 381.62,-56 381.62,-76"/>
<text text-anchor="middle" x="361.62" y="-62.5" font-family="Helvetica,sans-Serif" font-size="10.00">string</text>
</a>
</g>
</g>
<!-- Node1&#45;&gt;Node8 -->
<g id="edge21_Node000001_Node000008" class="edge">
<title>Node1&#45;&gt;Node8</title>
<g id="a_edge21_Node000001_Node000008"><a xlink:title=" ">
<path fill="none" stroke="#63b8ff" d="M559.78,-170.73C499.53,-164.09 418.29,-151.78 392.62,-132 378.25,-120.92 370.21,-101.5 365.94,-86.76"/>
<polygon fill="#63b8ff" stroke="#63b8ff" points="369.12,-86.04 363.28,-77.2 362.33,-87.75 369.12,-86.04"/>
</a>
</g>
</g>
<!-- Node9 -->
<g id="Node000009" class="node">
<title>Node9</title>
<g id="a_Node000009"><a xlink:href="source_8hpp.html" target="_top" xlink:title=" ">
<polygon fill="white" stroke="#666666" points="498.62,-132 434.62,-132 434.62,-112 498.62,-112 498.62,-132"/>
<text text-anchor="middle" x="466.62" y="-118.5" font-family="Helvetica,sans-Serif" font-size="10.00">source.hpp</text>
</a>
</g>
</g>
<!-- Node1&#45;&gt;Node9 -->
<g id="edge10_Node000001_Node000009" class="edge">
<title>Node1&#45;&gt;Node9</title>
<g id="a_edge10_Node000001_Node000009"><a xlink:title=" ">
<path fill="none" stroke="#63b8ff" d="M601.23,-167.59C574.75,-158.82 535.02,-145.66 505.58,-135.9"/>
<polygon fill="#63b8ff" stroke="#63b8ff" points="506.83,-132.3 496.24,-132.48 504.63,-138.95 506.83,-132.3"/>
</a>
</g>
</g>
<!-- Node10 -->
<g id="Node000010" class="node">
<title>Node10</title>
<g id="a_Node000010"><a xlink:title=" ">
<polygon fill="#e0e0e0" stroke="#999999" points="520.75,-76 472.5,-76 472.5,-56 520.75,-56 520.75,-76"/>
<text text-anchor="middle" x="496.62" y="-62.5" font-family="Helvetica,sans-Serif" font-size="10.00">cstddef</text>
</a>
</g>
</g>
<!-- Node1&#45;&gt;Node10 -->
<g id="edge16_Node000001_Node000010" class="edge">
<title>Node1&#45;&gt;Node10</title>
<g id="a_edge16_Node000001_Node000010"><a xlink:title=" ">
<path fill="none" stroke="#63b8ff" d="M605.85,-167.6C588.03,-159.8 563.72,-147.5 545.62,-132 530.08,-118.68 516.44,-99.63 507.52,-85.59"/>
<polygon fill="#63b8ff" stroke="#63b8ff" points="510.11,-84.11 501.91,-77.41 504.14,-87.77 510.11,-84.11"/>
</a>
</g>
</g>
<!-- Node11 -->
<g id="Node000011" class="node">
<title>Node11</title>
<g id="a_Node000011"><a xlink:title=" ">
<polygon fill="#e0e0e0" stroke="#999999" points="600.25,-132 555,-132 555,-112 600.25,-112 600.25,-132"/>
<text text-anchor="middle" x="577.62" y="-118.5" font-family="Helvetica,sans-Serif" font-size="10.00">cstdint</text>
</a>
</g>
</g>
<!-- Node1&#45;&gt;Node11 -->
<g id="edge12_Node000001_Node000011" class="edge">
<title>Node1&#45;&gt;Node11</title>
<g id="a_edge12_Node000001_Node000011"><a xlink:title=" ">
<path fill="none" stroke="#63b8ff" d="M620.57,-167.59C613.26,-160.01 602.79,-149.13 594.02,-140.02"/>
<polygon fill="#63b8ff" stroke="#63b8ff" points="597.04,-138.07 587.58,-133.3 591.99,-142.93 597.04,-138.07"/>
</a>
</g>
</g>
<!-- Node12 -->
<g id="Node000012" class="node">
<title>Node12</title>
<g id="a_Node000012"><a xlink:title=" ">
<polygon fill="#e0e0e0" stroke="#999999" points="744.75,-132 618.5,-132 618.5,-112 744.75,-112 744.75,-132"/>
<text text-anchor="middle" x="681.62" y="-118.5" font-family="Helvetica,sans-Serif" font-size="10.00">boost/beast/http/field.hpp</text>
</a>
</g>
</g>
<!-- Node1&#45;&gt;Node12 -->
<g id="edge13_Node000001_Node000012" class="edge">
<title>Node1&#45;&gt;Node12</title>
<g id="a_edge13_Node000001_Node000012"><a xlink:title=" ">
<path fill="none" stroke="#63b8ff" d="M638.68,-167.59C645.99,-160.01 656.46,-149.13 665.23,-140.02"/>
<polygon fill="#63b8ff" stroke="#63b8ff" points="667.26,-142.93 671.67,-133.3 662.21,-138.07 667.26,-142.93"/>
</a>
</g>
</g>
<!-- Node13 -->
<g id="Node000013" class="node">
<title>Node13</title>
<g id="a_Node000013"><a xlink:title=" ">
<polygon fill="#e0e0e0" stroke="#999999" points="808.25,-132 763,-132 763,-112 808.25,-112 808.25,-132"/>
<text text-anchor="middle" x="785.62" y="-118.5" font-family="Helvetica,sans-Serif" font-size="10.00">chrono</text>
</a>
</g>
</g>
<!-- Node1&#45;&gt;Node13 -->
<g id="edge15_Node000001_Node000013" class="edge">
<title>Node1&#45;&gt;Node13</title>
<g id="a_edge15_Node000001_Node000013"><a xlink:title=" ">
<path fill="none" stroke="#63b8ff" d="M656.8,-167.59C683.43,-158.38 724.05,-144.31 752.54,-134.45"/>
<polygon fill="#63b8ff" stroke="#63b8ff" points="753.51,-137.47 761.82,-130.9 751.22,-130.86 753.51,-137.47"/>
</a>
</g>
</g>
<!-- Node14 -->
<g id="Node000014" class="node">
<title>Node14</title>
<g id="a_Node000014"><a xlink:title=" ">
<polygon fill="#e0e0e0" stroke="#999999" points="887.12,-132 826.12,-132 826.12,-112 887.12,-112 887.12,-132"/>
<text text-anchor="middle" x="856.62" y="-118.5" font-family="Helvetica,sans-Serif" font-size="10.00">filesystem</text>
</a>
</g>
</g>
<!-- Node1&#45;&gt;Node14 -->
<g id="edge17_Node000001_Node000014" class="edge">
<title>Node1&#45;&gt;Node14</title>
<g id="a_edge17_Node000001_Node000014"><a xlink:title=" ">
<path fill="none" stroke="#63b8ff" d="M669.43,-167.53C710.28,-157.81 773.57,-142.76 815.06,-132.89"/>
<polygon fill="#63b8ff" stroke="#63b8ff" points="815.71,-136.09 824.63,-130.37 814.09,-129.28 815.71,-136.09"/>
</a>
</g>
</g>
<!-- Node15 -->
<g id="Node000015" class="node">
<title>Node15</title>
<g id="a_Node000015"><a xlink:title=" ">
<polygon fill="#e0e0e0" stroke="#999999" points="963.62,-132 905.62,-132 905.62,-112 963.62,-112 963.62,-132"/>
<text text-anchor="middle" x="934.62" y="-118.5" font-family="Helvetica,sans-Serif" font-size="10.00">functional</text>
</a>
</g>
</g>
<!-- Node1&#45;&gt;Node15 -->
<g id="edge18_Node000001_Node000015" class="edge">
<title>Node1&#45;&gt;Node15</title>
<g id="a_edge18_Node000001_Node000015"><a xlink:title=" ">
<path fill="none" stroke="#63b8ff" d="M692.96,-167.52C744.76,-159.5 820.14,-147.2 894.7,-132.29"/>
<polygon fill="#63b8ff" stroke="#63b8ff" points="895.1,-135.58 904.21,-130.17 893.71,-128.72 895.1,-135.58"/>
</a>
</g>
</g>
<!-- Node16 -->
<g id="Node000016" class="node">
<title>Node16</title>
<g id="a_Node000016"><a xlink:title=" ">
<polygon fill="#e0e0e0" stroke="#999999" points="1025.88,-132 981.38,-132 981.38,-112 1025.88,-112 1025.88,-132"/>
<text text-anchor="middle" x="1003.62" y="-118.5" font-family="Helvetica,sans-Serif" font-size="10.00">iosfwd</text>
</a>
</g>
</g>
<!-- Node1&#45;&gt;Node16 -->
<g id="edge19_Node000001_Node000016" class="edge">
<title>Node1&#45;&gt;Node16</title>
<g id="a_edge19_Node000001_Node000016"><a xlink:title=" ">
<path fill="none" stroke="#63b8ff" d="M699.46,-170.98C766.75,-164.47 871.55,-152.47 970.55,-132.17"/>
<polygon fill="#63b8ff" stroke="#63b8ff" points="970.96,-135.45 980.04,-129.99 969.53,-128.6 970.96,-135.45"/>
</a>
</g>
</g>
<!-- Node17 -->
<g id="Node000017" class="node">
<title>Node17</title>
<g id="a_Node000017"><a xlink:title=" ">
<polygon fill="#e0e0e0" stroke="#999999" points="1127,-132 1044.25,-132 1044.25,-112 1127,-112 1127,-132"/>
<text text-anchor="middle" x="1085.62" y="-118.5" font-family="Helvetica,sans-Serif" font-size="10.00">unordered_map</text>
</a>
</g>
</g>
<!-- Node1&#45;&gt;Node17 -->
<g id="edge22_Node000001_Node000017" class="edge">
<title>Node1&#45;&gt;Node17</title>
<g id="a_edge22_Node000001_Node000017"><a xlink:title=" ">
<path fill="none" stroke="#63b8ff" d="M699.31,-170.63C777.86,-163.13 909.61,-149.64 1033.13,-132.13"/>
<polygon fill="#63b8ff" stroke="#63b8ff" points="1033.51,-135.47 1042.91,-130.59 1032.52,-128.54 1033.51,-135.47"/>
</a>
</g>
</g>
<!-- Node18 -->
<g id="Node000018" class="node">
<title>Node18</title>
<g id="a_Node000018"><a xlink:title=" ">
<polygon fill="#e0e0e0" stroke="#999999" points="1184.25,-132 1145,-132 1145,-112 1184.25,-112 1184.25,-132"/>
<text text-anchor="middle" x="1164.62" y="-118.5" font-family="Helvetica,sans-Serif" font-size="10.00">utility</text>
</a>
</g>
</g>
<!-- Node1&#45;&gt;Node18 -->
<g id="edge23_Node000001_Node000018" class="edge">
<title>Node1&#45;&gt;Node18</title>
<g id="a_edge23_Node000001_Node000018"><a xlink:title=" ">
<path fill="none" stroke="#63b8ff" d="M699.44,-175.46C795.55,-172.32 973.95,-162.77 1134.27,-131.83"/>
<polygon fill="#63b8ff" stroke="#63b8ff" points="1134.66,-135.12 1143.8,-129.76 1133.31,-128.25 1134.66,-135.12"/>
</a>
</g>
</g>
<!-- Node19 -->
<g id="Node000019" class="node">
<title>Node19</title>
<g id="a_Node000019"><a xlink:title=" ">
<polygon fill="#e0e0e0" stroke="#999999" points="1245.12,-132 1202.12,-132 1202.12,-112 1245.12,-112 1245.12,-132"/>
<text text-anchor="middle" x="1223.62" y="-118.5" font-family="Helvetica,sans-Serif" font-size="10.00">vector</text>
</a>
</g>
</g>
<!-- Node1&#45;&gt;Node19 -->
<g id="edge24_Node000001_Node000019" class="edge">
<title>Node1&#45;&gt;Node19</title>
<g id="a_edge24_Node000001_Node000019"><a xlink:title=" ">
<path fill="none" stroke="#63b8ff" d="M699.27,-176.17C804.36,-173.88 1009.67,-165.36 1191.25,-132.1"/>
<polygon fill="#63b8ff" stroke="#63b8ff" points="1191.61,-135.4 1200.8,-130.13 1190.33,-128.52 1191.61,-135.4"/>
</a>
</g>
</g>
<!-- Node2&#45;&gt;Node3 -->
<g id="edge2_Node000002_Node000003" class="edge">
<title>Node2&#45;&gt;Node3</title>
<g id="a_edge2_Node000002_Node000003"><a xlink:title=" ">
<path fill="none" stroke="#63b8ff" d="M109.56,-55.59C121.42,-47.59 138.69,-35.93 152.6,-26.54"/>
<polygon fill="#63b8ff" stroke="#63b8ff" points="154.25,-28.98 160.58,-20.48 150.33,-23.17 154.25,-28.98"/>
</a>
</g>
</g>
<!-- Node2&#45;&gt;Node4 -->
<g id="edge3_Node000002_Node000004" class="edge">
<title>Node2&#45;&gt;Node4</title>
<g id="a_edge3_Node000002_Node000004"><a xlink:title=" ">
<path fill="none" stroke="#63b8ff" d="M83.43,-55.59C73.19,-47.7 58.34,-36.24 46.26,-26.92"/>
<polygon fill="#63b8ff" stroke="#63b8ff" points="48.73,-23.64 38.68,-20.3 44.46,-29.18 48.73,-23.64"/>
</a>
</g>
</g>
<!-- Node5 -->
<g id="Node000005" class="node">
<title>Node5</title>
<g id="a_Node000005"><a xlink:title=" ">
<polygon fill="#e0e0e0" stroke="#999999" points="128,-20 69.25,-20 69.25,0 128,0 128,-20"/>
<text text-anchor="middle" x="98.62" y="-6.5" font-family="Helvetica,sans-Serif" font-size="10.00">stdexcept</text>
</a>
</g>
</g>
<!-- Node2&#45;&gt;Node5 -->
<g id="edge4_Node000002_Node000005" class="edge">
<title>Node2&#45;&gt;Node5</title>
<g id="a_edge4_Node000002_Node000005"><a xlink:title=" ">
<path fill="none" stroke="#63b8ff" d="M96.15,-55.59C96.52,-48.86 97.04,-39.53 97.51,-31.15"/>
<polygon fill="#63b8ff" stroke="#63b8ff" points="101.05,-31.48 98.11,-21.3 94.06,-31.09 101.05,-31.48"/>
</a>
</g>
</g>
<!-- Node6&#45;&gt;Node2 -->
<g id="edge6_Node000006_Node000002" class="edge">
<title>Node6&#45;&gt;Node2</title>
<g id="a_edge6_Node000006_Node000002"><a xlink:title=" ">
<path fill="none" stroke="#63b8ff" d="M227.76,-111.59C201.76,-102.82 162.76,-89.66 133.86,-79.9"/>
<polygon fill="#63b8ff" stroke="#63b8ff" points="135.31,-76.36 124.71,-76.48 133.07,-82.99 135.31,-76.36"/>
</a>
</g>
</g>
<!-- Node6&#45;&gt;Node3 -->
<g id="edge7_Node000006_Node000003" class="edge">
<title>Node6&#45;&gt;Node3</title>
<g id="a_edge7_Node000006_Node000003"><a xlink:title=" ">
<path fill="none" stroke="#63b8ff" d="M225.6,-111.54C208.74,-104.56 189.04,-93.22 178.62,-76 170.48,-62.54 170.31,-44.5 171.85,-30.84"/>
<polygon fill="#63b8ff" stroke="#63b8ff" points="175.42,-31.6 173.48,-21.18 168.5,-30.54 175.42,-31.6"/>
</a>
</g>
</g>
<!-- Node7 -->
<g id="Node000007" class="node">
<title>Node7</title>
<g id="a_Node000007"><a xlink:title=" ">
<polygon fill="#e0e0e0" stroke="#999999" points="323.25,-76 188,-76 188,-56 323.25,-56 323.25,-76"/>
<text text-anchor="middle" x="255.62" y="-62.5" font-family="Helvetica,sans-Serif" font-size="10.00">boost/beast/http/status.hpp</text>
</a>
</g>
</g>
<!-- Node6&#45;&gt;Node7 -->
<g id="edge8_Node000006_Node000007" class="edge">
<title>Node6&#45;&gt;Node7</title>
<g id="a_edge8_Node000006_Node000007"><a xlink:title=" ">
<path fill="none" stroke="#63b8ff" d="M255.62,-111.59C255.62,-104.86 255.62,-95.53 255.62,-87.15"/>
<polygon fill="#63b8ff" stroke="#63b8ff" points="259.13,-87.3 255.62,-77.3 252.13,-87.3 259.13,-87.3"/>
</a>
</g>
</g>
<!-- Node6&#45;&gt;Node8 -->
<g id="edge9_Node000006_Node000008" class="edge">
<title>Node6&#45;&gt;Node8</title>
<g id="a_edge9_Node000006_Node000008"><a xlink:title=" ">
<path fill="none" stroke="#63b8ff" d="M274.09,-111.59C290.4,-103.28 314.45,-91.03 333.22,-81.47"/>
<polygon fill="#63b8ff" stroke="#63b8ff" points="334.7,-84.14 342.02,-76.48 331.52,-77.9 334.7,-84.14"/>
</a>
</g>
</g>
<!-- Node9&#45;&gt;Node10 -->
<g id="edge11_Node000009_Node000010" class="edge">
<title>Node9&#45;&gt;Node10</title>
<g id="a_edge11_Node000009_Node000010"><a xlink:title=" ">
<path fill="none" stroke="#63b8ff" d="M471.85,-111.59C475.81,-104.47 481.37,-94.45 486.23,-85.72"/>
<polygon fill="#63b8ff" stroke="#63b8ff" points="489.66,-87.74 491.46,-77.3 483.54,-84.34 489.66,-87.74"/>
</a>
</g>
</g>
</g>
</svg>
