<?xml version="1.0" encoding="UTF-8" standalone="no"?>
<!DOCTYPE svg PUBLIC "-//W3C//DTD SVG 1.1//EN"
 "http://www.w3.org/Graphics/SVG/1.1/DTD/svg11.dtd">
<!-- Generated by graphviz version 2.44.1 (20211215.1903)
 -->
<!-- Title: include/roar/curl/response.hpp Pages: 1 -->
<svg width="334pt" height="140pt"
 viewBox="0.00 0.00 334.00 140.00" xmlns="http://www.w3.org/2000/svg" xmlns:xlink="http://www.w3.org/1999/xlink">
<g id="graph0" class="graph" transform="scale(1 1) rotate(0) translate(4 136)">
<title>include/roar/curl/response.hpp</title>
<!-- Node1 -->
<g id="node1" class="node">
<title>Node1</title>
<g id="a_node1"><a xlink:title=" ">
<polygon fill="#bfbfbf" stroke="black" points="94.5,-112.5 94.5,-131.5 241.5,-131.5 241.5,-112.5 94.5,-112.5"/>
<text text-anchor="middle" x="168" y="-119.5" font-family="Helvetica,sans-Serif" font-size="10.00">include/roar/curl/response.hpp</text>
</a>
</g>
</g>
<!-- Node2 -->
<g id="node2" class="node">
<title>Node2</title>
<g id="a_node2"><a xlink:href="curl_2request_8hpp.html" target="_top" xlink:title=" ">
<polygon fill="none" stroke="black" points="0,-56.5 0,-75.5 140,-75.5 140,-56.5 0,-56.5"/>
<text text-anchor="middle" x="70" y="-63.5" font-family="Helvetica,sans-Serif" font-size="10.00">include/roar/curl/request.hpp</text>
</a>
</g>
</g>
<!-- Node1&#45;&gt;Node2 -->
<g id="edge1" class="edge">
<title>Node1&#45;&gt;Node2</title>
<path fill="none" stroke="midnightblue" d="M143.41,-107.45C125.32,-97.48 101.27,-84.23 85.71,-75.65"/>
<polygon fill="midnightblue" stroke="midnightblue" points="141.81,-110.56 152.25,-112.32 145.19,-104.43 141.81,-110.56"/>
</g>
<!-- Node3 -->
<g id="node3" class="node">
<title>Node3</title>
<g id="a_node3"><a xlink:href="curl_2request_8cpp.html" target="_top" xlink:title=" ">
<polygon fill="none" stroke="black" points="58,-0.5 58,-19.5 180,-19.5 180,-0.5 58,-0.5"/>
<text text-anchor="middle" x="119" y="-7.5" font-family="Helvetica,sans-Serif" font-size="10.00">src/roar/curl/request.cpp</text>
</a>
</g>
</g>
<!-- Node1&#45;&gt;Node3 -->
<g id="edge3" class="edge">
<title>Node1&#45;&gt;Node3</title>
<path fill="none" stroke="midnightblue" d="M164.16,-102.42C161.03,-89.12 155.99,-70.99 149,-56 142.73,-42.55 132.77,-28.56 126.07,-19.82"/>
<polygon fill="midnightblue" stroke="midnightblue" points="160.76,-103.28 166.33,-112.29 167.6,-101.77 160.76,-103.28"/>
</g>
<!-- Node4 -->
<g id="node4" class="node">
<title>Node4</title>
<g id="a_node4"><a xlink:href="response_8cpp.html" target="_top" xlink:title=" ">
<polygon fill="none" stroke="black" points="196,-56.5 196,-75.5 326,-75.5 326,-56.5 196,-56.5"/>
<text text-anchor="middle" x="261" y="-63.5" font-family="Helvetica,sans-Serif" font-size="10.00">src/roar/curl/response.cpp</text>
</a>
</g>
</g>
<!-- Node1&#45;&gt;Node4 -->
<g id="edge4" class="edge">
<title>Node1&#45;&gt;Node4</title>
<path fill="none" stroke="midnightblue" d="M191.81,-107.18C208.92,-97.24 231.47,-84.15 246.1,-75.65"/>
<polygon fill="midnightblue" stroke="midnightblue" points="189.83,-104.28 182.94,-112.32 193.35,-110.33 189.83,-104.28"/>
</g>
<!-- Node2&#45;&gt;Node3 -->
<g id="edge2" class="edge">
<title>Node2&#45;&gt;Node3</title>
<path fill="none" stroke="midnightblue" d="M85.03,-48.43C93.62,-38.97 104.04,-27.48 111.06,-19.75"/>
<polygon fill="midnightblue" stroke="midnightblue" points="82.22,-46.33 78.09,-56.08 87.4,-51.03 82.22,-46.33"/>
</g>
</g>
</svg>
