<?xml version="1.0" encoding="UTF-8" standalone="no"?>
<!DOCTYPE svg PUBLIC "-//W3C//DTD SVG 1.1//EN"
 "http://www.w3.org/Graphics/SVG/1.1/DTD/svg11.dtd">
<!-- Generated by graphviz version 8.1.0 (0)
 -->
<!-- Title: include/roar/directory_server/default_listing_style.hpp Pages: 1 -->
<svg width="1200pt" height="196pt"
 viewBox="0.00 0.00 1199.62 196.00" xmlns="http://www.w3.org/2000/svg" xmlns:xlink="http://www.w3.org/1999/xlink">
<g id="graph0" class="graph" transform="scale(1 1) rotate(0) translate(4 192)">
<title>include/roar/directory_server/default_listing_style.hpp</title>
<!-- Node1 -->
<g id="Node000001" class="node">
<title>Node1</title>
<g id="a_Node000001"><a xlink:title=" ">
<polygon fill="#999999" stroke="#666666" points="757.25,-188 510.25,-188 510.25,-168 757.25,-168 757.25,-188"/>
<text text-anchor="middle" x="633.75" y="-174.5" font-family="Helvetica,sans-Serif" font-size="10.00">include/roar/directory_server/default_listing_style.hpp</text>
</a>
</g>
</g>
<!-- Node2 -->
<g id="Node000002" class="node">
<title>Node2</title>
<g id="a_Node000002"><a xlink:href="directory__server_8hpp.html" target="_top" xlink:title=" ">
<polygon fill="white" stroke="#666666" points="749,-132 518.5,-132 518.5,-112 749,-112 749,-132"/>
<text text-anchor="middle" x="633.75" y="-118.5" font-family="Helvetica,sans-Serif" font-size="10.00">include/roar/directory_server/directory_server.hpp</text>
</a>
</g>
</g>
<!-- Node1&#45;&gt;Node2 -->
<g id="edge1_Node000001_Node000002" class="edge">
<title>Node1&#45;&gt;Node2</title>
<g id="a_edge1_Node000001_Node000002"><a xlink:title=" ">
<path fill="none" stroke="#63b8ff" d="M633.75,-156.71C633.75,-148.32 633.75,-139.01 633.75,-132.3"/>
<polygon fill="#63b8ff" stroke="#63b8ff" points="630.25,-156.59 633.75,-166.59 637.25,-156.59 630.25,-156.59"/>
</a>
</g>
</g>
<!-- Node3 -->
<g id="Node000003" class="node">
<title>Node3</title>
<g id="a_Node000003"><a xlink:href="server_8hpp.html" target="_top" xlink:title=" ">
<polygon fill="white" stroke="#666666" points="691.25,-76 576.25,-76 576.25,-56 691.25,-56 691.25,-76"/>
<text text-anchor="middle" x="633.75" y="-62.5" font-family="Helvetica,sans-Serif" font-size="10.00">include/roar/server.hpp</text>
</a>
</g>
</g>
<!-- Node2&#45;&gt;Node3 -->
<g id="edge2_Node000002_Node000003" class="edge">
<title>Node2&#45;&gt;Node3</title>
<g id="a_edge2_Node000002_Node000003"><a xlink:title=" ">
<path fill="none" stroke="#63b8ff" d="M633.75,-100.71C633.75,-92.32 633.75,-83.01 633.75,-76.3"/>
<polygon fill="#63b8ff" stroke="#63b8ff" points="630.25,-100.59 633.75,-110.59 637.25,-100.59 630.25,-100.59"/>
</a>
</g>
</g>
<!-- Node4 -->
<g id="Node000004" class="node">
<title>Node4</title>
<g id="a_Node000004"><a xlink:href="100__continue_2main_8cpp.html" target="_top" xlink:title=" ">
<polygon fill="white" stroke="#666666" points="161.5,-20 0,-20 0,0 161.5,0 161.5,-20"/>
<text text-anchor="middle" x="80.75" y="-6.5" font-family="Helvetica,sans-Serif" font-size="10.00">examples/100_continue/main.cpp</text>
</a>
</g>
</g>
<!-- Node3&#45;&gt;Node4 -->
<g id="edge3_Node000003_Node000004" class="edge">
<title>Node3&#45;&gt;Node4</title>
<g id="a_edge3_Node000003_Node000004"><a xlink:title=" ">
<path fill="none" stroke="#63b8ff" d="M565.08,-58.39C474.67,-49.66 310.78,-33.81 170.75,-20 167.78,-19.71 164.76,-19.41 161.7,-19.11"/>
<polygon fill="#63b8ff" stroke="#63b8ff" points="564.71,-61.96 575,-59.44 565.38,-55 564.71,-61.96"/>
</a>
</g>
</g>
<!-- Node5 -->
<g id="Node000005" class="node">
<title>Node5</title>
<g id="a_Node000005"><a xlink:href="most__minimal_2main_8cpp.html" target="_top" xlink:title=" ">
<polygon fill="white" stroke="#666666" points="344,-20 179.5,-20 179.5,0 344,0 344,-20"/>
<text text-anchor="middle" x="261.75" y="-6.5" font-family="Helvetica,sans-Serif" font-size="10.00">examples/most_minimal/main.cpp</text>
</a>
</g>
</g>
<!-- Node3&#45;&gt;Node5 -->
<g id="edge4_Node000003_Node000005" class="edge">
<title>Node3&#45;&gt;Node5</title>
<g id="a_edge4_Node000003_Node000005"><a xlink:title=" ">
<path fill="none" stroke="#63b8ff" d="M565.45,-55.08C497.51,-45.22 394.02,-30.2 327.12,-20.49"/>
<polygon fill="#63b8ff" stroke="#63b8ff" points="564.63,-58.65 575.03,-56.62 565.64,-51.72 564.63,-58.65"/>
</a>
</g>
</g>
<!-- Node6 -->
<g id="Node000006" class="node">
<title>Node6</title>
<g id="a_Node000006"><a xlink:href="serve__directory_2main_8cpp.html" target="_top" xlink:title=" ">
<polygon fill="white" stroke="#666666" points="533,-20 362.5,-20 362.5,0 533,0 533,-20"/>
<text text-anchor="middle" x="447.75" y="-6.5" font-family="Helvetica,sans-Serif" font-size="10.00">examples/serve_directory/main.cpp</text>
</a>
</g>
</g>
<!-- Node3&#45;&gt;Node6 -->
<g id="edge5_Node000003_Node000006" class="edge">
<title>Node3&#45;&gt;Node6</title>
<g id="a_edge5_Node000003_Node000006"><a xlink:title=" ">
<path fill="none" stroke="#63b8ff" d="M590.9,-52.56C557.25,-42.79 511.1,-29.39 480.4,-20.48"/>
<polygon fill="#63b8ff" stroke="#63b8ff" points="589.77,-56.17 600.35,-55.59 591.72,-49.44 589.77,-56.17"/>
</a>
</g>
</g>
<!-- Node7 -->
<g id="Node000007" class="node">
<title>Node7</title>
<g id="a_Node000007"><a xlink:href="simple__server_2main_8cpp.html" target="_top" xlink:title=" ">
<polygon fill="white" stroke="#666666" points="716,-20 551.5,-20 551.5,0 716,0 716,-20"/>
<text text-anchor="middle" x="633.75" y="-6.5" font-family="Helvetica,sans-Serif" font-size="10.00">examples/simple_server/main.cpp</text>
</a>
</g>
</g>
<!-- Node3&#45;&gt;Node7 -->
<g id="edge6_Node000003_Node000007" class="edge">
<title>Node3&#45;&gt;Node7</title>
<g id="a_edge6_Node000003_Node000007"><a xlink:title=" ">
<path fill="none" stroke="#63b8ff" d="M633.75,-44.71C633.75,-36.32 633.75,-27.01 633.75,-20.3"/>
<polygon fill="#63b8ff" stroke="#63b8ff" points="630.25,-44.59 633.75,-54.59 637.25,-44.59 630.25,-44.59"/>
</a>
</g>
</g>
<!-- Node8 -->
<g id="Node000008" class="node">
<title>Node8</title>
<g id="a_Node000008"><a xlink:href="websocket_2main_8cpp.html" target="_top" xlink:title=" ">
<polygon fill="white" stroke="#666666" points="885.25,-20 734.25,-20 734.25,0 885.25,0 885.25,-20"/>
<text text-anchor="middle" x="809.75" y="-6.5" font-family="Helvetica,sans-Serif" font-size="10.00">examples/websocket/main.cpp</text>
</a>
</g>
</g>
<!-- Node3&#45;&gt;Node8 -->
<g id="edge7_Node000003_Node000008" class="edge">
<title>Node3&#45;&gt;Node8</title>
<g id="a_edge7_Node000003_Node000008"><a xlink:title=" ">
<path fill="none" stroke="#63b8ff" d="M674.71,-52.43C706.51,-42.67 749.93,-29.35 778.85,-20.48"/>
<polygon fill="#63b8ff" stroke="#63b8ff" points="673.94,-49.31 665.41,-55.59 675.99,-56.01 673.94,-49.31"/>
</a>
</g>
</g>
<!-- Node9 -->
<g id="Node000009" class="node">
<title>Node9</title>
<g id="a_Node000009"><a xlink:href="src_2roar_2routing_2request__listener_8cpp.html" target="_top" xlink:title=" ">
<polygon fill="white" stroke="#666666" points="1075.75,-20 903.75,-20 903.75,0 1075.75,0 1075.75,-20"/>
<text text-anchor="middle" x="989.75" y="-6.5" font-family="Helvetica,sans-Serif" font-size="10.00">src/roar/routing/request_listener.cpp</text>
</a>
</g>
</g>
<!-- Node3&#45;&gt;Node9 -->
<g id="edge8_Node000003_Node000009" class="edge">
<title>Node3&#45;&gt;Node9</title>
<g id="a_edge8_Node000003_Node000009"><a xlink:title=" ">
<path fill="none" stroke="#63b8ff" d="M702.3,-54.6C767.36,-44.73 864.32,-30.03 927.29,-20.47"/>
<polygon fill="#63b8ff" stroke="#63b8ff" points="702.1,-51.24 692.74,-56.2 703.15,-58.16 702.1,-51.24"/>
</a>
</g>
</g>
<!-- Node10 -->
<g id="Node000010" class="node">
<title>Node10</title>
<g id="a_Node000010"><a xlink:href="server_8cpp.html" target="_top" xlink:title=" ">
<polygon fill="white" stroke="#666666" points="1191.62,-20 1093.88,-20 1093.88,0 1191.62,0 1191.62,-20"/>
<text text-anchor="middle" x="1142.75" y="-6.5" font-family="Helvetica,sans-Serif" font-size="10.00">src/roar/server.cpp</text>
</a>
</g>
</g>
<!-- Node3&#45;&gt;Node10 -->
<g id="edge9_Node000003_Node000010" class="edge">
<title>Node3&#45;&gt;Node10</title>
<g id="a_edge9_Node000003_Node000010"><a xlink:title=" ">
<path fill="none" stroke="#63b8ff" d="M702.23,-59.34C790.72,-51.75 949.5,-37.23 1084.75,-20 1087.58,-19.64 1090.49,-19.25 1093.41,-18.84"/>
<polygon fill="#63b8ff" stroke="#63b8ff" points="702.2,-55.91 692.53,-60.25 702.79,-62.89 702.2,-55.91"/>
</a>
</g>
</g>
</g>
</svg>
