<?xml version="1.0" encoding="UTF-8" standalone="no"?>
<!DOCTYPE svg PUBLIC "-//W3C//DTD SVG 1.1//EN"
 "http://www.w3.org/Graphics/SVG/1.1/DTD/svg11.dtd">
<!-- Generated by graphviz version 2.44.1 (20211215.1903)
 -->
<!-- Title: src/roar/authorization/digest_auth.cpp Pages: 1 -->
<svg width="711pt" height="140pt"
 viewBox="0.00 0.00 710.50 140.00" xmlns="http://www.w3.org/2000/svg" xmlns:xlink="http://www.w3.org/1999/xlink">
<g id="graph0" class="graph" transform="scale(1 1) rotate(0) translate(4 136)">
<title>src/roar/authorization/digest_auth.cpp</title>
<!-- Node1 -->
<g id="node1" class="node">
<title>Node1</title>
<g id="a_node1"><a xlink:title=" ">
<polygon fill="#bfbfbf" stroke="black" points="311,-112.5 311,-131.5 491,-131.5 491,-112.5 311,-112.5"/>
<text text-anchor="middle" x="401" y="-119.5" font-family="Helvetica,sans-Serif" font-size="10.00">src/roar/authorization/digest_auth.cpp</text>
</a>
</g>
</g>
<!-- Node2 -->
<g id="node2" class="node">
<title>Node2</title>
<g id="a_node2"><a xlink:href="digest__auth_8hpp.html" target="_top" xlink:title=" ">
<polygon fill="none" stroke="black" points="7,-56.5 7,-75.5 171,-75.5 171,-56.5 7,-56.5"/>
<text text-anchor="middle" x="89" y="-63.5" font-family="Helvetica,sans-Serif" font-size="10.00">roar/authorization/digest_auth.hpp</text>
</a>
</g>
</g>
<!-- Node1&#45;&gt;Node2 -->
<g id="edge1" class="edge">
<title>Node1&#45;&gt;Node2</title>
<path fill="none" stroke="midnightblue" d="M351.56,-112.44C296.34,-102.89 206.98,-87.42 148.11,-77.23"/>
<polygon fill="midnightblue" stroke="midnightblue" points="148.66,-73.77 138.21,-75.52 147.46,-80.67 148.66,-73.77"/>
</g>
<!-- Node6 -->
<g id="node6" class="node">
<title>Node6</title>
<g id="a_node6"><a xlink:href="fixed__string_8hpp.html" target="_top" xlink:title=" ">
<polygon fill="none" stroke="black" points="189.5,-56.5 189.5,-75.5 320.5,-75.5 320.5,-56.5 189.5,-56.5"/>
<text text-anchor="middle" x="255" y="-63.5" font-family="Helvetica,sans-Serif" font-size="10.00">roar/detail/fixed_string.hpp</text>
</a>
</g>
</g>
<!-- Node1&#45;&gt;Node6 -->
<g id="edge5" class="edge">
<title>Node1&#45;&gt;Node6</title>
<path fill="none" stroke="midnightblue" d="M377.87,-112.44C353.52,-103.44 314.99,-89.19 287.58,-79.05"/>
<polygon fill="midnightblue" stroke="midnightblue" points="288.62,-75.7 278.03,-75.52 286.19,-82.27 288.62,-75.7"/>
</g>
<!-- Node7 -->
<g id="node7" class="node">
<title>Node7</title>
<g id="a_node7"><a xlink:title=" ">
<polygon fill="none" stroke="#bfbfbf" points="339,-56.5 339,-75.5 463,-75.5 463,-56.5 339,-56.5"/>
<text text-anchor="middle" x="401" y="-63.5" font-family="Helvetica,sans-Serif" font-size="10.00">boost/spirit/home/x3.hpp</text>
</a>
</g>
</g>
<!-- Node1&#45;&gt;Node7 -->
<g id="edge6" class="edge">
<title>Node1&#45;&gt;Node7</title>
<path fill="none" stroke="midnightblue" d="M401,-112.08C401,-105.01 401,-94.86 401,-85.99"/>
<polygon fill="midnightblue" stroke="midnightblue" points="404.5,-85.75 401,-75.75 397.5,-85.75 404.5,-85.75"/>
</g>
<!-- Node8 -->
<g id="node8" class="node">
<title>Node8</title>
<g id="a_node8"><a xlink:title=" ">
<polygon fill="none" stroke="#bfbfbf" points="481,-56.5 481,-75.5 635,-75.5 635,-56.5 481,-56.5"/>
<text text-anchor="middle" x="558" y="-63.5" font-family="Helvetica,sans-Serif" font-size="10.00">boost/fusion/adapted/struct.hpp</text>
</a>
</g>
</g>
<!-- Node1&#45;&gt;Node8 -->
<g id="edge7" class="edge">
<title>Node1&#45;&gt;Node8</title>
<path fill="none" stroke="midnightblue" d="M425.88,-112.44C452.29,-103.36 494.22,-88.94 523.74,-78.78"/>
<polygon fill="midnightblue" stroke="midnightblue" points="524.92,-82.08 533.24,-75.52 522.64,-75.46 524.92,-82.08"/>
</g>
<!-- Node9 -->
<g id="node9" class="node">
<title>Node9</title>
<g id="a_node9"><a xlink:title=" ">
<polygon fill="none" stroke="#bfbfbf" points="653.5,-56.5 653.5,-75.5 702.5,-75.5 702.5,-56.5 653.5,-56.5"/>
<text text-anchor="middle" x="678" y="-63.5" font-family="Helvetica,sans-Serif" font-size="10.00">cstddef</text>
</a>
</g>
</g>
<!-- Node1&#45;&gt;Node9 -->
<g id="edge8" class="edge">
<title>Node1&#45;&gt;Node9</title>
<path fill="none" stroke="midnightblue" d="M453.37,-112.48C500.53,-104.54 571.93,-91.87 643.13,-76.06"/>
<polygon fill="midnightblue" stroke="midnightblue" points="644.18,-79.41 653.17,-73.8 642.65,-72.58 644.18,-79.41"/>
</g>
<!-- Node3 -->
<g id="node3" class="node">
<title>Node3</title>
<g id="a_node3"><a xlink:title=" ">
<polygon fill="none" stroke="#bfbfbf" points="0,-0.5 0,-19.5 50,-19.5 50,-0.5 0,-0.5"/>
<text text-anchor="middle" x="25" y="-7.5" font-family="Helvetica,sans-Serif" font-size="10.00">optional</text>
</a>
</g>
</g>
<!-- Node2&#45;&gt;Node3 -->
<g id="edge2" class="edge">
<title>Node2&#45;&gt;Node3</title>
<path fill="none" stroke="midnightblue" d="M78.72,-56.32C69.16,-48.26 54.72,-36.08 43.22,-26.37"/>
<polygon fill="midnightblue" stroke="midnightblue" points="45.37,-23.61 35.47,-19.83 40.86,-28.96 45.37,-23.61"/>
</g>
<!-- Node4 -->
<g id="node4" class="node">
<title>Node4</title>
<g id="a_node4"><a xlink:title=" ">
<polygon fill="none" stroke="#bfbfbf" points="68.5,-0.5 68.5,-19.5 109.5,-19.5 109.5,-0.5 68.5,-0.5"/>
<text text-anchor="middle" x="89" y="-7.5" font-family="Helvetica,sans-Serif" font-size="10.00">string</text>
</a>
</g>
</g>
<!-- Node2&#45;&gt;Node4 -->
<g id="edge3" class="edge">
<title>Node2&#45;&gt;Node4</title>
<path fill="none" stroke="midnightblue" d="M89,-56.08C89,-49.01 89,-38.86 89,-29.99"/>
<polygon fill="midnightblue" stroke="midnightblue" points="92.5,-29.75 89,-19.75 85.5,-29.75 92.5,-29.75"/>
</g>
<!-- Node5 -->
<g id="node5" class="node">
<title>Node5</title>
<g id="a_node5"><a xlink:title=" ">
<polygon fill="none" stroke="#bfbfbf" points="128,-0.5 128,-19.5 194,-19.5 194,-0.5 128,-0.5"/>
<text text-anchor="middle" x="161" y="-7.5" font-family="Helvetica,sans-Serif" font-size="10.00">string_view</text>
</a>
</g>
</g>
<!-- Node2&#45;&gt;Node5 -->
<g id="edge4" class="edge">
<title>Node2&#45;&gt;Node5</title>
<path fill="none" stroke="midnightblue" d="M100.57,-56.32C111.42,-48.18 127.88,-35.84 140.88,-26.09"/>
<polygon fill="midnightblue" stroke="midnightblue" points="143.32,-28.63 149.22,-19.83 139.12,-23.03 143.32,-28.63"/>
</g>
</g>
</svg>
