<?xml version="1.0" encoding="UTF-8" standalone="no"?>
<!DOCTYPE svg PUBLIC "-//W3C//DTD SVG 1.1//EN"
 "http://www.w3.org/Graphics/SVG/1.1/DTD/svg11.dtd">
<!-- Generated by graphviz version 8.1.0 (0)
 -->
<!-- Title: include/roar/authorization/digest_auth.hpp Pages: 1 -->
<!--zoomable 420 -->

<svg id="main" version="1.1" xmlns="http://www.w3.org/2000/svg" xmlns:xlink="http://www.w3.org/1999/xlink" xml:space="preserve" onload="init(evt)">
<style type="text/css"><![CDATA[
.node, .edge {opacity: 0.7;}
.node.selected, .edge.selected {opacity: 1;}
.edge:hover path { stroke: red; }
.edge:hover polygon { stroke: red; fill: red; }
]]></style>

<defs>
  <circle id="rim" cx="0" cy="0" r="7"/>
  <circle id="rim2" cx="0" cy="0" r="3.5"/>
  <g id="zoomPlus">
    <use xlink:href="#rim" fill="#404040"><set attributeName="fill" to="#808080" begin="zoomplus.mouseover" end="zoomplus.mouseout"/></use>
    <path d="M-4,0h8M0,-4v8" fill="none" stroke="white" stroke-width="1.5" pointer-events="none"/>
  </g>
  <g id="zoomMin">
    <use xlink:href="#rim" fill="#404040"><set attributeName="fill" to="#808080" begin="zoomminus.mouseover" end="zoomminus.mouseout"/></use>
    <path d="M-4,0h8" fill="none" stroke="white" stroke-width="1.5" pointer-events="none"/>
  </g>
  <g id="arrowUp" transform="translate(30 24)">
    <use xlink:href="#rim"/>
    <path pointer-events="none" fill="none" stroke="white" stroke-width="1.5" d="M0,-3.0v7 M-2.5,-0.5L0,-3.0L2.5,-0.5"/>
  </g>
  <g id="arrowRight" transform="rotate(90) translate(36 -43)">
    <use xlink:href="#rim"/>
    <path pointer-events="none" fill="none" stroke="white" stroke-width="1.5" d="M0,-3.0v7 M-2.5,-0.5L0,-3.0L2.5,-0.5"/>
  </g>
  <g id="arrowDown" transform="rotate(180) translate(-30 -48)">
    <use xlink:href="#rim"/>
    <path pointer-events="none" fill="none" stroke="white" stroke-width="1.5" d="M0,-3.0v7 M-2.5,-0.5L0,-3.0L2.5,-0.5"/>
  </g>
  <g id="arrowLeft" transform="rotate(270) translate(-36 17)">
    <use xlink:href="#rim"/>
    <path pointer-events="none" fill="none" stroke="white" stroke-width="1.5" d="M0,-3.0v7 M-2.5,-0.5L0,-3.0L2.5,-0.5"/>
  </g>
  <g id="resetDef">
    <use xlink:href="#rim2" fill="#404040"><set attributeName="fill" to="#808080" begin="reset.mouseover" end="reset.mouseout"/></use>
  </g>
</defs>
<script type="application/ecmascript">
var viewWidth = 1771;
var viewHeight = 420;
var sectionId = 'dynsection-1';
</script>
<script type="application/ecmascript" xlink:href="svg.min.js"/>
<svg id="graph" class="graph">
<g id="viewport">
<title>include/roar/authorization/digest_auth.hpp</title>
<!-- Node1 -->
<g id="Node000001" class="node">
<title>Node1</title>
<g id="a_Node000001"><a xlink:title=" ">
<polygon fill="#999999" stroke="#666666" points="828,-412 631.25,-412 631.25,-392 828,-392 828,-412"/>
<text text-anchor="middle" x="729.62" y="-398.5" font-family="Helvetica,sans-Serif" font-size="10.00">include/roar/authorization/digest_auth.hpp</text>
</a>
</g>
</g>
<!-- Node2 -->
<g id="Node000002" class="node">
<title>Node2</title>
<g id="a_Node000002"><a xlink:href="request_8hpp.html" target="_top" xlink:title=" ">
<polygon fill="white" stroke="#666666" points="705.75,-356 585.5,-356 585.5,-336 705.75,-336 705.75,-356"/>
<text text-anchor="middle" x="645.62" y="-342.5" font-family="Helvetica,sans-Serif" font-size="10.00">include/roar/request.hpp</text>
</a>
</g>
</g>
<!-- Node1&#45;&gt;Node2 -->
<g id="edge1_Node000001_Node000002" class="edge">
<title>Node1&#45;&gt;Node2</title>
<g id="a_edge1_Node000001_Node000002"><a xlink:title=" ">
<path fill="none" stroke="#63b8ff" d="M706,-385.81C691.35,-376.39 672.98,-364.58 660.37,-356.48"/>
<polygon fill="#63b8ff" stroke="#63b8ff" points="703.69,-389.13 713.99,-391.59 707.47,-383.24 703.69,-389.13"/>
</a>
</g>
</g>
<!-- Node30 -->
<g id="Node000030" class="node">
<title>Node30</title>
<g id="a_Node000030"><a xlink:href="digest__auth_8cpp.html" target="_top" xlink:title=" ">
<polygon fill="white" stroke="#666666" points="903.38,-356 723.88,-356 723.88,-336 903.38,-336 903.38,-356"/>
<text text-anchor="middle" x="813.62" y="-342.5" font-family="Helvetica,sans-Serif" font-size="10.00">src/roar/authorization/digest_auth.cpp</text>
</a>
</g>
</g>
<!-- Node1&#45;&gt;Node30 -->
<g id="edge47_Node000001_Node000030" class="edge">
<title>Node1&#45;&gt;Node30</title>
<g id="a_edge47_Node000001_Node000030"><a xlink:title=" ">
<path fill="none" stroke="#63b8ff" d="M753.25,-385.81C767.9,-376.39 786.27,-364.58 798.88,-356.48"/>
<polygon fill="#63b8ff" stroke="#63b8ff" points="751.78,-383.24 745.26,-391.59 755.56,-389.13 751.78,-383.24"/>
</a>
</g>
</g>
<!-- Node3 -->
<g id="Node000003" class="node">
<title>Node3</title>
<g id="a_Node000003"><a xlink:href="client_8hpp.html" target="_top" xlink:title=" ">
<polygon fill="white" stroke="#666666" points="111.25,-244 0,-244 0,-224 111.25,-224 111.25,-244"/>
<text text-anchor="middle" x="55.62" y="-230.5" font-family="Helvetica,sans-Serif" font-size="10.00">include/roar/client.hpp</text>
</a>
</g>
</g>
<!-- Node2&#45;&gt;Node3 -->
<g id="edge2_Node000002_Node000003" class="edge">
<title>Node2&#45;&gt;Node3</title>
<g id="a_edge2_Node000002_Node000003"><a xlink:title=" ">
<path fill="none" stroke="#63b8ff" d="M574.54,-344.51C451.41,-342.74 204.13,-334.81 125.62,-300 97.43,-287.5 73.25,-258.85 62.14,-244.12"/>
<polygon fill="#63b8ff" stroke="#63b8ff" points="574.29,-348.02 584.34,-344.66 574.38,-341.02 574.29,-348.02"/>
</a>
</g>
</g>
<!-- Node5 -->
<g id="Node000005" class="node">
<title>Node5</title>
<g id="a_Node000005"><a xlink:href="response_8hpp.html" target="_top" xlink:title=" ">
<polygon fill="white" stroke="#666666" points="546.5,-300 418.75,-300 418.75,-280 546.5,-280 546.5,-300"/>
<text text-anchor="middle" x="482.62" y="-286.5" font-family="Helvetica,sans-Serif" font-size="10.00">include/roar/response.hpp</text>
</a>
</g>
</g>
<!-- Node2&#45;&gt;Node5 -->
<g id="edge4_Node000002_Node000005" class="edge">
<title>Node2&#45;&gt;Node5</title>
<g id="a_edge4_Node000002_Node000005"><a xlink:title=" ">
<path fill="none" stroke="#63b8ff" d="M606.92,-332.18C577.54,-322.44 537.8,-309.28 511.24,-300.48"/>
<polygon fill="#63b8ff" stroke="#63b8ff" points="605.64,-335.77 616.23,-335.59 607.84,-329.13 605.64,-335.77"/>
</a>
</g>
</g>
<!-- Node8 -->
<g id="Node000008" class="node">
<title>Node8</title>
<g id="a_Node000008"><a xlink:href="server_8hpp.html" target="_top" xlink:title=" ">
<polygon fill="white" stroke="#666666" points="536.12,-76 421.12,-76 421.12,-56 536.12,-56 536.12,-76"/>
<text text-anchor="middle" x="478.62" y="-62.5" font-family="Helvetica,sans-Serif" font-size="10.00">include/roar/server.hpp</text>
</a>
</g>
</g>
<!-- Node2&#45;&gt;Node8 -->
<g id="edge43_Node000002_Node000008" class="edge">
<title>Node2&#45;&gt;Node8</title>
<g id="a_edge43_Node000002_Node000008"><a xlink:title=" ">
<path fill="none" stroke="#63b8ff" d="M574.48,-344.36C472.55,-338.99 289.46,-311.66 218.62,-188 201.83,-158.69 196.87,-137.84 218.62,-112 243.96,-81.9 352.33,-71.94 420.91,-68.63"/>
<polygon fill="#63b8ff" stroke="#63b8ff" points="574.13,-347.89 584.29,-344.86 574.46,-340.9 574.13,-347.89"/>
</a>
</g>
</g>
<!-- Node16 -->
<g id="Node000016" class="node">
<title>Node16</title>
<g id="a_Node000016"><a xlink:href="include_2roar_2routing_2request__listener_8hpp.html" target="_top" xlink:title=" ">
<polygon fill="white" stroke="#666666" points="768.25,-188 579,-188 579,-168 768.25,-168 768.25,-188"/>
<text text-anchor="middle" x="673.62" y="-174.5" font-family="Helvetica,sans-Serif" font-size="10.00">include/roar/routing/request_listener.hpp</text>
</a>
</g>
</g>
<!-- Node2&#45;&gt;Node16 -->
<g id="edge42_Node000002_Node000016" class="edge">
<title>Node2&#45;&gt;Node16</title>
<g id="a_edge42_Node000002_Node000016"><a xlink:title=" ">
<path fill="none" stroke="#63b8ff" d="M649,-324.97C655.08,-288.92 667.65,-214.42 672.06,-188.3"/>
<polygon fill="#63b8ff" stroke="#63b8ff" points="645.42,-324.16 647.21,-334.6 652.33,-325.32 645.42,-324.16"/>
</a>
</g>
</g>
<!-- Node26 -->
<g id="Node000026" class="node">
<title>Node26</title>
<g id="a_Node000026"><a xlink:href="router_8cpp.html" target="_top" xlink:title=" ">
<polygon fill="white" stroke="#666666" points="914.5,-188 786.75,-188 786.75,-168 914.5,-168 914.5,-188"/>
<text text-anchor="middle" x="850.62" y="-174.5" font-family="Helvetica,sans-Serif" font-size="10.00">src/roar/routing/router.cpp</text>
</a>
</g>
</g>
<!-- Node2&#45;&gt;Node26 -->
<g id="edge44_Node000002_Node000026" class="edge">
<title>Node2&#45;&gt;Node26</title>
<g id="a_edge44_Node000002_Node000026"><a xlink:title=" ">
<path fill="none" stroke="#63b8ff" d="M655.79,-326.2C660.11,-318.15 665.16,-308.64 669.62,-300 686.96,-266.45 678.89,-248.5 707.62,-224 729.71,-205.17 759.68,-194.21 786.48,-187.83"/>
<polygon fill="#63b8ff" stroke="#63b8ff" points="652.32,-324.27 650.66,-334.73 658.48,-327.59 652.32,-324.27"/>
</a>
</g>
</g>
<!-- Node28 -->
<g id="Node000028" class="node">
<title>Node28</title>
<g id="a_Node000028"><a xlink:href="session_8cpp.html" target="_top" xlink:title=" ">
<polygon fill="white" stroke="#666666" points="1074.25,-188 933,-188 933,-168 1074.25,-168 1074.25,-188"/>
<text text-anchor="middle" x="1003.62" y="-174.5" font-family="Helvetica,sans-Serif" font-size="10.00">src/roar/session/session.cpp</text>
</a>
</g>
</g>
<!-- Node2&#45;&gt;Node28 -->
<g id="edge45_Node000002_Node000028" class="edge">
<title>Node2&#45;&gt;Node28</title>
<g id="a_edge45_Node000002_Node000028"><a xlink:title=" ">
<path fill="none" stroke="#63b8ff" d="M665.88,-329.07C684.54,-314.92 713.38,-294.3 740.62,-280 820.53,-238.06 921.86,-204.11 972.24,-188.42"/>
<polygon fill="#63b8ff" stroke="#63b8ff" points="664.14,-326.76 658.35,-335.64 668.41,-332.31 664.14,-326.76"/>
</a>
</g>
</g>
<!-- Node29 -->
<g id="Node000029" class="node">
<title>Node29</title>
<g id="a_Node000029"><a xlink:href="websocket__session_8cpp.html" target="_top" xlink:title=" ">
<polygon fill="white" stroke="#666666" points="957.25,-300 750,-300 750,-280 957.25,-280 957.25,-300"/>
<text text-anchor="middle" x="853.62" y="-286.5" font-family="Helvetica,sans-Serif" font-size="10.00">src/roar/websocket/websocket_session.cpp</text>
</a>
</g>
</g>
<!-- Node2&#45;&gt;Node29 -->
<g id="edge46_Node000002_Node000029" class="edge">
<title>Node2&#45;&gt;Node29</title>
<g id="a_edge46_Node000002_Node000029"><a xlink:title=" ">
<path fill="none" stroke="#63b8ff" d="M692.08,-332.94C729.83,-323.14 782.33,-309.51 817.11,-300.48"/>
<polygon fill="#63b8ff" stroke="#63b8ff" points="691.66,-329.69 682.86,-335.59 693.41,-336.47 691.66,-329.69"/>
</a>
</g>
</g>
<!-- Node4 -->
<g id="Node000004" class="node">
<title>Node4</title>
<g id="a_Node000004"><a xlink:href="client_8cpp.html" target="_top" xlink:title=" ">
<polygon fill="white" stroke="#666666" points="102.62,-188 8.62,-188 8.62,-168 102.62,-168 102.62,-188"/>
<text text-anchor="middle" x="55.62" y="-174.5" font-family="Helvetica,sans-Serif" font-size="10.00">src/roar/client.cpp</text>
</a>
</g>
</g>
<!-- Node3&#45;&gt;Node4 -->
<g id="edge3_Node000003_Node000004" class="edge">
<title>Node3&#45;&gt;Node4</title>
<g id="a_edge3_Node000003_Node000004"><a xlink:title=" ">
<path fill="none" stroke="#63b8ff" d="M55.62,-212.71C55.62,-204.32 55.62,-195.01 55.62,-188.3"/>
<polygon fill="#63b8ff" stroke="#63b8ff" points="52.13,-212.59 55.62,-222.59 59.13,-212.59 52.13,-212.59"/>
</a>
</g>
</g>
<!-- Node5&#45;&gt;Node3 -->
<g id="edge5_Node000005_Node000003" class="edge">
<title>Node5&#45;&gt;Node3</title>
<g id="a_edge5_Node000005_Node000003"><a xlink:title=" ">
<path fill="none" stroke="#63b8ff" d="M407.88,-279.55C323.26,-268.85 187.36,-251.66 111.47,-242.06"/>
<polygon fill="#63b8ff" stroke="#63b8ff" points="407.34,-283.13 417.7,-280.92 408.22,-276.19 407.34,-283.13"/>
</a>
</g>
</g>
<!-- Node6 -->
<g id="Node000006" class="node">
<title>Node6</title>
<g id="a_Node000006"><a xlink:href="session_8hpp.html" target="_top" xlink:title=" ">
<polygon fill="white" stroke="#666666" points="561.88,-244 403.38,-244 403.38,-224 561.88,-224 561.88,-244"/>
<text text-anchor="middle" x="482.62" y="-230.5" font-family="Helvetica,sans-Serif" font-size="10.00">include/roar/session/session.hpp</text>
</a>
</g>
</g>
<!-- Node5&#45;&gt;Node6 -->
<g id="edge6_Node000005_Node000006" class="edge">
<title>Node5&#45;&gt;Node6</title>
<g id="a_edge6_Node000005_Node000006"><a xlink:title=" ">
<path fill="none" stroke="#63b8ff" d="M482.62,-268.71C482.62,-260.32 482.62,-251.01 482.62,-244.3"/>
<polygon fill="#63b8ff" stroke="#63b8ff" points="479.13,-268.59 482.62,-278.59 486.13,-268.59 479.13,-268.59"/>
</a>
</g>
</g>
<!-- Node7 -->
<g id="Node000007" class="node">
<title>Node7</title>
<g id="a_Node000007"><a xlink:href="directory__server_8hpp.html" target="_top" xlink:title=" ">
<polygon fill="white" stroke="#666666" points="473.88,-132 243.38,-132 243.38,-112 473.88,-112 473.88,-132"/>
<text text-anchor="middle" x="358.62" y="-118.5" font-family="Helvetica,sans-Serif" font-size="10.00">include/roar/directory_server/directory_server.hpp</text>
</a>
</g>
</g>
<!-- Node6&#45;&gt;Node7 -->
<g id="edge7_Node000006_Node000007" class="edge">
<title>Node6&#45;&gt;Node7</title>
<g id="a_edge7_Node000006_Node000007"><a xlink:title=" ">
<path fill="none" stroke="#63b8ff" d="M507.09,-217.75C525.22,-204.53 544.7,-184.91 531.62,-168 518.76,-151.37 471.05,-139.73 428.98,-132.47"/>
<polygon fill="#63b8ff" stroke="#63b8ff" points="505.71,-215.14 499.45,-223.69 509.67,-220.91 505.71,-215.14"/>
</a>
</g>
</g>
<!-- Node6&#45;&gt;Node8 -->
<g id="edge36_Node000006_Node000008" class="edge">
<title>Node6&#45;&gt;Node8</title>
<g id="a_edge36_Node000006_Node000008"><a xlink:title=" ">
<path fill="none" stroke="#63b8ff" d="M392.32,-228.5C329.94,-223.28 254.71,-212.05 234.62,-188 212.98,-162.07 213.01,-137.96 234.62,-112 257.84,-84.11 356.21,-73.44 420.73,-69.4"/>
<polygon fill="#63b8ff" stroke="#63b8ff" points="391.76,-232.04 402.01,-229.35 392.32,-225.07 391.76,-232.04"/>
</a>
</g>
</g>
<!-- Node15 -->
<g id="Node000015" class="node">
<title>Node15</title>
<g id="a_Node000015"><a xlink:href="server_8cpp.html" target="_top" xlink:title=" ">
<polygon fill="white" stroke="#666666" points="188.5,-20 90.75,-20 90.75,0 188.5,0 188.5,-20"/>
<text text-anchor="middle" x="139.62" y="-6.5" font-family="Helvetica,sans-Serif" font-size="10.00">src/roar/server.cpp</text>
</a>
</g>
</g>
<!-- Node6&#45;&gt;Node15 -->
<g id="edge39_Node000006_Node000015" class="edge">
<title>Node6&#45;&gt;Node15</title>
<g id="a_edge39_Node000006_Node000015"><a xlink:title=" ">
<path fill="none" stroke="#63b8ff" d="M392.34,-226.66C326.87,-220.42 245.33,-208.72 218.62,-188 161.73,-143.85 144.75,-49.83 140.71,-20.16"/>
<polygon fill="#63b8ff" stroke="#63b8ff" points="391.83,-230.22 402.11,-227.66 392.47,-223.25 391.83,-230.22"/>
</a>
</g>
</g>
<!-- Node6&#45;&gt;Node16 -->
<g id="edge16_Node000006_Node000016" class="edge">
<title>Node6&#45;&gt;Node16</title>
<g id="a_edge16_Node000006_Node000016"><a xlink:title=" ">
<path fill="none" stroke="#63b8ff" d="M526.18,-220.69C560.77,-210.91 608.43,-197.43 640.1,-188.48"/>
<polygon fill="#63b8ff" stroke="#63b8ff" points="525.57,-217.51 516.89,-223.59 527.47,-224.24 525.57,-217.51"/>
</a>
</g>
</g>
<!-- Node25 -->
<g id="Node000025" class="node">
<title>Node25</title>
<g id="a_Node000025"><a xlink:href="route_8cpp.html" target="_top" xlink:title=" ">
<polygon fill="white" stroke="#666666" points="368,-188 243.25,-188 243.25,-168 368,-168 368,-188"/>
<text text-anchor="middle" x="305.62" y="-174.5" font-family="Helvetica,sans-Serif" font-size="10.00">src/roar/routing/route.cpp</text>
</a>
</g>
</g>
<!-- Node6&#45;&gt;Node25 -->
<g id="edge37_Node000006_Node000025" class="edge">
<title>Node6&#45;&gt;Node25</title>
<g id="a_edge37_Node000006_Node000025"><a xlink:title=" ">
<path fill="none" stroke="#63b8ff" d="M441.43,-220.43C409.45,-210.67 365.79,-197.35 336.7,-188.48"/>
<polygon fill="#63b8ff" stroke="#63b8ff" points="440.21,-224.02 450.79,-223.59 442.25,-217.33 440.21,-224.02"/>
</a>
</g>
</g>
<!-- Node6&#45;&gt;Node26 -->
<g id="edge38_Node000006_Node000026" class="edge">
<title>Node6&#45;&gt;Node26</title>
<g id="a_edge38_Node000006_Node000026"><a xlink:title=" ">
<path fill="none" stroke="#63b8ff" d="M557.68,-221.99C625,-212.11 722.74,-197.77 786.49,-188.41"/>
<polygon fill="#63b8ff" stroke="#63b8ff" points="557.53,-218.62 548.15,-223.53 558.55,-225.54 557.53,-218.62"/>
</a>
</g>
</g>
<!-- Node27 -->
<g id="Node000027" class="node">
<title>Node27</title>
<g id="a_Node000027"><a xlink:href="factory_8cpp.html" target="_top" xlink:title=" ">
<polygon fill="white" stroke="#666666" points="523,-188 386.25,-188 386.25,-168 523,-168 523,-188"/>
<text text-anchor="middle" x="454.62" y="-174.5" font-family="Helvetica,sans-Serif" font-size="10.00">src/roar/session/factory.cpp</text>
</a>
</g>
</g>
<!-- Node6&#45;&gt;Node27 -->
<g id="edge40_Node000006_Node000027" class="edge">
<title>Node6&#45;&gt;Node27</title>
<g id="a_edge40_Node000006_Node000027"><a xlink:title=" ">
<path fill="none" stroke="#63b8ff" d="M472.7,-213.87C468.2,-205.19 463.08,-195.32 459.45,-188.3"/>
<polygon fill="#63b8ff" stroke="#63b8ff" points="470.04,-215.33 477.75,-222.59 476.25,-212.11 470.04,-215.33"/>
</a>
</g>
</g>
<!-- Node6&#45;&gt;Node28 -->
<g id="edge41_Node000006_Node000028" class="edge">
<title>Node6&#45;&gt;Node28</title>
<g id="a_edge41_Node000006_Node000028"><a xlink:title=" ">
<path fill="none" stroke="#63b8ff" d="M573.21,-224.03C662.38,-215.14 802.42,-201 923.62,-188 926.54,-187.69 929.52,-187.36 932.53,-187.04"/>
<polygon fill="#63b8ff" stroke="#63b8ff" points="572.92,-220.64 563.32,-225.12 573.62,-227.61 572.92,-220.64"/>
</a>
</g>
</g>
<!-- Node7&#45;&gt;Node8 -->
<g id="edge8_Node000007_Node000008" class="edge">
<title>Node7&#45;&gt;Node8</title>
<g id="a_edge8_Node000007_Node000008"><a xlink:title=" ">
<path fill="none" stroke="#63b8ff" d="M389.42,-107.14C410.79,-97.52 438.69,-84.97 457.56,-76.48"/>
<polygon fill="#63b8ff" stroke="#63b8ff" points="388.21,-104.3 380.53,-111.59 391.08,-110.68 388.21,-104.3"/>
</a>
</g>
</g>
<!-- Node9 -->
<g id="Node000009" class="node">
<title>Node9</title>
<g id="a_Node000009"><a xlink:href="100__continue_2main_8cpp.html" target="_top" xlink:title=" ">
<polygon fill="white" stroke="#666666" points="740.38,-20 578.88,-20 578.88,0 740.38,0 740.38,-20"/>
<text text-anchor="middle" x="659.62" y="-6.5" font-family="Helvetica,sans-Serif" font-size="10.00">examples/100_continue/main.cpp</text>
</a>
</g>
</g>
<!-- Node8&#45;&gt;Node9 -->
<g id="edge9_Node000008_Node000009" class="edge">
<title>Node8&#45;&gt;Node9</title>
<g id="a_edge9_Node000008_Node000009"><a xlink:title=" ">
<path fill="none" stroke="#63b8ff" d="M520.32,-52.56C553.07,-42.79 597.97,-29.39 627.85,-20.48"/>
<polygon fill="#63b8ff" stroke="#63b8ff" points="519.73,-49.38 511.15,-55.59 521.74,-56.09 519.73,-49.38"/>
</a>
</g>
</g>
<!-- Node10 -->
<g id="Node000010" class="node">
<title>Node10</title>
<g id="a_Node000010"><a xlink:href="most__minimal_2main_8cpp.html" target="_top" xlink:title=" ">
<polygon fill="white" stroke="#666666" points="560.88,-20 396.38,-20 396.38,0 560.88,0 560.88,-20"/>
<text text-anchor="middle" x="478.62" y="-6.5" font-family="Helvetica,sans-Serif" font-size="10.00">examples/most_minimal/main.cpp</text>
</a>
</g>
</g>
<!-- Node8&#45;&gt;Node10 -->
<g id="edge10_Node000008_Node000010" class="edge">
<title>Node8&#45;&gt;Node10</title>
<g id="a_edge10_Node000008_Node000010"><a xlink:title=" ">
<path fill="none" stroke="#63b8ff" d="M478.62,-44.71C478.62,-36.32 478.62,-27.01 478.62,-20.3"/>
<polygon fill="#63b8ff" stroke="#63b8ff" points="475.13,-44.59 478.62,-54.59 482.13,-44.59 475.13,-44.59"/>
</a>
</g>
</g>
<!-- Node11 -->
<g id="Node000011" class="node">
<title>Node11</title>
<g id="a_Node000011"><a xlink:href="serve__directory_2main_8cpp.html" target="_top" xlink:title=" ">
<polygon fill="white" stroke="#666666" points="1459.88,-20 1289.38,-20 1289.38,0 1459.88,0 1459.88,-20"/>
<text text-anchor="middle" x="1374.62" y="-6.5" font-family="Helvetica,sans-Serif" font-size="10.00">examples/serve_directory/main.cpp</text>
</a>
</g>
</g>
<!-- Node8&#45;&gt;Node11 -->
<g id="edge11_Node000008_Node000011" class="edge">
<title>Node8&#45;&gt;Node11</title>
<g id="a_edge11_Node000008_Node000011"><a xlink:title=" ">
<path fill="none" stroke="#63b8ff" d="M547.32,-60.63C570.88,-59.15 597.4,-57.49 621.62,-56 863.61,-41.15 1149.39,-24.25 1289.08,-16.02"/>
<polygon fill="#63b8ff" stroke="#63b8ff" points="547.13,-57.2 537.37,-61.32 547.57,-64.19 547.13,-57.2"/>
</a>
</g>
</g>
<!-- Node12 -->
<g id="Node000012" class="node">
<title>Node12</title>
<g id="a_Node000012"><a xlink:href="simple__server_2main_8cpp.html" target="_top" xlink:title=" ">
<polygon fill="white" stroke="#666666" points="1762.88,-20 1598.38,-20 1598.38,0 1762.88,0 1762.88,-20"/>
<text text-anchor="middle" x="1680.62" y="-6.5" font-family="Helvetica,sans-Serif" font-size="10.00">examples/simple_server/main.cpp</text>
</a>
</g>
</g>
<!-- Node8&#45;&gt;Node12 -->
<g id="edge12_Node000008_Node000012" class="edge">
<title>Node8&#45;&gt;Node12</title>
<g id="a_edge12_Node000008_Node000012"><a xlink:title=" ">
<path fill="none" stroke="#63b8ff" d="M547.31,-60.39C570.86,-58.89 597.39,-57.28 621.62,-56 624.67,-55.84 1349.78,-25.05 1598.24,-14.5"/>
<polygon fill="#63b8ff" stroke="#63b8ff" points="547.11,-56.96 537.36,-61.1 547.56,-63.95 547.11,-56.96"/>
</a>
</g>
</g>
<!-- Node13 -->
<g id="Node000013" class="node">
<title>Node13</title>
<g id="a_Node000013"><a xlink:href="websocket_2main_8cpp.html" target="_top" xlink:title=" ">
<polygon fill="white" stroke="#666666" points="944.12,-20 793.12,-20 793.12,0 944.12,0 944.12,-20"/>
<text text-anchor="middle" x="868.62" y="-6.5" font-family="Helvetica,sans-Serif" font-size="10.00">examples/websocket/main.cpp</text>
</a>
</g>
</g>
<!-- Node8&#45;&gt;Node13 -->
<g id="edge13_Node000008_Node000013" class="edge">
<title>Node8&#45;&gt;Node13</title>
<g id="a_edge13_Node000008_Node000013"><a xlink:title=" ">
<path fill="none" stroke="#63b8ff" d="M547.23,-55.5C618.4,-45.65 729.03,-30.33 800.15,-20.48"/>
<polygon fill="#63b8ff" stroke="#63b8ff" points="547.02,-52.14 537.59,-56.97 547.98,-59.07 547.02,-52.14"/>
</a>
</g>
</g>
<!-- Node14 -->
<g id="Node000014" class="node">
<title>Node14</title>
<g id="a_Node000014"><a xlink:href="src_2roar_2routing_2request__listener_8cpp.html" target="_top" xlink:title=" ">
<polygon fill="white" stroke="#666666" points="378.62,-20 206.62,-20 206.62,0 378.62,0 378.62,-20"/>
<text text-anchor="middle" x="292.62" y="-6.5" font-family="Helvetica,sans-Serif" font-size="10.00">src/roar/routing/request_listener.cpp</text>
</a>
</g>
</g>
<!-- Node8&#45;&gt;Node14 -->
<g id="edge14_Node000008_Node000014" class="edge">
<title>Node8&#45;&gt;Node14</title>
<g id="a_edge14_Node000008_Node000014"><a xlink:title=" ">
<path fill="none" stroke="#63b8ff" d="M435.78,-52.56C402.13,-42.79 355.98,-29.39 325.28,-20.48"/>
<polygon fill="#63b8ff" stroke="#63b8ff" points="434.65,-56.17 445.23,-55.59 436.6,-49.44 434.65,-56.17"/>
</a>
</g>
</g>
<!-- Node8&#45;&gt;Node15 -->
<g id="edge15_Node000008_Node000015" class="edge">
<title>Node8&#45;&gt;Node15</title>
<g id="a_edge15_Node000008_Node000015"><a xlink:title=" ">
<path fill="none" stroke="#63b8ff" d="M410.08,-54.08C344.43,-43.62 246.99,-28.1 188.75,-18.82"/>
<polygon fill="#63b8ff" stroke="#63b8ff" points="409.31,-57.66 419.73,-55.78 410.41,-50.75 409.31,-57.66"/>
</a>
</g>
</g>
<!-- Node16&#45;&gt;Node7 -->
<g id="edge33_Node000016_Node000007" class="edge">
<title>Node16&#45;&gt;Node7</title>
<g id="a_edge33_Node000016_Node000007"><a xlink:title=" ">
<path fill="none" stroke="#63b8ff" d="M607.61,-165.68C550.14,-155.83 467.81,-141.72 413.79,-132.46"/>
<polygon fill="#63b8ff" stroke="#63b8ff" points="606.95,-169.29 617.4,-167.53 608.13,-162.39 606.95,-169.29"/>
</a>
</g>
</g>
<!-- Node16&#45;&gt;Node8 -->
<g id="edge34_Node000016_Node000008" class="edge">
<title>Node16&#45;&gt;Node8</title>
<g id="a_edge34_Node000016_Node000008"><a xlink:title=" ">
<path fill="none" stroke="#63b8ff" d="M634.51,-163.88C612.95,-155.94 586.08,-144.88 563.62,-132 534.62,-115.37 504.38,-89.99 488.98,-76.39"/>
<polygon fill="#63b8ff" stroke="#63b8ff" points="633.03,-167.42 643.63,-167.51 635.4,-160.84 633.03,-167.42"/>
</a>
</g>
</g>
<!-- Node16&#45;&gt;Node9 -->
<g id="edge17_Node000016_Node000009" class="edge">
<title>Node16&#45;&gt;Node9</title>
<g id="a_edge17_Node000016_Node000009"><a xlink:title=" ">
<path fill="none" stroke="#63b8ff" d="M633.23,-163.18C619.07,-156.17 604.7,-146.08 596.62,-132 573.17,-91.12 624.25,-40.68 648.16,-20.24"/>
<polygon fill="#63b8ff" stroke="#63b8ff" points="631.36,-166.63 641.92,-167.55 634.24,-160.25 631.36,-166.63"/>
</a>
</g>
</g>
<!-- Node16&#45;&gt;Node11 -->
<g id="edge24_Node000016_Node000011" class="edge">
<title>Node16&#45;&gt;Node11</title>
<g id="a_edge24_Node000016_Node000011"><a xlink:title=" ">
<path fill="none" stroke="#63b8ff" d="M779.48,-168.08C879.06,-163.79 1306.61,-169.49 1355.62,-132 1390.25,-105.52 1381.6,-43.86 1376.79,-20.34"/>
<polygon fill="#63b8ff" stroke="#63b8ff" points="779.34,-164.64 769.55,-168.69 779.73,-171.63 779.34,-164.64"/>
</a>
</g>
</g>
<!-- Node16&#45;&gt;Node12 -->
<g id="edge25_Node000016_Node000012" class="edge">
<title>Node16&#45;&gt;Node12</title>
<g id="a_edge25_Node000016_Node000012"><a xlink:title=" ">
<path fill="none" stroke="#63b8ff" d="M779.32,-168.15C890.67,-164.55 1623.88,-160.23 1661.62,-132 1696.53,-105.89 1687.72,-44.01 1682.82,-20.38"/>
<polygon fill="#63b8ff" stroke="#63b8ff" points="779.39,-164.68 769.55,-168.61 779.69,-171.68 779.39,-164.68"/>
</a>
</g>
</g>
<!-- Node16&#45;&gt;Node13 -->
<g id="edge29_Node000016_Node000013" class="edge">
<title>Node16&#45;&gt;Node13</title>
<g id="a_edge29_Node000016_Node000013"><a xlink:title=" ">
<path fill="none" stroke="#63b8ff" d="M760.31,-164.72C783.26,-158.06 806.62,-147.8 824.62,-132 858.9,-101.92 866.49,-42.95 868.16,-20.23"/>
<polygon fill="#63b8ff" stroke="#63b8ff" points="759.57,-161.56 750.82,-167.53 761.39,-168.32 759.57,-161.56"/>
</a>
</g>
</g>
<!-- Node16&#45;&gt;Node14 -->
<g id="edge35_Node000016_Node000014" class="edge">
<title>Node16&#45;&gt;Node14</title>
<g id="a_edge35_Node000016_Node000014"><a xlink:title=" ">
<path fill="none" stroke="#63b8ff" d="M628.65,-164.54C600.21,-156.25 562.87,-144.59 530.62,-132 476.18,-110.73 463.74,-102.47 411.62,-76 374.47,-57.13 331.81,-33.28 309.01,-20.36"/>
<polygon fill="#63b8ff" stroke="#63b8ff" points="627.5,-168.14 638.08,-167.55 629.44,-161.42 627.5,-168.14"/>
</a>
</g>
</g>
<!-- Node17 -->
<g id="Node000017" class="node">
<title>Node17</title>
<g id="a_Node000017"><a xlink:href="examples_2100__continue_2request__listener_8hpp.html" target="_top" xlink:title=" ">
<polygon fill="white" stroke="#666666" points="815.38,-132 605.88,-132 605.88,-112 815.38,-112 815.38,-132"/>
<text text-anchor="middle" x="710.62" y="-118.5" font-family="Helvetica,sans-Serif" font-size="10.00">examples/100_continue/request_listener.hpp</text>
</a>
</g>
</g>
<!-- Node16&#45;&gt;Node17 -->
<g id="edge18_Node000016_Node000017" class="edge">
<title>Node16&#45;&gt;Node17</title>
<g id="a_edge18_Node000016_Node000017"><a xlink:title=" ">
<path fill="none" stroke="#63b8ff" d="M686.15,-158.72C692.24,-149.84 699.29,-139.55 704.25,-132.3"/>
<polygon fill="#63b8ff" stroke="#63b8ff" points="682.83,-156.37 680.07,-166.59 688.61,-160.32 682.83,-156.37"/>
</a>
</g>
</g>
<!-- Node19 -->
<g id="Node000019" class="node">
<title>Node19</title>
<g id="a_Node000019"><a xlink:href="file__server_8hpp.html" target="_top" xlink:title=" ">
<polygon fill="white" stroke="#666666" points="1346.88,-132 1152.38,-132 1152.38,-112 1346.88,-112 1346.88,-132"/>
<text text-anchor="middle" x="1249.62" y="-118.5" font-family="Helvetica,sans-Serif" font-size="10.00">examples/serve_directory/file_server.hpp</text>
</a>
</g>
</g>
<!-- Node16&#45;&gt;Node19 -->
<g id="edge21_Node000016_Node000019" class="edge">
<title>Node16&#45;&gt;Node19</title>
<g id="a_edge21_Node000016_Node000019"><a xlink:title=" ">
<path fill="none" stroke="#63b8ff" d="M779.5,-167.07C885.91,-157.1 1048.57,-141.85 1151.96,-132.16"/>
<polygon fill="#63b8ff" stroke="#63b8ff" points="779.37,-163.66 769.74,-168.08 780.02,-170.63 779.37,-163.66"/>
</a>
</g>
</g>
<!-- Node21 -->
<g id="Node000021" class="node">
<title>Node21</title>
<g id="a_Node000021"><a xlink:href="examples_2simple__server_2request__listener_8hpp.html" target="_top" xlink:title=" ">
<polygon fill="white" stroke="#666666" points="1652.88,-132 1440.38,-132 1440.38,-112 1652.88,-112 1652.88,-132"/>
<text text-anchor="middle" x="1546.62" y="-118.5" font-family="Helvetica,sans-Serif" font-size="10.00">examples/simple_server/request_listener.hpp</text>
</a>
</g>
</g>
<!-- Node16&#45;&gt;Node21 -->
<g id="edge26_Node000016_Node000021" class="edge">
<title>Node16&#45;&gt;Node21</title>
<g id="a_edge26_Node000016_Node000021"><a xlink:title=" ">
<path fill="none" stroke="#63b8ff" d="M779.34,-167.9C1067.59,-147.62 1141.87,-150.57 1426.62,-132 1431,-131.71 1435.47,-131.42 1439.98,-131.11"/>
<polygon fill="#63b8ff" stroke="#63b8ff" points="779.28,-164.47 769.55,-168.66 779.77,-171.45 779.28,-164.47"/>
</a>
</g>
</g>
<!-- Node23 -->
<g id="Node000023" class="node">
<title>Node23</title>
<g id="a_Node000023"><a xlink:href="examples_2websocket_2request__listener_8hpp.html" target="_top" xlink:title=" ">
<polygon fill="white" stroke="#666666" points="1096.12,-132 897.12,-132 897.12,-112 1096.12,-112 1096.12,-132"/>
<text text-anchor="middle" x="996.62" y="-118.5" font-family="Helvetica,sans-Serif" font-size="10.00">examples/websocket/request_listener.hpp</text>
</a>
</g>
</g>
<!-- Node16&#45;&gt;Node23 -->
<g id="edge30_Node000016_Node000023" class="edge">
<title>Node16&#45;&gt;Node23</title>
<g id="a_edge30_Node000016_Node000023"><a xlink:title=" ">
<path fill="none" stroke="#63b8ff" d="M740.95,-165.74C799.89,-155.89 884.55,-141.74 940.06,-132.46"/>
<polygon fill="#63b8ff" stroke="#63b8ff" points="740.54,-162.43 731.26,-167.53 741.7,-169.34 740.54,-162.43"/>
</a>
</g>
</g>
<!-- Node17&#45;&gt;Node9 -->
<g id="edge19_Node000017_Node000009" class="edge">
<title>Node17&#45;&gt;Node9</title>
<g id="a_edge19_Node000017_Node000009"><a xlink:title=" ">
<path fill="none" stroke="#63b8ff" d="M661.51,-107.51C646.03,-100.69 630.63,-90.64 621.62,-76 609.57,-56.4 632.05,-33.03 647.28,-20.33"/>
<polygon fill="#63b8ff" stroke="#63b8ff" points="660.05,-111.1 670.63,-111.54 662.64,-104.59 660.05,-111.1"/>
</a>
</g>
</g>
<!-- Node18 -->
<g id="Node000018" class="node">
<title>Node18</title>
<g id="a_Node000018"><a xlink:href="examples_2100__continue_2request__listener_8cpp.html" target="_top" xlink:title=" ">
<polygon fill="white" stroke="#666666" points="840.38,-76 630.88,-76 630.88,-56 840.38,-56 840.38,-76"/>
<text text-anchor="middle" x="735.62" y="-62.5" font-family="Helvetica,sans-Serif" font-size="10.00">examples/100_continue/request_listener.cpp</text>
</a>
</g>
</g>
<!-- Node17&#45;&gt;Node18 -->
<g id="edge20_Node000017_Node000018" class="edge">
<title>Node17&#45;&gt;Node18</title>
<g id="a_edge20_Node000017_Node000018"><a xlink:title=" ">
<path fill="none" stroke="#63b8ff" d="M719.48,-101.87C723.5,-93.19 728.07,-83.32 731.32,-76.3"/>
<polygon fill="#63b8ff" stroke="#63b8ff" points="716,-100.05 714.98,-110.59 722.36,-102.99 716,-100.05"/>
</a>
</g>
</g>
<!-- Node19&#45;&gt;Node11 -->
<g id="edge23_Node000019_Node000011" class="edge">
<title>Node19&#45;&gt;Node11</title>
<g id="a_edge23_Node000019_Node000011"><a xlink:title=" ">
<path fill="none" stroke="#63b8ff" d="M1304.25,-108.13C1322.78,-101.33 1342.17,-91.13 1355.62,-76 1369.84,-60.01 1373.45,-33.9 1374.34,-20.15"/>
<polygon fill="#63b8ff" stroke="#63b8ff" points="1303.44,-105.05 1295.09,-111.57 1305.68,-111.68 1303.44,-105.05"/>
</a>
</g>
</g>
<!-- Node20 -->
<g id="Node000020" class="node">
<title>Node20</title>
<g id="a_Node000020"><a xlink:href="file__server_8cpp.html" target="_top" xlink:title=" ">
<polygon fill="white" stroke="#666666" points="1346.88,-76 1152.38,-76 1152.38,-56 1346.88,-56 1346.88,-76"/>
<text text-anchor="middle" x="1249.62" y="-62.5" font-family="Helvetica,sans-Serif" font-size="10.00">examples/serve_directory/file_server.cpp</text>
</a>
</g>
</g>
<!-- Node19&#45;&gt;Node20 -->
<g id="edge22_Node000019_Node000020" class="edge">
<title>Node19&#45;&gt;Node20</title>
<g id="a_edge22_Node000019_Node000020"><a xlink:title=" ">
<path fill="none" stroke="#63b8ff" d="M1249.62,-100.71C1249.62,-92.32 1249.62,-83.01 1249.62,-76.3"/>
<polygon fill="#63b8ff" stroke="#63b8ff" points="1246.13,-100.59 1249.62,-110.59 1253.13,-100.59 1246.13,-100.59"/>
</a>
</g>
</g>
<!-- Node21&#45;&gt;Node12 -->
<g id="edge27_Node000021_Node000012" class="edge">
<title>Node21&#45;&gt;Node12</title>
<g id="a_edge27_Node000021_Node000012"><a xlink:title=" ">
<path fill="none" stroke="#63b8ff" d="M1608.32,-108.25C1627.65,-101.53 1647.58,-91.35 1661.62,-76 1676.07,-60.21 1679.58,-34.02 1680.4,-20.2"/>
<polygon fill="#63b8ff" stroke="#63b8ff" points="1607.46,-105.17 1599,-111.55 1609.59,-111.84 1607.46,-105.17"/>
</a>
</g>
</g>
<!-- Node22 -->
<g id="Node000022" class="node">
<title>Node22</title>
<g id="a_Node000022"><a xlink:href="examples_2simple__server_2request__listener_8cpp.html" target="_top" xlink:title=" ">
<polygon fill="white" stroke="#666666" points="1652.88,-76 1440.38,-76 1440.38,-56 1652.88,-56 1652.88,-76"/>
<text text-anchor="middle" x="1546.62" y="-62.5" font-family="Helvetica,sans-Serif" font-size="10.00">examples/simple_server/request_listener.cpp</text>
</a>
</g>
</g>
<!-- Node21&#45;&gt;Node22 -->
<g id="edge28_Node000021_Node000022" class="edge">
<title>Node21&#45;&gt;Node22</title>
<g id="a_edge28_Node000021_Node000022"><a xlink:title=" ">
<path fill="none" stroke="#63b8ff" d="M1546.62,-100.71C1546.62,-92.32 1546.62,-83.01 1546.62,-76.3"/>
<polygon fill="#63b8ff" stroke="#63b8ff" points="1543.13,-100.59 1546.62,-110.59 1550.13,-100.59 1543.13,-100.59"/>
</a>
</g>
</g>
<!-- Node23&#45;&gt;Node13 -->
<g id="edge31_Node000023_Node000013" class="edge">
<title>Node23&#45;&gt;Node13</title>
<g id="a_edge31_Node000023_Node000013"><a xlink:title=" ">
<path fill="none" stroke="#63b8ff" d="M970.02,-106.23C956.42,-98.12 939.97,-87.4 926.62,-76 905.92,-58.32 885.66,-33.37 875.45,-20.11"/>
<polygon fill="#63b8ff" stroke="#63b8ff" points="967.93,-109.64 978.33,-111.65 971.45,-103.59 967.93,-109.64"/>
</a>
</g>
</g>
<!-- Node24 -->
<g id="Node000024" class="node">
<title>Node24</title>
<g id="a_Node000024"><a xlink:href="examples_2websocket_2request__listener_8cpp.html" target="_top" xlink:title=" ">
<polygon fill="white" stroke="#666666" points="1134.12,-76 935.12,-76 935.12,-56 1134.12,-56 1134.12,-76"/>
<text text-anchor="middle" x="1034.62" y="-62.5" font-family="Helvetica,sans-Serif" font-size="10.00">examples/websocket/request_listener.cpp</text>
</a>
</g>
</g>
<!-- Node23&#45;&gt;Node24 -->
<g id="edge32_Node000023_Node000024" class="edge">
<title>Node23&#45;&gt;Node24</title>
<g id="a_edge32_Node000023_Node000024"><a xlink:title=" ">
<path fill="none" stroke="#63b8ff" d="M1009.49,-102.72C1015.74,-93.84 1022.98,-83.55 1028.08,-76.3"/>
<polygon fill="#63b8ff" stroke="#63b8ff" points="1006.14,-100.4 1003.24,-110.59 1011.86,-104.43 1006.14,-100.4"/>
</a>
</g>
</g>
</g>
</svg>

<g id="navigator" transform="translate(0 0)" fill="#404254">
  <rect fill="#f2f5e9" fill-opacity="0.5" stroke="#606060" stroke-width=".5" x="0" y="0" width="60" height="60"/>
  <use id="zoomplus" xlink:href="#zoomPlus" x="17" y="9" onmousedown="handleZoom(evt,'in')"/>
  <use id="zoomminus" xlink:href="#zoomMin" x="42" y="9" onmousedown="handleZoom(evt,'out')"/>
  <use id="reset" xlink:href="#resetDef" x="30" y="36" onmousedown="handleReset()"/>
   <use id="arrowup" xlink:href="#arrowUp" x="0" y="0" onmousedown="handlePan(0,-1)"/>
  <use id="arrowright" xlink:href="#arrowRight" x="0" y="0" onmousedown="handlePan(1,0)"/>
  <use id="arrowdown" xlink:href="#arrowDown" x="0" y="0" onmousedown="handlePan(0,1)"/>
  <use id="arrowleft" xlink:href="#arrowLeft" x="0" y="0" onmousedown="handlePan(-1,0)"/>
</g>
<svg viewBox="0 0 15 15" width="100%" height="30px" preserveAspectRatio="xMaxYMin meet">
 <g id="arrow_out" transform="scale(0.3 0.3)">
  <a xlink:href="digest__auth_8hpp__dep__incl_org.svg" target="_base">
   <rect id="button" ry="5" rx="5" y="6" x="6" height="38" width="38"
        fill="#f2f5e9" fill-opacity="0.5" stroke="#606060" stroke-width="1.0"/>
   <path id="arrow"
     d="M 11.500037,31.436501 C 11.940474,20.09759 22.043105,11.32322 32.158766,21.979434 L 37.068811,17.246167 C 37.068811,17.246167 37.088388,32 37.088388,32 L 22.160133,31.978069 C 22.160133,31.978069 26.997745,27.140456 26.997745,27.140456 C 18.528582,18.264221 13.291696,25.230495 11.500037,31.436501 z"
     style="fill:#404040;"/>
  </a>
 </g>
</svg>

<style type='text/css'>
<![CDATA[
[data-mouse-over-selected='false'] { opacity: 0.7; }
[data-mouse-over-selected='true']  { opacity: 1.0; }
]]>
</style>
<script type="application/ecmascript"><![CDATA[
document.addEventListener('DOMContentLoaded', (event) => {
  highlightEdges();
  highlightAdjacentNodes();
});
]]></script>
</svg>
