<?xml version="1.0" encoding="UTF-8" standalone="no"?>
<!DOCTYPE svg PUBLIC "-//W3C//DTD SVG 1.1//EN"
 "http://www.w3.org/Graphics/SVG/1.1/DTD/svg11.dtd">
<!-- Generated by graphviz version 2.44.1 (20211215.1903)
 -->
<!-- Title: examples Pages: 1 -->
<svg width="570pt" height="132pt"
 viewBox="0.00 0.00 570.00 132.00" xmlns="http://www.w3.org/2000/svg" xmlns:xlink="http://www.w3.org/1999/xlink">
<g id="graph0" class="graph" transform="scale(1 1) rotate(0) translate(4 128)">
<title>examples</title>
<g id="clust1" class="cluster">
<title>clusterdir_d28a4824dc47e487b107a5db32ef43c4</title>
<g id="a_clust1"><a xlink:href="dir_d28a4824dc47e487b107a5db32ef43c4.html" target="_top">
<polygon fill="#edf0f7" stroke="#404040" stroke-width="2" points="8,-64 8,-116 554,-116 554,-64 8,-64"/>
</a>
</g>
</g>
<!-- dir_d28a4824dc47e487b107a5db32ef43c4 -->
<g id="node1" class="node">
<title>dir_d28a4824dc47e487b107a5db32ef43c4</title>
<text text-anchor="middle" x="516" y="-87.5" font-family="Helvetica,sans-Serif" font-size="10.00">examples</text>
</g>
<!-- dir_ecb73b1ba2fb5c6f9d7028ccda5f1932 -->
<g id="node2" class="node">
<title>dir_ecb73b1ba2fb5c6f9d7028ccda5f1932</title>
<g id="a_node2"><a xlink:href="dir_ecb73b1ba2fb5c6f9d7028ccda5f1932.html" target="_top" xlink:title="100_continue">
<polygon fill="#a2b4d6" stroke="#404040" points="468,-108 394,-108 394,-72 468,-72 468,-108"/>
<text text-anchor="middle" x="431" y="-87.5" font-family="Helvetica,sans-Serif" font-size="10.00">100_continue</text>
</a>
</g>
</g>
<!-- dir_d44c64559bbebec7f509842c48db8b23 -->
<g id="node7" class="node">
<title>dir_d44c64559bbebec7f509842c48db8b23</title>
<g id="a_node7"><a xlink:href="dir_d44c64559bbebec7f509842c48db8b23.html" target="_top" xlink:title="include">
<polygon fill="none" stroke="red" points="264,-36 210,-36 210,0 264,0 264,-36"/>
<text text-anchor="middle" x="237" y="-15.5" font-family="Helvetica,sans-Serif" font-size="10.00">include</text>
</a>
</g>
</g>
<!-- dir_ecb73b1ba2fb5c6f9d7028ccda5f1932&#45;&gt;dir_d44c64559bbebec7f509842c48db8b23 -->
<g id="edge1" class="edge">
<title>dir_ecb73b1ba2fb5c6f9d7028ccda5f1932&#45;&gt;dir_d44c64559bbebec7f509842c48db8b23</title>
<path fill="none" stroke="black" d="M401.74,-71.96C396.27,-69.1 390.53,-66.32 385,-64 348.17,-48.58 304.19,-35.89 273.8,-27.96"/>
<polygon fill="black" stroke="black" points="274.6,-24.55 264.04,-25.46 272.86,-31.33 274.6,-24.55"/>
<g id="a_edge1&#45;headlabel"><a xlink:href="dir_000000_000012.html" target="_top" xlink:title="6">
<text text-anchor="middle" x="278.78" y="-20.2" font-family="Helvetica,sans-Serif" font-size="10.00">6</text>
</a>
</g>
</g>
<!-- dir_c44c21083cab3b1e0da8414d659cb97a -->
<g id="node3" class="node">
<title>dir_c44c21083cab3b1e0da8414d659cb97a</title>
<g id="a_node3"><a xlink:href="dir_c44c21083cab3b1e0da8414d659cb97a.html" target="_top" xlink:title="most_minimal">
<polygon fill="#a2b4d6" stroke="#404040" points="375.5,-108 298.5,-108 298.5,-72 375.5,-72 375.5,-108"/>
<text text-anchor="middle" x="337" y="-87.5" font-family="Helvetica,sans-Serif" font-size="10.00">most_minimal</text>
</a>
</g>
</g>
<!-- dir_c44c21083cab3b1e0da8414d659cb97a&#45;&gt;dir_d44c64559bbebec7f509842c48db8b23 -->
<g id="edge2" class="edge">
<title>dir_c44c21083cab3b1e0da8414d659cb97a&#45;&gt;dir_d44c64559bbebec7f509842c48db8b23</title>
<path fill="none" stroke="black" d="M312.54,-71.88C299.7,-62.89 283.8,-51.76 269.91,-42.03"/>
<polygon fill="black" stroke="black" points="271.76,-39.06 261.56,-36.19 267.74,-44.79 271.76,-39.06"/>
<g id="a_edge2&#45;headlabel"><a xlink:href="dir_000014_000012.html" target="_top" xlink:title="2">
<text text-anchor="middle" x="276.33" y="-36.29" font-family="Helvetica,sans-Serif" font-size="10.00">2</text>
</a>
</g>
</g>
<!-- dir_917a2894d4dd6daa5d751fcd99f005ad -->
<g id="node4" class="node">
<title>dir_917a2894d4dd6daa5d751fcd99f005ad</title>
<g id="a_node4"><a xlink:href="dir_917a2894d4dd6daa5d751fcd99f005ad.html" target="_top" xlink:title="request_listener">
<polygon fill="#a2b4d6" stroke="#404040" points="280,-108 194,-108 194,-72 280,-72 280,-108"/>
<text text-anchor="middle" x="237" y="-87.5" font-family="Helvetica,sans-Serif" font-size="10.00">request_listener</text>
</a>
</g>
</g>
<!-- dir_917a2894d4dd6daa5d751fcd99f005ad&#45;&gt;dir_d44c64559bbebec7f509842c48db8b23 -->
<g id="edge3" class="edge">
<title>dir_917a2894d4dd6daa5d751fcd99f005ad&#45;&gt;dir_d44c64559bbebec7f509842c48db8b23</title>
<path fill="none" stroke="black" d="M237,-71.7C237,-63.98 237,-54.71 237,-46.11"/>
<polygon fill="black" stroke="black" points="240.5,-46.1 237,-36.1 233.5,-46.1 240.5,-46.1"/>
<g id="a_edge3&#45;headlabel"><a xlink:href="dir_000015_000012.html" target="_top" xlink:title="1">
<text text-anchor="middle" x="243.34" y="-47.2" font-family="Helvetica,sans-Serif" font-size="10.00">1</text>
</a>
</g>
</g>
<!-- dir_12f3c65a7313cb407d07a114e76523fd -->
<g id="node5" class="node">
<title>dir_12f3c65a7313cb407d07a114e76523fd</title>
<g id="a_node5"><a xlink:href="dir_12f3c65a7313cb407d07a114e76523fd.html" target="_top" xlink:title="simple_server">
<polygon fill="#a2b4d6" stroke="#404040" points="175.5,-108 98.5,-108 98.5,-72 175.5,-72 175.5,-108"/>
<text text-anchor="middle" x="137" y="-87.5" font-family="Helvetica,sans-Serif" font-size="10.00">simple_server</text>
</a>
</g>
</g>
<!-- dir_12f3c65a7313cb407d07a114e76523fd&#45;&gt;dir_d44c64559bbebec7f509842c48db8b23 -->
<g id="edge4" class="edge">
<title>dir_12f3c65a7313cb407d07a114e76523fd&#45;&gt;dir_d44c64559bbebec7f509842c48db8b23</title>
<path fill="none" stroke="black" d="M161.46,-71.88C174.3,-62.89 190.2,-51.76 204.09,-42.03"/>
<polygon fill="black" stroke="black" points="206.26,-44.79 212.44,-36.19 202.24,-39.06 206.26,-44.79"/>
<g id="a_edge4&#45;headlabel"><a xlink:href="dir_000023_000012.html" target="_top" xlink:title="5">
<text text-anchor="middle" x="204.94" y="-46.68" font-family="Helvetica,sans-Serif" font-size="10.00">5</text>
</a>
</g>
</g>
<!-- dir_994fd6669eee8ec6b072d578eeaa4060 -->
<g id="node6" class="node">
<title>dir_994fd6669eee8ec6b072d578eeaa4060</title>
<g id="a_node6"><a xlink:href="dir_994fd6669eee8ec6b072d578eeaa4060.html" target="_top" xlink:title="websocket">
<polygon fill="#a2b4d6" stroke="#404040" points="80,-108 16,-108 16,-72 80,-72 80,-108"/>
<text text-anchor="middle" x="48" y="-87.5" font-family="Helvetica,sans-Serif" font-size="10.00">websocket</text>
</a>
</g>
</g>
<!-- dir_994fd6669eee8ec6b072d578eeaa4060&#45;&gt;dir_d44c64559bbebec7f509842c48db8b23 -->
<g id="edge5" class="edge">
<title>dir_994fd6669eee8ec6b072d578eeaa4060&#45;&gt;dir_d44c64559bbebec7f509842c48db8b23</title>
<path fill="none" stroke="black" d="M74.6,-71.88C79.61,-69.03 84.88,-66.27 90,-64 126.18,-47.98 169.75,-35.42 200.02,-27.69"/>
<polygon fill="black" stroke="black" points="200.89,-31.08 209.74,-25.25 199.19,-24.29 200.89,-31.08"/>
<g id="a_edge5&#45;headlabel"><a xlink:href="dir_000034_000012.html" target="_top" xlink:title="5">
<text text-anchor="middle" x="198.1" y="-32.21" font-family="Helvetica,sans-Serif" font-size="10.00">5</text>
</a>
</g>
</g>
</g>
</svg>
