<?xml version="1.0" encoding="UTF-8" standalone="no"?>
<!DOCTYPE svg PUBLIC "-//W3C//DTD SVG 1.1//EN"
 "http://www.w3.org/Graphics/SVG/1.1/DTD/svg11.dtd">
<!-- Generated by graphviz version 2.44.1 (20211215.1903)
 -->
<!-- Title: src/roar Pages: 1 -->
<svg width="804pt" height="159pt"
 viewBox="0.00 0.00 804.00 159.00" xmlns="http://www.w3.org/2000/svg" xmlns:xlink="http://www.w3.org/1999/xlink">
<g id="graph0" class="graph" transform="scale(1 1) rotate(0) translate(4 155)">
<title>src/roar</title>
<g id="clust1" class="cluster">
<title>clusterdir_68267d1309a1af8e8297ef4c3efbcdba</title>
<g id="a_clust1"><a xlink:href="dir_68267d1309a1af8e8297ef4c3efbcdba.html" target="_top" xlink:title="src">
<polygon fill="#edf0f7" stroke="#404040" stroke-dasharray="5,2" points="8,-56 8,-143 788,-143 788,-56 8,-56"/>
<text text-anchor="middle" x="398" y="-131" font-family="Helvetica,sans-Serif" font-size="10.00">src</text>
</a>
</g>
</g>
<g id="clust2" class="cluster">
<title>clusterdir_708592e1896d0c2354e552f19e24d071</title>
<g id="a_clust2"><a xlink:href="dir_708592e1896d0c2354e552f19e24d071.html" target="_top">
<polygon fill="#edf0f7" stroke="#404040" stroke-width="2" points="16,-64 16,-116 780,-116 780,-64 16,-64"/>
</a>
</g>
</g>
<!-- dir_708592e1896d0c2354e552f19e24d071 -->
<g id="node1" class="node">
<title>dir_708592e1896d0c2354e552f19e24d071</title>
<text text-anchor="middle" x="745" y="-87.5" font-family="Helvetica,sans-Serif" font-size="10.00">roar</text>
</g>
<!-- dir_d44c64559bbebec7f509842c48db8b23 -->
<g id="node11" class="node">
<title>dir_d44c64559bbebec7f509842c48db8b23</title>
<g id="a_node11"><a xlink:href="dir_d44c64559bbebec7f509842c48db8b23.html" target="_top" xlink:title="include">
<polygon fill="none" stroke="red" points="414,-36 360,-36 360,0 414,0 414,-36"/>
<text text-anchor="middle" x="387" y="-15.5" font-family="Helvetica,sans-Serif" font-size="10.00">include</text>
</a>
</g>
</g>
<!-- dir_708592e1896d0c2354e552f19e24d071&#45;&gt;dir_d44c64559bbebec7f509842c48db8b23 -->
<g id="edge1" class="edge">
<title>dir_708592e1896d0c2354e552f19e24d071&#45;&gt;dir_d44c64559bbebec7f509842c48db8b23</title>
<path fill="none" stroke="black" d="M730.48,-71.79C724.47,-65.79 717.02,-59.66 709,-56 659.11,-33.23 498.53,-23.68 424.73,-20.43"/>
<polygon fill="black" stroke="black" points="424.64,-16.92 414.5,-19.99 424.34,-23.91 424.64,-16.92"/>
<g id="a_edge1&#45;headlabel"><a xlink:href="dir_000023_000017.html" target="_top" xlink:title="51">
<text text-anchor="middle" x="428.35" y="-11.73" font-family="Helvetica,sans-Serif" font-size="10.00">51</text>
</a>
</g>
</g>
<!-- dir_1eab1cd076f66ecfb76ba3a148a3ee54 -->
<g id="node2" class="node">
<title>dir_1eab1cd076f66ecfb76ba3a148a3ee54</title>
<g id="a_node2"><a xlink:href="dir_1eab1cd076f66ecfb76ba3a148a3ee54.html" target="_top" xlink:title="authorization">
<polygon fill="#a2b4d6" stroke="#404040" points="700,-108 628,-108 628,-72 700,-72 700,-108"/>
<text text-anchor="middle" x="664" y="-87.5" font-family="Helvetica,sans-Serif" font-size="10.00">authorization</text>
</a>
</g>
</g>
<!-- dir_1eab1cd076f66ecfb76ba3a148a3ee54&#45;&gt;dir_d44c64559bbebec7f509842c48db8b23 -->
<g id="edge2" class="edge">
<title>dir_1eab1cd076f66ecfb76ba3a148a3ee54&#45;&gt;dir_d44c64559bbebec7f509842c48db8b23</title>
<path fill="none" stroke="black" d="M644.64,-71.67C637.12,-65.82 628.12,-59.81 619,-56 554.09,-28.9 471.35,-21.52 424.26,-19.59"/>
<polygon fill="black" stroke="black" points="424.32,-16.09 414.21,-19.24 424.08,-23.09 424.32,-16.09"/>
<g id="a_edge2&#45;headlabel"><a xlink:href="dir_000002_000017.html" target="_top" xlink:title="5">
<text text-anchor="middle" x="428.02" y="-10.88" font-family="Helvetica,sans-Serif" font-size="10.00">5</text>
</a>
</g>
</g>
<!-- dir_533f187fc88d9236d5f7867101ba41d0 -->
<g id="node3" class="node">
<title>dir_533f187fc88d9236d5f7867101ba41d0</title>
<g id="a_node3"><a xlink:href="dir_533f187fc88d9236d5f7867101ba41d0.html" target="_top" xlink:title="curl">
<polygon fill="#a2b4d6" stroke="#404040" points="610,-108 556,-108 556,-72 610,-72 610,-108"/>
<text text-anchor="middle" x="583" y="-87.5" font-family="Helvetica,sans-Serif" font-size="10.00">curl</text>
</a>
</g>
</g>
<!-- dir_533f187fc88d9236d5f7867101ba41d0&#45;&gt;dir_d44c64559bbebec7f509842c48db8b23 -->
<g id="edge3" class="edge">
<title>dir_533f187fc88d9236d5f7867101ba41d0&#45;&gt;dir_d44c64559bbebec7f509842c48db8b23</title>
<path fill="none" stroke="black" d="M567.9,-71.92C561.92,-66.09 554.65,-60.03 547,-56 508.19,-35.57 458.24,-26.33 424.56,-22.21"/>
<polygon fill="black" stroke="black" points="424.56,-18.69 414.23,-21.05 423.77,-25.65 424.56,-18.69"/>
<g id="a_edge3&#45;headlabel"><a xlink:href="dir_000006_000017.html" target="_top" xlink:title="13">
<text text-anchor="middle" x="428.45" y="-13.77" font-family="Helvetica,sans-Serif" font-size="10.00">13</text>
</a>
</g>
</g>
<!-- dir_1550f3593076a8a75b05f1ded52c1a63 -->
<g id="node4" class="node">
<title>dir_1550f3593076a8a75b05f1ded52c1a63</title>
<g id="a_node4"><a xlink:href="dir_1550f3593076a8a75b05f1ded52c1a63.html" target="_top" xlink:title="filesystem">
<polygon fill="#a2b4d6" stroke="#404040" points="538,-108 476,-108 476,-72 538,-72 538,-108"/>
<text text-anchor="middle" x="507" y="-87.5" font-family="Helvetica,sans-Serif" font-size="10.00">filesystem</text>
</a>
</g>
</g>
<!-- dir_1550f3593076a8a75b05f1ded52c1a63&#45;&gt;dir_d44c64559bbebec7f509842c48db8b23 -->
<g id="edge4" class="edge">
<title>dir_1550f3593076a8a75b05f1ded52c1a63&#45;&gt;dir_d44c64559bbebec7f509842c48db8b23</title>
<path fill="none" stroke="black" d="M488.23,-71.83C481.77,-66.39 474.32,-60.6 467,-56 453.42,-47.46 437.55,-39.71 423.54,-33.54"/>
<polygon fill="black" stroke="black" points="424.76,-30.25 414.19,-29.52 422,-36.68 424.76,-30.25"/>
<g id="a_edge4&#45;headlabel"><a xlink:href="dir_000014_000017.html" target="_top" xlink:title="2">
<text text-anchor="middle" x="429.19" y="-26.56" font-family="Helvetica,sans-Serif" font-size="10.00">2</text>
</a>
</g>
</g>
<!-- dir_581e64fe1d00d217cd737dca19c0c7f2 -->
<g id="node5" class="node">
<title>dir_581e64fe1d00d217cd737dca19c0c7f2</title>
<g id="a_node5"><a xlink:href="dir_581e64fe1d00d217cd737dca19c0c7f2.html" target="_top" xlink:title="mechanics">
<polygon fill="#a2b4d6" stroke="#404040" points="458,-108 394,-108 394,-72 458,-72 458,-108"/>
<text text-anchor="middle" x="426" y="-87.5" font-family="Helvetica,sans-Serif" font-size="10.00">mechanics</text>
</a>
</g>
</g>
<!-- dir_581e64fe1d00d217cd737dca19c0c7f2&#45;&gt;dir_d44c64559bbebec7f509842c48db8b23 -->
<g id="edge5" class="edge">
<title>dir_581e64fe1d00d217cd737dca19c0c7f2&#45;&gt;dir_d44c64559bbebec7f509842c48db8b23</title>
<path fill="none" stroke="black" d="M416.36,-71.7C411.87,-63.64 406.44,-53.89 401.48,-44.98"/>
<polygon fill="black" stroke="black" points="404.45,-43.14 396.53,-36.1 398.34,-46.54 404.45,-43.14"/>
<g id="a_edge5&#45;headlabel"><a xlink:href="dir_000020_000017.html" target="_top" xlink:title="1">
<text text-anchor="middle" x="408.68" y="-42.39" font-family="Helvetica,sans-Serif" font-size="10.00">1</text>
</a>
</g>
</g>
<!-- dir_a7b59eada69f713e60615db6b3a43b38 -->
<g id="node6" class="node">
<title>dir_a7b59eada69f713e60615db6b3a43b38</title>
<g id="a_node6"><a xlink:href="dir_a7b59eada69f713e60615db6b3a43b38.html" target="_top" xlink:title="routing">
<polygon fill="#a2b4d6" stroke="#404040" points="376,-108 322,-108 322,-72 376,-72 376,-108"/>
<text text-anchor="middle" x="349" y="-87.5" font-family="Helvetica,sans-Serif" font-size="10.00">routing</text>
</a>
</g>
</g>
<!-- dir_a7b59eada69f713e60615db6b3a43b38&#45;&gt;dir_d44c64559bbebec7f509842c48db8b23 -->
<g id="edge6" class="edge">
<title>dir_a7b59eada69f713e60615db6b3a43b38&#45;&gt;dir_d44c64559bbebec7f509842c48db8b23</title>
<path fill="none" stroke="black" d="M358.39,-71.7C362.76,-63.64 368.06,-53.89 372.9,-44.98"/>
<polygon fill="black" stroke="black" points="376.02,-46.56 377.71,-36.1 369.87,-43.22 376.02,-46.56"/>
<g id="a_edge6&#45;headlabel"><a xlink:href="dir_000025_000017.html" target="_top" xlink:title="8">
<text text-anchor="middle" x="376.8" y="-48.58" font-family="Helvetica,sans-Serif" font-size="10.00">8</text>
</a>
</g>
</g>
<!-- dir_530370ece72f7fec453bf913ae586c00 -->
<g id="node7" class="node">
<title>dir_530370ece72f7fec453bf913ae586c00</title>
<g id="a_node7"><a xlink:href="dir_530370ece72f7fec453bf913ae586c00.html" target="_top" xlink:title="session">
<polygon fill="#a2b4d6" stroke="#404040" points="304,-108 250,-108 250,-72 304,-72 304,-108"/>
<text text-anchor="middle" x="277" y="-87.5" font-family="Helvetica,sans-Serif" font-size="10.00">session</text>
</a>
</g>
</g>
<!-- dir_530370ece72f7fec453bf913ae586c00&#45;&gt;dir_d44c64559bbebec7f509842c48db8b23 -->
<g id="edge7" class="edge">
<title>dir_530370ece72f7fec453bf913ae586c00&#45;&gt;dir_d44c64559bbebec7f509842c48db8b23</title>
<path fill="none" stroke="black" d="M293.75,-71.85C299.56,-66.41 306.3,-60.61 313,-56 324.69,-47.95 338.38,-40.61 350.79,-34.62"/>
<polygon fill="black" stroke="black" points="352.4,-37.73 359.97,-30.31 349.43,-31.39 352.4,-37.73"/>
<g id="a_edge7&#45;headlabel"><a xlink:href="dir_000029_000017.html" target="_top" xlink:title="5">
<text text-anchor="middle" x="350.35" y="-39.32" font-family="Helvetica,sans-Serif" font-size="10.00">5</text>
</a>
</g>
</g>
<!-- dir_7d0c0774b28c8b676c1d4dbe481b3423 -->
<g id="node8" class="node">
<title>dir_7d0c0774b28c8b676c1d4dbe481b3423</title>
<g id="a_node8"><a xlink:href="dir_7d0c0774b28c8b676c1d4dbe481b3423.html" target="_top" xlink:title="ssl">
<polygon fill="#a2b4d6" stroke="#404040" points="232,-108 178,-108 178,-72 232,-72 232,-108"/>
<text text-anchor="middle" x="205" y="-87.5" font-family="Helvetica,sans-Serif" font-size="10.00">ssl</text>
</a>
</g>
</g>
<!-- dir_7d0c0774b28c8b676c1d4dbe481b3423&#45;&gt;dir_d44c64559bbebec7f509842c48db8b23 -->
<g id="edge8" class="edge">
<title>dir_7d0c0774b28c8b676c1d4dbe481b3423&#45;&gt;dir_d44c64559bbebec7f509842c48db8b23</title>
<path fill="none" stroke="black" d="M220.5,-71.66C226.41,-65.94 233.54,-60.03 241,-56 275.27,-37.5 319.08,-28 349.73,-23.29"/>
<polygon fill="black" stroke="black" points="350.59,-26.71 359.99,-21.82 349.59,-19.78 350.59,-26.71"/>
<g id="a_edge8&#45;headlabel"><a xlink:href="dir_000036_000017.html" target="_top" xlink:title="2">
<text text-anchor="middle" x="347.43" y="-27.53" font-family="Helvetica,sans-Serif" font-size="10.00">2</text>
</a>
</g>
</g>
<!-- dir_1523456250f1bb86897d17b4e1c13da2 -->
<g id="node9" class="node">
<title>dir_1523456250f1bb86897d17b4e1c13da2</title>
<g id="a_node9"><a xlink:href="dir_1523456250f1bb86897d17b4e1c13da2.html" target="_top" xlink:title="utility">
<polygon fill="#a2b4d6" stroke="#404040" points="160,-108 106,-108 106,-72 160,-72 160,-108"/>
<text text-anchor="middle" x="133" y="-87.5" font-family="Helvetica,sans-Serif" font-size="10.00">utility</text>
</a>
</g>
</g>
<!-- dir_1523456250f1bb86897d17b4e1c13da2&#45;&gt;dir_d44c64559bbebec7f509842c48db8b23 -->
<g id="edge9" class="edge">
<title>dir_1523456250f1bb86897d17b4e1c13da2&#45;&gt;dir_d44c64559bbebec7f509842c48db8b23</title>
<path fill="none" stroke="black" d="M147.98,-71.67C153.94,-65.81 161.23,-59.8 169,-56 227.58,-27.34 304.41,-20.42 349.47,-19.01"/>
<polygon fill="black" stroke="black" points="349.76,-22.51 359.67,-18.77 349.59,-15.51 349.76,-22.51"/>
<g id="a_edge9&#45;headlabel"><a xlink:href="dir_000039_000017.html" target="_top" xlink:title="3">
<text text-anchor="middle" x="346.23" y="-22.93" font-family="Helvetica,sans-Serif" font-size="10.00">3</text>
</a>
</g>
</g>
<!-- dir_4c87c67d5204995fd4c2b9528710af28 -->
<g id="node10" class="node">
<title>dir_4c87c67d5204995fd4c2b9528710af28</title>
<g id="a_node10"><a xlink:href="dir_4c87c67d5204995fd4c2b9528710af28.html" target="_top" xlink:title="websocket">
<polygon fill="#a2b4d6" stroke="#404040" points="88,-108 24,-108 24,-72 88,-72 88,-108"/>
<text text-anchor="middle" x="56" y="-87.5" font-family="Helvetica,sans-Serif" font-size="10.00">websocket</text>
</a>
</g>
</g>
<!-- dir_4c87c67d5204995fd4c2b9528710af28&#45;&gt;dir_d44c64559bbebec7f509842c48db8b23 -->
<g id="edge10" class="edge">
<title>dir_4c87c67d5204995fd4c2b9528710af28&#45;&gt;dir_d44c64559bbebec7f509842c48db8b23</title>
<path fill="none" stroke="black" d="M72.95,-71.85C79.85,-65.86 88.26,-59.72 97,-56 141.66,-36.99 281.47,-25.73 349.32,-21.26"/>
<polygon fill="black" stroke="black" points="349.81,-24.73 359.56,-20.59 349.36,-17.75 349.81,-24.73"/>
<g id="a_edge10&#45;headlabel"><a xlink:href="dir_000043_000017.html" target="_top" xlink:title="6">
<text text-anchor="middle" x="346.41" y="-25.3" font-family="Helvetica,sans-Serif" font-size="10.00">6</text>
</a>
</g>
</g>
</g>
</svg>
