<?xml version="1.0" encoding="UTF-8" standalone="no"?>
<!DOCTYPE svg PUBLIC "-//W3C//DTD SVG 1.1//EN"
 "http://www.w3.org/Graphics/SVG/1.1/DTD/svg11.dtd">
<!-- Generated by graphviz version 2.44.1 (20211215.1903)
 -->
<!-- Title: include/roar Pages: 1 -->
<svg width="398pt" height="399pt"
 viewBox="0.00 0.00 398.00 399.00" xmlns="http://www.w3.org/2000/svg" xmlns:xlink="http://www.w3.org/1999/xlink">
<g id="graph0" class="graph" transform="scale(1 1) rotate(0) translate(4 395)">
<title>include/roar</title>
<g id="clust1" class="cluster">
<title>clusterdir_d44c64559bbebec7f509842c48db8b23</title>
<g id="a_clust1"><a xlink:href="dir_d44c64559bbebec7f509842c48db8b23.html" target="_top" xlink:title="include">
<polygon fill="#edf0f7" stroke="#404040" stroke-dasharray="5,2" points="8,-8 8,-383 382,-383 382,-8 8,-8"/>
<text text-anchor="middle" x="195" y="-371" font-family="Helvetica,sans-Serif" font-size="10.00">include</text>
</a>
</g>
</g>
<g id="clust2" class="cluster">
<title>clusterdir_daaeaa3945e32d5e62f76785683556aa</title>
<g id="a_clust2"><a xlink:href="dir_daaeaa3945e32d5e62f76785683556aa.html" target="_top">
<polygon fill="#edf0f7" stroke="#404040" stroke-width="2" points="16,-16 16,-356 374,-356 374,-16 16,-16"/>
</a>
</g>
</g>
<!-- dir_daaeaa3945e32d5e62f76785683556aa -->
<g id="node1" class="node">
<title>dir_daaeaa3945e32d5e62f76785683556aa</title>
<text text-anchor="middle" x="339" y="-327.5" font-family="Helvetica,sans-Serif" font-size="10.00">roar</text>
</g>
<!-- dir_e93e12d4c222a7a03bd6da365bd8fe69 -->
<g id="node2" class="node">
<title>dir_e93e12d4c222a7a03bd6da365bd8fe69</title>
<g id="a_node2"><a xlink:href="dir_e93e12d4c222a7a03bd6da365bd8fe69.html" target="_top" xlink:title="beast">
<polygon fill="#a2b4d6" stroke="#404040" points="346,-132 292,-132 292,-96 346,-96 346,-132"/>
<text text-anchor="middle" x="319" y="-111.5" font-family="Helvetica,sans-Serif" font-size="10.00">beast</text>
</a>
</g>
</g>
<!-- dir_daaeaa3945e32d5e62f76785683556aa&#45;&gt;dir_e93e12d4c222a7a03bd6da365bd8fe69 -->
<g id="edge4" class="edge">
<title>dir_daaeaa3945e32d5e62f76785683556aa&#45;&gt;dir_e93e12d4c222a7a03bd6da365bd8fe69</title>
<path fill="none" stroke="black" d="M337.4,-311.85C333.94,-274.83 325.75,-187.18 321.56,-142.39"/>
<polygon fill="black" stroke="black" points="325.03,-141.86 320.61,-132.23 318.06,-142.51 325.03,-141.86"/>
<g id="a_edge4&#45;headlabel"><a xlink:href="dir_000014_000000.html" target="_top" xlink:title="4">
<text text-anchor="middle" x="328.19" y="-142.68" font-family="Helvetica,sans-Serif" font-size="10.00">4</text>
</a>
</g>
</g>
<!-- dir_e02e715d4fcc5b2d0cb247348a913617 -->
<g id="node4" class="node">
<title>dir_e02e715d4fcc5b2d0cb247348a913617</title>
<g id="a_node4"><a xlink:href="dir_e02e715d4fcc5b2d0cb247348a913617.html" target="_top" xlink:title="detail">
<polygon fill="#a2b4d6" stroke="#404040" points="243,-60 189,-60 189,-24 243,-24 243,-60"/>
<text text-anchor="middle" x="216" y="-39.5" font-family="Helvetica,sans-Serif" font-size="10.00">detail</text>
</a>
</g>
</g>
<!-- dir_daaeaa3945e32d5e62f76785683556aa&#45;&gt;dir_e02e715d4fcc5b2d0cb247348a913617 -->
<g id="edge3" class="edge">
<title>dir_daaeaa3945e32d5e62f76785683556aa&#45;&gt;dir_e02e715d4fcc5b2d0cb247348a913617</title>
<path fill="none" stroke="black" d="M346.78,-311.89C364.27,-270.58 401.7,-163.78 355,-96 332.33,-63.09 286.27,-50.6 253.39,-45.87"/>
<polygon fill="black" stroke="black" points="253.58,-42.37 243.22,-44.59 252.71,-49.31 253.58,-42.37"/>
<g id="a_edge3&#45;headlabel"><a xlink:href="dir_000014_000003.html" target="_top" xlink:title="9">
<text text-anchor="middle" x="257.5" y="-37.5" font-family="Helvetica,sans-Serif" font-size="10.00">9</text>
</a>
</g>
</g>
<!-- dir_4790b02813e51e328ad8bf482bbe9ef8 -->
<g id="node6" class="node">
<title>dir_4790b02813e51e328ad8bf482bbe9ef8</title>
<g id="a_node6"><a xlink:href="dir_4790b02813e51e328ad8bf482bbe9ef8.html" target="_top" xlink:title="routing">
<polygon fill="#a2b4d6" stroke="#404040" points="272,-276 218,-276 218,-240 272,-240 272,-276"/>
<text text-anchor="middle" x="245" y="-255.5" font-family="Helvetica,sans-Serif" font-size="10.00">routing</text>
</a>
</g>
</g>
<!-- dir_daaeaa3945e32d5e62f76785683556aa&#45;&gt;dir_4790b02813e51e328ad8bf482bbe9ef8 -->
<g id="edge1" class="edge">
<title>dir_daaeaa3945e32d5e62f76785683556aa&#45;&gt;dir_4790b02813e51e328ad8bf482bbe9ef8</title>
<path fill="none" stroke="black" d="M315.76,-311.7C303.81,-302.8 289.08,-291.82 276.15,-282.2"/>
<polygon fill="black" stroke="black" points="278.08,-279.27 267.97,-276.1 273.9,-284.88 278.08,-279.27"/>
<g id="a_edge1&#45;headlabel"><a xlink:href="dir_000014_000016.html" target="_top" xlink:title="3">
<text text-anchor="middle" x="282.66" y="-276.64" font-family="Helvetica,sans-Serif" font-size="10.00">3</text>
</a>
</g>
</g>
<!-- dir_d88aababb7453dae4e7ad4eaa68f8d89 -->
<g id="node7" class="node">
<title>dir_d88aababb7453dae4e7ad4eaa68f8d89</title>
<g id="a_node7"><a xlink:href="dir_d88aababb7453dae4e7ad4eaa68f8d89.html" target="_top" xlink:title="session">
<polygon fill="#a2b4d6" stroke="#404040" points="272,-204 218,-204 218,-168 272,-168 272,-204"/>
<text text-anchor="middle" x="245" y="-183.5" font-family="Helvetica,sans-Serif" font-size="10.00">session</text>
</a>
</g>
</g>
<!-- dir_daaeaa3945e32d5e62f76785683556aa&#45;&gt;dir_d88aababb7453dae4e7ad4eaa68f8d89 -->
<g id="edge2" class="edge">
<title>dir_daaeaa3945e32d5e62f76785683556aa&#45;&gt;dir_d88aababb7453dae4e7ad4eaa68f8d89</title>
<path fill="none" stroke="black" d="M327.98,-311.87C316.38,-293.91 297.55,-264.87 281,-240 274.99,-230.97 268.34,-221.13 262.4,-212.41"/>
<polygon fill="black" stroke="black" points="265.28,-210.42 256.76,-204.13 259.5,-214.36 265.28,-210.42"/>
<g id="a_edge2&#45;headlabel"><a xlink:href="dir_000014_000019.html" target="_top" xlink:title="2">
<text text-anchor="middle" x="269.65" y="-209.29" font-family="Helvetica,sans-Serif" font-size="10.00">2</text>
</a>
</g>
</g>
<!-- dir_1a70840b96b52bc8c4d2d046fb53d449 -->
<g id="node3" class="node">
<title>dir_1a70840b96b52bc8c4d2d046fb53d449</title>
<g id="a_node3"><a xlink:href="dir_1a70840b96b52bc8c4d2d046fb53d449.html" target="_top" xlink:title="curl">
<polygon fill="#a2b4d6" stroke="#404040" points="294,-348 240,-348 240,-312 294,-312 294,-348"/>
<text text-anchor="middle" x="267" y="-327.5" font-family="Helvetica,sans-Serif" font-size="10.00">curl</text>
</a>
</g>
</g>
<!-- dir_1ed5d0bcd48127df2ae755160599afae -->
<g id="node5" class="node">
<title>dir_1ed5d0bcd48127df2ae755160599afae</title>
<g id="a_node5"><a xlink:href="dir_1ed5d0bcd48127df2ae755160599afae.html" target="_top" xlink:title="dns">
<polygon fill="#a2b4d6" stroke="#404040" points="222,-348 168,-348 168,-312 222,-312 222,-348"/>
<text text-anchor="middle" x="195" y="-327.5" font-family="Helvetica,sans-Serif" font-size="10.00">dns</text>
</a>
</g>
</g>
<!-- dir_4790b02813e51e328ad8bf482bbe9ef8&#45;&gt;dir_e02e715d4fcc5b2d0cb247348a913617 -->
<g id="edge6" class="edge">
<title>dir_4790b02813e51e328ad8bf482bbe9ef8&#45;&gt;dir_e02e715d4fcc5b2d0cb247348a913617</title>
<path fill="none" stroke="black" d="M230.88,-239.83C223.36,-229.91 214.56,-216.87 209,-204 196,-173.91 196.58,-164.58 193,-132 191.25,-116.1 189.75,-111.67 193,-96 194.88,-86.96 198.37,-77.58 202.09,-69.26"/>
<polygon fill="black" stroke="black" points="205.32,-70.61 206.46,-60.07 199,-67.6 205.32,-70.61"/>
<g id="a_edge6&#45;headlabel"><a xlink:href="dir_000016_000003.html" target="_top" xlink:title="4">
<text text-anchor="middle" x="206.34" y="-72.57" font-family="Helvetica,sans-Serif" font-size="10.00">4</text>
</a>
</g>
</g>
<!-- dir_4790b02813e51e328ad8bf482bbe9ef8&#45;&gt;dir_d88aababb7453dae4e7ad4eaa68f8d89 -->
<g id="edge5" class="edge">
<title>dir_4790b02813e51e328ad8bf482bbe9ef8&#45;&gt;dir_d88aababb7453dae4e7ad4eaa68f8d89</title>
<path fill="none" stroke="black" d="M239.08,-239.7C238.29,-231.98 238.06,-222.71 238.4,-214.11"/>
<polygon fill="black" stroke="black" points="241.9,-214.32 239.1,-204.1 234.92,-213.84 241.9,-214.32"/>
<g id="a_edge5&#45;headlabel"><a xlink:href="dir_000016_000019.html" target="_top" xlink:title="1">
<text text-anchor="middle" x="244.48" y="-215.61" font-family="Helvetica,sans-Serif" font-size="10.00">1</text>
</a>
</g>
</g>
<!-- dir_d88aababb7453dae4e7ad4eaa68f8d89&#45;&gt;dir_e93e12d4c222a7a03bd6da365bd8fe69 -->
<g id="edge10" class="edge">
<title>dir_d88aababb7453dae4e7ad4eaa68f8d89&#45;&gt;dir_e93e12d4c222a7a03bd6da365bd8fe69</title>
<path fill="none" stroke="black" d="M263.29,-167.7C272.43,-159.05 283.64,-148.45 293.6,-139.03"/>
<polygon fill="black" stroke="black" points="296.06,-141.52 300.92,-132.1 291.25,-136.43 296.06,-141.52"/>
<g id="a_edge10&#45;headlabel"><a xlink:href="dir_000019_000000.html" target="_top" xlink:title="2">
<text text-anchor="middle" x="295.4" y="-143.55" font-family="Helvetica,sans-Serif" font-size="10.00">2</text>
</a>
</g>
</g>
<!-- dir_d88aababb7453dae4e7ad4eaa68f8d89&#45;&gt;dir_e02e715d4fcc5b2d0cb247348a913617 -->
<g id="edge9" class="edge">
<title>dir_d88aababb7453dae4e7ad4eaa68f8d89&#45;&gt;dir_e02e715d4fcc5b2d0cb247348a913617</title>
<path fill="none" stroke="black" d="M225.53,-167.92C216.18,-158.4 205.95,-145.72 201,-132 193.72,-111.82 198.51,-87.78 204.55,-69.77"/>
<polygon fill="black" stroke="black" points="207.91,-70.79 208.07,-60.19 201.33,-68.37 207.91,-70.79"/>
<g id="a_edge9&#45;headlabel"><a xlink:href="dir_000019_000003.html" target="_top" xlink:title="3">
<text text-anchor="middle" x="209.33" y="-72.64" font-family="Helvetica,sans-Serif" font-size="10.00">3</text>
</a>
</g>
</g>
<!-- dir_d88aababb7453dae4e7ad4eaa68f8d89&#45;&gt;dir_4790b02813e51e328ad8bf482bbe9ef8 -->
<g id="edge8" class="edge">
<title>dir_d88aababb7453dae4e7ad4eaa68f8d89&#45;&gt;dir_4790b02813e51e328ad8bf482bbe9ef8</title>
<path fill="none" stroke="black" d="M250.9,-204.1C251.7,-211.79 251.94,-221.05 251.6,-229.67"/>
<polygon fill="black" stroke="black" points="248.11,-229.48 250.92,-239.7 255.09,-229.96 248.11,-229.48"/>
<g id="a_edge8&#45;headlabel"><a xlink:href="dir_000019_000016.html" target="_top" xlink:title="1">
<text text-anchor="middle" x="245.52" y="-223.2" font-family="Helvetica,sans-Serif" font-size="10.00">1</text>
</a>
</g>
</g>
<!-- dir_337f202b7d712bde93a6be99d38e30db -->
<g id="node10" class="node">
<title>dir_337f202b7d712bde93a6be99d38e30db</title>
<g id="a_node10"><a xlink:href="dir_337f202b7d712bde93a6be99d38e30db.html" target="_top" xlink:title="websocket">
<polygon fill="#a2b4d6" stroke="#404040" points="274,-132 210,-132 210,-96 274,-96 274,-132"/>
<text text-anchor="middle" x="242" y="-111.5" font-family="Helvetica,sans-Serif" font-size="10.00">websocket</text>
</a>
</g>
</g>
<!-- dir_d88aababb7453dae4e7ad4eaa68f8d89&#45;&gt;dir_337f202b7d712bde93a6be99d38e30db -->
<g id="edge7" class="edge">
<title>dir_d88aababb7453dae4e7ad4eaa68f8d89&#45;&gt;dir_337f202b7d712bde93a6be99d38e30db</title>
<path fill="none" stroke="black" d="M244.26,-167.7C243.93,-159.98 243.53,-150.71 243.16,-142.11"/>
<polygon fill="black" stroke="black" points="246.66,-141.95 242.73,-132.1 239.66,-142.25 246.66,-141.95"/>
<g id="a_edge7&#45;headlabel"><a xlink:href="dir_000019_000032.html" target="_top" xlink:title="1">
<text text-anchor="middle" x="249.65" y="-142.92" font-family="Helvetica,sans-Serif" font-size="10.00">1</text>
</a>
</g>
</g>
<!-- dir_cb3039477d8a28e064409532d0242729 -->
<g id="node8" class="node">
<title>dir_cb3039477d8a28e064409532d0242729</title>
<g id="a_node8"><a xlink:href="dir_cb3039477d8a28e064409532d0242729.html" target="_top" xlink:title="ssl">
<polygon fill="#a2b4d6" stroke="#404040" points="150,-348 96,-348 96,-312 150,-312 150,-348"/>
<text text-anchor="middle" x="123" y="-327.5" font-family="Helvetica,sans-Serif" font-size="10.00">ssl</text>
</a>
</g>
</g>
<!-- dir_96d4796c9f09c6dd3ff85e8b14cc922c -->
<g id="node9" class="node">
<title>dir_96d4796c9f09c6dd3ff85e8b14cc922c</title>
<g id="a_node9"><a xlink:href="dir_96d4796c9f09c6dd3ff85e8b14cc922c.html" target="_top" xlink:title="utility">
<polygon fill="#a2b4d6" stroke="#404040" points="78,-348 24,-348 24,-312 78,-312 78,-348"/>
<text text-anchor="middle" x="51" y="-327.5" font-family="Helvetica,sans-Serif" font-size="10.00">utility</text>
</a>
</g>
</g>
<!-- dir_337f202b7d712bde93a6be99d38e30db&#45;&gt;dir_e02e715d4fcc5b2d0cb247348a913617 -->
<g id="edge11" class="edge">
<title>dir_337f202b7d712bde93a6be99d38e30db&#45;&gt;dir_e02e715d4fcc5b2d0cb247348a913617</title>
<path fill="none" stroke="black" d="M235.57,-95.7C232.64,-87.81 229.11,-78.3 225.86,-69.55"/>
<polygon fill="black" stroke="black" points="229.12,-68.26 222.35,-60.1 222.55,-70.7 229.12,-68.26"/>
<g id="a_edge11&#45;headlabel"><a xlink:href="dir_000032_000003.html" target="_top" xlink:title="1">
<text text-anchor="middle" x="233.03" y="-68.14" font-family="Helvetica,sans-Serif" font-size="10.00">1</text>
</a>
</g>
</g>
</g>
</svg>
