<?xml version="1.0" encoding="UTF-8" standalone="no"?>
<!DOCTYPE svg PUBLIC "-//W3C//DTD SVG 1.1//EN"
 "http://www.w3.org/Graphics/SVG/1.1/DTD/svg11.dtd">
<!-- Generated by graphviz version 2.44.1 (20211215.1903)
 -->
<!-- Title: include/roar Pages: 1 -->
<svg width="398pt" height="399pt"
 viewBox="0.00 0.00 398.00 399.00" xmlns="http://www.w3.org/2000/svg" xmlns:xlink="http://www.w3.org/1999/xlink">
<g id="graph0" class="graph" transform="scale(1 1) rotate(0) translate(4 395)">
<title>include/roar</title>
<g id="clust1" class="cluster">
<title>clusterdir_d44c64559bbebec7f509842c48db8b23</title>
<g id="a_clust1"><a xlink:href="dir_d44c64559bbebec7f509842c48db8b23.html" target="_top" xlink:title="include">
<polygon fill="#edf0f7" stroke="#404040" stroke-dasharray="5,2" points="8,-8 8,-383 382,-383 382,-8 8,-8"/>
<text text-anchor="middle" x="195" y="-371" font-family="Helvetica,sans-Serif" font-size="10.00">include</text>
</a>
</g>
</g>
<g id="clust2" class="cluster">
<title>clusterdir_daaeaa3945e32d5e62f76785683556aa</title>
<g id="a_clust2"><a xlink:href="dir_daaeaa3945e32d5e62f76785683556aa.html" target="_top">
<polygon fill="#edf0f7" stroke="#404040" stroke-width="2" points="16,-16 16,-356 374,-356 374,-16 16,-16"/>
</a>
</g>
</g>
<!-- dir_daaeaa3945e32d5e62f76785683556aa -->
<g id="node1" class="node">
<title>dir_daaeaa3945e32d5e62f76785683556aa</title>
<text text-anchor="middle" x="339" y="-327.5" font-family="Helvetica,sans-Serif" font-size="10.00">roar</text>
</g>
<!-- dir_e93e12d4c222a7a03bd6da365bd8fe69 -->
<g id="node2" class="node">
<title>dir_e93e12d4c222a7a03bd6da365bd8fe69</title>
<g id="a_node2"><a xlink:href="dir_e93e12d4c222a7a03bd6da365bd8fe69.html" target="_top" xlink:title="beast">
<polygon fill="#a2b4d6" stroke="#404040" points="152,-132 98,-132 98,-96 152,-96 152,-132"/>
<text text-anchor="middle" x="125" y="-111.5" font-family="Helvetica,sans-Serif" font-size="10.00">beast</text>
</a>
</g>
</g>
<!-- dir_daaeaa3945e32d5e62f76785683556aa&#45;&gt;dir_e93e12d4c222a7a03bd6da365bd8fe69 -->
<g id="edge4" class="edge">
<title>dir_daaeaa3945e32d5e62f76785683556aa&#45;&gt;dir_e93e12d4c222a7a03bd6da365bd8fe69</title>
<path fill="none" stroke="black" d="M314.11,-311.95C300.3,-302.06 283.12,-289.02 269,-276 221.15,-231.91 172.02,-173.63 145.32,-140.65"/>
<polygon fill="black" stroke="black" points="147.71,-138.04 138.72,-132.44 142.26,-142.43 147.71,-138.04"/>
<g id="a_edge4&#45;headlabel"><a xlink:href="dir_000015_000000.html" target="_top" xlink:title="4">
<text text-anchor="middle" x="152.18" y="-136.56" font-family="Helvetica,sans-Serif" font-size="10.00">4</text>
</a>
</g>
</g>
<!-- dir_e02e715d4fcc5b2d0cb247348a913617 -->
<g id="node5" class="node">
<title>dir_e02e715d4fcc5b2d0cb247348a913617</title>
<g id="a_node5"><a xlink:href="dir_e02e715d4fcc5b2d0cb247348a913617.html" target="_top" xlink:title="detail">
<polygon fill="#a2b4d6" stroke="#404040" points="307,-60 253,-60 253,-24 307,-24 307,-60"/>
<text text-anchor="middle" x="280" y="-39.5" font-family="Helvetica,sans-Serif" font-size="10.00">detail</text>
</a>
</g>
</g>
<!-- dir_daaeaa3945e32d5e62f76785683556aa&#45;&gt;dir_e02e715d4fcc5b2d0cb247348a913617 -->
<g id="edge3" class="edge">
<title>dir_daaeaa3945e32d5e62f76785683556aa&#45;&gt;dir_e02e715d4fcc5b2d0cb247348a913617</title>
<path fill="none" stroke="black" d="M345.65,-311.63C349.2,-301.42 353.2,-288.17 355,-276 362.81,-223.09 359.45,-125.85 344,-96 337.5,-83.44 326.59,-72.73 315.61,-64.29"/>
<polygon fill="black" stroke="black" points="317.43,-61.29 307.27,-58.29 313.34,-66.97 317.43,-61.29"/>
<g id="a_edge3&#45;headlabel"><a xlink:href="dir_000015_000004.html" target="_top" xlink:title="18">
<text text-anchor="middle" x="322.01" y="-58.59" font-family="Helvetica,sans-Serif" font-size="10.00">18</text>
</a>
</g>
</g>
<!-- dir_4790b02813e51e328ad8bf482bbe9ef8 -->
<g id="node7" class="node">
<title>dir_4790b02813e51e328ad8bf482bbe9ef8</title>
<g id="a_node7"><a xlink:href="dir_4790b02813e51e328ad8bf482bbe9ef8.html" target="_top" xlink:title="routing">
<polygon fill="#a2b4d6" stroke="#404040" points="346,-276 292,-276 292,-240 346,-240 346,-276"/>
<text text-anchor="middle" x="319" y="-255.5" font-family="Helvetica,sans-Serif" font-size="10.00">routing</text>
</a>
</g>
</g>
<!-- dir_daaeaa3945e32d5e62f76785683556aa&#45;&gt;dir_4790b02813e51e328ad8bf482bbe9ef8 -->
<g id="edge1" class="edge">
<title>dir_daaeaa3945e32d5e62f76785683556aa&#45;&gt;dir_4790b02813e51e328ad8bf482bbe9ef8</title>
<path fill="none" stroke="black" d="M334.06,-311.7C331.83,-303.9 329.15,-294.51 326.67,-285.83"/>
<polygon fill="black" stroke="black" points="330,-284.76 323.89,-276.1 323.27,-286.68 330,-284.76"/>
<g id="a_edge1&#45;headlabel"><a xlink:href="dir_000015_000017.html" target="_top" xlink:title="3">
<text text-anchor="middle" x="333.72" y="-284.93" font-family="Helvetica,sans-Serif" font-size="10.00">3</text>
</a>
</g>
</g>
<!-- dir_d88aababb7453dae4e7ad4eaa68f8d89 -->
<g id="node8" class="node">
<title>dir_d88aababb7453dae4e7ad4eaa68f8d89</title>
<g id="a_node8"><a xlink:href="dir_d88aababb7453dae4e7ad4eaa68f8d89.html" target="_top" xlink:title="session">
<polygon fill="#a2b4d6" stroke="#404040" points="300,-204 246,-204 246,-168 300,-168 300,-204"/>
<text text-anchor="middle" x="273" y="-183.5" font-family="Helvetica,sans-Serif" font-size="10.00">session</text>
</a>
</g>
</g>
<!-- dir_daaeaa3945e32d5e62f76785683556aa&#45;&gt;dir_d88aababb7453dae4e7ad4eaa68f8d89 -->
<g id="edge2" class="edge">
<title>dir_daaeaa3945e32d5e62f76785683556aa&#45;&gt;dir_d88aababb7453dae4e7ad4eaa68f8d89</title>
<path fill="none" stroke="black" d="M314.16,-311.96C302.71,-302.71 290.11,-290.26 283,-276 273.43,-256.81 271.27,-232.46 271.31,-214.08"/>
<polygon fill="black" stroke="black" points="274.81,-214.12 271.55,-204.04 267.82,-213.95 274.81,-214.12"/>
<g id="a_edge2&#45;headlabel"><a xlink:href="dir_000015_000020.html" target="_top" xlink:title="2">
<text text-anchor="middle" x="277.57" y="-215.28" font-family="Helvetica,sans-Serif" font-size="10.00">2</text>
</a>
</g>
</g>
<!-- dir_c2d6b0d02d698e272e826b62f298cd08 -->
<g id="node3" class="node">
<title>dir_c2d6b0d02d698e272e826b62f298cd08</title>
<g id="a_node3"><a xlink:href="dir_c2d6b0d02d698e272e826b62f298cd08.html" target="_top" xlink:title="body">
<polygon fill="#a2b4d6" stroke="#404040" points="326,-132 272,-132 272,-96 326,-96 326,-132"/>
<text text-anchor="middle" x="299" y="-111.5" font-family="Helvetica,sans-Serif" font-size="10.00">body</text>
</a>
</g>
</g>
<!-- dir_1a70840b96b52bc8c4d2d046fb53d449 -->
<g id="node4" class="node">
<title>dir_1a70840b96b52bc8c4d2d046fb53d449</title>
<g id="a_node4"><a xlink:href="dir_1a70840b96b52bc8c4d2d046fb53d449.html" target="_top" xlink:title="curl">
<polygon fill="#a2b4d6" stroke="#404040" points="294,-348 240,-348 240,-312 294,-312 294,-348"/>
<text text-anchor="middle" x="267" y="-327.5" font-family="Helvetica,sans-Serif" font-size="10.00">curl</text>
</a>
</g>
</g>
<!-- dir_1ed5d0bcd48127df2ae755160599afae -->
<g id="node6" class="node">
<title>dir_1ed5d0bcd48127df2ae755160599afae</title>
<g id="a_node6"><a xlink:href="dir_1ed5d0bcd48127df2ae755160599afae.html" target="_top" xlink:title="dns">
<polygon fill="#a2b4d6" stroke="#404040" points="222,-348 168,-348 168,-312 222,-312 222,-348"/>
<text text-anchor="middle" x="195" y="-327.5" font-family="Helvetica,sans-Serif" font-size="10.00">dns</text>
</a>
</g>
</g>
<!-- dir_4790b02813e51e328ad8bf482bbe9ef8&#45;&gt;dir_e02e715d4fcc5b2d0cb247348a913617 -->
<g id="edge6" class="edge">
<title>dir_4790b02813e51e328ad8bf482bbe9ef8&#45;&gt;dir_e02e715d4fcc5b2d0cb247348a913617</title>
<path fill="none" stroke="black" d="M325.98,-239.73C337.15,-209.33 355.77,-144.86 335,-96 330.27,-84.86 321.92,-74.93 313.13,-66.76"/>
<polygon fill="black" stroke="black" points="315.23,-63.95 305.38,-60.05 310.65,-69.24 315.23,-63.95"/>
<g id="a_edge6&#45;headlabel"><a xlink:href="dir_000017_000004.html" target="_top" xlink:title="5">
<text text-anchor="middle" x="319.81" y="-61.65" font-family="Helvetica,sans-Serif" font-size="10.00">5</text>
</a>
</g>
</g>
<!-- dir_4790b02813e51e328ad8bf482bbe9ef8&#45;&gt;dir_d88aababb7453dae4e7ad4eaa68f8d89 -->
<g id="edge5" class="edge">
<title>dir_4790b02813e51e328ad8bf482bbe9ef8&#45;&gt;dir_d88aababb7453dae4e7ad4eaa68f8d89</title>
<path fill="none" stroke="black" d="M301.71,-239.7C295.59,-231.64 288.97,-221.89 283.53,-212.98"/>
<polygon fill="black" stroke="black" points="286.41,-210.98 278.34,-204.1 280.36,-214.51 286.41,-210.98"/>
<g id="a_edge5&#45;headlabel"><a xlink:href="dir_000017_000020.html" target="_top" xlink:title="1">
<text text-anchor="middle" x="290.67" y="-210.15" font-family="Helvetica,sans-Serif" font-size="10.00">1</text>
</a>
</g>
</g>
<!-- dir_d88aababb7453dae4e7ad4eaa68f8d89&#45;&gt;dir_e93e12d4c222a7a03bd6da365bd8fe69 -->
<g id="edge11" class="edge">
<title>dir_d88aababb7453dae4e7ad4eaa68f8d89&#45;&gt;dir_e93e12d4c222a7a03bd6da365bd8fe69</title>
<path fill="none" stroke="black" d="M245.85,-172.16C222.15,-160.95 187.54,-144.58 161.42,-132.23"/>
<polygon fill="black" stroke="black" points="162.76,-128.99 152.22,-127.88 159.77,-135.32 162.76,-128.99"/>
<g id="a_edge11&#45;headlabel"><a xlink:href="dir_000020_000000.html" target="_top" xlink:title="2">
<text text-anchor="middle" x="167.22" y="-125.46" font-family="Helvetica,sans-Serif" font-size="10.00">2</text>
</a>
</g>
</g>
<!-- dir_d88aababb7453dae4e7ad4eaa68f8d89&#45;&gt;dir_c2d6b0d02d698e272e826b62f298cd08 -->
<g id="edge9" class="edge">
<title>dir_d88aababb7453dae4e7ad4eaa68f8d89&#45;&gt;dir_c2d6b0d02d698e272e826b62f298cd08</title>
<path fill="none" stroke="black" d="M279.43,-167.7C282.36,-159.81 285.89,-150.3 289.14,-141.55"/>
<polygon fill="black" stroke="black" points="292.45,-142.7 292.65,-132.1 285.88,-140.26 292.45,-142.7"/>
<g id="a_edge9&#45;headlabel"><a xlink:href="dir_000020_000001.html" target="_top" xlink:title="1">
<text text-anchor="middle" x="293.86" y="-144.56" font-family="Helvetica,sans-Serif" font-size="10.00">1</text>
</a>
</g>
</g>
<!-- dir_d88aababb7453dae4e7ad4eaa68f8d89&#45;&gt;dir_e02e715d4fcc5b2d0cb247348a913617 -->
<g id="edge10" class="edge">
<title>dir_d88aababb7453dae4e7ad4eaa68f8d89&#45;&gt;dir_e02e715d4fcc5b2d0cb247348a913617</title>
<path fill="none" stroke="black" d="M245.86,-177.58C224.04,-170.02 194.84,-155.94 181,-132 172.99,-118.15 172.78,-109.73 181,-96 194.44,-73.56 220.98,-60.09 243.2,-52.34"/>
<polygon fill="black" stroke="black" points="244.28,-55.67 252.72,-49.27 242.13,-49.01 244.28,-55.67"/>
<g id="a_edge10&#45;headlabel"><a xlink:href="dir_000020_000004.html" target="_top" xlink:title="5">
<text text-anchor="middle" x="241.73" y="-56.98" font-family="Helvetica,sans-Serif" font-size="10.00">5</text>
</a>
</g>
</g>
<!-- dir_d88aababb7453dae4e7ad4eaa68f8d89&#45;&gt;dir_4790b02813e51e328ad8bf482bbe9ef8 -->
<g id="edge8" class="edge">
<title>dir_d88aababb7453dae4e7ad4eaa68f8d89&#45;&gt;dir_4790b02813e51e328ad8bf482bbe9ef8</title>
<path fill="none" stroke="black" d="M290.14,-204.1C296.25,-212.13 302.87,-221.87 308.34,-230.8"/>
<polygon fill="black" stroke="black" points="305.47,-232.83 313.54,-239.7 311.52,-229.3 305.47,-232.83"/>
<g id="a_edge8&#45;headlabel"><a xlink:href="dir_000020_000017.html" target="_top" xlink:title="1">
<text text-anchor="middle" x="301.21" y="-228.66" font-family="Helvetica,sans-Serif" font-size="10.00">1</text>
</a>
</g>
</g>
<!-- dir_337f202b7d712bde93a6be99d38e30db -->
<g id="node11" class="node">
<title>dir_337f202b7d712bde93a6be99d38e30db</title>
<g id="a_node11"><a xlink:href="dir_337f202b7d712bde93a6be99d38e30db.html" target="_top" xlink:title="websocket">
<polygon fill="#a2b4d6" stroke="#404040" points="254,-132 190,-132 190,-96 254,-96 254,-132"/>
<text text-anchor="middle" x="222" y="-111.5" font-family="Helvetica,sans-Serif" font-size="10.00">websocket</text>
</a>
</g>
</g>
<!-- dir_d88aababb7453dae4e7ad4eaa68f8d89&#45;&gt;dir_337f202b7d712bde93a6be99d38e30db -->
<g id="edge7" class="edge">
<title>dir_d88aababb7453dae4e7ad4eaa68f8d89&#45;&gt;dir_337f202b7d712bde93a6be99d38e30db</title>
<path fill="none" stroke="black" d="M260.39,-167.7C254.4,-159.47 247.12,-149.48 240.52,-140.42"/>
<polygon fill="black" stroke="black" points="243.18,-138.13 234.46,-132.1 237.52,-142.25 243.18,-138.13"/>
<g id="a_edge7&#45;headlabel"><a xlink:href="dir_000020_000034.html" target="_top" xlink:title="1">
<text text-anchor="middle" x="247.59" y="-136.86" font-family="Helvetica,sans-Serif" font-size="10.00">1</text>
</a>
</g>
</g>
<!-- dir_cb3039477d8a28e064409532d0242729 -->
<g id="node9" class="node">
<title>dir_cb3039477d8a28e064409532d0242729</title>
<g id="a_node9"><a xlink:href="dir_cb3039477d8a28e064409532d0242729.html" target="_top" xlink:title="ssl">
<polygon fill="#a2b4d6" stroke="#404040" points="150,-348 96,-348 96,-312 150,-312 150,-348"/>
<text text-anchor="middle" x="123" y="-327.5" font-family="Helvetica,sans-Serif" font-size="10.00">ssl</text>
</a>
</g>
</g>
<!-- dir_96d4796c9f09c6dd3ff85e8b14cc922c -->
<g id="node10" class="node">
<title>dir_96d4796c9f09c6dd3ff85e8b14cc922c</title>
<g id="a_node10"><a xlink:href="dir_96d4796c9f09c6dd3ff85e8b14cc922c.html" target="_top" xlink:title="utility">
<polygon fill="#a2b4d6" stroke="#404040" points="78,-348 24,-348 24,-312 78,-312 78,-348"/>
<text text-anchor="middle" x="51" y="-327.5" font-family="Helvetica,sans-Serif" font-size="10.00">utility</text>
</a>
</g>
</g>
<!-- dir_337f202b7d712bde93a6be99d38e30db&#45;&gt;dir_e02e715d4fcc5b2d0cb247348a913617 -->
<g id="edge12" class="edge">
<title>dir_337f202b7d712bde93a6be99d38e30db&#45;&gt;dir_e02e715d4fcc5b2d0cb247348a913617</title>
<path fill="none" stroke="black" d="M236.34,-95.7C243.29,-87.3 251.77,-77.07 259.4,-67.86"/>
<polygon fill="black" stroke="black" points="262.14,-70.04 265.83,-60.1 256.75,-65.57 262.14,-70.04"/>
<g id="a_edge12&#45;headlabel"><a xlink:href="dir_000034_000004.html" target="_top" xlink:title="7">
<text text-anchor="middle" x="262.04" y="-72.12" font-family="Helvetica,sans-Serif" font-size="10.00">7</text>
</a>
</g>
</g>
</g>
</svg>
