<?xml version="1.0" encoding="UTF-8" standalone="no"?>
<!DOCTYPE svg PUBLIC "-//W3C//DTD SVG 1.1//EN"
 "http://www.w3.org/Graphics/SVG/1.1/DTD/svg11.dtd">
<!-- Generated by graphviz version 2.44.1 (20211215.1903)
 -->
<!-- Title: include/roar/session Pages: 1 -->
<svg width="320pt" height="167pt"
 viewBox="0.00 0.00 320.00 167.00" xmlns="http://www.w3.org/2000/svg" xmlns:xlink="http://www.w3.org/1999/xlink">
<g id="graph0" class="graph" transform="scale(1 1) rotate(0) translate(4 163)">
<title>include/roar/session</title>
<g id="clust1" class="cluster">
<title>clusterdir_daaeaa3945e32d5e62f76785683556aa</title>
<g id="a_clust1"><a xlink:href="dir_daaeaa3945e32d5e62f76785683556aa.html" target="_top" xlink:title="roar">
<polygon fill="#edf0f7" stroke="#7f7f7f" stroke-dasharray="5,2" points="8,-8 8,-151 304,-151 304,-8 8,-8"/>
<text text-anchor="middle" x="156" y="-139" font-family="Helvetica,sans-Serif" font-size="10.00">roar</text>
</a>
</g>
</g>
<!-- dir_337f202b7d712bde93a6be99d38e30db -->
<g id="node1" class="node">
<title>dir_337f202b7d712bde93a6be99d38e30db</title>
<g id="a_node1"><a xlink:href="dir_337f202b7d712bde93a6be99d38e30db.html" target="_top" xlink:title="websocket">
<polygon fill="#a2b4d6" stroke="#404040" points="80,-52 16,-52 16,-16 80,-16 80,-52"/>
<text text-anchor="middle" x="48" y="-31.5" font-family="Helvetica,sans-Serif" font-size="10.00">websocket</text>
</a>
</g>
</g>
<!-- dir_e93e12d4c222a7a03bd6da365bd8fe69 -->
<g id="node2" class="node">
<title>dir_e93e12d4c222a7a03bd6da365bd8fe69</title>
<g id="a_node2"><a xlink:href="dir_e93e12d4c222a7a03bd6da365bd8fe69.html" target="_top" xlink:title="beast">
<polygon fill="#a2b4d6" stroke="#404040" points="152,-52 98,-52 98,-16 152,-16 152,-52"/>
<text text-anchor="middle" x="125" y="-31.5" font-family="Helvetica,sans-Serif" font-size="10.00">beast</text>
</a>
</g>
</g>
<!-- dir_e02e715d4fcc5b2d0cb247348a913617 -->
<g id="node3" class="node">
<title>dir_e02e715d4fcc5b2d0cb247348a913617</title>
<g id="a_node3"><a xlink:href="dir_e02e715d4fcc5b2d0cb247348a913617.html" target="_top" xlink:title="detail">
<polygon fill="#a2b4d6" stroke="red" points="224,-52 170,-52 170,-16 224,-16 224,-52"/>
<text text-anchor="middle" x="197" y="-31.5" font-family="Helvetica,sans-Serif" font-size="10.00">detail</text>
</a>
</g>
</g>
<!-- dir_4790b02813e51e328ad8bf482bbe9ef8 -->
<g id="node4" class="node">
<title>dir_4790b02813e51e328ad8bf482bbe9ef8</title>
<g id="a_node4"><a xlink:href="dir_4790b02813e51e328ad8bf482bbe9ef8.html" target="_top" xlink:title="routing">
<polygon fill="#a2b4d6" stroke="#404040" points="296,-52 242,-52 242,-16 296,-16 296,-52"/>
<text text-anchor="middle" x="269" y="-31.5" font-family="Helvetica,sans-Serif" font-size="10.00">routing</text>
</a>
</g>
</g>
<!-- dir_d88aababb7453dae4e7ad4eaa68f8d89 -->
<g id="node5" class="node">
<title>dir_d88aababb7453dae4e7ad4eaa68f8d89</title>
<g id="a_node5"><a xlink:href="dir_d88aababb7453dae4e7ad4eaa68f8d89.html" target="_top" xlink:title="session">
<polygon fill="#edf0f7" stroke="#404040" stroke-width="2" points="188,-124 134,-124 134,-88 188,-88 188,-124"/>
<text text-anchor="middle" x="161" y="-103.5" font-family="Helvetica,sans-Serif" font-size="10.00">session</text>
</a>
</g>
</g>
<!-- dir_d88aababb7453dae4e7ad4eaa68f8d89&#45;&gt;dir_337f202b7d712bde93a6be99d38e30db -->
<g id="edge1" class="edge">
<title>dir_d88aababb7453dae4e7ad4eaa68f8d89&#45;&gt;dir_337f202b7d712bde93a6be99d38e30db</title>
<path fill="none" stroke="black" d="M133.93,-88.23C119.06,-79.02 100.41,-67.47 84.29,-57.48"/>
<polygon fill="black" stroke="black" points="85.97,-54.41 75.63,-52.12 82.29,-60.36 85.97,-54.41"/>
<g id="a_edge1&#45;headlabel"><a xlink:href="dir_000018_000031.html" target="_top" xlink:title="1">
<text text-anchor="middle" x="90.53" y="-51.39" font-family="Helvetica,sans-Serif" font-size="10.00">1</text>
</a>
</g>
</g>
<!-- dir_d88aababb7453dae4e7ad4eaa68f8d89&#45;&gt;dir_e93e12d4c222a7a03bd6da365bd8fe69 -->
<g id="edge4" class="edge">
<title>dir_d88aababb7453dae4e7ad4eaa68f8d89&#45;&gt;dir_e93e12d4c222a7a03bd6da365bd8fe69</title>
<path fill="none" stroke="black" d="M152.1,-87.7C148,-79.73 143.05,-70.1 138.51,-61.26"/>
<polygon fill="black" stroke="black" points="141.48,-59.4 133.8,-52.1 135.26,-62.6 141.48,-59.4"/>
<g id="a_edge4&#45;headlabel"><a xlink:href="dir_000018_000000.html" target="_top" xlink:title="2">
<text text-anchor="middle" x="145.65" y="-58.79" font-family="Helvetica,sans-Serif" font-size="10.00">2</text>
</a>
</g>
</g>
<!-- dir_d88aababb7453dae4e7ad4eaa68f8d89&#45;&gt;dir_e02e715d4fcc5b2d0cb247348a913617 -->
<g id="edge3" class="edge">
<title>dir_d88aababb7453dae4e7ad4eaa68f8d89&#45;&gt;dir_e02e715d4fcc5b2d0cb247348a913617</title>
<path fill="none" stroke="black" d="M169.9,-87.7C174,-79.73 178.95,-70.1 183.49,-61.26"/>
<polygon fill="black" stroke="black" points="186.74,-62.6 188.2,-52.1 180.52,-59.4 186.74,-62.6"/>
<g id="a_edge3&#45;headlabel"><a xlink:href="dir_000018_000003.html" target="_top" xlink:title="3">
<text text-anchor="middle" x="187.62" y="-64.59" font-family="Helvetica,sans-Serif" font-size="10.00">3</text>
</a>
</g>
</g>
<!-- dir_d88aababb7453dae4e7ad4eaa68f8d89&#45;&gt;dir_4790b02813e51e328ad8bf482bbe9ef8 -->
<g id="edge2" class="edge">
<title>dir_d88aababb7453dae4e7ad4eaa68f8d89&#45;&gt;dir_4790b02813e51e328ad8bf482bbe9ef8</title>
<path fill="none" stroke="black" d="M187.42,-87.88C201.41,-78.81 218.78,-67.55 233.89,-57.76"/>
<polygon fill="black" stroke="black" points="235.99,-60.57 242.48,-52.19 232.18,-54.69 235.99,-60.57"/>
<g id="a_edge2&#45;headlabel"><a xlink:href="dir_000018_000015.html" target="_top" xlink:title="1">
<text text-anchor="middle" x="234.52" y="-62.4" font-family="Helvetica,sans-Serif" font-size="10.00">1</text>
</a>
</g>
</g>
</g>
</svg>
