<?xml version="1.0" encoding="UTF-8" standalone="no"?>
<!DOCTYPE svg PUBLIC "-//W3C//DTD SVG 1.1//EN"
 "http://www.w3.org/Graphics/SVG/1.1/DTD/svg11.dtd">
<!-- Generated by graphviz version 8.1.0 (0)
 -->
<!-- Title: include/roar/session Pages: 1 -->
<!--zoomable 136 -->

<svg id="main" version="1.1" xmlns="http://www.w3.org/2000/svg" xmlns:xlink="http://www.w3.org/1999/xlink" xml:space="preserve" onload="init(evt)">
<style type="text/css"><![CDATA[
.node, .edge {opacity: 0.7;}
.node.selected, .edge.selected {opacity: 1;}
.edge:hover path { stroke: red; }
.edge:hover polygon { stroke: red; fill: red; }
]]></style>

<defs>
  <circle id="rim" cx="0" cy="0" r="7"/>
  <circle id="rim2" cx="0" cy="0" r="3.5"/>
  <g id="zoomPlus">
    <use xlink:href="#rim" fill="#404040"><set attributeName="fill" to="#808080" begin="zoomplus.mouseover" end="zoomplus.mouseout"/></use>
    <path d="M-4,0h8M0,-4v8" fill="none" stroke="white" stroke-width="1.5" pointer-events="none"/>
  </g>
  <g id="zoomMin">
    <use xlink:href="#rim" fill="#404040"><set attributeName="fill" to="#808080" begin="zoomminus.mouseover" end="zoomminus.mouseout"/></use>
    <path d="M-4,0h8" fill="none" stroke="white" stroke-width="1.5" pointer-events="none"/>
  </g>
  <g id="arrowUp" transform="translate(30 24)">
    <use xlink:href="#rim"/>
    <path pointer-events="none" fill="none" stroke="white" stroke-width="1.5" d="M0,-3.0v7 M-2.5,-0.5L0,-3.0L2.5,-0.5"/>
  </g>
  <g id="arrowRight" transform="rotate(90) translate(36 -43)">
    <use xlink:href="#rim"/>
    <path pointer-events="none" fill="none" stroke="white" stroke-width="1.5" d="M0,-3.0v7 M-2.5,-0.5L0,-3.0L2.5,-0.5"/>
  </g>
  <g id="arrowDown" transform="rotate(180) translate(-30 -48)">
    <use xlink:href="#rim"/>
    <path pointer-events="none" fill="none" stroke="white" stroke-width="1.5" d="M0,-3.0v7 M-2.5,-0.5L0,-3.0L2.5,-0.5"/>
  </g>
  <g id="arrowLeft" transform="rotate(270) translate(-36 17)">
    <use xlink:href="#rim"/>
    <path pointer-events="none" fill="none" stroke="white" stroke-width="1.5" d="M0,-3.0v7 M-2.5,-0.5L0,-3.0L2.5,-0.5"/>
  </g>
  <g id="resetDef">
    <use xlink:href="#rim2" fill="#404040"><set attributeName="fill" to="#808080" begin="reset.mouseover" end="reset.mouseout"/></use>
  </g>
</defs>
<script type="application/ecmascript">
var viewWidth = 528;
var viewHeight = 136;
var sectionId = 'dynsection-0';
</script>
<script type="application/ecmascript" xlink:href="svg.min.js"/>
<svg id="graph" class="graph">
<g id="viewport">
<title>include/roar/session</title>
<g id="clust1" class="cluster">
<title>clusterdir_daaeaa3945e32d5e62f76785683556aa</title>
<g id="a_clust1"><a xlink:href="dir_daaeaa3945e32d5e62f76785683556aa.html" target="_top" xlink:title="roar">
<polygon fill="#edf0f7" stroke="#7f7f7f" stroke-dasharray="5,2" points="8,-8 8,-120 512,-120 512,-8 8,-8"/>
<text text-anchor="middle" x="260" y="-106.5" font-family="Helvetica,sans-Serif" font-size="10.00">roar</text>
</a>
</g>
</g>
<!-- dir_337f202b7d712bde93a6be99d38e30db -->
<g id="node1" class="node">
<title>dir_337f202b7d712bde93a6be99d38e30db</title>
<g id="a_node1"><a xlink:href="dir_337f202b7d712bde93a6be99d38e30db.html" target="_top" xlink:title="websocket">
<polygon fill="#a2b4d6" stroke="#404040" points="79.62,-36 16.38,-36 16.38,-16 79.62,-16 79.62,-36"/>
<text text-anchor="middle" x="48" y="-22.5" font-family="Helvetica,sans-Serif" font-size="10.00">websocket</text>
</a>
</g>
</g>
<!-- dir_e93e12d4c222a7a03bd6da365bd8fe69 -->
<g id="node2" class="node">
<title>dir_e93e12d4c222a7a03bd6da365bd8fe69</title>
<g id="a_node2"><a xlink:href="dir_e93e12d4c222a7a03bd6da365bd8fe69.html" target="_top" xlink:title="beast">
<polygon fill="#a2b4d6" stroke="#404040" points="138,-36 98,-36 98,-16 138,-16 138,-36"/>
<text text-anchor="middle" x="118" y="-22.5" font-family="Helvetica,sans-Serif" font-size="10.00">beast</text>
</a>
</g>
</g>
<!-- dir_e02e715d4fcc5b2d0cb247348a913617 -->
<g id="node3" class="node">
<title>dir_e02e715d4fcc5b2d0cb247348a913617</title>
<g id="a_node3"><a xlink:href="dir_e02e715d4fcc5b2d0cb247348a913617.html" target="_top" xlink:title="detail">
<polygon fill="#a2b4d6" stroke="red" points="195.62,-36 156.38,-36 156.38,-16 195.62,-16 195.62,-36"/>
<text text-anchor="middle" x="176" y="-22.5" font-family="Helvetica,sans-Serif" font-size="10.00">detail</text>
</a>
</g>
</g>
<!-- dir_4790b02813e51e328ad8bf482bbe9ef8 -->
<g id="node4" class="node">
<title>dir_4790b02813e51e328ad8bf482bbe9ef8</title>
<g id="a_node4"><a xlink:href="dir_4790b02813e51e328ad8bf482bbe9ef8.html" target="_top" xlink:title="routing">
<polygon fill="#a2b4d6" stroke="#404040" points="258.62,-36 213.38,-36 213.38,-16 258.62,-16 258.62,-36"/>
<text text-anchor="middle" x="236" y="-22.5" font-family="Helvetica,sans-Serif" font-size="10.00">routing</text>
</a>
</g>
</g>
<!-- dir_9f25c5a619daf8c9e3d00f0de6840263 -->
<g id="node5" class="node">
<title>dir_9f25c5a619daf8c9e3d00f0de6840263</title>
<g id="a_node5"><a xlink:href="dir_9f25c5a619daf8c9e3d00f0de6840263.html" target="_top" xlink:title="literals">
<polygon fill="#a2b4d6" stroke="#404040" points="321.25,-36 276.75,-36 276.75,-16 321.25,-16 321.25,-36"/>
<text text-anchor="middle" x="299" y="-22.5" font-family="Helvetica,sans-Serif" font-size="10.00">literals</text>
</a>
</g>
</g>
<!-- dir_a735b40776d24fe2ca08cd0ce796f19c -->
<g id="node6" class="node">
<title>dir_a735b40776d24fe2ca08cd0ce796f19c</title>
<g id="a_node6"><a xlink:href="dir_a735b40776d24fe2ca08cd0ce796f19c.html" target="_top" xlink:title="mechanics">
<polygon fill="#a2b4d6" stroke="#404040" points="402.62,-36 339.38,-36 339.38,-16 402.62,-16 402.62,-36"/>
<text text-anchor="middle" x="371" y="-22.5" font-family="Helvetica,sans-Serif" font-size="10.00">mechanics</text>
</a>
</g>
</g>
<!-- dir_c2d6b0d02d698e272e826b62f298cd08 -->
<g id="node7" class="node">
<title>dir_c2d6b0d02d698e272e826b62f298cd08</title>
<g id="a_node7"><a xlink:href="dir_c2d6b0d02d698e272e826b62f298cd08.html" target="_top" xlink:title="body">
<polygon fill="#a2b4d6" stroke="#404040" points="457.5,-36 420.5,-36 420.5,-16 457.5,-16 457.5,-36"/>
<text text-anchor="middle" x="439" y="-22.5" font-family="Helvetica,sans-Serif" font-size="10.00">body</text>
</a>
</g>
</g>
<!-- dir_cb3039477d8a28e064409532d0242729 -->
<g id="node8" class="node">
<title>dir_cb3039477d8a28e064409532d0242729</title>
<g id="a_node8"><a xlink:href="dir_cb3039477d8a28e064409532d0242729.html" target="_top" xlink:title="ssl">
<polygon fill="#a2b4d6" stroke="#404040" points="504.4,-36 475.6,-36 475.6,-16 504.4,-16 504.4,-36"/>
<text text-anchor="middle" x="490" y="-22.5" font-family="Helvetica,sans-Serif" font-size="10.00">ssl</text>
</a>
</g>
</g>
<!-- dir_d88aababb7453dae4e7ad4eaa68f8d89 -->
<g id="node9" class="node">
<title>dir_d88aababb7453dae4e7ad4eaa68f8d89</title>
<g id="a_node9"><a xlink:href="dir_d88aababb7453dae4e7ad4eaa68f8d89.html" target="_top" xlink:title="session">
<polygon fill="#edf0f7" stroke="#404040" stroke-width="2" points="291.88,-92 242.12,-92 242.12,-72 291.88,-72 291.88,-92"/>
<text text-anchor="middle" x="267" y="-78.5" font-family="Helvetica,sans-Serif" font-size="10.00">session</text>
</a>
</g>
</g>
<!-- dir_d88aababb7453dae4e7ad4eaa68f8d89&#45;&gt;dir_337f202b7d712bde93a6be99d38e30db -->
<g id="edge1" class="edge">
<title>dir_d88aababb7453dae4e7ad4eaa68f8d89&#45;&gt;dir_337f202b7d712bde93a6be99d38e30db</title>
<path fill="none" stroke="#63b8ff" d="M241.88,-74.81C204.93,-65.69 135.45,-48.56 90.48,-37.47"/>
<polygon fill="#63b8ff" stroke="#63b8ff" points="91.44,-33.86 80.89,-34.86 89.76,-40.66 91.44,-33.86"/>
<g id="a_edge1&#45;headlabel"><a xlink:href="dir_000029_000045.html" target="_top" xlink:title="1">
<text text-anchor="middle" x="94.61" y="-28.46" font-family="Helvetica,sans-Serif" font-size="10.00" fill="#63b8ff">1</text>
</a>
</g>
</g>
<!-- dir_d88aababb7453dae4e7ad4eaa68f8d89&#45;&gt;dir_e93e12d4c222a7a03bd6da365bd8fe69 -->
<g id="edge8" class="edge">
<title>dir_d88aababb7453dae4e7ad4eaa68f8d89&#45;&gt;dir_e93e12d4c222a7a03bd6da365bd8fe69</title>
<path fill="none" stroke="#63b8ff" d="M241.72,-71.84C215.92,-62.49 175.87,-47.97 148.36,-38"/>
<polygon fill="#63b8ff" stroke="#63b8ff" points="149.73,-34.41 139.13,-34.3 147.34,-40.99 149.73,-34.41"/>
<g id="a_edge8&#45;headlabel"><a xlink:href="dir_000029_000003.html" target="_top" xlink:title="2">
<text text-anchor="middle" x="153.07" y="-29.47" font-family="Helvetica,sans-Serif" font-size="10.00" fill="#63b8ff">2</text>
</a>
</g>
</g>
<!-- dir_d88aababb7453dae4e7ad4eaa68f8d89&#45;&gt;dir_e02e715d4fcc5b2d0cb247348a913617 -->
<g id="edge7" class="edge">
<title>dir_d88aababb7453dae4e7ad4eaa68f8d89&#45;&gt;dir_e02e715d4fcc5b2d0cb247348a913617</title>
<path fill="none" stroke="#63b8ff" d="M251.15,-71.59C237.4,-63.44 217.26,-51.48 201.29,-42"/>
<polygon fill="#63b8ff" stroke="#63b8ff" points="203.36,-38.57 192.97,-36.48 199.79,-44.59 203.36,-38.57"/>
<g id="a_edge7&#45;headlabel"><a xlink:href="dir_000029_000007.html" target="_top" xlink:title="4">
<text text-anchor="middle" x="206.9" y="-34.47" font-family="Helvetica,sans-Serif" font-size="10.00" fill="#63b8ff">4</text>
</a>
</g>
</g>
<!-- dir_d88aababb7453dae4e7ad4eaa68f8d89&#45;&gt;dir_4790b02813e51e328ad8bf482bbe9ef8 -->
<g id="edge2" class="edge">
<title>dir_d88aababb7453dae4e7ad4eaa68f8d89&#45;&gt;dir_4790b02813e51e328ad8bf482bbe9ef8</title>
<path fill="none" stroke="#63b8ff" d="M261.6,-71.59C257.51,-64.47 251.76,-54.45 246.74,-45.72"/>
<polygon fill="#63b8ff" stroke="#63b8ff" points="249.35,-44.23 241.34,-37.3 243.28,-47.71 249.35,-44.23"/>
<g id="a_edge2&#45;headlabel"><a xlink:href="dir_000029_000025.html" target="_top" xlink:title="1">
<text text-anchor="middle" x="253.6" y="-41.43" font-family="Helvetica,sans-Serif" font-size="10.00" fill="#63b8ff">1</text>
</a>
</g>
</g>
<!-- dir_d88aababb7453dae4e7ad4eaa68f8d89&#45;&gt;dir_9f25c5a619daf8c9e3d00f0de6840263 -->
<g id="edge3" class="edge">
<title>dir_d88aababb7453dae4e7ad4eaa68f8d89&#45;&gt;dir_9f25c5a619daf8c9e3d00f0de6840263</title>
<path fill="none" stroke="#63b8ff" d="M272.57,-71.59C276.8,-64.47 282.73,-54.45 287.91,-45.72"/>
<polygon fill="#63b8ff" stroke="#63b8ff" points="291.4,-47.69 293.49,-37.3 285.38,-44.12 291.4,-47.69"/>
<g id="a_edge3&#45;headlabel"><a xlink:href="dir_000029_000018.html" target="_top" xlink:title="1">
<text text-anchor="middle" x="292.01" y="-47.73" font-family="Helvetica,sans-Serif" font-size="10.00" fill="#63b8ff">1</text>
</a>
</g>
</g>
<!-- dir_d88aababb7453dae4e7ad4eaa68f8d89&#45;&gt;dir_a735b40776d24fe2ca08cd0ce796f19c -->
<g id="edge4" class="edge">
<title>dir_d88aababb7453dae4e7ad4eaa68f8d89&#45;&gt;dir_a735b40776d24fe2ca08cd0ce796f19c</title>
<path fill="none" stroke="#63b8ff" d="M285.12,-71.59C301.12,-63.28 324.72,-51.03 343.13,-41.47"/>
<polygon fill="#63b8ff" stroke="#63b8ff" points="344.48,-44.19 351.74,-36.48 341.26,-37.98 344.48,-44.19"/>
<g id="a_edge4&#45;headlabel"><a xlink:href="dir_000029_000019.html" target="_top" xlink:title="1">
<text text-anchor="middle" x="343.6" y="-44.87" font-family="Helvetica,sans-Serif" font-size="10.00" fill="#63b8ff">1</text>
</a>
</g>
</g>
<!-- dir_d88aababb7453dae4e7ad4eaa68f8d89&#45;&gt;dir_c2d6b0d02d698e272e826b62f298cd08 -->
<g id="edge5" class="edge">
<title>dir_d88aababb7453dae4e7ad4eaa68f8d89&#45;&gt;dir_c2d6b0d02d698e272e826b62f298cd08</title>
<path fill="none" stroke="#63b8ff" d="M292.2,-73.35C319.18,-65.13 363.5,-51.51 409.89,-36.64"/>
<polygon fill="#63b8ff" stroke="#63b8ff" points="410.69,-39.74 419.13,-33.34 408.54,-33.07 410.69,-39.74"/>
<g id="a_edge5&#45;headlabel"><a xlink:href="dir_000029_000004.html" target="_top" xlink:title="2">
<text text-anchor="middle" x="409.13" y="-40.04" font-family="Helvetica,sans-Serif" font-size="10.00" fill="#63b8ff">2</text>
</a>
</g>
</g>
<!-- dir_d88aababb7453dae4e7ad4eaa68f8d89&#45;&gt;dir_cb3039477d8a28e064409532d0242729 -->
<g id="edge6" class="edge">
<title>dir_d88aababb7453dae4e7ad4eaa68f8d89&#45;&gt;dir_cb3039477d8a28e064409532d0242729</title>
<path fill="none" stroke="#63b8ff" d="M292.26,-76.59C328.65,-69.97 398.03,-56.33 465.19,-36.2"/>
<polygon fill="#63b8ff" stroke="#63b8ff" points="465.97,-39.32 474.52,-33.05 463.93,-32.62 465.97,-39.32"/>
<g id="a_edge6&#45;headlabel"><a xlink:href="dir_000029_000036.html" target="_top" xlink:title="2">
<text text-anchor="middle" x="464.37" y="-39.58" font-family="Helvetica,sans-Serif" font-size="10.00" fill="#63b8ff">2</text>
</a>
</g>
</g>
</g>
</svg>

<g id="navigator" transform="translate(0 0)" fill="#404254">
  <rect fill="#f2f5e9" fill-opacity="0.5" stroke="#606060" stroke-width=".5" x="0" y="0" width="60" height="60"/>
  <use id="zoomplus" xlink:href="#zoomPlus" x="17" y="9" onmousedown="handleZoom(evt,'in')"/>
  <use id="zoomminus" xlink:href="#zoomMin" x="42" y="9" onmousedown="handleZoom(evt,'out')"/>
  <use id="reset" xlink:href="#resetDef" x="30" y="36" onmousedown="handleReset()"/>
   <use id="arrowup" xlink:href="#arrowUp" x="0" y="0" onmousedown="handlePan(0,-1)"/>
  <use id="arrowright" xlink:href="#arrowRight" x="0" y="0" onmousedown="handlePan(1,0)"/>
  <use id="arrowdown" xlink:href="#arrowDown" x="0" y="0" onmousedown="handlePan(0,1)"/>
  <use id="arrowleft" xlink:href="#arrowLeft" x="0" y="0" onmousedown="handlePan(-1,0)"/>
</g>
<svg viewBox="0 0 15 15" width="100%" height="30px" preserveAspectRatio="xMaxYMin meet">
 <g id="arrow_out" transform="scale(0.3 0.3)">
  <a xlink:href="dir_d88aababb7453dae4e7ad4eaa68f8d89_dep_org.svg" target="_base">
   <rect id="button" ry="5" rx="5" y="6" x="6" height="38" width="38"
        fill="#f2f5e9" fill-opacity="0.5" stroke="#606060" stroke-width="1.0"/>
   <path id="arrow"
     d="M 11.500037,31.436501 C 11.940474,20.09759 22.043105,11.32322 32.158766,21.979434 L 37.068811,17.246167 C 37.068811,17.246167 37.088388,32 37.088388,32 L 22.160133,31.978069 C 22.160133,31.978069 26.997745,27.140456 26.997745,27.140456 C 18.528582,18.264221 13.291696,25.230495 11.500037,31.436501 z"
     style="fill:#404040;"/>
  </a>
 </g>
</svg>

<style type='text/css'>
<![CDATA[
[data-mouse-over-selected='false'] { opacity: 0.7; }
[data-mouse-over-selected='true']  { opacity: 1.0; }
]]>
</style>
<script type="application/ecmascript"><![CDATA[
document.addEventListener('DOMContentLoaded', (event) => {
  highlightEdges();
  highlightAdjacentNodes();
});
]]></script>
</svg>
