<?xml version="1.0" encoding="UTF-8" standalone="no"?>
<!DOCTYPE svg PUBLIC "-//W3C//DTD SVG 1.1//EN"
 "http://www.w3.org/Graphics/SVG/1.1/DTD/svg11.dtd">
<!-- Generated by graphviz version 2.44.1 (20211215.1903)
 -->
<!-- Title: include/roar/routing Pages: 1 -->
<svg width="238pt" height="167pt"
 viewBox="0.00 0.00 238.00 167.00" xmlns="http://www.w3.org/2000/svg" xmlns:xlink="http://www.w3.org/1999/xlink">
<g id="graph0" class="graph" transform="scale(1 1) rotate(0) translate(4 163)">
<title>include/roar/routing</title>
<g id="clust1" class="cluster">
<title>clusterdir_daaeaa3945e32d5e62f76785683556aa</title>
<g id="a_clust1"><a xlink:href="dir_daaeaa3945e32d5e62f76785683556aa.html" target="_top" xlink:title="roar">
<polygon fill="#edf0f7" stroke="#7f7f7f" stroke-dasharray="5,2" points="8,-8 8,-151 222,-151 222,-8 8,-8"/>
<text text-anchor="middle" x="115" y="-139" font-family="Helvetica,sans-Serif" font-size="10.00">roar</text>
</a>
</g>
</g>
<!-- dir_9f25c5a619daf8c9e3d00f0de6840263 -->
<g id="node1" class="node">
<title>dir_9f25c5a619daf8c9e3d00f0de6840263</title>
<g id="a_node1"><a xlink:href="dir_9f25c5a619daf8c9e3d00f0de6840263.html" target="_top" xlink:title="literals">
<polygon fill="#a2b4d6" stroke="#404040" points="70,-52 16,-52 16,-16 70,-16 70,-52"/>
<text text-anchor="middle" x="43" y="-31.5" font-family="Helvetica,sans-Serif" font-size="10.00">literals</text>
</a>
</g>
</g>
<!-- dir_e02e715d4fcc5b2d0cb247348a913617 -->
<g id="node2" class="node">
<title>dir_e02e715d4fcc5b2d0cb247348a913617</title>
<g id="a_node2"><a xlink:href="dir_e02e715d4fcc5b2d0cb247348a913617.html" target="_top" xlink:title="detail">
<polygon fill="#a2b4d6" stroke="red" points="142,-52 88,-52 88,-16 142,-16 142,-52"/>
<text text-anchor="middle" x="115" y="-31.5" font-family="Helvetica,sans-Serif" font-size="10.00">detail</text>
</a>
</g>
</g>
<!-- dir_d88aababb7453dae4e7ad4eaa68f8d89 -->
<g id="node3" class="node">
<title>dir_d88aababb7453dae4e7ad4eaa68f8d89</title>
<g id="a_node3"><a xlink:href="dir_d88aababb7453dae4e7ad4eaa68f8d89.html" target="_top" xlink:title="session">
<polygon fill="#a2b4d6" stroke="#404040" points="214,-52 160,-52 160,-16 214,-16 214,-52"/>
<text text-anchor="middle" x="187" y="-31.5" font-family="Helvetica,sans-Serif" font-size="10.00">session</text>
</a>
</g>
</g>
<!-- dir_4790b02813e51e328ad8bf482bbe9ef8 -->
<g id="node4" class="node">
<title>dir_4790b02813e51e328ad8bf482bbe9ef8</title>
<g id="a_node4"><a xlink:href="dir_4790b02813e51e328ad8bf482bbe9ef8.html" target="_top" xlink:title="routing">
<polygon fill="#edf0f7" stroke="#404040" stroke-width="2" points="142,-124 88,-124 88,-88 142,-88 142,-124"/>
<text text-anchor="middle" x="115" y="-103.5" font-family="Helvetica,sans-Serif" font-size="10.00">routing</text>
</a>
</g>
</g>
<!-- dir_4790b02813e51e328ad8bf482bbe9ef8&#45;&gt;dir_9f25c5a619daf8c9e3d00f0de6840263 -->
<g id="edge1" class="edge">
<title>dir_4790b02813e51e328ad8bf482bbe9ef8&#45;&gt;dir_9f25c5a619daf8c9e3d00f0de6840263</title>
<path fill="none" stroke="black" d="M97.2,-87.7C88.4,-79.14 77.62,-68.66 68,-59.3"/>
<polygon fill="black" stroke="black" points="70.2,-56.57 60.59,-52.1 65.32,-61.58 70.2,-56.57"/>
<g id="a_edge1&#45;headlabel"><a xlink:href="dir_000021_000016.html" target="_top" xlink:title="2">
<text text-anchor="middle" x="74.76" y="-54.54" font-family="Helvetica,sans-Serif" font-size="10.00">2</text>
</a>
</g>
</g>
<!-- dir_4790b02813e51e328ad8bf482bbe9ef8&#45;&gt;dir_e02e715d4fcc5b2d0cb247348a913617 -->
<g id="edge3" class="edge">
<title>dir_4790b02813e51e328ad8bf482bbe9ef8&#45;&gt;dir_e02e715d4fcc5b2d0cb247348a913617</title>
<path fill="none" stroke="black" d="M115,-87.7C115,-79.98 115,-70.71 115,-62.11"/>
<polygon fill="black" stroke="black" points="118.5,-62.1 115,-52.1 111.5,-62.1 118.5,-62.1"/>
<g id="a_edge3&#45;headlabel"><a xlink:href="dir_000021_000005.html" target="_top" xlink:title="4">
<text text-anchor="middle" x="121.34" y="-63.2" font-family="Helvetica,sans-Serif" font-size="10.00">4</text>
</a>
</g>
</g>
<!-- dir_4790b02813e51e328ad8bf482bbe9ef8&#45;&gt;dir_d88aababb7453dae4e7ad4eaa68f8d89 -->
<g id="edge2" class="edge">
<title>dir_4790b02813e51e328ad8bf482bbe9ef8&#45;&gt;dir_d88aababb7453dae4e7ad4eaa68f8d89</title>
<path fill="none" stroke="black" d="M132.8,-87.7C141.6,-79.14 152.38,-68.66 162,-59.3"/>
<polygon fill="black" stroke="black" points="164.68,-61.58 169.41,-52.1 159.8,-56.57 164.68,-61.58"/>
<g id="a_edge2&#45;headlabel"><a xlink:href="dir_000021_000025.html" target="_top" xlink:title="1">
<text text-anchor="middle" x="164.08" y="-63.63" font-family="Helvetica,sans-Serif" font-size="10.00">1</text>
</a>
</g>
</g>
</g>
</svg>
