<?xml version="1.0" encoding="UTF-8" standalone="no"?>
<!DOCTYPE svg PUBLIC "-//W3C//DTD SVG 1.1//EN"
 "http://www.w3.org/Graphics/SVG/1.1/DTD/svg11.dtd">
<!-- Generated by graphviz version 8.1.0 (0)
 -->
<!-- Title: examples Pages: 1 -->
<svg width="562pt" height="100pt"
 viewBox="0.00 0.00 562.00 100.00" xmlns="http://www.w3.org/2000/svg" xmlns:xlink="http://www.w3.org/1999/xlink">
<g id="graph0" class="graph" transform="scale(1 1) rotate(0) translate(4 96)">
<title>examples</title>
<g id="clust1" class="cluster">
<title>clusterdir_d28a4824dc47e487b107a5db32ef43c4</title>
<g id="a_clust1"><a xlink:href="dir_d28a4824dc47e487b107a5db32ef43c4.html" target="_top">
<polygon fill="#edf0f7" stroke="#404040" stroke-width="2" points="8,-48 8,-84 546,-84 546,-48 8,-48"/>
</a>
</g>
</g>
<!-- dir_d28a4824dc47e487b107a5db32ef43c4 -->
<g id="node1" class="node">
<title>dir_d28a4824dc47e487b107a5db32ef43c4</title>
<text text-anchor="middle" x="509" y="-62.5" font-family="Helvetica,sans-Serif" font-size="10.00">examples</text>
</g>
<!-- dir_ecb73b1ba2fb5c6f9d7028ccda5f1932 -->
<g id="node2" class="node">
<title>dir_ecb73b1ba2fb5c6f9d7028ccda5f1932</title>
<g id="a_node2"><a xlink:href="dir_ecb73b1ba2fb5c6f9d7028ccda5f1932.html" target="_top" xlink:title="100_continue">
<polygon fill="#a2b4d6" stroke="#404040" points="461.88,-76 388.12,-76 388.12,-56 461.88,-56 461.88,-76"/>
<text text-anchor="middle" x="425" y="-62.5" font-family="Helvetica,sans-Serif" font-size="10.00">100_continue</text>
</a>
</g>
</g>
<!-- dir_d44c64559bbebec7f509842c48db8b23 -->
<g id="node7" class="node">
<title>dir_d44c64559bbebec7f509842c48db8b23</title>
<g id="a_node7"><a xlink:href="dir_d44c64559bbebec7f509842c48db8b23.html" target="_top" xlink:title="include">
<polygon fill="#edf0f7" stroke="red" points="257.38,-20 210.62,-20 210.62,0 257.38,0 257.38,-20"/>
<text text-anchor="middle" x="234" y="-6.5" font-family="Helvetica,sans-Serif" font-size="10.00">include</text>
</a>
</g>
</g>
<!-- dir_ecb73b1ba2fb5c6f9d7028ccda5f1932&#45;&gt;dir_d44c64559bbebec7f509842c48db8b23 -->
<g id="edge1" class="edge">
<title>dir_ecb73b1ba2fb5c6f9d7028ccda5f1932&#45;&gt;dir_d44c64559bbebec7f509842c48db8b23</title>
<path fill="none" stroke="#63b8ff" d="M400.81,-55.52C393.82,-52.93 386.15,-50.23 379,-48 341.61,-36.35 297.98,-25.59 268.42,-18.72"/>
<polygon fill="#63b8ff" stroke="#63b8ff" points="269.35,-15.11 258.82,-16.27 267.78,-21.93 269.35,-15.11"/>
<g id="a_edge1&#45;headlabel"><a xlink:href="dir_000000_000017.html" target="_top" xlink:title="6">
<text text-anchor="middle" x="272.49" y="-9.65" font-family="Helvetica,sans-Serif" font-size="10.00" fill="#63b8ff">6</text>
</a>
</g>
</g>
<!-- dir_c44c21083cab3b1e0da8414d659cb97a -->
<g id="node3" class="node">
<title>dir_c44c21083cab3b1e0da8414d659cb97a</title>
<g id="a_node3"><a xlink:href="dir_c44c21083cab3b1e0da8414d659cb97a.html" target="_top" xlink:title="most_minimal">
<polygon fill="#a2b4d6" stroke="#404040" points="370.38,-76 293.62,-76 293.62,-56 370.38,-56 370.38,-76"/>
<text text-anchor="middle" x="332" y="-62.5" font-family="Helvetica,sans-Serif" font-size="10.00">most_minimal</text>
</a>
</g>
</g>
<!-- dir_c44c21083cab3b1e0da8414d659cb97a&#45;&gt;dir_d44c64559bbebec7f509842c48db8b23 -->
<g id="edge2" class="edge">
<title>dir_c44c21083cab3b1e0da8414d659cb97a&#45;&gt;dir_d44c64559bbebec7f509842c48db8b23</title>
<path fill="none" stroke="#63b8ff" d="M314.93,-55.59C299.99,-47.36 278.02,-35.26 260.75,-25.74"/>
<polygon fill="#63b8ff" stroke="#63b8ff" points="262.65,-22.24 252.2,-20.48 259.27,-28.37 262.65,-22.24"/>
<g id="a_edge2&#45;headlabel"><a xlink:href="dir_000021_000017.html" target="_top" xlink:title="2">
<text text-anchor="middle" x="266.17" y="-17.99" font-family="Helvetica,sans-Serif" font-size="10.00" fill="#63b8ff">2</text>
</a>
</g>
</g>
<!-- dir_7ba1e3c6297749c8d0bbb352930fb109 -->
<g id="node4" class="node">
<title>dir_7ba1e3c6297749c8d0bbb352930fb109</title>
<g id="a_node4"><a xlink:href="dir_7ba1e3c6297749c8d0bbb352930fb109.html" target="_top" xlink:title="serve_directory">
<polygon fill="#a2b4d6" stroke="#404040" points="275.38,-76 192.62,-76 192.62,-56 275.38,-56 275.38,-76"/>
<text text-anchor="middle" x="234" y="-62.5" font-family="Helvetica,sans-Serif" font-size="10.00">serve_directory</text>
</a>
</g>
</g>
<!-- dir_7ba1e3c6297749c8d0bbb352930fb109&#45;&gt;dir_d44c64559bbebec7f509842c48db8b23 -->
<g id="edge3" class="edge">
<title>dir_7ba1e3c6297749c8d0bbb352930fb109&#45;&gt;dir_d44c64559bbebec7f509842c48db8b23</title>
<path fill="none" stroke="#63b8ff" d="M234,-55.59C234,-48.86 234,-39.53 234,-31.15"/>
<polygon fill="#63b8ff" stroke="#63b8ff" points="237.5,-31.3 234,-21.3 230.5,-31.3 237.5,-31.3"/>
<g id="a_edge3&#45;headlabel"><a xlink:href="dir_000028_000017.html" target="_top" xlink:title="7">
<text text-anchor="middle" x="240.34" y="-30.39" font-family="Helvetica,sans-Serif" font-size="10.00" fill="#63b8ff">7</text>
</a>
</g>
</g>
<!-- dir_12f3c65a7313cb407d07a114e76523fd -->
<g id="node5" class="node">
<title>dir_12f3c65a7313cb407d07a114e76523fd</title>
<g id="a_node5"><a xlink:href="dir_12f3c65a7313cb407d07a114e76523fd.html" target="_top" xlink:title="simple_server">
<polygon fill="#a2b4d6" stroke="#404040" points="174.38,-76 97.62,-76 97.62,-56 174.38,-56 174.38,-76"/>
<text text-anchor="middle" x="136" y="-62.5" font-family="Helvetica,sans-Serif" font-size="10.00">simple_server</text>
</a>
</g>
</g>
<!-- dir_12f3c65a7313cb407d07a114e76523fd&#45;&gt;dir_d44c64559bbebec7f509842c48db8b23 -->
<g id="edge4" class="edge">
<title>dir_12f3c65a7313cb407d07a114e76523fd&#45;&gt;dir_d44c64559bbebec7f509842c48db8b23</title>
<path fill="none" stroke="#63b8ff" d="M153.07,-55.59C168.01,-47.36 189.98,-35.26 207.25,-25.74"/>
<polygon fill="#63b8ff" stroke="#63b8ff" points="208.73,-28.37 215.8,-20.48 205.35,-22.24 208.73,-28.37"/>
<g id="a_edge4&#45;headlabel"><a xlink:href="dir_000031_000017.html" target="_top" xlink:title="5">
<text text-anchor="middle" x="207.95" y="-29.09" font-family="Helvetica,sans-Serif" font-size="10.00" fill="#63b8ff">5</text>
</a>
</g>
</g>
<!-- dir_994fd6669eee8ec6b072d578eeaa4060 -->
<g id="node6" class="node">
<title>dir_994fd6669eee8ec6b072d578eeaa4060</title>
<g id="a_node6"><a xlink:href="dir_994fd6669eee8ec6b072d578eeaa4060.html" target="_top" xlink:title="websocket">
<polygon fill="#a2b4d6" stroke="#404040" points="79.62,-76 16.38,-76 16.38,-56 79.62,-56 79.62,-76"/>
<text text-anchor="middle" x="48" y="-62.5" font-family="Helvetica,sans-Serif" font-size="10.00">websocket</text>
</a>
</g>
</g>
<!-- dir_994fd6669eee8ec6b072d578eeaa4060&#45;&gt;dir_d44c64559bbebec7f509842c48db8b23 -->
<g id="edge5" class="edge">
<title>dir_994fd6669eee8ec6b072d578eeaa4060&#45;&gt;dir_d44c64559bbebec7f509842c48db8b23</title>
<path fill="none" stroke="#63b8ff" d="M69.06,-55.59C75.4,-52.94 82.42,-50.19 89,-48 126.27,-35.59 170.09,-24.93 199.72,-18.29"/>
<polygon fill="#63b8ff" stroke="#63b8ff" points="200.34,-21.52 209.35,-15.94 198.83,-14.68 200.34,-21.52"/>
<g id="a_edge5&#45;headlabel"><a xlink:href="dir_000044_000017.html" target="_top" xlink:title="5">
<text text-anchor="middle" x="198.44" y="-21.56" font-family="Helvetica,sans-Serif" font-size="10.00" fill="#63b8ff">5</text>
</a>
</g>
</g>
</g>
</svg>
