<?xml version="1.0" encoding="UTF-8" standalone="no"?>
<!DOCTYPE svg PUBLIC "-//W3C//DTD SVG 1.1//EN"
 "http://www.w3.org/Graphics/SVG/1.1/DTD/svg11.dtd">
<!-- Generated by graphviz version 2.44.1 (20211215.1903)
 -->
<!-- Title: include/roar/error.hpp Pages: 1 -->
<!--zoomable 420 -->
<svg id="main" version="1.1" xmlns="http://www.w3.org/2000/svg" xmlns:xlink="http://www.w3.org/1999/xlink" xml:space="preserve" onload="init(evt)">
<style type="text/css"><![CDATA[
.edge:hover path { stroke: red; }
.edge:hover polygon { stroke: red; fill: red; }
]]></style>
<script type="text/javascript"><![CDATA[
var edges = document.getElementsByTagName('g');
if (edges && edges.length) {
  for (var i=0;i<edges.length;i++) {
    if (edges[i].id.substr(0,4)=='edge') {
      edges[i].setAttribute('class','edge');
    }
  }
}
]]></script>
        <defs>
                <circle id="rim" cx="0" cy="0" r="7"/>
                <circle id="rim2" cx="0" cy="0" r="3.5"/>
                <g id="zoomPlus">
                        <use xlink:href="#rim" fill="#404040">
                                <set attributeName="fill" to="#808080" begin="zoomplus.mouseover" end="zoomplus.mouseout"/>
                        </use>
                        <path d="M-4,0h8M0,-4v8" fill="none" stroke="white" stroke-width="1.5" pointer-events="none"/>
                </g>
                <g id="zoomMin">
                        <use xlink:href="#rim" fill="#404040">
                                <set attributeName="fill" to="#808080" begin="zoomminus.mouseover" end="zoomminus.mouseout"/>
                        </use>
                        <path d="M-4,0h8" fill="none" stroke="white" stroke-width="1.5" pointer-events="none"/>
                </g>
                <g id="dirArrow">
                        <path fill="none" stroke="white" stroke-width="1.5" d="M0,-3.0v7 M-2.5,-0.5L0,-3.0L2.5,-0.5"/>
                </g>
               <g id="resetDef">
                       <use xlink:href="#rim2" fill="#404040">
                               <set attributeName="fill" to="#808080" begin="reset.mouseover" end="reset.mouseout"/>
                       </use>
               </g>
        </defs>

<script type="text/javascript">
var viewWidth = 2481;
var viewHeight = 420;
var sectionId = 'dynsection-1';
</script>
<script xlink:href="svgpan.js"/>
<svg id="graph" class="graph">
<g id="viewport">
<title>include/roar/error.hpp</title>
<!-- Node1 -->
<g id="node1" class="node">
<title>Node1</title>
<g id="a_node1"><a xlink:title=" ">
<polygon fill="#bfbfbf" stroke="black" points="1448,-392.5 1448,-411.5 1556,-411.5 1556,-392.5 1448,-392.5"/>
<text text-anchor="middle" x="1502" y="-399.5" font-family="Helvetica,sans-Serif" font-size="10.00">include/roar/error.hpp</text>
</a>
</g>
</g>
<!-- Node2 -->
<g id="node2" class="node">
<title>Node2</title>
<g id="a_node2"><a xlink:href="100__continue_2main_8cpp.html" target="_top" xlink:title=" ">
<polygon fill="none" stroke="black" points="360,-0.5 360,-19.5 522,-19.5 522,-0.5 360,-0.5"/>
<text text-anchor="middle" x="441" y="-7.5" font-family="Helvetica,sans-Serif" font-size="10.00">examples/100_continue/main.cpp</text>
</a>
</g>
</g>
<!-- Node1&#45;&gt;Node2 -->
<g id="edge1" class="edge">
<title>Node1&#45;&gt;Node2</title>
<path fill="none" stroke="midnightblue" d="M1437.83,-400.22C1223.34,-397.37 532.45,-386.02 312,-356 187.99,-339.11 38,-416.16 38,-291 38,-291 38,-291 38,-121 38,-54.91 242.25,-27.17 359.93,-16.67"/>
<polygon fill="midnightblue" stroke="midnightblue" points="1437.93,-403.73 1447.98,-400.36 1438.02,-396.73 1437.93,-403.73"/>
</g>
<!-- Node3 -->
<g id="node3" class="node">
<title>Node3</title>
<g id="a_node3"><a xlink:href="serve__directory_2main_8cpp.html" target="_top" xlink:title=" ">
<polygon fill="none" stroke="black" points="659.5,-0.5 659.5,-19.5 830.5,-19.5 830.5,-0.5 659.5,-0.5"/>
<text text-anchor="middle" x="745" y="-7.5" font-family="Helvetica,sans-Serif" font-size="10.00">examples/serve_directory/main.cpp</text>
</a>
</g>
</g>
<!-- Node1&#45;&gt;Node3 -->
<g id="edge2" class="edge">
<title>Node1&#45;&gt;Node3</title>
<path fill="none" stroke="midnightblue" d="M1437.42,-399.31C1163.8,-391.73 114,-358.27 114,-291 114,-291 114,-291 114,-177 114,-117.55 122.09,-89.78 171,-56 190.75,-42.36 504.15,-23.85 659.32,-15.46"/>
<polygon fill="midnightblue" stroke="midnightblue" points="1437.5,-402.81 1447.59,-399.59 1437.69,-395.82 1437.5,-402.81"/>
</g>
<!-- Node4 -->
<g id="node4" class="node">
<title>Node4</title>
<g id="a_node4"><a xlink:href="simple__server_2main_8cpp.html" target="_top" xlink:title=" ">
<polygon fill="none" stroke="black" points="12.5,-0.5 12.5,-19.5 177.5,-19.5 177.5,-0.5 12.5,-0.5"/>
<text text-anchor="middle" x="95" y="-7.5" font-family="Helvetica,sans-Serif" font-size="10.00">examples/simple_server/main.cpp</text>
</a>
</g>
</g>
<!-- Node1&#45;&gt;Node4 -->
<g id="edge3" class="edge">
<title>Node1&#45;&gt;Node4</title>
<path fill="none" stroke="midnightblue" d="M1437.82,-400.62C1164.28,-398.81 106.91,-389.66 45,-356 14.13,-339.21 0,-326.14 0,-291 0,-291 0,-291 0,-121 0,-73.06 52.33,-35.69 79.31,-19.6"/>
<polygon fill="midnightblue" stroke="midnightblue" points="1437.96,-404.12 1447.98,-400.69 1438,-397.12 1437.96,-404.12"/>
</g>
<!-- Node5 -->
<g id="node5" class="node">
<title>Node5</title>
<g id="a_node5"><a xlink:href="websocket_2main_8cpp.html" target="_top" xlink:title=" ">
<polygon fill="none" stroke="black" points="1283,-0.5 1283,-19.5 1435,-19.5 1435,-0.5 1283,-0.5"/>
<text text-anchor="middle" x="1359" y="-7.5" font-family="Helvetica,sans-Serif" font-size="10.00">examples/websocket/main.cpp</text>
</a>
</g>
</g>
<!-- Node1&#45;&gt;Node5 -->
<g id="edge4" class="edge">
<title>Node1&#45;&gt;Node5</title>
<path fill="none" stroke="midnightblue" d="M1552.89,-389.62C1575.51,-382.69 1601.4,-372 1621,-356 1651.95,-330.74 1637.08,-304.03 1669,-280 1676.3,-274.5 1979.51,-195.31 1985,-188 1990.34,-180.89 1990.35,-175.1 1985,-168 1918.96,-80.27 1587.1,-34.85 1435.16,-18.37"/>
<polygon fill="midnightblue" stroke="midnightblue" points="1551.73,-386.31 1543.09,-392.45 1553.67,-393.04 1551.73,-386.31"/>
</g>
<!-- Node6 -->
<g id="node6" class="node">
<title>Node6</title>
<g id="a_node6"><a xlink:href="response_8hpp.html" target="_top" xlink:title=" ">
<polygon fill="none" stroke="black" points="1484,-336.5 1484,-355.5 1612,-355.5 1612,-336.5 1484,-336.5"/>
<text text-anchor="middle" x="1548" y="-343.5" font-family="Helvetica,sans-Serif" font-size="10.00">include/roar/response.hpp</text>
</a>
</g>
</g>
<!-- Node1&#45;&gt;Node6 -->
<g id="edge5" class="edge">
<title>Node1&#45;&gt;Node6</title>
<path fill="none" stroke="midnightblue" d="M1516.11,-384.43C1524.18,-374.97 1533.96,-363.48 1540.55,-355.75"/>
<polygon fill="midnightblue" stroke="midnightblue" points="1513.42,-382.2 1509.6,-392.08 1518.75,-386.74 1513.42,-382.2"/>
</g>
<!-- Node7 -->
<g id="node7" class="node">
<title>Node7</title>
<g id="a_node7"><a xlink:href="session_8hpp.html" target="_top" xlink:title=" ">
<polygon fill="none" stroke="black" points="1440.5,-224.5 1440.5,-243.5 1599.5,-243.5 1599.5,-224.5 1440.5,-224.5"/>
<text text-anchor="middle" x="1520" y="-231.5" font-family="Helvetica,sans-Serif" font-size="10.00">include/roar/session/session.hpp</text>
</a>
</g>
</g>
<!-- Node1&#45;&gt;Node7 -->
<g id="edge46" class="edge">
<title>Node1&#45;&gt;Node7</title>
<path fill="none" stroke="midnightblue" d="M1488.97,-384.23C1483.51,-376.17 1477.79,-366.08 1475,-356 1472.63,-347.43 1473.15,-344.69 1475,-336 1482.71,-299.76 1504.37,-260.76 1514.57,-243.76"/>
<polygon fill="midnightblue" stroke="midnightblue" points="1486.15,-386.31 1494.85,-392.36 1491.82,-382.21 1486.15,-386.31"/>
</g>
<!-- Node9 -->
<g id="node9" class="node">
<title>Node9</title>
<g id="a_node9"><a xlink:href="server_8hpp.html" target="_top" xlink:title=" ">
<polygon fill="none" stroke="black" points="1071,-56.5 1071,-75.5 1187,-75.5 1187,-56.5 1071,-56.5"/>
<text text-anchor="middle" x="1129" y="-63.5" font-family="Helvetica,sans-Serif" font-size="10.00">include/roar/server.hpp</text>
</a>
</g>
</g>
<!-- Node1&#45;&gt;Node9 -->
<g id="edge42" class="edge">
<title>Node1&#45;&gt;Node9</title>
<path fill="none" stroke="midnightblue" d="M1437.29,-400.11C1361.45,-395.24 1246,-374.16 1246,-291 1246,-291 1246,-291 1246,-233 1246,-179.13 1283.92,-156.11 1253,-112 1238.02,-90.62 1211.79,-79.36 1187.3,-73.44"/>
<polygon fill="midnightblue" stroke="midnightblue" points="1437.53,-403.63 1447.71,-400.69 1437.92,-396.64 1437.53,-403.63"/>
</g>
<!-- Node26 -->
<g id="node26" class="node">
<title>Node26</title>
<g id="a_node26"><a xlink:href="factory_8hpp.html" target="_top" xlink:title=" ">
<polygon fill="none" stroke="black" points="2317.5,-224.5 2317.5,-243.5 2472.5,-243.5 2472.5,-224.5 2317.5,-224.5"/>
<text text-anchor="middle" x="2395" y="-231.5" font-family="Helvetica,sans-Serif" font-size="10.00">include/roar/session/factory.hpp</text>
</a>
</g>
</g>
<!-- Node1&#45;&gt;Node26 -->
<g id="edge43" class="edge">
<title>Node1&#45;&gt;Node26</title>
<path fill="none" stroke="midnightblue" d="M1566.07,-399.21C1717.09,-394.64 2091.88,-381.06 2215,-356 2288.42,-341.05 2321.72,-353.67 2374,-300 2389.23,-284.37 2393.41,-257.63 2394.56,-243.82"/>
<polygon fill="midnightblue" stroke="midnightblue" points="1565.91,-395.72 1556.02,-399.52 1566.12,-402.71 1565.91,-395.72"/>
</g>
<!-- Node27 -->
<g id="node27" class="node">
<title>Node27</title>
<g id="a_node27"><a xlink:href="websocket__base_8hpp.html" target="_top" xlink:title=" ">
<polygon fill="none" stroke="black" points="1803,-336.5 1803,-355.5 2015,-355.5 2015,-336.5 1803,-336.5"/>
<text text-anchor="middle" x="1909" y="-343.5" font-family="Helvetica,sans-Serif" font-size="10.00">include/roar/websocket/websocket_base.hpp</text>
</a>
</g>
</g>
<!-- Node1&#45;&gt;Node27 -->
<g id="edge47" class="edge">
<title>Node1&#45;&gt;Node27</title>
<path fill="none" stroke="midnightblue" d="M1565.98,-392.51C1642.09,-382.41 1768.39,-365.66 1844.66,-355.54"/>
<polygon fill="midnightblue" stroke="midnightblue" points="1565.5,-389.04 1556.05,-393.83 1566.42,-395.98 1565.5,-389.04"/>
</g>
<!-- Node31 -->
<g id="node31" class="node">
<title>Node31</title>
<g id="a_node31"><a xlink:href="websocket__session_8cpp.html" target="_top" xlink:title=" ">
<polygon fill="none" stroke="black" points="1876,-224.5 1876,-243.5 2084,-243.5 2084,-224.5 1876,-224.5"/>
<text text-anchor="middle" x="1980" y="-231.5" font-family="Helvetica,sans-Serif" font-size="10.00">src/roar/websocket/websocket_session.cpp</text>
</a>
</g>
</g>
<!-- Node1&#45;&gt;Node31 -->
<g id="edge55" class="edge">
<title>Node1&#45;&gt;Node31</title>
<path fill="none" stroke="midnightblue" d="M1566.34,-398.36C1756.68,-389.9 2306.92,-360.36 2358,-300 2363.74,-293.21 2363.9,-286.65 2358,-280 2348.76,-269.59 2187.92,-253.39 2079.05,-243.53"/>
<polygon fill="midnightblue" stroke="midnightblue" points="1566.05,-394.87 1556.21,-398.81 1566.35,-401.87 1566.05,-394.87"/>
</g>
<!-- Node6&#45;&gt;Node7 -->
<g id="edge6" class="edge">
<title>Node6&#45;&gt;Node7</title>
<path fill="none" stroke="midnightblue" d="M1543.34,-326.67C1537.21,-302.62 1526.72,-261.39 1522.19,-243.59"/>
<polygon fill="midnightblue" stroke="midnightblue" points="1539.94,-327.54 1545.8,-336.37 1546.73,-325.81 1539.94,-327.54"/>
</g>
<!-- Node8 -->
<g id="node8" class="node">
<title>Node8</title>
<g id="a_node8"><a xlink:href="directory__server_8hpp.html" target="_top" xlink:title=" ">
<polygon fill="none" stroke="black" points="1013.5,-112.5 1013.5,-131.5 1244.5,-131.5 1244.5,-112.5 1013.5,-112.5"/>
<text text-anchor="middle" x="1129" y="-119.5" font-family="Helvetica,sans-Serif" font-size="10.00">include/roar/directory_server/directory_server.hpp</text>
</a>
</g>
</g>
<!-- Node7&#45;&gt;Node8 -->
<g id="edge7" class="edge">
<title>Node7&#45;&gt;Node8</title>
<path fill="none" stroke="midnightblue" d="M1434.5,-223.09C1385.6,-216.07 1323.52,-204.85 1270,-188 1222.18,-172.94 1169.41,-145.45 1144.13,-131.54"/>
<polygon fill="midnightblue" stroke="midnightblue" points="1434.02,-226.56 1444.41,-224.48 1435,-219.62 1434.02,-226.56"/>
</g>
<!-- Node7&#45;&gt;Node9 -->
<g id="edge36" class="edge">
<title>Node7&#45;&gt;Node9</title>
<path fill="none" stroke="midnightblue" d="M1430.22,-224.11C1379.24,-217.23 1322.06,-205.8 1304,-188 1279.35,-163.71 1310.76,-137.17 1287,-112 1261.45,-84.94 1220.89,-73.77 1187.26,-69.33"/>
<polygon fill="midnightblue" stroke="midnightblue" points="1429.96,-227.6 1440.32,-225.43 1430.86,-220.66 1429.96,-227.6"/>
</g>
<!-- Node12 -->
<g id="node12" class="node">
<title>Node12</title>
<g id="a_node12"><a xlink:href="server_8cpp.html" target="_top" xlink:title=" ">
<polygon fill="none" stroke="black" points="1723,-0.5 1723,-19.5 1821,-19.5 1821,-0.5 1723,-0.5"/>
<text text-anchor="middle" x="1772" y="-7.5" font-family="Helvetica,sans-Serif" font-size="10.00">src/roar/server.cpp</text>
</a>
</g>
</g>
<!-- Node7&#45;&gt;Node12 -->
<g id="edge39" class="edge">
<title>Node7&#45;&gt;Node12</title>
<path fill="none" stroke="midnightblue" d="M1609.78,-226.56C1666.91,-220.48 1733.67,-209.03 1753,-188 1797.77,-139.31 1780.97,-48.34 1774.25,-19.8"/>
<polygon fill="midnightblue" stroke="midnightblue" points="1609.2,-223.1 1599.6,-227.6 1609.91,-230.06 1609.2,-223.1"/>
</g>
<!-- Node13 -->
<g id="node13" class="node">
<title>Node13</title>
<g id="a_node13"><a xlink:href="include_2roar_2routing_2request__listener_8hpp.html" target="_top" xlink:title=" ">
<polygon fill="none" stroke="black" points="789,-168.5 789,-187.5 979,-187.5 979,-168.5 789,-168.5"/>
<text text-anchor="middle" x="884" y="-175.5" font-family="Helvetica,sans-Serif" font-size="10.00">include/roar/routing/request_listener.hpp</text>
</a>
</g>
</g>
<!-- Node7&#45;&gt;Node13 -->
<g id="edge16" class="edge">
<title>Node7&#45;&gt;Node13</title>
<path fill="none" stroke="midnightblue" d="M1430.22,-225.38C1310.95,-215.25 1101.16,-197.44 979.21,-187.08"/>
<polygon fill="midnightblue" stroke="midnightblue" points="1430.16,-228.88 1440.42,-226.24 1430.75,-221.91 1430.16,-228.88"/>
</g>
<!-- Node22 -->
<g id="node22" class="node">
<title>Node22</title>
<g id="a_node22"><a xlink:href="route_8cpp.html" target="_top" xlink:title=" ">
<polygon fill="none" stroke="black" points="1312.5,-168.5 1312.5,-187.5 1437.5,-187.5 1437.5,-168.5 1312.5,-168.5"/>
<text text-anchor="middle" x="1375" y="-175.5" font-family="Helvetica,sans-Serif" font-size="10.00">src/roar/routing/route.cpp</text>
</a>
</g>
</g>
<!-- Node7&#45;&gt;Node22 -->
<g id="edge37" class="edge">
<title>Node7&#45;&gt;Node22</title>
<path fill="none" stroke="midnightblue" d="M1487.52,-220.91C1460.26,-210.75 1422.01,-196.51 1397.87,-187.52"/>
<polygon fill="midnightblue" stroke="midnightblue" points="1486.43,-224.23 1497.02,-224.44 1488.87,-217.67 1486.43,-224.23"/>
</g>
<!-- Node23 -->
<g id="node23" class="node">
<title>Node23</title>
<g id="a_node23"><a xlink:href="router_8cpp.html" target="_top" xlink:title=" ">
<polygon fill="none" stroke="black" points="1456,-168.5 1456,-187.5 1584,-187.5 1584,-168.5 1456,-168.5"/>
<text text-anchor="middle" x="1520" y="-175.5" font-family="Helvetica,sans-Serif" font-size="10.00">src/roar/routing/router.cpp</text>
</a>
</g>
</g>
<!-- Node7&#45;&gt;Node23 -->
<g id="edge38" class="edge">
<title>Node7&#45;&gt;Node23</title>
<path fill="none" stroke="midnightblue" d="M1520,-213.8C1520,-204.91 1520,-194.78 1520,-187.75"/>
<polygon fill="midnightblue" stroke="midnightblue" points="1516.5,-214.08 1520,-224.08 1523.5,-214.08 1516.5,-214.08"/>
</g>
<!-- Node24 -->
<g id="node24" class="node">
<title>Node24</title>
<g id="a_node24"><a xlink:href="factory_8cpp.html" target="_top" xlink:title=" ">
<polygon fill="none" stroke="black" points="1838.5,-168.5 1838.5,-187.5 1975.5,-187.5 1975.5,-168.5 1838.5,-168.5"/>
<text text-anchor="middle" x="1907" y="-175.5" font-family="Helvetica,sans-Serif" font-size="10.00">src/roar/session/factory.cpp</text>
</a>
</g>
</g>
<!-- Node7&#45;&gt;Node24 -->
<g id="edge40" class="edge">
<title>Node7&#45;&gt;Node24</title>
<path fill="none" stroke="midnightblue" d="M1591.37,-223.04C1664.46,-212.84 1776.88,-197.16 1845.97,-187.52"/>
<polygon fill="midnightblue" stroke="midnightblue" points="1590.74,-219.6 1581.32,-224.44 1591.71,-226.53 1590.74,-219.6"/>
</g>
<!-- Node25 -->
<g id="node25" class="node">
<title>Node25</title>
<g id="a_node25"><a xlink:href="session_8cpp.html" target="_top" xlink:title=" ">
<polygon fill="none" stroke="black" points="1602,-168.5 1602,-187.5 1744,-187.5 1744,-168.5 1602,-168.5"/>
<text text-anchor="middle" x="1673" y="-175.5" font-family="Helvetica,sans-Serif" font-size="10.00">src/roar/session/session.cpp</text>
</a>
</g>
</g>
<!-- Node7&#45;&gt;Node25 -->
<g id="edge41" class="edge">
<title>Node7&#45;&gt;Node25</title>
<path fill="none" stroke="midnightblue" d="M1553.89,-221.04C1582.68,-210.88 1623.29,-196.55 1648.87,-187.52"/>
<polygon fill="midnightblue" stroke="midnightblue" points="1552.51,-217.81 1544.24,-224.44 1554.84,-224.42 1552.51,-217.81"/>
</g>
<!-- Node8&#45;&gt;Node9 -->
<g id="edge8" class="edge">
<title>Node8&#45;&gt;Node9</title>
<path fill="none" stroke="midnightblue" d="M1129,-101.8C1129,-92.91 1129,-82.78 1129,-75.75"/>
<polygon fill="midnightblue" stroke="midnightblue" points="1125.5,-102.08 1129,-112.08 1132.5,-102.08 1125.5,-102.08"/>
</g>
<!-- Node9&#45;&gt;Node2 -->
<g id="edge9" class="edge">
<title>Node9&#45;&gt;Node2</title>
<path fill="none" stroke="midnightblue" d="M1060.9,-59.66C933.36,-49.64 659.02,-28.11 522.14,-17.37"/>
<polygon fill="midnightblue" stroke="midnightblue" points="1060.69,-63.15 1070.93,-60.44 1061.24,-56.17 1060.69,-63.15"/>
</g>
<!-- Node9&#45;&gt;Node3 -->
<g id="edge11" class="edge">
<title>Node9&#45;&gt;Node3</title>
<path fill="none" stroke="midnightblue" d="M1060.73,-55.4C988.26,-45.21 874.81,-29.25 805.46,-19.5"/>
<polygon fill="midnightblue" stroke="midnightblue" points="1060.29,-58.87 1070.68,-56.8 1061.26,-51.94 1060.29,-58.87"/>
</g>
<!-- Node9&#45;&gt;Node4 -->
<g id="edge12" class="edge">
<title>Node9&#45;&gt;Node4</title>
<path fill="none" stroke="midnightblue" d="M1060.81,-60.19C1039.72,-58.77 1016.4,-57.25 995,-56 693.97,-38.37 336.04,-21.78 177.54,-14.65"/>
<polygon fill="midnightblue" stroke="midnightblue" points="1060.76,-63.7 1070.97,-60.89 1061.23,-56.71 1060.76,-63.7"/>
</g>
<!-- Node9&#45;&gt;Node5 -->
<g id="edge13" class="edge">
<title>Node9&#45;&gt;Node5</title>
<path fill="none" stroke="midnightblue" d="M1175.2,-54.15C1218.66,-43.95 1282.84,-28.88 1322.73,-19.52"/>
<polygon fill="midnightblue" stroke="midnightblue" points="1174.38,-50.75 1165.44,-56.44 1175.98,-57.57 1174.38,-50.75"/>
</g>
<!-- Node10 -->
<g id="node10" class="node">
<title>Node10</title>
<g id="a_node10"><a xlink:href="most__minimal_2main_8cpp.html" target="_top" xlink:title=" ">
<polygon fill="none" stroke="black" points="1099.5,-0.5 1099.5,-19.5 1264.5,-19.5 1264.5,-0.5 1099.5,-0.5"/>
<text text-anchor="middle" x="1182" y="-7.5" font-family="Helvetica,sans-Serif" font-size="10.00">examples/most_minimal/main.cpp</text>
</a>
</g>
</g>
<!-- Node9&#45;&gt;Node10 -->
<g id="edge10" class="edge">
<title>Node9&#45;&gt;Node10</title>
<path fill="none" stroke="midnightblue" d="M1144.98,-48.72C1154.32,-39.2 1165.75,-27.56 1173.41,-19.75"/>
<polygon fill="midnightblue" stroke="midnightblue" points="1142.26,-46.49 1137.75,-56.08 1147.25,-51.4 1142.26,-46.49"/>
</g>
<!-- Node11 -->
<g id="node11" class="node">
<title>Node11</title>
<g id="a_node11"><a xlink:href="src_2roar_2routing_2request__listener_8cpp.html" target="_top" xlink:title=" ">
<polygon fill="none" stroke="black" points="908.5,-0.5 908.5,-19.5 1081.5,-19.5 1081.5,-0.5 908.5,-0.5"/>
<text text-anchor="middle" x="995" y="-7.5" font-family="Helvetica,sans-Serif" font-size="10.00">src/roar/routing/request_listener.cpp</text>
</a>
</g>
</g>
<!-- Node9&#45;&gt;Node11 -->
<g id="edge14" class="edge">
<title>Node9&#45;&gt;Node11</title>
<path fill="none" stroke="midnightblue" d="M1098.32,-52.64C1073.18,-42.5 1038.25,-28.43 1016.13,-19.52"/>
<polygon fill="midnightblue" stroke="midnightblue" points="1097.18,-55.95 1107.77,-56.44 1099.8,-49.46 1097.18,-55.95"/>
</g>
<!-- Node9&#45;&gt;Node12 -->
<g id="edge15" class="edge">
<title>Node9&#45;&gt;Node12</title>
<path fill="none" stroke="midnightblue" d="M1197.46,-59.25C1327.91,-48.29 1609.24,-24.67 1722.89,-15.12"/>
<polygon fill="midnightblue" stroke="midnightblue" points="1196.87,-55.79 1187.2,-60.11 1197.45,-62.76 1196.87,-55.79"/>
</g>
<!-- Node13&#45;&gt;Node2 -->
<g id="edge17" class="edge">
<title>Node13&#45;&gt;Node2</title>
<path fill="none" stroke="midnightblue" d="M778.8,-173.05C657.71,-167.44 472.51,-155.17 450,-132 419.91,-101.02 432.24,-42.07 438.35,-19.81"/>
<polygon fill="midnightblue" stroke="midnightblue" points="778.71,-176.55 788.86,-173.51 779.03,-169.56 778.71,-176.55"/>
</g>
<!-- Node13&#45;&gt;Node3 -->
<g id="edge24" class="edge">
<title>Node13&#45;&gt;Node3</title>
<path fill="none" stroke="midnightblue" d="M812.15,-166.76C771.83,-159.37 727.22,-147.9 715,-132 688.09,-96.99 723.12,-40.94 738.46,-19.62"/>
<polygon fill="midnightblue" stroke="midnightblue" points="811.56,-170.21 822.02,-168.5 812.78,-163.31 811.56,-170.21"/>
</g>
<!-- Node13&#45;&gt;Node4 -->
<g id="edge25" class="edge">
<title>Node13&#45;&gt;Node4</title>
<path fill="none" stroke="midnightblue" d="M778.89,-175.62C593.21,-172.41 221.87,-162.25 171,-132 126.86,-105.75 104.41,-42.84 97.44,-19.72"/>
<polygon fill="midnightblue" stroke="midnightblue" points="778.89,-179.12 788.95,-175.79 779.01,-172.12 778.89,-179.12"/>
</g>
<!-- Node13&#45;&gt;Node5 -->
<g id="edge29" class="edge">
<title>Node13&#45;&gt;Node5</title>
<path fill="none" stroke="midnightblue" d="M989.58,-172.48C1082.15,-167.01 1208.66,-155.44 1253,-132 1304.11,-104.98 1341.87,-42.54 1354.45,-19.63"/>
<polygon fill="midnightblue" stroke="midnightblue" points="989.11,-169 979.32,-173.06 989.51,-175.99 989.11,-169"/>
</g>
<!-- Node13&#45;&gt;Node8 -->
<g id="edge33" class="edge">
<title>Node13&#45;&gt;Node8</title>
<path fill="none" stroke="midnightblue" d="M932.63,-166.28C978.93,-156.08 1047.69,-140.92 1090.36,-131.52"/>
<polygon fill="midnightblue" stroke="midnightblue" points="931.83,-162.87 922.82,-168.44 933.34,-169.71 931.83,-162.87"/>
</g>
<!-- Node13&#45;&gt;Node9 -->
<g id="edge34" class="edge">
<title>Node13&#45;&gt;Node9</title>
<path fill="none" stroke="midnightblue" d="M906.68,-163.37C930.43,-149.43 969.06,-127.64 1004,-112 1036.84,-97.3 1076.07,-83.8 1101.71,-75.5"/>
<polygon fill="midnightblue" stroke="midnightblue" points="904.88,-160.38 898.05,-168.48 908.44,-166.4 904.88,-160.38"/>
</g>
<!-- Node13&#45;&gt;Node11 -->
<g id="edge35" class="edge">
<title>Node13&#45;&gt;Node11</title>
<path fill="none" stroke="midnightblue" d="M902.14,-161.9C932.32,-136.58 990.04,-87.22 995,-76 1003.21,-57.42 999.88,-32.83 997.17,-19.87"/>
<polygon fill="midnightblue" stroke="midnightblue" points="899.85,-159.25 894.43,-168.35 904.34,-164.62 899.85,-159.25"/>
</g>
<!-- Node14 -->
<g id="node14" class="node">
<title>Node14</title>
<g id="a_node14"><a xlink:href="examples_2100__continue_2request__listener_8hpp.html" target="_top" xlink:title=" ">
<polygon fill="none" stroke="black" points="459,-112.5 459,-131.5 669,-131.5 669,-112.5 459,-112.5"/>
<text text-anchor="middle" x="564" y="-119.5" font-family="Helvetica,sans-Serif" font-size="10.00">examples/100_continue/request_listener.hpp</text>
</a>
</g>
</g>
<!-- Node13&#45;&gt;Node14 -->
<g id="edge18" class="edge">
<title>Node13&#45;&gt;Node14</title>
<path fill="none" stroke="midnightblue" d="M823.13,-166.73C762.66,-156.52 671.01,-141.06 614.47,-131.52"/>
<polygon fill="midnightblue" stroke="midnightblue" points="822.85,-170.23 833.3,-168.44 824.02,-163.33 822.85,-170.23"/>
</g>
<!-- Node16 -->
<g id="node16" class="node">
<title>Node16</title>
<g id="a_node16"><a xlink:href="file__server_8hpp.html" target="_top" xlink:title=" ">
<polygon fill="none" stroke="black" points="724.5,-112.5 724.5,-131.5 919.5,-131.5 919.5,-112.5 724.5,-112.5"/>
<text text-anchor="middle" x="822" y="-119.5" font-family="Helvetica,sans-Serif" font-size="10.00">examples/serve_directory/file_server.hpp</text>
</a>
</g>
</g>
<!-- Node13&#45;&gt;Node16 -->
<g id="edge21" class="edge">
<title>Node13&#45;&gt;Node16</title>
<path fill="none" stroke="midnightblue" d="M866.25,-161.54C855.19,-151.91 841.37,-139.87 832.14,-131.83"/>
<polygon fill="midnightblue" stroke="midnightblue" points="864.2,-164.4 874.04,-168.32 868.8,-159.12 864.2,-164.4"/>
</g>
<!-- Node18 -->
<g id="node18" class="node">
<title>Node18</title>
<g id="a_node18"><a xlink:href="examples_2simple__server_2request__listener_8hpp.html" target="_top" xlink:title=" ">
<polygon fill="none" stroke="black" points="180.5,-112.5 180.5,-131.5 393.5,-131.5 393.5,-112.5 180.5,-112.5"/>
<text text-anchor="middle" x="287" y="-119.5" font-family="Helvetica,sans-Serif" font-size="10.00">examples/simple_server/request_listener.hpp</text>
</a>
</g>
</g>
<!-- Node13&#45;&gt;Node18 -->
<g id="edge26" class="edge">
<title>Node13&#45;&gt;Node18</title>
<path fill="none" stroke="midnightblue" d="M779.73,-167.57C667.24,-157.39 489.71,-141.34 381.26,-131.53"/>
<polygon fill="midnightblue" stroke="midnightblue" points="779.46,-171.06 789.73,-168.47 780.09,-164.09 779.46,-171.06"/>
</g>
<!-- Node20 -->
<g id="node20" class="node">
<title>Node20</title>
<g id="a_node20"><a xlink:href="examples_2websocket_2request__listener_8hpp.html" target="_top" xlink:title=" ">
<polygon fill="none" stroke="black" points="1382,-112.5 1382,-131.5 1582,-131.5 1582,-112.5 1382,-112.5"/>
<text text-anchor="middle" x="1482" y="-119.5" font-family="Helvetica,sans-Serif" font-size="10.00">examples/websocket/request_listener.hpp</text>
</a>
</g>
</g>
<!-- Node13&#45;&gt;Node20 -->
<g id="edge30" class="edge">
<title>Node13&#45;&gt;Node20</title>
<path fill="none" stroke="midnightblue" d="M988.45,-167.57C1101.13,-157.39 1278.95,-141.34 1387.58,-131.53"/>
<polygon fill="midnightblue" stroke="midnightblue" points="988.07,-164.09 978.42,-168.47 988.7,-171.06 988.07,-164.09"/>
</g>
<!-- Node14&#45;&gt;Node2 -->
<g id="edge19" class="edge">
<title>Node14&#45;&gt;Node2</title>
<path fill="none" stroke="midnightblue" d="M530.27,-108.36C513.44,-100.84 493.61,-90.01 479,-76 461.64,-59.35 449.6,-33.06 444.21,-19.58"/>
<polygon fill="midnightblue" stroke="midnightblue" points="529.2,-111.71 539.77,-112.41 531.94,-105.27 529.2,-111.71"/>
</g>
<!-- Node15 -->
<g id="node15" class="node">
<title>Node15</title>
<g id="a_node15"><a xlink:href="examples_2100__continue_2request__listener_8cpp.html" target="_top" xlink:title=" ">
<polygon fill="none" stroke="black" points="488,-56.5 488,-75.5 698,-75.5 698,-56.5 488,-56.5"/>
<text text-anchor="middle" x="593" y="-63.5" font-family="Helvetica,sans-Serif" font-size="10.00">examples/100_continue/request_listener.cpp</text>
</a>
</g>
</g>
<!-- Node14&#45;&gt;Node15 -->
<g id="edge20" class="edge">
<title>Node14&#45;&gt;Node15</title>
<path fill="none" stroke="midnightblue" d="M573.68,-102.98C578.6,-93.82 584.36,-83.09 588.3,-75.75"/>
<polygon fill="midnightblue" stroke="midnightblue" points="570.44,-101.62 568.79,-112.08 576.6,-104.93 570.44,-101.62"/>
</g>
<!-- Node16&#45;&gt;Node3 -->
<g id="edge23" class="edge">
<title>Node16&#45;&gt;Node3</title>
<path fill="none" stroke="midnightblue" d="M806.32,-105.02C798.56,-96.72 789.31,-86.19 782,-76 768.38,-57.01 755.62,-32.59 749.25,-19.76"/>
<polygon fill="midnightblue" stroke="midnightblue" points="804.02,-107.68 813.46,-112.5 809.08,-102.85 804.02,-107.68"/>
</g>
<!-- Node17 -->
<g id="node17" class="node">
<title>Node17</title>
<g id="a_node17"><a xlink:href="file__server_8cpp.html" target="_top" xlink:title=" ">
<polygon fill="none" stroke="black" points="791.5,-56.5 791.5,-75.5 986.5,-75.5 986.5,-56.5 791.5,-56.5"/>
<text text-anchor="middle" x="889" y="-63.5" font-family="Helvetica,sans-Serif" font-size="10.00">examples/serve_directory/file_server.cpp</text>
</a>
</g>
</g>
<!-- Node16&#45;&gt;Node17 -->
<g id="edge22" class="edge">
<title>Node16&#45;&gt;Node17</title>
<path fill="none" stroke="midnightblue" d="M840.83,-105.82C852.84,-96.15 867.97,-83.95 878.04,-75.83"/>
<polygon fill="midnightblue" stroke="midnightblue" points="838.35,-103.32 832.76,-112.32 842.75,-108.77 838.35,-103.32"/>
</g>
<!-- Node18&#45;&gt;Node4 -->
<g id="edge27" class="edge">
<title>Node18&#45;&gt;Node4</title>
<path fill="none" stroke="midnightblue" d="M247.61,-109.41C224.41,-101.7 195.01,-90.35 171,-76 143.58,-59.61 116.31,-33.2 103.15,-19.64"/>
<polygon fill="midnightblue" stroke="midnightblue" points="246.54,-112.74 257.13,-112.49 248.7,-106.08 246.54,-112.74"/>
</g>
<!-- Node19 -->
<g id="node19" class="node">
<title>Node19</title>
<g id="a_node19"><a xlink:href="examples_2simple__server_2request__listener_8cpp.html" target="_top" xlink:title=" ">
<polygon fill="none" stroke="black" points="180.5,-56.5 180.5,-75.5 393.5,-75.5 393.5,-56.5 180.5,-56.5"/>
<text text-anchor="middle" x="287" y="-63.5" font-family="Helvetica,sans-Serif" font-size="10.00">examples/simple_server/request_listener.cpp</text>
</a>
</g>
</g>
<!-- Node18&#45;&gt;Node19 -->
<g id="edge28" class="edge">
<title>Node18&#45;&gt;Node19</title>
<path fill="none" stroke="midnightblue" d="M287,-101.8C287,-92.91 287,-82.78 287,-75.75"/>
<polygon fill="midnightblue" stroke="midnightblue" points="283.5,-102.08 287,-112.08 290.5,-102.08 283.5,-102.08"/>
</g>
<!-- Node20&#45;&gt;Node5 -->
<g id="edge31" class="edge">
<title>Node20&#45;&gt;Node5</title>
<path fill="none" stroke="midnightblue" d="M1432.13,-109.28C1412.85,-102.47 1392.09,-91.96 1378,-76 1363.68,-59.79 1360.13,-33.3 1359.27,-19.68"/>
<polygon fill="midnightblue" stroke="midnightblue" points="1431.14,-112.64 1441.73,-112.42 1433.32,-105.99 1431.14,-112.64"/>
</g>
<!-- Node21 -->
<g id="node21" class="node">
<title>Node21</title>
<g id="a_node21"><a xlink:href="examples_2websocket_2request__listener_8cpp.html" target="_top" xlink:title=" ">
<polygon fill="none" stroke="black" points="1387,-56.5 1387,-75.5 1587,-75.5 1587,-56.5 1387,-56.5"/>
<text text-anchor="middle" x="1487" y="-63.5" font-family="Helvetica,sans-Serif" font-size="10.00">examples/websocket/request_listener.cpp</text>
</a>
</g>
</g>
<!-- Node20&#45;&gt;Node21 -->
<g id="edge32" class="edge">
<title>Node20&#45;&gt;Node21</title>
<path fill="none" stroke="midnightblue" d="M1483.75,-102.1C1484.58,-93.14 1485.53,-82.86 1486.19,-75.75"/>
<polygon fill="midnightblue" stroke="midnightblue" points="1480.26,-101.8 1482.83,-112.08 1487.23,-102.45 1480.26,-101.8"/>
</g>
<!-- Node26&#45;&gt;Node12 -->
<g id="edge44" class="edge">
<title>Node26&#45;&gt;Node12</title>
<path fill="none" stroke="midnightblue" d="M2361.2,-220.96C2249.23,-181.05 1892.01,-53.77 1795.97,-19.54"/>
<polygon fill="midnightblue" stroke="midnightblue" points="2360.36,-224.37 2370.96,-224.43 2362.71,-217.78 2360.36,-224.37"/>
</g>
<!-- Node26&#45;&gt;Node24 -->
<g id="edge45" class="edge">
<title>Node26&#45;&gt;Node24</title>
<path fill="none" stroke="midnightblue" d="M2307.79,-223.35C2212.79,-212.84 2062.8,-196.24 1975.77,-186.61"/>
<polygon fill="midnightblue" stroke="midnightblue" points="2307.62,-226.85 2317.94,-224.47 2308.39,-219.89 2307.62,-226.85"/>
</g>
<!-- Node28 -->
<g id="node28" class="node">
<title>Node28</title>
<g id="a_node28"><a xlink:href="websocket__client_8hpp.html" target="_top" xlink:title=" ">
<polygon fill="none" stroke="black" points="1920.5,-280.5 1920.5,-299.5 2135.5,-299.5 2135.5,-280.5 1920.5,-280.5"/>
<text text-anchor="middle" x="2028" y="-287.5" font-family="Helvetica,sans-Serif" font-size="10.00">include/roar/websocket/websocket_client.hpp</text>
</a>
</g>
</g>
<!-- Node27&#45;&gt;Node28 -->
<g id="edge48" class="edge">
<title>Node27&#45;&gt;Node28</title>
<path fill="none" stroke="midnightblue" d="M1937.14,-332.23C1959.4,-322.13 1989.86,-308.31 2009.23,-299.52"/>
<polygon fill="midnightblue" stroke="midnightblue" points="1935.52,-329.12 1927.86,-336.44 1938.41,-335.5 1935.52,-329.12"/>
</g>
<!-- Node30 -->
<g id="node30" class="node">
<title>Node30</title>
<g id="a_node30"><a xlink:href="websocket__session_8hpp.html" target="_top" xlink:title=" ">
<polygon fill="none" stroke="black" points="1677.5,-280.5 1677.5,-299.5 1902.5,-299.5 1902.5,-280.5 1677.5,-280.5"/>
<text text-anchor="middle" x="1790" y="-287.5" font-family="Helvetica,sans-Serif" font-size="10.00">include/roar/websocket/websocket_session.hpp</text>
</a>
</g>
</g>
<!-- Node27&#45;&gt;Node30 -->
<g id="edge50" class="edge">
<title>Node27&#45;&gt;Node30</title>
<path fill="none" stroke="midnightblue" d="M1880.86,-332.23C1858.6,-322.13 1828.14,-308.31 1808.77,-299.52"/>
<polygon fill="midnightblue" stroke="midnightblue" points="1879.59,-335.5 1890.14,-336.44 1882.48,-329.12 1879.59,-335.5"/>
</g>
<!-- Node32 -->
<g id="node32" class="node">
<title>Node32</title>
<g id="a_node32"><a xlink:href="websocket__base_8cpp.html" target="_top" xlink:title=" ">
<polygon fill="none" stroke="black" points="2153.5,-280.5 2153.5,-299.5 2348.5,-299.5 2348.5,-280.5 2153.5,-280.5"/>
<text text-anchor="middle" x="2251" y="-287.5" font-family="Helvetica,sans-Serif" font-size="10.00">src/roar/websocket/websocket_base.cpp</text>
</a>
</g>
</g>
<!-- Node27&#45;&gt;Node32 -->
<g id="edge54" class="edge">
<title>Node27&#45;&gt;Node32</title>
<path fill="none" stroke="midnightblue" d="M1973.26,-334.85C2037.88,-324.65 2136.38,-309.1 2197.06,-299.52"/>
<polygon fill="midnightblue" stroke="midnightblue" points="1972.52,-331.43 1963.19,-336.44 1973.61,-338.34 1972.52,-331.43"/>
</g>
<!-- Node29 -->
<g id="node29" class="node">
<title>Node29</title>
<g id="a_node29"><a xlink:href="websocket__client_8cpp.html" target="_top" xlink:title=" ">
<polygon fill="none" stroke="black" points="2102.5,-224.5 2102.5,-243.5 2299.5,-243.5 2299.5,-224.5 2102.5,-224.5"/>
<text text-anchor="middle" x="2201" y="-231.5" font-family="Helvetica,sans-Serif" font-size="10.00">src/roar/websocket/websocket_client.cpp</text>
</a>
</g>
</g>
<!-- Node28&#45;&gt;Node29 -->
<g id="edge49" class="edge">
<title>Node28&#45;&gt;Node29</title>
<path fill="none" stroke="midnightblue" d="M2065.05,-277.44C2097.66,-267.26 2144.41,-252.66 2173.72,-243.52"/>
<polygon fill="midnightblue" stroke="midnightblue" points="2063.92,-274.12 2055.41,-280.44 2066,-280.8 2063.92,-274.12"/>
</g>
<!-- Node30&#45;&gt;Node7 -->
<g id="edge52" class="edge">
<title>Node30&#45;&gt;Node7</title>
<path fill="none" stroke="midnightblue" d="M1737.37,-278.47C1686.34,-268.27 1609.9,-252.98 1562.58,-243.52"/>
<polygon fill="midnightblue" stroke="midnightblue" points="1736.73,-281.91 1747.22,-280.44 1738.1,-275.05 1736.73,-281.91"/>
</g>
<!-- Node30&#45;&gt;Node20 -->
<g id="edge51" class="edge">
<title>Node30&#45;&gt;Node20</title>
<path fill="none" stroke="midnightblue" d="M1790.02,-270.34C1788.97,-243.43 1782.79,-194.09 1753,-168 1727.8,-145.93 1648.63,-134.53 1582.32,-128.73"/>
<polygon fill="midnightblue" stroke="midnightblue" points="1786.52,-270.44 1790.21,-280.37 1793.52,-270.3 1786.52,-270.44"/>
</g>
<!-- Node30&#45;&gt;Node31 -->
<g id="edge53" class="edge">
<title>Node30&#45;&gt;Node31</title>
<path fill="none" stroke="midnightblue" d="M1829.76,-277.7C1865.62,-267.51 1917.57,-252.74 1950.03,-243.52"/>
<polygon fill="midnightblue" stroke="midnightblue" points="1828.77,-274.34 1820.11,-280.44 1830.68,-281.08 1828.77,-274.34"/>
</g>
</g>
</svg>
        <g id="navigator" transform="translate(0 0)" fill="#404254">
                <rect fill="#f2f5e9" fill-opacity="0.5" stroke="#606060" stroke-width=".5" x="0" y="0" width="60" height="60"/>
                <use id="zoomplus" xlink:href="#zoomPlus" x="17" y="9" onmousedown="handleZoom(evt,'in')"/>
                <use id="zoomminus" xlink:href="#zoomMin" x="42" y="9" onmousedown="handleZoom(evt,'out')"/>
                <use id="reset" xlink:href="#resetDef" x="30" y="36" onmousedown="handleReset()"/>
                <g id="arrowUp" xlink:href="#dirArrow" transform="translate(30 24)" onmousedown="handlePan(0,-1)">
                  <use xlink:href="#rim" fill="#404040">
                        <set attributeName="fill" to="#808080" begin="arrowUp.mouseover" end="arrowUp.mouseout"/>
                  </use>
                  <path fill="none" stroke="white" stroke-width="1.5" d="M0,-3.0v7 M-2.5,-0.5L0,-3.0L2.5,-0.5"/>
                </g>
                <g id="arrowRight" xlink:href="#dirArrow" transform="rotate(90) translate(36 -43)" onmousedown="handlePan(1,0)">
                  <use xlink:href="#rim" fill="#404040">
                        <set attributeName="fill" to="#808080" begin="arrowRight.mouseover" end="arrowRight.mouseout"/>
                  </use>
                  <path fill="none" stroke="white" stroke-width="1.5" d="M0,-3.0v7 M-2.5,-0.5L0,-3.0L2.5,-0.5"/>
                </g>
                <g id="arrowDown" xlink:href="#dirArrow" transform="rotate(180) translate(-30 -48)" onmousedown="handlePan(0,1)">
                  <use xlink:href="#rim" fill="#404040">
                        <set attributeName="fill" to="#808080" begin="arrowDown.mouseover" end="arrowDown.mouseout"/>
                  </use>
                  <path fill="none" stroke="white" stroke-width="1.5" d="M0,-3.0v7 M-2.5,-0.5L0,-3.0L2.5,-0.5"/>
                </g>
                <g id="arrowLeft" xlink:href="#dirArrow" transform="rotate(270) translate(-36 17)" onmousedown="handlePan(-1,0)">
                  <use xlink:href="#rim" fill="#404040">
                        <set attributeName="fill" to="#808080" begin="arrowLeft.mouseover" end="arrowLeft.mouseout"/>
                  </use>
                  <path fill="none" stroke="white" stroke-width="1.5" d="M0,-3.0v7 M-2.5,-0.5L0,-3.0L2.5,-0.5"/>
                </g>
        </g>
        <svg viewBox="0 0 15 15" width="100%" height="30px" preserveAspectRatio="xMaxYMin meet">
         <g id="arrow_out" transform="scale(0.3 0.3)">
          <a xlink:href="error_8hpp__dep__incl_org.svg" target="_base">
           <rect id="button" ry="5" rx="5" y="6" x="6" height="38" width="38"
                fill="#f2f5e9" fill-opacity="0.5" stroke="#606060" stroke-width="1.0"/>
           <path id="arrow"
             d="M 11.500037,31.436501 C 11.940474,20.09759 22.043105,11.32322 32.158766,21.979434 L 37.068811,17.246167 C 37.068811,17.246167 37.088388,32 37.088388,32 L 22.160133,31.978069 C 22.160133,31.978069 26.997745,27.140456 26.997745,27.140456 C 18.528582,18.264221 13.291696,25.230495 11.500037,31.436501 z"
             style="fill:#404040;"/>
          </a>
         </g>
        </svg>
</svg>
