<?xml version="1.0" encoding="UTF-8" standalone="no"?>
<!DOCTYPE svg PUBLIC "-//W3C//DTD SVG 1.1//EN"
 "http://www.w3.org/Graphics/SVG/1.1/DTD/svg11.dtd">
<!-- Generated by graphviz version 2.44.1 (20211215.1903)
 -->
<!-- Title: include/roar/error.hpp Pages: 1 -->
<svg width="1759pt" height="364pt"
 viewBox="0.00 0.00 1759.00 364.00" xmlns="http://www.w3.org/2000/svg" xmlns:xlink="http://www.w3.org/1999/xlink">
<g id="graph0" class="graph" transform="scale(1 1) rotate(0) translate(4 360)">
<title>include/roar/error.hpp</title>
<!-- Node1 -->
<g id="node1" class="node">
<title>Node1</title>
<g id="a_node1"><a xlink:title=" ">
<polygon fill="#bfbfbf" stroke="black" points="610.5,-336.5 610.5,-355.5 718.5,-355.5 718.5,-336.5 610.5,-336.5"/>
<text text-anchor="middle" x="664.5" y="-343.5" font-family="Helvetica,sans-Serif" font-size="10.00">include/roar/error.hpp</text>
</a>
</g>
</g>
<!-- Node2 -->
<g id="node2" class="node">
<title>Node2</title>
<g id="a_node2"><a xlink:href="simple__server_2main_8cpp.html" target="_top" xlink:title=" ">
<polygon fill="none" stroke="black" points="370,-0.5 370,-19.5 535,-19.5 535,-0.5 370,-0.5"/>
<text text-anchor="middle" x="452.5" y="-7.5" font-family="Helvetica,sans-Serif" font-size="10.00">examples/simple_server/main.cpp</text>
</a>
</g>
</g>
<!-- Node1&#45;&gt;Node2 -->
<g id="edge1" class="edge">
<title>Node1&#45;&gt;Node2</title>
<path fill="none" stroke="midnightblue" d="M600.06,-342.79C500.53,-338.57 314.59,-327.22 254.5,-300 215.53,-282.35 183.5,-277.78 183.5,-235 183.5,-235 183.5,-235 183.5,-177 183.5,-77.12 319.46,-35.36 398.06,-19.56"/>
<polygon fill="midnightblue" stroke="midnightblue" points="600.16,-346.3 610.3,-343.21 600.45,-339.3 600.16,-346.3"/>
</g>
<!-- Node3 -->
<g id="node3" class="node">
<title>Node3</title>
<g id="a_node3"><a xlink:href="websocket_2main_8cpp.html" target="_top" xlink:title=" ">
<polygon fill="none" stroke="black" points="991.5,-0.5 991.5,-19.5 1143.5,-19.5 1143.5,-0.5 991.5,-0.5"/>
<text text-anchor="middle" x="1067.5" y="-7.5" font-family="Helvetica,sans-Serif" font-size="10.00">examples/websocket/main.cpp</text>
</a>
</g>
</g>
<!-- Node1&#45;&gt;Node3 -->
<g id="edge2" class="edge">
<title>Node1&#45;&gt;Node3</title>
<path fill="none" stroke="midnightblue" d="M689.73,-331.82C748.8,-301.2 901.07,-223.6 1032.5,-168 1075.24,-149.92 1103.94,-170.05 1130.5,-132 1157.88,-92.77 1102.83,-40.11 1078.38,-19.64"/>
<polygon fill="midnightblue" stroke="midnightblue" points="688.01,-328.77 680.75,-336.49 691.23,-334.98 688.01,-328.77"/>
</g>
<!-- Node4 -->
<g id="node4" class="node">
<title>Node4</title>
<g id="a_node4"><a xlink:href="server_8hpp.html" target="_top" xlink:title=" ">
<polygon fill="none" stroke="black" points="394.5,-56.5 394.5,-75.5 510.5,-75.5 510.5,-56.5 394.5,-56.5"/>
<text text-anchor="middle" x="452.5" y="-63.5" font-family="Helvetica,sans-Serif" font-size="10.00">include/roar/server.hpp</text>
</a>
</g>
</g>
<!-- Node1&#45;&gt;Node4 -->
<g id="edge3" class="edge">
<title>Node1&#45;&gt;Node4</title>
<path fill="none" stroke="midnightblue" d="M600.14,-342.35C477.3,-335.53 221.5,-312.08 221.5,-235 221.5,-235 221.5,-235 221.5,-177 221.5,-146.77 219.2,-132.41 241.5,-112 263.5,-91.86 339.78,-79.37 394.29,-72.8"/>
<polygon fill="midnightblue" stroke="midnightblue" points="600.01,-345.85 610.18,-342.89 600.38,-338.86 600.01,-345.85"/>
</g>
<!-- Node8 -->
<g id="node8" class="node">
<title>Node8</title>
<g id="a_node8"><a xlink:href="factory_8hpp.html" target="_top" xlink:title=" ">
<polygon fill="none" stroke="black" points="0,-168.5 0,-187.5 155,-187.5 155,-168.5 0,-168.5"/>
<text text-anchor="middle" x="77.5" y="-175.5" font-family="Helvetica,sans-Serif" font-size="10.00">include/roar/session/factory.hpp</text>
</a>
</g>
</g>
<!-- Node1&#45;&gt;Node8 -->
<g id="edge9" class="edge">
<title>Node1&#45;&gt;Node8</title>
<path fill="none" stroke="midnightblue" d="M600.22,-345.49C483.45,-345.36 241.86,-340.07 169.5,-300 121.71,-273.54 91.05,-210.76 81.07,-187.69"/>
<polygon fill="midnightblue" stroke="midnightblue" points="600.45,-348.99 610.45,-345.49 600.45,-341.99 600.45,-348.99"/>
</g>
<!-- Node10 -->
<g id="node10" class="node">
<title>Node10</title>
<g id="a_node10"><a xlink:href="session_8hpp.html" target="_top" xlink:title=" ">
<polygon fill="none" stroke="black" points="585,-168.5 585,-187.5 744,-187.5 744,-168.5 585,-168.5"/>
<text text-anchor="middle" x="664.5" y="-175.5" font-family="Helvetica,sans-Serif" font-size="10.00">include/roar/session/session.hpp</text>
</a>
</g>
</g>
<!-- Node1&#45;&gt;Node10 -->
<g id="edge12" class="edge">
<title>Node1&#45;&gt;Node10</title>
<path fill="none" stroke="midnightblue" d="M664.5,-325.93C664.5,-289.92 664.5,-213.23 664.5,-187.57"/>
<polygon fill="midnightblue" stroke="midnightblue" points="661,-326.08 664.5,-336.08 668,-326.08 661,-326.08"/>
</g>
<!-- Node20 -->
<g id="node20" class="node">
<title>Node20</title>
<g id="a_node20"><a xlink:href="websocket__base_8hpp.html" target="_top" xlink:title=" ">
<polygon fill="none" stroke="black" points="1205.5,-280.5 1205.5,-299.5 1417.5,-299.5 1417.5,-280.5 1205.5,-280.5"/>
<text text-anchor="middle" x="1311.5" y="-287.5" font-family="Helvetica,sans-Serif" font-size="10.00">include/roar/websocket/websocket_base.hpp</text>
</a>
</g>
</g>
<!-- Node1&#45;&gt;Node20 -->
<g id="edge31" class="edge">
<title>Node1&#45;&gt;Node20</title>
<path fill="none" stroke="midnightblue" d="M728.72,-339.64C841.19,-330.25 1074.63,-310.77 1209.43,-299.52"/>
<polygon fill="midnightblue" stroke="midnightblue" points="728.22,-336.17 718.55,-340.49 728.81,-343.14 728.22,-336.17"/>
</g>
<!-- Node24 -->
<g id="node24" class="node">
<title>Node24</title>
<g id="a_node24"><a xlink:href="websocket__session_8cpp.html" target="_top" xlink:title=" ">
<polygon fill="none" stroke="black" points="1041.5,-168.5 1041.5,-187.5 1249.5,-187.5 1249.5,-168.5 1041.5,-168.5"/>
<text text-anchor="middle" x="1145.5" y="-175.5" font-family="Helvetica,sans-Serif" font-size="10.00">src/roar/websocket/websocket_session.cpp</text>
</a>
</g>
</g>
<!-- Node1&#45;&gt;Node24 -->
<g id="edge39" class="edge">
<title>Node1&#45;&gt;Node24</title>
<path fill="none" stroke="midnightblue" d="M728.79,-343.8C819.63,-340.98 979.82,-331.55 1027.5,-300 1060.05,-278.46 1044.2,-251.89 1071.5,-224 1087.17,-207.99 1109.67,-195.37 1125.74,-187.62"/>
<polygon fill="midnightblue" stroke="midnightblue" points="728.5,-340.31 718.61,-344.1 728.7,-347.3 728.5,-340.31"/>
</g>
<!-- Node4&#45;&gt;Node2 -->
<g id="edge5" class="edge">
<title>Node4&#45;&gt;Node2</title>
<path fill="none" stroke="midnightblue" d="M452.5,-45.8C452.5,-36.91 452.5,-26.78 452.5,-19.75"/>
<polygon fill="midnightblue" stroke="midnightblue" points="449,-46.08 452.5,-56.08 456,-46.08 449,-46.08"/>
</g>
<!-- Node4&#45;&gt;Node3 -->
<g id="edge6" class="edge">
<title>Node4&#45;&gt;Node3</title>
<path fill="none" stroke="midnightblue" d="M520.82,-59.05C619.29,-50.47 806.85,-34.1 966.5,-20 974.57,-19.29 983,-18.54 991.4,-17.79"/>
<polygon fill="midnightblue" stroke="midnightblue" points="520.36,-55.58 510.7,-59.93 520.97,-62.55 520.36,-55.58"/>
</g>
<!-- Node5 -->
<g id="node5" class="node">
<title>Node5</title>
<g id="a_node5"><a xlink:href="most__minimal_2main_8cpp.html" target="_top" xlink:title=" ">
<polygon fill="none" stroke="black" points="187,-0.5 187,-19.5 352,-19.5 352,-0.5 187,-0.5"/>
<text text-anchor="middle" x="269.5" y="-7.5" font-family="Helvetica,sans-Serif" font-size="10.00">examples/most_minimal/main.cpp</text>
</a>
</g>
</g>
<!-- Node4&#45;&gt;Node5 -->
<g id="edge4" class="edge">
<title>Node4&#45;&gt;Node5</title>
<path fill="none" stroke="midnightblue" d="M413.76,-53.57C379.24,-43.38 329.49,-28.7 298.36,-19.52"/>
<polygon fill="midnightblue" stroke="midnightblue" points="412.92,-56.97 423.5,-56.44 414.9,-50.26 412.92,-56.97"/>
</g>
<!-- Node6 -->
<g id="node6" class="node">
<title>Node6</title>
<g id="a_node6"><a xlink:href="src_2roar_2routing_2request__listener_8cpp.html" target="_top" xlink:title=" ">
<polygon fill="none" stroke="black" points="553,-0.5 553,-19.5 726,-19.5 726,-0.5 553,-0.5"/>
<text text-anchor="middle" x="639.5" y="-7.5" font-family="Helvetica,sans-Serif" font-size="10.00">src/roar/routing/request_listener.cpp</text>
</a>
</g>
</g>
<!-- Node4&#45;&gt;Node6 -->
<g id="edge7" class="edge">
<title>Node4&#45;&gt;Node6</title>
<path fill="none" stroke="midnightblue" d="M492.09,-53.57C527.37,-43.38 578.19,-28.7 610.01,-19.52"/>
<polygon fill="midnightblue" stroke="midnightblue" points="490.77,-50.31 482.13,-56.44 492.71,-57.03 490.77,-50.31"/>
</g>
<!-- Node7 -->
<g id="node7" class="node">
<title>Node7</title>
<g id="a_node7"><a xlink:href="server_8cpp.html" target="_top" xlink:title=" ">
<polygon fill="none" stroke="black" points="70.5,-0.5 70.5,-19.5 168.5,-19.5 168.5,-0.5 70.5,-0.5"/>
<text text-anchor="middle" x="119.5" y="-7.5" font-family="Helvetica,sans-Serif" font-size="10.00">src/roar/server.cpp</text>
</a>
</g>
</g>
<!-- Node4&#45;&gt;Node7 -->
<g id="edge8" class="edge">
<title>Node4&#45;&gt;Node7</title>
<path fill="none" stroke="midnightblue" d="M389.75,-54.82C325.66,-44.43 227.47,-28.51 168.76,-18.99"/>
<polygon fill="midnightblue" stroke="midnightblue" points="389.3,-58.3 399.74,-56.44 390.42,-51.39 389.3,-58.3"/>
</g>
<!-- Node8&#45;&gt;Node7 -->
<g id="edge10" class="edge">
<title>Node8&#45;&gt;Node7</title>
<path fill="none" stroke="midnightblue" d="M82.33,-157.93C91.44,-121.92 110.84,-45.23 117.33,-19.57"/>
<polygon fill="midnightblue" stroke="midnightblue" points="78.82,-157.52 79.76,-168.08 85.6,-159.24 78.82,-157.52"/>
</g>
<!-- Node9 -->
<g id="node9" class="node">
<title>Node9</title>
<g id="a_node9"><a xlink:href="factory_8cpp.html" target="_top" xlink:title=" ">
<polygon fill="none" stroke="black" points="250,-112.5 250,-131.5 387,-131.5 387,-112.5 250,-112.5"/>
<text text-anchor="middle" x="318.5" y="-119.5" font-family="Helvetica,sans-Serif" font-size="10.00">src/roar/session/factory.cpp</text>
</a>
</g>
</g>
<!-- Node8&#45;&gt;Node9 -->
<g id="edge11" class="edge">
<title>Node8&#45;&gt;Node9</title>
<path fill="none" stroke="midnightblue" d="M125.62,-166.22C171.16,-156.01 238.61,-140.9 280.49,-131.52"/>
<polygon fill="midnightblue" stroke="midnightblue" points="124.68,-162.84 115.69,-168.44 126.21,-169.67 124.68,-162.84"/>
</g>
<!-- Node10&#45;&gt;Node4 -->
<g id="edge25" class="edge">
<title>Node10&#45;&gt;Node4</title>
<path fill="none" stroke="midnightblue" d="M587.3,-166.85C541.57,-159.36 489.34,-147.73 472.5,-132 456.45,-117.01 453.17,-89.49 452.57,-75.56"/>
<polygon fill="midnightblue" stroke="midnightblue" points="586.82,-170.32 597.25,-168.44 587.92,-163.41 586.82,-170.32"/>
</g>
<!-- Node10&#45;&gt;Node7 -->
<g id="edge28" class="edge">
<title>Node10&#45;&gt;Node7</title>
<path fill="none" stroke="midnightblue" d="M606.07,-166.59C563.87,-158.55 505.71,-146.38 455.5,-132 423.83,-122.93 213.22,-45.55 142.56,-19.51"/>
<polygon fill="midnightblue" stroke="midnightblue" points="605.42,-170.03 615.9,-168.44 606.72,-163.15 605.42,-170.03"/>
</g>
<!-- Node10&#45;&gt;Node9 -->
<g id="edge29" class="edge">
<title>Node10&#45;&gt;Node9</title>
<path fill="none" stroke="midnightblue" d="M599.49,-166.85C534.12,-156.65 434.46,-141.1 373.07,-131.52"/>
<polygon fill="midnightblue" stroke="midnightblue" points="599.26,-170.36 609.68,-168.44 600.33,-163.44 599.26,-170.36"/>
</g>
<!-- Node11 -->
<g id="node11" class="node">
<title>Node11</title>
<g id="a_node11"><a xlink:href="include_2roar_2routing_2request__listener_8hpp.html" target="_top" xlink:title=" ">
<polygon fill="none" stroke="black" points="481.5,-112.5 481.5,-131.5 671.5,-131.5 671.5,-112.5 481.5,-112.5"/>
<text text-anchor="middle" x="576.5" y="-119.5" font-family="Helvetica,sans-Serif" font-size="10.00">include/roar/routing/request_listener.hpp</text>
</a>
</g>
</g>
<!-- Node10&#45;&gt;Node11 -->
<g id="edge13" class="edge">
<title>Node10&#45;&gt;Node11</title>
<path fill="none" stroke="midnightblue" d="M641.52,-162.9C625.39,-153 604.32,-140.07 590.6,-131.65"/>
<polygon fill="midnightblue" stroke="midnightblue" points="640.01,-166.08 650.36,-168.32 643.67,-160.11 640.01,-166.08"/>
</g>
<!-- Node17 -->
<g id="node17" class="node">
<title>Node17</title>
<g id="a_node17"><a xlink:href="route_8cpp.html" target="_top" xlink:title=" ">
<polygon fill="none" stroke="black" points="690,-112.5 690,-131.5 815,-131.5 815,-112.5 690,-112.5"/>
<text text-anchor="middle" x="752.5" y="-119.5" font-family="Helvetica,sans-Serif" font-size="10.00">src/roar/routing/route.cpp</text>
</a>
</g>
</g>
<!-- Node10&#45;&gt;Node17 -->
<g id="edge26" class="edge">
<title>Node10&#45;&gt;Node17</title>
<path fill="none" stroke="midnightblue" d="M687.48,-162.9C703.61,-153 724.68,-140.07 738.4,-131.65"/>
<polygon fill="midnightblue" stroke="midnightblue" points="685.33,-160.11 678.64,-168.32 688.99,-166.08 685.33,-160.11"/>
</g>
<!-- Node18 -->
<g id="node18" class="node">
<title>Node18</title>
<g id="a_node18"><a xlink:href="router_8cpp.html" target="_top" xlink:title=" ">
<polygon fill="none" stroke="black" points="833.5,-112.5 833.5,-131.5 961.5,-131.5 961.5,-112.5 833.5,-112.5"/>
<text text-anchor="middle" x="897.5" y="-119.5" font-family="Helvetica,sans-Serif" font-size="10.00">src/roar/routing/router.cpp</text>
</a>
</g>
</g>
<!-- Node10&#45;&gt;Node18 -->
<g id="edge27" class="edge">
<title>Node10&#45;&gt;Node18</title>
<path fill="none" stroke="midnightblue" d="M711.3,-166.15C755.33,-155.95 820.35,-140.88 860.75,-131.52"/>
<polygon fill="midnightblue" stroke="midnightblue" points="710.37,-162.78 701.42,-168.44 711.95,-169.6 710.37,-162.78"/>
</g>
<!-- Node19 -->
<g id="node19" class="node">
<title>Node19</title>
<g id="a_node19"><a xlink:href="session_8cpp.html" target="_top" xlink:title=" ">
<polygon fill="none" stroke="black" points="979.5,-112.5 979.5,-131.5 1121.5,-131.5 1121.5,-112.5 979.5,-112.5"/>
<text text-anchor="middle" x="1050.5" y="-119.5" font-family="Helvetica,sans-Serif" font-size="10.00">src/roar/session/session.cpp</text>
</a>
</g>
</g>
<!-- Node10&#45;&gt;Node19 -->
<g id="edge30" class="edge">
<title>Node10&#45;&gt;Node19</title>
<path fill="none" stroke="midnightblue" d="M735.68,-167.04C808.58,-156.84 920.71,-141.16 989.62,-131.52"/>
<polygon fill="midnightblue" stroke="midnightblue" points="735.08,-163.59 725.66,-168.44 736.05,-170.52 735.08,-163.59"/>
</g>
<!-- Node11&#45;&gt;Node2 -->
<g id="edge15" class="edge">
<title>Node11&#45;&gt;Node2</title>
<path fill="none" stroke="midnightblue" d="M563.82,-104.25C552.92,-90.44 536.33,-70.8 519.5,-56 503.08,-41.57 481.79,-28.01 467.67,-19.63"/>
<polygon fill="midnightblue" stroke="midnightblue" points="561.22,-106.6 570.11,-112.37 566.75,-102.32 561.22,-106.6"/>
</g>
<!-- Node11&#45;&gt;Node3 -->
<g id="edge19" class="edge">
<title>Node11&#45;&gt;Node3</title>
<path fill="none" stroke="midnightblue" d="M679.55,-111.53C807.84,-99.6 1011.16,-80.14 1018.5,-76 1041.65,-62.96 1057.22,-34.02 1063.86,-19.56"/>
<polygon fill="midnightblue" stroke="midnightblue" points="678.93,-108.07 669.3,-112.48 679.58,-115.04 678.93,-108.07"/>
</g>
<!-- Node11&#45;&gt;Node4 -->
<g id="edge23" class="edge">
<title>Node11&#45;&gt;Node4</title>
<path fill="none" stroke="midnightblue" d="M547.49,-108.37C524.27,-98.26 492.34,-84.35 472.06,-75.52"/>
<polygon fill="midnightblue" stroke="midnightblue" points="546.29,-111.66 556.85,-112.44 549.08,-105.24 546.29,-111.66"/>
</g>
<!-- Node11&#45;&gt;Node6 -->
<g id="edge24" class="edge">
<title>Node11&#45;&gt;Node6</title>
<path fill="none" stroke="midnightblue" d="M579.81,-102.47C582.78,-88.93 588,-70.48 596.5,-56 605.03,-41.46 619.13,-27.93 628.85,-19.58"/>
<polygon fill="midnightblue" stroke="midnightblue" points="576.33,-102 577.82,-112.49 583.2,-103.36 576.33,-102"/>
</g>
<!-- Node12 -->
<g id="node12" class="node">
<title>Node12</title>
<g id="a_node12"><a xlink:href="request__listener_2main_8cpp.html" target="_top" xlink:title=" ">
<polygon fill="none" stroke="black" points="836,-56.5 836,-75.5 1009,-75.5 1009,-56.5 836,-56.5"/>
<text text-anchor="middle" x="922.5" y="-63.5" font-family="Helvetica,sans-Serif" font-size="10.00">examples/request_listener/main.cpp</text>
</a>
</g>
</g>
<!-- Node11&#45;&gt;Node12 -->
<g id="edge14" class="edge">
<title>Node11&#45;&gt;Node12</title>
<path fill="none" stroke="midnightblue" d="M641.51,-110.85C706.88,-100.65 806.54,-85.1 867.93,-75.52"/>
<polygon fill="midnightblue" stroke="midnightblue" points="640.67,-107.44 631.32,-112.44 641.74,-114.36 640.67,-107.44"/>
</g>
<!-- Node13 -->
<g id="node13" class="node">
<title>Node13</title>
<g id="a_node13"><a xlink:href="examples_2simple__server_2request__listener_8hpp.html" target="_top" xlink:title=" ">
<polygon fill="none" stroke="black" points="605,-56.5 605,-75.5 818,-75.5 818,-56.5 605,-56.5"/>
<text text-anchor="middle" x="711.5" y="-63.5" font-family="Helvetica,sans-Serif" font-size="10.00">examples/simple_server/request_listener.hpp</text>
</a>
</g>
</g>
<!-- Node11&#45;&gt;Node13 -->
<g id="edge16" class="edge">
<title>Node11&#45;&gt;Node13</title>
<path fill="none" stroke="midnightblue" d="M607.41,-108.64C632.74,-98.5 667.93,-84.43 690.21,-75.52"/>
<polygon fill="midnightblue" stroke="midnightblue" points="605.88,-105.48 597.89,-112.44 608.48,-111.98 605.88,-105.48"/>
</g>
<!-- Node15 -->
<g id="node15" class="node">
<title>Node15</title>
<g id="a_node15"><a xlink:href="examples_2websocket_2request__listener_8hpp.html" target="_top" xlink:title=" ">
<polygon fill="none" stroke="black" points="1177.5,-56.5 1177.5,-75.5 1377.5,-75.5 1377.5,-56.5 1177.5,-56.5"/>
<text text-anchor="middle" x="1277.5" y="-63.5" font-family="Helvetica,sans-Serif" font-size="10.00">examples/websocket/request_listener.hpp</text>
</a>
</g>
</g>
<!-- Node11&#45;&gt;Node15 -->
<g id="edge20" class="edge">
<title>Node11&#45;&gt;Node15</title>
<path fill="none" stroke="midnightblue" d="M681.19,-112.02C681.29,-112.02 681.4,-112.01 681.5,-112 855.78,-97.95 1058.84,-82.9 1177.3,-74.25"/>
<polygon fill="midnightblue" stroke="midnightblue" points="681.19,-108.51 671.5,-112.81 681.75,-115.49 681.19,-108.51"/>
</g>
<!-- Node13&#45;&gt;Node2 -->
<g id="edge17" class="edge">
<title>Node13&#45;&gt;Node2</title>
<path fill="none" stroke="midnightblue" d="M660.4,-54.35C611.45,-44.14 538.55,-28.94 493.35,-19.52"/>
<polygon fill="midnightblue" stroke="midnightblue" points="659.96,-57.83 670.46,-56.44 661.39,-50.98 659.96,-57.83"/>
</g>
<!-- Node14 -->
<g id="node14" class="node">
<title>Node14</title>
<g id="a_node14"><a xlink:href="examples_2simple__server_2request__listener_8cpp.html" target="_top" xlink:title=" ">
<polygon fill="none" stroke="black" points="744,-0.5 744,-19.5 957,-19.5 957,-0.5 744,-0.5"/>
<text text-anchor="middle" x="850.5" y="-7.5" font-family="Helvetica,sans-Serif" font-size="10.00">examples/simple_server/request_listener.cpp</text>
</a>
</g>
</g>
<!-- Node13&#45;&gt;Node14 -->
<g id="edge18" class="edge">
<title>Node13&#45;&gt;Node14</title>
<path fill="none" stroke="midnightblue" d="M742.98,-52.77C769.09,-42.63 805.54,-28.47 828.58,-19.52"/>
<polygon fill="midnightblue" stroke="midnightblue" points="741.58,-49.56 733.52,-56.44 744.11,-56.08 741.58,-49.56"/>
</g>
<!-- Node15&#45;&gt;Node3 -->
<g id="edge21" class="edge">
<title>Node15&#45;&gt;Node3</title>
<path fill="none" stroke="midnightblue" d="M1234.31,-53.89C1194.65,-43.7 1136.73,-28.8 1100.62,-19.52"/>
<polygon fill="midnightblue" stroke="midnightblue" points="1233.67,-57.34 1244.22,-56.44 1235.41,-50.56 1233.67,-57.34"/>
</g>
<!-- Node16 -->
<g id="node16" class="node">
<title>Node16</title>
<g id="a_node16"><a xlink:href="examples_2websocket_2request__listener_8cpp.html" target="_top" xlink:title=" ">
<polygon fill="none" stroke="black" points="1177.5,-0.5 1177.5,-19.5 1377.5,-19.5 1377.5,-0.5 1177.5,-0.5"/>
<text text-anchor="middle" x="1277.5" y="-7.5" font-family="Helvetica,sans-Serif" font-size="10.00">examples/websocket/request_listener.cpp</text>
</a>
</g>
</g>
<!-- Node15&#45;&gt;Node16 -->
<g id="edge22" class="edge">
<title>Node15&#45;&gt;Node16</title>
<path fill="none" stroke="midnightblue" d="M1277.5,-45.8C1277.5,-36.91 1277.5,-26.78 1277.5,-19.75"/>
<polygon fill="midnightblue" stroke="midnightblue" points="1274,-46.08 1277.5,-56.08 1281,-46.08 1274,-46.08"/>
</g>
<!-- Node21 -->
<g id="node21" class="node">
<title>Node21</title>
<g id="a_node21"><a xlink:href="websocket__client_8hpp.html" target="_top" xlink:title=" ">
<polygon fill="none" stroke="black" points="1323,-224.5 1323,-243.5 1538,-243.5 1538,-224.5 1323,-224.5"/>
<text text-anchor="middle" x="1430.5" y="-231.5" font-family="Helvetica,sans-Serif" font-size="10.00">include/roar/websocket/websocket_client.hpp</text>
</a>
</g>
</g>
<!-- Node20&#45;&gt;Node21 -->
<g id="edge32" class="edge">
<title>Node20&#45;&gt;Node21</title>
<path fill="none" stroke="midnightblue" d="M1339.64,-276.23C1361.9,-266.13 1392.36,-252.31 1411.73,-243.52"/>
<polygon fill="midnightblue" stroke="midnightblue" points="1338.02,-273.12 1330.36,-280.44 1340.91,-279.5 1338.02,-273.12"/>
</g>
<!-- Node23 -->
<g id="node23" class="node">
<title>Node23</title>
<g id="a_node23"><a xlink:href="websocket__session_8hpp.html" target="_top" xlink:title=" ">
<polygon fill="none" stroke="black" points="1080,-224.5 1080,-243.5 1305,-243.5 1305,-224.5 1080,-224.5"/>
<text text-anchor="middle" x="1192.5" y="-231.5" font-family="Helvetica,sans-Serif" font-size="10.00">include/roar/websocket/websocket_session.hpp</text>
</a>
</g>
</g>
<!-- Node20&#45;&gt;Node23 -->
<g id="edge34" class="edge">
<title>Node20&#45;&gt;Node23</title>
<path fill="none" stroke="midnightblue" d="M1283.36,-276.23C1261.1,-266.13 1230.64,-252.31 1211.27,-243.52"/>
<polygon fill="midnightblue" stroke="midnightblue" points="1282.09,-279.5 1292.64,-280.44 1284.98,-273.12 1282.09,-279.5"/>
</g>
<!-- Node25 -->
<g id="node25" class="node">
<title>Node25</title>
<g id="a_node25"><a xlink:href="websocket__base_8cpp.html" target="_top" xlink:title=" ">
<polygon fill="none" stroke="black" points="1556,-224.5 1556,-243.5 1751,-243.5 1751,-224.5 1556,-224.5"/>
<text text-anchor="middle" x="1653.5" y="-231.5" font-family="Helvetica,sans-Serif" font-size="10.00">src/roar/websocket/websocket_base.cpp</text>
</a>
</g>
</g>
<!-- Node20&#45;&gt;Node25 -->
<g id="edge38" class="edge">
<title>Node20&#45;&gt;Node25</title>
<path fill="none" stroke="midnightblue" d="M1375.76,-278.85C1440.38,-268.65 1538.88,-253.1 1599.56,-243.52"/>
<polygon fill="midnightblue" stroke="midnightblue" points="1375.02,-275.43 1365.69,-280.44 1376.11,-282.34 1375.02,-275.43"/>
</g>
<!-- Node22 -->
<g id="node22" class="node">
<title>Node22</title>
<g id="a_node22"><a xlink:href="websocket__client_8cpp.html" target="_top" xlink:title=" ">
<polygon fill="none" stroke="black" points="1332,-168.5 1332,-187.5 1529,-187.5 1529,-168.5 1332,-168.5"/>
<text text-anchor="middle" x="1430.5" y="-175.5" font-family="Helvetica,sans-Serif" font-size="10.00">src/roar/websocket/websocket_client.cpp</text>
</a>
</g>
</g>
<!-- Node21&#45;&gt;Node22 -->
<g id="edge33" class="edge">
<title>Node21&#45;&gt;Node22</title>
<path fill="none" stroke="midnightblue" d="M1430.5,-213.8C1430.5,-204.91 1430.5,-194.78 1430.5,-187.75"/>
<polygon fill="midnightblue" stroke="midnightblue" points="1427,-214.08 1430.5,-224.08 1434,-214.08 1427,-214.08"/>
</g>
<!-- Node23&#45;&gt;Node10 -->
<g id="edge36" class="edge">
<title>Node23&#45;&gt;Node10</title>
<path fill="none" stroke="midnightblue" d="M1098.96,-223.43C998.19,-213.13 839.55,-196.9 744.41,-187.17"/>
<polygon fill="midnightblue" stroke="midnightblue" points="1098.82,-226.94 1109.13,-224.47 1099.54,-219.97 1098.82,-226.94"/>
</g>
<!-- Node23&#45;&gt;Node15 -->
<g id="edge35" class="edge">
<title>Node23&#45;&gt;Node15</title>
<path fill="none" stroke="midnightblue" d="M1222.07,-219.73C1235.29,-212.29 1249.83,-201.71 1258.5,-188 1281.58,-151.52 1280,-96.81 1278.36,-75.72"/>
<polygon fill="midnightblue" stroke="midnightblue" points="1220.44,-216.64 1213.21,-224.39 1223.69,-222.84 1220.44,-216.64"/>
</g>
<!-- Node23&#45;&gt;Node24 -->
<g id="edge37" class="edge">
<title>Node23&#45;&gt;Node24</title>
<path fill="none" stroke="midnightblue" d="M1178.08,-216.43C1169.84,-206.97 1159.85,-195.48 1153.12,-187.75"/>
<polygon fill="midnightblue" stroke="midnightblue" points="1175.53,-218.84 1184.74,-224.08 1180.81,-214.24 1175.53,-218.84"/>
</g>
</g>
</svg>
