<?xml version="1.0" encoding="UTF-8" standalone="no"?>
<!DOCTYPE svg PUBLIC "-//W3C//DTD SVG 1.1//EN"
 "http://www.w3.org/Graphics/SVG/1.1/DTD/svg11.dtd">
<!-- Generated by graphviz version 8.1.0 (0)
 -->
<!-- Title: include/roar/session/factory.hpp Pages: 1 -->
<!--zoomable 140 -->

<svg id="main" version="1.1" xmlns="http://www.w3.org/2000/svg" xmlns:xlink="http://www.w3.org/1999/xlink" xml:space="preserve" onload="init(evt)">
<style type="text/css"><![CDATA[
.node, .edge {opacity: 0.7;}
.node.selected, .edge.selected {opacity: 1;}
.edge:hover path { stroke: red; }
.edge:hover polygon { stroke: red; fill: red; }
]]></style>

<defs>
  <circle id="rim" cx="0" cy="0" r="7"/>
  <circle id="rim2" cx="0" cy="0" r="3.5"/>
  <g id="zoomPlus">
    <use xlink:href="#rim" fill="#404040"><set attributeName="fill" to="#808080" begin="zoomplus.mouseover" end="zoomplus.mouseout"/></use>
    <path d="M-4,0h8M0,-4v8" fill="none" stroke="white" stroke-width="1.5" pointer-events="none"/>
  </g>
  <g id="zoomMin">
    <use xlink:href="#rim" fill="#404040"><set attributeName="fill" to="#808080" begin="zoomminus.mouseover" end="zoomminus.mouseout"/></use>
    <path d="M-4,0h8" fill="none" stroke="white" stroke-width="1.5" pointer-events="none"/>
  </g>
  <g id="arrowUp" transform="translate(30 24)">
    <use xlink:href="#rim"/>
    <path pointer-events="none" fill="none" stroke="white" stroke-width="1.5" d="M0,-3.0v7 M-2.5,-0.5L0,-3.0L2.5,-0.5"/>
  </g>
  <g id="arrowRight" transform="rotate(90) translate(36 -43)">
    <use xlink:href="#rim"/>
    <path pointer-events="none" fill="none" stroke="white" stroke-width="1.5" d="M0,-3.0v7 M-2.5,-0.5L0,-3.0L2.5,-0.5"/>
  </g>
  <g id="arrowDown" transform="rotate(180) translate(-30 -48)">
    <use xlink:href="#rim"/>
    <path pointer-events="none" fill="none" stroke="white" stroke-width="1.5" d="M0,-3.0v7 M-2.5,-0.5L0,-3.0L2.5,-0.5"/>
  </g>
  <g id="arrowLeft" transform="rotate(270) translate(-36 17)">
    <use xlink:href="#rim"/>
    <path pointer-events="none" fill="none" stroke="white" stroke-width="1.5" d="M0,-3.0v7 M-2.5,-0.5L0,-3.0L2.5,-0.5"/>
  </g>
  <g id="resetDef">
    <use xlink:href="#rim2" fill="#404040"><set attributeName="fill" to="#808080" begin="reset.mouseover" end="reset.mouseout"/></use>
  </g>
</defs>
<script type="application/ecmascript">
var viewWidth = 1651;
var viewHeight = 140;
var sectionId = 'dynsection-0';
</script>
<script type="application/ecmascript" xlink:href="svg.min.js"/>
<svg id="graph" class="graph">
<g id="viewport">
<title>include/roar/session/factory.hpp</title>
<!-- Node1 -->
<g id="Node000001" class="node">
<title>Node1</title>
<g id="a_Node000001"><a xlink:title=" ">
<polygon fill="#999999" stroke="#666666" points="1304.5,-132 1150.5,-132 1150.5,-112 1304.5,-112 1304.5,-132"/>
<text text-anchor="middle" x="1227.5" y="-118.5" font-family="Helvetica,sans-Serif" font-size="10.00">include/roar/session/factory.hpp</text>
</a>
</g>
</g>
<!-- Node2 -->
<g id="Node000002" class="node">
<title>Node2</title>
<g id="a_Node000002"><a xlink:href="forward_8hpp.html" target="_top" xlink:title=" ">
<polygon fill="white" stroke="#666666" points="1220.25,-20 1106.75,-20 1106.75,0 1220.25,0 1220.25,-20"/>
<text text-anchor="middle" x="1163.5" y="-6.5" font-family="Helvetica,sans-Serif" font-size="10.00">roar/beast/forward.hpp</text>
</a>
</g>
</g>
<!-- Node1&#45;&gt;Node2 -->
<g id="edge1_Node000001_Node000002" class="edge">
<title>Node1&#45;&gt;Node2</title>
<g id="a_edge1_Node000001_Node000002"><a xlink:title=" ">
<path fill="none" stroke="#63b8ff" d="M1196.4,-111.66C1179.31,-104.75 1159.59,-93.46 1149.5,-76 1141.39,-61.96 1146.39,-43.76 1152.56,-30.19"/>
<polygon fill="#63b8ff" stroke="#63b8ff" points="1156.1,-31.97 1157.53,-21.47 1149.86,-28.78 1156.1,-31.97"/>
</a>
</g>
</g>
<!-- Node3 -->
<g id="Node000003" class="node">
<title>Node3</title>
<g id="a_Node000003"><a xlink:href="pimpl__special__functions_8hpp.html" target="_top" xlink:title=" ">
<polygon fill="white" stroke="#666666" points="1510.88,-76 1326.12,-76 1326.12,-56 1510.88,-56 1510.88,-76"/>
<text text-anchor="middle" x="1418.5" y="-62.5" font-family="Helvetica,sans-Serif" font-size="10.00">roar/detail/pimpl_special_functions.hpp</text>
</a>
</g>
</g>
<!-- Node1&#45;&gt;Node3 -->
<g id="edge2_Node000001_Node000003" class="edge">
<title>Node1&#45;&gt;Node3</title>
<g id="a_edge2_Node000001_Node000003"><a xlink:title=" ">
<path fill="none" stroke="#63b8ff" d="M1260.77,-111.59C1292.35,-102.67 1340,-89.19 1374.66,-79.39"/>
<polygon fill="#63b8ff" stroke="#63b8ff" points="1375.3,-82.57 1383.97,-76.48 1373.4,-75.83 1375.3,-82.57"/>
</a>
</g>
</g>
<!-- Node4 -->
<g id="Node000004" class="node">
<title>Node4</title>
<g id="a_Node000004"><a xlink:href="make__ssl__context_8hpp.html" target="_top" xlink:title=" ">
<polygon fill="white" stroke="#666666" points="325.25,-76 175.75,-76 175.75,-56 325.25,-56 325.25,-76"/>
<text text-anchor="middle" x="250.5" y="-62.5" font-family="Helvetica,sans-Serif" font-size="10.00">roar/ssl/make_ssl_context.hpp</text>
</a>
</g>
</g>
<!-- Node1&#45;&gt;Node4 -->
<g id="edge3_Node000001_Node000004" class="edge">
<title>Node1&#45;&gt;Node4</title>
<g id="a_edge3_Node000001_Node000004"><a xlink:title=" ">
<path fill="none" stroke="#63b8ff" d="M1150.02,-116.72C970.03,-106.77 524.68,-82.15 336.57,-71.76"/>
<polygon fill="#63b8ff" stroke="#63b8ff" points="336.81,-68.21 326.63,-71.15 336.43,-75.2 336.81,-68.21"/>
</a>
</g>
</g>
<!-- Node8 -->
<g id="Node000008" class="node">
<title>Node8</title>
<g id="a_Node000008"><a xlink:title=" ">
<polygon fill="#e0e0e0" stroke="#999999" points="273.12,-20 227.88,-20 227.88,0 273.12,0 273.12,-20"/>
<text text-anchor="middle" x="250.5" y="-6.5" font-family="Helvetica,sans-Serif" font-size="10.00">variant</text>
</a>
</g>
</g>
<!-- Node1&#45;&gt;Node8 -->
<g id="edge26_Node000001_Node000008" class="edge">
<title>Node1&#45;&gt;Node8</title>
<g id="a_edge26_Node000001_Node000008"><a xlink:title=" ">
<path fill="none" stroke="#63b8ff" d="M1150.24,-117.42C989.83,-108.98 609.22,-83.7 284.04,-20.01"/>
<polygon fill="#63b8ff" stroke="#63b8ff" points="284.96,-16.43 274.47,-17.92 283.6,-23.3 284.96,-16.43"/>
</a>
</g>
</g>
<!-- Node9 -->
<g id="Node000009" class="node">
<title>Node9</title>
<g id="a_Node000009"><a xlink:href="standard__response__provider_8hpp.html" target="_top" xlink:title=" ">
<polygon fill="white" stroke="#666666" points="942.75,-76 766.25,-76 766.25,-56 942.75,-56 942.75,-76"/>
<text text-anchor="middle" x="854.5" y="-62.5" font-family="Helvetica,sans-Serif" font-size="10.00">roar/standard_response_provider.hpp</text>
</a>
</g>
</g>
<!-- Node1&#45;&gt;Node9 -->
<g id="edge8_Node000001_Node000009" class="edge">
<title>Node1&#45;&gt;Node9</title>
<g id="a_edge8_Node000001_Node000009"><a xlink:title=" ">
<path fill="none" stroke="#63b8ff" d="M1162.1,-111.53C1097.45,-102.17 998.58,-87.86 930.48,-78"/>
<polygon fill="#63b8ff" stroke="#63b8ff" points="931.22,-74.43 920.82,-76.46 930.22,-81.35 931.22,-74.43"/>
</a>
</g>
</g>
<!-- Node15 -->
<g id="Node000015" class="node">
<title>Node15</title>
<g id="a_Node000015"><a xlink:href="error_8hpp.html" target="_top" xlink:title=" ">
<polygon fill="white" stroke="#666666" points="1232.38,-76 1158.62,-76 1158.62,-56 1232.38,-56 1232.38,-76"/>
<text text-anchor="middle" x="1195.5" y="-62.5" font-family="Helvetica,sans-Serif" font-size="10.00">roar/error.hpp</text>
</a>
</g>
</g>
<!-- Node1&#45;&gt;Node15 -->
<g id="edge14_Node000001_Node000015" class="edge">
<title>Node1&#45;&gt;Node15</title>
<g id="a_edge14_Node000001_Node000015"><a xlink:title=" ">
<path fill="none" stroke="#63b8ff" d="M1221.93,-111.59C1217.7,-104.47 1211.77,-94.45 1206.59,-85.72"/>
<polygon fill="#63b8ff" stroke="#63b8ff" points="1209.12,-84.12 1201.01,-77.3 1203.1,-87.69 1209.12,-84.12"/>
</a>
</g>
</g>
<!-- Node17 -->
<g id="Node000017" class="node">
<title>Node17</title>
<g id="a_Node000017"><a xlink:title=" ">
<polygon fill="#e0e0e0" stroke="#999999" points="1530.38,-20 1480.62,-20 1480.62,0 1530.38,0 1530.38,-20"/>
<text text-anchor="middle" x="1505.5" y="-6.5" font-family="Helvetica,sans-Serif" font-size="10.00">optional</text>
</a>
</g>
</g>
<!-- Node1&#45;&gt;Node17 -->
<g id="edge24_Node000001_Node000017" class="edge">
<title>Node1&#45;&gt;Node17</title>
<g id="a_edge24_Node000001_Node000017"><a xlink:title=" ">
<path fill="none" stroke="#63b8ff" d="M1232.8,-111.73C1241.58,-97.31 1260.54,-69.73 1284.5,-56 1354.99,-15.59 1386.43,-36.95 1469.61,-20.18"/>
<polygon fill="#63b8ff" stroke="#63b8ff" points="1470.26,-23.41 1479.3,-17.88 1468.78,-16.56 1470.26,-23.41"/>
</a>
</g>
</g>
<!-- Node18 -->
<g id="Node000018" class="node">
<title>Node18</title>
<g id="a_Node000018"><a xlink:title=" ">
<polygon fill="#e0e0e0" stroke="#999999" points="1606.5,-20 1548.5,-20 1548.5,0 1606.5,0 1606.5,-20"/>
<text text-anchor="middle" x="1577.5" y="-6.5" font-family="Helvetica,sans-Serif" font-size="10.00">functional</text>
</a>
</g>
</g>
<!-- Node1&#45;&gt;Node18 -->
<g id="edge25_Node000001_Node000018" class="edge">
<title>Node1&#45;&gt;Node18</title>
<g id="a_edge25_Node000001_Node000018"><a xlink:title=" ">
<path fill="none" stroke="#63b8ff" d="M1238.99,-111.67C1259.2,-95.42 1300.59,-63.01 1317.5,-56 1406.67,-19.02 1439.24,-38.11 1537.41,-20.23"/>
<polygon fill="#63b8ff" stroke="#63b8ff" points="1537.92,-23.5 1547.09,-18.19 1536.61,-16.63 1537.92,-23.5"/>
</a>
</g>
</g>
<!-- Node20 -->
<g id="Node000020" class="node">
<title>Node20</title>
<g id="a_Node000020"><a xlink:title=" ">
<polygon fill="#e0e0e0" stroke="#999999" points="1580.12,-76 1528.88,-76 1528.88,-56 1580.12,-56 1580.12,-76"/>
<text text-anchor="middle" x="1554.5" y="-62.5" font-family="Helvetica,sans-Serif" font-size="10.00">memory</text>
</a>
</g>
</g>
<!-- Node1&#45;&gt;Node20 -->
<g id="edge23_Node000001_Node000020" class="edge">
<title>Node1&#45;&gt;Node20</title>
<g id="a_edge23_Node000001_Node000020"><a xlink:title=" ">
<path fill="none" stroke="#63b8ff" d="M1302.58,-111.51C1359.23,-103.87 1439.05,-92.09 1517.95,-76.14"/>
<polygon fill="#63b8ff" stroke="#63b8ff" points="1518.48,-79.4 1527.57,-73.97 1517.07,-72.55 1518.48,-79.4"/>
</a>
</g>
</g>
<!-- Node21 -->
<g id="Node000021" class="node">
<title>Node21</title>
<g id="a_Node000021"><a xlink:title=" ">
<polygon fill="#e0e0e0" stroke="#999999" points="1643.12,-76 1597.88,-76 1597.88,-56 1643.12,-56 1643.12,-76"/>
<text text-anchor="middle" x="1620.5" y="-62.5" font-family="Helvetica,sans-Serif" font-size="10.00">chrono</text>
</a>
</g>
</g>
<!-- Node1&#45;&gt;Node21 -->
<g id="edge27_Node000001_Node000021" class="edge">
<title>Node1&#45;&gt;Node21</title>
<g id="a_edge27_Node000001_Node000021"><a xlink:title=" ">
<path fill="none" stroke="#63b8ff" d="M1304.7,-114.98C1375.94,-108.62 1484.75,-96.84 1587.06,-76.25"/>
<polygon fill="#63b8ff" stroke="#63b8ff" points="1587.48,-79.53 1596.58,-74.09 1586.08,-72.67 1587.48,-79.53"/>
</a>
</g>
</g>
<!-- Node5 -->
<g id="Node000005" class="node">
<title>Node5</title>
<g id="a_Node000005"><a xlink:title=" ">
<polygon fill="#e0e0e0" stroke="#999999" points="209.88,-20 79.12,-20 79.12,0 209.88,0 209.88,-20"/>
<text text-anchor="middle" x="144.5" y="-6.5" font-family="Helvetica,sans-Serif" font-size="10.00">boost/asio/ssl/context.hpp</text>
</a>
</g>
</g>
<!-- Node4&#45;&gt;Node5 -->
<g id="edge4_Node000004_Node000005" class="edge">
<title>Node4&#45;&gt;Node5</title>
<g id="a_edge4_Node000004_Node000005"><a xlink:title=" ">
<path fill="none" stroke="#63b8ff" d="M232.04,-55.59C215.72,-47.28 191.67,-35.03 172.91,-25.47"/>
<polygon fill="#63b8ff" stroke="#63b8ff" points="174.61,-21.9 164.11,-20.48 171.43,-28.14 174.61,-21.9"/>
</a>
</g>
</g>
<!-- Node6 -->
<g id="Node000006" class="node">
<title>Node6</title>
<g id="a_Node000006"><a xlink:title=" ">
<polygon fill="#e0e0e0" stroke="#999999" points="497.5,-20 457.5,-20 457.5,0 497.5,0 497.5,-20"/>
<text text-anchor="middle" x="477.5" y="-6.5" font-family="Helvetica,sans-Serif" font-size="10.00">string</text>
</a>
</g>
</g>
<!-- Node4&#45;&gt;Node6 -->
<g id="edge5_Node000004_Node000006" class="edge">
<title>Node4&#45;&gt;Node6</title>
<g id="a_edge5_Node000004_Node000006"><a xlink:title=" ">
<path fill="none" stroke="#63b8ff" d="M296.76,-55.55C334.68,-47.56 389.97,-35.38 446.68,-20.34"/>
<polygon fill="#63b8ff" stroke="#63b8ff" points="447.52,-23.46 456.28,-17.5 445.71,-16.7 447.52,-23.46"/>
</a>
</g>
</g>
<!-- Node7 -->
<g id="Node000007" class="node">
<title>Node7</title>
<g id="a_Node000007"><a xlink:title=" ">
<polygon fill="#e0e0e0" stroke="#999999" points="61,-20 0,-20 0,0 61,0 61,-20"/>
<text text-anchor="middle" x="30.5" y="-6.5" font-family="Helvetica,sans-Serif" font-size="10.00">filesystem</text>
</a>
</g>
</g>
<!-- Node4&#45;&gt;Node7 -->
<g id="edge6_Node000004_Node000007" class="edge">
<title>Node4&#45;&gt;Node7</title>
<g id="a_edge6_Node000004_Node000007"><a xlink:title=" ">
<path fill="none" stroke="#63b8ff" d="M211.93,-55.53C172.64,-45.89 111.95,-30.99 71.73,-21.12"/>
<polygon fill="#63b8ff" stroke="#63b8ff" points="72.76,-17.52 62.22,-18.54 71.1,-24.32 72.76,-17.52"/>
</a>
</g>
</g>
<!-- Node4&#45;&gt;Node8 -->
<g id="edge7_Node000004_Node000008" class="edge">
<title>Node4&#45;&gt;Node8</title>
<g id="a_edge7_Node000004_Node000008"><a xlink:title=" ">
<path fill="none" stroke="#63b8ff" d="M250.5,-55.59C250.5,-48.86 250.5,-39.53 250.5,-31.15"/>
<polygon fill="#63b8ff" stroke="#63b8ff" points="254,-31.3 250.5,-21.3 247,-31.3 254,-31.3"/>
</a>
</g>
</g>
<!-- Node10 -->
<g id="Node000010" class="node">
<title>Node10</title>
<g id="a_Node000010"><a xlink:title=" ">
<polygon fill="#e0e0e0" stroke="#999999" points="439.5,-20 291.5,-20 291.5,0 439.5,0 439.5,-20"/>
<text text-anchor="middle" x="365.5" y="-6.5" font-family="Helvetica,sans-Serif" font-size="10.00">boost/beast/http/message.hpp</text>
</a>
</g>
</g>
<!-- Node9&#45;&gt;Node10 -->
<g id="edge9_Node000009_Node000010" class="edge">
<title>Node9&#45;&gt;Node10</title>
<g id="a_edge9_Node000009_Node000010"><a xlink:title=" ">
<path fill="none" stroke="#63b8ff" d="M768.48,-55.5C679.04,-45.62 539.87,-30.26 450.72,-20.41"/>
<polygon fill="#63b8ff" stroke="#63b8ff" points="451.16,-16.83 440.83,-19.21 450.39,-23.79 451.16,-16.83"/>
</a>
</g>
</g>
<!-- Node11 -->
<g id="Node000011" class="node">
<title>Node11</title>
<g id="a_Node000011"><a xlink:title=" ">
<polygon fill="#e0e0e0" stroke="#999999" points="673.38,-20 515.62,-20 515.62,0 673.38,0 673.38,-20"/>
<text text-anchor="middle" x="594.5" y="-6.5" font-family="Helvetica,sans-Serif" font-size="10.00">boost/beast/http/string_body.hpp</text>
</a>
</g>
</g>
<!-- Node9&#45;&gt;Node11 -->
<g id="edge10_Node000009_Node000011" class="edge">
<title>Node9&#45;&gt;Node11</title>
<g id="a_edge10_Node000009_Node000011"><a xlink:title=" ">
<path fill="none" stroke="#63b8ff" d="M808.91,-55.53C764.87,-46.38 698.04,-32.5 650.72,-22.68"/>
<polygon fill="#63b8ff" stroke="#63b8ff" points="651.54,-19.06 641.03,-20.46 650.11,-25.92 651.54,-19.06"/>
</a>
</g>
</g>
<!-- Node12 -->
<g id="Node000012" class="node">
<title>Node12</title>
<g id="a_Node000012"><a xlink:title=" ">
<polygon fill="#e0e0e0" stroke="#999999" points="851.88,-20 691.12,-20 691.12,0 851.88,0 851.88,-20"/>
<text text-anchor="middle" x="771.5" y="-6.5" font-family="Helvetica,sans-Serif" font-size="10.00">boost/beast/http/empty_body.hpp</text>
</a>
</g>
</g>
<!-- Node9&#45;&gt;Node12 -->
<g id="edge11_Node000009_Node000012" class="edge">
<title>Node9&#45;&gt;Node12</title>
<g id="a_edge11_Node000009_Node000012"><a xlink:title=" ">
<path fill="none" stroke="#63b8ff" d="M840.04,-55.59C827.62,-47.51 809.48,-35.71 794.98,-26.27"/>
<polygon fill="#63b8ff" stroke="#63b8ff" points="797.36,-23 787.07,-20.48 793.54,-28.87 797.36,-23"/>
</a>
</g>
</g>
<!-- Node13 -->
<g id="Node000013" class="node">
<title>Node13</title>
<g id="a_Node000013"><a xlink:title=" ">
<polygon fill="#e0e0e0" stroke="#999999" points="1005.12,-20 869.88,-20 869.88,0 1005.12,0 1005.12,-20"/>
<text text-anchor="middle" x="937.5" y="-6.5" font-family="Helvetica,sans-Serif" font-size="10.00">boost/beast/http/status.hpp</text>
</a>
</g>
</g>
<!-- Node9&#45;&gt;Node13 -->
<g id="edge12_Node000009_Node000013" class="edge">
<title>Node9&#45;&gt;Node13</title>
<g id="a_edge12_Node000009_Node000013"><a xlink:title=" ">
<path fill="none" stroke="#63b8ff" d="M868.96,-55.59C881.38,-47.51 899.52,-35.71 914.02,-26.27"/>
<polygon fill="#63b8ff" stroke="#63b8ff" points="915.46,-28.87 921.93,-20.48 911.64,-23 915.46,-28.87"/>
</a>
</g>
</g>
<!-- Node14 -->
<g id="Node000014" class="node">
<title>Node14</title>
<g id="a_Node000014"><a xlink:title=" ">
<polygon fill="#e0e0e0" stroke="#999999" points="1088.25,-20 1022.75,-20 1022.75,0 1088.25,0 1088.25,-20"/>
<text text-anchor="middle" x="1055.5" y="-6.5" font-family="Helvetica,sans-Serif" font-size="10.00">string_view</text>
</a>
</g>
</g>
<!-- Node9&#45;&gt;Node14 -->
<g id="edge13_Node000009_Node000014" class="edge">
<title>Node9&#45;&gt;Node14</title>
<g id="a_edge13_Node000009_Node000014"><a xlink:title=" ">
<path fill="none" stroke="#63b8ff" d="M889.51,-55.59C923.6,-46.44 975.5,-32.49 1012.17,-22.64"/>
<polygon fill="#63b8ff" stroke="#63b8ff" points="1012.81,-25.83 1021.56,-19.85 1010.99,-19.07 1012.81,-25.83"/>
</a>
</g>
</g>
<!-- Node15&#45;&gt;Node2 -->
<g id="edge15_Node000015_Node000002" class="edge">
<title>Node15&#45;&gt;Node2</title>
<g id="a_edge15_Node000015_Node000002"><a xlink:title=" ">
<path fill="none" stroke="#63b8ff" d="M1189.93,-55.59C1185.7,-48.47 1179.77,-38.45 1174.59,-29.72"/>
<polygon fill="#63b8ff" stroke="#63b8ff" points="1177.12,-28.12 1169.01,-21.3 1171.1,-31.69 1177.12,-28.12"/>
</a>
</g>
</g>
<!-- Node15&#45;&gt;Node6 -->
<g id="edge17_Node000015_Node000006" class="edge">
<title>Node15&#45;&gt;Node6</title>
<g id="a_edge17_Node000015_Node000006"><a xlink:title=" ">
<path fill="none" stroke="#63b8ff" d="M1158.33,-63.73C1037.15,-59.4 653.52,-44.28 508.76,-19.92"/>
<polygon fill="#63b8ff" stroke="#63b8ff" points="509.4,-16.3 498.95,-18 508.18,-23.2 509.4,-16.3"/>
</a>
</g>
</g>
<!-- Node15&#45;&gt;Node8 -->
<g id="edge18_Node000015_Node000008" class="edge">
<title>Node15&#45;&gt;Node8</title>
<g id="a_edge18_Node000015_Node000008"><a xlink:title=" ">
<path fill="none" stroke="#63b8ff" d="M1158.25,-63.66C1002.81,-58 408.61,-35.7 284,-19.65"/>
<polygon fill="#63b8ff" stroke="#63b8ff" points="284.83,-16.09 274.43,-18.12 283.83,-23.02 284.83,-16.09"/>
</a>
</g>
</g>
<!-- Node15&#45;&gt;Node14 -->
<g id="edge21_Node000015_Node000014" class="edge">
<title>Node15&#45;&gt;Node14</title>
<g id="a_edge21_Node000015_Node000014"><a xlink:title=" ">
<path fill="none" stroke="#63b8ff" d="M1171.11,-55.59C1148.77,-46.97 1115.43,-34.12 1090.29,-24.42"/>
<polygon fill="#63b8ff" stroke="#63b8ff" points="1091.67,-20.81 1081.08,-20.48 1089.15,-27.34 1091.67,-20.81"/>
</a>
</g>
</g>
<!-- Node16 -->
<g id="Node000016" class="node">
<title>Node16</title>
<g id="a_Node000016"><a xlink:title=" ">
<polygon fill="#e0e0e0" stroke="#999999" points="1392.5,-20 1238.5,-20 1238.5,0 1392.5,0 1392.5,-20"/>
<text text-anchor="middle" x="1315.5" y="-6.5" font-family="Helvetica,sans-Serif" font-size="10.00">boost/system/system_error.hpp</text>
</a>
</g>
</g>
<!-- Node15&#45;&gt;Node16 -->
<g id="edge16_Node000015_Node000016" class="edge">
<title>Node15&#45;&gt;Node16</title>
<g id="a_edge16_Node000015_Node000016"><a xlink:title=" ">
<path fill="none" stroke="#63b8ff" d="M1216.4,-55.59C1235.21,-47.13 1263.11,-34.58 1284.52,-24.94"/>
<polygon fill="#63b8ff" stroke="#63b8ff" points="1285.75,-27.77 1293.43,-20.48 1282.88,-21.39 1285.75,-27.77"/>
</a>
</g>
</g>
<!-- Node15&#45;&gt;Node17 -->
<g id="edge19_Node000015_Node000017" class="edge">
<title>Node15&#45;&gt;Node17</title>
<g id="a_edge19_Node000015_Node000017"><a xlink:title=" ">
<path fill="none" stroke="#63b8ff" d="M1232.81,-58.34C1237.42,-57.54 1242.07,-56.75 1246.5,-56 1343.05,-39.76 1370.61,-40.89 1469.83,-20.18"/>
<polygon fill="#63b8ff" stroke="#63b8ff" points="1470.25,-23.46 1479.32,-17.97 1468.81,-16.61 1470.25,-23.46"/>
</a>
</g>
</g>
<!-- Node15&#45;&gt;Node18 -->
<g id="edge20_Node000015_Node000018" class="edge">
<title>Node15&#45;&gt;Node18</title>
<g id="a_edge20_Node000015_Node000018"><a xlink:title=" ">
<path fill="none" stroke="#63b8ff" d="M1232.86,-61.38C1294.37,-55.15 1421.01,-41.16 1537.58,-20.19"/>
<polygon fill="#63b8ff" stroke="#63b8ff" points="1537.89,-23.51 1547.1,-18.28 1536.64,-16.63 1537.89,-23.51"/>
</a>
</g>
</g>
<!-- Node19 -->
<g id="Node000019" class="node">
<title>Node19</title>
<g id="a_Node000019"><a xlink:title=" ">
<polygon fill="#e0e0e0" stroke="#999999" points="1462.12,-20 1410.88,-20 1410.88,0 1462.12,0 1462.12,-20"/>
<text text-anchor="middle" x="1436.5" y="-6.5" font-family="Helvetica,sans-Serif" font-size="10.00">sstream</text>
</a>
</g>
</g>
<!-- Node15&#45;&gt;Node19 -->
<g id="edge22_Node000015_Node000019" class="edge">
<title>Node15&#45;&gt;Node19</title>
<g id="a_edge22_Node000015_Node000019"><a xlink:title=" ">
<path fill="none" stroke="#63b8ff" d="M1232.81,-57.28C1272.05,-49.06 1335.84,-35.44 1400.2,-20.24"/>
<polygon fill="#63b8ff" stroke="#63b8ff" points="1400.61,-23.51 1409.53,-17.79 1398.99,-16.69 1400.61,-23.51"/>
</a>
</g>
</g>
</g>
</svg>

<g id="navigator" transform="translate(0 0)" fill="#404254">
  <rect fill="#f2f5e9" fill-opacity="0.5" stroke="#606060" stroke-width=".5" x="0" y="0" width="60" height="60"/>
  <use id="zoomplus" xlink:href="#zoomPlus" x="17" y="9" onmousedown="handleZoom(evt,'in')"/>
  <use id="zoomminus" xlink:href="#zoomMin" x="42" y="9" onmousedown="handleZoom(evt,'out')"/>
  <use id="reset" xlink:href="#resetDef" x="30" y="36" onmousedown="handleReset()"/>
   <use id="arrowup" xlink:href="#arrowUp" x="0" y="0" onmousedown="handlePan(0,-1)"/>
  <use id="arrowright" xlink:href="#arrowRight" x="0" y="0" onmousedown="handlePan(1,0)"/>
  <use id="arrowdown" xlink:href="#arrowDown" x="0" y="0" onmousedown="handlePan(0,1)"/>
  <use id="arrowleft" xlink:href="#arrowLeft" x="0" y="0" onmousedown="handlePan(-1,0)"/>
</g>
<svg viewBox="0 0 15 15" width="100%" height="30px" preserveAspectRatio="xMaxYMin meet">
 <g id="arrow_out" transform="scale(0.3 0.3)">
  <a xlink:href="factory_8hpp__incl_org.svg" target="_base">
   <rect id="button" ry="5" rx="5" y="6" x="6" height="38" width="38"
        fill="#f2f5e9" fill-opacity="0.5" stroke="#606060" stroke-width="1.0"/>
   <path id="arrow"
     d="M 11.500037,31.436501 C 11.940474,20.09759 22.043105,11.32322 32.158766,21.979434 L 37.068811,17.246167 C 37.068811,17.246167 37.088388,32 37.088388,32 L 22.160133,31.978069 C 22.160133,31.978069 26.997745,27.140456 26.997745,27.140456 C 18.528582,18.264221 13.291696,25.230495 11.500037,31.436501 z"
     style="fill:#404040;"/>
  </a>
 </g>
</svg>

<style type='text/css'>
<![CDATA[
[data-mouse-over-selected='false'] { opacity: 0.7; }
[data-mouse-over-selected='true']  { opacity: 1.0; }
]]>
</style>
<script type="application/ecmascript"><![CDATA[
document.addEventListener('DOMContentLoaded', (event) => {
  highlightEdges();
  highlightAdjacentNodes();
});
]]></script>
</svg>
