<?xml version="1.0" encoding="UTF-8" standalone="no"?>
<!DOCTYPE svg PUBLIC "-//W3C//DTD SVG 1.1//EN"
 "http://www.w3.org/Graphics/SVG/1.1/DTD/svg11.dtd">
<!-- Generated by graphviz version 2.44.1 (20211215.1903)
 -->
<!-- Title: src/roar/curl/sources/file_source.cpp Pages: 1 -->
<svg width="365pt" height="196pt"
 viewBox="0.00 0.00 365.50 196.00" xmlns="http://www.w3.org/2000/svg" xmlns:xlink="http://www.w3.org/1999/xlink">
<g id="graph0" class="graph" transform="scale(1 1) rotate(0) translate(4 192)">
<title>src/roar/curl/sources/file_source.cpp</title>
<!-- Node1 -->
<g id="node1" class="node">
<title>Node1</title>
<g id="a_node1"><a xlink:title=" ">
<polygon fill="#bfbfbf" stroke="black" points="166,-168.5 166,-187.5 341,-187.5 341,-168.5 166,-168.5"/>
<text text-anchor="middle" x="253.5" y="-175.5" font-family="Helvetica,sans-Serif" font-size="10.00">src/roar/curl/sources/file_source.cpp</text>
</a>
</g>
</g>
<!-- Node2 -->
<g id="node2" class="node">
<title>Node2</title>
<g id="a_node2"><a xlink:href="file__source_8hpp.html" target="_top" xlink:title=" ">
<polygon fill="none" stroke="black" points="111.5,-112.5 111.5,-131.5 269.5,-131.5 269.5,-112.5 111.5,-112.5"/>
<text text-anchor="middle" x="190.5" y="-119.5" font-family="Helvetica,sans-Serif" font-size="10.00">roar/curl/sources/file_source.hpp</text>
</a>
</g>
</g>
<!-- Node1&#45;&gt;Node2 -->
<g id="edge1" class="edge">
<title>Node1&#45;&gt;Node2</title>
<path fill="none" stroke="midnightblue" d="M243.38,-168.32C233.97,-160.26 219.76,-148.08 208.43,-138.37"/>
<polygon fill="midnightblue" stroke="midnightblue" points="210.68,-135.68 200.81,-131.83 206.12,-141 210.68,-135.68"/>
</g>
<!-- Node8 -->
<g id="node8" class="node">
<title>Node8</title>
<g id="a_node8"><a xlink:title=" ">
<polygon fill="none" stroke="#bfbfbf" points="287,-112.5 287,-131.5 346,-131.5 346,-112.5 287,-112.5"/>
<text text-anchor="middle" x="316.5" y="-119.5" font-family="Helvetica,sans-Serif" font-size="10.00">stdexcept</text>
</a>
</g>
</g>
<!-- Node1&#45;&gt;Node8 -->
<g id="edge8" class="edge">
<title>Node1&#45;&gt;Node8</title>
<path fill="none" stroke="midnightblue" d="M263.62,-168.32C273.03,-160.26 287.24,-148.08 298.57,-138.37"/>
<polygon fill="midnightblue" stroke="midnightblue" points="300.88,-141 306.19,-131.83 296.32,-135.68 300.88,-141"/>
</g>
<!-- Node3 -->
<g id="node3" class="node">
<title>Node3</title>
<g id="a_node3"><a xlink:href="source_8hpp.html" target="_top" xlink:title=" ">
<polygon fill="none" stroke="black" points="0,-56.5 0,-75.5 103,-75.5 103,-56.5 0,-56.5"/>
<text text-anchor="middle" x="51.5" y="-63.5" font-family="Helvetica,sans-Serif" font-size="10.00">roar/curl/source.hpp</text>
</a>
</g>
</g>
<!-- Node2&#45;&gt;Node3 -->
<g id="edge2" class="edge">
<title>Node2&#45;&gt;Node3</title>
<path fill="none" stroke="midnightblue" d="M168.48,-112.44C145.4,-103.48 108.94,-89.31 82.86,-79.18"/>
<polygon fill="midnightblue" stroke="midnightblue" points="84.01,-75.88 73.42,-75.52 81.48,-82.4 84.01,-75.88"/>
</g>
<!-- Node4 -->
<g id="node4" class="node">
<title>Node4</title>
<g id="a_node4"><a xlink:title=" ">
<polygon fill="none" stroke="#bfbfbf" points="67,-0.5 67,-19.5 116,-19.5 116,-0.5 67,-0.5"/>
<text text-anchor="middle" x="91.5" y="-7.5" font-family="Helvetica,sans-Serif" font-size="10.00">cstddef</text>
</a>
</g>
</g>
<!-- Node2&#45;&gt;Node4 -->
<g id="edge4" class="edge">
<title>Node2&#45;&gt;Node4</title>
<path fill="none" stroke="midnightblue" d="M182.73,-112.37C166.18,-93.97 127.2,-50.67 105.95,-27.05"/>
<polygon fill="midnightblue" stroke="midnightblue" points="108.52,-24.68 99.23,-19.59 103.32,-29.37 108.52,-24.68"/>
</g>
<!-- Node5 -->
<g id="node5" class="node">
<title>Node5</title>
<g id="a_node5"><a xlink:title=" ">
<polygon fill="none" stroke="#bfbfbf" points="159.5,-56.5 159.5,-75.5 221.5,-75.5 221.5,-56.5 159.5,-56.5"/>
<text text-anchor="middle" x="190.5" y="-63.5" font-family="Helvetica,sans-Serif" font-size="10.00">filesystem</text>
</a>
</g>
</g>
<!-- Node2&#45;&gt;Node5 -->
<g id="edge5" class="edge">
<title>Node2&#45;&gt;Node5</title>
<path fill="none" stroke="midnightblue" d="M190.5,-112.08C190.5,-105.01 190.5,-94.86 190.5,-85.99"/>
<polygon fill="midnightblue" stroke="midnightblue" points="194,-85.75 190.5,-75.75 187,-85.75 194,-85.75"/>
</g>
<!-- Node6 -->
<g id="node6" class="node">
<title>Node6</title>
<g id="a_node6"><a xlink:title=" ">
<polygon fill="none" stroke="#bfbfbf" points="239.5,-56.5 239.5,-75.5 289.5,-75.5 289.5,-56.5 239.5,-56.5"/>
<text text-anchor="middle" x="264.5" y="-63.5" font-family="Helvetica,sans-Serif" font-size="10.00">fstream</text>
</a>
</g>
</g>
<!-- Node2&#45;&gt;Node6 -->
<g id="edge6" class="edge">
<title>Node2&#45;&gt;Node6</title>
<path fill="none" stroke="midnightblue" d="M202.39,-112.32C213.65,-104.11 230.79,-91.6 244.21,-81.81"/>
<polygon fill="midnightblue" stroke="midnightblue" points="246.38,-84.56 252.39,-75.83 242.25,-78.9 246.38,-84.56"/>
</g>
<!-- Node7 -->
<g id="node7" class="node">
<title>Node7</title>
<g id="a_node7"><a xlink:title=" ">
<polygon fill="none" stroke="#bfbfbf" points="307.5,-56.5 307.5,-75.5 357.5,-75.5 357.5,-56.5 307.5,-56.5"/>
<text text-anchor="middle" x="332.5" y="-63.5" font-family="Helvetica,sans-Serif" font-size="10.00">optional</text>
</a>
</g>
</g>
<!-- Node2&#45;&gt;Node7 -->
<g id="edge7" class="edge">
<title>Node2&#45;&gt;Node7</title>
<path fill="none" stroke="midnightblue" d="M213,-112.44C236.58,-103.48 273.82,-89.31 300.46,-79.18"/>
<polygon fill="midnightblue" stroke="midnightblue" points="302,-82.34 310.1,-75.52 299.51,-75.8 302,-82.34"/>
</g>
<!-- Node3&#45;&gt;Node4 -->
<g id="edge3" class="edge">
<title>Node3&#45;&gt;Node4</title>
<path fill="none" stroke="midnightblue" d="M58.11,-56.08C63.76,-48.46 72.04,-37.26 78.95,-27.94"/>
<polygon fill="midnightblue" stroke="midnightblue" points="81.88,-29.87 85.02,-19.75 76.25,-25.7 81.88,-29.87"/>
</g>
</g>
</svg>
