<?xml version="1.0" encoding="UTF-8" standalone="no"?>
<!DOCTYPE svg PUBLIC "-//W3C//DTD SVG 1.1//EN"
 "http://www.w3.org/Graphics/SVG/1.1/DTD/svg11.dtd">
<!-- Generated by graphviz version 8.1.0 (0)
 -->
<!-- Title: src/roar/curl/sources/file_source.cpp Pages: 1 -->
<svg width="362pt" height="196pt"
 viewBox="0.00 0.00 362.00 196.00" xmlns="http://www.w3.org/2000/svg" xmlns:xlink="http://www.w3.org/1999/xlink">
<g id="graph0" class="graph" transform="scale(1 1) rotate(0) translate(4 192)">
<title>src/roar/curl/sources/file_source.cpp</title>
<!-- Node1 -->
<g id="Node000001" class="node">
<title>Node1</title>
<g id="a_Node000001"><a xlink:title=" ">
<polygon fill="#999999" stroke="#666666" points="339.25,-188 165,-188 165,-168 339.25,-168 339.25,-188"/>
<text text-anchor="middle" x="252.12" y="-174.5" font-family="Helvetica,sans-Serif" font-size="10.00">src/roar/curl/sources/file_source.cpp</text>
</a>
</g>
</g>
<!-- Node2 -->
<g id="Node000002" class="node">
<title>Node2</title>
<g id="a_Node000002"><a xlink:href="file__source_8hpp.html" target="_top" xlink:title=" ">
<polygon fill="white" stroke="#666666" points="268,-132 110.25,-132 110.25,-112 268,-112 268,-132"/>
<text text-anchor="middle" x="189.12" y="-118.5" font-family="Helvetica,sans-Serif" font-size="10.00">roar/curl/sources/file_source.hpp</text>
</a>
</g>
</g>
<!-- Node1&#45;&gt;Node2 -->
<g id="edge1_Node000001_Node000002" class="edge">
<title>Node1&#45;&gt;Node2</title>
<g id="a_edge1_Node000001_Node000002"><a xlink:title=" ">
<path fill="none" stroke="#63b8ff" d="M241.15,-167.59C232.03,-159.77 218.83,-148.46 208.02,-139.19"/>
<polygon fill="#63b8ff" stroke="#63b8ff" points="210.84,-136.15 200.97,-132.3 206.29,-141.46 210.84,-136.15"/>
</a>
</g>
</g>
<!-- Node8 -->
<g id="Node000008" class="node">
<title>Node8</title>
<g id="a_Node000008"><a xlink:title=" ">
<polygon fill="#e0e0e0" stroke="#999999" points="344.5,-132 285.75,-132 285.75,-112 344.5,-112 344.5,-132"/>
<text text-anchor="middle" x="315.12" y="-118.5" font-family="Helvetica,sans-Serif" font-size="10.00">stdexcept</text>
</a>
</g>
</g>
<!-- Node1&#45;&gt;Node8 -->
<g id="edge8_Node000001_Node000008" class="edge">
<title>Node1&#45;&gt;Node8</title>
<g id="a_edge8_Node000001_Node000008"><a xlink:title=" ">
<path fill="none" stroke="#63b8ff" d="M263.1,-167.59C272.22,-159.77 285.42,-148.46 296.23,-139.19"/>
<polygon fill="#63b8ff" stroke="#63b8ff" points="297.96,-141.46 303.28,-132.3 293.41,-136.15 297.96,-141.46"/>
</a>
</g>
</g>
<!-- Node3 -->
<g id="Node000003" class="node">
<title>Node3</title>
<g id="a_Node000003"><a xlink:href="source_8hpp.html" target="_top" xlink:title=" ">
<polygon fill="white" stroke="#666666" points="102.25,-76 0,-76 0,-56 102.25,-56 102.25,-76"/>
<text text-anchor="middle" x="51.12" y="-62.5" font-family="Helvetica,sans-Serif" font-size="10.00">roar/curl/source.hpp</text>
</a>
</g>
</g>
<!-- Node2&#45;&gt;Node3 -->
<g id="edge2_Node000002_Node000003" class="edge">
<title>Node2&#45;&gt;Node3</title>
<g id="a_edge2_Node000002_Node000003"><a xlink:title=" ">
<path fill="none" stroke="#63b8ff" d="M165.09,-111.59C143.06,-102.97 110.2,-90.12 85.42,-80.42"/>
<polygon fill="#63b8ff" stroke="#63b8ff" points="86.94,-76.86 76.35,-76.48 84.39,-83.38 86.94,-76.86"/>
</a>
</g>
</g>
<!-- Node4 -->
<g id="Node000004" class="node">
<title>Node4</title>
<g id="a_Node000004"><a xlink:title=" ">
<polygon fill="#e0e0e0" stroke="#999999" points="114.25,-20 66,-20 66,0 114.25,0 114.25,-20"/>
<text text-anchor="middle" x="90.12" y="-6.5" font-family="Helvetica,sans-Serif" font-size="10.00">cstddef</text>
</a>
</g>
</g>
<!-- Node2&#45;&gt;Node4 -->
<g id="edge4_Node000002_Node000004" class="edge">
<title>Node2&#45;&gt;Node4</title>
<g id="a_edge4_Node000002_Node000004"><a xlink:title=" ">
<path fill="none" stroke="#63b8ff" d="M180.68,-111.62C164.1,-93.19 127.03,-52.01 105.82,-28.44"/>
<polygon fill="#63b8ff" stroke="#63b8ff" points="108.84,-26.45 99.54,-21.35 103.63,-31.13 108.84,-26.45"/>
</a>
</g>
</g>
<!-- Node5 -->
<g id="Node000005" class="node">
<title>Node5</title>
<g id="a_Node000005"><a xlink:title=" ">
<polygon fill="#e0e0e0" stroke="#999999" points="219.62,-76 158.62,-76 158.62,-56 219.62,-56 219.62,-76"/>
<text text-anchor="middle" x="189.12" y="-62.5" font-family="Helvetica,sans-Serif" font-size="10.00">filesystem</text>
</a>
</g>
</g>
<!-- Node2&#45;&gt;Node5 -->
<g id="edge5_Node000002_Node000005" class="edge">
<title>Node2&#45;&gt;Node5</title>
<g id="a_edge5_Node000002_Node000005"><a xlink:title=" ">
<path fill="none" stroke="#63b8ff" d="M189.12,-111.59C189.12,-104.86 189.12,-95.53 189.12,-87.15"/>
<polygon fill="#63b8ff" stroke="#63b8ff" points="192.63,-87.3 189.12,-77.3 185.63,-87.3 192.63,-87.3"/>
</a>
</g>
</g>
<!-- Node6 -->
<g id="Node000006" class="node">
<title>Node6</title>
<g id="a_Node000006"><a xlink:title=" ">
<polygon fill="#e0e0e0" stroke="#999999" points="286.62,-76 237.62,-76 237.62,-56 286.62,-56 286.62,-76"/>
<text text-anchor="middle" x="262.12" y="-62.5" font-family="Helvetica,sans-Serif" font-size="10.00">fstream</text>
</a>
</g>
</g>
<!-- Node2&#45;&gt;Node6 -->
<g id="edge6_Node000002_Node000006" class="edge">
<title>Node2&#45;&gt;Node6</title>
<g id="a_edge6_Node000002_Node000006"><a xlink:title=" ">
<path fill="none" stroke="#63b8ff" d="M201.84,-111.59C212.62,-103.62 228.31,-92.02 240.98,-82.64"/>
<polygon fill="#63b8ff" stroke="#63b8ff" points="242.6,-85.06 248.56,-76.3 238.43,-79.43 242.6,-85.06"/>
</a>
</g>
</g>
<!-- Node7 -->
<g id="Node000007" class="node">
<title>Node7</title>
<g id="a_Node000007"><a xlink:title=" ">
<polygon fill="#e0e0e0" stroke="#999999" points="354,-76 304.25,-76 304.25,-56 354,-56 354,-76"/>
<text text-anchor="middle" x="329.12" y="-62.5" font-family="Helvetica,sans-Serif" font-size="10.00">optional</text>
</a>
</g>
</g>
<!-- Node2&#45;&gt;Node7 -->
<g id="edge7_Node000002_Node000007" class="edge">
<title>Node2&#45;&gt;Node7</title>
<g id="a_edge7_Node000002_Node000007"><a xlink:title=" ">
<path fill="none" stroke="#63b8ff" d="M213.51,-111.59C235.86,-102.97 269.19,-90.12 294.33,-80.42"/>
<polygon fill="#63b8ff" stroke="#63b8ff" points="295.48,-83.34 303.55,-76.48 292.96,-76.81 295.48,-83.34"/>
</a>
</g>
</g>
<!-- Node3&#45;&gt;Node4 -->
<g id="edge3_Node000003_Node000004" class="edge">
<title>Node3&#45;&gt;Node4</title>
<g id="a_edge3_Node000003_Node000004"><a xlink:title=" ">
<path fill="none" stroke="#63b8ff" d="M57.92,-55.59C63.18,-48.32 70.61,-38.02 77.02,-29.15"/>
<polygon fill="#63b8ff" stroke="#63b8ff" points="80.39,-31.45 83.41,-21.3 74.72,-27.36 80.39,-31.45"/>
</a>
</g>
</g>
</g>
</svg>
