<?xml version="1.0" encoding="UTF-8" standalone="no"?>
<!DOCTYPE svg PUBLIC "-//W3C//DTD SVG 1.1//EN"
 "http://www.w3.org/Graphics/SVG/1.1/DTD/svg11.dtd">
<!-- Generated by graphviz version 2.44.1 (20211215.1903)
 -->
<!-- Title: include/roar/detail/template_utility/first_type.hpp Pages: 1 -->
<!--zoomable 308 -->
<svg id="main" version="1.1" xmlns="http://www.w3.org/2000/svg" xmlns:xlink="http://www.w3.org/1999/xlink" xml:space="preserve" onload="init(evt)">
<style type="text/css"><![CDATA[
.edge:hover path { stroke: red; }
.edge:hover polygon { stroke: red; fill: red; }
]]></style>
<script type="text/javascript"><![CDATA[
var edges = document.getElementsByTagName('g');
if (edges && edges.length) {
  for (var i=0;i<edges.length;i++) {
    if (edges[i].id.substr(0,4)=='edge') {
      edges[i].setAttribute('class','edge');
    }
  }
}
]]></script>
        <defs>
                <circle id="rim" cx="0" cy="0" r="7"/>
                <circle id="rim2" cx="0" cy="0" r="3.5"/>
                <g id="zoomPlus">
                        <use xlink:href="#rim" fill="#404040">
                                <set attributeName="fill" to="#808080" begin="zoomplus.mouseover" end="zoomplus.mouseout"/>
                        </use>
                        <path d="M-4,0h8M0,-4v8" fill="none" stroke="white" stroke-width="1.5" pointer-events="none"/>
                </g>
                <g id="zoomMin">
                        <use xlink:href="#rim" fill="#404040">
                                <set attributeName="fill" to="#808080" begin="zoomminus.mouseover" end="zoomminus.mouseout"/>
                        </use>
                        <path d="M-4,0h8" fill="none" stroke="white" stroke-width="1.5" pointer-events="none"/>
                </g>
                <g id="dirArrow">
                        <path fill="none" stroke="white" stroke-width="1.5" d="M0,-3.0v7 M-2.5,-0.5L0,-3.0L2.5,-0.5"/>
                </g>
               <g id="resetDef">
                       <use xlink:href="#rim2" fill="#404040">
                               <set attributeName="fill" to="#808080" begin="reset.mouseover" end="reset.mouseout"/>
                       </use>
               </g>
        </defs>

<script type="text/javascript">
var viewWidth = 2003;
var viewHeight = 308;
var sectionId = 'dynsection-0';
</script>
<script xlink:href="svgpan.js"/>
<svg id="graph" class="graph">
<g id="viewport">
<title>include/roar/detail/template_utility/first_type.hpp</title>
<!-- Node1 -->
<g id="node1" class="node">
<title>Node1</title>
<g id="a_node1"><a xlink:title=" ">
<polygon fill="#bfbfbf" stroke="black" points="1357.5,-280.5 1357.5,-299.5 1581.5,-299.5 1581.5,-280.5 1357.5,-280.5"/>
<text text-anchor="middle" x="1469.5" y="-287.5" font-family="Helvetica,sans-Serif" font-size="10.00">include/roar/detail/template_utility/first_type.hpp</text>
</a>
</g>
</g>
<!-- Node2 -->
<g id="node2" class="node">
<title>Node2</title>
<g id="a_node2"><a xlink:href="response_8hpp.html" target="_top" xlink:title=" ">
<polygon fill="none" stroke="black" points="1405.5,-224.5 1405.5,-243.5 1533.5,-243.5 1533.5,-224.5 1405.5,-224.5"/>
<text text-anchor="middle" x="1469.5" y="-231.5" font-family="Helvetica,sans-Serif" font-size="10.00">include/roar/response.hpp</text>
</a>
</g>
</g>
<!-- Node1&#45;&gt;Node2 -->
<g id="edge1" class="edge">
<title>Node1&#45;&gt;Node2</title>
<path fill="none" stroke="midnightblue" d="M1469.5,-269.8C1469.5,-260.91 1469.5,-250.78 1469.5,-243.75"/>
<polygon fill="midnightblue" stroke="midnightblue" points="1466,-270.08 1469.5,-280.08 1473,-270.08 1466,-270.08"/>
</g>
<!-- Node3 -->
<g id="node3" class="node">
<title>Node3</title>
<g id="a_node3"><a xlink:href="session_8hpp.html" target="_top" xlink:title=" ">
<polygon fill="none" stroke="black" points="1390,-168.5 1390,-187.5 1549,-187.5 1549,-168.5 1390,-168.5"/>
<text text-anchor="middle" x="1469.5" y="-175.5" font-family="Helvetica,sans-Serif" font-size="10.00">include/roar/session/session.hpp</text>
</a>
</g>
</g>
<!-- Node2&#45;&gt;Node3 -->
<g id="edge2" class="edge">
<title>Node2&#45;&gt;Node3</title>
<path fill="none" stroke="midnightblue" d="M1469.5,-213.8C1469.5,-204.91 1469.5,-194.78 1469.5,-187.75"/>
<polygon fill="midnightblue" stroke="midnightblue" points="1466,-214.08 1469.5,-224.08 1473,-214.08 1466,-214.08"/>
</g>
<!-- Node4 -->
<g id="node4" class="node">
<title>Node4</title>
<g id="a_node4"><a xlink:href="include_2roar_2routing_2request__listener_8hpp.html" target="_top" xlink:title=" ">
<polygon fill="none" stroke="black" points="775.5,-112.5 775.5,-131.5 965.5,-131.5 965.5,-112.5 775.5,-112.5"/>
<text text-anchor="middle" x="870.5" y="-119.5" font-family="Helvetica,sans-Serif" font-size="10.00">include/roar/routing/request_listener.hpp</text>
</a>
</g>
</g>
<!-- Node3&#45;&gt;Node4 -->
<g id="edge3" class="edge">
<title>Node3&#45;&gt;Node4</title>
<path fill="none" stroke="midnightblue" d="M1379.74,-168.91C1268.18,-158.85 1078.64,-141.76 964.94,-131.51"/>
<polygon fill="midnightblue" stroke="midnightblue" points="1379.68,-172.42 1389.96,-169.83 1380.31,-165.45 1379.68,-172.42"/>
</g>
<!-- Node15 -->
<g id="node15" class="node">
<title>Node15</title>
<g id="a_node15"><a xlink:href="server_8hpp.html" target="_top" xlink:title=" ">
<polygon fill="none" stroke="black" points="931.5,-56.5 931.5,-75.5 1047.5,-75.5 1047.5,-56.5 931.5,-56.5"/>
<text text-anchor="middle" x="989.5" y="-63.5" font-family="Helvetica,sans-Serif" font-size="10.00">include/roar/server.hpp</text>
</a>
</g>
</g>
<!-- Node3&#45;&gt;Node15 -->
<g id="edge25" class="edge">
<title>Node3&#45;&gt;Node15</title>
<path fill="none" stroke="midnightblue" d="M1422.3,-166.18C1326.94,-144.33 1113.11,-95.33 1026.74,-75.53"/>
<polygon fill="midnightblue" stroke="midnightblue" points="1421.71,-169.64 1432.23,-168.46 1423.27,-162.81 1421.71,-169.64"/>
</g>
<!-- Node18 -->
<g id="node18" class="node">
<title>Node18</title>
<g id="a_node18"><a xlink:href="server_8cpp.html" target="_top" xlink:title=" ">
<polygon fill="none" stroke="black" points="1585.5,-0.5 1585.5,-19.5 1683.5,-19.5 1683.5,-0.5 1585.5,-0.5"/>
<text text-anchor="middle" x="1634.5" y="-7.5" font-family="Helvetica,sans-Serif" font-size="10.00">src/roar/server.cpp</text>
</a>
</g>
</g>
<!-- Node3&#45;&gt;Node18 -->
<g id="edge28" class="edge">
<title>Node3&#45;&gt;Node18</title>
<path fill="none" stroke="midnightblue" d="M1437.19,-164.15C1412.35,-152.27 1384.46,-133.27 1398.5,-112 1422.31,-75.92 1545.56,-36.52 1603.87,-19.55"/>
<polygon fill="midnightblue" stroke="midnightblue" points="1435.92,-167.42 1446.47,-168.35 1438.8,-161.04 1435.92,-167.42"/>
</g>
<!-- Node19 -->
<g id="node19" class="node">
<title>Node19</title>
<g id="a_node19"><a xlink:href="route_8cpp.html" target="_top" xlink:title=" ">
<polygon fill="none" stroke="black" points="1407,-112.5 1407,-131.5 1532,-131.5 1532,-112.5 1407,-112.5"/>
<text text-anchor="middle" x="1469.5" y="-119.5" font-family="Helvetica,sans-Serif" font-size="10.00">src/roar/routing/route.cpp</text>
</a>
</g>
</g>
<!-- Node3&#45;&gt;Node19 -->
<g id="edge26" class="edge">
<title>Node3&#45;&gt;Node19</title>
<path fill="none" stroke="midnightblue" d="M1469.5,-157.8C1469.5,-148.91 1469.5,-138.78 1469.5,-131.75"/>
<polygon fill="midnightblue" stroke="midnightblue" points="1466,-158.08 1469.5,-168.08 1473,-158.08 1466,-158.08"/>
</g>
<!-- Node20 -->
<g id="node20" class="node">
<title>Node20</title>
<g id="a_node20"><a xlink:href="router_8cpp.html" target="_top" xlink:title=" ">
<polygon fill="none" stroke="black" points="1550.5,-112.5 1550.5,-131.5 1678.5,-131.5 1678.5,-112.5 1550.5,-112.5"/>
<text text-anchor="middle" x="1614.5" y="-119.5" font-family="Helvetica,sans-Serif" font-size="10.00">src/roar/routing/router.cpp</text>
</a>
</g>
</g>
<!-- Node3&#45;&gt;Node20 -->
<g id="edge27" class="edge">
<title>Node3&#45;&gt;Node20</title>
<path fill="none" stroke="midnightblue" d="M1501.98,-164.91C1529.24,-154.75 1567.49,-140.51 1591.63,-131.52"/>
<polygon fill="midnightblue" stroke="midnightblue" points="1500.63,-161.67 1492.48,-168.44 1503.07,-168.23 1500.63,-161.67"/>
</g>
<!-- Node21 -->
<g id="node21" class="node">
<title>Node21</title>
<g id="a_node21"><a xlink:href="factory_8cpp.html" target="_top" xlink:title=" ">
<polygon fill="none" stroke="black" points="1697,-112.5 1697,-131.5 1834,-131.5 1834,-112.5 1697,-112.5"/>
<text text-anchor="middle" x="1765.5" y="-119.5" font-family="Helvetica,sans-Serif" font-size="10.00">src/roar/session/factory.cpp</text>
</a>
</g>
</g>
<!-- Node3&#45;&gt;Node21 -->
<g id="edge29" class="edge">
<title>Node3&#45;&gt;Node21</title>
<path fill="none" stroke="midnightblue" d="M1526.5,-166.6C1582.44,-156.4 1666.73,-141.02 1718.82,-131.52"/>
<polygon fill="midnightblue" stroke="midnightblue" points="1525.61,-163.21 1516.4,-168.44 1526.87,-170.09 1525.61,-163.21"/>
</g>
<!-- Node22 -->
<g id="node22" class="node">
<title>Node22</title>
<g id="a_node22"><a xlink:href="session_8cpp.html" target="_top" xlink:title=" ">
<polygon fill="none" stroke="black" points="1852.5,-112.5 1852.5,-131.5 1994.5,-131.5 1994.5,-112.5 1852.5,-112.5"/>
<text text-anchor="middle" x="1923.5" y="-119.5" font-family="Helvetica,sans-Serif" font-size="10.00">src/roar/session/session.cpp</text>
</a>
</g>
</g>
<!-- Node3&#45;&gt;Node22 -->
<g id="edge30" class="edge">
<title>Node3&#45;&gt;Node22</title>
<path fill="none" stroke="midnightblue" d="M1551.15,-167.29C1636.93,-157.09 1770.51,-141.2 1852.19,-131.48"/>
<polygon fill="midnightblue" stroke="midnightblue" points="1550.7,-163.82 1541.19,-168.47 1551.53,-170.77 1550.7,-163.82"/>
</g>
<!-- Node5 -->
<g id="node5" class="node">
<title>Node5</title>
<g id="a_node5"><a xlink:href="100__continue_2main_8cpp.html" target="_top" xlink:title=" ">
<polygon fill="none" stroke="black" points="1177.5,-0.5 1177.5,-19.5 1339.5,-19.5 1339.5,-0.5 1177.5,-0.5"/>
<text text-anchor="middle" x="1258.5" y="-7.5" font-family="Helvetica,sans-Serif" font-size="10.00">examples/100_continue/main.cpp</text>
</a>
</g>
</g>
<!-- Node4&#45;&gt;Node5 -->
<g id="edge4" class="edge">
<title>Node4&#45;&gt;Node5</title>
<path fill="none" stroke="midnightblue" d="M919.74,-110.13C957.38,-101.57 1010.46,-88.96 1056.5,-76 1121.04,-57.84 1195.91,-32.65 1233.8,-19.6"/>
<polygon fill="midnightblue" stroke="midnightblue" points="918.53,-106.82 909.55,-112.44 920.07,-113.65 918.53,-106.82"/>
</g>
<!-- Node6 -->
<g id="node6" class="node">
<title>Node6</title>
<g id="a_node6"><a xlink:href="examples_2100__continue_2request__listener_8hpp.html" target="_top" xlink:title=" ">
<polygon fill="none" stroke="black" points="1140.5,-56.5 1140.5,-75.5 1350.5,-75.5 1350.5,-56.5 1140.5,-56.5"/>
<text text-anchor="middle" x="1245.5" y="-63.5" font-family="Helvetica,sans-Serif" font-size="10.00">examples/100_continue/request_listener.hpp</text>
</a>
</g>
</g>
<!-- Node4&#45;&gt;Node6 -->
<g id="edge5" class="edge">
<title>Node4&#45;&gt;Node6</title>
<path fill="none" stroke="midnightblue" d="M940.09,-110.98C1010.92,-100.78 1119.55,-85.14 1186.36,-75.52"/>
<polygon fill="midnightblue" stroke="midnightblue" points="939.32,-107.55 929.92,-112.44 940.32,-114.48 939.32,-107.55"/>
</g>
<!-- Node8 -->
<g id="node8" class="node">
<title>Node8</title>
<g id="a_node8"><a xlink:href="request__listener_2main_8cpp.html" target="_top" xlink:title=" ">
<polygon fill="none" stroke="black" points="49,-56.5 49,-75.5 222,-75.5 222,-56.5 49,-56.5"/>
<text text-anchor="middle" x="135.5" y="-63.5" font-family="Helvetica,sans-Serif" font-size="10.00">examples/request_listener/main.cpp</text>
</a>
</g>
</g>
<!-- Node4&#45;&gt;Node8 -->
<g id="edge8" class="edge">
<title>Node4&#45;&gt;Node8</title>
<path fill="none" stroke="midnightblue" d="M765.19,-114.38C638.31,-106.23 418.7,-91.53 230.5,-76 227.78,-75.78 225.01,-75.54 222.21,-75.3"/>
<polygon fill="midnightblue" stroke="midnightblue" points="765.09,-117.88 775.3,-115.03 765.54,-110.9 765.09,-117.88"/>
</g>
<!-- Node9 -->
<g id="node9" class="node">
<title>Node9</title>
<g id="a_node9"><a xlink:href="simple__server_2main_8cpp.html" target="_top" xlink:title=" ">
<polygon fill="none" stroke="black" points="231,-0.5 231,-19.5 396,-19.5 396,-0.5 231,-0.5"/>
<text text-anchor="middle" x="313.5" y="-7.5" font-family="Helvetica,sans-Serif" font-size="10.00">examples/simple_server/main.cpp</text>
</a>
</g>
</g>
<!-- Node4&#45;&gt;Node9 -->
<g id="edge9" class="edge">
<title>Node4&#45;&gt;Node9</title>
<path fill="none" stroke="midnightblue" d="M803.26,-110.96C748.3,-102.49 668.67,-89.59 599.5,-76 508.32,-58.08 401.79,-32.68 348.14,-19.57"/>
<polygon fill="midnightblue" stroke="midnightblue" points="802.81,-114.43 813.22,-112.49 803.87,-107.52 802.81,-114.43"/>
</g>
<!-- Node10 -->
<g id="node10" class="node">
<title>Node10</title>
<g id="a_node10"><a xlink:href="examples_2simple__server_2request__listener_8hpp.html" target="_top" xlink:title=" ">
<polygon fill="none" stroke="black" points="240,-56.5 240,-75.5 453,-75.5 453,-56.5 240,-56.5"/>
<text text-anchor="middle" x="346.5" y="-63.5" font-family="Helvetica,sans-Serif" font-size="10.00">examples/simple_server/request_listener.hpp</text>
</a>
</g>
</g>
<!-- Node4&#45;&gt;Node10 -->
<g id="edge10" class="edge">
<title>Node4&#45;&gt;Node10</title>
<path fill="none" stroke="midnightblue" d="M777.78,-111.45C678.99,-101.26 524.04,-85.3 429.24,-75.53"/>
<polygon fill="midnightblue" stroke="midnightblue" points="777.45,-114.93 787.76,-112.47 778.17,-107.97 777.45,-114.93"/>
</g>
<!-- Node12 -->
<g id="node12" class="node">
<title>Node12</title>
<g id="a_node12"><a xlink:href="websocket_2main_8cpp.html" target="_top" xlink:title=" ">
<polygon fill="none" stroke="black" points="632.5,-0.5 632.5,-19.5 784.5,-19.5 784.5,-0.5 632.5,-0.5"/>
<text text-anchor="middle" x="708.5" y="-7.5" font-family="Helvetica,sans-Serif" font-size="10.00">examples/websocket/main.cpp</text>
</a>
</g>
</g>
<!-- Node4&#45;&gt;Node12 -->
<g id="edge13" class="edge">
<title>Node4&#45;&gt;Node12</title>
<path fill="none" stroke="midnightblue" d="M859.96,-103.77C850.4,-89.36 835.14,-69.11 817.5,-56 794.17,-38.66 763.18,-26.71 740.21,-19.51"/>
<polygon fill="midnightblue" stroke="midnightblue" points="857.05,-105.72 865.38,-112.26 862.95,-101.95 857.05,-105.72"/>
</g>
<!-- Node13 -->
<g id="node13" class="node">
<title>Node13</title>
<g id="a_node13"><a xlink:href="examples_2websocket_2request__listener_8hpp.html" target="_top" xlink:title=" ">
<polygon fill="none" stroke="black" points="608.5,-56.5 608.5,-75.5 808.5,-75.5 808.5,-56.5 608.5,-56.5"/>
<text text-anchor="middle" x="708.5" y="-63.5" font-family="Helvetica,sans-Serif" font-size="10.00">examples/websocket/request_listener.hpp</text>
</a>
</g>
</g>
<!-- Node4&#45;&gt;Node13 -->
<g id="edge14" class="edge">
<title>Node4&#45;&gt;Node13</title>
<path fill="none" stroke="midnightblue" d="M835.02,-109.17C804.51,-99 761.26,-84.59 734.05,-75.52"/>
<polygon fill="midnightblue" stroke="midnightblue" points="834.24,-112.6 844.83,-112.44 836.45,-105.96 834.24,-112.6"/>
</g>
<!-- Node4&#45;&gt;Node15 -->
<g id="edge17" class="edge">
<title>Node4&#45;&gt;Node15</title>
<path fill="none" stroke="midnightblue" d="M898.64,-108.23C920.9,-98.13 951.36,-84.31 970.73,-75.52"/>
<polygon fill="midnightblue" stroke="midnightblue" points="897.02,-105.12 889.36,-112.44 899.91,-111.5 897.02,-105.12"/>
</g>
<!-- Node17 -->
<g id="node17" class="node">
<title>Node17</title>
<g id="a_node17"><a xlink:href="src_2roar_2routing_2request__listener_8cpp.html" target="_top" xlink:title=" ">
<polygon fill="none" stroke="black" points="803,-0.5 803,-19.5 976,-19.5 976,-0.5 803,-0.5"/>
<text text-anchor="middle" x="889.5" y="-7.5" font-family="Helvetica,sans-Serif" font-size="10.00">src/roar/routing/request_listener.cpp</text>
</a>
</g>
</g>
<!-- Node4&#45;&gt;Node17 -->
<g id="edge24" class="edge">
<title>Node4&#45;&gt;Node17</title>
<path fill="none" stroke="midnightblue" d="M873.72,-102.35C877.88,-78.25 884.96,-37.31 888.02,-19.59"/>
<polygon fill="midnightblue" stroke="midnightblue" points="870.24,-101.92 871.99,-112.37 877.14,-103.11 870.24,-101.92"/>
</g>
<!-- Node6&#45;&gt;Node5 -->
<g id="edge6" class="edge">
<title>Node6&#45;&gt;Node5</title>
<path fill="none" stroke="midnightblue" d="M1250.05,-46.1C1252.21,-37.14 1254.68,-26.86 1256.39,-19.75"/>
<polygon fill="midnightblue" stroke="midnightblue" points="1246.58,-45.54 1247.65,-56.08 1253.39,-47.18 1246.58,-45.54"/>
</g>
<!-- Node7 -->
<g id="node7" class="node">
<title>Node7</title>
<g id="a_node7"><a xlink:href="examples_2100__continue_2request__listener_8cpp.html" target="_top" xlink:title=" ">
<polygon fill="none" stroke="black" points="1357.5,-0.5 1357.5,-19.5 1567.5,-19.5 1567.5,-0.5 1357.5,-0.5"/>
<text text-anchor="middle" x="1462.5" y="-7.5" font-family="Helvetica,sans-Serif" font-size="10.00">examples/100_continue/request_listener.cpp</text>
</a>
</g>
</g>
<!-- Node6&#45;&gt;Node7 -->
<g id="edge7" class="edge">
<title>Node6&#45;&gt;Node7</title>
<path fill="none" stroke="midnightblue" d="M1289.61,-54.02C1330.6,-43.82 1390.8,-28.84 1428.28,-19.52"/>
<polygon fill="midnightblue" stroke="midnightblue" points="1288.74,-50.63 1279.88,-56.44 1290.43,-57.43 1288.74,-50.63"/>
</g>
<!-- Node10&#45;&gt;Node9 -->
<g id="edge11" class="edge">
<title>Node10&#45;&gt;Node9</title>
<path fill="none" stroke="midnightblue" d="M335.67,-47.27C330.03,-38.05 323.38,-27.17 318.85,-19.75"/>
<polygon fill="midnightblue" stroke="midnightblue" points="332.85,-49.38 341.05,-56.08 338.82,-45.73 332.85,-49.38"/>
</g>
<!-- Node11 -->
<g id="node11" class="node">
<title>Node11</title>
<g id="a_node11"><a xlink:href="examples_2simple__server_2request__listener_8cpp.html" target="_top" xlink:title=" ">
<polygon fill="none" stroke="black" points="0,-0.5 0,-19.5 213,-19.5 213,-0.5 0,-0.5"/>
<text text-anchor="middle" x="106.5" y="-7.5" font-family="Helvetica,sans-Serif" font-size="10.00">examples/simple_server/request_listener.cpp</text>
</a>
</g>
</g>
<!-- Node10&#45;&gt;Node11 -->
<g id="edge12" class="edge">
<title>Node10&#45;&gt;Node11</title>
<path fill="none" stroke="midnightblue" d="M298.58,-54.22C253.23,-44.01 186.06,-28.9 144.35,-19.52"/>
<polygon fill="midnightblue" stroke="midnightblue" points="297.95,-57.66 308.47,-56.44 299.48,-50.83 297.95,-57.66"/>
</g>
<!-- Node13&#45;&gt;Node12 -->
<g id="edge15" class="edge">
<title>Node13&#45;&gt;Node12</title>
<path fill="none" stroke="midnightblue" d="M708.5,-45.8C708.5,-36.91 708.5,-26.78 708.5,-19.75"/>
<polygon fill="midnightblue" stroke="midnightblue" points="705,-46.08 708.5,-56.08 712,-46.08 705,-46.08"/>
</g>
<!-- Node14 -->
<g id="node14" class="node">
<title>Node14</title>
<g id="a_node14"><a xlink:href="examples_2websocket_2request__listener_8cpp.html" target="_top" xlink:title=" ">
<polygon fill="none" stroke="black" points="414.5,-0.5 414.5,-19.5 614.5,-19.5 614.5,-0.5 414.5,-0.5"/>
<text text-anchor="middle" x="514.5" y="-7.5" font-family="Helvetica,sans-Serif" font-size="10.00">examples/websocket/request_listener.cpp</text>
</a>
</g>
</g>
<!-- Node13&#45;&gt;Node14 -->
<g id="edge16" class="edge">
<title>Node13&#45;&gt;Node14</title>
<path fill="none" stroke="midnightblue" d="M667.9,-53.7C631.28,-43.51 578.24,-28.74 545.1,-19.52"/>
<polygon fill="midnightblue" stroke="midnightblue" points="667.19,-57.13 677.76,-56.44 669.06,-50.39 667.19,-57.13"/>
</g>
<!-- Node15&#45;&gt;Node5 -->
<g id="edge18" class="edge">
<title>Node15&#45;&gt;Node5</title>
<path fill="none" stroke="midnightblue" d="M1041.94,-54.47C1092.78,-44.27 1168.94,-28.98 1216.08,-19.52"/>
<polygon fill="midnightblue" stroke="midnightblue" points="1041.24,-51.04 1032.12,-56.44 1042.62,-57.91 1041.24,-51.04"/>
</g>
<!-- Node15&#45;&gt;Node9 -->
<g id="edge20" class="edge">
<title>Node15&#45;&gt;Node9</title>
<path fill="none" stroke="midnightblue" d="M921.24,-60.2C812.19,-52.43 591.96,-36.3 405.5,-20 402.46,-19.73 399.37,-19.46 396.24,-19.18"/>
<polygon fill="midnightblue" stroke="midnightblue" points="921.22,-63.71 931.44,-60.92 921.72,-56.72 921.22,-63.71"/>
</g>
<!-- Node15&#45;&gt;Node12 -->
<g id="edge21" class="edge">
<title>Node15&#45;&gt;Node12</title>
<path fill="none" stroke="midnightblue" d="M935.05,-54.54C881.95,-44.33 802.16,-29 752.82,-19.52"/>
<polygon fill="midnightblue" stroke="midnightblue" points="934.49,-57.99 944.97,-56.44 935.81,-51.12 934.49,-57.99"/>
</g>
<!-- Node16 -->
<g id="node16" class="node">
<title>Node16</title>
<g id="a_node16"><a xlink:href="most__minimal_2main_8cpp.html" target="_top" xlink:title=" ">
<polygon fill="none" stroke="black" points="994,-0.5 994,-19.5 1159,-19.5 1159,-0.5 994,-0.5"/>
<text text-anchor="middle" x="1076.5" y="-7.5" font-family="Helvetica,sans-Serif" font-size="10.00">examples/most_minimal/main.cpp</text>
</a>
</g>
</g>
<!-- Node15&#45;&gt;Node16 -->
<g id="edge19" class="edge">
<title>Node15&#45;&gt;Node16</title>
<path fill="none" stroke="midnightblue" d="M1012.22,-50.9C1028.17,-41 1049,-28.07 1062.56,-19.65"/>
<polygon fill="midnightblue" stroke="midnightblue" points="1010.13,-48.08 1003.48,-56.32 1013.82,-54.02 1010.13,-48.08"/>
</g>
<!-- Node15&#45;&gt;Node17 -->
<g id="edge22" class="edge">
<title>Node15&#45;&gt;Node17</title>
<path fill="none" stroke="midnightblue" d="M964.41,-51.45C945.95,-41.48 921.4,-28.23 905.53,-19.65"/>
<polygon fill="midnightblue" stroke="midnightblue" points="962.97,-54.65 973.43,-56.32 966.3,-48.49 962.97,-54.65"/>
</g>
<!-- Node15&#45;&gt;Node18 -->
<g id="edge23" class="edge">
<title>Node15&#45;&gt;Node18</title>
<path fill="none" stroke="midnightblue" d="M1057.89,-60.43C1190.41,-51.45 1477.79,-31.42 1576.5,-20 1579.44,-19.66 1582.45,-19.28 1585.49,-18.88"/>
<polygon fill="midnightblue" stroke="midnightblue" points="1057.6,-56.94 1047.86,-61.1 1058.07,-63.92 1057.6,-56.94"/>
</g>
</g>
</svg>
        <g id="navigator" transform="translate(0 0)" fill="#404254">
                <rect fill="#f2f5e9" fill-opacity="0.5" stroke="#606060" stroke-width=".5" x="0" y="0" width="60" height="60"/>
                <use id="zoomplus" xlink:href="#zoomPlus" x="17" y="9" onmousedown="handleZoom(evt,'in')"/>
                <use id="zoomminus" xlink:href="#zoomMin" x="42" y="9" onmousedown="handleZoom(evt,'out')"/>
                <use id="reset" xlink:href="#resetDef" x="30" y="36" onmousedown="handleReset()"/>
                <g id="arrowUp" xlink:href="#dirArrow" transform="translate(30 24)" onmousedown="handlePan(0,-1)">
                  <use xlink:href="#rim" fill="#404040">
                        <set attributeName="fill" to="#808080" begin="arrowUp.mouseover" end="arrowUp.mouseout"/>
                  </use>
                  <path fill="none" stroke="white" stroke-width="1.5" d="M0,-3.0v7 M-2.5,-0.5L0,-3.0L2.5,-0.5"/>
                </g>
                <g id="arrowRight" xlink:href="#dirArrow" transform="rotate(90) translate(36 -43)" onmousedown="handlePan(1,0)">
                  <use xlink:href="#rim" fill="#404040">
                        <set attributeName="fill" to="#808080" begin="arrowRight.mouseover" end="arrowRight.mouseout"/>
                  </use>
                  <path fill="none" stroke="white" stroke-width="1.5" d="M0,-3.0v7 M-2.5,-0.5L0,-3.0L2.5,-0.5"/>
                </g>
                <g id="arrowDown" xlink:href="#dirArrow" transform="rotate(180) translate(-30 -48)" onmousedown="handlePan(0,1)">
                  <use xlink:href="#rim" fill="#404040">
                        <set attributeName="fill" to="#808080" begin="arrowDown.mouseover" end="arrowDown.mouseout"/>
                  </use>
                  <path fill="none" stroke="white" stroke-width="1.5" d="M0,-3.0v7 M-2.5,-0.5L0,-3.0L2.5,-0.5"/>
                </g>
                <g id="arrowLeft" xlink:href="#dirArrow" transform="rotate(270) translate(-36 17)" onmousedown="handlePan(-1,0)">
                  <use xlink:href="#rim" fill="#404040">
                        <set attributeName="fill" to="#808080" begin="arrowLeft.mouseover" end="arrowLeft.mouseout"/>
                  </use>
                  <path fill="none" stroke="white" stroke-width="1.5" d="M0,-3.0v7 M-2.5,-0.5L0,-3.0L2.5,-0.5"/>
                </g>
        </g>
        <svg viewBox="0 0 15 15" width="100%" height="30px" preserveAspectRatio="xMaxYMin meet">
         <g id="arrow_out" transform="scale(0.3 0.3)">
          <a xlink:href="first__type_8hpp__dep__incl_org.svg" target="_base">
           <rect id="button" ry="5" rx="5" y="6" x="6" height="38" width="38"
                fill="#f2f5e9" fill-opacity="0.5" stroke="#606060" stroke-width="1.0"/>
           <path id="arrow"
             d="M 11.500037,31.436501 C 11.940474,20.09759 22.043105,11.32322 32.158766,21.979434 L 37.068811,17.246167 C 37.068811,17.246167 37.088388,32 37.088388,32 L 22.160133,31.978069 C 22.160133,31.978069 26.997745,27.140456 26.997745,27.140456 C 18.528582,18.264221 13.291696,25.230495 11.500037,31.436501 z"
             style="fill:#404040;"/>
          </a>
         </g>
        </svg>
</svg>
