<?xml version="1.0" encoding="UTF-8" standalone="no"?>
<!DOCTYPE svg PUBLIC "-//W3C//DTD SVG 1.1//EN"
 "http://www.w3.org/Graphics/SVG/1.1/DTD/svg11.dtd">
<!-- Generated by graphviz version 2.44.1 (20211215.1903)
 -->
<!-- Title: include/roar/routing/flexible_provider.hpp Pages: 1 -->
<svg width="1487pt" height="252pt"
 viewBox="0.00 0.00 1486.50 252.00" xmlns="http://www.w3.org/2000/svg" xmlns:xlink="http://www.w3.org/1999/xlink">
<g id="graph0" class="graph" transform="scale(1 1) rotate(0) translate(4 248)">
<title>include/roar/routing/flexible_provider.hpp</title>
<!-- Node1 -->
<g id="node1" class="node">
<title>Node1</title>
<g id="a_node1"><a xlink:title=" ">
<polygon fill="#bfbfbf" stroke="black" points="751.5,-224.5 751.5,-243.5 942.5,-243.5 942.5,-224.5 751.5,-224.5"/>
<text text-anchor="middle" x="847" y="-231.5" font-family="Helvetica,sans-Serif" font-size="10.00">include/roar/routing/flexible_provider.hpp</text>
</a>
</g>
</g>
<!-- Node2 -->
<g id="node2" class="node">
<title>Node2</title>
<g id="a_node2"><a xlink:href="include_2roar_2routing_2request__listener_8hpp.html" target="_top" xlink:title=" ">
<polygon fill="none" stroke="black" points="752,-168.5 752,-187.5 942,-187.5 942,-168.5 752,-168.5"/>
<text text-anchor="middle" x="847" y="-175.5" font-family="Helvetica,sans-Serif" font-size="10.00">include/roar/routing/request_listener.hpp</text>
</a>
</g>
</g>
<!-- Node1&#45;&gt;Node2 -->
<g id="edge1" class="edge">
<title>Node1&#45;&gt;Node2</title>
<path fill="none" stroke="midnightblue" d="M847,-213.8C847,-204.91 847,-194.78 847,-187.75"/>
<polygon fill="midnightblue" stroke="midnightblue" points="843.5,-214.08 847,-224.08 850.5,-214.08 843.5,-214.08"/>
</g>
<!-- Node3 -->
<g id="node3" class="node">
<title>Node3</title>
<g id="a_node3"><a xlink:href="100__continue_2main_8cpp.html" target="_top" xlink:title=" ">
<polygon fill="none" stroke="black" points="0,-0.5 0,-19.5 162,-19.5 162,-0.5 0,-0.5"/>
<text text-anchor="middle" x="81" y="-7.5" font-family="Helvetica,sans-Serif" font-size="10.00">examples/100_continue/main.cpp</text>
</a>
</g>
</g>
<!-- Node2&#45;&gt;Node3 -->
<g id="edge2" class="edge">
<title>Node2&#45;&gt;Node3</title>
<path fill="none" stroke="midnightblue" d="M741.77,-177.37C547.65,-177.08 148.51,-171.6 100,-132 65.9,-104.16 74.52,-42.23 79.07,-19.54"/>
<polygon fill="midnightblue" stroke="midnightblue" points="741.98,-180.87 751.99,-177.38 741.99,-173.87 741.98,-180.87"/>
</g>
<!-- Node4 -->
<g id="node4" class="node">
<title>Node4</title>
<g id="a_node4"><a xlink:href="examples_2100__continue_2request__listener_8hpp.html" target="_top" xlink:title=" ">
<polygon fill="none" stroke="black" points="109,-112.5 109,-131.5 319,-131.5 319,-112.5 109,-112.5"/>
<text text-anchor="middle" x="214" y="-119.5" font-family="Helvetica,sans-Serif" font-size="10.00">examples/100_continue/request_listener.hpp</text>
</a>
</g>
</g>
<!-- Node2&#45;&gt;Node4 -->
<g id="edge3" class="edge">
<title>Node2&#45;&gt;Node4</title>
<path fill="none" stroke="midnightblue" d="M741.68,-168.01C622.67,-157.86 430.4,-141.46 313.74,-131.51"/>
<polygon fill="midnightblue" stroke="midnightblue" points="741.63,-171.52 751.89,-168.89 742.22,-164.55 741.63,-171.52"/>
</g>
<!-- Node6 -->
<g id="node6" class="node">
<title>Node6</title>
<g id="a_node6"><a xlink:href="file__server_8hpp.html" target="_top" xlink:title=" ">
<polygon fill="none" stroke="black" points="374.5,-112.5 374.5,-131.5 569.5,-131.5 569.5,-112.5 374.5,-112.5"/>
<text text-anchor="middle" x="472" y="-119.5" font-family="Helvetica,sans-Serif" font-size="10.00">examples/serve_directory/file_server.hpp</text>
</a>
</g>
</g>
<!-- Node2&#45;&gt;Node6 -->
<g id="edge6" class="edge">
<title>Node2&#45;&gt;Node6</title>
<path fill="none" stroke="midnightblue" d="M777.41,-166.98C706.58,-156.78 597.95,-141.14 531.14,-131.52"/>
<polygon fill="midnightblue" stroke="midnightblue" points="777.18,-170.48 787.58,-168.44 778.18,-163.55 777.18,-170.48"/>
</g>
<!-- Node8 -->
<g id="node8" class="node">
<title>Node8</title>
<g id="a_node8"><a xlink:href="serve__directory_2main_8cpp.html" target="_top" xlink:title=" ">
<polygon fill="none" stroke="black" points="303.5,-0.5 303.5,-19.5 474.5,-19.5 474.5,-0.5 303.5,-0.5"/>
<text text-anchor="middle" x="389" y="-7.5" font-family="Helvetica,sans-Serif" font-size="10.00">examples/serve_directory/main.cpp</text>
</a>
</g>
</g>
<!-- Node2&#45;&gt;Node8 -->
<g id="edge9" class="edge">
<title>Node2&#45;&gt;Node8</title>
<path fill="none" stroke="midnightblue" d="M741.48,-174.54C607.27,-170.3 389.84,-159.27 365,-132 335.43,-99.54 368.61,-41.48 383,-19.63"/>
<polygon fill="midnightblue" stroke="midnightblue" points="741.69,-178.05 751.79,-174.86 741.9,-171.05 741.69,-178.05"/>
</g>
<!-- Node9 -->
<g id="node9" class="node">
<title>Node9</title>
<g id="a_node9"><a xlink:href="simple__server_2main_8cpp.html" target="_top" xlink:title=" ">
<polygon fill="none" stroke="black" points="795.5,-0.5 795.5,-19.5 960.5,-19.5 960.5,-0.5 795.5,-0.5"/>
<text text-anchor="middle" x="878" y="-7.5" font-family="Helvetica,sans-Serif" font-size="10.00">examples/simple_server/main.cpp</text>
</a>
</g>
</g>
<!-- Node2&#45;&gt;Node9 -->
<g id="edge10" class="edge">
<title>Node2&#45;&gt;Node9</title>
<path fill="none" stroke="midnightblue" d="M850.56,-157.93C857.29,-121.92 871.61,-45.23 876.4,-19.57"/>
<polygon fill="midnightblue" stroke="midnightblue" points="847.06,-157.6 848.67,-168.08 853.94,-158.89 847.06,-157.6"/>
</g>
<!-- Node10 -->
<g id="node10" class="node">
<title>Node10</title>
<g id="a_node10"><a xlink:href="examples_2simple__server_2request__listener_8hpp.html" target="_top" xlink:title=" ">
<polygon fill="none" stroke="black" points="913.5,-112.5 913.5,-131.5 1126.5,-131.5 1126.5,-112.5 913.5,-112.5"/>
<text text-anchor="middle" x="1020" y="-119.5" font-family="Helvetica,sans-Serif" font-size="10.00">examples/simple_server/request_listener.hpp</text>
</a>
</g>
</g>
<!-- Node2&#45;&gt;Node10 -->
<g id="edge11" class="edge">
<title>Node2&#45;&gt;Node10</title>
<path fill="none" stroke="midnightblue" d="M884.05,-165.44C916.66,-155.26 963.41,-140.66 992.72,-131.52"/>
<polygon fill="midnightblue" stroke="midnightblue" points="882.92,-162.12 874.41,-168.44 885,-168.8 882.92,-162.12"/>
</g>
<!-- Node12 -->
<g id="node12" class="node">
<title>Node12</title>
<g id="a_node12"><a xlink:href="websocket_2main_8cpp.html" target="_top" xlink:title=" ">
<polygon fill="none" stroke="black" points="1079,-0.5 1079,-19.5 1231,-19.5 1231,-0.5 1079,-0.5"/>
<text text-anchor="middle" x="1155" y="-7.5" font-family="Helvetica,sans-Serif" font-size="10.00">examples/websocket/main.cpp</text>
</a>
</g>
</g>
<!-- Node2&#45;&gt;Node12 -->
<g id="edge14" class="edge">
<title>Node2&#45;&gt;Node12</title>
<path fill="none" stroke="midnightblue" d="M952.25,-173.36C1023.99,-168.58 1110.44,-157.53 1136,-132 1166.99,-101.05 1160.41,-41.56 1156.66,-19.5"/>
<polygon fill="midnightblue" stroke="midnightblue" points="951.99,-169.87 942.23,-174 952.43,-176.86 951.99,-169.87"/>
</g>
<!-- Node13 -->
<g id="node13" class="node">
<title>Node13</title>
<g id="a_node13"><a xlink:href="examples_2websocket_2request__listener_8hpp.html" target="_top" xlink:title=" ">
<polygon fill="none" stroke="black" points="1183,-112.5 1183,-131.5 1383,-131.5 1383,-112.5 1183,-112.5"/>
<text text-anchor="middle" x="1283" y="-119.5" font-family="Helvetica,sans-Serif" font-size="10.00">examples/websocket/request_listener.hpp</text>
</a>
</g>
</g>
<!-- Node2&#45;&gt;Node13 -->
<g id="edge15" class="edge">
<title>Node2&#45;&gt;Node13</title>
<path fill="none" stroke="midnightblue" d="M926.14,-167.2C1008.45,-157 1136,-141.21 1214.24,-131.52"/>
<polygon fill="midnightblue" stroke="midnightblue" points="925.58,-163.74 916.09,-168.44 926.44,-170.69 925.58,-163.74"/>
</g>
<!-- Node15 -->
<g id="node15" class="node">
<title>Node15</title>
<g id="a_node15"><a xlink:href="directory__server_8hpp.html" target="_top" xlink:title=" ">
<polygon fill="none" stroke="black" points="587.5,-112.5 587.5,-131.5 818.5,-131.5 818.5,-112.5 587.5,-112.5"/>
<text text-anchor="middle" x="703" y="-119.5" font-family="Helvetica,sans-Serif" font-size="10.00">include/roar/directory_server/directory_server.hpp</text>
</a>
</g>
</g>
<!-- Node2&#45;&gt;Node15 -->
<g id="edge18" class="edge">
<title>Node2&#45;&gt;Node15</title>
<path fill="none" stroke="midnightblue" d="M814.75,-164.91C787.68,-154.75 749.68,-140.51 725.71,-131.52"/>
<polygon fill="midnightblue" stroke="midnightblue" points="813.59,-168.21 824.18,-168.44 816.05,-161.66 813.59,-168.21"/>
</g>
<!-- Node16 -->
<g id="node16" class="node">
<title>Node16</title>
<g id="a_node16"><a xlink:href="server_8hpp.html" target="_top" xlink:title=" ">
<polygon fill="none" stroke="black" points="670,-56.5 670,-75.5 786,-75.5 786,-56.5 670,-56.5"/>
<text text-anchor="middle" x="728" y="-63.5" font-family="Helvetica,sans-Serif" font-size="10.00">include/roar/server.hpp</text>
</a>
</g>
</g>
<!-- Node2&#45;&gt;Node16 -->
<g id="edge27" class="edge">
<title>Node2&#45;&gt;Node16</title>
<path fill="none" stroke="midnightblue" d="M845.37,-158.24C843.23,-144.05 838.32,-124.87 827,-112 810.79,-93.57 785.52,-82.25 764.56,-75.58"/>
<polygon fill="midnightblue" stroke="midnightblue" points="841.91,-158.81 846.55,-168.34 848.86,-158 841.91,-158.81"/>
</g>
<!-- Node18 -->
<g id="node18" class="node">
<title>Node18</title>
<g id="a_node18"><a xlink:href="src_2roar_2routing_2request__listener_8cpp.html" target="_top" xlink:title=" ">
<polygon fill="none" stroke="black" points="1305.5,-0.5 1305.5,-19.5 1478.5,-19.5 1478.5,-0.5 1305.5,-0.5"/>
<text text-anchor="middle" x="1392" y="-7.5" font-family="Helvetica,sans-Serif" font-size="10.00">src/roar/routing/request_listener.cpp</text>
</a>
</g>
</g>
<!-- Node2&#45;&gt;Node18 -->
<g id="edge28" class="edge">
<title>Node2&#45;&gt;Node18</title>
<path fill="none" stroke="midnightblue" d="M952.25,-173.18C1099.99,-167.07 1355.06,-153.57 1392,-132 1424.61,-112.96 1442.97,-91.47 1430,-56 1424.59,-41.21 1411.94,-27.93 1402.71,-19.7"/>
<polygon fill="midnightblue" stroke="midnightblue" points="952.09,-169.68 942.24,-173.59 952.37,-176.67 952.09,-169.68"/>
</g>
<!-- Node4&#45;&gt;Node3 -->
<g id="edge4" class="edge">
<title>Node4&#45;&gt;Node3</title>
<path fill="none" stroke="midnightblue" d="M156.95,-109.54C136.54,-102.84 114.92,-92.35 100,-76 85.42,-60.02 81.98,-33.43 81.2,-19.74"/>
<polygon fill="midnightblue" stroke="midnightblue" points="155.93,-112.89 166.52,-112.44 157.97,-106.19 155.93,-112.89"/>
</g>
<!-- Node5 -->
<g id="node5" class="node">
<title>Node5</title>
<g id="a_node5"><a xlink:href="examples_2100__continue_2request__listener_8cpp.html" target="_top" xlink:title=" ">
<polygon fill="none" stroke="black" points="109,-56.5 109,-75.5 319,-75.5 319,-56.5 109,-56.5"/>
<text text-anchor="middle" x="214" y="-63.5" font-family="Helvetica,sans-Serif" font-size="10.00">examples/100_continue/request_listener.cpp</text>
</a>
</g>
</g>
<!-- Node4&#45;&gt;Node5 -->
<g id="edge5" class="edge">
<title>Node4&#45;&gt;Node5</title>
<path fill="none" stroke="midnightblue" d="M214,-101.8C214,-92.91 214,-82.78 214,-75.75"/>
<polygon fill="midnightblue" stroke="midnightblue" points="210.5,-102.08 214,-112.08 217.5,-102.08 210.5,-102.08"/>
</g>
<!-- Node7 -->
<g id="node7" class="node">
<title>Node7</title>
<g id="a_node7"><a xlink:href="file__server_8cpp.html" target="_top" xlink:title=" ">
<polygon fill="none" stroke="black" points="416.5,-56.5 416.5,-75.5 611.5,-75.5 611.5,-56.5 416.5,-56.5"/>
<text text-anchor="middle" x="514" y="-63.5" font-family="Helvetica,sans-Serif" font-size="10.00">examples/serve_directory/file_server.cpp</text>
</a>
</g>
</g>
<!-- Node6&#45;&gt;Node7 -->
<g id="edge7" class="edge">
<title>Node6&#45;&gt;Node7</title>
<path fill="none" stroke="midnightblue" d="M485.11,-104.14C492.43,-94.74 501.24,-83.4 507.19,-75.75"/>
<polygon fill="midnightblue" stroke="midnightblue" points="482.31,-102.04 478.94,-112.08 487.84,-106.34 482.31,-102.04"/>
</g>
<!-- Node6&#45;&gt;Node8 -->
<g id="edge8" class="edge">
<title>Node6&#45;&gt;Node8</title>
<path fill="none" stroke="midnightblue" d="M443.97,-107.43C430.99,-99.85 416.4,-89.24 407,-76 394.66,-58.63 390.77,-33.1 389.55,-19.8"/>
<polygon fill="midnightblue" stroke="midnightblue" points="442.59,-110.67 453.04,-112.42 445.96,-104.53 442.59,-110.67"/>
</g>
<!-- Node10&#45;&gt;Node9 -->
<g id="edge12" class="edge">
<title>Node10&#45;&gt;Node9</title>
<path fill="none" stroke="midnightblue" d="M965.67,-109.5C944.56,-102.73 921.53,-92.19 905,-76 888.94,-60.27 882.02,-33.57 879.39,-19.8"/>
<polygon fill="midnightblue" stroke="midnightblue" points="964.94,-112.93 975.52,-112.44 966.94,-106.23 964.94,-112.93"/>
</g>
<!-- Node11 -->
<g id="node11" class="node">
<title>Node11</title>
<g id="a_node11"><a xlink:href="examples_2simple__server_2request__listener_8cpp.html" target="_top" xlink:title=" ">
<polygon fill="none" stroke="black" points="913.5,-56.5 913.5,-75.5 1126.5,-75.5 1126.5,-56.5 913.5,-56.5"/>
<text text-anchor="middle" x="1020" y="-63.5" font-family="Helvetica,sans-Serif" font-size="10.00">examples/simple_server/request_listener.cpp</text>
</a>
</g>
</g>
<!-- Node10&#45;&gt;Node11 -->
<g id="edge13" class="edge">
<title>Node10&#45;&gt;Node11</title>
<path fill="none" stroke="midnightblue" d="M1020,-101.8C1020,-92.91 1020,-82.78 1020,-75.75"/>
<polygon fill="midnightblue" stroke="midnightblue" points="1016.5,-102.08 1020,-112.08 1023.5,-102.08 1016.5,-102.08"/>
</g>
<!-- Node13&#45;&gt;Node12 -->
<g id="edge16" class="edge">
<title>Node13&#45;&gt;Node12</title>
<path fill="none" stroke="midnightblue" d="M1257.86,-107.45C1243.71,-99.25 1226.1,-88.07 1212,-76 1191.25,-58.24 1171.19,-32.88 1161.33,-19.7"/>
<polygon fill="midnightblue" stroke="midnightblue" points="1256.16,-110.51 1266.59,-112.38 1259.61,-104.41 1256.16,-110.51"/>
</g>
<!-- Node14 -->
<g id="node14" class="node">
<title>Node14</title>
<g id="a_node14"><a xlink:href="examples_2websocket_2request__listener_8cpp.html" target="_top" xlink:title=" ">
<polygon fill="none" stroke="black" points="1221,-56.5 1221,-75.5 1421,-75.5 1421,-56.5 1221,-56.5"/>
<text text-anchor="middle" x="1321" y="-63.5" font-family="Helvetica,sans-Serif" font-size="10.00">examples/websocket/request_listener.cpp</text>
</a>
</g>
</g>
<!-- Node13&#45;&gt;Node14 -->
<g id="edge17" class="edge">
<title>Node13&#45;&gt;Node14</title>
<path fill="none" stroke="midnightblue" d="M1295.06,-103.86C1301.64,-94.5 1309.51,-83.33 1314.84,-75.75"/>
<polygon fill="midnightblue" stroke="midnightblue" points="1292.17,-101.89 1289.27,-112.08 1297.89,-105.92 1292.17,-101.89"/>
</g>
<!-- Node15&#45;&gt;Node16 -->
<g id="edge19" class="edge">
<title>Node15&#45;&gt;Node16</title>
<path fill="none" stroke="midnightblue" d="M711.34,-102.98C715.58,-93.82 720.55,-83.09 723.95,-75.75"/>
<polygon fill="midnightblue" stroke="midnightblue" points="708.15,-101.54 707.13,-112.08 714.51,-104.48 708.15,-101.54"/>
</g>
<!-- Node16&#45;&gt;Node3 -->
<g id="edge20" class="edge">
<title>Node16&#45;&gt;Node3</title>
<path fill="none" stroke="midnightblue" d="M659.55,-59.29C539.36,-49.26 290.96,-28.52 162.26,-17.78"/>
<polygon fill="midnightblue" stroke="midnightblue" points="659.47,-62.79 669.73,-60.14 660.05,-55.82 659.47,-62.79"/>
</g>
<!-- Node16&#45;&gt;Node8 -->
<g id="edge22" class="edge">
<title>Node16&#45;&gt;Node8</title>
<path fill="none" stroke="midnightblue" d="M664.3,-54.85C600.25,-44.65 502.61,-29.1 442.46,-19.52"/>
<polygon fill="midnightblue" stroke="midnightblue" points="663.86,-58.33 674.28,-56.44 664.96,-51.41 663.86,-58.33"/>
</g>
<!-- Node16&#45;&gt;Node9 -->
<g id="edge23" class="edge">
<title>Node16&#45;&gt;Node9</title>
<path fill="none" stroke="midnightblue" d="M761.22,-53.04C789.45,-42.88 829.26,-28.55 854.34,-19.52"/>
<polygon fill="midnightblue" stroke="midnightblue" points="759.99,-49.76 751.77,-56.44 762.36,-56.35 759.99,-49.76"/>
</g>
<!-- Node16&#45;&gt;Node12 -->
<g id="edge24" class="edge">
<title>Node16&#45;&gt;Node12</title>
<path fill="none" stroke="midnightblue" d="M796,-56.4C875.97,-46.29 1007.88,-29.61 1087.59,-19.52"/>
<polygon fill="midnightblue" stroke="midnightblue" points="795.51,-52.93 786.03,-57.66 796.39,-59.88 795.51,-52.93"/>
</g>
<!-- Node17 -->
<g id="node17" class="node">
<title>Node17</title>
<g id="a_node17"><a xlink:href="most__minimal_2main_8cpp.html" target="_top" xlink:title=" ">
<polygon fill="none" stroke="black" points="495.5,-0.5 495.5,-19.5 660.5,-19.5 660.5,-0.5 495.5,-0.5"/>
<text text-anchor="middle" x="578" y="-7.5" font-family="Helvetica,sans-Serif" font-size="10.00">examples/most_minimal/main.cpp</text>
</a>
</g>
</g>
<!-- Node16&#45;&gt;Node17 -->
<g id="edge21" class="edge">
<title>Node16&#45;&gt;Node17</title>
<path fill="none" stroke="midnightblue" d="M694.78,-53.04C666.55,-42.88 626.74,-28.55 601.66,-19.52"/>
<polygon fill="midnightblue" stroke="midnightblue" points="693.64,-56.35 704.23,-56.44 696.01,-49.76 693.64,-56.35"/>
</g>
<!-- Node16&#45;&gt;Node18 -->
<g id="edge25" class="edge">
<title>Node16&#45;&gt;Node18</title>
<path fill="none" stroke="midnightblue" d="M796.34,-59.44C917.94,-49.55 1171.6,-28.92 1305.28,-18.05"/>
<polygon fill="midnightblue" stroke="midnightblue" points="795.74,-55.98 786.05,-60.28 796.3,-62.96 795.74,-55.98"/>
</g>
<!-- Node19 -->
<g id="node19" class="node">
<title>Node19</title>
<g id="a_node19"><a xlink:href="server_8cpp.html" target="_top" xlink:title=" ">
<polygon fill="none" stroke="black" points="679,-0.5 679,-19.5 777,-19.5 777,-0.5 679,-0.5"/>
<text text-anchor="middle" x="728" y="-7.5" font-family="Helvetica,sans-Serif" font-size="10.00">src/roar/server.cpp</text>
</a>
</g>
</g>
<!-- Node16&#45;&gt;Node19 -->
<g id="edge26" class="edge">
<title>Node16&#45;&gt;Node19</title>
<path fill="none" stroke="midnightblue" d="M728,-45.8C728,-36.91 728,-26.78 728,-19.75"/>
<polygon fill="midnightblue" stroke="midnightblue" points="724.5,-46.08 728,-56.08 731.5,-46.08 724.5,-46.08"/>
</g>
</g>
</svg>
