<?xml version="1.0" encoding="UTF-8" standalone="no"?>
<!DOCTYPE svg PUBLIC "-//W3C//DTD SVG 1.1//EN"
 "http://www.w3.org/Graphics/SVG/1.1/DTD/svg11.dtd">
<!-- Generated by graphviz version 8.1.0 (0)
 -->
<!-- Title: include/roar/routing/flexible_provider.hpp Pages: 1 -->
<svg width="1483pt" height="252pt"
 viewBox="0.00 0.00 1482.75 252.00" xmlns="http://www.w3.org/2000/svg" xmlns:xlink="http://www.w3.org/1999/xlink">
<g id="graph0" class="graph" transform="scale(1 1) rotate(0) translate(4 248)">
<title>include/roar/routing/flexible_provider.hpp</title>
<!-- Node1 -->
<g id="Node000001" class="node">
<title>Node1</title>
<g id="a_Node000001"><a xlink:title=" ">
<polygon fill="#999999" stroke="#666666" points="941.12,-244 750.38,-244 750.38,-224 941.12,-224 941.12,-244"/>
<text text-anchor="middle" x="845.75" y="-230.5" font-family="Helvetica,sans-Serif" font-size="10.00">include/roar/routing/flexible_provider.hpp</text>
</a>
</g>
</g>
<!-- Node2 -->
<g id="Node000002" class="node">
<title>Node2</title>
<g id="a_Node000002"><a xlink:href="include_2roar_2routing_2request__listener_8hpp.html" target="_top" xlink:title=" ">
<polygon fill="white" stroke="#666666" points="940.38,-188 751.12,-188 751.12,-168 940.38,-168 940.38,-188"/>
<text text-anchor="middle" x="845.75" y="-174.5" font-family="Helvetica,sans-Serif" font-size="10.00">include/roar/routing/request_listener.hpp</text>
</a>
</g>
</g>
<!-- Node1&#45;&gt;Node2 -->
<g id="edge1_Node000001_Node000002" class="edge">
<title>Node1&#45;&gt;Node2</title>
<g id="a_edge1_Node000001_Node000002"><a xlink:title=" ">
<path fill="none" stroke="#63b8ff" d="M845.75,-212.71C845.75,-204.32 845.75,-195.01 845.75,-188.3"/>
<polygon fill="#63b8ff" stroke="#63b8ff" points="842.25,-212.59 845.75,-222.59 849.25,-212.59 842.25,-212.59"/>
</a>
</g>
</g>
<!-- Node3 -->
<g id="Node000003" class="node">
<title>Node3</title>
<g id="a_Node000003"><a xlink:href="100__continue_2main_8cpp.html" target="_top" xlink:title=" ">
<polygon fill="white" stroke="#666666" points="161.5,-20 0,-20 0,0 161.5,0 161.5,-20"/>
<text text-anchor="middle" x="80.75" y="-6.5" font-family="Helvetica,sans-Serif" font-size="10.00">examples/100_continue/main.cpp</text>
</a>
</g>
</g>
<!-- Node2&#45;&gt;Node3 -->
<g id="edge2_Node000002_Node000003" class="edge">
<title>Node2&#45;&gt;Node3</title>
<g id="a_edge2_Node000002_Node000003"><a xlink:title=" ">
<path fill="none" stroke="#63b8ff" d="M740.08,-177.36C546.01,-177.04 148.15,-171.51 99.75,-132 65.98,-104.43 74.11,-43.42 78.69,-20.21"/>
<polygon fill="#63b8ff" stroke="#63b8ff" points="739.86,-180.86 749.86,-177.37 739.87,-173.86 739.86,-180.86"/>
</a>
</g>
</g>
<!-- Node4 -->
<g id="Node000004" class="node">
<title>Node4</title>
<g id="a_Node000004"><a xlink:href="examples_2100__continue_2request__listener_8hpp.html" target="_top" xlink:title=" ">
<polygon fill="white" stroke="#666666" points="318.5,-132 109,-132 109,-112 318.5,-112 318.5,-132"/>
<text text-anchor="middle" x="213.75" y="-118.5" font-family="Helvetica,sans-Serif" font-size="10.00">examples/100_continue/request_listener.hpp</text>
</a>
</g>
</g>
<!-- Node2&#45;&gt;Node4 -->
<g id="edge3_Node000002_Node000004" class="edge">
<title>Node2&#45;&gt;Node4</title>
<g id="a_edge3_Node000002_Node000004"><a xlink:title=" ">
<path fill="none" stroke="#63b8ff" d="M740.05,-167.97C623.07,-157.97 435.68,-141.96 318.92,-131.99"/>
<polygon fill="#63b8ff" stroke="#63b8ff" points="739.53,-171.52 749.79,-168.89 740.13,-164.55 739.53,-171.52"/>
</a>
</g>
</g>
<!-- Node6 -->
<g id="Node000006" class="node">
<title>Node6</title>
<g id="a_Node000006"><a xlink:href="file__server_8hpp.html" target="_top" xlink:title=" ">
<polygon fill="white" stroke="#666666" points="569,-132 374.5,-132 374.5,-112 569,-112 569,-132"/>
<text text-anchor="middle" x="471.75" y="-118.5" font-family="Helvetica,sans-Serif" font-size="10.00">examples/serve_directory/file_server.hpp</text>
</a>
</g>
</g>
<!-- Node2&#45;&gt;Node6 -->
<g id="edge6_Node000002_Node000006" class="edge">
<title>Node2&#45;&gt;Node6</title>
<g id="a_edge6_Node000002_Node000006"><a xlink:title=" ">
<path fill="none" stroke="#63b8ff" d="M769.49,-165.99C701.18,-156.13 602.05,-141.81 537.25,-132.46"/>
<polygon fill="#63b8ff" stroke="#63b8ff" points="768.78,-169.57 779.18,-167.53 769.78,-162.64 768.78,-169.57"/>
</a>
</g>
</g>
<!-- Node8 -->
<g id="Node000008" class="node">
<title>Node8</title>
<g id="a_Node000008"><a xlink:href="serve__directory_2main_8cpp.html" target="_top" xlink:title=" ">
<polygon fill="white" stroke="#666666" points="474,-20 303.5,-20 303.5,0 474,0 474,-20"/>
<text text-anchor="middle" x="388.75" y="-6.5" font-family="Helvetica,sans-Serif" font-size="10.00">examples/serve_directory/main.cpp</text>
</a>
</g>
</g>
<!-- Node2&#45;&gt;Node8 -->
<g id="edge9_Node000002_Node000008" class="edge">
<title>Node2&#45;&gt;Node8</title>
<g id="a_edge9_Node000002_Node000008"><a xlink:title=" ">
<path fill="none" stroke="#63b8ff" d="M739.98,-174.49C606.28,-170.19 390.44,-159.11 365.75,-132 336.52,-99.91 368.11,-42.63 382.44,-20.28"/>
<polygon fill="#63b8ff" stroke="#63b8ff" points="739.55,-178.01 749.66,-174.82 739.77,-171.01 739.55,-178.01"/>
</a>
</g>
</g>
<!-- Node9 -->
<g id="Node000009" class="node">
<title>Node9</title>
<g id="a_Node000009"><a xlink:href="simple__server_2main_8cpp.html" target="_top" xlink:title=" ">
<polygon fill="white" stroke="#666666" points="959,-20 794.5,-20 794.5,0 959,0 959,-20"/>
<text text-anchor="middle" x="876.75" y="-6.5" font-family="Helvetica,sans-Serif" font-size="10.00">examples/simple_server/main.cpp</text>
</a>
</g>
</g>
<!-- Node2&#45;&gt;Node9 -->
<g id="edge10_Node000002_Node000009" class="edge">
<title>Node2&#45;&gt;Node9</title>
<g id="a_edge10_Node000002_Node000009"><a xlink:title=" ">
<path fill="none" stroke="#63b8ff" d="M849.49,-156.97C856.22,-120.92 870.14,-46.42 875.01,-20.3"/>
<polygon fill="#63b8ff" stroke="#63b8ff" points="845.9,-156.13 847.51,-166.6 852.78,-157.41 845.9,-156.13"/>
</a>
</g>
</g>
<!-- Node10 -->
<g id="Node000010" class="node">
<title>Node10</title>
<g id="a_Node000010"><a xlink:href="examples_2simple__server_2request__listener_8hpp.html" target="_top" xlink:title=" ">
<polygon fill="white" stroke="#666666" points="1124,-132 911.5,-132 911.5,-112 1124,-112 1124,-132"/>
<text text-anchor="middle" x="1017.75" y="-118.5" font-family="Helvetica,sans-Serif" font-size="10.00">examples/simple_server/request_listener.hpp</text>
</a>
</g>
</g>
<!-- Node2&#45;&gt;Node10 -->
<g id="edge11_Node000002_Node000010" class="edge">
<title>Node2&#45;&gt;Node10</title>
<g id="a_edge11_Node000002_Node000010"><a xlink:title=" ">
<path fill="none" stroke="#63b8ff" d="M886.18,-164.31C917.23,-154.56 959.41,-141.32 987.56,-132.48"/>
<polygon fill="#63b8ff" stroke="#63b8ff" points="885.2,-161.26 876.71,-167.59 887.3,-167.94 885.2,-161.26"/>
</a>
</g>
</g>
<!-- Node12 -->
<g id="Node000012" class="node">
<title>Node12</title>
<g id="a_Node000012"><a xlink:href="websocket_2main_8cpp.html" target="_top" xlink:title=" ">
<polygon fill="white" stroke="#666666" points="1227.25,-20 1076.25,-20 1076.25,0 1227.25,0 1227.25,-20"/>
<text text-anchor="middle" x="1151.75" y="-6.5" font-family="Helvetica,sans-Serif" font-size="10.00">examples/websocket/main.cpp</text>
</a>
</g>
</g>
<!-- Node2&#45;&gt;Node12 -->
<g id="edge14_Node000002_Node000012" class="edge">
<title>Node2&#45;&gt;Node12</title>
<g id="a_edge14_Node000002_Node000012"><a xlink:title=" ">
<path fill="none" stroke="#63b8ff" d="M951.51,-173.19C1022.51,-168.31 1107.52,-157.23 1132.75,-132 1163.28,-101.48 1157.34,-43.28 1153.57,-20.49"/>
<polygon fill="#63b8ff" stroke="#63b8ff" points="951.45,-169.75 941.69,-173.89 951.9,-176.73 951.45,-169.75"/>
</a>
</g>
</g>
<!-- Node13 -->
<g id="Node000013" class="node">
<title>Node13</title>
<g id="a_Node000013"><a xlink:href="examples_2websocket_2request__listener_8hpp.html" target="_top" xlink:title=" ">
<polygon fill="white" stroke="#666666" points="1379.25,-132 1180.25,-132 1180.25,-112 1379.25,-112 1379.25,-132"/>
<text text-anchor="middle" x="1279.75" y="-118.5" font-family="Helvetica,sans-Serif" font-size="10.00">examples/websocket/request_listener.hpp</text>
</a>
</g>
</g>
<!-- Node2&#45;&gt;Node13 -->
<g id="edge15_Node000002_Node000013" class="edge">
<title>Node2&#45;&gt;Node13</title>
<g id="a_edge15_Node000002_Node000013"><a xlink:title=" ">
<path fill="none" stroke="#63b8ff" d="M932.3,-166.23C1011.62,-156.36 1127.93,-141.89 1203.74,-132.46"/>
<polygon fill="#63b8ff" stroke="#63b8ff" points="932.33,-162.82 922.84,-167.53 933.2,-169.77 932.33,-162.82"/>
</a>
</g>
</g>
<!-- Node15 -->
<g id="Node000015" class="node">
<title>Node15</title>
<g id="a_Node000015"><a xlink:href="directory__server_8hpp.html" target="_top" xlink:title=" ">
<polygon fill="white" stroke="#666666" points="818,-132 587.5,-132 587.5,-112 818,-112 818,-132"/>
<text text-anchor="middle" x="702.75" y="-118.5" font-family="Helvetica,sans-Serif" font-size="10.00">include/roar/directory_server/directory_server.hpp</text>
</a>
</g>
</g>
<!-- Node2&#45;&gt;Node15 -->
<g id="edge18_Node000002_Node000015" class="edge">
<title>Node2&#45;&gt;Node15</title>
<g id="a_edge18_Node000002_Node000015"><a xlink:title=" ">
<path fill="none" stroke="#63b8ff" d="M810.77,-163.79C785.1,-154.1 750.84,-141.16 727.85,-132.48"/>
<polygon fill="#63b8ff" stroke="#63b8ff" points="809.25,-167.34 819.84,-167.59 811.72,-160.79 809.25,-167.34"/>
</a>
</g>
</g>
<!-- Node16 -->
<g id="Node000016" class="node">
<title>Node16</title>
<g id="a_Node000016"><a xlink:href="server_8hpp.html" target="_top" xlink:title=" ">
<polygon fill="white" stroke="#666666" points="785.25,-76 670.25,-76 670.25,-56 785.25,-56 785.25,-76"/>
<text text-anchor="middle" x="727.75" y="-62.5" font-family="Helvetica,sans-Serif" font-size="10.00">include/roar/server.hpp</text>
</a>
</g>
</g>
<!-- Node2&#45;&gt;Node16 -->
<g id="edge27_Node000002_Node000016" class="edge">
<title>Node2&#45;&gt;Node16</title>
<g id="a_edge27_Node000002_Node000016"><a xlink:title=" ">
<path fill="none" stroke="#63b8ff" d="M844.32,-157.37C842.35,-143.28 837.7,-124.63 826.75,-112 811.41,-94.31 787.71,-83.2 767.34,-76.45"/>
<polygon fill="#63b8ff" stroke="#63b8ff" points="840.9,-157.32 845.42,-166.9 847.86,-156.59 840.9,-157.32"/>
</a>
</g>
</g>
<!-- Node18 -->
<g id="Node000018" class="node">
<title>Node18</title>
<g id="a_Node000018"><a xlink:href="src_2roar_2routing_2request__listener_8cpp.html" target="_top" xlink:title=" ">
<polygon fill="white" stroke="#666666" points="1474.75,-20 1302.75,-20 1302.75,0 1474.75,0 1474.75,-20"/>
<text text-anchor="middle" x="1388.75" y="-6.5" font-family="Helvetica,sans-Serif" font-size="10.00">src/roar/routing/request_listener.cpp</text>
</a>
</g>
</g>
<!-- Node2&#45;&gt;Node18 -->
<g id="edge28_Node000002_Node000018" class="edge">
<title>Node2&#45;&gt;Node18</title>
<g id="a_edge28_Node000002_Node000018"><a xlink:title=" ">
<path fill="none" stroke="#63b8ff" d="M951.5,-173.12C1098.83,-166.98 1352.02,-153.45 1388.75,-132 1421.36,-112.95 1439.72,-91.47 1426.75,-56 1421.48,-41.6 1409.34,-28.62 1400.19,-20.35"/>
<polygon fill="#63b8ff" stroke="#63b8ff" points="951.49,-169.66 941.64,-173.57 951.78,-176.65 951.49,-169.66"/>
</a>
</g>
</g>
<!-- Node4&#45;&gt;Node3 -->
<g id="edge4_Node000004_Node000003" class="edge">
<title>Node4&#45;&gt;Node3</title>
<g id="a_edge4_Node000004_Node000003"><a xlink:title=" ">
<path fill="none" stroke="#63b8ff" d="M152.83,-108.23C133.59,-101.5 113.73,-91.32 99.75,-76 85.33,-60.19 81.81,-34.01 80.98,-20.19"/>
<polygon fill="#63b8ff" stroke="#63b8ff" points="151.51,-111.81 162.11,-111.53 153.66,-105.14 151.51,-111.81"/>
</a>
</g>
</g>
<!-- Node5 -->
<g id="Node000005" class="node">
<title>Node5</title>
<g id="a_Node000005"><a xlink:href="examples_2100__continue_2request__listener_8cpp.html" target="_top" xlink:title=" ">
<polygon fill="white" stroke="#666666" points="318.5,-76 109,-76 109,-56 318.5,-56 318.5,-76"/>
<text text-anchor="middle" x="213.75" y="-62.5" font-family="Helvetica,sans-Serif" font-size="10.00">examples/100_continue/request_listener.cpp</text>
</a>
</g>
</g>
<!-- Node4&#45;&gt;Node5 -->
<g id="edge5_Node000004_Node000005" class="edge">
<title>Node4&#45;&gt;Node5</title>
<g id="a_edge5_Node000004_Node000005"><a xlink:title=" ">
<path fill="none" stroke="#63b8ff" d="M213.75,-100.71C213.75,-92.32 213.75,-83.01 213.75,-76.3"/>
<polygon fill="#63b8ff" stroke="#63b8ff" points="210.25,-100.59 213.75,-110.59 217.25,-100.59 210.25,-100.59"/>
</a>
</g>
</g>
<!-- Node7 -->
<g id="Node000007" class="node">
<title>Node7</title>
<g id="a_Node000007"><a xlink:href="file__server_8cpp.html" target="_top" xlink:title=" ">
<polygon fill="white" stroke="#666666" points="611,-76 416.5,-76 416.5,-56 611,-56 611,-76"/>
<text text-anchor="middle" x="513.75" y="-62.5" font-family="Helvetica,sans-Serif" font-size="10.00">examples/serve_directory/file_server.cpp</text>
</a>
</g>
</g>
<!-- Node6&#45;&gt;Node7 -->
<g id="edge7_Node000006_Node000007" class="edge">
<title>Node6&#45;&gt;Node7</title>
<g id="a_edge7_Node000006_Node000007"><a xlink:title=" ">
<path fill="none" stroke="#63b8ff" d="M485.75,-103C492.7,-94.06 500.82,-83.62 506.52,-76.3"/>
<polygon fill="#63b8ff" stroke="#63b8ff" points="482.44,-100.55 479.07,-110.59 487.97,-104.85 482.44,-100.55"/>
</a>
</g>
</g>
<!-- Node6&#45;&gt;Node8 -->
<g id="edge8_Node000006_Node000008" class="edge">
<title>Node6&#45;&gt;Node8</title>
<g id="a_edge8_Node000006_Node000008"><a xlink:title=" ">
<path fill="none" stroke="#63b8ff" d="M442.2,-106.06C429.97,-98.54 416.61,-88.38 407.75,-76 395.43,-58.79 391.04,-33.65 389.52,-20.23"/>
<polygon fill="#63b8ff" stroke="#63b8ff" points="440.25,-109.54 450.66,-111.51 443.74,-103.48 440.25,-109.54"/>
</a>
</g>
</g>
<!-- Node10&#45;&gt;Node9 -->
<g id="edge12_Node000010_Node000009" class="edge">
<title>Node10&#45;&gt;Node9</title>
<g id="a_edge12_Node000010_Node000009"><a xlink:title=" ">
<path fill="none" stroke="#63b8ff" d="M959.43,-108.33C939.4,-101.54 918.17,-91.3 902.75,-76 887.05,-60.42 880.53,-34.14 878.08,-20.25"/>
<polygon fill="#63b8ff" stroke="#63b8ff" points="958.16,-111.92 968.75,-111.57 960.26,-105.24 958.16,-111.92"/>
</a>
</g>
</g>
<!-- Node11 -->
<g id="Node000011" class="node">
<title>Node11</title>
<g id="a_Node000011"><a xlink:href="examples_2simple__server_2request__listener_8cpp.html" target="_top" xlink:title=" ">
<polygon fill="white" stroke="#666666" points="1124,-76 911.5,-76 911.5,-56 1124,-56 1124,-76"/>
<text text-anchor="middle" x="1017.75" y="-62.5" font-family="Helvetica,sans-Serif" font-size="10.00">examples/simple_server/request_listener.cpp</text>
</a>
</g>
</g>
<!-- Node10&#45;&gt;Node11 -->
<g id="edge13_Node000010_Node000011" class="edge">
<title>Node10&#45;&gt;Node11</title>
<g id="a_edge13_Node000010_Node000011"><a xlink:title=" ">
<path fill="none" stroke="#63b8ff" d="M1017.75,-100.71C1017.75,-92.32 1017.75,-83.01 1017.75,-76.3"/>
<polygon fill="#63b8ff" stroke="#63b8ff" points="1014.25,-100.59 1017.75,-110.59 1021.25,-100.59 1014.25,-100.59"/>
</a>
</g>
</g>
<!-- Node13&#45;&gt;Node12 -->
<g id="edge16_Node000013_Node000012" class="edge">
<title>Node13&#45;&gt;Node12</title>
<g id="a_edge16_Node000013_Node000012"><a xlink:title=" ">
<path fill="none" stroke="#63b8ff" d="M1253.14,-106.23C1239.55,-98.12 1223.1,-87.4 1209.75,-76 1189.05,-58.32 1168.78,-33.37 1158.58,-20.11"/>
<polygon fill="#63b8ff" stroke="#63b8ff" points="1251.05,-109.64 1261.45,-111.65 1254.57,-103.59 1251.05,-109.64"/>
</a>
</g>
</g>
<!-- Node14 -->
<g id="Node000014" class="node">
<title>Node14</title>
<g id="a_Node000014"><a xlink:href="examples_2websocket_2request__listener_8cpp.html" target="_top" xlink:title=" ">
<polygon fill="white" stroke="#666666" points="1417.25,-76 1218.25,-76 1218.25,-56 1417.25,-56 1417.25,-76"/>
<text text-anchor="middle" x="1317.75" y="-62.5" font-family="Helvetica,sans-Serif" font-size="10.00">examples/websocket/request_listener.cpp</text>
</a>
</g>
</g>
<!-- Node13&#45;&gt;Node14 -->
<g id="edge17_Node000013_Node000014" class="edge">
<title>Node13&#45;&gt;Node14</title>
<g id="a_edge17_Node000013_Node000014"><a xlink:title=" ">
<path fill="none" stroke="#63b8ff" d="M1292.61,-102.72C1298.86,-93.84 1306.11,-83.55 1311.21,-76.3"/>
<polygon fill="#63b8ff" stroke="#63b8ff" points="1289.26,-100.4 1286.37,-110.59 1294.99,-104.43 1289.26,-100.4"/>
</a>
</g>
</g>
<!-- Node15&#45;&gt;Node16 -->
<g id="edge19_Node000015_Node000016" class="edge">
<title>Node15&#45;&gt;Node16</title>
<g id="a_edge19_Node000015_Node000016"><a xlink:title=" ">
<path fill="none" stroke="#63b8ff" d="M711.61,-101.87C715.63,-93.19 720.2,-83.32 723.45,-76.3"/>
<polygon fill="#63b8ff" stroke="#63b8ff" points="708.13,-100.05 707.1,-110.59 714.48,-102.99 708.13,-100.05"/>
</a>
</g>
</g>
<!-- Node16&#45;&gt;Node3 -->
<g id="edge20_Node000016_Node000003" class="edge">
<title>Node16&#45;&gt;Node3</title>
<g id="a_edge20_Node000016_Node000003"><a xlink:title=" ">
<path fill="none" stroke="#63b8ff" d="M658.87,-59.25C538.46,-49.2 290.32,-28.49 161.83,-17.77"/>
<polygon fill="#63b8ff" stroke="#63b8ff" points="658.51,-62.82 668.76,-60.16 659.09,-55.84 658.51,-62.82"/>
</a>
</g>
</g>
<!-- Node16&#45;&gt;Node8 -->
<g id="edge22_Node000016_Node000008" class="edge">
<title>Node16&#45;&gt;Node8</title>
<g id="a_edge22_Node000016_Node000008"><a xlink:title=" ">
<path fill="none" stroke="#63b8ff" d="M659.02,-54.05C597.09,-44.19 506.97,-29.83 448.11,-20.46"/>
<polygon fill="#63b8ff" stroke="#63b8ff" points="658.43,-57.66 668.86,-55.78 659.53,-50.75 658.43,-57.66"/>
</a>
</g>
</g>
<!-- Node16&#45;&gt;Node9 -->
<g id="edge23_Node000016_Node000009" class="edge">
<title>Node16&#45;&gt;Node9</title>
<g id="a_edge23_Node000016_Node000009"><a xlink:title=" ">
<path fill="none" stroke="#63b8ff" d="M763.84,-51.92C790.63,-42.21 826.53,-29.2 850.59,-20.48"/>
<polygon fill="#63b8ff" stroke="#63b8ff" points="762.91,-48.9 754.7,-55.59 765.3,-55.48 762.91,-48.9"/>
</a>
</g>
</g>
<!-- Node16&#45;&gt;Node12 -->
<g id="edge24_Node000016_Node000012" class="edge">
<title>Node16&#45;&gt;Node12</title>
<g id="a_edge24_Node000016_Node000012"><a xlink:title=" ">
<path fill="none" stroke="#63b8ff" d="M795.92,-56.32C872.98,-46.5 998.01,-30.58 1077.49,-20.46"/>
<polygon fill="#63b8ff" stroke="#63b8ff" points="795.85,-52.93 786.37,-57.66 796.74,-59.87 795.85,-52.93"/>
</a>
</g>
</g>
<!-- Node17 -->
<g id="Node000017" class="node">
<title>Node17</title>
<g id="a_Node000017"><a xlink:href="most__minimal_2main_8cpp.html" target="_top" xlink:title=" ">
<polygon fill="white" stroke="#666666" points="661,-20 496.5,-20 496.5,0 661,0 661,-20"/>
<text text-anchor="middle" x="578.75" y="-6.5" font-family="Helvetica,sans-Serif" font-size="10.00">examples/most_minimal/main.cpp</text>
</a>
</g>
</g>
<!-- Node16&#45;&gt;Node17 -->
<g id="edge21_Node000016_Node000017" class="edge">
<title>Node16&#45;&gt;Node17</title>
<g id="a_edge21_Node000016_Node000017"><a xlink:title=" ">
<path fill="none" stroke="#63b8ff" d="M691.66,-51.92C664.87,-42.21 628.97,-29.2 604.91,-20.48"/>
<polygon fill="#63b8ff" stroke="#63b8ff" points="690.2,-55.48 700.8,-55.59 692.59,-48.9 690.2,-55.48"/>
</a>
</g>
</g>
<!-- Node16&#45;&gt;Node18 -->
<g id="edge25_Node000016_Node000018" class="edge">
<title>Node16&#45;&gt;Node18</title>
<g id="a_edge25_Node000016_Node000018"><a xlink:title=" ">
<path fill="none" stroke="#63b8ff" d="M796.15,-59.41C917.34,-49.51 1169.48,-28.91 1302.43,-18.05"/>
<polygon fill="#63b8ff" stroke="#63b8ff" points="796.22,-55.98 786.54,-60.28 796.79,-62.95 796.22,-55.98"/>
</a>
</g>
</g>
<!-- Node19 -->
<g id="Node000019" class="node">
<title>Node19</title>
<g id="a_Node000019"><a xlink:href="server_8cpp.html" target="_top" xlink:title=" ">
<polygon fill="white" stroke="#666666" points="776.62,-20 678.88,-20 678.88,0 776.62,0 776.62,-20"/>
<text text-anchor="middle" x="727.75" y="-6.5" font-family="Helvetica,sans-Serif" font-size="10.00">src/roar/server.cpp</text>
</a>
</g>
</g>
<!-- Node16&#45;&gt;Node19 -->
<g id="edge26_Node000016_Node000019" class="edge">
<title>Node16&#45;&gt;Node19</title>
<g id="a_edge26_Node000016_Node000019"><a xlink:title=" ">
<path fill="none" stroke="#63b8ff" d="M727.75,-44.71C727.75,-36.32 727.75,-27.01 727.75,-20.3"/>
<polygon fill="#63b8ff" stroke="#63b8ff" points="724.25,-44.59 727.75,-54.59 731.25,-44.59 724.25,-44.59"/>
</a>
</g>
</g>
</g>
</svg>
