<?xml version="1.0" encoding="UTF-8" standalone="no"?>
<!DOCTYPE svg PUBLIC "-//W3C//DTD SVG 1.1//EN"
 "http://www.w3.org/Graphics/SVG/1.1/DTD/svg11.dtd">
<!-- Generated by graphviz version 2.44.1 (20211215.1903)
 -->
<!-- Title: include/roar/beast/forward.hpp Pages: 1 -->
<svg width="1820pt" height="420pt"
 viewBox="0.00 0.00 1820.00 420.00" xmlns="http://www.w3.org/2000/svg" xmlns:xlink="http://www.w3.org/1999/xlink">
<g id="graph0" class="graph" transform="scale(1 1) rotate(0) translate(4 416)">
<title>include/roar/beast/forward.hpp</title>
<!-- Node1 -->
<g id="node1" class="node">
<title>Node1</title>
<g id="a_node1"><a xlink:title=" ">
<polygon fill="#bfbfbf" stroke="black" points="659.5,-392.5 659.5,-411.5 807.5,-411.5 807.5,-392.5 659.5,-392.5"/>
<text text-anchor="middle" x="733.5" y="-399.5" font-family="Helvetica,sans-Serif" font-size="10.00">include/roar/beast/forward.hpp</text>
</a>
</g>
</g>
<!-- Node2 -->
<g id="node2" class="node">
<title>Node2</title>
<g id="a_node2"><a xlink:href="error_8hpp.html" target="_top" xlink:title=" ">
<polygon fill="none" stroke="black" points="790.5,-336.5 790.5,-355.5 898.5,-355.5 898.5,-336.5 790.5,-336.5"/>
<text text-anchor="middle" x="844.5" y="-343.5" font-family="Helvetica,sans-Serif" font-size="10.00">include/roar/error.hpp</text>
</a>
</g>
</g>
<!-- Node1&#45;&gt;Node2 -->
<g id="edge1" class="edge">
<title>Node1&#45;&gt;Node2</title>
<path fill="none" stroke="midnightblue" d="M760.51,-387.86C781.09,-377.85 808.84,-364.35 826.71,-355.65"/>
<polygon fill="midnightblue" stroke="midnightblue" points="758.8,-384.8 751.33,-392.32 761.86,-391.1 758.8,-384.8"/>
</g>
<!-- Node7 -->
<g id="node7" class="node">
<title>Node7</title>
<g id="a_node7"><a xlink:href="session_8hpp.html" target="_top" xlink:title=" ">
<polygon fill="none" stroke="black" points="778,-168.5 778,-187.5 937,-187.5 937,-168.5 778,-168.5"/>
<text text-anchor="middle" x="857.5" y="-175.5" font-family="Helvetica,sans-Serif" font-size="10.00">include/roar/session/session.hpp</text>
</a>
</g>
</g>
<!-- Node1&#45;&gt;Node7 -->
<g id="edge51" class="edge">
<title>Node1&#45;&gt;Node7</title>
<path fill="none" stroke="midnightblue" d="M712.97,-386.12C684.02,-363.26 637.2,-318.13 660.5,-280 693.67,-225.72 766.29,-199.41 813.48,-187.59"/>
<polygon fill="midnightblue" stroke="midnightblue" points="711.21,-389.18 721.28,-392.47 715.45,-383.62 711.21,-389.18"/>
</g>
<!-- Node16 -->
<g id="node16" class="node">
<title>Node16</title>
<g id="a_node16"><a xlink:href="server_8hpp.html" target="_top" xlink:title=" ">
<polygon fill="none" stroke="black" points="922.5,-56.5 922.5,-75.5 1038.5,-75.5 1038.5,-56.5 922.5,-56.5"/>
<text text-anchor="middle" x="980.5" y="-63.5" font-family="Helvetica,sans-Serif" font-size="10.00">include/roar/server.hpp</text>
</a>
</g>
</g>
<!-- Node1&#45;&gt;Node16 -->
<g id="edge49" class="edge">
<title>Node1&#45;&gt;Node16</title>
<path fill="none" stroke="midnightblue" d="M701.44,-388C687.15,-380.64 671.36,-370.06 661.5,-356 598.56,-266.25 553.03,-194.24 625.5,-112 635.2,-100.99 824.08,-81.71 922.27,-72.37"/>
<polygon fill="midnightblue" stroke="midnightblue" points="700,-391.19 710.53,-392.37 703.04,-384.88 700,-391.19"/>
</g>
<!-- Node24 -->
<g id="node24" class="node">
<title>Node24</title>
<g id="a_node24"><a xlink:href="factory_8hpp.html" target="_top" xlink:title=" ">
<polygon fill="none" stroke="black" points="1657,-280.5 1657,-299.5 1812,-299.5 1812,-280.5 1657,-280.5"/>
<text text-anchor="middle" x="1734.5" y="-287.5" font-family="Helvetica,sans-Serif" font-size="10.00">include/roar/session/factory.hpp</text>
</a>
</g>
</g>
<!-- Node1&#45;&gt;Node24 -->
<g id="edge50" class="edge">
<title>Node1&#45;&gt;Node24</title>
<path fill="none" stroke="midnightblue" d="M817.49,-391.77C1008.41,-370.79 1472.67,-319.77 1657.1,-299.51"/>
<polygon fill="midnightblue" stroke="midnightblue" points="817.07,-388.3 807.51,-392.87 817.83,-395.25 817.07,-388.3"/>
</g>
<!-- Node3 -->
<g id="node3" class="node">
<title>Node3</title>
<g id="a_node3"><a xlink:href="100__continue_2main_8cpp.html" target="_top" xlink:title=" ">
<polygon fill="none" stroke="black" points="642.5,-0.5 642.5,-19.5 804.5,-19.5 804.5,-0.5 642.5,-0.5"/>
<text text-anchor="middle" x="723.5" y="-7.5" font-family="Helvetica,sans-Serif" font-size="10.00">examples/100_continue/main.cpp</text>
</a>
</g>
</g>
<!-- Node2&#45;&gt;Node3 -->
<g id="edge2" class="edge">
<title>Node2&#45;&gt;Node3</title>
<path fill="none" stroke="midnightblue" d="M780.04,-343.72C648.29,-339.34 360.5,-320.05 360.5,-235 360.5,-235 360.5,-235 360.5,-121 360.5,-90.9 356.64,-75.58 379.5,-56 389.42,-47.5 543.9,-29.85 642.44,-19.36"/>
<polygon fill="midnightblue" stroke="midnightblue" points="780.28,-347.23 790.39,-344.04 780.5,-340.23 780.28,-347.23"/>
</g>
<!-- Node4 -->
<g id="node4" class="node">
<title>Node4</title>
<g id="a_node4"><a xlink:href="simple__server_2main_8cpp.html" target="_top" xlink:title=" ">
<polygon fill="none" stroke="black" points="231,-0.5 231,-19.5 396,-19.5 396,-0.5 231,-0.5"/>
<text text-anchor="middle" x="313.5" y="-7.5" font-family="Helvetica,sans-Serif" font-size="10.00">examples/simple_server/main.cpp</text>
</a>
</g>
</g>
<!-- Node2&#45;&gt;Node4 -->
<g id="edge3" class="edge">
<title>Node2&#45;&gt;Node4</title>
<path fill="none" stroke="midnightblue" d="M779.97,-344.8C640.31,-342.62 322.5,-327.5 322.5,-235 322.5,-235 322.5,-235 322.5,-121 322.5,-83.06 317.12,-38.01 314.68,-19.54"/>
<polygon fill="midnightblue" stroke="midnightblue" points="780.07,-348.3 790.11,-344.94 780.16,-341.3 780.07,-348.3"/>
</g>
<!-- Node5 -->
<g id="node5" class="node">
<title>Node5</title>
<g id="a_node5"><a xlink:href="websocket_2main_8cpp.html" target="_top" xlink:title=" ">
<polygon fill="none" stroke="black" points="1197.5,-0.5 1197.5,-19.5 1349.5,-19.5 1349.5,-0.5 1197.5,-0.5"/>
<text text-anchor="middle" x="1273.5" y="-7.5" font-family="Helvetica,sans-Serif" font-size="10.00">examples/websocket/main.cpp</text>
</a>
</g>
</g>
<!-- Node2&#45;&gt;Node5 -->
<g id="edge4" class="edge">
<title>Node2&#45;&gt;Node5</title>
<path fill="none" stroke="midnightblue" d="M908.96,-342.71C1096.47,-335.19 1628.5,-307.46 1628.5,-235 1628.5,-235 1628.5,-235 1628.5,-121 1628.5,-63.09 1453.97,-32.31 1349.66,-19.08"/>
<polygon fill="midnightblue" stroke="midnightblue" points="908.55,-339.22 898.7,-343.11 908.83,-346.21 908.55,-339.22"/>
</g>
<!-- Node6 -->
<g id="node6" class="node">
<title>Node6</title>
<g id="a_node6"><a xlink:href="response_8hpp.html" target="_top" xlink:title=" ">
<polygon fill="none" stroke="black" points="669.5,-280.5 669.5,-299.5 797.5,-299.5 797.5,-280.5 669.5,-280.5"/>
<text text-anchor="middle" x="733.5" y="-287.5" font-family="Helvetica,sans-Serif" font-size="10.00">include/roar/response.hpp</text>
</a>
</g>
</g>
<!-- Node2&#45;&gt;Node6 -->
<g id="edge5" class="edge">
<title>Node2&#45;&gt;Node6</title>
<path fill="none" stroke="midnightblue" d="M817.49,-331.86C796.91,-321.85 769.16,-308.35 751.29,-299.65"/>
<polygon fill="midnightblue" stroke="midnightblue" points="816.14,-335.1 826.67,-336.32 819.2,-328.8 816.14,-335.1"/>
</g>
<!-- Node2&#45;&gt;Node7 -->
<g id="edge39" class="edge">
<title>Node2&#45;&gt;Node7</title>
<path fill="none" stroke="midnightblue" d="M844.49,-326.38C844.66,-302.57 845.56,-260.1 849.5,-224 850.89,-211.22 853.73,-196.6 855.62,-187.58"/>
<polygon fill="midnightblue" stroke="midnightblue" points="840.99,-326.45 844.46,-336.46 847.99,-326.47 840.99,-326.45"/>
</g>
<!-- Node2&#45;&gt;Node16 -->
<g id="edge35" class="edge">
<title>Node2&#45;&gt;Node16</title>
<path fill="none" stroke="midnightblue" d="M848.38,-326.33C854.94,-296.35 868.83,-239.27 882.5,-224 916.35,-186.19 1063.77,-174.5 1091.5,-132 1110.6,-102.73 1064.86,-84.95 1026.42,-75.56"/>
<polygon fill="midnightblue" stroke="midnightblue" points="844.91,-325.84 846.25,-336.35 851.76,-327.3 844.91,-325.84"/>
</g>
<!-- Node2&#45;&gt;Node24 -->
<g id="edge36" class="edge">
<title>Node2&#45;&gt;Node24</title>
<path fill="none" stroke="midnightblue" d="M908.96,-342.27C1044.74,-336.31 1370.13,-320.99 1642.5,-300 1647.14,-299.64 1651.91,-299.25 1656.72,-298.84"/>
<polygon fill="midnightblue" stroke="midnightblue" points="908.57,-338.78 898.74,-342.71 908.88,-345.77 908.57,-338.78"/>
</g>
<!-- Node25 -->
<g id="node25" class="node">
<title>Node25</title>
<g id="a_node25"><a xlink:href="websocket__base_8hpp.html" target="_top" xlink:title=" ">
<polygon fill="none" stroke="black" points="998.5,-280.5 998.5,-299.5 1210.5,-299.5 1210.5,-280.5 998.5,-280.5"/>
<text text-anchor="middle" x="1104.5" y="-287.5" font-family="Helvetica,sans-Serif" font-size="10.00">include/roar/websocket/websocket_base.hpp</text>
</a>
</g>
</g>
<!-- Node2&#45;&gt;Node25 -->
<g id="edge40" class="edge">
<title>Node2&#45;&gt;Node25</title>
<path fill="none" stroke="midnightblue" d="M895.49,-334.41C944.63,-324.2 1018.03,-308.96 1063.49,-299.52"/>
<polygon fill="midnightblue" stroke="midnightblue" points="894.78,-330.98 885.7,-336.44 896.2,-337.84 894.78,-330.98"/>
</g>
<!-- Node29 -->
<g id="node29" class="node">
<title>Node29</title>
<g id="a_node29"><a xlink:href="websocket__session_8cpp.html" target="_top" xlink:title=" ">
<polygon fill="none" stroke="black" points="1392.5,-168.5 1392.5,-187.5 1600.5,-187.5 1600.5,-168.5 1392.5,-168.5"/>
<text text-anchor="middle" x="1496.5" y="-175.5" font-family="Helvetica,sans-Serif" font-size="10.00">src/roar/websocket/websocket_session.cpp</text>
</a>
</g>
</g>
<!-- Node2&#45;&gt;Node29 -->
<g id="edge48" class="edge">
<title>Node2&#45;&gt;Node29</title>
<path fill="none" stroke="midnightblue" d="M908.55,-340.89C1078.1,-329.37 1528.61,-294.25 1571.5,-244 1591.08,-221.06 1548.84,-199.11 1520.15,-187.52"/>
<polygon fill="midnightblue" stroke="midnightblue" points="908.26,-337.41 898.51,-341.57 908.73,-344.39 908.26,-337.41"/>
</g>
<!-- Node6&#45;&gt;Node7 -->
<g id="edge6" class="edge">
<title>Node6&#45;&gt;Node7</title>
<path fill="none" stroke="midnightblue" d="M750.96,-273.51C777.46,-250.01 826.94,-206.11 847.82,-187.59"/>
<polygon fill="midnightblue" stroke="midnightblue" points="748.39,-271.11 743.23,-280.37 753.03,-276.35 748.39,-271.11"/>
</g>
<!-- Node8 -->
<g id="node8" class="node">
<title>Node8</title>
<g id="a_node8"><a xlink:href="include_2roar_2routing_2request__listener_8hpp.html" target="_top" xlink:title=" ">
<polygon fill="none" stroke="black" points="388.5,-112.5 388.5,-131.5 578.5,-131.5 578.5,-112.5 388.5,-112.5"/>
<text text-anchor="middle" x="483.5" y="-119.5" font-family="Helvetica,sans-Serif" font-size="10.00">include/roar/routing/request_listener.hpp</text>
</a>
</g>
</g>
<!-- Node7&#45;&gt;Node8 -->
<g id="edge7" class="edge">
<title>Node7&#45;&gt;Node8</title>
<path fill="none" stroke="midnightblue" d="M788.1,-166.98C717.45,-156.78 609.12,-141.14 542.48,-131.52"/>
<polygon fill="midnightblue" stroke="midnightblue" points="787.84,-170.48 798.24,-168.44 788.84,-163.55 787.84,-170.48"/>
</g>
<!-- Node7&#45;&gt;Node16 -->
<g id="edge29" class="edge">
<title>Node7&#45;&gt;Node16</title>
<path fill="none" stroke="midnightblue" d="M947.3,-169.81C999.88,-163.52 1059.1,-152.13 1075.5,-132 1096.7,-105.97 1049.17,-86.11 1013.98,-75.53"/>
<polygon fill="midnightblue" stroke="midnightblue" points="946.76,-166.34 937.23,-170.96 947.56,-173.3 946.76,-166.34"/>
</g>
<!-- Node19 -->
<g id="node19" class="node">
<title>Node19</title>
<g id="a_node19"><a xlink:href="server_8cpp.html" target="_top" xlink:title=" ">
<polygon fill="none" stroke="black" points="1585.5,-0.5 1585.5,-19.5 1683.5,-19.5 1683.5,-0.5 1585.5,-0.5"/>
<text text-anchor="middle" x="1634.5" y="-7.5" font-family="Helvetica,sans-Serif" font-size="10.00">src/roar/server.cpp</text>
</a>
</g>
</g>
<!-- Node7&#45;&gt;Node19 -->
<g id="edge32" class="edge">
<title>Node7&#45;&gt;Node19</title>
<path fill="none" stroke="midnightblue" d="M914.27,-166.56C961.72,-157.73 1031.12,-144.53 1091.5,-132 1282.76,-92.31 1510.74,-39.81 1598.03,-19.51"/>
<polygon fill="midnightblue" stroke="midnightblue" points="913.39,-163.17 904.2,-168.44 914.67,-170.05 913.39,-163.17"/>
</g>
<!-- Node20 -->
<g id="node20" class="node">
<title>Node20</title>
<g id="a_node20"><a xlink:href="route_8cpp.html" target="_top" xlink:title=" ">
<polygon fill="none" stroke="black" points="795,-112.5 795,-131.5 920,-131.5 920,-112.5 795,-112.5"/>
<text text-anchor="middle" x="857.5" y="-119.5" font-family="Helvetica,sans-Serif" font-size="10.00">src/roar/routing/route.cpp</text>
</a>
</g>
</g>
<!-- Node7&#45;&gt;Node20 -->
<g id="edge30" class="edge">
<title>Node7&#45;&gt;Node20</title>
<path fill="none" stroke="midnightblue" d="M857.5,-157.8C857.5,-148.91 857.5,-138.78 857.5,-131.75"/>
<polygon fill="midnightblue" stroke="midnightblue" points="854,-158.08 857.5,-168.08 861,-158.08 854,-158.08"/>
</g>
<!-- Node21 -->
<g id="node21" class="node">
<title>Node21</title>
<g id="a_node21"><a xlink:href="router_8cpp.html" target="_top" xlink:title=" ">
<polygon fill="none" stroke="black" points="938.5,-112.5 938.5,-131.5 1066.5,-131.5 1066.5,-112.5 938.5,-112.5"/>
<text text-anchor="middle" x="1002.5" y="-119.5" font-family="Helvetica,sans-Serif" font-size="10.00">src/roar/routing/router.cpp</text>
</a>
</g>
</g>
<!-- Node7&#45;&gt;Node21 -->
<g id="edge31" class="edge">
<title>Node7&#45;&gt;Node21</title>
<path fill="none" stroke="midnightblue" d="M889.98,-164.91C917.24,-154.75 955.49,-140.51 979.63,-131.52"/>
<polygon fill="midnightblue" stroke="midnightblue" points="888.63,-161.67 880.48,-168.44 891.07,-168.23 888.63,-161.67"/>
</g>
<!-- Node22 -->
<g id="node22" class="node">
<title>Node22</title>
<g id="a_node22"><a xlink:href="factory_8cpp.html" target="_top" xlink:title=" ">
<polygon fill="none" stroke="black" points="1199,-112.5 1199,-131.5 1336,-131.5 1336,-112.5 1199,-112.5"/>
<text text-anchor="middle" x="1267.5" y="-119.5" font-family="Helvetica,sans-Serif" font-size="10.00">src/roar/session/factory.cpp</text>
</a>
</g>
</g>
<!-- Node7&#45;&gt;Node22 -->
<g id="edge33" class="edge">
<title>Node7&#45;&gt;Node22</title>
<path fill="none" stroke="midnightblue" d="M932.63,-167.1C1010.06,-156.91 1129.49,-141.18 1202.84,-131.52"/>
<polygon fill="midnightblue" stroke="midnightblue" points="931.92,-163.67 922.47,-168.44 932.84,-170.61 931.92,-163.67"/>
</g>
<!-- Node23 -->
<g id="node23" class="node">
<title>Node23</title>
<g id="a_node23"><a xlink:href="session_8cpp.html" target="_top" xlink:title=" ">
<polygon fill="none" stroke="black" points="634.5,-112.5 634.5,-131.5 776.5,-131.5 776.5,-112.5 634.5,-112.5"/>
<text text-anchor="middle" x="705.5" y="-119.5" font-family="Helvetica,sans-Serif" font-size="10.00">src/roar/session/session.cpp</text>
</a>
</g>
</g>
<!-- Node7&#45;&gt;Node23 -->
<g id="edge34" class="edge">
<title>Node7&#45;&gt;Node23</title>
<path fill="none" stroke="midnightblue" d="M823.83,-165.04C795.23,-154.88 754.89,-140.55 729.47,-131.52"/>
<polygon fill="midnightblue" stroke="midnightblue" points="822.82,-168.39 833.42,-168.44 825.16,-161.8 822.82,-168.39"/>
</g>
<!-- Node8&#45;&gt;Node3 -->
<g id="edge8" class="edge">
<title>Node8&#45;&gt;Node3</title>
<path fill="none" stroke="midnightblue" d="M584.02,-111.49C685.7,-101.37 829.09,-85.55 837.5,-76 861.97,-48.22 809.44,-29.52 767.81,-19.56"/>
<polygon fill="midnightblue" stroke="midnightblue" points="583.62,-108.01 574.01,-112.48 584.31,-114.97 583.62,-108.01"/>
</g>
<!-- Node8&#45;&gt;Node4 -->
<g id="edge13" class="edge">
<title>Node8&#45;&gt;Node4</title>
<path fill="none" stroke="midnightblue" d="M522.24,-109.07C553.45,-97.48 589.29,-78.37 570.5,-56 558.9,-42.19 462.28,-28.15 390.91,-19.51"/>
<polygon fill="midnightblue" stroke="midnightblue" points="521.02,-105.79 512.76,-112.43 523.36,-112.39 521.02,-105.79"/>
</g>
<!-- Node8&#45;&gt;Node5 -->
<g id="edge17" class="edge">
<title>Node8&#45;&gt;Node5</title>
<path fill="none" stroke="midnightblue" d="M588.76,-113.7C745.92,-102.64 1025.88,-82.27 1047.5,-76 1065.83,-70.69 1067.64,-62.72 1085.5,-56 1130.73,-38.99 1184.56,-26.88 1223.01,-19.53"/>
<polygon fill="midnightblue" stroke="midnightblue" points="588.32,-110.22 578.59,-114.41 588.81,-117.2 588.32,-110.22"/>
</g>
<!-- Node9 -->
<g id="node9" class="node">
<title>Node9</title>
<g id="a_node9"><a xlink:href="examples_2100__continue_2request__listener_8hpp.html" target="_top" xlink:title=" ">
<polygon fill="none" stroke="black" points="618.5,-56.5 618.5,-75.5 828.5,-75.5 828.5,-56.5 618.5,-56.5"/>
<text text-anchor="middle" x="723.5" y="-63.5" font-family="Helvetica,sans-Serif" font-size="10.00">examples/100_continue/request_listener.hpp</text>
</a>
</g>
</g>
<!-- Node8&#45;&gt;Node9 -->
<g id="edge9" class="edge">
<title>Node8&#45;&gt;Node9</title>
<path fill="none" stroke="midnightblue" d="M531.42,-110.22C576.77,-100.01 643.94,-84.9 685.65,-75.52"/>
<polygon fill="midnightblue" stroke="midnightblue" points="530.52,-106.83 521.53,-112.44 532.05,-113.66 530.52,-106.83"/>
</g>
<!-- Node11 -->
<g id="node11" class="node">
<title>Node11</title>
<g id="a_node11"><a xlink:href="request__listener_2main_8cpp.html" target="_top" xlink:title=" ">
<polygon fill="none" stroke="black" points="389,-56.5 389,-75.5 562,-75.5 562,-56.5 389,-56.5"/>
<text text-anchor="middle" x="475.5" y="-63.5" font-family="Helvetica,sans-Serif" font-size="10.00">examples/request_listener/main.cpp</text>
</a>
</g>
</g>
<!-- Node8&#45;&gt;Node11 -->
<g id="edge12" class="edge">
<title>Node8&#45;&gt;Node11</title>
<path fill="none" stroke="midnightblue" d="M480.7,-102.1C479.37,-93.14 477.85,-82.86 476.8,-75.75"/>
<polygon fill="midnightblue" stroke="midnightblue" points="477.25,-102.7 482.18,-112.08 484.18,-101.68 477.25,-102.7"/>
</g>
<!-- Node12 -->
<g id="node12" class="node">
<title>Node12</title>
<g id="a_node12"><a xlink:href="examples_2simple__server_2request__listener_8hpp.html" target="_top" xlink:title=" ">
<polygon fill="none" stroke="black" points="81,-56.5 81,-75.5 294,-75.5 294,-56.5 81,-56.5"/>
<text text-anchor="middle" x="187.5" y="-63.5" font-family="Helvetica,sans-Serif" font-size="10.00">examples/simple_server/request_listener.hpp</text>
</a>
</g>
</g>
<!-- Node8&#45;&gt;Node12 -->
<g id="edge14" class="edge">
<title>Node8&#45;&gt;Node12</title>
<path fill="none" stroke="midnightblue" d="M426.5,-110.6C370.56,-100.4 286.27,-85.02 234.18,-75.52"/>
<polygon fill="midnightblue" stroke="midnightblue" points="426.13,-114.09 436.6,-112.44 427.39,-107.21 426.13,-114.09"/>
</g>
<!-- Node14 -->
<g id="node14" class="node">
<title>Node14</title>
<g id="a_node14"><a xlink:href="examples_2websocket_2request__listener_8hpp.html" target="_top" xlink:title=" ">
<polygon fill="none" stroke="black" points="1094.5,-56.5 1094.5,-75.5 1294.5,-75.5 1294.5,-56.5 1094.5,-56.5"/>
<text text-anchor="middle" x="1194.5" y="-63.5" font-family="Helvetica,sans-Serif" font-size="10.00">examples/websocket/request_listener.hpp</text>
</a>
</g>
</g>
<!-- Node8&#45;&gt;Node14 -->
<g id="edge18" class="edge">
<title>Node8&#45;&gt;Node14</title>
<path fill="none" stroke="midnightblue" d="M588.85,-113.17C708.14,-104.28 908.31,-89.29 1080.5,-76 1085.05,-75.65 1089.71,-75.29 1094.41,-74.92"/>
<polygon fill="midnightblue" stroke="midnightblue" points="588.35,-109.7 578.63,-113.93 588.87,-116.68 588.35,-109.7"/>
</g>
<!-- Node8&#45;&gt;Node16 -->
<g id="edge21" class="edge">
<title>Node8&#45;&gt;Node16</title>
<path fill="none" stroke="midnightblue" d="M578.65,-111.44C664.82,-102.67 795.24,-89.07 908.5,-76 913.01,-75.48 917.67,-74.93 922.35,-74.36"/>
<polygon fill="midnightblue" stroke="midnightblue" points="578.22,-107.97 568.62,-112.46 578.93,-114.93 578.22,-107.97"/>
</g>
<!-- Node18 -->
<g id="node18" class="node">
<title>Node18</title>
<g id="a_node18"><a xlink:href="src_2roar_2routing_2request__listener_8cpp.html" target="_top" xlink:title=" ">
<polygon fill="none" stroke="black" points="823,-0.5 823,-19.5 996,-19.5 996,-0.5 823,-0.5"/>
<text text-anchor="middle" x="909.5" y="-7.5" font-family="Helvetica,sans-Serif" font-size="10.00">src/roar/routing/request_listener.cpp</text>
</a>
</g>
</g>
<!-- Node8&#45;&gt;Node18 -->
<g id="edge28" class="edge">
<title>Node8&#45;&gt;Node18</title>
<path fill="none" stroke="midnightblue" d="M588.65,-112.19C690.04,-103.07 831.46,-88.43 854.5,-76 878.96,-62.81 897.16,-33.94 905.1,-19.53"/>
<polygon fill="midnightblue" stroke="midnightblue" points="588.31,-108.71 578.66,-113.09 588.93,-115.68 588.31,-108.71"/>
</g>
<!-- Node9&#45;&gt;Node3 -->
<g id="edge10" class="edge">
<title>Node9&#45;&gt;Node3</title>
<path fill="none" stroke="midnightblue" d="M723.5,-45.8C723.5,-36.91 723.5,-26.78 723.5,-19.75"/>
<polygon fill="midnightblue" stroke="midnightblue" points="720,-46.08 723.5,-56.08 727,-46.08 720,-46.08"/>
</g>
<!-- Node10 -->
<g id="node10" class="node">
<title>Node10</title>
<g id="a_node10"><a xlink:href="examples_2100__continue_2request__listener_8cpp.html" target="_top" xlink:title=" ">
<polygon fill="none" stroke="black" points="414.5,-0.5 414.5,-19.5 624.5,-19.5 624.5,-0.5 414.5,-0.5"/>
<text text-anchor="middle" x="519.5" y="-7.5" font-family="Helvetica,sans-Serif" font-size="10.00">examples/100_continue/request_listener.cpp</text>
</a>
</g>
</g>
<!-- Node9&#45;&gt;Node10 -->
<g id="edge11" class="edge">
<title>Node9&#45;&gt;Node10</title>
<path fill="none" stroke="midnightblue" d="M681.3,-53.83C642.78,-43.63 586.68,-28.78 551.67,-19.52"/>
<polygon fill="midnightblue" stroke="midnightblue" points="680.61,-57.27 691.18,-56.44 682.4,-50.5 680.61,-57.27"/>
</g>
<!-- Node12&#45;&gt;Node4 -->
<g id="edge15" class="edge">
<title>Node12&#45;&gt;Node4</title>
<path fill="none" stroke="midnightblue" d="M216.66,-52.5C240.28,-42.38 272.93,-28.39 293.63,-19.52"/>
<polygon fill="midnightblue" stroke="midnightblue" points="215.28,-49.29 207.47,-56.44 218.04,-55.72 215.28,-49.29"/>
</g>
<!-- Node13 -->
<g id="node13" class="node">
<title>Node13</title>
<g id="a_node13"><a xlink:href="examples_2simple__server_2request__listener_8cpp.html" target="_top" xlink:title=" ">
<polygon fill="none" stroke="black" points="0,-0.5 0,-19.5 213,-19.5 213,-0.5 0,-0.5"/>
<text text-anchor="middle" x="106.5" y="-7.5" font-family="Helvetica,sans-Serif" font-size="10.00">examples/simple_server/request_listener.cpp</text>
</a>
</g>
</g>
<!-- Node12&#45;&gt;Node13 -->
<g id="edge16" class="edge">
<title>Node12&#45;&gt;Node13</title>
<path fill="none" stroke="midnightblue" d="M165.93,-50.62C151.14,-40.76 131.99,-27.99 119.48,-19.65"/>
<polygon fill="midnightblue" stroke="midnightblue" points="164.22,-53.69 174.49,-56.32 168.11,-47.86 164.22,-53.69"/>
</g>
<!-- Node14&#45;&gt;Node5 -->
<g id="edge19" class="edge">
<title>Node14&#45;&gt;Node5</title>
<path fill="none" stroke="midnightblue" d="M1215.53,-50.62C1229.97,-40.76 1248.64,-27.99 1260.84,-19.65"/>
<polygon fill="midnightblue" stroke="midnightblue" points="1213.47,-47.79 1207.19,-56.32 1217.42,-53.57 1213.47,-47.79"/>
</g>
<!-- Node15 -->
<g id="node15" class="node">
<title>Node15</title>
<g id="a_node15"><a xlink:href="examples_2websocket_2request__listener_8cpp.html" target="_top" xlink:title=" ">
<polygon fill="none" stroke="black" points="1367.5,-0.5 1367.5,-19.5 1567.5,-19.5 1567.5,-0.5 1367.5,-0.5"/>
<text text-anchor="middle" x="1467.5" y="-7.5" font-family="Helvetica,sans-Serif" font-size="10.00">examples/websocket/request_listener.cpp</text>
</a>
</g>
</g>
<!-- Node14&#45;&gt;Node15 -->
<g id="edge20" class="edge">
<title>Node14&#45;&gt;Node15</title>
<path fill="none" stroke="midnightblue" d="M1247.72,-54.47C1299.31,-44.27 1376.6,-28.98 1424.44,-19.52"/>
<polygon fill="midnightblue" stroke="midnightblue" points="1246.89,-51.07 1237.76,-56.44 1248.25,-57.94 1246.89,-51.07"/>
</g>
<!-- Node16&#45;&gt;Node3 -->
<g id="edge22" class="edge">
<title>Node16&#45;&gt;Node3</title>
<path fill="none" stroke="midnightblue" d="M929.79,-54.35C881.22,-44.14 808.88,-28.94 764.03,-19.52"/>
<polygon fill="midnightblue" stroke="midnightblue" points="929.27,-57.81 939.78,-56.44 930.71,-50.96 929.27,-57.81"/>
</g>
<!-- Node16&#45;&gt;Node4 -->
<g id="edge24" class="edge">
<title>Node16&#45;&gt;Node4</title>
<path fill="none" stroke="midnightblue" d="M912.02,-60.07C804.22,-52.22 588.37,-36.1 405.5,-20 402.46,-19.73 399.37,-19.46 396.24,-19.17"/>
<polygon fill="midnightblue" stroke="midnightblue" points="911.88,-63.57 922.11,-60.81 912.39,-56.59 911.88,-63.57"/>
</g>
<!-- Node16&#45;&gt;Node5 -->
<g id="edge25" class="edge">
<title>Node16&#45;&gt;Node5</title>
<path fill="none" stroke="midnightblue" d="M1036.93,-54.6C1092.3,-44.4 1175.73,-29.02 1227.29,-19.52"/>
<polygon fill="midnightblue" stroke="midnightblue" points="1036.13,-51.19 1026.93,-56.44 1037.4,-58.07 1036.13,-51.19"/>
</g>
<!-- Node17 -->
<g id="node17" class="node">
<title>Node17</title>
<g id="a_node17"><a xlink:href="most__minimal_2main_8cpp.html" target="_top" xlink:title=" ">
<polygon fill="none" stroke="black" points="1014,-0.5 1014,-19.5 1179,-19.5 1179,-0.5 1014,-0.5"/>
<text text-anchor="middle" x="1096.5" y="-7.5" font-family="Helvetica,sans-Serif" font-size="10.00">examples/most_minimal/main.cpp</text>
</a>
</g>
</g>
<!-- Node16&#45;&gt;Node17 -->
<g id="edge23" class="edge">
<title>Node16&#45;&gt;Node17</title>
<path fill="none" stroke="midnightblue" d="M1008.22,-52.1C1029.89,-42.01 1059.4,-28.27 1078.21,-19.52"/>
<polygon fill="midnightblue" stroke="midnightblue" points="1006.47,-49.05 998.88,-56.44 1009.42,-55.4 1006.47,-49.05"/>
</g>
<!-- Node16&#45;&gt;Node18 -->
<g id="edge26" class="edge">
<title>Node16&#45;&gt;Node18</title>
<path fill="none" stroke="midnightblue" d="M960.91,-50.1C948.13,-40.38 931.89,-28.03 921.11,-19.83"/>
<polygon fill="midnightblue" stroke="midnightblue" points="959.01,-53.06 969.09,-56.32 963.25,-47.48 959.01,-53.06"/>
</g>
<!-- Node16&#45;&gt;Node19 -->
<g id="edge27" class="edge">
<title>Node16&#45;&gt;Node19</title>
<path fill="none" stroke="midnightblue" d="M1048.7,-59.03C1060.95,-57.99 1073.6,-56.95 1085.5,-56 1303.62,-38.66 1359.1,-44.8 1576.5,-20 1579.44,-19.67 1582.45,-19.29 1585.49,-18.89"/>
<polygon fill="midnightblue" stroke="midnightblue" points="1048.2,-55.56 1038.53,-59.9 1048.79,-62.54 1048.2,-55.56"/>
</g>
<!-- Node24&#45;&gt;Node19 -->
<g id="edge37" class="edge">
<title>Node24&#45;&gt;Node19</title>
<path fill="none" stroke="midnightblue" d="M1732.58,-270.27C1730.51,-248.4 1727.5,-211.12 1727.5,-179 1727.5,-179 1727.5,-179 1727.5,-121 1727.5,-73.49 1676.27,-35.91 1649.86,-19.69"/>
<polygon fill="midnightblue" stroke="midnightblue" points="1729.12,-270.85 1733.58,-280.45 1736.09,-270.16 1729.12,-270.85"/>
</g>
<!-- Node24&#45;&gt;Node22 -->
<g id="edge38" class="edge">
<title>Node24&#45;&gt;Node22</title>
<path fill="none" stroke="midnightblue" d="M1722.65,-271.92C1702.77,-244.77 1659.86,-192.33 1609.5,-168 1562.65,-145.37 1421.85,-132.73 1336.22,-126.94"/>
<polygon fill="midnightblue" stroke="midnightblue" points="1720.04,-274.29 1728.7,-280.39 1725.73,-270.22 1720.04,-274.29"/>
</g>
<!-- Node26 -->
<g id="node26" class="node">
<title>Node26</title>
<g id="a_node26"><a xlink:href="websocket__client_8hpp.html" target="_top" xlink:title=" ">
<polygon fill="none" stroke="black" points="1104,-224.5 1104,-243.5 1319,-243.5 1319,-224.5 1104,-224.5"/>
<text text-anchor="middle" x="1211.5" y="-231.5" font-family="Helvetica,sans-Serif" font-size="10.00">include/roar/websocket/websocket_client.hpp</text>
</a>
</g>
</g>
<!-- Node25&#45;&gt;Node26 -->
<g id="edge41" class="edge">
<title>Node25&#45;&gt;Node26</title>
<path fill="none" stroke="midnightblue" d="M1130.8,-275.73C1150.61,-265.73 1177.21,-252.31 1194.35,-243.65"/>
<polygon fill="midnightblue" stroke="midnightblue" points="1129.04,-272.69 1121.69,-280.32 1132.2,-278.94 1129.04,-272.69"/>
</g>
<!-- Node28 -->
<g id="node28" class="node">
<title>Node28</title>
<g id="a_node28"><a xlink:href="websocket__session_8hpp.html" target="_top" xlink:title=" ">
<polygon fill="none" stroke="black" points="1337,-224.5 1337,-243.5 1562,-243.5 1562,-224.5 1337,-224.5"/>
<text text-anchor="middle" x="1449.5" y="-231.5" font-family="Helvetica,sans-Serif" font-size="10.00">include/roar/websocket/websocket_session.hpp</text>
</a>
</g>
</g>
<!-- Node25&#45;&gt;Node28 -->
<g id="edge43" class="edge">
<title>Node25&#45;&gt;Node28</title>
<path fill="none" stroke="midnightblue" d="M1169.32,-278.85C1234.51,-268.65 1333.88,-253.1 1395.09,-243.52"/>
<polygon fill="midnightblue" stroke="midnightblue" points="1168.5,-275.44 1159.17,-280.44 1169.59,-282.35 1168.5,-275.44"/>
</g>
<!-- Node30 -->
<g id="node30" class="node">
<title>Node30</title>
<g id="a_node30"><a xlink:href="websocket__base_8cpp.html" target="_top" xlink:title=" ">
<polygon fill="none" stroke="black" points="891,-224.5 891,-243.5 1086,-243.5 1086,-224.5 891,-224.5"/>
<text text-anchor="middle" x="988.5" y="-231.5" font-family="Helvetica,sans-Serif" font-size="10.00">src/roar/websocket/websocket_base.cpp</text>
</a>
</g>
</g>
<!-- Node25&#45;&gt;Node30 -->
<g id="edge47" class="edge">
<title>Node25&#45;&gt;Node30</title>
<path fill="none" stroke="midnightblue" d="M1076.78,-276.1C1055.11,-266.01 1025.6,-252.27 1006.79,-243.52"/>
<polygon fill="midnightblue" stroke="midnightblue" points="1075.58,-279.4 1086.12,-280.44 1078.53,-273.05 1075.58,-279.4"/>
</g>
<!-- Node27 -->
<g id="node27" class="node">
<title>Node27</title>
<g id="a_node27"><a xlink:href="websocket__client_8cpp.html" target="_top" xlink:title=" ">
<polygon fill="none" stroke="black" points="1113,-168.5 1113,-187.5 1310,-187.5 1310,-168.5 1113,-168.5"/>
<text text-anchor="middle" x="1211.5" y="-175.5" font-family="Helvetica,sans-Serif" font-size="10.00">src/roar/websocket/websocket_client.cpp</text>
</a>
</g>
</g>
<!-- Node26&#45;&gt;Node27 -->
<g id="edge42" class="edge">
<title>Node26&#45;&gt;Node27</title>
<path fill="none" stroke="midnightblue" d="M1211.5,-213.8C1211.5,-204.91 1211.5,-194.78 1211.5,-187.75"/>
<polygon fill="midnightblue" stroke="midnightblue" points="1208,-214.08 1211.5,-224.08 1215,-214.08 1208,-214.08"/>
</g>
<!-- Node28&#45;&gt;Node7 -->
<g id="edge45" class="edge">
<title>Node28&#45;&gt;Node7</title>
<path fill="none" stroke="midnightblue" d="M1346.02,-223.56C1229.57,-212.94 1042.89,-195.91 937.21,-186.27"/>
<polygon fill="midnightblue" stroke="midnightblue" points="1345.75,-227.05 1356.02,-224.47 1346.38,-220.08 1345.75,-227.05"/>
</g>
<!-- Node28&#45;&gt;Node14 -->
<g id="edge44" class="edge">
<title>Node28&#45;&gt;Node14</title>
<path fill="none" stroke="midnightblue" d="M1423.55,-219.52C1410.32,-211.68 1394.69,-200.81 1383.5,-188 1358.66,-159.56 1374.42,-136.28 1345.5,-112 1322.66,-92.83 1291.9,-81.82 1264.1,-75.51"/>
<polygon fill="midnightblue" stroke="midnightblue" points="1421.83,-222.57 1432.25,-224.46 1425.28,-216.48 1421.83,-222.57"/>
</g>
<!-- Node28&#45;&gt;Node29 -->
<g id="edge46" class="edge">
<title>Node28&#45;&gt;Node29</title>
<path fill="none" stroke="midnightblue" d="M1463.92,-216.43C1472.16,-206.97 1482.15,-195.48 1488.88,-187.75"/>
<polygon fill="midnightblue" stroke="midnightblue" points="1461.19,-214.24 1457.26,-224.08 1466.47,-218.84 1461.19,-214.24"/>
</g>
</g>
</svg>
