<?xml version="1.0" encoding="UTF-8" standalone="no"?>
<!DOCTYPE svg PUBLIC "-//W3C//DTD SVG 1.1//EN"
 "http://www.w3.org/Graphics/SVG/1.1/DTD/svg11.dtd">
<!-- Generated by graphviz version 8.1.0 (0)
 -->
<!-- Title: Graph Legend Pages: 1 -->
<svg width="505pt" height="164pt"
 viewBox="0.00 0.00 505.38 164.00" xmlns="http://www.w3.org/2000/svg" xmlns:xlink="http://www.w3.org/1999/xlink">
<g id="graph0" class="graph" transform="scale(1 1) rotate(0) translate(4 160)">
<title>Graph Legend</title>
<!-- Node9 -->
<g id="Node000009" class="node">
<title>Node9</title>
<g id="a_Node000009"><a xlink:title=" ">
<polygon fill="#999999" stroke="#666666" points="290.5,-20 237,-20 237,0 290.5,0 290.5,-20"/>
<text text-anchor="middle" x="263.75" y="-6.5" font-family="Helvetica,sans-Serif" font-size="10.00">Inherited</text>
</a>
</g>
</g>
<!-- Node10 -->
<g id="Node000010" class="node">
<title>Node10</title>
<g id="a_Node000010"><a xlink:title=" ">
<polygon fill="white" stroke="#666666" points="65.5,-88 0,-88 0,-68 65.5,-68 65.5,-88"/>
<text text-anchor="middle" x="32.75" y="-74.5" font-family="Helvetica,sans-Serif" font-size="10.00">PublicBase</text>
</a>
</g>
</g>
<!-- Node10&#45;&gt;Node9 -->
<g id="edge1" class="edge">
<title>Node10&#45;&gt;Node9</title>
<g id="a_edge1"><a xlink:title=" ">
<path fill="none" stroke="#63b8ff" d="M76.37,-64.54C123.59,-51.05 197.42,-29.95 236.83,-18.69"/>
<polygon fill="#63b8ff" stroke="#63b8ff" points="75.5,-61.43 66.85,-67.54 77.42,-68.16 75.5,-61.43"/>
</a>
</g>
</g>
<!-- Node11 -->
<g id="Node000011" class="node">
<title>Node11</title>
<g id="a_Node000011"><a xlink:title=" ">
<polygon fill="#fff0f0" stroke="red" points="62.5,-156 3,-156 3,-136 62.5,-136 62.5,-156"/>
<text text-anchor="middle" x="32.75" y="-142.5" font-family="Helvetica,sans-Serif" font-size="10.00">Truncated</text>
</a>
</g>
</g>
<!-- Node11&#45;&gt;Node10 -->
<g id="edge2" class="edge">
<title>Node11&#45;&gt;Node10</title>
<g id="a_edge2"><a xlink:title=" ">
<path fill="none" stroke="#63b8ff" d="M32.75,-124.65C32.75,-112.58 32.75,-97.84 32.75,-88.44"/>
<polygon fill="#63b8ff" stroke="#63b8ff" points="29.25,-124.54 32.75,-134.54 36.25,-124.54 29.25,-124.54"/>
</a>
</g>
</g>
<!-- Node13 -->
<g id="node4" class="node">
<title>Node13</title>
<g id="a_node4"><a xlink:title=" ">
<polygon fill="white" stroke="#666666" points="164,-88 83.5,-88 83.5,-68 164,-68 164,-88"/>
<text text-anchor="middle" x="123.75" y="-74.5" font-family="Helvetica,sans-Serif" font-size="10.00">ProtectedBase</text>
</a>
</g>
</g>
<!-- Node13&#45;&gt;Node9 -->
<g id="edge3" class="edge">
<title>Node13&#45;&gt;Node9</title>
<g id="a_edge3"><a xlink:title=" ">
<path fill="none" stroke="darkgreen" d="M153.57,-62.94C180.75,-50.13 220.15,-31.56 243.73,-20.44"/>
<polygon fill="darkgreen" stroke="darkgreen" points="152.36,-60.11 144.81,-67.54 155.35,-66.45 152.36,-60.11"/>
</a>
</g>
</g>
<!-- Node14 -->
<g id="node5" class="node">
<title>Node14</title>
<g id="a_node5"><a xlink:title=" ">
<polygon fill="white" stroke="#666666" points="251.38,-88 182.12,-88 182.12,-68 251.38,-68 251.38,-88"/>
<text text-anchor="middle" x="216.75" y="-74.5" font-family="Helvetica,sans-Serif" font-size="10.00">PrivateBase</text>
</a>
</g>
</g>
<!-- Node14&#45;&gt;Node9 -->
<g id="edge4" class="edge">
<title>Node14&#45;&gt;Node9</title>
<g id="a_edge4"><a xlink:title=" ">
<path fill="none" stroke="#8b1a1a" d="M229.65,-58.88C238.51,-46.44 249.91,-30.43 257.03,-20.44"/>
<polygon fill="#8b1a1a" stroke="#8b1a1a" points="226.43,-56.37 223.48,-66.54 232.14,-60.43 226.43,-56.37"/>
</a>
</g>
</g>
<!-- Node15 -->
<g id="Node000015" class="node">
<title>Node15</title>
<g id="a_Node000015"><a xlink:title=" ">
<polygon fill="#e0e0e0" stroke="#999999" points="351.75,-88 269.75,-88 269.75,-68 351.75,-68 351.75,-88"/>
<text text-anchor="middle" x="310.75" y="-74.5" font-family="Helvetica,sans-Serif" font-size="10.00">Undocumented</text>
</a>
</g>
</g>
<!-- Node15&#45;&gt;Node9 -->
<g id="edge5" class="edge">
<title>Node15&#45;&gt;Node9</title>
<g id="a_edge5"><a xlink:title=" ">
<path fill="none" stroke="#63b8ff" d="M297.85,-58.88C288.99,-46.44 277.59,-30.43 270.47,-20.44"/>
<polygon fill="#63b8ff" stroke="#63b8ff" points="295.36,-60.43 304.02,-66.54 301.07,-56.37 295.36,-60.43"/>
</a>
</g>
</g>
<!-- Node16 -->
<g id="node7" class="node">
<title>Node16</title>
<g id="a_node7"><a xlink:title=" ">
<polygon fill="white" stroke="#666666" points="440.12,-88 369.38,-88 369.38,-68 440.12,-68 440.12,-88"/>
<text text-anchor="middle" x="404.75" y="-74.5" font-family="Helvetica,sans-Serif" font-size="10.00">Templ&lt; int &gt;</text>
</a>
</g>
</g>
<!-- Node16&#45;&gt;Node9 -->
<g id="edge6" class="edge">
<title>Node16&#45;&gt;Node9</title>
<g id="a_edge6"><a xlink:title=" ">
<path fill="none" stroke="#63b8ff" d="M374.72,-62.94C347.35,-50.13 307.67,-31.56 283.91,-20.44"/>
<polygon fill="#63b8ff" stroke="#63b8ff" points="373.01,-66.47 383.55,-67.54 375.98,-60.13 373.01,-66.47"/>
</a>
</g>
</g>
<!-- Node17 -->
<g id="node8" class="node">
<title>Node17</title>
<g id="a_node8"><a xlink:title=" ">
<polygon fill="white" stroke="#666666" points="437.5,-156 372,-156 372,-136 437.5,-136 437.5,-156"/>
<text text-anchor="middle" x="404.75" y="-142.5" font-family="Helvetica,sans-Serif" font-size="10.00">Templ&lt; T &gt;</text>
</a>
</g>
</g>
<!-- Node17&#45;&gt;Node16 -->
<g id="edge7" class="edge">
<title>Node17&#45;&gt;Node16</title>
<g id="a_edge7"><a xlink:title=" ">
<path fill="none" stroke="orange" stroke-dasharray="5,2" d="M404.75,-124.65C404.75,-112.58 404.75,-97.84 404.75,-88.44"/>
<polygon fill="orange" stroke="orange" points="401.25,-124.54 404.75,-134.54 408.25,-124.54 401.25,-124.54"/>
</a>
</g>
<text text-anchor="middle" x="419" y="-108.5" font-family="Helvetica,sans-Serif" font-size="10.00" fill="grey">&lt; int &gt;</text>
</g>
<!-- Node18 -->
<g id="node9" class="node">
<title>Node18</title>
<g id="a_node9"><a xlink:title=" ">
<polygon fill="white" stroke="#666666" points="497.38,-88 458.12,-88 458.12,-68 497.38,-68 497.38,-88"/>
<text text-anchor="middle" x="477.75" y="-74.5" font-family="Helvetica,sans-Serif" font-size="10.00">Used</text>
</a>
</g>
</g>
<!-- Node18&#45;&gt;Node9 -->
<g id="edge8" class="edge">
<title>Node18&#45;&gt;Node9</title>
<g id="a_edge8"><a xlink:title=" ">
<path fill="none" stroke="#9a32cd" stroke-dasharray="5,2" d="M447.46,-67.61C385.7,-48.51 324.84,-29.78 290.72,-19.29"/>
<polygon fill="#9a32cd" stroke="#9a32cd" points="446.2,-71.19 456.78,-70.8 448.26,-64.5 446.2,-71.19"/>
</a>
</g>
<text text-anchor="middle" x="416.75" y="-40.5" font-family="Helvetica,sans-Serif" font-size="10.00" fill="grey">m_usedClass</text>
</g>
</g>
</svg>
