<?xml version="1.0" encoding="UTF-8" standalone="no"?>
<!DOCTYPE svg PUBLIC "-//W3C//DTD SVG 1.1//EN"
 "http://www.w3.org/Graphics/SVG/1.1/DTD/svg11.dtd">
<!-- Generated by graphviz version 2.44.1 (20211215.1903)
 -->
<!-- Title: include/roar/routing/request_listener.hpp Pages: 1 -->
<svg width="1691pt" height="140pt"
 viewBox="0.00 0.00 1691.50 140.00" xmlns="http://www.w3.org/2000/svg" xmlns:xlink="http://www.w3.org/1999/xlink">
<g id="graph0" class="graph" transform="scale(1 1) rotate(0) translate(4 136)">
<title>include/roar/routing/request_listener.hpp</title>
<!-- Node1 -->
<g id="node1" class="node">
<title>Node1</title>
<g id="a_node1"><a xlink:title=" ">
<polygon fill="#bfbfbf" stroke="black" points="828,-112.5 828,-131.5 1018,-131.5 1018,-112.5 828,-112.5"/>
<text text-anchor="middle" x="923" y="-119.5" font-family="Helvetica,sans-Serif" font-size="10.00">include/roar/routing/request_listener.hpp</text>
</a>
</g>
</g>
<!-- Node2 -->
<g id="node2" class="node">
<title>Node2</title>
<g id="a_node2"><a xlink:href="100__continue_2main_8cpp.html" target="_top" xlink:title=" ">
<polygon fill="none" stroke="black" points="228,-0.5 228,-19.5 390,-19.5 390,-0.5 228,-0.5"/>
<text text-anchor="middle" x="309" y="-7.5" font-family="Helvetica,sans-Serif" font-size="10.00">examples/100_continue/main.cpp</text>
</a>
</g>
</g>
<!-- Node1&#45;&gt;Node2 -->
<g id="edge1" class="edge">
<title>Node1&#45;&gt;Node2</title>
<path fill="none" stroke="midnightblue" d="M817.64,-112.81C741.22,-105.82 635.62,-94 544,-76 466.74,-60.82 377.69,-33.39 334.77,-19.52"/>
<polygon fill="midnightblue" stroke="midnightblue" points="817.48,-116.31 827.76,-113.72 818.11,-109.34 817.48,-116.31"/>
</g>
<!-- Node3 -->
<g id="node3" class="node">
<title>Node3</title>
<g id="a_node3"><a xlink:href="examples_2100__continue_2request__listener_8hpp.html" target="_top" xlink:title=" ">
<polygon fill="none" stroke="black" points="204,-56.5 204,-75.5 414,-75.5 414,-56.5 204,-56.5"/>
<text text-anchor="middle" x="309" y="-63.5" font-family="Helvetica,sans-Serif" font-size="10.00">examples/100_continue/request_listener.hpp</text>
</a>
</g>
</g>
<!-- Node1&#45;&gt;Node3 -->
<g id="edge2" class="edge">
<title>Node1&#45;&gt;Node3</title>
<path fill="none" stroke="midnightblue" d="M817.45,-111.72C701.79,-101.54 517.81,-85.36 405.75,-75.51"/>
<polygon fill="midnightblue" stroke="midnightblue" points="817.47,-115.23 827.74,-112.62 818.08,-108.26 817.47,-115.23"/>
</g>
<!-- Node5 -->
<g id="node5" class="node">
<title>Node5</title>
<g id="a_node5"><a xlink:href="request__listener_2main_8cpp.html" target="_top" xlink:title=" ">
<polygon fill="none" stroke="black" points="1251.5,-56.5 1251.5,-75.5 1424.5,-75.5 1424.5,-56.5 1251.5,-56.5"/>
<text text-anchor="middle" x="1338" y="-63.5" font-family="Helvetica,sans-Serif" font-size="10.00">examples/request_listener/main.cpp</text>
</a>
</g>
</g>
<!-- Node1&#45;&gt;Node5 -->
<g id="edge5" class="edge">
<title>Node1&#45;&gt;Node5</title>
<path fill="none" stroke="midnightblue" d="M999.05,-111.1C1077.42,-100.91 1198.31,-85.18 1272.55,-75.52"/>
<polygon fill="midnightblue" stroke="midnightblue" points="998.22,-107.68 988.76,-112.44 999.13,-114.62 998.22,-107.68"/>
</g>
<!-- Node6 -->
<g id="node6" class="node">
<title>Node6</title>
<g id="a_node6"><a xlink:href="simple__server_2main_8cpp.html" target="_top" xlink:title=" ">
<polygon fill="none" stroke="black" points="639.5,-0.5 639.5,-19.5 804.5,-19.5 804.5,-0.5 639.5,-0.5"/>
<text text-anchor="middle" x="722" y="-7.5" font-family="Helvetica,sans-Serif" font-size="10.00">examples/simple_server/main.cpp</text>
</a>
</g>
</g>
<!-- Node1&#45;&gt;Node6 -->
<g id="edge6" class="edge">
<title>Node1&#45;&gt;Node6</title>
<path fill="none" stroke="midnightblue" d="M888.05,-108.85C866.2,-100.71 837.79,-89.1 814,-76 782.65,-58.74 749.11,-32.94 732.53,-19.63"/>
<polygon fill="midnightblue" stroke="midnightblue" points="887,-112.19 897.59,-112.35 889.4,-105.62 887,-112.19"/>
</g>
<!-- Node7 -->
<g id="node7" class="node">
<title>Node7</title>
<g id="a_node7"><a xlink:href="examples_2simple__server_2request__listener_8hpp.html" target="_top" xlink:title=" ">
<polygon fill="none" stroke="black" points="553.5,-56.5 553.5,-75.5 766.5,-75.5 766.5,-56.5 553.5,-56.5"/>
<text text-anchor="middle" x="660" y="-63.5" font-family="Helvetica,sans-Serif" font-size="10.00">examples/simple_server/request_listener.hpp</text>
</a>
</g>
</g>
<!-- Node1&#45;&gt;Node7 -->
<g id="edge7" class="edge">
<title>Node1&#45;&gt;Node7</title>
<path fill="none" stroke="midnightblue" d="M871.42,-110.41C821.72,-100.2 747.47,-84.96 701.48,-75.52"/>
<polygon fill="midnightblue" stroke="midnightblue" points="870.83,-113.86 881.33,-112.44 872.24,-107 870.83,-113.86"/>
</g>
<!-- Node9 -->
<g id="node9" class="node">
<title>Node9</title>
<g id="a_node9"><a xlink:href="websocket_2main_8cpp.html" target="_top" xlink:title=" ">
<polygon fill="none" stroke="black" points="1041,-0.5 1041,-19.5 1193,-19.5 1193,-0.5 1041,-0.5"/>
<text text-anchor="middle" x="1117" y="-7.5" font-family="Helvetica,sans-Serif" font-size="10.00">examples/websocket/main.cpp</text>
</a>
</g>
</g>
<!-- Node1&#45;&gt;Node9 -->
<g id="edge10" class="edge">
<title>Node1&#45;&gt;Node9</title>
<path fill="none" stroke="midnightblue" d="M958.55,-109.01C980.41,-100.99 1008.61,-89.46 1032,-76 1061.47,-59.04 1092.24,-33.11 1107.39,-19.71"/>
<polygon fill="midnightblue" stroke="midnightblue" points="957.23,-105.77 949,-112.44 959.59,-112.35 957.23,-105.77"/>
</g>
<!-- Node10 -->
<g id="node10" class="node">
<title>Node10</title>
<g id="a_node10"><a xlink:href="examples_2websocket_2request__listener_8hpp.html" target="_top" xlink:title=" ">
<polygon fill="none" stroke="black" points="823,-56.5 823,-75.5 1023,-75.5 1023,-56.5 823,-56.5"/>
<text text-anchor="middle" x="923" y="-63.5" font-family="Helvetica,sans-Serif" font-size="10.00">examples/websocket/request_listener.hpp</text>
</a>
</g>
</g>
<!-- Node1&#45;&gt;Node10 -->
<g id="edge11" class="edge">
<title>Node1&#45;&gt;Node10</title>
<path fill="none" stroke="midnightblue" d="M923,-101.8C923,-92.91 923,-82.78 923,-75.75"/>
<polygon fill="midnightblue" stroke="midnightblue" points="919.5,-102.08 923,-112.08 926.5,-102.08 919.5,-102.08"/>
</g>
<!-- Node12 -->
<g id="node12" class="node">
<title>Node12</title>
<g id="a_node12"><a xlink:href="server_8hpp.html" target="_top" xlink:title=" ">
<polygon fill="none" stroke="black" points="1079,-56.5 1079,-75.5 1195,-75.5 1195,-56.5 1079,-56.5"/>
<text text-anchor="middle" x="1137" y="-63.5" font-family="Helvetica,sans-Serif" font-size="10.00">include/roar/server.hpp</text>
</a>
</g>
</g>
<!-- Node1&#45;&gt;Node12 -->
<g id="edge14" class="edge">
<title>Node1&#45;&gt;Node12</title>
<path fill="none" stroke="midnightblue" d="M966.76,-109.96C1007.17,-99.76 1066.37,-84.82 1103.25,-75.52"/>
<polygon fill="midnightblue" stroke="midnightblue" points="965.75,-106.6 956.91,-112.44 967.46,-113.39 965.75,-106.6"/>
</g>
<!-- Node14 -->
<g id="node14" class="node">
<title>Node14</title>
<g id="a_node14"><a xlink:href="src_2roar_2routing_2request__listener_8cpp.html" target="_top" xlink:title=" ">
<polygon fill="none" stroke="black" points="1510.5,-0.5 1510.5,-19.5 1683.5,-19.5 1683.5,-0.5 1510.5,-0.5"/>
<text text-anchor="middle" x="1597" y="-7.5" font-family="Helvetica,sans-Serif" font-size="10.00">src/roar/routing/request_listener.cpp</text>
</a>
</g>
</g>
<!-- Node1&#45;&gt;Node14 -->
<g id="edge21" class="edge">
<title>Node1&#45;&gt;Node14</title>
<path fill="none" stroke="midnightblue" d="M1028.3,-112.09C1081.86,-105.57 1147.43,-94.52 1204,-76 1222.51,-69.94 1224.39,-61.76 1243,-56 1268.67,-48.06 1422.15,-30.21 1518.4,-19.53"/>
<polygon fill="midnightblue" stroke="midnightblue" points="1027.62,-108.64 1018.1,-113.29 1028.44,-115.6 1027.62,-108.64"/>
</g>
<!-- Node3&#45;&gt;Node2 -->
<g id="edge3" class="edge">
<title>Node3&#45;&gt;Node2</title>
<path fill="none" stroke="midnightblue" d="M309,-45.8C309,-36.91 309,-26.78 309,-19.75"/>
<polygon fill="midnightblue" stroke="midnightblue" points="305.5,-46.08 309,-56.08 312.5,-46.08 305.5,-46.08"/>
</g>
<!-- Node4 -->
<g id="node4" class="node">
<title>Node4</title>
<g id="a_node4"><a xlink:href="examples_2100__continue_2request__listener_8cpp.html" target="_top" xlink:title=" ">
<polygon fill="none" stroke="black" points="0,-0.5 0,-19.5 210,-19.5 210,-0.5 0,-0.5"/>
<text text-anchor="middle" x="105" y="-7.5" font-family="Helvetica,sans-Serif" font-size="10.00">examples/100_continue/request_listener.cpp</text>
</a>
</g>
</g>
<!-- Node3&#45;&gt;Node4 -->
<g id="edge4" class="edge">
<title>Node3&#45;&gt;Node4</title>
<path fill="none" stroke="midnightblue" d="M266.8,-53.83C228.28,-43.63 172.18,-28.78 137.17,-19.52"/>
<polygon fill="midnightblue" stroke="midnightblue" points="266.11,-57.27 276.68,-56.44 267.9,-50.5 266.11,-57.27"/>
</g>
<!-- Node7&#45;&gt;Node6 -->
<g id="edge8" class="edge">
<title>Node7&#45;&gt;Node6</title>
<path fill="none" stroke="midnightblue" d="M677.75,-49.54C688.81,-39.91 702.63,-27.87 711.86,-19.83"/>
<polygon fill="midnightblue" stroke="midnightblue" points="675.2,-47.12 669.96,-56.32 679.8,-52.4 675.2,-47.12"/>
</g>
<!-- Node8 -->
<g id="node8" class="node">
<title>Node8</title>
<g id="a_node8"><a xlink:href="examples_2simple__server_2request__listener_8cpp.html" target="_top" xlink:title=" ">
<polygon fill="none" stroke="black" points="408.5,-0.5 408.5,-19.5 621.5,-19.5 621.5,-0.5 408.5,-0.5"/>
<text text-anchor="middle" x="515" y="-7.5" font-family="Helvetica,sans-Serif" font-size="10.00">examples/simple_server/request_listener.cpp</text>
</a>
</g>
</g>
<!-- Node7&#45;&gt;Node8 -->
<g id="edge9" class="edge">
<title>Node7&#45;&gt;Node8</title>
<path fill="none" stroke="midnightblue" d="M627.52,-52.91C600.26,-42.75 562.01,-28.51 537.87,-19.52"/>
<polygon fill="midnightblue" stroke="midnightblue" points="626.43,-56.23 637.02,-56.44 628.87,-49.67 626.43,-56.23"/>
</g>
<!-- Node10&#45;&gt;Node9 -->
<g id="edge12" class="edge">
<title>Node10&#45;&gt;Node9</title>
<path fill="none" stroke="midnightblue" d="M963.6,-53.7C1000.22,-43.51 1053.26,-28.74 1086.4,-19.52"/>
<polygon fill="midnightblue" stroke="midnightblue" points="962.44,-50.39 953.74,-56.44 964.31,-57.13 962.44,-50.39"/>
</g>
<!-- Node11 -->
<g id="node11" class="node">
<title>Node11</title>
<g id="a_node11"><a xlink:href="examples_2websocket_2request__listener_8cpp.html" target="_top" xlink:title=" ">
<polygon fill="none" stroke="black" points="823,-0.5 823,-19.5 1023,-19.5 1023,-0.5 823,-0.5"/>
<text text-anchor="middle" x="923" y="-7.5" font-family="Helvetica,sans-Serif" font-size="10.00">examples/websocket/request_listener.cpp</text>
</a>
</g>
</g>
<!-- Node10&#45;&gt;Node11 -->
<g id="edge13" class="edge">
<title>Node10&#45;&gt;Node11</title>
<path fill="none" stroke="midnightblue" d="M923,-45.8C923,-36.91 923,-26.78 923,-19.75"/>
<polygon fill="midnightblue" stroke="midnightblue" points="919.5,-46.08 923,-56.08 926.5,-46.08 919.5,-46.08"/>
</g>
<!-- Node12&#45;&gt;Node2 -->
<g id="edge15" class="edge">
<title>Node12&#45;&gt;Node2</title>
<path fill="none" stroke="midnightblue" d="M1068.81,-58.87C1056.56,-57.85 1043.91,-56.85 1032,-56 750.93,-35.97 679.93,-42.02 399,-20 396.18,-19.78 393.32,-19.54 390.42,-19.3"/>
<polygon fill="midnightblue" stroke="midnightblue" points="1068.72,-62.37 1078.98,-59.73 1069.31,-55.4 1068.72,-62.37"/>
</g>
<!-- Node12&#45;&gt;Node6 -->
<g id="edge17" class="edge">
<title>Node12&#45;&gt;Node6</title>
<path fill="none" stroke="midnightblue" d="M1068.67,-56.11C990.78,-45.97 864.35,-29.52 787.61,-19.54"/>
<polygon fill="midnightblue" stroke="midnightblue" points="1068.49,-59.62 1078.86,-57.43 1069.39,-52.67 1068.49,-59.62"/>
</g>
<!-- Node12&#45;&gt;Node9 -->
<g id="edge18" class="edge">
<title>Node12&#45;&gt;Node9</title>
<path fill="none" stroke="midnightblue" d="M1130.22,-46.69C1126.85,-37.59 1122.93,-27.01 1120.24,-19.75"/>
<polygon fill="midnightblue" stroke="midnightblue" points="1126.94,-47.92 1133.7,-56.08 1133.51,-45.49 1126.94,-47.92"/>
</g>
<!-- Node13 -->
<g id="node13" class="node">
<title>Node13</title>
<g id="a_node13"><a xlink:href="most__minimal_2main_8cpp.html" target="_top" xlink:title=" ">
<polygon fill="none" stroke="black" points="1327.5,-0.5 1327.5,-19.5 1492.5,-19.5 1492.5,-0.5 1327.5,-0.5"/>
<text text-anchor="middle" x="1410" y="-7.5" font-family="Helvetica,sans-Serif" font-size="10.00">examples/most_minimal/main.cpp</text>
</a>
</g>
</g>
<!-- Node12&#45;&gt;Node13 -->
<g id="edge16" class="edge">
<title>Node12&#45;&gt;Node13</title>
<path fill="none" stroke="midnightblue" d="M1190.22,-54.47C1241.81,-44.27 1319.1,-28.98 1366.94,-19.52"/>
<polygon fill="midnightblue" stroke="midnightblue" points="1189.39,-51.07 1180.26,-56.44 1190.75,-57.94 1189.39,-51.07"/>
</g>
<!-- Node12&#45;&gt;Node14 -->
<g id="edge19" class="edge">
<title>Node12&#45;&gt;Node14</title>
<path fill="none" stroke="midnightblue" d="M1205.17,-56.46C1206.45,-56.31 1207.73,-56.15 1209,-56 1317.73,-42.9 1443.69,-28.42 1521.87,-19.51"/>
<polygon fill="midnightblue" stroke="midnightblue" points="1204.66,-53 1195.15,-57.69 1205.5,-59.95 1204.66,-53"/>
</g>
<!-- Node15 -->
<g id="node15" class="node">
<title>Node15</title>
<g id="a_node15"><a xlink:href="server_8cpp.html" target="_top" xlink:title=" ">
<polygon fill="none" stroke="black" points="1211,-0.5 1211,-19.5 1309,-19.5 1309,-0.5 1211,-0.5"/>
<text text-anchor="middle" x="1260" y="-7.5" font-family="Helvetica,sans-Serif" font-size="10.00">src/roar/server.cpp</text>
</a>
</g>
</g>
<!-- Node12&#45;&gt;Node15 -->
<g id="edge20" class="edge">
<title>Node12&#45;&gt;Node15</title>
<path fill="none" stroke="midnightblue" d="M1165.77,-52.37C1188.81,-42.26 1220.48,-28.35 1240.6,-19.52"/>
<polygon fill="midnightblue" stroke="midnightblue" points="1164.24,-49.22 1156.49,-56.44 1167.05,-55.63 1164.24,-49.22"/>
</g>
</g>
</svg>
