<?xml version="1.0" encoding="UTF-8" standalone="no"?>
<!DOCTYPE svg PUBLIC "-//W3C//DTD SVG 1.1//EN"
 "http://www.w3.org/Graphics/SVG/1.1/DTD/svg11.dtd">
<!-- Generated by graphviz version 2.44.1 (20211215.1903)
 -->
<!-- Title: include/roar/routing/request_listener.hpp Pages: 1 -->
<svg width="1659pt" height="196pt"
 viewBox="0.00 0.00 1658.50 196.00" xmlns="http://www.w3.org/2000/svg" xmlns:xlink="http://www.w3.org/1999/xlink">
<g id="graph0" class="graph" transform="scale(1 1) rotate(0) translate(4 192)">
<title>include/roar/routing/request_listener.hpp</title>
<!-- Node1 -->
<g id="node1" class="node">
<title>Node1</title>
<g id="a_node1"><a xlink:title=" ">
<polygon fill="#bfbfbf" stroke="black" points="718,-168.5 718,-187.5 908,-187.5 908,-168.5 718,-168.5"/>
<text text-anchor="middle" x="813" y="-175.5" font-family="Helvetica,sans-Serif" font-size="10.00">include/roar/routing/request_listener.hpp</text>
</a>
</g>
</g>
<!-- Node2 -->
<g id="node2" class="node">
<title>Node2</title>
<g id="a_node2"><a xlink:href="100__continue_2main_8cpp.html" target="_top" xlink:title=" ">
<polygon fill="none" stroke="black" points="0,-0.5 0,-19.5 162,-19.5 162,-0.5 0,-0.5"/>
<text text-anchor="middle" x="81" y="-7.5" font-family="Helvetica,sans-Serif" font-size="10.00">examples/100_continue/main.cpp</text>
</a>
</g>
</g>
<!-- Node1&#45;&gt;Node2 -->
<g id="edge1" class="edge">
<title>Node1&#45;&gt;Node2</title>
<path fill="none" stroke="midnightblue" d="M707.63,-177.03C520.59,-176.11 145.85,-169.54 100,-132 65.94,-104.12 74.54,-42.21 79.08,-19.54"/>
<polygon fill="midnightblue" stroke="midnightblue" points="707.74,-180.53 717.76,-177.07 707.77,-173.53 707.74,-180.53"/>
</g>
<!-- Node3 -->
<g id="node3" class="node">
<title>Node3</title>
<g id="a_node3"><a xlink:href="examples_2100__continue_2request__listener_8hpp.html" target="_top" xlink:title=" ">
<polygon fill="none" stroke="black" points="109,-112.5 109,-131.5 319,-131.5 319,-112.5 109,-112.5"/>
<text text-anchor="middle" x="214" y="-119.5" font-family="Helvetica,sans-Serif" font-size="10.00">examples/100_continue/request_listener.hpp</text>
</a>
</g>
</g>
<!-- Node1&#45;&gt;Node3 -->
<g id="edge2" class="edge">
<title>Node1&#45;&gt;Node3</title>
<path fill="none" stroke="midnightblue" d="M708.38,-167.57C595.51,-157.39 417.39,-141.34 308.58,-131.53"/>
<polygon fill="midnightblue" stroke="midnightblue" points="708.14,-171.06 718.42,-168.47 708.77,-164.09 708.14,-171.06"/>
</g>
<!-- Node5 -->
<g id="node5" class="node">
<title>Node5</title>
<g id="a_node5"><a xlink:href="request__listener_2main_8cpp.html" target="_top" xlink:title=" ">
<polygon fill="none" stroke="black" points="1477.5,-112.5 1477.5,-131.5 1650.5,-131.5 1650.5,-112.5 1477.5,-112.5"/>
<text text-anchor="middle" x="1564" y="-119.5" font-family="Helvetica,sans-Serif" font-size="10.00">examples/request_listener/main.cpp</text>
</a>
</g>
</g>
<!-- Node1&#45;&gt;Node5 -->
<g id="edge5" class="edge">
<title>Node1&#45;&gt;Node5</title>
<path fill="none" stroke="midnightblue" d="M918.28,-170.35C1046.87,-162.09 1271,-147.2 1463,-132 1467.65,-131.63 1472.42,-131.24 1477.24,-130.84"/>
<polygon fill="midnightblue" stroke="midnightblue" points="917.8,-166.88 908.04,-171.01 918.25,-173.86 917.8,-166.88"/>
</g>
<!-- Node6 -->
<g id="node6" class="node">
<title>Node6</title>
<g id="a_node6"><a xlink:href="file__server_8hpp.html" target="_top" xlink:title=" ">
<polygon fill="none" stroke="black" points="374.5,-112.5 374.5,-131.5 569.5,-131.5 569.5,-112.5 374.5,-112.5"/>
<text text-anchor="middle" x="472" y="-119.5" font-family="Helvetica,sans-Serif" font-size="10.00">examples/serve_directory/file_server.hpp</text>
</a>
</g>
</g>
<!-- Node1&#45;&gt;Node6 -->
<g id="edge6" class="edge">
<title>Node1&#45;&gt;Node6</title>
<path fill="none" stroke="midnightblue" d="M748.93,-166.85C684.5,-156.65 586.28,-141.1 525.78,-131.52"/>
<polygon fill="midnightblue" stroke="midnightblue" points="748.54,-170.34 758.97,-168.44 749.64,-163.42 748.54,-170.34"/>
</g>
<!-- Node8 -->
<g id="node8" class="node">
<title>Node8</title>
<g id="a_node8"><a xlink:href="serve__directory_2main_8cpp.html" target="_top" xlink:title=" ">
<polygon fill="none" stroke="black" points="303.5,-0.5 303.5,-19.5 474.5,-19.5 474.5,-0.5 303.5,-0.5"/>
<text text-anchor="middle" x="389" y="-7.5" font-family="Helvetica,sans-Serif" font-size="10.00">examples/serve_directory/main.cpp</text>
</a>
</g>
</g>
<!-- Node1&#45;&gt;Node8 -->
<g id="edge9" class="edge">
<title>Node1&#45;&gt;Node8</title>
<path fill="none" stroke="midnightblue" d="M707.96,-173.73C582.79,-168.72 387.59,-156.98 365,-132 335.55,-99.44 368.66,-41.44 383.02,-19.62"/>
<polygon fill="midnightblue" stroke="midnightblue" points="707.84,-177.22 717.97,-174.12 708.12,-170.23 707.84,-177.22"/>
</g>
<!-- Node9 -->
<g id="node9" class="node">
<title>Node9</title>
<g id="a_node9"><a xlink:href="simple__server_2main_8cpp.html" target="_top" xlink:title=" ">
<polygon fill="none" stroke="black" points="795.5,-0.5 795.5,-19.5 960.5,-19.5 960.5,-0.5 795.5,-0.5"/>
<text text-anchor="middle" x="878" y="-7.5" font-family="Helvetica,sans-Serif" font-size="10.00">examples/simple_server/main.cpp</text>
</a>
</g>
</g>
<!-- Node1&#45;&gt;Node9 -->
<g id="edge10" class="edge">
<title>Node1&#45;&gt;Node9</title>
<path fill="none" stroke="midnightblue" d="M836.74,-162.94C847.54,-155.23 859.37,-144.65 866,-132 885.9,-94.05 881.78,-40.2 879.23,-19.53"/>
<polygon fill="midnightblue" stroke="midnightblue" points="834.79,-160.03 828.41,-168.49 838.67,-165.85 834.79,-160.03"/>
</g>
<!-- Node10 -->
<g id="node10" class="node">
<title>Node10</title>
<g id="a_node10"><a xlink:href="examples_2simple__server_2request__listener_8hpp.html" target="_top" xlink:title=" ">
<polygon fill="none" stroke="black" points="913.5,-112.5 913.5,-131.5 1126.5,-131.5 1126.5,-112.5 913.5,-112.5"/>
<text text-anchor="middle" x="1020" y="-119.5" font-family="Helvetica,sans-Serif" font-size="10.00">examples/simple_server/request_listener.hpp</text>
</a>
</g>
</g>
<!-- Node1&#45;&gt;Node10 -->
<g id="edge11" class="edge">
<title>Node1&#45;&gt;Node10</title>
<path fill="none" stroke="midnightblue" d="M855.82,-165.83C894.91,-155.63 951.83,-140.78 987.35,-131.52"/>
<polygon fill="midnightblue" stroke="midnightblue" points="854.59,-162.53 845.8,-168.44 856.36,-169.31 854.59,-162.53"/>
</g>
<!-- Node12 -->
<g id="node12" class="node">
<title>Node12</title>
<g id="a_node12"><a xlink:href="websocket_2main_8cpp.html" target="_top" xlink:title=" ">
<polygon fill="none" stroke="black" points="1079,-0.5 1079,-19.5 1231,-19.5 1231,-0.5 1079,-0.5"/>
<text text-anchor="middle" x="1155" y="-7.5" font-family="Helvetica,sans-Serif" font-size="10.00">examples/websocket/main.cpp</text>
</a>
</g>
</g>
<!-- Node1&#45;&gt;Node12 -->
<g id="edge14" class="edge">
<title>Node1&#45;&gt;Node12</title>
<path fill="none" stroke="midnightblue" d="M918.5,-175.52C1000.71,-172.03 1105.81,-161.67 1136,-132 1167.24,-101.29 1160.51,-41.66 1156.68,-19.53"/>
<polygon fill="midnightblue" stroke="midnightblue" points="918.19,-172.03 908.34,-175.92 918.47,-179.02 918.19,-172.03"/>
</g>
<!-- Node13 -->
<g id="node13" class="node">
<title>Node13</title>
<g id="a_node13"><a xlink:href="examples_2websocket_2request__listener_8hpp.html" target="_top" xlink:title=" ">
<polygon fill="none" stroke="black" points="1183,-112.5 1183,-131.5 1383,-131.5 1383,-112.5 1183,-112.5"/>
<text text-anchor="middle" x="1283" y="-119.5" font-family="Helvetica,sans-Serif" font-size="10.00">examples/websocket/request_listener.hpp</text>
</a>
</g>
</g>
<!-- Node1&#45;&gt;Node13 -->
<g id="edge15" class="edge">
<title>Node1&#45;&gt;Node13</title>
<path fill="none" stroke="midnightblue" d="M897.24,-167.32C985.9,-157.14 1124.1,-141.26 1208.79,-131.53"/>
<polygon fill="midnightblue" stroke="midnightblue" points="896.75,-163.85 887.21,-168.47 897.55,-170.81 896.75,-163.85"/>
</g>
<!-- Node15 -->
<g id="node15" class="node">
<title>Node15</title>
<g id="a_node15"><a xlink:href="directory__server_8hpp.html" target="_top" xlink:title=" ">
<polygon fill="none" stroke="black" points="625.5,-112.5 625.5,-131.5 856.5,-131.5 856.5,-112.5 625.5,-112.5"/>
<text text-anchor="middle" x="741" y="-119.5" font-family="Helvetica,sans-Serif" font-size="10.00">include/roar/directory_server/directory_server.hpp</text>
</a>
</g>
</g>
<!-- Node1&#45;&gt;Node15 -->
<g id="edge18" class="edge">
<title>Node1&#45;&gt;Node15</title>
<path fill="none" stroke="midnightblue" d="M793.13,-162.1C780.18,-152.38 763.7,-140.03 752.78,-131.83"/>
<polygon fill="midnightblue" stroke="midnightblue" points="791.33,-165.12 801.43,-168.32 795.53,-159.52 791.33,-165.12"/>
</g>
<!-- Node16 -->
<g id="node16" class="node">
<title>Node16</title>
<g id="a_node16"><a xlink:href="server_8hpp.html" target="_top" xlink:title=" ">
<polygon fill="none" stroke="black" points="670,-56.5 670,-75.5 786,-75.5 786,-56.5 670,-56.5"/>
<text text-anchor="middle" x="728" y="-63.5" font-family="Helvetica,sans-Serif" font-size="10.00">include/roar/server.hpp</text>
</a>
</g>
</g>
<!-- Node1&#45;&gt;Node16 -->
<g id="edge27" class="edge">
<title>Node1&#45;&gt;Node16</title>
<path fill="none" stroke="midnightblue" d="M721.29,-166.97C676.98,-160.04 630.5,-148.95 617,-132 594.6,-103.88 644.28,-85.42 684.23,-75.59"/>
<polygon fill="midnightblue" stroke="midnightblue" points="720.88,-170.45 731.29,-168.47 721.92,-163.53 720.88,-170.45"/>
</g>
<!-- Node18 -->
<g id="node18" class="node">
<title>Node18</title>
<g id="a_node18"><a xlink:href="src_2roar_2routing_2request__listener_8cpp.html" target="_top" xlink:title=" ">
<polygon fill="none" stroke="black" points="1305.5,-0.5 1305.5,-19.5 1478.5,-19.5 1478.5,-0.5 1305.5,-0.5"/>
<text text-anchor="middle" x="1392" y="-7.5" font-family="Helvetica,sans-Serif" font-size="10.00">src/roar/routing/request_listener.cpp</text>
</a>
</g>
</g>
<!-- Node1&#45;&gt;Node18 -->
<g id="edge28" class="edge">
<title>Node1&#45;&gt;Node18</title>
<path fill="none" stroke="midnightblue" d="M918.33,-173.74C1074.18,-168.17 1352.17,-155.13 1392,-132 1424.66,-113.04 1442.97,-91.47 1430,-56 1424.59,-41.21 1411.94,-27.93 1402.71,-19.7"/>
<polygon fill="midnightblue" stroke="midnightblue" points="918.12,-170.24 908.25,-174.09 918.36,-177.24 918.12,-170.24"/>
</g>
<!-- Node3&#45;&gt;Node2 -->
<g id="edge3" class="edge">
<title>Node3&#45;&gt;Node2</title>
<path fill="none" stroke="midnightblue" d="M156.95,-109.54C136.54,-102.84 114.92,-92.35 100,-76 85.42,-60.02 81.98,-33.43 81.2,-19.74"/>
<polygon fill="midnightblue" stroke="midnightblue" points="155.93,-112.89 166.52,-112.44 157.97,-106.19 155.93,-112.89"/>
</g>
<!-- Node4 -->
<g id="node4" class="node">
<title>Node4</title>
<g id="a_node4"><a xlink:href="examples_2100__continue_2request__listener_8cpp.html" target="_top" xlink:title=" ">
<polygon fill="none" stroke="black" points="109,-56.5 109,-75.5 319,-75.5 319,-56.5 109,-56.5"/>
<text text-anchor="middle" x="214" y="-63.5" font-family="Helvetica,sans-Serif" font-size="10.00">examples/100_continue/request_listener.cpp</text>
</a>
</g>
</g>
<!-- Node3&#45;&gt;Node4 -->
<g id="edge4" class="edge">
<title>Node3&#45;&gt;Node4</title>
<path fill="none" stroke="midnightblue" d="M214,-101.8C214,-92.91 214,-82.78 214,-75.75"/>
<polygon fill="midnightblue" stroke="midnightblue" points="210.5,-102.08 214,-112.08 217.5,-102.08 210.5,-102.08"/>
</g>
<!-- Node7 -->
<g id="node7" class="node">
<title>Node7</title>
<g id="a_node7"><a xlink:href="file__server_8cpp.html" target="_top" xlink:title=" ">
<polygon fill="none" stroke="black" points="416.5,-56.5 416.5,-75.5 611.5,-75.5 611.5,-56.5 416.5,-56.5"/>
<text text-anchor="middle" x="514" y="-63.5" font-family="Helvetica,sans-Serif" font-size="10.00">examples/serve_directory/file_server.cpp</text>
</a>
</g>
</g>
<!-- Node6&#45;&gt;Node7 -->
<g id="edge7" class="edge">
<title>Node6&#45;&gt;Node7</title>
<path fill="none" stroke="midnightblue" d="M485.11,-104.14C492.43,-94.74 501.24,-83.4 507.19,-75.75"/>
<polygon fill="midnightblue" stroke="midnightblue" points="482.31,-102.04 478.94,-112.08 487.84,-106.34 482.31,-102.04"/>
</g>
<!-- Node6&#45;&gt;Node8 -->
<g id="edge8" class="edge">
<title>Node6&#45;&gt;Node8</title>
<path fill="none" stroke="midnightblue" d="M443.97,-107.43C430.99,-99.85 416.4,-89.24 407,-76 394.66,-58.63 390.77,-33.1 389.55,-19.8"/>
<polygon fill="midnightblue" stroke="midnightblue" points="442.59,-110.67 453.04,-112.42 445.96,-104.53 442.59,-110.67"/>
</g>
<!-- Node10&#45;&gt;Node9 -->
<g id="edge12" class="edge">
<title>Node10&#45;&gt;Node9</title>
<path fill="none" stroke="midnightblue" d="M965.67,-109.5C944.56,-102.73 921.53,-92.19 905,-76 888.94,-60.27 882.02,-33.57 879.39,-19.8"/>
<polygon fill="midnightblue" stroke="midnightblue" points="964.94,-112.93 975.52,-112.44 966.94,-106.23 964.94,-112.93"/>
</g>
<!-- Node11 -->
<g id="node11" class="node">
<title>Node11</title>
<g id="a_node11"><a xlink:href="examples_2simple__server_2request__listener_8cpp.html" target="_top" xlink:title=" ">
<polygon fill="none" stroke="black" points="913.5,-56.5 913.5,-75.5 1126.5,-75.5 1126.5,-56.5 913.5,-56.5"/>
<text text-anchor="middle" x="1020" y="-63.5" font-family="Helvetica,sans-Serif" font-size="10.00">examples/simple_server/request_listener.cpp</text>
</a>
</g>
</g>
<!-- Node10&#45;&gt;Node11 -->
<g id="edge13" class="edge">
<title>Node10&#45;&gt;Node11</title>
<path fill="none" stroke="midnightblue" d="M1020,-101.8C1020,-92.91 1020,-82.78 1020,-75.75"/>
<polygon fill="midnightblue" stroke="midnightblue" points="1016.5,-102.08 1020,-112.08 1023.5,-102.08 1016.5,-102.08"/>
</g>
<!-- Node13&#45;&gt;Node12 -->
<g id="edge16" class="edge">
<title>Node13&#45;&gt;Node12</title>
<path fill="none" stroke="midnightblue" d="M1257.86,-107.45C1243.71,-99.25 1226.1,-88.07 1212,-76 1191.25,-58.24 1171.19,-32.88 1161.33,-19.7"/>
<polygon fill="midnightblue" stroke="midnightblue" points="1256.16,-110.51 1266.59,-112.38 1259.61,-104.41 1256.16,-110.51"/>
</g>
<!-- Node14 -->
<g id="node14" class="node">
<title>Node14</title>
<g id="a_node14"><a xlink:href="examples_2websocket_2request__listener_8cpp.html" target="_top" xlink:title=" ">
<polygon fill="none" stroke="black" points="1221,-56.5 1221,-75.5 1421,-75.5 1421,-56.5 1221,-56.5"/>
<text text-anchor="middle" x="1321" y="-63.5" font-family="Helvetica,sans-Serif" font-size="10.00">examples/websocket/request_listener.cpp</text>
</a>
</g>
</g>
<!-- Node13&#45;&gt;Node14 -->
<g id="edge17" class="edge">
<title>Node13&#45;&gt;Node14</title>
<path fill="none" stroke="midnightblue" d="M1295.06,-103.86C1301.64,-94.5 1309.51,-83.33 1314.84,-75.75"/>
<polygon fill="midnightblue" stroke="midnightblue" points="1292.17,-101.89 1289.27,-112.08 1297.89,-105.92 1292.17,-101.89"/>
</g>
<!-- Node15&#45;&gt;Node16 -->
<g id="edge19" class="edge">
<title>Node15&#45;&gt;Node16</title>
<path fill="none" stroke="midnightblue" d="M736.45,-102.1C734.29,-93.14 731.82,-82.86 730.11,-75.75"/>
<polygon fill="midnightblue" stroke="midnightblue" points="733.11,-103.18 738.85,-112.08 739.92,-101.54 733.11,-103.18"/>
</g>
<!-- Node16&#45;&gt;Node2 -->
<g id="edge20" class="edge">
<title>Node16&#45;&gt;Node2</title>
<path fill="none" stroke="midnightblue" d="M659.55,-59.29C539.36,-49.26 290.96,-28.52 162.26,-17.78"/>
<polygon fill="midnightblue" stroke="midnightblue" points="659.47,-62.79 669.73,-60.14 660.05,-55.82 659.47,-62.79"/>
</g>
<!-- Node16&#45;&gt;Node8 -->
<g id="edge22" class="edge">
<title>Node16&#45;&gt;Node8</title>
<path fill="none" stroke="midnightblue" d="M664.3,-54.85C600.25,-44.65 502.61,-29.1 442.46,-19.52"/>
<polygon fill="midnightblue" stroke="midnightblue" points="663.86,-58.33 674.28,-56.44 664.96,-51.41 663.86,-58.33"/>
</g>
<!-- Node16&#45;&gt;Node9 -->
<g id="edge23" class="edge">
<title>Node16&#45;&gt;Node9</title>
<path fill="none" stroke="midnightblue" d="M761.22,-53.04C789.45,-42.88 829.26,-28.55 854.34,-19.52"/>
<polygon fill="midnightblue" stroke="midnightblue" points="759.99,-49.76 751.77,-56.44 762.36,-56.35 759.99,-49.76"/>
</g>
<!-- Node16&#45;&gt;Node12 -->
<g id="edge24" class="edge">
<title>Node16&#45;&gt;Node12</title>
<path fill="none" stroke="midnightblue" d="M796,-56.4C875.97,-46.29 1007.88,-29.61 1087.59,-19.52"/>
<polygon fill="midnightblue" stroke="midnightblue" points="795.51,-52.93 786.03,-57.66 796.39,-59.88 795.51,-52.93"/>
</g>
<!-- Node17 -->
<g id="node17" class="node">
<title>Node17</title>
<g id="a_node17"><a xlink:href="most__minimal_2main_8cpp.html" target="_top" xlink:title=" ">
<polygon fill="none" stroke="black" points="495.5,-0.5 495.5,-19.5 660.5,-19.5 660.5,-0.5 495.5,-0.5"/>
<text text-anchor="middle" x="578" y="-7.5" font-family="Helvetica,sans-Serif" font-size="10.00">examples/most_minimal/main.cpp</text>
</a>
</g>
</g>
<!-- Node16&#45;&gt;Node17 -->
<g id="edge21" class="edge">
<title>Node16&#45;&gt;Node17</title>
<path fill="none" stroke="midnightblue" d="M694.78,-53.04C666.55,-42.88 626.74,-28.55 601.66,-19.52"/>
<polygon fill="midnightblue" stroke="midnightblue" points="693.64,-56.35 704.23,-56.44 696.01,-49.76 693.64,-56.35"/>
</g>
<!-- Node16&#45;&gt;Node18 -->
<g id="edge25" class="edge">
<title>Node16&#45;&gt;Node18</title>
<path fill="none" stroke="midnightblue" d="M796.34,-59.44C917.94,-49.55 1171.6,-28.92 1305.28,-18.05"/>
<polygon fill="midnightblue" stroke="midnightblue" points="795.74,-55.98 786.05,-60.28 796.3,-62.96 795.74,-55.98"/>
</g>
<!-- Node19 -->
<g id="node19" class="node">
<title>Node19</title>
<g id="a_node19"><a xlink:href="server_8cpp.html" target="_top" xlink:title=" ">
<polygon fill="none" stroke="black" points="679,-0.5 679,-19.5 777,-19.5 777,-0.5 679,-0.5"/>
<text text-anchor="middle" x="728" y="-7.5" font-family="Helvetica,sans-Serif" font-size="10.00">src/roar/server.cpp</text>
</a>
</g>
</g>
<!-- Node16&#45;&gt;Node19 -->
<g id="edge26" class="edge">
<title>Node16&#45;&gt;Node19</title>
<path fill="none" stroke="midnightblue" d="M728,-45.8C728,-36.91 728,-26.78 728,-19.75"/>
<polygon fill="midnightblue" stroke="midnightblue" points="724.5,-46.08 728,-56.08 731.5,-46.08 724.5,-46.08"/>
</g>
</g>
</svg>
