<?xml version="1.0" encoding="UTF-8" standalone="no"?>
<!DOCTYPE svg PUBLIC "-//W3C//DTD SVG 1.1//EN"
 "http://www.w3.org/Graphics/SVG/1.1/DTD/svg11.dtd">
<!-- Generated by graphviz version 8.1.0 (0)
 -->
<!-- Title: Graphical Class Hierarchy Pages: 1 -->
<svg width="343pt" height="180pt"
 viewBox="0.00 0.00 343.00 180.00" xmlns="http://www.w3.org/2000/svg" xmlns:xlink="http://www.w3.org/1999/xlink">
<g id="graph0" class="graph" transform="scale(1 1) rotate(0) translate(4 176)">
<title>Graphical Class Hierarchy</title>
<!-- Node0 -->
<g id="Node000000" class="node">
<title>Node0</title>
<g id="a_Node000000"><a xlink:title=" ">
<polygon fill="#e0e0e0" stroke="#999999" points="157.75,-96 0,-96 0,-76 157.75,-76 157.75,-96"/>
<text text-anchor="middle" x="78.88" y="-82.5" font-family="Helvetica,sans-Serif" font-size="10.00">boost::spirit::x3::position_tagged</text>
</a>
</g>
</g>
<!-- Node1 -->
<g id="Node000001" class="node">
<title>Node1</title>
<g id="a_Node000001"><a xlink:href="structRoar_1_1Url.html" target="_top" xlink:title=" ">
<polygon fill="white" stroke="#666666" points="292.25,-172 236.5,-172 236.5,-152 292.25,-152 292.25,-172"/>
<text text-anchor="middle" x="264.38" y="-158.5" font-family="Helvetica,sans-Serif" font-size="10.00">Roar::Url</text>
</a>
</g>
</g>
<!-- Node0&#45;&gt;Node1 -->
<g id="edge4_Node000000_Node000001" class="edge">
<title>Node0&#45;&gt;Node1</title>
<g id="a_edge4_Node000000_Node000001"><a xlink:title=" ">
<path fill="none" stroke="#63b8ff" d="M107.22,-101.61C129.86,-114.07 163.17,-131.31 193.75,-143 207.44,-148.24 223.16,-152.65 236.2,-155.91"/>
<polygon fill="#63b8ff" stroke="#63b8ff" points="109.35,-98.24 98.91,-96.43 105.94,-104.35 109.35,-98.24"/>
</a>
</g>
</g>
<!-- Node2 -->
<g id="Node000002" class="node">
<title>Node2</title>
<g id="a_Node000002"><a xlink:href="structRoar_1_1Url_1_1Authority.html" target="_top" xlink:title=" ">
<polygon fill="white" stroke="#666666" points="314.75,-134 214,-134 214,-114 314.75,-114 314.75,-134"/>
<text text-anchor="middle" x="264.38" y="-120.5" font-family="Helvetica,sans-Serif" font-size="10.00">Roar::Url::Authority</text>
</a>
</g>
</g>
<!-- Node0&#45;&gt;Node2 -->
<g id="edge5_Node000000_Node000002" class="edge">
<title>Node0&#45;&gt;Node2</title>
<g id="a_edge5_Node000000_Node000002"><a xlink:title=" ">
<path fill="none" stroke="#63b8ff" d="M141.08,-98.67C164.63,-103.55 191.2,-109.05 213.55,-113.68"/>
<polygon fill="#63b8ff" stroke="#63b8ff" points="142,-95.08 131.5,-96.48 140.59,-101.94 142,-95.08"/>
</a>
</g>
</g>
<!-- Node3 -->
<g id="Node000003" class="node">
<title>Node3</title>
<g id="a_Node000003"><a xlink:href="structRoar_1_1Url_1_1Authority_1_1Remote.html" target="_top" xlink:title=" ">
<polygon fill="white" stroke="#666666" points="335,-96 193.75,-96 193.75,-76 335,-76 335,-96"/>
<text text-anchor="middle" x="264.38" y="-82.5" font-family="Helvetica,sans-Serif" font-size="10.00">Roar::Url::Authority::Remote</text>
</a>
</g>
</g>
<!-- Node0&#45;&gt;Node3 -->
<g id="edge6_Node000000_Node000003" class="edge">
<title>Node0&#45;&gt;Node3</title>
<g id="a_edge6_Node000000_Node000003"><a xlink:title=" ">
<path fill="none" stroke="#63b8ff" d="M168.97,-86C177.18,-86 185.41,-86 193.4,-86"/>
<polygon fill="#63b8ff" stroke="#63b8ff" points="169.23,-82.5 159.23,-86 169.23,-89.5 169.23,-82.5"/>
</a>
</g>
</g>
<!-- Node4 -->
<g id="Node000004" class="node">
<title>Node4</title>
<g id="a_Node000004"><a xlink:href="structRoar_1_1Url_1_1Host.html" target="_top" xlink:title=" ">
<polygon fill="white" stroke="#666666" points="305.75,-20 223,-20 223,0 305.75,0 305.75,-20"/>
<text text-anchor="middle" x="264.38" y="-6.5" font-family="Helvetica,sans-Serif" font-size="10.00">Roar::Url::Host</text>
</a>
</g>
</g>
<!-- Node0&#45;&gt;Node4 -->
<g id="edge7_Node000000_Node000004" class="edge">
<title>Node0&#45;&gt;Node4</title>
<g id="a_edge7_Node000000_Node000004"><a xlink:title=" ">
<path fill="none" stroke="#63b8ff" d="M107.22,-70.39C129.86,-57.93 163.17,-40.69 193.75,-29 203,-25.46 213.17,-22.3 222.81,-19.62"/>
<polygon fill="#63b8ff" stroke="#63b8ff" points="105.94,-67.65 98.91,-75.57 109.35,-73.76 105.94,-67.65"/>
</a>
</g>
</g>
<!-- Node6 -->
<g id="Node000006" class="node">
<title>Node6</title>
<g id="a_Node000006"><a xlink:href="structRoar_1_1Url_1_1UserInfo.html" target="_top" xlink:title=" ">
<polygon fill="white" stroke="#666666" points="314,-58 214.75,-58 214.75,-38 314,-38 314,-58"/>
<text text-anchor="middle" x="264.38" y="-44.5" font-family="Helvetica,sans-Serif" font-size="10.00">Roar::Url::UserInfo</text>
</a>
</g>
</g>
<!-- Node0&#45;&gt;Node6 -->
<g id="edge8_Node000000_Node000006" class="edge">
<title>Node0&#45;&gt;Node6</title>
<g id="a_edge8_Node000000_Node000006"><a xlink:title=" ">
<path fill="none" stroke="#63b8ff" d="M141.21,-73.3C165.06,-68.36 192,-62.78 214.5,-58.12"/>
<polygon fill="#63b8ff" stroke="#63b8ff" points="140.59,-70.06 131.5,-75.52 142,-76.92 140.59,-70.06"/>
</a>
</g>
</g>
<!-- Node5 -->
<g id="Node000005" class="node">
<title>Node5</title>
<g id="a_Node000005"><a xlink:title=" ">
<polygon fill="#e0e0e0" stroke="#999999" points="111.25,-20 46.5,-20 46.5,0 111.25,0 111.25,-20"/>
<text text-anchor="middle" x="78.88" y="-6.5" font-family="Helvetica,sans-Serif" font-size="10.00">std::variant</text>
</a>
</g>
</g>
<!-- Node5&#45;&gt;Node4 -->
<g id="edge9_Node000005_Node000004" class="edge">
<title>Node5&#45;&gt;Node4</title>
<g id="a_edge9_Node000005_Node000004"><a xlink:title=" ">
<path fill="none" stroke="#63b8ff" d="M122.05,-10C152.26,-10 192.72,-10 222.6,-10"/>
<polygon fill="#63b8ff" stroke="#63b8ff" points="122.42,-6.5 112.42,-10 122.42,-13.5 122.42,-6.5"/>
</a>
</g>
</g>
</g>
</svg>
