<?xml version="1.0" encoding="UTF-8" standalone="no"?>
<!DOCTYPE svg PUBLIC "-//W3C//DTD SVG 1.1//EN"
 "http://www.w3.org/Graphics/SVG/1.1/DTD/svg11.dtd">
<!-- Generated by graphviz version 2.44.1 (20211215.1903)
 -->
<!-- Title: Graphical Class Hierarchy Pages: 1 -->
<svg width="430pt" height="66pt"
 viewBox="0.00 0.00 430.00 66.00" xmlns="http://www.w3.org/2000/svg" xmlns:xlink="http://www.w3.org/1999/xlink">
<g id="graph0" class="graph" transform="scale(1 1) rotate(0) translate(4 62)">
<title>Graphical Class Hierarchy</title>
<!-- Node0 -->
<g id="node1" class="node">
<title>Node0</title>
<g id="a_node1"><a xlink:href="structRoar_1_1RouteInfoBase.html" target="_top" xlink:title="This class is what is used in ROAR_GET, ROAR_PUT, ... requests All options you can set for routes beh...">
<polygon fill="none" stroke="black" points="0,-19.5 0,-38.5 204,-38.5 204,-19.5 0,-19.5"/>
<text text-anchor="middle" x="102" y="-26.5" font-family="Helvetica,sans-Serif" font-size="10.00">Roar::RouteInfoBase&lt; RequestListenerT &gt;</text>
</a>
</g>
</g>
<!-- Node1 -->
<g id="node2" class="node">
<title>Node1</title>
<g id="a_node2"><a xlink:href="structRoar_1_1RouteInfo.html" target="_top" xlink:title=" ">
<polygon fill="none" stroke="black" points="240,-38.5 240,-57.5 422,-57.5 422,-38.5 240,-38.5"/>
<text text-anchor="middle" x="331" y="-45.5" font-family="Helvetica,sans-Serif" font-size="10.00">Roar::RouteInfo&lt; RequestListenerT &gt;</text>
</a>
</g>
</g>
<!-- Node0&#45;&gt;Node1 -->
<g id="edge1" class="edge">
<title>Node0&#45;&gt;Node1</title>
<path fill="none" stroke="midnightblue" d="M214.22,-38.31C222.77,-39.02 231.32,-39.74 239.71,-40.44"/>
<polygon fill="midnightblue" stroke="midnightblue" points="214.48,-34.82 204.22,-37.47 213.89,-41.79 214.48,-34.82"/>
</g>
<!-- Node2 -->
<g id="node3" class="node">
<title>Node2</title>
<g id="a_node3"><a xlink:href="structRoar_1_1ServeInfo.html" target="_top" xlink:title=" ">
<polygon fill="none" stroke="black" points="240.5,-0.5 240.5,-19.5 421.5,-19.5 421.5,-0.5 240.5,-0.5"/>
<text text-anchor="middle" x="331" y="-7.5" font-family="Helvetica,sans-Serif" font-size="10.00">Roar::ServeInfo&lt; RequestListenerT &gt;</text>
</a>
</g>
</g>
<!-- Node0&#45;&gt;Node2 -->
<g id="edge2" class="edge">
<title>Node0&#45;&gt;Node2</title>
<path fill="none" stroke="midnightblue" d="M214.43,-19.67C223.14,-18.94 231.87,-18.21 240.4,-17.5"/>
<polygon fill="midnightblue" stroke="midnightblue" points="213.89,-16.21 204.22,-20.53 214.48,-23.18 213.89,-16.21"/>
</g>
</g>
</svg>
