<?xml version="1.0" encoding="UTF-8" standalone="no"?>
<!DOCTYPE svg PUBLIC "-//W3C//DTD SVG 1.1//EN"
 "http://www.w3.org/Graphics/SVG/1.1/DTD/svg11.dtd">
<!-- Generated by graphviz version 8.1.0 (0)
 -->
<!-- Title: Graphical Class Hierarchy Pages: 1 -->
<svg width="925pt" height="313pt"
 viewBox="0.00 0.00 924.75 313.00" xmlns="http://www.w3.org/2000/svg" xmlns:xlink="http://www.w3.org/1999/xlink">
<g id="graph0" class="graph" transform="scale(1 1) rotate(0) translate(4 309)">
<title>Graphical Class Hierarchy</title>
<!-- Node0 -->
<g id="Node000000" class="node">
<title>Node0</title>
<g id="a_Node000000"><a xlink:title=" ">
<polygon fill="#e0e0e0" stroke="#999999" points="144.25,-172 0,-172 0,-152 144.25,-152 144.25,-172"/>
<text text-anchor="middle" x="72.12" y="-158.5" font-family="Helvetica,sans-Serif" font-size="10.00">std::enable_shared_from_this</text>
</a>
</g>
</g>
<!-- Node1 -->
<g id="Node000001" class="node">
<title>Node1</title>
<g id="a_Node000001"><a xlink:href="classRequestListener.html" target="_top" xlink:title=" ">
<polygon fill="white" stroke="#666666" points="327.88,-305 240.62,-305 240.62,-285 327.88,-285 327.88,-305"/>
<text text-anchor="middle" x="284.25" y="-291.5" font-family="Helvetica,sans-Serif" font-size="10.00">RequestListener</text>
</a>
</g>
</g>
<!-- Node0&#45;&gt;Node1 -->
<g id="edge20_Node000000_Node000001" class="edge">
<title>Node0&#45;&gt;Node1</title>
<g id="a_edge20_Node000000_Node000001"><a xlink:title=" ">
<path fill="none" stroke="#63b8ff" d="M85.28,-181.14C102.86,-207.12 137.97,-252.93 180.25,-276 198.45,-285.93 220.86,-290.78 240.13,-293.11"/>
<polygon fill="#63b8ff" stroke="#63b8ff" points="87.84,-179.67 79.42,-173.24 81.99,-183.52 87.84,-179.67"/>
</a>
</g>
</g>
<!-- Node2 -->
<g id="Node000002" class="node">
<title>Node2</title>
<g id="a_Node000002"><a xlink:href="classRoar_1_1Client.html" target="_top" xlink:title=" ">
<polygon fill="white" stroke="#666666" points="318.5,-267 250,-267 250,-247 318.5,-247 318.5,-267"/>
<text text-anchor="middle" x="284.25" y="-253.5" font-family="Helvetica,sans-Serif" font-size="10.00">Roar::Client</text>
</a>
</g>
</g>
<!-- Node0&#45;&gt;Node2 -->
<g id="edge21_Node000000_Node000002" class="edge">
<title>Node0&#45;&gt;Node2</title>
<g id="a_edge21_Node000000_Node000002"><a xlink:title=" ">
<path fill="none" stroke="#63b8ff" d="M92.08,-179.39C112.35,-197 146.22,-223.62 180.25,-238 202.36,-247.34 229.05,-252.1 249.73,-254.52"/>
<polygon fill="#63b8ff" stroke="#63b8ff" points="94.81,-177.26 85.01,-173.24 90.17,-182.49 94.81,-177.26"/>
</a>
</g>
</g>
<!-- Node3 -->
<g id="Node000003" class="node">
<title>Node3</title>
<g id="a_Node000003"><a xlink:href="classRoar_1_1Router.html" target="_top" xlink:title="The route routes http requests to their respective handler functions.">
<polygon fill="white" stroke="#666666" points="320.38,-229 248.12,-229 248.12,-209 320.38,-209 320.38,-229"/>
<text text-anchor="middle" x="284.25" y="-215.5" font-family="Helvetica,sans-Serif" font-size="10.00">Roar::Router</text>
</a>
</g>
</g>
<!-- Node0&#45;&gt;Node3 -->
<g id="edge22_Node000000_Node000003" class="edge">
<title>Node0&#45;&gt;Node3</title>
<g id="a_edge22_Node000000_Node000003"><a xlink:title=" ">
<path fill="none" stroke="#63b8ff" d="M108.93,-176.31C129.54,-184.13 156.06,-193.52 180.25,-200 202.38,-205.93 227.68,-210.62 247.66,-213.86"/>
<polygon fill="#63b8ff" stroke="#63b8ff" points="110.33,-172.71 99.74,-172.38 107.81,-179.24 110.33,-172.71"/>
</a>
</g>
</g>
<!-- Node4 -->
<g id="Node000004" class="node">
<title>Node4</title>
<g id="a_Node000004"><a xlink:href="structRoar_1_1Server_1_1Implementation.html" target="_top" xlink:title=" ">
<polygon fill="white" stroke="#666666" points="356.38,-191 212.12,-191 212.12,-171 356.38,-171 356.38,-191"/>
<text text-anchor="middle" x="284.25" y="-177.5" font-family="Helvetica,sans-Serif" font-size="10.00">Roar::Server::Implementation</text>
</a>
</g>
</g>
<!-- Node0&#45;&gt;Node4 -->
<g id="edge23_Node000000_Node000004" class="edge">
<title>Node0&#45;&gt;Node4</title>
<g id="a_edge23_Node000000_Node000004"><a xlink:title=" ">
<path fill="none" stroke="#63b8ff" d="M155.37,-169.44C173.96,-171.12 193.55,-172.89 211.66,-174.53"/>
<polygon fill="#63b8ff" stroke="#63b8ff" points="155.83,-165.87 145.56,-168.46 155.2,-172.85 155.83,-165.87"/>
</a>
</g>
</g>
<!-- Node5 -->
<g id="Node000005" class="node">
<title>Node5</title>
<g id="a_Node000005"><a xlink:href="classRoar_1_1Session.html" target="_top" xlink:title=" ">
<polygon fill="white" stroke="#666666" points="323.38,-153 245.12,-153 245.12,-133 323.38,-133 323.38,-153"/>
<text text-anchor="middle" x="284.25" y="-139.5" font-family="Helvetica,sans-Serif" font-size="10.00">Roar::Session</text>
</a>
</g>
</g>
<!-- Node0&#45;&gt;Node5 -->
<g id="edge24_Node000000_Node000005" class="edge">
<title>Node0&#45;&gt;Node5</title>
<g id="a_edge24_Node000000_Node000005"><a xlink:title=" ">
<path fill="none" stroke="#63b8ff" d="M155.32,-154.57C186.15,-151.78 219.72,-148.74 244.74,-146.48"/>
<polygon fill="#63b8ff" stroke="#63b8ff" points="155.2,-151.15 145.56,-155.54 155.83,-158.13 155.2,-151.15"/>
</a>
</g>
</g>
<!-- Node6 -->
<g id="Node000006" class="node">
<title>Node6</title>
<g id="a_Node000006"><a xlink:href="classRoar_1_1Session_1_1ReadIntermediate.html" target="_top" xlink:title="Utility class to build up read operations.">
<polygon fill="white" stroke="#666666" points="388.25,-115 180.25,-115 180.25,-95 388.25,-95 388.25,-115"/>
<text text-anchor="middle" x="284.25" y="-101.5" font-family="Helvetica,sans-Serif" font-size="10.00">Roar::Session::ReadIntermediate&lt; BodyT &gt;</text>
</a>
</g>
</g>
<!-- Node0&#45;&gt;Node6 -->
<g id="edge25_Node000000_Node000006" class="edge">
<title>Node0&#45;&gt;Node6</title>
<g id="a_edge25_Node000000_Node000006"><a xlink:title=" ">
<path fill="none" stroke="#63b8ff" d="M108.93,-147.69C129.54,-139.87 156.06,-130.48 180.25,-124 192.28,-120.78 205.25,-117.92 217.79,-115.46"/>
<polygon fill="#63b8ff" stroke="#63b8ff" points="107.81,-144.76 99.74,-151.62 110.33,-151.29 107.81,-144.76"/>
</a>
</g>
</g>
<!-- Node7 -->
<g id="Node000007" class="node">
<title>Node7</title>
<g id="a_Node000007"><a xlink:href="classRoar_1_1Session_1_1SendIntermediate.html" target="_top" xlink:title="Helper class to prepare and send a response.">
<polygon fill="white" stroke="#666666" points="387.88,-77 180.62,-77 180.62,-57 387.88,-57 387.88,-77"/>
<text text-anchor="middle" x="284.25" y="-63.5" font-family="Helvetica,sans-Serif" font-size="10.00">Roar::Session::SendIntermediate&lt; BodyT &gt;</text>
</a>
</g>
</g>
<!-- Node0&#45;&gt;Node7 -->
<g id="edge26_Node000000_Node000007" class="edge">
<title>Node0&#45;&gt;Node7</title>
<g id="a_edge26_Node000000_Node000007"><a xlink:title=" ">
<path fill="none" stroke="#63b8ff" d="M92.08,-144.61C112.35,-127 146.22,-100.38 180.25,-86 188.37,-82.57 197.12,-79.75 205.95,-77.45"/>
<polygon fill="#63b8ff" stroke="#63b8ff" points="90.17,-141.51 85.01,-150.76 94.81,-146.74 90.17,-141.51"/>
</a>
</g>
</g>
<!-- Node8 -->
<g id="Node000008" class="node">
<title>Node8</title>
<g id="a_Node000008"><a xlink:href="classRoar_1_1WebsocketBase.html" target="_top" xlink:title=" ">
<polygon fill="white" stroke="#666666" points="341.38,-39 227.12,-39 227.12,-19 341.38,-19 341.38,-39"/>
<text text-anchor="middle" x="284.25" y="-25.5" font-family="Helvetica,sans-Serif" font-size="10.00">Roar::WebsocketBase</text>
</a>
</g>
</g>
<!-- Node0&#45;&gt;Node8 -->
<g id="edge27_Node000000_Node000008" class="edge">
<title>Node0&#45;&gt;Node8</title>
<g id="a_edge27_Node000000_Node000008"><a xlink:title=" ">
<path fill="none" stroke="#63b8ff" d="M85.28,-142.86C102.86,-116.88 137.97,-71.07 180.25,-48 194.38,-40.29 211.05,-35.64 226.81,-32.86"/>
<polygon fill="#63b8ff" stroke="#63b8ff" points="81.99,-140.48 79.42,-150.76 87.84,-144.33 81.99,-140.48"/>
</a>
</g>
</g>
<!-- Node9 -->
<g id="Node000009" class="node">
<title>Node9</title>
<g id="a_Node000009"><a xlink:href="structRoar_1_1Detail_1_1SharedFromBase.html" target="_top" xlink:title=" ">
<polygon fill="white" stroke="#666666" points="748.88,-58 429.12,-58 429.12,-38 748.88,-38 748.88,-58"/>
<text text-anchor="middle" x="589" y="-44.5" font-family="Helvetica,sans-Serif" font-size="10.00">Roar::Detail::SharedFromBase&lt; WebsocketBase, WebsocketClient &gt;</text>
</a>
</g>
</g>
<!-- Node8&#45;&gt;Node9 -->
<g id="edge28_Node000008_Node000009" class="edge">
<title>Node8&#45;&gt;Node9</title>
<g id="a_edge28_Node000008_Node000009"><a xlink:title=" ">
<path fill="none" stroke="#63b8ff" d="M352.71,-33.23C375.49,-34.66 401.97,-36.32 428.78,-38.01"/>
<polygon fill="#63b8ff" stroke="#63b8ff" points="353.04,-29.68 342.84,-32.55 352.6,-36.67 353.04,-29.68"/>
</a>
</g>
</g>
<!-- Node11 -->
<g id="Node000011" class="node">
<title>Node11</title>
<g id="a_Node000011"><a xlink:href="structRoar_1_1Detail_1_1SharedFromBase.html" target="_top" xlink:title=" ">
<polygon fill="white" stroke="#666666" points="753.75,-20 424.25,-20 424.25,0 753.75,0 753.75,-20"/>
<text text-anchor="middle" x="589" y="-6.5" font-family="Helvetica,sans-Serif" font-size="10.00">Roar::Detail::SharedFromBase&lt; WebsocketBase, WebsocketSession &gt;</text>
</a>
</g>
</g>
<!-- Node8&#45;&gt;Node11 -->
<g id="edge30_Node000008_Node000011" class="edge">
<title>Node8&#45;&gt;Node11</title>
<g id="a_edge30_Node000008_Node000011"><a xlink:title=" ">
<path fill="none" stroke="#63b8ff" d="M352.72,-24.77C374.14,-23.42 398.82,-21.87 423.98,-20.29"/>
<polygon fill="#63b8ff" stroke="#63b8ff" points="352.6,-21.33 342.84,-25.45 353.04,-28.32 352.6,-21.33"/>
</a>
</g>
</g>
<!-- Node10 -->
<g id="Node000010" class="node">
<title>Node10</title>
<g id="a_Node000010"><a xlink:href="classRoar_1_1WebsocketClient.html" target="_top" xlink:title=" ">
<polygon fill="white" stroke="#666666" points="911.88,-58 794.62,-58 794.62,-38 911.88,-38 911.88,-58"/>
<text text-anchor="middle" x="853.25" y="-44.5" font-family="Helvetica,sans-Serif" font-size="10.00">Roar::WebsocketClient</text>
</a>
</g>
</g>
<!-- Node9&#45;&gt;Node10 -->
<g id="edge29_Node000009_Node000010" class="edge">
<title>Node9&#45;&gt;Node10</title>
<g id="a_edge29_Node000009_Node000010"><a xlink:title=" ">
<path fill="none" stroke="#63b8ff" d="M760.04,-48C772.08,-48 783.63,-48 794.25,-48"/>
<polygon fill="#63b8ff" stroke="#63b8ff" points="760.35,-44.5 750.35,-48 760.35,-51.5 760.35,-44.5"/>
</a>
</g>
</g>
<!-- Node12 -->
<g id="Node000012" class="node">
<title>Node12</title>
<g id="a_Node000012"><a xlink:href="classRoar_1_1WebsocketSession.html" target="_top" xlink:title="A WebsocketSession allows you to interact with a client via websocket protocol.">
<polygon fill="white" stroke="#666666" points="916.75,-20 789.75,-20 789.75,0 916.75,0 916.75,-20"/>
<text text-anchor="middle" x="853.25" y="-6.5" font-family="Helvetica,sans-Serif" font-size="10.00">Roar::WebsocketSession</text>
</a>
</g>
</g>
<!-- Node11&#45;&gt;Node12 -->
<g id="edge31_Node000011_Node000012" class="edge">
<title>Node11&#45;&gt;Node12</title>
<g id="a_edge31_Node000011_Node000012"><a xlink:title=" ">
<path fill="none" stroke="#63b8ff" d="M765.04,-10C773.48,-10 781.64,-10 789.36,-10"/>
<polygon fill="#63b8ff" stroke="#63b8ff" points="765.22,-6.5 755.22,-10 765.22,-13.5 765.22,-6.5"/>
</a>
</g>
</g>
</g>
</svg>
