<?xml version="1.0" encoding="UTF-8" standalone="no"?>
<!DOCTYPE svg PUBLIC "-//W3C//DTD SVG 1.1//EN"
 "http://www.w3.org/Graphics/SVG/1.1/DTD/svg11.dtd">
<!-- Generated by graphviz version 2.44.1 (20211215.1903)
 -->
<!-- Title: Graphical Class Hierarchy Pages: 1 -->
<svg width="928pt" height="275pt"
 viewBox="0.00 0.00 928.00 275.00" xmlns="http://www.w3.org/2000/svg" xmlns:xlink="http://www.w3.org/1999/xlink">
<g id="graph0" class="graph" transform="scale(1 1) rotate(0) translate(4 271)">
<title>Graphical Class Hierarchy</title>
<!-- Node0 -->
<g id="node1" class="node">
<title>Node0</title>
<g id="a_node1"><a xlink:title=" ">
<polygon fill="none" stroke="#bfbfbf" points="0,-133.5 0,-152.5 145,-152.5 145,-133.5 0,-133.5"/>
<text text-anchor="middle" x="72.5" y="-140.5" font-family="Helvetica,sans-Serif" font-size="10.00">std::enable_shared_from_this</text>
</a>
</g>
</g>
<!-- Node1 -->
<g id="node2" class="node">
<title>Node1</title>
<g id="a_node2"><a xlink:href="classRequestListener.html" target="_top" xlink:title=" ">
<polygon fill="none" stroke="black" points="241.5,-247.5 241.5,-266.5 329.5,-266.5 329.5,-247.5 241.5,-247.5"/>
<text text-anchor="middle" x="285.5" y="-254.5" font-family="Helvetica,sans-Serif" font-size="10.00">RequestListener</text>
</a>
</g>
</g>
<!-- Node0&#45;&gt;Node1 -->
<g id="edge1" class="edge">
<title>Node0&#45;&gt;Node1</title>
<path fill="none" stroke="midnightblue" d="M87.84,-160.53C106.77,-182.38 142.24,-219.15 181,-238 199.65,-247.07 222.1,-251.83 241.33,-254.32"/>
<polygon fill="midnightblue" stroke="midnightblue" points="90.34,-158.07 81.21,-152.69 85,-162.59 90.34,-158.07"/>
</g>
<!-- Node2 -->
<g id="node3" class="node">
<title>Node2</title>
<g id="a_node3"><a xlink:href="classRoar_1_1Router.html" target="_top" xlink:title="The route routes http requests to their respective handler functions.">
<polygon fill="none" stroke="black" points="249,-209.5 249,-228.5 322,-228.5 322,-209.5 249,-209.5"/>
<text text-anchor="middle" x="285.5" y="-216.5" font-family="Helvetica,sans-Serif" font-size="10.00">Roar::Router</text>
</a>
</g>
</g>
<!-- Node0&#45;&gt;Node2 -->
<g id="edge2" class="edge">
<title>Node0&#45;&gt;Node2</title>
<path fill="none" stroke="midnightblue" d="M96.75,-158.02C117.9,-171.03 150.41,-189.37 181,-200 202.92,-207.62 228.56,-212.35 248.84,-215.19"/>
<polygon fill="midnightblue" stroke="midnightblue" points="98.48,-154.98 88.14,-152.64 94.77,-160.91 98.48,-154.98"/>
</g>
<!-- Node3 -->
<g id="node4" class="node">
<title>Node3</title>
<g id="a_node4"><a xlink:href="structRoar_1_1Server_1_1Implementation.html" target="_top" xlink:title=" ">
<polygon fill="none" stroke="black" points="213,-171.5 213,-190.5 358,-190.5 358,-171.5 213,-171.5"/>
<text text-anchor="middle" x="285.5" y="-178.5" font-family="Helvetica,sans-Serif" font-size="10.00">Roar::Server::Implementation</text>
</a>
</g>
</g>
<!-- Node0&#45;&gt;Node3 -->
<g id="edge3" class="edge">
<title>Node0&#45;&gt;Node3</title>
<path fill="none" stroke="midnightblue" d="M136.51,-154.35C166.78,-159.8 202.66,-166.26 231.51,-171.46"/>
<polygon fill="midnightblue" stroke="midnightblue" points="136.93,-150.87 126.47,-152.54 135.69,-157.76 136.93,-150.87"/>
</g>
<!-- Node4 -->
<g id="node5" class="node">
<title>Node4</title>
<g id="a_node5"><a xlink:href="classRoar_1_1Session.html" target="_top" xlink:title=" ">
<polygon fill="none" stroke="black" points="246,-133.5 246,-152.5 325,-152.5 325,-133.5 246,-133.5"/>
<text text-anchor="middle" x="285.5" y="-140.5" font-family="Helvetica,sans-Serif" font-size="10.00">Roar::Session</text>
</a>
</g>
</g>
<!-- Node0&#45;&gt;Node4 -->
<g id="edge4" class="edge">
<title>Node0&#45;&gt;Node4</title>
<path fill="none" stroke="midnightblue" d="M155.23,-143C186.4,-143 220.49,-143 245.83,-143"/>
<polygon fill="midnightblue" stroke="midnightblue" points="155.23,-139.5 145.23,-143 155.23,-146.5 155.23,-139.5"/>
</g>
<!-- Node5 -->
<g id="node6" class="node">
<title>Node5</title>
<g id="a_node6"><a xlink:href="classRoar_1_1Session_1_1ReadIntermediate.html" target="_top" xlink:title="Utility class to build up read operations.">
<polygon fill="none" stroke="black" points="181,-95.5 181,-114.5 390,-114.5 390,-95.5 181,-95.5"/>
<text text-anchor="middle" x="285.5" y="-102.5" font-family="Helvetica,sans-Serif" font-size="10.00">Roar::Session::ReadIntermediate&lt; BodyT &gt;</text>
</a>
</g>
</g>
<!-- Node0&#45;&gt;Node5 -->
<g id="edge5" class="edge">
<title>Node0&#45;&gt;Node5</title>
<path fill="none" stroke="midnightblue" d="M136.51,-131.65C166.78,-126.2 202.66,-119.74 231.51,-114.54"/>
<polygon fill="midnightblue" stroke="midnightblue" points="135.69,-128.24 126.47,-133.46 136.93,-135.13 135.69,-128.24"/>
</g>
<!-- Node6 -->
<g id="node7" class="node">
<title>Node6</title>
<g id="a_node7"><a xlink:href="classRoar_1_1Session_1_1SendIntermediate.html" target="_top" xlink:title="Helper class to prepare and send a response.">
<polygon fill="none" stroke="black" points="181.5,-57.5 181.5,-76.5 389.5,-76.5 389.5,-57.5 181.5,-57.5"/>
<text text-anchor="middle" x="285.5" y="-64.5" font-family="Helvetica,sans-Serif" font-size="10.00">Roar::Session::SendIntermediate&lt; BodyT &gt;</text>
</a>
</g>
</g>
<!-- Node0&#45;&gt;Node6 -->
<g id="edge6" class="edge">
<title>Node0&#45;&gt;Node6</title>
<path fill="none" stroke="midnightblue" d="M96.75,-127.98C117.9,-114.97 150.41,-96.63 181,-86 192.04,-82.16 204.03,-79.05 215.81,-76.55"/>
<polygon fill="midnightblue" stroke="midnightblue" points="94.77,-125.09 88.14,-133.36 98.48,-131.02 94.77,-125.09"/>
</g>
<!-- Node7 -->
<g id="node8" class="node">
<title>Node7</title>
<g id="a_node8"><a xlink:href="classRoar_1_1WebsocketBase.html" target="_top" xlink:title=" ">
<polygon fill="none" stroke="black" points="228,-19.5 228,-38.5 343,-38.5 343,-19.5 228,-19.5"/>
<text text-anchor="middle" x="285.5" y="-26.5" font-family="Helvetica,sans-Serif" font-size="10.00">Roar::WebsocketBase</text>
</a>
</g>
</g>
<!-- Node0&#45;&gt;Node7 -->
<g id="edge7" class="edge">
<title>Node0&#45;&gt;Node7</title>
<path fill="none" stroke="midnightblue" d="M87.84,-125.47C106.77,-103.62 142.24,-66.85 181,-48 195.46,-40.97 212.21,-36.53 227.96,-33.72"/>
<polygon fill="midnightblue" stroke="midnightblue" points="85,-123.41 81.21,-133.31 90.34,-127.93 85,-123.41"/>
</g>
<!-- Node8 -->
<g id="node9" class="node">
<title>Node8</title>
<g id="a_node9"><a xlink:href="structRoar_1_1Detail_1_1SharedFromBase.html" target="_top" xlink:title=" ">
<polygon fill="none" stroke="black" points="431,-38.5 431,-57.5 751,-57.5 751,-38.5 431,-38.5"/>
<text text-anchor="middle" x="591" y="-45.5" font-family="Helvetica,sans-Serif" font-size="10.00">Roar::Detail::SharedFromBase&lt; WebsocketBase, WebsocketClient &gt;</text>
</a>
</g>
</g>
<!-- Node7&#45;&gt;Node8 -->
<g id="edge8" class="edge">
<title>Node7&#45;&gt;Node8</title>
<path fill="none" stroke="midnightblue" d="M353.36,-33.19C378.54,-34.76 408.32,-36.63 438.1,-38.49"/>
<polygon fill="midnightblue" stroke="midnightblue" points="353.43,-29.68 343.23,-32.55 352.99,-36.67 353.43,-29.68"/>
</g>
<!-- Node10 -->
<g id="node11" class="node">
<title>Node10</title>
<g id="a_node11"><a xlink:href="structRoar_1_1Detail_1_1SharedFromBase.html" target="_top" xlink:title=" ">
<polygon fill="none" stroke="black" points="426,-0.5 426,-19.5 756,-19.5 756,-0.5 426,-0.5"/>
<text text-anchor="middle" x="591" y="-7.5" font-family="Helvetica,sans-Serif" font-size="10.00">Roar::Detail::SharedFromBase&lt; WebsocketBase, WebsocketSession &gt;</text>
</a>
</g>
</g>
<!-- Node7&#45;&gt;Node10 -->
<g id="edge10" class="edge">
<title>Node7&#45;&gt;Node10</title>
<path fill="none" stroke="midnightblue" d="M353.36,-24.81C378.54,-23.24 408.32,-21.37 438.1,-19.51"/>
<polygon fill="midnightblue" stroke="midnightblue" points="352.99,-21.33 343.23,-25.45 353.43,-28.32 352.99,-21.33"/>
</g>
<!-- Node9 -->
<g id="node10" class="node">
<title>Node9</title>
<g id="a_node10"><a xlink:href="classRoar_1_1WebsocketClient.html" target="_top" xlink:title=" ">
<polygon fill="none" stroke="black" points="797,-38.5 797,-57.5 915,-57.5 915,-38.5 797,-38.5"/>
<text text-anchor="middle" x="856" y="-45.5" font-family="Helvetica,sans-Serif" font-size="10.00">Roar::WebsocketClient</text>
</a>
</g>
</g>
<!-- Node8&#45;&gt;Node9 -->
<g id="edge9" class="edge">
<title>Node8&#45;&gt;Node9</title>
<path fill="none" stroke="midnightblue" d="M761.24,-48C773.81,-48 785.88,-48 796.93,-48"/>
<polygon fill="midnightblue" stroke="midnightblue" points="761.06,-44.5 751.06,-48 761.06,-51.5 761.06,-44.5"/>
</g>
<!-- Node11 -->
<g id="node12" class="node">
<title>Node11</title>
<g id="a_node12"><a xlink:href="classRoar_1_1WebsocketSession.html" target="_top" xlink:title="A WebsocketSession allows you to interact with a client via websocket protocol.">
<polygon fill="none" stroke="black" points="792,-0.5 792,-19.5 920,-19.5 920,-0.5 792,-0.5"/>
<text text-anchor="middle" x="856" y="-7.5" font-family="Helvetica,sans-Serif" font-size="10.00">Roar::WebsocketSession</text>
</a>
</g>
</g>
<!-- Node10&#45;&gt;Node11 -->
<g id="edge11" class="edge">
<title>Node10&#45;&gt;Node11</title>
<path fill="none" stroke="midnightblue" d="M766.44,-10C775.3,-10 783.86,-10 791.95,-10"/>
<polygon fill="midnightblue" stroke="midnightblue" points="766.32,-6.5 756.32,-10 766.32,-13.5 766.32,-6.5"/>
</g>
</g>
</svg>
