<?xml version="1.0" encoding="UTF-8" standalone="no"?>
<!DOCTYPE svg PUBLIC "-//W3C//DTD SVG 1.1//EN"
 "http://www.w3.org/Graphics/SVG/1.1/DTD/svg11.dtd">
<!-- Generated by graphviz version 8.1.0 (0)
 -->
<!-- Title: src/roar/url/ipv6.cpp Pages: 1 -->
<svg width="434pt" height="140pt"
 viewBox="0.00 0.00 434.00 140.00" xmlns="http://www.w3.org/2000/svg" xmlns:xlink="http://www.w3.org/1999/xlink">
<g id="graph0" class="graph" transform="scale(1 1) rotate(0) translate(4 136)">
<title>src/roar/url/ipv6.cpp</title>
<!-- Node1 -->
<g id="Node000001" class="node">
<title>Node1</title>
<g id="a_Node000001"><a xlink:title=" ">
<polygon fill="#999999" stroke="#666666" points="382.5,-132 280.25,-132 280.25,-112 382.5,-112 382.5,-132"/>
<text text-anchor="middle" x="331.38" y="-118.5" font-family="Helvetica,sans-Serif" font-size="10.00">src/roar/url/ipv6.cpp</text>
</a>
</g>
</g>
<!-- Node2 -->
<g id="Node000002" class="node">
<title>Node2</title>
<g id="a_Node000002"><a xlink:href="ipv6_8hpp.html" target="_top" xlink:title=" ">
<polygon fill="white" stroke="#666666" points="288.25,-76 202.5,-76 202.5,-56 288.25,-56 288.25,-76"/>
<text text-anchor="middle" x="245.38" y="-62.5" font-family="Helvetica,sans-Serif" font-size="10.00">roar/url/ipv6.hpp</text>
</a>
</g>
</g>
<!-- Node1&#45;&gt;Node2 -->
<g id="edge1_Node000001_Node000002" class="edge">
<title>Node1&#45;&gt;Node2</title>
<g id="a_edge1_Node000001_Node000002"><a xlink:title=" ">
<path fill="none" stroke="#63b8ff" d="M316.39,-111.59C303.53,-103.51 284.73,-91.71 269.7,-82.27"/>
<polygon fill="#63b8ff" stroke="#63b8ff" points="271.8,-78.83 261.47,-76.48 268.08,-84.76 271.8,-78.83"/>
</a>
</g>
</g>
<!-- Node7 -->
<g id="Node000007" class="node">
<title>Node7</title>
<g id="a_Node000007"><a xlink:title=" ">
<polygon fill="#e0e0e0" stroke="#999999" points="356.25,-76 306.5,-76 306.5,-56 356.25,-56 356.25,-76"/>
<text text-anchor="middle" x="331.38" y="-62.5" font-family="Helvetica,sans-Serif" font-size="10.00">iomanip</text>
</a>
</g>
</g>
<!-- Node1&#45;&gt;Node7 -->
<g id="edge6_Node000001_Node000007" class="edge">
<title>Node1&#45;&gt;Node7</title>
<g id="a_edge6_Node000001_Node000007"><a xlink:title=" ">
<path fill="none" stroke="#63b8ff" d="M331.38,-111.59C331.38,-104.86 331.38,-95.53 331.38,-87.15"/>
<polygon fill="#63b8ff" stroke="#63b8ff" points="334.88,-87.3 331.38,-77.3 327.88,-87.3 334.88,-87.3"/>
</a>
</g>
</g>
<!-- Node8 -->
<g id="Node000008" class="node">
<title>Node8</title>
<g id="a_Node000008"><a xlink:title=" ">
<polygon fill="#e0e0e0" stroke="#999999" points="426,-76 374.75,-76 374.75,-56 426,-56 426,-76"/>
<text text-anchor="middle" x="400.38" y="-62.5" font-family="Helvetica,sans-Serif" font-size="10.00">sstream</text>
</a>
</g>
</g>
<!-- Node1&#45;&gt;Node8 -->
<g id="edge7_Node000001_Node000008" class="edge">
<title>Node1&#45;&gt;Node8</title>
<g id="a_edge7_Node000001_Node000008"><a xlink:title=" ">
<path fill="none" stroke="#63b8ff" d="M343.39,-111.59C353.49,-103.7 368.12,-92.24 380.04,-82.92"/>
<polygon fill="#63b8ff" stroke="#63b8ff" points="381.78,-85.22 387.49,-76.3 377.46,-79.71 381.78,-85.22"/>
</a>
</g>
</g>
<!-- Node3 -->
<g id="Node000003" class="node">
<title>Node3</title>
<g id="a_Node000003"><a xlink:title=" ">
<polygon fill="#e0e0e0" stroke="#999999" points="178.75,-20 0,-20 0,0 178.75,0 178.75,-20"/>
<text text-anchor="middle" x="89.38" y="-6.5" font-family="Helvetica,sans-Serif" font-size="10.00">boost/fusion/include/adapt_struct.hpp</text>
</a>
</g>
</g>
<!-- Node2&#45;&gt;Node3 -->
<g id="edge2_Node000002_Node000003" class="edge">
<title>Node2&#45;&gt;Node3</title>
<g id="a_edge2_Node000002_Node000003"><a xlink:title=" ">
<path fill="none" stroke="#63b8ff" d="M218.2,-55.59C192.97,-46.86 155.16,-33.77 127.02,-24.03"/>
<polygon fill="#63b8ff" stroke="#63b8ff" points="128.35,-20.44 117.76,-20.48 126.07,-27.06 128.35,-20.44"/>
</a>
</g>
</g>
<!-- Node4 -->
<g id="Node000004" class="node">
<title>Node4</title>
<g id="a_Node000004"><a xlink:title=" ">
<polygon fill="#e0e0e0" stroke="#999999" points="234.25,-20 196.5,-20 196.5,0 234.25,0 234.25,-20"/>
<text text-anchor="middle" x="215.38" y="-6.5" font-family="Helvetica,sans-Serif" font-size="10.00">array</text>
</a>
</g>
</g>
<!-- Node2&#45;&gt;Node4 -->
<g id="edge3_Node000002_Node000004" class="edge">
<title>Node2&#45;&gt;Node4</title>
<g id="a_edge3_Node000002_Node000004"><a xlink:title=" ">
<path fill="none" stroke="#63b8ff" d="M240.15,-55.59C236.19,-48.47 230.63,-38.45 225.77,-29.72"/>
<polygon fill="#63b8ff" stroke="#63b8ff" points="228.46,-28.34 220.54,-21.3 222.34,-31.74 228.46,-28.34"/>
</a>
</g>
</g>
<!-- Node5 -->
<g id="Node000005" class="node">
<title>Node5</title>
<g id="a_Node000005"><a xlink:title=" ">
<polygon fill="#e0e0e0" stroke="#999999" points="298,-20 252.75,-20 252.75,0 298,0 298,-20"/>
<text text-anchor="middle" x="275.38" y="-6.5" font-family="Helvetica,sans-Serif" font-size="10.00">cstdint</text>
</a>
</g>
</g>
<!-- Node2&#45;&gt;Node5 -->
<g id="edge4_Node000002_Node000005" class="edge">
<title>Node2&#45;&gt;Node5</title>
<g id="a_edge4_Node000002_Node000005"><a xlink:title=" ">
<path fill="none" stroke="#63b8ff" d="M250.6,-55.59C254.56,-48.47 260.12,-38.45 264.98,-29.72"/>
<polygon fill="#63b8ff" stroke="#63b8ff" points="268.41,-31.74 270.21,-21.3 262.29,-28.34 268.41,-31.74"/>
</a>
</g>
</g>
<!-- Node6 -->
<g id="Node000006" class="node">
<title>Node6</title>
<g id="a_Node000006"><a xlink:title=" ">
<polygon fill="#e0e0e0" stroke="#999999" points="356.38,-20 316.38,-20 316.38,0 356.38,0 356.38,-20"/>
<text text-anchor="middle" x="336.38" y="-6.5" font-family="Helvetica,sans-Serif" font-size="10.00">string</text>
</a>
</g>
</g>
<!-- Node2&#45;&gt;Node6 -->
<g id="edge5_Node000002_Node000006" class="edge">
<title>Node2&#45;&gt;Node6</title>
<g id="a_edge5_Node000002_Node000006"><a xlink:title=" ">
<path fill="none" stroke="#63b8ff" d="M261.23,-55.59C274.97,-47.44 295.12,-35.48 311.09,-26"/>
<polygon fill="#63b8ff" stroke="#63b8ff" points="312.59,-28.59 319.4,-20.48 309.01,-22.57 312.59,-28.59"/>
</a>
</g>
</g>
</g>
</svg>
