<?xml version="1.0" encoding="UTF-8" standalone="no"?>
<!DOCTYPE svg PUBLIC "-//W3C//DTD SVG 1.1//EN"
 "http://www.w3.org/Graphics/SVG/1.1/DTD/svg11.dtd">
<!-- Generated by graphviz version 8.1.0 (0)
 -->
<!-- Title: include/roar/url/ipv6.hpp Pages: 1 -->
<svg width="408pt" height="140pt"
 viewBox="0.00 0.00 407.88 140.00" xmlns="http://www.w3.org/2000/svg" xmlns:xlink="http://www.w3.org/1999/xlink">
<g id="graph0" class="graph" transform="scale(1 1) rotate(0) translate(4 136)">
<title>include/roar/url/ipv6.hpp</title>
<!-- Node1 -->
<g id="Node000001" class="node">
<title>Node1</title>
<g id="a_Node000001"><a xlink:title=" ">
<polygon fill="#999999" stroke="#666666" points="283.5,-132 164,-132 164,-112 283.5,-112 283.5,-132"/>
<text text-anchor="middle" x="223.75" y="-118.5" font-family="Helvetica,sans-Serif" font-size="10.00">include/roar/url/ipv6.hpp</text>
</a>
</g>
</g>
<!-- Node2 -->
<g id="Node000002" class="node">
<title>Node2</title>
<g id="a_Node000002"><a xlink:href="parser_2ipv6_8hpp.html" target="_top" xlink:title=" ">
<polygon fill="white" stroke="#666666" points="149.5,-76 0,-76 0,-56 149.5,-56 149.5,-76"/>
<text text-anchor="middle" x="74.75" y="-62.5" font-family="Helvetica,sans-Serif" font-size="10.00">include/roar/url/parser/ipv6.hpp</text>
</a>
</g>
</g>
<!-- Node1&#45;&gt;Node2 -->
<g id="edge1_Node000001_Node000002" class="edge">
<title>Node1&#45;&gt;Node2</title>
<g id="a_edge1_Node000001_Node000002"><a xlink:title=" ">
<path fill="none" stroke="#63b8ff" d="M187.66,-107.92C160.87,-98.21 124.97,-85.2 100.91,-76.48"/>
<polygon fill="#63b8ff" stroke="#63b8ff" points="186.2,-111.48 196.8,-111.59 188.59,-104.9 186.2,-111.48"/>
</a>
</g>
</g>
<!-- Node4 -->
<g id="Node000004" class="node">
<title>Node4</title>
<g id="a_Node000004"><a xlink:href="url_8hpp.html" target="_top" xlink:title=" ">
<polygon fill="white" stroke="#666666" points="279.75,-76 167.75,-76 167.75,-56 279.75,-56 279.75,-76"/>
<text text-anchor="middle" x="223.75" y="-62.5" font-family="Helvetica,sans-Serif" font-size="10.00">include/roar/url/url.hpp</text>
</a>
</g>
</g>
<!-- Node1&#45;&gt;Node4 -->
<g id="edge3_Node000001_Node000004" class="edge">
<title>Node1&#45;&gt;Node4</title>
<g id="a_edge3_Node000001_Node000004"><a xlink:title=" ">
<path fill="none" stroke="#63b8ff" d="M223.75,-100.71C223.75,-92.32 223.75,-83.01 223.75,-76.3"/>
<polygon fill="#63b8ff" stroke="#63b8ff" points="220.25,-100.59 223.75,-110.59 227.25,-100.59 220.25,-100.59"/>
</a>
</g>
</g>
<!-- Node5 -->
<g id="Node000005" class="node">
<title>Node5</title>
<g id="a_Node000005"><a xlink:href="ipv6_8cpp.html" target="_top" xlink:title=" ">
<polygon fill="white" stroke="#666666" points="399.88,-76 297.62,-76 297.62,-56 399.88,-56 399.88,-76"/>
<text text-anchor="middle" x="348.75" y="-62.5" font-family="Helvetica,sans-Serif" font-size="10.00">src/roar/url/ipv6.cpp</text>
</a>
</g>
</g>
<!-- Node1&#45;&gt;Node5 -->
<g id="edge5_Node000001_Node000005" class="edge">
<title>Node1&#45;&gt;Node5</title>
<g id="a_edge5_Node000001_Node000005"><a xlink:title=" ">
<path fill="none" stroke="#63b8ff" d="M255.53,-107.27C277.83,-97.64 307.07,-85.01 326.81,-76.48"/>
<polygon fill="#63b8ff" stroke="#63b8ff" points="254.32,-104.42 246.52,-111.59 257.09,-110.84 254.32,-104.42"/>
</a>
</g>
</g>
<!-- Node3 -->
<g id="Node000003" class="node">
<title>Node3</title>
<g id="a_Node000003"><a xlink:href="url_8cpp.html" target="_top" xlink:title=" ">
<polygon fill="white" stroke="#666666" points="196.12,-20 101.38,-20 101.38,0 196.12,0 196.12,-20"/>
<text text-anchor="middle" x="148.75" y="-6.5" font-family="Helvetica,sans-Serif" font-size="10.00">src/roar/url/url.cpp</text>
</a>
</g>
</g>
<!-- Node2&#45;&gt;Node3 -->
<g id="edge2_Node000002_Node000003" class="edge">
<title>Node2&#45;&gt;Node3</title>
<g id="a_edge2_Node000002_Node000003"><a xlink:title=" ">
<path fill="none" stroke="#63b8ff" d="M96.36,-49.23C109.23,-39.84 125.12,-28.24 136.01,-20.3"/>
<polygon fill="#63b8ff" stroke="#63b8ff" points="94.65,-46.87 88.64,-55.59 98.78,-52.53 94.65,-46.87"/>
</a>
</g>
</g>
<!-- Node4&#45;&gt;Node3 -->
<g id="edge4_Node000004_Node000003" class="edge">
<title>Node4&#45;&gt;Node3</title>
<g id="a_edge4_Node000004_Node000003"><a xlink:title=" ">
<path fill="none" stroke="#63b8ff" d="M201.9,-49.27C188.95,-39.94 172.96,-28.43 161.92,-20.48"/>
<polygon fill="#63b8ff" stroke="#63b8ff" points="199.53,-52.59 209.69,-55.59 203.62,-46.91 199.53,-52.59"/>
</a>
</g>
</g>
</g>
</svg>
