<?xml version="1.0" encoding="UTF-8" standalone="no"?>
<!DOCTYPE svg PUBLIC "-//W3C//DTD SVG 1.1//EN"
 "http://www.w3.org/Graphics/SVG/1.1/DTD/svg11.dtd">
<!-- Generated by graphviz version 2.44.1 (20211215.1903)
 -->
<!-- Title: src/roar/filesystem/jail.cpp Pages: 1 -->
<svg width="193pt" height="140pt"
 viewBox="0.00 0.00 192.50 140.00" xmlns="http://www.w3.org/2000/svg" xmlns:xlink="http://www.w3.org/1999/xlink">
<g id="graph0" class="graph" transform="scale(1 1) rotate(0) translate(4 136)">
<title>src/roar/filesystem/jail.cpp</title>
<!-- Node1 -->
<g id="node1" class="node">
<title>Node1</title>
<g id="a_node1"><a xlink:title=" ">
<polygon fill="#bfbfbf" stroke="black" points="50.5,-112.5 50.5,-131.5 181.5,-131.5 181.5,-112.5 50.5,-112.5"/>
<text text-anchor="middle" x="116" y="-119.5" font-family="Helvetica,sans-Serif" font-size="10.00">src/roar/filesystem/jail.cpp</text>
</a>
</g>
</g>
<!-- Node2 -->
<g id="node2" class="node">
<title>Node2</title>
<g id="a_node2"><a xlink:href="jail_8hpp.html" target="_top" xlink:title=" ">
<polygon fill="none" stroke="black" points="10.5,-56.5 10.5,-75.5 125.5,-75.5 125.5,-56.5 10.5,-56.5"/>
<text text-anchor="middle" x="68" y="-63.5" font-family="Helvetica,sans-Serif" font-size="10.00">roar/filesystem/jail.hpp</text>
</a>
</g>
</g>
<!-- Node1&#45;&gt;Node2 -->
<g id="edge1" class="edge">
<title>Node1&#45;&gt;Node2</title>
<path fill="none" stroke="midnightblue" d="M108.07,-112.08C101.15,-104.3 90.93,-92.8 82.55,-83.37"/>
<polygon fill="midnightblue" stroke="midnightblue" points="85.04,-80.9 75.78,-75.75 79.81,-85.55 85.04,-80.9"/>
</g>
<!-- Node5 -->
<g id="node5" class="node">
<title>Node5</title>
<g id="a_node5"><a xlink:title=" ">
<polygon fill="none" stroke="#bfbfbf" points="143.5,-56.5 143.5,-75.5 184.5,-75.5 184.5,-56.5 143.5,-56.5"/>
<text text-anchor="middle" x="164" y="-63.5" font-family="Helvetica,sans-Serif" font-size="10.00">string</text>
</a>
</g>
</g>
<!-- Node1&#45;&gt;Node5 -->
<g id="edge4" class="edge">
<title>Node1&#45;&gt;Node5</title>
<path fill="none" stroke="midnightblue" d="M123.93,-112.08C130.85,-104.3 141.07,-92.8 149.45,-83.37"/>
<polygon fill="midnightblue" stroke="midnightblue" points="152.19,-85.55 156.22,-75.75 146.96,-80.9 152.19,-85.55"/>
</g>
<!-- Node3 -->
<g id="node3" class="node">
<title>Node3</title>
<g id="a_node3"><a xlink:title=" ">
<polygon fill="none" stroke="#bfbfbf" points="0,-0.5 0,-19.5 62,-19.5 62,-0.5 0,-0.5"/>
<text text-anchor="middle" x="31" y="-7.5" font-family="Helvetica,sans-Serif" font-size="10.00">filesystem</text>
</a>
</g>
</g>
<!-- Node2&#45;&gt;Node3 -->
<g id="edge2" class="edge">
<title>Node2&#45;&gt;Node3</title>
<path fill="none" stroke="midnightblue" d="M61.89,-56.08C56.72,-48.53 49.15,-37.49 42.81,-28.23"/>
<polygon fill="midnightblue" stroke="midnightblue" points="45.54,-26.02 37,-19.75 39.76,-29.98 45.54,-26.02"/>
</g>
<!-- Node4 -->
<g id="node4" class="node">
<title>Node4</title>
<g id="a_node4"><a xlink:title=" ">
<polygon fill="none" stroke="#bfbfbf" points="80,-0.5 80,-19.5 130,-19.5 130,-0.5 80,-0.5"/>
<text text-anchor="middle" x="105" y="-7.5" font-family="Helvetica,sans-Serif" font-size="10.00">optional</text>
</a>
</g>
</g>
<!-- Node2&#45;&gt;Node4 -->
<g id="edge3" class="edge">
<title>Node2&#45;&gt;Node4</title>
<path fill="none" stroke="midnightblue" d="M74.11,-56.08C79.28,-48.53 86.85,-37.49 93.19,-28.23"/>
<polygon fill="midnightblue" stroke="midnightblue" points="96.24,-29.98 99,-19.75 90.46,-26.02 96.24,-29.98"/>
</g>
</g>
</svg>
