<?xml version="1.0" encoding="UTF-8" standalone="no"?>
<!DOCTYPE svg PUBLIC "-//W3C//DTD SVG 1.1//EN"
 "http://www.w3.org/Graphics/SVG/1.1/DTD/svg11.dtd">
<!-- Generated by graphviz version 8.1.0 (0)
 -->
<!-- Title: src/roar/ssl/make_ssl_context.cpp Pages: 1 -->
<svg width="431pt" height="140pt"
 viewBox="0.00 0.00 431.25 140.00" xmlns="http://www.w3.org/2000/svg" xmlns:xlink="http://www.w3.org/1999/xlink">
<g id="graph0" class="graph" transform="scale(1 1) rotate(0) translate(4 136)">
<title>src/roar/ssl/make_ssl_context.cpp</title>
<!-- Node1 -->
<g id="Node000001" class="node">
<title>Node1</title>
<g id="a_Node000001"><a xlink:title=" ">
<polygon fill="#999999" stroke="#666666" points="363.38,-132 197.38,-132 197.38,-112 363.38,-112 363.38,-132"/>
<text text-anchor="middle" x="280.38" y="-118.5" font-family="Helvetica,sans-Serif" font-size="10.00">src/roar/ssl/make_ssl_context.cpp</text>
</a>
</g>
</g>
<!-- Node2 -->
<g id="Node000002" class="node">
<title>Node2</title>
<g id="a_Node000002"><a xlink:href="make__ssl__context_8hpp.html" target="_top" xlink:title=" ">
<polygon fill="white" stroke="#666666" points="277.12,-76 127.62,-76 127.62,-56 277.12,-56 277.12,-76"/>
<text text-anchor="middle" x="202.38" y="-62.5" font-family="Helvetica,sans-Serif" font-size="10.00">roar/ssl/make_ssl_context.hpp</text>
</a>
</g>
</g>
<!-- Node1&#45;&gt;Node2 -->
<g id="edge1_Node000001_Node000002" class="edge">
<title>Node1&#45;&gt;Node2</title>
<g id="a_edge1_Node000001_Node000002"><a xlink:title=" ">
<path fill="none" stroke="#63b8ff" d="M266.79,-111.59C255.23,-103.59 238.39,-91.93 224.83,-82.54"/>
<polygon fill="#63b8ff" stroke="#63b8ff" points="227.28,-79.29 217.07,-76.48 223.3,-85.05 227.28,-79.29"/>
</a>
</g>
</g>
<!-- Node7 -->
<g id="Node000007" class="node">
<title>Node7</title>
<g id="a_Node000007"><a xlink:href="overloaded_8hpp.html" target="_top" xlink:title=" ">
<polygon fill="white" stroke="#666666" points="423.25,-76 295.5,-76 295.5,-56 423.25,-56 423.25,-76"/>
<text text-anchor="middle" x="359.38" y="-62.5" font-family="Helvetica,sans-Serif" font-size="10.00">roar/utility/overloaded.hpp</text>
</a>
</g>
</g>
<!-- Node1&#45;&gt;Node7 -->
<g id="edge6_Node000001_Node000007" class="edge">
<title>Node1&#45;&gt;Node7</title>
<g id="a_edge6_Node000001_Node000007"><a xlink:title=" ">
<path fill="none" stroke="#63b8ff" d="M294.14,-111.59C305.85,-103.59 322.9,-91.93 336.63,-82.54"/>
<polygon fill="#63b8ff" stroke="#63b8ff" points="338.23,-85.01 344.51,-76.48 334.28,-79.23 338.23,-85.01"/>
</a>
</g>
</g>
<!-- Node3 -->
<g id="Node000003" class="node">
<title>Node3</title>
<g id="a_Node000003"><a xlink:title=" ">
<polygon fill="#e0e0e0" stroke="#999999" points="130.75,-20 0,-20 0,0 130.75,0 130.75,-20"/>
<text text-anchor="middle" x="65.38" y="-6.5" font-family="Helvetica,sans-Serif" font-size="10.00">boost/asio/ssl/context.hpp</text>
</a>
</g>
</g>
<!-- Node2&#45;&gt;Node3 -->
<g id="edge2_Node000002_Node000003" class="edge">
<title>Node2&#45;&gt;Node3</title>
<g id="a_edge2_Node000002_Node000003"><a xlink:title=" ">
<path fill="none" stroke="#63b8ff" d="M178.51,-55.59C156.64,-46.97 124.03,-34.12 99.42,-24.42"/>
<polygon fill="#63b8ff" stroke="#63b8ff" points="101.01,-20.89 90.42,-20.48 98.44,-27.4 101.01,-20.89"/>
</a>
</g>
</g>
<!-- Node4 -->
<g id="Node000004" class="node">
<title>Node4</title>
<g id="a_Node000004"><a xlink:title=" ">
<polygon fill="#e0e0e0" stroke="#999999" points="188.38,-20 148.38,-20 148.38,0 188.38,0 188.38,-20"/>
<text text-anchor="middle" x="168.38" y="-6.5" font-family="Helvetica,sans-Serif" font-size="10.00">string</text>
</a>
</g>
</g>
<!-- Node2&#45;&gt;Node4 -->
<g id="edge3_Node000002_Node000004" class="edge">
<title>Node2&#45;&gt;Node4</title>
<g id="a_edge3_Node000002_Node000004"><a xlink:title=" ">
<path fill="none" stroke="#63b8ff" d="M196.45,-55.59C191.92,-48.39 185.52,-38.23 179.98,-29.43"/>
<polygon fill="#63b8ff" stroke="#63b8ff" points="182.52,-27.9 174.23,-21.3 176.6,-31.63 182.52,-27.9"/>
</a>
</g>
</g>
<!-- Node5 -->
<g id="Node000005" class="node">
<title>Node5</title>
<g id="a_Node000005"><a xlink:title=" ">
<polygon fill="#e0e0e0" stroke="#999999" points="267.88,-20 206.88,-20 206.88,0 267.88,0 267.88,-20"/>
<text text-anchor="middle" x="237.38" y="-6.5" font-family="Helvetica,sans-Serif" font-size="10.00">filesystem</text>
</a>
</g>
</g>
<!-- Node2&#45;&gt;Node5 -->
<g id="edge4_Node000002_Node000005" class="edge">
<title>Node2&#45;&gt;Node5</title>
<g id="a_edge4_Node000002_Node000005"><a xlink:title=" ">
<path fill="none" stroke="#63b8ff" d="M208.47,-55.59C213.14,-48.39 219.72,-38.23 225.43,-29.43"/>
<polygon fill="#63b8ff" stroke="#63b8ff" points="228.85,-31.59 231.35,-21.3 222.97,-27.79 228.85,-31.59"/>
</a>
</g>
</g>
<!-- Node6 -->
<g id="Node000006" class="node">
<title>Node6</title>
<g id="a_Node000006"><a xlink:title=" ">
<polygon fill="#e0e0e0" stroke="#999999" points="331,-20 285.75,-20 285.75,0 331,0 331,-20"/>
<text text-anchor="middle" x="308.38" y="-6.5" font-family="Helvetica,sans-Serif" font-size="10.00">variant</text>
</a>
</g>
</g>
<!-- Node2&#45;&gt;Node6 -->
<g id="edge5_Node000002_Node000006" class="edge">
<title>Node2&#45;&gt;Node6</title>
<g id="a_edge5_Node000002_Node000006"><a xlink:title=" ">
<path fill="none" stroke="#63b8ff" d="M220.84,-55.59C237.15,-47.28 261.2,-35.03 279.97,-25.47"/>
<polygon fill="#63b8ff" stroke="#63b8ff" points="281.45,-28.14 288.77,-20.48 278.27,-21.9 281.45,-28.14"/>
</a>
</g>
</g>
</g>
</svg>
