<?xml version="1.0" encoding="UTF-8" standalone="no"?>
<!DOCTYPE svg PUBLIC "-//W3C//DTD SVG 1.1//EN"
 "http://www.w3.org/Graphics/SVG/1.1/DTD/svg11.dtd">
<!-- Generated by graphviz version 8.1.0 (0)
 -->
<!-- Title: include/roar/ssl/make_ssl_context.hpp Pages: 1 -->
<svg width="1904pt" height="308pt"
 viewBox="0.00 0.00 1904.25 308.00" xmlns="http://www.w3.org/2000/svg" xmlns:xlink="http://www.w3.org/1999/xlink">
<g id="graph0" class="graph" transform="scale(1 1) rotate(0) translate(4 304)">
<title>include/roar/ssl/make_ssl_context.hpp</title>
<!-- Node1 -->
<g id="Node000001" class="node">
<title>Node1</title>
<g id="a_Node000001"><a xlink:title=" ">
<polygon fill="#999999" stroke="#666666" points="385.62,-300 202.38,-300 202.38,-280 385.62,-280 385.62,-300"/>
<text text-anchor="middle" x="294" y="-286.5" font-family="Helvetica,sans-Serif" font-size="10.00">include/roar/ssl/make_ssl_context.hpp</text>
</a>
</g>
</g>
<!-- Node2 -->
<g id="Node000002" class="node">
<title>Node2</title>
<g id="a_Node000002"><a xlink:href="server_8hpp.html" target="_top" xlink:title=" ">
<polygon fill="white" stroke="#666666" points="670.5,-76 555.5,-76 555.5,-56 670.5,-56 670.5,-76"/>
<text text-anchor="middle" x="613" y="-62.5" font-family="Helvetica,sans-Serif" font-size="10.00">include/roar/server.hpp</text>
</a>
</g>
</g>
<!-- Node1&#45;&gt;Node2 -->
<g id="edge1_Node000001_Node000002" class="edge">
<title>Node1&#45;&gt;Node2</title>
<g id="a_edge1_Node000001_Node000002"><a xlink:title=" ">
<path fill="none" stroke="#63b8ff" d="M263.64,-274.64C220.99,-252.53 151.94,-208.49 184,-168 229.72,-110.26 449.25,-82.25 555.35,-71.9"/>
<polygon fill="#63b8ff" stroke="#63b8ff" points="261.82,-278.14 272.32,-279.52 264.97,-271.89 261.82,-278.14"/>
</a>
</g>
</g>
<!-- Node10 -->
<g id="Node000010" class="node">
<title>Node10</title>
<g id="a_Node000010"><a xlink:href="factory_8hpp.html" target="_top" xlink:title=" ">
<polygon fill="white" stroke="#666666" points="154,-244 0,-244 0,-224 154,-224 154,-244"/>
<text text-anchor="middle" x="77" y="-230.5" font-family="Helvetica,sans-Serif" font-size="10.00">include/roar/session/factory.hpp</text>
</a>
</g>
</g>
<!-- Node1&#45;&gt;Node10 -->
<g id="edge9_Node000001_Node000010" class="edge">
<title>Node1&#45;&gt;Node10</title>
<g id="a_edge9_Node000001_Node000010"><a xlink:title=" ">
<path fill="none" stroke="#63b8ff" d="M245.53,-276.94C206.15,-267.14 151.38,-253.51 115.09,-244.48"/>
<polygon fill="#63b8ff" stroke="#63b8ff" points="244.65,-280.58 255.2,-279.59 246.34,-273.78 244.65,-280.58"/>
</a>
</g>
</g>
<!-- Node12 -->
<g id="Node000012" class="node">
<title>Node12</title>
<g id="a_Node000012"><a xlink:href="session_8hpp.html" target="_top" xlink:title=" ">
<polygon fill="white" stroke="#666666" points="584.25,-244 425.75,-244 425.75,-224 584.25,-224 584.25,-244"/>
<text text-anchor="middle" x="505" y="-230.5" font-family="Helvetica,sans-Serif" font-size="10.00">include/roar/session/session.hpp</text>
</a>
</g>
</g>
<!-- Node1&#45;&gt;Node12 -->
<g id="edge12_Node000001_Node000012" class="edge">
<title>Node1&#45;&gt;Node12</title>
<g id="a_edge12_Node000001_Node000012"><a xlink:title=" ">
<path fill="none" stroke="#63b8ff" d="M341.13,-276.94C379.42,-267.14 432.68,-253.51 467.96,-244.48"/>
<polygon fill="#63b8ff" stroke="#63b8ff" points="340.57,-273.72 331.75,-279.59 342.31,-280.51 340.57,-273.72"/>
</a>
</g>
</g>
<!-- Node26 -->
<g id="Node000026" class="node">
<title>Node26</title>
<g id="a_Node000026"><a xlink:href="make__ssl__context_8cpp.html" target="_top" xlink:title=" ">
<polygon fill="white" stroke="#666666" points="768,-244 602,-244 602,-224 768,-224 768,-244"/>
<text text-anchor="middle" x="685" y="-230.5" font-family="Helvetica,sans-Serif" font-size="10.00">src/roar/ssl/make_ssl_context.cpp</text>
</a>
</g>
</g>
<!-- Node1&#45;&gt;Node26 -->
<g id="edge41_Node000001_Node000026" class="edge">
<title>Node1&#45;&gt;Node26</title>
<g id="a_edge41_Node000001_Node000026"><a xlink:title=" ">
<path fill="none" stroke="#63b8ff" d="M373.29,-278.05C444.72,-268.18 548.64,-253.83 616.52,-244.46"/>
<polygon fill="#63b8ff" stroke="#63b8ff" points="372.98,-274.7 363.55,-279.53 373.94,-281.63 372.98,-274.7"/>
</a>
</g>
</g>
<!-- Node3 -->
<g id="Node000003" class="node">
<title>Node3</title>
<g id="a_Node000003"><a xlink:href="100__continue_2main_8cpp.html" target="_top" xlink:title=" ">
<polygon fill="white" stroke="#666666" points="1300.75,-20 1139.25,-20 1139.25,0 1300.75,0 1300.75,-20"/>
<text text-anchor="middle" x="1220" y="-6.5" font-family="Helvetica,sans-Serif" font-size="10.00">examples/100_continue/main.cpp</text>
</a>
</g>
</g>
<!-- Node2&#45;&gt;Node3 -->
<g id="edge2_Node000002_Node000003" class="edge">
<title>Node2&#45;&gt;Node3</title>
<g id="a_edge2_Node000002_Node000003"><a xlink:title=" ">
<path fill="none" stroke="#63b8ff" d="M681.71,-55.75C849.76,-37.54 1035.03,-23.64 1138.76,-16.42"/>
<polygon fill="#63b8ff" stroke="#63b8ff" points="681.49,-52.36 671.93,-56.93 682.25,-59.32 681.49,-52.36"/>
</a>
</g>
</g>
<!-- Node4 -->
<g id="Node000004" class="node">
<title>Node4</title>
<g id="a_Node000004"><a xlink:href="most__minimal_2main_8cpp.html" target="_top" xlink:title=" ">
<polygon fill="white" stroke="#666666" points="748.25,-20 583.75,-20 583.75,0 748.25,0 748.25,-20"/>
<text text-anchor="middle" x="666" y="-6.5" font-family="Helvetica,sans-Serif" font-size="10.00">examples/most_minimal/main.cpp</text>
</a>
</g>
</g>
<!-- Node2&#45;&gt;Node4 -->
<g id="edge3_Node000002_Node000004" class="edge">
<title>Node2&#45;&gt;Node4</title>
<g id="a_edge3_Node000002_Node000004"><a xlink:title=" ">
<path fill="none" stroke="#63b8ff" d="M629.84,-47.85C638.79,-38.72 649.46,-27.86 656.87,-20.3"/>
<polygon fill="#63b8ff" stroke="#63b8ff" points="627.74,-45.01 623.23,-54.59 632.73,-49.91 627.74,-45.01"/>
</a>
</g>
</g>
<!-- Node5 -->
<g id="Node000005" class="node">
<title>Node5</title>
<g id="a_Node000005"><a xlink:href="serve__directory_2main_8cpp.html" target="_top" xlink:title=" ">
<polygon fill="white" stroke="#666666" points="1593.25,-20 1422.75,-20 1422.75,0 1593.25,0 1593.25,-20"/>
<text text-anchor="middle" x="1508" y="-6.5" font-family="Helvetica,sans-Serif" font-size="10.00">examples/serve_directory/main.cpp</text>
</a>
</g>
</g>
<!-- Node2&#45;&gt;Node5 -->
<g id="edge4_Node000002_Node000005" class="edge">
<title>Node2&#45;&gt;Node5</title>
<g id="a_edge4_Node000002_Node000005"><a xlink:title=" ">
<path fill="none" stroke="#63b8ff" d="M681.8,-55.88C787.18,-47.29 1233.22,-24.7 1422.58,-15.24"/>
<polygon fill="#63b8ff" stroke="#63b8ff" points="681.57,-52.47 671.92,-56.83 682.18,-59.45 681.57,-52.47"/>
</a>
</g>
</g>
<!-- Node6 -->
<g id="Node000006" class="node">
<title>Node6</title>
<g id="a_Node000006"><a xlink:href="simple__server_2main_8cpp.html" target="_top" xlink:title=" ">
<polygon fill="white" stroke="#666666" points="1896.25,-20 1731.75,-20 1731.75,0 1896.25,0 1896.25,-20"/>
<text text-anchor="middle" x="1814" y="-6.5" font-family="Helvetica,sans-Serif" font-size="10.00">examples/simple_server/main.cpp</text>
</a>
</g>
</g>
<!-- Node2&#45;&gt;Node6 -->
<g id="edge5_Node000002_Node000006" class="edge">
<title>Node2&#45;&gt;Node6</title>
<g id="a_edge5_Node000002_Node000006"><a xlink:title=" ">
<path fill="none" stroke="#63b8ff" d="M681.84,-55.83C1089.82,-20.51 1195.41,-36.56 1602,-20 1644.7,-18.26 1692.23,-16.25 1731.45,-14.57"/>
<polygon fill="#63b8ff" stroke="#63b8ff" points="681.57,-52.43 671.91,-56.78 682.18,-59.4 681.57,-52.43"/>
</a>
</g>
</g>
<!-- Node7 -->
<g id="Node000007" class="node">
<title>Node7</title>
<g id="a_Node000007"><a xlink:href="websocket_2main_8cpp.html" target="_top" xlink:title=" ">
<polygon fill="white" stroke="#666666" points="991.5,-20 840.5,-20 840.5,0 991.5,0 991.5,-20"/>
<text text-anchor="middle" x="916" y="-6.5" font-family="Helvetica,sans-Serif" font-size="10.00">examples/websocket/main.cpp</text>
</a>
</g>
</g>
<!-- Node2&#45;&gt;Node7 -->
<g id="edge6_Node000002_Node000007" class="edge">
<title>Node2&#45;&gt;Node7</title>
<g id="a_edge6_Node000002_Node000007"><a xlink:title=" ">
<path fill="none" stroke="#63b8ff" d="M676.85,-53.62C732.11,-43.77 811.08,-29.7 862.94,-20.46"/>
<polygon fill="#63b8ff" stroke="#63b8ff" points="676.36,-50.33 667.13,-55.53 677.58,-57.22 676.36,-50.33"/>
</a>
</g>
</g>
<!-- Node8 -->
<g id="Node000008" class="node">
<title>Node8</title>
<g id="a_Node000008"><a xlink:href="src_2roar_2routing_2request__listener_8cpp.html" target="_top" xlink:title=" ">
<polygon fill="white" stroke="#666666" points="566,-20 394,-20 394,0 566,0 566,-20"/>
<text text-anchor="middle" x="480" y="-6.5" font-family="Helvetica,sans-Serif" font-size="10.00">src/roar/routing/request_listener.cpp</text>
</a>
</g>
</g>
<!-- Node2&#45;&gt;Node8 -->
<g id="edge7_Node000002_Node000008" class="edge">
<title>Node2&#45;&gt;Node8</title>
<g id="a_edge7_Node000002_Node000008"><a xlink:title=" ">
<path fill="none" stroke="#63b8ff" d="M579.83,-51.53C556.03,-41.87 524.54,-29.08 503.35,-20.48"/>
<polygon fill="#63b8ff" stroke="#63b8ff" points="578.25,-55.07 588.83,-55.59 580.88,-48.59 578.25,-55.07"/>
</a>
</g>
</g>
<!-- Node9 -->
<g id="Node000009" class="node">
<title>Node9</title>
<g id="a_Node000009"><a xlink:href="server_8cpp.html" target="_top" xlink:title=" ">
<polygon fill="white" stroke="#666666" points="375.88,-20 278.12,-20 278.12,0 375.88,0 375.88,-20"/>
<text text-anchor="middle" x="327" y="-6.5" font-family="Helvetica,sans-Serif" font-size="10.00">src/roar/server.cpp</text>
</a>
</g>
</g>
<!-- Node2&#45;&gt;Node9 -->
<g id="edge8_Node000002_Node000009" class="edge">
<title>Node2&#45;&gt;Node9</title>
<g id="a_edge8_Node000002_Node000009"><a xlink:title=" ">
<path fill="none" stroke="#63b8ff" d="M552.34,-53.55C499.86,-43.64 424.93,-29.49 376.13,-20.28"/>
<polygon fill="#63b8ff" stroke="#63b8ff" points="551.38,-57.12 561.86,-55.53 552.68,-50.24 551.38,-57.12"/>
</a>
</g>
</g>
<!-- Node10&#45;&gt;Node9 -->
<g id="edge10_Node000010_Node000009" class="edge">
<title>Node10&#45;&gt;Node9</title>
<g id="a_edge10_Node000010_Node000009"><a xlink:title=" ">
<path fill="none" stroke="#63b8ff" d="M85.07,-213.77C96.62,-188.05 119.94,-142.21 151,-112 196.71,-67.54 265.77,-35.46 302.3,-20.48"/>
<polygon fill="#63b8ff" stroke="#63b8ff" points="81.51,-212.18 80.73,-222.75 87.93,-214.97 81.51,-212.18"/>
</a>
</g>
</g>
<!-- Node11 -->
<g id="Node000011" class="node">
<title>Node11</title>
<g id="a_Node000011"><a xlink:href="factory_8cpp.html" target="_top" xlink:title=" ">
<polygon fill="white" stroke="#666666" points="329.38,-188 192.62,-188 192.62,-168 329.38,-168 329.38,-188"/>
<text text-anchor="middle" x="261" y="-174.5" font-family="Helvetica,sans-Serif" font-size="10.00">src/roar/session/factory.cpp</text>
</a>
</g>
</g>
<!-- Node10&#45;&gt;Node11 -->
<g id="edge11_Node000010_Node000011" class="edge">
<title>Node10&#45;&gt;Node11</title>
<g id="a_edge11_Node000010_Node000011"><a xlink:title=" ">
<path fill="none" stroke="#63b8ff" d="M119.39,-220.56C152.68,-210.79 198.33,-197.39 228.7,-188.48"/>
<polygon fill="#63b8ff" stroke="#63b8ff" points="118.66,-217.42 110.05,-223.59 120.63,-224.14 118.66,-217.42"/>
</a>
</g>
</g>
<!-- Node12&#45;&gt;Node2 -->
<g id="edge35_Node000012_Node000002" class="edge">
<title>Node12&#45;&gt;Node2</title>
<g id="a_edge35_Node000012_Node000002"><a xlink:title=" ">
<path fill="none" stroke="#63b8ff" d="M522.44,-215.99C533.96,-202.61 545.37,-183.67 536,-168 518.65,-138.99 486.35,-161.01 469,-132 464.44,-124.37 463.73,-119.16 469,-112 488.7,-85.2 524.3,-73.92 555.17,-69.35"/>
<polygon fill="#63b8ff" stroke="#63b8ff" points="520.33,-213.2 516.06,-222.89 525.44,-217.97 520.33,-213.2"/>
</a>
</g>
</g>
<!-- Node12&#45;&gt;Node9 -->
<g id="edge38_Node000012_Node000009" class="edge">
<title>Node12&#45;&gt;Node9</title>
<g id="a_edge38_Node000012_Node000009"><a xlink:title=" ">
<path fill="none" stroke="#63b8ff" d="M430.92,-220.39C410.8,-213.73 390.57,-203.55 376,-188 329.58,-138.43 326.48,-48.81 326.75,-20.11"/>
<polygon fill="#63b8ff" stroke="#63b8ff" points="429.82,-224.02 440.4,-223.57 431.85,-217.32 429.82,-224.02"/>
</a>
</g>
</g>
<!-- Node12&#45;&gt;Node11 -->
<g id="edge39_Node000012_Node000011" class="edge">
<title>Node12&#45;&gt;Node11</title>
<g id="a_edge39_Node000012_Node000011"><a xlink:title=" ">
<path fill="none" stroke="#63b8ff" d="M451.63,-221.19C407.24,-211.36 344.88,-197.56 303.73,-188.46"/>
<polygon fill="#63b8ff" stroke="#63b8ff" points="450.7,-224.79 461.22,-223.53 452.21,-217.95 450.7,-224.79"/>
</a>
</g>
</g>
<!-- Node13 -->
<g id="Node000013" class="node">
<title>Node13</title>
<g id="a_Node000013"><a xlink:href="directory__server_8hpp.html" target="_top" xlink:title=" ">
<polygon fill="white" stroke="#666666" points="708.25,-132 477.75,-132 477.75,-112 708.25,-112 708.25,-132"/>
<text text-anchor="middle" x="593" y="-118.5" font-family="Helvetica,sans-Serif" font-size="10.00">include/roar/directory_server/directory_server.hpp</text>
</a>
</g>
</g>
<!-- Node12&#45;&gt;Node13 -->
<g id="edge13_Node000012_Node000013" class="edge">
<title>Node12&#45;&gt;Node13</title>
<g id="a_edge13_Node000012_Node000013"><a xlink:title=" ">
<path fill="none" stroke="#63b8ff" d="M533.63,-218.08C545.92,-210.47 559.59,-200.23 569,-188 582.2,-170.84 588.71,-145.68 591.4,-132.25"/>
<polygon fill="#63b8ff" stroke="#63b8ff" points="532.05,-215.53 525.18,-223.6 535.58,-221.58 532.05,-215.53"/>
</a>
</g>
</g>
<!-- Node14 -->
<g id="Node000014" class="node">
<title>Node14</title>
<g id="a_Node000014"><a xlink:href="include_2roar_2routing_2request__listener_8hpp.html" target="_top" xlink:title=" ">
<polygon fill="white" stroke="#666666" points="1022.62,-188 833.38,-188 833.38,-168 1022.62,-168 1022.62,-188"/>
<text text-anchor="middle" x="928" y="-174.5" font-family="Helvetica,sans-Serif" font-size="10.00">include/roar/routing/request_listener.hpp</text>
</a>
</g>
</g>
<!-- Node12&#45;&gt;Node14 -->
<g id="edge15_Node000012_Node000014" class="edge">
<title>Node12&#45;&gt;Node14</title>
<g id="a_edge15_Node000012_Node000014"><a xlink:title=" ">
<path fill="none" stroke="#63b8ff" d="M589.83,-222.17C667.13,-212.3 780.18,-197.87 853.92,-188.46"/>
<polygon fill="#63b8ff" stroke="#63b8ff" points="589.64,-218.79 580.17,-223.53 590.53,-225.74 589.64,-218.79"/>
</a>
</g>
</g>
<!-- Node23 -->
<g id="Node000023" class="node">
<title>Node23</title>
<g id="a_Node000023"><a xlink:href="route_8cpp.html" target="_top" xlink:title=" ">
<polygon fill="white" stroke="#666666" points="1165.38,-188 1040.62,-188 1040.62,-168 1165.38,-168 1165.38,-188"/>
<text text-anchor="middle" x="1103" y="-174.5" font-family="Helvetica,sans-Serif" font-size="10.00">src/roar/routing/route.cpp</text>
</a>
</g>
</g>
<!-- Node12&#45;&gt;Node23 -->
<g id="edge36_Node000012_Node000023" class="edge">
<title>Node12&#45;&gt;Node23</title>
<g id="a_edge36_Node000012_Node000023"><a xlink:title=" ">
<path fill="none" stroke="#63b8ff" d="M595.49,-223.79C789.77,-206.12 840.81,-207.95 1032,-188 1034.72,-187.72 1037.49,-187.41 1040.3,-187.1"/>
<polygon fill="#63b8ff" stroke="#63b8ff" points="595.26,-220.39 585.62,-224.78 595.9,-227.36 595.26,-220.39"/>
</a>
</g>
</g>
<!-- Node24 -->
<g id="Node000024" class="node">
<title>Node24</title>
<g id="a_Node000024"><a xlink:href="router_8cpp.html" target="_top" xlink:title=" ">
<polygon fill="white" stroke="#666666" points="1310.88,-188 1183.12,-188 1183.12,-168 1310.88,-168 1310.88,-188"/>
<text text-anchor="middle" x="1247" y="-174.5" font-family="Helvetica,sans-Serif" font-size="10.00">src/roar/routing/router.cpp</text>
</a>
</g>
</g>
<!-- Node12&#45;&gt;Node24 -->
<g id="edge37_Node000012_Node000024" class="edge">
<title>Node12&#45;&gt;Node24</title>
<g id="a_edge37_Node000012_Node000024"><a xlink:title=" ">
<path fill="none" stroke="#63b8ff" d="M595.42,-223.83C852.68,-203.07 919.91,-211.51 1174,-188 1176.92,-187.73 1179.91,-187.43 1182.93,-187.12"/>
<polygon fill="#63b8ff" stroke="#63b8ff" points="595.3,-220.41 585.61,-224.71 595.86,-227.39 595.3,-220.41"/>
</a>
</g>
</g>
<!-- Node25 -->
<g id="Node000025" class="node">
<title>Node25</title>
<g id="a_Node000025"><a xlink:href="session_8cpp.html" target="_top" xlink:title=" ">
<polygon fill="white" stroke="#666666" points="526.62,-188 385.38,-188 385.38,-168 526.62,-168 526.62,-188"/>
<text text-anchor="middle" x="456" y="-174.5" font-family="Helvetica,sans-Serif" font-size="10.00">src/roar/session/session.cpp</text>
</a>
</g>
</g>
<!-- Node12&#45;&gt;Node25 -->
<g id="edge40_Node000012_Node000025" class="edge">
<title>Node12&#45;&gt;Node25</title>
<g id="a_edge40_Node000012_Node000025"><a xlink:title=" ">
<path fill="none" stroke="#63b8ff" d="M489.18,-215.57C480.95,-206.5 471.22,-195.78 464.44,-188.3"/>
<polygon fill="#63b8ff" stroke="#63b8ff" points="486.15,-217.54 495.46,-222.59 491.34,-212.84 486.15,-217.54"/>
</a>
</g>
</g>
<!-- Node13&#45;&gt;Node2 -->
<g id="edge14_Node000013_Node000002" class="edge">
<title>Node13&#45;&gt;Node2</title>
<g id="a_edge14_Node000013_Node000002"><a xlink:title=" ">
<path fill="none" stroke="#63b8ff" d="M600.3,-101.29C603.46,-92.75 607.01,-83.16 609.56,-76.3"/>
<polygon fill="#63b8ff" stroke="#63b8ff" points="596.67,-100 596.48,-110.59 603.24,-102.43 596.67,-100"/>
</a>
</g>
</g>
<!-- Node14&#45;&gt;Node2 -->
<g id="edge33_Node000014_Node000002" class="edge">
<title>Node14&#45;&gt;Node2</title>
<g id="a_edge33_Node000014_Node000002"><a xlink:title=" ">
<path fill="none" stroke="#63b8ff" d="M869.03,-165.2C835.08,-157.54 791.95,-146.31 755,-132 737.2,-125.11 734.21,-120.24 717,-112 689.49,-98.83 657.17,-85.12 635.95,-76.34"/>
<polygon fill="#63b8ff" stroke="#63b8ff" points="868.19,-168.82 878.71,-167.56 869.7,-161.99 868.19,-168.82"/>
</a>
</g>
</g>
<!-- Node14&#45;&gt;Node3 -->
<g id="edge16_Node000014_Node000003" class="edge">
<title>Node14&#45;&gt;Node3</title>
<g id="a_edge16_Node000014_Node000003"><a xlink:title=" ">
<path fill="none" stroke="#63b8ff" d="M1023,-166.29C1111.81,-155.81 1231.85,-140.26 1239,-132 1267.25,-99.36 1238.75,-42.4 1225.74,-20.21"/>
<polygon fill="#63b8ff" stroke="#63b8ff" points="1022.85,-162.9 1013.33,-167.54 1023.67,-169.85 1022.85,-162.9"/>
</a>
</g>
</g>
<!-- Node14&#45;&gt;Node5 -->
<g id="edge23_Node000014_Node000005" class="edge">
<title>Node14&#45;&gt;Node5</title>
<g id="a_edge23_Node000014_Node000005"><a xlink:title=" ">
<path fill="none" stroke="#63b8ff" d="M1033.81,-168.06C1117.73,-163.68 1450.76,-161.75 1489,-132 1523.41,-105.23 1514.89,-43.74 1510.13,-20.31"/>
<polygon fill="#63b8ff" stroke="#63b8ff" points="1033.69,-164.62 1023.93,-168.75 1034.14,-171.61 1033.69,-164.62"/>
</a>
</g>
</g>
<!-- Node14&#45;&gt;Node6 -->
<g id="edge24_Node000014_Node000006" class="edge">
<title>Node14&#45;&gt;Node6</title>
<g id="a_edge24_Node000014_Node000006"><a xlink:title=" ">
<path fill="none" stroke="#63b8ff" d="M1033.56,-168.1C1155.47,-163.6 1729.39,-181.41 1795,-132 1829.82,-105.78 1821.06,-43.96 1816.18,-20.37"/>
<polygon fill="#63b8ff" stroke="#63b8ff" points="1033.74,-164.64 1023.93,-168.63 1034.09,-171.63 1033.74,-164.64"/>
</a>
</g>
</g>
<!-- Node14&#45;&gt;Node7 -->
<g id="edge28_Node000014_Node000007" class="edge">
<title>Node14&#45;&gt;Node7</title>
<g id="a_edge28_Node000014_Node000007"><a xlink:title=" ">
<path fill="none" stroke="#63b8ff" d="M949.95,-160.85C958.54,-153.18 967.42,-143.23 972,-132 975.36,-123.77 974.23,-120.61 972,-112 962.46,-75.12 936.23,-37.35 923.34,-20.32"/>
<polygon fill="#63b8ff" stroke="#63b8ff" points="948.11,-158.66 942.63,-167.73 952.57,-164.06 948.11,-158.66"/>
</a>
</g>
</g>
<!-- Node14&#45;&gt;Node8 -->
<g id="edge34_Node000014_Node000008" class="edge">
<title>Node14&#45;&gt;Node8</title>
<g id="a_edge34_Node000014_Node000008"><a xlink:title=" ">
<path fill="none" stroke="#63b8ff" d="M822.44,-173.99C694.29,-169.22 492.3,-157.69 469,-132 440.24,-100.28 464.01,-42.78 475.08,-20.33"/>
<polygon fill="#63b8ff" stroke="#63b8ff" points="821.95,-177.51 832.07,-174.37 822.2,-170.51 821.95,-177.51"/>
</a>
</g>
</g>
<!-- Node14&#45;&gt;Node13 -->
<g id="edge32_Node000014_Node000013" class="edge">
<title>Node14&#45;&gt;Node13</title>
<g id="a_edge32_Node000014_Node000013"><a xlink:title=" ">
<path fill="none" stroke="#63b8ff" d="M858.55,-165.81C797.41,-155.95 709.35,-141.76 651.67,-132.46"/>
<polygon fill="#63b8ff" stroke="#63b8ff" points="857.83,-169.4 868.26,-167.53 858.95,-162.49 857.83,-169.4"/>
</a>
</g>
</g>
<!-- Node15 -->
<g id="Node000015" class="node">
<title>Node15</title>
<g id="a_Node000015"><a xlink:href="examples_2100__continue_2request__listener_8hpp.html" target="_top" xlink:title=" ">
<polygon fill="white" stroke="#666666" points="1229.75,-132 1020.25,-132 1020.25,-112 1229.75,-112 1229.75,-132"/>
<text text-anchor="middle" x="1125" y="-118.5" font-family="Helvetica,sans-Serif" font-size="10.00">examples/100_continue/request_listener.hpp</text>
</a>
</g>
</g>
<!-- Node14&#45;&gt;Node15 -->
<g id="edge17_Node000014_Node000015" class="edge">
<title>Node14&#45;&gt;Node15</title>
<g id="a_edge17_Node000014_Node000015"><a xlink:title=" ">
<path fill="none" stroke="#63b8ff" d="M972.92,-164.69C1008.6,-154.91 1057.76,-141.43 1090.42,-132.48"/>
<polygon fill="#63b8ff" stroke="#63b8ff" points="972.03,-161.57 963.31,-167.59 973.88,-168.33 972.03,-161.57"/>
</a>
</g>
</g>
<!-- Node17 -->
<g id="Node000017" class="node">
<title>Node17</title>
<g id="a_Node000017"><a xlink:href="file__server_8hpp.html" target="_top" xlink:title=" ">
<polygon fill="white" stroke="#666666" points="1480.25,-132 1285.75,-132 1285.75,-112 1480.25,-112 1480.25,-132"/>
<text text-anchor="middle" x="1383" y="-118.5" font-family="Helvetica,sans-Serif" font-size="10.00">examples/serve_directory/file_server.hpp</text>
</a>
</g>
</g>
<!-- Node14&#45;&gt;Node17 -->
<g id="edge20_Node000014_Node000017" class="edge">
<title>Node14&#45;&gt;Node17</title>
<g id="a_edge20_Node000014_Node000017"><a xlink:title=" ">
<path fill="none" stroke="#63b8ff" d="M1018.73,-166.23C1101.79,-156.37 1223.54,-141.93 1303.03,-132.49"/>
<polygon fill="#63b8ff" stroke="#63b8ff" points="1018.55,-162.85 1009.04,-167.5 1019.38,-169.8 1018.55,-162.85"/>
</a>
</g>
</g>
<!-- Node19 -->
<g id="Node000019" class="node">
<title>Node19</title>
<g id="a_Node000019"><a xlink:href="examples_2simple__server_2request__listener_8hpp.html" target="_top" xlink:title=" ">
<polygon fill="white" stroke="#666666" points="1786.25,-132 1573.75,-132 1573.75,-112 1786.25,-112 1786.25,-132"/>
<text text-anchor="middle" x="1680" y="-118.5" font-family="Helvetica,sans-Serif" font-size="10.00">examples/simple_server/request_listener.hpp</text>
</a>
</g>
</g>
<!-- Node14&#45;&gt;Node19 -->
<g id="edge25_Node000014_Node000019" class="edge">
<title>Node14&#45;&gt;Node19</title>
<g id="a_edge25_Node000014_Node000019"><a xlink:title=" ">
<path fill="none" stroke="#63b8ff" d="M1033.87,-167.87C1268.33,-149.82 1328.94,-148.54 1560,-132 1564.38,-131.69 1568.84,-131.36 1573.35,-131.04"/>
<polygon fill="#63b8ff" stroke="#63b8ff" points="1033.63,-164.45 1023.93,-168.71 1034.17,-171.43 1033.63,-164.45"/>
</a>
</g>
</g>
<!-- Node21 -->
<g id="Node000021" class="node">
<title>Node21</title>
<g id="a_Node000021"><a xlink:href="examples_2websocket_2request__listener_8hpp.html" target="_top" xlink:title=" ">
<polygon fill="white" stroke="#666666" points="963.5,-132 764.5,-132 764.5,-112 963.5,-112 963.5,-132"/>
<text text-anchor="middle" x="864" y="-118.5" font-family="Helvetica,sans-Serif" font-size="10.00">examples/websocket/request_listener.hpp</text>
</a>
</g>
</g>
<!-- Node14&#45;&gt;Node21 -->
<g id="edge29_Node000014_Node000021" class="edge">
<title>Node14&#45;&gt;Node21</title>
<g id="a_edge29_Node000014_Node000021"><a xlink:title=" ">
<path fill="none" stroke="#63b8ff" d="M908.66,-160.68C897.65,-151.39 884.25,-140.09 875.02,-132.3"/>
<polygon fill="#63b8ff" stroke="#63b8ff" points="905.95,-163.82 915.85,-167.59 910.47,-158.47 905.95,-163.82"/>
</a>
</g>
</g>
<!-- Node15&#45;&gt;Node3 -->
<g id="edge18_Node000015_Node000003" class="edge">
<title>Node15&#45;&gt;Node3</title>
<g id="a_edge18_Node000015_Node000003"><a xlink:title=" ">
<path fill="none" stroke="#63b8ff" d="M1160.36,-107.04C1174.8,-99.75 1190.53,-89.48 1201,-76 1213.98,-59.29 1218.1,-33.94 1219.4,-20.37"/>
<polygon fill="#63b8ff" stroke="#63b8ff" points="1159.2,-104.19 1151.65,-111.62 1162.18,-110.52 1159.2,-104.19"/>
</a>
</g>
</g>
<!-- Node16 -->
<g id="Node000016" class="node">
<title>Node16</title>
<g id="a_Node000016"><a xlink:href="examples_2100__continue_2request__listener_8cpp.html" target="_top" xlink:title=" ">
<polygon fill="white" stroke="#666666" points="1191.75,-76 982.25,-76 982.25,-56 1191.75,-56 1191.75,-76"/>
<text text-anchor="middle" x="1087" y="-62.5" font-family="Helvetica,sans-Serif" font-size="10.00">examples/100_continue/request_listener.cpp</text>
</a>
</g>
</g>
<!-- Node15&#45;&gt;Node16 -->
<g id="edge19_Node000015_Node000016" class="edge">
<title>Node15&#45;&gt;Node16</title>
<g id="a_edge19_Node000015_Node000016"><a xlink:title=" ">
<path fill="none" stroke="#63b8ff" d="M1112.14,-102.72C1105.89,-93.84 1098.64,-83.55 1093.54,-76.3"/>
<polygon fill="#63b8ff" stroke="#63b8ff" points="1109.76,-104.43 1118.38,-110.59 1115.49,-100.4 1109.76,-104.43"/>
</a>
</g>
</g>
<!-- Node17&#45;&gt;Node5 -->
<g id="edge22_Node000017_Node000005" class="edge">
<title>Node17&#45;&gt;Node5</title>
<g id="a_edge22_Node000017_Node000005"><a xlink:title=" ">
<path fill="none" stroke="#63b8ff" d="M1437.63,-108.13C1456.16,-101.33 1475.55,-91.13 1489,-76 1503.22,-60.01 1506.82,-33.9 1507.72,-20.15"/>
<polygon fill="#63b8ff" stroke="#63b8ff" points="1436.81,-105.05 1428.46,-111.57 1439.06,-111.68 1436.81,-105.05"/>
</a>
</g>
</g>
<!-- Node18 -->
<g id="Node000018" class="node">
<title>Node18</title>
<g id="a_Node000018"><a xlink:href="file__server_8cpp.html" target="_top" xlink:title=" ">
<polygon fill="white" stroke="#666666" points="1480.25,-76 1285.75,-76 1285.75,-56 1480.25,-56 1480.25,-76"/>
<text text-anchor="middle" x="1383" y="-62.5" font-family="Helvetica,sans-Serif" font-size="10.00">examples/serve_directory/file_server.cpp</text>
</a>
</g>
</g>
<!-- Node17&#45;&gt;Node18 -->
<g id="edge21_Node000017_Node000018" class="edge">
<title>Node17&#45;&gt;Node18</title>
<g id="a_edge21_Node000017_Node000018"><a xlink:title=" ">
<path fill="none" stroke="#63b8ff" d="M1383,-100.71C1383,-92.32 1383,-83.01 1383,-76.3"/>
<polygon fill="#63b8ff" stroke="#63b8ff" points="1379.5,-100.59 1383,-110.59 1386.5,-100.59 1379.5,-100.59"/>
</a>
</g>
</g>
<!-- Node19&#45;&gt;Node6 -->
<g id="edge26_Node000019_Node000006" class="edge">
<title>Node19&#45;&gt;Node6</title>
<g id="a_edge26_Node000019_Node000006"><a xlink:title=" ">
<path fill="none" stroke="#63b8ff" d="M1741.7,-108.25C1761.03,-101.53 1780.95,-91.35 1795,-76 1809.45,-60.21 1812.95,-34.02 1813.78,-20.2"/>
<polygon fill="#63b8ff" stroke="#63b8ff" points="1740.83,-105.17 1732.37,-111.55 1742.96,-111.84 1740.83,-105.17"/>
</a>
</g>
</g>
<!-- Node20 -->
<g id="Node000020" class="node">
<title>Node20</title>
<g id="a_Node000020"><a xlink:href="examples_2simple__server_2request__listener_8cpp.html" target="_top" xlink:title=" ">
<polygon fill="white" stroke="#666666" points="1786.25,-76 1573.75,-76 1573.75,-56 1786.25,-56 1786.25,-76"/>
<text text-anchor="middle" x="1680" y="-62.5" font-family="Helvetica,sans-Serif" font-size="10.00">examples/simple_server/request_listener.cpp</text>
</a>
</g>
</g>
<!-- Node19&#45;&gt;Node20 -->
<g id="edge27_Node000019_Node000020" class="edge">
<title>Node19&#45;&gt;Node20</title>
<g id="a_edge27_Node000019_Node000020"><a xlink:title=" ">
<path fill="none" stroke="#63b8ff" d="M1680,-100.71C1680,-92.32 1680,-83.01 1680,-76.3"/>
<polygon fill="#63b8ff" stroke="#63b8ff" points="1676.5,-100.59 1680,-110.59 1683.5,-100.59 1676.5,-100.59"/>
</a>
</g>
</g>
<!-- Node21&#45;&gt;Node7 -->
<g id="edge30_Node000021_Node000007" class="edge">
<title>Node21&#45;&gt;Node7</title>
<g id="a_edge30_Node000021_Node000007"><a xlink:title=" ">
<path fill="none" stroke="#63b8ff" d="M878.69,-103.16C884.69,-95.22 891.31,-85.52 896,-76 905.3,-57.15 911.34,-33.09 914.15,-20.18"/>
<polygon fill="#63b8ff" stroke="#63b8ff" points="875.51,-100.54 872.08,-110.57 881.01,-104.87 875.51,-100.54"/>
</a>
</g>
</g>
<!-- Node22 -->
<g id="Node000022" class="node">
<title>Node22</title>
<g id="a_Node000022"><a xlink:href="examples_2websocket_2request__listener_8cpp.html" target="_top" xlink:title=" ">
<polygon fill="white" stroke="#666666" points="887.5,-76 688.5,-76 688.5,-56 887.5,-56 887.5,-76"/>
<text text-anchor="middle" x="788" y="-62.5" font-family="Helvetica,sans-Serif" font-size="10.00">examples/websocket/request_listener.cpp</text>
</a>
</g>
</g>
<!-- Node21&#45;&gt;Node22 -->
<g id="edge31_Node000021_Node000022" class="edge">
<title>Node21&#45;&gt;Node22</title>
<g id="a_edge31_Node000021_Node000022"><a xlink:title=" ">
<path fill="none" stroke="#63b8ff" d="M841.86,-105.27C828.73,-95.94 812.53,-84.43 801.34,-76.48"/>
<polygon fill="#63b8ff" stroke="#63b8ff" points="839.58,-108.65 849.76,-111.59 843.64,-102.95 839.58,-108.65"/>
</a>
</g>
</g>
</g>
</svg>
