<?xml version="1.0" encoding="UTF-8" standalone="no"?>
<!DOCTYPE svg PUBLIC "-//W3C//DTD SVG 1.1//EN"
 "http://www.w3.org/Graphics/SVG/1.1/DTD/svg11.dtd">
<!-- Generated by graphviz version 2.44.1 (20211215.1903)
 -->
<!-- Title: src/roar/ssl/make_ssl_context.cpp Pages: 1 -->
<svg width="452pt" height="140pt"
 viewBox="0.00 0.00 452.50 140.00" xmlns="http://www.w3.org/2000/svg" xmlns:xlink="http://www.w3.org/1999/xlink">
<g id="graph0" class="graph" transform="scale(1 1) rotate(0) translate(4 136)">
<title>src/roar/ssl/make_ssl_context.cpp</title>
<!-- Node1 -->
<g id="node1" class="node">
<title>Node1</title>
<g id="a_node1"><a xlink:title=" ">
<polygon fill="#bfbfbf" stroke="black" points="218,-112.5 218,-131.5 385,-131.5 385,-112.5 218,-112.5"/>
<text text-anchor="middle" x="301.5" y="-119.5" font-family="Helvetica,sans-Serif" font-size="10.00">src/roar/ssl/make_ssl_context.cpp</text>
</a>
</g>
</g>
<!-- Node2 -->
<g id="node2" class="node">
<title>Node2</title>
<g id="a_node2"><a xlink:href="make__ssl__context_8hpp.html" target="_top" xlink:title=" ">
<polygon fill="none" stroke="black" points="148.5,-56.5 148.5,-75.5 298.5,-75.5 298.5,-56.5 148.5,-56.5"/>
<text text-anchor="middle" x="223.5" y="-63.5" font-family="Helvetica,sans-Serif" font-size="10.00">roar/ssl/make_ssl_context.hpp</text>
</a>
</g>
</g>
<!-- Node1&#45;&gt;Node2 -->
<g id="edge1" class="edge">
<title>Node1&#45;&gt;Node2</title>
<path fill="none" stroke="midnightblue" d="M288.97,-112.32C276.91,-103.98 258.47,-91.21 244.23,-81.35"/>
<polygon fill="midnightblue" stroke="midnightblue" points="246.22,-78.47 236,-75.65 242.23,-84.22 246.22,-78.47"/>
</g>
<!-- Node7 -->
<g id="node7" class="node">
<title>Node7</title>
<g id="a_node7"><a xlink:href="overloaded_8hpp.html" target="_top" xlink:title=" ">
<polygon fill="none" stroke="black" points="316.5,-56.5 316.5,-75.5 444.5,-75.5 444.5,-56.5 316.5,-56.5"/>
<text text-anchor="middle" x="380.5" y="-63.5" font-family="Helvetica,sans-Serif" font-size="10.00">roar/detail/overloaded.hpp</text>
</a>
</g>
</g>
<!-- Node1&#45;&gt;Node7 -->
<g id="edge6" class="edge">
<title>Node1&#45;&gt;Node7</title>
<path fill="none" stroke="midnightblue" d="M314.19,-112.32C326.4,-103.98 345.08,-91.21 359.5,-81.35"/>
<polygon fill="midnightblue" stroke="midnightblue" points="361.56,-84.19 367.84,-75.65 357.61,-78.41 361.56,-84.19"/>
</g>
<!-- Node3 -->
<g id="node3" class="node">
<title>Node3</title>
<g id="a_node3"><a xlink:title=" ">
<polygon fill="none" stroke="#bfbfbf" points="0,-0.5 0,-19.5 131,-19.5 131,-0.5 0,-0.5"/>
<text text-anchor="middle" x="65.5" y="-7.5" font-family="Helvetica,sans-Serif" font-size="10.00">boost/asio/ssl/context.hpp</text>
</a>
</g>
</g>
<!-- Node2&#45;&gt;Node3 -->
<g id="edge2" class="edge">
<title>Node2&#45;&gt;Node3</title>
<path fill="none" stroke="midnightblue" d="M198.46,-56.44C171.88,-47.36 129.69,-32.94 99.98,-22.78"/>
<polygon fill="midnightblue" stroke="midnightblue" points="101.01,-19.44 90.42,-19.52 98.75,-26.06 101.01,-19.44"/>
</g>
<!-- Node4 -->
<g id="node4" class="node">
<title>Node4</title>
<g id="a_node4"><a xlink:title=" ">
<polygon fill="none" stroke="#bfbfbf" points="149.5,-0.5 149.5,-19.5 215.5,-19.5 215.5,-0.5 149.5,-0.5"/>
<text text-anchor="middle" x="182.5" y="-7.5" font-family="Helvetica,sans-Serif" font-size="10.00">string_view</text>
</a>
</g>
</g>
<!-- Node2&#45;&gt;Node4 -->
<g id="edge3" class="edge">
<title>Node2&#45;&gt;Node4</title>
<path fill="none" stroke="midnightblue" d="M216.73,-56.08C210.94,-48.46 202.44,-37.26 195.36,-27.94"/>
<polygon fill="midnightblue" stroke="midnightblue" points="197.98,-25.6 189.14,-19.75 192.4,-29.83 197.98,-25.6"/>
</g>
<!-- Node5 -->
<g id="node5" class="node">
<title>Node5</title>
<g id="a_node5"><a xlink:title=" ">
<polygon fill="none" stroke="#bfbfbf" points="233.5,-0.5 233.5,-19.5 295.5,-19.5 295.5,-0.5 233.5,-0.5"/>
<text text-anchor="middle" x="264.5" y="-7.5" font-family="Helvetica,sans-Serif" font-size="10.00">filesystem</text>
</a>
</g>
</g>
<!-- Node2&#45;&gt;Node5 -->
<g id="edge4" class="edge">
<title>Node2&#45;&gt;Node5</title>
<path fill="none" stroke="midnightblue" d="M230.27,-56.08C236.06,-48.46 244.56,-37.26 251.64,-27.94"/>
<polygon fill="midnightblue" stroke="midnightblue" points="254.6,-29.83 257.86,-19.75 249.02,-25.6 254.6,-29.83"/>
</g>
<!-- Node6 -->
<g id="node6" class="node">
<title>Node6</title>
<g id="a_node6"><a xlink:title=" ">
<polygon fill="none" stroke="#bfbfbf" points="313.5,-0.5 313.5,-19.5 359.5,-19.5 359.5,-0.5 313.5,-0.5"/>
<text text-anchor="middle" x="336.5" y="-7.5" font-family="Helvetica,sans-Serif" font-size="10.00">variant</text>
</a>
</g>
</g>
<!-- Node2&#45;&gt;Node6 -->
<g id="edge5" class="edge">
<title>Node2&#45;&gt;Node6</title>
<path fill="none" stroke="midnightblue" d="M241.41,-56.44C259.75,-47.68 288.51,-33.94 309.59,-23.86"/>
<polygon fill="midnightblue" stroke="midnightblue" points="311.17,-26.99 318.68,-19.52 308.15,-20.67 311.17,-26.99"/>
</g>
</g>
</svg>
