<?xml version="1.0" encoding="UTF-8" standalone="no"?>
<!DOCTYPE svg PUBLIC "-//W3C//DTD SVG 1.1//EN"
 "http://www.w3.org/Graphics/SVG/1.1/DTD/svg11.dtd">
<!-- Generated by graphviz version 2.44.1 (20211215.1903)
 -->
<!-- Title: include/roar/literals/memory.hpp Pages: 1 -->
<svg width="2111pt" height="364pt"
 viewBox="0.00 0.00 2111.14 364.00" xmlns="http://www.w3.org/2000/svg" xmlns:xlink="http://www.w3.org/1999/xlink">
<g id="graph0" class="graph" transform="scale(1 1) rotate(0) translate(4 360)">
<title>include/roar/literals/memory.hpp</title>
<!-- Node1 -->
<g id="node1" class="node">
<title>Node1</title>
<g id="a_node1"><a xlink:title=" ">
<polygon fill="#bfbfbf" stroke="black" points="1357.05,-336.5 1357.05,-355.5 1512.05,-355.5 1512.05,-336.5 1357.05,-336.5"/>
<text text-anchor="middle" x="1434.55" y="-343.5" font-family="Helvetica,sans-Serif" font-size="10.00">include/roar/literals/memory.hpp</text>
</a>
</g>
</g>
<!-- Node2 -->
<g id="node2" class="node">
<title>Node2</title>
<g id="a_node2"><a xlink:href="file__server_8hpp.html" target="_top" xlink:title=" ">
<polygon fill="none" stroke="black" points="15.05,-112.5 15.05,-131.5 210.05,-131.5 210.05,-112.5 15.05,-112.5"/>
<text text-anchor="middle" x="112.55" y="-119.5" font-family="Helvetica,sans-Serif" font-size="10.00">examples/serve_directory/file_server.hpp</text>
</a>
</g>
</g>
<!-- Node1&#45;&gt;Node2 -->
<g id="edge1" class="edge">
<title>Node1&#45;&gt;Node2</title>
<path fill="none" stroke="midnightblue" d="M1373.57,-334.76C1149.01,-297.05 370.39,-166.3 163.41,-131.54"/>
<polygon fill="midnightblue" stroke="midnightblue" points="1373.09,-338.23 1383.53,-336.43 1374.25,-331.33 1373.09,-338.23"/>
</g>
<!-- Node5 -->
<g id="node5" class="node">
<title>Node5</title>
<g id="a_node5"><a xlink:href="range__file__body_8hpp.html" target="_top" xlink:title=" ">
<polygon fill="none" stroke="black" points="1344.55,-280.5 1344.55,-299.5 1524.55,-299.5 1524.55,-280.5 1344.55,-280.5"/>
<text text-anchor="middle" x="1434.55" y="-287.5" font-family="Helvetica,sans-Serif" font-size="10.00">include/roar/body/range_file_body.hpp</text>
</a>
</g>
</g>
<!-- Node1&#45;&gt;Node5 -->
<g id="edge4" class="edge">
<title>Node1&#45;&gt;Node5</title>
<path fill="none" stroke="midnightblue" d="M1434.55,-325.8C1434.55,-316.91 1434.55,-306.78 1434.55,-299.75"/>
<polygon fill="midnightblue" stroke="midnightblue" points="1431.05,-326.08 1434.55,-336.08 1438.05,-326.08 1431.05,-326.08"/>
</g>
<!-- Node6 -->
<g id="node6" class="node">
<title>Node6</title>
<g id="a_node6"><a xlink:href="session_8hpp.html" target="_top" xlink:title=" ">
<polygon fill="none" stroke="black" points="1473.05,-224.5 1473.05,-243.5 1632.05,-243.5 1632.05,-224.5 1473.05,-224.5"/>
<text text-anchor="middle" x="1552.55" y="-231.5" font-family="Helvetica,sans-Serif" font-size="10.00">include/roar/session/session.hpp</text>
</a>
</g>
</g>
<!-- Node1&#45;&gt;Node6 -->
<g id="edge39" class="edge">
<title>Node1&#45;&gt;Node6</title>
<path fill="none" stroke="midnightblue" d="M1481.22,-333.07C1499.8,-326.18 1519.96,-315.67 1533.55,-300 1547.72,-283.65 1551.33,-257.23 1552.24,-243.65"/>
<polygon fill="midnightblue" stroke="midnightblue" points="1480,-329.79 1471.69,-336.35 1482.28,-336.4 1480,-329.79"/>
</g>
<!-- Node3 -->
<g id="node3" class="node">
<title>Node3</title>
<g id="a_node3"><a xlink:href="file__server_8cpp.html" target="_top" xlink:title=" ">
<polygon fill="none" stroke="black" points="15.05,-56.5 15.05,-75.5 210.05,-75.5 210.05,-56.5 15.05,-56.5"/>
<text text-anchor="middle" x="112.55" y="-63.5" font-family="Helvetica,sans-Serif" font-size="10.00">examples/serve_directory/file_server.cpp</text>
</a>
</g>
</g>
<!-- Node2&#45;&gt;Node3 -->
<g id="edge2" class="edge">
<title>Node2&#45;&gt;Node3</title>
<path fill="none" stroke="midnightblue" d="M112.55,-101.8C112.55,-92.91 112.55,-82.78 112.55,-75.75"/>
<polygon fill="midnightblue" stroke="midnightblue" points="109.05,-102.08 112.55,-112.08 116.05,-102.08 109.05,-102.08"/>
</g>
<!-- Node4 -->
<g id="node4" class="node">
<title>Node4</title>
<g id="a_node4"><a xlink:href="serve__directory_2main_8cpp.html" target="_top" xlink:title=" ">
<polygon fill="none" stroke="black" points="97.05,-0.5 97.05,-19.5 268.05,-19.5 268.05,-0.5 97.05,-0.5"/>
<text text-anchor="middle" x="182.55" y="-7.5" font-family="Helvetica,sans-Serif" font-size="10.00">examples/serve_directory/main.cpp</text>
</a>
</g>
</g>
<!-- Node2&#45;&gt;Node4 -->
<g id="edge3" class="edge">
<title>Node2&#45;&gt;Node4</title>
<path fill="none" stroke="midnightblue" d="M61.8,-109.86C25.26,-99.43 -14.36,-81.6 5.55,-56 19.17,-38.48 70.83,-26.66 114.85,-19.55"/>
<polygon fill="midnightblue" stroke="midnightblue" points="60.91,-113.25 71.48,-112.48 62.74,-106.49 60.91,-113.25"/>
</g>
<!-- Node5&#45;&gt;Node6 -->
<g id="edge5" class="edge">
<title>Node5&#45;&gt;Node6</title>
<path fill="none" stroke="midnightblue" d="M1462.45,-276.23C1484.52,-266.13 1514.72,-252.31 1533.94,-243.52"/>
<polygon fill="midnightblue" stroke="midnightblue" points="1460.88,-273.1 1453.24,-280.44 1463.79,-279.46 1460.88,-273.1"/>
</g>
<!-- Node7 -->
<g id="node7" class="node">
<title>Node7</title>
<g id="a_node7"><a xlink:href="directory__server_8hpp.html" target="_top" xlink:title=" ">
<polygon fill="none" stroke="black" points="1229.05,-112.5 1229.05,-131.5 1460.05,-131.5 1460.05,-112.5 1229.05,-112.5"/>
<text text-anchor="middle" x="1344.55" y="-119.5" font-family="Helvetica,sans-Serif" font-size="10.00">include/roar/directory_server/directory_server.hpp</text>
</a>
</g>
</g>
<!-- Node6&#45;&gt;Node7 -->
<g id="edge6" class="edge">
<title>Node6&#45;&gt;Node7</title>
<path fill="none" stroke="midnightblue" d="M1520.08,-220.63C1499.01,-212.23 1471.19,-200.43 1447.55,-188 1413.48,-170.1 1375.79,-144.8 1356.85,-131.67"/>
<polygon fill="midnightblue" stroke="midnightblue" points="1518.95,-223.95 1529.53,-224.35 1521.51,-217.43 1518.95,-223.95"/>
</g>
<!-- Node8 -->
<g id="node8" class="node">
<title>Node8</title>
<g id="a_node8"><a xlink:href="server_8hpp.html" target="_top" xlink:title=" ">
<polygon fill="none" stroke="black" points="1171.55,-56.5 1171.55,-75.5 1287.55,-75.5 1287.55,-56.5 1171.55,-56.5"/>
<text text-anchor="middle" x="1229.55" y="-63.5" font-family="Helvetica,sans-Serif" font-size="10.00">include/roar/server.hpp</text>
</a>
</g>
</g>
<!-- Node6&#45;&gt;Node8 -->
<g id="edge33" class="edge">
<title>Node6&#45;&gt;Node8</title>
<path fill="none" stroke="midnightblue" d="M1520.58,-220.13C1506.42,-212.8 1490.88,-202.21 1481.55,-188 1462.77,-159.42 1493.38,-136.53 1469.55,-112 1444.91,-86.65 1350.54,-75.23 1287.74,-70.35"/>
<polygon fill="midnightblue" stroke="midnightblue" points="1519.09,-223.29 1529.62,-224.48 1522.12,-216.99 1519.09,-223.29"/>
</g>
<!-- Node14 -->
<g id="node14" class="node">
<title>Node14</title>
<g id="a_node14"><a xlink:href="server_8cpp.html" target="_top" xlink:title=" ">
<polygon fill="none" stroke="black" points="1769.55,-0.5 1769.55,-19.5 1867.55,-19.5 1867.55,-0.5 1769.55,-0.5"/>
<text text-anchor="middle" x="1818.55" y="-7.5" font-family="Helvetica,sans-Serif" font-size="10.00">src/roar/server.cpp</text>
</a>
</g>
</g>
<!-- Node6&#45;&gt;Node14 -->
<g id="edge36" class="edge">
<title>Node6&#45;&gt;Node14</title>
<path fill="none" stroke="midnightblue" d="M1642.42,-231.92C1786.77,-229.24 2057.17,-219.96 2086.55,-188 2163.53,-104.26 1947.64,-41.58 1856.75,-19.58"/>
<polygon fill="midnightblue" stroke="midnightblue" points="1642.19,-228.42 1632.25,-232.1 1642.31,-235.42 1642.19,-228.42"/>
</g>
<!-- Node15 -->
<g id="node15" class="node">
<title>Node15</title>
<g id="a_node15"><a xlink:href="include_2roar_2routing_2request__listener_8hpp.html" target="_top" xlink:title=" ">
<polygon fill="none" stroke="black" points="771.55,-168.5 771.55,-187.5 961.55,-187.5 961.55,-168.5 771.55,-168.5"/>
<text text-anchor="middle" x="866.55" y="-175.5" font-family="Helvetica,sans-Serif" font-size="10.00">include/roar/routing/request_listener.hpp</text>
</a>
</g>
</g>
<!-- Node6&#45;&gt;Node15 -->
<g id="edge15" class="edge">
<title>Node6&#45;&gt;Node15</title>
<path fill="none" stroke="midnightblue" d="M1462.55,-225.92C1332.84,-215.71 1094.39,-196.94 961.8,-186.5"/>
<polygon fill="midnightblue" stroke="midnightblue" points="1462.6,-229.43 1472.85,-226.73 1463.15,-222.45 1462.6,-229.43"/>
</g>
<!-- Node22 -->
<g id="node22" class="node">
<title>Node22</title>
<g id="a_node22"><a xlink:href="route_8cpp.html" target="_top" xlink:title=" ">
<polygon fill="none" stroke="black" points="1490.05,-168.5 1490.05,-187.5 1615.05,-187.5 1615.05,-168.5 1490.05,-168.5"/>
<text text-anchor="middle" x="1552.55" y="-175.5" font-family="Helvetica,sans-Serif" font-size="10.00">src/roar/routing/route.cpp</text>
</a>
</g>
</g>
<!-- Node6&#45;&gt;Node22 -->
<g id="edge34" class="edge">
<title>Node6&#45;&gt;Node22</title>
<path fill="none" stroke="midnightblue" d="M1552.55,-213.8C1552.55,-204.91 1552.55,-194.78 1552.55,-187.75"/>
<polygon fill="midnightblue" stroke="midnightblue" points="1549.05,-214.08 1552.55,-224.08 1556.05,-214.08 1549.05,-214.08"/>
</g>
<!-- Node23 -->
<g id="node23" class="node">
<title>Node23</title>
<g id="a_node23"><a xlink:href="router_8cpp.html" target="_top" xlink:title=" ">
<polygon fill="none" stroke="black" points="1633.55,-168.5 1633.55,-187.5 1761.55,-187.5 1761.55,-168.5 1633.55,-168.5"/>
<text text-anchor="middle" x="1697.55" y="-175.5" font-family="Helvetica,sans-Serif" font-size="10.00">src/roar/routing/router.cpp</text>
</a>
</g>
</g>
<!-- Node6&#45;&gt;Node23 -->
<g id="edge35" class="edge">
<title>Node6&#45;&gt;Node23</title>
<path fill="none" stroke="midnightblue" d="M1585.02,-220.91C1612.28,-210.75 1650.54,-196.51 1674.68,-187.52"/>
<polygon fill="midnightblue" stroke="midnightblue" points="1583.67,-217.67 1575.52,-224.44 1586.11,-224.23 1583.67,-217.67"/>
</g>
<!-- Node24 -->
<g id="node24" class="node">
<title>Node24</title>
<g id="a_node24"><a xlink:href="factory_8cpp.html" target="_top" xlink:title=" ">
<polygon fill="none" stroke="black" points="1780.05,-168.5 1780.05,-187.5 1917.05,-187.5 1917.05,-168.5 1780.05,-168.5"/>
<text text-anchor="middle" x="1848.55" y="-175.5" font-family="Helvetica,sans-Serif" font-size="10.00">src/roar/session/factory.cpp</text>
</a>
</g>
</g>
<!-- Node6&#45;&gt;Node24 -->
<g id="edge37" class="edge">
<title>Node6&#45;&gt;Node24</title>
<path fill="none" stroke="midnightblue" d="M1609.55,-222.6C1665.49,-212.4 1749.78,-197.02 1801.86,-187.52"/>
<polygon fill="midnightblue" stroke="midnightblue" points="1608.66,-219.21 1599.45,-224.44 1609.91,-226.09 1608.66,-219.21"/>
</g>
<!-- Node25 -->
<g id="node25" class="node">
<title>Node25</title>
<g id="a_node25"><a xlink:href="session_8cpp.html" target="_top" xlink:title=" ">
<polygon fill="none" stroke="black" points="1935.55,-168.5 1935.55,-187.5 2077.55,-187.5 2077.55,-168.5 1935.55,-168.5"/>
<text text-anchor="middle" x="2006.55" y="-175.5" font-family="Helvetica,sans-Serif" font-size="10.00">src/roar/session/session.cpp</text>
</a>
</g>
</g>
<!-- Node6&#45;&gt;Node25 -->
<g id="edge38" class="edge">
<title>Node6&#45;&gt;Node25</title>
<path fill="none" stroke="midnightblue" d="M1634.19,-223.29C1719.97,-213.09 1853.55,-197.2 1935.23,-187.48"/>
<polygon fill="midnightblue" stroke="midnightblue" points="1633.75,-219.82 1624.23,-224.47 1634.58,-226.77 1633.75,-219.82"/>
</g>
<!-- Node7&#45;&gt;Node8 -->
<g id="edge7" class="edge">
<title>Node7&#45;&gt;Node8</title>
<path fill="none" stroke="midnightblue" d="M1317.06,-108.1C1295.58,-98.01 1266.32,-84.27 1247.68,-75.52"/>
<polygon fill="midnightblue" stroke="midnightblue" points="1315.78,-111.36 1326.32,-112.44 1318.76,-105.02 1315.78,-111.36"/>
</g>
<!-- Node8&#45;&gt;Node4 -->
<g id="edge10" class="edge">
<title>Node8&#45;&gt;Node4</title>
<path fill="none" stroke="midnightblue" d="M1161.37,-58.73C1149.11,-57.72 1136.46,-56.76 1124.55,-56 748.09,-31.89 652.88,-45.99 276.55,-20 273.77,-19.81 270.94,-19.6 268.09,-19.38"/>
<polygon fill="midnightblue" stroke="midnightblue" points="1161.28,-62.23 1171.54,-59.58 1161.86,-55.26 1161.28,-62.23"/>
</g>
<!-- Node9 -->
<g id="node9" class="node">
<title>Node9</title>
<g id="a_node9"><a xlink:href="100__continue_2main_8cpp.html" target="_top" xlink:title=" ">
<polygon fill="none" stroke="black" points="954.55,-0.5 954.55,-19.5 1116.55,-19.5 1116.55,-0.5 954.55,-0.5"/>
<text text-anchor="middle" x="1035.55" y="-7.5" font-family="Helvetica,sans-Serif" font-size="10.00">examples/100_continue/main.cpp</text>
</a>
</g>
</g>
<!-- Node8&#45;&gt;Node9 -->
<g id="edge8" class="edge">
<title>Node8&#45;&gt;Node9</title>
<path fill="none" stroke="midnightblue" d="M1188.94,-53.7C1152.33,-43.51 1099.29,-28.74 1066.14,-19.52"/>
<polygon fill="midnightblue" stroke="midnightblue" points="1188.23,-57.13 1198.81,-56.44 1190.11,-50.39 1188.23,-57.13"/>
</g>
<!-- Node10 -->
<g id="node10" class="node">
<title>Node10</title>
<g id="a_node10"><a xlink:href="most__minimal_2main_8cpp.html" target="_top" xlink:title=" ">
<polygon fill="none" stroke="black" points="1135.05,-0.5 1135.05,-19.5 1300.05,-19.5 1300.05,-0.5 1135.05,-0.5"/>
<text text-anchor="middle" x="1217.55" y="-7.5" font-family="Helvetica,sans-Serif" font-size="10.00">examples/most_minimal/main.cpp</text>
</a>
</g>
</g>
<!-- Node8&#45;&gt;Node10 -->
<g id="edge9" class="edge">
<title>Node8&#45;&gt;Node10</title>
<path fill="none" stroke="midnightblue" d="M1225.35,-46.1C1223.35,-37.14 1221.07,-26.86 1219.49,-19.75"/>
<polygon fill="midnightblue" stroke="midnightblue" points="1221.98,-47.08 1227.56,-56.08 1228.81,-45.56 1221.98,-47.08"/>
</g>
<!-- Node11 -->
<g id="node11" class="node">
<title>Node11</title>
<g id="a_node11"><a xlink:href="simple__server_2main_8cpp.html" target="_top" xlink:title=" ">
<polygon fill="none" stroke="black" points="286.05,-0.5 286.05,-19.5 451.05,-19.5 451.05,-0.5 286.05,-0.5"/>
<text text-anchor="middle" x="368.55" y="-7.5" font-family="Helvetica,sans-Serif" font-size="10.00">examples/simple_server/main.cpp</text>
</a>
</g>
</g>
<!-- Node8&#45;&gt;Node11 -->
<g id="edge11" class="edge">
<title>Node8&#45;&gt;Node11</title>
<path fill="none" stroke="midnightblue" d="M1161.36,-58.9C1149.1,-57.87 1136.45,-56.86 1124.55,-56 879.81,-38.23 590.13,-22.45 451.09,-15.21"/>
<polygon fill="midnightblue" stroke="midnightblue" points="1161.27,-62.4 1171.53,-59.75 1161.86,-55.42 1161.27,-62.4"/>
</g>
<!-- Node12 -->
<g id="node12" class="node">
<title>Node12</title>
<g id="a_node12"><a xlink:href="websocket_2main_8cpp.html" target="_top" xlink:title=" ">
<polygon fill="none" stroke="black" points="773.55,-0.5 773.55,-19.5 925.55,-19.5 925.55,-0.5 773.55,-0.5"/>
<text text-anchor="middle" x="849.55" y="-7.5" font-family="Helvetica,sans-Serif" font-size="10.00">examples/websocket/main.cpp</text>
</a>
</g>
</g>
<!-- Node8&#45;&gt;Node12 -->
<g id="edge12" class="edge">
<title>Node8&#45;&gt;Node12</title>
<path fill="none" stroke="midnightblue" d="M1161.14,-55.28C1089.45,-45.09 977.92,-29.24 909.55,-19.53"/>
<polygon fill="midnightblue" stroke="midnightblue" points="1161.02,-58.8 1171.42,-56.74 1162.01,-51.87 1161.02,-58.8"/>
</g>
<!-- Node13 -->
<g id="node13" class="node">
<title>Node13</title>
<g id="a_node13"><a xlink:href="src_2roar_2routing_2request__listener_8cpp.html" target="_top" xlink:title=" ">
<polygon fill="none" stroke="black" points="1318.05,-0.5 1318.05,-19.5 1491.05,-19.5 1491.05,-0.5 1318.05,-0.5"/>
<text text-anchor="middle" x="1404.55" y="-7.5" font-family="Helvetica,sans-Serif" font-size="10.00">src/roar/routing/request_listener.cpp</text>
</a>
</g>
</g>
<!-- Node8&#45;&gt;Node13 -->
<g id="edge13" class="edge">
<title>Node8&#45;&gt;Node13</title>
<path fill="none" stroke="midnightblue" d="M1267.02,-53.44C1300.02,-43.26 1347.3,-28.66 1376.95,-19.52"/>
<polygon fill="midnightblue" stroke="midnightblue" points="1265.8,-50.15 1257.27,-56.44 1267.86,-56.84 1265.8,-50.15"/>
</g>
<!-- Node8&#45;&gt;Node14 -->
<g id="edge14" class="edge">
<title>Node8&#45;&gt;Node14</title>
<path fill="none" stroke="midnightblue" d="M1297.81,-58.74C1417.91,-47.73 1664.24,-25.15 1769.3,-15.51"/>
<polygon fill="midnightblue" stroke="midnightblue" points="1297.27,-55.28 1287.63,-59.67 1297.91,-62.25 1297.27,-55.28"/>
</g>
<!-- Node15&#45;&gt;Node2 -->
<g id="edge20" class="edge">
<title>Node15&#45;&gt;Node2</title>
<path fill="none" stroke="midnightblue" d="M761.33,-169.99C633.97,-161.43 412.99,-146.31 223.55,-132 219.21,-131.67 214.77,-131.33 210.3,-130.99"/>
<polygon fill="midnightblue" stroke="midnightblue" points="761.26,-173.5 771.47,-170.68 761.72,-166.51 761.26,-173.5"/>
</g>
<!-- Node15&#45;&gt;Node4 -->
<g id="edge21" class="edge">
<title>Node15&#45;&gt;Node4</title>
<path fill="none" stroke="midnightblue" d="M761.17,-176.48C623.84,-174.43 392.08,-165.85 314.55,-132 284.49,-118.88 214.31,-45.19 190.56,-19.69"/>
<polygon fill="midnightblue" stroke="midnightblue" points="761.25,-179.98 771.3,-176.62 761.35,-172.98 761.25,-179.98"/>
</g>
<!-- Node15&#45;&gt;Node7 -->
<g id="edge30" class="edge">
<title>Node15&#45;&gt;Node7</title>
<path fill="none" stroke="midnightblue" d="M952.22,-167.32C1042.38,-157.14 1182.94,-141.26 1269.07,-131.53"/>
<polygon fill="midnightblue" stroke="midnightblue" points="951.57,-163.87 942.02,-168.47 952.35,-170.83 951.57,-163.87"/>
</g>
<!-- Node15&#45;&gt;Node8 -->
<g id="edge31" class="edge">
<title>Node15&#45;&gt;Node8</title>
<path fill="none" stroke="midnightblue" d="M971.87,-170.81C1023.62,-164.99 1085.99,-153.73 1138.55,-132 1171.92,-118.2 1204.83,-90.14 1220.34,-75.83"/>
<polygon fill="midnightblue" stroke="midnightblue" points="971.23,-167.35 961.66,-171.9 971.98,-174.31 971.23,-167.35"/>
</g>
<!-- Node15&#45;&gt;Node9 -->
<g id="edge16" class="edge">
<title>Node15&#45;&gt;Node9</title>
<path fill="none" stroke="midnightblue" d="M972,-171.95C1010.59,-166.03 1052.98,-154.39 1086.55,-132 1117.96,-111.05 1144.33,-88.17 1124.55,-56 1113.12,-37.42 1091.38,-26.23 1072.25,-19.65"/>
<polygon fill="midnightblue" stroke="midnightblue" points="971.17,-168.54 961.76,-173.41 972.15,-175.47 971.17,-168.54"/>
</g>
<!-- Node15&#45;&gt;Node11 -->
<g id="edge22" class="edge">
<title>Node15&#45;&gt;Node11</title>
<path fill="none" stroke="midnightblue" d="M761.11,-175.12C614.28,-171.46 362.73,-160.99 332.55,-132 308.08,-108.5 312.92,-87.48 325.55,-56 331.66,-40.76 345.67,-27.75 356.05,-19.7"/>
<polygon fill="midnightblue" stroke="midnightblue" points="761.42,-178.63 771.5,-175.37 761.59,-171.63 761.42,-178.63"/>
</g>
<!-- Node15&#45;&gt;Node12 -->
<g id="edge26" class="edge">
<title>Node15&#45;&gt;Node12</title>
<path fill="none" stroke="midnightblue" d="M761.12,-172.9C720.72,-167.18 675.89,-155.44 640.55,-132 615.48,-115.38 611.38,-104.75 602.55,-76 599.93,-67.5 596.85,-62.83 602.55,-56 624.05,-30.23 709.06,-19.18 773.4,-14.46"/>
<polygon fill="midnightblue" stroke="midnightblue" points="760.92,-176.4 771.28,-174.22 761.82,-169.46 760.92,-176.4"/>
</g>
<!-- Node15&#45;&gt;Node13 -->
<g id="edge32" class="edge">
<title>Node15&#45;&gt;Node13</title>
<path fill="none" stroke="midnightblue" d="M971.85,-168.36C1030.81,-161.79 1105.19,-150.6 1169.55,-132 1184.36,-127.72 1282.86,-83.1 1296.55,-76 1331.9,-57.66 1371.57,-32.54 1391.55,-19.56"/>
<polygon fill="midnightblue" stroke="midnightblue" points="971.34,-164.9 961.77,-169.46 972.09,-171.85 971.34,-164.9"/>
</g>
<!-- Node16 -->
<g id="node16" class="node">
<title>Node16</title>
<g id="a_node16"><a xlink:href="examples_2100__continue_2request__listener_8hpp.html" target="_top" xlink:title=" ">
<polygon fill="none" stroke="black" points="649.55,-112.5 649.55,-131.5 859.55,-131.5 859.55,-112.5 649.55,-112.5"/>
<text text-anchor="middle" x="754.55" y="-119.5" font-family="Helvetica,sans-Serif" font-size="10.00">examples/100_continue/request_listener.hpp</text>
</a>
</g>
</g>
<!-- Node15&#45;&gt;Node16 -->
<g id="edge17" class="edge">
<title>Node15&#45;&gt;Node16</title>
<path fill="none" stroke="midnightblue" d="M839.3,-163.86C818.53,-153.85 790.52,-140.35 772.5,-131.65"/>
<polygon fill="midnightblue" stroke="midnightblue" points="838.02,-167.13 848.55,-168.32 841.06,-160.83 838.02,-167.13"/>
</g>
<!-- Node18 -->
<g id="node18" class="node">
<title>Node18</title>
<g id="a_node18"><a xlink:href="examples_2simple__server_2request__listener_8hpp.html" target="_top" xlink:title=" ">
<polygon fill="none" stroke="black" points="342.05,-112.5 342.05,-131.5 555.05,-131.5 555.05,-112.5 342.05,-112.5"/>
<text text-anchor="middle" x="448.55" y="-119.5" font-family="Helvetica,sans-Serif" font-size="10.00">examples/simple_server/request_listener.hpp</text>
</a>
</g>
</g>
<!-- Node15&#45;&gt;Node18 -->
<g id="edge23" class="edge">
<title>Node15&#45;&gt;Node18</title>
<path fill="none" stroke="midnightblue" d="M789.95,-167.1C711.01,-156.91 589.25,-141.18 514.47,-131.52"/>
<polygon fill="midnightblue" stroke="midnightblue" points="789.95,-170.63 800.31,-168.44 790.84,-163.69 789.95,-170.63"/>
</g>
<!-- Node20 -->
<g id="node20" class="node">
<title>Node20</title>
<g id="a_node20"><a xlink:href="examples_2websocket_2request__listener_8hpp.html" target="_top" xlink:title=" ">
<polygon fill="none" stroke="black" points="877.55,-112.5 877.55,-131.5 1077.55,-131.5 1077.55,-112.5 877.55,-112.5"/>
<text text-anchor="middle" x="977.55" y="-119.5" font-family="Helvetica,sans-Serif" font-size="10.00">examples/websocket/request_listener.hpp</text>
</a>
</g>
</g>
<!-- Node15&#45;&gt;Node20 -->
<g id="edge27" class="edge">
<title>Node15&#45;&gt;Node20</title>
<path fill="none" stroke="midnightblue" d="M893.55,-163.86C914.13,-153.85 941.89,-140.35 959.76,-131.65"/>
<polygon fill="midnightblue" stroke="midnightblue" points="891.84,-160.8 884.38,-168.32 894.9,-167.1 891.84,-160.8"/>
</g>
<!-- Node16&#45;&gt;Node9 -->
<g id="edge18" class="edge">
<title>Node16&#45;&gt;Node9</title>
<path fill="none" stroke="midnightblue" d="M782.7,-108.27C813.03,-94.73 862.84,-72.94 906.55,-56 941.71,-42.37 982.96,-28.31 1009.16,-19.61"/>
<polygon fill="midnightblue" stroke="midnightblue" points="781.26,-105.08 773.57,-112.37 784.13,-111.47 781.26,-105.08"/>
</g>
<!-- Node17 -->
<g id="node17" class="node">
<title>Node17</title>
<g id="a_node17"><a xlink:href="examples_2100__continue_2request__listener_8cpp.html" target="_top" xlink:title=" ">
<polygon fill="none" stroke="black" points="611.55,-56.5 611.55,-75.5 821.55,-75.5 821.55,-56.5 611.55,-56.5"/>
<text text-anchor="middle" x="716.55" y="-63.5" font-family="Helvetica,sans-Serif" font-size="10.00">examples/100_continue/request_listener.cpp</text>
</a>
</g>
</g>
<!-- Node16&#45;&gt;Node17 -->
<g id="edge19" class="edge">
<title>Node16&#45;&gt;Node17</title>
<path fill="none" stroke="midnightblue" d="M742.48,-103.86C735.9,-94.5 728.03,-83.33 722.7,-75.75"/>
<polygon fill="midnightblue" stroke="midnightblue" points="739.65,-105.92 748.27,-112.08 745.38,-101.89 739.65,-105.92"/>
</g>
<!-- Node18&#45;&gt;Node11 -->
<g id="edge24" class="edge">
<title>Node18&#45;&gt;Node11</title>
<path fill="none" stroke="midnightblue" d="M380.27,-109.35C361.73,-102.72 343.72,-92.32 332.55,-76 319.43,-56.84 342.55,-32.49 357.44,-19.72"/>
<polygon fill="midnightblue" stroke="midnightblue" points="379.38,-112.74 389.97,-112.48 381.53,-106.08 379.38,-112.74"/>
</g>
<!-- Node19 -->
<g id="node19" class="node">
<title>Node19</title>
<g id="a_node19"><a xlink:href="examples_2simple__server_2request__listener_8cpp.html" target="_top" xlink:title=" ">
<polygon fill="none" stroke="black" points="342.05,-56.5 342.05,-75.5 555.05,-75.5 555.05,-56.5 342.05,-56.5"/>
<text text-anchor="middle" x="448.55" y="-63.5" font-family="Helvetica,sans-Serif" font-size="10.00">examples/simple_server/request_listener.cpp</text>
</a>
</g>
</g>
<!-- Node18&#45;&gt;Node19 -->
<g id="edge25" class="edge">
<title>Node18&#45;&gt;Node19</title>
<path fill="none" stroke="midnightblue" d="M448.55,-101.8C448.55,-92.91 448.55,-82.78 448.55,-75.75"/>
<polygon fill="midnightblue" stroke="midnightblue" points="445.05,-102.08 448.55,-112.08 452.05,-102.08 445.05,-102.08"/>
</g>
<!-- Node20&#45;&gt;Node12 -->
<g id="edge28" class="edge">
<title>Node20&#45;&gt;Node12</title>
<path fill="none" stroke="midnightblue" d="M952.41,-107.45C938.25,-99.25 920.64,-88.07 906.55,-76 885.79,-58.24 865.74,-32.88 855.88,-19.7"/>
<polygon fill="midnightblue" stroke="midnightblue" points="950.71,-110.51 961.14,-112.38 954.15,-104.41 950.71,-110.51"/>
</g>
<!-- Node21 -->
<g id="node21" class="node">
<title>Node21</title>
<g id="a_node21"><a xlink:href="examples_2websocket_2request__listener_8cpp.html" target="_top" xlink:title=" ">
<polygon fill="none" stroke="black" points="915.55,-56.5 915.55,-75.5 1115.55,-75.5 1115.55,-56.5 915.55,-56.5"/>
<text text-anchor="middle" x="1015.55" y="-63.5" font-family="Helvetica,sans-Serif" font-size="10.00">examples/websocket/request_listener.cpp</text>
</a>
</g>
</g>
<!-- Node20&#45;&gt;Node21 -->
<g id="edge29" class="edge">
<title>Node20&#45;&gt;Node21</title>
<path fill="none" stroke="midnightblue" d="M989.61,-103.86C996.19,-94.5 1004.06,-83.33 1009.39,-75.75"/>
<polygon fill="midnightblue" stroke="midnightblue" points="986.71,-101.89 983.82,-112.08 992.44,-105.92 986.71,-101.89"/>
</g>
</g>
</svg>
