<?xml version="1.0" encoding="UTF-8" standalone="no"?>
<!DOCTYPE svg PUBLIC "-//W3C//DTD SVG 1.1//EN"
 "http://www.w3.org/Graphics/SVG/1.1/DTD/svg11.dtd">
<!-- Generated by graphviz version 2.44.1 (20211215.1903)
 -->
<!-- Title: include/roar/literals/memory.hpp Pages: 1 -->
<!--zoomable 308 -->
<svg id="main" version="1.1" xmlns="http://www.w3.org/2000/svg" xmlns:xlink="http://www.w3.org/1999/xlink" xml:space="preserve" onload="init(evt)">
<style type="text/css"><![CDATA[
.edge:hover path { stroke: red; }
.edge:hover polygon { stroke: red; fill: red; }
]]></style>
<script type="text/javascript"><![CDATA[
var edges = document.getElementsByTagName('g');
if (edges && edges.length) {
  for (var i=0;i<edges.length;i++) {
    if (edges[i].id.substr(0,4)=='edge') {
      edges[i].setAttribute('class','edge');
    }
  }
}
]]></script>
        <defs>
                <circle id="rim" cx="0" cy="0" r="7"/>
                <circle id="rim2" cx="0" cy="0" r="3.5"/>
                <g id="zoomPlus">
                        <use xlink:href="#rim" fill="#404040">
                                <set attributeName="fill" to="#808080" begin="zoomplus.mouseover" end="zoomplus.mouseout"/>
                        </use>
                        <path d="M-4,0h8M0,-4v8" fill="none" stroke="white" stroke-width="1.5" pointer-events="none"/>
                </g>
                <g id="zoomMin">
                        <use xlink:href="#rim" fill="#404040">
                                <set attributeName="fill" to="#808080" begin="zoomminus.mouseover" end="zoomminus.mouseout"/>
                        </use>
                        <path d="M-4,0h8" fill="none" stroke="white" stroke-width="1.5" pointer-events="none"/>
                </g>
                <g id="dirArrow">
                        <path fill="none" stroke="white" stroke-width="1.5" d="M0,-3.0v7 M-2.5,-0.5L0,-3.0L2.5,-0.5"/>
                </g>
               <g id="resetDef">
                       <use xlink:href="#rim2" fill="#404040">
                               <set attributeName="fill" to="#808080" begin="reset.mouseover" end="reset.mouseout"/>
                       </use>
               </g>
        </defs>

<script type="text/javascript">
var viewWidth = 1940;
var viewHeight = 308;
var sectionId = 'dynsection-0';
</script>
<script xlink:href="svgpan.js"/>
<svg id="graph" class="graph">
<g id="viewport">
<title>include/roar/literals/memory.hpp</title>
<!-- Node1 -->
<g id="node1" class="node">
<title>Node1</title>
<g id="a_node1"><a xlink:title=" ">
<polygon fill="#bfbfbf" stroke="black" points="750.27,-280.5 750.27,-299.5 905.27,-299.5 905.27,-280.5 750.27,-280.5"/>
<text text-anchor="middle" x="827.77" y="-287.5" font-family="Helvetica,sans-Serif" font-size="10.00">include/roar/literals/memory.hpp</text>
</a>
</g>
</g>
<!-- Node2 -->
<g id="node2" class="node">
<title>Node2</title>
<g id="a_node2"><a xlink:href="file__server_8hpp.html" target="_top" xlink:title=" ">
<polygon fill="none" stroke="black" points="1721.27,-112.5 1721.27,-131.5 1916.27,-131.5 1916.27,-112.5 1721.27,-112.5"/>
<text text-anchor="middle" x="1818.77" y="-119.5" font-family="Helvetica,sans-Serif" font-size="10.00">examples/serve_directory/file_server.hpp</text>
</a>
</g>
</g>
<!-- Node1&#45;&gt;Node2 -->
<g id="edge1" class="edge">
<title>Node1&#45;&gt;Node2</title>
<path fill="none" stroke="midnightblue" d="M888.75,-278.79C1069.59,-248.49 1600.72,-159.53 1767.83,-131.53"/>
<polygon fill="midnightblue" stroke="midnightblue" points="887.91,-275.38 878.62,-280.48 889.06,-282.28 887.91,-275.38"/>
</g>
<!-- Node5 -->
<g id="node5" class="node">
<title>Node5</title>
<g id="a_node5"><a xlink:href="session_8hpp.html" target="_top" xlink:title=" ">
<polygon fill="none" stroke="black" points="460.27,-224.5 460.27,-243.5 619.27,-243.5 619.27,-224.5 460.27,-224.5"/>
<text text-anchor="middle" x="539.77" y="-231.5" font-family="Helvetica,sans-Serif" font-size="10.00">include/roar/session/session.hpp</text>
</a>
</g>
</g>
<!-- Node1&#45;&gt;Node5 -->
<g id="edge4" class="edge">
<title>Node1&#45;&gt;Node5</title>
<path fill="none" stroke="midnightblue" d="M771.97,-278.54C717.54,-268.33 635.77,-253 585.19,-243.52"/>
<polygon fill="midnightblue" stroke="midnightblue" points="771.66,-282.04 782.14,-280.44 772.95,-275.16 771.66,-282.04"/>
</g>
<!-- Node3 -->
<g id="node3" class="node">
<title>Node3</title>
<g id="a_node3"><a xlink:href="file__server_8cpp.html" target="_top" xlink:title=" ">
<polygon fill="none" stroke="black" points="1721.27,-56.5 1721.27,-75.5 1916.27,-75.5 1916.27,-56.5 1721.27,-56.5"/>
<text text-anchor="middle" x="1818.77" y="-63.5" font-family="Helvetica,sans-Serif" font-size="10.00">examples/serve_directory/file_server.cpp</text>
</a>
</g>
</g>
<!-- Node2&#45;&gt;Node3 -->
<g id="edge2" class="edge">
<title>Node2&#45;&gt;Node3</title>
<path fill="none" stroke="midnightblue" d="M1818.77,-101.8C1818.77,-92.91 1818.77,-82.78 1818.77,-75.75"/>
<polygon fill="midnightblue" stroke="midnightblue" points="1815.27,-102.08 1818.77,-112.08 1822.27,-102.08 1815.27,-102.08"/>
</g>
<!-- Node4 -->
<g id="node4" class="node">
<title>Node4</title>
<g id="a_node4"><a xlink:href="serve__directory_2main_8cpp.html" target="_top" xlink:title=" ">
<polygon fill="none" stroke="black" points="1608.27,-0.5 1608.27,-19.5 1779.27,-19.5 1779.27,-0.5 1608.27,-0.5"/>
<text text-anchor="middle" x="1693.77" y="-7.5" font-family="Helvetica,sans-Serif" font-size="10.00">examples/serve_directory/main.cpp</text>
</a>
</g>
</g>
<!-- Node2&#45;&gt;Node4 -->
<g id="edge3" class="edge">
<title>Node2&#45;&gt;Node4</title>
<path fill="none" stroke="midnightblue" d="M1869.22,-109.75C1906.17,-99.17 1946.53,-81.17 1925.77,-56 1907.21,-33.49 1837.64,-22.1 1779.48,-16.42"/>
<polygon fill="midnightblue" stroke="midnightblue" points="1868.17,-106.41 1859.44,-112.41 1870.01,-113.16 1868.17,-106.41"/>
</g>
<!-- Node6 -->
<g id="node6" class="node">
<title>Node6</title>
<g id="a_node6"><a xlink:href="directory__server_8hpp.html" target="_top" xlink:title=" ">
<polygon fill="none" stroke="black" points="640.27,-112.5 640.27,-131.5 871.27,-131.5 871.27,-112.5 640.27,-112.5"/>
<text text-anchor="middle" x="755.77" y="-119.5" font-family="Helvetica,sans-Serif" font-size="10.00">include/roar/directory_server/directory_server.hpp</text>
</a>
</g>
</g>
<!-- Node5&#45;&gt;Node6 -->
<g id="edge5" class="edge">
<title>Node5&#45;&gt;Node6</title>
<path fill="none" stroke="midnightblue" d="M574.61,-221.02C597.32,-212.75 627.36,-200.94 652.77,-188 687.25,-170.44 725.07,-144.77 743.83,-131.56"/>
<polygon fill="midnightblue" stroke="midnightblue" points="573.27,-217.78 565.04,-224.45 575.63,-224.37 573.27,-217.78"/>
</g>
<!-- Node7 -->
<g id="node7" class="node">
<title>Node7</title>
<g id="a_node7"><a xlink:href="server_8hpp.html" target="_top" xlink:title=" ">
<polygon fill="none" stroke="black" points="726.77,-56.5 726.77,-75.5 842.77,-75.5 842.77,-56.5 726.77,-56.5"/>
<text text-anchor="middle" x="784.77" y="-63.5" font-family="Helvetica,sans-Serif" font-size="10.00">include/roar/server.hpp</text>
</a>
</g>
</g>
<!-- Node5&#45;&gt;Node7 -->
<g id="edge33" class="edge">
<title>Node5&#45;&gt;Node7</title>
<path fill="none" stroke="midnightblue" d="M576.96,-220.49C592.57,-213.37 609.45,-202.84 619.77,-188 639.29,-159.92 609.21,-137.69 631.77,-112 655.34,-85.16 694.01,-73.95 726.57,-69.42"/>
<polygon fill="midnightblue" stroke="midnightblue" points="575.33,-217.38 567.48,-224.49 578.06,-223.83 575.33,-217.38"/>
</g>
<!-- Node13 -->
<g id="node13" class="node">
<title>Node13</title>
<g id="a_node13"><a xlink:href="server_8cpp.html" target="_top" xlink:title=" ">
<polygon fill="none" stroke="black" points="102.77,-0.5 102.77,-19.5 200.77,-19.5 200.77,-0.5 102.77,-0.5"/>
<text text-anchor="middle" x="151.77" y="-7.5" font-family="Helvetica,sans-Serif" font-size="10.00">src/roar/server.cpp</text>
</a>
</g>
</g>
<!-- Node5&#45;&gt;Node13 -->
<g id="edge36" class="edge">
<title>Node5&#45;&gt;Node13</title>
<path fill="none" stroke="midnightblue" d="M450.12,-231.8C307.65,-228.94 42.62,-219.42 13.77,-188 -41.96,-127.29 88.59,-46.08 135.66,-19.68"/>
<polygon fill="midnightblue" stroke="midnightblue" points="450.1,-235.3 460.16,-231.99 450.23,-228.3 450.1,-235.3"/>
</g>
<!-- Node14 -->
<g id="node14" class="node">
<title>Node14</title>
<g id="a_node14"><a xlink:href="include_2roar_2routing_2request__listener_8hpp.html" target="_top" xlink:title=" ">
<polygon fill="none" stroke="black" points="977.77,-168.5 977.77,-187.5 1167.77,-187.5 1167.77,-168.5 977.77,-168.5"/>
<text text-anchor="middle" x="1072.77" y="-175.5" font-family="Helvetica,sans-Serif" font-size="10.00">include/roar/routing/request_listener.hpp</text>
</a>
</g>
</g>
<!-- Node5&#45;&gt;Node14 -->
<g id="edge14" class="edge">
<title>Node5&#45;&gt;Node14</title>
<path fill="none" stroke="midnightblue" d="M629.39,-223.92C729.68,-213.76 890.89,-197.43 988.81,-187.51"/>
<polygon fill="midnightblue" stroke="midnightblue" points="628.88,-220.45 619.28,-224.94 629.58,-227.42 628.88,-220.45"/>
</g>
<!-- Node22 -->
<g id="node22" class="node">
<title>Node22</title>
<g id="a_node22"><a xlink:href="route_8cpp.html" target="_top" xlink:title=" ">
<polygon fill="none" stroke="black" points="23.27,-168.5 23.27,-187.5 148.27,-187.5 148.27,-168.5 23.27,-168.5"/>
<text text-anchor="middle" x="85.77" y="-175.5" font-family="Helvetica,sans-Serif" font-size="10.00">src/roar/routing/route.cpp</text>
</a>
</g>
</g>
<!-- Node5&#45;&gt;Node22 -->
<g id="edge34" class="edge">
<title>Node5&#45;&gt;Node22</title>
<path fill="none" stroke="midnightblue" d="M455.99,-223.3C378.58,-214.3 260.39,-200.46 157.77,-188 154.77,-187.64 151.7,-187.26 148.6,-186.88"/>
<polygon fill="midnightblue" stroke="midnightblue" points="455.83,-226.81 466.16,-224.49 456.64,-219.85 455.83,-226.81"/>
</g>
<!-- Node23 -->
<g id="node23" class="node">
<title>Node23</title>
<g id="a_node23"><a xlink:href="router_8cpp.html" target="_top" xlink:title=" ">
<polygon fill="none" stroke="black" points="166.77,-168.5 166.77,-187.5 294.77,-187.5 294.77,-168.5 166.77,-168.5"/>
<text text-anchor="middle" x="230.77" y="-175.5" font-family="Helvetica,sans-Serif" font-size="10.00">src/roar/routing/router.cpp</text>
</a>
</g>
</g>
<!-- Node5&#45;&gt;Node23 -->
<g id="edge35" class="edge">
<title>Node5&#45;&gt;Node23</title>
<path fill="none" stroke="midnightblue" d="M480.63,-222.66C422.23,-212.46 333.99,-197.04 279.5,-187.52"/>
<polygon fill="midnightblue" stroke="midnightblue" points="480.36,-226.17 490.81,-224.44 481.56,-219.27 480.36,-226.17"/>
</g>
<!-- Node24 -->
<g id="node24" class="node">
<title>Node24</title>
<g id="a_node24"><a xlink:href="factory_8cpp.html" target="_top" xlink:title=" ">
<polygon fill="none" stroke="black" points="313.27,-168.5 313.27,-187.5 450.27,-187.5 450.27,-168.5 313.27,-168.5"/>
<text text-anchor="middle" x="381.77" y="-175.5" font-family="Helvetica,sans-Serif" font-size="10.00">src/roar/session/factory.cpp</text>
</a>
</g>
</g>
<!-- Node5&#45;&gt;Node24 -->
<g id="edge37" class="edge">
<title>Node5&#45;&gt;Node24</title>
<path fill="none" stroke="midnightblue" d="M505.16,-221.17C475.41,-211 433.22,-196.59 406.69,-187.52"/>
<polygon fill="midnightblue" stroke="midnightblue" points="504.14,-224.52 514.74,-224.44 506.41,-217.9 504.14,-224.52"/>
</g>
<!-- Node25 -->
<g id="node25" class="node">
<title>Node25</title>
<g id="a_node25"><a xlink:href="session_8cpp.html" target="_top" xlink:title=" ">
<polygon fill="none" stroke="black" points="468.77,-168.5 468.77,-187.5 610.77,-187.5 610.77,-168.5 468.77,-168.5"/>
<text text-anchor="middle" x="539.77" y="-175.5" font-family="Helvetica,sans-Serif" font-size="10.00">src/roar/session/session.cpp</text>
</a>
</g>
</g>
<!-- Node5&#45;&gt;Node25 -->
<g id="edge38" class="edge">
<title>Node5&#45;&gt;Node25</title>
<path fill="none" stroke="midnightblue" d="M539.77,-213.8C539.77,-204.91 539.77,-194.78 539.77,-187.75"/>
<polygon fill="midnightblue" stroke="midnightblue" points="536.27,-214.08 539.77,-224.08 543.27,-214.08 536.27,-214.08"/>
</g>
<!-- Node6&#45;&gt;Node7 -->
<g id="edge6" class="edge">
<title>Node6&#45;&gt;Node7</title>
<path fill="none" stroke="midnightblue" d="M765.45,-102.98C770.37,-93.82 776.13,-83.09 780.07,-75.75"/>
<polygon fill="midnightblue" stroke="midnightblue" points="762.21,-101.62 760.56,-112.08 768.38,-104.93 762.21,-101.62"/>
</g>
<!-- Node7&#45;&gt;Node4 -->
<g id="edge9" class="edge">
<title>Node7&#45;&gt;Node4</title>
<path fill="none" stroke="midnightblue" d="M853.42,-60.92C1016.88,-51.21 1428.87,-26.74 1608.18,-16.08"/>
<polygon fill="midnightblue" stroke="midnightblue" points="852.79,-57.45 843.02,-61.54 853.21,-64.44 852.79,-57.45"/>
</g>
<!-- Node8 -->
<g id="node8" class="node">
<title>Node8</title>
<g id="a_node8"><a xlink:href="100__continue_2main_8cpp.html" target="_top" xlink:title=" ">
<polygon fill="none" stroke="black" points="349.77,-0.5 349.77,-19.5 511.77,-19.5 511.77,-0.5 349.77,-0.5"/>
<text text-anchor="middle" x="430.77" y="-7.5" font-family="Helvetica,sans-Serif" font-size="10.00">examples/100_continue/main.cpp</text>
</a>
</g>
</g>
<!-- Node7&#45;&gt;Node8 -->
<g id="edge7" class="edge">
<title>Node7&#45;&gt;Node8</title>
<path fill="none" stroke="midnightblue" d="M718.67,-54.92C651.79,-44.71 549.54,-29.12 486.6,-19.52"/>
<polygon fill="midnightblue" stroke="midnightblue" points="718.27,-58.4 728.68,-56.44 719.32,-51.48 718.27,-58.4"/>
</g>
<!-- Node9 -->
<g id="node9" class="node">
<title>Node9</title>
<g id="a_node9"><a xlink:href="most__minimal_2main_8cpp.html" target="_top" xlink:title=" ">
<polygon fill="none" stroke="black" points="571.27,-0.5 571.27,-19.5 736.27,-19.5 736.27,-0.5 571.27,-0.5"/>
<text text-anchor="middle" x="653.77" y="-7.5" font-family="Helvetica,sans-Serif" font-size="10.00">examples/most_minimal/main.cpp</text>
</a>
</g>
</g>
<!-- Node7&#45;&gt;Node9 -->
<g id="edge8" class="edge">
<title>Node7&#45;&gt;Node9</title>
<path fill="none" stroke="midnightblue" d="M754.45,-52.5C729.9,-42.38 695.95,-28.39 674.43,-19.52"/>
<polygon fill="midnightblue" stroke="midnightblue" points="753.43,-55.87 764.01,-56.44 756.1,-49.4 753.43,-55.87"/>
</g>
<!-- Node10 -->
<g id="node10" class="node">
<title>Node10</title>
<g id="a_node10"><a xlink:href="simple__server_2main_8cpp.html" target="_top" xlink:title=" ">
<polygon fill="none" stroke="black" points="945.27,-0.5 945.27,-19.5 1110.27,-19.5 1110.27,-0.5 945.27,-0.5"/>
<text text-anchor="middle" x="1027.77" y="-7.5" font-family="Helvetica,sans-Serif" font-size="10.00">examples/simple_server/main.cpp</text>
</a>
</g>
</g>
<!-- Node7&#45;&gt;Node10 -->
<g id="edge10" class="edge">
<title>Node7&#45;&gt;Node10</title>
<path fill="none" stroke="midnightblue" d="M833.29,-54.22C879.21,-44.01 947.22,-28.9 989.45,-19.52"/>
<polygon fill="midnightblue" stroke="midnightblue" points="832.28,-50.86 823.28,-56.44 833.8,-57.69 832.28,-50.86"/>
</g>
<!-- Node11 -->
<g id="node11" class="node">
<title>Node11</title>
<g id="a_node11"><a xlink:href="websocket_2main_8cpp.html" target="_top" xlink:title=" ">
<polygon fill="none" stroke="black" points="1169.77,-0.5 1169.77,-19.5 1321.77,-19.5 1321.77,-0.5 1169.77,-0.5"/>
<text text-anchor="middle" x="1245.77" y="-7.5" font-family="Helvetica,sans-Serif" font-size="10.00">examples/websocket/main.cpp</text>
</a>
</g>
</g>
<!-- Node7&#45;&gt;Node11 -->
<g id="edge11" class="edge">
<title>Node7&#45;&gt;Node11</title>
<path fill="none" stroke="midnightblue" d="M853.31,-56.97C939.1,-46.92 1085.39,-29.79 1173.08,-19.51"/>
<polygon fill="midnightblue" stroke="midnightblue" points="852.68,-53.52 843.16,-58.16 853.5,-60.47 852.68,-53.52"/>
</g>
<!-- Node12 -->
<g id="node12" class="node">
<title>Node12</title>
<g id="a_node12"><a xlink:href="src_2roar_2routing_2request__listener_8cpp.html" target="_top" xlink:title=" ">
<polygon fill="none" stroke="black" points="754.27,-0.5 754.27,-19.5 927.27,-19.5 927.27,-0.5 754.27,-0.5"/>
<text text-anchor="middle" x="840.77" y="-7.5" font-family="Helvetica,sans-Serif" font-size="10.00">src/roar/routing/request_listener.cpp</text>
</a>
</g>
</g>
<!-- Node7&#45;&gt;Node12 -->
<g id="edge12" class="edge">
<title>Node7&#45;&gt;Node12</title>
<path fill="none" stroke="midnightblue" d="M801.1,-49.25C811.04,-39.67 823.36,-27.79 831.61,-19.83"/>
<polygon fill="midnightblue" stroke="midnightblue" points="798.54,-46.86 793.77,-56.32 803.4,-51.9 798.54,-46.86"/>
</g>
<!-- Node7&#45;&gt;Node13 -->
<g id="edge13" class="edge">
<title>Node7&#45;&gt;Node13</title>
<path fill="none" stroke="midnightblue" d="M716.52,-59.18C587.99,-48.21 312.88,-24.74 200.81,-15.18"/>
<polygon fill="midnightblue" stroke="midnightblue" points="716.38,-62.68 726.64,-60.04 716.97,-55.7 716.38,-62.68"/>
</g>
<!-- Node14&#45;&gt;Node2 -->
<g id="edge20" class="edge">
<title>Node14&#45;&gt;Node2</title>
<path fill="none" stroke="midnightblue" d="M1178.03,-169.87C1304.02,-161.26 1521.34,-146.16 1707.77,-132 1712.11,-131.67 1716.54,-131.33 1721.02,-130.98"/>
<polygon fill="midnightblue" stroke="midnightblue" points="1177.74,-166.38 1168,-170.55 1178.22,-173.36 1177.74,-166.38"/>
</g>
<!-- Node14&#45;&gt;Node4 -->
<g id="edge21" class="edge">
<title>Node14&#45;&gt;Node4</title>
<path fill="none" stroke="midnightblue" d="M1178.1,-176.11C1341.01,-173.71 1639.16,-164.84 1674.77,-132 1706.98,-102.31 1699.65,-42.05 1695.57,-19.65"/>
<polygon fill="midnightblue" stroke="midnightblue" points="1178,-172.61 1168.05,-176.26 1178.1,-179.61 1178,-172.61"/>
</g>
<!-- Node14&#45;&gt;Node6 -->
<g id="edge30" class="edge">
<title>Node14&#45;&gt;Node6</title>
<path fill="none" stroke="midnightblue" d="M1012.47,-166.73C952.56,-156.52 861.78,-141.06 805.77,-131.52"/>
<polygon fill="midnightblue" stroke="midnightblue" points="1012.1,-170.21 1022.54,-168.44 1013.27,-163.31 1012.1,-170.21"/>
</g>
<!-- Node14&#45;&gt;Node7 -->
<g id="edge31" class="edge">
<title>Node14&#45;&gt;Node7</title>
<path fill="none" stroke="midnightblue" d="M1029.71,-165.77C999.65,-157.5 958.8,-145.4 923.77,-132 922.24,-131.41 840.34,-93.04 802.99,-75.54"/>
<polygon fill="midnightblue" stroke="midnightblue" points="1028.9,-169.17 1039.47,-168.42 1030.74,-162.42 1028.9,-169.17"/>
</g>
<!-- Node14&#45;&gt;Node8 -->
<g id="edge15" class="edge">
<title>Node14&#45;&gt;Node8</title>
<path fill="none" stroke="midnightblue" d="M967.61,-174.06C775.38,-168.17 385.06,-153.62 364.77,-132 331.37,-96.4 393.11,-40.7 419.57,-19.54"/>
<polygon fill="midnightblue" stroke="midnightblue" points="967.63,-177.56 977.73,-174.37 967.84,-170.57 967.63,-177.56"/>
</g>
<!-- Node14&#45;&gt;Node10 -->
<g id="edge22" class="edge">
<title>Node14&#45;&gt;Node10</title>
<path fill="none" stroke="midnightblue" d="M1141.05,-165.35C1159.59,-158.72 1177.6,-148.32 1188.77,-132 1207.85,-104.13 1209.19,-82.91 1188.77,-56 1176.01,-39.18 1125.75,-26.94 1084.73,-19.51"/>
<polygon fill="midnightblue" stroke="midnightblue" points="1139.78,-162.08 1131.34,-168.48 1141.93,-168.74 1139.78,-162.08"/>
</g>
<!-- Node14&#45;&gt;Node11 -->
<g id="edge26" class="edge">
<title>Node14&#45;&gt;Node11</title>
<path fill="none" stroke="midnightblue" d="M1146.62,-165.75C1168.72,-159.14 1191.41,-148.65 1207.77,-132 1239.41,-99.81 1244.74,-41.58 1245.61,-19.66"/>
<polygon fill="midnightblue" stroke="midnightblue" points="1145.58,-162.41 1136.87,-168.44 1147.44,-169.16 1145.58,-162.41"/>
</g>
<!-- Node14&#45;&gt;Node12 -->
<g id="edge32" class="edge">
<title>Node14&#45;&gt;Node12</title>
<path fill="none" stroke="midnightblue" d="M1030.77,-165.38C1008.02,-157.93 980.08,-146.86 957.77,-132 907.92,-98.79 862.88,-41.18 846.92,-19.54"/>
<polygon fill="midnightblue" stroke="midnightblue" points="1029.91,-168.78 1040.5,-168.45 1032.02,-162.1 1029.91,-168.78"/>
</g>
<!-- Node15 -->
<g id="node15" class="node">
<title>Node15</title>
<g id="a_node15"><a xlink:href="examples_2100__continue_2request__listener_8hpp.html" target="_top" xlink:title=" ">
<polygon fill="none" stroke="black" points="373.77,-112.5 373.77,-131.5 583.77,-131.5 583.77,-112.5 373.77,-112.5"/>
<text text-anchor="middle" x="478.77" y="-119.5" font-family="Helvetica,sans-Serif" font-size="10.00">examples/100_continue/request_listener.hpp</text>
</a>
</g>
</g>
<!-- Node14&#45;&gt;Node15 -->
<g id="edge16" class="edge">
<title>Node14&#45;&gt;Node15</title>
<path fill="none" stroke="midnightblue" d="M968.69,-167.54C856.74,-157.36 680.35,-141.33 572.56,-131.53"/>
<polygon fill="midnightblue" stroke="midnightblue" points="968.7,-171.05 978.98,-168.47 969.34,-164.08 968.7,-171.05"/>
</g>
<!-- Node17 -->
<g id="node17" class="node">
<title>Node17</title>
<g id="a_node17"><a xlink:href="request__listener_2main_8cpp.html" target="_top" xlink:title=" ">
<polygon fill="none" stroke="black" points="1492.27,-112.5 1492.27,-131.5 1665.27,-131.5 1665.27,-112.5 1492.27,-112.5"/>
<text text-anchor="middle" x="1578.77" y="-119.5" font-family="Helvetica,sans-Serif" font-size="10.00">examples/request_listener/main.cpp</text>
</a>
</g>
</g>
<!-- Node14&#45;&gt;Node17 -->
<g id="edge19" class="edge">
<title>Node14&#45;&gt;Node17</title>
<path fill="none" stroke="midnightblue" d="M1162.88,-167.38C1258.31,-157.2 1407.52,-141.28 1498.88,-131.53"/>
<polygon fill="midnightblue" stroke="midnightblue" points="1162.24,-163.93 1152.67,-168.47 1162.98,-170.89 1162.24,-163.93"/>
</g>
<!-- Node18 -->
<g id="node18" class="node">
<title>Node18</title>
<g id="a_node18"><a xlink:href="examples_2simple__server_2request__listener_8hpp.html" target="_top" xlink:title=" ">
<polygon fill="none" stroke="black" points="966.27,-112.5 966.27,-131.5 1179.27,-131.5 1179.27,-112.5 966.27,-112.5"/>
<text text-anchor="middle" x="1072.77" y="-119.5" font-family="Helvetica,sans-Serif" font-size="10.00">examples/simple_server/request_listener.hpp</text>
</a>
</g>
</g>
<!-- Node14&#45;&gt;Node18 -->
<g id="edge23" class="edge">
<title>Node14&#45;&gt;Node18</title>
<path fill="none" stroke="midnightblue" d="M1072.77,-157.8C1072.77,-148.91 1072.77,-138.78 1072.77,-131.75"/>
<polygon fill="midnightblue" stroke="midnightblue" points="1069.27,-158.08 1072.77,-168.08 1076.27,-158.08 1069.27,-158.08"/>
</g>
<!-- Node20 -->
<g id="node20" class="node">
<title>Node20</title>
<g id="a_node20"><a xlink:href="examples_2websocket_2request__listener_8hpp.html" target="_top" xlink:title=" ">
<polygon fill="none" stroke="black" points="1273.77,-112.5 1273.77,-131.5 1473.77,-131.5 1473.77,-112.5 1273.77,-112.5"/>
<text text-anchor="middle" x="1373.77" y="-119.5" font-family="Helvetica,sans-Serif" font-size="10.00">examples/websocket/request_listener.hpp</text>
</a>
</g>
</g>
<!-- Node14&#45;&gt;Node20 -->
<g id="edge27" class="edge">
<title>Node14&#45;&gt;Node20</title>
<path fill="none" stroke="midnightblue" d="M1130.38,-166.66C1187.27,-156.46 1273.22,-141.04 1326.3,-131.52"/>
<polygon fill="midnightblue" stroke="midnightblue" points="1129.69,-163.23 1120.47,-168.44 1130.93,-170.12 1129.69,-163.23"/>
</g>
<!-- Node15&#45;&gt;Node8 -->
<g id="edge17" class="edge">
<title>Node15&#45;&gt;Node8</title>
<path fill="none" stroke="midnightblue" d="M466.29,-104.2C460.65,-96.01 454.26,-85.83 449.77,-76 440.98,-56.75 435.16,-32.44 432.48,-19.7"/>
<polygon fill="midnightblue" stroke="midnightblue" points="463.54,-106.37 472.2,-112.47 469.24,-102.3 463.54,-106.37"/>
</g>
<!-- Node16 -->
<g id="node16" class="node">
<title>Node16</title>
<g id="a_node16"><a xlink:href="examples_2100__continue_2request__listener_8cpp.html" target="_top" xlink:title=" ">
<polygon fill="none" stroke="black" points="458.77,-56.5 458.77,-75.5 668.77,-75.5 668.77,-56.5 458.77,-56.5"/>
<text text-anchor="middle" x="563.77" y="-63.5" font-family="Helvetica,sans-Serif" font-size="10.00">examples/100_continue/request_listener.cpp</text>
</a>
</g>
</g>
<!-- Node15&#45;&gt;Node16 -->
<g id="edge18" class="edge">
<title>Node15&#45;&gt;Node16</title>
<path fill="none" stroke="midnightblue" d="M500.97,-106.9C516.55,-97 536.9,-84.07 550.15,-75.65"/>
<polygon fill="midnightblue" stroke="midnightblue" points="498.99,-104.01 492.43,-112.32 502.75,-109.92 498.99,-104.01"/>
</g>
<!-- Node18&#45;&gt;Node10 -->
<g id="edge24" class="edge">
<title>Node18&#45;&gt;Node10</title>
<path fill="none" stroke="midnightblue" d="M1005.32,-109.31C986.86,-102.68 968.89,-92.29 957.77,-76 941.6,-52.3 979.25,-30.95 1005.37,-19.59"/>
<polygon fill="midnightblue" stroke="midnightblue" points="1004.4,-112.69 1014.99,-112.45 1006.56,-106.03 1004.4,-112.69"/>
</g>
<!-- Node19 -->
<g id="node19" class="node">
<title>Node19</title>
<g id="a_node19"><a xlink:href="examples_2simple__server_2request__listener_8cpp.html" target="_top" xlink:title=" ">
<polygon fill="none" stroke="black" points="966.27,-56.5 966.27,-75.5 1179.27,-75.5 1179.27,-56.5 966.27,-56.5"/>
<text text-anchor="middle" x="1072.77" y="-63.5" font-family="Helvetica,sans-Serif" font-size="10.00">examples/simple_server/request_listener.cpp</text>
</a>
</g>
</g>
<!-- Node18&#45;&gt;Node19 -->
<g id="edge25" class="edge">
<title>Node18&#45;&gt;Node19</title>
<path fill="none" stroke="midnightblue" d="M1072.77,-101.8C1072.77,-92.91 1072.77,-82.78 1072.77,-75.75"/>
<polygon fill="midnightblue" stroke="midnightblue" points="1069.27,-102.08 1072.77,-112.08 1076.27,-102.08 1069.27,-102.08"/>
</g>
<!-- Node20&#45;&gt;Node11 -->
<g id="edge28" class="edge">
<title>Node20&#45;&gt;Node11</title>
<path fill="none" stroke="midnightblue" d="M1348.63,-107.45C1334.48,-99.25 1316.87,-88.07 1302.77,-76 1282.02,-58.24 1261.96,-32.88 1252.1,-19.7"/>
<polygon fill="midnightblue" stroke="midnightblue" points="1346.93,-110.51 1357.36,-112.38 1350.38,-104.41 1346.93,-110.51"/>
</g>
<!-- Node21 -->
<g id="node21" class="node">
<title>Node21</title>
<g id="a_node21"><a xlink:href="examples_2websocket_2request__listener_8cpp.html" target="_top" xlink:title=" ">
<polygon fill="none" stroke="black" points="1311.77,-56.5 1311.77,-75.5 1511.77,-75.5 1511.77,-56.5 1311.77,-56.5"/>
<text text-anchor="middle" x="1411.77" y="-63.5" font-family="Helvetica,sans-Serif" font-size="10.00">examples/websocket/request_listener.cpp</text>
</a>
</g>
</g>
<!-- Node20&#45;&gt;Node21 -->
<g id="edge29" class="edge">
<title>Node20&#45;&gt;Node21</title>
<path fill="none" stroke="midnightblue" d="M1385.84,-103.86C1392.42,-94.5 1400.28,-83.33 1405.61,-75.75"/>
<polygon fill="midnightblue" stroke="midnightblue" points="1382.94,-101.89 1380.05,-112.08 1388.66,-105.92 1382.94,-101.89"/>
</g>
</g>
</svg>
        <g id="navigator" transform="translate(0 0)" fill="#404254">
                <rect fill="#f2f5e9" fill-opacity="0.5" stroke="#606060" stroke-width=".5" x="0" y="0" width="60" height="60"/>
                <use id="zoomplus" xlink:href="#zoomPlus" x="17" y="9" onmousedown="handleZoom(evt,'in')"/>
                <use id="zoomminus" xlink:href="#zoomMin" x="42" y="9" onmousedown="handleZoom(evt,'out')"/>
                <use id="reset" xlink:href="#resetDef" x="30" y="36" onmousedown="handleReset()"/>
                <g id="arrowUp" xlink:href="#dirArrow" transform="translate(30 24)" onmousedown="handlePan(0,-1)">
                  <use xlink:href="#rim" fill="#404040">
                        <set attributeName="fill" to="#808080" begin="arrowUp.mouseover" end="arrowUp.mouseout"/>
                  </use>
                  <path fill="none" stroke="white" stroke-width="1.5" d="M0,-3.0v7 M-2.5,-0.5L0,-3.0L2.5,-0.5"/>
                </g>
                <g id="arrowRight" xlink:href="#dirArrow" transform="rotate(90) translate(36 -43)" onmousedown="handlePan(1,0)">
                  <use xlink:href="#rim" fill="#404040">
                        <set attributeName="fill" to="#808080" begin="arrowRight.mouseover" end="arrowRight.mouseout"/>
                  </use>
                  <path fill="none" stroke="white" stroke-width="1.5" d="M0,-3.0v7 M-2.5,-0.5L0,-3.0L2.5,-0.5"/>
                </g>
                <g id="arrowDown" xlink:href="#dirArrow" transform="rotate(180) translate(-30 -48)" onmousedown="handlePan(0,1)">
                  <use xlink:href="#rim" fill="#404040">
                        <set attributeName="fill" to="#808080" begin="arrowDown.mouseover" end="arrowDown.mouseout"/>
                  </use>
                  <path fill="none" stroke="white" stroke-width="1.5" d="M0,-3.0v7 M-2.5,-0.5L0,-3.0L2.5,-0.5"/>
                </g>
                <g id="arrowLeft" xlink:href="#dirArrow" transform="rotate(270) translate(-36 17)" onmousedown="handlePan(-1,0)">
                  <use xlink:href="#rim" fill="#404040">
                        <set attributeName="fill" to="#808080" begin="arrowLeft.mouseover" end="arrowLeft.mouseout"/>
                  </use>
                  <path fill="none" stroke="white" stroke-width="1.5" d="M0,-3.0v7 M-2.5,-0.5L0,-3.0L2.5,-0.5"/>
                </g>
        </g>
        <svg viewBox="0 0 15 15" width="100%" height="30px" preserveAspectRatio="xMaxYMin meet">
         <g id="arrow_out" transform="scale(0.3 0.3)">
          <a xlink:href="memory_8hpp__dep__incl_org.svg" target="_base">
           <rect id="button" ry="5" rx="5" y="6" x="6" height="38" width="38"
                fill="#f2f5e9" fill-opacity="0.5" stroke="#606060" stroke-width="1.0"/>
           <path id="arrow"
             d="M 11.500037,31.436501 C 11.940474,20.09759 22.043105,11.32322 32.158766,21.979434 L 37.068811,17.246167 C 37.068811,17.246167 37.088388,32 37.088388,32 L 22.160133,31.978069 C 22.160133,31.978069 26.997745,27.140456 26.997745,27.140456 C 18.528582,18.264221 13.291696,25.230495 11.500037,31.436501 z"
             style="fill:#404040;"/>
          </a>
         </g>
        </svg>
</svg>
