<?xml version="1.0" encoding="UTF-8" standalone="no"?>
<!DOCTYPE svg PUBLIC "-//W3C//DTD SVG 1.1//EN"
 "http://www.w3.org/Graphics/SVG/1.1/DTD/svg11.dtd">
<!-- Generated by graphviz version 8.1.0 (0)
 -->
<!-- Title: src/roar/mime_type.cpp Pages: 1 -->
<svg width="251pt" height="140pt"
 viewBox="0.00 0.00 251.38 140.00" xmlns="http://www.w3.org/2000/svg" xmlns:xlink="http://www.w3.org/1999/xlink">

<svg id="main" version="1.1" xmlns="http://www.w3.org/2000/svg" xmlns:xlink="http://www.w3.org/1999/xlink" xml:space="preserve" onload="init(evt)">
<style type="text/css"><![CDATA[
.node, .edge {opacity: 0.7;}
.node.selected, .edge.selected {opacity: 1;}
.edge:hover path { stroke: red; }
.edge:hover polygon { stroke: red; fill: red; }
]]></style>
<script type="application/ecmascript" xlink:href="svg.min.js"/>
<svg id="graph" class="graph">
<g id="graph0" class="graph" transform="scale(1 1) rotate(0) translate(4 136)">
<title>src/roar/mime_type.cpp</title>
<!-- Node1 -->
<g id="Node000001" class="node">
<title>Node1</title>
<g id="a_Node000001"><a xlink:title=" ">
<polygon fill="#999999" stroke="#666666" points="150.38,-132 31.62,-132 31.62,-112 150.38,-112 150.38,-132"/>
<text text-anchor="middle" x="91" y="-118.5" font-family="Helvetica,sans-Serif" font-size="10.00">src/roar/mime_type.cpp</text>
</a>
</g>
</g>
<!-- Node2 -->
<g id="Node000002" class="node">
<title>Node2</title>
<g id="a_Node000002"><a xlink:href="mime__type_8hpp.html" target="_top" xlink:title=" ">
<polygon fill="white" stroke="#666666" points="142.12,-76 39.88,-76 39.88,-56 142.12,-56 142.12,-76"/>
<text text-anchor="middle" x="91" y="-62.5" font-family="Helvetica,sans-Serif" font-size="10.00">roar/mime_type.hpp</text>
</a>
</g>
</g>
<!-- Node1&#45;&gt;Node2 -->
<g id="edge1_Node000001_Node000002" class="edge">
<title>Node1&#45;&gt;Node2</title>
<g id="a_edge1_Node000001_Node000002"><a xlink:title=" ">
<path fill="none" stroke="#63b8ff" d="M91,-111.59C91,-104.86 91,-95.53 91,-87.15"/>
<polygon fill="#63b8ff" stroke="#63b8ff" points="94.5,-87.3 91,-77.3 87.5,-87.3 94.5,-87.3"/>
</a>
</g>
</g>
<!-- Node3 -->
<g id="Node000003" class="node">
<title>Node3</title>
<g id="a_Node000003"><a xlink:title=" ">
<polygon fill="#e0e0e0" stroke="#999999" points="40,-20 0,-20 0,0 40,0 40,-20"/>
<text text-anchor="middle" x="20" y="-6.5" font-family="Helvetica,sans-Serif" font-size="10.00">string</text>
</a>
</g>
</g>
<!-- Node1&#45;&gt;Node3 -->
<g id="edge4_Node000001_Node000003" class="edge">
<title>Node1&#45;&gt;Node3</title>
<g id="a_edge4_Node000001_Node000003"><a xlink:title=" ">
<path fill="none" stroke="#63b8ff" d="M71.63,-111.57C58.03,-103.91 40.62,-91.79 31,-76 22.71,-62.39 20.18,-44.36 19.6,-30.74"/>
<polygon fill="#63b8ff" stroke="#63b8ff" points="23.09,-31.1 19.5,-21.13 16.1,-31.17 23.09,-31.1"/>
</a>
</g>
</g>
<!-- Node5 -->
<g id="Node000005" class="node">
<title>Node5</title>
<g id="a_Node000005"><a xlink:title=" ">
<polygon fill="#e0e0e0" stroke="#999999" points="243.38,-76 160.62,-76 160.62,-56 243.38,-56 243.38,-76"/>
<text text-anchor="middle" x="202" y="-62.5" font-family="Helvetica,sans-Serif" font-size="10.00">unordered_map</text>
</a>
</g>
</g>
<!-- Node1&#45;&gt;Node5 -->
<g id="edge5_Node000001_Node000005" class="edge">
<title>Node1&#45;&gt;Node5</title>
<g id="a_edge5_Node000001_Node000005"><a xlink:title=" ">
<path fill="none" stroke="#63b8ff" d="M110.33,-111.59C127.58,-103.21 153.07,-90.8 172.8,-81.21"/>
<polygon fill="#63b8ff" stroke="#63b8ff" points="174.05,-84 181.51,-76.48 170.99,-77.71 174.05,-84"/>
</a>
</g>
</g>
<!-- Node2&#45;&gt;Node3 -->
<g id="edge2_Node000002_Node000003" class="edge">
<title>Node2&#45;&gt;Node3</title>
<g id="a_edge2_Node000002_Node000003"><a xlink:title=" ">
<path fill="none" stroke="#63b8ff" d="M78.63,-55.59C68.25,-47.7 53.19,-36.24 40.93,-26.92"/>
<polygon fill="#63b8ff" stroke="#63b8ff" points="43.3,-23.57 33.23,-20.3 39.07,-29.14 43.3,-23.57"/>
</a>
</g>
</g>
<!-- Node4 -->
<g id="Node000004" class="node">
<title>Node4</title>
<g id="a_Node000004"><a xlink:title=" ">
<polygon fill="#e0e0e0" stroke="#999999" points="115.88,-20 66.12,-20 66.12,0 115.88,0 115.88,-20"/>
<text text-anchor="middle" x="91" y="-6.5" font-family="Helvetica,sans-Serif" font-size="10.00">optional</text>
</a>
</g>
</g>
<!-- Node2&#45;&gt;Node4 -->
<g id="edge3_Node000002_Node000004" class="edge">
<title>Node2&#45;&gt;Node4</title>
<g id="a_edge3_Node000002_Node000004"><a xlink:title=" ">
<path fill="none" stroke="#63b8ff" d="M91,-55.59C91,-48.86 91,-39.53 91,-31.15"/>
<polygon fill="#63b8ff" stroke="#63b8ff" points="94.5,-31.3 91,-21.3 87.5,-31.3 94.5,-31.3"/>
</a>
</g>
</g>
</g>
</svg>
</svg>

<style type='text/css'>
<![CDATA[
[data-mouse-over-selected='false'] { opacity: 0.7; }
[data-mouse-over-selected='true']  { opacity: 1.0; }
]]>
</style>
<script type="application/ecmascript"><![CDATA[
document.addEventListener('DOMContentLoaded', (event) => {
  highlightEdges();
  highlightAdjacentNodes();
});
]]></script>
</svg>
