<?xml version="1.0" encoding="UTF-8" standalone="no"?>
<!DOCTYPE svg PUBLIC "-//W3C//DTD SVG 1.1//EN"
 "http://www.w3.org/Graphics/SVG/1.1/DTD/svg11.dtd">
<!-- Generated by graphviz version 8.1.0 (0)
 -->
<!-- Title: include/roar/utility/overloaded.hpp Pages: 1 -->
<!--zoomable 308 -->

<svg id="main" version="1.1" xmlns="http://www.w3.org/2000/svg" xmlns:xlink="http://www.w3.org/1999/xlink" xml:space="preserve" onload="init(evt)">
<style type="text/css"><![CDATA[
.node, .edge {opacity: 0.7;}
.node.selected, .edge.selected {opacity: 1;}
.edge:hover path { stroke: red; }
.edge:hover polygon { stroke: red; fill: red; }
]]></style>

<defs>
  <circle id="rim" cx="0" cy="0" r="7"/>
  <circle id="rim2" cx="0" cy="0" r="3.5"/>
  <g id="zoomPlus">
    <use xlink:href="#rim" fill="#404040"><set attributeName="fill" to="#808080" begin="zoomplus.mouseover" end="zoomplus.mouseout"/></use>
    <path d="M-4,0h8M0,-4v8" fill="none" stroke="white" stroke-width="1.5" pointer-events="none"/>
  </g>
  <g id="zoomMin">
    <use xlink:href="#rim" fill="#404040"><set attributeName="fill" to="#808080" begin="zoomminus.mouseover" end="zoomminus.mouseout"/></use>
    <path d="M-4,0h8" fill="none" stroke="white" stroke-width="1.5" pointer-events="none"/>
  </g>
  <g id="arrowUp" transform="translate(30 24)">
    <use xlink:href="#rim"/>
    <path pointer-events="none" fill="none" stroke="white" stroke-width="1.5" d="M0,-3.0v7 M-2.5,-0.5L0,-3.0L2.5,-0.5"/>
  </g>
  <g id="arrowRight" transform="rotate(90) translate(36 -43)">
    <use xlink:href="#rim"/>
    <path pointer-events="none" fill="none" stroke="white" stroke-width="1.5" d="M0,-3.0v7 M-2.5,-0.5L0,-3.0L2.5,-0.5"/>
  </g>
  <g id="arrowDown" transform="rotate(180) translate(-30 -48)">
    <use xlink:href="#rim"/>
    <path pointer-events="none" fill="none" stroke="white" stroke-width="1.5" d="M0,-3.0v7 M-2.5,-0.5L0,-3.0L2.5,-0.5"/>
  </g>
  <g id="arrowLeft" transform="rotate(270) translate(-36 17)">
    <use xlink:href="#rim"/>
    <path pointer-events="none" fill="none" stroke="white" stroke-width="1.5" d="M0,-3.0v7 M-2.5,-0.5L0,-3.0L2.5,-0.5"/>
  </g>
  <g id="resetDef">
    <use xlink:href="#rim2" fill="#404040"><set attributeName="fill" to="#808080" begin="reset.mouseover" end="reset.mouseout"/></use>
  </g>
</defs>
<script type="application/ecmascript">
var viewWidth = 1580;
var viewHeight = 308;
var sectionId = 'dynsection-0';
</script>
<script type="application/ecmascript" xlink:href="svg.min.js"/>
<svg id="graph" class="graph">
<g id="viewport">
<title>include/roar/utility/overloaded.hpp</title>
<!-- Node1 -->
<g id="Node000001" class="node">
<title>Node1</title>
<g id="a_Node000001"><a xlink:title=" ">
<polygon fill="#999999" stroke="#666666" points="1122.5,-300 961,-300 961,-280 1122.5,-280 1122.5,-300"/>
<text text-anchor="middle" x="1041.75" y="-286.5" font-family="Helvetica,sans-Serif" font-size="10.00">include/roar/utility/overloaded.hpp</text>
</a>
</g>
</g>
<!-- Node2 -->
<g id="Node000002" class="node">
<title>Node2</title>
<g id="a_Node000002"><a xlink:href="flexible__provider_8hpp.html" target="_top" xlink:title=" ">
<polygon fill="white" stroke="#666666" points="1034.12,-244 843.38,-244 843.38,-224 1034.12,-224 1034.12,-244"/>
<text text-anchor="middle" x="938.75" y="-230.5" font-family="Helvetica,sans-Serif" font-size="10.00">include/roar/routing/flexible_provider.hpp</text>
</a>
</g>
</g>
<!-- Node1&#45;&gt;Node2 -->
<g id="edge1_Node000001_Node000002" class="edge">
<title>Node1&#45;&gt;Node2</title>
<g id="a_edge1_Node000001_Node000002"><a xlink:title=" ">
<path fill="none" stroke="#63b8ff" d="M1014.31,-274.61C996.1,-265.07 972.73,-252.81 956.83,-244.48"/>
<polygon fill="#63b8ff" stroke="#63b8ff" points="1012.33,-278.05 1022.81,-279.59 1015.58,-271.85 1012.33,-278.05"/>
</a>
</g>
</g>
<!-- Node3 -->
<g id="Node000003" class="node">
<title>Node3</title>
<g id="a_Node000003"><a xlink:href="include_2roar_2routing_2request__listener_8hpp.html" target="_top" xlink:title=" ">
<polygon fill="white" stroke="#666666" points="910.38,-188 721.12,-188 721.12,-168 910.38,-168 910.38,-188"/>
<text text-anchor="middle" x="815.75" y="-174.5" font-family="Helvetica,sans-Serif" font-size="10.00">include/roar/routing/request_listener.hpp</text>
</a>
</g>
</g>
<!-- Node1&#45;&gt;Node3 -->
<g id="edge30_Node000001_Node000003" class="edge">
<title>Node1&#45;&gt;Node3</title>
<g id="a_edge30_Node000001_Node000003"><a xlink:title=" ">
<path fill="none" stroke="#63b8ff" d="M949.94,-278.35C902.83,-271.1 851.82,-259.91 834.75,-244 819.1,-229.41 816.1,-202.71 815.67,-188.5"/>
<polygon fill="#63b8ff" stroke="#63b8ff" points="949.14,-281.92 959.55,-279.93 950.17,-274.99 949.14,-281.92"/>
</a>
</g>
</g>
<!-- Node21 -->
<g id="Node000021" class="node">
<title>Node21</title>
<g id="a_Node000021"><a xlink:href="visit__overloaded_8hpp.html" target="_top" xlink:title=" ">
<polygon fill="white" stroke="#666666" points="1237.12,-244 1052.38,-244 1052.38,-224 1237.12,-224 1237.12,-244"/>
<text text-anchor="middle" x="1144.75" y="-230.5" font-family="Helvetica,sans-Serif" font-size="10.00">include/roar/utility/visit_overloaded.hpp</text>
</a>
</g>
</g>
<!-- Node1&#45;&gt;Node21 -->
<g id="edge31_Node000001_Node000021" class="edge">
<title>Node1&#45;&gt;Node21</title>
<g id="a_edge31_Node000001_Node000021"><a xlink:title=" ">
<path fill="none" stroke="#63b8ff" d="M1069.19,-274.61C1087.4,-265.07 1110.77,-252.81 1126.67,-244.48"/>
<polygon fill="#63b8ff" stroke="#63b8ff" points="1067.92,-271.85 1060.69,-279.59 1071.17,-278.05 1067.92,-271.85"/>
</a>
</g>
</g>
<!-- Node26 -->
<g id="Node000026" class="node">
<title>Node26</title>
<g id="a_Node000026"><a xlink:href="make__ssl__context_8cpp.html" target="_top" xlink:title=" ">
<polygon fill="white" stroke="#666666" points="1420.75,-244 1254.75,-244 1254.75,-224 1420.75,-224 1420.75,-244"/>
<text text-anchor="middle" x="1337.75" y="-230.5" font-family="Helvetica,sans-Serif" font-size="10.00">src/roar/ssl/make_ssl_context.cpp</text>
</a>
</g>
</g>
<!-- Node1&#45;&gt;Node26 -->
<g id="edge36_Node000001_Node000026" class="edge">
<title>Node1&#45;&gt;Node26</title>
<g id="a_edge36_Node000001_Node000026"><a xlink:title=" ">
<path fill="none" stroke="#63b8ff" d="M1104.46,-277.56C1158.43,-267.71 1235.36,-253.68 1285.91,-244.46"/>
<polygon fill="#63b8ff" stroke="#63b8ff" points="1103.86,-274.29 1094.65,-279.53 1105.11,-281.18 1103.86,-274.29"/>
</a>
</g>
</g>
<!-- Node2&#45;&gt;Node3 -->
<g id="edge2_Node000002_Node000003" class="edge">
<title>Node2&#45;&gt;Node3</title>
<g id="a_edge2_Node000002_Node000003"><a xlink:title=" ">
<path fill="none" stroke="#63b8ff" d="M907.48,-219.27C885.54,-209.64 856.77,-197.01 837.34,-188.48"/>
<polygon fill="#63b8ff" stroke="#63b8ff" points="905.76,-222.78 916.33,-223.59 908.58,-216.37 905.76,-222.78"/>
</a>
</g>
</g>
<!-- Node4 -->
<g id="Node000004" class="node">
<title>Node4</title>
<g id="a_Node000004"><a xlink:href="100__continue_2main_8cpp.html" target="_top" xlink:title=" ">
<polygon fill="white" stroke="#666666" points="356.5,-20 195,-20 195,0 356.5,0 356.5,-20"/>
<text text-anchor="middle" x="275.75" y="-6.5" font-family="Helvetica,sans-Serif" font-size="10.00">examples/100_continue/main.cpp</text>
</a>
</g>
</g>
<!-- Node3&#45;&gt;Node4 -->
<g id="edge3_Node000003_Node000004" class="edge">
<title>Node3&#45;&gt;Node4</title>
<g id="a_edge3_Node000003_Node000004"><a xlink:title=" ">
<path fill="none" stroke="#63b8ff" d="M710.09,-172.68C577.27,-166.4 362.89,-153.15 332.75,-132 293.78,-104.66 280.67,-43.52 277,-20.24"/>
<polygon fill="#63b8ff" stroke="#63b8ff" points="709.55,-176.2 719.7,-173.17 709.87,-169.21 709.55,-176.2"/>
</a>
</g>
</g>
<!-- Node5 -->
<g id="Node000005" class="node">
<title>Node5</title>
<g id="a_Node000005"><a xlink:href="examples_2100__continue_2request__listener_8hpp.html" target="_top" xlink:title=" ">
<polygon fill="white" stroke="#666666" points="247.5,-132 38,-132 38,-112 247.5,-112 247.5,-132"/>
<text text-anchor="middle" x="142.75" y="-118.5" font-family="Helvetica,sans-Serif" font-size="10.00">examples/100_continue/request_listener.hpp</text>
</a>
</g>
</g>
<!-- Node3&#45;&gt;Node5 -->
<g id="edge4_Node000003_Node000005" class="edge">
<title>Node3&#45;&gt;Node5</title>
<g id="a_edge4_Node000003_Node000005"><a xlink:title=" ">
<path fill="none" stroke="#63b8ff" d="M709.93,-168.51C583.62,-158.37 373.73,-141.53 247.78,-131.43"/>
<polygon fill="#63b8ff" stroke="#63b8ff" points="709.51,-172.07 719.75,-169.38 710.06,-165.09 709.51,-172.07"/>
</a>
</g>
</g>
<!-- Node7 -->
<g id="Node000007" class="node">
<title>Node7</title>
<g id="a_Node000007"><a xlink:href="file__server_8hpp.html" target="_top" xlink:title=" ">
<polygon fill="white" stroke="#666666" points="536,-132 341.5,-132 341.5,-112 536,-112 536,-132"/>
<text text-anchor="middle" x="438.75" y="-118.5" font-family="Helvetica,sans-Serif" font-size="10.00">examples/serve_directory/file_server.hpp</text>
</a>
</g>
</g>
<!-- Node3&#45;&gt;Node7 -->
<g id="edge7_Node000003_Node000007" class="edge">
<title>Node3&#45;&gt;Node7</title>
<g id="a_edge7_Node000003_Node000007"><a xlink:title=" ">
<path fill="none" stroke="#63b8ff" d="M738.88,-165.99C670.02,-156.13 570.09,-141.81 504.77,-132.46"/>
<polygon fill="#63b8ff" stroke="#63b8ff" points="738.25,-169.58 748.65,-167.53 739.25,-162.65 738.25,-169.58"/>
</a>
</g>
</g>
<!-- Node9 -->
<g id="Node000009" class="node">
<title>Node9</title>
<g id="a_Node000009"><a xlink:href="serve__directory_2main_8cpp.html" target="_top" xlink:title=" ">
<polygon fill="white" stroke="#666666" points="552,-20 381.5,-20 381.5,0 552,0 552,-20"/>
<text text-anchor="middle" x="466.75" y="-6.5" font-family="Helvetica,sans-Serif" font-size="10.00">examples/serve_directory/main.cpp</text>
</a>
</g>
</g>
<!-- Node3&#45;&gt;Node9 -->
<g id="edge10_Node000003_Node000009" class="edge">
<title>Node3&#45;&gt;Node9</title>
<g id="a_edge10_Node000003_Node000009"><a xlink:title=" ">
<path fill="none" stroke="#63b8ff" d="M710.13,-166.7C676.98,-160.15 641.35,-149.45 611.75,-132 572.96,-109.13 579.6,-84.52 544.75,-56 526.84,-41.35 503.57,-28.6 487.12,-20.45"/>
<polygon fill="#63b8ff" stroke="#63b8ff" points="709.32,-170.3 719.79,-168.69 710.6,-163.42 709.32,-170.3"/>
</a>
</g>
</g>
<!-- Node10 -->
<g id="Node000010" class="node">
<title>Node10</title>
<g id="a_Node000010"><a xlink:href="simple__server_2main_8cpp.html" target="_top" xlink:title=" ">
<polygon fill="white" stroke="#666666" points="1033,-20 868.5,-20 868.5,0 1033,0 1033,-20"/>
<text text-anchor="middle" x="950.75" y="-6.5" font-family="Helvetica,sans-Serif" font-size="10.00">examples/simple_server/main.cpp</text>
</a>
</g>
</g>
<!-- Node3&#45;&gt;Node10 -->
<g id="edge11_Node000003_Node000010" class="edge">
<title>Node3&#45;&gt;Node10</title>
<g id="a_edge11_Node000003_Node000010"><a xlink:title=" ">
<path fill="none" stroke="#63b8ff" d="M842.19,-161.67C852.49,-154.16 863.14,-144.12 868.75,-132 882.94,-101.35 851.54,-85.07 868.75,-56 879.17,-38.39 899.2,-27.22 916.85,-20.41"/>
<polygon fill="#63b8ff" stroke="#63b8ff" points="840.72,-159.11 834.38,-167.59 844.63,-164.92 840.72,-159.11"/>
</a>
</g>
</g>
<!-- Node11 -->
<g id="Node000011" class="node">
<title>Node11</title>
<g id="a_Node000011"><a xlink:href="examples_2simple__server_2request__listener_8hpp.html" target="_top" xlink:title=" ">
<polygon fill="white" stroke="#666666" points="1128,-132 915.5,-132 915.5,-112 1128,-112 1128,-132"/>
<text text-anchor="middle" x="1021.75" y="-118.5" font-family="Helvetica,sans-Serif" font-size="10.00">examples/simple_server/request_listener.hpp</text>
</a>
</g>
</g>
<!-- Node3&#45;&gt;Node11 -->
<g id="edge12_Node000003_Node000011" class="edge">
<title>Node3&#45;&gt;Node11</title>
<g id="a_edge12_Node000003_Node000011"><a xlink:title=" ">
<path fill="none" stroke="#63b8ff" d="M862.24,-164.81C899.59,-155.02 951.29,-141.47 985.59,-132.48"/>
<polygon fill="#63b8ff" stroke="#63b8ff" points="861.42,-161.67 852.63,-167.59 863.19,-168.44 861.42,-161.67"/>
</a>
</g>
</g>
<!-- Node13 -->
<g id="Node000013" class="node">
<title>Node13</title>
<g id="a_Node000013"><a xlink:href="websocket_2main_8cpp.html" target="_top" xlink:title=" ">
<polygon fill="white" stroke="#666666" points="1487.25,-20 1336.25,-20 1336.25,0 1487.25,0 1487.25,-20"/>
<text text-anchor="middle" x="1411.75" y="-6.5" font-family="Helvetica,sans-Serif" font-size="10.00">examples/websocket/main.cpp</text>
</a>
</g>
</g>
<!-- Node3&#45;&gt;Node13 -->
<g id="edge15_Node000003_Node000013" class="edge">
<title>Node3&#45;&gt;Node13</title>
<g id="a_edge15_Node000003_Node000013"><a xlink:title=" ">
<path fill="none" stroke="#63b8ff" d="M921.65,-171.74C1083.18,-163.3 1374.47,-146.21 1392.75,-132 1427.17,-105.25 1418.65,-43.75 1413.89,-20.31"/>
<polygon fill="#63b8ff" stroke="#63b8ff" points="921.53,-168.3 911.73,-172.31 921.89,-175.29 921.53,-168.3"/>
</a>
</g>
</g>
<!-- Node14 -->
<g id="Node000014" class="node">
<title>Node14</title>
<g id="a_Node000014"><a xlink:href="examples_2websocket_2request__listener_8hpp.html" target="_top" xlink:title=" ">
<polygon fill="white" stroke="#666666" points="1383.25,-132 1184.25,-132 1184.25,-112 1383.25,-112 1383.25,-132"/>
<text text-anchor="middle" x="1283.75" y="-118.5" font-family="Helvetica,sans-Serif" font-size="10.00">examples/websocket/request_listener.hpp</text>
</a>
</g>
</g>
<!-- Node3&#45;&gt;Node14 -->
<g id="edge16_Node000003_Node000014" class="edge">
<title>Node3&#45;&gt;Node14</title>
<g id="a_edge16_Node000003_Node000014"><a xlink:title=" ">
<path fill="none" stroke="#63b8ff" d="M908.81,-166.26C994.25,-156.4 1119.65,-141.93 1201.49,-132.49"/>
<polygon fill="#63b8ff" stroke="#63b8ff" points="908.61,-162.88 899.07,-167.5 909.41,-169.83 908.61,-162.88"/>
</a>
</g>
</g>
<!-- Node16 -->
<g id="Node000016" class="node">
<title>Node16</title>
<g id="a_Node000016"><a xlink:href="directory__server_8hpp.html" target="_top" xlink:title=" ">
<polygon fill="white" stroke="#666666" points="860,-132 629.5,-132 629.5,-112 860,-112 860,-132"/>
<text text-anchor="middle" x="744.75" y="-118.5" font-family="Helvetica,sans-Serif" font-size="10.00">include/roar/directory_server/directory_server.hpp</text>
</a>
</g>
</g>
<!-- Node3&#45;&gt;Node16 -->
<g id="edge19_Node000003_Node000016" class="edge">
<title>Node3&#45;&gt;Node16</title>
<g id="a_edge19_Node000003_Node000016"><a xlink:title=" ">
<path fill="none" stroke="#63b8ff" d="M794.65,-160.95C782.37,-151.61 767.32,-140.16 756.98,-132.3"/>
<polygon fill="#63b8ff" stroke="#63b8ff" points="792.3,-164.33 802.38,-167.59 796.54,-158.75 792.3,-164.33"/>
</a>
</g>
</g>
<!-- Node17 -->
<g id="Node000017" class="node">
<title>Node17</title>
<g id="a_Node000017"><a xlink:href="server_8hpp.html" target="_top" xlink:title=" ">
<polygon fill="white" stroke="#666666" points="802.25,-76 687.25,-76 687.25,-56 802.25,-56 802.25,-76"/>
<text text-anchor="middle" x="744.75" y="-62.5" font-family="Helvetica,sans-Serif" font-size="10.00">include/roar/server.hpp</text>
</a>
</g>
</g>
<!-- Node3&#45;&gt;Node17 -->
<g id="edge28_Node000003_Node000017" class="edge">
<title>Node3&#45;&gt;Node17</title>
<g id="a_edge28_Node000003_Node000017"><a xlink:title=" ">
<path fill="none" stroke="#63b8ff" d="M717.73,-165.81C675.77,-158.81 633.49,-148.01 620.75,-132 597.98,-103.37 644.84,-85.94 687.33,-76.43"/>
<polygon fill="#63b8ff" stroke="#63b8ff" points="716.94,-169.39 727.37,-167.51 718.04,-162.48 716.94,-169.39"/>
</a>
</g>
</g>
<!-- Node19 -->
<g id="Node000019" class="node">
<title>Node19</title>
<g id="a_Node000019"><a xlink:href="src_2roar_2routing_2request__listener_8cpp.html" target="_top" xlink:title=" ">
<polygon fill="white" stroke="#666666" points="1235.75,-20 1063.75,-20 1063.75,0 1235.75,0 1235.75,-20"/>
<text text-anchor="middle" x="1149.75" y="-6.5" font-family="Helvetica,sans-Serif" font-size="10.00">src/roar/routing/request_listener.cpp</text>
</a>
</g>
</g>
<!-- Node3&#45;&gt;Node19 -->
<g id="edge29_Node000003_Node000019" class="edge">
<title>Node3&#45;&gt;Node19</title>
<g id="a_edge29_Node000003_Node000019"><a xlink:title=" ">
<path fill="none" stroke="#63b8ff" d="M921.54,-168.61C1009.17,-160.62 1121.72,-147.52 1136.75,-132 1166.58,-101.19 1157.28,-43.16 1152.15,-20.45"/>
<polygon fill="#63b8ff" stroke="#63b8ff" points="921.36,-165.2 911.71,-169.58 921.98,-172.17 921.36,-165.2"/>
</a>
</g>
</g>
<!-- Node5&#45;&gt;Node4 -->
<g id="edge5_Node000005_Node000004" class="edge">
<title>Node5&#45;&gt;Node4</title>
<g id="a_edge5_Node000005_Node000004"><a xlink:title=" ">
<path fill="none" stroke="#63b8ff" d="M171.93,-106.55C186.69,-98.56 204.47,-87.86 218.75,-76 239.54,-58.75 259.27,-33.62 269.16,-20.22"/>
<polygon fill="#63b8ff" stroke="#63b8ff" points="170.49,-103.88 163.27,-111.63 173.75,-110.08 170.49,-103.88"/>
</a>
</g>
</g>
<!-- Node6 -->
<g id="Node000006" class="node">
<title>Node6</title>
<g id="a_Node000006"><a xlink:href="examples_2100__continue_2request__listener_8cpp.html" target="_top" xlink:title=" ">
<polygon fill="white" stroke="#666666" points="209.5,-76 0,-76 0,-56 209.5,-56 209.5,-76"/>
<text text-anchor="middle" x="104.75" y="-62.5" font-family="Helvetica,sans-Serif" font-size="10.00">examples/100_continue/request_listener.cpp</text>
</a>
</g>
</g>
<!-- Node5&#45;&gt;Node6 -->
<g id="edge6_Node000005_Node000006" class="edge">
<title>Node5&#45;&gt;Node6</title>
<g id="a_edge6_Node000005_Node000006"><a xlink:title=" ">
<path fill="none" stroke="#63b8ff" d="M129.89,-102.72C123.64,-93.84 116.39,-83.55 111.29,-76.3"/>
<polygon fill="#63b8ff" stroke="#63b8ff" points="127.51,-104.43 136.13,-110.59 133.24,-100.4 127.51,-104.43"/>
</a>
</g>
</g>
<!-- Node8 -->
<g id="Node000008" class="node">
<title>Node8</title>
<g id="a_Node000008"><a xlink:href="file__server_8cpp.html" target="_top" xlink:title=" ">
<polygon fill="white" stroke="#666666" points="536,-76 341.5,-76 341.5,-56 536,-56 536,-76"/>
<text text-anchor="middle" x="438.75" y="-62.5" font-family="Helvetica,sans-Serif" font-size="10.00">examples/serve_directory/file_server.cpp</text>
</a>
</g>
</g>
<!-- Node7&#45;&gt;Node8 -->
<g id="edge8_Node000007_Node000008" class="edge">
<title>Node7&#45;&gt;Node8</title>
<g id="a_edge8_Node000007_Node000008"><a xlink:title=" ">
<path fill="none" stroke="#63b8ff" d="M438.75,-100.71C438.75,-92.32 438.75,-83.01 438.75,-76.3"/>
<polygon fill="#63b8ff" stroke="#63b8ff" points="435.25,-100.59 438.75,-110.59 442.25,-100.59 435.25,-100.59"/>
</a>
</g>
</g>
<!-- Node7&#45;&gt;Node9 -->
<g id="edge9_Node000007_Node000009" class="edge">
<title>Node7&#45;&gt;Node9</title>
<g id="a_edge9_Node000007_Node000009"><a xlink:title=" ">
<path fill="none" stroke="#63b8ff" d="M383.31,-108.48C349.12,-98.01 314.93,-80.78 332.75,-56 345.72,-37.97 366.26,-27.06 387.41,-20.5"/>
<polygon fill="#63b8ff" stroke="#63b8ff" points="382.29,-112.11 392.86,-111.51 384.22,-105.38 382.29,-112.11"/>
</a>
</g>
</g>
<!-- Node11&#45;&gt;Node10 -->
<g id="edge13_Node000011_Node000010" class="edge">
<title>Node11&#45;&gt;Node10</title>
<g id="a_edge13_Node000011_Node000010"><a xlink:title=" ">
<path fill="none" stroke="#63b8ff" d="M1059.25,-107.29C1085.82,-95.41 1114.22,-76.88 1098.75,-56 1083.24,-35.07 1058.23,-23.54 1033.16,-17.29"/>
<polygon fill="#63b8ff" stroke="#63b8ff" points="1058.1,-104.39 1050.25,-111.51 1060.82,-110.84 1058.1,-104.39"/>
</a>
</g>
</g>
<!-- Node12 -->
<g id="Node000012" class="node">
<title>Node12</title>
<g id="a_Node000012"><a xlink:href="examples_2simple__server_2request__listener_8cpp.html" target="_top" xlink:title=" ">
<polygon fill="white" stroke="#666666" points="1090,-76 877.5,-76 877.5,-56 1090,-56 1090,-76"/>
<text text-anchor="middle" x="983.75" y="-62.5" font-family="Helvetica,sans-Serif" font-size="10.00">examples/simple_server/request_listener.cpp</text>
</a>
</g>
</g>
<!-- Node11&#45;&gt;Node12 -->
<g id="edge14_Node000011_Node000012" class="edge">
<title>Node11&#45;&gt;Node12</title>
<g id="a_edge14_Node000011_Node000012"><a xlink:title=" ">
<path fill="none" stroke="#63b8ff" d="M1008.89,-102.72C1002.64,-93.84 995.39,-83.55 990.29,-76.3"/>
<polygon fill="#63b8ff" stroke="#63b8ff" points="1006.51,-104.43 1015.13,-110.59 1012.24,-100.4 1006.51,-104.43"/>
</a>
</g>
</g>
<!-- Node14&#45;&gt;Node13 -->
<g id="edge17_Node000014_Node000013" class="edge">
<title>Node14&#45;&gt;Node13</title>
<g id="a_edge17_Node000014_Node000013"><a xlink:title=" ">
<path fill="none" stroke="#63b8ff" d="M1340.85,-108.11C1359.62,-101.34 1379.13,-91.16 1392.75,-76 1407.05,-60.08 1410.62,-33.94 1411.49,-20.16"/>
<polygon fill="#63b8ff" stroke="#63b8ff" points="1339.94,-105.06 1331.55,-111.54 1342.14,-111.71 1339.94,-105.06"/>
</a>
</g>
</g>
<!-- Node15 -->
<g id="Node000015" class="node">
<title>Node15</title>
<g id="a_Node000015"><a xlink:href="examples_2websocket_2request__listener_8cpp.html" target="_top" xlink:title=" ">
<polygon fill="white" stroke="#666666" points="1383.25,-76 1184.25,-76 1184.25,-56 1383.25,-56 1383.25,-76"/>
<text text-anchor="middle" x="1283.75" y="-62.5" font-family="Helvetica,sans-Serif" font-size="10.00">examples/websocket/request_listener.cpp</text>
</a>
</g>
</g>
<!-- Node14&#45;&gt;Node15 -->
<g id="edge18_Node000014_Node000015" class="edge">
<title>Node14&#45;&gt;Node15</title>
<g id="a_edge18_Node000014_Node000015"><a xlink:title=" ">
<path fill="none" stroke="#63b8ff" d="M1283.75,-100.71C1283.75,-92.32 1283.75,-83.01 1283.75,-76.3"/>
<polygon fill="#63b8ff" stroke="#63b8ff" points="1280.25,-100.59 1283.75,-110.59 1287.25,-100.59 1280.25,-100.59"/>
</a>
</g>
</g>
<!-- Node16&#45;&gt;Node17 -->
<g id="edge20_Node000016_Node000017" class="edge">
<title>Node16&#45;&gt;Node17</title>
<g id="a_edge20_Node000016_Node000017"><a xlink:title=" ">
<path fill="none" stroke="#63b8ff" d="M744.75,-100.71C744.75,-92.32 744.75,-83.01 744.75,-76.3"/>
<polygon fill="#63b8ff" stroke="#63b8ff" points="741.25,-100.59 744.75,-110.59 748.25,-100.59 741.25,-100.59"/>
</a>
</g>
</g>
<!-- Node17&#45;&gt;Node4 -->
<g id="edge21_Node000017_Node000004" class="edge">
<title>Node17&#45;&gt;Node4</title>
<g id="a_edge21_Node000017_Node000004"><a xlink:title=" ">
<path fill="none" stroke="#63b8ff" d="M675.96,-57.08C591.07,-47.31 446.94,-30.71 356.78,-20.33"/>
<polygon fill="#63b8ff" stroke="#63b8ff" points="675.44,-60.66 685.77,-58.32 676.24,-53.7 675.44,-60.66"/>
</a>
</g>
</g>
<!-- Node17&#45;&gt;Node9 -->
<g id="edge23_Node000017_Node000009" class="edge">
<title>Node17&#45;&gt;Node9</title>
<g id="a_edge23_Node000017_Node000009"><a xlink:title=" ">
<path fill="none" stroke="#63b8ff" d="M685.22,-53.44C634.57,-43.6 562.71,-29.64 515.44,-20.46"/>
<polygon fill="#63b8ff" stroke="#63b8ff" points="684.52,-57.06 695.01,-55.53 685.86,-50.19 684.52,-57.06"/>
</a>
</g>
</g>
<!-- Node17&#45;&gt;Node10 -->
<g id="edge24_Node000017_Node000010" class="edge">
<title>Node17&#45;&gt;Node10</title>
<g id="a_edge24_Node000017_Node000010"><a xlink:title=" ">
<path fill="none" stroke="#63b8ff" d="M791.24,-52.81C828.59,-43.02 880.29,-29.47 914.59,-20.48"/>
<polygon fill="#63b8ff" stroke="#63b8ff" points="790.42,-49.67 781.63,-55.59 792.19,-56.44 790.42,-49.67"/>
</a>
</g>
</g>
<!-- Node17&#45;&gt;Node13 -->
<g id="edge25_Node000017_Node000013" class="edge">
<title>Node17&#45;&gt;Node13</title>
<g id="a_edge25_Node000017_Node000013"><a xlink:title=" ">
<path fill="none" stroke="#63b8ff" d="M813.1,-59.47C938.63,-49.3 1205.01,-27.74 1335.92,-17.14"/>
<polygon fill="#63b8ff" stroke="#63b8ff" points="813.17,-56.03 803.48,-60.33 813.73,-63.01 813.17,-56.03"/>
</a>
</g>
</g>
<!-- Node18 -->
<g id="Node000018" class="node">
<title>Node18</title>
<g id="a_Node000018"><a xlink:href="most__minimal_2main_8cpp.html" target="_top" xlink:title=" ">
<polygon fill="white" stroke="#666666" points="850,-20 685.5,-20 685.5,0 850,0 850,-20"/>
<text text-anchor="middle" x="767.75" y="-6.5" font-family="Helvetica,sans-Serif" font-size="10.00">examples/most_minimal/main.cpp</text>
</a>
</g>
</g>
<!-- Node17&#45;&gt;Node18 -->
<g id="edge22_Node000017_Node000018" class="edge">
<title>Node17&#45;&gt;Node18</title>
<g id="a_edge22_Node000017_Node000018"><a xlink:title=" ">
<path fill="none" stroke="#63b8ff" d="M753.02,-45.58C756.69,-36.97 760.83,-27.24 763.79,-20.3"/>
<polygon fill="#63b8ff" stroke="#63b8ff" points="749.45,-44.02 748.76,-54.59 755.9,-46.77 749.45,-44.02"/>
</a>
</g>
</g>
<!-- Node17&#45;&gt;Node19 -->
<g id="edge26_Node000017_Node000019" class="edge">
<title>Node17&#45;&gt;Node19</title>
<g id="a_edge26_Node000017_Node000019"><a xlink:title=" ">
<path fill="none" stroke="#63b8ff" d="M812.91,-55.91C886.69,-46.07 1003.83,-30.46 1078.72,-20.47"/>
<polygon fill="#63b8ff" stroke="#63b8ff" points="812.8,-52.53 803.35,-57.32 813.72,-59.47 812.8,-52.53"/>
</a>
</g>
</g>
<!-- Node20 -->
<g id="Node000020" class="node">
<title>Node20</title>
<g id="a_Node000020"><a xlink:href="server_8cpp.html" target="_top" xlink:title=" ">
<polygon fill="white" stroke="#666666" points="667.62,-20 569.88,-20 569.88,0 667.62,0 667.62,-20"/>
<text text-anchor="middle" x="618.75" y="-6.5" font-family="Helvetica,sans-Serif" font-size="10.00">src/roar/server.cpp</text>
</a>
</g>
</g>
<!-- Node17&#45;&gt;Node20 -->
<g id="edge27_Node000017_Node000020" class="edge">
<title>Node17&#45;&gt;Node20</title>
<g id="a_edge27_Node000017_Node000020"><a xlink:title=" ">
<path fill="none" stroke="#63b8ff" d="M712.72,-51.27C690.24,-41.64 660.77,-29.01 640.87,-20.48"/>
<polygon fill="#63b8ff" stroke="#63b8ff" points="711.23,-54.87 721.8,-55.59 713.99,-48.44 711.23,-54.87"/>
</a>
</g>
</g>
<!-- Node22 -->
<g id="Node000022" class="node">
<title>Node22</title>
<g id="a_Node000022"><a xlink:href="client_8hpp.html" target="_top" xlink:title=" ">
<polygon fill="white" stroke="#666666" points="1515.38,-188 1404.12,-188 1404.12,-168 1515.38,-168 1515.38,-188"/>
<text text-anchor="middle" x="1459.75" y="-174.5" font-family="Helvetica,sans-Serif" font-size="10.00">include/roar/client.hpp</text>
</a>
</g>
</g>
<!-- Node21&#45;&gt;Node22 -->
<g id="edge32_Node000021_Node000022" class="edge">
<title>Node21&#45;&gt;Node22</title>
<g id="a_edge32_Node000021_Node000022"><a xlink:title=" ">
<path fill="none" stroke="#63b8ff" d="M1210.77,-221.68C1268.23,-211.83 1350.57,-197.72 1404.58,-188.46"/>
<polygon fill="#63b8ff" stroke="#63b8ff" points="1210.24,-218.39 1200.98,-223.53 1211.43,-225.29 1210.24,-218.39"/>
</a>
</g>
</g>
<!-- Node24 -->
<g id="Node000024" class="node">
<title>Node24</title>
<g id="a_Node000024"><a xlink:href="session_8cpp.html" target="_top" xlink:title=" ">
<polygon fill="white" stroke="#666666" points="1144.38,-188 1003.12,-188 1003.12,-168 1144.38,-168 1144.38,-188"/>
<text text-anchor="middle" x="1073.75" y="-174.5" font-family="Helvetica,sans-Serif" font-size="10.00">src/roar/session/session.cpp</text>
</a>
</g>
</g>
<!-- Node21&#45;&gt;Node24 -->
<g id="edge34_Node000021_Node000024" class="edge">
<title>Node21&#45;&gt;Node24</title>
<g id="a_edge34_Node000021_Node000024"><a xlink:title=" ">
<path fill="none" stroke="#63b8ff" d="M1123.65,-216.95C1111.37,-207.61 1096.32,-196.16 1085.98,-188.3"/>
<polygon fill="#63b8ff" stroke="#63b8ff" points="1121.3,-220.33 1131.38,-223.59 1125.54,-214.75 1121.3,-220.33"/>
</a>
</g>
</g>
<!-- Node25 -->
<g id="Node000025" class="node">
<title>Node25</title>
<g id="a_Node000025"><a xlink:href="url_8cpp.html" target="_top" xlink:title=" ">
<polygon fill="white" stroke="#666666" points="1257.12,-188 1162.38,-188 1162.38,-168 1257.12,-168 1257.12,-188"/>
<text text-anchor="middle" x="1209.75" y="-174.5" font-family="Helvetica,sans-Serif" font-size="10.00">src/roar/url/url.cpp</text>
</a>
</g>
</g>
<!-- Node21&#45;&gt;Node25 -->
<g id="edge35_Node000021_Node000025" class="edge">
<title>Node21&#45;&gt;Node25</title>
<g id="a_edge35_Node000021_Node000025"><a xlink:title=" ">
<path fill="none" stroke="#63b8ff" d="M1164.39,-216.68C1175.58,-207.39 1189.18,-196.09 1198.56,-188.3"/>
<polygon fill="#63b8ff" stroke="#63b8ff" points="1162.53,-214.51 1157.07,-223.59 1167,-219.9 1162.53,-214.51"/>
</a>
</g>
</g>
<!-- Node23 -->
<g id="Node000023" class="node">
<title>Node23</title>
<g id="a_Node000023"><a xlink:href="client_8cpp.html" target="_top" xlink:title=" ">
<polygon fill="white" stroke="#666666" points="1571.75,-132 1477.75,-132 1477.75,-112 1571.75,-112 1571.75,-132"/>
<text text-anchor="middle" x="1524.75" y="-118.5" font-family="Helvetica,sans-Serif" font-size="10.00">src/roar/client.cpp</text>
</a>
</g>
</g>
<!-- Node22&#45;&gt;Node23 -->
<g id="edge33_Node000022_Node000023" class="edge">
<title>Node22&#45;&gt;Node23</title>
<g id="a_edge33_Node000022_Node000023"><a xlink:title=" ">
<path fill="none" stroke="#63b8ff" d="M1479.39,-160.68C1490.58,-151.39 1504.18,-140.09 1513.56,-132.3"/>
<polygon fill="#63b8ff" stroke="#63b8ff" points="1477.53,-158.51 1472.07,-167.59 1482,-163.9 1477.53,-158.51"/>
</a>
</g>
</g>
</g>
</svg>

<g id="navigator" transform="translate(0 0)" fill="#404254">
  <rect fill="#f2f5e9" fill-opacity="0.5" stroke="#606060" stroke-width=".5" x="0" y="0" width="60" height="60"/>
  <use id="zoomplus" xlink:href="#zoomPlus" x="17" y="9" onmousedown="handleZoom(evt,'in')"/>
  <use id="zoomminus" xlink:href="#zoomMin" x="42" y="9" onmousedown="handleZoom(evt,'out')"/>
  <use id="reset" xlink:href="#resetDef" x="30" y="36" onmousedown="handleReset()"/>
   <use id="arrowup" xlink:href="#arrowUp" x="0" y="0" onmousedown="handlePan(0,-1)"/>
  <use id="arrowright" xlink:href="#arrowRight" x="0" y="0" onmousedown="handlePan(1,0)"/>
  <use id="arrowdown" xlink:href="#arrowDown" x="0" y="0" onmousedown="handlePan(0,1)"/>
  <use id="arrowleft" xlink:href="#arrowLeft" x="0" y="0" onmousedown="handlePan(-1,0)"/>
</g>
<svg viewBox="0 0 15 15" width="100%" height="30px" preserveAspectRatio="xMaxYMin meet">
 <g id="arrow_out" transform="scale(0.3 0.3)">
  <a xlink:href="overloaded_8hpp__dep__incl_org.svg" target="_base">
   <rect id="button" ry="5" rx="5" y="6" x="6" height="38" width="38"
        fill="#f2f5e9" fill-opacity="0.5" stroke="#606060" stroke-width="1.0"/>
   <path id="arrow"
     d="M 11.500037,31.436501 C 11.940474,20.09759 22.043105,11.32322 32.158766,21.979434 L 37.068811,17.246167 C 37.068811,17.246167 37.088388,32 37.088388,32 L 22.160133,31.978069 C 22.160133,31.978069 26.997745,27.140456 26.997745,27.140456 C 18.528582,18.264221 13.291696,25.230495 11.500037,31.436501 z"
     style="fill:#404040;"/>
  </a>
 </g>
</svg>

<style type='text/css'>
<![CDATA[
[data-mouse-over-selected='false'] { opacity: 0.7; }
[data-mouse-over-selected='true']  { opacity: 1.0; }
]]>
</style>
<script type="application/ecmascript"><![CDATA[
document.addEventListener('DOMContentLoaded', (event) => {
  highlightEdges();
  highlightAdjacentNodes();
});
]]></script>
</svg>
