<?xml version="1.0" encoding="UTF-8" standalone="no"?>
<!DOCTYPE svg PUBLIC "-//W3C//DTD SVG 1.1//EN"
 "http://www.w3.org/Graphics/SVG/1.1/DTD/svg11.dtd">
<!-- Generated by graphviz version 2.44.1 (20211215.1903)
 -->
<!-- Title: include/roar/detail/overloaded.hpp Pages: 1 -->
<svg width="1616pt" height="308pt"
 viewBox="0.00 0.00 1615.50 308.00" xmlns="http://www.w3.org/2000/svg" xmlns:xlink="http://www.w3.org/1999/xlink">
<g id="graph0" class="graph" transform="scale(1 1) rotate(0) translate(4 304)">
<title>include/roar/detail/overloaded.hpp</title>
<!-- Node1 -->
<g id="node1" class="node">
<title>Node1</title>
<g id="a_node1"><a xlink:title=" ">
<polygon fill="#bfbfbf" stroke="black" points="458.5,-280.5 458.5,-299.5 620.5,-299.5 620.5,-280.5 458.5,-280.5"/>
<text text-anchor="middle" x="539.5" y="-287.5" font-family="Helvetica,sans-Serif" font-size="10.00">include/roar/detail/overloaded.hpp</text>
</a>
</g>
</g>
<!-- Node2 -->
<g id="node2" class="node">
<title>Node2</title>
<g id="a_node2"><a xlink:href="directory__server_8hpp.html" target="_top" xlink:title=" ">
<polygon fill="none" stroke="black" points="213,-112.5 213,-131.5 444,-131.5 444,-112.5 213,-112.5"/>
<text text-anchor="middle" x="328.5" y="-119.5" font-family="Helvetica,sans-Serif" font-size="10.00">include/roar/directory_server/directory_server.hpp</text>
</a>
</g>
</g>
<!-- Node1&#45;&gt;Node2 -->
<g id="edge1" class="edge">
<title>Node1&#45;&gt;Node2</title>
<path fill="none" stroke="midnightblue" d="M520.45,-274.01C477.34,-240.1 373.4,-158.32 339.44,-131.61"/>
<polygon fill="midnightblue" stroke="midnightblue" points="518.43,-276.88 528.45,-280.31 522.76,-271.37 518.43,-276.88"/>
</g>
<!-- Node11 -->
<g id="node11" class="node">
<title>Node11</title>
<g id="a_node11"><a xlink:href="flexible__provider_8hpp.html" target="_top" xlink:title=" ">
<polygon fill="none" stroke="black" points="568,-224.5 568,-243.5 759,-243.5 759,-224.5 568,-224.5"/>
<text text-anchor="middle" x="663.5" y="-231.5" font-family="Helvetica,sans-Serif" font-size="10.00">include/roar/routing/flexible_provider.hpp</text>
</a>
</g>
</g>
<!-- Node1&#45;&gt;Node11 -->
<g id="edge10" class="edge">
<title>Node1&#45;&gt;Node11</title>
<path fill="none" stroke="midnightblue" d="M568.51,-276.37C591.73,-266.26 623.66,-252.35 643.94,-243.52"/>
<polygon fill="midnightblue" stroke="midnightblue" points="566.92,-273.24 559.15,-280.44 569.71,-279.66 566.92,-273.24"/>
</g>
<!-- Node12 -->
<g id="node12" class="node">
<title>Node12</title>
<g id="a_node12"><a xlink:href="include_2roar_2routing_2request__listener_8hpp.html" target="_top" xlink:title=" ">
<polygon fill="none" stroke="black" points="568.5,-168.5 568.5,-187.5 758.5,-187.5 758.5,-168.5 568.5,-168.5"/>
<text text-anchor="middle" x="663.5" y="-175.5" font-family="Helvetica,sans-Serif" font-size="10.00">include/roar/routing/request_listener.hpp</text>
</a>
</g>
</g>
<!-- Node1&#45;&gt;Node12 -->
<g id="edge32" class="edge">
<title>Node1&#45;&gt;Node12</title>
<path fill="none" stroke="midnightblue" d="M540.73,-270.19C542.59,-255.97 547.18,-236.77 558.5,-224 575.07,-205.3 600.77,-194.1 622.59,-187.56"/>
<polygon fill="midnightblue" stroke="midnightblue" points="537.23,-270.02 539.76,-280.31 544.2,-270.69 537.23,-270.02"/>
</g>
<!-- Node3 -->
<g id="node3" class="node">
<title>Node3</title>
<g id="a_node3"><a xlink:href="server_8hpp.html" target="_top" xlink:title=" ">
<polygon fill="none" stroke="black" points="480.5,-56.5 480.5,-75.5 596.5,-75.5 596.5,-56.5 480.5,-56.5"/>
<text text-anchor="middle" x="538.5" y="-63.5" font-family="Helvetica,sans-Serif" font-size="10.00">include/roar/server.hpp</text>
</a>
</g>
</g>
<!-- Node2&#45;&gt;Node3 -->
<g id="edge2" class="edge">
<title>Node2&#45;&gt;Node3</title>
<path fill="none" stroke="midnightblue" d="M371.69,-109.89C411.35,-99.7 469.27,-84.8 505.38,-75.52"/>
<polygon fill="midnightblue" stroke="midnightblue" points="370.59,-106.56 361.78,-112.44 372.33,-113.34 370.59,-106.56"/>
</g>
<!-- Node4 -->
<g id="node4" class="node">
<title>Node4</title>
<g id="a_node4"><a xlink:href="100__continue_2main_8cpp.html" target="_top" xlink:title=" ">
<polygon fill="none" stroke="black" points="1156.5,-0.5 1156.5,-19.5 1318.5,-19.5 1318.5,-0.5 1156.5,-0.5"/>
<text text-anchor="middle" x="1237.5" y="-7.5" font-family="Helvetica,sans-Serif" font-size="10.00">examples/100_continue/main.cpp</text>
</a>
</g>
</g>
<!-- Node3&#45;&gt;Node4 -->
<g id="edge3" class="edge">
<title>Node3&#45;&gt;Node4</title>
<path fill="none" stroke="midnightblue" d="M606.53,-59.13C619.15,-58.07 632.23,-56.99 644.5,-56 827.43,-41.29 1042.22,-25.31 1156.43,-16.92"/>
<polygon fill="midnightblue" stroke="midnightblue" points="606.2,-55.65 596.53,-59.98 606.79,-62.62 606.2,-55.65"/>
</g>
<!-- Node5 -->
<g id="node5" class="node">
<title>Node5</title>
<g id="a_node5"><a xlink:href="most__minimal_2main_8cpp.html" target="_top" xlink:title=" ">
<polygon fill="none" stroke="black" points="374,-0.5 374,-19.5 539,-19.5 539,-0.5 374,-0.5"/>
<text text-anchor="middle" x="456.5" y="-7.5" font-family="Helvetica,sans-Serif" font-size="10.00">examples/most_minimal/main.cpp</text>
</a>
</g>
</g>
<!-- Node3&#45;&gt;Node5 -->
<g id="edge4" class="edge">
<title>Node3&#45;&gt;Node5</title>
<path fill="none" stroke="midnightblue" d="M516.67,-50.62C501.69,-40.76 482.3,-27.99 469.64,-19.65"/>
<polygon fill="midnightblue" stroke="midnightblue" points="515.05,-53.75 525.33,-56.32 518.9,-47.9 515.05,-53.75"/>
</g>
<!-- Node6 -->
<g id="node6" class="node">
<title>Node6</title>
<g id="a_node6"><a xlink:href="serve__directory_2main_8cpp.html" target="_top" xlink:title=" ">
<polygon fill="none" stroke="black" points="185,-0.5 185,-19.5 356,-19.5 356,-0.5 185,-0.5"/>
<text text-anchor="middle" x="270.5" y="-7.5" font-family="Helvetica,sans-Serif" font-size="10.00">examples/serve_directory/main.cpp</text>
</a>
</g>
</g>
<!-- Node3&#45;&gt;Node6 -->
<g id="edge5" class="edge">
<title>Node3&#45;&gt;Node6</title>
<path fill="none" stroke="midnightblue" d="M485.94,-54.41C435.29,-44.2 359.63,-28.96 312.77,-19.52"/>
<polygon fill="midnightblue" stroke="midnightblue" points="485.54,-57.9 496.03,-56.44 486.92,-51.04 485.54,-57.9"/>
</g>
<!-- Node7 -->
<g id="node7" class="node">
<title>Node7</title>
<g id="a_node7"><a xlink:href="simple__server_2main_8cpp.html" target="_top" xlink:title=" ">
<polygon fill="none" stroke="black" points="674,-0.5 674,-19.5 839,-19.5 839,-0.5 674,-0.5"/>
<text text-anchor="middle" x="756.5" y="-7.5" font-family="Helvetica,sans-Serif" font-size="10.00">examples/simple_server/main.cpp</text>
</a>
</g>
</g>
<!-- Node3&#45;&gt;Node7 -->
<g id="edge6" class="edge">
<title>Node3&#45;&gt;Node7</title>
<path fill="none" stroke="midnightblue" d="M582.81,-54.02C623.99,-43.82 684.47,-28.84 722.12,-19.52"/>
<polygon fill="midnightblue" stroke="midnightblue" points="581.91,-50.64 573.04,-56.44 583.59,-57.44 581.91,-50.64"/>
</g>
<!-- Node8 -->
<g id="node8" class="node">
<title>Node8</title>
<g id="a_node8"><a xlink:href="websocket_2main_8cpp.html" target="_top" xlink:title=" ">
<polygon fill="none" stroke="black" points="1455.5,-0.5 1455.5,-19.5 1607.5,-19.5 1607.5,-0.5 1455.5,-0.5"/>
<text text-anchor="middle" x="1531.5" y="-7.5" font-family="Helvetica,sans-Serif" font-size="10.00">examples/websocket/main.cpp</text>
</a>
</g>
</g>
<!-- Node3&#45;&gt;Node8 -->
<g id="edge7" class="edge">
<title>Node3&#45;&gt;Node8</title>
<path fill="none" stroke="midnightblue" d="M606.51,-58.88C619.14,-57.84 632.21,-56.83 644.5,-56 801.22,-45.37 1270.35,-23.16 1455.32,-14.53"/>
<polygon fill="midnightblue" stroke="midnightblue" points="606.19,-55.4 596.51,-59.72 606.77,-62.37 606.19,-55.4"/>
</g>
<!-- Node9 -->
<g id="node9" class="node">
<title>Node9</title>
<g id="a_node9"><a xlink:href="src_2roar_2routing_2request__listener_8cpp.html" target="_top" xlink:title=" ">
<polygon fill="none" stroke="black" points="876,-0.5 876,-19.5 1049,-19.5 1049,-0.5 876,-0.5"/>
<text text-anchor="middle" x="962.5" y="-7.5" font-family="Helvetica,sans-Serif" font-size="10.00">src/roar/routing/request_listener.cpp</text>
</a>
</g>
</g>
<!-- Node3&#45;&gt;Node9 -->
<g id="edge8" class="edge">
<title>Node3&#45;&gt;Node9</title>
<path fill="none" stroke="midnightblue" d="M606.96,-56.28C686.51,-46.15 816.9,-29.54 895.72,-19.51"/>
<polygon fill="midnightblue" stroke="midnightblue" points="606.04,-52.87 596.57,-57.6 606.93,-59.81 606.04,-52.87"/>
</g>
<!-- Node10 -->
<g id="node10" class="node">
<title>Node10</title>
<g id="a_node10"><a xlink:href="server_8cpp.html" target="_top" xlink:title=" ">
<polygon fill="none" stroke="black" points="557.5,-0.5 557.5,-19.5 655.5,-19.5 655.5,-0.5 557.5,-0.5"/>
<text text-anchor="middle" x="606.5" y="-7.5" font-family="Helvetica,sans-Serif" font-size="10.00">src/roar/server.cpp</text>
</a>
</g>
</g>
<!-- Node3&#45;&gt;Node10 -->
<g id="edge9" class="edge">
<title>Node3&#45;&gt;Node10</title>
<path fill="none" stroke="midnightblue" d="M557.26,-50.1C569.5,-40.38 585.06,-28.03 595.38,-19.83"/>
<polygon fill="midnightblue" stroke="midnightblue" points="555.08,-47.36 549.43,-56.32 559.43,-52.85 555.08,-47.36"/>
</g>
<!-- Node11&#45;&gt;Node12 -->
<g id="edge11" class="edge">
<title>Node11&#45;&gt;Node12</title>
<path fill="none" stroke="midnightblue" d="M663.5,-213.8C663.5,-204.91 663.5,-194.78 663.5,-187.75"/>
<polygon fill="midnightblue" stroke="midnightblue" points="660,-214.08 663.5,-224.08 667,-214.08 660,-214.08"/>
</g>
<!-- Node12&#45;&gt;Node2 -->
<g id="edge29" class="edge">
<title>Node12&#45;&gt;Node2</title>
<path fill="none" stroke="midnightblue" d="M600.16,-166.79C536.86,-156.59 440.65,-141.08 381.33,-131.52"/>
<polygon fill="midnightblue" stroke="midnightblue" points="599.99,-170.31 610.42,-168.44 601.1,-163.4 599.99,-170.31"/>
</g>
<!-- Node12&#45;&gt;Node3 -->
<g id="edge30" class="edge">
<title>Node12&#45;&gt;Node3</title>
<path fill="none" stroke="midnightblue" d="M582.85,-165.42C564,-158.74 546.07,-148.29 534.5,-132 522.45,-115.04 529.79,-88.88 534.87,-75.51"/>
<polygon fill="midnightblue" stroke="midnightblue" points="581.87,-168.78 592.46,-168.49 584,-162.11 581.87,-168.78"/>
</g>
<!-- Node12&#45;&gt;Node4 -->
<g id="edge12" class="edge">
<title>Node12&#45;&gt;Node4</title>
<path fill="none" stroke="midnightblue" d="M768.99,-176.6C930.56,-174.88 1224.13,-166.92 1256.5,-132 1286.14,-100.03 1256.12,-41.67 1242.99,-19.69"/>
<polygon fill="midnightblue" stroke="midnightblue" points="768.51,-173.11 758.54,-176.71 768.58,-180.11 768.51,-173.11"/>
</g>
<!-- Node12&#45;&gt;Node6 -->
<g id="edge20" class="edge">
<title>Node12&#45;&gt;Node6</title>
<path fill="none" stroke="midnightblue" d="M623.43,-165.55C595.39,-157.17 557.24,-145.03 524.5,-132 432.15,-95.24 326.12,-40.46 286.51,-19.54"/>
<polygon fill="midnightblue" stroke="midnightblue" points="622.69,-168.98 633.27,-168.46 624.67,-162.27 622.69,-168.98"/>
</g>
<!-- Node12&#45;&gt;Node7 -->
<g id="edge21" class="edge">
<title>Node12&#45;&gt;Node7</title>
<path fill="none" stroke="midnightblue" d="M616.85,-165.38C586.33,-155.15 554.35,-137.81 567.5,-112 577.1,-93.15 625.99,-66.24 644.5,-56 672.37,-40.58 706.63,-27.61 729.86,-19.61"/>
<polygon fill="midnightblue" stroke="midnightblue" points="616.06,-168.8 626.65,-168.45 618.16,-162.12 616.06,-168.8"/>
</g>
<!-- Node12&#45;&gt;Node8 -->
<g id="edge25" class="edge">
<title>Node12&#45;&gt;Node8</title>
<path fill="none" stroke="midnightblue" d="M768.83,-174.54C989.68,-168.97 1483.33,-154.1 1512.5,-132 1547.59,-105.42 1538.35,-42.71 1533.53,-19.68"/>
<polygon fill="midnightblue" stroke="midnightblue" points="768.43,-171.05 758.52,-174.8 768.61,-178.05 768.43,-171.05"/>
</g>
<!-- Node12&#45;&gt;Node9 -->
<g id="edge31" class="edge">
<title>Node12&#45;&gt;Node9</title>
<path fill="none" stroke="midnightblue" d="M768.88,-176.96C853.25,-174.42 962.05,-164.64 990.5,-132 1005.38,-114.93 977.01,-44.44 966.33,-19.66"/>
<polygon fill="midnightblue" stroke="midnightblue" points="768.62,-173.47 758.72,-177.24 768.81,-180.47 768.62,-173.47"/>
</g>
<!-- Node13 -->
<g id="node13" class="node">
<title>Node13</title>
<g id="a_node13"><a xlink:href="examples_2100__continue_2request__listener_8hpp.html" target="_top" xlink:title=" ">
<polygon fill="none" stroke="black" points="1037.5,-112.5 1037.5,-131.5 1247.5,-131.5 1247.5,-112.5 1037.5,-112.5"/>
<text text-anchor="middle" x="1142.5" y="-119.5" font-family="Helvetica,sans-Serif" font-size="10.00">examples/100_continue/request_listener.hpp</text>
</a>
</g>
</g>
<!-- Node12&#45;&gt;Node13 -->
<g id="edge13" class="edge">
<title>Node12&#45;&gt;Node13</title>
<path fill="none" stroke="midnightblue" d="M749.08,-167.35C839.42,-157.17 980.47,-141.27 1066.87,-131.53"/>
<polygon fill="midnightblue" stroke="midnightblue" points="748.68,-163.88 739.13,-168.47 749.46,-170.83 748.68,-163.88"/>
</g>
<!-- Node15 -->
<g id="node15" class="node">
<title>Node15</title>
<g id="a_node15"><a xlink:href="request__listener_2main_8cpp.html" target="_top" xlink:title=" ">
<polygon fill="none" stroke="black" points="577,-112.5 577,-131.5 750,-131.5 750,-112.5 577,-112.5"/>
<text text-anchor="middle" x="663.5" y="-119.5" font-family="Helvetica,sans-Serif" font-size="10.00">examples/request_listener/main.cpp</text>
</a>
</g>
</g>
<!-- Node12&#45;&gt;Node15 -->
<g id="edge16" class="edge">
<title>Node12&#45;&gt;Node15</title>
<path fill="none" stroke="midnightblue" d="M663.5,-157.8C663.5,-148.91 663.5,-138.78 663.5,-131.75"/>
<polygon fill="midnightblue" stroke="midnightblue" points="660,-158.08 663.5,-168.08 667,-158.08 660,-158.08"/>
</g>
<!-- Node16 -->
<g id="node16" class="node">
<title>Node16</title>
<g id="a_node16"><a xlink:href="file__server_8hpp.html" target="_top" xlink:title=" ">
<polygon fill="none" stroke="black" points="0,-112.5 0,-131.5 195,-131.5 195,-112.5 0,-112.5"/>
<text text-anchor="middle" x="97.5" y="-119.5" font-family="Helvetica,sans-Serif" font-size="10.00">examples/serve_directory/file_server.hpp</text>
</a>
</g>
</g>
<!-- Node12&#45;&gt;Node16 -->
<g id="edge17" class="edge">
<title>Node12&#45;&gt;Node16</title>
<path fill="none" stroke="midnightblue" d="M564,-167.51C457.32,-157.33 289.47,-141.32 186.87,-131.53"/>
<polygon fill="midnightblue" stroke="midnightblue" points="563.84,-171.01 574.13,-168.47 564.51,-164.04 563.84,-171.01"/>
</g>
<!-- Node18 -->
<g id="node18" class="node">
<title>Node18</title>
<g id="a_node18"><a xlink:href="examples_2simple__server_2request__listener_8hpp.html" target="_top" xlink:title=" ">
<polygon fill="none" stroke="black" points="768,-112.5 768,-131.5 981,-131.5 981,-112.5 768,-112.5"/>
<text text-anchor="middle" x="874.5" y="-119.5" font-family="Helvetica,sans-Serif" font-size="10.00">examples/simple_server/request_listener.hpp</text>
</a>
</g>
</g>
<!-- Node12&#45;&gt;Node18 -->
<g id="edge22" class="edge">
<title>Node12&#45;&gt;Node18</title>
<path fill="none" stroke="midnightblue" d="M706.64,-165.96C746.49,-155.76 804.86,-140.82 841.22,-131.52"/>
<polygon fill="midnightblue" stroke="midnightblue" points="705.75,-162.57 696.93,-168.44 707.49,-169.35 705.75,-162.57"/>
</g>
<!-- Node20 -->
<g id="node20" class="node">
<title>Node20</title>
<g id="a_node20"><a xlink:href="examples_2websocket_2request__listener_8hpp.html" target="_top" xlink:title=" ">
<polygon fill="none" stroke="black" points="1303.5,-112.5 1303.5,-131.5 1503.5,-131.5 1503.5,-112.5 1303.5,-112.5"/>
<text text-anchor="middle" x="1403.5" y="-119.5" font-family="Helvetica,sans-Serif" font-size="10.00">examples/websocket/request_listener.hpp</text>
</a>
</g>
</g>
<!-- Node12&#45;&gt;Node20 -->
<g id="edge26" class="edge">
<title>Node12&#45;&gt;Node20</title>
<path fill="none" stroke="midnightblue" d="M768.98,-169.64C893.42,-160.91 1106.54,-145.8 1289.5,-132 1294.05,-131.66 1298.71,-131.3 1303.41,-130.94"/>
<polygon fill="midnightblue" stroke="midnightblue" points="768.43,-166.17 758.7,-170.37 768.92,-173.16 768.43,-166.17"/>
</g>
<!-- Node13&#45;&gt;Node4 -->
<g id="edge14" class="edge">
<title>Node13&#45;&gt;Node4</title>
<path fill="none" stroke="midnightblue" d="M1175.85,-108.04C1190.82,-100.69 1207.54,-90.11 1218.5,-76 1231.62,-59.1 1235.69,-33.38 1236.94,-19.92"/>
<polygon fill="midnightblue" stroke="midnightblue" points="1173.97,-105.05 1166.35,-112.41 1176.89,-111.42 1173.97,-105.05"/>
</g>
<!-- Node14 -->
<g id="node14" class="node">
<title>Node14</title>
<g id="a_node14"><a xlink:href="examples_2100__continue_2request__listener_8cpp.html" target="_top" xlink:title=" ">
<polygon fill="none" stroke="black" points="999.5,-56.5 999.5,-75.5 1209.5,-75.5 1209.5,-56.5 999.5,-56.5"/>
<text text-anchor="middle" x="1104.5" y="-63.5" font-family="Helvetica,sans-Serif" font-size="10.00">examples/100_continue/request_listener.cpp</text>
</a>
</g>
</g>
<!-- Node13&#45;&gt;Node14 -->
<g id="edge15" class="edge">
<title>Node13&#45;&gt;Node14</title>
<path fill="none" stroke="midnightblue" d="M1130.44,-103.86C1123.86,-94.5 1115.99,-83.33 1110.66,-75.75"/>
<polygon fill="midnightblue" stroke="midnightblue" points="1127.61,-105.92 1136.23,-112.08 1133.33,-101.89 1127.61,-105.92"/>
</g>
<!-- Node16&#45;&gt;Node6 -->
<g id="edge19" class="edge">
<title>Node16&#45;&gt;Node6</title>
<path fill="none" stroke="midnightblue" d="M134.62,-109.07C155.77,-101.36 182.22,-90.12 203.5,-76 228.35,-59.51 252.09,-33.15 263.48,-19.62"/>
<polygon fill="midnightblue" stroke="midnightblue" points="133.28,-105.83 125.02,-112.47 135.61,-112.43 133.28,-105.83"/>
</g>
<!-- Node17 -->
<g id="node17" class="node">
<title>Node17</title>
<g id="a_node17"><a xlink:href="file__server_8cpp.html" target="_top" xlink:title=" ">
<polygon fill="none" stroke="black" points="0,-56.5 0,-75.5 195,-75.5 195,-56.5 0,-56.5"/>
<text text-anchor="middle" x="97.5" y="-63.5" font-family="Helvetica,sans-Serif" font-size="10.00">examples/serve_directory/file_server.cpp</text>
</a>
</g>
</g>
<!-- Node16&#45;&gt;Node17 -->
<g id="edge18" class="edge">
<title>Node16&#45;&gt;Node17</title>
<path fill="none" stroke="midnightblue" d="M97.5,-101.8C97.5,-92.91 97.5,-82.78 97.5,-75.75"/>
<polygon fill="midnightblue" stroke="midnightblue" points="94,-102.08 97.5,-112.08 101,-102.08 94,-102.08"/>
</g>
<!-- Node18&#45;&gt;Node7 -->
<g id="edge23" class="edge">
<title>Node18&#45;&gt;Node7</title>
<path fill="none" stroke="midnightblue" d="M880.24,-102.13C883.28,-88.16 884.71,-69.33 875.5,-56 862.32,-36.92 839.93,-25.92 818.1,-19.58"/>
<polygon fill="midnightblue" stroke="midnightblue" points="876.78,-101.52 877.63,-112.08 883.55,-103.3 876.78,-101.52"/>
</g>
<!-- Node19 -->
<g id="node19" class="node">
<title>Node19</title>
<g id="a_node19"><a xlink:href="examples_2simple__server_2request__listener_8cpp.html" target="_top" xlink:title=" ">
<polygon fill="none" stroke="black" points="653,-56.5 653,-75.5 866,-75.5 866,-56.5 653,-56.5"/>
<text text-anchor="middle" x="759.5" y="-63.5" font-family="Helvetica,sans-Serif" font-size="10.00">examples/simple_server/request_listener.cpp</text>
</a>
</g>
</g>
<!-- Node18&#45;&gt;Node19 -->
<g id="edge24" class="edge">
<title>Node18&#45;&gt;Node19</title>
<path fill="none" stroke="midnightblue" d="M847.02,-108.1C825.53,-98.01 796.28,-84.27 777.64,-75.52"/>
<polygon fill="midnightblue" stroke="midnightblue" points="845.74,-111.36 856.28,-112.44 848.71,-105.02 845.74,-111.36"/>
</g>
<!-- Node20&#45;&gt;Node8 -->
<g id="edge27" class="edge">
<title>Node20&#45;&gt;Node8</title>
<path fill="none" stroke="midnightblue" d="M1456.9,-109.41C1476.77,-102.66 1497.98,-92.16 1512.5,-76 1526.96,-59.91 1530.45,-33.37 1531.27,-19.71"/>
<polygon fill="midnightblue" stroke="midnightblue" points="1455.78,-106.09 1447.29,-112.43 1457.88,-112.77 1455.78,-106.09"/>
</g>
<!-- Node21 -->
<g id="node21" class="node">
<title>Node21</title>
<g id="a_node21"><a xlink:href="examples_2websocket_2request__listener_8cpp.html" target="_top" xlink:title=" ">
<polygon fill="none" stroke="black" points="1303.5,-56.5 1303.5,-75.5 1503.5,-75.5 1503.5,-56.5 1303.5,-56.5"/>
<text text-anchor="middle" x="1403.5" y="-63.5" font-family="Helvetica,sans-Serif" font-size="10.00">examples/websocket/request_listener.cpp</text>
</a>
</g>
</g>
<!-- Node20&#45;&gt;Node21 -->
<g id="edge28" class="edge">
<title>Node20&#45;&gt;Node21</title>
<path fill="none" stroke="midnightblue" d="M1403.5,-101.8C1403.5,-92.91 1403.5,-82.78 1403.5,-75.75"/>
<polygon fill="midnightblue" stroke="midnightblue" points="1400,-102.08 1403.5,-112.08 1407,-102.08 1400,-102.08"/>
</g>
</g>
</svg>
