<?xml version="1.0" encoding="UTF-8" standalone="no"?>
<!DOCTYPE svg PUBLIC "-//W3C//DTD SVG 1.1//EN"
 "http://www.w3.org/Graphics/SVG/1.1/DTD/svg11.dtd">
<!-- Generated by graphviz version 8.1.0 (0)
 -->
<!-- Title: include/roar/url/parser/ipv4.hpp Pages: 1 -->
<svg width="442pt" height="140pt"
 viewBox="0.00 0.00 442.00 140.00" xmlns="http://www.w3.org/2000/svg" xmlns:xlink="http://www.w3.org/1999/xlink">

<svg id="main" version="1.1" xmlns="http://www.w3.org/2000/svg" xmlns:xlink="http://www.w3.org/1999/xlink" xml:space="preserve" onload="init(evt)">
<style type="text/css"><![CDATA[
.node, .edge {opacity: 0.7;}
.node.selected, .edge.selected {opacity: 1;}
.edge:hover path { stroke: red; }
.edge:hover polygon { stroke: red; fill: red; }
]]></style>
<script type="application/ecmascript" xlink:href="svg.min.js"/>
<svg id="graph" class="graph">
<g id="graph0" class="graph" transform="scale(1 1) rotate(0) translate(4 136)">
<title>include/roar/url/parser/ipv4.hpp</title>
<!-- Node1 -->
<g id="Node000001" class="node">
<title>Node1</title>
<g id="a_Node000001"><a xlink:title=" ">
<polygon fill="#999999" stroke="#666666" points="385.12,-132 235.62,-132 235.62,-112 385.12,-112 385.12,-132"/>
<text text-anchor="middle" x="310.38" y="-118.5" font-family="Helvetica,sans-Serif" font-size="10.00">include/roar/url/parser/ipv4.hpp</text>
</a>
</g>
</g>
<!-- Node2 -->
<g id="Node000002" class="node">
<title>Node2</title>
<g id="a_Node000002"><a xlink:href="ipv4_8hpp.html" target="_top" xlink:title=" ">
<polygon fill="white" stroke="#666666" points="292.25,-76 206.5,-76 206.5,-56 292.25,-56 292.25,-76"/>
<text text-anchor="middle" x="249.38" y="-62.5" font-family="Helvetica,sans-Serif" font-size="10.00">roar/url/ipv4.hpp</text>
</a>
</g>
</g>
<!-- Node1&#45;&gt;Node2 -->
<g id="edge1_Node000001_Node000002" class="edge">
<title>Node1&#45;&gt;Node2</title>
<g id="a_edge1_Node000001_Node000002"><a xlink:title=" ">
<path fill="none" stroke="#63b8ff" d="M299.75,-111.59C291,-103.85 278.39,-92.69 267.98,-83.47"/>
<polygon fill="#63b8ff" stroke="#63b8ff" points="270.69,-81.31 260.88,-77.3 266.05,-86.55 270.69,-81.31"/>
</a>
</g>
</g>
<!-- Node7 -->
<g id="Node000007" class="node">
<title>Node7</title>
<g id="a_Node000007"><a xlink:title=" ">
<polygon fill="#e0e0e0" stroke="#999999" points="434,-76 310.75,-76 310.75,-56 434,-56 434,-76"/>
<text text-anchor="middle" x="372.38" y="-62.5" font-family="Helvetica,sans-Serif" font-size="10.00">boost/spirit/home/x3.hpp</text>
</a>
</g>
</g>
<!-- Node1&#45;&gt;Node7 -->
<g id="edge6_Node000001_Node000007" class="edge">
<title>Node1&#45;&gt;Node7</title>
<g id="a_edge6_Node000001_Node000007"><a xlink:title=" ">
<path fill="none" stroke="#63b8ff" d="M321.17,-111.59C330.06,-103.85 342.88,-92.69 353.47,-83.47"/>
<polygon fill="#63b8ff" stroke="#63b8ff" points="355.46,-85.51 360.7,-76.3 350.86,-80.23 355.46,-85.51"/>
</a>
</g>
</g>
<!-- Node3 -->
<g id="Node000003" class="node">
<title>Node3</title>
<g id="a_Node000003"><a xlink:title=" ">
<polygon fill="#e0e0e0" stroke="#999999" points="178.75,-20 0,-20 0,0 178.75,0 178.75,-20"/>
<text text-anchor="middle" x="89.38" y="-6.5" font-family="Helvetica,sans-Serif" font-size="10.00">boost/fusion/include/adapt_struct.hpp</text>
</a>
</g>
</g>
<!-- Node2&#45;&gt;Node3 -->
<g id="edge2_Node000002_Node000003" class="edge">
<title>Node2&#45;&gt;Node3</title>
<g id="a_edge2_Node000002_Node000003"><a xlink:title=" ">
<path fill="none" stroke="#63b8ff" d="M221.51,-55.59C195.51,-46.82 156.51,-33.66 127.61,-23.9"/>
<polygon fill="#63b8ff" stroke="#63b8ff" points="129.06,-20.36 118.46,-20.48 126.82,-26.99 129.06,-20.36"/>
</a>
</g>
</g>
<!-- Node4 -->
<g id="Node000004" class="node">
<title>Node4</title>
<g id="a_Node000004"><a xlink:title=" ">
<polygon fill="#e0e0e0" stroke="#999999" points="242,-20 196.75,-20 196.75,0 242,0 242,-20"/>
<text text-anchor="middle" x="219.38" y="-6.5" font-family="Helvetica,sans-Serif" font-size="10.00">cstdint</text>
</a>
</g>
</g>
<!-- Node2&#45;&gt;Node4 -->
<g id="edge3_Node000002_Node000004" class="edge">
<title>Node2&#45;&gt;Node4</title>
<g id="a_edge3_Node000002_Node000004"><a xlink:title=" ">
<path fill="none" stroke="#63b8ff" d="M244.15,-55.59C240.19,-48.47 234.63,-38.45 229.77,-29.72"/>
<polygon fill="#63b8ff" stroke="#63b8ff" points="232.46,-28.34 224.54,-21.3 226.34,-31.74 232.46,-28.34"/>
</a>
</g>
</g>
<!-- Node5 -->
<g id="Node000005" class="node">
<title>Node5</title>
<g id="a_Node000005"><a xlink:title=" ">
<polygon fill="#e0e0e0" stroke="#999999" points="300.38,-20 260.38,-20 260.38,0 300.38,0 300.38,-20"/>
<text text-anchor="middle" x="280.38" y="-6.5" font-family="Helvetica,sans-Serif" font-size="10.00">string</text>
</a>
</g>
</g>
<!-- Node2&#45;&gt;Node5 -->
<g id="edge4_Node000002_Node000005" class="edge">
<title>Node2&#45;&gt;Node5</title>
<g id="a_edge4_Node000002_Node000005"><a xlink:title=" ">
<path fill="none" stroke="#63b8ff" d="M254.77,-55.59C258.86,-48.47 264.62,-38.45 269.63,-29.72"/>
<polygon fill="#63b8ff" stroke="#63b8ff" points="273.09,-31.71 275.04,-21.3 267.02,-28.23 273.09,-31.71"/>
</a>
</g>
</g>
<!-- Node6 -->
<g id="Node000006" class="node">
<title>Node6</title>
<g id="a_Node000006"><a xlink:title=" ">
<polygon fill="#e0e0e0" stroke="#999999" points="361.88,-20 318.88,-20 318.88,0 361.88,0 361.88,-20"/>
<text text-anchor="middle" x="340.38" y="-6.5" font-family="Helvetica,sans-Serif" font-size="10.00">vector</text>
</a>
</g>
</g>
<!-- Node2&#45;&gt;Node6 -->
<g id="edge5_Node000002_Node000006" class="edge">
<title>Node2&#45;&gt;Node6</title>
<g id="a_edge5_Node000002_Node000006"><a xlink:title=" ">
<path fill="none" stroke="#63b8ff" d="M265.23,-55.59C278.97,-47.44 299.12,-35.48 315.09,-26"/>
<polygon fill="#63b8ff" stroke="#63b8ff" points="316.59,-28.59 323.4,-20.48 313.01,-22.57 316.59,-28.59"/>
</a>
</g>
</g>
</g>
</svg>
</svg>

<style type='text/css'>
<![CDATA[
[data-mouse-over-selected='false'] { opacity: 0.7; }
[data-mouse-over-selected='true']  { opacity: 1.0; }
]]>
</style>
<script type="application/ecmascript"><![CDATA[
document.addEventListener('DOMContentLoaded', (event) => {
  highlightEdges();
  highlightAdjacentNodes();
});
]]></script>
</svg>
