<?xml version="1.0" encoding="UTF-8" standalone="no"?>
<!DOCTYPE svg PUBLIC "-//W3C//DTD SVG 1.1//EN"
 "http://www.w3.org/Graphics/SVG/1.1/DTD/svg11.dtd">
<!-- Generated by graphviz version 2.44.1 (20211215.1903)
 -->
<!-- Title: include/roar/detail/pimpl_special_functions.hpp Pages: 1 -->
<!--zoomable 308 -->
<svg id="main" version="1.1" xmlns="http://www.w3.org/2000/svg" xmlns:xlink="http://www.w3.org/1999/xlink" xml:space="preserve" onload="init(evt)">
<style type="text/css"><![CDATA[
.edge:hover path { stroke: red; }
.edge:hover polygon { stroke: red; fill: red; }
]]></style>
<script type="text/javascript"><![CDATA[
var edges = document.getElementsByTagName('g');
if (edges && edges.length) {
  for (var i=0;i<edges.length;i++) {
    if (edges[i].id.substr(0,4)=='edge') {
      edges[i].setAttribute('class','edge');
    }
  }
}
]]></script>
        <defs>
                <circle id="rim" cx="0" cy="0" r="7"/>
                <circle id="rim2" cx="0" cy="0" r="3.5"/>
                <g id="zoomPlus">
                        <use xlink:href="#rim" fill="#404040">
                                <set attributeName="fill" to="#808080" begin="zoomplus.mouseover" end="zoomplus.mouseout"/>
                        </use>
                        <path d="M-4,0h8M0,-4v8" fill="none" stroke="white" stroke-width="1.5" pointer-events="none"/>
                </g>
                <g id="zoomMin">
                        <use xlink:href="#rim" fill="#404040">
                                <set attributeName="fill" to="#808080" begin="zoomminus.mouseover" end="zoomminus.mouseout"/>
                        </use>
                        <path d="M-4,0h8" fill="none" stroke="white" stroke-width="1.5" pointer-events="none"/>
                </g>
                <g id="dirArrow">
                        <path fill="none" stroke="white" stroke-width="1.5" d="M0,-3.0v7 M-2.5,-0.5L0,-3.0L2.5,-0.5"/>
                </g>
               <g id="resetDef">
                       <use xlink:href="#rim2" fill="#404040">
                               <set attributeName="fill" to="#808080" begin="reset.mouseover" end="reset.mouseout"/>
                       </use>
               </g>
        </defs>

<script type="text/javascript">
var viewWidth = 1424;
var viewHeight = 308;
var sectionId = 'dynsection-0';
</script>
<script xlink:href="svgpan.js"/>
<svg id="graph" class="graph">
<g id="viewport">
<title>include/roar/detail/pimpl_special_functions.hpp</title>
<!-- Node1 -->
<g id="node1" class="node">
<title>Node1</title>
<g id="a_node1"><a xlink:title=" ">
<polygon fill="#bfbfbf" stroke="black" points="848.5,-280.5 848.5,-299.5 1067.5,-299.5 1067.5,-280.5 848.5,-280.5"/>
<text text-anchor="middle" x="958" y="-287.5" font-family="Helvetica,sans-Serif" font-size="10.00">include/roar/detail/pimpl_special_functions.hpp</text>
</a>
</g>
</g>
<!-- Node2 -->
<g id="node2" class="node">
<title>Node2</title>
<g id="a_node2"><a xlink:href="route_8hpp.html" target="_top" xlink:title=" ">
<polygon fill="none" stroke="black" points="531.5,-168.5 531.5,-187.5 674.5,-187.5 674.5,-168.5 531.5,-168.5"/>
<text text-anchor="middle" x="603" y="-175.5" font-family="Helvetica,sans-Serif" font-size="10.00">include/roar/routing/route.hpp</text>
</a>
</g>
</g>
<!-- Node1&#45;&gt;Node2 -->
<g id="edge1" class="edge">
<title>Node1&#45;&gt;Node2</title>
<path fill="none" stroke="midnightblue" d="M919.71,-277.58C889.59,-268.56 846.58,-255.6 809,-244 744.5,-224.09 668.86,-200.04 629.63,-187.52"/>
<polygon fill="midnightblue" stroke="midnightblue" points="918.82,-280.96 929.4,-280.48 920.83,-274.26 918.82,-280.96"/>
</g>
<!-- Node5 -->
<g id="node5" class="node">
<title>Node5</title>
<g id="a_node5"><a xlink:href="router_8hpp.html" target="_top" xlink:title=" ">
<polygon fill="none" stroke="black" points="1096,-168.5 1096,-187.5 1242,-187.5 1242,-168.5 1096,-168.5"/>
<text text-anchor="middle" x="1169" y="-175.5" font-family="Helvetica,sans-Serif" font-size="10.00">include/roar/routing/router.hpp</text>
</a>
</g>
</g>
<!-- Node1&#45;&gt;Node5 -->
<g id="edge4" class="edge">
<title>Node1&#45;&gt;Node5</title>
<path fill="none" stroke="midnightblue" d="M997.75,-277.43C1022.2,-269.57 1053.77,-258.06 1080,-244 1111.03,-227.37 1143.43,-201.06 1159.2,-187.59"/>
<polygon fill="midnightblue" stroke="midnightblue" points="996.57,-274.14 988.08,-280.47 998.67,-280.81 996.57,-274.14"/>
</g>
<!-- Node8 -->
<g id="node8" class="node">
<title>Node8</title>
<g id="a_node8"><a xlink:href="factory_8hpp.html" target="_top" xlink:title=" ">
<polygon fill="none" stroke="black" points="1260.5,-168.5 1260.5,-187.5 1415.5,-187.5 1415.5,-168.5 1260.5,-168.5"/>
<text text-anchor="middle" x="1338" y="-175.5" font-family="Helvetica,sans-Serif" font-size="10.00">include/roar/session/factory.hpp</text>
</a>
</g>
</g>
<!-- Node1&#45;&gt;Node8 -->
<g id="edge8" class="edge">
<title>Node1&#45;&gt;Node8</title>
<path fill="none" stroke="midnightblue" d="M997.22,-277.65C1073.59,-255.54 1240.7,-207.17 1308.52,-187.53"/>
<polygon fill="midnightblue" stroke="midnightblue" points="996.13,-274.32 987.5,-280.46 998.08,-281.04 996.13,-274.32"/>
</g>
<!-- Node10 -->
<g id="node10" class="node">
<title>Node10</title>
<g id="a_node10"><a xlink:href="session_8hpp.html" target="_top" xlink:title=" ">
<polygon fill="none" stroke="black" points="692.5,-168.5 692.5,-187.5 851.5,-187.5 851.5,-168.5 692.5,-168.5"/>
<text text-anchor="middle" x="772" y="-175.5" font-family="Helvetica,sans-Serif" font-size="10.00">include/roar/session/session.hpp</text>
</a>
</g>
</g>
<!-- Node1&#45;&gt;Node10 -->
<g id="edge11" class="edge">
<title>Node1&#45;&gt;Node10</title>
<path fill="none" stroke="midnightblue" d="M913.11,-277.62C889.05,-270.28 859.59,-259.23 836,-244 811.52,-228.2 789.17,-201.53 778.53,-187.78"/>
<polygon fill="midnightblue" stroke="midnightblue" points="912.14,-280.98 922.72,-280.44 914.11,-274.27 912.14,-280.98"/>
</g>
<!-- Node21 -->
<g id="node21" class="node">
<title>Node21</title>
<g id="a_node21"><a xlink:href="websocket__session_8hpp.html" target="_top" xlink:title=" ">
<polygon fill="none" stroke="black" points="845.5,-224.5 845.5,-243.5 1070.5,-243.5 1070.5,-224.5 845.5,-224.5"/>
<text text-anchor="middle" x="958" y="-231.5" font-family="Helvetica,sans-Serif" font-size="10.00">include/roar/websocket/websocket_session.hpp</text>
</a>
</g>
</g>
<!-- Node1&#45;&gt;Node21 -->
<g id="edge34" class="edge">
<title>Node1&#45;&gt;Node21</title>
<path fill="none" stroke="midnightblue" d="M958,-269.8C958,-260.91 958,-250.78 958,-243.75"/>
<polygon fill="midnightblue" stroke="midnightblue" points="954.5,-270.08 958,-280.08 961.5,-270.08 954.5,-270.08"/>
</g>
<!-- Node3 -->
<g id="node3" class="node">
<title>Node3</title>
<g id="a_node3"><a xlink:href="route_8cpp.html" target="_top" xlink:title=" ">
<polygon fill="none" stroke="black" points="405.5,-112.5 405.5,-131.5 530.5,-131.5 530.5,-112.5 405.5,-112.5"/>
<text text-anchor="middle" x="468" y="-119.5" font-family="Helvetica,sans-Serif" font-size="10.00">src/roar/routing/route.cpp</text>
</a>
</g>
</g>
<!-- Node2&#45;&gt;Node3 -->
<g id="edge2" class="edge">
<title>Node2&#45;&gt;Node3</title>
<path fill="none" stroke="midnightblue" d="M572.09,-164.64C546.76,-154.5 511.57,-140.43 489.29,-131.52"/>
<polygon fill="midnightblue" stroke="midnightblue" points="571.02,-167.98 581.61,-168.44 573.62,-161.48 571.02,-167.98"/>
</g>
<!-- Node4 -->
<g id="node4" class="node">
<title>Node4</title>
<g id="a_node4"><a xlink:href="router_8cpp.html" target="_top" xlink:title=" ">
<polygon fill="none" stroke="black" points="795,-112.5 795,-131.5 923,-131.5 923,-112.5 795,-112.5"/>
<text text-anchor="middle" x="859" y="-119.5" font-family="Helvetica,sans-Serif" font-size="10.00">src/roar/routing/router.cpp</text>
</a>
</g>
</g>
<!-- Node2&#45;&gt;Node4 -->
<g id="edge3" class="edge">
<title>Node2&#45;&gt;Node4</title>
<path fill="none" stroke="midnightblue" d="M653.51,-166.35C701.89,-156.14 773.95,-140.94 818.63,-131.52"/>
<polygon fill="midnightblue" stroke="midnightblue" points="652.63,-162.95 643.56,-168.44 654.07,-169.8 652.63,-162.95"/>
</g>
<!-- Node5&#45;&gt;Node4 -->
<g id="edge5" class="edge">
<title>Node5&#45;&gt;Node4</title>
<path fill="none" stroke="midnightblue" d="M1109.66,-166.66C1051.08,-156.46 962.55,-141.04 907.89,-131.52"/>
<polygon fill="midnightblue" stroke="midnightblue" points="1109.43,-170.18 1119.88,-168.44 1110.63,-163.28 1109.43,-170.18"/>
</g>
<!-- Node6 -->
<g id="node6" class="node">
<title>Node6</title>
<g id="a_node6"><a xlink:href="server_8cpp.html" target="_top" xlink:title=" ">
<polygon fill="none" stroke="black" points="1145,-0.5 1145,-19.5 1243,-19.5 1243,-0.5 1145,-0.5"/>
<text text-anchor="middle" x="1194" y="-7.5" font-family="Helvetica,sans-Serif" font-size="10.00">src/roar/server.cpp</text>
</a>
</g>
</g>
<!-- Node5&#45;&gt;Node6 -->
<g id="edge6" class="edge">
<title>Node5&#45;&gt;Node6</title>
<path fill="none" stroke="midnightblue" d="M1238.37,-165.29C1256.89,-158.66 1274.83,-148.27 1286,-132 1315.88,-88.49 1242.92,-39.11 1209.57,-19.59"/>
<polygon fill="midnightblue" stroke="midnightblue" points="1237.11,-162.02 1228.68,-168.43 1239.27,-168.68 1237.11,-162.02"/>
</g>
<!-- Node7 -->
<g id="node7" class="node">
<title>Node7</title>
<g id="a_node7"><a xlink:href="session_8cpp.html" target="_top" xlink:title=" ">
<polygon fill="none" stroke="black" points="979,-112.5 979,-131.5 1121,-131.5 1121,-112.5 979,-112.5"/>
<text text-anchor="middle" x="1050" y="-119.5" font-family="Helvetica,sans-Serif" font-size="10.00">src/roar/session/session.cpp</text>
</a>
</g>
</g>
<!-- Node5&#45;&gt;Node7 -->
<g id="edge7" class="edge">
<title>Node5&#45;&gt;Node7</title>
<path fill="none" stroke="midnightblue" d="M1140.86,-164.23C1118.6,-154.13 1088.14,-140.31 1068.77,-131.52"/>
<polygon fill="midnightblue" stroke="midnightblue" points="1139.59,-167.5 1150.14,-168.44 1142.48,-161.12 1139.59,-167.5"/>
</g>
<!-- Node8&#45;&gt;Node6 -->
<g id="edge9" class="edge">
<title>Node8&#45;&gt;Node6</title>
<path fill="none" stroke="midnightblue" d="M1333.68,-158.27C1326.87,-132.4 1311.39,-85.59 1283,-56 1266.22,-38.51 1241.17,-26.69 1221.92,-19.57"/>
<polygon fill="midnightblue" stroke="midnightblue" points="1330.35,-159.39 1336.15,-168.26 1337.14,-157.71 1330.35,-159.39"/>
</g>
<!-- Node9 -->
<g id="node9" class="node">
<title>Node9</title>
<g id="a_node9"><a xlink:href="factory_8cpp.html" target="_top" xlink:title=" ">
<polygon fill="none" stroke="black" points="1139.5,-112.5 1139.5,-131.5 1276.5,-131.5 1276.5,-112.5 1139.5,-112.5"/>
<text text-anchor="middle" x="1208" y="-119.5" font-family="Helvetica,sans-Serif" font-size="10.00">src/roar/session/factory.cpp</text>
</a>
</g>
</g>
<!-- Node8&#45;&gt;Node9 -->
<g id="edge10" class="edge">
<title>Node8&#45;&gt;Node9</title>
<path fill="none" stroke="midnightblue" d="M1307.91,-164.5C1283.54,-154.38 1249.86,-140.39 1228.5,-131.52"/>
<polygon fill="midnightblue" stroke="midnightblue" points="1306.82,-167.84 1317.4,-168.44 1309.51,-161.38 1306.82,-167.84"/>
</g>
<!-- Node10&#45;&gt;Node3 -->
<g id="edge29" class="edge">
<title>Node10&#45;&gt;Node3</title>
<path fill="none" stroke="midnightblue" d="M713.81,-166.66C656.36,-156.46 569.55,-141.04 515.94,-131.52"/>
<polygon fill="midnightblue" stroke="midnightblue" points="713.37,-170.14 723.83,-168.44 714.6,-163.25 713.37,-170.14"/>
</g>
<!-- Node10&#45;&gt;Node4 -->
<g id="edge30" class="edge">
<title>Node10&#45;&gt;Node4</title>
<path fill="none" stroke="midnightblue" d="M794.72,-162.9C810.67,-153 831.5,-140.07 845.06,-131.65"/>
<polygon fill="midnightblue" stroke="midnightblue" points="792.63,-160.08 785.98,-168.32 796.32,-166.02 792.63,-160.08"/>
</g>
<!-- Node10&#45;&gt;Node6 -->
<g id="edge31" class="edge">
<title>Node10&#45;&gt;Node6</title>
<path fill="none" stroke="midnightblue" d="M820.94,-166.07C853.08,-158.21 895.72,-146.46 932,-132 949.73,-124.93 952.85,-120.37 970,-112 1044.37,-75.7 1134.66,-36.42 1174.04,-19.52"/>
<polygon fill="midnightblue" stroke="midnightblue" points="819.8,-162.75 810.9,-168.49 821.44,-169.55 819.8,-162.75"/>
</g>
<!-- Node10&#45;&gt;Node7 -->
<g id="edge33" class="edge">
<title>Node10&#45;&gt;Node7</title>
<path fill="none" stroke="midnightblue" d="M826.19,-166.47C878.73,-156.27 957.44,-140.98 1006.16,-131.52"/>
<polygon fill="midnightblue" stroke="midnightblue" points="825.2,-163.1 816.05,-168.44 826.53,-169.97 825.2,-163.1"/>
</g>
<!-- Node10&#45;&gt;Node9 -->
<g id="edge32" class="edge">
<title>Node10&#45;&gt;Node9</title>
<path fill="none" stroke="midnightblue" d="M851.14,-167.2C933.45,-157 1061,-141.21 1139.24,-131.52"/>
<polygon fill="midnightblue" stroke="midnightblue" points="850.58,-163.74 841.09,-168.44 851.44,-170.69 850.58,-163.74"/>
</g>
<!-- Node11 -->
<g id="node11" class="node">
<title>Node11</title>
<g id="a_node11"><a xlink:href="include_2roar_2routing_2request__listener_8hpp.html" target="_top" xlink:title=" ">
<polygon fill="none" stroke="black" points="549,-112.5 549,-131.5 739,-131.5 739,-112.5 549,-112.5"/>
<text text-anchor="middle" x="644" y="-119.5" font-family="Helvetica,sans-Serif" font-size="10.00">include/roar/routing/request_listener.hpp</text>
</a>
</g>
</g>
<!-- Node10&#45;&gt;Node11 -->
<g id="edge12" class="edge">
<title>Node10&#45;&gt;Node11</title>
<path fill="none" stroke="midnightblue" d="M742.38,-164.5C718.38,-154.38 685.22,-140.39 664.19,-131.52"/>
<polygon fill="midnightblue" stroke="midnightblue" points="741.14,-167.78 751.72,-168.44 743.86,-161.33 741.14,-167.78"/>
</g>
<!-- Node19 -->
<g id="node19" class="node">
<title>Node19</title>
<g id="a_node19"><a xlink:href="server_8hpp.html" target="_top" xlink:title=" ">
<polygon fill="none" stroke="black" points="807,-56.5 807,-75.5 923,-75.5 923,-56.5 807,-56.5"/>
<text text-anchor="middle" x="865" y="-63.5" font-family="Helvetica,sans-Serif" font-size="10.00">include/roar/server.hpp</text>
</a>
</g>
</g>
<!-- Node10&#45;&gt;Node19 -->
<g id="edge28" class="edge">
<title>Node10&#45;&gt;Node19</title>
<path fill="none" stroke="midnightblue" d="M772.09,-157.73C773.05,-143.82 776.3,-125.24 786,-112 798.97,-94.31 821.15,-82.56 838.71,-75.52"/>
<polygon fill="midnightblue" stroke="midnightblue" points="768.58,-157.98 771.72,-168.09 775.57,-158.22 768.58,-157.98"/>
</g>
<!-- Node12 -->
<g id="node12" class="node">
<title>Node12</title>
<g id="a_node12"><a xlink:href="request__listener_2main_8cpp.html" target="_top" xlink:title=" ">
<polygon fill="none" stroke="black" points="308.5,-56.5 308.5,-75.5 481.5,-75.5 481.5,-56.5 308.5,-56.5"/>
<text text-anchor="middle" x="395" y="-63.5" font-family="Helvetica,sans-Serif" font-size="10.00">examples/request_listener/main.cpp</text>
</a>
</g>
</g>
<!-- Node11&#45;&gt;Node12 -->
<g id="edge13" class="edge">
<title>Node11&#45;&gt;Node12</title>
<path fill="none" stroke="midnightblue" d="M594.58,-110.28C547.52,-100.08 477.63,-84.92 434.27,-75.52"/>
<polygon fill="midnightblue" stroke="midnightblue" points="594.03,-113.74 604.55,-112.44 595.51,-106.9 594.03,-113.74"/>
</g>
<!-- Node13 -->
<g id="node13" class="node">
<title>Node13</title>
<g id="a_node13"><a xlink:href="simple__server_2main_8cpp.html" target="_top" xlink:title=" ">
<polygon fill="none" stroke="black" points="645.5,-0.5 645.5,-19.5 810.5,-19.5 810.5,-0.5 645.5,-0.5"/>
<text text-anchor="middle" x="728" y="-7.5" font-family="Helvetica,sans-Serif" font-size="10.00">examples/simple_server/main.cpp</text>
</a>
</g>
</g>
<!-- Node11&#45;&gt;Node13 -->
<g id="edge14" class="edge">
<title>Node11&#45;&gt;Node13</title>
<path fill="none" stroke="midnightblue" d="M680.15,-108.4C695.24,-101.26 711.45,-90.75 721,-76 732.23,-58.66 731.03,-33.12 729.4,-19.81"/>
<polygon fill="midnightblue" stroke="midnightblue" points="678.73,-105.2 670.97,-112.41 681.54,-111.61 678.73,-105.2"/>
</g>
<!-- Node14 -->
<g id="node14" class="node">
<title>Node14</title>
<g id="a_node14"><a xlink:href="examples_2simple__server_2request__listener_8hpp.html" target="_top" xlink:title=" ">
<polygon fill="none" stroke="black" points="499.5,-56.5 499.5,-75.5 712.5,-75.5 712.5,-56.5 499.5,-56.5"/>
<text text-anchor="middle" x="606" y="-63.5" font-family="Helvetica,sans-Serif" font-size="10.00">examples/simple_server/request_listener.hpp</text>
</a>
</g>
</g>
<!-- Node11&#45;&gt;Node14 -->
<g id="edge15" class="edge">
<title>Node11&#45;&gt;Node14</title>
<path fill="none" stroke="midnightblue" d="M631.94,-103.86C625.36,-94.5 617.49,-83.33 612.16,-75.75"/>
<polygon fill="midnightblue" stroke="midnightblue" points="629.11,-105.92 637.73,-112.08 634.83,-101.89 629.11,-105.92"/>
</g>
<!-- Node16 -->
<g id="node16" class="node">
<title>Node16</title>
<g id="a_node16"><a xlink:href="websocket_2main_8cpp.html" target="_top" xlink:title=" ">
<polygon fill="none" stroke="black" points="218,-0.5 218,-19.5 370,-19.5 370,-0.5 218,-0.5"/>
<text text-anchor="middle" x="294" y="-7.5" font-family="Helvetica,sans-Serif" font-size="10.00">examples/websocket/main.cpp</text>
</a>
</g>
</g>
<!-- Node11&#45;&gt;Node16 -->
<g id="edge18" class="edge">
<title>Node11&#45;&gt;Node16</title>
<path fill="none" stroke="midnightblue" d="M547.61,-111.43C448.55,-101.14 307.58,-85.04 299,-76 284.67,-60.89 288.36,-33.92 291.56,-19.95"/>
<polygon fill="midnightblue" stroke="midnightblue" points="547.35,-114.92 557.66,-112.46 548.07,-107.95 547.35,-114.92"/>
</g>
<!-- Node17 -->
<g id="node17" class="node">
<title>Node17</title>
<g id="a_node17"><a xlink:href="examples_2websocket_2request__listener_8hpp.html" target="_top" xlink:title=" ">
<polygon fill="none" stroke="black" points="52,-56.5 52,-75.5 252,-75.5 252,-56.5 52,-56.5"/>
<text text-anchor="middle" x="152" y="-63.5" font-family="Helvetica,sans-Serif" font-size="10.00">examples/websocket/request_listener.hpp</text>
</a>
</g>
</g>
<!-- Node11&#45;&gt;Node17 -->
<g id="edge19" class="edge">
<title>Node11&#45;&gt;Node17</title>
<path fill="none" stroke="midnightblue" d="M556.1,-111.35C463.3,-101.17 318.43,-85.27 229.69,-75.53"/>
<polygon fill="midnightblue" stroke="midnightblue" points="555.99,-114.86 566.31,-112.47 556.75,-107.9 555.99,-114.86"/>
</g>
<!-- Node11&#45;&gt;Node19 -->
<g id="edge22" class="edge">
<title>Node11&#45;&gt;Node19</title>
<path fill="none" stroke="midnightblue" d="M688.92,-110.02C730.67,-99.82 791.98,-84.84 830.15,-75.52"/>
<polygon fill="midnightblue" stroke="midnightblue" points="687.9,-106.67 679.02,-112.44 689.56,-113.47 687.9,-106.67"/>
</g>
<!-- Node20 -->
<g id="node20" class="node">
<title>Node20</title>
<g id="a_node20"><a xlink:href="src_2roar_2routing_2request__listener_8cpp.html" target="_top" xlink:title=" ">
<polygon fill="none" stroke="black" points="828.5,-0.5 828.5,-19.5 1001.5,-19.5 1001.5,-0.5 828.5,-0.5"/>
<text text-anchor="middle" x="915" y="-7.5" font-family="Helvetica,sans-Serif" font-size="10.00">src/roar/routing/request_listener.cpp</text>
</a>
</g>
</g>
<!-- Node11&#45;&gt;Node20 -->
<g id="edge27" class="edge">
<title>Node11&#45;&gt;Node20</title>
<path fill="none" stroke="midnightblue" d="M673.16,-108.36C704.05,-95.05 754.29,-73.63 798,-56 830.5,-42.9 868.39,-28.48 892.05,-19.58"/>
<polygon fill="midnightblue" stroke="midnightblue" points="671.64,-105.2 663.85,-112.38 674.42,-111.63 671.64,-105.2"/>
</g>
<!-- Node14&#45;&gt;Node13 -->
<g id="edge16" class="edge">
<title>Node14&#45;&gt;Node13</title>
<path fill="none" stroke="midnightblue" d="M634.54,-52.37C657.39,-42.26 688.81,-28.35 708.76,-19.52"/>
<polygon fill="midnightblue" stroke="midnightblue" points="633.06,-49.2 625.33,-56.44 635.89,-55.6 633.06,-49.2"/>
</g>
<!-- Node15 -->
<g id="node15" class="node">
<title>Node15</title>
<g id="a_node15"><a xlink:href="examples_2simple__server_2request__listener_8cpp.html" target="_top" xlink:title=" ">
<polygon fill="none" stroke="black" points="414.5,-0.5 414.5,-19.5 627.5,-19.5 627.5,-0.5 414.5,-0.5"/>
<text text-anchor="middle" x="521" y="-7.5" font-family="Helvetica,sans-Serif" font-size="10.00">examples/simple_server/request_listener.cpp</text>
</a>
</g>
</g>
<!-- Node14&#45;&gt;Node15 -->
<g id="edge17" class="edge">
<title>Node14&#45;&gt;Node15</title>
<path fill="none" stroke="midnightblue" d="M583.81,-50.9C568.22,-41 547.87,-28.07 534.62,-19.65"/>
<polygon fill="midnightblue" stroke="midnightblue" points="582.03,-53.92 592.34,-56.32 585.78,-48.01 582.03,-53.92"/>
</g>
<!-- Node17&#45;&gt;Node16 -->
<g id="edge20" class="edge">
<title>Node17&#45;&gt;Node16</title>
<path fill="none" stroke="midnightblue" d="M184.16,-52.77C210.83,-42.63 248.07,-28.47 271.6,-19.52"/>
<polygon fill="midnightblue" stroke="midnightblue" points="182.6,-49.62 174.5,-56.44 185.09,-56.16 182.6,-49.62"/>
</g>
<!-- Node18 -->
<g id="node18" class="node">
<title>Node18</title>
<g id="a_node18"><a xlink:href="examples_2websocket_2request__listener_8cpp.html" target="_top" xlink:title=" ">
<polygon fill="none" stroke="black" points="0,-0.5 0,-19.5 200,-19.5 200,-0.5 0,-0.5"/>
<text text-anchor="middle" x="100" y="-7.5" font-family="Helvetica,sans-Serif" font-size="10.00">examples/websocket/request_listener.cpp</text>
</a>
</g>
</g>
<!-- Node17&#45;&gt;Node18 -->
<g id="edge21" class="edge">
<title>Node17&#45;&gt;Node18</title>
<path fill="none" stroke="midnightblue" d="M136.32,-48.72C127.16,-39.2 115.95,-27.56 108.43,-19.75"/>
<polygon fill="midnightblue" stroke="midnightblue" points="133.96,-51.31 143.41,-56.08 139,-46.45 133.96,-51.31"/>
</g>
<!-- Node19&#45;&gt;Node6 -->
<g id="edge26" class="edge">
<title>Node19&#45;&gt;Node6</title>
<path fill="none" stroke="midnightblue" d="M927.35,-54.77C990.49,-44.4 1086.85,-28.59 1144.8,-19.08"/>
<polygon fill="midnightblue" stroke="midnightblue" points="926.43,-51.37 917.13,-56.44 927.57,-58.28 926.43,-51.37"/>
</g>
<!-- Node19&#45;&gt;Node13 -->
<g id="edge23" class="edge">
<title>Node19&#45;&gt;Node13</title>
<path fill="none" stroke="midnightblue" d="M833.98,-52.77C808.24,-42.63 772.31,-28.47 749.61,-19.52"/>
<polygon fill="midnightblue" stroke="midnightblue" points="832.71,-56.03 843.29,-56.44 835.27,-49.52 832.71,-56.03"/>
</g>
<!-- Node19&#45;&gt;Node16 -->
<g id="edge24" class="edge">
<title>Node19&#45;&gt;Node16</title>
<path fill="none" stroke="midnightblue" d="M796.79,-58.55C689.62,-48.41 482.5,-28.83 370.45,-18.23"/>
<polygon fill="midnightblue" stroke="midnightblue" points="796.56,-62.04 806.84,-59.5 797.22,-55.07 796.56,-62.04"/>
</g>
<!-- Node19&#45;&gt;Node20 -->
<g id="edge25" class="edge">
<title>Node19&#45;&gt;Node20</title>
<path fill="none" stroke="midnightblue" d="M880.08,-48.72C888.89,-39.2 899.67,-27.56 906.9,-19.75"/>
<polygon fill="midnightblue" stroke="midnightblue" points="877.48,-46.37 873.26,-56.08 882.62,-51.12 877.48,-46.37"/>
</g>
<!-- Node21&#45;&gt;Node10 -->
<g id="edge35" class="edge">
<title>Node21&#45;&gt;Node10</title>
<path fill="none" stroke="midnightblue" d="M918.62,-221.57C883.53,-211.38 832.98,-196.7 801.33,-187.52"/>
<polygon fill="midnightblue" stroke="midnightblue" points="917.95,-225.02 928.53,-224.44 919.9,-218.29 917.95,-225.02"/>
</g>
<!-- Node22 -->
<g id="node22" class="node">
<title>Node22</title>
<g id="a_node22"><a xlink:href="websocket__session_8cpp.html" target="_top" xlink:title=" ">
<polygon fill="none" stroke="black" points="870,-168.5 870,-187.5 1078,-187.5 1078,-168.5 870,-168.5"/>
<text text-anchor="middle" x="974" y="-175.5" font-family="Helvetica,sans-Serif" font-size="10.00">src/roar/websocket/websocket_session.cpp</text>
</a>
</g>
</g>
<!-- Node21&#45;&gt;Node22 -->
<g id="edge36" class="edge">
<title>Node21&#45;&gt;Node22</title>
<path fill="none" stroke="midnightblue" d="M963.51,-214.4C966.19,-205.36 969.28,-194.94 971.41,-187.75"/>
<polygon fill="midnightblue" stroke="midnightblue" points="960.13,-213.5 960.64,-224.08 966.84,-215.49 960.13,-213.5"/>
</g>
</g>
</svg>
        <g id="navigator" transform="translate(0 0)" fill="#404254">
                <rect fill="#f2f5e9" fill-opacity="0.5" stroke="#606060" stroke-width=".5" x="0" y="0" width="60" height="60"/>
                <use id="zoomplus" xlink:href="#zoomPlus" x="17" y="9" onmousedown="handleZoom(evt,'in')"/>
                <use id="zoomminus" xlink:href="#zoomMin" x="42" y="9" onmousedown="handleZoom(evt,'out')"/>
                <use id="reset" xlink:href="#resetDef" x="30" y="36" onmousedown="handleReset()"/>
                <g id="arrowUp" xlink:href="#dirArrow" transform="translate(30 24)" onmousedown="handlePan(0,-1)">
                  <use xlink:href="#rim" fill="#404040">
                        <set attributeName="fill" to="#808080" begin="arrowUp.mouseover" end="arrowUp.mouseout"/>
                  </use>
                  <path fill="none" stroke="white" stroke-width="1.5" d="M0,-3.0v7 M-2.5,-0.5L0,-3.0L2.5,-0.5"/>
                </g>
                <g id="arrowRight" xlink:href="#dirArrow" transform="rotate(90) translate(36 -43)" onmousedown="handlePan(1,0)">
                  <use xlink:href="#rim" fill="#404040">
                        <set attributeName="fill" to="#808080" begin="arrowRight.mouseover" end="arrowRight.mouseout"/>
                  </use>
                  <path fill="none" stroke="white" stroke-width="1.5" d="M0,-3.0v7 M-2.5,-0.5L0,-3.0L2.5,-0.5"/>
                </g>
                <g id="arrowDown" xlink:href="#dirArrow" transform="rotate(180) translate(-30 -48)" onmousedown="handlePan(0,1)">
                  <use xlink:href="#rim" fill="#404040">
                        <set attributeName="fill" to="#808080" begin="arrowDown.mouseover" end="arrowDown.mouseout"/>
                  </use>
                  <path fill="none" stroke="white" stroke-width="1.5" d="M0,-3.0v7 M-2.5,-0.5L0,-3.0L2.5,-0.5"/>
                </g>
                <g id="arrowLeft" xlink:href="#dirArrow" transform="rotate(270) translate(-36 17)" onmousedown="handlePan(-1,0)">
                  <use xlink:href="#rim" fill="#404040">
                        <set attributeName="fill" to="#808080" begin="arrowLeft.mouseover" end="arrowLeft.mouseout"/>
                  </use>
                  <path fill="none" stroke="white" stroke-width="1.5" d="M0,-3.0v7 M-2.5,-0.5L0,-3.0L2.5,-0.5"/>
                </g>
        </g>
        <svg viewBox="0 0 15 15" width="100%" height="30px" preserveAspectRatio="xMaxYMin meet">
         <g id="arrow_out" transform="scale(0.3 0.3)">
          <a xlink:href="pimpl__special__functions_8hpp__dep__incl_org.svg" target="_base">
           <rect id="button" ry="5" rx="5" y="6" x="6" height="38" width="38"
                fill="#f2f5e9" fill-opacity="0.5" stroke="#606060" stroke-width="1.0"/>
           <path id="arrow"
             d="M 11.500037,31.436501 C 11.940474,20.09759 22.043105,11.32322 32.158766,21.979434 L 37.068811,17.246167 C 37.068811,17.246167 37.088388,32 37.088388,32 L 22.160133,31.978069 C 22.160133,31.978069 26.997745,27.140456 26.997745,27.140456 C 18.528582,18.264221 13.291696,25.230495 11.500037,31.436501 z"
             style="fill:#404040;"/>
          </a>
         </g>
        </svg>
</svg>
