<?xml version="1.0" encoding="UTF-8" standalone="no"?>
<!DOCTYPE svg PUBLIC "-//W3C//DTD SVG 1.1//EN"
 "http://www.w3.org/Graphics/SVG/1.1/DTD/svg11.dtd">
<!-- Generated by graphviz version 2.44.1 (20211215.1903)
 -->
<!-- Title: include/roar/detail/pimpl_special_functions.hpp Pages: 1 -->
<svg width="1987pt" height="308pt"
 viewBox="0.00 0.00 1986.78 308.00" xmlns="http://www.w3.org/2000/svg" xmlns:xlink="http://www.w3.org/1999/xlink">
<g id="graph0" class="graph" transform="scale(1 1) rotate(0) translate(4 304)">
<title>include/roar/detail/pimpl_special_functions.hpp</title>
<!-- Node1 -->
<g id="node1" class="node">
<title>Node1</title>
<g id="a_node1"><a xlink:title=" ">
<polygon fill="#bfbfbf" stroke="black" points="435.28,-280.5 435.28,-299.5 654.28,-299.5 654.28,-280.5 435.28,-280.5"/>
<text text-anchor="middle" x="544.78" y="-287.5" font-family="Helvetica,sans-Serif" font-size="10.00">include/roar/detail/pimpl_special_functions.hpp</text>
</a>
</g>
</g>
<!-- Node2 -->
<g id="node2" class="node">
<title>Node2</title>
<g id="a_node2"><a xlink:href="route_8hpp.html" target="_top" xlink:title=" ">
<polygon fill="none" stroke="black" points="253.28,-168.5 253.28,-187.5 396.28,-187.5 396.28,-168.5 253.28,-168.5"/>
<text text-anchor="middle" x="324.78" y="-175.5" font-family="Helvetica,sans-Serif" font-size="10.00">include/roar/routing/route.hpp</text>
</a>
</g>
</g>
<!-- Node1&#45;&gt;Node2 -->
<g id="edge1" class="edge">
<title>Node1&#45;&gt;Node2</title>
<path fill="none" stroke="midnightblue" d="M518.54,-275.88C472.94,-253.08 380.29,-206.75 341.97,-187.59"/>
<polygon fill="midnightblue" stroke="midnightblue" points="517.01,-279.03 527.52,-280.37 520.14,-272.77 517.01,-279.03"/>
</g>
<!-- Node5 -->
<g id="node5" class="node">
<title>Node5</title>
<g id="a_node5"><a xlink:href="router_8hpp.html" target="_top" xlink:title=" ">
<polygon fill="none" stroke="black" points="56.78,-168.5 56.78,-187.5 202.78,-187.5 202.78,-168.5 56.78,-168.5"/>
<text text-anchor="middle" x="129.78" y="-175.5" font-family="Helvetica,sans-Serif" font-size="10.00">include/roar/routing/router.hpp</text>
</a>
</g>
</g>
<!-- Node1&#45;&gt;Node5 -->
<g id="edge4" class="edge">
<title>Node1&#45;&gt;Node5</title>
<path fill="none" stroke="midnightblue" d="M502.71,-277.85C419.66,-255.84 236.28,-207.23 161.98,-187.53"/>
<polygon fill="midnightblue" stroke="midnightblue" points="502,-281.28 512.56,-280.46 503.8,-274.51 502,-281.28"/>
</g>
<!-- Node8 -->
<g id="node8" class="node">
<title>Node8</title>
<g id="a_node8"><a xlink:href="factory_8hpp.html" target="_top" xlink:title=" ">
<polygon fill="none" stroke="black" points="591.28,-168.5 591.28,-187.5 746.28,-187.5 746.28,-168.5 591.28,-168.5"/>
<text text-anchor="middle" x="668.78" y="-175.5" font-family="Helvetica,sans-Serif" font-size="10.00">include/roar/session/factory.hpp</text>
</a>
</g>
</g>
<!-- Node1&#45;&gt;Node8 -->
<g id="edge8" class="edge">
<title>Node1&#45;&gt;Node8</title>
<path fill="none" stroke="midnightblue" d="M562.24,-273.51C588.74,-250.01 638.22,-206.11 659.1,-187.59"/>
<polygon fill="midnightblue" stroke="midnightblue" points="559.67,-271.11 554.51,-280.37 564.32,-276.35 559.67,-271.11"/>
</g>
<!-- Node10 -->
<g id="node10" class="node">
<title>Node10</title>
<g id="a_node10"><a xlink:href="session_8hpp.html" target="_top" xlink:title=" ">
<polygon fill="none" stroke="black" points="414.28,-168.5 414.28,-187.5 573.28,-187.5 573.28,-168.5 414.28,-168.5"/>
<text text-anchor="middle" x="493.78" y="-175.5" font-family="Helvetica,sans-Serif" font-size="10.00">include/roar/session/session.hpp</text>
</a>
</g>
</g>
<!-- Node1&#45;&gt;Node10 -->
<g id="edge11" class="edge">
<title>Node1&#45;&gt;Node10</title>
<path fill="none" stroke="midnightblue" d="M536.44,-271C525.31,-247 506.06,-205.47 497.77,-187.59"/>
<polygon fill="midnightblue" stroke="midnightblue" points="533.4,-272.77 540.78,-280.37 539.75,-269.82 533.4,-272.77"/>
</g>
<!-- Node25 -->
<g id="node25" class="node">
<title>Node25</title>
<g id="a_node25"><a xlink:href="websocket__client_8hpp.html" target="_top" xlink:title=" ">
<polygon fill="none" stroke="black" points="1057.28,-224.5 1057.28,-243.5 1272.28,-243.5 1272.28,-224.5 1057.28,-224.5"/>
<text text-anchor="middle" x="1164.78" y="-231.5" font-family="Helvetica,sans-Serif" font-size="10.00">include/roar/websocket/websocket_client.hpp</text>
</a>
</g>
</g>
<!-- Node1&#45;&gt;Node25 -->
<g id="edge40" class="edge">
<title>Node1&#45;&gt;Node25</title>
<path fill="none" stroke="midnightblue" d="M652.73,-279.6C769.62,-269.42 954.44,-253.32 1067.14,-243.5"/>
<polygon fill="midnightblue" stroke="midnightblue" points="652.34,-276.12 642.68,-280.47 652.95,-283.09 652.34,-276.12"/>
</g>
<!-- Node27 -->
<g id="node27" class="node">
<title>Node27</title>
<g id="a_node27"><a xlink:href="websocket__session_8hpp.html" target="_top" xlink:title=" ">
<polygon fill="none" stroke="black" points="724.28,-224.5 724.28,-243.5 949.28,-243.5 949.28,-224.5 724.28,-224.5"/>
<text text-anchor="middle" x="836.78" y="-231.5" font-family="Helvetica,sans-Serif" font-size="10.00">include/roar/websocket/websocket_session.hpp</text>
</a>
</g>
</g>
<!-- Node1&#45;&gt;Node27 -->
<g id="edge42" class="edge">
<title>Node1&#45;&gt;Node27</title>
<path fill="none" stroke="midnightblue" d="M601.02,-278.6C656.2,-268.4 739.35,-253.02 790.73,-243.52"/>
<polygon fill="midnightblue" stroke="midnightblue" points="600.25,-275.18 591.05,-280.44 601.52,-282.07 600.25,-275.18"/>
</g>
<!-- Node3 -->
<g id="node3" class="node">
<title>Node3</title>
<g id="a_node3"><a xlink:href="route_8cpp.html" target="_top" xlink:title=" ">
<polygon fill="none" stroke="black" points="321.28,-112.5 321.28,-131.5 446.28,-131.5 446.28,-112.5 321.28,-112.5"/>
<text text-anchor="middle" x="383.78" y="-119.5" font-family="Helvetica,sans-Serif" font-size="10.00">src/roar/routing/route.cpp</text>
</a>
</g>
</g>
<!-- Node2&#45;&gt;Node3 -->
<g id="edge2" class="edge">
<title>Node2&#45;&gt;Node3</title>
<path fill="none" stroke="midnightblue" d="M341.68,-161.54C352.2,-151.91 365.35,-139.87 374.13,-131.83"/>
<polygon fill="midnightblue" stroke="midnightblue" points="339.28,-158.99 334.26,-168.32 344,-164.15 339.28,-158.99"/>
</g>
<!-- Node4 -->
<g id="node4" class="node">
<title>Node4</title>
<g id="a_node4"><a xlink:href="router_8cpp.html" target="_top" xlink:title=" ">
<polygon fill="none" stroke="black" points="14.78,-112.5 14.78,-131.5 142.78,-131.5 142.78,-112.5 14.78,-112.5"/>
<text text-anchor="middle" x="78.78" y="-119.5" font-family="Helvetica,sans-Serif" font-size="10.00">src/roar/routing/router.cpp</text>
</a>
</g>
</g>
<!-- Node2&#45;&gt;Node4 -->
<g id="edge3" class="edge">
<title>Node2&#45;&gt;Node4</title>
<path fill="none" stroke="midnightblue" d="M275.95,-166.28C229.47,-156.08 160.42,-140.92 117.58,-131.52"/>
<polygon fill="midnightblue" stroke="midnightblue" points="275.29,-169.72 285.8,-168.44 276.79,-162.88 275.29,-169.72"/>
</g>
<!-- Node5&#45;&gt;Node4 -->
<g id="edge5" class="edge">
<title>Node5&#45;&gt;Node4</title>
<path fill="none" stroke="midnightblue" d="M114.41,-160.72C105.42,-151.2 94.42,-139.56 87.05,-131.75"/>
<polygon fill="midnightblue" stroke="midnightblue" points="111.95,-163.22 121.36,-168.08 117.04,-158.41 111.95,-163.22"/>
</g>
<!-- Node6 -->
<g id="node6" class="node">
<title>Node6</title>
<g id="a_node6"><a xlink:href="server_8cpp.html" target="_top" xlink:title=" ">
<polygon fill="none" stroke="black" points="295.78,-0.5 295.78,-19.5 393.78,-19.5 393.78,-0.5 295.78,-0.5"/>
<text text-anchor="middle" x="344.78" y="-7.5" font-family="Helvetica,sans-Serif" font-size="10.00">src/roar/server.cpp</text>
</a>
</g>
</g>
<!-- Node5&#45;&gt;Node6 -->
<g id="edge6" class="edge">
<title>Node5&#45;&gt;Node6</title>
<path fill="none" stroke="midnightblue" d="M65.48,-166.23C25.45,-156.6 -14.82,-139.63 5.78,-112 40.65,-65.23 210.5,-32.25 295.76,-18.35"/>
<polygon fill="midnightblue" stroke="midnightblue" points="64.81,-169.67 75.34,-168.47 66.36,-162.84 64.81,-169.67"/>
</g>
<!-- Node7 -->
<g id="node7" class="node">
<title>Node7</title>
<g id="a_node7"><a xlink:href="session_8cpp.html" target="_top" xlink:title=" ">
<polygon fill="none" stroke="black" points="160.78,-112.5 160.78,-131.5 302.78,-131.5 302.78,-112.5 160.78,-112.5"/>
<text text-anchor="middle" x="231.78" y="-119.5" font-family="Helvetica,sans-Serif" font-size="10.00">src/roar/session/session.cpp</text>
</a>
</g>
</g>
<!-- Node5&#45;&gt;Node7 -->
<g id="edge7" class="edge">
<title>Node5&#45;&gt;Node7</title>
<path fill="none" stroke="midnightblue" d="M155.11,-163.59C173.97,-153.61 199.17,-140.27 215.44,-131.65"/>
<polygon fill="midnightblue" stroke="midnightblue" points="153.37,-160.55 146.17,-168.32 156.65,-166.74 153.37,-160.55"/>
</g>
<!-- Node8&#45;&gt;Node6 -->
<g id="edge9" class="edge">
<title>Node8&#45;&gt;Node6</title>
<path fill="none" stroke="midnightblue" d="M681.25,-159.43C689.53,-145.4 697.15,-125.87 686.78,-112 668.16,-87.08 467.95,-39.03 382.78,-19.53"/>
<polygon fill="midnightblue" stroke="midnightblue" points="678.12,-157.83 675.62,-168.13 684,-161.63 678.12,-157.83"/>
</g>
<!-- Node9 -->
<g id="node9" class="node">
<title>Node9</title>
<g id="a_node9"><a xlink:href="factory_8cpp.html" target="_top" xlink:title=" ">
<polygon fill="none" stroke="black" points="541.28,-112.5 541.28,-131.5 678.28,-131.5 678.28,-112.5 541.28,-112.5"/>
<text text-anchor="middle" x="609.78" y="-119.5" font-family="Helvetica,sans-Serif" font-size="10.00">src/roar/session/factory.cpp</text>
</a>
</g>
</g>
<!-- Node8&#45;&gt;Node9 -->
<g id="edge10" class="edge">
<title>Node8&#45;&gt;Node9</title>
<path fill="none" stroke="midnightblue" d="M651.89,-161.54C641.37,-151.91 628.22,-139.87 619.44,-131.83"/>
<polygon fill="midnightblue" stroke="midnightblue" points="649.56,-164.15 659.3,-168.32 654.29,-158.99 649.56,-164.15"/>
</g>
<!-- Node10&#45;&gt;Node3 -->
<g id="edge35" class="edge">
<title>Node10&#45;&gt;Node3</title>
<path fill="none" stroke="midnightblue" d="M467.02,-163.86C446.62,-153.85 419.12,-140.35 401.41,-131.65"/>
<polygon fill="midnightblue" stroke="midnightblue" points="465.59,-167.06 476.11,-168.32 468.68,-160.78 465.59,-167.06"/>
</g>
<!-- Node10&#45;&gt;Node4 -->
<g id="edge36" class="edge">
<title>Node10&#45;&gt;Node4</title>
<path fill="none" stroke="midnightblue" d="M417.67,-167.1C338.82,-156.84 216.97,-140.98 142.87,-131.34"/>
<polygon fill="midnightblue" stroke="midnightblue" points="417.66,-170.62 428.03,-168.44 418.56,-163.68 417.66,-170.62"/>
</g>
<!-- Node10&#45;&gt;Node6 -->
<g id="edge37" class="edge">
<title>Node10&#45;&gt;Node6</title>
<path fill="none" stroke="midnightblue" d="M484.95,-159.29C477.76,-145.68 466.85,-126.79 454.78,-112 423.32,-73.43 377.18,-35.9 356.07,-19.55"/>
<polygon fill="midnightblue" stroke="midnightblue" points="482,-161.2 489.69,-168.5 488.23,-158 482,-161.2"/>
</g>
<!-- Node10&#45;&gt;Node7 -->
<g id="edge39" class="edge">
<title>Node10&#45;&gt;Node7</title>
<path fill="none" stroke="midnightblue" d="M442.4,-166.41C392.89,-156.2 318.92,-140.96 273.1,-131.52"/>
<polygon fill="midnightblue" stroke="midnightblue" points="441.77,-169.85 452.27,-168.44 443.18,-163 441.77,-169.85"/>
</g>
<!-- Node10&#45;&gt;Node9 -->
<g id="edge38" class="edge">
<title>Node10&#45;&gt;Node9</title>
<path fill="none" stroke="midnightblue" d="M521.5,-164.1C543.18,-154.01 572.69,-140.27 591.49,-131.52"/>
<polygon fill="midnightblue" stroke="midnightblue" points="519.75,-161.05 512.16,-168.44 522.71,-167.4 519.75,-161.05"/>
</g>
<!-- Node11 -->
<g id="node11" class="node">
<title>Node11</title>
<g id="a_node11"><a xlink:href="include_2roar_2routing_2request__listener_8hpp.html" target="_top" xlink:title=" ">
<polygon fill="none" stroke="black" points="956.78,-112.5 956.78,-131.5 1146.78,-131.5 1146.78,-112.5 956.78,-112.5"/>
<text text-anchor="middle" x="1051.78" y="-119.5" font-family="Helvetica,sans-Serif" font-size="10.00">include/roar/routing/request_listener.hpp</text>
</a>
</g>
</g>
<!-- Node10&#45;&gt;Node11 -->
<g id="edge12" class="edge">
<title>Node10&#45;&gt;Node11</title>
<path fill="none" stroke="midnightblue" d="M583.69,-167.82C720.94,-154.25 868.41,-140.24 960.79,-131.54"/>
<polygon fill="midnightblue" stroke="midnightblue" points="583.01,-164.37 573.41,-168.83 583.7,-171.33 583.01,-164.37"/>
</g>
<!-- Node22 -->
<g id="node22" class="node">
<title>Node22</title>
<g id="a_node22"><a xlink:href="server_8hpp.html" target="_top" xlink:title=" ">
<polygon fill="none" stroke="black" points="907.78,-56.5 907.78,-75.5 1023.78,-75.5 1023.78,-56.5 907.78,-56.5"/>
<text text-anchor="middle" x="965.78" y="-63.5" font-family="Helvetica,sans-Serif" font-size="10.00">include/roar/server.hpp</text>
</a>
</g>
</g>
<!-- Node10&#45;&gt;Node22 -->
<g id="edge34" class="edge">
<title>Node10&#45;&gt;Node22</title>
<path fill="none" stroke="midnightblue" d="M499.31,-158.65C504.92,-143.46 515.16,-122.71 531.78,-112 539.6,-106.96 791.12,-83.14 907.62,-72.35"/>
<polygon fill="midnightblue" stroke="midnightblue" points="495.87,-157.9 496.03,-168.5 502.51,-160.12 495.87,-157.9"/>
</g>
<!-- Node12 -->
<g id="node12" class="node">
<title>Node12</title>
<g id="a_node12"><a xlink:href="100__continue_2main_8cpp.html" target="_top" xlink:title=" ">
<polygon fill="none" stroke="black" points="1200.78,-0.5 1200.78,-19.5 1362.78,-19.5 1362.78,-0.5 1200.78,-0.5"/>
<text text-anchor="middle" x="1281.78" y="-7.5" font-family="Helvetica,sans-Serif" font-size="10.00">examples/100_continue/main.cpp</text>
</a>
</g>
</g>
<!-- Node11&#45;&gt;Node12 -->
<g id="edge13" class="edge">
<title>Node11&#45;&gt;Node12</title>
<path fill="none" stroke="midnightblue" d="M1141.8,-111.07C1190.77,-103.92 1244.94,-92.57 1262.78,-76 1278.81,-61.12 1281.58,-33.55 1281.89,-19.58"/>
<polygon fill="midnightblue" stroke="midnightblue" points="1141.17,-107.63 1131.76,-112.49 1142.15,-114.56 1141.17,-107.63"/>
</g>
<!-- Node13 -->
<g id="node13" class="node">
<title>Node13</title>
<g id="a_node13"><a xlink:href="examples_2100__continue_2request__listener_8hpp.html" target="_top" xlink:title=" ">
<polygon fill="none" stroke="black" points="1309.78,-56.5 1309.78,-75.5 1519.78,-75.5 1519.78,-56.5 1309.78,-56.5"/>
<text text-anchor="middle" x="1414.78" y="-63.5" font-family="Helvetica,sans-Serif" font-size="10.00">examples/100_continue/request_listener.hpp</text>
</a>
</g>
</g>
<!-- Node11&#45;&gt;Node13 -->
<g id="edge14" class="edge">
<title>Node11&#45;&gt;Node13</title>
<path fill="none" stroke="midnightblue" d="M1119.57,-110.92C1188.14,-100.71 1292.99,-85.12 1357.53,-75.52"/>
<polygon fill="midnightblue" stroke="midnightblue" points="1118.68,-107.51 1109.3,-112.44 1119.71,-114.43 1118.68,-107.51"/>
</g>
<!-- Node15 -->
<g id="node15" class="node">
<title>Node15</title>
<g id="a_node15"><a xlink:href="request__listener_2main_8cpp.html" target="_top" xlink:title=" ">
<polygon fill="none" stroke="black" points="1080.28,-56.5 1080.28,-75.5 1253.28,-75.5 1253.28,-56.5 1080.28,-56.5"/>
<text text-anchor="middle" x="1166.78" y="-63.5" font-family="Helvetica,sans-Serif" font-size="10.00">examples/request_listener/main.cpp</text>
</a>
</g>
</g>
<!-- Node11&#45;&gt;Node15 -->
<g id="edge17" class="edge">
<title>Node11&#45;&gt;Node15</title>
<path fill="none" stroke="midnightblue" d="M1079.26,-108.1C1100.75,-98.01 1130.01,-84.27 1148.65,-75.52"/>
<polygon fill="midnightblue" stroke="midnightblue" points="1077.57,-105.02 1070.01,-112.44 1080.55,-111.36 1077.57,-105.02"/>
</g>
<!-- Node16 -->
<g id="node16" class="node">
<title>Node16</title>
<g id="a_node16"><a xlink:href="simple__server_2main_8cpp.html" target="_top" xlink:title=" ">
<polygon fill="none" stroke="black" points="643.28,-0.5 643.28,-19.5 808.28,-19.5 808.28,-0.5 643.28,-0.5"/>
<text text-anchor="middle" x="725.78" y="-7.5" font-family="Helvetica,sans-Serif" font-size="10.00">examples/simple_server/main.cpp</text>
</a>
</g>
</g>
<!-- Node11&#45;&gt;Node16 -->
<g id="edge18" class="edge">
<title>Node11&#45;&gt;Node16</title>
<path fill="none" stroke="midnightblue" d="M1005.88,-109.91C975.09,-101.89 933.9,-90.02 898.78,-76 880.69,-68.78 877.73,-63.57 859.78,-56 824.62,-41.18 782.73,-27.76 755.27,-19.51"/>
<polygon fill="midnightblue" stroke="midnightblue" points="1005.34,-113.39 1015.9,-112.48 1007.08,-106.61 1005.34,-113.39"/>
</g>
<!-- Node17 -->
<g id="node17" class="node">
<title>Node17</title>
<g id="a_node17"><a xlink:href="examples_2simple__server_2request__listener_8hpp.html" target="_top" xlink:title=" ">
<polygon fill="none" stroke="black" points="638.28,-56.5 638.28,-75.5 851.28,-75.5 851.28,-56.5 638.28,-56.5"/>
<text text-anchor="middle" x="744.78" y="-63.5" font-family="Helvetica,sans-Serif" font-size="10.00">examples/simple_server/request_listener.hpp</text>
</a>
</g>
</g>
<!-- Node11&#45;&gt;Node17 -->
<g id="edge19" class="edge">
<title>Node11&#45;&gt;Node17</title>
<path fill="none" stroke="midnightblue" d="M993.02,-110.66C935.01,-100.46 847.34,-85.04 793.2,-75.52"/>
<polygon fill="midnightblue" stroke="midnightblue" points="992.68,-114.16 1003.14,-112.44 993.9,-107.26 992.68,-114.16"/>
</g>
<!-- Node19 -->
<g id="node19" class="node">
<title>Node19</title>
<g id="a_node19"><a xlink:href="websocket_2main_8cpp.html" target="_top" xlink:title=" ">
<polygon fill="none" stroke="black" points="1608.78,-0.5 1608.78,-19.5 1760.78,-19.5 1760.78,-0.5 1608.78,-0.5"/>
<text text-anchor="middle" x="1684.78" y="-7.5" font-family="Helvetica,sans-Serif" font-size="10.00">examples/websocket/main.cpp</text>
</a>
</g>
</g>
<!-- Node11&#45;&gt;Node19 -->
<g id="edge22" class="edge">
<title>Node11&#45;&gt;Node19</title>
<path fill="none" stroke="midnightblue" d="M1157.02,-111.96C1292.04,-100.23 1511.09,-80.71 1528.78,-76 1549.54,-70.47 1553.03,-64.45 1572.78,-56 1603.8,-42.73 1640.1,-28.35 1662.77,-19.51"/>
<polygon fill="midnightblue" stroke="midnightblue" points="1156.71,-108.48 1147.05,-112.83 1157.31,-115.45 1156.71,-108.48"/>
</g>
<!-- Node20 -->
<g id="node20" class="node">
<title>Node20</title>
<g id="a_node20"><a xlink:href="examples_2websocket_2request__listener_8hpp.html" target="_top" xlink:title=" ">
<polygon fill="none" stroke="black" points="1581.78,-56.5 1581.78,-75.5 1781.78,-75.5 1781.78,-56.5 1581.78,-56.5"/>
<text text-anchor="middle" x="1681.78" y="-63.5" font-family="Helvetica,sans-Serif" font-size="10.00">examples/websocket/request_listener.hpp</text>
</a>
</g>
</g>
<!-- Node11&#45;&gt;Node20 -->
<g id="edge23" class="edge">
<title>Node11&#45;&gt;Node20</title>
<path fill="none" stroke="midnightblue" d="M1157.3,-111.96C1275.78,-101.8 1466.6,-85.44 1582.48,-75.51"/>
<polygon fill="midnightblue" stroke="midnightblue" points="1156.79,-108.49 1147.12,-112.83 1157.39,-115.46 1156.79,-108.49"/>
</g>
<!-- Node11&#45;&gt;Node22 -->
<g id="edge26" class="edge">
<title>Node11&#45;&gt;Node22</title>
<path fill="none" stroke="midnightblue" d="M1029.33,-106.9C1013.56,-97 992.97,-84.07 979.57,-75.65"/>
<polygon fill="midnightblue" stroke="midnightblue" points="1027.64,-109.97 1037.97,-112.32 1031.36,-104.04 1027.64,-109.97"/>
</g>
<!-- Node24 -->
<g id="node24" class="node">
<title>Node24</title>
<g id="a_node24"><a xlink:href="src_2roar_2routing_2request__listener_8cpp.html" target="_top" xlink:title=" ">
<polygon fill="none" stroke="black" points="1009.28,-0.5 1009.28,-19.5 1182.28,-19.5 1182.28,-0.5 1009.28,-0.5"/>
<text text-anchor="middle" x="1095.78" y="-7.5" font-family="Helvetica,sans-Serif" font-size="10.00">src/roar/routing/request_listener.cpp</text>
</a>
</g>
</g>
<!-- Node11&#45;&gt;Node24 -->
<g id="edge33" class="edge">
<title>Node11&#45;&gt;Node24</title>
<path fill="none" stroke="midnightblue" d="M1056.42,-102.63C1060,-89.43 1065.41,-71.33 1071.78,-56 1077.23,-42.92 1085.24,-28.61 1090.49,-19.72"/>
<polygon fill="midnightblue" stroke="midnightblue" points="1053.01,-101.84 1053.87,-112.4 1059.78,-103.61 1053.01,-101.84"/>
</g>
<!-- Node13&#45;&gt;Node12 -->
<g id="edge15" class="edge">
<title>Node13&#45;&gt;Node12</title>
<path fill="none" stroke="midnightblue" d="M1384.34,-52.64C1359.38,-42.5 1324.71,-28.43 1302.76,-19.52"/>
<polygon fill="midnightblue" stroke="midnightblue" points="1383.13,-55.92 1393.71,-56.44 1385.76,-49.44 1383.13,-55.92"/>
</g>
<!-- Node14 -->
<g id="node14" class="node">
<title>Node14</title>
<g id="a_node14"><a xlink:href="examples_2100__continue_2request__listener_8cpp.html" target="_top" xlink:title=" ">
<polygon fill="none" stroke="black" points="1380.78,-0.5 1380.78,-19.5 1590.78,-19.5 1590.78,-0.5 1380.78,-0.5"/>
<text text-anchor="middle" x="1485.78" y="-7.5" font-family="Helvetica,sans-Serif" font-size="10.00">examples/100_continue/request_listener.cpp</text>
</a>
</g>
</g>
<!-- Node13&#45;&gt;Node14 -->
<g id="edge16" class="edge">
<title>Node13&#45;&gt;Node14</title>
<path fill="none" stroke="midnightblue" d="M1434.37,-50.1C1447.15,-40.38 1463.4,-28.03 1474.17,-19.83"/>
<polygon fill="midnightblue" stroke="midnightblue" points="1432.03,-47.48 1426.19,-56.32 1436.27,-53.06 1432.03,-47.48"/>
</g>
<!-- Node17&#45;&gt;Node16 -->
<g id="edge20" class="edge">
<title>Node17&#45;&gt;Node16</title>
<path fill="none" stroke="midnightblue" d="M738.24,-46.4C735.06,-37.36 731.39,-26.94 728.86,-19.75"/>
<polygon fill="midnightblue" stroke="midnightblue" points="735.03,-47.81 741.65,-56.08 741.63,-45.49 735.03,-47.81"/>
</g>
<!-- Node18 -->
<g id="node18" class="node">
<title>Node18</title>
<g id="a_node18"><a xlink:href="examples_2simple__server_2request__listener_8cpp.html" target="_top" xlink:title=" ">
<polygon fill="none" stroke="black" points="412.28,-0.5 412.28,-19.5 625.28,-19.5 625.28,-0.5 412.28,-0.5"/>
<text text-anchor="middle" x="518.78" y="-7.5" font-family="Helvetica,sans-Serif" font-size="10.00">examples/simple_server/request_listener.cpp</text>
</a>
</g>
</g>
<!-- Node17&#45;&gt;Node18 -->
<g id="edge21" class="edge">
<title>Node17&#45;&gt;Node18</title>
<path fill="none" stroke="midnightblue" d="M699.12,-54.09C656.42,-43.89 593.54,-28.86 554.43,-19.52"/>
<polygon fill="midnightblue" stroke="midnightblue" points="698.43,-57.52 708.97,-56.44 700.06,-50.72 698.43,-57.52"/>
</g>
<!-- Node20&#45;&gt;Node19 -->
<g id="edge24" class="edge">
<title>Node20&#45;&gt;Node19</title>
<path fill="none" stroke="midnightblue" d="M1682.85,-45.8C1683.34,-36.91 1683.91,-26.78 1684.3,-19.75"/>
<polygon fill="midnightblue" stroke="midnightblue" points="1679.34,-45.9 1682.28,-56.08 1686.33,-46.29 1679.34,-45.9"/>
</g>
<!-- Node21 -->
<g id="node21" class="node">
<title>Node21</title>
<g id="a_node21"><a xlink:href="examples_2websocket_2request__listener_8cpp.html" target="_top" xlink:title=" ">
<polygon fill="none" stroke="black" points="1778.78,-0.5 1778.78,-19.5 1978.78,-19.5 1978.78,-0.5 1778.78,-0.5"/>
<text text-anchor="middle" x="1878.78" y="-7.5" font-family="Helvetica,sans-Serif" font-size="10.00">examples/websocket/request_listener.cpp</text>
</a>
</g>
</g>
<!-- Node20&#45;&gt;Node21 -->
<g id="edge25" class="edge">
<title>Node20&#45;&gt;Node21</title>
<path fill="none" stroke="midnightblue" d="M1723.01,-53.7C1760.19,-43.51 1814.06,-28.74 1847.71,-19.52"/>
<polygon fill="midnightblue" stroke="midnightblue" points="1721.72,-50.42 1713,-56.44 1723.57,-57.18 1721.72,-50.42"/>
</g>
<!-- Node22&#45;&gt;Node6 -->
<g id="edge32" class="edge">
<title>Node22&#45;&gt;Node6</title>
<path fill="none" stroke="midnightblue" d="M897.75,-59.16C885.13,-58.1 872.06,-57 859.78,-56 656.72,-39.38 605.15,-43.64 402.78,-20 399.85,-19.66 396.83,-19.28 393.8,-18.87"/>
<polygon fill="midnightblue" stroke="midnightblue" points="897.49,-62.65 907.75,-60.01 898.08,-55.68 897.49,-62.65"/>
</g>
<!-- Node22&#45;&gt;Node12 -->
<g id="edge27" class="edge">
<title>Node22&#45;&gt;Node12</title>
<path fill="none" stroke="midnightblue" d="M1025.9,-54.73C1085.61,-44.52 1176.11,-29.06 1231.95,-19.52"/>
<polygon fill="midnightblue" stroke="midnightblue" points="1025.12,-51.31 1015.85,-56.44 1026.3,-58.21 1025.12,-51.31"/>
</g>
<!-- Node22&#45;&gt;Node16 -->
<g id="edge29" class="edge">
<title>Node22&#45;&gt;Node16</title>
<path fill="none" stroke="midnightblue" d="M917.86,-54.22C872.51,-44.01 805.34,-28.9 763.63,-19.52"/>
<polygon fill="midnightblue" stroke="midnightblue" points="917.23,-57.66 927.75,-56.44 918.77,-50.83 917.23,-57.66"/>
</g>
<!-- Node22&#45;&gt;Node19 -->
<g id="edge30" class="edge">
<title>Node22&#45;&gt;Node19</title>
<path fill="none" stroke="midnightblue" d="M1033.81,-59.06C1046.43,-58 1059.51,-56.94 1071.78,-56 1306.31,-38.05 1365.46,-40.39 1599.78,-20 1602.59,-19.76 1605.45,-19.5 1608.34,-19.23"/>
<polygon fill="midnightblue" stroke="midnightblue" points="1033.48,-55.57 1023.81,-59.9 1034.07,-62.55 1033.48,-55.57"/>
</g>
<!-- Node23 -->
<g id="node23" class="node">
<title>Node23</title>
<g id="a_node23"><a xlink:href="most__minimal_2main_8cpp.html" target="_top" xlink:title=" ">
<polygon fill="none" stroke="black" points="826.28,-0.5 826.28,-19.5 991.28,-19.5 991.28,-0.5 826.28,-0.5"/>
<text text-anchor="middle" x="908.78" y="-7.5" font-family="Helvetica,sans-Serif" font-size="10.00">examples/most_minimal/main.cpp</text>
</a>
</g>
</g>
<!-- Node22&#45;&gt;Node23 -->
<g id="edge28" class="edge">
<title>Node22&#45;&gt;Node23</title>
<path fill="none" stroke="midnightblue" d="M949.16,-49.25C939.05,-39.67 926.51,-27.79 918.11,-19.83"/>
<polygon fill="midnightblue" stroke="midnightblue" points="946.96,-51.99 956.63,-56.32 951.77,-46.91 946.96,-51.99"/>
</g>
<!-- Node22&#45;&gt;Node24 -->
<g id="edge31" class="edge">
<title>Node22&#45;&gt;Node24</title>
<path fill="none" stroke="midnightblue" d="M995.87,-52.5C1020.24,-42.38 1053.92,-28.39 1075.28,-19.52"/>
<polygon fill="midnightblue" stroke="midnightblue" points="994.27,-49.38 986.38,-56.44 996.96,-55.84 994.27,-49.38"/>
</g>
<!-- Node26 -->
<g id="node26" class="node">
<title>Node26</title>
<g id="a_node26"><a xlink:href="websocket__client_8cpp.html" target="_top" xlink:title=" ">
<polygon fill="none" stroke="black" points="1203.28,-168.5 1203.28,-187.5 1400.28,-187.5 1400.28,-168.5 1203.28,-168.5"/>
<text text-anchor="middle" x="1301.78" y="-175.5" font-family="Helvetica,sans-Serif" font-size="10.00">src/roar/websocket/websocket_client.cpp</text>
</a>
</g>
</g>
<!-- Node25&#45;&gt;Node26 -->
<g id="edge41" class="edge">
<title>Node25&#45;&gt;Node26</title>
<path fill="none" stroke="midnightblue" d="M1195.81,-220.77C1221.54,-210.63 1257.47,-196.47 1280.18,-187.52"/>
<polygon fill="midnightblue" stroke="midnightblue" points="1194.51,-217.52 1186.49,-224.44 1197.08,-224.03 1194.51,-217.52"/>
</g>
<!-- Node27&#45;&gt;Node10 -->
<g id="edge44" class="edge">
<title>Node27&#45;&gt;Node10</title>
<path fill="none" stroke="midnightblue" d="M772.34,-222.85C707.53,-212.65 608.74,-197.1 547.88,-187.52"/>
<polygon fill="midnightblue" stroke="midnightblue" points="772.01,-226.35 782.43,-224.44 773.1,-219.43 772.01,-226.35"/>
</g>
<!-- Node27&#45;&gt;Node20 -->
<g id="edge43" class="edge">
<title>Node27&#45;&gt;Node20</title>
<path fill="none" stroke="midnightblue" d="M890.4,-222.47C1046.13,-191.87 1496.35,-103.43 1638.35,-75.53"/>
<polygon fill="midnightblue" stroke="midnightblue" points="889.28,-219.12 880.14,-224.48 890.63,-225.99 889.28,-219.12"/>
</g>
<!-- Node28 -->
<g id="node28" class="node">
<title>Node28</title>
<g id="a_node28"><a xlink:href="websocket__session_8cpp.html" target="_top" xlink:title=" ">
<polygon fill="none" stroke="black" points="764.78,-168.5 764.78,-187.5 972.78,-187.5 972.78,-168.5 764.78,-168.5"/>
<text text-anchor="middle" x="868.78" y="-175.5" font-family="Helvetica,sans-Serif" font-size="10.00">src/roar/websocket/websocket_session.cpp</text>
</a>
</g>
</g>
<!-- Node27&#45;&gt;Node28 -->
<g id="edge45" class="edge">
<title>Node27&#45;&gt;Node28</title>
<path fill="none" stroke="midnightblue" d="M847.29,-215.27C852.76,-206.05 859.2,-195.17 863.6,-187.75"/>
<polygon fill="midnightblue" stroke="midnightblue" points="844.15,-213.7 842.07,-224.08 850.18,-217.26 844.15,-213.7"/>
</g>
</g>
</svg>
