<?xml version="1.0" encoding="UTF-8" standalone="no"?>
<!DOCTYPE svg PUBLIC "-//W3C//DTD SVG 1.1//EN"
 "http://www.w3.org/Graphics/SVG/1.1/DTD/svg11.dtd">
<!-- Generated by graphviz version 2.44.1 (20211215.1903)
 -->
<!-- Title: include/roar/detail/pimpl_special_functions.hpp Pages: 1 -->
<svg width="2260pt" height="364pt"
 viewBox="0.00 0.00 2260.00 364.00" xmlns="http://www.w3.org/2000/svg" xmlns:xlink="http://www.w3.org/1999/xlink">
<g id="graph0" class="graph" transform="scale(1 1) rotate(0) translate(4 360)">
<title>include/roar/detail/pimpl_special_functions.hpp</title>
<!-- Node1 -->
<g id="node1" class="node">
<title>Node1</title>
<g id="a_node1"><a xlink:title=" ">
<polygon fill="#bfbfbf" stroke="black" points="375.5,-336.5 375.5,-355.5 594.5,-355.5 594.5,-336.5 375.5,-336.5"/>
<text text-anchor="middle" x="485" y="-343.5" font-family="Helvetica,sans-Serif" font-size="10.00">include/roar/detail/pimpl_special_functions.hpp</text>
</a>
</g>
</g>
<!-- Node2 -->
<g id="node2" class="node">
<title>Node2</title>
<g id="a_node2"><a xlink:href="route_8hpp.html" target="_top" xlink:title=" ">
<polygon fill="none" stroke="black" points="164.5,-224.5 164.5,-243.5 307.5,-243.5 307.5,-224.5 164.5,-224.5"/>
<text text-anchor="middle" x="236" y="-231.5" font-family="Helvetica,sans-Serif" font-size="10.00">include/roar/routing/route.hpp</text>
</a>
</g>
</g>
<!-- Node1&#45;&gt;Node2 -->
<g id="edge1" class="edge">
<title>Node1&#45;&gt;Node2</title>
<path fill="none" stroke="midnightblue" d="M456.26,-332.3C405,-309.66 299.09,-262.87 255.45,-243.59"/>
<polygon fill="midnightblue" stroke="midnightblue" points="454.9,-335.53 465.46,-336.37 457.73,-329.13 454.9,-335.53"/>
</g>
<!-- Node5 -->
<g id="node5" class="node">
<title>Node5</title>
<g id="a_node5"><a xlink:href="router_8hpp.html" target="_top" xlink:title=" ">
<polygon fill="none" stroke="black" points="0,-224.5 0,-243.5 146,-243.5 146,-224.5 0,-224.5"/>
<text text-anchor="middle" x="73" y="-231.5" font-family="Helvetica,sans-Serif" font-size="10.00">include/roar/routing/router.hpp</text>
</a>
</g>
</g>
<!-- Node1&#45;&gt;Node5 -->
<g id="edge4" class="edge">
<title>Node1&#45;&gt;Node5</title>
<path fill="none" stroke="midnightblue" d="M443.23,-333.85C360.78,-311.84 178.72,-263.23 104.97,-243.53"/>
<polygon fill="midnightblue" stroke="midnightblue" points="442.45,-337.26 453.01,-336.46 444.26,-330.5 442.45,-337.26"/>
</g>
<!-- Node8 -->
<g id="node8" class="node">
<title>Node8</title>
<g id="a_node8"><a xlink:href="factory_8hpp.html" target="_top" xlink:title=" ">
<polygon fill="none" stroke="black" points="325.5,-224.5 325.5,-243.5 480.5,-243.5 480.5,-224.5 325.5,-224.5"/>
<text text-anchor="middle" x="403" y="-231.5" font-family="Helvetica,sans-Serif" font-size="10.00">include/roar/session/factory.hpp</text>
</a>
</g>
</g>
<!-- Node1&#45;&gt;Node8 -->
<g id="edge8" class="edge">
<title>Node1&#45;&gt;Node8</title>
<path fill="none" stroke="midnightblue" d="M472.53,-328.27C454.8,-304.49 422.97,-261.79 409.4,-243.59"/>
<polygon fill="midnightblue" stroke="midnightblue" points="469.78,-330.44 478.57,-336.37 475.4,-326.26 469.78,-330.44"/>
</g>
<!-- Node10 -->
<g id="node10" class="node">
<title>Node10</title>
<g id="a_node10"><a xlink:href="session_8hpp.html" target="_top" xlink:title=" ">
<polygon fill="none" stroke="black" points="713.5,-224.5 713.5,-243.5 872.5,-243.5 872.5,-224.5 713.5,-224.5"/>
<text text-anchor="middle" x="793" y="-231.5" font-family="Helvetica,sans-Serif" font-size="10.00">include/roar/session/session.hpp</text>
</a>
</g>
</g>
<!-- Node1&#45;&gt;Node10 -->
<g id="edge11" class="edge">
<title>Node1&#45;&gt;Node10</title>
<path fill="none" stroke="midnightblue" d="M570.1,-334.84C610.05,-328.12 657.63,-317.26 698,-300 732.18,-285.38 766.84,-257.69 783.24,-243.64"/>
<polygon fill="midnightblue" stroke="midnightblue" points="569.43,-331.4 560.12,-336.46 570.55,-338.31 569.43,-331.4"/>
</g>
<!-- Node28 -->
<g id="node28" class="node">
<title>Node28</title>
<g id="a_node28"><a xlink:href="websocket__client_8hpp.html" target="_top" xlink:title=" ">
<polygon fill="none" stroke="black" points="474.5,-280.5 474.5,-299.5 689.5,-299.5 689.5,-280.5 474.5,-280.5"/>
<text text-anchor="middle" x="582" y="-287.5" font-family="Helvetica,sans-Serif" font-size="10.00">include/roar/websocket/websocket_client.hpp</text>
</a>
</g>
</g>
<!-- Node1&#45;&gt;Node28 -->
<g id="edge47" class="edge">
<title>Node1&#45;&gt;Node28</title>
<path fill="none" stroke="midnightblue" d="M509.34,-331.45C527.24,-321.48 551.05,-308.23 566.45,-299.65"/>
<polygon fill="midnightblue" stroke="midnightblue" points="507.62,-328.4 500.58,-336.32 511.02,-334.52 507.62,-328.4"/>
</g>
<!-- Node30 -->
<g id="node30" class="node">
<title>Node30</title>
<g id="a_node30"><a xlink:href="websocket__session_8hpp.html" target="_top" xlink:title=" ">
<polygon fill="none" stroke="black" points="1044.5,-280.5 1044.5,-299.5 1269.5,-299.5 1269.5,-280.5 1044.5,-280.5"/>
<text text-anchor="middle" x="1157" y="-287.5" font-family="Helvetica,sans-Serif" font-size="10.00">include/roar/websocket/websocket_session.hpp</text>
</a>
</g>
</g>
<!-- Node1&#45;&gt;Node30 -->
<g id="edge49" class="edge">
<title>Node1&#45;&gt;Node30</title>
<path fill="none" stroke="midnightblue" d="M601.23,-335.66C727.89,-325.48 928.77,-309.34 1051.17,-299.5"/>
<polygon fill="midnightblue" stroke="midnightblue" points="600.8,-332.18 591.11,-336.47 601.36,-339.16 600.8,-332.18"/>
</g>
<!-- Node3 -->
<g id="node3" class="node">
<title>Node3</title>
<g id="a_node3"><a xlink:href="route_8cpp.html" target="_top" xlink:title=" ">
<polygon fill="none" stroke="black" points="431.5,-168.5 431.5,-187.5 556.5,-187.5 556.5,-168.5 431.5,-168.5"/>
<text text-anchor="middle" x="494" y="-175.5" font-family="Helvetica,sans-Serif" font-size="10.00">src/roar/routing/route.cpp</text>
</a>
</g>
</g>
<!-- Node2&#45;&gt;Node3 -->
<g id="edge2" class="edge">
<title>Node2&#45;&gt;Node3</title>
<path fill="none" stroke="midnightblue" d="M286.9,-222.35C335.66,-212.14 408.29,-196.94 453.31,-187.52"/>
<polygon fill="midnightblue" stroke="midnightblue" points="285.95,-218.97 276.88,-224.44 287.39,-225.82 285.95,-218.97"/>
</g>
<!-- Node4 -->
<g id="node4" class="node">
<title>Node4</title>
<g id="a_node4"><a xlink:href="router_8cpp.html" target="_top" xlink:title=" ">
<polygon fill="none" stroke="black" points="87,-168.5 87,-187.5 215,-187.5 215,-168.5 87,-168.5"/>
<text text-anchor="middle" x="151" y="-175.5" font-family="Helvetica,sans-Serif" font-size="10.00">src/roar/routing/router.cpp</text>
</a>
</g>
</g>
<!-- Node2&#45;&gt;Node4 -->
<g id="edge3" class="edge">
<title>Node2&#45;&gt;Node4</title>
<path fill="none" stroke="midnightblue" d="M213.81,-218.9C198.22,-209 177.87,-196.07 164.62,-187.65"/>
<polygon fill="midnightblue" stroke="midnightblue" points="212.03,-221.92 222.34,-224.32 215.78,-216.01 212.03,-221.92"/>
</g>
<!-- Node5&#45;&gt;Node4 -->
<g id="edge5" class="edge">
<title>Node5&#45;&gt;Node4</title>
<path fill="none" stroke="midnightblue" d="M93.77,-218.62C108.02,-208.76 126.46,-195.99 138.5,-187.65"/>
<polygon fill="midnightblue" stroke="midnightblue" points="91.76,-215.75 85.53,-224.32 95.75,-221.51 91.76,-215.75"/>
</g>
<!-- Node6 -->
<g id="node6" class="node">
<title>Node6</title>
<g id="a_node6"><a xlink:href="server_8cpp.html" target="_top" xlink:title=" ">
<polygon fill="none" stroke="black" points="542,-0.5 542,-19.5 640,-19.5 640,-0.5 542,-0.5"/>
<text text-anchor="middle" x="591" y="-7.5" font-family="Helvetica,sans-Serif" font-size="10.00">src/roar/server.cpp</text>
</a>
</g>
</g>
<!-- Node5&#45;&gt;Node6 -->
<g id="edge6" class="edge">
<title>Node5&#45;&gt;Node6</title>
<path fill="none" stroke="midnightblue" d="M69.23,-214.22C67.5,-200.01 67.73,-180.83 78,-168 137.1,-94.21 425.04,-38.73 541.74,-18.91"/>
<polygon fill="midnightblue" stroke="midnightblue" points="65.81,-215.02 70.87,-224.32 72.72,-213.89 65.81,-215.02"/>
</g>
<!-- Node7 -->
<g id="node7" class="node">
<title>Node7</title>
<g id="a_node7"><a xlink:href="session_8cpp.html" target="_top" xlink:title=" ">
<polygon fill="none" stroke="black" points="233,-168.5 233,-187.5 375,-187.5 375,-168.5 233,-168.5"/>
<text text-anchor="middle" x="304" y="-175.5" font-family="Helvetica,sans-Serif" font-size="10.00">src/roar/session/session.cpp</text>
</a>
</g>
</g>
<!-- Node5&#45;&gt;Node7 -->
<g id="edge7" class="edge">
<title>Node5&#45;&gt;Node7</title>
<path fill="none" stroke="midnightblue" d="M119.4,-222.15C163.05,-211.95 227.51,-196.88 267.57,-187.52"/>
<polygon fill="midnightblue" stroke="midnightblue" points="118.54,-218.76 109.6,-224.44 120.14,-225.58 118.54,-218.76"/>
</g>
<!-- Node8&#45;&gt;Node6 -->
<g id="edge9" class="edge">
<title>Node8&#45;&gt;Node6</title>
<path fill="none" stroke="midnightblue" d="M405.72,-214.31C408.33,-200.7 413.22,-182.22 422,-168 464.72,-98.83 545.96,-40.64 577.76,-19.51"/>
<polygon fill="midnightblue" stroke="midnightblue" points="402.23,-213.97 404.03,-224.41 409.13,-215.13 402.23,-213.97"/>
</g>
<!-- Node9 -->
<g id="node9" class="node">
<title>Node9</title>
<g id="a_node9"><a xlink:href="factory_8cpp.html" target="_top" xlink:title=" ">
<polygon fill="none" stroke="black" points="574.5,-168.5 574.5,-187.5 711.5,-187.5 711.5,-168.5 574.5,-168.5"/>
<text text-anchor="middle" x="643" y="-175.5" font-family="Helvetica,sans-Serif" font-size="10.00">src/roar/session/factory.cpp</text>
</a>
</g>
</g>
<!-- Node8&#45;&gt;Node9 -->
<g id="edge10" class="edge">
<title>Node8&#45;&gt;Node9</title>
<path fill="none" stroke="midnightblue" d="M450.92,-222.22C496.27,-212.01 563.44,-196.9 605.15,-187.52"/>
<polygon fill="midnightblue" stroke="midnightblue" points="450.02,-218.83 441.03,-224.44 451.55,-225.66 450.02,-218.83"/>
</g>
<!-- Node10&#45;&gt;Node3 -->
<g id="edge42" class="edge">
<title>Node10&#45;&gt;Node3</title>
<path fill="none" stroke="midnightblue" d="M735.77,-222.66C679.26,-212.46 593.88,-197.04 541.16,-187.52"/>
<polygon fill="midnightblue" stroke="midnightblue" points="735.16,-226.11 745.62,-224.44 736.4,-219.22 735.16,-226.11"/>
</g>
<!-- Node10&#45;&gt;Node4 -->
<g id="edge43" class="edge">
<title>Node10&#45;&gt;Node4</title>
<path fill="none" stroke="midnightblue" d="M703.44,-223.98C489.22,-205.35 433.67,-208.78 224,-188 221.08,-187.71 218.09,-187.4 215.07,-187.08"/>
<polygon fill="midnightblue" stroke="midnightblue" points="703.17,-227.47 713.43,-224.85 703.78,-220.49 703.17,-227.47"/>
</g>
<!-- Node10&#45;&gt;Node6 -->
<g id="edge44" class="edge">
<title>Node10&#45;&gt;Node6</title>
<path fill="none" stroke="midnightblue" d="M778.29,-216.83C738.49,-173.09 629.66,-53.48 599.08,-19.88"/>
<polygon fill="midnightblue" stroke="midnightblue" points="775.76,-219.26 785.08,-224.3 780.94,-214.55 775.76,-219.26"/>
</g>
<!-- Node10&#45;&gt;Node7 -->
<g id="edge46" class="edge">
<title>Node10&#45;&gt;Node7</title>
<path fill="none" stroke="midnightblue" d="M705.7,-223.36C611.36,-212.94 462.81,-196.54 375.25,-186.87"/>
<polygon fill="midnightblue" stroke="midnightblue" points="705.46,-226.85 715.79,-224.47 706.23,-219.9 705.46,-226.85"/>
</g>
<!-- Node10&#45;&gt;Node9 -->
<g id="edge45" class="edge">
<title>Node10&#45;&gt;Node9</title>
<path fill="none" stroke="midnightblue" d="M759.78,-221.04C731.55,-210.88 691.74,-196.55 666.66,-187.52"/>
<polygon fill="midnightblue" stroke="midnightblue" points="758.64,-224.35 769.23,-224.44 761.01,-217.76 758.64,-224.35"/>
</g>
<!-- Node11 -->
<g id="node11" class="node">
<title>Node11</title>
<g id="a_node11"><a xlink:href="directory__server_8hpp.html" target="_top" xlink:title=" ">
<polygon fill="none" stroke="black" points="806.5,-112.5 806.5,-131.5 1037.5,-131.5 1037.5,-112.5 806.5,-112.5"/>
<text text-anchor="middle" x="922" y="-119.5" font-family="Helvetica,sans-Serif" font-size="10.00">include/roar/directory_server/directory_server.hpp</text>
</a>
</g>
</g>
<!-- Node10&#45;&gt;Node11 -->
<g id="edge12" class="edge">
<title>Node10&#45;&gt;Node11</title>
<path fill="none" stroke="midnightblue" d="M810.81,-217.82C838.28,-194.39 890.11,-150.19 911.92,-131.59"/>
<polygon fill="midnightblue" stroke="midnightblue" points="808.46,-215.22 803.12,-224.37 813,-220.54 808.46,-215.22"/>
</g>
<!-- Node12 -->
<g id="node12" class="node">
<title>Node12</title>
<g id="a_node12"><a xlink:href="server_8hpp.html" target="_top" xlink:title=" ">
<polygon fill="none" stroke="black" points="942,-56.5 942,-75.5 1058,-75.5 1058,-56.5 942,-56.5"/>
<text text-anchor="middle" x="1000" y="-63.5" font-family="Helvetica,sans-Serif" font-size="10.00">include/roar/server.hpp</text>
</a>
</g>
</g>
<!-- Node10&#45;&gt;Node12 -->
<g id="edge41" class="edge">
<title>Node10&#45;&gt;Node12</title>
<path fill="none" stroke="midnightblue" d="M787.57,-214.74C781.06,-188.72 773.81,-140.93 798,-112 816.21,-90.23 888.89,-78.19 941.86,-72.16"/>
<polygon fill="midnightblue" stroke="midnightblue" points="784.21,-215.72 790.22,-224.44 790.96,-213.87 784.21,-215.72"/>
</g>
<!-- Node19 -->
<g id="node19" class="node">
<title>Node19</title>
<g id="a_node19"><a xlink:href="include_2roar_2routing_2request__listener_8hpp.html" target="_top" xlink:title=" ">
<polygon fill="none" stroke="black" points="1180,-168.5 1180,-187.5 1370,-187.5 1370,-168.5 1180,-168.5"/>
<text text-anchor="middle" x="1275" y="-175.5" font-family="Helvetica,sans-Serif" font-size="10.00">include/roar/routing/request_listener.hpp</text>
</a>
</g>
</g>
<!-- Node10&#45;&gt;Node19 -->
<g id="edge21" class="edge">
<title>Node10&#45;&gt;Node19</title>
<path fill="none" stroke="midnightblue" d="M879.11,-223.35C970.02,-213.17 1111.96,-197.27 1198.89,-187.53"/>
<polygon fill="midnightblue" stroke="midnightblue" points="878.66,-219.88 869.11,-224.47 879.44,-226.84 878.66,-219.88"/>
</g>
<!-- Node11&#45;&gt;Node12 -->
<g id="edge13" class="edge">
<title>Node11&#45;&gt;Node12</title>
<path fill="none" stroke="midnightblue" d="M942.77,-106.62C957.02,-96.76 975.46,-83.99 987.5,-75.65"/>
<polygon fill="midnightblue" stroke="midnightblue" points="940.76,-103.75 934.53,-112.32 944.75,-109.51 940.76,-103.75"/>
</g>
<!-- Node12&#45;&gt;Node6 -->
<g id="edge20" class="edge">
<title>Node12&#45;&gt;Node6</title>
<path fill="none" stroke="midnightblue" d="M931.81,-56C849.38,-45.11 712.7,-27.07 640,-17.47"/>
<polygon fill="midnightblue" stroke="midnightblue" points="931.46,-59.48 941.83,-57.32 932.38,-52.54 931.46,-59.48"/>
</g>
<!-- Node13 -->
<g id="node13" class="node">
<title>Node13</title>
<g id="a_node13"><a xlink:href="100__continue_2main_8cpp.html" target="_top" xlink:title=" ">
<polygon fill="none" stroke="black" points="1151,-0.5 1151,-19.5 1313,-19.5 1313,-0.5 1151,-0.5"/>
<text text-anchor="middle" x="1232" y="-7.5" font-family="Helvetica,sans-Serif" font-size="10.00">examples/100_continue/main.cpp</text>
</a>
</g>
</g>
<!-- Node12&#45;&gt;Node13 -->
<g id="edge14" class="edge">
<title>Node12&#45;&gt;Node13</title>
<path fill="none" stroke="midnightblue" d="M1046.6,-54.15C1090.44,-43.95 1155.18,-28.88 1195.41,-19.52"/>
<polygon fill="midnightblue" stroke="midnightblue" points="1045.71,-50.77 1036.76,-56.44 1047.29,-57.59 1045.71,-50.77"/>
</g>
<!-- Node14 -->
<g id="node14" class="node">
<title>Node14</title>
<g id="a_node14"><a xlink:href="most__minimal_2main_8cpp.html" target="_top" xlink:title=" ">
<polygon fill="none" stroke="black" points="967.5,-0.5 967.5,-19.5 1132.5,-19.5 1132.5,-0.5 967.5,-0.5"/>
<text text-anchor="middle" x="1050" y="-7.5" font-family="Helvetica,sans-Serif" font-size="10.00">examples/most_minimal/main.cpp</text>
</a>
</g>
</g>
<!-- Node12&#45;&gt;Node14 -->
<g id="edge15" class="edge">
<title>Node12&#45;&gt;Node14</title>
<path fill="none" stroke="midnightblue" d="M1015.08,-48.72C1023.89,-39.2 1034.67,-27.56 1041.9,-19.75"/>
<polygon fill="midnightblue" stroke="midnightblue" points="1012.48,-46.37 1008.26,-56.08 1017.62,-51.12 1012.48,-46.37"/>
</g>
<!-- Node15 -->
<g id="node15" class="node">
<title>Node15</title>
<g id="a_node15"><a xlink:href="serve__directory_2main_8cpp.html" target="_top" xlink:title=" ">
<polygon fill="none" stroke="black" points="1461.5,-0.5 1461.5,-19.5 1632.5,-19.5 1632.5,-0.5 1461.5,-0.5"/>
<text text-anchor="middle" x="1547" y="-7.5" font-family="Helvetica,sans-Serif" font-size="10.00">examples/serve_directory/main.cpp</text>
</a>
</g>
</g>
<!-- Node12&#45;&gt;Node15 -->
<g id="edge16" class="edge">
<title>Node12&#45;&gt;Node15</title>
<path fill="none" stroke="midnightblue" d="M1068.27,-58.26C1167.86,-48.43 1352.92,-30.16 1461.46,-19.44"/>
<polygon fill="midnightblue" stroke="midnightblue" points="1067.63,-54.81 1058.02,-59.27 1068.32,-61.77 1067.63,-54.81"/>
</g>
<!-- Node16 -->
<g id="node16" class="node">
<title>Node16</title>
<g id="a_node16"><a xlink:href="simple__server_2main_8cpp.html" target="_top" xlink:title=" ">
<polygon fill="none" stroke="black" points="1650.5,-0.5 1650.5,-19.5 1815.5,-19.5 1815.5,-0.5 1650.5,-0.5"/>
<text text-anchor="middle" x="1733" y="-7.5" font-family="Helvetica,sans-Serif" font-size="10.00">examples/simple_server/main.cpp</text>
</a>
</g>
</g>
<!-- Node12&#45;&gt;Node16 -->
<g id="edge17" class="edge">
<title>Node12&#45;&gt;Node16</title>
<path fill="none" stroke="midnightblue" d="M1068.2,-58.97C1080.45,-57.94 1093.1,-56.91 1105,-56 1343.51,-37.79 1403.62,-39.77 1642,-20 1644.69,-19.78 1647.42,-19.54 1650.18,-19.3"/>
<polygon fill="midnightblue" stroke="midnightblue" points="1067.69,-55.5 1058.03,-59.83 1068.29,-62.47 1067.69,-55.5"/>
</g>
<!-- Node17 -->
<g id="node17" class="node">
<title>Node17</title>
<g id="a_node17"><a xlink:href="websocket_2main_8cpp.html" target="_top" xlink:title=" ">
<polygon fill="none" stroke="black" points="1910,-0.5 1910,-19.5 2062,-19.5 2062,-0.5 1910,-0.5"/>
<text text-anchor="middle" x="1986" y="-7.5" font-family="Helvetica,sans-Serif" font-size="10.00">examples/websocket/main.cpp</text>
</a>
</g>
</g>
<!-- Node12&#45;&gt;Node17 -->
<g id="edge18" class="edge">
<title>Node12&#45;&gt;Node17</title>
<path fill="none" stroke="midnightblue" d="M1068.18,-58.8C1080.43,-57.79 1093.09,-56.81 1105,-56 1424.67,-34.32 1505.05,-36.94 1825,-20 1852.68,-18.53 1883.02,-16.86 1909.84,-15.35"/>
<polygon fill="midnightblue" stroke="midnightblue" points="1067.68,-55.33 1058.01,-59.66 1068.27,-62.31 1067.68,-55.33"/>
</g>
<!-- Node18 -->
<g id="node18" class="node">
<title>Node18</title>
<g id="a_node18"><a xlink:href="src_2roar_2routing_2request__listener_8cpp.html" target="_top" xlink:title=" ">
<polygon fill="none" stroke="black" points="776.5,-0.5 776.5,-19.5 949.5,-19.5 949.5,-0.5 776.5,-0.5"/>
<text text-anchor="middle" x="863" y="-7.5" font-family="Helvetica,sans-Serif" font-size="10.00">src/roar/routing/request_listener.cpp</text>
</a>
</g>
</g>
<!-- Node12&#45;&gt;Node18 -->
<g id="edge19" class="edge">
<title>Node12&#45;&gt;Node18</title>
<path fill="none" stroke="midnightblue" d="M968.98,-52.77C943.24,-42.63 907.31,-28.47 884.61,-19.52"/>
<polygon fill="midnightblue" stroke="midnightblue" points="967.71,-56.03 978.29,-56.44 970.27,-49.52 967.71,-56.03"/>
</g>
<!-- Node19&#45;&gt;Node11 -->
<g id="edge38" class="edge">
<title>Node19&#45;&gt;Node11</title>
<path fill="none" stroke="midnightblue" d="M1209.08,-166.92C1142.4,-156.71 1040.43,-141.12 977.67,-131.52"/>
<polygon fill="midnightblue" stroke="midnightblue" points="1208.65,-170.39 1219.07,-168.44 1209.71,-163.47 1208.65,-170.39"/>
</g>
<!-- Node19&#45;&gt;Node12 -->
<g id="edge39" class="edge">
<title>Node19&#45;&gt;Node12</title>
<path fill="none" stroke="midnightblue" d="M1231.13,-165.71C1201.55,-157.58 1161.88,-145.67 1128,-132 1085.7,-114.94 1038.47,-89.05 1014.97,-75.68"/>
<polygon fill="midnightblue" stroke="midnightblue" points="1230.58,-169.19 1241.15,-168.43 1232.41,-162.43 1230.58,-169.19"/>
</g>
<!-- Node19&#45;&gt;Node13 -->
<g id="edge22" class="edge">
<title>Node19&#45;&gt;Node13</title>
<path fill="none" stroke="midnightblue" d="M1227.09,-165.54C1184.38,-152.27 1125.54,-125.58 1105,-76 1091.92,-44.42 1129.85,-28 1167.59,-19.57"/>
<polygon fill="midnightblue" stroke="midnightblue" points="1226.17,-168.92 1236.75,-168.4 1228.16,-162.2 1226.17,-168.92"/>
</g>
<!-- Node19&#45;&gt;Node15 -->
<g id="edge29" class="edge">
<title>Node19&#45;&gt;Node15</title>
<path fill="none" stroke="midnightblue" d="M1366.94,-167.37C1461.22,-157.04 1595.21,-140.93 1603,-132 1611.31,-122.48 1616.35,-90.64 1599,-56 1590.98,-39.99 1574.51,-27.29 1562.24,-19.52"/>
<polygon fill="midnightblue" stroke="midnightblue" points="1366.36,-163.91 1356.8,-168.47 1367.12,-170.87 1366.36,-163.91"/>
</g>
<!-- Node19&#45;&gt;Node16 -->
<g id="edge30" class="edge">
<title>Node19&#45;&gt;Node16</title>
<path fill="none" stroke="midnightblue" d="M1374.8,-167.45C1468.85,-157.89 1598.49,-143.05 1620,-132 1646.97,-118.14 1706.25,-44.93 1726.25,-19.62"/>
<polygon fill="midnightblue" stroke="midnightblue" points="1374.27,-163.99 1364.67,-168.47 1374.97,-170.95 1374.27,-163.99"/>
</g>
<!-- Node19&#45;&gt;Node17 -->
<g id="edge34" class="edge">
<title>Node19&#45;&gt;Node17</title>
<path fill="none" stroke="midnightblue" d="M1380.14,-168.29C1381.44,-168.19 1382.72,-168.09 1384,-168 1444.52,-163.5 1878.85,-166.18 1929,-132 1968.72,-104.93 1981.47,-42.52 1984.9,-19.63"/>
<polygon fill="midnightblue" stroke="midnightblue" points="1379.81,-164.8 1370.11,-169.05 1380.35,-171.78 1379.81,-164.8"/>
</g>
<!-- Node19&#45;&gt;Node18 -->
<g id="edge40" class="edge">
<title>Node19&#45;&gt;Node18</title>
<path fill="none" stroke="midnightblue" d="M1206.38,-166.68C1168.25,-159.59 1120.48,-148.44 1080,-132 1064.11,-125.55 1062.62,-119.08 1047,-112 998.6,-90.07 978.92,-102.73 933,-76 906.63,-60.65 882,-33.79 870.24,-19.89"/>
<polygon fill="midnightblue" stroke="midnightblue" points="1205.89,-170.15 1216.35,-168.48 1207.14,-163.26 1205.89,-170.15"/>
</g>
<!-- Node20 -->
<g id="node20" class="node">
<title>Node20</title>
<g id="a_node20"><a xlink:href="examples_2100__continue_2request__listener_8hpp.html" target="_top" xlink:title=" ">
<polygon fill="none" stroke="black" points="1170,-112.5 1170,-131.5 1380,-131.5 1380,-112.5 1170,-112.5"/>
<text text-anchor="middle" x="1275" y="-119.5" font-family="Helvetica,sans-Serif" font-size="10.00">examples/100_continue/request_listener.hpp</text>
</a>
</g>
</g>
<!-- Node19&#45;&gt;Node20 -->
<g id="edge23" class="edge">
<title>Node19&#45;&gt;Node20</title>
<path fill="none" stroke="midnightblue" d="M1275,-157.8C1275,-148.91 1275,-138.78 1275,-131.75"/>
<polygon fill="midnightblue" stroke="midnightblue" points="1271.5,-158.08 1275,-168.08 1278.5,-158.08 1271.5,-158.08"/>
</g>
<!-- Node22 -->
<g id="node22" class="node">
<title>Node22</title>
<g id="a_node22"><a xlink:href="file__server_8hpp.html" target="_top" xlink:title=" ">
<polygon fill="none" stroke="black" points="1398.5,-112.5 1398.5,-131.5 1593.5,-131.5 1593.5,-112.5 1398.5,-112.5"/>
<text text-anchor="middle" x="1496" y="-119.5" font-family="Helvetica,sans-Serif" font-size="10.00">examples/serve_directory/file_server.hpp</text>
</a>
</g>
</g>
<!-- Node19&#45;&gt;Node22 -->
<g id="edge26" class="edge">
<title>Node19&#45;&gt;Node22</title>
<path fill="none" stroke="midnightblue" d="M1319.92,-166.02C1361.67,-155.82 1422.98,-140.84 1461.15,-131.52"/>
<polygon fill="midnightblue" stroke="midnightblue" points="1318.9,-162.67 1310.02,-168.44 1320.56,-169.47 1318.9,-162.67"/>
</g>
<!-- Node24 -->
<g id="node24" class="node">
<title>Node24</title>
<g id="a_node24"><a xlink:href="examples_2simple__server_2request__listener_8hpp.html" target="_top" xlink:title=" ">
<polygon fill="none" stroke="black" points="1706.5,-112.5 1706.5,-131.5 1919.5,-131.5 1919.5,-112.5 1706.5,-112.5"/>
<text text-anchor="middle" x="1813" y="-119.5" font-family="Helvetica,sans-Serif" font-size="10.00">examples/simple_server/request_listener.hpp</text>
</a>
</g>
</g>
<!-- Node19&#45;&gt;Node24 -->
<g id="edge31" class="edge">
<title>Node19&#45;&gt;Node24</title>
<path fill="none" stroke="midnightblue" d="M1370.19,-167.45C1471.63,-157.26 1630.72,-141.3 1728.05,-131.53"/>
<polygon fill="midnightblue" stroke="midnightblue" points="1369.55,-163.99 1359.95,-168.47 1370.25,-170.96 1369.55,-163.99"/>
</g>
<!-- Node26 -->
<g id="node26" class="node">
<title>Node26</title>
<g id="a_node26"><a xlink:href="examples_2websocket_2request__listener_8hpp.html" target="_top" xlink:title=" ">
<polygon fill="none" stroke="black" points="2014,-112.5 2014,-131.5 2214,-131.5 2214,-112.5 2014,-112.5"/>
<text text-anchor="middle" x="2114" y="-119.5" font-family="Helvetica,sans-Serif" font-size="10.00">examples/websocket/request_listener.hpp</text>
</a>
</g>
</g>
<!-- Node19&#45;&gt;Node26 -->
<g id="edge35" class="edge">
<title>Node19&#45;&gt;Node26</title>
<path fill="none" stroke="midnightblue" d="M1380.14,-168.27C1381.43,-168.18 1382.72,-168.09 1384,-168 1657.57,-148.71 1726.4,-150.79 2000,-132 2004.56,-131.69 2009.21,-131.36 2013.92,-131.02"/>
<polygon fill="midnightblue" stroke="midnightblue" points="1379.82,-164.79 1370.11,-169.01 1380.33,-171.77 1379.82,-164.79"/>
</g>
<!-- Node20&#45;&gt;Node13 -->
<g id="edge24" class="edge">
<title>Node20&#45;&gt;Node13</title>
<path fill="none" stroke="midnightblue" d="M1301.6,-107.4C1322.33,-94.91 1345.63,-75.45 1333,-56 1320.67,-37 1298.24,-25.96 1277.65,-19.57"/>
<polygon fill="midnightblue" stroke="midnightblue" points="1299.66,-104.48 1292.7,-112.47 1303.12,-110.57 1299.66,-104.48"/>
</g>
<!-- Node21 -->
<g id="node21" class="node">
<title>Node21</title>
<g id="a_node21"><a xlink:href="examples_2100__continue_2request__listener_8cpp.html" target="_top" xlink:title=" ">
<polygon fill="none" stroke="black" points="1114,-56.5 1114,-75.5 1324,-75.5 1324,-56.5 1114,-56.5"/>
<text text-anchor="middle" x="1219" y="-63.5" font-family="Helvetica,sans-Serif" font-size="10.00">examples/100_continue/request_listener.cpp</text>
</a>
</g>
</g>
<!-- Node20&#45;&gt;Node21 -->
<g id="edge25" class="edge">
<title>Node20&#45;&gt;Node21</title>
<path fill="none" stroke="midnightblue" d="M1258.67,-105.25C1248.74,-95.67 1236.41,-83.79 1228.16,-75.83"/>
<polygon fill="midnightblue" stroke="midnightblue" points="1256.37,-107.9 1266,-112.32 1261.23,-102.86 1256.37,-107.9"/>
</g>
<!-- Node22&#45;&gt;Node15 -->
<g id="edge28" class="edge">
<title>Node22&#45;&gt;Node15</title>
<path fill="none" stroke="midnightblue" d="M1541.38,-108.77C1557.74,-101.93 1574.49,-91.54 1584,-76 1596.2,-56.06 1572.95,-32.03 1558.07,-19.51"/>
<polygon fill="midnightblue" stroke="midnightblue" points="1539.95,-105.57 1531.85,-112.4 1542.44,-112.11 1539.95,-105.57"/>
</g>
<!-- Node23 -->
<g id="node23" class="node">
<title>Node23</title>
<g id="a_node23"><a xlink:href="file__server_8cpp.html" target="_top" xlink:title=" ">
<polygon fill="none" stroke="black" points="1379.5,-56.5 1379.5,-75.5 1574.5,-75.5 1574.5,-56.5 1379.5,-56.5"/>
<text text-anchor="middle" x="1477" y="-63.5" font-family="Helvetica,sans-Serif" font-size="10.00">examples/serve_directory/file_server.cpp</text>
</a>
</g>
</g>
<!-- Node22&#45;&gt;Node23 -->
<g id="edge27" class="edge">
<title>Node22&#45;&gt;Node23</title>
<path fill="none" stroke="midnightblue" d="M1489.45,-102.4C1486.28,-93.36 1482.61,-82.94 1480.08,-75.75"/>
<polygon fill="midnightblue" stroke="midnightblue" points="1486.24,-103.81 1492.86,-112.08 1492.85,-101.49 1486.24,-103.81"/>
</g>
<!-- Node24&#45;&gt;Node16 -->
<g id="edge32" class="edge">
<title>Node24&#45;&gt;Node16</title>
<path fill="none" stroke="midnightblue" d="M1870.02,-110.03C1908.99,-99.94 1950.08,-82.47 1929,-56 1914.48,-37.77 1861.8,-26.32 1814.71,-19.53"/>
<polygon fill="midnightblue" stroke="midnightblue" points="1869.07,-106.66 1860.19,-112.44 1870.74,-113.46 1869.07,-106.66"/>
</g>
<!-- Node25 -->
<g id="node25" class="node">
<title>Node25</title>
<g id="a_node25"><a xlink:href="examples_2simple__server_2request__listener_8cpp.html" target="_top" xlink:title=" ">
<polygon fill="none" stroke="black" points="1706.5,-56.5 1706.5,-75.5 1919.5,-75.5 1919.5,-56.5 1706.5,-56.5"/>
<text text-anchor="middle" x="1813" y="-63.5" font-family="Helvetica,sans-Serif" font-size="10.00">examples/simple_server/request_listener.cpp</text>
</a>
</g>
</g>
<!-- Node24&#45;&gt;Node25 -->
<g id="edge33" class="edge">
<title>Node24&#45;&gt;Node25</title>
<path fill="none" stroke="midnightblue" d="M1813,-101.8C1813,-92.91 1813,-82.78 1813,-75.75"/>
<polygon fill="midnightblue" stroke="midnightblue" points="1809.5,-102.08 1813,-112.08 1816.5,-102.08 1809.5,-102.08"/>
</g>
<!-- Node26&#45;&gt;Node17 -->
<g id="edge36" class="edge">
<title>Node26&#45;&gt;Node17</title>
<path fill="none" stroke="midnightblue" d="M2088.86,-107.45C2074.71,-99.25 2057.1,-88.07 2043,-76 2022.25,-58.24 2002.19,-32.88 1992.33,-19.7"/>
<polygon fill="midnightblue" stroke="midnightblue" points="2087.16,-110.51 2097.59,-112.38 2090.61,-104.41 2087.16,-110.51"/>
</g>
<!-- Node27 -->
<g id="node27" class="node">
<title>Node27</title>
<g id="a_node27"><a xlink:href="examples_2websocket_2request__listener_8cpp.html" target="_top" xlink:title=" ">
<polygon fill="none" stroke="black" points="2052,-56.5 2052,-75.5 2252,-75.5 2252,-56.5 2052,-56.5"/>
<text text-anchor="middle" x="2152" y="-63.5" font-family="Helvetica,sans-Serif" font-size="10.00">examples/websocket/request_listener.cpp</text>
</a>
</g>
</g>
<!-- Node26&#45;&gt;Node27 -->
<g id="edge37" class="edge">
<title>Node26&#45;&gt;Node27</title>
<path fill="none" stroke="midnightblue" d="M2126.06,-103.86C2132.64,-94.5 2140.51,-83.33 2145.84,-75.75"/>
<polygon fill="midnightblue" stroke="midnightblue" points="2123.17,-101.89 2120.27,-112.08 2128.89,-105.92 2123.17,-101.89"/>
</g>
<!-- Node29 -->
<g id="node29" class="node">
<title>Node29</title>
<g id="a_node29"><a xlink:href="websocket__client_8cpp.html" target="_top" xlink:title=" ">
<polygon fill="none" stroke="black" points="498.5,-224.5 498.5,-243.5 695.5,-243.5 695.5,-224.5 498.5,-224.5"/>
<text text-anchor="middle" x="597" y="-231.5" font-family="Helvetica,sans-Serif" font-size="10.00">src/roar/websocket/websocket_client.cpp</text>
</a>
</g>
</g>
<!-- Node28&#45;&gt;Node29 -->
<g id="edge48" class="edge">
<title>Node28&#45;&gt;Node29</title>
<path fill="none" stroke="midnightblue" d="M587.17,-270.4C589.68,-261.36 592.57,-250.94 594.57,-243.75"/>
<polygon fill="midnightblue" stroke="midnightblue" points="583.78,-269.51 584.48,-280.08 590.53,-271.38 583.78,-269.51"/>
</g>
<!-- Node30&#45;&gt;Node10 -->
<g id="edge51" class="edge">
<title>Node30&#45;&gt;Node10</title>
<path fill="none" stroke="midnightblue" d="M1089.03,-278.92C1020.26,-268.71 915.13,-253.12 850.41,-243.52"/>
<polygon fill="midnightblue" stroke="midnightblue" points="1088.92,-282.44 1099.32,-280.44 1089.95,-275.51 1088.92,-282.44"/>
</g>
<!-- Node30&#45;&gt;Node26 -->
<g id="edge50" class="edge">
<title>Node30&#45;&gt;Node26</title>
<path fill="none" stroke="midnightblue" d="M1197.12,-277.63C1247.96,-263.53 1338.42,-239.48 1417,-224 1640.89,-179.91 1908.76,-146.43 2037.51,-131.52"/>
<polygon fill="midnightblue" stroke="midnightblue" points="1195.89,-274.34 1187.2,-280.39 1197.77,-281.08 1195.89,-274.34"/>
</g>
<!-- Node31 -->
<g id="node31" class="node">
<title>Node31</title>
<g id="a_node31"><a xlink:href="websocket__session_8cpp.html" target="_top" xlink:title=" ">
<polygon fill="none" stroke="black" points="1426,-224.5 1426,-243.5 1634,-243.5 1634,-224.5 1426,-224.5"/>
<text text-anchor="middle" x="1530" y="-231.5" font-family="Helvetica,sans-Serif" font-size="10.00">src/roar/websocket/websocket_session.cpp</text>
</a>
</g>
</g>
<!-- Node30&#45;&gt;Node31 -->
<g id="edge52" class="edge">
<title>Node30&#45;&gt;Node31</title>
<path fill="none" stroke="midnightblue" d="M1226.22,-278.98C1296.67,-268.78 1404.72,-253.14 1471.17,-243.52"/>
<polygon fill="midnightblue" stroke="midnightblue" points="1225.5,-275.55 1216.1,-280.44 1226.5,-282.47 1225.5,-275.55"/>
</g>
</g>
</svg>
