<?xml version="1.0" encoding="UTF-8" standalone="no"?>
<!DOCTYPE svg PUBLIC "-//W3C//DTD SVG 1.1//EN"
 "http://www.w3.org/Graphics/SVG/1.1/DTD/svg11.dtd">
<!-- Generated by graphviz version 2.44.1 (20211215.1903)
 -->
<!-- Title: include/roar/detail/pimpl_special_functions.hpp Pages: 1 -->
<svg width="1692pt" height="308pt"
 viewBox="0.00 0.00 1692.15 308.00" xmlns="http://www.w3.org/2000/svg" xmlns:xlink="http://www.w3.org/1999/xlink">
<g id="graph0" class="graph" transform="scale(1 1) rotate(0) translate(4 304)">
<title>include/roar/detail/pimpl_special_functions.hpp</title>
<!-- Node1 -->
<g id="node1" class="node">
<title>Node1</title>
<g id="a_node1"><a xlink:title=" ">
<polygon fill="#bfbfbf" stroke="black" points="433.65,-280.5 433.65,-299.5 652.65,-299.5 652.65,-280.5 433.65,-280.5"/>
<text text-anchor="middle" x="543.15" y="-287.5" font-family="Helvetica,sans-Serif" font-size="10.00">include/roar/detail/pimpl_special_functions.hpp</text>
</a>
</g>
</g>
<!-- Node2 -->
<g id="node2" class="node">
<title>Node2</title>
<g id="a_node2"><a xlink:href="route_8hpp.html" target="_top" xlink:title=" ">
<polygon fill="none" stroke="black" points="251.65,-168.5 251.65,-187.5 394.65,-187.5 394.65,-168.5 251.65,-168.5"/>
<text text-anchor="middle" x="323.15" y="-175.5" font-family="Helvetica,sans-Serif" font-size="10.00">include/roar/routing/route.hpp</text>
</a>
</g>
</g>
<!-- Node1&#45;&gt;Node2 -->
<g id="edge1" class="edge">
<title>Node1&#45;&gt;Node2</title>
<path fill="none" stroke="midnightblue" d="M516.9,-275.88C471.3,-253.08 378.65,-206.75 340.33,-187.59"/>
<polygon fill="midnightblue" stroke="midnightblue" points="515.37,-279.03 525.88,-280.37 518.5,-272.77 515.37,-279.03"/>
</g>
<!-- Node5 -->
<g id="node5" class="node">
<title>Node5</title>
<g id="a_node5"><a xlink:href="router_8hpp.html" target="_top" xlink:title=" ">
<polygon fill="none" stroke="black" points="55.15,-168.5 55.15,-187.5 201.15,-187.5 201.15,-168.5 55.15,-168.5"/>
<text text-anchor="middle" x="128.15" y="-175.5" font-family="Helvetica,sans-Serif" font-size="10.00">include/roar/routing/router.hpp</text>
</a>
</g>
</g>
<!-- Node1&#45;&gt;Node5 -->
<g id="edge4" class="edge">
<title>Node1&#45;&gt;Node5</title>
<path fill="none" stroke="midnightblue" d="M501.07,-277.85C418.03,-255.84 234.64,-207.23 160.34,-187.53"/>
<polygon fill="midnightblue" stroke="midnightblue" points="500.36,-281.28 510.93,-280.46 502.16,-274.51 500.36,-281.28"/>
</g>
<!-- Node8 -->
<g id="node8" class="node">
<title>Node8</title>
<g id="a_node8"><a xlink:href="factory_8hpp.html" target="_top" xlink:title=" ">
<polygon fill="none" stroke="black" points="589.65,-168.5 589.65,-187.5 744.65,-187.5 744.65,-168.5 589.65,-168.5"/>
<text text-anchor="middle" x="667.15" y="-175.5" font-family="Helvetica,sans-Serif" font-size="10.00">include/roar/session/factory.hpp</text>
</a>
</g>
</g>
<!-- Node1&#45;&gt;Node8 -->
<g id="edge8" class="edge">
<title>Node1&#45;&gt;Node8</title>
<path fill="none" stroke="midnightblue" d="M560.61,-273.51C587.1,-250.01 636.59,-206.11 657.46,-187.59"/>
<polygon fill="midnightblue" stroke="midnightblue" points="558.03,-271.11 552.88,-280.37 562.68,-276.35 558.03,-271.11"/>
</g>
<!-- Node10 -->
<g id="node10" class="node">
<title>Node10</title>
<g id="a_node10"><a xlink:href="session_8hpp.html" target="_top" xlink:title=" ">
<polygon fill="none" stroke="black" points="412.65,-168.5 412.65,-187.5 571.65,-187.5 571.65,-168.5 412.65,-168.5"/>
<text text-anchor="middle" x="492.15" y="-175.5" font-family="Helvetica,sans-Serif" font-size="10.00">include/roar/session/session.hpp</text>
</a>
</g>
</g>
<!-- Node1&#45;&gt;Node10 -->
<g id="edge11" class="edge">
<title>Node1&#45;&gt;Node10</title>
<path fill="none" stroke="midnightblue" d="M534.8,-271C523.67,-247 504.42,-205.47 496.13,-187.59"/>
<polygon fill="midnightblue" stroke="midnightblue" points="531.76,-272.77 539.14,-280.37 538.11,-269.82 531.76,-272.77"/>
</g>
<!-- Node22 -->
<g id="node22" class="node">
<title>Node22</title>
<g id="a_node22"><a xlink:href="websocket__client_8hpp.html" target="_top" xlink:title=" ">
<polygon fill="none" stroke="black" points="1007.65,-224.5 1007.65,-243.5 1222.65,-243.5 1222.65,-224.5 1007.65,-224.5"/>
<text text-anchor="middle" x="1115.15" y="-231.5" font-family="Helvetica,sans-Serif" font-size="10.00">include/roar/websocket/websocket_client.hpp</text>
</a>
</g>
</g>
<!-- Node1&#45;&gt;Node22 -->
<g id="edge35" class="edge">
<title>Node1&#45;&gt;Node22</title>
<path fill="none" stroke="midnightblue" d="M643.7,-279.51C751.52,-269.33 921.14,-253.32 1024.83,-243.53"/>
<polygon fill="midnightblue" stroke="midnightblue" points="643.09,-276.05 633.47,-280.47 643.75,-283.02 643.09,-276.05"/>
</g>
<!-- Node24 -->
<g id="node24" class="node">
<title>Node24</title>
<g id="a_node24"><a xlink:href="websocket__session_8hpp.html" target="_top" xlink:title=" ">
<polygon fill="none" stroke="black" points="722.65,-224.5 722.65,-243.5 947.65,-243.5 947.65,-224.5 722.65,-224.5"/>
<text text-anchor="middle" x="835.15" y="-231.5" font-family="Helvetica,sans-Serif" font-size="10.00">include/roar/websocket/websocket_session.hpp</text>
</a>
</g>
</g>
<!-- Node1&#45;&gt;Node24 -->
<g id="edge37" class="edge">
<title>Node1&#45;&gt;Node24</title>
<path fill="none" stroke="midnightblue" d="M599.38,-278.6C654.56,-268.4 737.71,-253.02 789.09,-243.52"/>
<polygon fill="midnightblue" stroke="midnightblue" points="598.61,-275.18 589.41,-280.44 599.88,-282.07 598.61,-275.18"/>
</g>
<!-- Node3 -->
<g id="node3" class="node">
<title>Node3</title>
<g id="a_node3"><a xlink:href="route_8cpp.html" target="_top" xlink:title=" ">
<polygon fill="none" stroke="black" points="321.65,-112.5 321.65,-131.5 446.65,-131.5 446.65,-112.5 321.65,-112.5"/>
<text text-anchor="middle" x="384.15" y="-119.5" font-family="Helvetica,sans-Serif" font-size="10.00">src/roar/routing/route.cpp</text>
</a>
</g>
</g>
<!-- Node2&#45;&gt;Node3 -->
<g id="edge2" class="edge">
<title>Node2&#45;&gt;Node3</title>
<path fill="none" stroke="midnightblue" d="M340.61,-161.54C351.49,-151.91 365.09,-139.87 374.17,-131.83"/>
<polygon fill="midnightblue" stroke="midnightblue" points="338.11,-159.07 332.95,-168.32 342.75,-164.32 338.11,-159.07"/>
</g>
<!-- Node4 -->
<g id="node4" class="node">
<title>Node4</title>
<g id="a_node4"><a xlink:href="router_8cpp.html" target="_top" xlink:title=" ">
<polygon fill="none" stroke="black" points="15.15,-112.5 15.15,-131.5 143.15,-131.5 143.15,-112.5 15.15,-112.5"/>
<text text-anchor="middle" x="79.15" y="-119.5" font-family="Helvetica,sans-Serif" font-size="10.00">src/roar/routing/router.cpp</text>
</a>
</g>
</g>
<!-- Node2&#45;&gt;Node4 -->
<g id="edge3" class="edge">
<title>Node2&#45;&gt;Node4</title>
<path fill="none" stroke="midnightblue" d="M274.71,-166.28C228.6,-156.08 160.12,-140.92 117.63,-131.52"/>
<polygon fill="midnightblue" stroke="midnightblue" points="273.96,-169.7 284.48,-168.44 275.48,-162.87 273.96,-169.7"/>
</g>
<!-- Node5&#45;&gt;Node4 -->
<g id="edge5" class="edge">
<title>Node5&#45;&gt;Node4</title>
<path fill="none" stroke="midnightblue" d="M113.11,-160.43C104.52,-150.97 94.1,-139.48 87.09,-131.75"/>
<polygon fill="midnightblue" stroke="midnightblue" points="110.74,-163.03 120.05,-168.08 115.93,-158.33 110.74,-163.03"/>
</g>
<!-- Node6 -->
<g id="node6" class="node">
<title>Node6</title>
<g id="a_node6"><a xlink:href="server_8cpp.html" target="_top" xlink:title=" ">
<polygon fill="none" stroke="black" points="409.15,-0.5 409.15,-19.5 507.15,-19.5 507.15,-0.5 409.15,-0.5"/>
<text text-anchor="middle" x="458.15" y="-7.5" font-family="Helvetica,sans-Serif" font-size="10.00">src/roar/server.cpp</text>
</a>
</g>
</g>
<!-- Node5&#45;&gt;Node6 -->
<g id="edge6" class="edge">
<title>Node5&#45;&gt;Node6</title>
<path fill="none" stroke="midnightblue" d="M66.6,-166.17C26.17,-156.3 -15.55,-139.08 6.15,-112 56.3,-49.41 302.78,-23.03 409.14,-14.44"/>
<polygon fill="midnightblue" stroke="midnightblue" points="66.01,-169.62 76.54,-168.46 67.58,-162.8 66.01,-169.62"/>
</g>
<!-- Node7 -->
<g id="node7" class="node">
<title>Node7</title>
<g id="a_node7"><a xlink:href="session_8cpp.html" target="_top" xlink:title=" ">
<polygon fill="none" stroke="black" points="161.15,-112.5 161.15,-131.5 303.15,-131.5 303.15,-112.5 161.15,-112.5"/>
<text text-anchor="middle" x="232.15" y="-119.5" font-family="Helvetica,sans-Serif" font-size="10.00">src/roar/session/session.cpp</text>
</a>
</g>
</g>
<!-- Node5&#45;&gt;Node7 -->
<g id="edge7" class="edge">
<title>Node5&#45;&gt;Node7</title>
<path fill="none" stroke="midnightblue" d="M153.97,-163.59C173.2,-153.61 198.89,-140.27 215.48,-131.65"/>
<polygon fill="midnightblue" stroke="midnightblue" points="152.12,-160.61 144.86,-168.32 155.34,-166.82 152.12,-160.61"/>
</g>
<!-- Node8&#45;&gt;Node6 -->
<g id="edge9" class="edge">
<title>Node8&#45;&gt;Node6</title>
<path fill="none" stroke="midnightblue" d="M679.94,-159.84C688.53,-146.04 696.68,-126.63 687.15,-112 664.07,-76.6 543.87,-36.69 487.45,-19.56"/>
<polygon fill="midnightblue" stroke="midnightblue" points="676.87,-158.12 674.13,-168.36 682.66,-162.06 676.87,-158.12"/>
</g>
<!-- Node9 -->
<g id="node9" class="node">
<title>Node9</title>
<g id="a_node9"><a xlink:href="factory_8cpp.html" target="_top" xlink:title=" ">
<polygon fill="none" stroke="black" points="541.65,-112.5 541.65,-131.5 678.65,-131.5 678.65,-112.5 541.65,-112.5"/>
<text text-anchor="middle" x="610.15" y="-119.5" font-family="Helvetica,sans-Serif" font-size="10.00">src/roar/session/factory.cpp</text>
</a>
</g>
</g>
<!-- Node8&#45;&gt;Node9 -->
<g id="edge10" class="edge">
<title>Node8&#45;&gt;Node9</title>
<path fill="none" stroke="midnightblue" d="M650.52,-161.25C640.41,-151.67 627.87,-139.79 619.47,-131.83"/>
<polygon fill="midnightblue" stroke="midnightblue" points="648.32,-163.99 657.99,-168.32 653.14,-158.91 648.32,-163.99"/>
</g>
<!-- Node10&#45;&gt;Node3 -->
<g id="edge30" class="edge">
<title>Node10&#45;&gt;Node3</title>
<path fill="none" stroke="midnightblue" d="M465.6,-163.73C445.6,-153.73 418.76,-140.31 401.45,-131.65"/>
<polygon fill="midnightblue" stroke="midnightblue" points="464.28,-166.98 474.79,-168.32 467.41,-160.72 464.28,-166.98"/>
</g>
<!-- Node10&#45;&gt;Node4 -->
<g id="edge31" class="edge">
<title>Node10&#45;&gt;Node4</title>
<path fill="none" stroke="midnightblue" d="M416.42,-167.1C338.07,-156.85 217.04,-141.03 143.26,-131.38"/>
<polygon fill="midnightblue" stroke="midnightblue" points="416.34,-170.62 426.7,-168.44 417.24,-163.68 416.34,-170.62"/>
</g>
<!-- Node10&#45;&gt;Node6 -->
<g id="edge32" class="edge">
<title>Node10&#45;&gt;Node6</title>
<path fill="none" stroke="midnightblue" d="M488.24,-157.93C480.86,-121.92 465.16,-45.23 459.9,-19.57"/>
<polygon fill="midnightblue" stroke="midnightblue" points="484.88,-158.98 490.32,-168.08 491.74,-157.58 484.88,-158.98"/>
</g>
<!-- Node10&#45;&gt;Node7 -->
<g id="edge34" class="edge">
<title>Node10&#45;&gt;Node7</title>
<path fill="none" stroke="midnightblue" d="M441.16,-166.41C392.02,-156.2 318.62,-140.96 273.15,-131.52"/>
<polygon fill="midnightblue" stroke="midnightblue" points="440.45,-169.84 450.95,-168.44 441.87,-162.98 440.45,-169.84"/>
</g>
<!-- Node10&#45;&gt;Node9 -->
<g id="edge33" class="edge">
<title>Node10&#45;&gt;Node9</title>
<path fill="none" stroke="midnightblue" d="M520.05,-164.23C542.12,-154.13 572.32,-140.31 591.54,-131.52"/>
<polygon fill="midnightblue" stroke="midnightblue" points="518.48,-161.1 510.84,-168.44 521.39,-167.46 518.48,-161.1"/>
</g>
<!-- Node11 -->
<g id="node11" class="node">
<title>Node11</title>
<g id="a_node11"><a xlink:href="include_2roar_2routing_2request__listener_8hpp.html" target="_top" xlink:title=" ">
<polygon fill="none" stroke="black" points="815.15,-112.5 815.15,-131.5 1005.15,-131.5 1005.15,-112.5 815.15,-112.5"/>
<text text-anchor="middle" x="910.15" y="-119.5" font-family="Helvetica,sans-Serif" font-size="10.00">include/roar/routing/request_listener.hpp</text>
</a>
</g>
</g>
<!-- Node10&#45;&gt;Node11 -->
<g id="edge12" class="edge">
<title>Node10&#45;&gt;Node11</title>
<path fill="none" stroke="midnightblue" d="M568.74,-167.1C647.68,-156.91 769.45,-141.18 844.22,-131.52"/>
<polygon fill="midnightblue" stroke="midnightblue" points="567.85,-163.69 558.38,-168.44 568.75,-170.63 567.85,-163.69"/>
</g>
<!-- Node19 -->
<g id="node19" class="node">
<title>Node19</title>
<g id="a_node19"><a xlink:href="server_8hpp.html" target="_top" xlink:title=" ">
<polygon fill="none" stroke="black" points="651.15,-56.5 651.15,-75.5 767.15,-75.5 767.15,-56.5 651.15,-56.5"/>
<text text-anchor="middle" x="709.15" y="-63.5" font-family="Helvetica,sans-Serif" font-size="10.00">include/roar/server.hpp</text>
</a>
</g>
</g>
<!-- Node10&#45;&gt;Node19 -->
<g id="edge29" class="edge">
<title>Node10&#45;&gt;Node19</title>
<path fill="none" stroke="midnightblue" d="M498.85,-158.76C505.2,-143.98 516.17,-123.75 532.15,-112 566.63,-86.64 613.97,-75.51 651.01,-70.66"/>
<polygon fill="midnightblue" stroke="midnightblue" points="495.47,-157.77 495.03,-168.35 501.98,-160.35 495.47,-157.77"/>
</g>
<!-- Node12 -->
<g id="node12" class="node">
<title>Node12</title>
<g id="a_node12"><a xlink:href="request__listener_2main_8cpp.html" target="_top" xlink:title=" ">
<polygon fill="none" stroke="black" points="823.65,-56.5 823.65,-75.5 996.65,-75.5 996.65,-56.5 823.65,-56.5"/>
<text text-anchor="middle" x="910.15" y="-63.5" font-family="Helvetica,sans-Serif" font-size="10.00">examples/request_listener/main.cpp</text>
</a>
</g>
</g>
<!-- Node11&#45;&gt;Node12 -->
<g id="edge13" class="edge">
<title>Node11&#45;&gt;Node12</title>
<path fill="none" stroke="midnightblue" d="M910.15,-101.8C910.15,-92.91 910.15,-82.78 910.15,-75.75"/>
<polygon fill="midnightblue" stroke="midnightblue" points="906.65,-102.08 910.15,-112.08 913.65,-102.08 906.65,-102.08"/>
</g>
<!-- Node13 -->
<g id="node13" class="node">
<title>Node13</title>
<g id="a_node13"><a xlink:href="simple__server_2main_8cpp.html" target="_top" xlink:title=" ">
<polygon fill="none" stroke="black" points="899.65,-0.5 899.65,-19.5 1064.65,-19.5 1064.65,-0.5 899.65,-0.5"/>
<text text-anchor="middle" x="982.15" y="-7.5" font-family="Helvetica,sans-Serif" font-size="10.00">examples/simple_server/main.cpp</text>
</a>
</g>
</g>
<!-- Node11&#45;&gt;Node13 -->
<g id="edge14" class="edge">
<title>Node11&#45;&gt;Node13</title>
<path fill="none" stroke="midnightblue" d="M961.16,-109.13C978.47,-102.4 995.98,-91.99 1006.15,-76 1017.89,-57.52 1000.81,-32.47 989.95,-19.52"/>
<polygon fill="midnightblue" stroke="midnightblue" points="959.88,-105.87 951.62,-112.5 962.21,-112.47 959.88,-105.87"/>
</g>
<!-- Node14 -->
<g id="node14" class="node">
<title>Node14</title>
<g id="a_node14"><a xlink:href="examples_2simple__server_2request__listener_8hpp.html" target="_top" xlink:title=" ">
<polygon fill="none" stroke="black" points="1053.65,-56.5 1053.65,-75.5 1266.65,-75.5 1266.65,-56.5 1053.65,-56.5"/>
<text text-anchor="middle" x="1160.15" y="-63.5" font-family="Helvetica,sans-Serif" font-size="10.00">examples/simple_server/request_listener.hpp</text>
</a>
</g>
</g>
<!-- Node11&#45;&gt;Node14 -->
<g id="edge15" class="edge">
<title>Node11&#45;&gt;Node14</title>
<path fill="none" stroke="midnightblue" d="M959.77,-110.28C1007.01,-100.08 1077.18,-84.92 1120.72,-75.52"/>
<polygon fill="midnightblue" stroke="midnightblue" points="958.79,-106.91 949.76,-112.44 960.27,-113.75 958.79,-106.91"/>
</g>
<!-- Node16 -->
<g id="node16" class="node">
<title>Node16</title>
<g id="a_node16"><a xlink:href="websocket_2main_8cpp.html" target="_top" xlink:title=" ">
<polygon fill="none" stroke="black" points="1314.15,-0.5 1314.15,-19.5 1466.15,-19.5 1466.15,-0.5 1314.15,-0.5"/>
<text text-anchor="middle" x="1390.15" y="-7.5" font-family="Helvetica,sans-Serif" font-size="10.00">examples/websocket/main.cpp</text>
</a>
</g>
</g>
<!-- Node11&#45;&gt;Node16 -->
<g id="edge18" class="edge">
<title>Node11&#45;&gt;Node16</title>
<path fill="none" stroke="midnightblue" d="M1003.74,-111.43C1103.59,-100.91 1250.85,-84.39 1276.15,-76 1286.69,-72.5 1347.31,-36.62 1375.61,-19.72"/>
<polygon fill="midnightblue" stroke="midnightblue" points="1003.21,-107.96 993.63,-112.49 1003.94,-114.93 1003.21,-107.96"/>
</g>
<!-- Node17 -->
<g id="node17" class="node">
<title>Node17</title>
<g id="a_node17"><a xlink:href="examples_2websocket_2request__listener_8hpp.html" target="_top" xlink:title=" ">
<polygon fill="none" stroke="black" points="1323.15,-56.5 1323.15,-75.5 1523.15,-75.5 1523.15,-56.5 1323.15,-56.5"/>
<text text-anchor="middle" x="1423.15" y="-63.5" font-family="Helvetica,sans-Serif" font-size="10.00">examples/websocket/request_listener.hpp</text>
</a>
</g>
</g>
<!-- Node11&#45;&gt;Node17 -->
<g id="edge19" class="edge">
<title>Node11&#45;&gt;Node17</title>
<path fill="none" stroke="midnightblue" d="M1001.21,-111.41C1097.94,-101.23 1249.43,-85.29 1342.14,-75.53"/>
<polygon fill="midnightblue" stroke="midnightblue" points="1000.73,-107.95 991.15,-112.47 1001.46,-114.91 1000.73,-107.95"/>
</g>
<!-- Node11&#45;&gt;Node19 -->
<g id="edge22" class="edge">
<title>Node11&#45;&gt;Node19</title>
<path fill="none" stroke="midnightblue" d="M868.57,-109.83C830.61,-99.63 775.34,-84.78 740.85,-75.52"/>
<polygon fill="midnightblue" stroke="midnightblue" points="867.73,-113.23 878.3,-112.44 869.55,-106.47 867.73,-113.23"/>
</g>
<!-- Node21 -->
<g id="node21" class="node">
<title>Node21</title>
<g id="a_node21"><a xlink:href="src_2roar_2routing_2request__listener_8cpp.html" target="_top" xlink:title=" ">
<polygon fill="none" stroke="black" points="708.65,-0.5 708.65,-19.5 881.65,-19.5 881.65,-0.5 708.65,-0.5"/>
<text text-anchor="middle" x="795.15" y="-7.5" font-family="Helvetica,sans-Serif" font-size="10.00">src/roar/routing/request_listener.cpp</text>
</a>
</g>
</g>
<!-- Node11&#45;&gt;Node21 -->
<g id="edge28" class="edge">
<title>Node11&#45;&gt;Node21</title>
<path fill="none" stroke="midnightblue" d="M866.18,-108.86C848.16,-101.88 828.45,-91.37 815.15,-76 800.93,-59.57 796.82,-33.18 795.63,-19.63"/>
<polygon fill="midnightblue" stroke="midnightblue" points="865.37,-112.29 875.97,-112.37 867.74,-105.7 865.37,-112.29"/>
</g>
<!-- Node14&#45;&gt;Node13 -->
<g id="edge16" class="edge">
<title>Node14&#45;&gt;Node13</title>
<path fill="none" stroke="midnightblue" d="M1122.03,-53.44C1088.47,-43.26 1040.37,-28.66 1010.22,-19.52"/>
<polygon fill="midnightblue" stroke="midnightblue" points="1121.36,-56.89 1131.94,-56.44 1123.39,-50.19 1121.36,-56.89"/>
</g>
<!-- Node15 -->
<g id="node15" class="node">
<title>Node15</title>
<g id="a_node15"><a xlink:href="examples_2simple__server_2request__listener_8cpp.html" target="_top" xlink:title=" ">
<polygon fill="none" stroke="black" points="1082.65,-0.5 1082.65,-19.5 1295.65,-19.5 1295.65,-0.5 1082.65,-0.5"/>
<text text-anchor="middle" x="1189.15" y="-7.5" font-family="Helvetica,sans-Serif" font-size="10.00">examples/simple_server/request_listener.cpp</text>
</a>
</g>
</g>
<!-- Node14&#45;&gt;Node15 -->
<g id="edge17" class="edge">
<title>Node14&#45;&gt;Node15</title>
<path fill="none" stroke="midnightblue" d="M1169.82,-46.98C1174.74,-37.82 1180.5,-27.09 1184.45,-19.75"/>
<polygon fill="midnightblue" stroke="midnightblue" points="1166.58,-45.62 1164.93,-56.08 1172.75,-48.93 1166.58,-45.62"/>
</g>
<!-- Node17&#45;&gt;Node16 -->
<g id="edge20" class="edge">
<title>Node17&#45;&gt;Node16</title>
<path fill="none" stroke="midnightblue" d="M1412.31,-47.27C1406.67,-38.05 1400.03,-27.17 1395.49,-19.75"/>
<polygon fill="midnightblue" stroke="midnightblue" points="1409.5,-49.38 1417.7,-56.08 1415.47,-45.73 1409.5,-49.38"/>
</g>
<!-- Node18 -->
<g id="node18" class="node">
<title>Node18</title>
<g id="a_node18"><a xlink:href="examples_2websocket_2request__listener_8cpp.html" target="_top" xlink:title=" ">
<polygon fill="none" stroke="black" points="1484.15,-0.5 1484.15,-19.5 1684.15,-19.5 1684.15,-0.5 1484.15,-0.5"/>
<text text-anchor="middle" x="1584.15" y="-7.5" font-family="Helvetica,sans-Serif" font-size="10.00">examples/websocket/request_listener.cpp</text>
</a>
</g>
</g>
<!-- Node17&#45;&gt;Node18 -->
<g id="edge21" class="edge">
<title>Node17&#45;&gt;Node18</title>
<path fill="none" stroke="midnightblue" d="M1458.41,-53.17C1488.73,-43 1531.72,-28.59 1558.75,-19.52"/>
<polygon fill="midnightblue" stroke="midnightblue" points="1457.02,-49.95 1448.66,-56.44 1459.25,-56.58 1457.02,-49.95"/>
</g>
<!-- Node19&#45;&gt;Node6 -->
<g id="edge27" class="edge">
<title>Node19&#45;&gt;Node6</title>
<path fill="none" stroke="midnightblue" d="M659.32,-54.28C611.89,-44.08 541.44,-28.92 497.73,-19.52"/>
<polygon fill="midnightblue" stroke="midnightblue" points="658.86,-57.76 669.37,-56.44 660.33,-50.92 658.86,-57.76"/>
</g>
<!-- Node19&#45;&gt;Node13 -->
<g id="edge24" class="edge">
<title>Node19&#45;&gt;Node13</title>
<path fill="none" stroke="midnightblue" d="M762.36,-54.47C813.96,-44.27 891.25,-28.98 939.09,-19.52"/>
<polygon fill="midnightblue" stroke="midnightblue" points="761.53,-51.07 752.4,-56.44 762.89,-57.94 761.53,-51.07"/>
</g>
<!-- Node19&#45;&gt;Node16 -->
<g id="edge25" class="edge">
<title>Node19&#45;&gt;Node16</title>
<path fill="none" stroke="midnightblue" d="M777.18,-59.11C789.8,-58.05 802.87,-56.97 815.15,-56 1032.83,-38.76 1087.65,-39.5 1305.15,-20 1307.95,-19.75 1310.81,-19.48 1313.7,-19.21"/>
<polygon fill="midnightblue" stroke="midnightblue" points="776.85,-55.62 767.18,-59.95 777.44,-62.6 776.85,-55.62"/>
</g>
<!-- Node20 -->
<g id="node20" class="node">
<title>Node20</title>
<g id="a_node20"><a xlink:href="most__minimal_2main_8cpp.html" target="_top" xlink:title=" ">
<polygon fill="none" stroke="black" points="525.65,-0.5 525.65,-19.5 690.65,-19.5 690.65,-0.5 525.65,-0.5"/>
<text text-anchor="middle" x="608.15" y="-7.5" font-family="Helvetica,sans-Serif" font-size="10.00">examples/most_minimal/main.cpp</text>
</a>
</g>
</g>
<!-- Node19&#45;&gt;Node20 -->
<g id="edge23" class="edge">
<title>Node19&#45;&gt;Node20</title>
<path fill="none" stroke="midnightblue" d="M684.06,-51.59C665.39,-41.61 640.44,-28.27 624.33,-19.65"/>
<polygon fill="midnightblue" stroke="midnightblue" points="682.45,-54.7 692.92,-56.32 685.75,-48.52 682.45,-54.7"/>
</g>
<!-- Node19&#45;&gt;Node21 -->
<g id="edge26" class="edge">
<title>Node19&#45;&gt;Node21</title>
<path fill="none" stroke="midnightblue" d="M731.6,-50.9C747.37,-41 767.96,-28.07 781.36,-19.65"/>
<polygon fill="midnightblue" stroke="midnightblue" points="729.57,-48.04 722.96,-56.32 733.29,-53.97 729.57,-48.04"/>
</g>
<!-- Node23 -->
<g id="node23" class="node">
<title>Node23</title>
<g id="a_node23"><a xlink:href="websocket__client_8cpp.html" target="_top" xlink:title=" ">
<polygon fill="none" stroke="black" points="1061.65,-168.5 1061.65,-187.5 1258.65,-187.5 1258.65,-168.5 1061.65,-168.5"/>
<text text-anchor="middle" x="1160.15" y="-175.5" font-family="Helvetica,sans-Serif" font-size="10.00">src/roar/websocket/websocket_client.cpp</text>
</a>
</g>
</g>
<!-- Node22&#45;&gt;Node23 -->
<g id="edge36" class="edge">
<title>Node22&#45;&gt;Node23</title>
<path fill="none" stroke="midnightblue" d="M1129.19,-216.14C1137.03,-206.74 1146.48,-195.4 1152.85,-187.75"/>
<polygon fill="midnightblue" stroke="midnightblue" points="1126.29,-214.16 1122.58,-224.08 1131.67,-218.64 1126.29,-214.16"/>
</g>
<!-- Node24&#45;&gt;Node10 -->
<g id="edge39" class="edge">
<title>Node24&#45;&gt;Node10</title>
<path fill="none" stroke="midnightblue" d="M770.7,-222.85C705.89,-212.65 607.1,-197.1 546.24,-187.52"/>
<polygon fill="midnightblue" stroke="midnightblue" points="770.37,-226.35 780.8,-224.44 771.46,-219.43 770.37,-226.35"/>
</g>
<!-- Node24&#45;&gt;Node17 -->
<g id="edge38" class="edge">
<title>Node24&#45;&gt;Node17</title>
<path fill="none" stroke="midnightblue" d="M872.79,-221.48C916.19,-208.28 989.69,-186.12 1053.15,-168 1177.68,-132.44 1326.56,-92.61 1390.91,-75.53"/>
<polygon fill="midnightblue" stroke="midnightblue" points="871.51,-218.22 862.96,-224.48 873.55,-224.91 871.51,-218.22"/>
</g>
<!-- Node25 -->
<g id="node25" class="node">
<title>Node25</title>
<g id="a_node25"><a xlink:href="websocket__session_8cpp.html" target="_top" xlink:title=" ">
<polygon fill="none" stroke="black" points="763.15,-168.5 763.15,-187.5 971.15,-187.5 971.15,-168.5 763.15,-168.5"/>
<text text-anchor="middle" x="867.15" y="-175.5" font-family="Helvetica,sans-Serif" font-size="10.00">src/roar/websocket/websocket_session.cpp</text>
</a>
</g>
</g>
<!-- Node24&#45;&gt;Node25 -->
<g id="edge40" class="edge">
<title>Node24&#45;&gt;Node25</title>
<path fill="none" stroke="midnightblue" d="M845.65,-215.27C851.12,-206.05 857.56,-195.17 861.96,-187.75"/>
<polygon fill="midnightblue" stroke="midnightblue" points="842.52,-213.7 840.43,-224.08 848.54,-217.26 842.52,-213.7"/>
</g>
</g>
</svg>
