<?xml version="1.0" encoding="UTF-8" standalone="no"?>
<!DOCTYPE svg PUBLIC "-//W3C//DTD SVG 1.1//EN"
 "http://www.w3.org/Graphics/SVG/1.1/DTD/svg11.dtd">
<!-- Generated by graphviz version 8.1.0 (0)
 -->
<!-- Title: include/roar/detail/pimpl_special_functions.hpp Pages: 1 -->
<!--zoomable 364 -->

<svg id="main" version="1.1" xmlns="http://www.w3.org/2000/svg" xmlns:xlink="http://www.w3.org/1999/xlink" xml:space="preserve" onload="init(evt)">
<style type="text/css"><![CDATA[
.node, .edge {opacity: 0.7;}
.node.selected, .edge.selected {opacity: 1;}
.edge:hover path { stroke: red; }
.edge:hover polygon { stroke: red; fill: red; }
]]></style>

<defs>
  <circle id="rim" cx="0" cy="0" r="7"/>
  <circle id="rim2" cx="0" cy="0" r="3.5"/>
  <g id="zoomPlus">
    <use xlink:href="#rim" fill="#404040"><set attributeName="fill" to="#808080" begin="zoomplus.mouseover" end="zoomplus.mouseout"/></use>
    <path d="M-4,0h8M0,-4v8" fill="none" stroke="white" stroke-width="1.5" pointer-events="none"/>
  </g>
  <g id="zoomMin">
    <use xlink:href="#rim" fill="#404040"><set attributeName="fill" to="#808080" begin="zoomminus.mouseover" end="zoomminus.mouseout"/></use>
    <path d="M-4,0h8" fill="none" stroke="white" stroke-width="1.5" pointer-events="none"/>
  </g>
  <g id="arrowUp" transform="translate(30 24)">
    <use xlink:href="#rim"/>
    <path pointer-events="none" fill="none" stroke="white" stroke-width="1.5" d="M0,-3.0v7 M-2.5,-0.5L0,-3.0L2.5,-0.5"/>
  </g>
  <g id="arrowRight" transform="rotate(90) translate(36 -43)">
    <use xlink:href="#rim"/>
    <path pointer-events="none" fill="none" stroke="white" stroke-width="1.5" d="M0,-3.0v7 M-2.5,-0.5L0,-3.0L2.5,-0.5"/>
  </g>
  <g id="arrowDown" transform="rotate(180) translate(-30 -48)">
    <use xlink:href="#rim"/>
    <path pointer-events="none" fill="none" stroke="white" stroke-width="1.5" d="M0,-3.0v7 M-2.5,-0.5L0,-3.0L2.5,-0.5"/>
  </g>
  <g id="arrowLeft" transform="rotate(270) translate(-36 17)">
    <use xlink:href="#rim"/>
    <path pointer-events="none" fill="none" stroke="white" stroke-width="1.5" d="M0,-3.0v7 M-2.5,-0.5L0,-3.0L2.5,-0.5"/>
  </g>
  <g id="resetDef">
    <use xlink:href="#rim2" fill="#404040"><set attributeName="fill" to="#808080" begin="reset.mouseover" end="reset.mouseout"/></use>
  </g>
</defs>
<script type="application/ecmascript">
var viewWidth = 2286;
var viewHeight = 364;
var sectionId = 'dynsection-0';
</script>
<script type="application/ecmascript" xlink:href="svg.min.js"/>
<svg id="graph" class="graph">
<g id="viewport">
<title>include/roar/detail/pimpl_special_functions.hpp</title>
<!-- Node1 -->
<g id="Node000001" class="node">
<title>Node1</title>
<g id="a_Node000001"><a xlink:title=" ">
<polygon fill="#999999" stroke="#666666" points="622.25,-356 403.75,-356 403.75,-336 622.25,-336 622.25,-356"/>
<text text-anchor="middle" x="513" y="-342.5" font-family="Helvetica,sans-Serif" font-size="10.00">include/roar/detail/pimpl_special_functions.hpp</text>
</a>
</g>
</g>
<!-- Node2 -->
<g id="Node000002" class="node">
<title>Node2</title>
<g id="a_Node000002"><a xlink:href="client_8hpp.html" target="_top" xlink:title=" ">
<polygon fill="white" stroke="#666666" points="141.62,-300 30.38,-300 30.38,-280 141.62,-280 141.62,-300"/>
<text text-anchor="middle" x="86" y="-286.5" font-family="Helvetica,sans-Serif" font-size="10.00">include/roar/client.hpp</text>
</a>
</g>
</g>
<!-- Node1&#45;&gt;Node2 -->
<g id="edge1_Node000001_Node000002" class="edge">
<title>Node1&#45;&gt;Node2</title>
<g id="a_edge1_Node000001_Node000002"><a xlink:title=" ">
<path fill="none" stroke="#63b8ff" d="M427.48,-334.18C342.55,-323.44 214.81,-307.29 142.04,-298.09"/>
<polygon fill="#63b8ff" stroke="#63b8ff" points="426.77,-337.75 437.13,-335.53 427.65,-330.81 426.77,-337.75"/>
</a>
</g>
</g>
<!-- Node4 -->
<g id="Node000004" class="node">
<title>Node4</title>
<g id="a_Node000004"><a xlink:href="route_8hpp.html" target="_top" xlink:title=" ">
<polygon fill="white" stroke="#666666" points="418,-244 276,-244 276,-224 418,-224 418,-244"/>
<text text-anchor="middle" x="347" y="-230.5" font-family="Helvetica,sans-Serif" font-size="10.00">include/roar/routing/route.hpp</text>
</a>
</g>
</g>
<!-- Node1&#45;&gt;Node4 -->
<g id="edge3_Node000001_Node000004" class="edge">
<title>Node1&#45;&gt;Node4</title>
<g id="a_edge3_Node000001_Node000004"><a xlink:title=" ">
<path fill="none" stroke="#63b8ff" d="M489.85,-329.66C454.91,-306.51 389.75,-263.33 361.12,-244.35"/>
<polygon fill="#63b8ff" stroke="#63b8ff" points="487.58,-333.02 497.85,-335.62 491.44,-327.18 487.58,-333.02"/>
</a>
</g>
</g>
<!-- Node7 -->
<g id="Node000007" class="node">
<title>Node7</title>
<g id="a_Node000007"><a xlink:href="router_8hpp.html" target="_top" xlink:title=" ">
<polygon fill="white" stroke="#666666" points="257.5,-244 112.5,-244 112.5,-224 257.5,-224 257.5,-244"/>
<text text-anchor="middle" x="185" y="-230.5" font-family="Helvetica,sans-Serif" font-size="10.00">include/roar/routing/router.hpp</text>
</a>
</g>
</g>
<!-- Node1&#45;&gt;Node7 -->
<g id="edge6_Node000001_Node000007" class="edge">
<title>Node1&#45;&gt;Node7</title>
<g id="a_edge6_Node000001_Node000007"><a xlink:title=" ">
<path fill="none" stroke="#63b8ff" d="M474.67,-332.14C408,-309.79 272.19,-264.24 213.3,-244.49"/>
<polygon fill="#63b8ff" stroke="#63b8ff" points="473.16,-335.66 483.75,-335.53 475.38,-329.03 473.16,-335.66"/>
</a>
</g>
</g>
<!-- Node10 -->
<g id="Node000010" class="node">
<title>Node10</title>
<g id="a_Node000010"><a xlink:href="factory_8hpp.html" target="_top" xlink:title=" ">
<polygon fill="white" stroke="#666666" points="590,-244 436,-244 436,-224 590,-224 590,-244"/>
<text text-anchor="middle" x="513" y="-230.5" font-family="Helvetica,sans-Serif" font-size="10.00">include/roar/session/factory.hpp</text>
</a>
</g>
</g>
<!-- Node1&#45;&gt;Node10 -->
<g id="edge10_Node000001_Node000010" class="edge">
<title>Node1&#45;&gt;Node10</title>
<g id="a_edge10_Node000001_Node000010"><a xlink:title=" ">
<path fill="none" stroke="#63b8ff" d="M513,-324.64C513,-300.72 513,-262.03 513,-244.35"/>
<polygon fill="#63b8ff" stroke="#63b8ff" points="509.5,-324.62 513,-334.62 516.5,-324.62 509.5,-324.62"/>
</a>
</g>
</g>
<!-- Node12 -->
<g id="Node000012" class="node">
<title>Node12</title>
<g id="a_Node000012"><a xlink:href="session_8hpp.html" target="_top" xlink:title=" ">
<polygon fill="white" stroke="#666666" points="981.25,-244 822.75,-244 822.75,-224 981.25,-224 981.25,-244"/>
<text text-anchor="middle" x="902" y="-230.5" font-family="Helvetica,sans-Serif" font-size="10.00">include/roar/session/session.hpp</text>
</a>
</g>
</g>
<!-- Node1&#45;&gt;Node12 -->
<g id="edge13_Node000001_Node000012" class="edge">
<title>Node1&#45;&gt;Node12</title>
<g id="a_edge13_Node000001_Node000012"><a xlink:title=" ">
<path fill="none" stroke="#63b8ff" d="M633.09,-335.78C683.57,-329.35 742.24,-318.45 793,-300 830.9,-286.23 870.31,-258.93 889.71,-244.48"/>
<polygon fill="#63b8ff" stroke="#63b8ff" points="632.94,-332.39 623.44,-337.09 633.8,-339.34 632.94,-332.39"/>
</a>
</g>
</g>
<!-- Node30 -->
<g id="Node000030" class="node">
<title>Node30</title>
<g id="a_Node000030"><a xlink:href="websocket__client_8hpp.html" target="_top" xlink:title=" ">
<polygon fill="white" stroke="#666666" points="784,-300 570,-300 570,-280 784,-280 784,-300"/>
<text text-anchor="middle" x="677" y="-286.5" font-family="Helvetica,sans-Serif" font-size="10.00">include/roar/websocket/websocket_client.hpp</text>
</a>
</g>
</g>
<!-- Node1&#45;&gt;Node30 -->
<g id="edge49_Node000001_Node000030" class="edge">
<title>Node1&#45;&gt;Node30</title>
<g id="a_edge49_Node000001_Node000030"><a xlink:title=" ">
<path fill="none" stroke="#63b8ff" d="M551.94,-332.18C581.51,-322.44 621.49,-309.28 648.21,-300.48"/>
<polygon fill="#63b8ff" stroke="#63b8ff" points="550.97,-329.14 542.57,-335.59 553.16,-335.79 550.97,-329.14"/>
</a>
</g>
</g>
<!-- Node32 -->
<g id="Node000032" class="node">
<title>Node32</title>
<g id="a_Node000032"><a xlink:href="websocket__session_8hpp.html" target="_top" xlink:title=" ">
<polygon fill="white" stroke="#666666" points="1324.25,-300 1099.75,-300 1099.75,-280 1324.25,-280 1324.25,-300"/>
<text text-anchor="middle" x="1212" y="-286.5" font-family="Helvetica,sans-Serif" font-size="10.00">include/roar/websocket/websocket_session.hpp</text>
</a>
</g>
</g>
<!-- Node1&#45;&gt;Node32 -->
<g id="edge51_Node000001_Node000032" class="edge">
<title>Node1&#45;&gt;Node32</title>
<g id="a_edge51_Node000001_Node000032"><a xlink:title=" ">
<path fill="none" stroke="#63b8ff" d="M633.45,-335.69C764.29,-325.59 971.64,-309.57 1099.34,-299.7"/>
<polygon fill="#63b8ff" stroke="#63b8ff" points="633.3,-332.27 623.6,-336.53 633.84,-339.25 633.3,-332.27"/>
</a>
</g>
</g>
<!-- Node3 -->
<g id="Node000003" class="node">
<title>Node3</title>
<g id="a_Node000003"><a xlink:href="client_8cpp.html" target="_top" xlink:title=" ">
<polygon fill="white" stroke="#666666" points="94,-244 0,-244 0,-224 94,-224 94,-244"/>
<text text-anchor="middle" x="47" y="-230.5" font-family="Helvetica,sans-Serif" font-size="10.00">src/roar/client.cpp</text>
</a>
</g>
</g>
<!-- Node2&#45;&gt;Node3 -->
<g id="edge2_Node000002_Node000003" class="edge">
<title>Node2&#45;&gt;Node3</title>
<g id="a_edge2_Node000002_Node000003"><a xlink:title=" ">
<path fill="none" stroke="#63b8ff" d="M72.8,-270.72C66.38,-261.84 58.95,-251.55 53.72,-244.3"/>
<polygon fill="#63b8ff" stroke="#63b8ff" points="70.51,-272.54 79.21,-278.59 76.19,-268.44 70.51,-272.54"/>
</a>
</g>
</g>
<!-- Node5 -->
<g id="Node000005" class="node">
<title>Node5</title>
<g id="a_Node000005"><a xlink:href="route_8cpp.html" target="_top" xlink:title=" ">
<polygon fill="white" stroke="#666666" points="551.38,-188 426.62,-188 426.62,-168 551.38,-168 551.38,-188"/>
<text text-anchor="middle" x="489" y="-174.5" font-family="Helvetica,sans-Serif" font-size="10.00">src/roar/routing/route.cpp</text>
</a>
</g>
</g>
<!-- Node4&#45;&gt;Node5 -->
<g id="edge4_Node000004_Node000005" class="edge">
<title>Node4&#45;&gt;Node5</title>
<g id="a_edge4_Node000004_Node000005"><a xlink:title=" ">
<path fill="none" stroke="#63b8ff" d="M381.73,-219.79C407.22,-210.1 441.24,-197.16 464.07,-188.48"/>
<polygon fill="#63b8ff" stroke="#63b8ff" points="380.84,-216.77 372.73,-223.59 383.33,-223.31 380.84,-216.77"/>
</a>
</g>
</g>
<!-- Node6 -->
<g id="Node000006" class="node">
<title>Node6</title>
<g id="a_Node000006"><a xlink:href="router_8cpp.html" target="_top" xlink:title=" ">
<polygon fill="white" stroke="#666666" points="248.88,-188 121.12,-188 121.12,-168 248.88,-168 248.88,-188"/>
<text text-anchor="middle" x="185" y="-174.5" font-family="Helvetica,sans-Serif" font-size="10.00">src/roar/routing/router.cpp</text>
</a>
</g>
</g>
<!-- Node4&#45;&gt;Node6 -->
<g id="edge5_Node000004_Node000006" class="edge">
<title>Node4&#45;&gt;Node6</title>
<g id="a_edge5_Node000004_Node000006"><a xlink:title=" ">
<path fill="none" stroke="#63b8ff" d="M308.53,-220.18C279.33,-210.44 239.83,-197.28 213.44,-188.48"/>
<polygon fill="#63b8ff" stroke="#63b8ff" points="307.19,-223.75 317.78,-223.59 309.4,-217.11 307.19,-223.75"/>
</a>
</g>
</g>
<!-- Node7&#45;&gt;Node6 -->
<g id="edge7_Node000007_Node000006" class="edge">
<title>Node7&#45;&gt;Node6</title>
<g id="a_edge7_Node000007_Node000006"><a xlink:title=" ">
<path fill="none" stroke="#63b8ff" d="M185,-212.71C185,-204.32 185,-195.01 185,-188.3"/>
<polygon fill="#63b8ff" stroke="#63b8ff" points="181.5,-212.59 185,-222.59 188.5,-212.59 181.5,-212.59"/>
</a>
</g>
</g>
<!-- Node8 -->
<g id="Node000008" class="node">
<title>Node8</title>
<g id="a_Node000008"><a xlink:href="server_8cpp.html" target="_top" xlink:title=" ">
<polygon fill="white" stroke="#666666" points="707.88,-20 610.12,-20 610.12,0 707.88,0 707.88,-20"/>
<text text-anchor="middle" x="659" y="-6.5" font-family="Helvetica,sans-Serif" font-size="10.00">src/roar/server.cpp</text>
</a>
</g>
</g>
<!-- Node7&#45;&gt;Node8 -->
<g id="edge8_Node000007_Node000008" class="edge">
<title>Node7&#45;&gt;Node8</title>
<g id="a_edge8_Node000007_Node000008"><a xlink:title=" ">
<path fill="none" stroke="#63b8ff" d="M149.53,-219.06C124.08,-206.95 96.77,-188.22 112,-168 172.94,-87.11 487.04,-35.1 609.78,-17.58"/>
<polygon fill="#63b8ff" stroke="#63b8ff" points="147.9,-222.61 158.46,-223.52 150.77,-216.23 147.9,-222.61"/>
</a>
</g>
</g>
<!-- Node9 -->
<g id="Node000009" class="node">
<title>Node9</title>
<g id="a_Node000009"><a xlink:href="session_8cpp.html" target="_top" xlink:title=" ">
<polygon fill="white" stroke="#666666" points="408.62,-188 267.38,-188 267.38,-168 408.62,-168 408.62,-188"/>
<text text-anchor="middle" x="338" y="-174.5" font-family="Helvetica,sans-Serif" font-size="10.00">src/roar/session/session.cpp</text>
</a>
</g>
</g>
<!-- Node7&#45;&gt;Node9 -->
<g id="edge9_Node000007_Node000009" class="edge">
<title>Node7&#45;&gt;Node9</title>
<g id="a_edge9_Node000007_Node000009"><a xlink:title=" ">
<path fill="none" stroke="#63b8ff" d="M221.69,-220.05C249.24,-210.33 286.32,-197.24 311.14,-188.48"/>
<polygon fill="#63b8ff" stroke="#63b8ff" points="220.92,-216.97 212.65,-223.59 223.25,-223.57 220.92,-216.97"/>
</a>
</g>
</g>
<!-- Node10&#45;&gt;Node8 -->
<g id="edge11_Node000010_Node000008" class="edge">
<title>Node10&#45;&gt;Node8</title>
<g id="a_edge11_Node000010_Node000008"><a xlink:title=" ">
<path fill="none" stroke="#63b8ff" d="M532.44,-216.79C541.45,-208.7 551.93,-198.43 560,-188 605.25,-129.52 642.88,-47.88 654.94,-20.43"/>
<polygon fill="#63b8ff" stroke="#63b8ff" points="530.61,-214.61 525.37,-223.81 535.21,-219.89 530.61,-214.61"/>
</a>
</g>
</g>
<!-- Node11 -->
<g id="Node000011" class="node">
<title>Node11</title>
<g id="a_Node000011"><a xlink:href="factory_8cpp.html" target="_top" xlink:title=" ">
<polygon fill="white" stroke="#666666" points="743.38,-188 606.62,-188 606.62,-168 743.38,-168 743.38,-188"/>
<text text-anchor="middle" x="675" y="-174.5" font-family="Helvetica,sans-Serif" font-size="10.00">src/roar/session/factory.cpp</text>
</a>
</g>
</g>
<!-- Node10&#45;&gt;Node11 -->
<g id="edge12_Node000010_Node000011" class="edge">
<title>Node10&#45;&gt;Node11</title>
<g id="a_edge12_Node000010_Node000011"><a xlink:title=" ">
<path fill="none" stroke="#63b8ff" d="M551.47,-220.18C580.67,-210.44 620.17,-197.28 646.56,-188.48"/>
<polygon fill="#63b8ff" stroke="#63b8ff" points="550.6,-217.11 542.22,-223.59 552.81,-223.75 550.6,-217.11"/>
</a>
</g>
</g>
<!-- Node12&#45;&gt;Node5 -->
<g id="edge44_Node000012_Node000005" class="edge">
<title>Node12&#45;&gt;Node5</title>
<g id="a_edge44_Node000012_Node000005"><a xlink:title=" ">
<path fill="none" stroke="#63b8ff" d="M818.72,-222.11C739.86,-211.8 623.19,-196.55 551.86,-187.22"/>
<polygon fill="#63b8ff" stroke="#63b8ff" points="818.22,-225.71 828.59,-223.53 819.13,-218.77 818.22,-225.71"/>
</a>
</g>
</g>
<!-- Node12&#45;&gt;Node6 -->
<g id="edge45_Node000012_Node000006" class="edge">
<title>Node12&#45;&gt;Node6</title>
<g id="a_edge45_Node000012_Node000006"><a xlink:title=" ">
<path fill="none" stroke="#63b8ff" d="M811.69,-223.93C564.85,-203.77 500.62,-210.81 258,-188 255.08,-187.73 252.09,-187.43 249.07,-187.11"/>
<polygon fill="#63b8ff" stroke="#63b8ff" points="811.18,-227.48 821.44,-224.81 811.76,-220.5 811.18,-227.48"/>
</a>
</g>
</g>
<!-- Node12&#45;&gt;Node8 -->
<g id="edge46_Node000012_Node000008" class="edge">
<title>Node12&#45;&gt;Node8</title>
<g id="a_edge46_Node000012_Node000008"><a xlink:title=" ">
<path fill="none" stroke="#63b8ff" d="M874.1,-218.35C859.73,-210.24 842.28,-199.49 828,-188 758.15,-131.81 688.63,-48 666.35,-20.28"/>
<polygon fill="#63b8ff" stroke="#63b8ff" points="872.04,-221.75 882.48,-223.51 875.42,-215.62 872.04,-221.75"/>
</a>
</g>
</g>
<!-- Node12&#45;&gt;Node9 -->
<g id="edge48_Node000012_Node000009" class="edge">
<title>Node12&#45;&gt;Node9</title>
<g id="a_edge48_Node000012_Node000009"><a xlink:title=" ">
<path fill="none" stroke="#63b8ff" d="M811.49,-223.87C635.71,-207.07 589.87,-205.5 418,-188 415.08,-187.7 412.1,-187.39 409.09,-187.08"/>
<polygon fill="#63b8ff" stroke="#63b8ff" points="811.14,-227.44 821.43,-224.91 811.81,-220.48 811.14,-227.44"/>
</a>
</g>
</g>
<!-- Node12&#45;&gt;Node11 -->
<g id="edge47_Node000012_Node000011" class="edge">
<title>Node12&#45;&gt;Node11</title>
<g id="a_edge47_Node000012_Node000011"><a xlink:title=" ">
<path fill="none" stroke="#63b8ff" d="M851.56,-221C810.31,-211.19 752.79,-197.51 714.75,-188.46"/>
<polygon fill="#63b8ff" stroke="#63b8ff" points="850.66,-224.62 861.2,-223.53 852.28,-217.81 850.66,-224.62"/>
</a>
</g>
</g>
<!-- Node13 -->
<g id="Node000013" class="node">
<title>Node13</title>
<g id="a_Node000013"><a xlink:href="directory__server_8hpp.html" target="_top" xlink:title=" ">
<polygon fill="white" stroke="#666666" points="1067.25,-132 836.75,-132 836.75,-112 1067.25,-112 1067.25,-132"/>
<text text-anchor="middle" x="952" y="-118.5" font-family="Helvetica,sans-Serif" font-size="10.00">include/roar/directory_server/directory_server.hpp</text>
</a>
</g>
</g>
<!-- Node12&#45;&gt;Node13 -->
<g id="edge14_Node000012_Node000013" class="edge">
<title>Node12&#45;&gt;Node13</title>
<g id="a_edge14_Node000012_Node000013"><a xlink:title=" ">
<path fill="none" stroke="#63b8ff" d="M910.81,-213.62C921.64,-189.78 939.6,-150.28 947.75,-132.35"/>
<polygon fill="#63b8ff" stroke="#63b8ff" points="907.21,-212.07 906.26,-222.62 913.59,-214.97 907.21,-212.07"/>
</a>
</g>
</g>
<!-- Node14 -->
<g id="Node000014" class="node">
<title>Node14</title>
<g id="a_Node000014"><a xlink:href="server_8hpp.html" target="_top" xlink:title=" ">
<polygon fill="white" stroke="#666666" points="1085.5,-76 970.5,-76 970.5,-56 1085.5,-56 1085.5,-76"/>
<text text-anchor="middle" x="1028" y="-62.5" font-family="Helvetica,sans-Serif" font-size="10.00">include/roar/server.hpp</text>
</a>
</g>
</g>
<!-- Node12&#45;&gt;Node14 -->
<g id="edge43_Node000012_Node000014" class="edge">
<title>Node12&#45;&gt;Node14</title>
<g id="a_edge43_Node000012_Node000014"><a xlink:title=" ">
<path fill="none" stroke="#63b8ff" d="M880.02,-217.3C849.23,-193.4 800,-147 828,-112 845.56,-90.04 917.63,-78.05 970.23,-72.08"/>
<polygon fill="#63b8ff" stroke="#63b8ff" points="877.41,-220.47 887.51,-223.68 881.62,-214.87 877.41,-220.47"/>
</a>
</g>
</g>
<!-- Node21 -->
<g id="Node000021" class="node">
<title>Node21</title>
<g id="a_Node000021"><a xlink:href="include_2roar_2routing_2request__listener_8hpp.html" target="_top" xlink:title=" ">
<polygon fill="white" stroke="#666666" points="1398.62,-188 1209.38,-188 1209.38,-168 1398.62,-168 1398.62,-188"/>
<text text-anchor="middle" x="1304" y="-174.5" font-family="Helvetica,sans-Serif" font-size="10.00">include/roar/routing/request_listener.hpp</text>
</a>
</g>
</g>
<!-- Node12&#45;&gt;Node21 -->
<g id="edge23_Node000012_Node000021" class="edge">
<title>Node12&#45;&gt;Node21</title>
<g id="a_edge23_Node000012_Node000021"><a xlink:title=" ">
<path fill="none" stroke="#63b8ff" d="M983.07,-222.11C1056.52,-212.24 1163.66,-197.85 1233.6,-188.46"/>
<polygon fill="#63b8ff" stroke="#63b8ff" points="982.93,-218.73 973.48,-223.53 983.86,-225.67 982.93,-218.73"/>
</a>
</g>
</g>
<!-- Node13&#45;&gt;Node14 -->
<g id="edge15_Node000013_Node000014" class="edge">
<title>Node13&#45;&gt;Node14</title>
<g id="a_edge15_Node000013_Node000014"><a xlink:title=" ">
<path fill="none" stroke="#63b8ff" d="M974.14,-105.27C987.27,-95.94 1003.47,-84.43 1014.66,-76.48"/>
<polygon fill="#63b8ff" stroke="#63b8ff" points="972.36,-102.95 966.24,-111.59 976.42,-108.65 972.36,-102.95"/>
</a>
</g>
</g>
<!-- Node14&#45;&gt;Node8 -->
<g id="edge22_Node000014_Node000008" class="edge">
<title>Node14&#45;&gt;Node8</title>
<g id="a_edge22_Node000014_Node000008"><a xlink:title=" ">
<path fill="none" stroke="#63b8ff" d="M959.89,-55.03C886.96,-44.36 773.01,-27.68 708.29,-18.21"/>
<polygon fill="#63b8ff" stroke="#63b8ff" points="958.94,-58.58 969.34,-56.56 959.96,-51.65 958.94,-58.58"/>
</a>
</g>
</g>
<!-- Node15 -->
<g id="Node000015" class="node">
<title>Node15</title>
<g id="a_Node000015"><a xlink:href="100__continue_2main_8cpp.html" target="_top" xlink:title=" ">
<polygon fill="white" stroke="#666666" points="1339.75,-20 1178.25,-20 1178.25,0 1339.75,0 1339.75,-20"/>
<text text-anchor="middle" x="1259" y="-6.5" font-family="Helvetica,sans-Serif" font-size="10.00">examples/100_continue/main.cpp</text>
</a>
</g>
</g>
<!-- Node14&#45;&gt;Node15 -->
<g id="edge16_Node000014_Node000015" class="edge">
<title>Node14&#45;&gt;Node15</title>
<g id="a_edge16_Node000014_Node000015"><a xlink:title=" ">
<path fill="none" stroke="#63b8ff" d="M1079.06,-53.06C1121.05,-43.25 1179.76,-29.52 1218.55,-20.46"/>
<polygon fill="#63b8ff" stroke="#63b8ff" points="1078.44,-49.85 1069.5,-55.53 1080.04,-56.66 1078.44,-49.85"/>
</a>
</g>
</g>
<!-- Node16 -->
<g id="Node000016" class="node">
<title>Node16</title>
<g id="a_Node000016"><a xlink:href="most__minimal_2main_8cpp.html" target="_top" xlink:title=" ">
<polygon fill="white" stroke="#666666" points="1160.25,-20 995.75,-20 995.75,0 1160.25,0 1160.25,-20"/>
<text text-anchor="middle" x="1078" y="-6.5" font-family="Helvetica,sans-Serif" font-size="10.00">examples/most_minimal/main.cpp</text>
</a>
</g>
</g>
<!-- Node14&#45;&gt;Node16 -->
<g id="edge17_Node000014_Node000016" class="edge">
<title>Node14&#45;&gt;Node16</title>
<g id="a_edge17_Node000014_Node000016"><a xlink:title=" ">
<path fill="none" stroke="#63b8ff" d="M1044.14,-47.57C1052.54,-38.5 1062.46,-27.78 1069.39,-20.3"/>
<polygon fill="#63b8ff" stroke="#63b8ff" points="1041.94,-44.88 1037.71,-54.59 1047.07,-49.63 1041.94,-44.88"/>
</a>
</g>
</g>
<!-- Node17 -->
<g id="Node000017" class="node">
<title>Node17</title>
<g id="a_Node000017"><a xlink:href="serve__directory_2main_8cpp.html" target="_top" xlink:title=" ">
<polygon fill="white" stroke="#666666" points="1660.25,-20 1489.75,-20 1489.75,0 1660.25,0 1660.25,-20"/>
<text text-anchor="middle" x="1575" y="-6.5" font-family="Helvetica,sans-Serif" font-size="10.00">examples/serve_directory/main.cpp</text>
</a>
</g>
</g>
<!-- Node14&#45;&gt;Node17 -->
<g id="edge18_Node000014_Node000017" class="edge">
<title>Node14&#45;&gt;Node17</title>
<g id="a_edge18_Node000014_Node000017"><a xlink:title=" ">
<path fill="none" stroke="#63b8ff" d="M1096.6,-58.23C1196.25,-48.39 1380.93,-30.16 1489.37,-19.45"/>
<polygon fill="#63b8ff" stroke="#63b8ff" points="1096.37,-54.83 1086.76,-59.3 1097.06,-61.8 1096.37,-54.83"/>
</a>
</g>
</g>
<!-- Node18 -->
<g id="Node000018" class="node">
<title>Node18</title>
<g id="a_Node000018"><a xlink:href="simple__server_2main_8cpp.html" target="_top" xlink:title=" ">
<polygon fill="white" stroke="#666666" points="1843.25,-20 1678.75,-20 1678.75,0 1843.25,0 1843.25,-20"/>
<text text-anchor="middle" x="1761" y="-6.5" font-family="Helvetica,sans-Serif" font-size="10.00">examples/simple_server/main.cpp</text>
</a>
</g>
</g>
<!-- Node14&#45;&gt;Node18 -->
<g id="edge19_Node000014_Node000018" class="edge">
<title>Node14&#45;&gt;Node18</title>
<g id="a_edge19_Node000014_Node000018"><a xlink:title=" ">
<path fill="none" stroke="#63b8ff" d="M1096.35,-58.96C1108.55,-57.93 1121.15,-56.91 1133,-56 1371.06,-37.8 1431.05,-39.63 1669,-20 1672.04,-19.75 1675.13,-19.49 1678.26,-19.21"/>
<polygon fill="#63b8ff" stroke="#63b8ff" points="1096.42,-55.52 1086.75,-59.86 1097.01,-62.5 1096.42,-55.52"/>
</a>
</g>
</g>
<!-- Node19 -->
<g id="Node000019" class="node">
<title>Node19</title>
<g id="a_Node000019"><a xlink:href="websocket_2main_8cpp.html" target="_top" xlink:title=" ">
<polygon fill="white" stroke="#666666" points="2087.5,-20 1936.5,-20 1936.5,0 2087.5,0 2087.5,-20"/>
<text text-anchor="middle" x="2012" y="-6.5" font-family="Helvetica,sans-Serif" font-size="10.00">examples/websocket/main.cpp</text>
</a>
</g>
</g>
<!-- Node14&#45;&gt;Node19 -->
<g id="edge20_Node000014_Node000019" class="edge">
<title>Node14&#45;&gt;Node19</title>
<g id="a_edge20_Node000014_Node000019"><a xlink:title=" ">
<path fill="none" stroke="#63b8ff" d="M1096.33,-58.79C1108.54,-57.78 1121.14,-56.8 1133,-56 1452.22,-34.33 1532.5,-36.98 1852,-20 1879.5,-18.54 1909.66,-16.86 1936.31,-15.35"/>
<polygon fill="#63b8ff" stroke="#63b8ff" points="1096.41,-55.35 1086.74,-59.68 1097,-62.33 1096.41,-55.35"/>
</a>
</g>
</g>
<!-- Node20 -->
<g id="Node000020" class="node">
<title>Node20</title>
<g id="a_Node000020"><a xlink:href="src_2roar_2routing_2request__listener_8cpp.html" target="_top" xlink:title=" ">
<polygon fill="white" stroke="#666666" points="978,-20 806,-20 806,0 978,0 978,-20"/>
<text text-anchor="middle" x="892" y="-6.5" font-family="Helvetica,sans-Serif" font-size="10.00">src/roar/routing/request_listener.cpp</text>
</a>
</g>
</g>
<!-- Node14&#45;&gt;Node20 -->
<g id="edge21_Node000014_Node000020" class="edge">
<title>Node14&#45;&gt;Node20</title>
<g id="a_edge21_Node000014_Node000020"><a xlink:title=" ">
<path fill="none" stroke="#63b8ff" d="M994.41,-51.66C970.03,-41.98 937.64,-29.12 915.87,-20.48"/>
<polygon fill="#63b8ff" stroke="#63b8ff" points="992.72,-55.16 1003.31,-55.59 995.31,-48.65 992.72,-55.16"/>
</a>
</g>
</g>
<!-- Node21&#45;&gt;Node13 -->
<g id="edge40_Node000021_Node000013" class="edge">
<title>Node21&#45;&gt;Node13</title>
<g id="a_edge40_Node000021_Node000013"><a xlink:title=" ">
<path fill="none" stroke="#63b8ff" d="M1231.43,-165.87C1167.16,-156.01 1074.38,-141.77 1013.65,-132.46"/>
<polygon fill="#63b8ff" stroke="#63b8ff" points="1230.87,-169.48 1241.28,-167.53 1231.93,-162.56 1230.87,-169.48"/>
</a>
</g>
</g>
<!-- Node21&#45;&gt;Node14 -->
<g id="edge41_Node000021_Node000014" class="edge">
<title>Node21&#45;&gt;Node14</title>
<g id="a_edge41_Node000021_Node000014"><a xlink:title=" ">
<path fill="none" stroke="#63b8ff" d="M1256.53,-164.68C1227.39,-156.57 1189.54,-145.07 1157,-132 1115.11,-115.18 1068.35,-89.88 1044.28,-76.34"/>
<polygon fill="#63b8ff" stroke="#63b8ff" points="1255.28,-168.24 1265.85,-167.51 1257.13,-161.49 1255.28,-168.24"/>
</a>
</g>
</g>
<!-- Node21&#45;&gt;Node15 -->
<g id="edge24_Node000021_Node000015" class="edge">
<title>Node21&#45;&gt;Node15</title>
<g id="a_edge24_Node000021_Node000015"><a xlink:title=" ">
<path fill="none" stroke="#63b8ff" d="M1252.01,-164.37C1209.49,-150.75 1153.22,-124.22 1133,-76 1120.24,-45.58 1155.36,-29.2 1191.73,-20.49"/>
<polygon fill="#63b8ff" stroke="#63b8ff" points="1250.9,-168 1261.49,-167.56 1252.94,-161.3 1250.9,-168"/>
</a>
</g>
</g>
<!-- Node21&#45;&gt;Node17 -->
<g id="edge31_Node000021_Node000017" class="edge">
<title>Node21&#45;&gt;Node17</title>
<g id="a_edge31_Node000021_Node000017"><a xlink:title=" ">
<path fill="none" stroke="#63b8ff" d="M1404.54,-166.33C1497.53,-155.98 1622.51,-140.6 1630,-132 1638.26,-122.53 1643.21,-90.77 1626,-56 1618.35,-40.55 1602.84,-28.09 1590.92,-20.23"/>
<polygon fill="#63b8ff" stroke="#63b8ff" points="1404.21,-162.96 1394.66,-167.54 1404.98,-169.92 1404.21,-162.96"/>
</a>
</g>
</g>
<!-- Node21&#45;&gt;Node18 -->
<g id="edge32_Node000021_Node000018" class="edge">
<title>Node21&#45;&gt;Node18</title>
<g id="a_edge32_Node000021_Node000018"><a xlink:title=" ">
<path fill="none" stroke="#63b8ff" d="M1409.6,-166.75C1502.47,-157.15 1626.07,-142.7 1647,-132 1673.85,-118.27 1732.84,-46.31 1753.6,-20.35"/>
<polygon fill="#63b8ff" stroke="#63b8ff" points="1409.31,-163.36 1399.72,-167.87 1410.02,-170.33 1409.31,-163.36"/>
</a>
</g>
</g>
<!-- Node21&#45;&gt;Node19 -->
<g id="edge36_Node000021_Node000019" class="edge">
<title>Node21&#45;&gt;Node19</title>
<g id="a_edge36_Node000021_Node000019"><a xlink:title=" ">
<path fill="none" stroke="#63b8ff" d="M1410,-168.22C1411.01,-168.15 1412.01,-168.07 1413,-168 1473.19,-163.52 1905.13,-166 1955,-132 1994.33,-105.18 2007.22,-43.72 2010.8,-20.3"/>
<polygon fill="#63b8ff" stroke="#63b8ff" points="1409.81,-164.8 1400.11,-169.06 1410.35,-171.78 1409.81,-164.8"/>
</a>
</g>
</g>
<!-- Node21&#45;&gt;Node20 -->
<g id="edge42_Node000021_Node000020" class="edge">
<title>Node21&#45;&gt;Node20</title>
<g id="a_edge42_Node000021_Node000020"><a xlink:title=" ">
<path fill="none" stroke="#63b8ff" d="M1229.36,-165.54C1192.31,-158.42 1147.38,-147.59 1109,-132 1093.11,-125.55 1091.62,-119.08 1076,-112 1027.6,-90.07 1007.92,-102.73 962,-76 935.91,-60.82 911.54,-34.37 899.63,-20.35"/>
<polygon fill="#63b8ff" stroke="#63b8ff" points="1228.62,-169.15 1239.09,-167.54 1229.9,-162.27 1228.62,-169.15"/>
</a>
</g>
</g>
<!-- Node22 -->
<g id="Node000022" class="node">
<title>Node22</title>
<g id="a_Node000022"><a xlink:href="examples_2100__continue_2request__listener_8hpp.html" target="_top" xlink:title=" ">
<polygon fill="white" stroke="#666666" points="1408.75,-132 1199.25,-132 1199.25,-112 1408.75,-112 1408.75,-132"/>
<text text-anchor="middle" x="1304" y="-118.5" font-family="Helvetica,sans-Serif" font-size="10.00">examples/100_continue/request_listener.hpp</text>
</a>
</g>
</g>
<!-- Node21&#45;&gt;Node22 -->
<g id="edge25_Node000021_Node000022" class="edge">
<title>Node21&#45;&gt;Node22</title>
<g id="a_edge25_Node000021_Node000022"><a xlink:title=" ">
<path fill="none" stroke="#63b8ff" d="M1304,-156.71C1304,-148.32 1304,-139.01 1304,-132.3"/>
<polygon fill="#63b8ff" stroke="#63b8ff" points="1300.5,-156.59 1304,-166.59 1307.5,-156.59 1300.5,-156.59"/>
</a>
</g>
</g>
<!-- Node24 -->
<g id="Node000024" class="node">
<title>Node24</title>
<g id="a_Node000024"><a xlink:href="file__server_8hpp.html" target="_top" xlink:title=" ">
<polygon fill="white" stroke="#666666" points="1621.25,-132 1426.75,-132 1426.75,-112 1621.25,-112 1621.25,-132"/>
<text text-anchor="middle" x="1524" y="-118.5" font-family="Helvetica,sans-Serif" font-size="10.00">examples/serve_directory/file_server.hpp</text>
</a>
</g>
</g>
<!-- Node21&#45;&gt;Node24 -->
<g id="edge28_Node000021_Node000024" class="edge">
<title>Node21&#45;&gt;Node24</title>
<g id="a_edge28_Node000021_Node000024"><a xlink:title=" ">
<path fill="none" stroke="#63b8ff" d="M1353.14,-164.94C1393.1,-155.13 1448.69,-141.49 1485.47,-132.46"/>
<polygon fill="#63b8ff" stroke="#63b8ff" points="1352.45,-161.75 1343.57,-167.53 1354.12,-168.55 1352.45,-161.75"/>
</a>
</g>
</g>
<!-- Node26 -->
<g id="Node000026" class="node">
<title>Node26</title>
<g id="a_Node000026"><a xlink:href="examples_2simple__server_2request__listener_8hpp.html" target="_top" xlink:title=" ">
<polygon fill="white" stroke="#666666" points="1946.25,-132 1733.75,-132 1733.75,-112 1946.25,-112 1946.25,-132"/>
<text text-anchor="middle" x="1840" y="-118.5" font-family="Helvetica,sans-Serif" font-size="10.00">examples/simple_server/request_listener.hpp</text>
</a>
</g>
</g>
<!-- Node21&#45;&gt;Node26 -->
<g id="edge33_Node000021_Node000026" class="edge">
<title>Node21&#45;&gt;Node26</title>
<g id="a_edge33_Node000021_Node000026"><a xlink:title=" ">
<path fill="none" stroke="#63b8ff" d="M1409.09,-166.41C1506.97,-156.55 1651.58,-141.98 1745.79,-132.49"/>
<polygon fill="#63b8ff" stroke="#63b8ff" points="1408.88,-163.02 1399.28,-167.5 1409.59,-169.98 1408.88,-163.02"/>
</a>
</g>
</g>
<!-- Node28 -->
<g id="Node000028" class="node">
<title>Node28</title>
<g id="a_Node000028"><a xlink:href="examples_2websocket_2request__listener_8hpp.html" target="_top" xlink:title=" ">
<polygon fill="white" stroke="#666666" points="2239.5,-132 2040.5,-132 2040.5,-112 2239.5,-112 2239.5,-132"/>
<text text-anchor="middle" x="2140" y="-118.5" font-family="Helvetica,sans-Serif" font-size="10.00">examples/websocket/request_listener.hpp</text>
</a>
</g>
</g>
<!-- Node21&#45;&gt;Node28 -->
<g id="edge37_Node000021_Node000028" class="edge">
<title>Node21&#45;&gt;Node28</title>
<g id="a_edge37_Node000021_Node000028"><a xlink:title=" ">
<path fill="none" stroke="#63b8ff" d="M1410,-168.21C1411.01,-168.14 1412.01,-168.07 1413,-168 1685.24,-148.77 1753.73,-150.74 2026,-132 2030.65,-131.68 2035.42,-131.34 2040.22,-130.99"/>
<polygon fill="#63b8ff" stroke="#63b8ff" points="1409.82,-164.79 1400.11,-169.01 1410.33,-171.77 1409.82,-164.79"/>
</a>
</g>
</g>
<!-- Node22&#45;&gt;Node15 -->
<g id="edge26_Node000022_Node000015" class="edge">
<title>Node22&#45;&gt;Node15</title>
<g id="a_edge26_Node000022_Node000015"><a xlink:title=" ">
<path fill="none" stroke="#63b8ff" d="M1332.16,-106.11C1352.05,-93.55 1373.17,-74.67 1361,-56 1349.16,-37.84 1328.16,-26.96 1308.28,-20.46"/>
<polygon fill="#63b8ff" stroke="#63b8ff" points="1330.75,-103.47 1323.94,-111.58 1334.32,-109.49 1330.75,-103.47"/>
</a>
</g>
</g>
<!-- Node23 -->
<g id="Node000023" class="node">
<title>Node23</title>
<g id="a_Node000023"><a xlink:href="examples_2100__continue_2request__listener_8cpp.html" target="_top" xlink:title=" ">
<polygon fill="white" stroke="#666666" points="1351.75,-76 1142.25,-76 1142.25,-56 1351.75,-56 1351.75,-76"/>
<text text-anchor="middle" x="1247" y="-62.5" font-family="Helvetica,sans-Serif" font-size="10.00">examples/100_continue/request_listener.cpp</text>
</a>
</g>
</g>
<!-- Node22&#45;&gt;Node23 -->
<g id="edge27_Node000022_Node000023" class="edge">
<title>Node22&#45;&gt;Node23</title>
<g id="a_edge27_Node000022_Node000023"><a xlink:title=" ">
<path fill="none" stroke="#63b8ff" d="M1286.19,-104.13C1276.49,-94.94 1264.87,-83.93 1256.81,-76.3"/>
<polygon fill="#63b8ff" stroke="#63b8ff" points="1283.4,-106.26 1293.07,-110.59 1288.22,-101.18 1283.4,-106.26"/>
</a>
</g>
</g>
<!-- Node24&#45;&gt;Node17 -->
<g id="edge30_Node000024_Node000017" class="edge">
<title>Node24&#45;&gt;Node17</title>
<g id="a_edge30_Node000024_Node000017"><a xlink:title=" ">
<path fill="none" stroke="#63b8ff" d="M1571.29,-107.6C1586.68,-100.75 1602.08,-90.66 1611,-76 1622.8,-56.61 1601.36,-33.16 1586.81,-20.39"/>
<polygon fill="#63b8ff" stroke="#63b8ff" points="1570.21,-104.66 1562.24,-111.65 1572.83,-111.16 1570.21,-104.66"/>
</a>
</g>
</g>
<!-- Node25 -->
<g id="Node000025" class="node">
<title>Node25</title>
<g id="a_Node000025"><a xlink:href="file__server_8cpp.html" target="_top" xlink:title=" ">
<polygon fill="white" stroke="#666666" points="1602.25,-76 1407.75,-76 1407.75,-56 1602.25,-56 1602.25,-76"/>
<text text-anchor="middle" x="1505" y="-62.5" font-family="Helvetica,sans-Serif" font-size="10.00">examples/serve_directory/file_server.cpp</text>
</a>
</g>
</g>
<!-- Node24&#45;&gt;Node25 -->
<g id="edge29_Node000024_Node000025" class="edge">
<title>Node24&#45;&gt;Node25</title>
<g id="a_edge29_Node000024_Node000025"><a xlink:title=" ">
<path fill="none" stroke="#63b8ff" d="M1517.07,-101.29C1514.06,-92.75 1510.69,-83.16 1508.27,-76.3"/>
<polygon fill="#63b8ff" stroke="#63b8ff" points="1514.07,-102.32 1520.69,-110.59 1520.67,-100 1514.07,-102.32"/>
</a>
</g>
</g>
<!-- Node26&#45;&gt;Node18 -->
<g id="edge34_Node000026_Node000018" class="edge">
<title>Node26&#45;&gt;Node18</title>
<g id="a_edge34_Node000026_Node000018"><a xlink:title=" ">
<path fill="none" stroke="#63b8ff" d="M1900.77,-108.81C1938.07,-98.52 1975.15,-81.36 1955,-56 1940.83,-38.17 1889.86,-26.77 1843.73,-19.91"/>
<polygon fill="#63b8ff" stroke="#63b8ff" points="1900.09,-105.63 1891.29,-111.53 1901.85,-112.4 1900.09,-105.63"/>
</a>
</g>
</g>
<!-- Node27 -->
<g id="Node000027" class="node">
<title>Node27</title>
<g id="a_Node000027"><a xlink:href="examples_2simple__server_2request__listener_8cpp.html" target="_top" xlink:title=" ">
<polygon fill="white" stroke="#666666" points="1946.25,-76 1733.75,-76 1733.75,-56 1946.25,-56 1946.25,-76"/>
<text text-anchor="middle" x="1840" y="-62.5" font-family="Helvetica,sans-Serif" font-size="10.00">examples/simple_server/request_listener.cpp</text>
</a>
</g>
</g>
<!-- Node26&#45;&gt;Node27 -->
<g id="edge35_Node000026_Node000027" class="edge">
<title>Node26&#45;&gt;Node27</title>
<g id="a_edge35_Node000026_Node000027"><a xlink:title=" ">
<path fill="none" stroke="#63b8ff" d="M1840,-100.71C1840,-92.32 1840,-83.01 1840,-76.3"/>
<polygon fill="#63b8ff" stroke="#63b8ff" points="1836.5,-100.59 1840,-110.59 1843.5,-100.59 1836.5,-100.59"/>
</a>
</g>
</g>
<!-- Node28&#45;&gt;Node19 -->
<g id="edge38_Node000028_Node000019" class="edge">
<title>Node28&#45;&gt;Node19</title>
<g id="a_edge38_Node000028_Node000019"><a xlink:title=" ">
<path fill="none" stroke="#63b8ff" d="M2113.39,-106.23C2099.8,-98.12 2083.35,-87.4 2070,-76 2049.3,-58.32 2029.03,-33.37 2018.83,-20.11"/>
<polygon fill="#63b8ff" stroke="#63b8ff" points="2111.3,-109.64 2121.7,-111.65 2114.82,-103.59 2111.3,-109.64"/>
</a>
</g>
</g>
<!-- Node29 -->
<g id="Node000029" class="node">
<title>Node29</title>
<g id="a_Node000029"><a xlink:href="examples_2websocket_2request__listener_8cpp.html" target="_top" xlink:title=" ">
<polygon fill="white" stroke="#666666" points="2277.5,-76 2078.5,-76 2078.5,-56 2277.5,-56 2277.5,-76"/>
<text text-anchor="middle" x="2178" y="-62.5" font-family="Helvetica,sans-Serif" font-size="10.00">examples/websocket/request_listener.cpp</text>
</a>
</g>
</g>
<!-- Node28&#45;&gt;Node29 -->
<g id="edge39_Node000028_Node000029" class="edge">
<title>Node28&#45;&gt;Node29</title>
<g id="a_edge39_Node000028_Node000029"><a xlink:title=" ">
<path fill="none" stroke="#63b8ff" d="M2152.86,-102.72C2159.11,-93.84 2166.36,-83.55 2171.46,-76.3"/>
<polygon fill="#63b8ff" stroke="#63b8ff" points="2149.51,-100.4 2146.62,-110.59 2155.24,-104.43 2149.51,-100.4"/>
</a>
</g>
</g>
<!-- Node31 -->
<g id="Node000031" class="node">
<title>Node31</title>
<g id="a_Node000031"><a xlink:href="websocket__client_8cpp.html" target="_top" xlink:title=" ">
<polygon fill="white" stroke="#666666" points="804.38,-244 607.62,-244 607.62,-224 804.38,-224 804.38,-244"/>
<text text-anchor="middle" x="706" y="-230.5" font-family="Helvetica,sans-Serif" font-size="10.00">src/roar/websocket/websocket_client.cpp</text>
</a>
</g>
</g>
<!-- Node30&#45;&gt;Node31 -->
<g id="edge50_Node000030_Node000031" class="edge">
<title>Node30&#45;&gt;Node31</title>
<g id="a_edge50_Node000030_Node000031"><a xlink:title=" ">
<path fill="none" stroke="#63b8ff" d="M687.12,-270.15C691.82,-261.4 697.2,-251.39 701.01,-244.3"/>
<polygon fill="#63b8ff" stroke="#63b8ff" points="683.7,-268.13 682.05,-278.59 689.87,-271.44 683.7,-268.13"/>
</a>
</g>
</g>
<!-- Node32&#45;&gt;Node12 -->
<g id="edge53_Node000032_Node000012" class="edge">
<title>Node32&#45;&gt;Node12</title>
<g id="a_edge53_Node000032_Node000012"><a xlink:title=" ">
<path fill="none" stroke="#63b8ff" d="M1147.03,-277.68C1090.48,-267.83 1009.45,-253.72 956.29,-244.46"/>
<polygon fill="#63b8ff" stroke="#63b8ff" points="1146.2,-281.26 1156.65,-279.53 1147.4,-274.37 1146.2,-281.26"/>
</a>
</g>
</g>
<!-- Node32&#45;&gt;Node28 -->
<g id="edge52_Node000032_Node000028" class="edge">
<title>Node32&#45;&gt;Node28</title>
<g id="a_edge52_Node000032_Node000028"><a xlink:title=" ">
<path fill="none" stroke="#63b8ff" d="M1251.73,-276.31C1297.98,-261.92 1376.87,-238.57 1446,-224 1660.3,-178.83 1916.08,-147.27 2049.24,-132.5"/>
<polygon fill="#63b8ff" stroke="#63b8ff" points="1250.75,-273.26 1242.26,-279.58 1252.85,-279.94 1250.75,-273.26"/>
</a>
</g>
</g>
<!-- Node33 -->
<g id="Node000033" class="node">
<title>Node33</title>
<g id="a_Node000033"><a xlink:href="websocket__session_8cpp.html" target="_top" xlink:title=" ">
<polygon fill="white" stroke="#666666" points="1662.62,-244 1455.38,-244 1455.38,-224 1662.62,-224 1662.62,-244"/>
<text text-anchor="middle" x="1559" y="-230.5" font-family="Helvetica,sans-Serif" font-size="10.00">src/roar/websocket/websocket_session.cpp</text>
</a>
</g>
</g>
<!-- Node32&#45;&gt;Node33 -->
<g id="edge54_Node000032_Node000033" class="edge">
<title>Node32&#45;&gt;Node33</title>
<g id="a_edge54_Node000032_Node000033"><a xlink:title=" ">
<path fill="none" stroke="#63b8ff" d="M1283.54,-277.87C1346.89,-268.01 1438.35,-253.77 1498.23,-244.46"/>
<polygon fill="#63b8ff" stroke="#63b8ff" points="1283.18,-274.54 1273.84,-279.53 1284.26,-281.45 1283.18,-274.54"/>
</a>
</g>
</g>
</g>
</svg>

<g id="navigator" transform="translate(0 0)" fill="#404254">
  <rect fill="#f2f5e9" fill-opacity="0.5" stroke="#606060" stroke-width=".5" x="0" y="0" width="60" height="60"/>
  <use id="zoomplus" xlink:href="#zoomPlus" x="17" y="9" onmousedown="handleZoom(evt,'in')"/>
  <use id="zoomminus" xlink:href="#zoomMin" x="42" y="9" onmousedown="handleZoom(evt,'out')"/>
  <use id="reset" xlink:href="#resetDef" x="30" y="36" onmousedown="handleReset()"/>
   <use id="arrowup" xlink:href="#arrowUp" x="0" y="0" onmousedown="handlePan(0,-1)"/>
  <use id="arrowright" xlink:href="#arrowRight" x="0" y="0" onmousedown="handlePan(1,0)"/>
  <use id="arrowdown" xlink:href="#arrowDown" x="0" y="0" onmousedown="handlePan(0,1)"/>
  <use id="arrowleft" xlink:href="#arrowLeft" x="0" y="0" onmousedown="handlePan(-1,0)"/>
</g>
<svg viewBox="0 0 15 15" width="100%" height="30px" preserveAspectRatio="xMaxYMin meet">
 <g id="arrow_out" transform="scale(0.3 0.3)">
  <a xlink:href="pimpl__special__functions_8hpp__dep__incl_org.svg" target="_base">
   <rect id="button" ry="5" rx="5" y="6" x="6" height="38" width="38"
        fill="#f2f5e9" fill-opacity="0.5" stroke="#606060" stroke-width="1.0"/>
   <path id="arrow"
     d="M 11.500037,31.436501 C 11.940474,20.09759 22.043105,11.32322 32.158766,21.979434 L 37.068811,17.246167 C 37.068811,17.246167 37.088388,32 37.088388,32 L 22.160133,31.978069 C 22.160133,31.978069 26.997745,27.140456 26.997745,27.140456 C 18.528582,18.264221 13.291696,25.230495 11.500037,31.436501 z"
     style="fill:#404040;"/>
  </a>
 </g>
</svg>

<style type='text/css'>
<![CDATA[
[data-mouse-over-selected='false'] { opacity: 0.7; }
[data-mouse-over-selected='true']  { opacity: 1.0; }
]]>
</style>
<script type="application/ecmascript"><![CDATA[
document.addEventListener('DOMContentLoaded', (event) => {
  highlightEdges();
  highlightAdjacentNodes();
});
]]></script>
</svg>
