<?xml version="1.0" encoding="UTF-8" standalone="no"?>
<!DOCTYPE svg PUBLIC "-//W3C//DTD SVG 1.1//EN"
 "http://www.w3.org/Graphics/SVG/1.1/DTD/svg11.dtd">
<!-- Generated by graphviz version 8.1.0 (0)
 -->
<!-- Title: include/roar/detail/promise_compat.hpp Pages: 1 -->
<!--zoomable 420 -->

<svg id="main" version="1.1" xmlns="http://www.w3.org/2000/svg" xmlns:xlink="http://www.w3.org/1999/xlink" xml:space="preserve" onload="init(evt)">
<style type="text/css"><![CDATA[
.node, .edge {opacity: 0.7;}
.node.selected, .edge.selected {opacity: 1;}
.edge:hover path { stroke: red; }
.edge:hover polygon { stroke: red; fill: red; }
]]></style>

<defs>
  <circle id="rim" cx="0" cy="0" r="7"/>
  <circle id="rim2" cx="0" cy="0" r="3.5"/>
  <g id="zoomPlus">
    <use xlink:href="#rim" fill="#404040"><set attributeName="fill" to="#808080" begin="zoomplus.mouseover" end="zoomplus.mouseout"/></use>
    <path d="M-4,0h8M0,-4v8" fill="none" stroke="white" stroke-width="1.5" pointer-events="none"/>
  </g>
  <g id="zoomMin">
    <use xlink:href="#rim" fill="#404040"><set attributeName="fill" to="#808080" begin="zoomminus.mouseover" end="zoomminus.mouseout"/></use>
    <path d="M-4,0h8" fill="none" stroke="white" stroke-width="1.5" pointer-events="none"/>
  </g>
  <g id="arrowUp" transform="translate(30 24)">
    <use xlink:href="#rim"/>
    <path pointer-events="none" fill="none" stroke="white" stroke-width="1.5" d="M0,-3.0v7 M-2.5,-0.5L0,-3.0L2.5,-0.5"/>
  </g>
  <g id="arrowRight" transform="rotate(90) translate(36 -43)">
    <use xlink:href="#rim"/>
    <path pointer-events="none" fill="none" stroke="white" stroke-width="1.5" d="M0,-3.0v7 M-2.5,-0.5L0,-3.0L2.5,-0.5"/>
  </g>
  <g id="arrowDown" transform="rotate(180) translate(-30 -48)">
    <use xlink:href="#rim"/>
    <path pointer-events="none" fill="none" stroke="white" stroke-width="1.5" d="M0,-3.0v7 M-2.5,-0.5L0,-3.0L2.5,-0.5"/>
  </g>
  <g id="arrowLeft" transform="rotate(270) translate(-36 17)">
    <use xlink:href="#rim"/>
    <path pointer-events="none" fill="none" stroke="white" stroke-width="1.5" d="M0,-3.0v7 M-2.5,-0.5L0,-3.0L2.5,-0.5"/>
  </g>
  <g id="resetDef">
    <use xlink:href="#rim2" fill="#404040"><set attributeName="fill" to="#808080" begin="reset.mouseover" end="reset.mouseout"/></use>
  </g>
</defs>
<script type="application/ecmascript">
var viewWidth = 2087;
var viewHeight = 420;
var sectionId = 'dynsection-1';
</script>
<script type="application/ecmascript" xlink:href="svg.min.js"/>
<svg id="graph" class="graph">
<g id="viewport">
<title>include/roar/detail/promise_compat.hpp</title>
<!-- Node1 -->
<g id="Node000001" class="node">
<title>Node1</title>
<g id="a_Node000001"><a xlink:title=" ">
<polygon fill="#999999" stroke="#666666" points="1474.95,-412 1288.7,-412 1288.7,-392 1474.95,-392 1474.95,-412"/>
<text text-anchor="middle" x="1381.82" y="-398.5" font-family="Helvetica,sans-Serif" font-size="10.00">include/roar/detail/promise_compat.hpp</text>
</a>
</g>
</g>
<!-- Node2 -->
<g id="Node000002" class="node">
<title>Node2</title>
<g id="a_Node000002"><a xlink:href="client_8hpp.html" target="_top" xlink:title=" ">
<polygon fill="white" stroke="#666666" points="1253.45,-300 1142.2,-300 1142.2,-280 1253.45,-280 1253.45,-300"/>
<text text-anchor="middle" x="1197.82" y="-286.5" font-family="Helvetica,sans-Serif" font-size="10.00">include/roar/client.hpp</text>
</a>
</g>
</g>
<!-- Node1&#45;&gt;Node2 -->
<g id="edge1_Node000001_Node000002" class="edge">
<title>Node1&#45;&gt;Node2</title>
<g id="a_edge1_Node000001_Node000002"><a xlink:title=" ">
<path fill="none" stroke="#63b8ff" d="M1278.19,-389.76C1255.63,-382.99 1233.54,-372.42 1216.82,-356 1201.55,-341.01 1198.39,-314.48 1197.84,-300.4"/>
<polygon fill="#63b8ff" stroke="#63b8ff" points="1277,-393.34 1287.57,-392.61 1278.86,-386.59 1277,-393.34"/>
</a>
</g>
</g>
<!-- Node4 -->
<g id="Node000004" class="node">
<title>Node4</title>
<g id="a_Node000004"><a xlink:href="response_8hpp.html" target="_top" xlink:title=" ">
<polygon fill="white" stroke="#666666" points="1353.7,-356 1225.95,-356 1225.95,-336 1353.7,-336 1353.7,-356"/>
<text text-anchor="middle" x="1289.82" y="-342.5" font-family="Helvetica,sans-Serif" font-size="10.00">include/roar/response.hpp</text>
</a>
</g>
</g>
<!-- Node1&#45;&gt;Node4 -->
<g id="edge3_Node000001_Node000004" class="edge">
<title>Node1&#45;&gt;Node4</title>
<g id="a_edge3_Node000001_Node000004"><a xlink:title=" ">
<path fill="none" stroke="#63b8ff" d="M1356.4,-386.08C1340.28,-376.62 1319.91,-364.66 1305.97,-356.48"/>
<polygon fill="#63b8ff" stroke="#63b8ff" points="1354.4,-389.55 1364.8,-391.59 1357.94,-383.51 1354.4,-389.55"/>
</a>
</g>
</g>
<!-- Node5 -->
<g id="Node000005" class="node">
<title>Node5</title>
<g id="a_Node000005"><a xlink:href="session_8hpp.html" target="_top" xlink:title=" ">
<polygon fill="white" stroke="#666666" points="1398.07,-244 1239.57,-244 1239.57,-224 1398.07,-224 1398.07,-244"/>
<text text-anchor="middle" x="1318.82" y="-230.5" font-family="Helvetica,sans-Serif" font-size="10.00">include/roar/session/session.hpp</text>
</a>
</g>
</g>
<!-- Node1&#45;&gt;Node5 -->
<g id="edge41_Node000001_Node000005" class="edge">
<title>Node1&#45;&gt;Node5</title>
<g id="a_edge41_Node000001_Node000005"><a xlink:title=" ">
<path fill="none" stroke="#63b8ff" d="M1376.7,-381.09C1373.2,-368.12 1368.22,-350.89 1362.82,-336 1350.31,-301.47 1331.82,-261.92 1323.35,-244.31"/>
<polygon fill="#63b8ff" stroke="#63b8ff" points="1373.55,-381.85 1379.48,-390.62 1380.32,-380.06 1373.55,-381.85"/>
</a>
</g>
</g>
<!-- Node28 -->
<g id="Node000028" class="node">
<title>Node28</title>
<g id="a_Node000028"><a xlink:href="websocket__base_8hpp.html" target="_top" xlink:title=" ">
<polygon fill="white" stroke="#666666" points="1706.7,-356 1494.95,-356 1494.95,-336 1706.7,-336 1706.7,-356"/>
<text text-anchor="middle" x="1600.82" y="-342.5" font-family="Helvetica,sans-Serif" font-size="10.00">include/roar/websocket/websocket_base.hpp</text>
</a>
</g>
</g>
<!-- Node1&#45;&gt;Node28 -->
<g id="edge42_Node000001_Node000028" class="edge">
<title>Node1&#45;&gt;Node28</title>
<g id="a_edge42_Node000001_Node000028"><a xlink:title=" ">
<path fill="none" stroke="#63b8ff" d="M1430.74,-388.94C1470.51,-379.13 1525.85,-365.49 1562.47,-356.46"/>
<polygon fill="#63b8ff" stroke="#63b8ff" points="1430.09,-385.74 1421.22,-391.53 1431.77,-392.54 1430.09,-385.74"/>
</a>
</g>
</g>
<!-- Node29 -->
<g id="Node000029" class="node">
<title>Node29</title>
<g id="a_Node000029"><a xlink:href="websocket__client_8hpp.html" target="_top" xlink:title=" ">
<polygon fill="white" stroke="#666666" points="2078.82,-300 1864.82,-300 1864.82,-280 2078.82,-280 2078.82,-300"/>
<text text-anchor="middle" x="1971.82" y="-286.5" font-family="Helvetica,sans-Serif" font-size="10.00">include/roar/websocket/websocket_client.hpp</text>
</a>
</g>
</g>
<!-- Node1&#45;&gt;Node29 -->
<g id="edge50_Node000001_Node000029" class="edge">
<title>Node1&#45;&gt;Node29</title>
<g id="a_edge50_Node000001_Node000029"><a xlink:title=" ">
<path fill="none" stroke="#63b8ff" d="M1484.24,-390.28C1550.58,-382.58 1638.69,-370.94 1715.82,-356 1797.3,-340.22 1891.54,-314.26 1939.76,-300.4"/>
<polygon fill="#63b8ff" stroke="#63b8ff" points="1483.9,-386.92 1474.36,-391.53 1484.7,-393.87 1483.9,-386.92"/>
</a>
</g>
</g>
<!-- Node3 -->
<g id="Node000003" class="node">
<title>Node3</title>
<g id="a_Node000003"><a xlink:href="client_8cpp.html" target="_top" xlink:title=" ">
<polygon fill="white" stroke="#666666" points="1221.82,-244 1127.82,-244 1127.82,-224 1221.82,-224 1221.82,-244"/>
<text text-anchor="middle" x="1174.82" y="-230.5" font-family="Helvetica,sans-Serif" font-size="10.00">src/roar/client.cpp</text>
</a>
</g>
</g>
<!-- Node2&#45;&gt;Node3 -->
<g id="edge2_Node000002_Node000003" class="edge">
<title>Node2&#45;&gt;Node3</title>
<g id="a_edge2_Node000002_Node000003"><a xlink:title=" ">
<path fill="none" stroke="#63b8ff" d="M1189.55,-269.58C1185.88,-260.97 1181.74,-251.24 1178.78,-244.3"/>
<polygon fill="#63b8ff" stroke="#63b8ff" points="1186.68,-270.77 1193.82,-278.59 1193.12,-268.02 1186.68,-270.77"/>
</a>
</g>
</g>
<!-- Node4&#45;&gt;Node2 -->
<g id="edge4_Node000004_Node000002" class="edge">
<title>Node4&#45;&gt;Node2</title>
<g id="a_edge4_Node000004_Node000002"><a xlink:title=" ">
<path fill="none" stroke="#63b8ff" d="M1264.4,-330.08C1248.28,-320.62 1227.91,-308.66 1213.97,-300.48"/>
<polygon fill="#63b8ff" stroke="#63b8ff" points="1262.4,-333.55 1272.8,-335.59 1265.94,-327.51 1262.4,-333.55"/>
</a>
</g>
</g>
<!-- Node4&#45;&gt;Node5 -->
<g id="edge5_Node000004_Node000005" class="edge">
<title>Node4&#45;&gt;Node5</title>
<g id="a_edge5_Node000004_Node000005"><a xlink:title=" ">
<path fill="none" stroke="#63b8ff" d="M1295.02,-325.3C1301.31,-301.43 1311.65,-262.2 1316.36,-244.35"/>
<polygon fill="#63b8ff" stroke="#63b8ff" points="1291.46,-324.06 1292.29,-334.62 1298.23,-325.84 1291.46,-324.06"/>
</a>
</g>
</g>
<!-- Node6 -->
<g id="Node000006" class="node">
<title>Node6</title>
<g id="a_Node000006"><a xlink:href="directory__server_8hpp.html" target="_top" xlink:title=" ">
<polygon fill="white" stroke="#666666" points="1181.07,-132 950.57,-132 950.57,-112 1181.07,-112 1181.07,-132"/>
<text text-anchor="middle" x="1065.82" y="-118.5" font-family="Helvetica,sans-Serif" font-size="10.00">include/roar/directory_server/directory_server.hpp</text>
</a>
</g>
</g>
<!-- Node5&#45;&gt;Node6 -->
<g id="edge6_Node000005_Node000006" class="edge">
<title>Node5&#45;&gt;Node6</title>
<g id="a_edge6_Node000005_Node000006"><a xlink:title=" ">
<path fill="none" stroke="#63b8ff" d="M1351.08,-218.99C1375.82,-206.32 1403.19,-186.82 1386.82,-168 1373.14,-152.26 1267.65,-139.66 1181.28,-131.84"/>
<polygon fill="#63b8ff" stroke="#63b8ff" points="1349.94,-216.14 1342.48,-223.66 1353,-222.43 1349.94,-216.14"/>
</a>
</g>
</g>
<!-- Node7 -->
<g id="Node000007" class="node">
<title>Node7</title>
<g id="a_Node000007"><a xlink:href="server_8hpp.html" target="_top" xlink:title=" ">
<polygon fill="white" stroke="#666666" points="1076.32,-76 961.32,-76 961.32,-56 1076.32,-56 1076.32,-76"/>
<text text-anchor="middle" x="1018.82" y="-62.5" font-family="Helvetica,sans-Serif" font-size="10.00">include/roar/server.hpp</text>
</a>
</g>
</g>
<!-- Node5&#45;&gt;Node7 -->
<g id="edge35_Node000005_Node000007" class="edge">
<title>Node5&#45;&gt;Node7</title>
<g id="a_edge35_Node000005_Node000007"><a xlink:title=" ">
<path fill="none" stroke="#63b8ff" d="M1359.67,-219.71C1388.6,-208.08 1419.54,-189.68 1402.82,-168 1364.38,-118.15 1326.71,-148.01 1265.82,-132 1225.83,-121.48 1113.02,-91.79 1054.71,-76.45"/>
<polygon fill="#63b8ff" stroke="#63b8ff" points="1358.7,-216.71 1350.6,-223.54 1361.19,-223.26 1358.7,-216.71"/>
</a>
</g>
</g>
<!-- Node14 -->
<g id="Node000014" class="node">
<title>Node14</title>
<g id="a_Node000014"><a xlink:href="server_8cpp.html" target="_top" xlink:title=" ">
<polygon fill="white" stroke="#666666" points="1505.7,-20 1407.95,-20 1407.95,0 1505.7,0 1505.7,-20"/>
<text text-anchor="middle" x="1456.82" y="-6.5" font-family="Helvetica,sans-Serif" font-size="10.00">src/roar/server.cpp</text>
</a>
</g>
</g>
<!-- Node5&#45;&gt;Node14 -->
<g id="edge38_Node000005_Node000014" class="edge">
<title>Node5&#45;&gt;Node14</title>
<g id="a_edge38_Node000005_Node000014"><a xlink:title=" ">
<path fill="none" stroke="#63b8ff" d="M1365.83,-220.22C1406.54,-206.21 1462.19,-179.19 1483.82,-132 1497.9,-101.29 1492.84,-88.55 1483.82,-56 1480.08,-42.48 1471.07,-28.94 1464.48,-20.3"/>
<polygon fill="#63b8ff" stroke="#63b8ff" points="1364.98,-217.14 1356.57,-223.58 1367.17,-223.79 1364.98,-217.14"/>
</a>
</g>
</g>
<!-- Node15 -->
<g id="Node000015" class="node">
<title>Node15</title>
<g id="a_Node000015"><a xlink:href="include_2roar_2routing_2request__listener_8hpp.html" target="_top" xlink:title=" ">
<polygon fill="white" stroke="#666666" points="775.45,-188 586.2,-188 586.2,-168 775.45,-168 775.45,-188"/>
<text text-anchor="middle" x="680.82" y="-174.5" font-family="Helvetica,sans-Serif" font-size="10.00">include/roar/routing/request_listener.hpp</text>
</a>
</g>
</g>
<!-- Node5&#45;&gt;Node15 -->
<g id="edge15_Node000005_Node000015" class="edge">
<title>Node5&#45;&gt;Node15</title>
<g id="a_edge15_Node000005_Node000015"><a xlink:title=" ">
<path fill="none" stroke="#63b8ff" d="M1228.46,-223.8C1030.99,-205.83 979.51,-204.28 784.82,-188 781.84,-187.75 778.81,-187.5 775.76,-187.24"/>
<polygon fill="#63b8ff" stroke="#63b8ff" points="1227.93,-227.36 1238.2,-224.78 1228.56,-220.39 1227.93,-227.36"/>
</a>
</g>
</g>
<!-- Node24 -->
<g id="Node000024" class="node">
<title>Node24</title>
<g id="a_Node000024"><a xlink:href="route_8cpp.html" target="_top" xlink:title=" ">
<polygon fill="white" stroke="#666666" points="918.2,-188 793.45,-188 793.45,-168 918.2,-168 918.2,-188"/>
<text text-anchor="middle" x="855.82" y="-174.5" font-family="Helvetica,sans-Serif" font-size="10.00">src/roar/routing/route.cpp</text>
</a>
</g>
</g>
<!-- Node5&#45;&gt;Node24 -->
<g id="edge36_Node000005_Node000024" class="edge">
<title>Node5&#45;&gt;Node24</title>
<g id="a_edge36_Node000005_Node000024"><a xlink:title=" ">
<path fill="none" stroke="#63b8ff" d="M1228.75,-222.96C1149.27,-214.04 1030.31,-200.5 926.82,-188 924.11,-187.67 921.34,-187.33 918.54,-186.99"/>
<polygon fill="#63b8ff" stroke="#63b8ff" points="1227.88,-226.5 1238.21,-224.14 1228.66,-219.55 1227.88,-226.5"/>
</a>
</g>
</g>
<!-- Node25 -->
<g id="Node000025" class="node">
<title>Node25</title>
<g id="a_Node000025"><a xlink:href="router_8cpp.html" target="_top" xlink:title=" ">
<polygon fill="white" stroke="#666666" points="1063.7,-188 935.95,-188 935.95,-168 1063.7,-168 1063.7,-188"/>
<text text-anchor="middle" x="999.82" y="-174.5" font-family="Helvetica,sans-Serif" font-size="10.00">src/roar/routing/router.cpp</text>
</a>
</g>
</g>
<!-- Node5&#45;&gt;Node25 -->
<g id="edge37_Node000005_Node000025" class="edge">
<title>Node5&#45;&gt;Node25</title>
<g id="a_edge37_Node000005_Node000025"><a xlink:title=" ">
<path fill="none" stroke="#63b8ff" d="M1252.33,-221.74C1194.12,-211.89 1110.5,-197.74 1055.69,-188.46"/>
<polygon fill="#63b8ff" stroke="#63b8ff" points="1251.45,-225.31 1261.89,-223.53 1252.62,-218.41 1251.45,-225.31"/>
</a>
</g>
</g>
<!-- Node26 -->
<g id="Node000026" class="node">
<title>Node26</title>
<g id="a_Node000026"><a xlink:href="factory_8cpp.html" target="_top" xlink:title=" ">
<polygon fill="white" stroke="#666666" points="1218.2,-188 1081.45,-188 1081.45,-168 1218.2,-168 1218.2,-188"/>
<text text-anchor="middle" x="1149.82" y="-174.5" font-family="Helvetica,sans-Serif" font-size="10.00">src/roar/session/factory.cpp</text>
</a>
</g>
</g>
<!-- Node5&#45;&gt;Node26 -->
<g id="edge39_Node000005_Node000026" class="edge">
<title>Node5&#45;&gt;Node26</title>
<g id="a_edge39_Node000005_Node000026"><a xlink:title=" ">
<path fill="none" stroke="#63b8ff" d="M1279.09,-220.31C1248.59,-210.56 1207.14,-197.32 1179.49,-188.48"/>
<polygon fill="#63b8ff" stroke="#63b8ff" points="1277.79,-223.88 1288.38,-223.59 1279.92,-217.22 1277.79,-223.88"/>
</a>
</g>
</g>
<!-- Node27 -->
<g id="Node000027" class="node">
<title>Node27</title>
<g id="a_Node000027"><a xlink:href="session_8cpp.html" target="_top" xlink:title=" ">
<polygon fill="white" stroke="#666666" points="1377.45,-188 1236.2,-188 1236.2,-168 1377.45,-168 1377.45,-188"/>
<text text-anchor="middle" x="1306.82" y="-174.5" font-family="Helvetica,sans-Serif" font-size="10.00">src/roar/session/session.cpp</text>
</a>
</g>
</g>
<!-- Node5&#45;&gt;Node27 -->
<g id="edge40_Node000005_Node000027" class="edge">
<title>Node5&#45;&gt;Node27</title>
<g id="a_edge40_Node000005_Node000027"><a xlink:title=" ">
<path fill="none" stroke="#63b8ff" d="M1314.38,-213C1312.5,-204.54 1310.4,-195.08 1308.89,-188.3"/>
<polygon fill="#63b8ff" stroke="#63b8ff" points="1311.15,-213.59 1316.73,-222.59 1317.98,-212.07 1311.15,-213.59"/>
</a>
</g>
</g>
<!-- Node6&#45;&gt;Node7 -->
<g id="edge7_Node000006_Node000007" class="edge">
<title>Node6&#45;&gt;Node7</title>
<g id="a_edge7_Node000006_Node000007"><a xlink:title=" ">
<path fill="none" stroke="#63b8ff" d="M1050.65,-103.57C1042.76,-94.5 1033.42,-83.78 1026.91,-76.3"/>
<polygon fill="#63b8ff" stroke="#63b8ff" points="1048.43,-105.35 1057.63,-110.59 1053.71,-100.75 1048.43,-105.35"/>
</a>
</g>
</g>
<!-- Node8 -->
<g id="Node000008" class="node">
<title>Node8</title>
<g id="a_Node000008"><a xlink:href="100__continue_2main_8cpp.html" target="_top" xlink:title=" ">
<polygon fill="white" stroke="#666666" points="609.57,-20 448.07,-20 448.07,0 609.57,0 609.57,-20"/>
<text text-anchor="middle" x="528.82" y="-6.5" font-family="Helvetica,sans-Serif" font-size="10.00">examples/100_continue/main.cpp</text>
</a>
</g>
</g>
<!-- Node7&#45;&gt;Node8 -->
<g id="edge8_Node000007_Node000008" class="edge">
<title>Node7&#45;&gt;Node8</title>
<g id="a_edge8_Node000007_Node000008"><a xlink:title=" ">
<path fill="none" stroke="#63b8ff" d="M950.35,-57.45C861.02,-47.61 704.92,-30.41 609.81,-19.93"/>
<polygon fill="#63b8ff" stroke="#63b8ff" points="949.85,-61.03 960.17,-58.65 950.62,-54.07 949.85,-61.03"/>
</a>
</g>
</g>
<!-- Node9 -->
<g id="Node000009" class="node">
<title>Node9</title>
<g id="a_Node000009"><a xlink:href="most__minimal_2main_8cpp.html" target="_top" xlink:title=" ">
<polygon fill="white" stroke="#666666" points="1164.07,-20 999.57,-20 999.57,0 1164.07,0 1164.07,-20"/>
<text text-anchor="middle" x="1081.82" y="-6.5" font-family="Helvetica,sans-Serif" font-size="10.00">examples/most_minimal/main.cpp</text>
</a>
</g>
</g>
<!-- Node7&#45;&gt;Node9 -->
<g id="edge9_Node000007_Node000009" class="edge">
<title>Node7&#45;&gt;Node9</title>
<g id="a_edge9_Node000007_Node000009"><a xlink:title=" ">
<path fill="none" stroke="#63b8ff" d="M1037.86,-48.68C1048.7,-39.39 1061.89,-28.09 1070.97,-20.3"/>
<polygon fill="#63b8ff" stroke="#63b8ff" points="1036.11,-46.43 1030.8,-55.59 1040.67,-51.74 1036.11,-46.43"/>
</a>
</g>
</g>
<!-- Node10 -->
<g id="Node000010" class="node">
<title>Node10</title>
<g id="a_Node000010"><a xlink:href="serve__directory_2main_8cpp.html" target="_top" xlink:title=" ">
<polygon fill="white" stroke="#666666" points="322.07,-20 151.57,-20 151.57,0 322.07,0 322.07,-20"/>
<text text-anchor="middle" x="236.82" y="-6.5" font-family="Helvetica,sans-Serif" font-size="10.00">examples/serve_directory/main.cpp</text>
</a>
</g>
</g>
<!-- Node7&#45;&gt;Node10 -->
<g id="edge10_Node000007_Node000010" class="edge">
<title>Node7&#45;&gt;Node10</title>
<g id="a_edge10_Node000007_Node000010"><a xlink:title=" ">
<path fill="none" stroke="#63b8ff" d="M950.23,-60.26C807.45,-50.4 478.64,-27.7 322.34,-16.91"/>
<polygon fill="#63b8ff" stroke="#63b8ff" points="949.78,-63.81 960,-61.01 950.27,-56.83 949.78,-63.81"/>
</a>
</g>
</g>
<!-- Node11 -->
<g id="Node000011" class="node">
<title>Node11</title>
<g id="a_Node000011"><a xlink:href="simple__server_2main_8cpp.html" target="_top" xlink:title=" ">
<polygon fill="white" stroke="#666666" points="792.07,-20 627.57,-20 627.57,0 792.07,0 792.07,-20"/>
<text text-anchor="middle" x="709.82" y="-6.5" font-family="Helvetica,sans-Serif" font-size="10.00">examples/simple_server/main.cpp</text>
</a>
</g>
</g>
<!-- Node7&#45;&gt;Node11 -->
<g id="edge11_Node000007_Node000011" class="edge">
<title>Node7&#45;&gt;Node11</title>
<g id="a_edge11_Node000007_Node000011"><a xlink:title=" ">
<path fill="none" stroke="#63b8ff" d="M954.06,-53.68C897.69,-43.83 816.92,-29.72 763.94,-20.46"/>
<polygon fill="#63b8ff" stroke="#63b8ff" points="953.19,-57.26 963.64,-55.53 954.4,-50.36 953.19,-57.26"/>
</a>
</g>
</g>
<!-- Node12 -->
<g id="Node000012" class="node">
<title>Node12</title>
<g id="a_Node000012"><a xlink:href="websocket_2main_8cpp.html" target="_top" xlink:title=" ">
<polygon fill="white" stroke="#666666" points="1333.32,-20 1182.32,-20 1182.32,0 1333.32,0 1333.32,-20"/>
<text text-anchor="middle" x="1257.82" y="-6.5" font-family="Helvetica,sans-Serif" font-size="10.00">examples/websocket/main.cpp</text>
</a>
</g>
</g>
<!-- Node7&#45;&gt;Node12 -->
<g id="edge12_Node000007_Node000012" class="edge">
<title>Node7&#45;&gt;Node12</title>
<g id="a_edge12_Node000007_Node000012"><a xlink:title=" ">
<path fill="none" stroke="#63b8ff" d="M1071.38,-53.13C1114.84,-43.31 1175.75,-29.54 1215.97,-20.46"/>
<polygon fill="#63b8ff" stroke="#63b8ff" points="1070.71,-49.91 1061.73,-55.53 1072.25,-56.74 1070.71,-49.91"/>
</a>
</g>
</g>
<!-- Node13 -->
<g id="Node000013" class="node">
<title>Node13</title>
<g id="a_Node000013"><a xlink:href="src_2roar_2routing_2request__listener_8cpp.html" target="_top" xlink:title=" ">
<polygon fill="white" stroke="#666666" points="981.82,-20 809.82,-20 809.82,0 981.82,0 981.82,-20"/>
<text text-anchor="middle" x="895.82" y="-6.5" font-family="Helvetica,sans-Serif" font-size="10.00">src/roar/routing/request_listener.cpp</text>
</a>
</g>
</g>
<!-- Node7&#45;&gt;Node13 -->
<g id="edge13_Node000007_Node000013" class="edge">
<title>Node7&#45;&gt;Node13</title>
<g id="a_edge13_Node000007_Node000013"><a xlink:title=" ">
<path fill="none" stroke="#63b8ff" d="M987.55,-51.27C965.61,-41.64 936.84,-29.01 917.41,-20.48"/>
<polygon fill="#63b8ff" stroke="#63b8ff" points="985.83,-54.78 996.4,-55.59 988.65,-48.37 985.83,-54.78"/>
</a>
</g>
</g>
<!-- Node7&#45;&gt;Node14 -->
<g id="edge14_Node000007_Node000014" class="edge">
<title>Node7&#45;&gt;Node14</title>
<g id="a_edge14_Node000007_Node000014"><a xlink:title=" ">
<path fill="none" stroke="#63b8ff" d="M1087.32,-56.55C1176.32,-45.58 1329.54,-26.69 1407.77,-17.05"/>
<polygon fill="#63b8ff" stroke="#63b8ff" points="1087.03,-53.19 1077.53,-57.88 1087.89,-60.13 1087.03,-53.19"/>
</a>
</g>
</g>
<!-- Node15&#45;&gt;Node6 -->
<g id="edge32_Node000015_Node000006" class="edge">
<title>Node15&#45;&gt;Node6</title>
<g id="a_edge32_Node000015_Node000006"><a xlink:title=" ">
<path fill="none" stroke="#63b8ff" d="M758.89,-166.05C829.23,-156.18 931.55,-141.83 998.4,-132.46"/>
<polygon fill="#63b8ff" stroke="#63b8ff" points="758.74,-162.68 749.32,-167.53 759.71,-169.61 758.74,-162.68"/>
</a>
</g>
</g>
<!-- Node15&#45;&gt;Node7 -->
<g id="edge33_Node000015_Node000007" class="edge">
<title>Node15&#45;&gt;Node7</title>
<g id="a_edge33_Node000015_Node000007"><a xlink:title=" ">
<path fill="none" stroke="#63b8ff" d="M763.57,-165.78C804.98,-158.71 855.41,-147.85 898.82,-132 919.85,-124.32 975.24,-92.55 1002.79,-76.45"/>
<polygon fill="#63b8ff" stroke="#63b8ff" points="763.26,-162.45 753.97,-167.55 764.41,-169.36 763.26,-162.45"/>
</a>
</g>
</g>
<!-- Node15&#45;&gt;Node8 -->
<g id="edge16_Node000015_Node000008" class="edge">
<title>Node15&#45;&gt;Node8</title>
<g id="a_edge16_Node000015_Node000008"><a xlink:title=" ">
<path fill="none" stroke="#63b8ff" d="M619.49,-164.24C600.09,-157.51 580.03,-147.33 565.82,-132 535.51,-99.29 530.01,-42.37 529.03,-20.21"/>
<polygon fill="#63b8ff" stroke="#63b8ff" points="618.25,-167.84 628.84,-167.54 620.38,-161.17 618.25,-167.84"/>
</a>
</g>
</g>
<!-- Node15&#45;&gt;Node10 -->
<g id="edge23_Node000015_Node000010" class="edge">
<title>Node15&#45;&gt;Node10</title>
<g id="a_edge23_Node000015_Node000010"><a xlink:title=" ">
<path fill="none" stroke="#63b8ff" d="M575.22,-174.49C477.18,-170.43 339.67,-159.81 293.82,-132 252.92,-107.19 240.94,-43.96 237.81,-20.21"/>
<polygon fill="#63b8ff" stroke="#63b8ff" points="574.95,-178.02 585.08,-174.92 575.22,-171.03 574.95,-178.02"/>
</a>
</g>
</g>
<!-- Node15&#45;&gt;Node11 -->
<g id="edge24_Node000015_Node000011" class="edge">
<title>Node15&#45;&gt;Node11</title>
<g id="a_edge24_Node000015_Node000011"><a xlink:title=" ">
<path fill="none" stroke="#63b8ff" d="M746.05,-164.21C764.61,-157.52 783.2,-147.38 795.82,-132 811.86,-112.46 803.59,-101.18 805.82,-76 806.61,-67.15 810.59,-63.5 805.82,-56 794.37,-37.98 773.58,-27.05 754.27,-20.49"/>
<polygon fill="#63b8ff" stroke="#63b8ff" points="745.18,-161.13 736.77,-167.57 747.36,-167.78 745.18,-161.13"/>
</a>
</g>
</g>
<!-- Node15&#45;&gt;Node12 -->
<g id="edge28_Node000015_Node000012" class="edge">
<title>Node15&#45;&gt;Node12</title>
<g id="a_edge28_Node000015_Node000012"><a xlink:title=" ">
<path fill="none" stroke="#63b8ff" d="M786.24,-167.83C935.02,-154.87 1188.77,-132.68 1189.82,-132 1231.32,-105.2 1249.96,-43.73 1255.74,-20.3"/>
<polygon fill="#63b8ff" stroke="#63b8ff" points="786.37,-164.39 776.72,-168.75 786.98,-171.37 786.37,-164.39"/>
</a>
</g>
</g>
<!-- Node15&#45;&gt;Node13 -->
<g id="edge34_Node000015_Node000013" class="edge">
<title>Node15&#45;&gt;Node13</title>
<g id="a_edge34_Node000015_Node000013"><a xlink:title=" ">
<path fill="none" stroke="#63b8ff" d="M744.63,-164.74C768.36,-157.93 794.44,-147.57 814.82,-132 855.6,-100.84 882.64,-43.01 892.09,-20.41"/>
<polygon fill="#63b8ff" stroke="#63b8ff" points="744.03,-161.55 735.28,-167.53 745.85,-168.31 744.03,-161.55"/>
</a>
</g>
</g>
<!-- Node16 -->
<g id="Node000016" class="node">
<title>Node16</title>
<g id="a_Node000016"><a xlink:href="examples_2100__continue_2request__listener_8hpp.html" target="_top" xlink:title=" ">
<polygon fill="white" stroke="#666666" points="512.57,-132 303.07,-132 303.07,-112 512.57,-112 512.57,-132"/>
<text text-anchor="middle" x="407.82" y="-118.5" font-family="Helvetica,sans-Serif" font-size="10.00">examples/100_continue/request_listener.hpp</text>
</a>
</g>
</g>
<!-- Node15&#45;&gt;Node16 -->
<g id="edge17_Node000015_Node000016" class="edge">
<title>Node15&#45;&gt;Node16</title>
<g id="a_edge17_Node000015_Node000016"><a xlink:title=" ">
<path fill="none" stroke="#63b8ff" d="M622.36,-165.44C572.62,-155.6 502.06,-141.64 455.63,-132.46"/>
<polygon fill="#63b8ff" stroke="#63b8ff" points="621.47,-169.03 631.96,-167.53 622.83,-162.16 621.47,-169.03"/>
</a>
</g>
</g>
<!-- Node18 -->
<g id="Node000018" class="node">
<title>Node18</title>
<g id="a_Node000018"><a xlink:href="file__server_8hpp.html" target="_top" xlink:title=" ">
<polygon fill="white" stroke="#666666" points="209.07,-132 14.57,-132 14.57,-112 209.07,-112 209.07,-132"/>
<text text-anchor="middle" x="111.82" y="-118.5" font-family="Helvetica,sans-Serif" font-size="10.00">examples/serve_directory/file_server.hpp</text>
</a>
</g>
</g>
<!-- Node15&#45;&gt;Node18 -->
<g id="edge20_Node000015_Node000018" class="edge">
<title>Node15&#45;&gt;Node18</title>
<g id="a_edge20_Node000015_Node000018"><a xlink:title=" ">
<path fill="none" stroke="#63b8ff" d="M574.99,-166.96C470.23,-157.01 311.18,-141.92 209.39,-132.26"/>
<polygon fill="#63b8ff" stroke="#63b8ff" points="574.62,-170.53 584.9,-167.99 575.28,-163.56 574.62,-170.53"/>
</a>
</g>
</g>
<!-- Node20 -->
<g id="Node000020" class="node">
<title>Node20</title>
<g id="a_Node000020"><a xlink:href="examples_2simple__server_2request__listener_8hpp.html" target="_top" xlink:title=" ">
<polygon fill="white" stroke="#666666" points="787.07,-132 574.57,-132 574.57,-112 787.07,-112 787.07,-132"/>
<text text-anchor="middle" x="680.82" y="-118.5" font-family="Helvetica,sans-Serif" font-size="10.00">examples/simple_server/request_listener.hpp</text>
</a>
</g>
</g>
<!-- Node15&#45;&gt;Node20 -->
<g id="edge25_Node000015_Node000020" class="edge">
<title>Node15&#45;&gt;Node20</title>
<g id="a_edge25_Node000015_Node000020"><a xlink:title=" ">
<path fill="none" stroke="#63b8ff" d="M680.82,-156.71C680.82,-148.32 680.82,-139.01 680.82,-132.3"/>
<polygon fill="#63b8ff" stroke="#63b8ff" points="677.32,-156.59 680.82,-166.59 684.32,-156.59 677.32,-156.59"/>
</a>
</g>
</g>
<!-- Node22 -->
<g id="Node000022" class="node">
<title>Node22</title>
<g id="a_Node000022"><a xlink:href="examples_2websocket_2request__listener_8hpp.html" target="_top" xlink:title=" ">
<polygon fill="white" stroke="#666666" points="1474.32,-132 1275.32,-132 1275.32,-112 1474.32,-112 1474.32,-132"/>
<text text-anchor="middle" x="1374.82" y="-118.5" font-family="Helvetica,sans-Serif" font-size="10.00">examples/websocket/request_listener.hpp</text>
</a>
</g>
</g>
<!-- Node15&#45;&gt;Node22 -->
<g id="edge29_Node000015_Node000022" class="edge">
<title>Node15&#45;&gt;Node22</title>
<g id="a_edge29_Node000015_Node000022"><a xlink:title=" ">
<path fill="none" stroke="#63b8ff" d="M786.66,-167.86C964.96,-153.39 1159.82,-138.8 1274.84,-130.31"/>
<polygon fill="#63b8ff" stroke="#63b8ff" points="786.44,-164.45 776.76,-168.74 787.01,-171.42 786.44,-164.45"/>
</a>
</g>
</g>
<!-- Node16&#45;&gt;Node8 -->
<g id="edge18_Node000016_Node000008" class="edge">
<title>Node16&#45;&gt;Node8</title>
<g id="a_edge18_Node000016_Node000008"><a xlink:title=" ">
<path fill="none" stroke="#63b8ff" d="M438.79,-106.58C453.45,-98.82 470.6,-88.31 483.82,-76 501.9,-59.16 516.8,-33.87 524.06,-20.33"/>
<polygon fill="#63b8ff" stroke="#63b8ff" points="437.45,-103.85 430.12,-111.5 440.62,-110.09 437.45,-103.85"/>
</a>
</g>
</g>
<!-- Node17 -->
<g id="Node000017" class="node">
<title>Node17</title>
<g id="a_Node000017"><a xlink:href="examples_2100__continue_2request__listener_8cpp.html" target="_top" xlink:title=" ">
<polygon fill="white" stroke="#666666" points="474.57,-76 265.07,-76 265.07,-56 474.57,-56 474.57,-76"/>
<text text-anchor="middle" x="369.82" y="-62.5" font-family="Helvetica,sans-Serif" font-size="10.00">examples/100_continue/request_listener.cpp</text>
</a>
</g>
</g>
<!-- Node16&#45;&gt;Node17 -->
<g id="edge19_Node000016_Node000017" class="edge">
<title>Node16&#45;&gt;Node17</title>
<g id="a_edge19_Node000016_Node000017"><a xlink:title=" ">
<path fill="none" stroke="#63b8ff" d="M394.96,-102.72C388.71,-93.84 381.47,-83.55 376.36,-76.3"/>
<polygon fill="#63b8ff" stroke="#63b8ff" points="392.59,-104.43 401.2,-110.59 398.31,-100.4 392.59,-104.43"/>
</a>
</g>
</g>
<!-- Node18&#45;&gt;Node10 -->
<g id="edge22_Node000018_Node000010" class="edge">
<title>Node18&#45;&gt;Node10</title>
<g id="a_edge22_Node000018_Node000010"><a xlink:title=" ">
<path fill="none" stroke="#63b8ff" d="M58.22,-108.6C22.65,-97.84 -14.11,-80.19 5.82,-56 24.27,-33.61 93.33,-22.22 151.17,-16.5"/>
<polygon fill="#63b8ff" stroke="#63b8ff" points="57.08,-112.2 67.66,-111.58 59,-105.47 57.08,-112.2"/>
</a>
</g>
</g>
<!-- Node19 -->
<g id="Node000019" class="node">
<title>Node19</title>
<g id="a_Node000019"><a xlink:href="file__server_8cpp.html" target="_top" xlink:title=" ">
<polygon fill="white" stroke="#666666" points="209.07,-76 14.57,-76 14.57,-56 209.07,-56 209.07,-76"/>
<text text-anchor="middle" x="111.82" y="-62.5" font-family="Helvetica,sans-Serif" font-size="10.00">examples/serve_directory/file_server.cpp</text>
</a>
</g>
</g>
<!-- Node18&#45;&gt;Node19 -->
<g id="edge21_Node000018_Node000019" class="edge">
<title>Node18&#45;&gt;Node19</title>
<g id="a_edge21_Node000018_Node000019"><a xlink:title=" ">
<path fill="none" stroke="#63b8ff" d="M111.82,-100.71C111.82,-92.32 111.82,-83.01 111.82,-76.3"/>
<polygon fill="#63b8ff" stroke="#63b8ff" points="108.32,-100.59 111.82,-110.59 115.32,-100.59 108.32,-100.59"/>
</a>
</g>
</g>
<!-- Node20&#45;&gt;Node11 -->
<g id="edge26_Node000020_Node000011" class="edge">
<title>Node20&#45;&gt;Node11</title>
<g id="a_edge26_Node000020_Node000011"><a xlink:title=" ">
<path fill="none" stroke="#63b8ff" d="M746.27,-107.97C763.27,-101.3 779.64,-91.22 789.82,-76 806.24,-51.46 768.26,-31.55 739.18,-20.5"/>
<polygon fill="#63b8ff" stroke="#63b8ff" points="745.5,-104.88 737.23,-111.52 747.83,-111.48 745.5,-104.88"/>
</a>
</g>
</g>
<!-- Node21 -->
<g id="Node000021" class="node">
<title>Node21</title>
<g id="a_Node000021"><a xlink:href="examples_2simple__server_2request__listener_8cpp.html" target="_top" xlink:title=" ">
<polygon fill="white" stroke="#666666" points="781.07,-76 568.57,-76 568.57,-56 781.07,-56 781.07,-76"/>
<text text-anchor="middle" x="674.82" y="-62.5" font-family="Helvetica,sans-Serif" font-size="10.00">examples/simple_server/request_listener.cpp</text>
</a>
</g>
</g>
<!-- Node20&#45;&gt;Node21 -->
<g id="edge27_Node000020_Node000021" class="edge">
<title>Node20&#45;&gt;Node21</title>
<g id="a_edge27_Node000020_Node000021"><a xlink:title=" ">
<path fill="none" stroke="#63b8ff" d="M678.57,-100.71C677.64,-92.32 676.6,-83.01 675.85,-76.3"/>
<polygon fill="#63b8ff" stroke="#63b8ff" points="675.19,-101.04 679.78,-110.59 682.15,-100.27 675.19,-101.04"/>
</a>
</g>
</g>
<!-- Node22&#45;&gt;Node12 -->
<g id="edge30_Node000022_Node000012" class="edge">
<title>Node22&#45;&gt;Node12</title>
<g id="a_edge30_Node000022_Node000012"><a xlink:title=" ">
<path fill="none" stroke="#63b8ff" d="M1312.67,-107.97C1294.97,-101.27 1277.38,-91.18 1265.82,-76 1253.42,-59.72 1254.5,-34.2 1256.24,-20.48"/>
<polygon fill="#63b8ff" stroke="#63b8ff" points="1311.47,-111.6 1322.06,-111.53 1313.74,-104.98 1311.47,-111.6"/>
</a>
</g>
</g>
<!-- Node23 -->
<g id="Node000023" class="node">
<title>Node23</title>
<g id="a_Node000023"><a xlink:href="examples_2websocket_2request__listener_8cpp.html" target="_top" xlink:title=" ">
<polygon fill="white" stroke="#666666" points="1474.32,-76 1275.32,-76 1275.32,-56 1474.32,-56 1474.32,-76"/>
<text text-anchor="middle" x="1374.82" y="-62.5" font-family="Helvetica,sans-Serif" font-size="10.00">examples/websocket/request_listener.cpp</text>
</a>
</g>
</g>
<!-- Node22&#45;&gt;Node23 -->
<g id="edge31_Node000022_Node000023" class="edge">
<title>Node22&#45;&gt;Node23</title>
<g id="a_edge31_Node000022_Node000023"><a xlink:title=" ">
<path fill="none" stroke="#63b8ff" d="M1374.82,-100.71C1374.82,-92.32 1374.82,-83.01 1374.82,-76.3"/>
<polygon fill="#63b8ff" stroke="#63b8ff" points="1371.32,-100.59 1374.82,-110.59 1378.32,-100.59 1371.32,-100.59"/>
</a>
</g>
</g>
<!-- Node28&#45;&gt;Node29 -->
<g id="edge43_Node000028_Node000029" class="edge">
<title>Node28&#45;&gt;Node29</title>
<g id="a_edge43_Node000028_Node000029"><a xlink:title=" ">
<path fill="none" stroke="#63b8ff" d="M1676.47,-333.99C1744.24,-324.13 1842.57,-309.81 1906.85,-300.46"/>
<polygon fill="#63b8ff" stroke="#63b8ff" points="1676.26,-330.63 1666.87,-335.53 1677.27,-337.56 1676.26,-330.63"/>
</a>
</g>
</g>
<!-- Node31 -->
<g id="Node000031" class="node">
<title>Node31</title>
<g id="a_Node000031"><a xlink:href="websocket__session_8hpp.html" target="_top" xlink:title=" ">
<polygon fill="white" stroke="#666666" points="1634.07,-300 1409.57,-300 1409.57,-280 1634.07,-280 1634.07,-300"/>
<text text-anchor="middle" x="1521.82" y="-286.5" font-family="Helvetica,sans-Serif" font-size="10.00">include/roar/websocket/websocket_session.hpp</text>
</a>
</g>
</g>
<!-- Node28&#45;&gt;Node31 -->
<g id="edge45_Node000028_Node000031" class="edge">
<title>Node28&#45;&gt;Node31</title>
<g id="a_edge45_Node000028_Node000031"><a xlink:title=" ">
<path fill="none" stroke="#63b8ff" d="M1578.21,-329.54C1564.49,-320.17 1547.43,-308.51 1535.69,-300.48"/>
<polygon fill="#63b8ff" stroke="#63b8ff" points="1575.83,-332.84 1586.06,-335.59 1579.78,-327.06 1575.83,-332.84"/>
</a>
</g>
</g>
<!-- Node33 -->
<g id="Node000033" class="node">
<title>Node33</title>
<g id="a_Node000033"><a xlink:href="websocket__base_8cpp.html" target="_top" xlink:title=" ">
<polygon fill="white" stroke="#666666" points="1847.07,-300 1652.57,-300 1652.57,-280 1847.07,-280 1847.07,-300"/>
<text text-anchor="middle" x="1749.82" y="-286.5" font-family="Helvetica,sans-Serif" font-size="10.00">src/roar/websocket/websocket_base.cpp</text>
</a>
</g>
</g>
<!-- Node28&#45;&gt;Node33 -->
<g id="edge49_Node000028_Node000033" class="edge">
<title>Node28&#45;&gt;Node33</title>
<g id="a_edge49_Node000028_Node000033"><a xlink:title=" ">
<path fill="none" stroke="#63b8ff" d="M1636.91,-331.92C1663.7,-322.21 1699.6,-309.2 1723.67,-300.48"/>
<polygon fill="#63b8ff" stroke="#63b8ff" points="1635.98,-328.9 1627.78,-335.59 1638.37,-335.48 1635.98,-328.9"/>
</a>
</g>
</g>
<!-- Node30 -->
<g id="Node000030" class="node">
<title>Node30</title>
<g id="a_Node000030"><a xlink:href="websocket__client_8cpp.html" target="_top" xlink:title=" ">
<polygon fill="white" stroke="#666666" points="2070.2,-244 1873.45,-244 1873.45,-224 2070.2,-224 2070.2,-244"/>
<text text-anchor="middle" x="1971.82" y="-230.5" font-family="Helvetica,sans-Serif" font-size="10.00">src/roar/websocket/websocket_client.cpp</text>
</a>
</g>
</g>
<!-- Node29&#45;&gt;Node30 -->
<g id="edge44_Node000029_Node000030" class="edge">
<title>Node29&#45;&gt;Node30</title>
<g id="a_edge44_Node000029_Node000030"><a xlink:title=" ">
<path fill="none" stroke="#63b8ff" d="M1971.82,-268.71C1971.82,-260.32 1971.82,-251.01 1971.82,-244.3"/>
<polygon fill="#63b8ff" stroke="#63b8ff" points="1968.32,-268.59 1971.82,-278.59 1975.32,-268.59 1968.32,-268.59"/>
</a>
</g>
</g>
<!-- Node31&#45;&gt;Node5 -->
<g id="edge47_Node000031_Node000005" class="edge">
<title>Node31&#45;&gt;Node5</title>
<g id="a_edge47_Node000031_Node000005"><a xlink:title=" ">
<path fill="none" stroke="#63b8ff" d="M1476.01,-276.81C1439.2,-267.02 1388.26,-253.47 1354.46,-244.48"/>
<polygon fill="#63b8ff" stroke="#63b8ff" points="1474.9,-280.41 1485.46,-279.59 1476.7,-273.64 1474.9,-280.41"/>
</a>
</g>
</g>
<!-- Node31&#45;&gt;Node22 -->
<g id="edge46_Node000031_Node000022" class="edge">
<title>Node31&#45;&gt;Node22</title>
<g id="a_edge46_Node000031_Node000022"><a xlink:title=" ">
<path fill="none" stroke="#63b8ff" d="M1515.47,-269.28C1506.28,-243.34 1487.11,-197.59 1457.82,-168 1441.79,-151.81 1418.7,-139.93 1400.94,-132.46"/>
<polygon fill="#63b8ff" stroke="#63b8ff" points="1512.47,-270.32 1518.99,-278.67 1519.1,-268.08 1512.47,-270.32"/>
</a>
</g>
</g>
<!-- Node32 -->
<g id="Node000032" class="node">
<title>Node32</title>
<g id="a_Node000032"><a xlink:href="websocket__session_8cpp.html" target="_top" xlink:title=" ">
<polygon fill="white" stroke="#666666" points="1763.45,-244 1556.2,-244 1556.2,-224 1763.45,-224 1763.45,-244"/>
<text text-anchor="middle" x="1659.82" y="-230.5" font-family="Helvetica,sans-Serif" font-size="10.00">src/roar/websocket/websocket_session.cpp</text>
</a>
</g>
</g>
<!-- Node31&#45;&gt;Node32 -->
<g id="edge48_Node000031_Node000032" class="edge">
<title>Node31&#45;&gt;Node32</title>
<g id="a_edge48_Node000031_Node000032"><a xlink:title=" ">
<path fill="none" stroke="#63b8ff" d="M1555.91,-275.66C1580.64,-265.98 1613.51,-253.12 1635.6,-244.48"/>
<polygon fill="#63b8ff" stroke="#63b8ff" points="1554.9,-272.69 1546.86,-279.59 1557.45,-279.21 1554.9,-272.69"/>
</a>
</g>
</g>
</g>
</svg>

<g id="navigator" transform="translate(0 0)" fill="#404254">
  <rect fill="#f2f5e9" fill-opacity="0.5" stroke="#606060" stroke-width=".5" x="0" y="0" width="60" height="60"/>
  <use id="zoomplus" xlink:href="#zoomPlus" x="17" y="9" onmousedown="handleZoom(evt,'in')"/>
  <use id="zoomminus" xlink:href="#zoomMin" x="42" y="9" onmousedown="handleZoom(evt,'out')"/>
  <use id="reset" xlink:href="#resetDef" x="30" y="36" onmousedown="handleReset()"/>
   <use id="arrowup" xlink:href="#arrowUp" x="0" y="0" onmousedown="handlePan(0,-1)"/>
  <use id="arrowright" xlink:href="#arrowRight" x="0" y="0" onmousedown="handlePan(1,0)"/>
  <use id="arrowdown" xlink:href="#arrowDown" x="0" y="0" onmousedown="handlePan(0,1)"/>
  <use id="arrowleft" xlink:href="#arrowLeft" x="0" y="0" onmousedown="handlePan(-1,0)"/>
</g>
<svg viewBox="0 0 15 15" width="100%" height="30px" preserveAspectRatio="xMaxYMin meet">
 <g id="arrow_out" transform="scale(0.3 0.3)">
  <a xlink:href="promise__compat_8hpp__dep__incl_org.svg" target="_base">
   <rect id="button" ry="5" rx="5" y="6" x="6" height="38" width="38"
        fill="#f2f5e9" fill-opacity="0.5" stroke="#606060" stroke-width="1.0"/>
   <path id="arrow"
     d="M 11.500037,31.436501 C 11.940474,20.09759 22.043105,11.32322 32.158766,21.979434 L 37.068811,17.246167 C 37.068811,17.246167 37.088388,32 37.088388,32 L 22.160133,31.978069 C 22.160133,31.978069 26.997745,27.140456 26.997745,27.140456 C 18.528582,18.264221 13.291696,25.230495 11.500037,31.436501 z"
     style="fill:#404040;"/>
  </a>
 </g>
</svg>

<style type='text/css'>
<![CDATA[
[data-mouse-over-selected='false'] { opacity: 0.7; }
[data-mouse-over-selected='true']  { opacity: 1.0; }
]]>
</style>
<script type="application/ecmascript"><![CDATA[
document.addEventListener('DOMContentLoaded', (event) => {
  highlightEdges();
  highlightAdjacentNodes();
});
]]></script>
</svg>
