<?xml version="1.0" encoding="UTF-8" standalone="no"?>
<!DOCTYPE svg PUBLIC "-//W3C//DTD SVG 1.1//EN"
 "http://www.w3.org/Graphics/SVG/1.1/DTD/svg11.dtd">
<!-- Generated by graphviz version 2.44.1 (20211215.1903)
 -->
<!-- Title: include/roar/detail/promise_compat.hpp Pages: 1 -->
<svg width="1691pt" height="364pt"
 viewBox="0.00 0.00 1691.00 364.00" xmlns="http://www.w3.org/2000/svg" xmlns:xlink="http://www.w3.org/1999/xlink">
<g id="graph0" class="graph" transform="scale(1 1) rotate(0) translate(4 360)">
<title>include/roar/detail/promise_compat.hpp</title>
<!-- Node1 -->
<g id="node1" class="node">
<title>Node1</title>
<g id="a_node1"><a xlink:title=" ">
<polygon fill="#bfbfbf" stroke="black" points="619.5,-336.5 619.5,-355.5 806.5,-355.5 806.5,-336.5 619.5,-336.5"/>
<text text-anchor="middle" x="713" y="-343.5" font-family="Helvetica,sans-Serif" font-size="10.00">include/roar/detail/promise_compat.hpp</text>
</a>
</g>
</g>
<!-- Node2 -->
<g id="node2" class="node">
<title>Node2</title>
<g id="a_node2"><a xlink:href="response_8hpp.html" target="_top" xlink:title=" ">
<polygon fill="none" stroke="black" points="557,-280.5 557,-299.5 685,-299.5 685,-280.5 557,-280.5"/>
<text text-anchor="middle" x="621" y="-287.5" font-family="Helvetica,sans-Serif" font-size="10.00">include/roar/response.hpp</text>
</a>
</g>
</g>
<!-- Node1&#45;&gt;Node2 -->
<g id="edge1" class="edge">
<title>Node1&#45;&gt;Node2</title>
<path fill="none" stroke="midnightblue" d="M689.45,-331.18C672.52,-321.24 650.22,-308.15 635.74,-299.65"/>
<polygon fill="midnightblue" stroke="midnightblue" points="687.82,-334.28 698.22,-336.32 691.37,-328.24 687.82,-334.28"/>
</g>
<!-- Node3 -->
<g id="node3" class="node">
<title>Node3</title>
<g id="a_node3"><a xlink:href="session_8hpp.html" target="_top" xlink:title=" ">
<polygon fill="none" stroke="black" points="682.5,-168.5 682.5,-187.5 841.5,-187.5 841.5,-168.5 682.5,-168.5"/>
<text text-anchor="middle" x="762" y="-175.5" font-family="Helvetica,sans-Serif" font-size="10.00">include/roar/session/session.hpp</text>
</a>
</g>
</g>
<!-- Node1&#45;&gt;Node3 -->
<g id="edge31" class="edge">
<title>Node1&#45;&gt;Node3</title>
<path fill="none" stroke="midnightblue" d="M713.47,-326.15C714.63,-301.78 718.59,-258.39 732,-224 737.39,-210.18 747.55,-196.28 754.55,-187.66"/>
<polygon fill="midnightblue" stroke="midnightblue" points="709.96,-326.34 713.1,-336.46 716.96,-326.59 709.96,-326.34"/>
</g>
<!-- Node23 -->
<g id="node23" class="node">
<title>Node23</title>
<g id="a_node23"><a xlink:href="websocket__base_8hpp.html" target="_top" xlink:title=" ">
<polygon fill="none" stroke="black" points="848,-280.5 848,-299.5 1060,-299.5 1060,-280.5 848,-280.5"/>
<text text-anchor="middle" x="954" y="-287.5" font-family="Helvetica,sans-Serif" font-size="10.00">include/roar/websocket/websocket_base.hpp</text>
</a>
</g>
</g>
<!-- Node1&#45;&gt;Node23 -->
<g id="edge32" class="edge">
<title>Node1&#45;&gt;Node23</title>
<path fill="none" stroke="midnightblue" d="M761.12,-334.22C806.66,-324.01 874.11,-308.9 915.99,-299.52"/>
<polygon fill="midnightblue" stroke="midnightblue" points="760.18,-330.84 751.19,-336.44 761.71,-337.67 760.18,-330.84"/>
</g>
<!-- Node2&#45;&gt;Node3 -->
<g id="edge2" class="edge">
<title>Node2&#45;&gt;Node3</title>
<path fill="none" stroke="midnightblue" d="M638.7,-273.61C654.31,-260.19 677.81,-240.36 699,-224 716.02,-210.86 736.38,-196.56 749.25,-187.69"/>
<polygon fill="midnightblue" stroke="midnightblue" points="636.18,-271.16 630.9,-280.34 640.76,-276.45 636.18,-271.16"/>
</g>
<!-- Node4 -->
<g id="node4" class="node">
<title>Node4</title>
<g id="a_node4"><a xlink:href="include_2roar_2routing_2request__listener_8hpp.html" target="_top" xlink:title=" ">
<polygon fill="none" stroke="black" points="691,-112.5 691,-131.5 881,-131.5 881,-112.5 691,-112.5"/>
<text text-anchor="middle" x="786" y="-119.5" font-family="Helvetica,sans-Serif" font-size="10.00">include/roar/routing/request_listener.hpp</text>
</a>
</g>
</g>
<!-- Node3&#45;&gt;Node4 -->
<g id="edge3" class="edge">
<title>Node3&#45;&gt;Node4</title>
<path fill="none" stroke="midnightblue" d="M770.14,-158.69C774.18,-149.59 778.88,-139.01 782.11,-131.75"/>
<polygon fill="midnightblue" stroke="midnightblue" points="766.83,-157.52 765.96,-168.08 773.22,-160.37 766.83,-157.52"/>
</g>
<!-- Node15 -->
<g id="node15" class="node">
<title>Node15</title>
<g id="a_node15"><a xlink:href="server_8hpp.html" target="_top" xlink:title=" ">
<polygon fill="none" stroke="black" points="851,-56.5 851,-75.5 967,-75.5 967,-56.5 851,-56.5"/>
<text text-anchor="middle" x="909" y="-63.5" font-family="Helvetica,sans-Serif" font-size="10.00">include/roar/server.hpp</text>
</a>
</g>
</g>
<!-- Node3&#45;&gt;Node15 -->
<g id="edge25" class="edge">
<title>Node3&#45;&gt;Node15</title>
<path fill="none" stroke="midnightblue" d="M830.52,-165.7C852.04,-159.09 874.26,-148.61 890,-132 904.88,-116.3 908.19,-89.59 908.87,-75.81"/>
<polygon fill="midnightblue" stroke="midnightblue" points="829.38,-162.39 820.71,-168.48 831.29,-169.13 829.38,-162.39"/>
</g>
<!-- Node18 -->
<g id="node18" class="node">
<title>Node18</title>
<g id="a_node18"><a xlink:href="server_8cpp.html" target="_top" xlink:title=" ">
<polygon fill="none" stroke="black" points="1197,-0.5 1197,-19.5 1295,-19.5 1295,-0.5 1197,-0.5"/>
<text text-anchor="middle" x="1246" y="-7.5" font-family="Helvetica,sans-Serif" font-size="10.00">src/roar/server.cpp</text>
</a>
</g>
</g>
<!-- Node3&#45;&gt;Node18 -->
<g id="edge28" class="edge">
<title>Node3&#45;&gt;Node18</title>
<path fill="none" stroke="midnightblue" d="M801.39,-165.5C831.09,-156.69 872.75,-144.05 909,-132 1028.16,-92.39 1169.09,-39.95 1223.25,-19.59"/>
<polygon fill="midnightblue" stroke="midnightblue" points="800.01,-162.25 791.42,-168.44 802,-168.97 800.01,-162.25"/>
</g>
<!-- Node19 -->
<g id="node19" class="node">
<title>Node19</title>
<g id="a_node19"><a xlink:href="route_8cpp.html" target="_top" xlink:title=" ">
<polygon fill="none" stroke="black" points="1061.5,-112.5 1061.5,-131.5 1186.5,-131.5 1186.5,-112.5 1061.5,-112.5"/>
<text text-anchor="middle" x="1124" y="-119.5" font-family="Helvetica,sans-Serif" font-size="10.00">src/roar/routing/route.cpp</text>
</a>
</g>
</g>
<!-- Node3&#45;&gt;Node19 -->
<g id="edge26" class="edge">
<title>Node3&#45;&gt;Node19</title>
<path fill="none" stroke="midnightblue" d="M829.6,-166.92C897.98,-156.71 1002.55,-141.12 1066.91,-131.52"/>
<polygon fill="midnightblue" stroke="midnightblue" points="828.73,-163.51 819.36,-168.44 829.77,-170.43 828.73,-163.51"/>
</g>
<!-- Node20 -->
<g id="node20" class="node">
<title>Node20</title>
<g id="a_node20"><a xlink:href="router_8cpp.html" target="_top" xlink:title=" ">
<polygon fill="none" stroke="black" points="229,-112.5 229,-131.5 357,-131.5 357,-112.5 229,-112.5"/>
<text text-anchor="middle" x="293" y="-119.5" font-family="Helvetica,sans-Serif" font-size="10.00">src/roar/routing/router.cpp</text>
</a>
</g>
</g>
<!-- Node3&#45;&gt;Node20 -->
<g id="edge27" class="edge">
<title>Node3&#45;&gt;Node20</title>
<path fill="none" stroke="midnightblue" d="M674.89,-167.34C594.63,-158.39 472.25,-144.59 366,-132 363.08,-131.65 360.1,-131.3 357.09,-130.94"/>
<polygon fill="midnightblue" stroke="midnightblue" points="674.62,-170.83 684.95,-168.46 675.4,-163.88 674.62,-170.83"/>
</g>
<!-- Node21 -->
<g id="node21" class="node">
<title>Node21</title>
<g id="a_node21"><a xlink:href="factory_8cpp.html" target="_top" xlink:title=" ">
<polygon fill="none" stroke="black" points="375.5,-112.5 375.5,-131.5 512.5,-131.5 512.5,-112.5 375.5,-112.5"/>
<text text-anchor="middle" x="444" y="-119.5" font-family="Helvetica,sans-Serif" font-size="10.00">src/roar/session/factory.cpp</text>
</a>
</g>
</g>
<!-- Node3&#45;&gt;Node21 -->
<g id="edge29" class="edge">
<title>Node3&#45;&gt;Node21</title>
<path fill="none" stroke="midnightblue" d="M701.51,-166.73C641.41,-156.52 550.34,-141.06 494.15,-131.52"/>
<polygon fill="midnightblue" stroke="midnightblue" points="701.17,-170.22 711.61,-168.44 702.34,-163.32 701.17,-170.22"/>
</g>
<!-- Node22 -->
<g id="node22" class="node">
<title>Node22</title>
<g id="a_node22"><a xlink:href="session_8cpp.html" target="_top" xlink:title=" ">
<polygon fill="none" stroke="black" points="531,-112.5 531,-131.5 673,-131.5 673,-112.5 531,-112.5"/>
<text text-anchor="middle" x="602" y="-119.5" font-family="Helvetica,sans-Serif" font-size="10.00">src/roar/session/session.cpp</text>
</a>
</g>
</g>
<!-- Node3&#45;&gt;Node22 -->
<g id="edge30" class="edge">
<title>Node3&#45;&gt;Node22</title>
<path fill="none" stroke="midnightblue" d="M726.95,-165.17C696.83,-155 654.1,-140.59 627.23,-131.52"/>
<polygon fill="midnightblue" stroke="midnightblue" points="726.05,-168.56 736.65,-168.44 728.29,-161.93 726.05,-168.56"/>
</g>
<!-- Node5 -->
<g id="node5" class="node">
<title>Node5</title>
<g id="a_node5"><a xlink:href="100__continue_2main_8cpp.html" target="_top" xlink:title=" ">
<polygon fill="none" stroke="black" points="228,-0.5 228,-19.5 390,-19.5 390,-0.5 228,-0.5"/>
<text text-anchor="middle" x="309" y="-7.5" font-family="Helvetica,sans-Serif" font-size="10.00">examples/100_continue/main.cpp</text>
</a>
</g>
</g>
<!-- Node4&#45;&gt;Node5 -->
<g id="edge4" class="edge">
<title>Node4&#45;&gt;Node5</title>
<path fill="none" stroke="midnightblue" d="M718.44,-110.9C667.47,-102.81 595.98,-90.45 534,-76 461.14,-59.02 376.78,-32.87 335.09,-19.5"/>
<polygon fill="midnightblue" stroke="midnightblue" points="717.93,-114.37 728.35,-112.46 719.02,-107.45 717.93,-114.37"/>
</g>
<!-- Node6 -->
<g id="node6" class="node">
<title>Node6</title>
<g id="a_node6"><a xlink:href="examples_2100__continue_2request__listener_8hpp.html" target="_top" xlink:title=" ">
<polygon fill="none" stroke="black" points="222,-56.5 222,-75.5 432,-75.5 432,-56.5 222,-56.5"/>
<text text-anchor="middle" x="327" y="-63.5" font-family="Helvetica,sans-Serif" font-size="10.00">examples/100_continue/request_listener.hpp</text>
</a>
</g>
</g>
<!-- Node4&#45;&gt;Node6 -->
<g id="edge5" class="edge">
<title>Node4&#45;&gt;Node6</title>
<path fill="none" stroke="midnightblue" d="M703.47,-111.29C616.88,-101.1 482.09,-85.25 399.47,-75.53"/>
<polygon fill="midnightblue" stroke="midnightblue" points="703.18,-114.78 713.52,-112.47 704,-107.83 703.18,-114.78"/>
</g>
<!-- Node8 -->
<g id="node8" class="node">
<title>Node8</title>
<g id="a_node8"><a xlink:href="request__listener_2main_8cpp.html" target="_top" xlink:title=" ">
<polygon fill="none" stroke="black" points="30.5,-56.5 30.5,-75.5 203.5,-75.5 203.5,-56.5 30.5,-56.5"/>
<text text-anchor="middle" x="117" y="-63.5" font-family="Helvetica,sans-Serif" font-size="10.00">examples/request_listener/main.cpp</text>
</a>
</g>
</g>
<!-- Node4&#45;&gt;Node8 -->
<g id="edge8" class="edge">
<title>Node4&#45;&gt;Node8</title>
<path fill="none" stroke="midnightblue" d="M680.73,-111.9C471.96,-94.95 418.05,-93.48 213,-76 209.91,-75.74 206.77,-75.46 203.6,-75.19"/>
<polygon fill="midnightblue" stroke="midnightblue" points="680.54,-115.4 690.79,-112.72 681.11,-108.42 680.54,-115.4"/>
</g>
<!-- Node9 -->
<g id="node9" class="node">
<title>Node9</title>
<g id="a_node9"><a xlink:href="simple__server_2main_8cpp.html" target="_top" xlink:title=" ">
<polygon fill="none" stroke="black" points="639.5,-0.5 639.5,-19.5 804.5,-19.5 804.5,-0.5 639.5,-0.5"/>
<text text-anchor="middle" x="722" y="-7.5" font-family="Helvetica,sans-Serif" font-size="10.00">examples/simple_server/main.cpp</text>
</a>
</g>
</g>
<!-- Node4&#45;&gt;Node9 -->
<g id="edge9" class="edge">
<title>Node4&#45;&gt;Node9</title>
<path fill="none" stroke="midnightblue" d="M782.36,-102.47C779.16,-88.93 773.63,-70.48 765,-56 756.37,-41.52 742.29,-27.98 732.61,-19.61"/>
<polygon fill="midnightblue" stroke="midnightblue" points="778.99,-103.46 784.52,-112.49 785.83,-101.98 778.99,-103.46"/>
</g>
<!-- Node10 -->
<g id="node10" class="node">
<title>Node10</title>
<g id="a_node10"><a xlink:href="examples_2simple__server_2request__listener_8hpp.html" target="_top" xlink:title=" ">
<polygon fill="none" stroke="black" points="543.5,-56.5 543.5,-75.5 756.5,-75.5 756.5,-56.5 543.5,-56.5"/>
<text text-anchor="middle" x="650" y="-63.5" font-family="Helvetica,sans-Serif" font-size="10.00">examples/simple_server/request_listener.hpp</text>
</a>
</g>
</g>
<!-- Node4&#45;&gt;Node10 -->
<g id="edge10" class="edge">
<title>Node4&#45;&gt;Node10</title>
<path fill="none" stroke="midnightblue" d="M754.87,-108.64C729.34,-98.5 693.89,-84.43 671.45,-75.52"/>
<polygon fill="midnightblue" stroke="midnightblue" points="753.86,-112.01 764.45,-112.44 756.45,-105.5 753.86,-112.01"/>
</g>
<!-- Node12 -->
<g id="node12" class="node">
<title>Node12</title>
<g id="a_node12"><a xlink:href="websocket_2main_8cpp.html" target="_top" xlink:title=" ">
<polygon fill="none" stroke="black" points="1313,-0.5 1313,-19.5 1465,-19.5 1465,-0.5 1313,-0.5"/>
<text text-anchor="middle" x="1389" y="-7.5" font-family="Helvetica,sans-Serif" font-size="10.00">examples/websocket/main.cpp</text>
</a>
</g>
</g>
<!-- Node4&#45;&gt;Node12 -->
<g id="edge13" class="edge">
<title>Node4&#45;&gt;Node12</title>
<path fill="none" stroke="midnightblue" d="M842.78,-110.64C961.27,-89.03 1232.95,-39.47 1342.22,-19.53"/>
<polygon fill="midnightblue" stroke="midnightblue" points="842.02,-107.22 832.81,-112.46 843.28,-114.11 842.02,-107.22"/>
</g>
<!-- Node13 -->
<g id="node13" class="node">
<title>Node13</title>
<g id="a_node13"><a xlink:href="examples_2websocket_2request__listener_8hpp.html" target="_top" xlink:title=" ">
<polygon fill="none" stroke="black" points="1301,-56.5 1301,-75.5 1501,-75.5 1501,-56.5 1301,-56.5"/>
<text text-anchor="middle" x="1401" y="-63.5" font-family="Helvetica,sans-Serif" font-size="10.00">examples/websocket/request_listener.hpp</text>
</a>
</g>
</g>
<!-- Node4&#45;&gt;Node13 -->
<g id="edge14" class="edge">
<title>Node4&#45;&gt;Node13</title>
<path fill="none" stroke="midnightblue" d="M891.38,-111.75C1007.17,-101.58 1191.61,-85.39 1303.97,-75.52"/>
<polygon fill="midnightblue" stroke="midnightblue" points="890.74,-108.29 881.08,-112.65 891.35,-115.26 890.74,-108.29"/>
</g>
<!-- Node4&#45;&gt;Node15 -->
<g id="edge17" class="edge">
<title>Node4&#45;&gt;Node15</title>
<path fill="none" stroke="midnightblue" d="M814.77,-108.37C837.81,-98.26 869.48,-84.35 889.6,-75.52"/>
<polygon fill="midnightblue" stroke="midnightblue" points="813.24,-105.22 805.49,-112.44 816.05,-111.63 813.24,-105.22"/>
</g>
<!-- Node17 -->
<g id="node17" class="node">
<title>Node17</title>
<g id="a_node17"><a xlink:href="src_2roar_2routing_2request__listener_8cpp.html" target="_top" xlink:title=" ">
<polygon fill="none" stroke="black" points="822.5,-0.5 822.5,-19.5 995.5,-19.5 995.5,-0.5 822.5,-0.5"/>
<text text-anchor="middle" x="909" y="-7.5" font-family="Helvetica,sans-Serif" font-size="10.00">src/roar/routing/request_listener.cpp</text>
</a>
</g>
</g>
<!-- Node4&#45;&gt;Node17 -->
<g id="edge24" class="edge">
<title>Node4&#45;&gt;Node17</title>
<path fill="none" stroke="midnightblue" d="M798.41,-104.23C809.08,-90.41 825.36,-70.76 842,-56 858.35,-41.5 879.66,-27.96 893.8,-19.6"/>
<polygon fill="midnightblue" stroke="midnightblue" points="795.5,-102.27 792.25,-112.36 801.08,-106.5 795.5,-102.27"/>
</g>
<!-- Node6&#45;&gt;Node5 -->
<g id="edge6" class="edge">
<title>Node6&#45;&gt;Node5</title>
<path fill="none" stroke="midnightblue" d="M320.8,-46.4C317.79,-37.36 314.31,-26.94 311.92,-19.75"/>
<polygon fill="midnightblue" stroke="midnightblue" points="317.54,-47.7 324.03,-56.08 324.19,-45.49 317.54,-47.7"/>
</g>
<!-- Node7 -->
<g id="node7" class="node">
<title>Node7</title>
<g id="a_node7"><a xlink:href="examples_2100__continue_2request__listener_8cpp.html" target="_top" xlink:title=" ">
<polygon fill="none" stroke="black" points="0,-0.5 0,-19.5 210,-19.5 210,-0.5 0,-0.5"/>
<text text-anchor="middle" x="105" y="-7.5" font-family="Helvetica,sans-Serif" font-size="10.00">examples/100_continue/request_listener.cpp</text>
</a>
</g>
</g>
<!-- Node6&#45;&gt;Node7 -->
<g id="edge7" class="edge">
<title>Node6&#45;&gt;Node7</title>
<path fill="none" stroke="midnightblue" d="M281.88,-54.02C239.94,-43.82 178.35,-28.84 140.01,-19.52"/>
<polygon fill="midnightblue" stroke="midnightblue" points="281.28,-57.48 291.82,-56.44 282.93,-50.68 281.28,-57.48"/>
</g>
<!-- Node10&#45;&gt;Node9 -->
<g id="edge11" class="edge">
<title>Node10&#45;&gt;Node9</title>
<path fill="none" stroke="midnightblue" d="M669.87,-50.1C682.82,-40.38 699.3,-28.03 710.22,-19.83"/>
<polygon fill="midnightblue" stroke="midnightblue" points="667.47,-47.52 661.57,-56.32 671.67,-53.12 667.47,-47.52"/>
</g>
<!-- Node11 -->
<g id="node11" class="node">
<title>Node11</title>
<g id="a_node11"><a xlink:href="examples_2simple__server_2request__listener_8cpp.html" target="_top" xlink:title=" ">
<polygon fill="none" stroke="black" points="408.5,-0.5 408.5,-19.5 621.5,-19.5 621.5,-0.5 408.5,-0.5"/>
<text text-anchor="middle" x="515" y="-7.5" font-family="Helvetica,sans-Serif" font-size="10.00">examples/simple_server/request_listener.cpp</text>
</a>
</g>
</g>
<!-- Node10&#45;&gt;Node11 -->
<g id="edge12" class="edge">
<title>Node10&#45;&gt;Node11</title>
<path fill="none" stroke="midnightblue" d="M619.09,-52.64C593.76,-42.5 558.57,-28.43 536.29,-19.52"/>
<polygon fill="midnightblue" stroke="midnightblue" points="618.02,-55.98 628.61,-56.44 620.62,-49.48 618.02,-55.98"/>
</g>
<!-- Node13&#45;&gt;Node12 -->
<g id="edge15" class="edge">
<title>Node13&#45;&gt;Node12</title>
<path fill="none" stroke="midnightblue" d="M1396.8,-46.1C1394.81,-37.14 1392.52,-26.86 1390.94,-19.75"/>
<polygon fill="midnightblue" stroke="midnightblue" points="1393.43,-47.08 1399.02,-56.08 1400.27,-45.56 1393.43,-47.08"/>
</g>
<!-- Node14 -->
<g id="node14" class="node">
<title>Node14</title>
<g id="a_node14"><a xlink:href="examples_2websocket_2request__listener_8cpp.html" target="_top" xlink:title=" ">
<polygon fill="none" stroke="black" points="1483,-0.5 1483,-19.5 1683,-19.5 1683,-0.5 1483,-0.5"/>
<text text-anchor="middle" x="1583" y="-7.5" font-family="Helvetica,sans-Serif" font-size="10.00">examples/websocket/request_listener.cpp</text>
</a>
</g>
</g>
<!-- Node13&#45;&gt;Node14 -->
<g id="edge16" class="edge">
<title>Node13&#45;&gt;Node14</title>
<path fill="none" stroke="midnightblue" d="M1439.53,-53.57C1473.86,-43.38 1523.33,-28.7 1554.3,-19.52"/>
<polygon fill="midnightblue" stroke="midnightblue" points="1438.43,-50.24 1429.84,-56.44 1440.42,-56.95 1438.43,-50.24"/>
</g>
<!-- Node15&#45;&gt;Node5 -->
<g id="edge18" class="edge">
<title>Node15&#45;&gt;Node5</title>
<path fill="none" stroke="midnightblue" d="M840.8,-59.24C742.96,-50.91 557.12,-34.88 399,-20 396.19,-19.74 393.32,-19.46 390.43,-19.19"/>
<polygon fill="midnightblue" stroke="midnightblue" points="840.59,-62.73 850.85,-60.09 841.18,-55.76 840.59,-62.73"/>
</g>
<!-- Node15&#45;&gt;Node9 -->
<g id="edge20" class="edge">
<title>Node15&#45;&gt;Node9</title>
<path fill="none" stroke="midnightblue" d="M869.41,-53.57C834.13,-43.38 783.31,-28.7 751.49,-19.52"/>
<polygon fill="midnightblue" stroke="midnightblue" points="868.79,-57.03 879.37,-56.44 870.73,-50.31 868.79,-57.03"/>
</g>
<!-- Node15&#45;&gt;Node12 -->
<g id="edge21" class="edge">
<title>Node15&#45;&gt;Node12</title>
<path fill="none" stroke="midnightblue" d="M977.17,-56.45C978.45,-56.3 979.73,-56.15 981,-56 1096.54,-42.41 1230.64,-27.85 1312.64,-19.09"/>
<polygon fill="midnightblue" stroke="midnightblue" points="976.66,-52.99 967.15,-57.66 977.5,-59.94 976.66,-52.99"/>
</g>
<!-- Node16 -->
<g id="node16" class="node">
<title>Node16</title>
<g id="a_node16"><a xlink:href="most__minimal_2main_8cpp.html" target="_top" xlink:title=" ">
<polygon fill="none" stroke="black" points="1013.5,-0.5 1013.5,-19.5 1178.5,-19.5 1178.5,-0.5 1013.5,-0.5"/>
<text text-anchor="middle" x="1096" y="-7.5" font-family="Helvetica,sans-Serif" font-size="10.00">examples/most_minimal/main.cpp</text>
</a>
</g>
</g>
<!-- Node15&#45;&gt;Node16 -->
<g id="edge19" class="edge">
<title>Node15&#45;&gt;Node16</title>
<path fill="none" stroke="midnightblue" d="M948.59,-53.57C983.87,-43.38 1034.69,-28.7 1066.51,-19.52"/>
<polygon fill="midnightblue" stroke="midnightblue" points="947.27,-50.31 938.63,-56.44 949.21,-57.03 947.27,-50.31"/>
</g>
<!-- Node15&#45;&gt;Node17 -->
<g id="edge22" class="edge">
<title>Node15&#45;&gt;Node17</title>
<path fill="none" stroke="midnightblue" d="M909,-45.8C909,-36.91 909,-26.78 909,-19.75"/>
<polygon fill="midnightblue" stroke="midnightblue" points="905.5,-46.08 909,-56.08 912.5,-46.08 905.5,-46.08"/>
</g>
<!-- Node15&#45;&gt;Node18 -->
<g id="edge23" class="edge">
<title>Node15&#45;&gt;Node18</title>
<path fill="none" stroke="midnightblue" d="M972.55,-54.82C1037.7,-44.38 1137.65,-28.36 1196.96,-18.86"/>
<polygon fill="midnightblue" stroke="midnightblue" points="971.72,-51.41 962.4,-56.44 972.83,-58.32 971.72,-51.41"/>
</g>
<!-- Node24 -->
<g id="node24" class="node">
<title>Node24</title>
<g id="a_node24"><a xlink:href="websocket__client_8hpp.html" target="_top" xlink:title=" ">
<polygon fill="none" stroke="black" points="953.5,-224.5 953.5,-243.5 1168.5,-243.5 1168.5,-224.5 953.5,-224.5"/>
<text text-anchor="middle" x="1061" y="-231.5" font-family="Helvetica,sans-Serif" font-size="10.00">include/roar/websocket/websocket_client.hpp</text>
</a>
</g>
</g>
<!-- Node23&#45;&gt;Node24 -->
<g id="edge33" class="edge">
<title>Node23&#45;&gt;Node24</title>
<path fill="none" stroke="midnightblue" d="M980.3,-275.73C1000.11,-265.73 1026.71,-252.31 1043.85,-243.65"/>
<polygon fill="midnightblue" stroke="midnightblue" points="978.54,-272.69 971.19,-280.32 981.7,-278.94 978.54,-272.69"/>
</g>
<!-- Node26 -->
<g id="node26" class="node">
<title>Node26</title>
<g id="a_node26"><a xlink:href="websocket__session_8hpp.html" target="_top" xlink:title=" ">
<polygon fill="none" stroke="black" points="1186.5,-224.5 1186.5,-243.5 1411.5,-243.5 1411.5,-224.5 1186.5,-224.5"/>
<text text-anchor="middle" x="1299" y="-231.5" font-family="Helvetica,sans-Serif" font-size="10.00">include/roar/websocket/websocket_session.hpp</text>
</a>
</g>
</g>
<!-- Node23&#45;&gt;Node26 -->
<g id="edge35" class="edge">
<title>Node23&#45;&gt;Node26</title>
<path fill="none" stroke="midnightblue" d="M1018.82,-278.85C1084.01,-268.65 1183.38,-253.1 1244.59,-243.52"/>
<polygon fill="midnightblue" stroke="midnightblue" points="1018,-275.44 1008.67,-280.44 1019.09,-282.35 1018,-275.44"/>
</g>
<!-- Node28 -->
<g id="node28" class="node">
<title>Node28</title>
<g id="a_node28"><a xlink:href="websocket__base_8cpp.html" target="_top" xlink:title=" ">
<polygon fill="none" stroke="black" points="740.5,-224.5 740.5,-243.5 935.5,-243.5 935.5,-224.5 740.5,-224.5"/>
<text text-anchor="middle" x="838" y="-231.5" font-family="Helvetica,sans-Serif" font-size="10.00">src/roar/websocket/websocket_base.cpp</text>
</a>
</g>
</g>
<!-- Node23&#45;&gt;Node28 -->
<g id="edge39" class="edge">
<title>Node23&#45;&gt;Node28</title>
<path fill="none" stroke="midnightblue" d="M926.28,-276.1C904.61,-266.01 875.1,-252.27 856.29,-243.52"/>
<polygon fill="midnightblue" stroke="midnightblue" points="925.08,-279.4 935.62,-280.44 928.03,-273.05 925.08,-279.4"/>
</g>
<!-- Node25 -->
<g id="node25" class="node">
<title>Node25</title>
<g id="a_node25"><a xlink:href="websocket__client_8cpp.html" target="_top" xlink:title=" ">
<polygon fill="none" stroke="black" points="955.5,-168.5 955.5,-187.5 1152.5,-187.5 1152.5,-168.5 955.5,-168.5"/>
<text text-anchor="middle" x="1054" y="-175.5" font-family="Helvetica,sans-Serif" font-size="10.00">src/roar/websocket/websocket_client.cpp</text>
</a>
</g>
</g>
<!-- Node24&#45;&gt;Node25 -->
<g id="edge34" class="edge">
<title>Node24&#45;&gt;Node25</title>
<path fill="none" stroke="midnightblue" d="M1058.55,-214.1C1057.39,-205.14 1056.06,-194.86 1055.13,-187.75"/>
<polygon fill="midnightblue" stroke="midnightblue" points="1055.09,-214.62 1059.84,-224.08 1062.03,-213.72 1055.09,-214.62"/>
</g>
<!-- Node26&#45;&gt;Node3 -->
<g id="edge37" class="edge">
<title>Node26&#45;&gt;Node3</title>
<path fill="none" stroke="midnightblue" d="M1204.11,-223.46C1101.03,-213.09 938.17,-196.71 841.53,-187"/>
<polygon fill="midnightblue" stroke="midnightblue" points="1203.91,-226.96 1214.21,-224.47 1204.61,-219.99 1203.91,-226.96"/>
</g>
<!-- Node26&#45;&gt;Node13 -->
<g id="edge36" class="edge">
<title>Node26&#45;&gt;Node13</title>
<path fill="none" stroke="midnightblue" d="M1342.87,-220.82C1359.65,-213.92 1377.3,-203.48 1388,-188 1412.51,-152.55 1406.21,-96.76 1402.64,-75.56"/>
<polygon fill="midnightblue" stroke="midnightblue" points="1341.28,-217.68 1333.16,-224.48 1343.75,-224.23 1341.28,-217.68"/>
</g>
<!-- Node27 -->
<g id="node27" class="node">
<title>Node27</title>
<g id="a_node27"><a xlink:href="websocket__session_8cpp.html" target="_top" xlink:title=" ">
<polygon fill="none" stroke="black" points="1171,-168.5 1171,-187.5 1379,-187.5 1379,-168.5 1171,-168.5"/>
<text text-anchor="middle" x="1275" y="-175.5" font-family="Helvetica,sans-Serif" font-size="10.00">src/roar/websocket/websocket_session.cpp</text>
</a>
</g>
</g>
<!-- Node26&#45;&gt;Node27 -->
<g id="edge38" class="edge">
<title>Node26&#45;&gt;Node27</title>
<path fill="none" stroke="midnightblue" d="M1290.86,-214.69C1286.82,-205.59 1282.12,-195.01 1278.89,-187.75"/>
<polygon fill="midnightblue" stroke="midnightblue" points="1287.78,-216.37 1295.04,-224.08 1294.17,-213.52 1287.78,-216.37"/>
</g>
</g>
</svg>
