<?xml version="1.0" encoding="UTF-8" standalone="no"?>
<!DOCTYPE svg PUBLIC "-//W3C//DTD SVG 1.1//EN"
 "http://www.w3.org/Graphics/SVG/1.1/DTD/svg11.dtd">
<!-- Generated by graphviz version 2.44.1 (20211215.1903)
 -->
<!-- Title: include/roar/detail/promise_compat.hpp Pages: 1 -->
<svg width="1782pt" height="420pt"
 viewBox="0.00 0.00 1781.73 420.00" xmlns="http://www.w3.org/2000/svg" xmlns:xlink="http://www.w3.org/1999/xlink">
<g id="graph0" class="graph" transform="scale(1 1) rotate(0) translate(4 416)">
<title>include/roar/detail/promise_compat.hpp</title>
<!-- Node1 -->
<g id="node1" class="node">
<title>Node1</title>
<g id="a_node1"><a xlink:title=" ">
<polygon fill="#bfbfbf" stroke="black" points="1225.44,-392.5 1225.44,-411.5 1412.44,-411.5 1412.44,-392.5 1225.44,-392.5"/>
<text text-anchor="middle" x="1318.94" y="-399.5" font-family="Helvetica,sans-Serif" font-size="10.00">include/roar/detail/promise_compat.hpp</text>
</a>
</g>
</g>
<!-- Node2 -->
<g id="node2" class="node">
<title>Node2</title>
<g id="a_node2"><a xlink:href="response_8hpp.html" target="_top" xlink:title=" ">
<polygon fill="none" stroke="black" points="1348.94,-336.5 1348.94,-355.5 1476.94,-355.5 1476.94,-336.5 1348.94,-336.5"/>
<text text-anchor="middle" x="1412.94" y="-343.5" font-family="Helvetica,sans-Serif" font-size="10.00">include/roar/response.hpp</text>
</a>
</g>
</g>
<!-- Node1&#45;&gt;Node2 -->
<g id="edge1" class="edge">
<title>Node1&#45;&gt;Node2</title>
<path fill="none" stroke="midnightblue" d="M1343,-387.18C1360.3,-377.24 1383.09,-364.15 1397.87,-355.65"/>
<polygon fill="midnightblue" stroke="midnightblue" points="1340.97,-384.31 1334.04,-392.32 1344.45,-390.38 1340.97,-384.31"/>
</g>
<!-- Node3 -->
<g id="node3" class="node">
<title>Node3</title>
<g id="a_node3"><a xlink:href="session_8hpp.html" target="_top" xlink:title=" ">
<polygon fill="none" stroke="black" points="1146.44,-224.5 1146.44,-243.5 1305.44,-243.5 1305.44,-224.5 1146.44,-224.5"/>
<text text-anchor="middle" x="1225.94" y="-231.5" font-family="Helvetica,sans-Serif" font-size="10.00">include/roar/session/session.hpp</text>
</a>
</g>
</g>
<!-- Node1&#45;&gt;Node3 -->
<g id="edge38" class="edge">
<title>Node1&#45;&gt;Node3</title>
<path fill="none" stroke="midnightblue" d="M1216.44,-391.05C1170.69,-384.29 1123.92,-373.32 1109.94,-356 1098.97,-342.42 1098.84,-304.66 1117.94,-280 1132.68,-260.97 1156.91,-249.91 1178.69,-243.53"/>
<polygon fill="midnightblue" stroke="midnightblue" points="1216.09,-394.54 1226.48,-392.48 1217.07,-387.61 1216.09,-394.54"/>
</g>
<!-- Node26 -->
<g id="node26" class="node">
<title>Node26</title>
<g id="a_node26"><a xlink:href="websocket__base_8hpp.html" target="_top" xlink:title=" ">
<polygon fill="none" stroke="black" points="1118.94,-336.5 1118.94,-355.5 1330.94,-355.5 1330.94,-336.5 1118.94,-336.5"/>
<text text-anchor="middle" x="1224.94" y="-343.5" font-family="Helvetica,sans-Serif" font-size="10.00">include/roar/websocket/websocket_base.hpp</text>
</a>
</g>
</g>
<!-- Node1&#45;&gt;Node26 -->
<g id="edge39" class="edge">
<title>Node1&#45;&gt;Node26</title>
<path fill="none" stroke="midnightblue" d="M1294.88,-387.18C1277.58,-377.24 1254.79,-364.15 1240,-355.65"/>
<polygon fill="midnightblue" stroke="midnightblue" points="1293.42,-390.38 1303.83,-392.32 1296.91,-384.31 1293.42,-390.38"/>
</g>
<!-- Node27 -->
<g id="node27" class="node">
<title>Node27</title>
<g id="a_node27"><a xlink:href="websocket__client_8hpp.html" target="_top" xlink:title=" ">
<polygon fill="none" stroke="black" points="1392.44,-280.5 1392.44,-299.5 1607.44,-299.5 1607.44,-280.5 1392.44,-280.5"/>
<text text-anchor="middle" x="1499.94" y="-287.5" font-family="Helvetica,sans-Serif" font-size="10.00">include/roar/websocket/websocket_client.hpp</text>
</a>
</g>
</g>
<!-- Node1&#45;&gt;Node27 -->
<g id="edge47" class="edge">
<title>Node1&#45;&gt;Node27</title>
<path fill="none" stroke="midnightblue" d="M1422.61,-391.46C1446.14,-384.69 1469.12,-373.7 1485.94,-356 1500.57,-340.6 1501.4,-313.76 1500.71,-299.88"/>
<polygon fill="midnightblue" stroke="midnightblue" points="1421.65,-388.09 1412.87,-394.02 1423.43,-394.86 1421.65,-388.09"/>
</g>
<!-- Node2&#45;&gt;Node3 -->
<g id="edge2" class="edge">
<title>Node2&#45;&gt;Node3</title>
<path fill="none" stroke="midnightblue" d="M1396.01,-329.36C1380.08,-315.2 1355.12,-294.42 1330.94,-280 1305.04,-264.56 1272.88,-251.59 1251.02,-243.6"/>
<polygon fill="midnightblue" stroke="midnightblue" points="1393.69,-331.99 1403.46,-336.09 1398.39,-326.79 1393.69,-331.99"/>
</g>
<!-- Node4 -->
<g id="node4" class="node">
<title>Node4</title>
<g id="a_node4"><a xlink:href="directory__server_8hpp.html" target="_top" xlink:title=" ">
<polygon fill="none" stroke="black" points="924.44,-112.5 924.44,-131.5 1155.44,-131.5 1155.44,-112.5 924.44,-112.5"/>
<text text-anchor="middle" x="1039.94" y="-119.5" font-family="Helvetica,sans-Serif" font-size="10.00">include/roar/directory_server/directory_server.hpp</text>
</a>
</g>
</g>
<!-- Node3&#45;&gt;Node4 -->
<g id="edge3" class="edge">
<title>Node3&#45;&gt;Node4</title>
<path fill="none" stroke="midnightblue" d="M1191.32,-220.89C1170.28,-212.88 1143.25,-201.39 1120.94,-188 1092.8,-171.11 1063.73,-145.38 1049.28,-131.92"/>
<polygon fill="midnightblue" stroke="midnightblue" points="1190.23,-224.22 1200.83,-224.44 1192.68,-217.66 1190.23,-224.22"/>
</g>
<!-- Node5 -->
<g id="node5" class="node">
<title>Node5</title>
<g id="a_node5"><a xlink:href="server_8hpp.html" target="_top" xlink:title=" ">
<polygon fill="none" stroke="black" points="965.94,-56.5 965.94,-75.5 1081.94,-75.5 1081.94,-56.5 965.94,-56.5"/>
<text text-anchor="middle" x="1023.94" y="-63.5" font-family="Helvetica,sans-Serif" font-size="10.00">include/roar/server.hpp</text>
</a>
</g>
</g>
<!-- Node3&#45;&gt;Node5 -->
<g id="edge32" class="edge">
<title>Node3&#45;&gt;Node5</title>
<path fill="none" stroke="midnightblue" d="M1191.27,-220.24C1177.04,-213.08 1162.03,-202.59 1153.94,-188 1137.42,-158.2 1184.01,-139.53 1163.94,-112 1145.21,-86.31 1111.59,-74.97 1081.99,-70.09"/>
<polygon fill="midnightblue" stroke="midnightblue" points="1189.89,-223.45 1200.43,-224.47 1192.82,-217.1 1189.89,-223.45"/>
</g>
<!-- Node12 -->
<g id="node12" class="node">
<title>Node12</title>
<g id="a_node12"><a xlink:href="server_8cpp.html" target="_top" xlink:title=" ">
<polygon fill="none" stroke="black" points="1571.94,-0.5 1571.94,-19.5 1669.94,-19.5 1669.94,-0.5 1571.94,-0.5"/>
<text text-anchor="middle" x="1620.94" y="-7.5" font-family="Helvetica,sans-Serif" font-size="10.00">src/roar/server.cpp</text>
</a>
</g>
</g>
<!-- Node3&#45;&gt;Node12 -->
<g id="edge35" class="edge">
<title>Node3&#45;&gt;Node12</title>
<path fill="none" stroke="midnightblue" d="M1315.79,-226.97C1466,-216.69 1752.51,-196.08 1759.94,-188 1815.86,-127.16 1684.5,-46.04 1637.15,-19.67"/>
<polygon fill="midnightblue" stroke="midnightblue" points="1315.4,-223.49 1305.66,-227.67 1315.88,-230.48 1315.4,-223.49"/>
</g>
<!-- Node13 -->
<g id="node13" class="node">
<title>Node13</title>
<g id="a_node13"><a xlink:href="include_2roar_2routing_2request__listener_8hpp.html" target="_top" xlink:title=" ">
<polygon fill="none" stroke="black" points="743.94,-168.5 743.94,-187.5 933.94,-187.5 933.94,-168.5 743.94,-168.5"/>
<text text-anchor="middle" x="838.94" y="-175.5" font-family="Helvetica,sans-Serif" font-size="10.00">include/roar/routing/request_listener.hpp</text>
</a>
</g>
</g>
<!-- Node3&#45;&gt;Node13 -->
<g id="edge12" class="edge">
<title>Node3&#45;&gt;Node13</title>
<path fill="none" stroke="midnightblue" d="M1154.57,-223.04C1081.48,-212.84 969.06,-197.16 899.97,-187.52"/>
<polygon fill="midnightblue" stroke="midnightblue" points="1154.23,-226.53 1164.62,-224.44 1155.2,-219.6 1154.23,-226.53"/>
</g>
<!-- Node22 -->
<g id="node22" class="node">
<title>Node22</title>
<g id="a_node22"><a xlink:href="route_8cpp.html" target="_top" xlink:title=" ">
<polygon fill="none" stroke="black" points="1163.44,-168.5 1163.44,-187.5 1288.44,-187.5 1288.44,-168.5 1163.44,-168.5"/>
<text text-anchor="middle" x="1225.94" y="-175.5" font-family="Helvetica,sans-Serif" font-size="10.00">src/roar/routing/route.cpp</text>
</a>
</g>
</g>
<!-- Node3&#45;&gt;Node22 -->
<g id="edge33" class="edge">
<title>Node3&#45;&gt;Node22</title>
<path fill="none" stroke="midnightblue" d="M1225.94,-213.8C1225.94,-204.91 1225.94,-194.78 1225.94,-187.75"/>
<polygon fill="midnightblue" stroke="midnightblue" points="1222.44,-214.08 1225.94,-224.08 1229.44,-214.08 1222.44,-214.08"/>
</g>
<!-- Node23 -->
<g id="node23" class="node">
<title>Node23</title>
<g id="a_node23"><a xlink:href="router_8cpp.html" target="_top" xlink:title=" ">
<polygon fill="none" stroke="black" points="1306.94,-168.5 1306.94,-187.5 1434.94,-187.5 1434.94,-168.5 1306.94,-168.5"/>
<text text-anchor="middle" x="1370.94" y="-175.5" font-family="Helvetica,sans-Serif" font-size="10.00">src/roar/routing/router.cpp</text>
</a>
</g>
</g>
<!-- Node3&#45;&gt;Node23 -->
<g id="edge34" class="edge">
<title>Node3&#45;&gt;Node23</title>
<path fill="none" stroke="midnightblue" d="M1258.41,-220.91C1285.67,-210.75 1323.93,-196.51 1348.07,-187.52"/>
<polygon fill="midnightblue" stroke="midnightblue" points="1257.06,-217.67 1248.91,-224.44 1259.51,-224.23 1257.06,-217.67"/>
</g>
<!-- Node24 -->
<g id="node24" class="node">
<title>Node24</title>
<g id="a_node24"><a xlink:href="factory_8cpp.html" target="_top" xlink:title=" ">
<polygon fill="none" stroke="black" points="1453.44,-168.5 1453.44,-187.5 1590.44,-187.5 1590.44,-168.5 1453.44,-168.5"/>
<text text-anchor="middle" x="1521.94" y="-175.5" font-family="Helvetica,sans-Serif" font-size="10.00">src/roar/session/factory.cpp</text>
</a>
</g>
</g>
<!-- Node3&#45;&gt;Node24 -->
<g id="edge36" class="edge">
<title>Node3&#45;&gt;Node24</title>
<path fill="none" stroke="midnightblue" d="M1282.94,-222.6C1338.88,-212.4 1423.17,-197.02 1475.25,-187.52"/>
<polygon fill="midnightblue" stroke="midnightblue" points="1282.05,-219.21 1272.84,-224.44 1283.31,-226.09 1282.05,-219.21"/>
</g>
<!-- Node25 -->
<g id="node25" class="node">
<title>Node25</title>
<g id="a_node25"><a xlink:href="session_8cpp.html" target="_top" xlink:title=" ">
<polygon fill="none" stroke="black" points="1608.94,-168.5 1608.94,-187.5 1750.94,-187.5 1750.94,-168.5 1608.94,-168.5"/>
<text text-anchor="middle" x="1679.94" y="-175.5" font-family="Helvetica,sans-Serif" font-size="10.00">src/roar/session/session.cpp</text>
</a>
</g>
</g>
<!-- Node3&#45;&gt;Node25 -->
<g id="edge37" class="edge">
<title>Node3&#45;&gt;Node25</title>
<path fill="none" stroke="midnightblue" d="M1307.58,-223.29C1393.37,-213.09 1526.94,-197.2 1608.63,-187.48"/>
<polygon fill="midnightblue" stroke="midnightblue" points="1307.14,-219.82 1297.62,-224.47 1307.97,-226.77 1307.14,-219.82"/>
</g>
<!-- Node4&#45;&gt;Node5 -->
<g id="edge4" class="edge">
<title>Node4&#45;&gt;Node5</title>
<path fill="none" stroke="midnightblue" d="M1034.43,-102.4C1031.75,-93.36 1028.66,-82.94 1026.53,-75.75"/>
<polygon fill="midnightblue" stroke="midnightblue" points="1031.1,-103.49 1037.3,-112.08 1037.81,-101.5 1031.1,-103.49"/>
</g>
<!-- Node6 -->
<g id="node6" class="node">
<title>Node6</title>
<g id="a_node6"><a xlink:href="100__continue_2main_8cpp.html" target="_top" xlink:title=" ">
<polygon fill="none" stroke="black" points="1301.94,-0.5 1301.94,-19.5 1463.94,-19.5 1463.94,-0.5 1301.94,-0.5"/>
<text text-anchor="middle" x="1382.94" y="-7.5" font-family="Helvetica,sans-Serif" font-size="10.00">examples/100_continue/main.cpp</text>
</a>
</g>
</g>
<!-- Node5&#45;&gt;Node6 -->
<g id="edge5" class="edge">
<title>Node5&#45;&gt;Node6</title>
<path fill="none" stroke="midnightblue" d="M1090.97,-54.92C1158.8,-44.71 1262.49,-29.12 1326.32,-19.52"/>
<polygon fill="midnightblue" stroke="midnightblue" points="1090.19,-51.49 1080.82,-56.44 1091.23,-58.42 1090.19,-51.49"/>
</g>
<!-- Node7 -->
<g id="node7" class="node">
<title>Node7</title>
<g id="a_node7"><a xlink:href="most__minimal_2main_8cpp.html" target="_top" xlink:title=" ">
<polygon fill="none" stroke="black" points="1100.44,-0.5 1100.44,-19.5 1265.44,-19.5 1265.44,-0.5 1100.44,-0.5"/>
<text text-anchor="middle" x="1182.94" y="-7.5" font-family="Helvetica,sans-Serif" font-size="10.00">examples/most_minimal/main.cpp</text>
</a>
</g>
</g>
<!-- Node5&#45;&gt;Node7 -->
<g id="edge6" class="edge">
<title>Node5&#45;&gt;Node7</title>
<path fill="none" stroke="midnightblue" d="M1058.76,-53.17C1088.7,-43 1131.16,-28.59 1157.86,-19.52"/>
<polygon fill="midnightblue" stroke="midnightblue" points="1057.47,-49.91 1049.13,-56.44 1059.73,-56.54 1057.47,-49.91"/>
</g>
<!-- Node8 -->
<g id="node8" class="node">
<title>Node8</title>
<g id="a_node8"><a xlink:href="serve__directory_2main_8cpp.html" target="_top" xlink:title=" ">
<polygon fill="none" stroke="black" points="445.44,-0.5 445.44,-19.5 616.44,-19.5 616.44,-0.5 445.44,-0.5"/>
<text text-anchor="middle" x="530.94" y="-7.5" font-family="Helvetica,sans-Serif" font-size="10.00">examples/serve_directory/main.cpp</text>
</a>
</g>
</g>
<!-- Node5&#45;&gt;Node8 -->
<g id="edge7" class="edge">
<title>Node5&#45;&gt;Node8</title>
<path fill="none" stroke="midnightblue" d="M955.73,-57.53C864.75,-47.56 704.06,-29.96 608.55,-19.5"/>
<polygon fill="midnightblue" stroke="midnightblue" points="955.61,-61.04 965.93,-58.65 956.37,-54.08 955.61,-61.04"/>
</g>
<!-- Node9 -->
<g id="node9" class="node">
<title>Node9</title>
<g id="a_node9"><a xlink:href="simple__server_2main_8cpp.html" target="_top" xlink:title=" ">
<polygon fill="none" stroke="black" points="726.44,-0.5 726.44,-19.5 891.44,-19.5 891.44,-0.5 726.44,-0.5"/>
<text text-anchor="middle" x="808.94" y="-7.5" font-family="Helvetica,sans-Serif" font-size="10.00">examples/simple_server/main.cpp</text>
</a>
</g>
</g>
<!-- Node5&#45;&gt;Node9 -->
<g id="edge8" class="edge">
<title>Node5&#45;&gt;Node9</title>
<path fill="none" stroke="midnightblue" d="M979.98,-53.96C939.37,-43.76 879.89,-28.82 842.85,-19.52"/>
<polygon fill="midnightblue" stroke="midnightblue" points="979.32,-57.4 989.87,-56.44 981.02,-50.61 979.32,-57.4"/>
</g>
<!-- Node10 -->
<g id="node10" class="node">
<title>Node10</title>
<g id="a_node10"><a xlink:href="websocket_2main_8cpp.html" target="_top" xlink:title=" ">
<polygon fill="none" stroke="black" points="166.94,-0.5 166.94,-19.5 318.94,-19.5 318.94,-0.5 166.94,-0.5"/>
<text text-anchor="middle" x="242.94" y="-7.5" font-family="Helvetica,sans-Serif" font-size="10.00">examples/websocket/main.cpp</text>
</a>
</g>
</g>
<!-- Node5&#45;&gt;Node10 -->
<g id="edge9" class="edge">
<title>Node5&#45;&gt;Node10</title>
<path fill="none" stroke="midnightblue" d="M955.75,-60.29C810.46,-50.24 471.26,-26.79 319.13,-16.27"/>
<polygon fill="midnightblue" stroke="midnightblue" points="955.66,-63.79 965.87,-60.99 956.14,-56.8 955.66,-63.79"/>
</g>
<!-- Node11 -->
<g id="node11" class="node">
<title>Node11</title>
<g id="a_node11"><a xlink:href="src_2roar_2routing_2request__listener_8cpp.html" target="_top" xlink:title=" ">
<polygon fill="none" stroke="black" points="909.44,-0.5 909.44,-19.5 1082.44,-19.5 1082.44,-0.5 909.44,-0.5"/>
<text text-anchor="middle" x="995.94" y="-7.5" font-family="Helvetica,sans-Serif" font-size="10.00">src/roar/routing/request_listener.cpp</text>
</a>
</g>
</g>
<!-- Node5&#45;&gt;Node11 -->
<g id="edge10" class="edge">
<title>Node5&#45;&gt;Node11</title>
<path fill="none" stroke="midnightblue" d="M1014.6,-46.98C1009.84,-37.82 1004.28,-27.09 1000.48,-19.75"/>
<polygon fill="midnightblue" stroke="midnightblue" points="1011.6,-48.82 1019.31,-56.08 1017.82,-45.59 1011.6,-48.82"/>
</g>
<!-- Node5&#45;&gt;Node12 -->
<g id="edge11" class="edge">
<title>Node5&#45;&gt;Node12</title>
<path fill="none" stroke="midnightblue" d="M1092.3,-58.82C1213.97,-47.81 1465.32,-25.08 1571.68,-15.46"/>
<polygon fill="midnightblue" stroke="midnightblue" points="1091.64,-55.36 1081.99,-59.75 1092.27,-62.33 1091.64,-55.36"/>
</g>
<!-- Node13&#45;&gt;Node4 -->
<g id="edge29" class="edge">
<title>Node13&#45;&gt;Node4</title>
<path fill="none" stroke="midnightblue" d="M880.52,-165.83C918.47,-155.63 973.75,-140.78 1008.24,-131.52"/>
<polygon fill="midnightblue" stroke="midnightblue" points="879.54,-162.47 870.79,-168.44 881.35,-169.23 879.54,-162.47"/>
</g>
<!-- Node13&#45;&gt;Node5 -->
<g id="edge30" class="edge">
<title>Node13&#45;&gt;Node5</title>
<path fill="none" stroke="midnightblue" d="M854.31,-161.26C868.89,-146.99 891.95,-126.08 914.94,-112 941.13,-95.96 974.05,-83.27 996.82,-75.51"/>
<polygon fill="midnightblue" stroke="midnightblue" points="851.73,-158.89 847.13,-168.43 856.68,-163.84 851.73,-158.89"/>
</g>
<!-- Node13&#45;&gt;Node6 -->
<g id="edge13" class="edge">
<title>Node13&#45;&gt;Node6</title>
<path fill="none" stroke="midnightblue" d="M944.24,-172.67C1109.98,-165.34 1414.66,-149.56 1430.94,-132 1462.28,-98.19 1413.19,-41.43 1391.95,-19.76"/>
<polygon fill="midnightblue" stroke="midnightblue" points="943.86,-169.19 934.02,-173.12 944.16,-176.18 943.86,-169.19"/>
</g>
<!-- Node13&#45;&gt;Node8 -->
<g id="edge20" class="edge">
<title>Node13&#45;&gt;Node8</title>
<path fill="none" stroke="midnightblue" d="M733.45,-170.46C668.72,-164.39 593.64,-153 568.94,-132 534.38,-102.63 530.83,-42.18 530.76,-19.68"/>
<polygon fill="midnightblue" stroke="midnightblue" points="733.47,-173.98 743.74,-171.39 734.1,-167.01 733.47,-173.98"/>
</g>
<!-- Node13&#45;&gt;Node9 -->
<g id="edge21" class="edge">
<title>Node13&#45;&gt;Node9</title>
<path fill="none" stroke="midnightblue" d="M835.49,-157.93C828.98,-121.92 815.12,-45.23 810.49,-19.57"/>
<polygon fill="midnightblue" stroke="midnightblue" points="832.1,-158.86 837.32,-168.08 838.99,-157.61 832.1,-158.86"/>
</g>
<!-- Node13&#45;&gt;Node10 -->
<g id="edge25" class="edge">
<title>Node13&#45;&gt;Node10</title>
<path fill="none" stroke="midnightblue" d="M733.32,-173.07C586.73,-166.88 335.42,-153.32 298.94,-132 257.37,-107.71 246.38,-43.01 243.72,-19.6"/>
<polygon fill="midnightblue" stroke="midnightblue" points="733.55,-176.58 743.69,-173.5 733.84,-169.59 733.55,-176.58"/>
</g>
<!-- Node13&#45;&gt;Node11 -->
<g id="edge31" class="edge">
<title>Node13&#45;&gt;Node11</title>
<path fill="none" stroke="midnightblue" d="M849.92,-159.36C858.69,-145.83 871.67,-127 884.94,-112 918.08,-74.53 963.95,-36.45 984.81,-19.76"/>
<polygon fill="midnightblue" stroke="midnightblue" points="846.75,-157.83 844.33,-168.14 852.65,-161.58 846.75,-157.83"/>
</g>
<!-- Node14 -->
<g id="node14" class="node">
<title>Node14</title>
<g id="a_node14"><a xlink:href="examples_2100__continue_2request__listener_8hpp.html" target="_top" xlink:title=" ">
<polygon fill="none" stroke="black" points="1211.94,-112.5 1211.94,-131.5 1421.94,-131.5 1421.94,-112.5 1211.94,-112.5"/>
<text text-anchor="middle" x="1316.94" y="-119.5" font-family="Helvetica,sans-Serif" font-size="10.00">examples/100_continue/request_listener.hpp</text>
</a>
</g>
</g>
<!-- Node13&#45;&gt;Node14 -->
<g id="edge14" class="edge">
<title>Node13&#45;&gt;Node14</title>
<path fill="none" stroke="midnightblue" d="M924.61,-167.32C1014.78,-157.14 1155.34,-141.26 1241.46,-131.53"/>
<polygon fill="midnightblue" stroke="midnightblue" points="923.96,-163.87 914.41,-168.47 924.74,-170.83 923.96,-163.87"/>
</g>
<!-- Node16 -->
<g id="node16" class="node">
<title>Node16</title>
<g id="a_node16"><a xlink:href="file__server_8hpp.html" target="_top" xlink:title=" ">
<polygon fill="none" stroke="black" points="308.44,-112.5 308.44,-131.5 503.44,-131.5 503.44,-112.5 308.44,-112.5"/>
<text text-anchor="middle" x="405.94" y="-119.5" font-family="Helvetica,sans-Serif" font-size="10.00">examples/serve_directory/file_server.hpp</text>
</a>
</g>
</g>
<!-- Node13&#45;&gt;Node16 -->
<g id="edge17" class="edge">
<title>Node13&#45;&gt;Node16</title>
<path fill="none" stroke="midnightblue" d="M760.34,-167.2C678.6,-157 551.92,-141.21 474.23,-131.52"/>
<polygon fill="midnightblue" stroke="midnightblue" points="759.97,-170.68 770.33,-168.44 760.84,-163.73 759.97,-170.68"/>
</g>
<!-- Node18 -->
<g id="node18" class="node">
<title>Node18</title>
<g id="a_node18"><a xlink:href="examples_2simple__server_2request__listener_8hpp.html" target="_top" xlink:title=" ">
<polygon fill="none" stroke="black" points="578.44,-112.5 578.44,-131.5 791.44,-131.5 791.44,-112.5 578.44,-112.5"/>
<text text-anchor="middle" x="684.94" y="-119.5" font-family="Helvetica,sans-Serif" font-size="10.00">examples/simple_server/request_listener.hpp</text>
</a>
</g>
</g>
<!-- Node13&#45;&gt;Node18 -->
<g id="edge22" class="edge">
<title>Node13&#45;&gt;Node18</title>
<path fill="none" stroke="midnightblue" d="M804.83,-165.04C775.85,-154.88 734.98,-140.55 709.23,-131.52"/>
<polygon fill="midnightblue" stroke="midnightblue" points="803.94,-168.44 814.54,-168.44 806.26,-161.83 803.94,-168.44"/>
</g>
<!-- Node20 -->
<g id="node20" class="node">
<title>Node20</title>
<g id="a_node20"><a xlink:href="examples_2websocket_2request__listener_8hpp.html" target="_top" xlink:title=" ">
<polygon fill="none" stroke="black" points="14.94,-112.5 14.94,-131.5 214.94,-131.5 214.94,-112.5 14.94,-112.5"/>
<text text-anchor="middle" x="114.94" y="-119.5" font-family="Helvetica,sans-Serif" font-size="10.00">examples/websocket/request_listener.hpp</text>
</a>
</g>
</g>
<!-- Node13&#45;&gt;Node20 -->
<g id="edge26" class="edge">
<title>Node13&#45;&gt;Node20</title>
<path fill="none" stroke="midnightblue" d="M733.78,-169.41C612.2,-160.59 406.08,-145.53 228.94,-132 224.38,-131.65 219.73,-131.29 215.03,-130.93"/>
<polygon fill="midnightblue" stroke="midnightblue" points="733.61,-172.9 743.83,-170.14 734.11,-165.92 733.61,-172.9"/>
</g>
<!-- Node14&#45;&gt;Node6 -->
<g id="edge15" class="edge">
<title>Node14&#45;&gt;Node6</title>
<path fill="none" stroke="midnightblue" d="M1336.89,-106.03C1346.29,-98.04 1356.95,-87.5 1363.94,-76 1375.04,-57.71 1379.96,-32.57 1381.88,-19.57"/>
<polygon fill="midnightblue" stroke="midnightblue" points="1334.65,-103.33 1329.08,-112.34 1339.05,-108.78 1334.65,-103.33"/>
</g>
<!-- Node15 -->
<g id="node15" class="node">
<title>Node15</title>
<g id="a_node15"><a xlink:href="examples_2100__continue_2request__listener_8cpp.html" target="_top" xlink:title=" ">
<polygon fill="none" stroke="black" points="1144.94,-56.5 1144.94,-75.5 1354.94,-75.5 1354.94,-56.5 1144.94,-56.5"/>
<text text-anchor="middle" x="1249.94" y="-63.5" font-family="Helvetica,sans-Serif" font-size="10.00">examples/100_continue/request_listener.cpp</text>
</a>
</g>
</g>
<!-- Node14&#45;&gt;Node15 -->
<g id="edge16" class="edge">
<title>Node14&#45;&gt;Node15</title>
<path fill="none" stroke="midnightblue" d="M1298.1,-105.82C1286.1,-96.15 1270.97,-83.95 1260.9,-75.83"/>
<polygon fill="midnightblue" stroke="midnightblue" points="1296.19,-108.77 1306.17,-112.32 1300.58,-103.32 1296.19,-108.77"/>
</g>
<!-- Node16&#45;&gt;Node8 -->
<g id="edge19" class="edge">
<title>Node16&#45;&gt;Node8</title>
<path fill="none" stroke="midnightblue" d="M430.1,-107.19C443.62,-98.95 460.42,-87.8 473.94,-76 494.51,-58.03 514.64,-32.76 524.56,-19.65"/>
<polygon fill="midnightblue" stroke="midnightblue" points="428.14,-104.29 421.34,-112.41 431.73,-110.3 428.14,-104.29"/>
</g>
<!-- Node17 -->
<g id="node17" class="node">
<title>Node17</title>
<g id="a_node17"><a xlink:href="file__server_8cpp.html" target="_top" xlink:title=" ">
<polygon fill="none" stroke="black" points="270.44,-56.5 270.44,-75.5 465.44,-75.5 465.44,-56.5 270.44,-56.5"/>
<text text-anchor="middle" x="367.94" y="-63.5" font-family="Helvetica,sans-Serif" font-size="10.00">examples/serve_directory/file_server.cpp</text>
</a>
</g>
</g>
<!-- Node16&#45;&gt;Node17 -->
<g id="edge18" class="edge">
<title>Node16&#45;&gt;Node17</title>
<path fill="none" stroke="midnightblue" d="M393.87,-103.86C387.29,-94.5 379.43,-83.33 374.1,-75.75"/>
<polygon fill="midnightblue" stroke="midnightblue" points="391.05,-105.92 399.66,-112.08 396.77,-101.89 391.05,-105.92"/>
</g>
<!-- Node18&#45;&gt;Node9 -->
<g id="edge23" class="edge">
<title>Node18&#45;&gt;Node9</title>
<path fill="none" stroke="midnightblue" d="M726.43,-109.07C745.04,-101.98 766.1,-91.31 780.94,-76 796.67,-59.76 804.25,-33.29 807.27,-19.68"/>
<polygon fill="midnightblue" stroke="midnightblue" points="725.2,-105.79 716.96,-112.46 727.56,-112.38 725.2,-105.79"/>
</g>
<!-- Node19 -->
<g id="node19" class="node">
<title>Node19</title>
<g id="a_node19"><a xlink:href="examples_2simple__server_2request__listener_8cpp.html" target="_top" xlink:title=" ">
<polygon fill="none" stroke="black" points="559.44,-56.5 559.44,-75.5 772.44,-75.5 772.44,-56.5 559.44,-56.5"/>
<text text-anchor="middle" x="665.94" y="-63.5" font-family="Helvetica,sans-Serif" font-size="10.00">examples/simple_server/request_listener.cpp</text>
</a>
</g>
</g>
<!-- Node18&#45;&gt;Node19 -->
<g id="edge24" class="edge">
<title>Node18&#45;&gt;Node19</title>
<path fill="none" stroke="midnightblue" d="M678.39,-102.4C675.21,-93.36 671.54,-82.94 669.02,-75.75"/>
<polygon fill="midnightblue" stroke="midnightblue" points="675.18,-103.81 681.8,-112.08 681.78,-101.49 675.18,-103.81"/>
</g>
<!-- Node20&#45;&gt;Node10 -->
<g id="edge27" class="edge">
<title>Node20&#45;&gt;Node10</title>
<path fill="none" stroke="midnightblue" d="M63.23,-109.81C25.7,-99.31 -15.09,-81.39 5.94,-56 26.17,-31.56 105.46,-20.29 166.82,-15.16"/>
<polygon fill="midnightblue" stroke="midnightblue" points="62.6,-113.27 73.17,-112.45 64.4,-106.5 62.6,-113.27"/>
</g>
<!-- Node21 -->
<g id="node21" class="node">
<title>Node21</title>
<g id="a_node21"><a xlink:href="examples_2websocket_2request__listener_8cpp.html" target="_top" xlink:title=" ">
<polygon fill="none" stroke="black" points="14.94,-56.5 14.94,-75.5 214.94,-75.5 214.94,-56.5 14.94,-56.5"/>
<text text-anchor="middle" x="114.94" y="-63.5" font-family="Helvetica,sans-Serif" font-size="10.00">examples/websocket/request_listener.cpp</text>
</a>
</g>
</g>
<!-- Node20&#45;&gt;Node21 -->
<g id="edge28" class="edge">
<title>Node20&#45;&gt;Node21</title>
<path fill="none" stroke="midnightblue" d="M114.94,-101.8C114.94,-92.91 114.94,-82.78 114.94,-75.75"/>
<polygon fill="midnightblue" stroke="midnightblue" points="111.44,-102.08 114.94,-112.08 118.44,-102.08 111.44,-102.08"/>
</g>
<!-- Node26&#45;&gt;Node27 -->
<g id="edge40" class="edge">
<title>Node26&#45;&gt;Node27</title>
<path fill="none" stroke="midnightblue" d="M1278.55,-334.47C1330.52,-324.27 1408.38,-308.98 1456.57,-299.52"/>
<polygon fill="midnightblue" stroke="midnightblue" points="1277.65,-331.08 1268.51,-336.44 1279,-337.95 1277.65,-331.08"/>
</g>
<!-- Node29 -->
<g id="node29" class="node">
<title>Node29</title>
<g id="a_node29"><a xlink:href="websocket__session_8hpp.html" target="_top" xlink:title=" ">
<polygon fill="none" stroke="black" points="837.44,-280.5 837.44,-299.5 1062.44,-299.5 1062.44,-280.5 837.44,-280.5"/>
<text text-anchor="middle" x="949.94" y="-287.5" font-family="Helvetica,sans-Serif" font-size="10.00">include/roar/websocket/websocket_session.hpp</text>
</a>
</g>
</g>
<!-- Node26&#45;&gt;Node29 -->
<g id="edge42" class="edge">
<title>Node26&#45;&gt;Node29</title>
<path fill="none" stroke="midnightblue" d="M1171.33,-334.47C1119.36,-324.27 1041.5,-308.98 993.31,-299.52"/>
<polygon fill="midnightblue" stroke="midnightblue" points="1170.88,-337.95 1181.36,-336.44 1172.22,-331.08 1170.88,-337.95"/>
</g>
<!-- Node31 -->
<g id="node31" class="node">
<title>Node31</title>
<g id="a_node31"><a xlink:href="websocket__base_8cpp.html" target="_top" xlink:title=" ">
<polygon fill="none" stroke="black" points="1127.44,-280.5 1127.44,-299.5 1322.44,-299.5 1322.44,-280.5 1127.44,-280.5"/>
<text text-anchor="middle" x="1224.94" y="-287.5" font-family="Helvetica,sans-Serif" font-size="10.00">src/roar/websocket/websocket_base.cpp</text>
</a>
</g>
</g>
<!-- Node26&#45;&gt;Node31 -->
<g id="edge46" class="edge">
<title>Node26&#45;&gt;Node31</title>
<path fill="none" stroke="midnightblue" d="M1224.94,-325.8C1224.94,-316.91 1224.94,-306.78 1224.94,-299.75"/>
<polygon fill="midnightblue" stroke="midnightblue" points="1221.44,-326.08 1224.94,-336.08 1228.44,-326.08 1221.44,-326.08"/>
</g>
<!-- Node28 -->
<g id="node28" class="node">
<title>Node28</title>
<g id="a_node28"><a xlink:href="websocket__client_8cpp.html" target="_top" xlink:title=" ">
<polygon fill="none" stroke="black" points="1401.44,-224.5 1401.44,-243.5 1598.44,-243.5 1598.44,-224.5 1401.44,-224.5"/>
<text text-anchor="middle" x="1499.94" y="-231.5" font-family="Helvetica,sans-Serif" font-size="10.00">src/roar/websocket/websocket_client.cpp</text>
</a>
</g>
</g>
<!-- Node27&#45;&gt;Node28 -->
<g id="edge41" class="edge">
<title>Node27&#45;&gt;Node28</title>
<path fill="none" stroke="midnightblue" d="M1499.94,-269.8C1499.94,-260.91 1499.94,-250.78 1499.94,-243.75"/>
<polygon fill="midnightblue" stroke="midnightblue" points="1496.44,-270.08 1499.94,-280.08 1503.44,-270.08 1496.44,-270.08"/>
</g>
<!-- Node29&#45;&gt;Node3 -->
<g id="edge44" class="edge">
<title>Node29&#45;&gt;Node3</title>
<path fill="none" stroke="midnightblue" d="M1003.74,-278.47C1055.9,-268.27 1134.04,-252.98 1182.41,-243.52"/>
<polygon fill="midnightblue" stroke="midnightblue" points="1002.81,-275.09 993.67,-280.44 1004.16,-281.96 1002.81,-275.09"/>
</g>
<!-- Node29&#45;&gt;Node20 -->
<g id="edge43" class="edge">
<title>Node29&#45;&gt;Node20</title>
<path fill="none" stroke="midnightblue" d="M896.95,-278.47C743.07,-247.87 298.17,-159.43 157.86,-131.53"/>
<polygon fill="midnightblue" stroke="midnightblue" points="896.6,-281.97 907.09,-280.48 897.97,-275.1 896.6,-281.97"/>
</g>
<!-- Node30 -->
<g id="node30" class="node">
<title>Node30</title>
<g id="a_node30"><a xlink:href="websocket__session_8cpp.html" target="_top" xlink:title=" ">
<polygon fill="none" stroke="black" points="845.94,-224.5 845.94,-243.5 1053.94,-243.5 1053.94,-224.5 845.94,-224.5"/>
<text text-anchor="middle" x="949.94" y="-231.5" font-family="Helvetica,sans-Serif" font-size="10.00">src/roar/websocket/websocket_session.cpp</text>
</a>
</g>
</g>
<!-- Node29&#45;&gt;Node30 -->
<g id="edge45" class="edge">
<title>Node29&#45;&gt;Node30</title>
<path fill="none" stroke="midnightblue" d="M949.94,-269.8C949.94,-260.91 949.94,-250.78 949.94,-243.75"/>
<polygon fill="midnightblue" stroke="midnightblue" points="946.44,-270.08 949.94,-280.08 953.44,-270.08 946.44,-270.08"/>
</g>
</g>
</svg>
