<?xml version="1.0" encoding="UTF-8" standalone="no"?>
<!DOCTYPE svg PUBLIC "-//W3C//DTD SVG 1.1//EN"
 "http://www.w3.org/Graphics/SVG/1.1/DTD/svg11.dtd">
<!-- Generated by graphviz version 2.44.1 (20211215.1903)
 -->
<!-- Title: include/roar/detail/promise_compat.hpp Pages: 1 -->
<!--zoomable 364 -->
<svg id="main" version="1.1" xmlns="http://www.w3.org/2000/svg" xmlns:xlink="http://www.w3.org/1999/xlink" xml:space="preserve" onload="init(evt)">
<style type="text/css"><![CDATA[
.edge:hover path { stroke: red; }
.edge:hover polygon { stroke: red; fill: red; }
]]></style>
<script type="text/javascript"><![CDATA[
var edges = document.getElementsByTagName('g');
if (edges && edges.length) {
  for (var i=0;i<edges.length;i++) {
    if (edges[i].id.substr(0,4)=='edge') {
      edges[i].setAttribute('class','edge');
    }
  }
}
]]></script>
        <defs>
                <circle id="rim" cx="0" cy="0" r="7"/>
                <circle id="rim2" cx="0" cy="0" r="3.5"/>
                <g id="zoomPlus">
                        <use xlink:href="#rim" fill="#404040">
                                <set attributeName="fill" to="#808080" begin="zoomplus.mouseover" end="zoomplus.mouseout"/>
                        </use>
                        <path d="M-4,0h8M0,-4v8" fill="none" stroke="white" stroke-width="1.5" pointer-events="none"/>
                </g>
                <g id="zoomMin">
                        <use xlink:href="#rim" fill="#404040">
                                <set attributeName="fill" to="#808080" begin="zoomminus.mouseover" end="zoomminus.mouseout"/>
                        </use>
                        <path d="M-4,0h8" fill="none" stroke="white" stroke-width="1.5" pointer-events="none"/>
                </g>
                <g id="dirArrow">
                        <path fill="none" stroke="white" stroke-width="1.5" d="M0,-3.0v7 M-2.5,-0.5L0,-3.0L2.5,-0.5"/>
                </g>
               <g id="resetDef">
                       <use xlink:href="#rim2" fill="#404040">
                               <set attributeName="fill" to="#808080" begin="reset.mouseover" end="reset.mouseout"/>
                       </use>
               </g>
        </defs>

<script type="text/javascript">
var viewWidth = 1292;
var viewHeight = 364;
var sectionId = 'dynsection-1';
</script>
<script xlink:href="svgpan.js"/>
<svg id="graph" class="graph">
<g id="viewport">
<title>include/roar/detail/promise_compat.hpp</title>
<!-- Node1 -->
<g id="node1" class="node">
<title>Node1</title>
<g id="a_node1"><a xlink:title=" ">
<polygon fill="#bfbfbf" stroke="black" points="440.5,-336.5 440.5,-355.5 627.5,-355.5 627.5,-336.5 440.5,-336.5"/>
<text text-anchor="middle" x="534" y="-343.5" font-family="Helvetica,sans-Serif" font-size="10.00">include/roar/detail/promise_compat.hpp</text>
</a>
</g>
</g>
<!-- Node2 -->
<g id="node2" class="node">
<title>Node2</title>
<g id="a_node2"><a xlink:href="session_8hpp.html" target="_top" xlink:title=" ">
<polygon fill="none" stroke="black" points="368.5,-168.5 368.5,-187.5 527.5,-187.5 527.5,-168.5 368.5,-168.5"/>
<text text-anchor="middle" x="448" y="-175.5" font-family="Helvetica,sans-Serif" font-size="10.00">include/roar/session/session.hpp</text>
</a>
</g>
</g>
<!-- Node1&#45;&gt;Node2 -->
<g id="edge1" class="edge">
<title>Node1&#45;&gt;Node2</title>
<path fill="none" stroke="midnightblue" d="M524.6,-326.86C506.15,-291.25 465.85,-213.45 452.44,-187.57"/>
<polygon fill="midnightblue" stroke="midnightblue" points="521.67,-328.81 529.38,-336.08 527.88,-325.59 521.67,-328.81"/>
</g>
<!-- Node19 -->
<g id="node19" class="node">
<title>Node19</title>
<g id="a_node19"><a xlink:href="websocket__base_8hpp.html" target="_top" xlink:title=" ">
<polygon fill="none" stroke="black" points="628,-280.5 628,-299.5 840,-299.5 840,-280.5 628,-280.5"/>
<text text-anchor="middle" x="734" y="-287.5" font-family="Helvetica,sans-Serif" font-size="10.00">include/roar/websocket/websocket_base.hpp</text>
</a>
</g>
</g>
<!-- Node1&#45;&gt;Node19 -->
<g id="edge25" class="edge">
<title>Node1&#45;&gt;Node19</title>
<path fill="none" stroke="midnightblue" d="M575.37,-333.83C613.14,-323.63 668.14,-308.78 702.46,-299.52"/>
<polygon fill="midnightblue" stroke="midnightblue" points="574.43,-330.46 565.69,-336.44 576.26,-337.22 574.43,-330.46"/>
</g>
<!-- Node3 -->
<g id="node3" class="node">
<title>Node3</title>
<g id="a_node3"><a xlink:href="include_2roar_2routing_2request__listener_8hpp.html" target="_top" xlink:title=" ">
<polygon fill="none" stroke="black" points="703,-112.5 703,-131.5 893,-131.5 893,-112.5 703,-112.5"/>
<text text-anchor="middle" x="798" y="-119.5" font-family="Helvetica,sans-Serif" font-size="10.00">include/roar/routing/request_listener.hpp</text>
</a>
</g>
</g>
<!-- Node2&#45;&gt;Node3 -->
<g id="edge2" class="edge">
<title>Node2&#45;&gt;Node3</title>
<path fill="none" stroke="midnightblue" d="M513.36,-166.92C579.48,-156.71 680.57,-141.12 742.8,-131.52"/>
<polygon fill="midnightblue" stroke="midnightblue" points="512.81,-163.46 503.46,-168.44 513.88,-170.38 512.81,-163.46"/>
</g>
<!-- Node11 -->
<g id="node11" class="node">
<title>Node11</title>
<g id="a_node11"><a xlink:href="server_8hpp.html" target="_top" xlink:title=" ">
<polygon fill="none" stroke="black" points="280,-56.5 280,-75.5 396,-75.5 396,-56.5 280,-56.5"/>
<text text-anchor="middle" x="338" y="-63.5" font-family="Helvetica,sans-Serif" font-size="10.00">include/roar/server.hpp</text>
</a>
</g>
</g>
<!-- Node2&#45;&gt;Node11 -->
<g id="edge19" class="edge">
<title>Node2&#45;&gt;Node11</title>
<path fill="none" stroke="midnightblue" d="M358.22,-171.86C257.73,-165.17 106.58,-151.92 89,-132 83.12,-125.34 83.3,-118.82 89,-112 112.84,-83.47 213.99,-73 279.81,-69.17"/>
<polygon fill="midnightblue" stroke="midnightblue" points="358.18,-175.36 368.38,-172.52 358.63,-168.38 358.18,-175.36"/>
</g>
<!-- Node14 -->
<g id="node14" class="node">
<title>Node14</title>
<g id="a_node14"><a xlink:href="server_8cpp.html" target="_top" xlink:title=" ">
<polygon fill="none" stroke="black" points="0,-0.5 0,-19.5 98,-19.5 98,-0.5 0,-0.5"/>
<text text-anchor="middle" x="49" y="-7.5" font-family="Helvetica,sans-Serif" font-size="10.00">src/roar/server.cpp</text>
</a>
</g>
</g>
<!-- Node2&#45;&gt;Node14 -->
<g id="edge22" class="edge">
<title>Node2&#45;&gt;Node14</title>
<path fill="none" stroke="midnightblue" d="M357.91,-177.29C262.46,-175.68 120.06,-167.2 80,-132 46.44,-102.52 46.82,-42.13 48.25,-19.67"/>
<polygon fill="midnightblue" stroke="midnightblue" points="358.1,-180.79 368.15,-177.44 358.21,-173.79 358.1,-180.79"/>
</g>
<!-- Node15 -->
<g id="node15" class="node">
<title>Node15</title>
<g id="a_node15"><a xlink:href="route_8cpp.html" target="_top" xlink:title=" ">
<polygon fill="none" stroke="black" points="97.5,-112.5 97.5,-131.5 222.5,-131.5 222.5,-112.5 97.5,-112.5"/>
<text text-anchor="middle" x="160" y="-119.5" font-family="Helvetica,sans-Serif" font-size="10.00">src/roar/routing/route.cpp</text>
</a>
</g>
</g>
<!-- Node2&#45;&gt;Node15 -->
<g id="edge20" class="edge">
<title>Node2&#45;&gt;Node15</title>
<path fill="none" stroke="midnightblue" d="M392.2,-166.54C337.77,-156.33 256,-141 205.42,-131.52"/>
<polygon fill="midnightblue" stroke="midnightblue" points="391.89,-170.04 402.37,-168.44 393.18,-163.16 391.89,-170.04"/>
</g>
<!-- Node16 -->
<g id="node16" class="node">
<title>Node16</title>
<g id="a_node16"><a xlink:href="router_8cpp.html" target="_top" xlink:title=" ">
<polygon fill="none" stroke="black" points="241,-112.5 241,-131.5 369,-131.5 369,-112.5 241,-112.5"/>
<text text-anchor="middle" x="305" y="-119.5" font-family="Helvetica,sans-Serif" font-size="10.00">src/roar/routing/router.cpp</text>
</a>
</g>
</g>
<!-- Node2&#45;&gt;Node16 -->
<g id="edge21" class="edge">
<title>Node2&#45;&gt;Node16</title>
<path fill="none" stroke="midnightblue" d="M415.97,-164.91C389.09,-154.75 351.36,-140.51 327.55,-131.52"/>
<polygon fill="midnightblue" stroke="midnightblue" points="414.75,-168.19 425.34,-168.44 417.22,-161.64 414.75,-168.19"/>
</g>
<!-- Node17 -->
<g id="node17" class="node">
<title>Node17</title>
<g id="a_node17"><a xlink:href="factory_8cpp.html" target="_top" xlink:title=" ">
<polygon fill="none" stroke="black" points="387.5,-112.5 387.5,-131.5 524.5,-131.5 524.5,-112.5 387.5,-112.5"/>
<text text-anchor="middle" x="456" y="-119.5" font-family="Helvetica,sans-Serif" font-size="10.00">src/roar/session/factory.cpp</text>
</a>
</g>
</g>
<!-- Node2&#45;&gt;Node17 -->
<g id="edge23" class="edge">
<title>Node2&#45;&gt;Node17</title>
<path fill="none" stroke="midnightblue" d="M450.8,-158.1C452.13,-149.14 453.65,-138.86 454.7,-131.75"/>
<polygon fill="midnightblue" stroke="midnightblue" points="447.32,-157.68 449.32,-168.08 454.25,-158.7 447.32,-157.68"/>
</g>
<!-- Node18 -->
<g id="node18" class="node">
<title>Node18</title>
<g id="a_node18"><a xlink:href="session_8cpp.html" target="_top" xlink:title=" ">
<polygon fill="none" stroke="black" points="543,-112.5 543,-131.5 685,-131.5 685,-112.5 543,-112.5"/>
<text text-anchor="middle" x="614" y="-119.5" font-family="Helvetica,sans-Serif" font-size="10.00">src/roar/session/session.cpp</text>
</a>
</g>
</g>
<!-- Node2&#45;&gt;Node18 -->
<g id="edge24" class="edge">
<title>Node2&#45;&gt;Node18</title>
<path fill="none" stroke="midnightblue" d="M483.95,-165.3C515.23,-155.13 559.82,-140.62 587.82,-131.52"/>
<polygon fill="midnightblue" stroke="midnightblue" points="482.73,-162.02 474.3,-168.44 484.9,-168.68 482.73,-162.02"/>
</g>
<!-- Node4 -->
<g id="node4" class="node">
<title>Node4</title>
<g id="a_node4"><a xlink:href="request__listener_2main_8cpp.html" target="_top" xlink:title=" ">
<polygon fill="none" stroke="black" points="452.5,-56.5 452.5,-75.5 625.5,-75.5 625.5,-56.5 452.5,-56.5"/>
<text text-anchor="middle" x="539" y="-63.5" font-family="Helvetica,sans-Serif" font-size="10.00">examples/request_listener/main.cpp</text>
</a>
</g>
</g>
<!-- Node3&#45;&gt;Node4 -->
<g id="edge3" class="edge">
<title>Node3&#45;&gt;Node4</title>
<path fill="none" stroke="midnightblue" d="M746.9,-110.35C697.95,-100.14 625.05,-84.94 579.85,-75.52"/>
<polygon fill="midnightblue" stroke="midnightblue" points="746.46,-113.83 756.96,-112.44 747.89,-106.98 746.46,-113.83"/>
</g>
<!-- Node5 -->
<g id="node5" class="node">
<title>Node5</title>
<g id="a_node5"><a xlink:href="simple__server_2main_8cpp.html" target="_top" xlink:title=" ">
<polygon fill="none" stroke="black" points="499.5,-0.5 499.5,-19.5 664.5,-19.5 664.5,-0.5 499.5,-0.5"/>
<text text-anchor="middle" x="582" y="-7.5" font-family="Helvetica,sans-Serif" font-size="10.00">examples/simple_server/main.cpp</text>
</a>
</g>
</g>
<!-- Node3&#45;&gt;Node5 -->
<g id="edge4" class="edge">
<title>Node3&#45;&gt;Node5</title>
<path fill="none" stroke="midnightblue" d="M757.67,-109.38C732.84,-101.5 700.76,-89.99 674,-76 642.11,-59.33 608.53,-33.05 592.17,-19.58"/>
<polygon fill="midnightblue" stroke="midnightblue" points="756.9,-112.81 767.49,-112.43 758.97,-106.12 756.9,-112.81"/>
</g>
<!-- Node6 -->
<g id="node6" class="node">
<title>Node6</title>
<g id="a_node6"><a xlink:href="examples_2simple__server_2request__listener_8hpp.html" target="_top" xlink:title=" ">
<polygon fill="none" stroke="black" points="682.5,-56.5 682.5,-75.5 895.5,-75.5 895.5,-56.5 682.5,-56.5"/>
<text text-anchor="middle" x="789" y="-63.5" font-family="Helvetica,sans-Serif" font-size="10.00">examples/simple_server/request_listener.hpp</text>
</a>
</g>
</g>
<!-- Node3&#45;&gt;Node6 -->
<g id="edge5" class="edge">
<title>Node3&#45;&gt;Node6</title>
<path fill="none" stroke="midnightblue" d="M794.85,-102.1C793.36,-93.14 791.64,-82.86 790.46,-75.75"/>
<polygon fill="midnightblue" stroke="midnightblue" points="791.42,-102.79 796.51,-112.08 798.32,-101.64 791.42,-102.79"/>
</g>
<!-- Node8 -->
<g id="node8" class="node">
<title>Node8</title>
<g id="a_node8"><a xlink:href="websocket_2main_8cpp.html" target="_top" xlink:title=" ">
<polygon fill="none" stroke="black" points="914,-0.5 914,-19.5 1066,-19.5 1066,-0.5 914,-0.5"/>
<text text-anchor="middle" x="990" y="-7.5" font-family="Helvetica,sans-Serif" font-size="10.00">examples/websocket/main.cpp</text>
</a>
</g>
</g>
<!-- Node3&#45;&gt;Node8 -->
<g id="edge8" class="edge">
<title>Node3&#45;&gt;Node8</title>
<path fill="none" stroke="midnightblue" d="M833.18,-108.8C854.59,-100.75 882.12,-89.26 905,-76 934.41,-58.95 965.21,-33.06 980.38,-19.68"/>
<polygon fill="midnightblue" stroke="midnightblue" points="831.68,-105.62 823.51,-112.36 834.1,-112.19 831.68,-105.62"/>
</g>
<!-- Node9 -->
<g id="node9" class="node">
<title>Node9</title>
<g id="a_node9"><a xlink:href="examples_2websocket_2request__listener_8hpp.html" target="_top" xlink:title=" ">
<polygon fill="none" stroke="black" points="952,-56.5 952,-75.5 1152,-75.5 1152,-56.5 952,-56.5"/>
<text text-anchor="middle" x="1052" y="-63.5" font-family="Helvetica,sans-Serif" font-size="10.00">examples/websocket/request_listener.hpp</text>
</a>
</g>
</g>
<!-- Node3&#45;&gt;Node9 -->
<g id="edge9" class="edge">
<title>Node3&#45;&gt;Node9</title>
<path fill="none" stroke="midnightblue" d="M848.12,-110.35C896.12,-100.14 967.62,-84.94 1011.94,-75.52"/>
<polygon fill="midnightblue" stroke="midnightblue" points="847.3,-106.94 838.25,-112.44 848.76,-113.79 847.3,-106.94"/>
</g>
<!-- Node3&#45;&gt;Node11 -->
<g id="edge12" class="edge">
<title>Node3&#45;&gt;Node11</title>
<path fill="none" stroke="midnightblue" d="M712.53,-111.31C633.9,-102.34 514.06,-88.54 410,-76 405.5,-75.46 400.84,-74.89 396.15,-74.31"/>
<polygon fill="midnightblue" stroke="midnightblue" points="712.54,-114.83 722.87,-112.49 713.33,-107.88 712.54,-114.83"/>
</g>
<!-- Node13 -->
<g id="node13" class="node">
<title>Node13</title>
<g id="a_node13"><a xlink:href="src_2roar_2routing_2request__listener_8cpp.html" target="_top" xlink:title=" ">
<polygon fill="none" stroke="black" points="308.5,-0.5 308.5,-19.5 481.5,-19.5 481.5,-0.5 308.5,-0.5"/>
<text text-anchor="middle" x="395" y="-7.5" font-family="Helvetica,sans-Serif" font-size="10.00">src/roar/routing/request_listener.cpp</text>
</a>
</g>
</g>
<!-- Node3&#45;&gt;Node13 -->
<g id="edge18" class="edge">
<title>Node3&#45;&gt;Node13</title>
<path fill="none" stroke="midnightblue" d="M692.56,-111.77C596.1,-102.66 465.25,-88.33 444,-76 421.02,-62.67 405.37,-33.86 398.67,-19.5"/>
<polygon fill="midnightblue" stroke="midnightblue" points="692.38,-115.27 702.66,-112.72 693.03,-108.3 692.38,-115.27"/>
</g>
<!-- Node6&#45;&gt;Node5 -->
<g id="edge6" class="edge">
<title>Node6&#45;&gt;Node5</title>
<path fill="none" stroke="midnightblue" d="M746.18,-53.83C707.09,-43.63 650.17,-28.78 614.65,-19.52"/>
<polygon fill="midnightblue" stroke="midnightblue" points="745.64,-57.31 756.2,-56.44 747.41,-50.53 745.64,-57.31"/>
</g>
<!-- Node7 -->
<g id="node7" class="node">
<title>Node7</title>
<g id="a_node7"><a xlink:href="examples_2simple__server_2request__listener_8cpp.html" target="_top" xlink:title=" ">
<polygon fill="none" stroke="black" points="682.5,-0.5 682.5,-19.5 895.5,-19.5 895.5,-0.5 682.5,-0.5"/>
<text text-anchor="middle" x="789" y="-7.5" font-family="Helvetica,sans-Serif" font-size="10.00">examples/simple_server/request_listener.cpp</text>
</a>
</g>
</g>
<!-- Node6&#45;&gt;Node7 -->
<g id="edge7" class="edge">
<title>Node6&#45;&gt;Node7</title>
<path fill="none" stroke="midnightblue" d="M789,-45.8C789,-36.91 789,-26.78 789,-19.75"/>
<polygon fill="midnightblue" stroke="midnightblue" points="785.5,-46.08 789,-56.08 792.5,-46.08 785.5,-46.08"/>
</g>
<!-- Node9&#45;&gt;Node8 -->
<g id="edge10" class="edge">
<title>Node9&#45;&gt;Node8</title>
<path fill="none" stroke="midnightblue" d="M1034.25,-49.54C1023.19,-39.91 1009.37,-27.87 1000.14,-19.83"/>
<polygon fill="midnightblue" stroke="midnightblue" points="1032.2,-52.4 1042.04,-56.32 1036.8,-47.12 1032.2,-52.4"/>
</g>
<!-- Node10 -->
<g id="node10" class="node">
<title>Node10</title>
<g id="a_node10"><a xlink:href="examples_2websocket_2request__listener_8cpp.html" target="_top" xlink:title=" ">
<polygon fill="none" stroke="black" points="1084,-0.5 1084,-19.5 1284,-19.5 1284,-0.5 1084,-0.5"/>
<text text-anchor="middle" x="1184" y="-7.5" font-family="Helvetica,sans-Serif" font-size="10.00">examples/websocket/request_listener.cpp</text>
</a>
</g>
</g>
<!-- Node9&#45;&gt;Node10 -->
<g id="edge11" class="edge">
<title>Node9&#45;&gt;Node10</title>
<path fill="none" stroke="midnightblue" d="M1082.22,-52.64C1106.99,-42.5 1141.4,-28.43 1163.18,-19.52"/>
<polygon fill="midnightblue" stroke="midnightblue" points="1080.85,-49.42 1072.92,-56.44 1083.5,-55.9 1080.85,-49.42"/>
</g>
<!-- Node11&#45;&gt;Node5 -->
<g id="edge14" class="edge">
<title>Node11&#45;&gt;Node5</title>
<path fill="none" stroke="midnightblue" d="M386.43,-54.28C432.54,-44.08 501.03,-28.92 543.52,-19.52"/>
<polygon fill="midnightblue" stroke="midnightblue" points="385.67,-50.87 376.66,-56.44 387.18,-57.7 385.67,-50.87"/>
</g>
<!-- Node11&#45;&gt;Node8 -->
<g id="edge15" class="edge">
<title>Node11&#45;&gt;Node8</title>
<path fill="none" stroke="midnightblue" d="M406.04,-59.15C418.66,-58.09 431.73,-57 444,-56 648.83,-39.31 700.35,-38.82 905,-20 907.81,-19.74 910.67,-19.47 913.55,-19.19"/>
<polygon fill="midnightblue" stroke="midnightblue" points="405.7,-55.67 396.03,-60 406.29,-62.65 405.7,-55.67"/>
</g>
<!-- Node12 -->
<g id="node12" class="node">
<title>Node12</title>
<g id="a_node12"><a xlink:href="most__minimal_2main_8cpp.html" target="_top" xlink:title=" ">
<polygon fill="none" stroke="black" points="125.5,-0.5 125.5,-19.5 290.5,-19.5 290.5,-0.5 125.5,-0.5"/>
<text text-anchor="middle" x="208" y="-7.5" font-family="Helvetica,sans-Serif" font-size="10.00">examples/most_minimal/main.cpp</text>
</a>
</g>
</g>
<!-- Node11&#45;&gt;Node12 -->
<g id="edge13" class="edge">
<title>Node11&#45;&gt;Node12</title>
<path fill="none" stroke="midnightblue" d="M307.91,-52.5C283.54,-42.38 249.86,-28.39 228.5,-19.52"/>
<polygon fill="midnightblue" stroke="midnightblue" points="306.82,-55.84 317.4,-56.44 309.51,-49.38 306.82,-55.84"/>
</g>
<!-- Node11&#45;&gt;Node13 -->
<g id="edge16" class="edge">
<title>Node11&#45;&gt;Node13</title>
<path fill="none" stroke="midnightblue" d="M354.62,-49.25C364.73,-39.67 377.28,-27.79 385.68,-19.83"/>
<polygon fill="midnightblue" stroke="midnightblue" points="352.01,-46.91 347.16,-56.32 356.82,-51.99 352.01,-46.91"/>
</g>
<!-- Node11&#45;&gt;Node14 -->
<g id="edge17" class="edge">
<title>Node11&#45;&gt;Node14</title>
<path fill="none" stroke="midnightblue" d="M282.34,-54.6C227.73,-44.4 145.43,-29.02 94.58,-19.52"/>
<polygon fill="midnightblue" stroke="midnightblue" points="281.73,-58.05 292.21,-56.44 283.02,-51.17 281.73,-58.05"/>
</g>
<!-- Node20 -->
<g id="node20" class="node">
<title>Node20</title>
<g id="a_node20"><a xlink:href="websocket__client_8hpp.html" target="_top" xlink:title=" ">
<polygon fill="none" stroke="black" points="963.5,-224.5 963.5,-243.5 1178.5,-243.5 1178.5,-224.5 963.5,-224.5"/>
<text text-anchor="middle" x="1071" y="-231.5" font-family="Helvetica,sans-Serif" font-size="10.00">include/roar/websocket/websocket_client.hpp</text>
</a>
</g>
</g>
<!-- Node19&#45;&gt;Node20 -->
<g id="edge26" class="edge">
<title>Node19&#45;&gt;Node20</title>
<path fill="none" stroke="midnightblue" d="M797.32,-278.85C860.99,-268.65 958.06,-253.1 1017.85,-243.52"/>
<polygon fill="midnightblue" stroke="midnightblue" points="796.72,-275.41 787.4,-280.44 797.83,-282.32 796.72,-275.41"/>
</g>
<!-- Node22 -->
<g id="node22" class="node">
<title>Node22</title>
<g id="a_node22"><a xlink:href="websocket__session_8hpp.html" target="_top" xlink:title=" ">
<polygon fill="none" stroke="black" points="507.5,-224.5 507.5,-243.5 732.5,-243.5 732.5,-224.5 507.5,-224.5"/>
<text text-anchor="middle" x="620" y="-231.5" font-family="Helvetica,sans-Serif" font-size="10.00">include/roar/websocket/websocket_session.hpp</text>
</a>
</g>
</g>
<!-- Node19&#45;&gt;Node22 -->
<g id="edge28" class="edge">
<title>Node19&#45;&gt;Node22</title>
<path fill="none" stroke="midnightblue" d="M706.76,-276.1C685.46,-266.01 656.46,-252.27 637.98,-243.52"/>
<polygon fill="midnightblue" stroke="midnightblue" points="705.4,-279.33 715.94,-280.44 708.4,-273 705.4,-279.33"/>
</g>
<!-- Node24 -->
<g id="node24" class="node">
<title>Node24</title>
<g id="a_node24"><a xlink:href="websocket__base_8cpp.html" target="_top" xlink:title=" ">
<polygon fill="none" stroke="black" points="750.5,-224.5 750.5,-243.5 945.5,-243.5 945.5,-224.5 750.5,-224.5"/>
<text text-anchor="middle" x="848" y="-231.5" font-family="Helvetica,sans-Serif" font-size="10.00">src/roar/websocket/websocket_base.cpp</text>
</a>
</g>
</g>
<!-- Node19&#45;&gt;Node24 -->
<g id="edge32" class="edge">
<title>Node19&#45;&gt;Node24</title>
<path fill="none" stroke="midnightblue" d="M761.24,-276.1C782.54,-266.01 811.54,-252.27 830.02,-243.52"/>
<polygon fill="midnightblue" stroke="midnightblue" points="759.6,-273 752.06,-280.44 762.6,-279.33 759.6,-273"/>
</g>
<!-- Node21 -->
<g id="node21" class="node">
<title>Node21</title>
<g id="a_node21"><a xlink:href="websocket__client_8cpp.html" target="_top" xlink:title=" ">
<polygon fill="none" stroke="black" points="972.5,-168.5 972.5,-187.5 1169.5,-187.5 1169.5,-168.5 972.5,-168.5"/>
<text text-anchor="middle" x="1071" y="-175.5" font-family="Helvetica,sans-Serif" font-size="10.00">src/roar/websocket/websocket_client.cpp</text>
</a>
</g>
</g>
<!-- Node20&#45;&gt;Node21 -->
<g id="edge27" class="edge">
<title>Node20&#45;&gt;Node21</title>
<path fill="none" stroke="midnightblue" d="M1071,-213.8C1071,-204.91 1071,-194.78 1071,-187.75"/>
<polygon fill="midnightblue" stroke="midnightblue" points="1067.5,-214.08 1071,-224.08 1074.5,-214.08 1067.5,-214.08"/>
</g>
<!-- Node22&#45;&gt;Node2 -->
<g id="edge30" class="edge">
<title>Node22&#45;&gt;Node2</title>
<path fill="none" stroke="midnightblue" d="M583.17,-221.44C550.74,-211.26 504.26,-196.66 475.13,-187.52"/>
<polygon fill="midnightblue" stroke="midnightblue" points="582.16,-224.79 592.75,-224.44 584.25,-218.11 582.16,-224.79"/>
</g>
<!-- Node22&#45;&gt;Node9 -->
<g id="edge29" class="edge">
<title>Node22&#45;&gt;Node9</title>
<path fill="none" stroke="midnightblue" d="M659.25,-221.55C688.14,-212.91 728.26,-200.44 763,-188 866.95,-150.77 987.77,-96.5 1033.33,-75.62"/>
<polygon fill="midnightblue" stroke="midnightblue" points="658.11,-218.24 649.53,-224.44 660.11,-224.95 658.11,-218.24"/>
</g>
<!-- Node23 -->
<g id="node23" class="node">
<title>Node23</title>
<g id="a_node23"><a xlink:href="websocket__session_8cpp.html" target="_top" xlink:title=" ">
<polygon fill="none" stroke="black" points="546,-168.5 546,-187.5 754,-187.5 754,-168.5 546,-168.5"/>
<text text-anchor="middle" x="650" y="-175.5" font-family="Helvetica,sans-Serif" font-size="10.00">src/roar/websocket/websocket_session.cpp</text>
</a>
</g>
</g>
<!-- Node22&#45;&gt;Node23 -->
<g id="edge31" class="edge">
<title>Node22&#45;&gt;Node23</title>
<path fill="none" stroke="midnightblue" d="M629.85,-215.27C634.97,-206.05 641.02,-195.17 645.14,-187.75"/>
<polygon fill="midnightblue" stroke="midnightblue" points="626.75,-213.64 624.95,-224.08 632.87,-217.04 626.75,-213.64"/>
</g>
</g>
</svg>
        <g id="navigator" transform="translate(0 0)" fill="#404254">
                <rect fill="#f2f5e9" fill-opacity="0.5" stroke="#606060" stroke-width=".5" x="0" y="0" width="60" height="60"/>
                <use id="zoomplus" xlink:href="#zoomPlus" x="17" y="9" onmousedown="handleZoom(evt,'in')"/>
                <use id="zoomminus" xlink:href="#zoomMin" x="42" y="9" onmousedown="handleZoom(evt,'out')"/>
                <use id="reset" xlink:href="#resetDef" x="30" y="36" onmousedown="handleReset()"/>
                <g id="arrowUp" xlink:href="#dirArrow" transform="translate(30 24)" onmousedown="handlePan(0,-1)">
                  <use xlink:href="#rim" fill="#404040">
                        <set attributeName="fill" to="#808080" begin="arrowUp.mouseover" end="arrowUp.mouseout"/>
                  </use>
                  <path fill="none" stroke="white" stroke-width="1.5" d="M0,-3.0v7 M-2.5,-0.5L0,-3.0L2.5,-0.5"/>
                </g>
                <g id="arrowRight" xlink:href="#dirArrow" transform="rotate(90) translate(36 -43)" onmousedown="handlePan(1,0)">
                  <use xlink:href="#rim" fill="#404040">
                        <set attributeName="fill" to="#808080" begin="arrowRight.mouseover" end="arrowRight.mouseout"/>
                  </use>
                  <path fill="none" stroke="white" stroke-width="1.5" d="M0,-3.0v7 M-2.5,-0.5L0,-3.0L2.5,-0.5"/>
                </g>
                <g id="arrowDown" xlink:href="#dirArrow" transform="rotate(180) translate(-30 -48)" onmousedown="handlePan(0,1)">
                  <use xlink:href="#rim" fill="#404040">
                        <set attributeName="fill" to="#808080" begin="arrowDown.mouseover" end="arrowDown.mouseout"/>
                  </use>
                  <path fill="none" stroke="white" stroke-width="1.5" d="M0,-3.0v7 M-2.5,-0.5L0,-3.0L2.5,-0.5"/>
                </g>
                <g id="arrowLeft" xlink:href="#dirArrow" transform="rotate(270) translate(-36 17)" onmousedown="handlePan(-1,0)">
                  <use xlink:href="#rim" fill="#404040">
                        <set attributeName="fill" to="#808080" begin="arrowLeft.mouseover" end="arrowLeft.mouseout"/>
                  </use>
                  <path fill="none" stroke="white" stroke-width="1.5" d="M0,-3.0v7 M-2.5,-0.5L0,-3.0L2.5,-0.5"/>
                </g>
        </g>
        <svg viewBox="0 0 15 15" width="100%" height="30px" preserveAspectRatio="xMaxYMin meet">
         <g id="arrow_out" transform="scale(0.3 0.3)">
          <a xlink:href="promise__compat_8hpp__dep__incl_org.svg" target="_base">
           <rect id="button" ry="5" rx="5" y="6" x="6" height="38" width="38"
                fill="#f2f5e9" fill-opacity="0.5" stroke="#606060" stroke-width="1.0"/>
           <path id="arrow"
             d="M 11.500037,31.436501 C 11.940474,20.09759 22.043105,11.32322 32.158766,21.979434 L 37.068811,17.246167 C 37.068811,17.246167 37.088388,32 37.088388,32 L 22.160133,31.978069 C 22.160133,31.978069 26.997745,27.140456 26.997745,27.140456 C 18.528582,18.264221 13.291696,25.230495 11.500037,31.436501 z"
             style="fill:#404040;"/>
          </a>
         </g>
        </svg>
</svg>
