<?xml version="1.0" encoding="UTF-8" standalone="no"?>
<!DOCTYPE svg PUBLIC "-//W3C//DTD SVG 1.1//EN"
 "http://www.w3.org/Graphics/SVG/1.1/DTD/svg11.dtd">
<!-- Generated by graphviz version 8.1.0 (0)
 -->
<!-- Title: include/roar/routing/proto_route.hpp Pages: 1 -->
<svg width="1993pt" height="308pt"
 viewBox="0.00 0.00 1993.12 308.00" xmlns="http://www.w3.org/2000/svg" xmlns:xlink="http://www.w3.org/1999/xlink">
<g id="graph0" class="graph" transform="scale(1 1) rotate(0) translate(4 304)">
<title>include/roar/routing/proto_route.hpp</title>
<!-- Node1 -->
<g id="Node000001" class="node">
<title>Node1</title>
<g id="a_Node000001"><a xlink:title=" ">
<polygon fill="#999999" stroke="#666666" points="1489.75,-300 1320.75,-300 1320.75,-280 1489.75,-280 1489.75,-300"/>
<text text-anchor="middle" x="1405.25" y="-286.5" font-family="Helvetica,sans-Serif" font-size="10.00">include/roar/routing/proto_route.hpp</text>
</a>
</g>
</g>
<!-- Node2 -->
<g id="Node000002" class="node">
<title>Node2</title>
<g id="a_Node000002"><a xlink:href="include_2roar_2routing_2request__listener_8hpp.html" target="_top" xlink:title=" ">
<polygon fill="white" stroke="#666666" points="991.88,-188 802.62,-188 802.62,-168 991.88,-168 991.88,-188"/>
<text text-anchor="middle" x="897.25" y="-174.5" font-family="Helvetica,sans-Serif" font-size="10.00">include/roar/routing/request_listener.hpp</text>
</a>
</g>
</g>
<!-- Node1&#45;&gt;Node2 -->
<g id="edge1_Node000001_Node000002" class="edge">
<title>Node1&#45;&gt;Node2</title>
<g id="a_edge1_Node000001_Node000002"><a xlink:title=" ">
<path fill="none" stroke="#63b8ff" d="M1350.89,-277.23C1249.58,-255.29 1033.79,-208.57 941.08,-188.49"/>
<polygon fill="#63b8ff" stroke="#63b8ff" points="1349.98,-280.83 1360.5,-279.53 1351.47,-273.99 1349.98,-280.83"/>
</a>
</g>
</g>
<!-- Node16 -->
<g id="Node000016" class="node">
<title>Node16</title>
<g id="a_Node000016"><a xlink:href="server_8hpp.html" target="_top" xlink:title=" ">
<polygon fill="white" stroke="#666666" points="1135.75,-76 1020.75,-76 1020.75,-56 1135.75,-56 1135.75,-76"/>
<text text-anchor="middle" x="1078.25" y="-62.5" font-family="Helvetica,sans-Serif" font-size="10.00">include/roar/server.hpp</text>
</a>
</g>
</g>
<!-- Node1&#45;&gt;Node16 -->
<g id="edge36_Node000001_Node000016" class="edge">
<title>Node1&#45;&gt;Node16</title>
<g id="a_edge36_Node000001_Node000016"><a xlink:title=" ">
<path fill="none" stroke="#63b8ff" d="M1371.38,-275.36C1354.23,-267.58 1333.64,-256.81 1317.25,-244 1255.94,-196.09 1266.42,-156.01 1202.25,-112 1177.41,-94.97 1145.37,-83.56 1120.09,-76.49"/>
<polygon fill="#63b8ff" stroke="#63b8ff" points="1369.46,-278.78 1380.02,-279.6 1372.27,-272.37 1369.46,-278.78"/>
</a>
</g>
</g>
<!-- Node20 -->
<g id="Node000020" class="node">
<title>Node20</title>
<g id="a_Node000020"><a xlink:href="route_8hpp.html" target="_top" xlink:title=" ">
<polygon fill="white" stroke="#666666" points="1821.25,-244 1679.25,-244 1679.25,-224 1821.25,-224 1821.25,-244"/>
<text text-anchor="middle" x="1750.25" y="-230.5" font-family="Helvetica,sans-Serif" font-size="10.00">include/roar/routing/route.hpp</text>
</a>
</g>
</g>
<!-- Node1&#45;&gt;Node20 -->
<g id="edge29_Node000001_Node000020" class="edge">
<title>Node1&#45;&gt;Node20</title>
<g id="a_edge29_Node000001_Node000020"><a xlink:title=" ">
<path fill="none" stroke="#63b8ff" d="M1476.38,-277.87C1539.37,-268.01 1630.3,-253.77 1689.83,-244.46"/>
<polygon fill="#63b8ff" stroke="#63b8ff" points="1476.08,-274.53 1466.74,-279.53 1477.16,-281.44 1476.08,-274.53"/>
</a>
</g>
</g>
<!-- Node23 -->
<g id="Node000023" class="node">
<title>Node23</title>
<g id="a_Node000023"><a xlink:href="router_8hpp.html" target="_top" xlink:title=" ">
<polygon fill="white" stroke="#666666" points="1660.75,-244 1515.75,-244 1515.75,-224 1660.75,-224 1660.75,-244"/>
<text text-anchor="middle" x="1588.25" y="-230.5" font-family="Helvetica,sans-Serif" font-size="10.00">include/roar/routing/router.hpp</text>
</a>
</g>
</g>
<!-- Node1&#45;&gt;Node23 -->
<g id="edge32_Node000001_Node000023" class="edge">
<title>Node1&#45;&gt;Node23</title>
<g id="a_edge32_Node000001_Node000023"><a xlink:title=" ">
<path fill="none" stroke="#63b8ff" d="M1447.41,-276.56C1480.52,-266.79 1525.92,-253.39 1556.13,-244.48"/>
<polygon fill="#63b8ff" stroke="#63b8ff" points="1446.73,-273.41 1438.13,-279.59 1448.71,-280.12 1446.73,-273.41"/>
</a>
</g>
</g>
<!-- Node25 -->
<g id="Node000025" class="node">
<title>Node25</title>
<g id="a_Node000025"><a xlink:href="session_8hpp.html" target="_top" xlink:title=" ">
<polygon fill="white" stroke="#666666" points="1484.5,-244 1326,-244 1326,-224 1484.5,-224 1484.5,-244"/>
<text text-anchor="middle" x="1405.25" y="-230.5" font-family="Helvetica,sans-Serif" font-size="10.00">include/roar/session/session.hpp</text>
</a>
</g>
</g>
<!-- Node1&#45;&gt;Node25 -->
<g id="edge37_Node000001_Node000025" class="edge">
<title>Node1&#45;&gt;Node25</title>
<g id="a_edge37_Node000001_Node000025"><a xlink:title=" ">
<path fill="none" stroke="#63b8ff" d="M1405.25,-268.71C1405.25,-260.32 1405.25,-251.01 1405.25,-244.3"/>
<polygon fill="#63b8ff" stroke="#63b8ff" points="1401.75,-268.59 1405.25,-278.59 1408.75,-268.59 1401.75,-268.59"/>
</a>
</g>
</g>
<!-- Node3 -->
<g id="Node000003" class="node">
<title>Node3</title>
<g id="a_Node000003"><a xlink:href="100__continue_2main_8cpp.html" target="_top" xlink:title=" ">
<polygon fill="white" stroke="#666666" points="1361,-20 1199.5,-20 1199.5,0 1361,0 1361,-20"/>
<text text-anchor="middle" x="1280.25" y="-6.5" font-family="Helvetica,sans-Serif" font-size="10.00">examples/100_continue/main.cpp</text>
</a>
</g>
</g>
<!-- Node2&#45;&gt;Node3 -->
<g id="edge2_Node000002_Node000003" class="edge">
<title>Node2&#45;&gt;Node3</title>
<g id="a_edge2_Node000002_Node000003"><a xlink:title=" ">
<path fill="none" stroke="#63b8ff" d="M1003.13,-171.7C1078.23,-166.04 1171,-154.63 1202.25,-132 1232.84,-109.85 1219.08,-87.27 1240.25,-56 1249.27,-42.67 1261.92,-29.09 1270.56,-20.39"/>
<polygon fill="#63b8ff" stroke="#63b8ff" points="1002.91,-168.28 993.19,-172.49 1003.42,-175.26 1002.91,-168.28"/>
</a>
</g>
</g>
<!-- Node4 -->
<g id="Node000004" class="node">
<title>Node4</title>
<g id="a_Node000004"><a xlink:href="examples_2100__continue_2request__listener_8hpp.html" target="_top" xlink:title=" ">
<polygon fill="white" stroke="#666666" points="1535,-132 1325.5,-132 1325.5,-112 1535,-112 1535,-132"/>
<text text-anchor="middle" x="1430.25" y="-118.5" font-family="Helvetica,sans-Serif" font-size="10.00">examples/100_continue/request_listener.hpp</text>
</a>
</g>
</g>
<!-- Node2&#45;&gt;Node4 -->
<g id="edge3_Node000002_Node000004" class="edge">
<title>Node2&#45;&gt;Node4</title>
<g id="a_edge3_Node000002_Node000004"><a xlink:title=" ">
<path fill="none" stroke="#63b8ff" d="M1001.75,-166.41C1099.09,-156.55 1242.88,-141.98 1336.57,-132.49"/>
<polygon fill="#63b8ff" stroke="#63b8ff" points="1001.6,-163.01 992.01,-167.5 1002.31,-169.98 1001.6,-163.01"/>
</a>
</g>
</g>
<!-- Node6 -->
<g id="Node000006" class="node">
<title>Node6</title>
<g id="a_Node000006"><a xlink:href="file__server_8hpp.html" target="_top" xlink:title=" ">
<polygon fill="white" stroke="#666666" points="307.5,-132 113,-132 113,-112 307.5,-112 307.5,-132"/>
<text text-anchor="middle" x="210.25" y="-118.5" font-family="Helvetica,sans-Serif" font-size="10.00">examples/serve_directory/file_server.hpp</text>
</a>
</g>
</g>
<!-- Node2&#45;&gt;Node6 -->
<g id="edge6_Node000002_Node000006" class="edge">
<title>Node2&#45;&gt;Node6</title>
<g id="a_edge6_Node000002_Node000006"><a xlink:title=" ">
<path fill="none" stroke="#63b8ff" d="M791.25,-168.81C675.69,-159.86 485.31,-145.06 321.25,-132 316.82,-131.65 312.28,-131.29 307.71,-130.92"/>
<polygon fill="#63b8ff" stroke="#63b8ff" points="790.96,-172.38 801.2,-169.66 791.5,-165.4 790.96,-172.38"/>
</a>
</g>
</g>
<!-- Node8 -->
<g id="Node000008" class="node">
<title>Node8</title>
<g id="a_Node000008"><a xlink:href="serve__directory_2main_8cpp.html" target="_top" xlink:title=" ">
<polygon fill="white" stroke="#666666" points="170.5,-20 0,-20 0,0 170.5,0 170.5,-20"/>
<text text-anchor="middle" x="85.25" y="-6.5" font-family="Helvetica,sans-Serif" font-size="10.00">examples/serve_directory/main.cpp</text>
</a>
</g>
</g>
<!-- Node2&#45;&gt;Node8 -->
<g id="edge9_Node000002_Node000008" class="edge">
<title>Node2&#45;&gt;Node8</title>
<g id="a_edge9_Node000002_Node000008"><a xlink:title=" ">
<path fill="none" stroke="#63b8ff" d="M791.78,-177.78C588.17,-178.32 156.34,-174.37 104.25,-132 70.43,-104.49 78.59,-43.45 83.19,-20.22"/>
<polygon fill="#63b8ff" stroke="#63b8ff" points="791.5,-181.28 801.49,-177.75 791.48,-174.28 791.5,-181.28"/>
</a>
</g>
</g>
<!-- Node9 -->
<g id="Node000009" class="node">
<title>Node9</title>
<g id="a_Node000009"><a xlink:href="simple__server_2main_8cpp.html" target="_top" xlink:title=" ">
<polygon fill="white" stroke="#666666" points="455.5,-20 291,-20 291,0 455.5,0 455.5,-20"/>
<text text-anchor="middle" x="373.25" y="-6.5" font-family="Helvetica,sans-Serif" font-size="10.00">examples/simple_server/main.cpp</text>
</a>
</g>
</g>
<!-- Node2&#45;&gt;Node9 -->
<g id="edge10_Node000002_Node000009" class="edge">
<title>Node2&#45;&gt;Node9</title>
<g id="a_edge10_Node000002_Node000009"><a xlink:title=" ">
<path fill="none" stroke="#63b8ff" d="M791.55,-173.89C652.54,-168.84 422.3,-156.83 392.25,-132 358.65,-104.23 366.68,-43.34 371.21,-20.19"/>
<polygon fill="#63b8ff" stroke="#63b8ff" points="791.11,-177.41 801.23,-174.27 791.36,-170.42 791.11,-177.41"/>
</a>
</g>
</g>
<!-- Node10 -->
<g id="Node000010" class="node">
<title>Node10</title>
<g id="a_Node000010"><a xlink:href="examples_2simple__server_2request__listener_8hpp.html" target="_top" xlink:title=" ">
<polygon fill="white" stroke="#666666" points="613.5,-132 401,-132 401,-112 613.5,-112 613.5,-132"/>
<text text-anchor="middle" x="507.25" y="-118.5" font-family="Helvetica,sans-Serif" font-size="10.00">examples/simple_server/request_listener.hpp</text>
</a>
</g>
</g>
<!-- Node2&#45;&gt;Node10 -->
<g id="edge11_Node000002_Node000010" class="edge">
<title>Node2&#45;&gt;Node10</title>
<g id="a_edge11_Node000002_Node000010"><a xlink:title=" ">
<path fill="none" stroke="#63b8ff" d="M818.16,-166.05C746.92,-156.18 643.26,-141.83 575.55,-132.46"/>
<polygon fill="#63b8ff" stroke="#63b8ff" points="817.49,-169.63 827.87,-167.53 818.45,-162.69 817.49,-169.63"/>
</a>
</g>
</g>
<!-- Node12 -->
<g id="Node000012" class="node">
<title>Node12</title>
<g id="a_Node000012"><a xlink:href="websocket_2main_8cpp.html" target="_top" xlink:title=" ">
<polygon fill="white" stroke="#666666" points="754.75,-20 603.75,-20 603.75,0 754.75,0 754.75,-20"/>
<text text-anchor="middle" x="679.25" y="-6.5" font-family="Helvetica,sans-Serif" font-size="10.00">examples/websocket/main.cpp</text>
</a>
</g>
</g>
<!-- Node2&#45;&gt;Node12 -->
<g id="edge14_Node000002_Node000012" class="edge">
<title>Node2&#45;&gt;Node12</title>
<g id="a_edge14_Node000002_Node000012"><a xlink:title=" ">
<path fill="none" stroke="#63b8ff" d="M791.37,-169.85C736.81,-163.73 678.2,-152.49 661.25,-132 633.9,-98.95 660.92,-42.72 673.53,-20.47"/>
<polygon fill="#63b8ff" stroke="#63b8ff" points="790.9,-173.43 801.22,-171.01 791.64,-166.47 790.9,-173.43"/>
</a>
</g>
</g>
<!-- Node13 -->
<g id="Node000013" class="node">
<title>Node13</title>
<g id="a_Node000013"><a xlink:href="examples_2websocket_2request__listener_8hpp.html" target="_top" xlink:title=" ">
<polygon fill="white" stroke="#666666" points="868.75,-132 669.75,-132 669.75,-112 868.75,-112 868.75,-132"/>
<text text-anchor="middle" x="769.25" y="-118.5" font-family="Helvetica,sans-Serif" font-size="10.00">examples/websocket/request_listener.hpp</text>
</a>
</g>
</g>
<!-- Node2&#45;&gt;Node13 -->
<g id="edge15_Node000002_Node000013" class="edge">
<title>Node2&#45;&gt;Node13</title>
<g id="a_edge15_Node000002_Node000013"><a xlink:title=" ">
<path fill="none" stroke="#63b8ff" d="M865.02,-163.4C842.15,-153.75 812.03,-141.05 791.72,-132.48"/>
<polygon fill="#63b8ff" stroke="#63b8ff" points="863.38,-166.93 873.95,-167.59 866.1,-160.48 863.38,-166.93"/>
</a>
</g>
</g>
<!-- Node15 -->
<g id="Node000015" class="node">
<title>Node15</title>
<g id="a_Node000015"><a xlink:href="directory__server_8hpp.html" target="_top" xlink:title=" ">
<polygon fill="white" stroke="#666666" points="1193.5,-132 963,-132 963,-112 1193.5,-112 1193.5,-132"/>
<text text-anchor="middle" x="1078.25" y="-118.5" font-family="Helvetica,sans-Serif" font-size="10.00">include/roar/directory_server/directory_server.hpp</text>
</a>
</g>
</g>
<!-- Node2&#45;&gt;Node15 -->
<g id="edge18_Node000002_Node000015" class="edge">
<title>Node2&#45;&gt;Node15</title>
<g id="a_edge18_Node000002_Node000015"><a xlink:title=" ">
<path fill="none" stroke="#63b8ff" d="M938.95,-164.56C971.69,-154.79 1016.6,-141.39 1046.48,-132.48"/>
<polygon fill="#63b8ff" stroke="#63b8ff" points="938.36,-161.38 929.78,-167.59 940.36,-168.09 938.36,-161.38"/>
</a>
</g>
</g>
<!-- Node2&#45;&gt;Node16 -->
<g id="edge27_Node000002_Node000016" class="edge">
<title>Node2&#45;&gt;Node16</title>
<g id="a_edge27_Node000002_Node000016"><a xlink:title=" ">
<path fill="none" stroke="#63b8ff" d="M909.36,-158.71C919.75,-144.27 935.93,-124.52 954.25,-112 979.21,-94.94 1011.4,-83.51 1036.72,-76.44"/>
<polygon fill="#63b8ff" stroke="#63b8ff" points="905.94,-156.5 903.13,-166.71 911.7,-160.48 905.94,-156.5"/>
</a>
</g>
</g>
<!-- Node18 -->
<g id="Node000018" class="node">
<title>Node18</title>
<g id="a_Node000018"><a xlink:href="src_2roar_2routing_2request__listener_8cpp.html" target="_top" xlink:title=" ">
<polygon fill="white" stroke="#666666" points="999.25,-20 827.25,-20 827.25,0 999.25,0 999.25,-20"/>
<text text-anchor="middle" x="913.25" y="-6.5" font-family="Helvetica,sans-Serif" font-size="10.00">src/roar/routing/request_listener.cpp</text>
</a>
</g>
</g>
<!-- Node2&#45;&gt;Node18 -->
<g id="edge28_Node000002_Node000018" class="edge">
<title>Node2&#45;&gt;Node18</title>
<g id="a_edge28_Node000002_Node000018"><a xlink:title=" ">
<path fill="none" stroke="#63b8ff" d="M902.17,-156.94C906.86,-136.67 913.6,-104.38 916.25,-76 917.08,-67.15 916.55,-64.88 916.25,-56 915.84,-43.64 914.79,-29.39 914.05,-20.3"/>
<polygon fill="#63b8ff" stroke="#63b8ff" points="898.54,-156.08 899.62,-166.61 905.34,-157.7 898.54,-156.08"/>
</a>
</g>
</g>
<!-- Node4&#45;&gt;Node3 -->
<g id="edge4_Node000004_Node000003" class="edge">
<title>Node4&#45;&gt;Node3</title>
<g id="a_edge4_Node000004_Node000003"><a xlink:title=" ">
<path fill="none" stroke="#63b8ff" d="M1450.59,-104.77C1465.22,-91.11 1480.41,-71.41 1468.25,-56 1454.66,-38.77 1405.91,-27.41 1361.46,-20.4"/>
<polygon fill="#63b8ff" stroke="#63b8ff" points="1448.93,-102.45 1443.7,-111.66 1453.53,-107.72 1448.93,-102.45"/>
</a>
</g>
</g>
<!-- Node5 -->
<g id="Node000005" class="node">
<title>Node5</title>
<g id="a_Node000005"><a xlink:href="examples_2100__continue_2request__listener_8cpp.html" target="_top" xlink:title=" ">
<polygon fill="white" stroke="#666666" points="1459,-76 1249.5,-76 1249.5,-56 1459,-56 1459,-76"/>
<text text-anchor="middle" x="1354.25" y="-62.5" font-family="Helvetica,sans-Serif" font-size="10.00">examples/100_continue/request_listener.cpp</text>
</a>
</g>
</g>
<!-- Node4&#45;&gt;Node5 -->
<g id="edge5_Node000004_Node000005" class="edge">
<title>Node4&#45;&gt;Node5</title>
<g id="a_edge5_Node000004_Node000005"><a xlink:title=" ">
<path fill="none" stroke="#63b8ff" d="M1408.11,-105.27C1394.98,-95.94 1378.78,-84.43 1367.59,-76.48"/>
<polygon fill="#63b8ff" stroke="#63b8ff" points="1405.83,-108.65 1416.01,-111.59 1409.89,-102.95 1405.83,-108.65"/>
</a>
</g>
</g>
<!-- Node7 -->
<g id="Node000007" class="node">
<title>Node7</title>
<g id="a_Node000007"><a xlink:href="file__server_8cpp.html" target="_top" xlink:title=" ">
<polygon fill="white" stroke="#666666" points="307.5,-76 113,-76 113,-56 307.5,-56 307.5,-76"/>
<text text-anchor="middle" x="210.25" y="-62.5" font-family="Helvetica,sans-Serif" font-size="10.00">examples/serve_directory/file_server.cpp</text>
</a>
</g>
</g>
<!-- Node6&#45;&gt;Node7 -->
<g id="edge7_Node000006_Node000007" class="edge">
<title>Node6&#45;&gt;Node7</title>
<g id="a_edge7_Node000006_Node000007"><a xlink:title=" ">
<path fill="none" stroke="#63b8ff" d="M210.25,-100.71C210.25,-92.32 210.25,-83.01 210.25,-76.3"/>
<polygon fill="#63b8ff" stroke="#63b8ff" points="206.75,-100.59 210.25,-110.59 213.75,-100.59 206.75,-100.59"/>
</a>
</g>
</g>
<!-- Node6&#45;&gt;Node8 -->
<g id="edge8_Node000006_Node000008" class="edge">
<title>Node6&#45;&gt;Node8</title>
<g id="a_edge8_Node000006_Node000008"><a xlink:title=" ">
<path fill="none" stroke="#63b8ff" d="M155.62,-108.13C137.09,-101.33 117.7,-91.13 104.25,-76 90.03,-60.01 86.43,-33.9 85.53,-20.15"/>
<polygon fill="#63b8ff" stroke="#63b8ff" points="154.19,-111.68 164.79,-111.57 156.44,-105.05 154.19,-111.68"/>
</a>
</g>
</g>
<!-- Node10&#45;&gt;Node9 -->
<g id="edge12_Node000010_Node000009" class="edge">
<title>Node10&#45;&gt;Node9</title>
<g id="a_edge12_Node000010_Node000009"><a xlink:title=" ">
<path fill="none" stroke="#63b8ff" d="M445.55,-108.25C426.22,-101.53 406.3,-91.35 392.25,-76 377.8,-60.21 374.3,-34.02 373.47,-20.2"/>
<polygon fill="#63b8ff" stroke="#63b8ff" points="444.29,-111.84 454.88,-111.55 446.42,-105.17 444.29,-111.84"/>
</a>
</g>
</g>
<!-- Node11 -->
<g id="Node000011" class="node">
<title>Node11</title>
<g id="a_Node000011"><a xlink:href="examples_2simple__server_2request__listener_8cpp.html" target="_top" xlink:title=" ">
<polygon fill="white" stroke="#666666" points="613.5,-76 401,-76 401,-56 613.5,-56 613.5,-76"/>
<text text-anchor="middle" x="507.25" y="-62.5" font-family="Helvetica,sans-Serif" font-size="10.00">examples/simple_server/request_listener.cpp</text>
</a>
</g>
</g>
<!-- Node10&#45;&gt;Node11 -->
<g id="edge13_Node000010_Node000011" class="edge">
<title>Node10&#45;&gt;Node11</title>
<g id="a_edge13_Node000010_Node000011"><a xlink:title=" ">
<path fill="none" stroke="#63b8ff" d="M507.25,-100.71C507.25,-92.32 507.25,-83.01 507.25,-76.3"/>
<polygon fill="#63b8ff" stroke="#63b8ff" points="503.75,-100.59 507.25,-110.59 510.75,-100.59 503.75,-100.59"/>
</a>
</g>
</g>
<!-- Node13&#45;&gt;Node12 -->
<g id="edge16_Node000013_Node000012" class="edge">
<title>Node13&#45;&gt;Node12</title>
<g id="a_edge16_Node000013_Node000012"><a xlink:title=" ">
<path fill="none" stroke="#63b8ff" d="M737.24,-106.67C723.82,-99.24 709.09,-88.97 699.25,-76 686.41,-59.07 681.74,-33.81 680.1,-20.31"/>
<polygon fill="#63b8ff" stroke="#63b8ff" points="735.2,-110.07 745.69,-111.58 738.43,-103.86 735.2,-110.07"/>
</a>
</g>
</g>
<!-- Node14 -->
<g id="Node000014" class="node">
<title>Node14</title>
<g id="a_Node000014"><a xlink:href="examples_2websocket_2request__listener_8cpp.html" target="_top" xlink:title=" ">
<polygon fill="white" stroke="#666666" points="906.75,-76 707.75,-76 707.75,-56 906.75,-56 906.75,-76"/>
<text text-anchor="middle" x="807.25" y="-62.5" font-family="Helvetica,sans-Serif" font-size="10.00">examples/websocket/request_listener.cpp</text>
</a>
</g>
</g>
<!-- Node13&#45;&gt;Node14 -->
<g id="edge17_Node000013_Node000014" class="edge">
<title>Node13&#45;&gt;Node14</title>
<g id="a_edge17_Node000013_Node000014"><a xlink:title=" ">
<path fill="none" stroke="#63b8ff" d="M782.11,-102.72C788.36,-93.84 795.61,-83.55 800.71,-76.3"/>
<polygon fill="#63b8ff" stroke="#63b8ff" points="778.76,-100.4 775.87,-110.59 784.49,-104.43 778.76,-100.4"/>
</a>
</g>
</g>
<!-- Node15&#45;&gt;Node16 -->
<g id="edge19_Node000015_Node000016" class="edge">
<title>Node15&#45;&gt;Node16</title>
<g id="a_edge19_Node000015_Node000016"><a xlink:title=" ">
<path fill="none" stroke="#63b8ff" d="M1078.25,-100.71C1078.25,-92.32 1078.25,-83.01 1078.25,-76.3"/>
<polygon fill="#63b8ff" stroke="#63b8ff" points="1074.75,-100.59 1078.25,-110.59 1081.75,-100.59 1074.75,-100.59"/>
</a>
</g>
</g>
<!-- Node16&#45;&gt;Node3 -->
<g id="edge20_Node000016_Node000003" class="edge">
<title>Node16&#45;&gt;Node3</title>
<g id="a_edge20_Node000016_Node000003"><a xlink:title=" ">
<path fill="none" stroke="#63b8ff" d="M1123.84,-52.81C1160.46,-43.02 1211.16,-29.47 1244.79,-20.48"/>
<polygon fill="#63b8ff" stroke="#63b8ff" points="1123.19,-49.63 1114.44,-55.59 1125,-56.39 1123.19,-49.63"/>
</a>
</g>
</g>
<!-- Node16&#45;&gt;Node8 -->
<g id="edge22_Node000016_Node000008" class="edge">
<title>Node16&#45;&gt;Node8</title>
<g id="a_edge22_Node000016_Node000008"><a xlink:title=" ">
<path fill="none" stroke="#63b8ff" d="M1009.73,-61.17C980.87,-59.57 946.93,-57.68 916.25,-56 643.95,-41.06 321.44,-23.69 170.79,-15.59"/>
<polygon fill="#63b8ff" stroke="#63b8ff" points="1009.34,-64.71 1019.52,-61.77 1009.73,-57.72 1009.34,-64.71"/>
</a>
</g>
</g>
<!-- Node16&#45;&gt;Node9 -->
<g id="edge23_Node000016_Node000009" class="edge">
<title>Node16&#45;&gt;Node9</title>
<g id="a_edge23_Node000016_Node000009"><a xlink:title=" ">
<path fill="none" stroke="#63b8ff" d="M1009.64,-59.74C879.33,-49.76 596.54,-28.1 455.99,-17.34"/>
<polygon fill="#63b8ff" stroke="#63b8ff" points="1009.02,-63.28 1019.26,-60.56 1009.55,-56.3 1009.02,-63.28"/>
</a>
</g>
</g>
<!-- Node16&#45;&gt;Node12 -->
<g id="edge24_Node000016_Node000012" class="edge">
<title>Node16&#45;&gt;Node12</title>
<g id="a_edge24_Node000016_Node000012"><a xlink:title=" ">
<path fill="none" stroke="#63b8ff" d="M1009.79,-55.74C937.04,-45.89 822.59,-30.4 749.26,-20.47"/>
<polygon fill="#63b8ff" stroke="#63b8ff" points="1009.28,-59.33 1019.66,-57.21 1010.22,-52.4 1009.28,-59.33"/>
</a>
</g>
</g>
<!-- Node17 -->
<g id="Node000017" class="node">
<title>Node17</title>
<g id="a_Node000017"><a xlink:href="most__minimal_2main_8cpp.html" target="_top" xlink:title=" ">
<polygon fill="white" stroke="#666666" points="1181.5,-20 1017,-20 1017,0 1181.5,0 1181.5,-20"/>
<text text-anchor="middle" x="1099.25" y="-6.5" font-family="Helvetica,sans-Serif" font-size="10.00">examples/most_minimal/main.cpp</text>
</a>
</g>
</g>
<!-- Node16&#45;&gt;Node17 -->
<g id="edge21_Node000016_Node000017" class="edge">
<title>Node16&#45;&gt;Node17</title>
<g id="a_edge21_Node000016_Node000017"><a xlink:title=" ">
<path fill="none" stroke="#63b8ff" d="M1085.8,-45.58C1089.15,-36.97 1092.94,-27.24 1095.63,-20.3"/>
<polygon fill="#63b8ff" stroke="#63b8ff" points="1082.27,-44.01 1081.91,-54.59 1088.79,-46.54 1082.27,-44.01"/>
</a>
</g>
</g>
<!-- Node16&#45;&gt;Node18 -->
<g id="edge25_Node000016_Node000018" class="edge">
<title>Node16&#45;&gt;Node18</title>
<g id="a_edge25_Node000016_Node000018"><a xlink:title=" ">
<path fill="none" stroke="#63b8ff" d="M1039.07,-52.18C1009.33,-42.44 969.1,-29.28 942.22,-20.48"/>
<polygon fill="#63b8ff" stroke="#63b8ff" points="1037.92,-55.81 1048.51,-55.59 1040.09,-49.16 1037.92,-55.81"/>
</a>
</g>
</g>
<!-- Node19 -->
<g id="Node000019" class="node">
<title>Node19</title>
<g id="a_Node000019"><a xlink:href="server_8cpp.html" target="_top" xlink:title=" ">
<polygon fill="white" stroke="#666666" points="1612.12,-20 1514.38,-20 1514.38,0 1612.12,0 1612.12,-20"/>
<text text-anchor="middle" x="1563.25" y="-6.5" font-family="Helvetica,sans-Serif" font-size="10.00">src/roar/server.cpp</text>
</a>
</g>
</g>
<!-- Node16&#45;&gt;Node19 -->
<g id="edge26_Node000016_Node000019" class="edge">
<title>Node16&#45;&gt;Node19</title>
<g id="a_edge26_Node000016_Node000019"><a xlink:title=" ">
<path fill="none" stroke="#63b8ff" d="M1146.59,-57.39C1245.75,-46.35 1427.17,-26.15 1514.17,-16.46"/>
<polygon fill="#63b8ff" stroke="#63b8ff" points="1146.34,-54.01 1136.79,-58.59 1147.12,-60.97 1146.34,-54.01"/>
</a>
</g>
</g>
<!-- Node21 -->
<g id="Node000021" class="node">
<title>Node21</title>
<g id="a_Node000021"><a xlink:href="route_8cpp.html" target="_top" xlink:title=" ">
<polygon fill="white" stroke="#666666" points="1801.62,-188 1676.88,-188 1676.88,-168 1801.62,-168 1801.62,-188"/>
<text text-anchor="middle" x="1739.25" y="-174.5" font-family="Helvetica,sans-Serif" font-size="10.00">src/roar/routing/route.cpp</text>
</a>
</g>
</g>
<!-- Node20&#45;&gt;Node21 -->
<g id="edge30_Node000020_Node000021" class="edge">
<title>Node20&#45;&gt;Node21</title>
<g id="a_edge30_Node000020_Node000021"><a xlink:title=" ">
<path fill="none" stroke="#63b8ff" d="M1746.18,-213C1744.45,-204.54 1742.53,-195.08 1741.14,-188.3"/>
<polygon fill="#63b8ff" stroke="#63b8ff" points="1742.91,-213.49 1748.33,-222.59 1749.77,-212.1 1742.91,-213.49"/>
</a>
</g>
</g>
<!-- Node22 -->
<g id="Node000022" class="node">
<title>Node22</title>
<g id="a_Node000022"><a xlink:href="router_8cpp.html" target="_top" xlink:title=" ">
<polygon fill="white" stroke="#666666" points="1985.12,-188 1857.38,-188 1857.38,-168 1985.12,-168 1985.12,-188"/>
<text text-anchor="middle" x="1921.25" y="-174.5" font-family="Helvetica,sans-Serif" font-size="10.00">src/roar/routing/router.cpp</text>
</a>
</g>
</g>
<!-- Node20&#45;&gt;Node22 -->
<g id="edge31_Node000020_Node000022" class="edge">
<title>Node20&#45;&gt;Node22</title>
<g id="a_edge31_Node000020_Node000022"><a xlink:title=" ">
<path fill="none" stroke="#63b8ff" d="M1790.45,-220.31C1821.31,-210.56 1863.25,-197.32 1891.23,-188.48"/>
<polygon fill="#63b8ff" stroke="#63b8ff" points="1789.52,-217.24 1781.04,-223.59 1791.63,-223.92 1789.52,-217.24"/>
</a>
</g>
</g>
<!-- Node23&#45;&gt;Node19 -->
<g id="edge34_Node000023_Node000019" class="edge">
<title>Node23&#45;&gt;Node19</title>
<g id="a_edge34_Node000023_Node000019"><a xlink:title=" ">
<path fill="none" stroke="#63b8ff" d="M1667.54,-221.9C1727.48,-212.69 1800.99,-199.33 1810.25,-188 1815.88,-181.12 1814.53,-175.79 1810.25,-168 1764.14,-84.05 1652.01,-38.61 1596.09,-20.48"/>
<polygon fill="#63b8ff" stroke="#63b8ff" points="1667.27,-218.55 1657.91,-223.51 1668.32,-225.47 1667.27,-218.55"/>
</a>
</g>
</g>
<!-- Node23&#45;&gt;Node22 -->
<g id="edge33_Node000023_Node000022" class="edge">
<title>Node23&#45;&gt;Node22</title>
<g id="a_edge33_Node000023_Node000022"><a xlink:title=" ">
<path fill="none" stroke="#63b8ff" d="M1657.28,-221.81C1718.06,-211.95 1805.59,-197.76 1862.93,-188.46"/>
<polygon fill="#63b8ff" stroke="#63b8ff" points="1656.95,-218.48 1647.64,-223.53 1658.07,-225.39 1656.95,-218.48"/>
</a>
</g>
</g>
<!-- Node24 -->
<g id="Node000024" class="node">
<title>Node24</title>
<g id="a_Node000024"><a xlink:href="session_8cpp.html" target="_top" xlink:title=" ">
<polygon fill="white" stroke="#666666" points="1658.88,-188 1517.62,-188 1517.62,-168 1658.88,-168 1658.88,-188"/>
<text text-anchor="middle" x="1588.25" y="-174.5" font-family="Helvetica,sans-Serif" font-size="10.00">src/roar/session/session.cpp</text>
</a>
</g>
</g>
<!-- Node23&#45;&gt;Node24 -->
<g id="edge35_Node000023_Node000024" class="edge">
<title>Node23&#45;&gt;Node24</title>
<g id="a_edge35_Node000023_Node000024"><a xlink:title=" ">
<path fill="none" stroke="#63b8ff" d="M1588.25,-212.71C1588.25,-204.32 1588.25,-195.01 1588.25,-188.3"/>
<polygon fill="#63b8ff" stroke="#63b8ff" points="1584.75,-212.59 1588.25,-222.59 1591.75,-212.59 1584.75,-212.59"/>
</a>
</g>
</g>
<!-- Node25&#45;&gt;Node2 -->
<g id="edge39_Node000025_Node000002" class="edge">
<title>Node25&#45;&gt;Node2</title>
<g id="a_edge39_Node000025_Node000002"><a xlink:title=" ">
<path fill="none" stroke="#63b8ff" d="M1314.82,-223.39C1222,-213.52 1078.49,-198.27 986.21,-188.46"/>
<polygon fill="#63b8ff" stroke="#63b8ff" points="1314.28,-226.96 1324.6,-224.53 1315.02,-220 1314.28,-226.96"/>
</a>
</g>
</g>
<!-- Node25&#45;&gt;Node15 -->
<g id="edge38_Node000025_Node000015" class="edge">
<title>Node25&#45;&gt;Node15</title>
<g id="a_edge38_Node000025_Node000015"><a xlink:title=" ">
<path fill="none" stroke="#63b8ff" d="M1367.03,-220.14C1300.57,-197.79 1165.18,-152.24 1106.46,-132.49"/>
<polygon fill="#63b8ff" stroke="#63b8ff" points="1365.49,-223.66 1376.09,-223.53 1367.72,-217.02 1365.49,-223.66"/>
</a>
</g>
</g>
<!-- Node25&#45;&gt;Node16 -->
<g id="edge40_Node000025_Node000016" class="edge">
<title>Node25&#45;&gt;Node16</title>
<g id="a_edge40_Node000025_Node000016"><a xlink:title=" ">
<path fill="none" stroke="#63b8ff" d="M1367.26,-219.66C1350.2,-212.29 1330.7,-201.79 1316.25,-188 1288.17,-161.21 1304.35,-135.22 1273.25,-112 1233.58,-82.38 1177.65,-71.79 1135.86,-68.23"/>
<polygon fill="#63b8ff" stroke="#63b8ff" points="1365.39,-223.09 1375.97,-223.65 1368.05,-216.61 1365.39,-223.09"/>
</a>
</g>
</g>
<!-- Node25&#45;&gt;Node19 -->
<g id="edge43_Node000025_Node000019" class="edge">
<title>Node25&#45;&gt;Node19</title>
<g id="a_edge43_Node000025_Node000019"><a xlink:title=" ">
<path fill="none" stroke="#63b8ff" d="M1430.3,-218.15C1466.43,-196.2 1530.36,-155.2 1544.25,-132 1566.2,-95.33 1565.4,-41.65 1564.04,-20.28"/>
<polygon fill="#63b8ff" stroke="#63b8ff" points="1429.1,-215.39 1422.34,-223.55 1432.71,-221.38 1429.1,-215.39"/>
</a>
</g>
</g>
<!-- Node25&#45;&gt;Node21 -->
<g id="edge41_Node000025_Node000021" class="edge">
<title>Node25&#45;&gt;Node21</title>
<g id="a_edge41_Node000025_Node000021"><a xlink:title=" ">
<path fill="none" stroke="#63b8ff" d="M1474.49,-221.81C1535.45,-211.95 1623.24,-197.76 1680.76,-188.46"/>
<polygon fill="#63b8ff" stroke="#63b8ff" points="1474.12,-218.48 1464.81,-223.53 1475.24,-225.39 1474.12,-218.48"/>
</a>
</g>
</g>
<!-- Node25&#45;&gt;Node22 -->
<g id="edge42_Node000025_Node000022" class="edge">
<title>Node25&#45;&gt;Node22</title>
<g id="a_edge42_Node000025_Node000022"><a xlink:title=" ">
<path fill="none" stroke="#63b8ff" d="M1495.49,-223.56C1599.01,-212.72 1766.13,-195.23 1857.16,-185.71"/>
<polygon fill="#63b8ff" stroke="#63b8ff" points="1495.33,-220.16 1485.74,-224.68 1496.05,-227.12 1495.33,-220.16"/>
</a>
</g>
</g>
<!-- Node25&#45;&gt;Node24 -->
<g id="edge45_Node000025_Node000024" class="edge">
<title>Node25&#45;&gt;Node24</title>
<g id="a_edge45_Node000025_Node000024"><a xlink:title=" ">
<path fill="none" stroke="#63b8ff" d="M1447.41,-220.56C1480.52,-210.79 1525.92,-197.39 1556.13,-188.48"/>
<polygon fill="#63b8ff" stroke="#63b8ff" points="1446.73,-217.41 1438.13,-223.59 1448.71,-224.12 1446.73,-217.41"/>
</a>
</g>
</g>
<!-- Node26 -->
<g id="Node000026" class="node">
<title>Node26</title>
<g id="a_Node000026"><a xlink:href="factory_8cpp.html" target="_top" xlink:title=" ">
<polygon fill="white" stroke="#666666" points="1461.62,-188 1324.88,-188 1324.88,-168 1461.62,-168 1461.62,-188"/>
<text text-anchor="middle" x="1393.25" y="-174.5" font-family="Helvetica,sans-Serif" font-size="10.00">src/roar/session/factory.cpp</text>
</a>
</g>
</g>
<!-- Node25&#45;&gt;Node26 -->
<g id="edge44_Node000025_Node000026" class="edge">
<title>Node25&#45;&gt;Node26</title>
<g id="a_edge44_Node000025_Node000026"><a xlink:title=" ">
<path fill="none" stroke="#63b8ff" d="M1400.81,-213C1398.93,-204.54 1396.82,-195.08 1395.32,-188.3"/>
<polygon fill="#63b8ff" stroke="#63b8ff" points="1397.57,-213.59 1403.16,-222.59 1404.41,-212.07 1397.57,-213.59"/>
</a>
</g>
</g>
</g>
</svg>
