<?xml version="1.0" encoding="UTF-8" standalone="no"?>
<!DOCTYPE svg PUBLIC "-//W3C//DTD SVG 1.1//EN"
 "http://www.w3.org/Graphics/SVG/1.1/DTD/svg11.dtd">
<!-- Generated by graphviz version 2.44.1 (20211215.1903)
 -->
<!-- Title: include/roar/routing/proto_route.hpp Pages: 1 -->
<!--zoomable 252 -->
<svg id="main" version="1.1" xmlns="http://www.w3.org/2000/svg" xmlns:xlink="http://www.w3.org/1999/xlink" xml:space="preserve" onload="init(evt)">
<style type="text/css"><![CDATA[
.edge:hover path { stroke: red; }
.edge:hover polygon { stroke: red; fill: red; }
]]></style>
<script type="text/javascript"><![CDATA[
var edges = document.getElementsByTagName('g');
if (edges && edges.length) {
  for (var i=0;i<edges.length;i++) {
    if (edges[i].id.substr(0,4)=='edge') {
      edges[i].setAttribute('class','edge');
    }
  }
}
]]></script>
        <defs>
                <circle id="rim" cx="0" cy="0" r="7"/>
                <circle id="rim2" cx="0" cy="0" r="3.5"/>
                <g id="zoomPlus">
                        <use xlink:href="#rim" fill="#404040">
                                <set attributeName="fill" to="#808080" begin="zoomplus.mouseover" end="zoomplus.mouseout"/>
                        </use>
                        <path d="M-4,0h8M0,-4v8" fill="none" stroke="white" stroke-width="1.5" pointer-events="none"/>
                </g>
                <g id="zoomMin">
                        <use xlink:href="#rim" fill="#404040">
                                <set attributeName="fill" to="#808080" begin="zoomminus.mouseover" end="zoomminus.mouseout"/>
                        </use>
                        <path d="M-4,0h8" fill="none" stroke="white" stroke-width="1.5" pointer-events="none"/>
                </g>
                <g id="dirArrow">
                        <path fill="none" stroke="white" stroke-width="1.5" d="M0,-3.0v7 M-2.5,-0.5L0,-3.0L2.5,-0.5"/>
                </g>
               <g id="resetDef">
                       <use xlink:href="#rim2" fill="#404040">
                               <set attributeName="fill" to="#808080" begin="reset.mouseover" end="reset.mouseout"/>
                       </use>
               </g>
        </defs>

<script type="text/javascript">
var viewWidth = 1564;
var viewHeight = 252;
var sectionId = 'dynsection-1';
</script>
<script xlink:href="svgpan.js"/>
<svg id="graph" class="graph">
<g id="viewport">
<title>include/roar/routing/proto_route.hpp</title>
<!-- Node1 -->
<g id="node1" class="node">
<title>Node1</title>
<g id="a_node1"><a xlink:title=" ">
<polygon fill="#bfbfbf" stroke="black" points="953.5,-224.5 953.5,-243.5 1123.5,-243.5 1123.5,-224.5 953.5,-224.5"/>
<text text-anchor="middle" x="1038.5" y="-231.5" font-family="Helvetica,sans-Serif" font-size="10.00">include/roar/routing/proto_route.hpp</text>
</a>
</g>
</g>
<!-- Node2 -->
<g id="node2" class="node">
<title>Node2</title>
<g id="a_node2"><a xlink:href="include_2roar_2routing_2request__listener_8hpp.html" target="_top" xlink:title=" ">
<polygon fill="none" stroke="black" points="631.5,-112.5 631.5,-131.5 821.5,-131.5 821.5,-112.5 631.5,-112.5"/>
<text text-anchor="middle" x="726.5" y="-119.5" font-family="Helvetica,sans-Serif" font-size="10.00">include/roar/routing/request_listener.hpp</text>
</a>
</g>
</g>
<!-- Node1&#45;&gt;Node2 -->
<g id="edge1" class="edge">
<title>Node1&#45;&gt;Node2</title>
<path fill="none" stroke="midnightblue" d="M966.05,-222.73C926.54,-215.71 877.32,-204.6 835.5,-188 797.41,-172.88 757.13,-145.42 737.95,-131.53"/>
<polygon fill="midnightblue" stroke="midnightblue" points="965.68,-226.22 976.13,-224.47 966.87,-219.32 965.68,-226.22"/>
</g>
<!-- Node10 -->
<g id="node10" class="node">
<title>Node10</title>
<g id="a_node10"><a xlink:href="server_8hpp.html" target="_top" xlink:title=" ">
<polygon fill="none" stroke="black" points="829.5,-56.5 829.5,-75.5 945.5,-75.5 945.5,-56.5 829.5,-56.5"/>
<text text-anchor="middle" x="887.5" y="-63.5" font-family="Helvetica,sans-Serif" font-size="10.00">include/roar/server.hpp</text>
</a>
</g>
</g>
<!-- Node1&#45;&gt;Node10 -->
<g id="edge25" class="edge">
<title>Node1&#45;&gt;Node10</title>
<path fill="none" stroke="midnightblue" d="M1002.64,-220.73C966.4,-206.08 912.8,-177.66 891.5,-132 882.9,-113.56 884.41,-88.91 886.07,-75.91"/>
<polygon fill="midnightblue" stroke="midnightblue" points="1001.78,-224.14 1012.37,-224.5 1004.31,-217.62 1001.78,-224.14"/>
</g>
<!-- Node14 -->
<g id="node14" class="node">
<title>Node14</title>
<g id="a_node14"><a xlink:href="route_8hpp.html" target="_top" xlink:title=" ">
<polygon fill="none" stroke="black" points="1136,-168.5 1136,-187.5 1279,-187.5 1279,-168.5 1136,-168.5"/>
<text text-anchor="middle" x="1207.5" y="-175.5" font-family="Helvetica,sans-Serif" font-size="10.00">include/roar/routing/route.hpp</text>
</a>
</g>
</g>
<!-- Node1&#45;&gt;Node14 -->
<g id="edge18" class="edge">
<title>Node1&#45;&gt;Node14</title>
<path fill="none" stroke="midnightblue" d="M1075.1,-221.3C1106.95,-211.13 1152.34,-196.62 1180.85,-187.52"/>
<polygon fill="midnightblue" stroke="midnightblue" points="1073.74,-218.07 1065.28,-224.44 1075.87,-224.73 1073.74,-218.07"/>
</g>
<!-- Node17 -->
<g id="node17" class="node">
<title>Node17</title>
<g id="a_node17"><a xlink:href="router_8hpp.html" target="_top" xlink:title=" ">
<polygon fill="none" stroke="black" points="1368.5,-168.5 1368.5,-187.5 1514.5,-187.5 1514.5,-168.5 1368.5,-168.5"/>
<text text-anchor="middle" x="1441.5" y="-175.5" font-family="Helvetica,sans-Serif" font-size="10.00">include/roar/routing/router.hpp</text>
</a>
</g>
</g>
<!-- Node1&#45;&gt;Node17 -->
<g id="edge21" class="edge">
<title>Node1&#45;&gt;Node17</title>
<path fill="none" stroke="midnightblue" d="M1112.35,-223.1C1188.45,-212.91 1305.85,-197.18 1377.94,-187.52"/>
<polygon fill="midnightblue" stroke="midnightblue" points="1111.8,-219.65 1102.36,-224.44 1112.73,-226.58 1111.8,-219.65"/>
</g>
<!-- Node19 -->
<g id="node19" class="node">
<title>Node19</title>
<g id="a_node19"><a xlink:href="session_8hpp.html" target="_top" xlink:title=" ">
<polygon fill="none" stroke="black" points="959,-168.5 959,-187.5 1118,-187.5 1118,-168.5 959,-168.5"/>
<text text-anchor="middle" x="1038.5" y="-175.5" font-family="Helvetica,sans-Serif" font-size="10.00">include/roar/session/session.hpp</text>
</a>
</g>
</g>
<!-- Node1&#45;&gt;Node19 -->
<g id="edge26" class="edge">
<title>Node1&#45;&gt;Node19</title>
<path fill="none" stroke="midnightblue" d="M1038.5,-213.8C1038.5,-204.91 1038.5,-194.78 1038.5,-187.75"/>
<polygon fill="midnightblue" stroke="midnightblue" points="1035,-214.08 1038.5,-224.08 1042,-214.08 1035,-214.08"/>
</g>
<!-- Node3 -->
<g id="node3" class="node">
<title>Node3</title>
<g id="a_node3"><a xlink:href="request__listener_2main_8cpp.html" target="_top" xlink:title=" ">
<polygon fill="none" stroke="black" points="344,-56.5 344,-75.5 517,-75.5 517,-56.5 344,-56.5"/>
<text text-anchor="middle" x="430.5" y="-63.5" font-family="Helvetica,sans-Serif" font-size="10.00">examples/request_listener/main.cpp</text>
</a>
</g>
</g>
<!-- Node2&#45;&gt;Node3 -->
<g id="edge2" class="edge">
<title>Node2&#45;&gt;Node3</title>
<path fill="none" stroke="midnightblue" d="M669.5,-110.6C613.56,-100.4 529.27,-85.02 477.18,-75.52"/>
<polygon fill="midnightblue" stroke="midnightblue" points="669.13,-114.09 679.6,-112.44 670.39,-107.21 669.13,-114.09"/>
</g>
<!-- Node4 -->
<g id="node4" class="node">
<title>Node4</title>
<g id="a_node4"><a xlink:href="simple__server_2main_8cpp.html" target="_top" xlink:title=" ">
<polygon fill="none" stroke="black" points="231,-0.5 231,-19.5 396,-19.5 396,-0.5 231,-0.5"/>
<text text-anchor="middle" x="313.5" y="-7.5" font-family="Helvetica,sans-Serif" font-size="10.00">examples/simple_server/main.cpp</text>
</a>
</g>
</g>
<!-- Node2&#45;&gt;Node4 -->
<g id="edge3" class="edge">
<title>Node2&#45;&gt;Node4</title>
<path fill="none" stroke="midnightblue" d="M620.82,-121.42C519.86,-119.65 376.96,-110.78 334.5,-76 317.44,-62.02 314.08,-34.04 313.52,-19.79"/>
<polygon fill="midnightblue" stroke="midnightblue" points="621.02,-124.92 631.07,-121.58 621.12,-117.92 621.02,-124.92"/>
</g>
<!-- Node5 -->
<g id="node5" class="node">
<title>Node5</title>
<g id="a_node5"><a xlink:href="examples_2simple__server_2request__listener_8hpp.html" target="_top" xlink:title=" ">
<polygon fill="none" stroke="black" points="74,-56.5 74,-75.5 287,-75.5 287,-56.5 74,-56.5"/>
<text text-anchor="middle" x="180.5" y="-63.5" font-family="Helvetica,sans-Serif" font-size="10.00">examples/simple_server/request_listener.hpp</text>
</a>
</g>
</g>
<!-- Node2&#45;&gt;Node5 -->
<g id="edge4" class="edge">
<title>Node2&#45;&gt;Node5</title>
<path fill="none" stroke="midnightblue" d="M630.2,-111.48C527.28,-101.3 365.59,-85.31 266.71,-75.53"/>
<polygon fill="midnightblue" stroke="midnightblue" points="629.99,-114.97 640.29,-112.47 630.68,-108.01 629.99,-114.97"/>
</g>
<!-- Node7 -->
<g id="node7" class="node">
<title>Node7</title>
<g id="a_node7"><a xlink:href="websocket_2main_8cpp.html" target="_top" xlink:title=" ">
<polygon fill="none" stroke="black" points="632.5,-0.5 632.5,-19.5 784.5,-19.5 784.5,-0.5 632.5,-0.5"/>
<text text-anchor="middle" x="708.5" y="-7.5" font-family="Helvetica,sans-Serif" font-size="10.00">examples/websocket/main.cpp</text>
</a>
</g>
</g>
<!-- Node2&#45;&gt;Node7 -->
<g id="edge7" class="edge">
<title>Node2&#45;&gt;Node7</title>
<path fill="none" stroke="midnightblue" d="M737.1,-103.54C743.74,-90.34 750.06,-71.85 744.5,-56 739.4,-41.46 727.41,-28.13 718.66,-19.81"/>
<polygon fill="midnightblue" stroke="midnightblue" points="733.94,-102.03 732.16,-112.47 740.07,-105.42 733.94,-102.03"/>
</g>
<!-- Node8 -->
<g id="node8" class="node">
<title>Node8</title>
<g id="a_node8"><a xlink:href="examples_2websocket_2request__listener_8hpp.html" target="_top" xlink:title=" ">
<polygon fill="none" stroke="black" points="535.5,-56.5 535.5,-75.5 735.5,-75.5 735.5,-56.5 535.5,-56.5"/>
<text text-anchor="middle" x="635.5" y="-63.5" font-family="Helvetica,sans-Serif" font-size="10.00">examples/websocket/request_listener.hpp</text>
</a>
</g>
</g>
<!-- Node2&#45;&gt;Node8 -->
<g id="edge8" class="edge">
<title>Node2&#45;&gt;Node8</title>
<path fill="none" stroke="midnightblue" d="M703.21,-107.18C686.46,-97.24 664.4,-84.15 650.08,-75.65"/>
<polygon fill="midnightblue" stroke="midnightblue" points="701.49,-110.23 711.88,-112.32 705.07,-104.21 701.49,-110.23"/>
</g>
<!-- Node2&#45;&gt;Node10 -->
<g id="edge11" class="edge">
<title>Node2&#45;&gt;Node10</title>
<path fill="none" stroke="midnightblue" d="M761.76,-109.17C792.08,-99 835.07,-84.59 862.11,-75.52"/>
<polygon fill="midnightblue" stroke="midnightblue" points="760.38,-105.95 752.01,-112.44 762.6,-112.58 760.38,-105.95"/>
</g>
<!-- Node12 -->
<g id="node12" class="node">
<title>Node12</title>
<g id="a_node12"><a xlink:href="src_2roar_2routing_2request__listener_8cpp.html" target="_top" xlink:title=" ">
<polygon fill="none" stroke="black" points="803,-0.5 803,-19.5 976,-19.5 976,-0.5 803,-0.5"/>
<text text-anchor="middle" x="889.5" y="-7.5" font-family="Helvetica,sans-Serif" font-size="10.00">src/roar/routing/request_listener.cpp</text>
</a>
</g>
</g>
<!-- Node2&#45;&gt;Node12 -->
<g id="edge17" class="edge">
<title>Node2&#45;&gt;Node12</title>
<path fill="none" stroke="midnightblue" d="M746.78,-106.74C765.75,-93.46 794.91,-73.19 820.5,-56 839.73,-43.08 862.26,-28.49 876.2,-19.52"/>
<polygon fill="midnightblue" stroke="midnightblue" points="744.77,-103.87 738.6,-112.48 748.79,-109.6 744.77,-103.87"/>
</g>
<!-- Node5&#45;&gt;Node4 -->
<g id="edge5" class="edge">
<title>Node5&#45;&gt;Node4</title>
<path fill="none" stroke="midnightblue" d="M210.95,-52.64C235.91,-42.5 270.58,-28.43 292.52,-19.52"/>
<polygon fill="midnightblue" stroke="midnightblue" points="209.52,-49.44 201.57,-56.44 212.16,-55.92 209.52,-49.44"/>
</g>
<!-- Node6 -->
<g id="node6" class="node">
<title>Node6</title>
<g id="a_node6"><a xlink:href="examples_2simple__server_2request__listener_8cpp.html" target="_top" xlink:title=" ">
<polygon fill="none" stroke="black" points="0,-0.5 0,-19.5 213,-19.5 213,-0.5 0,-0.5"/>
<text text-anchor="middle" x="106.5" y="-7.5" font-family="Helvetica,sans-Serif" font-size="10.00">examples/simple_server/request_listener.cpp</text>
</a>
</g>
</g>
<!-- Node5&#45;&gt;Node6 -->
<g id="edge6" class="edge">
<title>Node5&#45;&gt;Node6</title>
<path fill="none" stroke="midnightblue" d="M160.47,-50.38C147.09,-40.62 129.94,-28.11 118.61,-19.83"/>
<polygon fill="midnightblue" stroke="midnightblue" points="158.47,-53.26 168.61,-56.32 162.6,-47.6 158.47,-53.26"/>
</g>
<!-- Node8&#45;&gt;Node7 -->
<g id="edge9" class="edge">
<title>Node8&#45;&gt;Node7</title>
<path fill="none" stroke="midnightblue" d="M655.64,-50.1C668.78,-40.38 685.48,-28.03 696.56,-19.83"/>
<polygon fill="midnightblue" stroke="midnightblue" points="653.19,-47.56 647.23,-56.32 657.35,-53.19 653.19,-47.56"/>
</g>
<!-- Node9 -->
<g id="node9" class="node">
<title>Node9</title>
<g id="a_node9"><a xlink:href="examples_2websocket_2request__listener_8cpp.html" target="_top" xlink:title=" ">
<polygon fill="none" stroke="black" points="414.5,-0.5 414.5,-19.5 614.5,-19.5 614.5,-0.5 414.5,-0.5"/>
<text text-anchor="middle" x="514.5" y="-7.5" font-family="Helvetica,sans-Serif" font-size="10.00">examples/websocket/request_listener.cpp</text>
</a>
</g>
</g>
<!-- Node8&#45;&gt;Node9 -->
<g id="edge10" class="edge">
<title>Node8&#45;&gt;Node9</title>
<path fill="none" stroke="midnightblue" d="M607.19,-52.37C584.53,-42.26 553.37,-28.35 533.58,-19.52"/>
<polygon fill="midnightblue" stroke="midnightblue" points="605.77,-55.56 616.33,-56.44 608.62,-49.17 605.77,-55.56"/>
</g>
<!-- Node10&#45;&gt;Node4 -->
<g id="edge13" class="edge">
<title>Node10&#45;&gt;Node4</title>
<path fill="none" stroke="midnightblue" d="M819.08,-58.71C725.64,-50.09 552.87,-34.09 405.5,-20 402.46,-19.71 399.37,-19.41 396.25,-19.11"/>
<polygon fill="midnightblue" stroke="midnightblue" points="818.97,-62.21 829.25,-59.65 819.61,-55.24 818.97,-62.21"/>
</g>
<!-- Node10&#45;&gt;Node7 -->
<g id="edge14" class="edge">
<title>Node10&#45;&gt;Node7</title>
<path fill="none" stroke="midnightblue" d="M849.17,-53.44C815.42,-43.26 767.05,-28.66 736.73,-19.52"/>
<polygon fill="midnightblue" stroke="midnightblue" points="848.55,-56.91 859.14,-56.44 850.57,-50.2 848.55,-56.91"/>
</g>
<!-- Node11 -->
<g id="node11" class="node">
<title>Node11</title>
<g id="a_node11"><a xlink:href="most__minimal_2main_8cpp.html" target="_top" xlink:title=" ">
<polygon fill="none" stroke="black" points="994,-0.5 994,-19.5 1159,-19.5 1159,-0.5 994,-0.5"/>
<text text-anchor="middle" x="1076.5" y="-7.5" font-family="Helvetica,sans-Serif" font-size="10.00">examples/most_minimal/main.cpp</text>
</a>
</g>
</g>
<!-- Node10&#45;&gt;Node11 -->
<g id="edge12" class="edge">
<title>Node10&#45;&gt;Node11</title>
<path fill="none" stroke="midnightblue" d="M927.51,-53.57C963.17,-43.38 1014.54,-28.7 1046.69,-19.52"/>
<polygon fill="midnightblue" stroke="midnightblue" points="926.1,-50.33 917.45,-56.44 928.02,-57.06 926.1,-50.33"/>
</g>
<!-- Node10&#45;&gt;Node12 -->
<g id="edge15" class="edge">
<title>Node10&#45;&gt;Node12</title>
<path fill="none" stroke="midnightblue" d="M888.21,-45.8C888.54,-36.91 888.92,-26.78 889.18,-19.75"/>
<polygon fill="midnightblue" stroke="midnightblue" points="884.7,-45.96 887.83,-56.08 891.7,-46.22 884.7,-45.96"/>
</g>
<!-- Node13 -->
<g id="node13" class="node">
<title>Node13</title>
<g id="a_node13"><a xlink:href="server_8cpp.html" target="_top" xlink:title=" ">
<polygon fill="none" stroke="black" points="1177.5,-0.5 1177.5,-19.5 1275.5,-19.5 1275.5,-0.5 1177.5,-0.5"/>
<text text-anchor="middle" x="1226.5" y="-7.5" font-family="Helvetica,sans-Serif" font-size="10.00">src/roar/server.cpp</text>
</a>
</g>
</g>
<!-- Node10&#45;&gt;Node13 -->
<g id="edge16" class="edge">
<title>Node10&#45;&gt;Node13</title>
<path fill="none" stroke="midnightblue" d="M951.44,-54.82C1017.08,-44.36 1117.82,-28.31 1177.44,-18.82"/>
<polygon fill="midnightblue" stroke="midnightblue" points="950.54,-51.41 941.22,-56.44 951.64,-58.33 950.54,-51.41"/>
</g>
<!-- Node15 -->
<g id="node15" class="node">
<title>Node15</title>
<g id="a_node15"><a xlink:href="route_8cpp.html" target="_top" xlink:title=" ">
<polygon fill="none" stroke="black" points="1110,-112.5 1110,-131.5 1235,-131.5 1235,-112.5 1110,-112.5"/>
<text text-anchor="middle" x="1172.5" y="-119.5" font-family="Helvetica,sans-Serif" font-size="10.00">src/roar/routing/route.cpp</text>
</a>
</g>
</g>
<!-- Node14&#45;&gt;Node15 -->
<g id="edge19" class="edge">
<title>Node14&#45;&gt;Node15</title>
<path fill="none" stroke="midnightblue" d="M1196.2,-159.57C1190.18,-150.27 1183.03,-139.25 1178.17,-131.75"/>
<polygon fill="midnightblue" stroke="midnightblue" points="1193.34,-161.6 1201.72,-168.08 1199.22,-157.79 1193.34,-161.6"/>
</g>
<!-- Node16 -->
<g id="node16" class="node">
<title>Node16</title>
<g id="a_node16"><a xlink:href="router_8cpp.html" target="_top" xlink:title=" ">
<polygon fill="none" stroke="black" points="1413.5,-112.5 1413.5,-131.5 1541.5,-131.5 1541.5,-112.5 1413.5,-112.5"/>
<text text-anchor="middle" x="1477.5" y="-119.5" font-family="Helvetica,sans-Serif" font-size="10.00">src/roar/routing/router.cpp</text>
</a>
</g>
</g>
<!-- Node14&#45;&gt;Node16 -->
<g id="edge20" class="edge">
<title>Node14&#45;&gt;Node16</title>
<path fill="none" stroke="midnightblue" d="M1260.13,-166.47C1311.16,-156.27 1387.6,-140.98 1434.92,-131.52"/>
<polygon fill="midnightblue" stroke="midnightblue" points="1259.4,-163.05 1250.28,-168.44 1260.77,-169.91 1259.4,-163.05"/>
</g>
<!-- Node17&#45;&gt;Node13 -->
<g id="edge23" class="edge">
<title>Node17&#45;&gt;Node13</title>
<path fill="none" stroke="midnightblue" d="M1494.49,-165.85C1530.97,-155.62 1569.68,-138.07 1550.5,-112 1517.63,-67.33 1357.9,-33.74 1275.66,-19.09"/>
<polygon fill="midnightblue" stroke="midnightblue" points="1493.57,-162.47 1484.8,-168.41 1495.36,-169.23 1493.57,-162.47"/>
</g>
<!-- Node17&#45;&gt;Node16 -->
<g id="edge22" class="edge">
<title>Node17&#45;&gt;Node16</title>
<path fill="none" stroke="midnightblue" d="M1453.12,-159.57C1459.32,-150.27 1466.67,-139.25 1471.67,-131.75"/>
<polygon fill="midnightblue" stroke="midnightblue" points="1450.08,-157.82 1447.44,-168.08 1455.9,-161.7 1450.08,-157.82"/>
</g>
<!-- Node18 -->
<g id="node18" class="node">
<title>Node18</title>
<g id="a_node18"><a xlink:href="session_8cpp.html" target="_top" xlink:title=" ">
<polygon fill="none" stroke="black" points="1253.5,-112.5 1253.5,-131.5 1395.5,-131.5 1395.5,-112.5 1253.5,-112.5"/>
<text text-anchor="middle" x="1324.5" y="-119.5" font-family="Helvetica,sans-Serif" font-size="10.00">src/roar/session/session.cpp</text>
</a>
</g>
</g>
<!-- Node17&#45;&gt;Node18 -->
<g id="edge24" class="edge">
<title>Node17&#45;&gt;Node18</title>
<path fill="none" stroke="midnightblue" d="M1413.84,-164.23C1391.95,-154.13 1362,-140.31 1342.95,-131.52"/>
<polygon fill="midnightblue" stroke="midnightblue" points="1412.41,-167.43 1422.96,-168.44 1415.35,-161.08 1412.41,-167.43"/>
</g>
<!-- Node19&#45;&gt;Node2 -->
<g id="edge27" class="edge">
<title>Node19&#45;&gt;Node2</title>
<path fill="none" stroke="midnightblue" d="M979.15,-166.73C920.19,-156.52 830.84,-141.06 775.71,-131.52"/>
<polygon fill="midnightblue" stroke="midnightblue" points="978.61,-170.19 989.06,-168.44 979.81,-163.29 978.61,-170.19"/>
</g>
<!-- Node19&#45;&gt;Node10 -->
<g id="edge28" class="edge">
<title>Node19&#45;&gt;Node10</title>
<path fill="none" stroke="midnightblue" d="M966.38,-165.7C944.66,-159.09 922.39,-148.61 906.5,-132 891.54,-116.37 888.27,-89.63 887.61,-75.82"/>
<polygon fill="midnightblue" stroke="midnightblue" points="965.72,-169.15 976.3,-168.48 967.61,-162.41 965.72,-169.15"/>
</g>
<!-- Node19&#45;&gt;Node13 -->
<g id="edge31" class="edge">
<title>Node19&#45;&gt;Node13</title>
<path fill="none" stroke="midnightblue" d="M1053.24,-160.72C1065.69,-147.24 1084.21,-127.8 1101.5,-112 1141.25,-75.68 1192.11,-36.72 1214.74,-19.74"/>
<polygon fill="midnightblue" stroke="midnightblue" points="1050.51,-158.52 1046.34,-168.26 1055.67,-163.25 1050.51,-158.52"/>
</g>
<!-- Node19&#45;&gt;Node15 -->
<g id="edge29" class="edge">
<title>Node19&#45;&gt;Node15</title>
<path fill="none" stroke="midnightblue" d="M1069.18,-164.64C1094.32,-154.5 1129.25,-140.43 1151.37,-131.52"/>
<polygon fill="midnightblue" stroke="midnightblue" points="1067.7,-161.46 1059.73,-168.44 1070.32,-167.95 1067.7,-161.46"/>
</g>
<!-- Node19&#45;&gt;Node16 -->
<g id="edge30" class="edge">
<title>Node19&#45;&gt;Node16</title>
<path fill="none" stroke="midnightblue" d="M1118.18,-167.21C1192.32,-158.1 1305.89,-144.14 1404.5,-132 1407.41,-131.64 1410.4,-131.27 1413.41,-130.9"/>
<polygon fill="midnightblue" stroke="midnightblue" points="1117.48,-163.77 1107.98,-168.46 1118.34,-170.72 1117.48,-163.77"/>
</g>
<!-- Node19&#45;&gt;Node18 -->
<g id="edge33" class="edge">
<title>Node19&#45;&gt;Node18</title>
<path fill="none" stroke="midnightblue" d="M1093.91,-166.54C1147.97,-156.33 1229.17,-141 1279.39,-131.52"/>
<polygon fill="midnightblue" stroke="midnightblue" points="1092.99,-163.15 1083.82,-168.44 1094.29,-170.03 1092.99,-163.15"/>
</g>
<!-- Node20 -->
<g id="node20" class="node">
<title>Node20</title>
<g id="a_node20"><a xlink:href="factory_8cpp.html" target="_top" xlink:title=" ">
<polygon fill="none" stroke="black" points="916,-112.5 916,-131.5 1053,-131.5 1053,-112.5 916,-112.5"/>
<text text-anchor="middle" x="984.5" y="-119.5" font-family="Helvetica,sans-Serif" font-size="10.00">src/roar/session/factory.cpp</text>
</a>
</g>
</g>
<!-- Node19&#45;&gt;Node20 -->
<g id="edge32" class="edge">
<title>Node19&#45;&gt;Node20</title>
<path fill="none" stroke="midnightblue" d="M1022.5,-161C1012.93,-151.43 1001.14,-139.64 993.25,-131.75"/>
<polygon fill="midnightblue" stroke="midnightblue" points="1020.04,-163.49 1029.58,-168.08 1024.99,-158.54 1020.04,-163.49"/>
</g>
</g>
</svg>
        <g id="navigator" transform="translate(0 0)" fill="#404254">
                <rect fill="#f2f5e9" fill-opacity="0.5" stroke="#606060" stroke-width=".5" x="0" y="0" width="60" height="60"/>
                <use id="zoomplus" xlink:href="#zoomPlus" x="17" y="9" onmousedown="handleZoom(evt,'in')"/>
                <use id="zoomminus" xlink:href="#zoomMin" x="42" y="9" onmousedown="handleZoom(evt,'out')"/>
                <use id="reset" xlink:href="#resetDef" x="30" y="36" onmousedown="handleReset()"/>
                <g id="arrowUp" xlink:href="#dirArrow" transform="translate(30 24)" onmousedown="handlePan(0,-1)">
                  <use xlink:href="#rim" fill="#404040">
                        <set attributeName="fill" to="#808080" begin="arrowUp.mouseover" end="arrowUp.mouseout"/>
                  </use>
                  <path fill="none" stroke="white" stroke-width="1.5" d="M0,-3.0v7 M-2.5,-0.5L0,-3.0L2.5,-0.5"/>
                </g>
                <g id="arrowRight" xlink:href="#dirArrow" transform="rotate(90) translate(36 -43)" onmousedown="handlePan(1,0)">
                  <use xlink:href="#rim" fill="#404040">
                        <set attributeName="fill" to="#808080" begin="arrowRight.mouseover" end="arrowRight.mouseout"/>
                  </use>
                  <path fill="none" stroke="white" stroke-width="1.5" d="M0,-3.0v7 M-2.5,-0.5L0,-3.0L2.5,-0.5"/>
                </g>
                <g id="arrowDown" xlink:href="#dirArrow" transform="rotate(180) translate(-30 -48)" onmousedown="handlePan(0,1)">
                  <use xlink:href="#rim" fill="#404040">
                        <set attributeName="fill" to="#808080" begin="arrowDown.mouseover" end="arrowDown.mouseout"/>
                  </use>
                  <path fill="none" stroke="white" stroke-width="1.5" d="M0,-3.0v7 M-2.5,-0.5L0,-3.0L2.5,-0.5"/>
                </g>
                <g id="arrowLeft" xlink:href="#dirArrow" transform="rotate(270) translate(-36 17)" onmousedown="handlePan(-1,0)">
                  <use xlink:href="#rim" fill="#404040">
                        <set attributeName="fill" to="#808080" begin="arrowLeft.mouseover" end="arrowLeft.mouseout"/>
                  </use>
                  <path fill="none" stroke="white" stroke-width="1.5" d="M0,-3.0v7 M-2.5,-0.5L0,-3.0L2.5,-0.5"/>
                </g>
        </g>
        <svg viewBox="0 0 15 15" width="100%" height="30px" preserveAspectRatio="xMaxYMin meet">
         <g id="arrow_out" transform="scale(0.3 0.3)">
          <a xlink:href="proto__route_8hpp__dep__incl_org.svg" target="_base">
           <rect id="button" ry="5" rx="5" y="6" x="6" height="38" width="38"
                fill="#f2f5e9" fill-opacity="0.5" stroke="#606060" stroke-width="1.0"/>
           <path id="arrow"
             d="M 11.500037,31.436501 C 11.940474,20.09759 22.043105,11.32322 32.158766,21.979434 L 37.068811,17.246167 C 37.068811,17.246167 37.088388,32 37.088388,32 L 22.160133,31.978069 C 22.160133,31.978069 26.997745,27.140456 26.997745,27.140456 C 18.528582,18.264221 13.291696,25.230495 11.500037,31.436501 z"
             style="fill:#404040;"/>
          </a>
         </g>
        </svg>
</svg>
