<?xml version="1.0" encoding="UTF-8" standalone="no"?>
<!DOCTYPE svg PUBLIC "-//W3C//DTD SVG 1.1//EN"
 "http://www.w3.org/Graphics/SVG/1.1/DTD/svg11.dtd">
<!-- Generated by graphviz version 2.44.1 (20211215.1903)
 -->
<!-- Title: include/roar/routing/proto_route.hpp Pages: 1 -->
<svg width="780pt" height="140pt"
 viewBox="0.00 0.00 780.50 140.00" xmlns="http://www.w3.org/2000/svg" xmlns:xlink="http://www.w3.org/1999/xlink">
<g id="graph0" class="graph" transform="scale(1 1) rotate(0) translate(4 136)">
<title>include/roar/routing/proto_route.hpp</title>
<!-- Node1 -->
<g id="node1" class="node">
<title>Node1</title>
<g id="a_node1"><a xlink:title=" ">
<polygon fill="#bfbfbf" stroke="black" points="438.5,-112.5 438.5,-131.5 608.5,-131.5 608.5,-112.5 438.5,-112.5"/>
<text text-anchor="middle" x="523.5" y="-119.5" font-family="Helvetica,sans-Serif" font-size="10.00">include/roar/routing/proto_route.hpp</text>
</a>
</g>
</g>
<!-- Node2 -->
<g id="node2" class="node">
<title>Node2</title>
<g id="a_node2"><a xlink:title=" ">
<polygon fill="none" stroke="#bfbfbf" points="127,-56.5 127,-75.5 288,-75.5 288,-56.5 127,-56.5"/>
<text text-anchor="middle" x="207.5" y="-63.5" font-family="Helvetica,sans-Serif" font-size="10.00">boost/beast/http/empty_body.hpp</text>
</a>
</g>
</g>
<!-- Node1&#45;&gt;Node2 -->
<g id="edge1" class="edge">
<title>Node1&#45;&gt;Node2</title>
<path fill="none" stroke="midnightblue" d="M473.43,-112.44C417.49,-102.89 326.99,-87.42 267.36,-77.23"/>
<polygon fill="midnightblue" stroke="midnightblue" points="267.78,-73.75 257.34,-75.52 266.6,-80.65 267.78,-73.75"/>
</g>
<!-- Node3 -->
<g id="node3" class="node">
<title>Node3</title>
<g id="a_node3"><a xlink:href="cors_8hpp.html" target="_top" xlink:title=" ">
<polygon fill="none" stroke="black" points="344.5,-56.5 344.5,-75.5 418.5,-75.5 418.5,-56.5 344.5,-56.5"/>
<text text-anchor="middle" x="381.5" y="-63.5" font-family="Helvetica,sans-Serif" font-size="10.00">roar/cors.hpp</text>
</a>
</g>
</g>
<!-- Node1&#45;&gt;Node3 -->
<g id="edge2" class="edge">
<title>Node1&#45;&gt;Node3</title>
<path fill="none" stroke="midnightblue" d="M501,-112.44C477.42,-103.48 440.18,-89.31 413.54,-79.18"/>
<polygon fill="midnightblue" stroke="midnightblue" points="414.49,-75.8 403.9,-75.52 412,-82.34 414.49,-75.8"/>
</g>
<!-- Node6 -->
<g id="node6" class="node">
<title>Node6</title>
<g id="a_node6"><a xlink:title=" ">
<polygon fill="none" stroke="#bfbfbf" points="0,-0.5 0,-19.5 41,-19.5 41,-0.5 0,-0.5"/>
<text text-anchor="middle" x="20.5" y="-7.5" font-family="Helvetica,sans-Serif" font-size="10.00">string</text>
</a>
</g>
</g>
<!-- Node1&#45;&gt;Node6 -->
<g id="edge12" class="edge">
<title>Node1&#45;&gt;Node6</title>
<path fill="none" stroke="midnightblue" d="M473.86,-112.48C435.39,-105.08 381.14,-92.89 335.5,-76 317.23,-69.24 315.06,-61.93 296.5,-56 193.92,-23.22 159.7,-43.26 51.32,-20.1"/>
<polygon fill="midnightblue" stroke="midnightblue" points="51.82,-16.63 41.3,-17.88 50.31,-23.46 51.82,-16.63"/>
</g>
<!-- Node10 -->
<g id="node10" class="node">
<title>Node10</title>
<g id="a_node10"><a xlink:href="regex_8hpp.html" target="_top" xlink:title=" ">
<polygon fill="none" stroke="black" points="455,-56.5 455,-75.5 592,-75.5 592,-56.5 455,-56.5"/>
<text text-anchor="middle" x="523.5" y="-63.5" font-family="Helvetica,sans-Serif" font-size="10.00">roar/detail/literals/regex.hpp</text>
</a>
</g>
</g>
<!-- Node1&#45;&gt;Node10 -->
<g id="edge9" class="edge">
<title>Node1&#45;&gt;Node10</title>
<path fill="none" stroke="midnightblue" d="M523.5,-112.08C523.5,-105.01 523.5,-94.86 523.5,-85.99"/>
<polygon fill="midnightblue" stroke="midnightblue" points="527,-85.75 523.5,-75.75 520,-85.75 527,-85.75"/>
</g>
<!-- Node12 -->
<g id="node12" class="node">
<title>Node12</title>
<g id="a_node12"><a xlink:title=" ">
<polygon fill="none" stroke="#bfbfbf" points="609,-0.5 609,-19.5 650,-19.5 650,-0.5 609,-0.5"/>
<text text-anchor="middle" x="629.5" y="-7.5" font-family="Helvetica,sans-Serif" font-size="10.00">regex</text>
</a>
</g>
</g>
<!-- Node1&#45;&gt;Node12 -->
<g id="edge15" class="edge">
<title>Node1&#45;&gt;Node12</title>
<path fill="none" stroke="midnightblue" d="M546.63,-112.35C563.73,-104.95 586.54,-92.82 601.5,-76 613.36,-62.67 620.77,-43.56 624.97,-29.5"/>
<polygon fill="midnightblue" stroke="midnightblue" points="628.43,-30.09 627.67,-19.52 621.68,-28.26 628.43,-30.09"/>
</g>
<!-- Node13 -->
<g id="node13" class="node">
<title>Node13</title>
<g id="a_node13"><a xlink:title=" ">
<polygon fill="none" stroke="#bfbfbf" points="649,-56.5 649,-75.5 708,-75.5 708,-56.5 649,-56.5"/>
<text text-anchor="middle" x="678.5" y="-63.5" font-family="Helvetica,sans-Serif" font-size="10.00">functional</text>
</a>
</g>
</g>
<!-- Node1&#45;&gt;Node13 -->
<g id="edge13" class="edge">
<title>Node1&#45;&gt;Node13</title>
<path fill="none" stroke="midnightblue" d="M548.06,-112.44C574.02,-103.4 615.17,-89.06 644.3,-78.92"/>
<polygon fill="midnightblue" stroke="midnightblue" points="645.76,-82.11 654.05,-75.52 643.46,-75.5 645.76,-82.11"/>
</g>
<!-- Node14 -->
<g id="node14" class="node">
<title>Node14</title>
<g id="a_node14"><a xlink:title=" ">
<polygon fill="none" stroke="#bfbfbf" points="726.5,-56.5 726.5,-75.5 772.5,-75.5 772.5,-56.5 726.5,-56.5"/>
<text text-anchor="middle" x="749.5" y="-63.5" font-family="Helvetica,sans-Serif" font-size="10.00">variant</text>
</a>
</g>
</g>
<!-- Node1&#45;&gt;Node14 -->
<g id="edge14" class="edge">
<title>Node1&#45;&gt;Node14</title>
<path fill="none" stroke="midnightblue" d="M562.65,-112.48C599.85,-104.25 657.59,-91.17 716.6,-76.14"/>
<polygon fill="midnightblue" stroke="midnightblue" points="717.64,-79.49 726.46,-73.62 715.91,-72.71 717.64,-79.49"/>
</g>
<!-- Node4 -->
<g id="node4" class="node">
<title>Node4</title>
<g id="a_node4"><a xlink:title=" ">
<polygon fill="none" stroke="#bfbfbf" points="59,-0.5 59,-19.5 186,-19.5 186,-0.5 59,-0.5"/>
<text text-anchor="middle" x="122.5" y="-7.5" font-family="Helvetica,sans-Serif" font-size="10.00">boost/beast/http/field.hpp</text>
</a>
</g>
</g>
<!-- Node3&#45;&gt;Node4 -->
<g id="edge3" class="edge">
<title>Node3&#45;&gt;Node4</title>
<path fill="none" stroke="midnightblue" d="M344.39,-57.26C299.51,-47.9 223.72,-32.1 173.4,-21.61"/>
<polygon fill="midnightblue" stroke="midnightblue" points="173.89,-18.14 163.39,-19.52 172.46,-24.99 173.89,-18.14"/>
</g>
<!-- Node5 -->
<g id="node5" class="node">
<title>Node5</title>
<g id="a_node5"><a xlink:title=" ">
<polygon fill="none" stroke="#bfbfbf" points="204.5,-0.5 204.5,-19.5 332.5,-19.5 332.5,-0.5 204.5,-0.5"/>
<text text-anchor="middle" x="268.5" y="-7.5" font-family="Helvetica,sans-Serif" font-size="10.00">boost/beast/http/verb.hpp</text>
</a>
</g>
</g>
<!-- Node3&#45;&gt;Node5 -->
<g id="edge4" class="edge">
<title>Node3&#45;&gt;Node5</title>
<path fill="none" stroke="midnightblue" d="M363.59,-56.44C345.25,-47.68 316.49,-33.94 295.41,-23.86"/>
<polygon fill="midnightblue" stroke="midnightblue" points="296.85,-20.67 286.32,-19.52 293.83,-26.99 296.85,-20.67"/>
</g>
<!-- Node3&#45;&gt;Node6 -->
<g id="edge5" class="edge">
<title>Node3&#45;&gt;Node6</title>
<path fill="none" stroke="midnightblue" d="M344.49,-58.26C339.78,-57.46 335.03,-56.69 330.5,-56 209.18,-37.54 174.29,-46.29 51.1,-20.05"/>
<polygon fill="midnightblue" stroke="midnightblue" points="51.81,-16.62 41.29,-17.93 50.33,-23.46 51.81,-16.62"/>
</g>
<!-- Node7 -->
<g id="node7" class="node">
<title>Node7</title>
<g id="a_node7"><a xlink:title=" ">
<polygon fill="none" stroke="#bfbfbf" points="350.5,-0.5 350.5,-19.5 394.5,-19.5 394.5,-0.5 350.5,-0.5"/>
<text text-anchor="middle" x="372.5" y="-7.5" font-family="Helvetica,sans-Serif" font-size="10.00">vector</text>
</a>
</g>
</g>
<!-- Node3&#45;&gt;Node7 -->
<g id="edge6" class="edge">
<title>Node3&#45;&gt;Node7</title>
<path fill="none" stroke="midnightblue" d="M380.01,-56.08C378.82,-48.93 377.11,-38.64 375.62,-29.69"/>
<polygon fill="midnightblue" stroke="midnightblue" points="379.05,-29.04 373.96,-19.75 372.15,-30.19 379.05,-29.04"/>
</g>
<!-- Node8 -->
<g id="node8" class="node">
<title>Node8</title>
<g id="a_node8"><a xlink:title=" ">
<polygon fill="none" stroke="#bfbfbf" points="412.5,-0.5 412.5,-19.5 458.5,-19.5 458.5,-0.5 412.5,-0.5"/>
<text text-anchor="middle" x="435.5" y="-7.5" font-family="Helvetica,sans-Serif" font-size="10.00">cctype</text>
</a>
</g>
</g>
<!-- Node3&#45;&gt;Node8 -->
<g id="edge7" class="edge">
<title>Node3&#45;&gt;Node8</title>
<path fill="none" stroke="midnightblue" d="M390.42,-56.08C398.28,-48.22 409.93,-36.57 419.42,-27.08"/>
<polygon fill="midnightblue" stroke="midnightblue" points="422.15,-29.3 426.75,-19.75 417.2,-24.35 422.15,-29.3"/>
</g>
<!-- Node9 -->
<g id="node9" class="node">
<title>Node9</title>
<g id="a_node9"><a xlink:title=" ">
<polygon fill="none" stroke="#bfbfbf" points="476.5,-0.5 476.5,-19.5 526.5,-19.5 526.5,-0.5 476.5,-0.5"/>
<text text-anchor="middle" x="501.5" y="-7.5" font-family="Helvetica,sans-Serif" font-size="10.00">optional</text>
</a>
</g>
</g>
<!-- Node3&#45;&gt;Node9 -->
<g id="edge8" class="edge">
<title>Node3&#45;&gt;Node9</title>
<path fill="none" stroke="midnightblue" d="M400.51,-56.44C420.09,-47.64 450.81,-33.81 473.23,-23.72"/>
<polygon fill="midnightblue" stroke="midnightblue" points="474.89,-26.81 482.57,-19.52 472.02,-20.43 474.89,-26.81"/>
</g>
<!-- Node11 -->
<g id="node11" class="node">
<title>Node11</title>
<g id="a_node11"><a xlink:title=" ">
<polygon fill="none" stroke="#bfbfbf" points="544.5,-0.5 544.5,-19.5 590.5,-19.5 590.5,-0.5 544.5,-0.5"/>
<text text-anchor="middle" x="567.5" y="-7.5" font-family="Helvetica,sans-Serif" font-size="10.00">cstdint</text>
</a>
</g>
</g>
<!-- Node10&#45;&gt;Node11 -->
<g id="edge10" class="edge">
<title>Node10&#45;&gt;Node11</title>
<path fill="none" stroke="midnightblue" d="M530.77,-56.08C537.04,-48.38 546.29,-37.03 553.93,-27.65"/>
<polygon fill="midnightblue" stroke="midnightblue" points="556.77,-29.71 560.37,-19.75 551.34,-25.29 556.77,-29.71"/>
</g>
<!-- Node10&#45;&gt;Node12 -->
<g id="edge11" class="edge">
<title>Node10&#45;&gt;Node12</title>
<path fill="none" stroke="midnightblue" d="M540.53,-56.32C557.53,-47.66 583.88,-34.24 603.49,-24.25"/>
<polygon fill="midnightblue" stroke="midnightblue" points="605.19,-27.31 612.51,-19.65 602.01,-21.08 605.19,-27.31"/>
</g>
</g>
</svg>
