<?xml version="1.0" encoding="UTF-8" standalone="no"?>
<!DOCTYPE svg PUBLIC "-//W3C//DTD SVG 1.1//EN"
 "http://www.w3.org/Graphics/SVG/1.1/DTD/svg11.dtd">
<!-- Generated by graphviz version 2.44.1 (20211215.1903)
 -->
<!-- Title: include/roar/routing/proto_route.hpp Pages: 1 -->
<svg width="2002pt" height="308pt"
 viewBox="0.00 0.00 2001.50 308.00" xmlns="http://www.w3.org/2000/svg" xmlns:xlink="http://www.w3.org/1999/xlink">
<g id="graph0" class="graph" transform="scale(1 1) rotate(0) translate(4 304)">
<title>include/roar/routing/proto_route.hpp</title>
<!-- Node1 -->
<g id="node1" class="node">
<title>Node1</title>
<g id="a_node1"><a xlink:title=" ">
<polygon fill="#bfbfbf" stroke="black" points="1325.5,-280.5 1325.5,-299.5 1495.5,-299.5 1495.5,-280.5 1325.5,-280.5"/>
<text text-anchor="middle" x="1410.5" y="-287.5" font-family="Helvetica,sans-Serif" font-size="10.00">include/roar/routing/proto_route.hpp</text>
</a>
</g>
</g>
<!-- Node2 -->
<g id="node2" class="node">
<title>Node2</title>
<g id="a_node2"><a xlink:href="include_2roar_2routing_2request__listener_8hpp.html" target="_top" xlink:title=" ">
<polygon fill="none" stroke="black" points="804.5,-168.5 804.5,-187.5 994.5,-187.5 994.5,-168.5 804.5,-168.5"/>
<text text-anchor="middle" x="899.5" y="-175.5" font-family="Helvetica,sans-Serif" font-size="10.00">include/roar/routing/request_listener.hpp</text>
</a>
</g>
</g>
<!-- Node1&#45;&gt;Node2 -->
<g id="edge1" class="edge">
<title>Node1&#45;&gt;Node2</title>
<path fill="none" stroke="midnightblue" d="M1360.86,-278.31C1259.66,-256.53 1031.28,-207.37 939.15,-187.53"/>
<polygon fill="midnightblue" stroke="midnightblue" points="1360.32,-281.78 1370.83,-280.46 1361.79,-274.93 1360.32,-281.78"/>
</g>
<!-- Node16 -->
<g id="node16" class="node">
<title>Node16</title>
<g id="a_node16"><a xlink:href="server_8hpp.html" target="_top" xlink:title=" ">
<polygon fill="none" stroke="black" points="1023.5,-56.5 1023.5,-75.5 1139.5,-75.5 1139.5,-56.5 1023.5,-56.5"/>
<text text-anchor="middle" x="1081.5" y="-63.5" font-family="Helvetica,sans-Serif" font-size="10.00">include/roar/server.hpp</text>
</a>
</g>
</g>
<!-- Node1&#45;&gt;Node16 -->
<g id="edge36" class="edge">
<title>Node1&#45;&gt;Node16</title>
<path fill="none" stroke="midnightblue" d="M1378.9,-276.35C1361.34,-268.49 1339.64,-257.34 1322.5,-244 1260.86,-196.04 1271.06,-155.95 1206.5,-112 1180.28,-94.15 1146.17,-82.5 1120.2,-75.53"/>
<polygon fill="midnightblue" stroke="midnightblue" points="1377.61,-279.6 1388.18,-280.37 1380.4,-273.18 1377.61,-279.6"/>
</g>
<!-- Node20 -->
<g id="node20" class="node">
<title>Node20</title>
<g id="a_node20"><a xlink:href="route_8hpp.html" target="_top" xlink:title=" ">
<polygon fill="none" stroke="black" points="1686,-224.5 1686,-243.5 1829,-243.5 1829,-224.5 1686,-224.5"/>
<text text-anchor="middle" x="1757.5" y="-231.5" font-family="Helvetica,sans-Serif" font-size="10.00">include/roar/routing/route.hpp</text>
</a>
</g>
</g>
<!-- Node1&#45;&gt;Node20 -->
<g id="edge29" class="edge">
<title>Node1&#45;&gt;Node20</title>
<path fill="none" stroke="midnightblue" d="M1475.7,-278.85C1541.26,-268.65 1641.21,-253.1 1702.77,-243.52"/>
<polygon fill="midnightblue" stroke="midnightblue" points="1474.83,-275.45 1465.48,-280.44 1475.9,-282.36 1474.83,-275.45"/>
</g>
<!-- Node23 -->
<g id="node23" class="node">
<title>Node23</title>
<g id="a_node23"><a xlink:href="router_8hpp.html" target="_top" xlink:title=" ">
<polygon fill="none" stroke="black" points="1521.5,-224.5 1521.5,-243.5 1667.5,-243.5 1667.5,-224.5 1521.5,-224.5"/>
<text text-anchor="middle" x="1594.5" y="-231.5" font-family="Helvetica,sans-Serif" font-size="10.00">include/roar/routing/router.hpp</text>
</a>
</g>
</g>
<!-- Node1&#45;&gt;Node23 -->
<g id="edge32" class="edge">
<title>Node1&#45;&gt;Node23</title>
<path fill="none" stroke="midnightblue" d="M1449.45,-277.57C1484.16,-267.38 1534.18,-252.7 1565.48,-243.52"/>
<polygon fill="midnightblue" stroke="midnightblue" points="1448.27,-274.27 1439.66,-280.44 1450.24,-280.99 1448.27,-274.27"/>
</g>
<!-- Node25 -->
<g id="node25" class="node">
<title>Node25</title>
<g id="a_node25"><a xlink:href="session_8hpp.html" target="_top" xlink:title=" ">
<polygon fill="none" stroke="black" points="1331,-224.5 1331,-243.5 1490,-243.5 1490,-224.5 1331,-224.5"/>
<text text-anchor="middle" x="1410.5" y="-231.5" font-family="Helvetica,sans-Serif" font-size="10.00">include/roar/session/session.hpp</text>
</a>
</g>
</g>
<!-- Node1&#45;&gt;Node25 -->
<g id="edge37" class="edge">
<title>Node1&#45;&gt;Node25</title>
<path fill="none" stroke="midnightblue" d="M1410.5,-269.8C1410.5,-260.91 1410.5,-250.78 1410.5,-243.75"/>
<polygon fill="midnightblue" stroke="midnightblue" points="1407,-270.08 1410.5,-280.08 1414,-270.08 1407,-270.08"/>
</g>
<!-- Node3 -->
<g id="node3" class="node">
<title>Node3</title>
<g id="a_node3"><a xlink:href="100__continue_2main_8cpp.html" target="_top" xlink:title=" ">
<polygon fill="none" stroke="black" points="1203.5,-0.5 1203.5,-19.5 1365.5,-19.5 1365.5,-0.5 1203.5,-0.5"/>
<text text-anchor="middle" x="1284.5" y="-7.5" font-family="Helvetica,sans-Serif" font-size="10.00">examples/100_continue/main.cpp</text>
</a>
</g>
</g>
<!-- Node2&#45;&gt;Node3 -->
<g id="edge2" class="edge">
<title>Node2&#45;&gt;Node3</title>
<path fill="none" stroke="midnightblue" d="M1004.77,-171.87C1080.58,-166.29 1174.86,-154.89 1206.5,-132 1237.1,-109.86 1223.33,-87.27 1244.5,-56 1253.76,-42.32 1266.83,-28.39 1275.47,-19.72"/>
<polygon fill="midnightblue" stroke="midnightblue" points="1004.4,-168.38 994.68,-172.58 1004.9,-175.37 1004.4,-168.38"/>
</g>
<!-- Node4 -->
<g id="node4" class="node">
<title>Node4</title>
<g id="a_node4"><a xlink:href="examples_2100__continue_2request__listener_8hpp.html" target="_top" xlink:title=" ">
<polygon fill="none" stroke="black" points="1329.5,-112.5 1329.5,-131.5 1539.5,-131.5 1539.5,-112.5 1329.5,-112.5"/>
<text text-anchor="middle" x="1434.5" y="-119.5" font-family="Helvetica,sans-Serif" font-size="10.00">examples/100_continue/request_listener.hpp</text>
</a>
</g>
</g>
<!-- Node2&#45;&gt;Node4 -->
<g id="edge3" class="edge">
<title>Node2&#45;&gt;Node4</title>
<path fill="none" stroke="midnightblue" d="M994.16,-167.45C1095.03,-157.26 1253.24,-141.3 1350.03,-131.53"/>
<polygon fill="midnightblue" stroke="midnightblue" points="993.58,-163.99 983.98,-168.47 994.28,-170.95 993.58,-163.99"/>
</g>
<!-- Node6 -->
<g id="node6" class="node">
<title>Node6</title>
<g id="a_node6"><a xlink:href="file__server_8hpp.html" target="_top" xlink:title=" ">
<polygon fill="none" stroke="black" points="113,-112.5 113,-131.5 308,-131.5 308,-112.5 113,-112.5"/>
<text text-anchor="middle" x="210.5" y="-119.5" font-family="Helvetica,sans-Serif" font-size="10.00">examples/serve_directory/file_server.hpp</text>
</a>
</g>
</g>
<!-- Node2&#45;&gt;Node6 -->
<g id="edge6" class="edge">
<title>Node2&#45;&gt;Node6</title>
<path fill="none" stroke="midnightblue" d="M794.09,-168.9C678.22,-159.96 486.58,-145.12 321.5,-132 317.16,-131.66 312.73,-131.3 308.26,-130.94"/>
<polygon fill="midnightblue" stroke="midnightblue" points="794.13,-172.41 804.37,-169.69 794.67,-165.43 794.13,-172.41"/>
</g>
<!-- Node8 -->
<g id="node8" class="node">
<title>Node8</title>
<g id="a_node8"><a xlink:href="serve__directory_2main_8cpp.html" target="_top" xlink:title=" ">
<polygon fill="none" stroke="black" points="0,-0.5 0,-19.5 171,-19.5 171,-0.5 0,-0.5"/>
<text text-anchor="middle" x="85.5" y="-7.5" font-family="Helvetica,sans-Serif" font-size="10.00">examples/serve_directory/main.cpp</text>
</a>
</g>
</g>
<!-- Node2&#45;&gt;Node8 -->
<g id="edge9" class="edge">
<title>Node2&#45;&gt;Node8</title>
<path fill="none" stroke="midnightblue" d="M794.37,-177.8C590.5,-178.37 156.77,-174.51 104.5,-132 70.35,-104.23 79,-42.26 83.57,-19.55"/>
<polygon fill="midnightblue" stroke="midnightblue" points="794.51,-181.3 804.5,-177.76 794.49,-174.3 794.51,-181.3"/>
</g>
<!-- Node9 -->
<g id="node9" class="node">
<title>Node9</title>
<g id="a_node9"><a xlink:href="simple__server_2main_8cpp.html" target="_top" xlink:title=" ">
<polygon fill="none" stroke="black" points="291,-0.5 291,-19.5 456,-19.5 456,-0.5 291,-0.5"/>
<text text-anchor="middle" x="373.5" y="-7.5" font-family="Helvetica,sans-Serif" font-size="10.00">examples/simple_server/main.cpp</text>
</a>
</g>
</g>
<!-- Node2&#45;&gt;Node9 -->
<g id="edge10" class="edge">
<title>Node2&#45;&gt;Node9</title>
<path fill="none" stroke="midnightblue" d="M794.01,-173.92C654.77,-168.9 423.64,-156.9 393.5,-132 359.52,-103.92 367.42,-42.14 371.68,-19.52"/>
<polygon fill="midnightblue" stroke="midnightblue" points="794.17,-177.43 804.29,-174.28 794.42,-170.43 794.17,-177.43"/>
</g>
<!-- Node10 -->
<g id="node10" class="node">
<title>Node10</title>
<g id="a_node10"><a xlink:href="examples_2simple__server_2request__listener_8hpp.html" target="_top" xlink:title=" ">
<polygon fill="none" stroke="black" points="402,-112.5 402,-131.5 615,-131.5 615,-112.5 402,-112.5"/>
<text text-anchor="middle" x="508.5" y="-119.5" font-family="Helvetica,sans-Serif" font-size="10.00">examples/simple_server/request_listener.hpp</text>
</a>
</g>
</g>
<!-- Node2&#45;&gt;Node10 -->
<g id="edge11" class="edge">
<title>Node2&#45;&gt;Node10</title>
<path fill="none" stroke="midnightblue" d="M827.4,-167.04C753.55,-156.84 639.97,-141.16 570.17,-131.52"/>
<polygon fill="midnightblue" stroke="midnightblue" points="827.16,-170.54 837.54,-168.44 828.12,-163.61 827.16,-170.54"/>
</g>
<!-- Node12 -->
<g id="node12" class="node">
<title>Node12</title>
<g id="a_node12"><a xlink:href="websocket_2main_8cpp.html" target="_top" xlink:title=" ">
<polygon fill="none" stroke="black" points="605.5,-0.5 605.5,-19.5 757.5,-19.5 757.5,-0.5 605.5,-0.5"/>
<text text-anchor="middle" x="681.5" y="-7.5" font-family="Helvetica,sans-Serif" font-size="10.00">examples/websocket/main.cpp</text>
</a>
</g>
</g>
<!-- Node2&#45;&gt;Node12 -->
<g id="edge14" class="edge">
<title>Node2&#45;&gt;Node12</title>
<path fill="none" stroke="midnightblue" d="M794.16,-170.02C739.09,-163.94 679.63,-152.69 662.5,-132 634.83,-98.59 663.33,-41.59 676.04,-19.81"/>
<polygon fill="midnightblue" stroke="midnightblue" points="794.07,-173.53 804.39,-171.1 794.81,-166.57 794.07,-173.53"/>
</g>
<!-- Node13 -->
<g id="node13" class="node">
<title>Node13</title>
<g id="a_node13"><a xlink:href="examples_2websocket_2request__listener_8hpp.html" target="_top" xlink:title=" ">
<polygon fill="none" stroke="black" points="671.5,-112.5 671.5,-131.5 871.5,-131.5 871.5,-112.5 671.5,-112.5"/>
<text text-anchor="middle" x="771.5" y="-119.5" font-family="Helvetica,sans-Serif" font-size="10.00">examples/websocket/request_listener.hpp</text>
</a>
</g>
</g>
<!-- Node2&#45;&gt;Node13 -->
<g id="edge15" class="edge">
<title>Node2&#45;&gt;Node13</title>
<path fill="none" stroke="midnightblue" d="M869.88,-164.5C845.88,-154.38 812.72,-140.39 791.69,-131.52"/>
<polygon fill="midnightblue" stroke="midnightblue" points="868.64,-167.78 879.22,-168.44 871.36,-161.33 868.64,-167.78"/>
</g>
<!-- Node15 -->
<g id="node15" class="node">
<title>Node15</title>
<g id="a_node15"><a xlink:href="directory__server_8hpp.html" target="_top" xlink:title=" ">
<polygon fill="none" stroke="black" points="966,-112.5 966,-131.5 1197,-131.5 1197,-112.5 966,-112.5"/>
<text text-anchor="middle" x="1081.5" y="-119.5" font-family="Helvetica,sans-Serif" font-size="10.00">include/roar/directory_server/directory_server.hpp</text>
</a>
</g>
</g>
<!-- Node2&#45;&gt;Node15 -->
<g id="edge18" class="edge">
<title>Node2&#45;&gt;Node15</title>
<path fill="none" stroke="midnightblue" d="M938.03,-165.57C972.36,-155.38 1021.83,-140.7 1052.8,-131.52"/>
<polygon fill="midnightblue" stroke="midnightblue" points="936.93,-162.24 928.34,-168.44 938.92,-168.95 936.93,-162.24"/>
</g>
<!-- Node2&#45;&gt;Node16 -->
<g id="edge27" class="edge">
<title>Node2&#45;&gt;Node16</title>
<path fill="none" stroke="midnightblue" d="M911.24,-159.61C921.82,-145.1 938.6,-124.8 957.5,-112 983.67,-94.28 1017.66,-82.59 1043.43,-75.57"/>
<polygon fill="midnightblue" stroke="midnightblue" points="908.11,-157.98 905.21,-168.17 913.83,-162 908.11,-157.98"/>
</g>
<!-- Node18 -->
<g id="node18" class="node">
<title>Node18</title>
<g id="a_node18"><a xlink:href="src_2roar_2routing_2request__listener_8cpp.html" target="_top" xlink:title=" ">
<polygon fill="none" stroke="black" points="829,-0.5 829,-19.5 1002,-19.5 1002,-0.5 829,-0.5"/>
<text text-anchor="middle" x="915.5" y="-7.5" font-family="Helvetica,sans-Serif" font-size="10.00">src/roar/routing/request_listener.cpp</text>
</a>
</g>
</g>
<!-- Node2&#45;&gt;Node18 -->
<g id="edge28" class="edge">
<title>Node2&#45;&gt;Node18</title>
<path fill="none" stroke="midnightblue" d="M904.07,-158.45C908.77,-138.3 915.79,-105.09 918.5,-76 919.33,-67.15 918.8,-64.88 918.5,-56 918.08,-43.32 916.99,-28.67 916.25,-19.62"/>
<polygon fill="midnightblue" stroke="midnightblue" points="900.6,-157.89 901.67,-168.43 907.41,-159.52 900.6,-157.89"/>
</g>
<!-- Node4&#45;&gt;Node3 -->
<g id="edge4" class="edge">
<title>Node4&#45;&gt;Node3</title>
<path fill="none" stroke="midnightblue" d="M1454.1,-105.45C1468.95,-91.78 1484.86,-71.67 1472.5,-56 1458.31,-38.02 1405.81,-26.42 1359.88,-19.51"/>
<polygon fill="midnightblue" stroke="midnightblue" points="1451.43,-103.13 1446.15,-112.31 1456,-108.43 1451.43,-103.13"/>
</g>
<!-- Node5 -->
<g id="node5" class="node">
<title>Node5</title>
<g id="a_node5"><a xlink:href="examples_2100__continue_2request__listener_8cpp.html" target="_top" xlink:title=" ">
<polygon fill="none" stroke="black" points="1253.5,-56.5 1253.5,-75.5 1463.5,-75.5 1463.5,-56.5 1253.5,-56.5"/>
<text text-anchor="middle" x="1358.5" y="-63.5" font-family="Helvetica,sans-Serif" font-size="10.00">examples/100_continue/request_listener.cpp</text>
</a>
</g>
</g>
<!-- Node4&#45;&gt;Node5 -->
<g id="edge5" class="edge">
<title>Node4&#45;&gt;Node5</title>
<path fill="none" stroke="midnightblue" d="M1413.92,-106.38C1400.19,-96.62 1382.57,-84.11 1370.93,-75.83"/>
<polygon fill="midnightblue" stroke="midnightblue" points="1412.11,-109.38 1422.29,-112.32 1416.16,-103.68 1412.11,-109.38"/>
</g>
<!-- Node7 -->
<g id="node7" class="node">
<title>Node7</title>
<g id="a_node7"><a xlink:href="file__server_8cpp.html" target="_top" xlink:title=" ">
<polygon fill="none" stroke="black" points="113,-56.5 113,-75.5 308,-75.5 308,-56.5 113,-56.5"/>
<text text-anchor="middle" x="210.5" y="-63.5" font-family="Helvetica,sans-Serif" font-size="10.00">examples/serve_directory/file_server.cpp</text>
</a>
</g>
</g>
<!-- Node6&#45;&gt;Node7 -->
<g id="edge7" class="edge">
<title>Node6&#45;&gt;Node7</title>
<path fill="none" stroke="midnightblue" d="M210.5,-101.8C210.5,-92.91 210.5,-82.78 210.5,-75.75"/>
<polygon fill="midnightblue" stroke="midnightblue" points="207,-102.08 210.5,-112.08 214,-102.08 207,-102.08"/>
</g>
<!-- Node6&#45;&gt;Node8 -->
<g id="edge8" class="edge">
<title>Node6&#45;&gt;Node8</title>
<path fill="none" stroke="midnightblue" d="M159.22,-109.33C139.71,-102.54 118.76,-92.04 104.5,-76 90.12,-59.83 86.6,-33.33 85.75,-19.7"/>
<polygon fill="midnightblue" stroke="midnightblue" points="158.35,-112.73 168.95,-112.46 160.5,-106.06 158.35,-112.73"/>
</g>
<!-- Node10&#45;&gt;Node9 -->
<g id="edge12" class="edge">
<title>Node10&#45;&gt;Node9</title>
<path fill="none" stroke="midnightblue" d="M451.07,-109.54C430.5,-102.84 408.67,-92.35 393.5,-76 378.72,-60.08 374.85,-33.46 373.85,-19.75"/>
<polygon fill="midnightblue" stroke="midnightblue" points="450.14,-112.91 460.72,-112.44 452.16,-106.21 450.14,-112.91"/>
</g>
<!-- Node11 -->
<g id="node11" class="node">
<title>Node11</title>
<g id="a_node11"><a xlink:href="examples_2simple__server_2request__listener_8cpp.html" target="_top" xlink:title=" ">
<polygon fill="none" stroke="black" points="402,-56.5 402,-75.5 615,-75.5 615,-56.5 402,-56.5"/>
<text text-anchor="middle" x="508.5" y="-63.5" font-family="Helvetica,sans-Serif" font-size="10.00">examples/simple_server/request_listener.cpp</text>
</a>
</g>
</g>
<!-- Node10&#45;&gt;Node11 -->
<g id="edge13" class="edge">
<title>Node10&#45;&gt;Node11</title>
<path fill="none" stroke="midnightblue" d="M508.5,-101.8C508.5,-92.91 508.5,-82.78 508.5,-75.75"/>
<polygon fill="midnightblue" stroke="midnightblue" points="505,-102.08 508.5,-112.08 512,-102.08 505,-102.08"/>
</g>
<!-- Node13&#45;&gt;Node12 -->
<g id="edge16" class="edge">
<title>Node13&#45;&gt;Node12</title>
<path fill="none" stroke="midnightblue" d="M741.21,-108.04C727,-100.57 710.94,-89.87 700.5,-76 687.63,-58.9 683.46,-33.26 682.12,-19.87"/>
<polygon fill="midnightblue" stroke="midnightblue" points="739.69,-111.19 750.21,-112.49 742.8,-104.92 739.69,-111.19"/>
</g>
<!-- Node14 -->
<g id="node14" class="node">
<title>Node14</title>
<g id="a_node14"><a xlink:href="examples_2websocket_2request__listener_8cpp.html" target="_top" xlink:title=" ">
<polygon fill="none" stroke="black" points="709.5,-56.5 709.5,-75.5 909.5,-75.5 909.5,-56.5 709.5,-56.5"/>
<text text-anchor="middle" x="809.5" y="-63.5" font-family="Helvetica,sans-Serif" font-size="10.00">examples/websocket/request_listener.cpp</text>
</a>
</g>
</g>
<!-- Node13&#45;&gt;Node14 -->
<g id="edge17" class="edge">
<title>Node13&#45;&gt;Node14</title>
<path fill="none" stroke="midnightblue" d="M783.56,-103.86C790.14,-94.5 798.01,-83.33 803.34,-75.75"/>
<polygon fill="midnightblue" stroke="midnightblue" points="780.67,-101.89 777.77,-112.08 786.39,-105.92 780.67,-101.89"/>
</g>
<!-- Node15&#45;&gt;Node16 -->
<g id="edge19" class="edge">
<title>Node15&#45;&gt;Node16</title>
<path fill="none" stroke="midnightblue" d="M1081.5,-101.8C1081.5,-92.91 1081.5,-82.78 1081.5,-75.75"/>
<polygon fill="midnightblue" stroke="midnightblue" points="1078,-102.08 1081.5,-112.08 1085,-102.08 1078,-102.08"/>
</g>
<!-- Node16&#45;&gt;Node3 -->
<g id="edge20" class="edge">
<title>Node16&#45;&gt;Node3</title>
<path fill="none" stroke="midnightblue" d="M1123.49,-53.83C1161.82,-43.63 1217.65,-28.78 1252.48,-19.52"/>
<polygon fill="midnightblue" stroke="midnightblue" points="1122.43,-50.49 1113.67,-56.44 1124.23,-57.26 1122.43,-50.49"/>
</g>
<!-- Node16&#45;&gt;Node8 -->
<g id="edge22" class="edge">
<title>Node16&#45;&gt;Node8</title>
<path fill="none" stroke="midnightblue" d="M1013.32,-61.22C984.12,-59.6 949.64,-57.7 918.5,-56 645.54,-41.09 322.26,-23.7 171.24,-15.6"/>
<polygon fill="midnightblue" stroke="midnightblue" points="1013.23,-64.72 1023.41,-61.78 1013.62,-57.73 1013.23,-64.72"/>
</g>
<!-- Node16&#45;&gt;Node9 -->
<g id="edge23" class="edge">
<title>Node16&#45;&gt;Node9</title>
<path fill="none" stroke="midnightblue" d="M1012.97,-59.77C882.1,-49.79 597.1,-28.05 456.02,-17.29"/>
<polygon fill="midnightblue" stroke="midnightblue" points="1013.02,-63.29 1023.26,-60.56 1013.56,-56.31 1013.02,-63.29"/>
</g>
<!-- Node16&#45;&gt;Node12 -->
<g id="edge24" class="edge">
<title>Node16&#45;&gt;Node12</title>
<path fill="none" stroke="midnightblue" d="M1013.02,-55.76C937.74,-45.59 817.79,-29.4 744.69,-19.53"/>
<polygon fill="midnightblue" stroke="midnightblue" points="1012.96,-59.28 1023.34,-57.15 1013.89,-52.34 1012.96,-59.28"/>
</g>
<!-- Node17 -->
<g id="node17" class="node">
<title>Node17</title>
<g id="a_node17"><a xlink:href="most__minimal_2main_8cpp.html" target="_top" xlink:title=" ">
<polygon fill="none" stroke="black" points="1020,-0.5 1020,-19.5 1185,-19.5 1185,-0.5 1020,-0.5"/>
<text text-anchor="middle" x="1102.5" y="-7.5" font-family="Helvetica,sans-Serif" font-size="10.00">examples/most_minimal/main.cpp</text>
</a>
</g>
</g>
<!-- Node16&#45;&gt;Node17 -->
<g id="edge21" class="edge">
<title>Node16&#45;&gt;Node17</title>
<path fill="none" stroke="midnightblue" d="M1088.62,-46.69C1092.16,-37.59 1096.27,-27.01 1099.1,-19.75"/>
<polygon fill="midnightblue" stroke="midnightblue" points="1085.33,-45.49 1084.97,-56.08 1091.85,-48.03 1085.33,-45.49"/>
</g>
<!-- Node16&#45;&gt;Node18 -->
<g id="edge25" class="edge">
<title>Node16&#45;&gt;Node18</title>
<path fill="none" stroke="midnightblue" d="M1045.55,-53.3C1014.27,-43.13 969.68,-28.62 941.68,-19.52"/>
<polygon fill="midnightblue" stroke="midnightblue" points="1044.6,-56.68 1055.2,-56.44 1046.77,-50.02 1044.6,-56.68"/>
</g>
<!-- Node19 -->
<g id="node19" class="node">
<title>Node19</title>
<g id="a_node19"><a xlink:href="server_8cpp.html" target="_top" xlink:title=" ">
<polygon fill="none" stroke="black" points="1518.5,-0.5 1518.5,-19.5 1616.5,-19.5 1616.5,-0.5 1518.5,-0.5"/>
<text text-anchor="middle" x="1567.5" y="-7.5" font-family="Helvetica,sans-Serif" font-size="10.00">src/roar/server.cpp</text>
</a>
</g>
</g>
<!-- Node16&#45;&gt;Node19 -->
<g id="edge26" class="edge">
<title>Node16&#45;&gt;Node19</title>
<path fill="none" stroke="midnightblue" d="M1149.87,-57.4C1249.27,-46.36 1431.27,-26.14 1518.44,-16.45"/>
<polygon fill="midnightblue" stroke="midnightblue" points="1149.19,-53.96 1139.64,-58.54 1149.97,-60.91 1149.19,-53.96"/>
</g>
<!-- Node21 -->
<g id="node21" class="node">
<title>Node21</title>
<g id="a_node21"><a xlink:href="route_8cpp.html" target="_top" xlink:title=" ">
<polygon fill="none" stroke="black" points="1684,-168.5 1684,-187.5 1809,-187.5 1809,-168.5 1684,-168.5"/>
<text text-anchor="middle" x="1746.5" y="-175.5" font-family="Helvetica,sans-Serif" font-size="10.00">src/roar/routing/route.cpp</text>
</a>
</g>
</g>
<!-- Node20&#45;&gt;Node21 -->
<g id="edge30" class="edge">
<title>Node20&#45;&gt;Node21</title>
<path fill="none" stroke="midnightblue" d="M1753.65,-214.1C1751.82,-205.14 1749.73,-194.86 1748.28,-187.75"/>
<polygon fill="midnightblue" stroke="midnightblue" points="1750.26,-214.98 1755.68,-224.08 1757.12,-213.59 1750.26,-214.98"/>
</g>
<!-- Node22 -->
<g id="node22" class="node">
<title>Node22</title>
<g id="a_node22"><a xlink:href="router_8cpp.html" target="_top" xlink:title=" ">
<polygon fill="none" stroke="black" points="1865.5,-168.5 1865.5,-187.5 1993.5,-187.5 1993.5,-168.5 1865.5,-168.5"/>
<text text-anchor="middle" x="1929.5" y="-175.5" font-family="Helvetica,sans-Serif" font-size="10.00">src/roar/routing/router.cpp</text>
</a>
</g>
</g>
<!-- Node20&#45;&gt;Node22 -->
<g id="edge31" class="edge">
<title>Node20&#45;&gt;Node22</title>
<path fill="none" stroke="midnightblue" d="M1794.33,-221.44C1826.76,-211.26 1873.24,-196.66 1902.37,-187.52"/>
<polygon fill="midnightblue" stroke="midnightblue" points="1793.25,-218.11 1784.75,-224.44 1795.34,-224.79 1793.25,-218.11"/>
</g>
<!-- Node23&#45;&gt;Node19 -->
<g id="edge34" class="edge">
<title>Node23&#45;&gt;Node19</title>
<path fill="none" stroke="midnightblue" d="M1667.47,-223C1729.07,-213.81 1808.78,-199.86 1818.5,-188 1824.13,-181.12 1822.81,-175.78 1818.5,-168 1770.92,-82.13 1654.62,-37 1598.63,-19.62"/>
<polygon fill="midnightblue" stroke="midnightblue" points="1666.75,-219.57 1657.36,-224.49 1667.77,-226.5 1666.75,-219.57"/>
</g>
<!-- Node23&#45;&gt;Node22 -->
<g id="edge33" class="edge">
<title>Node23&#45;&gt;Node22</title>
<path fill="none" stroke="midnightblue" d="M1657.84,-222.79C1721.14,-212.59 1817.35,-197.08 1876.67,-187.52"/>
<polygon fill="midnightblue" stroke="midnightblue" points="1656.9,-219.4 1647.58,-224.44 1658.01,-226.31 1656.9,-219.4"/>
</g>
<!-- Node24 -->
<g id="node24" class="node">
<title>Node24</title>
<g id="a_node24"><a xlink:href="session_8cpp.html" target="_top" xlink:title=" ">
<polygon fill="none" stroke="black" points="1523.5,-168.5 1523.5,-187.5 1665.5,-187.5 1665.5,-168.5 1523.5,-168.5"/>
<text text-anchor="middle" x="1594.5" y="-175.5" font-family="Helvetica,sans-Serif" font-size="10.00">src/roar/session/session.cpp</text>
</a>
</g>
</g>
<!-- Node23&#45;&gt;Node24 -->
<g id="edge35" class="edge">
<title>Node23&#45;&gt;Node24</title>
<path fill="none" stroke="midnightblue" d="M1594.5,-213.8C1594.5,-204.91 1594.5,-194.78 1594.5,-187.75"/>
<polygon fill="midnightblue" stroke="midnightblue" points="1591,-214.08 1594.5,-224.08 1598,-214.08 1591,-214.08"/>
</g>
<!-- Node25&#45;&gt;Node2 -->
<g id="edge39" class="edge">
<title>Node25&#45;&gt;Node2</title>
<path fill="none" stroke="midnightblue" d="M1320.92,-223.53C1224.61,-213.36 1072.85,-197.32 980.14,-187.52"/>
<polygon fill="midnightblue" stroke="midnightblue" points="1320.62,-227.02 1330.94,-224.59 1321.36,-220.06 1320.62,-227.02"/>
</g>
<!-- Node25&#45;&gt;Node15 -->
<g id="edge38" class="edge">
<title>Node25&#45;&gt;Node15</title>
<path fill="none" stroke="midnightblue" d="M1375.33,-221.24C1308.76,-198.98 1165.76,-151.17 1107.25,-131.61"/>
<polygon fill="midnightblue" stroke="midnightblue" points="1374.36,-224.61 1384.96,-224.46 1376.58,-217.97 1374.36,-224.61"/>
</g>
<!-- Node25&#45;&gt;Node16 -->
<g id="edge40" class="edge">
<title>Node25&#45;&gt;Node16</title>
<path fill="none" stroke="midnightblue" d="M1374.91,-220.6C1357.33,-213.17 1336.68,-202.35 1321.5,-188 1293.13,-161.19 1308.9,-135.18 1277.5,-112 1237.61,-82.56 1181.67,-71.93 1139.76,-68.31"/>
<polygon fill="midnightblue" stroke="midnightblue" points="1373.72,-223.89 1384.31,-224.38 1376.33,-217.4 1373.72,-223.89"/>
</g>
<!-- Node25&#45;&gt;Node19 -->
<g id="edge43" class="edge">
<title>Node25&#45;&gt;Node19</title>
<path fill="none" stroke="midnightblue" d="M1434.05,-218.97C1469.69,-197.23 1534.66,-155.48 1548.5,-132 1570.42,-94.82 1569.53,-40.52 1568.21,-19.63"/>
<polygon fill="midnightblue" stroke="midnightblue" points="1432,-216.12 1425.26,-224.29 1435.62,-222.1 1432,-216.12"/>
</g>
<!-- Node25&#45;&gt;Node21 -->
<g id="edge41" class="edge">
<title>Node25&#45;&gt;Node21</title>
<path fill="none" stroke="midnightblue" d="M1473.63,-222.85C1537.12,-212.65 1633.89,-197.1 1693.51,-187.52"/>
<polygon fill="midnightblue" stroke="midnightblue" points="1473.06,-219.4 1463.74,-224.44 1474.17,-226.31 1473.06,-219.4"/>
</g>
<!-- Node25&#45;&gt;Node22 -->
<g id="edge42" class="edge">
<title>Node25&#45;&gt;Node22</title>
<path fill="none" stroke="midnightblue" d="M1500.36,-223.65C1604.52,-212.81 1773.61,-195.22 1865.35,-185.67"/>
<polygon fill="midnightblue" stroke="midnightblue" points="1499.76,-220.19 1490.17,-224.71 1500.48,-227.16 1499.76,-220.19"/>
</g>
<!-- Node25&#45;&gt;Node24 -->
<g id="edge45" class="edge">
<title>Node25&#45;&gt;Node24</title>
<path fill="none" stroke="midnightblue" d="M1449.45,-221.57C1484.16,-211.38 1534.18,-196.7 1565.48,-187.52"/>
<polygon fill="midnightblue" stroke="midnightblue" points="1448.27,-218.27 1439.66,-224.44 1450.24,-224.99 1448.27,-218.27"/>
</g>
<!-- Node26 -->
<g id="node26" class="node">
<title>Node26</title>
<g id="a_node26"><a xlink:href="factory_8cpp.html" target="_top" xlink:title=" ">
<polygon fill="none" stroke="black" points="1330,-168.5 1330,-187.5 1467,-187.5 1467,-168.5 1330,-168.5"/>
<text text-anchor="middle" x="1398.5" y="-175.5" font-family="Helvetica,sans-Serif" font-size="10.00">src/roar/session/factory.cpp</text>
</a>
</g>
</g>
<!-- Node25&#45;&gt;Node26 -->
<g id="edge44" class="edge">
<title>Node25&#45;&gt;Node26</title>
<path fill="none" stroke="midnightblue" d="M1406.3,-214.1C1404.31,-205.14 1402.02,-194.86 1400.44,-187.75"/>
<polygon fill="midnightblue" stroke="midnightblue" points="1402.93,-215.08 1408.52,-224.08 1409.77,-213.56 1402.93,-215.08"/>
</g>
</g>
</svg>
