<?xml version="1.0" encoding="UTF-8" standalone="no"?>
<!DOCTYPE svg PUBLIC "-//W3C//DTD SVG 1.1//EN"
 "http://www.w3.org/Graphics/SVG/1.1/DTD/svg11.dtd">
<!-- Generated by graphviz version 2.44.1 (20211215.1903)
 -->
<!-- Title: include/roar/routing/proto_route.hpp Pages: 1 -->
<svg width="1691pt" height="252pt"
 viewBox="0.00 0.00 1691.50 252.00" xmlns="http://www.w3.org/2000/svg" xmlns:xlink="http://www.w3.org/1999/xlink">
<g id="graph0" class="graph" transform="scale(1 1) rotate(0) translate(4 248)">
<title>include/roar/routing/proto_route.hpp</title>
<!-- Node1 -->
<g id="node1" class="node">
<title>Node1</title>
<g id="a_node1"><a xlink:title=" ">
<polygon fill="#bfbfbf" stroke="black" points="1021.5,-224.5 1021.5,-243.5 1191.5,-243.5 1191.5,-224.5 1021.5,-224.5"/>
<text text-anchor="middle" x="1106.5" y="-231.5" font-family="Helvetica,sans-Serif" font-size="10.00">include/roar/routing/proto_route.hpp</text>
</a>
</g>
</g>
<!-- Node2 -->
<g id="node2" class="node">
<title>Node2</title>
<g id="a_node2"><a xlink:href="include_2roar_2routing_2request__listener_8hpp.html" target="_top" xlink:title=" ">
<polygon fill="none" stroke="black" points="725.5,-112.5 725.5,-131.5 915.5,-131.5 915.5,-112.5 725.5,-112.5"/>
<text text-anchor="middle" x="820.5" y="-119.5" font-family="Helvetica,sans-Serif" font-size="10.00">include/roar/routing/request_listener.hpp</text>
</a>
</g>
</g>
<!-- Node1&#45;&gt;Node2 -->
<g id="edge1" class="edge">
<title>Node1&#45;&gt;Node2</title>
<path fill="none" stroke="midnightblue" d="M1047.13,-222.38C1012.09,-215.02 967.35,-203.71 929.5,-188 891.85,-172.38 851.69,-145.39 832.31,-131.62"/>
<polygon fill="midnightblue" stroke="midnightblue" points="1046.7,-225.87 1057.2,-224.44 1048.11,-219.01 1046.7,-225.87"/>
</g>
<!-- Node13 -->
<g id="node13" class="node">
<title>Node13</title>
<g id="a_node13"><a xlink:href="server_8hpp.html" target="_top" xlink:title=" ">
<polygon fill="none" stroke="black" points="874.5,-56.5 874.5,-75.5 990.5,-75.5 990.5,-56.5 874.5,-56.5"/>
<text text-anchor="middle" x="932.5" y="-63.5" font-family="Helvetica,sans-Serif" font-size="10.00">include/roar/server.hpp</text>
</a>
</g>
</g>
<!-- Node1&#45;&gt;Node13 -->
<g id="edge30" class="edge">
<title>Node1&#45;&gt;Node13</title>
<path fill="none" stroke="midnightblue" d="M1073.79,-220.54C1056.23,-212.85 1034.89,-201.8 1018.5,-188 978.29,-154.13 947.55,-97.4 936.73,-75.76"/>
<polygon fill="midnightblue" stroke="midnightblue" points="1072.53,-223.81 1083.1,-224.47 1075.24,-217.36 1072.53,-223.81"/>
</g>
<!-- Node17 -->
<g id="node17" class="node">
<title>Node17</title>
<g id="a_node17"><a xlink:href="route_8hpp.html" target="_top" xlink:title=" ">
<polygon fill="none" stroke="black" points="1204,-168.5 1204,-187.5 1347,-187.5 1347,-168.5 1204,-168.5"/>
<text text-anchor="middle" x="1275.5" y="-175.5" font-family="Helvetica,sans-Serif" font-size="10.00">include/roar/routing/route.hpp</text>
</a>
</g>
</g>
<!-- Node1&#45;&gt;Node17 -->
<g id="edge23" class="edge">
<title>Node1&#45;&gt;Node17</title>
<path fill="none" stroke="midnightblue" d="M1143.1,-221.3C1174.95,-211.13 1220.34,-196.62 1248.85,-187.52"/>
<polygon fill="midnightblue" stroke="midnightblue" points="1141.74,-218.07 1133.28,-224.44 1143.87,-224.73 1141.74,-218.07"/>
</g>
<!-- Node20 -->
<g id="node20" class="node">
<title>Node20</title>
<g id="a_node20"><a xlink:href="router_8hpp.html" target="_top" xlink:title=" ">
<polygon fill="none" stroke="black" points="1436.5,-168.5 1436.5,-187.5 1582.5,-187.5 1582.5,-168.5 1436.5,-168.5"/>
<text text-anchor="middle" x="1509.5" y="-175.5" font-family="Helvetica,sans-Serif" font-size="10.00">include/roar/routing/router.hpp</text>
</a>
</g>
</g>
<!-- Node1&#45;&gt;Node20 -->
<g id="edge26" class="edge">
<title>Node1&#45;&gt;Node20</title>
<path fill="none" stroke="midnightblue" d="M1180.35,-223.1C1256.45,-212.91 1373.85,-197.18 1445.94,-187.52"/>
<polygon fill="midnightblue" stroke="midnightblue" points="1179.8,-219.65 1170.36,-224.44 1180.73,-226.58 1179.8,-219.65"/>
</g>
<!-- Node22 -->
<g id="node22" class="node">
<title>Node22</title>
<g id="a_node22"><a xlink:href="session_8hpp.html" target="_top" xlink:title=" ">
<polygon fill="none" stroke="black" points="1027,-168.5 1027,-187.5 1186,-187.5 1186,-168.5 1027,-168.5"/>
<text text-anchor="middle" x="1106.5" y="-175.5" font-family="Helvetica,sans-Serif" font-size="10.00">include/roar/session/session.hpp</text>
</a>
</g>
</g>
<!-- Node1&#45;&gt;Node22 -->
<g id="edge31" class="edge">
<title>Node1&#45;&gt;Node22</title>
<path fill="none" stroke="midnightblue" d="M1106.5,-213.8C1106.5,-204.91 1106.5,-194.78 1106.5,-187.75"/>
<polygon fill="midnightblue" stroke="midnightblue" points="1103,-214.08 1106.5,-224.08 1110,-214.08 1103,-214.08"/>
</g>
<!-- Node3 -->
<g id="node3" class="node">
<title>Node3</title>
<g id="a_node3"><a xlink:href="100__continue_2main_8cpp.html" target="_top" xlink:title=" ">
<polygon fill="none" stroke="black" points="1177.5,-0.5 1177.5,-19.5 1339.5,-19.5 1339.5,-0.5 1177.5,-0.5"/>
<text text-anchor="middle" x="1258.5" y="-7.5" font-family="Helvetica,sans-Serif" font-size="10.00">examples/100_continue/main.cpp</text>
</a>
</g>
</g>
<!-- Node2&#45;&gt;Node3 -->
<g id="edge2" class="edge">
<title>Node2&#45;&gt;Node3</title>
<path fill="none" stroke="midnightblue" d="M877.29,-110.34C913.02,-102.76 959.73,-91.21 999.5,-76 1017.33,-69.18 1019.52,-62.41 1037.5,-56 1087.84,-38.04 1147.33,-26.44 1191.9,-19.52"/>
<polygon fill="midnightblue" stroke="midnightblue" points="876.12,-107.01 867.04,-112.47 877.55,-113.86 876.12,-107.01"/>
</g>
<!-- Node4 -->
<g id="node4" class="node">
<title>Node4</title>
<g id="a_node4"><a xlink:href="examples_2100__continue_2request__listener_8hpp.html" target="_top" xlink:title=" ">
<polygon fill="none" stroke="black" points="1046.5,-56.5 1046.5,-75.5 1256.5,-75.5 1256.5,-56.5 1046.5,-56.5"/>
<text text-anchor="middle" x="1151.5" y="-63.5" font-family="Helvetica,sans-Serif" font-size="10.00">examples/100_continue/request_listener.hpp</text>
</a>
</g>
</g>
<!-- Node2&#45;&gt;Node4 -->
<g id="edge3" class="edge">
<title>Node2&#45;&gt;Node4</title>
<path fill="none" stroke="midnightblue" d="M883.08,-110.79C945.62,-100.59 1040.69,-85.08 1099.3,-75.52"/>
<polygon fill="midnightblue" stroke="midnightblue" points="882.25,-107.38 872.95,-112.44 883.38,-114.29 882.25,-107.38"/>
</g>
<!-- Node6 -->
<g id="node6" class="node">
<title>Node6</title>
<g id="a_node6"><a xlink:href="request__listener_2main_8cpp.html" target="_top" xlink:title=" ">
<polygon fill="none" stroke="black" points="55,-56.5 55,-75.5 228,-75.5 228,-56.5 55,-56.5"/>
<text text-anchor="middle" x="141.5" y="-63.5" font-family="Helvetica,sans-Serif" font-size="10.00">examples/request_listener/main.cpp</text>
</a>
</g>
</g>
<!-- Node2&#45;&gt;Node6 -->
<g id="edge6" class="edge">
<title>Node2&#45;&gt;Node6</title>
<path fill="none" stroke="midnightblue" d="M715.35,-113.46C598.39,-104.93 403.86,-90.37 236.5,-76 233.78,-75.77 231.01,-75.52 228.22,-75.28"/>
<polygon fill="midnightblue" stroke="midnightblue" points="715.15,-116.95 725.37,-114.19 715.65,-109.97 715.15,-116.95"/>
</g>
<!-- Node7 -->
<g id="node7" class="node">
<title>Node7</title>
<g id="a_node7"><a xlink:href="simple__server_2main_8cpp.html" target="_top" xlink:title=" ">
<polygon fill="none" stroke="black" points="231,-0.5 231,-19.5 396,-19.5 396,-0.5 231,-0.5"/>
<text text-anchor="middle" x="313.5" y="-7.5" font-family="Helvetica,sans-Serif" font-size="10.00">examples/simple_server/main.cpp</text>
</a>
</g>
</g>
<!-- Node2&#45;&gt;Node7 -->
<g id="edge7" class="edge">
<title>Node2&#45;&gt;Node7</title>
<path fill="none" stroke="midnightblue" d="M757.24,-110.79C706.77,-102.35 634.37,-89.58 571.5,-76 489.1,-58.2 393.07,-32.74 344.71,-19.59"/>
<polygon fill="midnightblue" stroke="midnightblue" points="756.91,-114.28 767.35,-112.47 758.06,-107.38 756.91,-114.28"/>
</g>
<!-- Node8 -->
<g id="node8" class="node">
<title>Node8</title>
<g id="a_node8"><a xlink:href="examples_2simple__server_2request__listener_8hpp.html" target="_top" xlink:title=" ">
<polygon fill="none" stroke="black" points="246,-56.5 246,-75.5 459,-75.5 459,-56.5 246,-56.5"/>
<text text-anchor="middle" x="352.5" y="-63.5" font-family="Helvetica,sans-Serif" font-size="10.00">examples/simple_server/request_listener.hpp</text>
</a>
</g>
</g>
<!-- Node2&#45;&gt;Node8 -->
<g id="edge8" class="edge">
<title>Node2&#45;&gt;Node8</title>
<path fill="none" stroke="midnightblue" d="M736.62,-111.32C648.34,-101.14 510.72,-85.26 426.4,-75.53"/>
<polygon fill="midnightblue" stroke="midnightblue" points="736.27,-114.8 746.6,-112.47 737.07,-107.85 736.27,-114.8"/>
</g>
<!-- Node10 -->
<g id="node10" class="node">
<title>Node10</title>
<g id="a_node10"><a xlink:href="websocket_2main_8cpp.html" target="_top" xlink:title=" ">
<polygon fill="none" stroke="black" points="632.5,-0.5 632.5,-19.5 784.5,-19.5 784.5,-0.5 632.5,-0.5"/>
<text text-anchor="middle" x="708.5" y="-7.5" font-family="Helvetica,sans-Serif" font-size="10.00">examples/websocket/main.cpp</text>
</a>
</g>
</g>
<!-- Node2&#45;&gt;Node10 -->
<g id="edge11" class="edge">
<title>Node2&#45;&gt;Node10</title>
<path fill="none" stroke="midnightblue" d="M815.23,-102.86C810.4,-88.74 802.05,-69.36 789.5,-56 773.64,-39.12 749.99,-26.99 732.34,-19.61"/>
<polygon fill="midnightblue" stroke="midnightblue" points="811.91,-103.96 818.26,-112.45 818.59,-101.86 811.91,-103.96"/>
</g>
<!-- Node11 -->
<g id="node11" class="node">
<title>Node11</title>
<g id="a_node11"><a xlink:href="examples_2websocket_2request__listener_8hpp.html" target="_top" xlink:title=" ">
<polygon fill="none" stroke="black" points="580.5,-56.5 580.5,-75.5 780.5,-75.5 780.5,-56.5 580.5,-56.5"/>
<text text-anchor="middle" x="680.5" y="-63.5" font-family="Helvetica,sans-Serif" font-size="10.00">examples/websocket/request_listener.hpp</text>
</a>
</g>
</g>
<!-- Node2&#45;&gt;Node11 -->
<g id="edge12" class="edge">
<title>Node2&#45;&gt;Node11</title>
<path fill="none" stroke="midnightblue" d="M788.8,-108.77C762.5,-98.63 725.78,-84.47 702.58,-75.52"/>
<polygon fill="midnightblue" stroke="midnightblue" points="787.73,-112.11 798.32,-112.44 790.25,-105.58 787.73,-112.11"/>
</g>
<!-- Node2&#45;&gt;Node13 -->
<g id="edge15" class="edge">
<title>Node2&#45;&gt;Node13</title>
<path fill="none" stroke="midnightblue" d="M847.75,-107.86C868.52,-97.85 896.52,-84.35 914.55,-75.65"/>
<polygon fill="midnightblue" stroke="midnightblue" points="845.98,-104.83 838.49,-112.32 849.02,-111.13 845.98,-104.83"/>
</g>
<!-- Node15 -->
<g id="node15" class="node">
<title>Node15</title>
<g id="a_node15"><a xlink:href="src_2roar_2routing_2request__listener_8cpp.html" target="_top" xlink:title=" ">
<polygon fill="none" stroke="black" points="803,-0.5 803,-19.5 976,-19.5 976,-0.5 803,-0.5"/>
<text text-anchor="middle" x="889.5" y="-7.5" font-family="Helvetica,sans-Serif" font-size="10.00">src/roar/routing/request_listener.cpp</text>
</a>
</g>
</g>
<!-- Node2&#45;&gt;Node15 -->
<g id="edge22" class="edge">
<title>Node2&#45;&gt;Node15</title>
<path fill="none" stroke="midnightblue" d="M831.39,-103.64C846.38,-79.74 872.8,-37.63 884.11,-19.59"/>
<polygon fill="midnightblue" stroke="midnightblue" points="828.26,-102.04 825.91,-112.37 834.19,-105.76 828.26,-102.04"/>
</g>
<!-- Node4&#45;&gt;Node3 -->
<g id="edge4" class="edge">
<title>Node4&#45;&gt;Node3</title>
<path fill="none" stroke="midnightblue" d="M1177.8,-51.73C1197.61,-41.73 1224.21,-28.31 1241.35,-19.65"/>
<polygon fill="midnightblue" stroke="midnightblue" points="1176.04,-48.69 1168.69,-56.32 1179.2,-54.94 1176.04,-48.69"/>
</g>
<!-- Node5 -->
<g id="node5" class="node">
<title>Node5</title>
<g id="a_node5"><a xlink:href="examples_2100__continue_2request__listener_8cpp.html" target="_top" xlink:title=" ">
<polygon fill="none" stroke="black" points="1357.5,-0.5 1357.5,-19.5 1567.5,-19.5 1567.5,-0.5 1357.5,-0.5"/>
<text text-anchor="middle" x="1462.5" y="-7.5" font-family="Helvetica,sans-Serif" font-size="10.00">examples/100_continue/request_listener.cpp</text>
</a>
</g>
</g>
<!-- Node4&#45;&gt;Node5 -->
<g id="edge5" class="edge">
<title>Node4&#45;&gt;Node5</title>
<path fill="none" stroke="midnightblue" d="M1210.66,-54.73C1269.43,-44.52 1358.5,-29.06 1413.45,-19.52"/>
<polygon fill="midnightblue" stroke="midnightblue" points="1210.03,-51.28 1200.78,-56.44 1211.23,-58.18 1210.03,-51.28"/>
</g>
<!-- Node8&#45;&gt;Node7 -->
<g id="edge9" class="edge">
<title>Node8&#45;&gt;Node7</title>
<path fill="none" stroke="midnightblue" d="M340.12,-47.86C333.36,-38.5 325.29,-27.33 319.82,-19.75"/>
<polygon fill="midnightblue" stroke="midnightblue" points="337.37,-50.03 346.06,-56.08 343.04,-45.93 337.37,-50.03"/>
</g>
<!-- Node9 -->
<g id="node9" class="node">
<title>Node9</title>
<g id="a_node9"><a xlink:href="examples_2simple__server_2request__listener_8cpp.html" target="_top" xlink:title=" ">
<polygon fill="none" stroke="black" points="0,-0.5 0,-19.5 213,-19.5 213,-0.5 0,-0.5"/>
<text text-anchor="middle" x="106.5" y="-7.5" font-family="Helvetica,sans-Serif" font-size="10.00">examples/simple_server/request_listener.cpp</text>
</a>
</g>
</g>
<!-- Node8&#45;&gt;Node9 -->
<g id="edge10" class="edge">
<title>Node8&#45;&gt;Node9</title>
<path fill="none" stroke="midnightblue" d="M303.67,-54.28C257.18,-44.08 188.14,-28.92 145.3,-19.52"/>
<polygon fill="midnightblue" stroke="midnightblue" points="303,-57.72 313.52,-56.44 304.5,-50.88 303,-57.72"/>
</g>
<!-- Node11&#45;&gt;Node10 -->
<g id="edge13" class="edge">
<title>Node11&#45;&gt;Node10</title>
<path fill="none" stroke="midnightblue" d="M689.84,-46.98C694.59,-37.82 700.16,-27.09 703.96,-19.75"/>
<polygon fill="midnightblue" stroke="midnightblue" points="686.62,-45.59 685.12,-56.08 692.83,-48.82 686.62,-45.59"/>
</g>
<!-- Node12 -->
<g id="node12" class="node">
<title>Node12</title>
<g id="a_node12"><a xlink:href="examples_2websocket_2request__listener_8cpp.html" target="_top" xlink:title=" ">
<polygon fill="none" stroke="black" points="414.5,-0.5 414.5,-19.5 614.5,-19.5 614.5,-0.5 414.5,-0.5"/>
<text text-anchor="middle" x="514.5" y="-7.5" font-family="Helvetica,sans-Serif" font-size="10.00">examples/websocket/request_listener.cpp</text>
</a>
</g>
</g>
<!-- Node11&#45;&gt;Node12 -->
<g id="edge14" class="edge">
<title>Node11&#45;&gt;Node12</title>
<path fill="none" stroke="midnightblue" d="M644.55,-53.3C613.27,-43.13 568.68,-28.62 540.68,-19.52"/>
<polygon fill="midnightblue" stroke="midnightblue" points="643.6,-56.68 654.2,-56.44 645.77,-50.02 643.6,-56.68"/>
</g>
<!-- Node13&#45;&gt;Node3 -->
<g id="edge16" class="edge">
<title>Node13&#45;&gt;Node3</title>
<path fill="none" stroke="midnightblue" d="M994.13,-54.79C1055.73,-44.59 1149.36,-29.08 1207.09,-19.52"/>
<polygon fill="midnightblue" stroke="midnightblue" points="993.45,-51.36 984.16,-56.44 994.59,-58.26 993.45,-51.36"/>
</g>
<!-- Node13&#45;&gt;Node7 -->
<g id="edge18" class="edge">
<title>Node13&#45;&gt;Node7</title>
<path fill="none" stroke="midnightblue" d="M864.37,-59.45C763.91,-51.21 570.16,-35.08 405.5,-20 402.46,-19.72 399.37,-19.44 396.25,-19.14"/>
<polygon fill="midnightblue" stroke="midnightblue" points="864.13,-62.94 874.38,-60.27 864.7,-55.97 864.13,-62.94"/>
</g>
<!-- Node13&#45;&gt;Node10 -->
<g id="edge19" class="edge">
<title>Node13&#45;&gt;Node10</title>
<path fill="none" stroke="midnightblue" d="M887.24,-54.09C844.92,-43.89 782.59,-28.86 743.83,-19.52"/>
<polygon fill="midnightblue" stroke="midnightblue" points="886.46,-57.5 897.01,-56.44 888.11,-50.7 886.46,-57.5"/>
</g>
<!-- Node14 -->
<g id="node14" class="node">
<title>Node14</title>
<g id="a_node14"><a xlink:href="most__minimal_2main_8cpp.html" target="_top" xlink:title=" ">
<polygon fill="none" stroke="black" points="994,-0.5 994,-19.5 1159,-19.5 1159,-0.5 994,-0.5"/>
<text text-anchor="middle" x="1076.5" y="-7.5" font-family="Helvetica,sans-Serif" font-size="10.00">examples/most_minimal/main.cpp</text>
</a>
</g>
</g>
<!-- Node13&#45;&gt;Node14 -->
<g id="edge17" class="edge">
<title>Node13&#45;&gt;Node14</title>
<path fill="none" stroke="midnightblue" d="M964.75,-52.91C991.82,-42.75 1029.82,-28.51 1053.79,-19.52"/>
<polygon fill="midnightblue" stroke="midnightblue" points="963.45,-49.66 955.32,-56.44 965.91,-56.21 963.45,-49.66"/>
</g>
<!-- Node13&#45;&gt;Node15 -->
<g id="edge20" class="edge">
<title>Node13&#45;&gt;Node15</title>
<path fill="none" stroke="midnightblue" d="M919.08,-48.14C911.59,-38.74 902.56,-27.4 896.47,-19.75"/>
<polygon fill="midnightblue" stroke="midnightblue" points="916.43,-50.44 925.4,-56.08 921.91,-46.08 916.43,-50.44"/>
</g>
<!-- Node16 -->
<g id="node16" class="node">
<title>Node16</title>
<g id="a_node16"><a xlink:href="server_8cpp.html" target="_top" xlink:title=" ">
<polygon fill="none" stroke="black" points="1585.5,-0.5 1585.5,-19.5 1683.5,-19.5 1683.5,-0.5 1585.5,-0.5"/>
<text text-anchor="middle" x="1634.5" y="-7.5" font-family="Helvetica,sans-Serif" font-size="10.00">src/roar/server.cpp</text>
</a>
</g>
</g>
<!-- Node13&#45;&gt;Node16 -->
<g id="edge21" class="edge">
<title>Node13&#45;&gt;Node16</title>
<path fill="none" stroke="midnightblue" d="M1000.7,-58.97C1012.95,-57.94 1025.6,-56.91 1037.5,-56 1276.89,-37.75 1337.87,-46.43 1576.5,-20 1579.44,-19.67 1582.45,-19.31 1585.49,-18.91"/>
<polygon fill="midnightblue" stroke="midnightblue" points="1000.19,-55.5 990.53,-59.83 1000.79,-62.47 1000.19,-55.5"/>
</g>
<!-- Node18 -->
<g id="node18" class="node">
<title>Node18</title>
<g id="a_node18"><a xlink:href="route_8cpp.html" target="_top" xlink:title=" ">
<polygon fill="none" stroke="black" points="1203,-112.5 1203,-131.5 1328,-131.5 1328,-112.5 1203,-112.5"/>
<text text-anchor="middle" x="1265.5" y="-119.5" font-family="Helvetica,sans-Serif" font-size="10.00">src/roar/routing/route.cpp</text>
</a>
</g>
</g>
<!-- Node17&#45;&gt;Node18 -->
<g id="edge24" class="edge">
<title>Node17&#45;&gt;Node18</title>
<path fill="none" stroke="midnightblue" d="M1272,-158.1C1270.34,-149.14 1268.44,-138.86 1267.12,-131.75"/>
<polygon fill="midnightblue" stroke="midnightblue" points="1268.59,-158.89 1273.85,-168.08 1275.47,-157.61 1268.59,-158.89"/>
</g>
<!-- Node19 -->
<g id="node19" class="node">
<title>Node19</title>
<g id="a_node19"><a xlink:href="router_8cpp.html" target="_top" xlink:title=" ">
<polygon fill="none" stroke="black" points="1506.5,-112.5 1506.5,-131.5 1634.5,-131.5 1634.5,-112.5 1506.5,-112.5"/>
<text text-anchor="middle" x="1570.5" y="-119.5" font-family="Helvetica,sans-Serif" font-size="10.00">src/roar/routing/router.cpp</text>
</a>
</g>
</g>
<!-- Node17&#45;&gt;Node19 -->
<g id="edge25" class="edge">
<title>Node17&#45;&gt;Node19</title>
<path fill="none" stroke="midnightblue" d="M1332.31,-166.6C1388.06,-156.4 1472.06,-141.02 1523.98,-131.52"/>
<polygon fill="midnightblue" stroke="midnightblue" points="1331.45,-163.2 1322.24,-168.44 1332.71,-170.09 1331.45,-163.2"/>
</g>
<!-- Node20&#45;&gt;Node16 -->
<g id="edge28" class="edge">
<title>Node20&#45;&gt;Node16</title>
<path fill="none" stroke="midnightblue" d="M1592.34,-166.38C1612.23,-159.71 1631.25,-149.04 1643.5,-132 1668.59,-97.11 1647.98,-40.99 1638.57,-19.63"/>
<polygon fill="midnightblue" stroke="midnightblue" points="1591.09,-163.1 1582.52,-169.34 1593.11,-169.8 1591.09,-163.1"/>
</g>
<!-- Node20&#45;&gt;Node19 -->
<g id="edge27" class="edge">
<title>Node20&#45;&gt;Node19</title>
<path fill="none" stroke="midnightblue" d="M1526.97,-161.54C1537.84,-151.91 1551.44,-139.87 1560.52,-131.83"/>
<polygon fill="midnightblue" stroke="midnightblue" points="1524.47,-159.07 1519.3,-168.32 1529.11,-164.32 1524.47,-159.07"/>
</g>
<!-- Node21 -->
<g id="node21" class="node">
<title>Node21</title>
<g id="a_node21"><a xlink:href="session_8cpp.html" target="_top" xlink:title=" ">
<polygon fill="none" stroke="black" points="1346.5,-112.5 1346.5,-131.5 1488.5,-131.5 1488.5,-112.5 1346.5,-112.5"/>
<text text-anchor="middle" x="1417.5" y="-119.5" font-family="Helvetica,sans-Serif" font-size="10.00">src/roar/session/session.cpp</text>
</a>
</g>
</g>
<!-- Node20&#45;&gt;Node21 -->
<g id="edge29" class="edge">
<title>Node20&#45;&gt;Node21</title>
<path fill="none" stroke="midnightblue" d="M1485.95,-163.18C1469.02,-153.24 1446.72,-140.15 1432.24,-131.65"/>
<polygon fill="midnightblue" stroke="midnightblue" points="1484.32,-166.28 1494.72,-168.32 1487.87,-160.24 1484.32,-166.28"/>
</g>
<!-- Node22&#45;&gt;Node2 -->
<g id="edge32" class="edge">
<title>Node22&#45;&gt;Node2</title>
<path fill="none" stroke="midnightblue" d="M1051.09,-166.54C997.03,-156.33 915.83,-141 865.61,-131.52"/>
<polygon fill="midnightblue" stroke="midnightblue" points="1050.71,-170.03 1061.18,-168.44 1052.01,-163.15 1050.71,-170.03"/>
</g>
<!-- Node22&#45;&gt;Node13 -->
<g id="edge33" class="edge">
<title>Node22&#45;&gt;Node13</title>
<path fill="none" stroke="midnightblue" d="M1072.31,-164.82C1052.09,-156.89 1026.43,-145.51 1005.5,-132 979.27,-115.06 953.03,-88.89 940.35,-75.51"/>
<polygon fill="midnightblue" stroke="midnightblue" points="1071.16,-168.13 1081.75,-168.43 1073.67,-161.59 1071.16,-168.13"/>
</g>
<!-- Node22&#45;&gt;Node16 -->
<g id="edge36" class="edge">
<title>Node22&#45;&gt;Node16</title>
<path fill="none" stroke="midnightblue" d="M1076.76,-164.03C1051.91,-151.4 1022.99,-131.35 1039.5,-112 1072.51,-73.31 1215.35,-84.41 1265.5,-76 1381.46,-56.55 1517.62,-32.16 1587.65,-19.51"/>
<polygon fill="midnightblue" stroke="midnightblue" points="1075.45,-167.28 1085.98,-168.48 1078.5,-160.98 1075.45,-167.28"/>
</g>
<!-- Node22&#45;&gt;Node18 -->
<g id="edge34" class="edge">
<title>Node22&#45;&gt;Node18</title>
<path fill="none" stroke="midnightblue" d="M1141.33,-165.17C1171.27,-155 1213.72,-140.59 1240.42,-131.52"/>
<polygon fill="midnightblue" stroke="midnightblue" points="1140.04,-161.91 1131.69,-168.44 1142.29,-168.54 1140.04,-161.91"/>
</g>
<!-- Node22&#45;&gt;Node19 -->
<g id="edge35" class="edge">
<title>Node22&#45;&gt;Node19</title>
<path fill="none" stroke="midnightblue" d="M1192.63,-167.29C1271.87,-158.31 1392.63,-144.5 1497.5,-132 1500.42,-131.65 1503.4,-131.29 1506.41,-130.93"/>
<polygon fill="midnightblue" stroke="midnightblue" points="1191.75,-163.87 1182.21,-168.47 1192.54,-170.82 1191.75,-163.87"/>
</g>
<!-- Node22&#45;&gt;Node21 -->
<g id="edge38" class="edge">
<title>Node22&#45;&gt;Node21</title>
<path fill="none" stroke="midnightblue" d="M1165.66,-166.73C1224.43,-156.52 1313.5,-141.06 1368.45,-131.52"/>
<polygon fill="midnightblue" stroke="midnightblue" points="1165.03,-163.28 1155.78,-168.44 1166.23,-170.18 1165.03,-163.28"/>
</g>
<!-- Node23 -->
<g id="node23" class="node">
<title>Node23</title>
<g id="a_node23"><a xlink:href="factory_8cpp.html" target="_top" xlink:title=" ">
<polygon fill="none" stroke="black" points="1048,-112.5 1048,-131.5 1185,-131.5 1185,-112.5 1048,-112.5"/>
<text text-anchor="middle" x="1116.5" y="-119.5" font-family="Helvetica,sans-Serif" font-size="10.00">src/roar/session/factory.cpp</text>
</a>
</g>
</g>
<!-- Node22&#45;&gt;Node23 -->
<g id="edge37" class="edge">
<title>Node22&#45;&gt;Node23</title>
<path fill="none" stroke="midnightblue" d="M1110,-158.1C1111.66,-149.14 1113.56,-138.86 1114.88,-131.75"/>
<polygon fill="midnightblue" stroke="midnightblue" points="1106.53,-157.61 1108.15,-168.08 1113.41,-158.89 1106.53,-157.61"/>
</g>
</g>
</svg>
