<?xml version="1.0" encoding="UTF-8" standalone="no"?>
<!DOCTYPE svg PUBLIC "-//W3C//DTD SVG 1.1//EN"
 "http://www.w3.org/Graphics/SVG/1.1/DTD/svg11.dtd">
<!-- Generated by graphviz version 2.44.1 (20211215.1903)
 -->
<!-- Title: src/roar/mechanics/ranges.cpp Pages: 1 -->
<svg width="504pt" height="140pt"
 viewBox="0.00 0.00 504.00 140.00" xmlns="http://www.w3.org/2000/svg" xmlns:xlink="http://www.w3.org/1999/xlink">
<g id="graph0" class="graph" transform="scale(1 1) rotate(0) translate(4 136)">
<title>src/roar/mechanics/ranges.cpp</title>
<!-- Node1 -->
<g id="node1" class="node">
<title>Node1</title>
<g id="a_node1"><a xlink:title=" ">
<polygon fill="#bfbfbf" stroke="black" points="186.5,-112.5 186.5,-131.5 337.5,-131.5 337.5,-112.5 186.5,-112.5"/>
<text text-anchor="middle" x="262" y="-119.5" font-family="Helvetica,sans-Serif" font-size="10.00">src/roar/mechanics/ranges.cpp</text>
</a>
</g>
</g>
<!-- Node2 -->
<g id="node2" class="node">
<title>Node2</title>
<g id="a_node2"><a xlink:href="ranges_8hpp.html" target="_top" xlink:title=" ">
<polygon fill="none" stroke="black" points="48,-56.5 48,-75.5 182,-75.5 182,-56.5 48,-56.5"/>
<text text-anchor="middle" x="115" y="-63.5" font-family="Helvetica,sans-Serif" font-size="10.00">roar/mechanics/ranges.hpp</text>
</a>
</g>
</g>
<!-- Node1&#45;&gt;Node2 -->
<g id="edge1" class="edge">
<title>Node1&#45;&gt;Node2</title>
<path fill="none" stroke="midnightblue" d="M238.71,-112.44C214.19,-103.44 175.4,-89.19 147.8,-79.05"/>
<polygon fill="midnightblue" stroke="midnightblue" points="148.78,-75.68 138.18,-75.52 146.36,-82.25 148.78,-75.68"/>
</g>
<!-- Node7 -->
<g id="node7" class="node">
<title>Node7</title>
<g id="a_node7"><a xlink:title=" ">
<polygon fill="none" stroke="#bfbfbf" points="200,-56.5 200,-75.5 324,-75.5 324,-56.5 200,-56.5"/>
<text text-anchor="middle" x="262" y="-63.5" font-family="Helvetica,sans-Serif" font-size="10.00">boost/spirit/home/x3.hpp</text>
</a>
</g>
</g>
<!-- Node1&#45;&gt;Node7 -->
<g id="edge6" class="edge">
<title>Node1&#45;&gt;Node7</title>
<path fill="none" stroke="midnightblue" d="M262,-112.08C262,-105.01 262,-94.86 262,-85.99"/>
<polygon fill="midnightblue" stroke="midnightblue" points="265.5,-85.75 262,-75.75 258.5,-85.75 265.5,-85.75"/>
</g>
<!-- Node8 -->
<g id="node8" class="node">
<title>Node8</title>
<g id="a_node8"><a xlink:title=" ">
<polygon fill="none" stroke="#bfbfbf" points="342,-56.5 342,-75.5 496,-75.5 496,-56.5 342,-56.5"/>
<text text-anchor="middle" x="419" y="-63.5" font-family="Helvetica,sans-Serif" font-size="10.00">boost/fusion/adapted/struct.hpp</text>
</a>
</g>
</g>
<!-- Node1&#45;&gt;Node8 -->
<g id="edge7" class="edge">
<title>Node1&#45;&gt;Node8</title>
<path fill="none" stroke="midnightblue" d="M286.88,-112.44C313.29,-103.36 355.22,-88.94 384.74,-78.78"/>
<polygon fill="midnightblue" stroke="midnightblue" points="385.92,-82.08 394.24,-75.52 383.64,-75.46 385.92,-82.08"/>
</g>
<!-- Node3 -->
<g id="node3" class="node">
<title>Node3</title>
<g id="a_node3"><a xlink:title=" ">
<polygon fill="none" stroke="#bfbfbf" points="0,-0.5 0,-19.5 46,-19.5 46,-0.5 0,-0.5"/>
<text text-anchor="middle" x="23" y="-7.5" font-family="Helvetica,sans-Serif" font-size="10.00">cstdint</text>
</a>
</g>
</g>
<!-- Node2&#45;&gt;Node3 -->
<g id="edge2" class="edge">
<title>Node2&#45;&gt;Node3</title>
<path fill="none" stroke="midnightblue" d="M100.22,-56.32C85.73,-47.82 63.43,-34.73 46.51,-24.8"/>
<polygon fill="midnightblue" stroke="midnightblue" points="48.14,-21.7 37.74,-19.65 44.6,-27.74 48.14,-21.7"/>
</g>
<!-- Node4 -->
<g id="node4" class="node">
<title>Node4</title>
<g id="a_node4"><a xlink:title=" ">
<polygon fill="none" stroke="#bfbfbf" points="64.5,-0.5 64.5,-19.5 105.5,-19.5 105.5,-0.5 64.5,-0.5"/>
<text text-anchor="middle" x="85" y="-7.5" font-family="Helvetica,sans-Serif" font-size="10.00">string</text>
</a>
</g>
</g>
<!-- Node2&#45;&gt;Node4 -->
<g id="edge3" class="edge">
<title>Node2&#45;&gt;Node4</title>
<path fill="none" stroke="midnightblue" d="M110.05,-56.08C105.9,-48.61 99.85,-37.72 94.73,-28.52"/>
<polygon fill="midnightblue" stroke="midnightblue" points="97.78,-26.79 89.86,-19.75 91.66,-30.19 97.78,-26.79"/>
</g>
<!-- Node5 -->
<g id="node5" class="node">
<title>Node5</title>
<g id="a_node5"><a xlink:title=" ">
<polygon fill="none" stroke="#bfbfbf" points="124,-0.5 124,-19.5 168,-19.5 168,-0.5 124,-0.5"/>
<text text-anchor="middle" x="146" y="-7.5" font-family="Helvetica,sans-Serif" font-size="10.00">vector</text>
</a>
</g>
</g>
<!-- Node2&#45;&gt;Node5 -->
<g id="edge4" class="edge">
<title>Node2&#45;&gt;Node5</title>
<path fill="none" stroke="midnightblue" d="M120.12,-56.08C124.41,-48.61 130.66,-37.72 135.94,-28.52"/>
<polygon fill="midnightblue" stroke="midnightblue" points="139.03,-30.17 140.98,-19.75 132.96,-26.68 139.03,-30.17"/>
</g>
<!-- Node6 -->
<g id="node6" class="node">
<title>Node6</title>
<g id="a_node6"><a xlink:title=" ">
<polygon fill="none" stroke="#bfbfbf" points="186,-0.5 186,-19.5 236,-19.5 236,-0.5 186,-0.5"/>
<text text-anchor="middle" x="211" y="-7.5" font-family="Helvetica,sans-Serif" font-size="10.00">optional</text>
</a>
</g>
</g>
<!-- Node2&#45;&gt;Node6 -->
<g id="edge5" class="edge">
<title>Node2&#45;&gt;Node6</title>
<path fill="none" stroke="midnightblue" d="M130.42,-56.32C145.54,-47.82 168.82,-34.73 186.47,-24.8"/>
<polygon fill="midnightblue" stroke="midnightblue" points="188.61,-27.61 195.61,-19.65 185.18,-21.51 188.61,-27.61"/>
</g>
</g>
</svg>
