<?xml version="1.0" encoding="UTF-8" standalone="no"?>
<!DOCTYPE svg PUBLIC "-//W3C//DTD SVG 1.1//EN"
 "http://www.w3.org/Graphics/SVG/1.1/DTD/svg11.dtd">
<!-- Generated by graphviz version 2.44.1 (20211215.1903)
 -->
<!-- Title: include/roar/websocket/read_result.hpp Pages: 1 -->
<!--zoomable 420 -->
<svg id="main" version="1.1" xmlns="http://www.w3.org/2000/svg" xmlns:xlink="http://www.w3.org/1999/xlink" xml:space="preserve" onload="init(evt)">
<style type="text/css"><![CDATA[
.edge:hover path { stroke: red; }
.edge:hover polygon { stroke: red; fill: red; }
]]></style>
<script type="text/javascript"><![CDATA[
var edges = document.getElementsByTagName('g');
if (edges && edges.length) {
  for (var i=0;i<edges.length;i++) {
    if (edges[i].id.substr(0,4)=='edge') {
      edges[i].setAttribute('class','edge');
    }
  }
}
]]></script>
        <defs>
                <circle id="rim" cx="0" cy="0" r="7"/>
                <circle id="rim2" cx="0" cy="0" r="3.5"/>
                <g id="zoomPlus">
                        <use xlink:href="#rim" fill="#404040">
                                <set attributeName="fill" to="#808080" begin="zoomplus.mouseover" end="zoomplus.mouseout"/>
                        </use>
                        <path d="M-4,0h8M0,-4v8" fill="none" stroke="white" stroke-width="1.5" pointer-events="none"/>
                </g>
                <g id="zoomMin">
                        <use xlink:href="#rim" fill="#404040">
                                <set attributeName="fill" to="#808080" begin="zoomminus.mouseover" end="zoomminus.mouseout"/>
                        </use>
                        <path d="M-4,0h8" fill="none" stroke="white" stroke-width="1.5" pointer-events="none"/>
                </g>
                <g id="dirArrow">
                        <path fill="none" stroke="white" stroke-width="1.5" d="M0,-3.0v7 M-2.5,-0.5L0,-3.0L2.5,-0.5"/>
                </g>
               <g id="resetDef">
                       <use xlink:href="#rim2" fill="#404040">
                               <set attributeName="fill" to="#808080" begin="reset.mouseover" end="reset.mouseout"/>
                       </use>
               </g>
        </defs>

<script type="text/javascript">
var viewWidth = 1692;
var viewHeight = 420;
var sectionId = 'dynsection-1';
</script>
<script xlink:href="svgpan.js"/>
<svg id="graph" class="graph">
<g id="viewport">
<title>include/roar/websocket/read_result.hpp</title>
<!-- Node1 -->
<g id="node1" class="node">
<title>Node1</title>
<g id="a_node1"><a xlink:title=" ">
<polygon fill="#bfbfbf" stroke="black" points="721.5,-392.5 721.5,-411.5 908.5,-411.5 908.5,-392.5 721.5,-392.5"/>
<text text-anchor="middle" x="815" y="-399.5" font-family="Helvetica,sans-Serif" font-size="10.00">include/roar/websocket/read_result.hpp</text>
</a>
</g>
</g>
<!-- Node2 -->
<g id="node2" class="node">
<title>Node2</title>
<g id="a_node2"><a xlink:href="websocket__base_8hpp.html" target="_top" xlink:title=" ">
<polygon fill="none" stroke="black" points="709,-336.5 709,-355.5 921,-355.5 921,-336.5 709,-336.5"/>
<text text-anchor="middle" x="815" y="-343.5" font-family="Helvetica,sans-Serif" font-size="10.00">include/roar/websocket/websocket_base.hpp</text>
</a>
</g>
</g>
<!-- Node1&#45;&gt;Node2 -->
<g id="edge1" class="edge">
<title>Node1&#45;&gt;Node2</title>
<path fill="none" stroke="midnightblue" d="M815,-381.8C815,-372.91 815,-362.78 815,-355.75"/>
<polygon fill="midnightblue" stroke="midnightblue" points="811.5,-382.08 815,-392.08 818.5,-382.08 811.5,-382.08"/>
</g>
<!-- Node3 -->
<g id="node3" class="node">
<title>Node3</title>
<g id="a_node3"><a xlink:href="websocket__client_8hpp.html" target="_top" xlink:title=" ">
<polygon fill="none" stroke="black" points="429.5,-280.5 429.5,-299.5 644.5,-299.5 644.5,-280.5 429.5,-280.5"/>
<text text-anchor="middle" x="537" y="-287.5" font-family="Helvetica,sans-Serif" font-size="10.00">include/roar/websocket/websocket_client.hpp</text>
</a>
</g>
</g>
<!-- Node2&#45;&gt;Node3 -->
<g id="edge2" class="edge">
<title>Node2&#45;&gt;Node3</title>
<path fill="none" stroke="midnightblue" d="M760.81,-334.47C708.27,-324.27 629.56,-308.98 580.84,-299.52"/>
<polygon fill="midnightblue" stroke="midnightblue" points="760.47,-337.97 770.95,-336.44 761.8,-331.1 760.47,-337.97"/>
</g>
<!-- Node5 -->
<g id="node5" class="node">
<title>Node5</title>
<g id="a_node5"><a xlink:href="websocket__session_8hpp.html" target="_top" xlink:title=" ">
<polygon fill="none" stroke="black" points="702.5,-280.5 702.5,-299.5 927.5,-299.5 927.5,-280.5 702.5,-280.5"/>
<text text-anchor="middle" x="815" y="-287.5" font-family="Helvetica,sans-Serif" font-size="10.00">include/roar/websocket/websocket_session.hpp</text>
</a>
</g>
</g>
<!-- Node2&#45;&gt;Node5 -->
<g id="edge4" class="edge">
<title>Node2&#45;&gt;Node5</title>
<path fill="none" stroke="midnightblue" d="M815,-325.8C815,-316.91 815,-306.78 815,-299.75"/>
<polygon fill="midnightblue" stroke="midnightblue" points="811.5,-326.08 815,-336.08 818.5,-326.08 811.5,-326.08"/>
</g>
<!-- Node31 -->
<g id="node31" class="node">
<title>Node31</title>
<g id="a_node31"><a xlink:href="websocket__base_8cpp.html" target="_top" xlink:title=" ">
<polygon fill="none" stroke="black" points="945.5,-280.5 945.5,-299.5 1140.5,-299.5 1140.5,-280.5 945.5,-280.5"/>
<text text-anchor="middle" x="1043" y="-287.5" font-family="Helvetica,sans-Serif" font-size="10.00">src/roar/websocket/websocket_base.cpp</text>
</a>
</g>
</g>
<!-- Node2&#45;&gt;Node31 -->
<g id="edge44" class="edge">
<title>Node2&#45;&gt;Node31</title>
<path fill="none" stroke="midnightblue" d="M861.07,-334.09C904.15,-323.89 967.59,-308.86 1007.04,-299.52"/>
<polygon fill="midnightblue" stroke="midnightblue" points="860.05,-330.73 851.13,-336.44 861.66,-337.54 860.05,-330.73"/>
</g>
<!-- Node4 -->
<g id="node4" class="node">
<title>Node4</title>
<g id="a_node4"><a xlink:href="websocket__client_8cpp.html" target="_top" xlink:title=" ">
<polygon fill="none" stroke="black" points="358.5,-224.5 358.5,-243.5 555.5,-243.5 555.5,-224.5 358.5,-224.5"/>
<text text-anchor="middle" x="457" y="-231.5" font-family="Helvetica,sans-Serif" font-size="10.00">src/roar/websocket/websocket_client.cpp</text>
</a>
</g>
</g>
<!-- Node3&#45;&gt;Node4 -->
<g id="edge3" class="edge">
<title>Node3&#45;&gt;Node4</title>
<path fill="none" stroke="midnightblue" d="M515.7,-274.62C501.08,-264.76 482.17,-251.99 469.82,-243.65"/>
<polygon fill="midnightblue" stroke="midnightblue" points="513.9,-277.63 524.15,-280.32 517.82,-271.83 513.9,-277.63"/>
</g>
<!-- Node6 -->
<g id="node6" class="node">
<title>Node6</title>
<g id="a_node6"><a xlink:href="examples_2websocket_2request__listener_8hpp.html" target="_top" xlink:title=" ">
<polygon fill="none" stroke="black" points="1446,-112.5 1446,-131.5 1646,-131.5 1646,-112.5 1446,-112.5"/>
<text text-anchor="middle" x="1546" y="-119.5" font-family="Helvetica,sans-Serif" font-size="10.00">examples/websocket/request_listener.hpp</text>
</a>
</g>
</g>
<!-- Node5&#45;&gt;Node6 -->
<g id="edge5" class="edge">
<title>Node5&#45;&gt;Node6</title>
<path fill="none" stroke="midnightblue" d="M862.6,-278.19C998.44,-247.34 1385.96,-159.34 1508.42,-131.53"/>
<polygon fill="midnightblue" stroke="midnightblue" points="861.49,-274.85 852.51,-280.48 863.04,-281.68 861.49,-274.85"/>
</g>
<!-- Node9 -->
<g id="node9" class="node">
<title>Node9</title>
<g id="a_node9"><a xlink:href="session_8hpp.html" target="_top" xlink:title=" ">
<polygon fill="none" stroke="black" points="573.5,-224.5 573.5,-243.5 732.5,-243.5 732.5,-224.5 573.5,-224.5"/>
<text text-anchor="middle" x="653" y="-231.5" font-family="Helvetica,sans-Serif" font-size="10.00">include/roar/session/session.hpp</text>
</a>
</g>
</g>
<!-- Node5&#45;&gt;Node9 -->
<g id="edge8" class="edge">
<title>Node5&#45;&gt;Node9</title>
<path fill="none" stroke="midnightblue" d="M779.52,-277.17C749.01,-267 705.76,-252.59 678.55,-243.52"/>
<polygon fill="midnightblue" stroke="midnightblue" points="778.74,-280.6 789.33,-280.44 780.95,-273.96 778.74,-280.6"/>
</g>
<!-- Node30 -->
<g id="node30" class="node">
<title>Node30</title>
<g id="a_node30"><a xlink:href="websocket__session_8cpp.html" target="_top" xlink:title=" ">
<polygon fill="none" stroke="black" points="751,-224.5 751,-243.5 959,-243.5 959,-224.5 751,-224.5"/>
<text text-anchor="middle" x="855" y="-231.5" font-family="Helvetica,sans-Serif" font-size="10.00">src/roar/websocket/websocket_session.cpp</text>
</a>
</g>
</g>
<!-- Node5&#45;&gt;Node30 -->
<g id="edge43" class="edge">
<title>Node5&#45;&gt;Node30</title>
<path fill="none" stroke="midnightblue" d="M827.7,-271.86C834.63,-262.5 842.91,-251.33 848.52,-243.75"/>
<polygon fill="midnightblue" stroke="midnightblue" points="824.75,-269.96 821.61,-280.08 830.37,-274.13 824.75,-269.96"/>
</g>
<!-- Node7 -->
<g id="node7" class="node">
<title>Node7</title>
<g id="a_node7"><a xlink:href="websocket_2main_8cpp.html" target="_top" xlink:title=" ">
<polygon fill="none" stroke="black" points="1342,-0.5 1342,-19.5 1494,-19.5 1494,-0.5 1342,-0.5"/>
<text text-anchor="middle" x="1418" y="-7.5" font-family="Helvetica,sans-Serif" font-size="10.00">examples/websocket/main.cpp</text>
</a>
</g>
</g>
<!-- Node6&#45;&gt;Node7 -->
<g id="edge6" class="edge">
<title>Node6&#45;&gt;Node7</title>
<path fill="none" stroke="midnightblue" d="M1520.86,-107.45C1506.71,-99.25 1489.1,-88.07 1475,-76 1454.25,-58.24 1434.19,-32.88 1424.33,-19.7"/>
<polygon fill="midnightblue" stroke="midnightblue" points="1519.16,-110.51 1529.59,-112.38 1522.61,-104.41 1519.16,-110.51"/>
</g>
<!-- Node8 -->
<g id="node8" class="node">
<title>Node8</title>
<g id="a_node8"><a xlink:href="examples_2websocket_2request__listener_8cpp.html" target="_top" xlink:title=" ">
<polygon fill="none" stroke="black" points="1484,-56.5 1484,-75.5 1684,-75.5 1684,-56.5 1484,-56.5"/>
<text text-anchor="middle" x="1584" y="-63.5" font-family="Helvetica,sans-Serif" font-size="10.00">examples/websocket/request_listener.cpp</text>
</a>
</g>
</g>
<!-- Node6&#45;&gt;Node8 -->
<g id="edge7" class="edge">
<title>Node6&#45;&gt;Node8</title>
<path fill="none" stroke="midnightblue" d="M1558.06,-103.86C1564.64,-94.5 1572.51,-83.33 1577.84,-75.75"/>
<polygon fill="midnightblue" stroke="midnightblue" points="1555.17,-101.89 1552.27,-112.08 1560.89,-105.92 1555.17,-101.89"/>
</g>
<!-- Node10 -->
<g id="node10" class="node">
<title>Node10</title>
<g id="a_node10"><a xlink:href="directory__server_8hpp.html" target="_top" xlink:title=" ">
<polygon fill="none" stroke="black" points="370.5,-112.5 370.5,-131.5 601.5,-131.5 601.5,-112.5 370.5,-112.5"/>
<text text-anchor="middle" x="486" y="-119.5" font-family="Helvetica,sans-Serif" font-size="10.00">include/roar/directory_server/directory_server.hpp</text>
</a>
</g>
</g>
<!-- Node9&#45;&gt;Node10 -->
<g id="edge9" class="edge">
<title>Node9&#45;&gt;Node10</title>
<path fill="none" stroke="midnightblue" d="M732.21,-223.08C797.41,-214.09 880.72,-200.41 891,-188 896.67,-181.16 896.93,-174.62 891,-168 881.14,-156.98 711.3,-141.15 594.72,-131.5"/>
<polygon fill="midnightblue" stroke="midnightblue" points="731.36,-219.66 721.92,-224.48 732.3,-226.6 731.36,-219.66"/>
</g>
<!-- Node11 -->
<g id="node11" class="node">
<title>Node11</title>
<g id="a_node11"><a xlink:href="server_8hpp.html" target="_top" xlink:title=" ">
<polygon fill="none" stroke="black" points="472,-56.5 472,-75.5 588,-75.5 588,-56.5 472,-56.5"/>
<text text-anchor="middle" x="530" y="-63.5" font-family="Helvetica,sans-Serif" font-size="10.00">include/roar/server.hpp</text>
</a>
</g>
</g>
<!-- Node9&#45;&gt;Node11 -->
<g id="edge37" class="edge">
<title>Node9&#45;&gt;Node11</title>
<path fill="none" stroke="midnightblue" d="M563.14,-223.45C455.97,-211.85 290.59,-193.19 286,-188 266.53,-165.99 324.33,-130.12 362,-112 399.28,-94.07 444.77,-82.44 479.01,-75.51"/>
<polygon fill="midnightblue" stroke="midnightblue" points="563,-226.96 573.32,-224.55 563.75,-220 563,-226.96"/>
</g>
<!-- Node17 -->
<g id="node17" class="node">
<title>Node17</title>
<g id="a_node17"><a xlink:href="server_8cpp.html" target="_top" xlink:title=" ">
<polygon fill="none" stroke="black" points="0,-0.5 0,-19.5 98,-19.5 98,-0.5 0,-0.5"/>
<text text-anchor="middle" x="49" y="-7.5" font-family="Helvetica,sans-Serif" font-size="10.00">src/roar/server.cpp</text>
</a>
</g>
</g>
<!-- Node9&#45;&gt;Node17 -->
<g id="edge40" class="edge">
<title>Node9&#45;&gt;Node17</title>
<path fill="none" stroke="midnightblue" d="M566.71,-223.34C465.07,-211.85 306.5,-193.53 279,-188 189.76,-170.06 146.02,-196.71 82,-132 50.61,-100.27 48.33,-41.77 48.67,-19.72"/>
<polygon fill="midnightblue" stroke="midnightblue" points="566.34,-226.82 576.67,-224.47 567.12,-219.87 566.34,-226.82"/>
</g>
<!-- Node18 -->
<g id="node18" class="node">
<title>Node18</title>
<g id="a_node18"><a xlink:href="include_2roar_2routing_2request__listener_8hpp.html" target="_top" xlink:title=" ">
<polygon fill="none" stroke="black" points="938,-168.5 938,-187.5 1128,-187.5 1128,-168.5 938,-168.5"/>
<text text-anchor="middle" x="1033" y="-175.5" font-family="Helvetica,sans-Serif" font-size="10.00">include/roar/routing/request_listener.hpp</text>
</a>
</g>
</g>
<!-- Node9&#45;&gt;Node18 -->
<g id="edge18" class="edge">
<title>Node9&#45;&gt;Node18</title>
<path fill="none" stroke="midnightblue" d="M723.52,-222.98C795.3,-212.78 905.37,-197.14 973.07,-187.52"/>
<polygon fill="midnightblue" stroke="midnightblue" points="722.62,-219.57 713.21,-224.44 723.61,-226.5 722.62,-219.57"/>
</g>
<!-- Node26 -->
<g id="node26" class="node">
<title>Node26</title>
<g id="a_node26"><a xlink:href="route_8cpp.html" target="_top" xlink:title=" ">
<polygon fill="none" stroke="black" points="294.5,-168.5 294.5,-187.5 419.5,-187.5 419.5,-168.5 294.5,-168.5"/>
<text text-anchor="middle" x="357" y="-175.5" font-family="Helvetica,sans-Serif" font-size="10.00">src/roar/routing/route.cpp</text>
</a>
</g>
</g>
<!-- Node9&#45;&gt;Node26 -->
<g id="edge38" class="edge">
<title>Node9&#45;&gt;Node26</title>
<path fill="none" stroke="midnightblue" d="M596,-222.6C540.06,-212.4 455.77,-197.02 403.68,-187.52"/>
<polygon fill="midnightblue" stroke="midnightblue" points="595.63,-226.09 606.1,-224.44 596.89,-219.21 595.63,-226.09"/>
</g>
<!-- Node27 -->
<g id="node27" class="node">
<title>Node27</title>
<g id="a_node27"><a xlink:href="router_8cpp.html" target="_top" xlink:title=" ">
<polygon fill="none" stroke="black" points="438,-168.5 438,-187.5 566,-187.5 566,-168.5 438,-168.5"/>
<text text-anchor="middle" x="502" y="-175.5" font-family="Helvetica,sans-Serif" font-size="10.00">src/roar/routing/router.cpp</text>
</a>
</g>
</g>
<!-- Node9&#45;&gt;Node27 -->
<g id="edge39" class="edge">
<title>Node9&#45;&gt;Node27</title>
<path fill="none" stroke="midnightblue" d="M619.55,-221.04C591.14,-210.88 551.06,-196.55 525.81,-187.52"/>
<polygon fill="midnightblue" stroke="midnightblue" points="618.48,-224.37 629.07,-224.44 620.84,-217.78 618.48,-224.37"/>
</g>
<!-- Node28 -->
<g id="node28" class="node">
<title>Node28</title>
<g id="a_node28"><a xlink:href="factory_8cpp.html" target="_top" xlink:title=" ">
<polygon fill="none" stroke="black" points="584.5,-168.5 584.5,-187.5 721.5,-187.5 721.5,-168.5 584.5,-168.5"/>
<text text-anchor="middle" x="653" y="-175.5" font-family="Helvetica,sans-Serif" font-size="10.00">src/roar/session/factory.cpp</text>
</a>
</g>
</g>
<!-- Node9&#45;&gt;Node28 -->
<g id="edge41" class="edge">
<title>Node9&#45;&gt;Node28</title>
<path fill="none" stroke="midnightblue" d="M653,-213.8C653,-204.91 653,-194.78 653,-187.75"/>
<polygon fill="midnightblue" stroke="midnightblue" points="649.5,-214.08 653,-224.08 656.5,-214.08 649.5,-214.08"/>
</g>
<!-- Node29 -->
<g id="node29" class="node">
<title>Node29</title>
<g id="a_node29"><a xlink:href="session_8cpp.html" target="_top" xlink:title=" ">
<polygon fill="none" stroke="black" points="740,-168.5 740,-187.5 882,-187.5 882,-168.5 740,-168.5"/>
<text text-anchor="middle" x="811" y="-175.5" font-family="Helvetica,sans-Serif" font-size="10.00">src/roar/session/session.cpp</text>
</a>
</g>
</g>
<!-- Node9&#45;&gt;Node29 -->
<g id="edge42" class="edge">
<title>Node9&#45;&gt;Node29</title>
<path fill="none" stroke="midnightblue" d="M687.61,-221.17C717.36,-211 759.55,-196.59 786.08,-187.52"/>
<polygon fill="midnightblue" stroke="midnightblue" points="686.37,-217.9 678.04,-224.44 688.63,-224.52 686.37,-217.9"/>
</g>
<!-- Node10&#45;&gt;Node11 -->
<g id="edge10" class="edge">
<title>Node10&#45;&gt;Node11</title>
<path fill="none" stroke="midnightblue" d="M499.73,-104.14C507.4,-94.74 516.63,-83.4 522.87,-75.75"/>
<polygon fill="midnightblue" stroke="midnightblue" points="496.87,-102.12 493.27,-112.08 502.3,-106.54 496.87,-102.12"/>
</g>
<!-- Node11&#45;&gt;Node7 -->
<g id="edge15" class="edge">
<title>Node11&#45;&gt;Node7</title>
<path fill="none" stroke="midnightblue" d="M598.43,-56.06C759.21,-41.77 1170.68,-22.26 1341.78,-14.43"/>
<polygon fill="midnightblue" stroke="midnightblue" points="597.85,-52.6 588.21,-57 598.48,-59.57 597.85,-52.6"/>
</g>
<!-- Node12 -->
<g id="node12" class="node">
<title>Node12</title>
<g id="a_node12"><a xlink:href="100__continue_2main_8cpp.html" target="_top" xlink:title=" ">
<polygon fill="none" stroke="black" points="122,-0.5 122,-19.5 284,-19.5 284,-0.5 122,-0.5"/>
<text text-anchor="middle" x="203" y="-7.5" font-family="Helvetica,sans-Serif" font-size="10.00">examples/100_continue/main.cpp</text>
</a>
</g>
</g>
<!-- Node11&#45;&gt;Node12 -->
<g id="edge11" class="edge">
<title>Node11&#45;&gt;Node12</title>
<path fill="none" stroke="midnightblue" d="M468.18,-54.79C406.39,-44.59 312.47,-29.08 254.57,-19.52"/>
<polygon fill="midnightblue" stroke="midnightblue" points="467.75,-58.27 478.19,-56.44 468.89,-51.36 467.75,-58.27"/>
</g>
<!-- Node13 -->
<g id="node13" class="node">
<title>Node13</title>
<g id="a_node13"><a xlink:href="most__minimal_2main_8cpp.html" target="_top" xlink:title=" ">
<polygon fill="none" stroke="black" points="447.5,-0.5 447.5,-19.5 612.5,-19.5 612.5,-0.5 447.5,-0.5"/>
<text text-anchor="middle" x="530" y="-7.5" font-family="Helvetica,sans-Serif" font-size="10.00">examples/most_minimal/main.cpp</text>
</a>
</g>
</g>
<!-- Node11&#45;&gt;Node13 -->
<g id="edge12" class="edge">
<title>Node11&#45;&gt;Node13</title>
<path fill="none" stroke="midnightblue" d="M530,-45.8C530,-36.91 530,-26.78 530,-19.75"/>
<polygon fill="midnightblue" stroke="midnightblue" points="526.5,-46.08 530,-56.08 533.5,-46.08 526.5,-46.08"/>
</g>
<!-- Node14 -->
<g id="node14" class="node">
<title>Node14</title>
<g id="a_node14"><a xlink:href="serve__directory_2main_8cpp.html" target="_top" xlink:title=" ">
<polygon fill="none" stroke="black" points="642.5,-0.5 642.5,-19.5 813.5,-19.5 813.5,-0.5 642.5,-0.5"/>
<text text-anchor="middle" x="728" y="-7.5" font-family="Helvetica,sans-Serif" font-size="10.00">examples/serve_directory/main.cpp</text>
</a>
</g>
</g>
<!-- Node11&#45;&gt;Node14 -->
<g id="edge13" class="edge">
<title>Node11&#45;&gt;Node14</title>
<path fill="none" stroke="midnightblue" d="M571.44,-53.7C608.81,-43.51 662.94,-28.74 696.77,-19.52"/>
<polygon fill="midnightblue" stroke="midnightblue" points="570.1,-50.44 561.37,-56.44 571.94,-57.19 570.1,-50.44"/>
</g>
<!-- Node15 -->
<g id="node15" class="node">
<title>Node15</title>
<g id="a_node15"><a xlink:href="simple__server_2main_8cpp.html" target="_top" xlink:title=" ">
<polygon fill="none" stroke="black" points="1027.5,-0.5 1027.5,-19.5 1192.5,-19.5 1192.5,-0.5 1027.5,-0.5"/>
<text text-anchor="middle" x="1110" y="-7.5" font-family="Helvetica,sans-Serif" font-size="10.00">examples/simple_server/main.cpp</text>
</a>
</g>
</g>
<!-- Node11&#45;&gt;Node15 -->
<g id="edge14" class="edge">
<title>Node11&#45;&gt;Node15</title>
<path fill="none" stroke="midnightblue" d="M598.33,-56.02C784.16,-35.84 832.42,-36.37 1014,-20 1018.33,-19.61 1022.78,-19.21 1027.27,-18.79"/>
<polygon fill="midnightblue" stroke="midnightblue" points="597.78,-52.55 588.22,-57.12 598.54,-59.51 597.78,-52.55"/>
</g>
<!-- Node16 -->
<g id="node16" class="node">
<title>Node16</title>
<g id="a_node16"><a xlink:href="src_2roar_2routing_2request__listener_8cpp.html" target="_top" xlink:title=" ">
<polygon fill="none" stroke="black" points="831.5,-0.5 831.5,-19.5 1004.5,-19.5 1004.5,-0.5 831.5,-0.5"/>
<text text-anchor="middle" x="918" y="-7.5" font-family="Helvetica,sans-Serif" font-size="10.00">src/roar/routing/request_listener.cpp</text>
</a>
</g>
</g>
<!-- Node11&#45;&gt;Node16 -->
<g id="edge16" class="edge">
<title>Node11&#45;&gt;Node16</title>
<path fill="none" stroke="midnightblue" d="M598.11,-55.52C671.2,-45.35 786.25,-29.34 856.63,-19.54"/>
<polygon fill="midnightblue" stroke="midnightblue" points="597.51,-52.07 588.09,-56.92 598.47,-59 597.51,-52.07"/>
</g>
<!-- Node11&#45;&gt;Node17 -->
<g id="edge17" class="edge">
<title>Node11&#45;&gt;Node17</title>
<path fill="none" stroke="midnightblue" d="M461.87,-57.31C457.86,-56.86 453.87,-56.42 450,-56 300.27,-39.58 262.49,-38.49 113,-20 108.21,-19.41 103.23,-18.76 98.25,-18.09"/>
<polygon fill="midnightblue" stroke="midnightblue" points="461.57,-60.8 471.89,-58.42 462.34,-53.84 461.57,-60.8"/>
</g>
<!-- Node18&#45;&gt;Node6 -->
<g id="edge33" class="edge">
<title>Node18&#45;&gt;Node6</title>
<path fill="none" stroke="midnightblue" d="M1124.06,-167.41C1220.8,-157.23 1372.28,-141.29 1465,-131.53"/>
<polygon fill="midnightblue" stroke="midnightblue" points="1123.58,-163.95 1114,-168.47 1124.31,-170.91 1123.58,-163.95"/>
</g>
<!-- Node18&#45;&gt;Node7 -->
<g id="edge32" class="edge">
<title>Node18&#45;&gt;Node7</title>
<path fill="none" stroke="midnightblue" d="M1138.44,-170.46C1239.84,-163.16 1380.43,-149.96 1399,-132 1430.49,-101.55 1423.6,-41.75 1419.71,-19.56"/>
<polygon fill="midnightblue" stroke="midnightblue" points="1138.17,-166.97 1128.44,-171.17 1138.67,-173.95 1138.17,-166.97"/>
</g>
<!-- Node18&#45;&gt;Node10 -->
<g id="edge34" class="edge">
<title>Node18&#45;&gt;Node10</title>
<path fill="none" stroke="midnightblue" d="M936.53,-167.48C833.41,-157.3 671.43,-141.31 572.37,-131.53"/>
<polygon fill="midnightblue" stroke="midnightblue" points="936.33,-170.97 946.63,-168.47 937.02,-164.01 936.33,-170.97"/>
</g>
<!-- Node18&#45;&gt;Node11 -->
<g id="edge35" class="edge">
<title>Node18&#45;&gt;Node11</title>
<path fill="none" stroke="midnightblue" d="M928,-169.22C832.58,-161.32 699.27,-148.01 649,-132 643.5,-130.25 576.67,-93.08 545.64,-75.75"/>
<polygon fill="midnightblue" stroke="midnightblue" points="927.73,-172.71 937.98,-170.03 928.3,-165.73 927.73,-172.71"/>
</g>
<!-- Node18&#45;&gt;Node12 -->
<g id="edge19" class="edge">
<title>Node18&#45;&gt;Node12</title>
<path fill="none" stroke="midnightblue" d="M927.59,-170.11C915.26,-169.36 902.85,-168.64 891,-168 846.8,-165.6 125.59,-164 95,-132 55.8,-90.98 145.22,-39.57 185.07,-19.54"/>
<polygon fill="midnightblue" stroke="midnightblue" points="927.72,-173.62 937.92,-170.74 928.15,-166.63 927.72,-173.62"/>
</g>
<!-- Node18&#45;&gt;Node14 -->
<g id="edge27" class="edge">
<title>Node18&#45;&gt;Node14</title>
<path fill="none" stroke="midnightblue" d="M996.62,-165C974.6,-157.04 946.36,-145.58 923,-132 875.65,-104.48 872.76,-84.51 826,-56 801.38,-40.99 770.92,-27.76 750.55,-19.59"/>
<polygon fill="midnightblue" stroke="midnightblue" points="995.66,-168.37 1006.26,-168.4 998,-161.77 995.66,-168.37"/>
</g>
<!-- Node18&#45;&gt;Node15 -->
<g id="edge28" class="edge">
<title>Node18&#45;&gt;Node15</title>
<path fill="none" stroke="midnightblue" d="M1084.02,-165.13C1101.32,-158.4 1118.84,-147.99 1129,-132 1140.92,-113.25 1120.71,-44.47 1112.89,-19.84"/>
<polygon fill="midnightblue" stroke="midnightblue" points="1082.73,-161.87 1074.47,-168.5 1085.07,-168.47 1082.73,-161.87"/>
</g>
<!-- Node18&#45;&gt;Node16 -->
<g id="edge36" class="edge">
<title>Node18&#45;&gt;Node16</title>
<path fill="none" stroke="midnightblue" d="M986.36,-165.05C968.63,-158.2 949.87,-147.74 938,-132 911.85,-97.32 914.68,-41.07 916.9,-19.66"/>
<polygon fill="midnightblue" stroke="midnightblue" points="985.45,-168.44 996.05,-168.49 987.8,-161.85 985.45,-168.44"/>
</g>
<!-- Node19 -->
<g id="node19" class="node">
<title>Node19</title>
<g id="a_node19"><a xlink:href="examples_2100__continue_2request__listener_8hpp.html" target="_top" xlink:title=" ">
<polygon fill="none" stroke="black" points="104,-112.5 104,-131.5 314,-131.5 314,-112.5 104,-112.5"/>
<text text-anchor="middle" x="209" y="-119.5" font-family="Helvetica,sans-Serif" font-size="10.00">examples/100_continue/request_listener.hpp</text>
</a>
</g>
</g>
<!-- Node18&#45;&gt;Node19 -->
<g id="edge20" class="edge">
<title>Node18&#45;&gt;Node19</title>
<path fill="none" stroke="midnightblue" d="M927.45,-170.08C769.19,-159.71 472.17,-140.25 314.15,-129.89"/>
<polygon fill="midnightblue" stroke="midnightblue" points="927.46,-173.59 937.67,-170.75 927.92,-166.61 927.46,-173.59"/>
</g>
<!-- Node21 -->
<g id="node21" class="node">
<title>Node21</title>
<g id="a_node21"><a xlink:href="request__listener_2main_8cpp.html" target="_top" xlink:title=" ">
<polygon fill="none" stroke="black" points="946.5,-112.5 946.5,-131.5 1119.5,-131.5 1119.5,-112.5 946.5,-112.5"/>
<text text-anchor="middle" x="1033" y="-119.5" font-family="Helvetica,sans-Serif" font-size="10.00">examples/request_listener/main.cpp</text>
</a>
</g>
</g>
<!-- Node18&#45;&gt;Node21 -->
<g id="edge23" class="edge">
<title>Node18&#45;&gt;Node21</title>
<path fill="none" stroke="midnightblue" d="M1033,-157.8C1033,-148.91 1033,-138.78 1033,-131.75"/>
<polygon fill="midnightblue" stroke="midnightblue" points="1029.5,-158.08 1033,-168.08 1036.5,-158.08 1029.5,-158.08"/>
</g>
<!-- Node22 -->
<g id="node22" class="node">
<title>Node22</title>
<g id="a_node22"><a xlink:href="file__server_8hpp.html" target="_top" xlink:title=" ">
<polygon fill="none" stroke="black" points="657.5,-112.5 657.5,-131.5 852.5,-131.5 852.5,-112.5 657.5,-112.5"/>
<text text-anchor="middle" x="755" y="-119.5" font-family="Helvetica,sans-Serif" font-size="10.00">examples/serve_directory/file_server.hpp</text>
</a>
</g>
</g>
<!-- Node18&#45;&gt;Node22 -->
<g id="edge24" class="edge">
<title>Node18&#45;&gt;Node22</title>
<path fill="none" stroke="midnightblue" d="M978.81,-166.47C926.27,-156.27 847.56,-140.98 798.84,-131.52"/>
<polygon fill="midnightblue" stroke="midnightblue" points="978.47,-169.97 988.95,-168.44 979.8,-163.1 978.47,-169.97"/>
</g>
<!-- Node24 -->
<g id="node24" class="node">
<title>Node24</title>
<g id="a_node24"><a xlink:href="examples_2simple__server_2request__listener_8hpp.html" target="_top" xlink:title=" ">
<polygon fill="none" stroke="black" points="1176.5,-112.5 1176.5,-131.5 1389.5,-131.5 1389.5,-112.5 1176.5,-112.5"/>
<text text-anchor="middle" x="1283" y="-119.5" font-family="Helvetica,sans-Serif" font-size="10.00">examples/simple_server/request_listener.hpp</text>
</a>
</g>
</g>
<!-- Node18&#45;&gt;Node24 -->
<g id="edge29" class="edge">
<title>Node18&#45;&gt;Node24</title>
<path fill="none" stroke="midnightblue" d="M1082.62,-166.28C1129.87,-156.08 1200.04,-140.92 1243.57,-131.52"/>
<polygon fill="midnightblue" stroke="midnightblue" points="1081.65,-162.91 1072.61,-168.44 1083.13,-169.75 1081.65,-162.91"/>
</g>
<!-- Node19&#45;&gt;Node12 -->
<g id="edge21" class="edge">
<title>Node19&#45;&gt;Node12</title>
<path fill="none" stroke="midnightblue" d="M207.98,-102.35C206.67,-78.25 204.43,-37.31 203.47,-19.59"/>
<polygon fill="midnightblue" stroke="midnightblue" points="204.49,-102.57 208.53,-112.37 211.48,-102.19 204.49,-102.57"/>
</g>
<!-- Node20 -->
<g id="node20" class="node">
<title>Node20</title>
<g id="a_node20"><a xlink:href="examples_2100__continue_2request__listener_8cpp.html" target="_top" xlink:title=" ">
<polygon fill="none" stroke="black" points="231,-56.5 231,-75.5 441,-75.5 441,-56.5 231,-56.5"/>
<text text-anchor="middle" x="336" y="-63.5" font-family="Helvetica,sans-Serif" font-size="10.00">examples/100_continue/request_listener.cpp</text>
</a>
</g>
</g>
<!-- Node19&#45;&gt;Node20 -->
<g id="edge22" class="edge">
<title>Node19&#45;&gt;Node20</title>
<path fill="none" stroke="midnightblue" d="M238.39,-108.5C262.2,-98.38 295.11,-84.39 315.97,-75.52"/>
<polygon fill="midnightblue" stroke="midnightblue" points="236.96,-105.31 229.12,-112.44 239.7,-111.75 236.96,-105.31"/>
</g>
<!-- Node22&#45;&gt;Node14 -->
<g id="edge26" class="edge">
<title>Node22&#45;&gt;Node14</title>
<path fill="none" stroke="midnightblue" d="M781.05,-107.11C800.74,-94.66 822.56,-75.42 811,-56 800.02,-37.55 778.54,-26.2 760.18,-19.51"/>
<polygon fill="midnightblue" stroke="midnightblue" points="779.08,-104.2 772.28,-112.32 782.66,-110.22 779.08,-104.2"/>
</g>
<!-- Node23 -->
<g id="node23" class="node">
<title>Node23</title>
<g id="a_node23"><a xlink:href="file__server_8cpp.html" target="_top" xlink:title=" ">
<polygon fill="none" stroke="black" points="606.5,-56.5 606.5,-75.5 801.5,-75.5 801.5,-56.5 606.5,-56.5"/>
<text text-anchor="middle" x="704" y="-63.5" font-family="Helvetica,sans-Serif" font-size="10.00">examples/serve_directory/file_server.cpp</text>
</a>
</g>
</g>
<!-- Node22&#45;&gt;Node23 -->
<g id="edge25" class="edge">
<title>Node22&#45;&gt;Node23</title>
<path fill="none" stroke="midnightblue" d="M739.62,-104.72C730.63,-95.2 719.64,-83.56 712.26,-75.75"/>
<polygon fill="midnightblue" stroke="midnightblue" points="737.17,-107.22 746.58,-112.08 742.26,-102.41 737.17,-107.22"/>
</g>
<!-- Node24&#45;&gt;Node15 -->
<g id="edge30" class="edge">
<title>Node24&#45;&gt;Node15</title>
<path fill="none" stroke="midnightblue" d="M1317.55,-108.62C1345.87,-96.58 1378.63,-77.07 1361,-56 1339.69,-30.53 1257.18,-19.46 1192.5,-14.66"/>
<polygon fill="midnightblue" stroke="midnightblue" points="1316.15,-105.41 1308.2,-112.41 1318.78,-111.9 1316.15,-105.41"/>
</g>
<!-- Node25 -->
<g id="node25" class="node">
<title>Node25</title>
<g id="a_node25"><a xlink:href="examples_2simple__server_2request__listener_8cpp.html" target="_top" xlink:title=" ">
<polygon fill="none" stroke="black" points="1138.5,-56.5 1138.5,-75.5 1351.5,-75.5 1351.5,-56.5 1138.5,-56.5"/>
<text text-anchor="middle" x="1245" y="-63.5" font-family="Helvetica,sans-Serif" font-size="10.00">examples/simple_server/request_listener.cpp</text>
</a>
</g>
</g>
<!-- Node24&#45;&gt;Node25 -->
<g id="edge31" class="edge">
<title>Node24&#45;&gt;Node25</title>
<path fill="none" stroke="midnightblue" d="M1270.94,-103.86C1264.36,-94.5 1256.49,-83.33 1251.16,-75.75"/>
<polygon fill="midnightblue" stroke="midnightblue" points="1268.11,-105.92 1276.73,-112.08 1273.83,-101.89 1268.11,-105.92"/>
</g>
</g>
</svg>
        <g id="navigator" transform="translate(0 0)" fill="#404254">
                <rect fill="#f2f5e9" fill-opacity="0.5" stroke="#606060" stroke-width=".5" x="0" y="0" width="60" height="60"/>
                <use id="zoomplus" xlink:href="#zoomPlus" x="17" y="9" onmousedown="handleZoom(evt,'in')"/>
                <use id="zoomminus" xlink:href="#zoomMin" x="42" y="9" onmousedown="handleZoom(evt,'out')"/>
                <use id="reset" xlink:href="#resetDef" x="30" y="36" onmousedown="handleReset()"/>
                <g id="arrowUp" xlink:href="#dirArrow" transform="translate(30 24)" onmousedown="handlePan(0,-1)">
                  <use xlink:href="#rim" fill="#404040">
                        <set attributeName="fill" to="#808080" begin="arrowUp.mouseover" end="arrowUp.mouseout"/>
                  </use>
                  <path fill="none" stroke="white" stroke-width="1.5" d="M0,-3.0v7 M-2.5,-0.5L0,-3.0L2.5,-0.5"/>
                </g>
                <g id="arrowRight" xlink:href="#dirArrow" transform="rotate(90) translate(36 -43)" onmousedown="handlePan(1,0)">
                  <use xlink:href="#rim" fill="#404040">
                        <set attributeName="fill" to="#808080" begin="arrowRight.mouseover" end="arrowRight.mouseout"/>
                  </use>
                  <path fill="none" stroke="white" stroke-width="1.5" d="M0,-3.0v7 M-2.5,-0.5L0,-3.0L2.5,-0.5"/>
                </g>
                <g id="arrowDown" xlink:href="#dirArrow" transform="rotate(180) translate(-30 -48)" onmousedown="handlePan(0,1)">
                  <use xlink:href="#rim" fill="#404040">
                        <set attributeName="fill" to="#808080" begin="arrowDown.mouseover" end="arrowDown.mouseout"/>
                  </use>
                  <path fill="none" stroke="white" stroke-width="1.5" d="M0,-3.0v7 M-2.5,-0.5L0,-3.0L2.5,-0.5"/>
                </g>
                <g id="arrowLeft" xlink:href="#dirArrow" transform="rotate(270) translate(-36 17)" onmousedown="handlePan(-1,0)">
                  <use xlink:href="#rim" fill="#404040">
                        <set attributeName="fill" to="#808080" begin="arrowLeft.mouseover" end="arrowLeft.mouseout"/>
                  </use>
                  <path fill="none" stroke="white" stroke-width="1.5" d="M0,-3.0v7 M-2.5,-0.5L0,-3.0L2.5,-0.5"/>
                </g>
        </g>
        <svg viewBox="0 0 15 15" width="100%" height="30px" preserveAspectRatio="xMaxYMin meet">
         <g id="arrow_out" transform="scale(0.3 0.3)">
          <a xlink:href="read__result_8hpp__dep__incl_org.svg" target="_base">
           <rect id="button" ry="5" rx="5" y="6" x="6" height="38" width="38"
                fill="#f2f5e9" fill-opacity="0.5" stroke="#606060" stroke-width="1.0"/>
           <path id="arrow"
             d="M 11.500037,31.436501 C 11.940474,20.09759 22.043105,11.32322 32.158766,21.979434 L 37.068811,17.246167 C 37.068811,17.246167 37.088388,32 37.088388,32 L 22.160133,31.978069 C 22.160133,31.978069 26.997745,27.140456 26.997745,27.140456 C 18.528582,18.264221 13.291696,25.230495 11.500037,31.436501 z"
             style="fill:#404040;"/>
          </a>
         </g>
        </svg>
</svg>
