<?xml version="1.0" encoding="UTF-8" standalone="no"?>
<!DOCTYPE svg PUBLIC "-//W3C//DTD SVG 1.1//EN"
 "http://www.w3.org/Graphics/SVG/1.1/DTD/svg11.dtd">
<!-- Generated by graphviz version 2.44.1 (20211215.1903)
 -->
<!-- Title: include/roar/literals/regex.hpp Pages: 1 -->
<!--zoomable 364 -->
<svg id="main" version="1.1" xmlns="http://www.w3.org/2000/svg" xmlns:xlink="http://www.w3.org/1999/xlink" xml:space="preserve" onload="init(evt)">
<style type="text/css"><![CDATA[
.edge:hover path { stroke: red; }
.edge:hover polygon { stroke: red; fill: red; }
]]></style>
<script type="text/javascript"><![CDATA[
var edges = document.getElementsByTagName('g');
if (edges && edges.length) {
  for (var i=0;i<edges.length;i++) {
    if (edges[i].id.substr(0,4)=='edge') {
      edges[i].setAttribute('class','edge');
    }
  }
}
]]></script>
        <defs>
                <circle id="rim" cx="0" cy="0" r="7"/>
                <circle id="rim2" cx="0" cy="0" r="3.5"/>
                <g id="zoomPlus">
                        <use xlink:href="#rim" fill="#404040">
                                <set attributeName="fill" to="#808080" begin="zoomplus.mouseover" end="zoomplus.mouseout"/>
                        </use>
                        <path d="M-4,0h8M0,-4v8" fill="none" stroke="white" stroke-width="1.5" pointer-events="none"/>
                </g>
                <g id="zoomMin">
                        <use xlink:href="#rim" fill="#404040">
                                <set attributeName="fill" to="#808080" begin="zoomminus.mouseover" end="zoomminus.mouseout"/>
                        </use>
                        <path d="M-4,0h8" fill="none" stroke="white" stroke-width="1.5" pointer-events="none"/>
                </g>
                <g id="dirArrow">
                        <path fill="none" stroke="white" stroke-width="1.5" d="M0,-3.0v7 M-2.5,-0.5L0,-3.0L2.5,-0.5"/>
                </g>
               <g id="resetDef">
                       <use xlink:href="#rim2" fill="#404040">
                               <set attributeName="fill" to="#808080" begin="reset.mouseover" end="reset.mouseout"/>
                       </use>
               </g>
        </defs>

<script type="text/javascript">
var viewWidth = 2267;
var viewHeight = 364;
var sectionId = 'dynsection-1';
</script>
<script xlink:href="svgpan.js"/>
<svg id="graph" class="graph">
<g id="viewport">
<title>include/roar/literals/regex.hpp</title>
<!-- Node1 -->
<g id="node1" class="node">
<title>Node1</title>
<g id="a_node1"><a xlink:title=" ">
<polygon fill="#bfbfbf" stroke="black" points="1373.5,-336.5 1373.5,-355.5 1517.5,-355.5 1517.5,-336.5 1373.5,-336.5"/>
<text text-anchor="middle" x="1445.5" y="-343.5" font-family="Helvetica,sans-Serif" font-size="10.00">include/roar/literals/regex.hpp</text>
</a>
</g>
</g>
<!-- Node2 -->
<g id="node2" class="node">
<title>Node2</title>
<g id="a_node2"><a xlink:href="proto__route_8hpp.html" target="_top" xlink:title=" ">
<polygon fill="none" stroke="black" points="1466.5,-280.5 1466.5,-299.5 1636.5,-299.5 1636.5,-280.5 1466.5,-280.5"/>
<text text-anchor="middle" x="1551.5" y="-287.5" font-family="Helvetica,sans-Serif" font-size="10.00">include/roar/routing/proto_route.hpp</text>
</a>
</g>
</g>
<!-- Node1&#45;&gt;Node2 -->
<g id="edge1" class="edge">
<title>Node1&#45;&gt;Node2</title>
<path fill="none" stroke="midnightblue" d="M1471.56,-331.73C1491.18,-321.73 1517.53,-308.31 1534.51,-299.65"/>
<polygon fill="midnightblue" stroke="midnightblue" points="1469.85,-328.67 1462.53,-336.32 1473.03,-334.9 1469.85,-328.67"/>
</g>
<!-- Node3 -->
<g id="node3" class="node">
<title>Node3</title>
<g id="a_node3"><a xlink:href="include_2roar_2routing_2request__listener_8hpp.html" target="_top" xlink:title=" ">
<polygon fill="none" stroke="black" points="909.5,-168.5 909.5,-187.5 1099.5,-187.5 1099.5,-168.5 909.5,-168.5"/>
<text text-anchor="middle" x="1004.5" y="-175.5" font-family="Helvetica,sans-Serif" font-size="10.00">include/roar/routing/request_listener.hpp</text>
</a>
</g>
</g>
<!-- Node1&#45;&gt;Node3 -->
<g id="edge47" class="edge">
<title>Node1&#45;&gt;Node3</title>
<path fill="none" stroke="midnightblue" d="M1413.33,-332.89C1328.45,-300.94 1099.99,-214.94 1027.15,-187.52"/>
<polygon fill="midnightblue" stroke="midnightblue" points="1412.13,-336.18 1422.72,-336.42 1414.59,-329.63 1412.13,-336.18"/>
</g>
<!-- Node2&#45;&gt;Node3 -->
<g id="edge2" class="edge">
<title>Node2&#45;&gt;Node3</title>
<path fill="none" stroke="midnightblue" d="M1527.2,-275.59C1498.54,-260.42 1449.03,-236.26 1403.5,-224 1301.86,-196.63 1181.3,-185.89 1099.51,-181.69"/>
<polygon fill="midnightblue" stroke="midnightblue" points="1525.62,-278.71 1536.08,-280.35 1528.93,-272.54 1525.62,-278.71"/>
</g>
<!-- Node17 -->
<g id="node17" class="node">
<title>Node17</title>
<g id="a_node17"><a xlink:href="server_8hpp.html" target="_top" xlink:title=" ">
<polygon fill="none" stroke="black" points="1269.5,-56.5 1269.5,-75.5 1385.5,-75.5 1385.5,-56.5 1269.5,-56.5"/>
<text text-anchor="middle" x="1327.5" y="-63.5" font-family="Helvetica,sans-Serif" font-size="10.00">include/roar/server.hpp</text>
</a>
</g>
</g>
<!-- Node2&#45;&gt;Node17 -->
<g id="edge37" class="edge">
<title>Node2&#45;&gt;Node17</title>
<path fill="none" stroke="midnightblue" d="M1552.91,-270.04C1554.49,-234 1552.42,-155.33 1509.5,-112 1492.21,-94.54 1431.99,-82.02 1385.51,-74.69"/>
<polygon fill="midnightblue" stroke="midnightblue" points="1549.41,-269.96 1552.32,-280.15 1556.4,-270.37 1549.41,-269.96"/>
</g>
<!-- Node21 -->
<g id="node21" class="node">
<title>Node21</title>
<g id="a_node21"><a xlink:href="route_8hpp.html" target="_top" xlink:title=" ">
<polygon fill="none" stroke="black" points="1980,-224.5 1980,-243.5 2123,-243.5 2123,-224.5 1980,-224.5"/>
<text text-anchor="middle" x="2051.5" y="-231.5" font-family="Helvetica,sans-Serif" font-size="10.00">include/roar/routing/route.hpp</text>
</a>
</g>
</g>
<!-- Node2&#45;&gt;Node21 -->
<g id="edge30" class="edge">
<title>Node2&#45;&gt;Node21</title>
<path fill="none" stroke="midnightblue" d="M1640.52,-279.39C1737.4,-268.92 1890.4,-252.4 1979.85,-242.74"/>
<polygon fill="midnightblue" stroke="midnightblue" points="1640.02,-275.92 1630.45,-280.47 1640.77,-282.88 1640.02,-275.92"/>
</g>
<!-- Node24 -->
<g id="node24" class="node">
<title>Node24</title>
<g id="a_node24"><a xlink:href="router_8hpp.html" target="_top" xlink:title=" ">
<polygon fill="none" stroke="black" points="1801.5,-224.5 1801.5,-243.5 1947.5,-243.5 1947.5,-224.5 1801.5,-224.5"/>
<text text-anchor="middle" x="1874.5" y="-231.5" font-family="Helvetica,sans-Serif" font-size="10.00">include/roar/routing/router.hpp</text>
</a>
</g>
</g>
<!-- Node2&#45;&gt;Node24 -->
<g id="edge33" class="edge">
<title>Node2&#45;&gt;Node24</title>
<path fill="none" stroke="midnightblue" d="M1612.57,-278.79C1673.6,-268.59 1766.37,-253.08 1823.56,-243.52"/>
<polygon fill="midnightblue" stroke="midnightblue" points="1611.97,-275.34 1602.68,-280.44 1613.12,-282.25 1611.97,-275.34"/>
</g>
<!-- Node26 -->
<g id="node26" class="node">
<title>Node26</title>
<g id="a_node26"><a xlink:href="session_8hpp.html" target="_top" xlink:title=" ">
<polygon fill="none" stroke="black" points="1585,-224.5 1585,-243.5 1744,-243.5 1744,-224.5 1585,-224.5"/>
<text text-anchor="middle" x="1664.5" y="-231.5" font-family="Helvetica,sans-Serif" font-size="10.00">include/roar/session/session.hpp</text>
</a>
</g>
</g>
<!-- Node2&#45;&gt;Node26 -->
<g id="edge38" class="edge">
<title>Node2&#45;&gt;Node26</title>
<path fill="none" stroke="midnightblue" d="M1578.5,-276.1C1599.61,-266.01 1628.36,-252.27 1646.68,-243.52"/>
<polygon fill="midnightblue" stroke="midnightblue" points="1576.92,-272.97 1569.41,-280.44 1579.94,-279.29 1576.92,-272.97"/>
</g>
<!-- Node4 -->
<g id="node4" class="node">
<title>Node4</title>
<g id="a_node4"><a xlink:href="100__continue_2main_8cpp.html" target="_top" xlink:title=" ">
<polygon fill="none" stroke="black" points="1141.5,-0.5 1141.5,-19.5 1303.5,-19.5 1303.5,-0.5 1141.5,-0.5"/>
<text text-anchor="middle" x="1222.5" y="-7.5" font-family="Helvetica,sans-Serif" font-size="10.00">examples/100_continue/main.cpp</text>
</a>
</g>
</g>
<!-- Node3&#45;&gt;Node4 -->
<g id="edge3" class="edge">
<title>Node3&#45;&gt;Node4</title>
<path fill="none" stroke="midnightblue" d="M1109.54,-167.78C1136.39,-161.13 1163.56,-150.11 1184.5,-132 1218.81,-102.33 1222.51,-42.06 1222.64,-19.65"/>
<polygon fill="midnightblue" stroke="midnightblue" points="1108.64,-164.4 1099.67,-170.04 1110.2,-171.22 1108.64,-164.4"/>
</g>
<!-- Node5 -->
<g id="node5" class="node">
<title>Node5</title>
<g id="a_node5"><a xlink:href="examples_2100__continue_2request__listener_8hpp.html" target="_top" xlink:title=" ">
<polygon fill="none" stroke="black" points="965.5,-112.5 965.5,-131.5 1175.5,-131.5 1175.5,-112.5 965.5,-112.5"/>
<text text-anchor="middle" x="1070.5" y="-119.5" font-family="Helvetica,sans-Serif" font-size="10.00">examples/100_continue/request_listener.hpp</text>
</a>
</g>
</g>
<!-- Node3&#45;&gt;Node5 -->
<g id="edge4" class="edge">
<title>Node3&#45;&gt;Node5</title>
<path fill="none" stroke="midnightblue" d="M1023.05,-161.82C1034.88,-152.15 1049.79,-139.95 1059.7,-131.83"/>
<polygon fill="midnightblue" stroke="midnightblue" points="1020.63,-159.28 1015.1,-168.32 1025.06,-164.7 1020.63,-159.28"/>
</g>
<!-- Node7 -->
<g id="node7" class="node">
<title>Node7</title>
<g id="a_node7"><a xlink:href="file__server_8hpp.html" target="_top" xlink:title=" ">
<polygon fill="none" stroke="black" points="113,-112.5 113,-131.5 308,-131.5 308,-112.5 113,-112.5"/>
<text text-anchor="middle" x="210.5" y="-119.5" font-family="Helvetica,sans-Serif" font-size="10.00">examples/serve_directory/file_server.hpp</text>
</a>
</g>
</g>
<!-- Node3&#45;&gt;Node7 -->
<g id="edge7" class="edge">
<title>Node3&#45;&gt;Node7</title>
<path fill="none" stroke="midnightblue" d="M899.17,-170.56C764.99,-162.23 525.94,-147.02 321.5,-132 317.16,-131.68 312.73,-131.35 308.25,-131.01"/>
<polygon fill="midnightblue" stroke="midnightblue" points="899.25,-174.07 909.45,-171.19 899.68,-167.08 899.25,-174.07"/>
</g>
<!-- Node9 -->
<g id="node9" class="node">
<title>Node9</title>
<g id="a_node9"><a xlink:href="serve__directory_2main_8cpp.html" target="_top" xlink:title=" ">
<polygon fill="none" stroke="black" points="0,-0.5 0,-19.5 171,-19.5 171,-0.5 0,-0.5"/>
<text text-anchor="middle" x="85.5" y="-7.5" font-family="Helvetica,sans-Serif" font-size="10.00">examples/serve_directory/main.cpp</text>
</a>
</g>
</g>
<!-- Node3&#45;&gt;Node9 -->
<g id="edge10" class="edge">
<title>Node3&#45;&gt;Node9</title>
<path fill="none" stroke="midnightblue" d="M899.31,-175.07C668.12,-170.38 133.79,-156.89 103.5,-132 69.53,-104.09 78.73,-42.2 83.49,-19.53"/>
<polygon fill="midnightblue" stroke="midnightblue" points="899.35,-178.57 909.42,-175.27 899.49,-171.57 899.35,-178.57"/>
</g>
<!-- Node10 -->
<g id="node10" class="node">
<title>Node10</title>
<g id="a_node10"><a xlink:href="simple__server_2main_8cpp.html" target="_top" xlink:title=" ">
<polygon fill="none" stroke="black" points="291,-0.5 291,-19.5 456,-19.5 456,-0.5 291,-0.5"/>
<text text-anchor="middle" x="373.5" y="-7.5" font-family="Helvetica,sans-Serif" font-size="10.00">examples/simple_server/main.cpp</text>
</a>
</g>
</g>
<!-- Node3&#45;&gt;Node10 -->
<g id="edge11" class="edge">
<title>Node3&#45;&gt;Node10</title>
<path fill="none" stroke="midnightblue" d="M899.13,-175.8C734.37,-172.96 430.54,-163.47 392.5,-132 358.59,-103.94 367.09,-42.15 371.59,-19.52"/>
<polygon fill="midnightblue" stroke="midnightblue" points="899.24,-179.3 909.3,-175.97 899.36,-172.3 899.24,-179.3"/>
</g>
<!-- Node11 -->
<g id="node11" class="node">
<title>Node11</title>
<g id="a_node11"><a xlink:href="examples_2simple__server_2request__listener_8hpp.html" target="_top" xlink:title=" ">
<polygon fill="none" stroke="black" points="402,-112.5 402,-131.5 615,-131.5 615,-112.5 402,-112.5"/>
<text text-anchor="middle" x="508.5" y="-119.5" font-family="Helvetica,sans-Serif" font-size="10.00">examples/simple_server/request_listener.hpp</text>
</a>
</g>
</g>
<!-- Node3&#45;&gt;Node11 -->
<g id="edge12" class="edge">
<title>Node3&#45;&gt;Node11</title>
<path fill="none" stroke="midnightblue" d="M916.17,-167.38C822.63,-157.2 676.37,-141.28 586.82,-131.53"/>
<polygon fill="midnightblue" stroke="midnightblue" points="915.86,-170.87 926.18,-168.47 916.62,-163.91 915.86,-170.87"/>
</g>
<!-- Node13 -->
<g id="node13" class="node">
<title>Node13</title>
<g id="a_node13"><a xlink:href="websocket_2main_8cpp.html" target="_top" xlink:title=" ">
<polygon fill="none" stroke="black" points="605.5,-0.5 605.5,-19.5 757.5,-19.5 757.5,-0.5 605.5,-0.5"/>
<text text-anchor="middle" x="681.5" y="-7.5" font-family="Helvetica,sans-Serif" font-size="10.00">examples/websocket/main.cpp</text>
</a>
</g>
</g>
<!-- Node3&#45;&gt;Node13 -->
<g id="edge15" class="edge">
<title>Node3&#45;&gt;Node13</title>
<path fill="none" stroke="midnightblue" d="M899.25,-173.49C823.36,-168.79 729.42,-157.78 700.5,-132 667.8,-102.85 675.42,-42.26 679.65,-19.71"/>
<polygon fill="midnightblue" stroke="midnightblue" points="899.16,-177 909.35,-174.09 899.58,-170.01 899.16,-177"/>
</g>
<!-- Node14 -->
<g id="node14" class="node">
<title>Node14</title>
<g id="a_node14"><a xlink:href="examples_2websocket_2request__listener_8hpp.html" target="_top" xlink:title=" ">
<polygon fill="none" stroke="black" points="709.5,-112.5 709.5,-131.5 909.5,-131.5 909.5,-112.5 709.5,-112.5"/>
<text text-anchor="middle" x="809.5" y="-119.5" font-family="Helvetica,sans-Serif" font-size="10.00">examples/websocket/request_listener.hpp</text>
</a>
</g>
</g>
<!-- Node3&#45;&gt;Node14 -->
<g id="edge16" class="edge">
<title>Node3&#45;&gt;Node14</title>
<path fill="none" stroke="midnightblue" d="M963.69,-165.7C926.89,-155.51 873.57,-140.74 840.25,-131.52"/>
<polygon fill="midnightblue" stroke="midnightblue" points="963.03,-169.15 973.6,-168.44 964.9,-162.4 963.03,-169.15"/>
</g>
<!-- Node16 -->
<g id="node16" class="node">
<title>Node16</title>
<g id="a_node16"><a xlink:href="directory__server_8hpp.html" target="_top" xlink:title=" ">
<polygon fill="none" stroke="black" points="1270,-112.5 1270,-131.5 1501,-131.5 1501,-112.5 1270,-112.5"/>
<text text-anchor="middle" x="1385.5" y="-119.5" font-family="Helvetica,sans-Serif" font-size="10.00">include/roar/directory_server/directory_server.hpp</text>
</a>
</g>
</g>
<!-- Node3&#45;&gt;Node16 -->
<g id="edge19" class="edge">
<title>Node3&#45;&gt;Node16</title>
<path fill="none" stroke="midnightblue" d="M1075.2,-166.98C1147.17,-156.78 1257.53,-141.14 1325.41,-131.52"/>
<polygon fill="midnightblue" stroke="midnightblue" points="1074.28,-163.57 1064.87,-168.44 1075.26,-170.51 1074.28,-163.57"/>
</g>
<!-- Node3&#45;&gt;Node17 -->
<g id="edge28" class="edge">
<title>Node3&#45;&gt;Node17</title>
<path fill="none" stroke="midnightblue" d="M1082.29,-166.81C1123.42,-159.88 1174.22,-148.83 1217.5,-132 1255.95,-117.04 1296.6,-89.51 1315.95,-75.57"/>
<polygon fill="midnightblue" stroke="midnightblue" points="1081.62,-163.37 1072.32,-168.44 1082.75,-170.28 1081.62,-163.37"/>
</g>
<!-- Node19 -->
<g id="node19" class="node">
<title>Node19</title>
<g id="a_node19"><a xlink:href="src_2roar_2routing_2request__listener_8cpp.html" target="_top" xlink:title=" ">
<polygon fill="none" stroke="black" points="900,-0.5 900,-19.5 1073,-19.5 1073,-0.5 900,-0.5"/>
<text text-anchor="middle" x="986.5" y="-7.5" font-family="Helvetica,sans-Serif" font-size="10.00">src/roar/routing/request_listener.cpp</text>
</a>
</g>
</g>
<!-- Node3&#45;&gt;Node19 -->
<g id="edge29" class="edge">
<title>Node3&#45;&gt;Node19</title>
<path fill="none" stroke="midnightblue" d="M981.86,-162.26C972.12,-154.54 961.77,-144.16 956.5,-132 943.07,-101.01 946.71,-88.33 956.5,-56 960.74,-41.98 970.96,-28.34 978.29,-19.82"/>
<polygon fill="midnightblue" stroke="midnightblue" points="980,-165.23 990.13,-168.33 984.14,-159.59 980,-165.23"/>
</g>
<!-- Node5&#45;&gt;Node4 -->
<g id="edge5" class="edge">
<title>Node5&#45;&gt;Node4</title>
<path fill="none" stroke="midnightblue" d="M1119.3,-109.56C1141.08,-102.61 1165.94,-91.92 1184.5,-76 1202.76,-60.34 1214.4,-33.61 1219.51,-19.82"/>
<polygon fill="midnightblue" stroke="midnightblue" points="1118.12,-106.26 1109.55,-112.5 1120.14,-112.97 1118.12,-106.26"/>
</g>
<!-- Node6 -->
<g id="node6" class="node">
<title>Node6</title>
<g id="a_node6"><a xlink:href="examples_2100__continue_2request__listener_8cpp.html" target="_top" xlink:title=" ">
<polygon fill="none" stroke="black" points="965.5,-56.5 965.5,-75.5 1175.5,-75.5 1175.5,-56.5 965.5,-56.5"/>
<text text-anchor="middle" x="1070.5" y="-63.5" font-family="Helvetica,sans-Serif" font-size="10.00">examples/100_continue/request_listener.cpp</text>
</a>
</g>
</g>
<!-- Node5&#45;&gt;Node6 -->
<g id="edge6" class="edge">
<title>Node5&#45;&gt;Node6</title>
<path fill="none" stroke="midnightblue" d="M1070.5,-101.8C1070.5,-92.91 1070.5,-82.78 1070.5,-75.75"/>
<polygon fill="midnightblue" stroke="midnightblue" points="1067,-102.08 1070.5,-112.08 1074,-102.08 1067,-102.08"/>
</g>
<!-- Node8 -->
<g id="node8" class="node">
<title>Node8</title>
<g id="a_node8"><a xlink:href="file__server_8cpp.html" target="_top" xlink:title=" ">
<polygon fill="none" stroke="black" points="113,-56.5 113,-75.5 308,-75.5 308,-56.5 113,-56.5"/>
<text text-anchor="middle" x="210.5" y="-63.5" font-family="Helvetica,sans-Serif" font-size="10.00">examples/serve_directory/file_server.cpp</text>
</a>
</g>
</g>
<!-- Node7&#45;&gt;Node8 -->
<g id="edge8" class="edge">
<title>Node7&#45;&gt;Node8</title>
<path fill="none" stroke="midnightblue" d="M210.5,-101.8C210.5,-92.91 210.5,-82.78 210.5,-75.75"/>
<polygon fill="midnightblue" stroke="midnightblue" points="207,-102.08 210.5,-112.08 214,-102.08 207,-102.08"/>
</g>
<!-- Node7&#45;&gt;Node9 -->
<g id="edge9" class="edge">
<title>Node7&#45;&gt;Node9</title>
<path fill="none" stroke="midnightblue" d="M158.15,-109.37C138.58,-102.61 117.68,-92.12 103.5,-76 89.27,-59.82 86.2,-33.32 85.59,-19.69"/>
<polygon fill="midnightblue" stroke="midnightblue" points="157.33,-112.79 167.92,-112.49 159.46,-106.12 157.33,-112.79"/>
</g>
<!-- Node11&#45;&gt;Node10 -->
<g id="edge13" class="edge">
<title>Node11&#45;&gt;Node10</title>
<path fill="none" stroke="midnightblue" d="M449.94,-109.59C429.33,-102.91 407.57,-92.42 392.5,-76 377.87,-60.06 374.46,-33.46 373.69,-19.75"/>
<polygon fill="midnightblue" stroke="midnightblue" points="449.03,-112.97 459.62,-112.48 451.04,-106.26 449.03,-112.97"/>
</g>
<!-- Node12 -->
<g id="node12" class="node">
<title>Node12</title>
<g id="a_node12"><a xlink:href="examples_2simple__server_2request__listener_8cpp.html" target="_top" xlink:title=" ">
<polygon fill="none" stroke="black" points="402,-56.5 402,-75.5 615,-75.5 615,-56.5 402,-56.5"/>
<text text-anchor="middle" x="508.5" y="-63.5" font-family="Helvetica,sans-Serif" font-size="10.00">examples/simple_server/request_listener.cpp</text>
</a>
</g>
</g>
<!-- Node11&#45;&gt;Node12 -->
<g id="edge14" class="edge">
<title>Node11&#45;&gt;Node12</title>
<path fill="none" stroke="midnightblue" d="M508.5,-101.8C508.5,-92.91 508.5,-82.78 508.5,-75.75"/>
<polygon fill="midnightblue" stroke="midnightblue" points="505,-102.08 508.5,-112.08 512,-102.08 505,-102.08"/>
</g>
<!-- Node14&#45;&gt;Node13 -->
<g id="edge17" class="edge">
<title>Node14&#45;&gt;Node13</title>
<path fill="none" stroke="midnightblue" d="M756.1,-109.41C736.23,-102.66 715.02,-92.16 700.5,-76 686.04,-59.91 682.55,-33.37 681.73,-19.71"/>
<polygon fill="midnightblue" stroke="midnightblue" points="755.12,-112.77 765.71,-112.43 757.22,-106.09 755.12,-112.77"/>
</g>
<!-- Node15 -->
<g id="node15" class="node">
<title>Node15</title>
<g id="a_node15"><a xlink:href="examples_2websocket_2request__listener_8cpp.html" target="_top" xlink:title=" ">
<polygon fill="none" stroke="black" points="709.5,-56.5 709.5,-75.5 909.5,-75.5 909.5,-56.5 709.5,-56.5"/>
<text text-anchor="middle" x="809.5" y="-63.5" font-family="Helvetica,sans-Serif" font-size="10.00">examples/websocket/request_listener.cpp</text>
</a>
</g>
</g>
<!-- Node14&#45;&gt;Node15 -->
<g id="edge18" class="edge">
<title>Node14&#45;&gt;Node15</title>
<path fill="none" stroke="midnightblue" d="M809.5,-101.8C809.5,-92.91 809.5,-82.78 809.5,-75.75"/>
<polygon fill="midnightblue" stroke="midnightblue" points="806,-102.08 809.5,-112.08 813,-102.08 806,-102.08"/>
</g>
<!-- Node16&#45;&gt;Node17 -->
<g id="edge20" class="edge">
<title>Node16&#45;&gt;Node17</title>
<path fill="none" stroke="midnightblue" d="M1368.59,-105.25C1358.3,-95.67 1345.53,-83.79 1336.99,-75.83"/>
<polygon fill="midnightblue" stroke="midnightblue" points="1366.48,-108.07 1376.18,-112.32 1371.25,-102.95 1366.48,-108.07"/>
</g>
<!-- Node17&#45;&gt;Node4 -->
<g id="edge21" class="edge">
<title>Node17&#45;&gt;Node4</title>
<path fill="none" stroke="midnightblue" d="M1301.69,-51.73C1282.25,-41.73 1256.15,-28.31 1239.33,-19.65"/>
<polygon fill="midnightblue" stroke="midnightblue" points="1300.14,-54.86 1310.63,-56.32 1303.34,-48.64 1300.14,-54.86"/>
</g>
<!-- Node17&#45;&gt;Node9 -->
<g id="edge23" class="edge">
<title>Node17&#45;&gt;Node9</title>
<path fill="none" stroke="midnightblue" d="M1259.14,-60.38C1235.51,-58.86 1208.85,-57.25 1184.5,-56 783.38,-35.38 682.78,-37.21 281.5,-20 245.43,-18.45 205.62,-16.64 171.36,-15.06"/>
<polygon fill="midnightblue" stroke="midnightblue" points="1259.22,-63.89 1269.42,-61.04 1259.67,-56.9 1259.22,-63.89"/>
</g>
<!-- Node17&#45;&gt;Node10 -->
<g id="edge24" class="edge">
<title>Node17&#45;&gt;Node10</title>
<path fill="none" stroke="midnightblue" d="M1259.13,-60.59C1235.49,-59.1 1208.83,-57.44 1184.5,-56 918.27,-40.24 602.78,-23.2 456.11,-15.38"/>
<polygon fill="midnightblue" stroke="midnightblue" points="1259.21,-64.11 1269.41,-61.25 1259.65,-57.12 1259.21,-64.11"/>
</g>
<!-- Node17&#45;&gt;Node13 -->
<g id="edge25" class="edge">
<title>Node17&#45;&gt;Node13</title>
<path fill="none" stroke="midnightblue" d="M1259.02,-59.28C1137.4,-49.11 884.56,-27.97 757.64,-17.36"/>
<polygon fill="midnightblue" stroke="midnightblue" points="1259.06,-62.79 1269.32,-60.14 1259.64,-55.82 1259.06,-62.79"/>
</g>
<!-- Node18 -->
<g id="node18" class="node">
<title>Node18</title>
<g id="a_node18"><a xlink:href="most__minimal_2main_8cpp.html" target="_top" xlink:title=" ">
<polygon fill="none" stroke="black" points="1322,-0.5 1322,-19.5 1487,-19.5 1487,-0.5 1322,-0.5"/>
<text text-anchor="middle" x="1404.5" y="-7.5" font-family="Helvetica,sans-Serif" font-size="10.00">examples/most_minimal/main.cpp</text>
</a>
</g>
</g>
<!-- Node17&#45;&gt;Node18 -->
<g id="edge22" class="edge">
<title>Node17&#45;&gt;Node18</title>
<path fill="none" stroke="midnightblue" d="M1348.4,-50.34C1362.41,-40.52 1380.38,-27.91 1392.16,-19.65"/>
<polygon fill="midnightblue" stroke="midnightblue" points="1346.05,-47.72 1339.87,-56.32 1350.07,-53.45 1346.05,-47.72"/>
</g>
<!-- Node17&#45;&gt;Node19 -->
<g id="edge26" class="edge">
<title>Node17&#45;&gt;Node19</title>
<path fill="none" stroke="midnightblue" d="M1263.43,-54.85C1199,-44.65 1100.78,-29.1 1040.28,-19.52"/>
<polygon fill="midnightblue" stroke="midnightblue" points="1263.04,-58.34 1273.47,-56.44 1264.14,-51.42 1263.04,-58.34"/>
</g>
<!-- Node20 -->
<g id="node20" class="node">
<title>Node20</title>
<g id="a_node20"><a xlink:href="server_8cpp.html" target="_top" xlink:title=" ">
<polygon fill="none" stroke="black" points="1712.5,-0.5 1712.5,-19.5 1810.5,-19.5 1810.5,-0.5 1712.5,-0.5"/>
<text text-anchor="middle" x="1761.5" y="-7.5" font-family="Helvetica,sans-Serif" font-size="10.00">src/roar/server.cpp</text>
</a>
</g>
</g>
<!-- Node17&#45;&gt;Node20 -->
<g id="edge27" class="edge">
<title>Node17&#45;&gt;Node20</title>
<path fill="none" stroke="midnightblue" d="M1395.74,-56.51C1483.82,-45.55 1634.94,-26.75 1712.47,-17.1"/>
<polygon fill="midnightblue" stroke="midnightblue" points="1395.07,-53.07 1385.58,-57.77 1395.94,-60.01 1395.07,-53.07"/>
</g>
<!-- Node22 -->
<g id="node22" class="node">
<title>Node22</title>
<g id="a_node22"><a xlink:href="route_8cpp.html" target="_top" xlink:title=" ">
<polygon fill="none" stroke="black" points="2134,-168.5 2134,-187.5 2259,-187.5 2259,-168.5 2134,-168.5"/>
<text text-anchor="middle" x="2196.5" y="-175.5" font-family="Helvetica,sans-Serif" font-size="10.00">src/roar/routing/route.cpp</text>
</a>
</g>
</g>
<!-- Node21&#45;&gt;Node22 -->
<g id="edge31" class="edge">
<title>Node21&#45;&gt;Node22</title>
<path fill="none" stroke="midnightblue" d="M2083.98,-220.91C2111.24,-210.75 2149.49,-196.51 2173.63,-187.52"/>
<polygon fill="midnightblue" stroke="midnightblue" points="2082.63,-217.67 2074.48,-224.44 2085.07,-224.23 2082.63,-217.67"/>
</g>
<!-- Node23 -->
<g id="node23" class="node">
<title>Node23</title>
<g id="a_node23"><a xlink:href="router_8cpp.html" target="_top" xlink:title=" ">
<polygon fill="none" stroke="black" points="1987.5,-168.5 1987.5,-187.5 2115.5,-187.5 2115.5,-168.5 1987.5,-168.5"/>
<text text-anchor="middle" x="2051.5" y="-175.5" font-family="Helvetica,sans-Serif" font-size="10.00">src/roar/routing/router.cpp</text>
</a>
</g>
</g>
<!-- Node21&#45;&gt;Node23 -->
<g id="edge32" class="edge">
<title>Node21&#45;&gt;Node23</title>
<path fill="none" stroke="midnightblue" d="M2051.5,-213.8C2051.5,-204.91 2051.5,-194.78 2051.5,-187.75"/>
<polygon fill="midnightblue" stroke="midnightblue" points="2048,-214.08 2051.5,-224.08 2055,-214.08 2048,-214.08"/>
</g>
<!-- Node24&#45;&gt;Node20 -->
<g id="edge35" class="edge">
<title>Node24&#45;&gt;Node20</title>
<path fill="none" stroke="midnightblue" d="M1904.74,-219.81C1926.49,-208.2 1950.37,-189.79 1940.5,-168 1906.47,-92.88 1816.77,-39.5 1778.84,-19.59"/>
<polygon fill="midnightblue" stroke="midnightblue" points="1903.04,-216.75 1895.66,-224.35 1906.17,-223.01 1903.04,-216.75"/>
</g>
<!-- Node24&#45;&gt;Node23 -->
<g id="edge34" class="edge">
<title>Node24&#45;&gt;Node23</title>
<path fill="none" stroke="midnightblue" d="M1912.4,-221.44C1945.78,-211.26 1993.6,-196.66 2023.59,-187.52"/>
<polygon fill="midnightblue" stroke="midnightblue" points="1911.09,-218.18 1902.55,-224.44 1913.13,-224.87 1911.09,-218.18"/>
</g>
<!-- Node25 -->
<g id="node25" class="node">
<title>Node25</title>
<g id="a_node25"><a xlink:href="session_8cpp.html" target="_top" xlink:title=" ">
<polygon fill="none" stroke="black" points="1789.5,-168.5 1789.5,-187.5 1931.5,-187.5 1931.5,-168.5 1789.5,-168.5"/>
<text text-anchor="middle" x="1860.5" y="-175.5" font-family="Helvetica,sans-Serif" font-size="10.00">src/roar/session/session.cpp</text>
</a>
</g>
</g>
<!-- Node24&#45;&gt;Node25 -->
<g id="edge36" class="edge">
<title>Node24&#45;&gt;Node25</title>
<path fill="none" stroke="midnightblue" d="M1869.68,-214.4C1867.33,-205.36 1864.63,-194.94 1862.77,-187.75"/>
<polygon fill="midnightblue" stroke="midnightblue" points="1866.29,-215.28 1872.19,-224.08 1873.07,-213.52 1866.29,-215.28"/>
</g>
<!-- Node26&#45;&gt;Node3 -->
<g id="edge40" class="edge">
<title>Node26&#45;&gt;Node3</title>
<path fill="none" stroke="midnightblue" d="M1574.64,-225.65C1450.27,-215.47 1226.67,-197.18 1099.59,-186.78"/>
<polygon fill="midnightblue" stroke="midnightblue" points="1574.64,-229.16 1584.89,-226.49 1575.21,-222.18 1574.64,-229.16"/>
</g>
<!-- Node26&#45;&gt;Node16 -->
<g id="edge39" class="edge">
<title>Node26&#45;&gt;Node16</title>
<path fill="none" stroke="midnightblue" d="M1633.01,-220.59C1575.85,-198.05 1456.39,-150.95 1407.29,-131.59"/>
<polygon fill="midnightblue" stroke="midnightblue" points="1632.02,-223.96 1642.61,-224.37 1634.59,-217.44 1632.02,-223.96"/>
</g>
<!-- Node26&#45;&gt;Node17 -->
<g id="edge41" class="edge">
<title>Node26&#45;&gt;Node17</title>
<path fill="none" stroke="midnightblue" d="M1633.7,-220C1618.19,-212.35 1599.9,-201.51 1586.5,-188 1559.17,-160.44 1574.84,-134.88 1543.5,-112 1518.79,-93.96 1440.81,-80.91 1385.66,-73.65"/>
<polygon fill="midnightblue" stroke="midnightblue" points="1632.38,-223.25 1642.92,-224.35 1635.37,-216.92 1632.38,-223.25"/>
</g>
<!-- Node26&#45;&gt;Node20 -->
<g id="edge44" class="edge">
<title>Node26&#45;&gt;Node20</title>
<path fill="none" stroke="midnightblue" d="M1700.62,-220.37C1715.7,-213.23 1731.91,-202.72 1741.5,-188 1777.44,-132.8 1767.42,-46.92 1763.04,-19.63"/>
<polygon fill="midnightblue" stroke="midnightblue" points="1699.2,-217.17 1691.44,-224.39 1702.01,-223.59 1699.2,-217.17"/>
</g>
<!-- Node26&#45;&gt;Node22 -->
<g id="edge42" class="edge">
<title>Node26&#45;&gt;Node22</title>
<path fill="none" stroke="midnightblue" d="M1754.54,-224.91C1847.33,-216.41 1996.13,-202.3 2124.5,-188 2127.5,-187.67 2130.58,-187.31 2133.68,-186.95"/>
<polygon fill="midnightblue" stroke="midnightblue" points="1753.98,-221.45 1744.34,-225.84 1754.62,-228.42 1753.98,-221.45"/>
</g>
<!-- Node26&#45;&gt;Node23 -->
<g id="edge43" class="edge">
<title>Node26&#45;&gt;Node23</title>
<path fill="none" stroke="midnightblue" d="M1735.87,-223.04C1808.96,-212.84 1921.38,-197.16 1990.47,-187.52"/>
<polygon fill="midnightblue" stroke="midnightblue" points="1735.24,-219.6 1725.82,-224.44 1736.21,-226.53 1735.24,-219.6"/>
</g>
<!-- Node26&#45;&gt;Node25 -->
<g id="edge46" class="edge">
<title>Node26&#45;&gt;Node25</title>
<path fill="none" stroke="midnightblue" d="M1705.52,-221.7C1742.51,-211.51 1796.1,-196.74 1829.59,-187.52"/>
<polygon fill="midnightblue" stroke="midnightblue" points="1704.27,-218.41 1695.56,-224.44 1706.13,-225.16 1704.27,-218.41"/>
</g>
<!-- Node27 -->
<g id="node27" class="node">
<title>Node27</title>
<g id="a_node27"><a xlink:href="factory_8cpp.html" target="_top" xlink:title=" ">
<polygon fill="none" stroke="black" points="1596,-168.5 1596,-187.5 1733,-187.5 1733,-168.5 1596,-168.5"/>
<text text-anchor="middle" x="1664.5" y="-175.5" font-family="Helvetica,sans-Serif" font-size="10.00">src/roar/session/factory.cpp</text>
</a>
</g>
</g>
<!-- Node26&#45;&gt;Node27 -->
<g id="edge45" class="edge">
<title>Node26&#45;&gt;Node27</title>
<path fill="none" stroke="midnightblue" d="M1664.5,-213.8C1664.5,-204.91 1664.5,-194.78 1664.5,-187.75"/>
<polygon fill="midnightblue" stroke="midnightblue" points="1661,-214.08 1664.5,-224.08 1668,-214.08 1661,-214.08"/>
</g>
</g>
</svg>
        <g id="navigator" transform="translate(0 0)" fill="#404254">
                <rect fill="#f2f5e9" fill-opacity="0.5" stroke="#606060" stroke-width=".5" x="0" y="0" width="60" height="60"/>
                <use id="zoomplus" xlink:href="#zoomPlus" x="17" y="9" onmousedown="handleZoom(evt,'in')"/>
                <use id="zoomminus" xlink:href="#zoomMin" x="42" y="9" onmousedown="handleZoom(evt,'out')"/>
                <use id="reset" xlink:href="#resetDef" x="30" y="36" onmousedown="handleReset()"/>
                <g id="arrowUp" xlink:href="#dirArrow" transform="translate(30 24)" onmousedown="handlePan(0,-1)">
                  <use xlink:href="#rim" fill="#404040">
                        <set attributeName="fill" to="#808080" begin="arrowUp.mouseover" end="arrowUp.mouseout"/>
                  </use>
                  <path fill="none" stroke="white" stroke-width="1.5" d="M0,-3.0v7 M-2.5,-0.5L0,-3.0L2.5,-0.5"/>
                </g>
                <g id="arrowRight" xlink:href="#dirArrow" transform="rotate(90) translate(36 -43)" onmousedown="handlePan(1,0)">
                  <use xlink:href="#rim" fill="#404040">
                        <set attributeName="fill" to="#808080" begin="arrowRight.mouseover" end="arrowRight.mouseout"/>
                  </use>
                  <path fill="none" stroke="white" stroke-width="1.5" d="M0,-3.0v7 M-2.5,-0.5L0,-3.0L2.5,-0.5"/>
                </g>
                <g id="arrowDown" xlink:href="#dirArrow" transform="rotate(180) translate(-30 -48)" onmousedown="handlePan(0,1)">
                  <use xlink:href="#rim" fill="#404040">
                        <set attributeName="fill" to="#808080" begin="arrowDown.mouseover" end="arrowDown.mouseout"/>
                  </use>
                  <path fill="none" stroke="white" stroke-width="1.5" d="M0,-3.0v7 M-2.5,-0.5L0,-3.0L2.5,-0.5"/>
                </g>
                <g id="arrowLeft" xlink:href="#dirArrow" transform="rotate(270) translate(-36 17)" onmousedown="handlePan(-1,0)">
                  <use xlink:href="#rim" fill="#404040">
                        <set attributeName="fill" to="#808080" begin="arrowLeft.mouseover" end="arrowLeft.mouseout"/>
                  </use>
                  <path fill="none" stroke="white" stroke-width="1.5" d="M0,-3.0v7 M-2.5,-0.5L0,-3.0L2.5,-0.5"/>
                </g>
        </g>
        <svg viewBox="0 0 15 15" width="100%" height="30px" preserveAspectRatio="xMaxYMin meet">
         <g id="arrow_out" transform="scale(0.3 0.3)">
          <a xlink:href="regex_8hpp__dep__incl_org.svg" target="_base">
           <rect id="button" ry="5" rx="5" y="6" x="6" height="38" width="38"
                fill="#f2f5e9" fill-opacity="0.5" stroke="#606060" stroke-width="1.0"/>
           <path id="arrow"
             d="M 11.500037,31.436501 C 11.940474,20.09759 22.043105,11.32322 32.158766,21.979434 L 37.068811,17.246167 C 37.068811,17.246167 37.088388,32 37.088388,32 L 22.160133,31.978069 C 22.160133,31.978069 26.997745,27.140456 26.997745,27.140456 C 18.528582,18.264221 13.291696,25.230495 11.500037,31.436501 z"
             style="fill:#404040;"/>
          </a>
         </g>
        </svg>
</svg>
