<?xml version="1.0" encoding="UTF-8" standalone="no"?>
<!DOCTYPE svg PUBLIC "-//W3C//DTD SVG 1.1//EN"
 "http://www.w3.org/Graphics/SVG/1.1/DTD/svg11.dtd">
<!-- Generated by graphviz version 2.44.1 (20211215.1903)
 -->
<!-- Title: include/roar/literals/regex.hpp Pages: 1 -->
<svg width="2298pt" height="364pt"
 viewBox="0.00 0.00 2297.60 364.00" xmlns="http://www.w3.org/2000/svg" xmlns:xlink="http://www.w3.org/1999/xlink">
<g id="graph0" class="graph" transform="scale(1 1) rotate(0) translate(4 360)">
<title>include/roar/literals/regex.hpp</title>
<!-- Node1 -->
<g id="node1" class="node">
<title>Node1</title>
<g id="a_node1"><a xlink:title=" ">
<polygon fill="#bfbfbf" stroke="black" points="1335.6,-336.5 1335.6,-355.5 1479.6,-355.5 1479.6,-336.5 1335.6,-336.5"/>
<text text-anchor="middle" x="1407.6" y="-343.5" font-family="Helvetica,sans-Serif" font-size="10.00">include/roar/literals/regex.hpp</text>
</a>
</g>
</g>
<!-- Node2 -->
<g id="node2" class="node">
<title>Node2</title>
<g id="a_node2"><a xlink:href="proto__route_8hpp.html" target="_top" xlink:title=" ">
<polygon fill="none" stroke="black" points="1522.6,-280.5 1522.6,-299.5 1692.6,-299.5 1692.6,-280.5 1522.6,-280.5"/>
<text text-anchor="middle" x="1607.6" y="-287.5" font-family="Helvetica,sans-Serif" font-size="10.00">include/roar/routing/proto_route.hpp</text>
</a>
</g>
</g>
<!-- Node1&#45;&gt;Node2 -->
<g id="edge1" class="edge">
<title>Node1&#45;&gt;Node2</title>
<path fill="none" stroke="midnightblue" d="M1448.98,-333.83C1486.74,-323.63 1541.74,-308.78 1576.06,-299.52"/>
<polygon fill="midnightblue" stroke="midnightblue" points="1448.03,-330.46 1439.29,-336.44 1449.86,-337.22 1448.03,-330.46"/>
</g>
<!-- Node3 -->
<g id="node3" class="node">
<title>Node3</title>
<g id="a_node3"><a xlink:href="include_2roar_2routing_2request__listener_8hpp.html" target="_top" xlink:title=" ">
<polygon fill="none" stroke="black" points="972.6,-168.5 972.6,-187.5 1162.6,-187.5 1162.6,-168.5 972.6,-168.5"/>
<text text-anchor="middle" x="1067.6" y="-175.5" font-family="Helvetica,sans-Serif" font-size="10.00">include/roar/routing/request_listener.hpp</text>
</a>
</g>
</g>
<!-- Node1&#45;&gt;Node3 -->
<g id="edge48" class="edge">
<title>Node1&#45;&gt;Node3</title>
<path fill="none" stroke="midnightblue" d="M1380.72,-331.87C1313.77,-299.19 1140.98,-214.83 1085.23,-187.61"/>
<polygon fill="midnightblue" stroke="midnightblue" points="1379.28,-335.07 1389.8,-336.31 1382.35,-328.78 1379.28,-335.07"/>
</g>
<!-- Node2&#45;&gt;Node3 -->
<g id="edge2" class="edge">
<title>Node2&#45;&gt;Node3</title>
<path fill="none" stroke="midnightblue" d="M1555.79,-278.45C1449.18,-256.73 1207.06,-207.41 1109.5,-187.53"/>
<polygon fill="midnightblue" stroke="midnightblue" points="1555.18,-281.89 1565.68,-280.46 1556.58,-275.03 1555.18,-281.89"/>
</g>
<!-- Node18 -->
<g id="node18" class="node">
<title>Node18</title>
<g id="a_node18"><a xlink:href="server_8hpp.html" target="_top" xlink:title=" ">
<polygon fill="none" stroke="black" points="1298.6,-56.5 1298.6,-75.5 1414.6,-75.5 1414.6,-56.5 1298.6,-56.5"/>
<text text-anchor="middle" x="1356.6" y="-63.5" font-family="Helvetica,sans-Serif" font-size="10.00">include/roar/server.hpp</text>
</a>
</g>
</g>
<!-- Node2&#45;&gt;Node18 -->
<g id="edge38" class="edge">
<title>Node2&#45;&gt;Node18</title>
<path fill="none" stroke="midnightblue" d="M1601.74,-270.91C1589.22,-235.14 1556.47,-155.12 1501.6,-112 1476.73,-92.46 1443.32,-81.35 1414.83,-75.06"/>
<polygon fill="midnightblue" stroke="midnightblue" points="1598.46,-272.14 1604.98,-280.5 1605.09,-269.9 1598.46,-272.14"/>
</g>
<!-- Node22 -->
<g id="node22" class="node">
<title>Node22</title>
<g id="a_node22"><a xlink:href="route_8hpp.html" target="_top" xlink:title=" ">
<polygon fill="none" stroke="black" points="1982.1,-224.5 1982.1,-243.5 2125.1,-243.5 2125.1,-224.5 1982.1,-224.5"/>
<text text-anchor="middle" x="2053.6" y="-231.5" font-family="Helvetica,sans-Serif" font-size="10.00">include/roar/routing/route.hpp</text>
</a>
</g>
</g>
<!-- Node2&#45;&gt;Node22 -->
<g id="edge31" class="edge">
<title>Node2&#45;&gt;Node22</title>
<path fill="none" stroke="midnightblue" d="M1688.3,-279.23C1772.49,-269.04 1903.15,-253.22 1983.26,-243.52"/>
<polygon fill="midnightblue" stroke="midnightblue" points="1687.78,-275.77 1678.27,-280.44 1688.62,-282.72 1687.78,-275.77"/>
</g>
<!-- Node25 -->
<g id="node25" class="node">
<title>Node25</title>
<g id="a_node25"><a xlink:href="router_8hpp.html" target="_top" xlink:title=" ">
<polygon fill="none" stroke="black" points="1817.6,-224.5 1817.6,-243.5 1963.6,-243.5 1963.6,-224.5 1817.6,-224.5"/>
<text text-anchor="middle" x="1890.6" y="-231.5" font-family="Helvetica,sans-Serif" font-size="10.00">include/roar/routing/router.hpp</text>
</a>
</g>
</g>
<!-- Node2&#45;&gt;Node25 -->
<g id="edge34" class="edge">
<title>Node2&#45;&gt;Node25</title>
<path fill="none" stroke="midnightblue" d="M1662.44,-278.54C1715.92,-268.33 1796.27,-253 1845.97,-243.52"/>
<polygon fill="midnightblue" stroke="midnightblue" points="1661.61,-275.13 1652.44,-280.44 1662.92,-282.01 1661.61,-275.13"/>
</g>
<!-- Node27 -->
<g id="node27" class="node">
<title>Node27</title>
<g id="a_node27"><a xlink:href="session_8hpp.html" target="_top" xlink:title=" ">
<polygon fill="none" stroke="black" points="1615.1,-224.5 1615.1,-243.5 1774.1,-243.5 1774.1,-224.5 1615.1,-224.5"/>
<text text-anchor="middle" x="1694.6" y="-231.5" font-family="Helvetica,sans-Serif" font-size="10.00">include/roar/session/session.hpp</text>
</a>
</g>
</g>
<!-- Node2&#45;&gt;Node27 -->
<g id="edge39" class="edge">
<title>Node2&#45;&gt;Node27</title>
<path fill="none" stroke="midnightblue" d="M1630.32,-274.9C1646.27,-265 1667.1,-252.07 1680.66,-243.65"/>
<polygon fill="midnightblue" stroke="midnightblue" points="1628.23,-272.08 1621.58,-280.32 1631.92,-278.02 1628.23,-272.08"/>
</g>
<!-- Node4 -->
<g id="node4" class="node">
<title>Node4</title>
<g id="a_node4"><a xlink:href="100__continue_2main_8cpp.html" target="_top" xlink:title=" ">
<polygon fill="none" stroke="black" points="270.6,-0.5 270.6,-19.5 432.6,-19.5 432.6,-0.5 270.6,-0.5"/>
<text text-anchor="middle" x="351.6" y="-7.5" font-family="Helvetica,sans-Serif" font-size="10.00">examples/100_continue/main.cpp</text>
</a>
</g>
</g>
<!-- Node3&#45;&gt;Node4 -->
<g id="edge3" class="edge">
<title>Node3&#45;&gt;Node4</title>
<path fill="none" stroke="midnightblue" d="M962.14,-176.37C702.3,-174.29 49.91,-165.72 17.6,-132 -61.33,-49.61 148.24,-23.11 270.56,-14.75"/>
<polygon fill="midnightblue" stroke="midnightblue" points="962.32,-179.87 972.35,-176.45 962.37,-172.87 962.32,-179.87"/>
</g>
<!-- Node5 -->
<g id="node5" class="node">
<title>Node5</title>
<g id="a_node5"><a xlink:href="examples_2100__continue_2request__listener_8hpp.html" target="_top" xlink:title=" ">
<polygon fill="none" stroke="black" points="218.6,-112.5 218.6,-131.5 428.6,-131.5 428.6,-112.5 218.6,-112.5"/>
<text text-anchor="middle" x="323.6" y="-119.5" font-family="Helvetica,sans-Serif" font-size="10.00">examples/100_continue/request_listener.hpp</text>
</a>
</g>
</g>
<!-- Node3&#45;&gt;Node5 -->
<g id="edge4" class="edge">
<title>Node3&#45;&gt;Node5</title>
<path fill="none" stroke="midnightblue" d="M962.26,-169.72C837.14,-161.01 622.13,-145.87 437.6,-132 434.73,-131.78 431.82,-131.56 428.88,-131.34"/>
<polygon fill="midnightblue" stroke="midnightblue" points="962.38,-173.23 972.59,-170.44 962.86,-166.25 962.38,-173.23"/>
</g>
<!-- Node7 -->
<g id="node7" class="node">
<title>Node7</title>
<g id="a_node7"><a xlink:href="request__listener_2main_8cpp.html" target="_top" xlink:title=" ">
<polygon fill="none" stroke="black" points="27.1,-112.5 27.1,-131.5 200.1,-131.5 200.1,-112.5 27.1,-112.5"/>
<text text-anchor="middle" x="113.6" y="-119.5" font-family="Helvetica,sans-Serif" font-size="10.00">examples/request_listener/main.cpp</text>
</a>
</g>
</g>
<!-- Node3&#45;&gt;Node7 -->
<g id="edge7" class="edge">
<title>Node3&#45;&gt;Node7</title>
<path fill="none" stroke="midnightblue" d="M961.85,-172.85C799.81,-166.18 480.36,-151.78 209.6,-132 206.51,-131.77 203.37,-131.53 200.2,-131.28"/>
<polygon fill="midnightblue" stroke="midnightblue" points="962.16,-176.37 972.3,-173.28 962.45,-169.37 962.16,-176.37"/>
</g>
<!-- Node8 -->
<g id="node8" class="node">
<title>Node8</title>
<g id="a_node8"><a xlink:href="file__server_8hpp.html" target="_top" xlink:title=" ">
<polygon fill="none" stroke="black" points="754.1,-112.5 754.1,-131.5 949.1,-131.5 949.1,-112.5 754.1,-112.5"/>
<text text-anchor="middle" x="851.6" y="-119.5" font-family="Helvetica,sans-Serif" font-size="10.00">examples/serve_directory/file_server.hpp</text>
</a>
</g>
</g>
<!-- Node3&#45;&gt;Node8 -->
<g id="edge8" class="edge">
<title>Node3&#45;&gt;Node8</title>
<path fill="none" stroke="midnightblue" d="M1023.44,-165.96C982.64,-155.76 922.89,-140.82 885.67,-131.52"/>
<polygon fill="midnightblue" stroke="midnightblue" points="1022.83,-169.41 1033.38,-168.44 1024.52,-162.62 1022.83,-169.41"/>
</g>
<!-- Node10 -->
<g id="node10" class="node">
<title>Node10</title>
<g id="a_node10"><a xlink:href="serve__directory_2main_8cpp.html" target="_top" xlink:title=" ">
<polygon fill="none" stroke="black" points="891.1,-0.5 891.1,-19.5 1062.1,-19.5 1062.1,-0.5 891.1,-0.5"/>
<text text-anchor="middle" x="976.6" y="-7.5" font-family="Helvetica,sans-Serif" font-size="10.00">examples/serve_directory/main.cpp</text>
</a>
</g>
</g>
<!-- Node3&#45;&gt;Node10 -->
<g id="edge11" class="edge">
<title>Node3&#45;&gt;Node10</title>
<path fill="none" stroke="midnightblue" d="M962.31,-176.74C879.13,-174.03 772.55,-164.11 744.6,-132 722.43,-106.52 723.11,-82.06 744.6,-56 763.17,-33.49 832.73,-22.1 890.89,-16.42"/>
<polygon fill="midnightblue" stroke="midnightblue" points="962.23,-180.24 972.33,-177.04 962.44,-173.24 962.23,-180.24"/>
</g>
<!-- Node11 -->
<g id="node11" class="node">
<title>Node11</title>
<g id="a_node11"><a xlink:href="simple__server_2main_8cpp.html" target="_top" xlink:title=" ">
<polygon fill="none" stroke="black" points="606.1,-0.5 606.1,-19.5 771.1,-19.5 771.1,-0.5 606.1,-0.5"/>
<text text-anchor="middle" x="688.6" y="-7.5" font-family="Helvetica,sans-Serif" font-size="10.00">examples/simple_server/main.cpp</text>
</a>
</g>
</g>
<!-- Node3&#45;&gt;Node11 -->
<g id="edge12" class="edge">
<title>Node3&#45;&gt;Node11</title>
<path fill="none" stroke="midnightblue" d="M962.39,-175C876.32,-171.25 763.35,-160.78 728.6,-132 693.5,-102.93 688.99,-42.29 688.57,-19.72"/>
<polygon fill="midnightblue" stroke="midnightblue" points="962.35,-178.5 972.48,-175.42 962.63,-171.51 962.35,-178.5"/>
</g>
<!-- Node12 -->
<g id="node12" class="node">
<title>Node12</title>
<g id="a_node12"><a xlink:href="examples_2simple__server_2request__listener_8hpp.html" target="_top" xlink:title=" ">
<polygon fill="none" stroke="black" points="447.1,-112.5 447.1,-131.5 660.1,-131.5 660.1,-112.5 447.1,-112.5"/>
<text text-anchor="middle" x="553.6" y="-119.5" font-family="Helvetica,sans-Serif" font-size="10.00">examples/simple_server/request_listener.hpp</text>
</a>
</g>
</g>
<!-- Node3&#45;&gt;Node12 -->
<g id="edge13" class="edge">
<title>Node3&#45;&gt;Node12</title>
<path fill="none" stroke="midnightblue" d="M976.36,-167.41C879.44,-157.23 727.66,-141.29 634.76,-131.53"/>
<polygon fill="midnightblue" stroke="midnightblue" points="976.13,-170.91 986.44,-168.47 976.86,-163.95 976.13,-170.91"/>
</g>
<!-- Node14 -->
<g id="node14" class="node">
<title>Node14</title>
<g id="a_node14"><a xlink:href="websocket_2main_8cpp.html" target="_top" xlink:title=" ">
<polygon fill="none" stroke="black" points="1092.6,-0.5 1092.6,-19.5 1244.6,-19.5 1244.6,-0.5 1092.6,-0.5"/>
<text text-anchor="middle" x="1168.6" y="-7.5" font-family="Helvetica,sans-Serif" font-size="10.00">examples/websocket/main.cpp</text>
</a>
</g>
</g>
<!-- Node3&#45;&gt;Node14 -->
<g id="edge16" class="edge">
<title>Node3&#45;&gt;Node14</title>
<path fill="none" stroke="midnightblue" d="M1103.1,-164.91C1124.94,-156.86 1153.14,-145.33 1176.6,-132 1185.65,-126.86 1246.94,-85.3 1251.6,-76 1265.14,-49 1226.74,-29.8 1197.74,-19.57"/>
<polygon fill="midnightblue" stroke="midnightblue" points="1101.77,-161.67 1093.56,-168.36 1104.15,-168.25 1101.77,-161.67"/>
</g>
<!-- Node15 -->
<g id="node15" class="node">
<title>Node15</title>
<g id="a_node15"><a xlink:href="examples_2websocket_2request__listener_8hpp.html" target="_top" xlink:title=" ">
<polygon fill="none" stroke="black" points="967.6,-112.5 967.6,-131.5 1167.6,-131.5 1167.6,-112.5 967.6,-112.5"/>
<text text-anchor="middle" x="1067.6" y="-119.5" font-family="Helvetica,sans-Serif" font-size="10.00">examples/websocket/request_listener.hpp</text>
</a>
</g>
</g>
<!-- Node3&#45;&gt;Node15 -->
<g id="edge17" class="edge">
<title>Node3&#45;&gt;Node15</title>
<path fill="none" stroke="midnightblue" d="M1067.6,-157.8C1067.6,-148.91 1067.6,-138.78 1067.6,-131.75"/>
<polygon fill="midnightblue" stroke="midnightblue" points="1064.1,-158.08 1067.6,-168.08 1071.1,-158.08 1064.1,-158.08"/>
</g>
<!-- Node17 -->
<g id="node17" class="node">
<title>Node17</title>
<g id="a_node17"><a xlink:href="directory__server_8hpp.html" target="_top" xlink:title=" ">
<polygon fill="none" stroke="black" points="1262.1,-112.5 1262.1,-131.5 1493.1,-131.5 1493.1,-112.5 1262.1,-112.5"/>
<text text-anchor="middle" x="1377.6" y="-119.5" font-family="Helvetica,sans-Serif" font-size="10.00">include/roar/directory_server/directory_server.hpp</text>
</a>
</g>
</g>
<!-- Node3&#45;&gt;Node17 -->
<g id="edge20" class="edge">
<title>Node3&#45;&gt;Node17</title>
<path fill="none" stroke="midnightblue" d="M1126.94,-166.66C1185.52,-156.46 1274.05,-141.04 1328.71,-131.52"/>
<polygon fill="midnightblue" stroke="midnightblue" points="1125.97,-163.28 1116.72,-168.44 1127.17,-170.18 1125.97,-163.28"/>
</g>
<!-- Node3&#45;&gt;Node18 -->
<g id="edge29" class="edge">
<title>Node3&#45;&gt;Node18</title>
<path fill="none" stroke="midnightblue" d="M1108.14,-165.66C1136.81,-157.28 1175.97,-145.09 1209.6,-132 1229.24,-124.36 1233.37,-120.63 1252.6,-112 1281.5,-99.03 1315.18,-84.58 1336.2,-75.63"/>
<polygon fill="midnightblue" stroke="midnightblue" points="1107.1,-162.32 1098.47,-168.46 1109.05,-169.04 1107.1,-162.32"/>
</g>
<!-- Node20 -->
<g id="node20" class="node">
<title>Node20</title>
<g id="a_node20"><a xlink:href="src_2roar_2routing_2request__listener_8cpp.html" target="_top" xlink:title=" ">
<polygon fill="none" stroke="black" points="1446.1,-0.5 1446.1,-19.5 1619.1,-19.5 1619.1,-0.5 1446.1,-0.5"/>
<text text-anchor="middle" x="1532.6" y="-7.5" font-family="Helvetica,sans-Serif" font-size="10.00">src/roar/routing/request_listener.cpp</text>
</a>
</g>
</g>
<!-- Node3&#45;&gt;Node20 -->
<g id="edge30" class="edge">
<title>Node3&#45;&gt;Node20</title>
<path fill="none" stroke="midnightblue" d="M1172.66,-172.33C1293.11,-166.02 1477.17,-153.07 1501.6,-132 1535.43,-102.83 1534.89,-42.25 1533.39,-19.71"/>
<polygon fill="midnightblue" stroke="midnightblue" points="1172.47,-168.84 1162.66,-172.85 1172.83,-175.83 1172.47,-168.84"/>
</g>
<!-- Node5&#45;&gt;Node4 -->
<g id="edge5" class="edge">
<title>Node5&#45;&gt;Node4</title>
<path fill="none" stroke="midnightblue" d="M328.27,-102.67C334.39,-78.62 344.89,-37.39 349.42,-19.59"/>
<polygon fill="midnightblue" stroke="midnightblue" points="324.87,-101.81 325.8,-112.37 331.66,-103.54 324.87,-101.81"/>
</g>
<!-- Node6 -->
<g id="node6" class="node">
<title>Node6</title>
<g id="a_node6"><a xlink:href="examples_2100__continue_2request__listener_8cpp.html" target="_top" xlink:title=" ">
<polygon fill="none" stroke="black" points="113.6,-56.5 113.6,-75.5 323.6,-75.5 323.6,-56.5 113.6,-56.5"/>
<text text-anchor="middle" x="218.6" y="-63.5" font-family="Helvetica,sans-Serif" font-size="10.00">examples/100_continue/request_listener.cpp</text>
</a>
</g>
</g>
<!-- Node5&#45;&gt;Node6 -->
<g id="edge6" class="edge">
<title>Node5&#45;&gt;Node6</title>
<path fill="none" stroke="midnightblue" d="M297.79,-107.73C278.35,-97.73 252.25,-84.31 235.43,-75.65"/>
<polygon fill="midnightblue" stroke="midnightblue" points="296.24,-110.86 306.73,-112.32 299.44,-104.64 296.24,-110.86"/>
</g>
<!-- Node9 -->
<g id="node9" class="node">
<title>Node9</title>
<g id="a_node9"><a xlink:href="file__server_8cpp.html" target="_top" xlink:title=" ">
<polygon fill="none" stroke="black" points="754.1,-56.5 754.1,-75.5 949.1,-75.5 949.1,-56.5 754.1,-56.5"/>
<text text-anchor="middle" x="851.6" y="-63.5" font-family="Helvetica,sans-Serif" font-size="10.00">examples/serve_directory/file_server.cpp</text>
</a>
</g>
</g>
<!-- Node8&#45;&gt;Node9 -->
<g id="edge9" class="edge">
<title>Node8&#45;&gt;Node9</title>
<path fill="none" stroke="midnightblue" d="M851.6,-101.8C851.6,-92.91 851.6,-82.78 851.6,-75.75"/>
<polygon fill="midnightblue" stroke="midnightblue" points="848.1,-102.08 851.6,-112.08 855.1,-102.08 848.1,-102.08"/>
</g>
<!-- Node8&#45;&gt;Node10 -->
<g id="edge10" class="edge">
<title>Node8&#45;&gt;Node10</title>
<path fill="none" stroke="midnightblue" d="M902.88,-109.33C922.4,-102.54 943.34,-92.04 957.6,-76 971.98,-59.83 975.5,-33.33 976.35,-19.7"/>
<polygon fill="midnightblue" stroke="midnightblue" points="901.6,-106.06 893.16,-112.46 903.75,-112.73 901.6,-106.06"/>
</g>
<!-- Node12&#45;&gt;Node11 -->
<g id="edge14" class="edge">
<title>Node12&#45;&gt;Node11</title>
<path fill="none" stroke="midnightblue" d="M580.77,-107.82C596.15,-99.72 615.32,-88.5 630.6,-76 651.91,-58.57 672.24,-33.07 682.21,-19.79"/>
<polygon fill="midnightblue" stroke="midnightblue" points="579.04,-104.77 571.74,-112.45 582.24,-111 579.04,-104.77"/>
</g>
<!-- Node13 -->
<g id="node13" class="node">
<title>Node13</title>
<g id="a_node13"><a xlink:href="examples_2simple__server_2request__listener_8cpp.html" target="_top" xlink:title=" ">
<polygon fill="none" stroke="black" points="409.1,-56.5 409.1,-75.5 622.1,-75.5 622.1,-56.5 409.1,-56.5"/>
<text text-anchor="middle" x="515.6" y="-63.5" font-family="Helvetica,sans-Serif" font-size="10.00">examples/simple_server/request_listener.cpp</text>
</a>
</g>
</g>
<!-- Node12&#45;&gt;Node13 -->
<g id="edge15" class="edge">
<title>Node12&#45;&gt;Node13</title>
<path fill="none" stroke="midnightblue" d="M541.54,-103.86C534.96,-94.5 527.09,-83.33 521.76,-75.75"/>
<polygon fill="midnightblue" stroke="midnightblue" points="538.71,-105.92 547.33,-112.08 544.43,-101.89 538.71,-105.92"/>
</g>
<!-- Node15&#45;&gt;Node14 -->
<g id="edge18" class="edge">
<title>Node15&#45;&gt;Node14</title>
<path fill="none" stroke="midnightblue" d="M1049.32,-104.89C1036.11,-91.27 1022.4,-71.55 1033.6,-56 1047.47,-36.76 1069.92,-25.62 1092.57,-19.21"/>
<polygon fill="midnightblue" stroke="midnightblue" points="1047.21,-107.72 1056.85,-112.13 1052.06,-102.68 1047.21,-107.72"/>
</g>
<!-- Node16 -->
<g id="node16" class="node">
<title>Node16</title>
<g id="a_node16"><a xlink:href="examples_2websocket_2request__listener_8cpp.html" target="_top" xlink:title=" ">
<polygon fill="none" stroke="black" points="1042.6,-56.5 1042.6,-75.5 1242.6,-75.5 1242.6,-56.5 1042.6,-56.5"/>
<text text-anchor="middle" x="1142.6" y="-63.5" font-family="Helvetica,sans-Serif" font-size="10.00">examples/websocket/request_listener.cpp</text>
</a>
</g>
</g>
<!-- Node15&#45;&gt;Node16 -->
<g id="edge19" class="edge">
<title>Node15&#45;&gt;Node16</title>
<path fill="none" stroke="midnightblue" d="M1087.91,-106.38C1101.46,-96.62 1118.84,-84.11 1130.33,-75.83"/>
<polygon fill="midnightblue" stroke="midnightblue" points="1085.72,-103.64 1079.65,-112.32 1089.81,-109.32 1085.72,-103.64"/>
</g>
<!-- Node17&#45;&gt;Node18 -->
<g id="edge21" class="edge">
<title>Node17&#45;&gt;Node18</title>
<path fill="none" stroke="midnightblue" d="M1370.48,-102.69C1366.94,-93.59 1362.83,-83.01 1360.01,-75.75"/>
<polygon fill="midnightblue" stroke="midnightblue" points="1367.25,-104.03 1374.13,-112.08 1373.77,-101.49 1367.25,-104.03"/>
</g>
<!-- Node18&#45;&gt;Node4 -->
<g id="edge22" class="edge">
<title>Node18&#45;&gt;Node4</title>
<path fill="none" stroke="midnightblue" d="M1288.42,-58.8C1276.17,-57.79 1263.51,-56.81 1251.6,-56 949.77,-35.53 590.4,-20.31 432.64,-14.09"/>
<polygon fill="midnightblue" stroke="midnightblue" points="1288.33,-62.31 1298.59,-59.66 1288.92,-55.33 1288.33,-62.31"/>
</g>
<!-- Node18&#45;&gt;Node10 -->
<g id="edge24" class="edge">
<title>Node18&#45;&gt;Node10</title>
<path fill="none" stroke="midnightblue" d="M1288.2,-55.28C1216.5,-45.09 1104.98,-29.24 1036.61,-19.53"/>
<polygon fill="midnightblue" stroke="midnightblue" points="1288.08,-58.8 1298.47,-56.74 1289.07,-51.87 1288.08,-58.8"/>
</g>
<!-- Node18&#45;&gt;Node11 -->
<g id="edge25" class="edge">
<title>Node18&#45;&gt;Node11</title>
<path fill="none" stroke="midnightblue" d="M1288.4,-59.1C1276.15,-58.05 1263.5,-56.99 1251.6,-56 1080.84,-41.86 880.87,-26.05 771.13,-17.45"/>
<polygon fill="midnightblue" stroke="midnightblue" points="1288.3,-62.6 1298.57,-59.97 1288.9,-55.63 1288.3,-62.6"/>
</g>
<!-- Node18&#45;&gt;Node14 -->
<g id="edge26" class="edge">
<title>Node18&#45;&gt;Node14</title>
<path fill="none" stroke="midnightblue" d="M1316.8,-53.57C1281.34,-43.38 1230.24,-28.7 1198.25,-19.52"/>
<polygon fill="midnightblue" stroke="midnightblue" points="1316.24,-57.05 1326.81,-56.44 1318.17,-50.32 1316.24,-57.05"/>
</g>
<!-- Node19 -->
<g id="node19" class="node">
<title>Node19</title>
<g id="a_node19"><a xlink:href="most__minimal_2main_8cpp.html" target="_top" xlink:title=" ">
<polygon fill="none" stroke="black" points="1263.1,-0.5 1263.1,-19.5 1428.1,-19.5 1428.1,-0.5 1263.1,-0.5"/>
<text text-anchor="middle" x="1345.6" y="-7.5" font-family="Helvetica,sans-Serif" font-size="10.00">examples/most_minimal/main.cpp</text>
</a>
</g>
</g>
<!-- Node18&#45;&gt;Node19 -->
<g id="edge23" class="edge">
<title>Node18&#45;&gt;Node19</title>
<path fill="none" stroke="midnightblue" d="M1352.75,-46.1C1350.93,-37.14 1348.83,-26.86 1347.38,-19.75"/>
<polygon fill="midnightblue" stroke="midnightblue" points="1349.36,-46.98 1354.79,-56.08 1356.22,-45.59 1349.36,-46.98"/>
</g>
<!-- Node18&#45;&gt;Node20 -->
<g id="edge27" class="edge">
<title>Node18&#45;&gt;Node20</title>
<path fill="none" stroke="midnightblue" d="M1394.29,-53.44C1427.47,-43.26 1475.03,-28.66 1504.84,-19.52"/>
<polygon fill="midnightblue" stroke="midnightblue" points="1393.02,-50.16 1384.49,-56.44 1395.08,-56.86 1393.02,-50.16"/>
</g>
<!-- Node21 -->
<g id="node21" class="node">
<title>Node21</title>
<g id="a_node21"><a xlink:href="server_8cpp.html" target="_top" xlink:title=" ">
<polygon fill="none" stroke="black" points="1742.6,-0.5 1742.6,-19.5 1840.6,-19.5 1840.6,-0.5 1742.6,-0.5"/>
<text text-anchor="middle" x="1791.6" y="-7.5" font-family="Helvetica,sans-Serif" font-size="10.00">src/roar/server.cpp</text>
</a>
</g>
</g>
<!-- Node18&#45;&gt;Node21 -->
<g id="edge28" class="edge">
<title>Node18&#45;&gt;Node21</title>
<path fill="none" stroke="midnightblue" d="M1425,-56.51C1513.28,-45.55 1664.75,-26.75 1742.46,-17.1"/>
<polygon fill="midnightblue" stroke="midnightblue" points="1424.31,-53.07 1414.82,-57.77 1425.17,-60.01 1424.31,-53.07"/>
</g>
<!-- Node23 -->
<g id="node23" class="node">
<title>Node23</title>
<g id="a_node23"><a xlink:href="route_8cpp.html" target="_top" xlink:title=" ">
<polygon fill="none" stroke="black" points="1980.1,-168.5 1980.1,-187.5 2105.1,-187.5 2105.1,-168.5 1980.1,-168.5"/>
<text text-anchor="middle" x="2042.6" y="-175.5" font-family="Helvetica,sans-Serif" font-size="10.00">src/roar/routing/route.cpp</text>
</a>
</g>
</g>
<!-- Node22&#45;&gt;Node23 -->
<g id="edge32" class="edge">
<title>Node22&#45;&gt;Node23</title>
<path fill="none" stroke="midnightblue" d="M2049.75,-214.1C2047.93,-205.14 2045.83,-194.86 2044.38,-187.75"/>
<polygon fill="midnightblue" stroke="midnightblue" points="2046.36,-214.98 2051.79,-224.08 2053.22,-213.59 2046.36,-214.98"/>
</g>
<!-- Node24 -->
<g id="node24" class="node">
<title>Node24</title>
<g id="a_node24"><a xlink:href="router_8cpp.html" target="_top" xlink:title=" ">
<polygon fill="none" stroke="black" points="2161.6,-168.5 2161.6,-187.5 2289.6,-187.5 2289.6,-168.5 2161.6,-168.5"/>
<text text-anchor="middle" x="2225.6" y="-175.5" font-family="Helvetica,sans-Serif" font-size="10.00">src/roar/routing/router.cpp</text>
</a>
</g>
</g>
<!-- Node22&#45;&gt;Node24 -->
<g id="edge33" class="edge">
<title>Node22&#45;&gt;Node24</title>
<path fill="none" stroke="midnightblue" d="M2090.43,-221.44C2122.86,-211.26 2169.34,-196.66 2198.48,-187.52"/>
<polygon fill="midnightblue" stroke="midnightblue" points="2089.35,-218.11 2080.86,-224.44 2091.45,-224.79 2089.35,-218.11"/>
</g>
<!-- Node25&#45;&gt;Node21 -->
<g id="edge36" class="edge">
<title>Node25&#45;&gt;Node21</title>
<path fill="none" stroke="midnightblue" d="M1963.25,-222.98C2024.57,-213.78 2103.93,-199.82 2113.6,-188 2119.23,-181.12 2118.31,-175.54 2113.6,-168 2053.37,-71.62 1915.04,-32.83 1840.81,-18.53"/>
<polygon fill="midnightblue" stroke="midnightblue" points="1962.57,-219.54 1953.19,-224.47 1963.59,-226.47 1962.57,-219.54"/>
</g>
<!-- Node25&#45;&gt;Node24 -->
<g id="edge35" class="edge">
<title>Node25&#45;&gt;Node24</title>
<path fill="none" stroke="midnightblue" d="M1953.94,-222.79C2017.24,-212.59 2113.45,-197.08 2172.77,-187.52"/>
<polygon fill="midnightblue" stroke="midnightblue" points="1953,-219.4 1943.68,-224.44 1954.11,-226.31 1953,-219.4"/>
</g>
<!-- Node26 -->
<g id="node26" class="node">
<title>Node26</title>
<g id="a_node26"><a xlink:href="session_8cpp.html" target="_top" xlink:title=" ">
<polygon fill="none" stroke="black" points="1819.6,-168.5 1819.6,-187.5 1961.6,-187.5 1961.6,-168.5 1819.6,-168.5"/>
<text text-anchor="middle" x="1890.6" y="-175.5" font-family="Helvetica,sans-Serif" font-size="10.00">src/roar/session/session.cpp</text>
</a>
</g>
</g>
<!-- Node25&#45;&gt;Node26 -->
<g id="edge37" class="edge">
<title>Node25&#45;&gt;Node26</title>
<path fill="none" stroke="midnightblue" d="M1890.6,-213.8C1890.6,-204.91 1890.6,-194.78 1890.6,-187.75"/>
<polygon fill="midnightblue" stroke="midnightblue" points="1887.1,-214.08 1890.6,-224.08 1894.1,-214.08 1887.1,-214.08"/>
</g>
<!-- Node27&#45;&gt;Node3 -->
<g id="edge41" class="edge">
<title>Node27&#45;&gt;Node3</title>
<path fill="none" stroke="midnightblue" d="M1604.83,-225.27C1487.42,-215.16 1282.58,-197.52 1162.63,-187.18"/>
<polygon fill="midnightblue" stroke="midnightblue" points="1604.61,-228.76 1614.87,-226.13 1605.21,-221.79 1604.61,-228.76"/>
</g>
<!-- Node27&#45;&gt;Node17 -->
<g id="edge40" class="edge">
<title>Node27&#45;&gt;Node17</title>
<path fill="none" stroke="midnightblue" d="M1660.32,-221.1C1596,-198.79 1458.67,-151.13 1402.42,-131.61"/>
<polygon fill="midnightblue" stroke="midnightblue" points="1659.4,-224.49 1669.99,-224.46 1661.69,-217.88 1659.4,-224.49"/>
</g>
<!-- Node27&#45;&gt;Node18 -->
<g id="edge42" class="edge">
<title>Node27&#45;&gt;Node18</title>
<path fill="none" stroke="midnightblue" d="M1663.8,-220C1648.3,-212.35 1630,-201.51 1616.6,-188 1589.28,-160.44 1604.96,-134.87 1573.6,-112 1548.73,-93.86 1470.19,-80.82 1414.77,-73.59"/>
<polygon fill="midnightblue" stroke="midnightblue" points="1662.48,-223.25 1673.02,-224.35 1665.47,-216.92 1662.48,-223.25"/>
</g>
<!-- Node27&#45;&gt;Node21 -->
<g id="edge45" class="edge">
<title>Node27&#45;&gt;Node21</title>
<path fill="none" stroke="midnightblue" d="M1730.72,-220.37C1745.8,-213.23 1762.02,-202.72 1771.6,-188 1807.55,-132.8 1797.52,-46.92 1793.14,-19.63"/>
<polygon fill="midnightblue" stroke="midnightblue" points="1729.3,-217.17 1721.54,-224.39 1732.11,-223.59 1729.3,-217.17"/>
</g>
<!-- Node27&#45;&gt;Node23 -->
<g id="edge43" class="edge">
<title>Node27&#45;&gt;Node23</title>
<path fill="none" stroke="midnightblue" d="M1759.99,-222.85C1825.74,-212.65 1925.97,-197.1 1987.72,-187.52"/>
<polygon fill="midnightblue" stroke="midnightblue" points="1759.09,-219.45 1749.74,-224.44 1760.16,-226.37 1759.09,-219.45"/>
</g>
<!-- Node27&#45;&gt;Node24 -->
<g id="edge44" class="edge">
<title>Node27&#45;&gt;Node24</title>
<path fill="none" stroke="midnightblue" d="M1784.52,-223.86C1891.5,-212.98 2067.42,-195.09 2161.51,-185.52"/>
<polygon fill="midnightblue" stroke="midnightblue" points="1783.98,-220.39 1774.39,-224.89 1784.69,-227.36 1783.98,-220.39"/>
</g>
<!-- Node27&#45;&gt;Node26 -->
<g id="edge47" class="edge">
<title>Node27&#45;&gt;Node26</title>
<path fill="none" stroke="midnightblue" d="M1735.62,-221.7C1772.61,-211.51 1826.2,-196.74 1859.69,-187.52"/>
<polygon fill="midnightblue" stroke="midnightblue" points="1734.37,-218.41 1725.66,-224.44 1736.23,-225.16 1734.37,-218.41"/>
</g>
<!-- Node28 -->
<g id="node28" class="node">
<title>Node28</title>
<g id="a_node28"><a xlink:href="factory_8cpp.html" target="_top" xlink:title=" ">
<polygon fill="none" stroke="black" points="1626.1,-168.5 1626.1,-187.5 1763.1,-187.5 1763.1,-168.5 1626.1,-168.5"/>
<text text-anchor="middle" x="1694.6" y="-175.5" font-family="Helvetica,sans-Serif" font-size="10.00">src/roar/session/factory.cpp</text>
</a>
</g>
</g>
<!-- Node27&#45;&gt;Node28 -->
<g id="edge46" class="edge">
<title>Node27&#45;&gt;Node28</title>
<path fill="none" stroke="midnightblue" d="M1694.6,-213.8C1694.6,-204.91 1694.6,-194.78 1694.6,-187.75"/>
<polygon fill="midnightblue" stroke="midnightblue" points="1691.1,-214.08 1694.6,-224.08 1698.1,-214.08 1691.1,-214.08"/>
</g>
</g>
</svg>
