<?xml version="1.0" encoding="UTF-8" standalone="no"?>
<!DOCTYPE svg PUBLIC "-//W3C//DTD SVG 1.1//EN"
 "http://www.w3.org/Graphics/SVG/1.1/DTD/svg11.dtd">
<!-- Generated by graphviz version 2.44.1 (20211215.1903)
 -->
<!-- Title: include/roar/detail/literals/regex.hpp Pages: 1 -->
<!--zoomable 308 -->
<svg id="main" version="1.1" xmlns="http://www.w3.org/2000/svg" xmlns:xlink="http://www.w3.org/1999/xlink" xml:space="preserve" onload="init(evt)">
<style type="text/css"><![CDATA[
.edge:hover path { stroke: red; }
.edge:hover polygon { stroke: red; fill: red; }
]]></style>
<script type="text/javascript"><![CDATA[
var edges = document.getElementsByTagName('g');
if (edges && edges.length) {
  for (var i=0;i<edges.length;i++) {
    if (edges[i].id.substr(0,4)=='edge') {
      edges[i].setAttribute('class','edge');
    }
  }
}
]]></script>
        <defs>
                <circle id="rim" cx="0" cy="0" r="7"/>
                <circle id="rim2" cx="0" cy="0" r="3.5"/>
                <g id="zoomPlus">
                        <use xlink:href="#rim" fill="#404040">
                                <set attributeName="fill" to="#808080" begin="zoomplus.mouseover" end="zoomplus.mouseout"/>
                        </use>
                        <path d="M-4,0h8M0,-4v8" fill="none" stroke="white" stroke-width="1.5" pointer-events="none"/>
                </g>
                <g id="zoomMin">
                        <use xlink:href="#rim" fill="#404040">
                                <set attributeName="fill" to="#808080" begin="zoomminus.mouseover" end="zoomminus.mouseout"/>
                        </use>
                        <path d="M-4,0h8" fill="none" stroke="white" stroke-width="1.5" pointer-events="none"/>
                </g>
                <g id="dirArrow">
                        <path fill="none" stroke="white" stroke-width="1.5" d="M0,-3.0v7 M-2.5,-0.5L0,-3.0L2.5,-0.5"/>
                </g>
               <g id="resetDef">
                       <use xlink:href="#rim2" fill="#404040">
                               <set attributeName="fill" to="#808080" begin="reset.mouseover" end="reset.mouseout"/>
                       </use>
               </g>
        </defs>

<script type="text/javascript">
var viewWidth = 1510;
var viewHeight = 308;
var sectionId = 'dynsection-1';
</script>
<script xlink:href="svgpan.js"/>
<svg id="graph" class="graph">
<g id="viewport">
<title>include/roar/detail/literals/regex.hpp</title>
<!-- Node1 -->
<g id="node1" class="node">
<title>Node1</title>
<g id="a_node1"><a xlink:title=" ">
<polygon fill="#bfbfbf" stroke="black" points="627.02,-280.5 627.02,-299.5 797.02,-299.5 797.02,-280.5 627.02,-280.5"/>
<text text-anchor="middle" x="712.02" y="-287.5" font-family="Helvetica,sans-Serif" font-size="10.00">include/roar/detail/literals/regex.hpp</text>
</a>
</g>
</g>
<!-- Node2 -->
<g id="node2" class="node">
<title>Node2</title>
<g id="a_node2"><a xlink:href="proto__route_8hpp.html" target="_top" xlink:title=" ">
<polygon fill="none" stroke="black" points="571.02,-224.5 571.02,-243.5 741.02,-243.5 741.02,-224.5 571.02,-224.5"/>
<text text-anchor="middle" x="656.02" y="-231.5" font-family="Helvetica,sans-Serif" font-size="10.00">include/roar/routing/proto_route.hpp</text>
</a>
</g>
</g>
<!-- Node1&#45;&gt;Node2 -->
<g id="edge1" class="edge">
<title>Node1&#45;&gt;Node2</title>
<path fill="none" stroke="midnightblue" d="M695.69,-273.25C685.76,-263.67 673.43,-251.79 665.18,-243.83"/>
<polygon fill="midnightblue" stroke="midnightblue" points="693.4,-275.9 703.02,-280.32 698.25,-270.86 693.4,-275.9"/>
</g>
<!-- Node3 -->
<g id="node3" class="node">
<title>Node3</title>
<g id="a_node3"><a xlink:href="include_2roar_2routing_2request__listener_8hpp.html" target="_top" xlink:title=" ">
<polygon fill="none" stroke="black" points="735.02,-112.5 735.02,-131.5 925.02,-131.5 925.02,-112.5 735.02,-112.5"/>
<text text-anchor="middle" x="830.02" y="-119.5" font-family="Helvetica,sans-Serif" font-size="10.00">include/roar/routing/request_listener.hpp</text>
</a>
</g>
</g>
<!-- Node1&#45;&gt;Node3 -->
<g id="edge35" class="edge">
<title>Node1&#45;&gt;Node3</title>
<path fill="none" stroke="midnightblue" d="M726.57,-272.71C733.86,-264.32 742.67,-253.82 750.02,-244 780.36,-203.48 812.37,-152 824.73,-131.74"/>
<polygon fill="midnightblue" stroke="midnightblue" points="723.88,-270.47 719.91,-280.29 729.14,-275.09 723.88,-270.47"/>
</g>
<!-- Node2&#45;&gt;Node3 -->
<g id="edge2" class="edge">
<title>Node2&#45;&gt;Node3</title>
<path fill="none" stroke="midnightblue" d="M678.15,-219.01C714.68,-195.92 786.5,-150.51 816.43,-131.59"/>
<polygon fill="midnightblue" stroke="midnightblue" points="676.26,-216.07 669.67,-224.37 680,-221.98 676.26,-216.07"/>
</g>
<!-- Node11 -->
<g id="node11" class="node">
<title>Node11</title>
<g id="a_node11"><a xlink:href="server_8hpp.html" target="_top" xlink:title=" ">
<polygon fill="none" stroke="black" points="611.02,-56.5 611.02,-75.5 727.02,-75.5 727.02,-56.5 611.02,-56.5"/>
<text text-anchor="middle" x="669.02" y="-63.5" font-family="Helvetica,sans-Serif" font-size="10.00">include/roar/server.hpp</text>
</a>
</g>
</g>
<!-- Node2&#45;&gt;Node11 -->
<g id="edge26" class="edge">
<title>Node2&#45;&gt;Node11</title>
<path fill="none" stroke="midnightblue" d="M659.15,-214.37C662.37,-194.15 667.17,-160.89 669.02,-132 670.31,-111.95 669.8,-88.36 669.38,-75.84"/>
<polygon fill="midnightblue" stroke="midnightblue" points="655.67,-213.96 657.51,-224.39 662.58,-215.09 655.67,-213.96"/>
</g>
<!-- Node15 -->
<g id="node15" class="node">
<title>Node15</title>
<g id="a_node15"><a xlink:href="route_8hpp.html" target="_top" xlink:title=" ">
<polygon fill="none" stroke="black" points="312.52,-168.5 312.52,-187.5 455.52,-187.5 455.52,-168.5 312.52,-168.5"/>
<text text-anchor="middle" x="384.02" y="-175.5" font-family="Helvetica,sans-Serif" font-size="10.00">include/roar/routing/route.hpp</text>
</a>
</g>
</g>
<!-- Node2&#45;&gt;Node15 -->
<g id="edge19" class="edge">
<title>Node2&#45;&gt;Node15</title>
<path fill="none" stroke="midnightblue" d="M603,-222.47C551.59,-212.27 474.58,-196.98 426.92,-187.52"/>
<polygon fill="midnightblue" stroke="midnightblue" points="602.43,-225.93 612.92,-224.44 603.79,-219.06 602.43,-225.93"/>
</g>
<!-- Node18 -->
<g id="node18" class="node">
<title>Node18</title>
<g id="a_node18"><a xlink:href="router_8hpp.html" target="_top" xlink:title=" ">
<polygon fill="none" stroke="black" points="81.02,-168.5 81.02,-187.5 227.02,-187.5 227.02,-168.5 81.02,-168.5"/>
<text text-anchor="middle" x="154.02" y="-175.5" font-family="Helvetica,sans-Serif" font-size="10.00">include/roar/routing/router.hpp</text>
</a>
</g>
</g>
<!-- Node2&#45;&gt;Node18 -->
<g id="edge22" class="edge">
<title>Node2&#45;&gt;Node18</title>
<path fill="none" stroke="midnightblue" d="M566.69,-223.39C469.86,-212.97 317.14,-196.55 227.16,-186.87"/>
<polygon fill="midnightblue" stroke="midnightblue" points="566.44,-226.88 576.75,-224.47 567.19,-219.92 566.44,-226.88"/>
</g>
<!-- Node20 -->
<g id="node20" class="node">
<title>Node20</title>
<g id="a_node20"><a xlink:href="session_8hpp.html" target="_top" xlink:title=" ">
<polygon fill="none" stroke="black" points="483.52,-168.5 483.52,-187.5 642.52,-187.5 642.52,-168.5 483.52,-168.5"/>
<text text-anchor="middle" x="563.02" y="-175.5" font-family="Helvetica,sans-Serif" font-size="10.00">include/roar/session/session.hpp</text>
</a>
</g>
</g>
<!-- Node2&#45;&gt;Node20 -->
<g id="edge27" class="edge">
<title>Node2&#45;&gt;Node20</title>
<path fill="none" stroke="midnightblue" d="M632.21,-219.18C615.1,-209.24 592.56,-196.15 577.93,-187.65"/>
<polygon fill="midnightblue" stroke="midnightblue" points="630.67,-222.33 641.08,-224.32 634.19,-216.28 630.67,-222.33"/>
</g>
<!-- Node4 -->
<g id="node4" class="node">
<title>Node4</title>
<g id="a_node4"><a xlink:href="request__listener_2main_8cpp.html" target="_top" xlink:title=" ">
<polygon fill="none" stroke="black" points="1311.52,-56.5 1311.52,-75.5 1484.52,-75.5 1484.52,-56.5 1311.52,-56.5"/>
<text text-anchor="middle" x="1398.02" y="-63.5" font-family="Helvetica,sans-Serif" font-size="10.00">examples/request_listener/main.cpp</text>
</a>
</g>
</g>
<!-- Node3&#45;&gt;Node4 -->
<g id="edge3" class="edge">
<title>Node3&#45;&gt;Node4</title>
<path fill="none" stroke="midnightblue" d="M929.96,-111.5C1038,-101.23 1208.47,-85.02 1311.13,-75.26"/>
<polygon fill="midnightblue" stroke="midnightblue" points="929.33,-108.04 919.71,-112.47 929.99,-115.01 929.33,-108.04"/>
</g>
<!-- Node5 -->
<g id="node5" class="node">
<title>Node5</title>
<g id="a_node5"><a xlink:href="simple__server_2main_8cpp.html" target="_top" xlink:title=" ">
<polygon fill="none" stroke="black" points="1105.52,-0.5 1105.52,-19.5 1270.52,-19.5 1270.52,-0.5 1105.52,-0.5"/>
<text text-anchor="middle" x="1188.02" y="-7.5" font-family="Helvetica,sans-Serif" font-size="10.00">examples/simple_server/main.cpp</text>
</a>
</g>
</g>
<!-- Node3&#45;&gt;Node5 -->
<g id="edge4" class="edge">
<title>Node3&#45;&gt;Node5</title>
<path fill="none" stroke="midnightblue" d="M893.46,-110.63C933.32,-103.17 985.44,-91.65 1030.02,-76 1049.15,-69.28 1052.43,-64.09 1071.02,-56 1102.75,-42.19 1140.2,-28.18 1164.02,-19.54"/>
<polygon fill="midnightblue" stroke="midnightblue" points="892.8,-107.19 883.6,-112.44 894.07,-114.08 892.8,-107.19"/>
</g>
<!-- Node6 -->
<g id="node6" class="node">
<title>Node6</title>
<g id="a_node6"><a xlink:href="examples_2simple__server_2request__listener_8hpp.html" target="_top" xlink:title=" ">
<polygon fill="none" stroke="black" points="1080.52,-56.5 1080.52,-75.5 1293.52,-75.5 1293.52,-56.5 1080.52,-56.5"/>
<text text-anchor="middle" x="1187.02" y="-63.5" font-family="Helvetica,sans-Serif" font-size="10.00">examples/simple_server/request_listener.hpp</text>
</a>
</g>
</g>
<!-- Node3&#45;&gt;Node6 -->
<g id="edge5" class="edge">
<title>Node3&#45;&gt;Node6</title>
<path fill="none" stroke="midnightblue" d="M896.68,-110.92C964.13,-100.71 1067.24,-85.12 1130.72,-75.52"/>
<polygon fill="midnightblue" stroke="midnightblue" points="895.95,-107.49 886.59,-112.44 897,-114.41 895.95,-107.49"/>
</g>
<!-- Node8 -->
<g id="node8" class="node">
<title>Node8</title>
<g id="a_node8"><a xlink:href="websocket_2main_8cpp.html" target="_top" xlink:title=" ">
<polygon fill="none" stroke="black" points="717.02,-0.5 717.02,-19.5 869.02,-19.5 869.02,-0.5 717.02,-0.5"/>
<text text-anchor="middle" x="793.02" y="-7.5" font-family="Helvetica,sans-Serif" font-size="10.00">examples/websocket/main.cpp</text>
</a>
</g>
</g>
<!-- Node3&#45;&gt;Node8 -->
<g id="edge8" class="edge">
<title>Node3&#45;&gt;Node8</title>
<path fill="none" stroke="midnightblue" d="M822.43,-103.17C819.06,-94.97 815.15,-85.06 812.02,-76 805.19,-56.22 798.67,-32.52 795.34,-19.92"/>
<polygon fill="midnightblue" stroke="midnightblue" points="819.23,-104.59 826.32,-112.47 825.69,-101.89 819.23,-104.59"/>
</g>
<!-- Node9 -->
<g id="node9" class="node">
<title>Node9</title>
<g id="a_node9"><a xlink:href="examples_2websocket_2request__listener_8hpp.html" target="_top" xlink:title=" ">
<polygon fill="none" stroke="black" points="821.02,-56.5 821.02,-75.5 1021.02,-75.5 1021.02,-56.5 821.02,-56.5"/>
<text text-anchor="middle" x="921.02" y="-63.5" font-family="Helvetica,sans-Serif" font-size="10.00">examples/websocket/request_listener.hpp</text>
</a>
</g>
</g>
<!-- Node3&#45;&gt;Node9 -->
<g id="edge9" class="edge">
<title>Node3&#45;&gt;Node9</title>
<path fill="none" stroke="midnightblue" d="M853.31,-107.18C870.06,-97.24 892.12,-84.15 906.44,-75.65"/>
<polygon fill="midnightblue" stroke="midnightblue" points="851.45,-104.21 844.64,-112.32 855.03,-110.23 851.45,-104.21"/>
</g>
<!-- Node3&#45;&gt;Node11 -->
<g id="edge12" class="edge">
<title>Node3&#45;&gt;Node11</title>
<path fill="none" stroke="midnightblue" d="M794.76,-109.17C764.44,-99 721.45,-84.59 694.41,-75.52"/>
<polygon fill="midnightblue" stroke="midnightblue" points="793.92,-112.58 804.51,-112.44 796.14,-105.95 793.92,-112.58"/>
</g>
<!-- Node13 -->
<g id="node13" class="node">
<title>Node13</title>
<g id="a_node13"><a xlink:href="src_2roar_2routing_2request__listener_8cpp.html" target="_top" xlink:title=" ">
<polygon fill="none" stroke="black" points="525.52,-0.5 525.52,-19.5 698.52,-19.5 698.52,-0.5 525.52,-0.5"/>
<text text-anchor="middle" x="612.02" y="-7.5" font-family="Helvetica,sans-Serif" font-size="10.00">src/roar/routing/request_listener.cpp</text>
</a>
</g>
</g>
<!-- Node3&#45;&gt;Node13 -->
<g id="edge18" class="edge">
<title>Node3&#45;&gt;Node13</title>
<path fill="none" stroke="midnightblue" d="M811.53,-106.07C793.2,-91.8 763.9,-70.39 736.02,-56 705.39,-40.19 667.92,-27.42 642.24,-19.57"/>
<polygon fill="midnightblue" stroke="midnightblue" points="809.58,-108.99 819.59,-112.44 813.92,-103.5 809.58,-108.99"/>
</g>
<!-- Node6&#45;&gt;Node5 -->
<g id="edge6" class="edge">
<title>Node6&#45;&gt;Node5</title>
<path fill="none" stroke="midnightblue" d="M1187.38,-45.8C1187.54,-36.91 1187.73,-26.78 1187.86,-19.75"/>
<polygon fill="midnightblue" stroke="midnightblue" points="1183.87,-46.02 1187.19,-56.08 1190.87,-46.15 1183.87,-46.02"/>
</g>
<!-- Node7 -->
<g id="node7" class="node">
<title>Node7</title>
<g id="a_node7"><a xlink:href="examples_2simple__server_2request__listener_8cpp.html" target="_top" xlink:title=" ">
<polygon fill="none" stroke="black" points="1288.52,-0.5 1288.52,-19.5 1501.52,-19.5 1501.52,-0.5 1288.52,-0.5"/>
<text text-anchor="middle" x="1395.02" y="-7.5" font-family="Helvetica,sans-Serif" font-size="10.00">examples/simple_server/request_listener.cpp</text>
</a>
</g>
</g>
<!-- Node6&#45;&gt;Node7 -->
<g id="edge7" class="edge">
<title>Node6&#45;&gt;Node7</title>
<path fill="none" stroke="midnightblue" d="M1229.8,-53.89C1269.08,-43.7 1326.45,-28.8 1362.22,-19.52"/>
<polygon fill="midnightblue" stroke="midnightblue" points="1228.78,-50.54 1219.98,-56.44 1230.54,-57.32 1228.78,-50.54"/>
</g>
<!-- Node9&#45;&gt;Node8 -->
<g id="edge10" class="edge">
<title>Node9&#45;&gt;Node8</title>
<path fill="none" stroke="midnightblue" d="M891.4,-52.5C867.4,-42.38 834.24,-28.39 813.21,-19.52"/>
<polygon fill="midnightblue" stroke="midnightblue" points="890.16,-55.78 900.74,-56.44 892.89,-49.33 890.16,-55.78"/>
</g>
<!-- Node10 -->
<g id="node10" class="node">
<title>Node10</title>
<g id="a_node10"><a xlink:href="examples_2websocket_2request__listener_8cpp.html" target="_top" xlink:title=" ">
<polygon fill="none" stroke="black" points="887.02,-0.5 887.02,-19.5 1087.02,-19.5 1087.02,-0.5 887.02,-0.5"/>
<text text-anchor="middle" x="987.02" y="-7.5" font-family="Helvetica,sans-Serif" font-size="10.00">examples/websocket/request_listener.cpp</text>
</a>
</g>
</g>
<!-- Node9&#45;&gt;Node10 -->
<g id="edge11" class="edge">
<title>Node9&#45;&gt;Node10</title>
<path fill="none" stroke="midnightblue" d="M939.57,-49.82C951.4,-40.15 966.31,-27.95 976.22,-19.83"/>
<polygon fill="midnightblue" stroke="midnightblue" points="937.15,-47.28 931.62,-56.32 941.58,-52.7 937.15,-47.28"/>
</g>
<!-- Node11&#45;&gt;Node5 -->
<g id="edge14" class="edge">
<title>Node11&#45;&gt;Node5</title>
<path fill="none" stroke="midnightblue" d="M737.12,-57.91C832.13,-48.03 1004.24,-30.12 1106.13,-19.52"/>
<polygon fill="midnightblue" stroke="midnightblue" points="736.63,-54.45 727.05,-58.96 737.35,-61.41 736.63,-54.45"/>
</g>
<!-- Node11&#45;&gt;Node8 -->
<g id="edge15" class="edge">
<title>Node11&#45;&gt;Node8</title>
<path fill="none" stroke="midnightblue" d="M698.03,-52.37C721.25,-42.26 753.18,-28.35 773.46,-19.52"/>
<polygon fill="midnightblue" stroke="midnightblue" points="696.44,-49.24 688.67,-56.44 699.23,-55.66 696.44,-49.24"/>
</g>
<!-- Node12 -->
<g id="node12" class="node">
<title>Node12</title>
<g id="a_node12"><a xlink:href="most__minimal_2main_8cpp.html" target="_top" xlink:title=" ">
<polygon fill="none" stroke="black" points="342.52,-0.5 342.52,-19.5 507.52,-19.5 507.52,-0.5 342.52,-0.5"/>
<text text-anchor="middle" x="425.02" y="-7.5" font-family="Helvetica,sans-Serif" font-size="10.00">examples/most_minimal/main.cpp</text>
</a>
</g>
</g>
<!-- Node11&#45;&gt;Node12 -->
<g id="edge13" class="edge">
<title>Node11&#45;&gt;Node12</title>
<path fill="none" stroke="midnightblue" d="M620.59,-54.28C574.48,-44.08 505.99,-28.92 463.5,-19.52"/>
<polygon fill="midnightblue" stroke="midnightblue" points="619.84,-57.7 630.36,-56.44 621.35,-50.87 619.84,-57.7"/>
</g>
<!-- Node11&#45;&gt;Node13 -->
<g id="edge16" class="edge">
<title>Node11&#45;&gt;Node13</title>
<path fill="none" stroke="midnightblue" d="M652.4,-49.25C642.29,-39.67 629.74,-27.79 621.35,-19.83"/>
<polygon fill="midnightblue" stroke="midnightblue" points="650.2,-51.99 659.86,-56.32 655.01,-46.91 650.2,-51.99"/>
</g>
<!-- Node14 -->
<g id="node14" class="node">
<title>Node14</title>
<g id="a_node14"><a xlink:href="server_8cpp.html" target="_top" xlink:title=" ">
<polygon fill="none" stroke="black" points="226.02,-0.5 226.02,-19.5 324.02,-19.5 324.02,-0.5 226.02,-0.5"/>
<text text-anchor="middle" x="275.02" y="-7.5" font-family="Helvetica,sans-Serif" font-size="10.00">src/roar/server.cpp</text>
</a>
</g>
</g>
<!-- Node11&#45;&gt;Node14 -->
<g id="edge17" class="edge">
<title>Node11&#45;&gt;Node14</title>
<path fill="none" stroke="midnightblue" d="M600.86,-56.29C532.93,-47.52 425.68,-33.39 333.02,-20 330.1,-19.58 327.09,-19.13 324.06,-18.68"/>
<polygon fill="midnightblue" stroke="midnightblue" points="600.63,-59.79 611,-57.6 601.53,-52.85 600.63,-59.79"/>
</g>
<!-- Node16 -->
<g id="node16" class="node">
<title>Node16</title>
<g id="a_node16"><a xlink:href="route_8cpp.html" target="_top" xlink:title=" ">
<polygon fill="none" stroke="black" points="321.52,-112.5 321.52,-131.5 446.52,-131.5 446.52,-112.5 321.52,-112.5"/>
<text text-anchor="middle" x="384.02" y="-119.5" font-family="Helvetica,sans-Serif" font-size="10.00">src/roar/routing/route.cpp</text>
</a>
</g>
</g>
<!-- Node15&#45;&gt;Node16 -->
<g id="edge20" class="edge">
<title>Node15&#45;&gt;Node16</title>
<path fill="none" stroke="midnightblue" d="M384.02,-157.8C384.02,-148.91 384.02,-138.78 384.02,-131.75"/>
<polygon fill="midnightblue" stroke="midnightblue" points="380.52,-158.08 384.02,-168.08 387.52,-158.08 380.52,-158.08"/>
</g>
<!-- Node17 -->
<g id="node17" class="node">
<title>Node17</title>
<g id="a_node17"><a xlink:href="router_8cpp.html" target="_top" xlink:title=" ">
<polygon fill="none" stroke="black" points="175.02,-112.5 175.02,-131.5 303.02,-131.5 303.02,-112.5 175.02,-112.5"/>
<text text-anchor="middle" x="239.02" y="-119.5" font-family="Helvetica,sans-Serif" font-size="10.00">src/roar/routing/router.cpp</text>
</a>
</g>
</g>
<!-- Node15&#45;&gt;Node17 -->
<g id="edge21" class="edge">
<title>Node15&#45;&gt;Node17</title>
<path fill="none" stroke="midnightblue" d="M351.55,-164.91C324.28,-154.75 286.03,-140.51 261.89,-131.52"/>
<polygon fill="midnightblue" stroke="midnightblue" points="350.45,-168.23 361.04,-168.44 352.9,-161.67 350.45,-168.23"/>
</g>
<!-- Node18&#45;&gt;Node14 -->
<g id="edge24" class="edge">
<title>Node18&#45;&gt;Node14</title>
<path fill="none" stroke="midnightblue" d="M70.51,-167.82C26.08,-159.24 -15.37,-142.88 6.02,-112 55.66,-40.34 162.87,-19.45 225.93,-13.41"/>
<polygon fill="midnightblue" stroke="midnightblue" points="70.15,-171.31 80.61,-169.64 71.39,-164.42 70.15,-171.31"/>
</g>
<!-- Node18&#45;&gt;Node17 -->
<g id="edge23" class="edge">
<title>Node18&#45;&gt;Node17</title>
<path fill="none" stroke="midnightblue" d="M176.21,-162.9C191.8,-153 212.15,-140.07 225.4,-131.65"/>
<polygon fill="midnightblue" stroke="midnightblue" points="174.24,-160.01 167.68,-168.32 177.99,-165.92 174.24,-160.01"/>
</g>
<!-- Node19 -->
<g id="node19" class="node">
<title>Node19</title>
<g id="a_node19"><a xlink:href="session_8cpp.html" target="_top" xlink:title=" ">
<polygon fill="none" stroke="black" points="15.02,-112.5 15.02,-131.5 157.02,-131.5 157.02,-112.5 15.02,-112.5"/>
<text text-anchor="middle" x="86.02" y="-119.5" font-family="Helvetica,sans-Serif" font-size="10.00">src/roar/session/session.cpp</text>
</a>
</g>
</g>
<!-- Node18&#45;&gt;Node19 -->
<g id="edge25" class="edge">
<title>Node18&#45;&gt;Node19</title>
<path fill="none" stroke="midnightblue" d="M135.26,-162.1C123.02,-152.38 107.46,-140.03 97.14,-131.83"/>
<polygon fill="midnightblue" stroke="midnightblue" points="133.09,-164.85 143.1,-168.32 137.44,-159.36 133.09,-164.85"/>
</g>
<!-- Node20&#45;&gt;Node3 -->
<g id="edge28" class="edge">
<title>Node20&#45;&gt;Node3</title>
<path fill="none" stroke="midnightblue" d="M615.38,-166.41C665.84,-156.2 741.22,-140.96 787.91,-131.52"/>
<polygon fill="midnightblue" stroke="midnightblue" points="614.44,-163.03 605.33,-168.44 615.82,-169.89 614.44,-163.03"/>
</g>
<!-- Node20&#45;&gt;Node11 -->
<g id="edge29" class="edge">
<title>Node20&#45;&gt;Node11</title>
<path fill="none" stroke="midnightblue" d="M601.48,-164.56C618.17,-157.41 636.68,-146.84 649.02,-132 662.91,-115.3 667.16,-89.02 668.46,-75.57"/>
<polygon fill="midnightblue" stroke="midnightblue" points="599.91,-161.41 591.93,-168.38 602.51,-167.91 599.91,-161.41"/>
</g>
<!-- Node20&#45;&gt;Node14 -->
<g id="edge32" class="edge">
<title>Node20&#45;&gt;Node14</title>
<path fill="none" stroke="midnightblue" d="M540.3,-163.05C518.53,-149.75 484.69,-129.24 455.02,-112 394.92,-77.06 322.54,-37.08 291,-19.76"/>
<polygon fill="midnightblue" stroke="midnightblue" points="538.76,-166.21 549.12,-168.45 542.42,-160.24 538.76,-166.21"/>
</g>
<!-- Node20&#45;&gt;Node16 -->
<g id="edge30" class="edge">
<title>Node20&#45;&gt;Node16</title>
<path fill="none" stroke="midnightblue" d="M524.69,-165.44C490.94,-155.26 442.57,-140.66 412.25,-131.52"/>
<polygon fill="midnightblue" stroke="midnightblue" points="524.07,-168.91 534.66,-168.44 526.09,-162.2 524.07,-168.91"/>
</g>
<!-- Node20&#45;&gt;Node17 -->
<g id="edge31" class="edge">
<title>Node20&#45;&gt;Node17</title>
<path fill="none" stroke="midnightblue" d="M501.76,-166.79C440.54,-156.59 347.49,-141.08 290.12,-131.52"/>
<polygon fill="midnightblue" stroke="midnightblue" points="501.24,-170.25 511.68,-168.44 502.39,-163.35 501.24,-170.25"/>
</g>
<!-- Node20&#45;&gt;Node19 -->
<g id="edge34" class="edge">
<title>Node20&#45;&gt;Node19</title>
<path fill="none" stroke="midnightblue" d="M477.64,-167.33C386.15,-156.98 242.59,-140.73 157.05,-131.04"/>
<polygon fill="midnightblue" stroke="midnightblue" points="477.37,-170.83 487.7,-168.47 478.16,-163.87 477.37,-170.83"/>
</g>
<!-- Node21 -->
<g id="node21" class="node">
<title>Node21</title>
<g id="a_node21"><a xlink:href="factory_8cpp.html" target="_top" xlink:title=" ">
<polygon fill="none" stroke="black" points="503.52,-112.5 503.52,-131.5 640.52,-131.5 640.52,-112.5 503.52,-112.5"/>
<text text-anchor="middle" x="572.02" y="-119.5" font-family="Helvetica,sans-Serif" font-size="10.00">src/roar/session/factory.cpp</text>
</a>
</g>
</g>
<!-- Node20&#45;&gt;Node21 -->
<g id="edge33" class="edge">
<title>Node20&#45;&gt;Node21</title>
<path fill="none" stroke="midnightblue" d="M566.17,-158.1C567.66,-149.14 569.38,-138.86 570.56,-131.75"/>
<polygon fill="midnightblue" stroke="midnightblue" points="562.7,-157.64 564.51,-168.08 569.6,-158.79 562.7,-157.64"/>
</g>
</g>
</svg>
        <g id="navigator" transform="translate(0 0)" fill="#404254">
                <rect fill="#f2f5e9" fill-opacity="0.5" stroke="#606060" stroke-width=".5" x="0" y="0" width="60" height="60"/>
                <use id="zoomplus" xlink:href="#zoomPlus" x="17" y="9" onmousedown="handleZoom(evt,'in')"/>
                <use id="zoomminus" xlink:href="#zoomMin" x="42" y="9" onmousedown="handleZoom(evt,'out')"/>
                <use id="reset" xlink:href="#resetDef" x="30" y="36" onmousedown="handleReset()"/>
                <g id="arrowUp" xlink:href="#dirArrow" transform="translate(30 24)" onmousedown="handlePan(0,-1)">
                  <use xlink:href="#rim" fill="#404040">
                        <set attributeName="fill" to="#808080" begin="arrowUp.mouseover" end="arrowUp.mouseout"/>
                  </use>
                  <path fill="none" stroke="white" stroke-width="1.5" d="M0,-3.0v7 M-2.5,-0.5L0,-3.0L2.5,-0.5"/>
                </g>
                <g id="arrowRight" xlink:href="#dirArrow" transform="rotate(90) translate(36 -43)" onmousedown="handlePan(1,0)">
                  <use xlink:href="#rim" fill="#404040">
                        <set attributeName="fill" to="#808080" begin="arrowRight.mouseover" end="arrowRight.mouseout"/>
                  </use>
                  <path fill="none" stroke="white" stroke-width="1.5" d="M0,-3.0v7 M-2.5,-0.5L0,-3.0L2.5,-0.5"/>
                </g>
                <g id="arrowDown" xlink:href="#dirArrow" transform="rotate(180) translate(-30 -48)" onmousedown="handlePan(0,1)">
                  <use xlink:href="#rim" fill="#404040">
                        <set attributeName="fill" to="#808080" begin="arrowDown.mouseover" end="arrowDown.mouseout"/>
                  </use>
                  <path fill="none" stroke="white" stroke-width="1.5" d="M0,-3.0v7 M-2.5,-0.5L0,-3.0L2.5,-0.5"/>
                </g>
                <g id="arrowLeft" xlink:href="#dirArrow" transform="rotate(270) translate(-36 17)" onmousedown="handlePan(-1,0)">
                  <use xlink:href="#rim" fill="#404040">
                        <set attributeName="fill" to="#808080" begin="arrowLeft.mouseover" end="arrowLeft.mouseout"/>
                  </use>
                  <path fill="none" stroke="white" stroke-width="1.5" d="M0,-3.0v7 M-2.5,-0.5L0,-3.0L2.5,-0.5"/>
                </g>
        </g>
        <svg viewBox="0 0 15 15" width="100%" height="30px" preserveAspectRatio="xMaxYMin meet">
         <g id="arrow_out" transform="scale(0.3 0.3)">
          <a xlink:href="regex_8hpp__dep__incl_org.svg" target="_base">
           <rect id="button" ry="5" rx="5" y="6" x="6" height="38" width="38"
                fill="#f2f5e9" fill-opacity="0.5" stroke="#606060" stroke-width="1.0"/>
           <path id="arrow"
             d="M 11.500037,31.436501 C 11.940474,20.09759 22.043105,11.32322 32.158766,21.979434 L 37.068811,17.246167 C 37.068811,17.246167 37.088388,32 37.088388,32 L 22.160133,31.978069 C 22.160133,31.978069 26.997745,27.140456 26.997745,27.140456 C 18.528582,18.264221 13.291696,25.230495 11.500037,31.436501 z"
             style="fill:#404040;"/>
          </a>
         </g>
        </svg>
</svg>
