<?xml version="1.0" encoding="UTF-8" standalone="no"?>
<!DOCTYPE svg PUBLIC "-//W3C//DTD SVG 1.1//EN"
 "http://www.w3.org/Graphics/SVG/1.1/DTD/svg11.dtd">
<!-- Generated by graphviz version 8.1.0 (0)
 -->
<!-- Title: include/roar/literals/regex.hpp Pages: 1 -->
<!--zoomable 364 -->

<svg id="main" version="1.1" xmlns="http://www.w3.org/2000/svg" xmlns:xlink="http://www.w3.org/1999/xlink" xml:space="preserve" onload="init(evt)">
<style type="text/css"><![CDATA[
.node, .edge {opacity: 0.7;}
.node.selected, .edge.selected {opacity: 1;}
.edge:hover path { stroke: red; }
.edge:hover polygon { stroke: red; fill: red; }
]]></style>

<defs>
  <circle id="rim" cx="0" cy="0" r="7"/>
  <circle id="rim2" cx="0" cy="0" r="3.5"/>
  <g id="zoomPlus">
    <use xlink:href="#rim" fill="#404040"><set attributeName="fill" to="#808080" begin="zoomplus.mouseover" end="zoomplus.mouseout"/></use>
    <path d="M-4,0h8M0,-4v8" fill="none" stroke="white" stroke-width="1.5" pointer-events="none"/>
  </g>
  <g id="zoomMin">
    <use xlink:href="#rim" fill="#404040"><set attributeName="fill" to="#808080" begin="zoomminus.mouseover" end="zoomminus.mouseout"/></use>
    <path d="M-4,0h8" fill="none" stroke="white" stroke-width="1.5" pointer-events="none"/>
  </g>
  <g id="arrowUp" transform="translate(30 24)">
    <use xlink:href="#rim"/>
    <path pointer-events="none" fill="none" stroke="white" stroke-width="1.5" d="M0,-3.0v7 M-2.5,-0.5L0,-3.0L2.5,-0.5"/>
  </g>
  <g id="arrowRight" transform="rotate(90) translate(36 -43)">
    <use xlink:href="#rim"/>
    <path pointer-events="none" fill="none" stroke="white" stroke-width="1.5" d="M0,-3.0v7 M-2.5,-0.5L0,-3.0L2.5,-0.5"/>
  </g>
  <g id="arrowDown" transform="rotate(180) translate(-30 -48)">
    <use xlink:href="#rim"/>
    <path pointer-events="none" fill="none" stroke="white" stroke-width="1.5" d="M0,-3.0v7 M-2.5,-0.5L0,-3.0L2.5,-0.5"/>
  </g>
  <g id="arrowLeft" transform="rotate(270) translate(-36 17)">
    <use xlink:href="#rim"/>
    <path pointer-events="none" fill="none" stroke="white" stroke-width="1.5" d="M0,-3.0v7 M-2.5,-0.5L0,-3.0L2.5,-0.5"/>
  </g>
  <g id="resetDef">
    <use xlink:href="#rim2" fill="#404040"><set attributeName="fill" to="#808080" begin="reset.mouseover" end="reset.mouseout"/></use>
  </g>
</defs>
<script type="application/ecmascript">
var viewWidth = 2260;
var viewHeight = 364;
var sectionId = 'dynsection-1';
</script>
<script type="application/ecmascript" xlink:href="svg.min.js"/>
<svg id="graph" class="graph">
<g id="viewport">
<title>include/roar/literals/regex.hpp</title>
<!-- Node1 -->
<g id="Node000001" class="node">
<title>Node1</title>
<g id="a_Node000001"><a xlink:title=" ">
<polygon fill="#999999" stroke="#666666" points="1514,-356 1370.5,-356 1370.5,-336 1514,-336 1514,-356"/>
<text text-anchor="middle" x="1442.25" y="-342.5" font-family="Helvetica,sans-Serif" font-size="10.00">include/roar/literals/regex.hpp</text>
</a>
</g>
</g>
<!-- Node2 -->
<g id="Node000002" class="node">
<title>Node2</title>
<g id="a_Node000002"><a xlink:href="proto__route_8hpp.html" target="_top" xlink:title=" ">
<polygon fill="white" stroke="#666666" points="1631.75,-300 1462.75,-300 1462.75,-280 1631.75,-280 1631.75,-300"/>
<text text-anchor="middle" x="1547.25" y="-286.5" font-family="Helvetica,sans-Serif" font-size="10.00">include/roar/routing/proto_route.hpp</text>
</a>
</g>
</g>
<!-- Node1&#45;&gt;Node2 -->
<g id="edge1_Node000001_Node000002" class="edge">
<title>Node1&#45;&gt;Node2</title>
<g id="a_edge1_Node000001_Node000002"><a xlink:title=" ">
<path fill="none" stroke="#63b8ff" d="M1470.22,-330.61C1488.78,-321.07 1512.61,-308.81 1528.82,-300.48"/>
<polygon fill="#63b8ff" stroke="#63b8ff" points="1468.83,-327.91 1461.54,-335.59 1472.03,-334.13 1468.83,-327.91"/>
</a>
</g>
</g>
<!-- Node3 -->
<g id="Node000003" class="node">
<title>Node3</title>
<g id="a_Node000003"><a xlink:href="include_2roar_2routing_2request__listener_8hpp.html" target="_top" xlink:title=" ">
<polygon fill="white" stroke="#666666" points="1096.88,-188 907.62,-188 907.62,-168 1096.88,-168 1096.88,-188"/>
<text text-anchor="middle" x="1002.25" y="-174.5" font-family="Helvetica,sans-Serif" font-size="10.00">include/roar/routing/request_listener.hpp</text>
</a>
</g>
</g>
<!-- Node1&#45;&gt;Node3 -->
<g id="edge47_Node000001_Node000003" class="edge">
<title>Node1&#45;&gt;Node3</title>
<g id="a_edge47_Node000001_Node000003"><a xlink:title=" ">
<path fill="none" stroke="#63b8ff" d="M1407.3,-331.81C1321.38,-299.4 1101.42,-216.41 1027.17,-188.4"/>
<polygon fill="#63b8ff" stroke="#63b8ff" points="1405.74,-335.34 1416.33,-335.6 1408.21,-328.79 1405.74,-335.34"/>
</a>
</g>
</g>
<!-- Node2&#45;&gt;Node3 -->
<g id="edge2_Node000002_Node000003" class="edge">
<title>Node2&#45;&gt;Node3</title>
<g id="a_edge2_Node000002_Node000003"><a xlink:title=" ">
<path fill="none" stroke="#63b8ff" d="M1520.99,-274.45C1492.25,-259.24 1444.39,-235.95 1400.25,-224 1298.9,-196.55 1178.64,-185.83 1097.04,-181.65"/>
<polygon fill="#63b8ff" stroke="#63b8ff" points="1519.2,-278 1529.67,-279.65 1522.52,-271.83 1519.2,-278"/>
</a>
</g>
</g>
<!-- Node17 -->
<g id="Node000017" class="node">
<title>Node17</title>
<g id="a_Node000017"><a xlink:href="server_8hpp.html" target="_top" xlink:title=" ">
<polygon fill="white" stroke="#666666" points="1382.75,-76 1267.75,-76 1267.75,-56 1382.75,-56 1382.75,-76"/>
<text text-anchor="middle" x="1325.25" y="-62.5" font-family="Helvetica,sans-Serif" font-size="10.00">include/roar/server.hpp</text>
</a>
</g>
</g>
<!-- Node2&#45;&gt;Node17 -->
<g id="edge37_Node000002_Node000017" class="edge">
<title>Node2&#45;&gt;Node17</title>
<g id="a_edge37_Node000002_Node000017"><a xlink:title=" ">
<path fill="none" stroke="#63b8ff" d="M1548.83,-269.08C1550.54,-232.63 1548.59,-155.02 1506.25,-112 1489.1,-94.58 1429.21,-82.05 1382.97,-74.71"/>
<polygon fill="#63b8ff" stroke="#63b8ff" points="1545.29,-268.55 1548.16,-278.75 1552.28,-268.99 1545.29,-268.55"/>
</a>
</g>
</g>
<!-- Node21 -->
<g id="Node000021" class="node">
<title>Node21</title>
<g id="a_Node000021"><a xlink:href="route_8hpp.html" target="_top" xlink:title=" ">
<polygon fill="white" stroke="#666666" points="2116.25,-244 1974.25,-244 1974.25,-224 2116.25,-224 2116.25,-244"/>
<text text-anchor="middle" x="2045.25" y="-230.5" font-family="Helvetica,sans-Serif" font-size="10.00">include/roar/routing/route.hpp</text>
</a>
</g>
</g>
<!-- Node2&#45;&gt;Node21 -->
<g id="edge30_Node000002_Node000021" class="edge">
<title>Node2&#45;&gt;Node21</title>
<g id="a_edge30_Node000002_Node000021"><a xlink:title=" ">
<path fill="none" stroke="#63b8ff" d="M1642.67,-278.65C1739.35,-268.17 1886.73,-252.19 1973.79,-242.75"/>
<polygon fill="#63b8ff" stroke="#63b8ff" points="1642.58,-275.25 1633.01,-279.81 1643.33,-282.21 1642.58,-275.25"/>
</a>
</g>
</g>
<!-- Node24 -->
<g id="Node000024" class="node">
<title>Node24</title>
<g id="a_Node000024"><a xlink:href="router_8hpp.html" target="_top" xlink:title=" ">
<polygon fill="white" stroke="#666666" points="1940.75,-244 1795.75,-244 1795.75,-224 1940.75,-224 1940.75,-244"/>
<text text-anchor="middle" x="1868.25" y="-230.5" font-family="Helvetica,sans-Serif" font-size="10.00">include/roar/routing/router.hpp</text>
</a>
</g>
</g>
<!-- Node2&#45;&gt;Node24 -->
<g id="edge33_Node000002_Node000024" class="edge">
<title>Node2&#45;&gt;Node24</title>
<g id="a_edge33_Node000002_Node000024"><a xlink:title=" ">
<path fill="none" stroke="#63b8ff" d="M1614.16,-277.74C1672.73,-267.89 1756.87,-253.74 1812.03,-244.46"/>
<polygon fill="#63b8ff" stroke="#63b8ff" points="1613.81,-274.42 1604.53,-279.53 1614.97,-281.32 1613.81,-274.42"/>
</a>
</g>
</g>
<!-- Node26 -->
<g id="Node000026" class="node">
<title>Node26</title>
<g id="a_Node000026"><a xlink:href="session_8hpp.html" target="_top" xlink:title=" ">
<polygon fill="white" stroke="#666666" points="1738.5,-244 1580,-244 1580,-224 1738.5,-224 1738.5,-244"/>
<text text-anchor="middle" x="1659.25" y="-230.5" font-family="Helvetica,sans-Serif" font-size="10.00">include/roar/session/session.hpp</text>
</a>
</g>
</g>
<!-- Node2&#45;&gt;Node26 -->
<g id="edge38_Node000002_Node000026" class="edge">
<title>Node2&#45;&gt;Node26</title>
<g id="a_edge38_Node000002_Node000026"><a xlink:title=" ">
<path fill="none" stroke="#63b8ff" d="M1576.54,-274.88C1596.41,-265.3 1622.14,-252.89 1639.59,-244.48"/>
<polygon fill="#63b8ff" stroke="#63b8ff" points="1575.25,-272.1 1567.76,-279.59 1578.29,-278.4 1575.25,-272.1"/>
</a>
</g>
</g>
<!-- Node4 -->
<g id="Node000004" class="node">
<title>Node4</title>
<g id="a_Node000004"><a xlink:href="100__continue_2main_8cpp.html" target="_top" xlink:title=" ">
<polygon fill="white" stroke="#666666" points="1301,-20 1139.5,-20 1139.5,0 1301,0 1301,-20"/>
<text text-anchor="middle" x="1220.25" y="-6.5" font-family="Helvetica,sans-Serif" font-size="10.00">examples/100_continue/main.cpp</text>
</a>
</g>
</g>
<!-- Node3&#45;&gt;Node4 -->
<g id="edge3_Node000003_Node000004" class="edge">
<title>Node3&#45;&gt;Node4</title>
<g id="a_edge3_Node000003_Node000004"><a xlink:title=" ">
<path fill="none" stroke="#63b8ff" d="M1107.58,-167.71C1134.34,-161.05 1161.39,-150.04 1182.25,-132 1216.22,-102.62 1220.18,-43.23 1220.39,-20.31"/>
<polygon fill="#63b8ff" stroke="#63b8ff" points="1106.92,-164.5 1097.96,-170.14 1108.48,-171.32 1106.92,-164.5"/>
</a>
</g>
</g>
<!-- Node5 -->
<g id="Node000005" class="node">
<title>Node5</title>
<g id="a_Node000005"><a xlink:href="examples_2100__continue_2request__listener_8hpp.html" target="_top" xlink:title=" ">
<polygon fill="white" stroke="#666666" points="1173,-132 963.5,-132 963.5,-112 1173,-112 1173,-132"/>
<text text-anchor="middle" x="1068.25" y="-118.5" font-family="Helvetica,sans-Serif" font-size="10.00">examples/100_continue/request_listener.hpp</text>
</a>
</g>
</g>
<!-- Node3&#45;&gt;Node5 -->
<g id="edge4_Node000003_Node000005" class="edge">
<title>Node3&#45;&gt;Node5</title>
<g id="a_edge4_Node000003_Node000005"><a xlink:title=" ">
<path fill="none" stroke="#63b8ff" d="M1022.2,-160.68C1033.55,-151.39 1047.37,-140.09 1056.89,-132.3"/>
<polygon fill="#63b8ff" stroke="#63b8ff" points="1020.27,-158.55 1014.75,-167.59 1024.7,-163.97 1020.27,-158.55"/>
</a>
</g>
</g>
<!-- Node7 -->
<g id="Node000007" class="node">
<title>Node7</title>
<g id="a_Node000007"><a xlink:href="file__server_8hpp.html" target="_top" xlink:title=" ">
<polygon fill="white" stroke="#666666" points="307.5,-132 113,-132 113,-112 307.5,-112 307.5,-132"/>
<text text-anchor="middle" x="210.25" y="-118.5" font-family="Helvetica,sans-Serif" font-size="10.00">examples/serve_directory/file_server.hpp</text>
</a>
</g>
</g>
<!-- Node3&#45;&gt;Node7 -->
<g id="edge7_Node000003_Node000007" class="edge">
<title>Node3&#45;&gt;Node7</title>
<g id="a_edge7_Node000003_Node000007"><a xlink:title=" ">
<path fill="none" stroke="#63b8ff" d="M896.55,-170.51C762.63,-162.16 524.75,-146.97 321.25,-132 316.82,-131.67 312.28,-131.33 307.7,-130.98"/>
<polygon fill="#63b8ff" stroke="#63b8ff" points="896,-174.04 906.2,-171.17 896.43,-167.05 896,-174.04"/>
</a>
</g>
</g>
<!-- Node9 -->
<g id="Node000009" class="node">
<title>Node9</title>
<g id="a_Node000009"><a xlink:href="serve__directory_2main_8cpp.html" target="_top" xlink:title=" ">
<polygon fill="white" stroke="#666666" points="170.5,-20 0,-20 0,0 170.5,0 170.5,-20"/>
<text text-anchor="middle" x="85.25" y="-6.5" font-family="Helvetica,sans-Serif" font-size="10.00">examples/serve_directory/main.cpp</text>
</a>
</g>
</g>
<!-- Node3&#45;&gt;Node9 -->
<g id="edge10_Node000003_Node000009" class="edge">
<title>Node3&#45;&gt;Node9</title>
<g id="a_edge10_Node000003_Node000009"><a xlink:title=" ">
<path fill="none" stroke="#63b8ff" d="M896.75,-175.01C666.02,-170.21 134.62,-156.53 104.25,-132 70.34,-104.6 78.56,-43.49 83.17,-20.23"/>
<polygon fill="#63b8ff" stroke="#63b8ff" points="896.44,-178.52 906.51,-175.23 896.58,-171.52 896.44,-178.52"/>
</a>
</g>
</g>
<!-- Node10 -->
<g id="Node000010" class="node">
<title>Node10</title>
<g id="a_Node000010"><a xlink:href="simple__server_2main_8cpp.html" target="_top" xlink:title=" ">
<polygon fill="white" stroke="#666666" points="455.5,-20 291,-20 291,0 455.5,0 455.5,-20"/>
<text text-anchor="middle" x="373.25" y="-6.5" font-family="Helvetica,sans-Serif" font-size="10.00">examples/simple_server/main.cpp</text>
</a>
</g>
</g>
<!-- Node3&#45;&gt;Node10 -->
<g id="edge11_Node000003_Node000010" class="edge">
<title>Node3&#45;&gt;Node10</title>
<g id="a_edge11_Node000003_Node000010"><a xlink:title=" ">
<path fill="none" stroke="#63b8ff" d="M896.74,-175.77C732.4,-172.89 430.12,-163.34 392.25,-132 358.67,-104.21 366.69,-43.33 371.21,-20.18"/>
<polygon fill="#63b8ff" stroke="#63b8ff" points="896.3,-179.28 906.36,-175.95 896.42,-172.28 896.3,-179.28"/>
</a>
</g>
</g>
<!-- Node11 -->
<g id="Node000011" class="node">
<title>Node11</title>
<g id="a_Node000011"><a xlink:href="examples_2simple__server_2request__listener_8hpp.html" target="_top" xlink:title=" ">
<polygon fill="white" stroke="#666666" points="613.5,-132 401,-132 401,-112 613.5,-112 613.5,-132"/>
<text text-anchor="middle" x="507.25" y="-118.5" font-family="Helvetica,sans-Serif" font-size="10.00">examples/simple_server/request_listener.hpp</text>
</a>
</g>
</g>
<!-- Node3&#45;&gt;Node11 -->
<g id="edge12_Node000003_Node000011" class="edge">
<title>Node3&#45;&gt;Node11</title>
<g id="a_edge12_Node000003_Node000011"><a xlink:title=" ">
<path fill="none" stroke="#63b8ff" d="M904.37,-166.32C813.99,-156.46 681,-141.95 594.25,-132.49"/>
<polygon fill="#63b8ff" stroke="#63b8ff" points="903.86,-169.9 914.18,-167.5 904.62,-162.94 903.86,-169.9"/>
</a>
</g>
</g>
<!-- Node13 -->
<g id="Node000013" class="node">
<title>Node13</title>
<g id="a_Node000013"><a xlink:href="websocket_2main_8cpp.html" target="_top" xlink:title=" ">
<polygon fill="white" stroke="#666666" points="754.75,-20 603.75,-20 603.75,0 754.75,0 754.75,-20"/>
<text text-anchor="middle" x="679.25" y="-6.5" font-family="Helvetica,sans-Serif" font-size="10.00">examples/websocket/main.cpp</text>
</a>
</g>
</g>
<!-- Node3&#45;&gt;Node13 -->
<g id="edge15_Node000003_Node000013" class="edge">
<title>Node3&#45;&gt;Node13</title>
<g id="a_edge15_Node000003_Node000013"><a xlink:title=" ">
<path fill="none" stroke="#63b8ff" d="M896.91,-173.49C821.04,-168.78 727.16,-157.77 698.25,-132 665.87,-103.14 673.03,-43.44 677.28,-20.38"/>
<polygon fill="#63b8ff" stroke="#63b8ff" points="896.3,-177.02 906.49,-174.11 896.71,-170.03 896.3,-177.02"/>
</a>
</g>
</g>
<!-- Node14 -->
<g id="Node000014" class="node">
<title>Node14</title>
<g id="a_Node000014"><a xlink:href="examples_2websocket_2request__listener_8hpp.html" target="_top" xlink:title=" ">
<polygon fill="white" stroke="#666666" points="906.75,-132 707.75,-132 707.75,-112 906.75,-112 906.75,-132"/>
<text text-anchor="middle" x="807.25" y="-118.5" font-family="Helvetica,sans-Serif" font-size="10.00">examples/websocket/request_listener.hpp</text>
</a>
</g>
</g>
<!-- Node3&#45;&gt;Node14 -->
<g id="edge16_Node000003_Node000014" class="edge">
<title>Node3&#45;&gt;Node14</title>
<g id="a_edge16_Node000003_Node000014"><a xlink:title=" ">
<path fill="none" stroke="#63b8ff" d="M957.78,-164.69C922.47,-154.91 873.81,-141.43 841.48,-132.48"/>
<polygon fill="#63b8ff" stroke="#63b8ff" points="956.71,-168.3 967.28,-167.59 958.58,-161.55 956.71,-168.3"/>
</a>
</g>
</g>
<!-- Node16 -->
<g id="Node000016" class="node">
<title>Node16</title>
<g id="a_Node000016"><a xlink:href="directory__server_8hpp.html" target="_top" xlink:title=" ">
<polygon fill="white" stroke="#666666" points="1497.5,-132 1267,-132 1267,-112 1497.5,-112 1497.5,-132"/>
<text text-anchor="middle" x="1382.25" y="-118.5" font-family="Helvetica,sans-Serif" font-size="10.00">include/roar/directory_server/directory_server.hpp</text>
</a>
</g>
</g>
<!-- Node3&#45;&gt;Node16 -->
<g id="edge19_Node000003_Node000016" class="edge">
<title>Node3&#45;&gt;Node16</title>
<g id="a_edge19_Node000003_Node000016"><a xlink:title=" ">
<path fill="none" stroke="#63b8ff" d="M1079.74,-165.99C1149.14,-156.13 1249.86,-141.81 1315.7,-132.46"/>
<polygon fill="#63b8ff" stroke="#63b8ff" points="1079.28,-162.66 1069.88,-167.53 1080.27,-169.59 1079.28,-162.66"/>
</a>
</g>
</g>
<!-- Node3&#45;&gt;Node17 -->
<g id="edge28_Node000003_Node000017" class="edge">
<title>Node3&#45;&gt;Node17</title>
<g id="a_edge28_Node000003_Node000017"><a xlink:title=" ">
<path fill="none" stroke="#63b8ff" d="M1086.21,-165.75C1126.18,-158.77 1174.11,-148 1215.25,-132 1252.88,-117.37 1292.6,-90.69 1312.42,-76.49"/>
<polygon fill="#63b8ff" stroke="#63b8ff" points="1085.7,-162.45 1076.43,-167.57 1086.87,-169.35 1085.7,-162.45"/>
</a>
</g>
</g>
<!-- Node19 -->
<g id="Node000019" class="node">
<title>Node19</title>
<g id="a_Node000019"><a xlink:href="src_2roar_2routing_2request__listener_8cpp.html" target="_top" xlink:title=" ">
<polygon fill="white" stroke="#666666" points="1071.25,-20 899.25,-20 899.25,0 1071.25,0 1071.25,-20"/>
<text text-anchor="middle" x="985.25" y="-6.5" font-family="Helvetica,sans-Serif" font-size="10.00">src/roar/routing/request_listener.cpp</text>
</a>
</g>
</g>
<!-- Node3&#45;&gt;Node19 -->
<g id="edge29_Node000003_Node000019" class="edge">
<title>Node3&#45;&gt;Node19</title>
<g id="a_edge29_Node000003_Node000019"><a xlink:title=" ">
<path fill="none" stroke="#63b8ff" d="M978.26,-161.17C968.92,-153.57 959.27,-143.6 954.25,-132 940.82,-101.01 944.22,-88.25 954.25,-56 958.53,-42.23 968.66,-28.95 976.18,-20.43"/>
<polygon fill="#63b8ff" stroke="#63b8ff" points="975.85,-164.49 985.95,-167.69 980.05,-158.89 975.85,-164.49"/>
</a>
</g>
</g>
<!-- Node5&#45;&gt;Node4 -->
<g id="edge5_Node000005_Node000004" class="edge">
<title>Node5&#45;&gt;Node4</title>
<g id="a_edge5_Node000005_Node000004"><a xlink:title=" ">
<path fill="none" stroke="#63b8ff" d="M1120.88,-108.31C1141.7,-101.35 1164.77,-90.99 1182.25,-76 1200.31,-60.51 1211.9,-34.19 1217.09,-20.27"/>
<polygon fill="#63b8ff" stroke="#63b8ff" points="1120.06,-105.22 1111.57,-111.56 1122.16,-111.89 1120.06,-105.22"/>
</a>
</g>
</g>
<!-- Node6 -->
<g id="Node000006" class="node">
<title>Node6</title>
<g id="a_Node000006"><a xlink:href="examples_2100__continue_2request__listener_8cpp.html" target="_top" xlink:title=" ">
<polygon fill="white" stroke="#666666" points="1173,-76 963.5,-76 963.5,-56 1173,-56 1173,-76"/>
<text text-anchor="middle" x="1068.25" y="-62.5" font-family="Helvetica,sans-Serif" font-size="10.00">examples/100_continue/request_listener.cpp</text>
</a>
</g>
</g>
<!-- Node5&#45;&gt;Node6 -->
<g id="edge6_Node000005_Node000006" class="edge">
<title>Node5&#45;&gt;Node6</title>
<g id="a_edge6_Node000005_Node000006"><a xlink:title=" ">
<path fill="none" stroke="#63b8ff" d="M1068.25,-100.71C1068.25,-92.32 1068.25,-83.01 1068.25,-76.3"/>
<polygon fill="#63b8ff" stroke="#63b8ff" points="1064.75,-100.59 1068.25,-110.59 1071.75,-100.59 1064.75,-100.59"/>
</a>
</g>
</g>
<!-- Node8 -->
<g id="Node000008" class="node">
<title>Node8</title>
<g id="a_Node000008"><a xlink:href="file__server_8cpp.html" target="_top" xlink:title=" ">
<polygon fill="white" stroke="#666666" points="307.5,-76 113,-76 113,-56 307.5,-56 307.5,-76"/>
<text text-anchor="middle" x="210.25" y="-62.5" font-family="Helvetica,sans-Serif" font-size="10.00">examples/serve_directory/file_server.cpp</text>
</a>
</g>
</g>
<!-- Node7&#45;&gt;Node8 -->
<g id="edge8_Node000007_Node000008" class="edge">
<title>Node7&#45;&gt;Node8</title>
<g id="a_edge8_Node000007_Node000008"><a xlink:title=" ">
<path fill="none" stroke="#63b8ff" d="M210.25,-100.71C210.25,-92.32 210.25,-83.01 210.25,-76.3"/>
<polygon fill="#63b8ff" stroke="#63b8ff" points="206.75,-100.59 210.25,-110.59 213.75,-100.59 206.75,-100.59"/>
</a>
</g>
</g>
<!-- Node7&#45;&gt;Node9 -->
<g id="edge9_Node000007_Node000009" class="edge">
<title>Node7&#45;&gt;Node9</title>
<g id="a_edge9_Node000007_Node000009"><a xlink:title=" ">
<path fill="none" stroke="#63b8ff" d="M155.62,-108.13C137.09,-101.33 117.7,-91.13 104.25,-76 90.03,-60.01 86.43,-33.9 85.53,-20.15"/>
<polygon fill="#63b8ff" stroke="#63b8ff" points="154.19,-111.68 164.79,-111.57 156.44,-105.05 154.19,-111.68"/>
</a>
</g>
</g>
<!-- Node11&#45;&gt;Node10 -->
<g id="edge13_Node000011_Node000010" class="edge">
<title>Node11&#45;&gt;Node10</title>
<g id="a_edge13_Node000011_Node000010"><a xlink:title=" ">
<path fill="none" stroke="#63b8ff" d="M445.55,-108.25C426.22,-101.53 406.3,-91.35 392.25,-76 377.8,-60.21 374.3,-34.02 373.47,-20.2"/>
<polygon fill="#63b8ff" stroke="#63b8ff" points="444.29,-111.84 454.88,-111.55 446.42,-105.17 444.29,-111.84"/>
</a>
</g>
</g>
<!-- Node12 -->
<g id="Node000012" class="node">
<title>Node12</title>
<g id="a_Node000012"><a xlink:href="examples_2simple__server_2request__listener_8cpp.html" target="_top" xlink:title=" ">
<polygon fill="white" stroke="#666666" points="613.5,-76 401,-76 401,-56 613.5,-56 613.5,-76"/>
<text text-anchor="middle" x="507.25" y="-62.5" font-family="Helvetica,sans-Serif" font-size="10.00">examples/simple_server/request_listener.cpp</text>
</a>
</g>
</g>
<!-- Node11&#45;&gt;Node12 -->
<g id="edge14_Node000011_Node000012" class="edge">
<title>Node11&#45;&gt;Node12</title>
<g id="a_edge14_Node000011_Node000012"><a xlink:title=" ">
<path fill="none" stroke="#63b8ff" d="M507.25,-100.71C507.25,-92.32 507.25,-83.01 507.25,-76.3"/>
<polygon fill="#63b8ff" stroke="#63b8ff" points="503.75,-100.59 507.25,-110.59 510.75,-100.59 503.75,-100.59"/>
</a>
</g>
</g>
<!-- Node14&#45;&gt;Node13 -->
<g id="edge17_Node000014_Node000013" class="edge">
<title>Node14&#45;&gt;Node13</title>
<g id="a_edge17_Node000014_Node000013"><a xlink:title=" ">
<path fill="none" stroke="#63b8ff" d="M750.15,-108.11C731.38,-101.34 711.87,-91.16 698.25,-76 683.95,-60.08 680.38,-33.94 679.51,-20.16"/>
<polygon fill="#63b8ff" stroke="#63b8ff" points="748.86,-111.71 759.45,-111.54 751.06,-105.06 748.86,-111.71"/>
</a>
</g>
</g>
<!-- Node15 -->
<g id="Node000015" class="node">
<title>Node15</title>
<g id="a_Node000015"><a xlink:href="examples_2websocket_2request__listener_8cpp.html" target="_top" xlink:title=" ">
<polygon fill="white" stroke="#666666" points="906.75,-76 707.75,-76 707.75,-56 906.75,-56 906.75,-76"/>
<text text-anchor="middle" x="807.25" y="-62.5" font-family="Helvetica,sans-Serif" font-size="10.00">examples/websocket/request_listener.cpp</text>
</a>
</g>
</g>
<!-- Node14&#45;&gt;Node15 -->
<g id="edge18_Node000014_Node000015" class="edge">
<title>Node14&#45;&gt;Node15</title>
<g id="a_edge18_Node000014_Node000015"><a xlink:title=" ">
<path fill="none" stroke="#63b8ff" d="M807.25,-100.71C807.25,-92.32 807.25,-83.01 807.25,-76.3"/>
<polygon fill="#63b8ff" stroke="#63b8ff" points="803.75,-100.59 807.25,-110.59 810.75,-100.59 803.75,-100.59"/>
</a>
</g>
</g>
<!-- Node16&#45;&gt;Node17 -->
<g id="edge20_Node000016_Node000017" class="edge">
<title>Node16&#45;&gt;Node17</title>
<g id="a_edge20_Node000016_Node000017"><a xlink:title=" ">
<path fill="none" stroke="#63b8ff" d="M1364.44,-104.13C1354.74,-94.94 1343.12,-83.93 1335.06,-76.3"/>
<polygon fill="#63b8ff" stroke="#63b8ff" points="1361.65,-106.26 1371.32,-110.59 1366.47,-101.18 1361.65,-106.26"/>
</a>
</g>
</g>
<!-- Node17&#45;&gt;Node4 -->
<g id="edge21_Node000017_Node000004" class="edge">
<title>Node17&#45;&gt;Node4</title>
<g id="a_edge21_Node000017_Node000004"><a xlink:title=" ">
<path fill="none" stroke="#63b8ff" d="M1297.28,-50.61C1278.72,-41.07 1254.89,-28.81 1238.68,-20.48"/>
<polygon fill="#63b8ff" stroke="#63b8ff" points="1295.47,-54.13 1305.96,-55.59 1298.67,-47.91 1295.47,-54.13"/>
</a>
</g>
</g>
<!-- Node17&#45;&gt;Node9 -->
<g id="edge23_Node000017_Node000009" class="edge">
<title>Node17&#45;&gt;Node9</title>
<g id="a_edge23_Node000017_Node000009"><a xlink:title=" ">
<path fill="none" stroke="#63b8ff" d="M1256.57,-60.36C1233.01,-58.85 1206.48,-57.25 1182.25,-56 782.46,-35.43 682.2,-37.13 282.25,-20 245.65,-18.43 205.23,-16.6 170.58,-15"/>
<polygon fill="#63b8ff" stroke="#63b8ff" points="1256.31,-63.91 1266.52,-61.06 1256.76,-56.93 1256.31,-63.91"/>
</a>
</g>
</g>
<!-- Node17&#45;&gt;Node10 -->
<g id="edge24_Node000017_Node000010" class="edge">
<title>Node17&#45;&gt;Node10</title>
<g id="a_edge24_Node000017_Node000010"><a xlink:title=" ">
<path fill="none" stroke="#63b8ff" d="M1256.56,-60.57C1233,-59.08 1206.47,-57.44 1182.25,-56 916.85,-40.27 602.38,-23.24 455.95,-15.4"/>
<polygon fill="#63b8ff" stroke="#63b8ff" points="1256.3,-64.13 1266.51,-61.27 1256.75,-57.14 1256.3,-64.13"/>
</a>
</g>
</g>
<!-- Node17&#45;&gt;Node13 -->
<g id="edge25_Node000017_Node000013" class="edge">
<title>Node17&#45;&gt;Node13</title>
<g id="a_edge25_Node000017_Node000013"><a xlink:title=" ">
<path fill="none" stroke="#63b8ff" d="M1256.7,-59.27C1134.99,-49.1 882.05,-27.95 755.22,-17.35"/>
<polygon fill="#63b8ff" stroke="#63b8ff" points="1256.1,-62.82 1266.35,-60.16 1256.68,-55.84 1256.1,-62.82"/>
</a>
</g>
</g>
<!-- Node18 -->
<g id="Node000018" class="node">
<title>Node18</title>
<g id="a_Node000018"><a xlink:href="most__minimal_2main_8cpp.html" target="_top" xlink:title=" ">
<polygon fill="white" stroke="#666666" points="1483.5,-20 1319,-20 1319,0 1483.5,0 1483.5,-20"/>
<text text-anchor="middle" x="1401.25" y="-6.5" font-family="Helvetica,sans-Serif" font-size="10.00">examples/most_minimal/main.cpp</text>
</a>
</g>
</g>
<!-- Node17&#45;&gt;Node18 -->
<g id="edge22_Node000017_Node000018" class="edge">
<title>Node17&#45;&gt;Node18</title>
<g id="a_edge22_Node000017_Node000018"><a xlink:title=" ">
<path fill="none" stroke="#63b8ff" d="M1347.39,-49.27C1360.52,-39.94 1376.72,-28.43 1387.91,-20.48"/>
<polygon fill="#63b8ff" stroke="#63b8ff" points="1345.61,-46.95 1339.49,-55.59 1349.67,-52.65 1345.61,-46.95"/>
</a>
</g>
</g>
<!-- Node17&#45;&gt;Node19 -->
<g id="edge26_Node000017_Node000019" class="edge">
<title>Node17&#45;&gt;Node19</title>
<g id="a_edge26_Node000017_Node000019"><a xlink:title=" ">
<path fill="none" stroke="#63b8ff" d="M1256.71,-54.11C1194.63,-44.26 1104.09,-29.87 1044.93,-20.48"/>
<polygon fill="#63b8ff" stroke="#63b8ff" points="1256.15,-57.73 1266.57,-55.84 1257.25,-50.81 1256.15,-57.73"/>
</a>
</g>
</g>
<!-- Node20 -->
<g id="Node000020" class="node">
<title>Node20</title>
<g id="a_Node000020"><a xlink:href="server_8cpp.html" target="_top" xlink:title=" ">
<polygon fill="white" stroke="#666666" points="1804.12,-20 1706.38,-20 1706.38,0 1804.12,0 1804.12,-20"/>
<text text-anchor="middle" x="1755.25" y="-6.5" font-family="Helvetica,sans-Serif" font-size="10.00">src/roar/server.cpp</text>
</a>
</g>
</g>
<!-- Node17&#45;&gt;Node20 -->
<g id="edge27_Node000017_Node000020" class="edge">
<title>Node17&#45;&gt;Node20</title>
<g id="a_edge27_Node000017_Node000020"><a xlink:title=" ">
<path fill="none" stroke="#63b8ff" d="M1394.09,-56.35C1481.33,-45.4 1629.54,-26.79 1706.15,-17.17"/>
<polygon fill="#63b8ff" stroke="#63b8ff" points="1393.73,-53 1384.24,-57.72 1394.6,-59.94 1393.73,-53"/>
</a>
</g>
</g>
<!-- Node22 -->
<g id="Node000022" class="node">
<title>Node22</title>
<g id="a_Node000022"><a xlink:href="route_8cpp.html" target="_top" xlink:title=" ">
<polygon fill="white" stroke="#666666" points="2251.62,-188 2126.88,-188 2126.88,-168 2251.62,-168 2251.62,-188"/>
<text text-anchor="middle" x="2189.25" y="-174.5" font-family="Helvetica,sans-Serif" font-size="10.00">src/roar/routing/route.cpp</text>
</a>
</g>
</g>
<!-- Node21&#45;&gt;Node22 -->
<g id="edge31_Node000021_Node000022" class="edge">
<title>Node21&#45;&gt;Node22</title>
<g id="a_edge31_Node000021_Node000022"><a xlink:title=" ">
<path fill="none" stroke="#63b8ff" d="M2080.47,-219.79C2106.32,-210.1 2140.82,-197.16 2163.97,-188.48"/>
<polygon fill="#63b8ff" stroke="#63b8ff" points="2079.47,-216.81 2071.33,-223.59 2081.93,-223.36 2079.47,-216.81"/>
</a>
</g>
</g>
<!-- Node23 -->
<g id="Node000023" class="node">
<title>Node23</title>
<g id="a_Node000023"><a xlink:href="router_8cpp.html" target="_top" xlink:title=" ">
<polygon fill="white" stroke="#666666" points="2109.12,-188 1981.38,-188 1981.38,-168 2109.12,-168 2109.12,-188"/>
<text text-anchor="middle" x="2045.25" y="-174.5" font-family="Helvetica,sans-Serif" font-size="10.00">src/roar/routing/router.cpp</text>
</a>
</g>
</g>
<!-- Node21&#45;&gt;Node23 -->
<g id="edge32_Node000021_Node000023" class="edge">
<title>Node21&#45;&gt;Node23</title>
<g id="a_edge32_Node000021_Node000023"><a xlink:title=" ">
<path fill="none" stroke="#63b8ff" d="M2045.25,-212.71C2045.25,-204.32 2045.25,-195.01 2045.25,-188.3"/>
<polygon fill="#63b8ff" stroke="#63b8ff" points="2041.75,-212.59 2045.25,-222.59 2048.75,-212.59 2041.75,-212.59"/>
</a>
</g>
</g>
<!-- Node24&#45;&gt;Node20 -->
<g id="edge35_Node000024_Node000020" class="edge">
<title>Node24&#45;&gt;Node20</title>
<g id="a_edge35_Node000024_Node000020"><a xlink:title=" ">
<path fill="none" stroke="#63b8ff" d="M1900.6,-218.66C1921.74,-207.01 1943.8,-189.09 1934.25,-168 1900.64,-93.83 1812.76,-40.84 1774.04,-20.35"/>
<polygon fill="#63b8ff" stroke="#63b8ff" points="1899.36,-215.88 1892.07,-223.56 1902.57,-222.1 1899.36,-215.88"/>
</a>
</g>
</g>
<!-- Node24&#45;&gt;Node23 -->
<g id="edge34_Node000024_Node000023" class="edge">
<title>Node24&#45;&gt;Node23</title>
<g id="a_edge34_Node000024_Node000023"><a xlink:title=" ">
<path fill="none" stroke="#63b8ff" d="M1909.44,-220.43C1941.43,-210.67 1985.09,-197.35 2014.18,-188.48"/>
<polygon fill="#63b8ff" stroke="#63b8ff" points="1908.62,-217.33 1900.08,-223.59 1910.67,-224.02 1908.62,-217.33"/>
</a>
</g>
</g>
<!-- Node25 -->
<g id="Node000025" class="node">
<title>Node25</title>
<g id="a_Node000025"><a xlink:href="session_8cpp.html" target="_top" xlink:title=" ">
<polygon fill="white" stroke="#666666" points="1924.88,-188 1783.62,-188 1783.62,-168 1924.88,-168 1924.88,-188"/>
<text text-anchor="middle" x="1854.25" y="-174.5" font-family="Helvetica,sans-Serif" font-size="10.00">src/roar/session/session.cpp</text>
</a>
</g>
</g>
<!-- Node24&#45;&gt;Node25 -->
<g id="edge36_Node000024_Node000025" class="edge">
<title>Node24&#45;&gt;Node25</title>
<g id="a_edge36_Node000024_Node000025"><a xlink:title=" ">
<path fill="none" stroke="#63b8ff" d="M1863.07,-213C1860.87,-204.54 1858.42,-195.08 1856.66,-188.3"/>
<polygon fill="#63b8ff" stroke="#63b8ff" points="1859.91,-213.79 1865.81,-222.59 1866.69,-212.04 1859.91,-213.79"/>
</a>
</g>
</g>
<!-- Node26&#45;&gt;Node3 -->
<g id="edge40_Node000026_Node000003" class="edge">
<title>Node26&#45;&gt;Node3</title>
<g id="a_edge40_Node000026_Node000003"><a xlink:title=" ">
<path fill="none" stroke="#63b8ff" d="M1568.73,-225.56C1444.86,-215.38 1223.57,-197.19 1097.35,-186.82"/>
<polygon fill="#63b8ff" stroke="#63b8ff" points="1568.42,-229.13 1578.67,-226.46 1568.99,-222.15 1568.42,-229.13"/>
</a>
</g>
</g>
<!-- Node26&#45;&gt;Node16 -->
<g id="edge39_Node000026_Node000016" class="edge">
<title>Node26&#45;&gt;Node16</title>
<g id="a_edge39_Node000026_Node000016"><a xlink:title=" ">
<path fill="none" stroke="#63b8ff" d="M1625.71,-219.68C1568.88,-197.11 1455.02,-151.9 1405.81,-132.35"/>
<polygon fill="#63b8ff" stroke="#63b8ff" points="1624.05,-223.18 1634.63,-223.62 1626.63,-216.68 1624.05,-223.18"/>
</a>
</g>
</g>
<!-- Node26&#45;&gt;Node17 -->
<g id="edge41_Node000026_Node000017" class="edge">
<title>Node26&#45;&gt;Node17</title>
<g id="a_edge41_Node000026_Node000017"><a xlink:title=" ">
<path fill="none" stroke="#63b8ff" d="M1626.74,-218.86C1611.91,-211.26 1594.88,-200.81 1582.25,-188 1555,-160.37 1570.57,-134.91 1539.25,-112 1514.81,-94.12 1437.75,-81.05 1383.13,-73.74"/>
<polygon fill="#63b8ff" stroke="#63b8ff" points="1625.05,-222.42 1635.57,-223.65 1628.12,-216.12 1625.05,-222.42"/>
</a>
</g>
</g>
<!-- Node26&#45;&gt;Node20 -->
<g id="edge44_Node000026_Node000020" class="edge">
<title>Node26&#45;&gt;Node20</title>
<g id="a_edge44_Node000026_Node000020"><a xlink:title=" ">
<path fill="none" stroke="#63b8ff" d="M1697.89,-219.2C1712.25,-212.1 1727.23,-201.94 1736.25,-188 1771.68,-133.26 1761.61,-48.51 1756.98,-20.41"/>
<polygon fill="#63b8ff" stroke="#63b8ff" points="1696.79,-216.31 1689.13,-223.63 1699.68,-222.68 1696.79,-216.31"/>
</a>
</g>
</g>
<!-- Node26&#45;&gt;Node22 -->
<g id="edge42_Node000026_Node000022" class="edge">
<title>Node26&#45;&gt;Node22</title>
<g id="a_edge42_Node000026_Node000022"><a xlink:title=" ">
<path fill="none" stroke="#63b8ff" d="M1749.66,-224.9C1842.29,-216.42 1990.43,-202.36 2118.25,-188 2120.97,-187.69 2123.74,-187.38 2126.54,-187.05"/>
<polygon fill="#63b8ff" stroke="#63b8ff" points="1749.57,-221.48 1739.93,-225.88 1750.2,-228.46 1749.57,-221.48"/>
</a>
</g>
</g>
<!-- Node26&#45;&gt;Node23 -->
<g id="edge43_Node000026_Node000023" class="edge">
<title>Node26&#45;&gt;Node23</title>
<g id="a_edge43_Node000026_Node000023"><a xlink:title=" ">
<path fill="none" stroke="#63b8ff" d="M1737.71,-222.02C1809.47,-211.98 1914.34,-197.31 1981.18,-187.96"/>
<polygon fill="#63b8ff" stroke="#63b8ff" points="1737.35,-218.68 1727.93,-223.53 1738.32,-225.61 1737.35,-218.68"/>
</a>
</g>
</g>
<!-- Node26&#45;&gt;Node25 -->
<g id="edge46_Node000026_Node000025" class="edge">
<title>Node26&#45;&gt;Node25</title>
<g id="a_edge46_Node000026_Node000025"><a xlink:title=" ">
<path fill="none" stroke="#63b8ff" d="M1703.72,-220.69C1739.03,-210.91 1787.69,-197.43 1820.02,-188.48"/>
<polygon fill="#63b8ff" stroke="#63b8ff" points="1702.92,-217.55 1694.22,-223.59 1704.79,-224.3 1702.92,-217.55"/>
</a>
</g>
</g>
<!-- Node27 -->
<g id="Node000027" class="node">
<title>Node27</title>
<g id="a_Node000027"><a xlink:href="factory_8cpp.html" target="_top" xlink:title=" ">
<polygon fill="white" stroke="#666666" points="1727.62,-188 1590.88,-188 1590.88,-168 1727.62,-168 1727.62,-188"/>
<text text-anchor="middle" x="1659.25" y="-174.5" font-family="Helvetica,sans-Serif" font-size="10.00">src/roar/session/factory.cpp</text>
</a>
</g>
</g>
<!-- Node26&#45;&gt;Node27 -->
<g id="edge45_Node000026_Node000027" class="edge">
<title>Node26&#45;&gt;Node27</title>
<g id="a_edge45_Node000026_Node000027"><a xlink:title=" ">
<path fill="none" stroke="#63b8ff" d="M1659.25,-212.71C1659.25,-204.32 1659.25,-195.01 1659.25,-188.3"/>
<polygon fill="#63b8ff" stroke="#63b8ff" points="1655.75,-212.59 1659.25,-222.59 1662.75,-212.59 1655.75,-212.59"/>
</a>
</g>
</g>
</g>
</svg>

<g id="navigator" transform="translate(0 0)" fill="#404254">
  <rect fill="#f2f5e9" fill-opacity="0.5" stroke="#606060" stroke-width=".5" x="0" y="0" width="60" height="60"/>
  <use id="zoomplus" xlink:href="#zoomPlus" x="17" y="9" onmousedown="handleZoom(evt,'in')"/>
  <use id="zoomminus" xlink:href="#zoomMin" x="42" y="9" onmousedown="handleZoom(evt,'out')"/>
  <use id="reset" xlink:href="#resetDef" x="30" y="36" onmousedown="handleReset()"/>
   <use id="arrowup" xlink:href="#arrowUp" x="0" y="0" onmousedown="handlePan(0,-1)"/>
  <use id="arrowright" xlink:href="#arrowRight" x="0" y="0" onmousedown="handlePan(1,0)"/>
  <use id="arrowdown" xlink:href="#arrowDown" x="0" y="0" onmousedown="handlePan(0,1)"/>
  <use id="arrowleft" xlink:href="#arrowLeft" x="0" y="0" onmousedown="handlePan(-1,0)"/>
</g>
<svg viewBox="0 0 15 15" width="100%" height="30px" preserveAspectRatio="xMaxYMin meet">
 <g id="arrow_out" transform="scale(0.3 0.3)">
  <a xlink:href="regex_8hpp__dep__incl_org.svg" target="_base">
   <rect id="button" ry="5" rx="5" y="6" x="6" height="38" width="38"
        fill="#f2f5e9" fill-opacity="0.5" stroke="#606060" stroke-width="1.0"/>
   <path id="arrow"
     d="M 11.500037,31.436501 C 11.940474,20.09759 22.043105,11.32322 32.158766,21.979434 L 37.068811,17.246167 C 37.068811,17.246167 37.088388,32 37.088388,32 L 22.160133,31.978069 C 22.160133,31.978069 26.997745,27.140456 26.997745,27.140456 C 18.528582,18.264221 13.291696,25.230495 11.500037,31.436501 z"
     style="fill:#404040;"/>
  </a>
 </g>
</svg>

<style type='text/css'>
<![CDATA[
[data-mouse-over-selected='false'] { opacity: 0.7; }
[data-mouse-over-selected='true']  { opacity: 1.0; }
]]>
</style>
<script type="application/ecmascript"><![CDATA[
document.addEventListener('DOMContentLoaded', (event) => {
  highlightEdges();
  highlightAdjacentNodes();
});
]]></script>
</svg>
