<?xml version="1.0" encoding="UTF-8" standalone="no"?>
<!DOCTYPE svg PUBLIC "-//W3C//DTD SVG 1.1//EN"
 "http://www.w3.org/Graphics/SVG/1.1/DTD/svg11.dtd">
<!-- Generated by graphviz version 2.44.1 (20211215.1903)
 -->
<!-- Title: include/roar/detail/literals/regex.hpp Pages: 1 -->
<svg width="1814pt" height="308pt"
 viewBox="0.00 0.00 1813.50 308.00" xmlns="http://www.w3.org/2000/svg" xmlns:xlink="http://www.w3.org/1999/xlink">
<g id="graph0" class="graph" transform="scale(1 1) rotate(0) translate(4 304)">
<title>include/roar/detail/literals/regex.hpp</title>
<!-- Node1 -->
<g id="node1" class="node">
<title>Node1</title>
<g id="a_node1"><a xlink:title=" ">
<polygon fill="#bfbfbf" stroke="black" points="621,-280.5 621,-299.5 791,-299.5 791,-280.5 621,-280.5"/>
<text text-anchor="middle" x="706" y="-287.5" font-family="Helvetica,sans-Serif" font-size="10.00">include/roar/detail/literals/regex.hpp</text>
</a>
</g>
</g>
<!-- Node2 -->
<g id="node2" class="node">
<title>Node2</title>
<g id="a_node2"><a xlink:href="proto__route_8hpp.html" target="_top" xlink:title=" ">
<polygon fill="none" stroke="black" points="565,-224.5 565,-243.5 735,-243.5 735,-224.5 565,-224.5"/>
<text text-anchor="middle" x="650" y="-231.5" font-family="Helvetica,sans-Serif" font-size="10.00">include/roar/routing/proto_route.hpp</text>
</a>
</g>
</g>
<!-- Node1&#45;&gt;Node2 -->
<g id="edge1" class="edge">
<title>Node1&#45;&gt;Node2</title>
<path fill="none" stroke="midnightblue" d="M689.67,-273.25C679.74,-263.67 667.41,-251.79 659.16,-243.83"/>
<polygon fill="midnightblue" stroke="midnightblue" points="687.37,-275.9 697,-280.32 692.23,-270.86 687.37,-275.9"/>
</g>
<!-- Node3 -->
<g id="node3" class="node">
<title>Node3</title>
<g id="a_node3"><a xlink:href="include_2roar_2routing_2request__listener_8hpp.html" target="_top" xlink:title=" ">
<polygon fill="none" stroke="black" points="758,-112.5 758,-131.5 948,-131.5 948,-112.5 758,-112.5"/>
<text text-anchor="middle" x="853" y="-119.5" font-family="Helvetica,sans-Serif" font-size="10.00">include/roar/routing/request_listener.hpp</text>
</a>
</g>
</g>
<!-- Node1&#45;&gt;Node3 -->
<g id="edge40" class="edge">
<title>Node1&#45;&gt;Node3</title>
<path fill="none" stroke="midnightblue" d="M720.87,-272.21C751.81,-237.26 822.19,-157.79 845.41,-131.57"/>
<polygon fill="midnightblue" stroke="midnightblue" points="717.91,-270.27 713.9,-280.08 723.15,-274.91 717.91,-270.27"/>
</g>
<!-- Node2&#45;&gt;Node3 -->
<g id="edge2" class="edge">
<title>Node2&#45;&gt;Node3</title>
<path fill="none" stroke="midnightblue" d="M678.55,-220.16C697.36,-211.49 722.41,-199.57 744,-188 779.15,-169.16 819.08,-144.47 839.47,-131.62"/>
<polygon fill="midnightblue" stroke="midnightblue" points="676.98,-217.03 669.34,-224.37 679.89,-223.39 676.98,-217.03"/>
</g>
<!-- Node14 -->
<g id="node14" class="node">
<title>Node14</title>
<g id="a_node14"><a xlink:href="server_8hpp.html" target="_top" xlink:title=" ">
<polygon fill="none" stroke="black" points="526,-56.5 526,-75.5 642,-75.5 642,-56.5 526,-56.5"/>
<text text-anchor="middle" x="584" y="-63.5" font-family="Helvetica,sans-Serif" font-size="10.00">include/roar/server.hpp</text>
</a>
</g>
</g>
<!-- Node2&#45;&gt;Node14 -->
<g id="edge31" class="edge">
<title>Node2&#45;&gt;Node14</title>
<path fill="none" stroke="midnightblue" d="M668.19,-217.37C693.76,-193.46 734.62,-146.94 710,-112 699.6,-97.24 655.34,-83.81 622.2,-75.54"/>
<polygon fill="midnightblue" stroke="midnightblue" points="665.6,-214.99 660.52,-224.29 670.29,-220.18 665.6,-214.99"/>
</g>
<!-- Node18 -->
<g id="node18" class="node">
<title>Node18</title>
<g id="a_node18"><a xlink:href="route_8hpp.html" target="_top" xlink:title=" ">
<polygon fill="none" stroke="black" points="130.5,-168.5 130.5,-187.5 273.5,-187.5 273.5,-168.5 130.5,-168.5"/>
<text text-anchor="middle" x="202" y="-175.5" font-family="Helvetica,sans-Serif" font-size="10.00">include/roar/routing/route.hpp</text>
</a>
</g>
</g>
<!-- Node2&#45;&gt;Node18 -->
<g id="edge24" class="edge">
<title>Node2&#45;&gt;Node18</title>
<path fill="none" stroke="midnightblue" d="M568.94,-223.23C484.37,-213.04 353.13,-197.22 272.65,-187.52"/>
<polygon fill="midnightblue" stroke="midnightblue" points="568.67,-226.72 579.01,-224.44 569.5,-219.77 568.67,-226.72"/>
</g>
<!-- Node21 -->
<g id="node21" class="node">
<title>Node21</title>
<g id="a_node21"><a xlink:href="router_8hpp.html" target="_top" xlink:title=" ">
<polygon fill="none" stroke="black" points="292,-168.5 292,-187.5 438,-187.5 438,-168.5 292,-168.5"/>
<text text-anchor="middle" x="365" y="-175.5" font-family="Helvetica,sans-Serif" font-size="10.00">include/roar/routing/router.hpp</text>
</a>
</g>
</g>
<!-- Node2&#45;&gt;Node21 -->
<g id="edge27" class="edge">
<title>Node2&#45;&gt;Node21</title>
<path fill="none" stroke="midnightblue" d="M594.78,-222.54C540.92,-212.33 460,-197 409.95,-187.52"/>
<polygon fill="midnightblue" stroke="midnightblue" points="594.36,-226.02 604.84,-224.44 595.67,-219.14 594.36,-226.02"/>
</g>
<!-- Node23 -->
<g id="node23" class="node">
<title>Node23</title>
<g id="a_node23"><a xlink:href="session_8hpp.html" target="_top" xlink:title=" ">
<polygon fill="none" stroke="black" points="456.5,-168.5 456.5,-187.5 615.5,-187.5 615.5,-168.5 456.5,-168.5"/>
<text text-anchor="middle" x="536" y="-175.5" font-family="Helvetica,sans-Serif" font-size="10.00">include/roar/session/session.hpp</text>
</a>
</g>
</g>
<!-- Node2&#45;&gt;Node23 -->
<g id="edge32" class="edge">
<title>Node2&#45;&gt;Node23</title>
<path fill="none" stroke="midnightblue" d="M622.76,-220.1C601.46,-210.01 572.46,-196.27 553.98,-187.52"/>
<polygon fill="midnightblue" stroke="midnightblue" points="621.4,-223.33 631.94,-224.44 624.4,-217 621.4,-223.33"/>
</g>
<!-- Node4 -->
<g id="node4" class="node">
<title>Node4</title>
<g id="a_node4"><a xlink:href="100__continue_2main_8cpp.html" target="_top" xlink:title=" ">
<polygon fill="none" stroke="black" points="1001,-0.5 1001,-19.5 1163,-19.5 1163,-0.5 1001,-0.5"/>
<text text-anchor="middle" x="1082" y="-7.5" font-family="Helvetica,sans-Serif" font-size="10.00">examples/100_continue/main.cpp</text>
</a>
</g>
</g>
<!-- Node3&#45;&gt;Node4 -->
<g id="edge3" class="edge">
<title>Node3&#45;&gt;Node4</title>
<path fill="none" stroke="midnightblue" d="M880.29,-107.91C898.65,-99.04 923.36,-86.98 945,-76 962.02,-67.36 965.86,-64.4 983,-56 1010.13,-42.71 1042.02,-28.45 1062.12,-19.63"/>
<polygon fill="midnightblue" stroke="midnightblue" points="878.55,-104.87 871.06,-112.36 881.59,-111.17 878.55,-104.87"/>
</g>
<!-- Node5 -->
<g id="node5" class="node">
<title>Node5</title>
<g id="a_node5"><a xlink:href="examples_2100__continue_2request__listener_8hpp.html" target="_top" xlink:title=" ">
<polygon fill="none" stroke="black" points="992,-56.5 992,-75.5 1202,-75.5 1202,-56.5 992,-56.5"/>
<text text-anchor="middle" x="1097" y="-63.5" font-family="Helvetica,sans-Serif" font-size="10.00">examples/100_continue/request_listener.hpp</text>
</a>
</g>
</g>
<!-- Node3&#45;&gt;Node5 -->
<g id="edge4" class="edge">
<title>Node3&#45;&gt;Node5</title>
<path fill="none" stroke="midnightblue" d="M901.43,-110.28C947.54,-100.08 1016.03,-84.92 1058.52,-75.52"/>
<polygon fill="midnightblue" stroke="midnightblue" points="900.67,-106.87 891.66,-112.44 902.18,-113.7 900.67,-106.87"/>
</g>
<!-- Node7 -->
<g id="node7" class="node">
<title>Node7</title>
<g id="a_node7"><a xlink:href="request__listener_2main_8cpp.html" target="_top" xlink:title=" ">
<polygon fill="none" stroke="black" points="1258.5,-56.5 1258.5,-75.5 1431.5,-75.5 1431.5,-56.5 1258.5,-56.5"/>
<text text-anchor="middle" x="1345" y="-63.5" font-family="Helvetica,sans-Serif" font-size="10.00">examples/request_listener/main.cpp</text>
</a>
</g>
</g>
<!-- Node3&#45;&gt;Node7 -->
<g id="edge7" class="edge">
<title>Node3&#45;&gt;Node7</title>
<path fill="none" stroke="midnightblue" d="M940.9,-111.35C1033.7,-101.17 1178.57,-85.27 1267.31,-75.53"/>
<polygon fill="midnightblue" stroke="midnightblue" points="940.25,-107.9 930.69,-112.47 941.01,-114.86 940.25,-107.9"/>
</g>
<!-- Node8 -->
<g id="node8" class="node">
<title>Node8</title>
<g id="a_node8"><a xlink:href="simple__server_2main_8cpp.html" target="_top" xlink:title=" ">
<polygon fill="none" stroke="black" points="1409.5,-0.5 1409.5,-19.5 1574.5,-19.5 1574.5,-0.5 1409.5,-0.5"/>
<text text-anchor="middle" x="1492" y="-7.5" font-family="Helvetica,sans-Serif" font-size="10.00">examples/simple_server/main.cpp</text>
</a>
</g>
</g>
<!-- Node3&#45;&gt;Node8 -->
<g id="edge8" class="edge">
<title>Node3&#45;&gt;Node8</title>
<path fill="none" stroke="midnightblue" d="M958.4,-117.39C1030.81,-112.59 1128.4,-101.5 1211,-76 1229.61,-70.25 1231.56,-62.29 1250,-56 1303.69,-37.68 1366.77,-26.26 1415.07,-19.51"/>
<polygon fill="midnightblue" stroke="midnightblue" points="958.12,-113.9 948.36,-118.02 958.56,-120.88 958.12,-113.9"/>
</g>
<!-- Node9 -->
<g id="node9" class="node">
<title>Node9</title>
<g id="a_node9"><a xlink:href="examples_2simple__server_2request__listener_8hpp.html" target="_top" xlink:title=" ">
<polygon fill="none" stroke="black" points="1449.5,-56.5 1449.5,-75.5 1662.5,-75.5 1662.5,-56.5 1449.5,-56.5"/>
<text text-anchor="middle" x="1556" y="-63.5" font-family="Helvetica,sans-Serif" font-size="10.00">examples/simple_server/request_listener.hpp</text>
</a>
</g>
</g>
<!-- Node3&#45;&gt;Node9 -->
<g id="edge9" class="edge">
<title>Node3&#45;&gt;Node9</title>
<path fill="none" stroke="midnightblue" d="M958.31,-113C1075.98,-104.04 1272.14,-89.07 1441,-76 1443.8,-75.78 1446.63,-75.56 1449.49,-75.34"/>
<polygon fill="midnightblue" stroke="midnightblue" points="957.93,-109.51 948.23,-113.76 958.46,-116.49 957.93,-109.51"/>
</g>
<!-- Node11 -->
<g id="node11" class="node">
<title>Node11</title>
<g id="a_node11"><a xlink:href="websocket_2main_8cpp.html" target="_top" xlink:title=" ">
<polygon fill="none" stroke="black" points="613,-0.5 613,-19.5 765,-19.5 765,-0.5 613,-0.5"/>
<text text-anchor="middle" x="689" y="-7.5" font-family="Helvetica,sans-Serif" font-size="10.00">examples/websocket/main.cpp</text>
</a>
</g>
</g>
<!-- Node3&#45;&gt;Node11 -->
<g id="edge12" class="edge">
<title>Node3&#45;&gt;Node11</title>
<path fill="none" stroke="midnightblue" d="M796.15,-109.75C772.81,-102.96 746.71,-92.35 727,-76 708.49,-60.65 696.96,-33.78 691.93,-19.89"/>
<polygon fill="midnightblue" stroke="midnightblue" points="795.38,-113.17 805.95,-112.43 797.23,-106.41 795.38,-113.17"/>
</g>
<!-- Node12 -->
<g id="node12" class="node">
<title>Node12</title>
<g id="a_node12"><a xlink:href="examples_2websocket_2request__listener_8hpp.html" target="_top" xlink:title=" ">
<polygon fill="none" stroke="black" points="736,-56.5 736,-75.5 936,-75.5 936,-56.5 736,-56.5"/>
<text text-anchor="middle" x="836" y="-63.5" font-family="Helvetica,sans-Serif" font-size="10.00">examples/websocket/request_listener.hpp</text>
</a>
</g>
</g>
<!-- Node3&#45;&gt;Node12 -->
<g id="edge13" class="edge">
<title>Node3&#45;&gt;Node12</title>
<path fill="none" stroke="midnightblue" d="M847.14,-102.4C844.3,-93.36 841.02,-82.94 838.75,-75.75"/>
<polygon fill="midnightblue" stroke="midnightblue" points="843.85,-103.6 850.19,-112.08 850.53,-101.49 843.85,-103.6"/>
</g>
<!-- Node3&#45;&gt;Node14 -->
<g id="edge16" class="edge">
<title>Node3&#45;&gt;Node14</title>
<path fill="none" stroke="midnightblue" d="M800.56,-110.47C749.72,-100.27 673.56,-84.98 626.42,-75.52"/>
<polygon fill="midnightblue" stroke="midnightblue" points="799.88,-113.91 810.38,-112.44 801.26,-107.04 799.88,-113.91"/>
</g>
<!-- Node16 -->
<g id="node16" class="node">
<title>Node16</title>
<g id="a_node16"><a xlink:href="src_2roar_2routing_2request__listener_8cpp.html" target="_top" xlink:title=" ">
<polygon fill="none" stroke="black" points="421.5,-0.5 421.5,-19.5 594.5,-19.5 594.5,-0.5 421.5,-0.5"/>
<text text-anchor="middle" x="508" y="-7.5" font-family="Helvetica,sans-Serif" font-size="10.00">src/roar/routing/request_listener.cpp</text>
</a>
</g>
</g>
<!-- Node3&#45;&gt;Node16 -->
<g id="edge23" class="edge">
<title>Node3&#45;&gt;Node16</title>
<path fill="none" stroke="midnightblue" d="M814.16,-109.54C784.66,-100.71 743.14,-88.02 707,-76 681.92,-67.66 676.05,-64.41 651,-56 611.4,-42.7 565.25,-28.39 536.32,-19.56"/>
<polygon fill="midnightblue" stroke="midnightblue" points="813.49,-112.99 824.07,-112.49 815.49,-106.28 813.49,-112.99"/>
</g>
<!-- Node5&#45;&gt;Node4 -->
<g id="edge5" class="edge">
<title>Node5&#45;&gt;Node4</title>
<path fill="none" stroke="midnightblue" d="M1091.83,-46.4C1089.32,-37.36 1086.43,-26.94 1084.43,-19.75"/>
<polygon fill="midnightblue" stroke="midnightblue" points="1088.47,-47.38 1094.52,-56.08 1095.22,-45.51 1088.47,-47.38"/>
</g>
<!-- Node6 -->
<g id="node6" class="node">
<title>Node6</title>
<g id="a_node6"><a xlink:href="examples_2100__continue_2request__listener_8cpp.html" target="_top" xlink:title=" ">
<polygon fill="none" stroke="black" points="1181,-0.5 1181,-19.5 1391,-19.5 1391,-0.5 1181,-0.5"/>
<text text-anchor="middle" x="1286" y="-7.5" font-family="Helvetica,sans-Serif" font-size="10.00">examples/100_continue/request_listener.cpp</text>
</a>
</g>
</g>
<!-- Node5&#45;&gt;Node6 -->
<g id="edge6" class="edge">
<title>Node5&#45;&gt;Node6</title>
<path fill="none" stroke="midnightblue" d="M1137.01,-53.57C1172.67,-43.38 1224.04,-28.7 1256.19,-19.52"/>
<polygon fill="midnightblue" stroke="midnightblue" points="1135.6,-50.33 1126.95,-56.44 1137.52,-57.06 1135.6,-50.33"/>
</g>
<!-- Node9&#45;&gt;Node8 -->
<g id="edge10" class="edge">
<title>Node9&#45;&gt;Node8</title>
<path fill="none" stroke="midnightblue" d="M1538.01,-49.82C1526.54,-40.15 1512.09,-27.95 1502.47,-19.83"/>
<polygon fill="midnightblue" stroke="midnightblue" points="1535.82,-52.55 1545.72,-56.32 1540.33,-47.2 1535.82,-52.55"/>
</g>
<!-- Node10 -->
<g id="node10" class="node">
<title>Node10</title>
<g id="a_node10"><a xlink:href="examples_2simple__server_2request__listener_8cpp.html" target="_top" xlink:title=" ">
<polygon fill="none" stroke="black" points="1592.5,-0.5 1592.5,-19.5 1805.5,-19.5 1805.5,-0.5 1592.5,-0.5"/>
<text text-anchor="middle" x="1699" y="-7.5" font-family="Helvetica,sans-Serif" font-size="10.00">examples/simple_server/request_listener.cpp</text>
</a>
</g>
</g>
<!-- Node9&#45;&gt;Node10 -->
<g id="edge11" class="edge">
<title>Node9&#45;&gt;Node10</title>
<path fill="none" stroke="midnightblue" d="M1588.03,-52.91C1614.91,-42.75 1652.64,-28.51 1676.45,-19.52"/>
<polygon fill="midnightblue" stroke="midnightblue" points="1586.78,-49.64 1578.66,-56.44 1589.25,-56.19 1586.78,-49.64"/>
</g>
<!-- Node12&#45;&gt;Node11 -->
<g id="edge14" class="edge">
<title>Node12&#45;&gt;Node11</title>
<path fill="none" stroke="midnightblue" d="M803.08,-52.91C775.44,-42.75 736.66,-28.51 712.18,-19.52"/>
<polygon fill="midnightblue" stroke="midnightblue" points="802.11,-56.28 812.71,-56.44 804.53,-49.71 802.11,-56.28"/>
</g>
<!-- Node13 -->
<g id="node13" class="node">
<title>Node13</title>
<g id="a_node13"><a xlink:href="examples_2websocket_2request__listener_8cpp.html" target="_top" xlink:title=" ">
<polygon fill="none" stroke="black" points="783,-0.5 783,-19.5 983,-19.5 983,-0.5 783,-0.5"/>
<text text-anchor="middle" x="883" y="-7.5" font-family="Helvetica,sans-Serif" font-size="10.00">examples/websocket/request_listener.cpp</text>
</a>
</g>
</g>
<!-- Node12&#45;&gt;Node13 -->
<g id="edge15" class="edge">
<title>Node12&#45;&gt;Node13</title>
<path fill="none" stroke="midnightblue" d="M850.42,-48.43C858.66,-38.97 868.65,-27.48 875.38,-19.75"/>
<polygon fill="midnightblue" stroke="midnightblue" points="847.69,-46.24 843.76,-56.08 852.97,-50.84 847.69,-46.24"/>
</g>
<!-- Node14&#45;&gt;Node4 -->
<g id="edge17" class="edge">
<title>Node14&#45;&gt;Node4</title>
<path fill="none" stroke="midnightblue" d="M652.11,-57.61C743.82,-47.67 906.64,-30.01 1003.43,-19.52"/>
<polygon fill="midnightblue" stroke="midnightblue" points="651.67,-54.14 642.1,-58.7 652.42,-61.1 651.67,-54.14"/>
</g>
<!-- Node14&#45;&gt;Node8 -->
<g id="edge19" class="edge">
<title>Node14&#45;&gt;Node8</title>
<path fill="none" stroke="midnightblue" d="M652.37,-60.57C676,-59.07 702.66,-57.42 727,-56 1026.03,-38.59 1101.31,-42.59 1400,-20 1403.04,-19.77 1406.14,-19.52 1409.26,-19.27"/>
<polygon fill="midnightblue" stroke="midnightblue" points="651.85,-57.09 642.09,-61.22 652.29,-64.08 651.85,-57.09"/>
</g>
<!-- Node14&#45;&gt;Node11 -->
<g id="edge20" class="edge">
<title>Node14&#45;&gt;Node11</title>
<path fill="none" stroke="midnightblue" d="M609.81,-51.73C629.25,-41.73 655.35,-28.31 672.17,-19.65"/>
<polygon fill="midnightblue" stroke="midnightblue" points="608.16,-48.64 600.87,-56.32 611.36,-54.86 608.16,-48.64"/>
</g>
<!-- Node15 -->
<g id="node15" class="node">
<title>Node15</title>
<g id="a_node15"><a xlink:href="most__minimal_2main_8cpp.html" target="_top" xlink:title=" ">
<polygon fill="none" stroke="black" points="238.5,-0.5 238.5,-19.5 403.5,-19.5 403.5,-0.5 238.5,-0.5"/>
<text text-anchor="middle" x="321" y="-7.5" font-family="Helvetica,sans-Serif" font-size="10.00">examples/most_minimal/main.cpp</text>
</a>
</g>
</g>
<!-- Node14&#45;&gt;Node15 -->
<g id="edge18" class="edge">
<title>Node14&#45;&gt;Node15</title>
<path fill="none" stroke="midnightblue" d="M532.42,-54.41C482.72,-44.2 408.47,-28.96 362.48,-19.52"/>
<polygon fill="midnightblue" stroke="midnightblue" points="531.83,-57.86 542.33,-56.44 533.24,-51 531.83,-57.86"/>
</g>
<!-- Node14&#45;&gt;Node16 -->
<g id="edge21" class="edge">
<title>Node14&#45;&gt;Node16</title>
<path fill="none" stroke="midnightblue" d="M563.42,-50.38C549.69,-40.62 532.07,-28.11 520.43,-19.83"/>
<polygon fill="midnightblue" stroke="midnightblue" points="561.61,-53.38 571.79,-56.32 565.66,-47.68 561.61,-53.38"/>
</g>
<!-- Node17 -->
<g id="node17" class="node">
<title>Node17</title>
<g id="a_node17"><a xlink:href="server_8cpp.html" target="_top" xlink:title=" ">
<polygon fill="none" stroke="black" points="122,-0.5 122,-19.5 220,-19.5 220,-0.5 122,-0.5"/>
<text text-anchor="middle" x="171" y="-7.5" font-family="Helvetica,sans-Serif" font-size="10.00">src/roar/server.cpp</text>
</a>
</g>
</g>
<!-- Node14&#45;&gt;Node17 -->
<g id="edge22" class="edge">
<title>Node14&#45;&gt;Node17</title>
<path fill="none" stroke="midnightblue" d="M515.56,-56.43C420.4,-44.5 256.64,-23.9 229,-20 226.07,-19.59 223.07,-19.15 220.03,-18.71"/>
<polygon fill="midnightblue" stroke="midnightblue" points="515.32,-59.93 525.68,-57.7 516.19,-52.98 515.32,-59.93"/>
</g>
<!-- Node19 -->
<g id="node19" class="node">
<title>Node19</title>
<g id="a_node19"><a xlink:href="route_8cpp.html" target="_top" xlink:title=" ">
<polygon fill="none" stroke="black" points="184.5,-112.5 184.5,-131.5 309.5,-131.5 309.5,-112.5 184.5,-112.5"/>
<text text-anchor="middle" x="247" y="-119.5" font-family="Helvetica,sans-Serif" font-size="10.00">src/roar/routing/route.cpp</text>
</a>
</g>
</g>
<!-- Node18&#45;&gt;Node19 -->
<g id="edge25" class="edge">
<title>Node18&#45;&gt;Node19</title>
<path fill="none" stroke="midnightblue" d="M216.05,-160.14C223.89,-150.74 233.33,-139.4 239.71,-131.75"/>
<polygon fill="midnightblue" stroke="midnightblue" points="213.14,-158.16 209.43,-168.08 218.52,-162.64 213.14,-158.16"/>
</g>
<!-- Node20 -->
<g id="node20" class="node">
<title>Node20</title>
<g id="a_node20"><a xlink:href="router_8cpp.html" target="_top" xlink:title=" ">
<polygon fill="none" stroke="black" points="0,-112.5 0,-131.5 128,-131.5 128,-112.5 0,-112.5"/>
<text text-anchor="middle" x="64" y="-119.5" font-family="Helvetica,sans-Serif" font-size="10.00">src/roar/routing/router.cpp</text>
</a>
</g>
</g>
<!-- Node18&#45;&gt;Node20 -->
<g id="edge26" class="edge">
<title>Node18&#45;&gt;Node20</title>
<path fill="none" stroke="midnightblue" d="M170.75,-164.77C144.83,-154.63 108.64,-140.47 85.76,-131.52"/>
<polygon fill="midnightblue" stroke="midnightblue" points="169.55,-168.06 180.13,-168.44 172.1,-161.54 169.55,-168.06"/>
</g>
<!-- Node21&#45;&gt;Node17 -->
<g id="edge29" class="edge">
<title>Node21&#45;&gt;Node17</title>
<path fill="none" stroke="midnightblue" d="M281.81,-167.33C237.32,-160.3 188.89,-148.98 175,-132 147.72,-98.65 161.56,-41.12 168.16,-19.52"/>
<polygon fill="midnightblue" stroke="midnightblue" points="281.4,-170.81 291.82,-168.86 282.46,-163.89 281.4,-170.81"/>
</g>
<!-- Node21&#45;&gt;Node20 -->
<g id="edge28" class="edge">
<title>Node21&#45;&gt;Node20</title>
<path fill="none" stroke="midnightblue" d="M307.39,-166.66C250.5,-156.46 164.55,-141.04 111.47,-131.52"/>
<polygon fill="midnightblue" stroke="midnightblue" points="306.84,-170.12 317.31,-168.44 308.08,-163.23 306.84,-170.12"/>
</g>
<!-- Node22 -->
<g id="node22" class="node">
<title>Node22</title>
<g id="a_node22"><a xlink:href="session_8cpp.html" target="_top" xlink:title=" ">
<polygon fill="none" stroke="black" points="328,-112.5 328,-131.5 470,-131.5 470,-112.5 328,-112.5"/>
<text text-anchor="middle" x="399" y="-119.5" font-family="Helvetica,sans-Serif" font-size="10.00">src/roar/session/session.cpp</text>
</a>
</g>
</g>
<!-- Node21&#45;&gt;Node22 -->
<g id="edge30" class="edge">
<title>Node21&#45;&gt;Node22</title>
<path fill="none" stroke="midnightblue" d="M375.98,-159.57C381.83,-150.27 388.77,-139.25 393.49,-131.75"/>
<polygon fill="midnightblue" stroke="midnightblue" points="372.98,-157.76 370.61,-168.08 378.9,-161.49 372.98,-157.76"/>
</g>
<!-- Node23&#45;&gt;Node3 -->
<g id="edge33" class="edge">
<title>Node23&#45;&gt;Node3</title>
<path fill="none" stroke="midnightblue" d="M596.3,-166.73C656.21,-156.52 746.99,-141.06 803.01,-131.52"/>
<polygon fill="midnightblue" stroke="midnightblue" points="595.5,-163.31 586.23,-168.44 596.68,-170.21 595.5,-163.31"/>
</g>
<!-- Node23&#45;&gt;Node14 -->
<g id="edge34" class="edge">
<title>Node23&#45;&gt;Node14</title>
<path fill="none" stroke="midnightblue" d="M539.91,-158.46C543.08,-145.17 548.13,-127.04 555,-112 561.18,-98.47 570.96,-84.28 577.43,-75.53"/>
<polygon fill="midnightblue" stroke="midnightblue" points="536.48,-157.78 537.7,-168.3 543.31,-159.31 536.48,-157.78"/>
</g>
<!-- Node23&#45;&gt;Node17 -->
<g id="edge37" class="edge">
<title>Node23&#45;&gt;Node17</title>
<path fill="none" stroke="midnightblue" d="M524.63,-159.45C514.33,-144.85 497.9,-124.49 479,-112 397.19,-57.94 284.05,-30.68 220.14,-18.78"/>
<polygon fill="midnightblue" stroke="midnightblue" points="521.97,-161.77 530.48,-168.08 527.76,-157.84 521.97,-161.77"/>
</g>
<!-- Node23&#45;&gt;Node19 -->
<g id="edge35" class="edge">
<title>Node23&#45;&gt;Node19</title>
<path fill="none" stroke="midnightblue" d="M480.34,-166.6C425.73,-156.4 343.43,-141.02 292.58,-131.52"/>
<polygon fill="midnightblue" stroke="midnightblue" points="479.73,-170.05 490.21,-168.44 481.02,-163.17 479.73,-170.05"/>
</g>
<!-- Node23&#45;&gt;Node20 -->
<g id="edge36" class="edge">
<title>Node23&#45;&gt;Node20</title>
<path fill="none" stroke="midnightblue" d="M451.28,-167.31C358.56,-156.7 212,-139.93 128.29,-130.35"/>
<polygon fill="midnightblue" stroke="midnightblue" points="451.14,-170.81 461.47,-168.47 451.93,-163.86 451.14,-170.81"/>
</g>
<!-- Node23&#45;&gt;Node22 -->
<g id="edge39" class="edge">
<title>Node23&#45;&gt;Node22</title>
<path fill="none" stroke="midnightblue" d="M504.98,-164.77C479.24,-154.63 443.31,-140.47 420.61,-131.52"/>
<polygon fill="midnightblue" stroke="midnightblue" points="503.71,-168.03 514.29,-168.44 506.27,-161.52 503.71,-168.03"/>
</g>
<!-- Node24 -->
<g id="node24" class="node">
<title>Node24</title>
<g id="a_node24"><a xlink:href="factory_8cpp.html" target="_top" xlink:title=" ">
<polygon fill="none" stroke="black" points="564.5,-112.5 564.5,-131.5 701.5,-131.5 701.5,-112.5 564.5,-112.5"/>
<text text-anchor="middle" x="633" y="-119.5" font-family="Helvetica,sans-Serif" font-size="10.00">src/roar/session/factory.cpp</text>
</a>
</g>
</g>
<!-- Node23&#45;&gt;Node24 -->
<g id="edge38" class="edge">
<title>Node23&#45;&gt;Node24</title>
<path fill="none" stroke="midnightblue" d="M560.34,-163.45C578.24,-153.48 602.05,-140.23 617.45,-131.65"/>
<polygon fill="midnightblue" stroke="midnightblue" points="558.62,-160.4 551.58,-168.32 562.02,-166.52 558.62,-160.4"/>
</g>
</g>
</svg>
