<?xml version="1.0" encoding="UTF-8" standalone="no"?>
<!DOCTYPE svg PUBLIC "-//W3C//DTD SVG 1.1//EN"
 "http://www.w3.org/Graphics/SVG/1.1/DTD/svg11.dtd">
<!-- Generated by graphviz version 8.1.0 (0)
 -->
<!-- Title: src/roar/curl/request.cpp Pages: 1 -->
<!--zoomable 252 -->

<svg id="main" version="1.1" xmlns="http://www.w3.org/2000/svg" xmlns:xlink="http://www.w3.org/1999/xlink" xml:space="preserve" onload="init(evt)">
<style type="text/css"><![CDATA[
.node, .edge {opacity: 0.7;}
.node.selected, .edge.selected {opacity: 1;}
.edge:hover path { stroke: red; }
.edge:hover polygon { stroke: red; fill: red; }
]]></style>

<defs>
  <circle id="rim" cx="0" cy="0" r="7"/>
  <circle id="rim2" cx="0" cy="0" r="3.5"/>
  <g id="zoomPlus">
    <use xlink:href="#rim" fill="#404040"><set attributeName="fill" to="#808080" begin="zoomplus.mouseover" end="zoomplus.mouseout"/></use>
    <path d="M-4,0h8M0,-4v8" fill="none" stroke="white" stroke-width="1.5" pointer-events="none"/>
  </g>
  <g id="zoomMin">
    <use xlink:href="#rim" fill="#404040"><set attributeName="fill" to="#808080" begin="zoomminus.mouseover" end="zoomminus.mouseout"/></use>
    <path d="M-4,0h8" fill="none" stroke="white" stroke-width="1.5" pointer-events="none"/>
  </g>
  <g id="arrowUp" transform="translate(30 24)">
    <use xlink:href="#rim"/>
    <path pointer-events="none" fill="none" stroke="white" stroke-width="1.5" d="M0,-3.0v7 M-2.5,-0.5L0,-3.0L2.5,-0.5"/>
  </g>
  <g id="arrowRight" transform="rotate(90) translate(36 -43)">
    <use xlink:href="#rim"/>
    <path pointer-events="none" fill="none" stroke="white" stroke-width="1.5" d="M0,-3.0v7 M-2.5,-0.5L0,-3.0L2.5,-0.5"/>
  </g>
  <g id="arrowDown" transform="rotate(180) translate(-30 -48)">
    <use xlink:href="#rim"/>
    <path pointer-events="none" fill="none" stroke="white" stroke-width="1.5" d="M0,-3.0v7 M-2.5,-0.5L0,-3.0L2.5,-0.5"/>
  </g>
  <g id="arrowLeft" transform="rotate(270) translate(-36 17)">
    <use xlink:href="#rim"/>
    <path pointer-events="none" fill="none" stroke="white" stroke-width="1.5" d="M0,-3.0v7 M-2.5,-0.5L0,-3.0L2.5,-0.5"/>
  </g>
  <g id="resetDef">
    <use xlink:href="#rim2" fill="#404040"><set attributeName="fill" to="#808080" begin="reset.mouseover" end="reset.mouseout"/></use>
  </g>
</defs>
<script type="application/ecmascript">
var viewWidth = 1981;
var viewHeight = 252;
var sectionId = 'dynsection-0';
</script>
<script type="application/ecmascript" xlink:href="svg.min.js"/>
<svg id="graph" class="graph">
<g id="viewport">
<title>src/roar/curl/request.cpp</title>
<!-- Node1 -->
<g id="Node000001" class="node">
<title>Node1</title>
<g id="a_Node000001"><a xlink:title=" ">
<polygon fill="#999999" stroke="#666666" points="857.62,-244 735.88,-244 735.88,-224 857.62,-224 857.62,-244"/>
<text text-anchor="middle" x="796.75" y="-230.5" font-family="Helvetica,sans-Serif" font-size="10.00">src/roar/curl/request.cpp</text>
</a>
</g>
</g>
<!-- Node2 -->
<g id="Node000002" class="node">
<title>Node2</title>
<g id="a_Node000002"><a xlink:href="curl_2request_8hpp.html" target="_top" xlink:title=" ">
<polygon fill="white" stroke="#666666" points="930.38,-188 825.12,-188 825.12,-168 930.38,-168 930.38,-188"/>
<text text-anchor="middle" x="877.75" y="-174.5" font-family="Helvetica,sans-Serif" font-size="10.00">roar/curl/request.hpp</text>
</a>
</g>
</g>
<!-- Node1&#45;&gt;Node2 -->
<g id="edge1_Node000001_Node000002" class="edge">
<title>Node1&#45;&gt;Node2</title>
<g id="a_edge1_Node000001_Node000002"><a xlink:title=" ">
<path fill="none" stroke="#63b8ff" d="M810.86,-223.59C822.86,-215.59 840.35,-203.93 854.43,-194.54"/>
<polygon fill="#63b8ff" stroke="#63b8ff" points="856.15,-196.94 862.53,-188.48 852.27,-191.11 856.15,-196.94"/>
</a>
</g>
</g>
<!-- Node3 -->
<g id="Node000003" class="node">
<title>Node3</title>
<g id="a_Node000003"><a xlink:href="instance_8hpp.html" target="_top" xlink:title=" ">
<polygon fill="white" stroke="#666666" points="858.5,-76 787,-76 787,-56 858.5,-56 858.5,-76"/>
<text text-anchor="middle" x="822.75" y="-62.5" font-family="Helvetica,sans-Serif" font-size="10.00">instance.hpp</text>
</a>
</g>
</g>
<!-- Node1&#45;&gt;Node3 -->
<g id="edge30_Node000001_Node000003" class="edge">
<title>Node1&#45;&gt;Node3</title>
<g id="a_edge30_Node000001_Node000003"><a xlink:title=" ">
<path fill="none" stroke="#63b8ff" d="M798.22,-223.6C802.33,-197.35 814,-122.84 819.64,-86.89"/>
<polygon fill="#63b8ff" stroke="#63b8ff" points="823.2,-87.72 821.29,-77.3 816.29,-86.64 823.2,-87.72"/>
</a>
</g>
</g>
<!-- Node5 -->
<g id="Node000005" class="node">
<title>Node5</title>
<g id="a_Node000005"><a xlink:title=" ">
<polygon fill="#e0e0e0" stroke="#999999" points="912.38,-20 861.12,-20 861.12,0 912.38,0 912.38,-20"/>
<text text-anchor="middle" x="886.75" y="-6.5" font-family="Helvetica,sans-Serif" font-size="10.00">memory</text>
</a>
</g>
</g>
<!-- Node1&#45;&gt;Node5 -->
<g id="edge50_Node000001_Node000005" class="edge">
<title>Node1&#45;&gt;Node5</title>
<g id="a_edge50_Node000001_Node000005"><a xlink:title=" ">
<path fill="none" stroke="#63b8ff" d="M857.88,-229.02C1024.69,-217.54 1478.26,-181.97 1521.75,-132 1603.25,-38.36 1069.64,-16.2 923.21,-11.91"/>
<polygon fill="#63b8ff" stroke="#63b8ff" points="923.66,-8.39 913.57,-11.61 923.47,-15.39 923.66,-8.39"/>
</a>
</g>
</g>
<!-- Node6 -->
<g id="Node000006" class="node">
<title>Node6</title>
<g id="a_Node000006"><a xlink:title=" ">
<polygon fill="#e0e0e0" stroke="#999999" points="1298.12,-20 1239.38,-20 1239.38,0 1298.12,0 1298.12,-20"/>
<text text-anchor="middle" x="1268.75" y="-6.5" font-family="Helvetica,sans-Serif" font-size="10.00">stdexcept</text>
</a>
</g>
</g>
<!-- Node1&#45;&gt;Node6 -->
<g id="edge51_Node000001_Node000006" class="edge">
<title>Node1&#45;&gt;Node6</title>
<g id="a_edge51_Node000001_Node000006"><a xlink:title=" ">
<path fill="none" stroke="#63b8ff" d="M857.82,-232.89C963,-231.66 1184.65,-224.49 1367.75,-188 1446.59,-172.29 1492.52,-197.05 1539.75,-132 1600.57,-48.23 1399.02,-21.42 1309.45,-13.76"/>
<polygon fill="#63b8ff" stroke="#63b8ff" points="1309.85,-10.2 1299.6,-12.88 1309.29,-17.18 1309.85,-10.2"/>
</a>
</g>
</g>
<!-- Node7 -->
<g id="Node000007" class="node">
<title>Node7</title>
<g id="a_Node000007"><a xlink:href="curl_2response_8hpp.html" target="_top" xlink:title=" ">
<polygon fill="white" stroke="#666666" points="731,-132 656.5,-132 656.5,-112 731,-112 731,-132"/>
<text text-anchor="middle" x="693.75" y="-118.5" font-family="Helvetica,sans-Serif" font-size="10.00">response.hpp</text>
</a>
</g>
</g>
<!-- Node1&#45;&gt;Node7 -->
<g id="edge31_Node000001_Node000007" class="edge">
<title>Node1&#45;&gt;Node7</title>
<g id="a_edge31_Node000001_Node000007"><a xlink:title=" ">
<path fill="none" stroke="#63b8ff" d="M787.97,-223.62C770.64,-205.11 731.81,-163.65 709.79,-140.13"/>
<polygon fill="#63b8ff" stroke="#63b8ff" points="712.9,-138.26 703.51,-133.35 707.79,-143.05 712.9,-138.26"/>
</a>
</g>
</g>
<!-- Node10 -->
<g id="Node000010" class="node">
<title>Node10</title>
<g id="a_Node000010"><a xlink:href="source_8hpp.html" target="_top" xlink:title=" ">
<polygon fill="white" stroke="#666666" points="309.75,-132 245.75,-132 245.75,-112 309.75,-112 309.75,-132"/>
<text text-anchor="middle" x="277.75" y="-118.5" font-family="Helvetica,sans-Serif" font-size="10.00">source.hpp</text>
</a>
</g>
</g>
<!-- Node1&#45;&gt;Node10 -->
<g id="edge34_Node000001_Node000010" class="edge">
<title>Node1&#45;&gt;Node10</title>
<g id="a_edge34_Node000001_Node000010"><a xlink:title=" ">
<path fill="none" stroke="#63b8ff" d="M735.47,-233.04C657.38,-231.5 519.05,-223.38 406.75,-188 388.92,-182.38 386.37,-176.55 369.75,-168 349.04,-157.34 325.43,-145.81 307.31,-137.08"/>
<polygon fill="#63b8ff" stroke="#63b8ff" points="309.14,-133.6 298.61,-132.43 306.11,-139.91 309.14,-133.6"/>
</a>
</g>
</g>
<!-- Node21 -->
<g id="Node000021" class="node">
<title>Node21</title>
<g id="a_Node000021"><a xlink:href="curl__error_8hpp.html" target="_top" xlink:title=" ">
<polygon fill="white" stroke="#666666" points="113.5,-132 0,-132 0,-112 113.5,-112 113.5,-132"/>
<text text-anchor="middle" x="56.75" y="-118.5" font-family="Helvetica,sans-Serif" font-size="10.00">roar/curl/curl_error.hpp</text>
</a>
</g>
</g>
<!-- Node1&#45;&gt;Node21 -->
<g id="edge26_Node000001_Node000021" class="edge">
<title>Node1&#45;&gt;Node21</title>
<g id="a_edge26_Node000001_Node000021"><a xlink:title=" ">
<path fill="none" stroke="#63b8ff" d="M735.65,-233.23C570.52,-233.29 124.28,-229.58 73.75,-188 60.67,-177.24 56.96,-157.78 56.2,-142.94"/>
<polygon fill="#63b8ff" stroke="#63b8ff" points="59.69,-143.26 56.1,-133.3 52.69,-143.33 59.69,-143.26"/>
</a>
</g>
</g>
<!-- Node23 -->
<g id="Node000023" class="node">
<title>Node23</title>
<g id="a_Node000023"><a xlink:href="sink_8hpp.html" target="_top" xlink:title=" ">
<polygon fill="white" stroke="#666666" points="361.25,-188 270.25,-188 270.25,-168 361.25,-168 361.25,-188"/>
<text text-anchor="middle" x="315.75" y="-174.5" font-family="Helvetica,sans-Serif" font-size="10.00">roar/curl/sink.hpp</text>
</a>
</g>
</g>
<!-- Node1&#45;&gt;Node23 -->
<g id="edge32_Node000001_Node000023" class="edge">
<title>Node1&#45;&gt;Node23</title>
<g id="a_edge32_Node000001_Node000023"><a xlink:title=" ">
<path fill="none" stroke="#63b8ff" d="M735.65,-227.29C653.65,-219.44 503.52,-204.4 375.75,-188 374.6,-187.85 373.44,-187.7 372.27,-187.55"/>
<polygon fill="#63b8ff" stroke="#63b8ff" points="372.97,-183.97 362.58,-186.08 372.02,-190.91 372.97,-183.97"/>
</a>
</g>
</g>
<!-- Node24 -->
<g id="Node000024" class="node">
<title>Node24</title>
<g id="a_Node000024"><a xlink:href="file__source_8hpp.html" target="_top" xlink:title=" ">
<polygon fill="white" stroke="#666666" points="613.62,-188 455.88,-188 455.88,-168 613.62,-168 613.62,-188"/>
<text text-anchor="middle" x="534.75" y="-174.5" font-family="Helvetica,sans-Serif" font-size="10.00">roar/curl/sources/file_source.hpp</text>
</a>
</g>
</g>
<!-- Node1&#45;&gt;Node24 -->
<g id="edge35_Node000001_Node000024" class="edge">
<title>Node1&#45;&gt;Node24</title>
<g id="a_edge35_Node000001_Node000024"><a xlink:title=" ">
<path fill="none" stroke="#63b8ff" d="M750.81,-223.53C706.43,-214.38 639.09,-200.5 591.4,-190.68"/>
<polygon fill="#63b8ff" stroke="#63b8ff" points="592.13,-187.05 581.63,-188.46 590.72,-193.9 592.13,-187.05"/>
</a>
</g>
</g>
<!-- Node25 -->
<g id="Node000025" class="node">
<title>Node25</title>
<g id="a_Node000025"><a xlink:title=" ">
<polygon fill="#e0e0e0" stroke="#999999" points="377.25,-132 328.25,-132 328.25,-112 377.25,-112 377.25,-132"/>
<text text-anchor="middle" x="352.75" y="-118.5" font-family="Helvetica,sans-Serif" font-size="10.00">fstream</text>
</a>
</g>
</g>
<!-- Node1&#45;&gt;Node25 -->
<g id="edge49_Node000001_Node000025" class="edge">
<title>Node1&#45;&gt;Node25</title>
<g id="a_edge49_Node000001_Node000025"><a xlink:title=" ">
<path fill="none" stroke="#63b8ff" d="M735.49,-233.78C663.9,-232.76 542.98,-224.93 446.75,-188 417.46,-176.76 388.49,-154.61 370.62,-139.31"/>
<polygon fill="#63b8ff" stroke="#63b8ff" points="373.61,-136.4 363.79,-132.43 368.99,-141.66 373.61,-136.4"/>
</a>
</g>
</g>
<!-- Node27 -->
<g id="Node000027" class="node">
<title>Node27</title>
<g id="a_Node000027"><a xlink:href="string__source_8hpp.html" target="_top" xlink:title=" ">
<polygon fill="white" stroke="#666666" points="252.25,-188 83.25,-188 83.25,-168 252.25,-168 252.25,-188"/>
<text text-anchor="middle" x="167.75" y="-174.5" font-family="Helvetica,sans-Serif" font-size="10.00">roar/curl/sources/string_source.hpp</text>
</a>
</g>
</g>
<!-- Node1&#45;&gt;Node27 -->
<g id="edge41_Node000001_Node000027" class="edge">
<title>Node1&#45;&gt;Node27</title>
<g id="a_edge41_Node000001_Node000027"><a xlink:title=" ">
<path fill="none" stroke="#63b8ff" d="M735.64,-228.12C638.1,-220.28 440.91,-204.21 263.25,-188.22"/>
<polygon fill="#63b8ff" stroke="#63b8ff" points="263.67,-184.65 253.39,-187.24 263.04,-191.62 263.67,-184.65"/>
</a>
</g>
</g>
<!-- Node28 -->
<g id="Node000028" class="node">
<title>Node28</title>
<g id="a_Node000028"><a xlink:title=" ">
<polygon fill="#e0e0e0" stroke="#999999" points="1682.38,-188 1607.12,-188 1607.12,-168 1682.38,-168 1682.38,-188"/>
<text text-anchor="middle" x="1644.75" y="-174.5" font-family="Helvetica,sans-Serif" font-size="10.00">curl/system.h</text>
</a>
</g>
</g>
<!-- Node1&#45;&gt;Node28 -->
<g id="edge45_Node000001_Node000028" class="edge">
<title>Node1&#45;&gt;Node28</title>
<g id="a_edge45_Node000001_Node000028"><a xlink:title=" ">
<path fill="none" stroke="#63b8ff" d="M858.12,-231.93C991.96,-229.07 1319.95,-219.21 1592.75,-188 1593.89,-187.87 1595.04,-187.73 1596.2,-187.58"/>
<polygon fill="#63b8ff" stroke="#63b8ff" points="1596.35,-190.96 1605.77,-186.09 1595.38,-184.02 1596.35,-190.96"/>
</a>
</g>
</g>
<!-- Node29 -->
<g id="Node000029" class="node">
<title>Node29</title>
<g id="a_Node000029"><a xlink:title=" ">
<polygon fill="#e0e0e0" stroke="#999999" points="1848.75,-188 1700.75,-188 1700.75,-168 1848.75,-168 1848.75,-188"/>
<text text-anchor="middle" x="1774.75" y="-174.5" font-family="Helvetica,sans-Serif" font-size="10.00">boost/algorithm/string/trim.hpp</text>
</a>
</g>
</g>
<!-- Node1&#45;&gt;Node29 -->
<g id="edge46_Node000001_Node000029" class="edge">
<title>Node1&#45;&gt;Node29</title>
<g id="a_edge46_Node000001_Node000029"><a xlink:title=" ">
<path fill="none" stroke="#63b8ff" d="M857.87,-231.15C1001.18,-226.53 1370.25,-213.13 1689.69,-188.12"/>
<polygon fill="#63b8ff" stroke="#63b8ff" points="1689.86,-191.54 1699.56,-187.26 1689.31,-184.56 1689.86,-191.54"/>
</a>
</g>
</g>
<!-- Node30 -->
<g id="Node000030" class="node">
<title>Node30</title>
<g id="a_Node000030"><a xlink:title=" ">
<polygon fill="#e0e0e0" stroke="#999999" points="1912.38,-188 1867.12,-188 1867.12,-168 1912.38,-168 1912.38,-188"/>
<text text-anchor="middle" x="1889.75" y="-174.5" font-family="Helvetica,sans-Serif" font-size="10.00">cctype</text>
</a>
</g>
</g>
<!-- Node1&#45;&gt;Node30 -->
<g id="edge47_Node000001_Node000030" class="edge">
<title>Node1&#45;&gt;Node30</title>
<g id="a_edge47_Node000001_Node000030"><a xlink:title=" ">
<path fill="none" stroke="#63b8ff" d="M858.01,-232.27C1050.49,-229.67 1642.46,-219.42 1856.03,-187.8"/>
<polygon fill="#63b8ff" stroke="#63b8ff" points="1856.47,-191.12 1865.82,-186.14 1855.4,-184.2 1856.47,-191.12"/>
</a>
</g>
</g>
<!-- Node31 -->
<g id="Node000031" class="node">
<title>Node31</title>
<g id="a_Node000031"><a xlink:title=" ">
<polygon fill="#e0e0e0" stroke="#999999" points="1972.88,-188 1930.62,-188 1930.62,-168 1972.88,-168 1972.88,-188"/>
<text text-anchor="middle" x="1951.75" y="-174.5" font-family="Helvetica,sans-Serif" font-size="10.00">cstdio</text>
</a>
</g>
</g>
<!-- Node1&#45;&gt;Node31 -->
<g id="edge48_Node000001_Node000031" class="edge">
<title>Node1&#45;&gt;Node31</title>
<g id="a_edge48_Node000001_Node000031"><a xlink:title=" ">
<path fill="none" stroke="#63b8ff" d="M857.77,-232.58C1057.83,-230.88 1693.44,-222.94 1919.5,-187.89"/>
<polygon fill="#63b8ff" stroke="#63b8ff" points="1919.96,-191.2 1929.27,-186.15 1918.84,-184.29 1919.96,-191.2"/>
</a>
</g>
</g>
<!-- Node2&#45;&gt;Node3 -->
<g id="edge2_Node000002_Node000003" class="edge">
<title>Node2&#45;&gt;Node3</title>
<g id="a_edge2_Node000002_Node000003"><a xlink:title=" ">
<path fill="none" stroke="#63b8ff" d="M873.06,-167.62C864.05,-149.6 844.16,-109.81 832.26,-86.02"/>
<polygon fill="#63b8ff" stroke="#63b8ff" points="835.03,-84.73 827.43,-77.35 828.77,-87.86 835.03,-84.73"/>
</a>
</g>
</g>
<!-- Node4 -->
<g id="Node000004" class="node">
<title>Node4</title>
<g id="a_Node000004"><a xlink:title=" ">
<polygon fill="#e0e0e0" stroke="#999999" points="692.12,-20 633.38,-20 633.38,0 692.12,0 692.12,-20"/>
<text text-anchor="middle" x="662.75" y="-6.5" font-family="Helvetica,sans-Serif" font-size="10.00">curl/curl.h</text>
</a>
</g>
</g>
<!-- Node2&#45;&gt;Node4 -->
<g id="edge15_Node000002_Node000004" class="edge">
<title>Node2&#45;&gt;Node4</title>
<g id="a_edge15_Node000002_Node000004"><a xlink:title=" ">
<path fill="none" stroke="#63b8ff" d="M868.25,-167.51C846.6,-146.15 791.45,-93.25 739.75,-56 724.09,-44.71 705.41,-33.75 690.38,-25.46"/>
<polygon fill="#63b8ff" stroke="#63b8ff" points="692.55,-22.12 682.09,-20.43 689.22,-28.28 692.55,-22.12"/>
</a>
</g>
</g>
<!-- Node2&#45;&gt;Node5 -->
<g id="edge21_Node000002_Node000005" class="edge">
<title>Node2&#45;&gt;Node5</title>
<g id="a_edge21_Node000002_Node000005"><a xlink:title=" ">
<path fill="none" stroke="#63b8ff" d="M878.26,-167.6C879.68,-141.35 883.72,-66.84 885.67,-30.89"/>
<polygon fill="#63b8ff" stroke="#63b8ff" points="889.2,-31.47 886.25,-21.3 882.21,-31.09 889.2,-31.47"/>
</a>
</g>
</g>
<!-- Node2&#45;&gt;Node7 -->
<g id="edge6_Node000002_Node000007" class="edge">
<title>Node2&#45;&gt;Node7</title>
<g id="a_edge6_Node000002_Node000007"><a xlink:title=" ">
<path fill="none" stroke="#63b8ff" d="M845.7,-167.59C815.41,-158.71 769.77,-145.31 736.41,-135.52"/>
<polygon fill="#63b8ff" stroke="#63b8ff" points="737.63,-131.94 727.05,-132.48 735.66,-138.65 737.63,-131.94"/>
</a>
</g>
</g>
<!-- Node9 -->
<g id="Node000009" class="node">
<title>Node9</title>
<g id="a_Node000009"><a xlink:title=" ">
<polygon fill="#e0e0e0" stroke="#999999" points="222.75,-76 182.75,-76 182.75,-56 222.75,-56 222.75,-76"/>
<text text-anchor="middle" x="202.75" y="-62.5" font-family="Helvetica,sans-Serif" font-size="10.00">string</text>
</a>
</g>
</g>
<!-- Node2&#45;&gt;Node9 -->
<g id="edge22_Node000002_Node000009" class="edge">
<title>Node2&#45;&gt;Node9</title>
<g id="a_edge22_Node000002_Node000009"><a xlink:title=" ">
<path fill="none" stroke="#63b8ff" d="M824.73,-174.04C768.64,-169.59 678.25,-158.63 604.75,-132 588.27,-126.03 587.39,-117.53 570.75,-112 432.42,-66.03 388.65,-99.3 244.75,-76 241.22,-75.43 237.53,-74.75 233.88,-74.04"/>
<polygon fill="#63b8ff" stroke="#63b8ff" points="234.68,-70.42 224.18,-71.81 233.26,-77.27 234.68,-70.42"/>
</a>
</g>
</g>
<!-- Node2&#45;&gt;Node10 -->
<g id="edge11_Node000002_Node000010" class="edge">
<title>Node2&#45;&gt;Node10</title>
<g id="a_edge11_Node000002_Node000010"><a xlink:title=" ">
<path fill="none" stroke="#63b8ff" d="M824.68,-175.13C726.9,-171.16 511.58,-159.99 320.7,-132.09"/>
<polygon fill="#63b8ff" stroke="#63b8ff" points="321.31,-128.49 310.9,-130.49 320.28,-135.42 321.31,-128.49"/>
</a>
</g>
</g>
<!-- Node11 -->
<g id="Node000011" class="node">
<title>Node11</title>
<g id="a_Node000011"><a xlink:title=" ">
<polygon fill="#e0e0e0" stroke="#999999" points="301.88,-76 253.62,-76 253.62,-56 301.88,-56 301.88,-76"/>
<text text-anchor="middle" x="277.75" y="-62.5" font-family="Helvetica,sans-Serif" font-size="10.00">cstddef</text>
</a>
</g>
</g>
<!-- Node2&#45;&gt;Node11 -->
<g id="edge17_Node000002_Node000011" class="edge">
<title>Node2&#45;&gt;Node11</title>
<g id="a_edge17_Node000002_Node000011"><a xlink:title=" ">
<path fill="none" stroke="#63b8ff" d="M824.76,-170.35C777.54,-163.56 706.95,-151.24 647.75,-132 627.71,-125.48 624.97,-117.95 604.75,-112 501.45,-81.62 373.64,-71.59 312.94,-68.41"/>
<polygon fill="#63b8ff" stroke="#63b8ff" points="313.22,-64.87 303.06,-67.88 312.88,-71.86 313.22,-64.87"/>
</a>
</g>
</g>
<!-- Node12 -->
<g id="Node000012" class="node">
<title>Node12</title>
<g id="a_Node000012"><a xlink:title=" ">
<polygon fill="#e0e0e0" stroke="#999999" points="946.38,-132 901.12,-132 901.12,-112 946.38,-112 946.38,-132"/>
<text text-anchor="middle" x="923.75" y="-118.5" font-family="Helvetica,sans-Serif" font-size="10.00">cstdint</text>
</a>
</g>
</g>
<!-- Node2&#45;&gt;Node12 -->
<g id="edge13_Node000002_Node000012" class="edge">
<title>Node2&#45;&gt;Node12</title>
<g id="a_edge13_Node000002_Node000012"><a xlink:title=" ">
<path fill="none" stroke="#63b8ff" d="M885.76,-167.59C892.09,-160.16 901.11,-149.58 908.77,-140.58"/>
<polygon fill="#63b8ff" stroke="#63b8ff" points="912.01,-143.18 915.83,-133.3 906.68,-138.64 912.01,-143.18"/>
</a>
</g>
</g>
<!-- Node13 -->
<g id="Node000013" class="node">
<title>Node13</title>
<g id="a_Node000013"><a xlink:title=" ">
<polygon fill="#e0e0e0" stroke="#999999" points="1090.88,-132 964.62,-132 964.62,-112 1090.88,-112 1090.88,-132"/>
<text text-anchor="middle" x="1027.75" y="-118.5" font-family="Helvetica,sans-Serif" font-size="10.00">boost/beast/http/field.hpp</text>
</a>
</g>
</g>
<!-- Node2&#45;&gt;Node13 -->
<g id="edge14_Node000002_Node000013" class="edge">
<title>Node2&#45;&gt;Node13</title>
<g id="a_edge14_Node000002_Node000013"><a xlink:title=" ">
<path fill="none" stroke="#63b8ff" d="M903.88,-167.59C928.03,-158.9 964.17,-145.89 991.19,-136.16"/>
<polygon fill="#63b8ff" stroke="#63b8ff" points="992.19,-139.16 1000.42,-132.48 989.82,-132.57 992.19,-139.16"/>
</a>
</g>
</g>
<!-- Node14 -->
<g id="Node000014" class="node">
<title>Node14</title>
<g id="a_Node000014"><a xlink:title=" ">
<polygon fill="#e0e0e0" stroke="#999999" points="1154.38,-132 1109.12,-132 1109.12,-112 1154.38,-112 1154.38,-132"/>
<text text-anchor="middle" x="1131.75" y="-118.5" font-family="Helvetica,sans-Serif" font-size="10.00">chrono</text>
</a>
</g>
</g>
<!-- Node2&#45;&gt;Node14 -->
<g id="edge16_Node000002_Node000014" class="edge">
<title>Node2&#45;&gt;Node14</title>
<g id="a_edge16_Node000002_Node000014"><a xlink:title=" ">
<path fill="none" stroke="#63b8ff" d="M930.02,-167.54C972.78,-159.54 1035.04,-147.32 1098.18,-132.24"/>
<polygon fill="#63b8ff" stroke="#63b8ff" points="1098.83,-135.44 1107.73,-129.69 1097.19,-128.64 1098.83,-135.44"/>
</a>
</g>
</g>
<!-- Node15 -->
<g id="Node000015" class="node">
<title>Node15</title>
<g id="a_Node000015"><a xlink:title=" ">
<polygon fill="#e0e0e0" stroke="#999999" points="562.25,-132 501.25,-132 501.25,-112 562.25,-112 562.25,-132"/>
<text text-anchor="middle" x="531.75" y="-118.5" font-family="Helvetica,sans-Serif" font-size="10.00">filesystem</text>
</a>
</g>
</g>
<!-- Node2&#45;&gt;Node15 -->
<g id="edge18_Node000002_Node000015" class="edge">
<title>Node2&#45;&gt;Node15</title>
<g id="a_edge18_Node000002_Node000015"><a xlink:title=" ">
<path fill="none" stroke="#63b8ff" d="M824.88,-169.89C764.67,-161.62 663.41,-147.14 576.75,-132 575.61,-131.8 574.46,-131.6 573.29,-131.39"/>
<polygon fill="#63b8ff" stroke="#63b8ff" points="574.17,-127.8 563.7,-129.4 572.88,-134.68 574.17,-127.8"/>
</a>
</g>
</g>
<!-- Node16 -->
<g id="Node000016" class="node">
<title>Node16</title>
<g id="a_Node000016"><a xlink:title=" ">
<polygon fill="#e0e0e0" stroke="#999999" points="1230.75,-132 1172.75,-132 1172.75,-112 1230.75,-112 1230.75,-132"/>
<text text-anchor="middle" x="1201.75" y="-118.5" font-family="Helvetica,sans-Serif" font-size="10.00">functional</text>
</a>
</g>
</g>
<!-- Node2&#45;&gt;Node16 -->
<g id="edge19_Node000002_Node000016" class="edge">
<title>Node2&#45;&gt;Node16</title>
<g id="a_edge19_Node000002_Node000016"><a xlink:title=" ">
<path fill="none" stroke="#63b8ff" d="M930.68,-169.91C985.94,-162.23 1075.35,-149.03 1161.57,-132.31"/>
<polygon fill="#63b8ff" stroke="#63b8ff" points="1162.2,-135.56 1171.34,-130.2 1160.85,-128.69 1162.2,-135.56"/>
</a>
</g>
</g>
<!-- Node17 -->
<g id="Node000017" class="node">
<title>Node17</title>
<g id="a_Node000017"><a xlink:title=" ">
<polygon fill="#e0e0e0" stroke="#999999" points="1293,-132 1248.5,-132 1248.5,-112 1293,-112 1293,-132"/>
<text text-anchor="middle" x="1270.75" y="-118.5" font-family="Helvetica,sans-Serif" font-size="10.00">iosfwd</text>
</a>
</g>
</g>
<!-- Node2&#45;&gt;Node17 -->
<g id="edge20_Node000002_Node000017" class="edge">
<title>Node2&#45;&gt;Node17</title>
<g id="a_edge20_Node000002_Node000017"><a xlink:title=" ">
<path fill="none" stroke="#63b8ff" d="M930.63,-173.08C999.38,-167.39 1123.26,-155.16 1237.5,-132.19"/>
<polygon fill="#63b8ff" stroke="#63b8ff" points="1238.07,-135.44 1247.17,-130.01 1236.67,-128.58 1238.07,-135.44"/>
</a>
</g>
</g>
<!-- Node18 -->
<g id="Node000018" class="node">
<title>Node18</title>
<g id="a_Node000018"><a xlink:title=" ">
<polygon fill="#e0e0e0" stroke="#999999" points="1394.12,-132 1311.38,-132 1311.38,-112 1394.12,-112 1394.12,-132"/>
<text text-anchor="middle" x="1352.75" y="-118.5" font-family="Helvetica,sans-Serif" font-size="10.00">unordered_map</text>
</a>
</g>
</g>
<!-- Node2&#45;&gt;Node18 -->
<g id="edge23_Node000002_Node000018" class="edge">
<title>Node2&#45;&gt;Node18</title>
<g id="a_edge23_Node000002_Node000018"><a xlink:title=" ">
<path fill="none" stroke="#63b8ff" d="M930.78,-172.56C1009.15,-165.73 1160.76,-151.52 1300.17,-132.13"/>
<polygon fill="#63b8ff" stroke="#63b8ff" points="1300.62,-135.46 1310.04,-130.6 1299.65,-128.53 1300.62,-135.46"/>
</a>
</g>
</g>
<!-- Node19 -->
<g id="Node000019" class="node">
<title>Node19</title>
<g id="a_Node000019"><a xlink:title=" ">
<polygon fill="#e0e0e0" stroke="#999999" points="1451.38,-132 1412.12,-132 1412.12,-112 1451.38,-112 1451.38,-132"/>
<text text-anchor="middle" x="1431.75" y="-118.5" font-family="Helvetica,sans-Serif" font-size="10.00">utility</text>
</a>
</g>
</g>
<!-- Node2&#45;&gt;Node19 -->
<g id="edge24_Node000002_Node000019" class="edge">
<title>Node2&#45;&gt;Node19</title>
<g id="a_edge24_Node000002_Node000019"><a xlink:title=" ">
<path fill="none" stroke="#63b8ff" d="M930.81,-176.22C1024.28,-174.02 1224.38,-165.67 1401.38,-131.82"/>
<polygon fill="#63b8ff" stroke="#63b8ff" points="1401.78,-135.12 1410.93,-129.77 1400.44,-128.24 1401.78,-135.12"/>
</a>
</g>
</g>
<!-- Node20 -->
<g id="Node000020" class="node">
<title>Node20</title>
<g id="a_Node000020"><a xlink:title=" ">
<polygon fill="#e0e0e0" stroke="#999999" points="1512.25,-132 1469.25,-132 1469.25,-112 1512.25,-112 1512.25,-132"/>
<text text-anchor="middle" x="1490.75" y="-118.5" font-family="Helvetica,sans-Serif" font-size="10.00">vector</text>
</a>
</g>
</g>
<!-- Node2&#45;&gt;Node20 -->
<g id="edge25_Node000002_Node000020" class="edge">
<title>Node2&#45;&gt;Node20</title>
<g id="a_edge25_Node000002_Node000020"><a xlink:title=" ">
<path fill="none" stroke="#63b8ff" d="M930.5,-176.7C1031.57,-175.31 1259.45,-168.24 1458.28,-132.1"/>
<polygon fill="#63b8ff" stroke="#63b8ff" points="1458.73,-135.4 1467.93,-130.14 1457.46,-128.51 1458.73,-135.4"/>
</a>
</g>
</g>
<!-- Node3&#45;&gt;Node4 -->
<g id="edge3_Node000003_Node000004" class="edge">
<title>Node3&#45;&gt;Node4</title>
<g id="a_edge3_Node000003_Node000004"><a xlink:title=" ">
<path fill="none" stroke="#63b8ff" d="M794.88,-55.59C768.88,-46.82 729.88,-33.66 700.98,-23.9"/>
<polygon fill="#63b8ff" stroke="#63b8ff" points="702.43,-20.36 691.84,-20.48 700.19,-26.99 702.43,-20.36"/>
</a>
</g>
</g>
<!-- Node3&#45;&gt;Node5 -->
<g id="edge4_Node000003_Node000005" class="edge">
<title>Node3&#45;&gt;Node5</title>
<g id="a_edge4_Node000003_Node000005"><a xlink:title=" ">
<path fill="none" stroke="#63b8ff" d="M833.9,-55.59C843.17,-47.77 856.57,-36.46 867.56,-27.19"/>
<polygon fill="#63b8ff" stroke="#63b8ff" points="869.34,-29.42 874.73,-20.3 864.83,-24.07 869.34,-29.42"/>
</a>
</g>
</g>
<!-- Node3&#45;&gt;Node6 -->
<g id="edge5_Node000003_Node000006" class="edge">
<title>Node3&#45;&gt;Node6</title>
<g id="a_edge5_Node000003_Node000006"><a xlink:title=" ">
<path fill="none" stroke="#63b8ff" d="M858.87,-60.63C941.12,-50.67 1141.9,-26.36 1228.21,-15.91"/>
<polygon fill="#63b8ff" stroke="#63b8ff" points="1228.38,-19.29 1237.89,-14.62 1227.54,-12.34 1228.38,-19.29"/>
</a>
</g>
</g>
<!-- Node7&#45;&gt;Node3 -->
<g id="edge7_Node000007_Node000003" class="edge">
<title>Node7&#45;&gt;Node3</title>
<g id="a_edge7_Node000007_Node000003"><a xlink:title=" ">
<path fill="none" stroke="#63b8ff" d="M716.22,-111.59C736.63,-103.05 766.98,-90.35 790.07,-80.68"/>
<polygon fill="#63b8ff" stroke="#63b8ff" points="791.23,-83.57 799.1,-76.48 788.53,-77.11 791.23,-83.57"/>
</a>
</g>
</g>
<!-- Node7&#45;&gt;Node4 -->
<g id="edge8_Node000007_Node000004" class="edge">
<title>Node7&#45;&gt;Node4</title>
<g id="a_edge8_Node000007_Node000004"><a xlink:title=" ">
<path fill="none" stroke="#63b8ff" d="M660.38,-111.54C631.99,-102.74 594.45,-89.06 585.75,-76 571.47,-54.57 599.06,-36.3 625.1,-24.63"/>
<polygon fill="#63b8ff" stroke="#63b8ff" points="626.06,-27.6 633.92,-20.49 623.34,-21.16 626.06,-27.6"/>
</a>
</g>
</g>
<!-- Node8 -->
<g id="Node000008" class="node">
<title>Node8</title>
<g id="a_Node000008"><a xlink:title=" ">
<polygon fill="#e0e0e0" stroke="#999999" points="730.38,-76 595.12,-76 595.12,-56 730.38,-56 730.38,-76"/>
<text text-anchor="middle" x="662.75" y="-62.5" font-family="Helvetica,sans-Serif" font-size="10.00">boost/beast/http/status.hpp</text>
</a>
</g>
</g>
<!-- Node7&#45;&gt;Node8 -->
<g id="edge9_Node000007_Node000008" class="edge">
<title>Node7&#45;&gt;Node8</title>
<g id="a_edge9_Node000007_Node000008"><a xlink:title=" ">
<path fill="none" stroke="#63b8ff" d="M688.35,-111.59C684.26,-104.47 678.51,-94.45 673.49,-85.72"/>
<polygon fill="#63b8ff" stroke="#63b8ff" points="676.1,-84.23 668.09,-77.3 670.03,-87.71 676.1,-84.23"/>
</a>
</g>
</g>
<!-- Node7&#45;&gt;Node9 -->
<g id="edge10_Node000007_Node000009" class="edge">
<title>Node7&#45;&gt;Node9</title>
<g id="a_edge10_Node000007_Node000009"><a xlink:title=" ">
<path fill="none" stroke="#63b8ff" d="M656.08,-117.18C640.23,-115.58 621.59,-113.69 604.75,-112 444.76,-95.91 403.61,-100.88 244.75,-76 241.21,-75.45 237.53,-74.78 233.87,-74.07"/>
<polygon fill="#63b8ff" stroke="#63b8ff" points="234.68,-70.46 224.17,-71.85 233.25,-77.31 234.68,-70.46"/>
</a>
</g>
</g>
<!-- Node10&#45;&gt;Node11 -->
<g id="edge12_Node000010_Node000011" class="edge">
<title>Node10&#45;&gt;Node11</title>
<g id="a_edge12_Node000010_Node000011"><a xlink:title=" ">
<path fill="none" stroke="#63b8ff" d="M277.75,-111.59C277.75,-104.86 277.75,-95.53 277.75,-87.15"/>
<polygon fill="#63b8ff" stroke="#63b8ff" points="281.25,-87.3 277.75,-77.3 274.25,-87.3 281.25,-87.3"/>
</a>
</g>
</g>
<!-- Node21&#45;&gt;Node4 -->
<g id="edge27_Node000021_Node000004" class="edge">
<title>Node21&#45;&gt;Node4</title>
<g id="a_edge27_Node000021_Node000004"><a xlink:title=" ">
<path fill="none" stroke="#63b8ff" d="M69.28,-111.7C89.87,-96.98 132.67,-68.68 173.75,-56 257.27,-30.22 520.75,-16.87 622.3,-12.57"/>
<polygon fill="#63b8ff" stroke="#63b8ff" points="622.17,-16.04 632.01,-12.13 621.88,-9.05 622.17,-16.04"/>
</a>
</g>
</g>
<!-- Node21&#45;&gt;Node9 -->
<g id="edge29_Node000021_Node000009" class="edge">
<title>Node21&#45;&gt;Node9</title>
<g id="a_edge29_Node000021_Node000009"><a xlink:title=" ">
<path fill="none" stroke="#63b8ff" d="M82.18,-111.59C107.17,-102.35 145.33,-88.24 172.01,-78.37"/>
<polygon fill="#63b8ff" stroke="#63b8ff" points="173.15,-81.31 181.31,-74.56 170.72,-74.74 173.15,-81.31"/>
</a>
</g>
</g>
<!-- Node22 -->
<g id="Node000022" class="node">
<title>Node22</title>
<g id="a_Node000022"><a xlink:title=" ">
<polygon fill="#e0e0e0" stroke="#999999" points="85.75,-76 27.75,-76 27.75,-56 85.75,-56 85.75,-76"/>
<text text-anchor="middle" x="56.75" y="-62.5" font-family="Helvetica,sans-Serif" font-size="10.00">exception</text>
</a>
</g>
</g>
<!-- Node21&#45;&gt;Node22 -->
<g id="edge28_Node000021_Node000022" class="edge">
<title>Node21&#45;&gt;Node22</title>
<g id="a_edge28_Node000021_Node000022"><a xlink:title=" ">
<path fill="none" stroke="#63b8ff" d="M56.75,-111.59C56.75,-104.86 56.75,-95.53 56.75,-87.15"/>
<polygon fill="#63b8ff" stroke="#63b8ff" points="60.25,-87.3 56.75,-77.3 53.25,-87.3 60.25,-87.3"/>
</a>
</g>
</g>
<!-- Node23&#45;&gt;Node11 -->
<g id="edge33_Node000023_Node000011" class="edge">
<title>Node23&#45;&gt;Node11</title>
<g id="a_edge33_Node000023_Node000011"><a xlink:title=" ">
<path fill="none" stroke="#63b8ff" d="M283.86,-167.6C266.65,-160.72 246.9,-149.47 236.75,-132 226.94,-115.13 241.73,-96.31 256.21,-83.28"/>
<polygon fill="#63b8ff" stroke="#63b8ff" points="258.08,-85.44 263.51,-76.34 253.59,-80.07 258.08,-85.44"/>
</a>
</g>
</g>
<!-- Node24&#45;&gt;Node10 -->
<g id="edge36_Node000024_Node000010" class="edge">
<title>Node24&#45;&gt;Node10</title>
<g id="a_edge36_Node000024_Node000010"><a xlink:title=" ">
<path fill="none" stroke="#63b8ff" d="M488.79,-167.57C447.35,-159.04 384.44,-146.01 320.63,-132.39"/>
<polygon fill="#63b8ff" stroke="#63b8ff" points="321.48,-128.78 310.97,-130.11 320.02,-135.62 321.48,-128.78"/>
</a>
</g>
</g>
<!-- Node24&#45;&gt;Node11 -->
<g id="edge37_Node000024_Node000011" class="edge">
<title>Node24&#45;&gt;Node11</title>
<g id="a_edge37_Node000024_Node000011"><a xlink:title=" ">
<path fill="none" stroke="#63b8ff" d="M525.72,-167.52C511.66,-153.33 483.11,-126.66 453.75,-112 407.98,-89.14 349.55,-77.18 312.88,-71.49"/>
<polygon fill="#63b8ff" stroke="#63b8ff" points="313.64,-67.91 303.23,-69.92 312.61,-74.84 313.64,-67.91"/>
</a>
</g>
</g>
<!-- Node24&#45;&gt;Node15 -->
<g id="edge38_Node000024_Node000015" class="edge">
<title>Node24&#45;&gt;Node15</title>
<g id="a_edge38_Node000024_Node000015"><a xlink:title=" ">
<path fill="none" stroke="#63b8ff" d="M534.23,-167.59C533.85,-160.86 533.34,-151.53 532.87,-143.15"/>
<polygon fill="#63b8ff" stroke="#63b8ff" points="536.32,-143.09 532.27,-133.3 529.33,-143.48 536.32,-143.09"/>
</a>
</g>
</g>
<!-- Node24&#45;&gt;Node25 -->
<g id="edge39_Node000024_Node000025" class="edge">
<title>Node24&#45;&gt;Node25</title>
<g id="a_edge39_Node000024_Node000025"><a xlink:title=" ">
<path fill="none" stroke="#63b8ff" d="M503.05,-167.59C470.88,-158.05 421.21,-143.31 387.87,-133.42"/>
<polygon fill="#63b8ff" stroke="#63b8ff" points="389.25,-129.88 378.66,-130.39 387.25,-136.59 389.25,-129.88"/>
</a>
</g>
</g>
<!-- Node26 -->
<g id="Node000026" class="node">
<title>Node26</title>
<g id="a_Node000026"><a xlink:title=" ">
<polygon fill="#e0e0e0" stroke="#999999" points="444.62,-132 394.88,-132 394.88,-112 444.62,-112 444.62,-132"/>
<text text-anchor="middle" x="419.75" y="-118.5" font-family="Helvetica,sans-Serif" font-size="10.00">optional</text>
</a>
</g>
</g>
<!-- Node24&#45;&gt;Node26 -->
<g id="edge40_Node000024_Node000026" class="edge">
<title>Node24&#45;&gt;Node26</title>
<g id="a_edge40_Node000024_Node000026"><a xlink:title=" ">
<path fill="none" stroke="#63b8ff" d="M514.72,-167.59C496.77,-159.17 470.2,-146.69 449.72,-137.07"/>
<polygon fill="#63b8ff" stroke="#63b8ff" points="451.48,-133.56 440.94,-132.48 448.5,-139.9 451.48,-133.56"/>
</a>
</g>
</g>
<!-- Node27&#45;&gt;Node9 -->
<g id="edge44_Node000027_Node000009" class="edge">
<title>Node27&#45;&gt;Node9</title>
<g id="a_edge44_Node000027_Node000009"><a xlink:title=" ">
<path fill="none" stroke="#63b8ff" d="M165.42,-167.84C162.59,-154.95 158.97,-130.92 165.75,-112 169.51,-101.51 176.88,-91.72 184.07,-83.96"/>
<polygon fill="#63b8ff" stroke="#63b8ff" points="186.02,-86.96 190.6,-77.41 181.06,-82.01 186.02,-86.96"/>
</a>
</g>
</g>
<!-- Node27&#45;&gt;Node10 -->
<g id="edge42_Node000027_Node000010" class="edge">
<title>Node27&#45;&gt;Node10</title>
<g id="a_edge42_Node000027_Node000010"><a xlink:title=" ">
<path fill="none" stroke="#63b8ff" d="M186.91,-167.59C204,-159.21 229.26,-146.8 248.81,-137.21"/>
<polygon fill="#63b8ff" stroke="#63b8ff" points="250.01,-140.03 257.44,-132.48 246.92,-133.74 250.01,-140.03"/>
</a>
</g>
</g>
<!-- Node27&#45;&gt;Node11 -->
<g id="edge43_Node000027_Node000011" class="edge">
<title>Node27&#45;&gt;Node11</title>
<g id="a_edge43_Node000027_Node000011"><a xlink:title=" ">
<path fill="none" stroke="#63b8ff" d="M176.42,-167.59C188.26,-154.8 210.26,-131.32 229.75,-112 239.34,-102.49 250.31,-92.17 259.34,-83.81"/>
<polygon fill="#63b8ff" stroke="#63b8ff" points="261.3,-86.84 266.29,-77.49 256.56,-81.69 261.3,-86.84"/>
</a>
</g>
</g>
</g>
</svg>

<g id="navigator" transform="translate(0 0)" fill="#404254">
  <rect fill="#f2f5e9" fill-opacity="0.5" stroke="#606060" stroke-width=".5" x="0" y="0" width="60" height="60"/>
  <use id="zoomplus" xlink:href="#zoomPlus" x="17" y="9" onmousedown="handleZoom(evt,'in')"/>
  <use id="zoomminus" xlink:href="#zoomMin" x="42" y="9" onmousedown="handleZoom(evt,'out')"/>
  <use id="reset" xlink:href="#resetDef" x="30" y="36" onmousedown="handleReset()"/>
   <use id="arrowup" xlink:href="#arrowUp" x="0" y="0" onmousedown="handlePan(0,-1)"/>
  <use id="arrowright" xlink:href="#arrowRight" x="0" y="0" onmousedown="handlePan(1,0)"/>
  <use id="arrowdown" xlink:href="#arrowDown" x="0" y="0" onmousedown="handlePan(0,1)"/>
  <use id="arrowleft" xlink:href="#arrowLeft" x="0" y="0" onmousedown="handlePan(-1,0)"/>
</g>
<svg viewBox="0 0 15 15" width="100%" height="30px" preserveAspectRatio="xMaxYMin meet">
 <g id="arrow_out" transform="scale(0.3 0.3)">
  <a xlink:href="request_8cpp__incl_org.svg" target="_base">
   <rect id="button" ry="5" rx="5" y="6" x="6" height="38" width="38"
        fill="#f2f5e9" fill-opacity="0.5" stroke="#606060" stroke-width="1.0"/>
   <path id="arrow"
     d="M 11.500037,31.436501 C 11.940474,20.09759 22.043105,11.32322 32.158766,21.979434 L 37.068811,17.246167 C 37.068811,17.246167 37.088388,32 37.088388,32 L 22.160133,31.978069 C 22.160133,31.978069 26.997745,27.140456 26.997745,27.140456 C 18.528582,18.264221 13.291696,25.230495 11.500037,31.436501 z"
     style="fill:#404040;"/>
  </a>
 </g>
</svg>

<style type='text/css'>
<![CDATA[
[data-mouse-over-selected='false'] { opacity: 0.7; }
[data-mouse-over-selected='true']  { opacity: 1.0; }
]]>
</style>
<script type="application/ecmascript"><![CDATA[
document.addEventListener('DOMContentLoaded', (event) => {
  highlightEdges();
  highlightAdjacentNodes();
});
]]></script>
</svg>
