<?xml version="1.0" encoding="UTF-8" standalone="no"?>
<!DOCTYPE svg PUBLIC "-//W3C//DTD SVG 1.1//EN"
 "http://www.w3.org/Graphics/SVG/1.1/DTD/svg11.dtd">
<!-- Generated by graphviz version 2.44.1 (20211215.1903)
 -->
<!-- Title: src/roar/request.cpp Pages: 1 -->
<svg width="1553pt" height="140pt"
 viewBox="0.00 0.00 1553.00 140.00" xmlns="http://www.w3.org/2000/svg" xmlns:xlink="http://www.w3.org/1999/xlink">
<g id="graph0" class="graph" transform="scale(1 1) rotate(0) translate(4 136)">
<title>src/roar/request.cpp</title>
<!-- Node1 -->
<g id="node1" class="node">
<title>Node1</title>
<g id="a_node1"><a xlink:title=" ">
<polygon fill="#bfbfbf" stroke="black" points="936.5,-112.5 936.5,-131.5 1040.5,-131.5 1040.5,-112.5 936.5,-112.5"/>
<text text-anchor="middle" x="988.5" y="-119.5" font-family="Helvetica,sans-Serif" font-size="10.00">src/roar/request.cpp</text>
</a>
</g>
</g>
<!-- Node2 -->
<g id="node2" class="node">
<title>Node2</title>
<g id="a_node2"><a xlink:href="request_8hpp.html" target="_top" xlink:title=" ">
<polygon fill="none" stroke="black" points="945,-56.5 945,-75.5 1032,-75.5 1032,-56.5 945,-56.5"/>
<text text-anchor="middle" x="988.5" y="-63.5" font-family="Helvetica,sans-Serif" font-size="10.00">roar/request.hpp</text>
</a>
</g>
</g>
<!-- Node1&#45;&gt;Node2 -->
<g id="edge1" class="edge">
<title>Node1&#45;&gt;Node2</title>
<path fill="none" stroke="midnightblue" d="M988.5,-112.08C988.5,-105.01 988.5,-94.86 988.5,-85.99"/>
<polygon fill="midnightblue" stroke="midnightblue" points="992,-85.75 988.5,-75.75 985,-85.75 992,-85.75"/>
</g>
<!-- Node3 -->
<g id="node3" class="node">
<title>Node3</title>
<g id="a_node3"><a xlink:title=" ">
<polygon fill="none" stroke="#bfbfbf" points="0,-0.5 0,-19.5 149,-19.5 149,-0.5 0,-0.5"/>
<text text-anchor="middle" x="74.5" y="-7.5" font-family="Helvetica,sans-Serif" font-size="10.00">boost/beast/http/message.hpp</text>
</a>
</g>
</g>
<!-- Node2&#45;&gt;Node3 -->
<g id="edge2" class="edge">
<title>Node2&#45;&gt;Node3</title>
<path fill="none" stroke="midnightblue" d="M944.75,-63.46C822.35,-58.98 465.89,-44.73 159.11,-20.09"/>
<polygon fill="midnightblue" stroke="midnightblue" points="159.39,-16.6 149.14,-19.29 158.82,-23.58 159.39,-16.6"/>
</g>
<!-- Node4 -->
<g id="node4" class="node">
<title>Node4</title>
<g id="a_node4"><a xlink:title=" ">
<polygon fill="none" stroke="#bfbfbf" points="167,-0.5 167,-19.5 328,-19.5 328,-0.5 167,-0.5"/>
<text text-anchor="middle" x="247.5" y="-7.5" font-family="Helvetica,sans-Serif" font-size="10.00">boost/beast/http/empty_body.hpp</text>
</a>
</g>
</g>
<!-- Node2&#45;&gt;Node4 -->
<g id="edge3" class="edge">
<title>Node2&#45;&gt;Node4</title>
<path fill="none" stroke="midnightblue" d="M944.97,-62.48C841.63,-56.38 573.18,-39.95 338.13,-20.12"/>
<polygon fill="midnightblue" stroke="midnightblue" points="338.28,-16.62 328.02,-19.26 337.69,-23.59 338.28,-16.62"/>
</g>
<!-- Node5 -->
<g id="node5" class="node">
<title>Node5</title>
<g id="a_node5"><a xlink:title=" ">
<polygon fill="none" stroke="#bfbfbf" points="346,-0.5 346,-19.5 535,-19.5 535,-0.5 346,-0.5"/>
<text text-anchor="middle" x="440.5" y="-7.5" font-family="Helvetica,sans-Serif" font-size="10.00">boost/algorithm/string/classification.hpp</text>
</a>
</g>
</g>
<!-- Node2&#45;&gt;Node5 -->
<g id="edge4" class="edge">
<title>Node2&#45;&gt;Node5</title>
<path fill="none" stroke="midnightblue" d="M944.58,-60.67C856.72,-52.01 657.49,-32.38 537.48,-20.56"/>
<polygon fill="midnightblue" stroke="midnightblue" points="537.49,-17.04 527.19,-19.54 536.8,-24.01 537.49,-17.04"/>
</g>
<!-- Node6 -->
<g id="node6" class="node">
<title>Node6</title>
<g id="a_node6"><a xlink:title=" ">
<polygon fill="none" stroke="#bfbfbf" points="553,-0.5 553,-19.5 728,-19.5 728,-0.5 553,-0.5"/>
<text text-anchor="middle" x="640.5" y="-7.5" font-family="Helvetica,sans-Serif" font-size="10.00">boost/algorithm/string/constants.hpp</text>
</a>
</g>
</g>
<!-- Node2&#45;&gt;Node6 -->
<g id="edge5" class="edge">
<title>Node2&#45;&gt;Node6</title>
<path fill="none" stroke="midnightblue" d="M944.78,-58.22C884.49,-48.86 775.38,-31.93 705.51,-21.09"/>
<polygon fill="midnightblue" stroke="midnightblue" points="705.92,-17.61 695.5,-19.53 704.84,-24.53 705.92,-17.61"/>
</g>
<!-- Node7 -->
<g id="node7" class="node">
<title>Node7</title>
<g id="a_node7"><a xlink:title=" ">
<polygon fill="none" stroke="#bfbfbf" points="746.5,-0.5 746.5,-19.5 896.5,-19.5 896.5,-0.5 746.5,-0.5"/>
<text text-anchor="middle" x="821.5" y="-7.5" font-family="Helvetica,sans-Serif" font-size="10.00">boost/algorithm/string/split.hpp</text>
</a>
</g>
</g>
<!-- Node2&#45;&gt;Node7 -->
<g id="edge6" class="edge">
<title>Node2&#45;&gt;Node7</title>
<path fill="none" stroke="midnightblue" d="M962.04,-56.44C933.82,-47.32 888.96,-32.81 857.53,-22.65"/>
<polygon fill="midnightblue" stroke="midnightblue" points="858.43,-19.26 847.84,-19.52 856.28,-25.92 858.43,-19.26"/>
</g>
<!-- Node8 -->
<g id="node8" class="node">
<title>Node8</title>
<g id="a_node8"><a xlink:title=" ">
<polygon fill="none" stroke="#bfbfbf" points="914,-0.5 914,-19.5 1063,-19.5 1063,-0.5 914,-0.5"/>
<text text-anchor="middle" x="988.5" y="-7.5" font-family="Helvetica,sans-Serif" font-size="10.00">boost/algorithm/string/trim.hpp</text>
</a>
</g>
</g>
<!-- Node2&#45;&gt;Node8 -->
<g id="edge7" class="edge">
<title>Node2&#45;&gt;Node8</title>
<path fill="none" stroke="midnightblue" d="M988.5,-56.08C988.5,-49.01 988.5,-38.86 988.5,-29.99"/>
<polygon fill="midnightblue" stroke="midnightblue" points="992,-29.75 988.5,-19.75 985,-29.75 992,-29.75"/>
</g>
<!-- Node9 -->
<g id="node9" class="node">
<title>Node9</title>
<g id="a_node9"><a xlink:title=" ">
<polygon fill="none" stroke="#bfbfbf" points="1081.5,-0.5 1081.5,-19.5 1253.5,-19.5 1253.5,-0.5 1081.5,-0.5"/>
<text text-anchor="middle" x="1167.5" y="-7.5" font-family="Helvetica,sans-Serif" font-size="10.00">boost/beast/websocket/rfc6455.hpp</text>
</a>
</g>
</g>
<!-- Node2&#45;&gt;Node9 -->
<g id="edge8" class="edge">
<title>Node2&#45;&gt;Node9</title>
<path fill="none" stroke="midnightblue" d="M1016.86,-56.44C1047.24,-47.28 1095.61,-32.69 1129.32,-22.52"/>
<polygon fill="midnightblue" stroke="midnightblue" points="1130.71,-25.76 1139.27,-19.52 1128.68,-19.05 1130.71,-25.76"/>
</g>
<!-- Node10 -->
<g id="node10" class="node">
<title>Node10</title>
<g id="a_node10"><a xlink:title=" ">
<polygon fill="none" stroke="#bfbfbf" points="1271.5,-0.5 1271.5,-19.5 1321.5,-19.5 1321.5,-0.5 1271.5,-0.5"/>
<text text-anchor="middle" x="1296.5" y="-7.5" font-family="Helvetica,sans-Serif" font-size="10.00">optional</text>
</a>
</g>
</g>
<!-- Node2&#45;&gt;Node10 -->
<g id="edge9" class="edge">
<title>Node2&#45;&gt;Node10</title>
<path fill="none" stroke="midnightblue" d="M1032.4,-59.12C1084.7,-51.81 1174.88,-38.3 1261.34,-20.08"/>
<polygon fill="midnightblue" stroke="midnightblue" points="1262.26,-23.46 1271.31,-17.96 1260.8,-16.62 1262.26,-23.46"/>
</g>
<!-- Node11 -->
<g id="node11" class="node">
<title>Node11</title>
<g id="a_node11"><a xlink:title=" ">
<polygon fill="none" stroke="#bfbfbf" points="1340,-0.5 1340,-19.5 1381,-19.5 1381,-0.5 1340,-0.5"/>
<text text-anchor="middle" x="1360.5" y="-7.5" font-family="Helvetica,sans-Serif" font-size="10.00">string</text>
</a>
</g>
</g>
<!-- Node2&#45;&gt;Node11 -->
<g id="edge10" class="edge">
<title>Node2&#45;&gt;Node11</title>
<path fill="none" stroke="midnightblue" d="M1032.07,-61.53C1095.58,-55.97 1217.36,-43.45 1330.12,-19.74"/>
<polygon fill="midnightblue" stroke="midnightblue" points="1330.91,-23.15 1339.96,-17.64 1329.45,-16.3 1330.91,-23.15"/>
</g>
<!-- Node12 -->
<g id="node12" class="node">
<title>Node12</title>
<g id="a_node12"><a xlink:title=" ">
<polygon fill="none" stroke="#bfbfbf" points="1399.5,-0.5 1399.5,-19.5 1443.5,-19.5 1443.5,-0.5 1399.5,-0.5"/>
<text text-anchor="middle" x="1421.5" y="-7.5" font-family="Helvetica,sans-Serif" font-size="10.00">vector</text>
</a>
</g>
</g>
<!-- Node2&#45;&gt;Node12 -->
<g id="edge11" class="edge">
<title>Node2&#45;&gt;Node12</title>
<path fill="none" stroke="midnightblue" d="M1032,-62.58C1104.35,-58.02 1254,-46.33 1389.14,-19.96"/>
<polygon fill="midnightblue" stroke="midnightblue" points="1390.13,-23.33 1399.26,-17.95 1388.77,-16.46 1390.13,-23.33"/>
</g>
<!-- Node13 -->
<g id="node13" class="node">
<title>Node13</title>
<g id="a_node13"><a xlink:title=" ">
<polygon fill="none" stroke="#bfbfbf" points="1462,-0.5 1462,-19.5 1545,-19.5 1545,-0.5 1462,-0.5"/>
<text text-anchor="middle" x="1503.5" y="-7.5" font-family="Helvetica,sans-Serif" font-size="10.00">unordered_map</text>
</a>
</g>
</g>
<!-- Node2&#45;&gt;Node13 -->
<g id="edge12" class="edge">
<title>Node2&#45;&gt;Node13</title>
<path fill="none" stroke="midnightblue" d="M1032.13,-61.91C1112.83,-55.95 1291.03,-41.62 1451.72,-20"/>
<polygon fill="midnightblue" stroke="midnightblue" points="1452.36,-23.45 1461.79,-18.63 1451.41,-16.51 1452.36,-23.45"/>
</g>
</g>
</svg>
