<?xml version="1.0" encoding="UTF-8" standalone="no"?>
<!DOCTYPE svg PUBLIC "-//W3C//DTD SVG 1.1//EN"
 "http://www.w3.org/Graphics/SVG/1.1/DTD/svg11.dtd">
<!-- Generated by graphviz version 2.44.1 (20211215.1903)
 -->
<!-- Title: include/roar/request.hpp Pages: 1 -->
<!--zoomable 308 -->
<svg id="main" version="1.1" xmlns="http://www.w3.org/2000/svg" xmlns:xlink="http://www.w3.org/1999/xlink" xml:space="preserve" onload="init(evt)">
<style type="text/css"><![CDATA[
.edge:hover path { stroke: red; }
.edge:hover polygon { stroke: red; fill: red; }
]]></style>
<script type="text/javascript"><![CDATA[
var edges = document.getElementsByTagName('g');
if (edges && edges.length) {
  for (var i=0;i<edges.length;i++) {
    if (edges[i].id.substr(0,4)=='edge') {
      edges[i].setAttribute('class','edge');
    }
  }
}
]]></script>
        <defs>
                <circle id="rim" cx="0" cy="0" r="7"/>
                <circle id="rim2" cx="0" cy="0" r="3.5"/>
                <g id="zoomPlus">
                        <use xlink:href="#rim" fill="#404040">
                                <set attributeName="fill" to="#808080" begin="zoomplus.mouseover" end="zoomplus.mouseout"/>
                        </use>
                        <path d="M-4,0h8M0,-4v8" fill="none" stroke="white" stroke-width="1.5" pointer-events="none"/>
                </g>
                <g id="zoomMin">
                        <use xlink:href="#rim" fill="#404040">
                                <set attributeName="fill" to="#808080" begin="zoomminus.mouseover" end="zoomminus.mouseout"/>
                        </use>
                        <path d="M-4,0h8" fill="none" stroke="white" stroke-width="1.5" pointer-events="none"/>
                </g>
                <g id="dirArrow">
                        <path fill="none" stroke="white" stroke-width="1.5" d="M0,-3.0v7 M-2.5,-0.5L0,-3.0L2.5,-0.5"/>
                </g>
               <g id="resetDef">
                       <use xlink:href="#rim2" fill="#404040">
                               <set attributeName="fill" to="#808080" begin="reset.mouseover" end="reset.mouseout"/>
                       </use>
               </g>
        </defs>

<script type="text/javascript">
var viewWidth = 1731;
var viewHeight = 308;
var sectionId = 'dynsection-1';
</script>
<script xlink:href="svgpan.js"/>
<svg id="graph" class="graph">
<g id="viewport">
<title>include/roar/request.hpp</title>
<!-- Node1 -->
<g id="node1" class="node">
<title>Node1</title>
<g id="a_node1"><a xlink:title=" ">
<polygon fill="#bfbfbf" stroke="black" points="1245,-280.5 1245,-299.5 1366,-299.5 1366,-280.5 1245,-280.5"/>
<text text-anchor="middle" x="1305.5" y="-287.5" font-family="Helvetica,sans-Serif" font-size="10.00">include/roar/request.hpp</text>
</a>
</g>
</g>
<!-- Node2 -->
<g id="node2" class="node">
<title>Node2</title>
<g id="a_node2"><a xlink:href="response_8hpp.html" target="_top" xlink:title=" ">
<polygon fill="none" stroke="black" points="1141.5,-224.5 1141.5,-243.5 1269.5,-243.5 1269.5,-224.5 1141.5,-224.5"/>
<text text-anchor="middle" x="1205.5" y="-231.5" font-family="Helvetica,sans-Serif" font-size="10.00">include/roar/response.hpp</text>
</a>
</g>
</g>
<!-- Node1&#45;&gt;Node2 -->
<g id="edge1" class="edge">
<title>Node1&#45;&gt;Node2</title>
<path fill="none" stroke="midnightblue" d="M1280.41,-275.45C1261.95,-265.48 1237.4,-252.23 1221.53,-243.65"/>
<polygon fill="midnightblue" stroke="midnightblue" points="1278.97,-278.65 1289.43,-280.32 1282.3,-272.49 1278.97,-278.65"/>
</g>
<!-- Node4 -->
<g id="node4" class="node">
<title>Node4</title>
<g id="a_node4"><a xlink:href="include_2roar_2routing_2request__listener_8hpp.html" target="_top" xlink:title=" ">
<polygon fill="none" stroke="black" points="650.5,-112.5 650.5,-131.5 840.5,-131.5 840.5,-112.5 650.5,-112.5"/>
<text text-anchor="middle" x="745.5" y="-119.5" font-family="Helvetica,sans-Serif" font-size="10.00">include/roar/routing/request_listener.hpp</text>
</a>
</g>
</g>
<!-- Node1&#45;&gt;Node4 -->
<g id="edge26" class="edge">
<title>Node1&#45;&gt;Node4</title>
<path fill="none" stroke="midnightblue" d="M1234.61,-283.73C1174.09,-277.93 1085.24,-266.29 1010.5,-244 910.66,-214.22 799.91,-154.02 760.45,-131.64"/>
<polygon fill="midnightblue" stroke="midnightblue" points="1234.54,-287.24 1244.82,-284.68 1235.19,-280.27 1234.54,-287.24"/>
</g>
<!-- Node12 -->
<g id="node12" class="node">
<title>Node12</title>
<g id="a_node12"><a xlink:href="server_8hpp.html" target="_top" xlink:title=" ">
<polygon fill="none" stroke="black" points="965.5,-56.5 965.5,-75.5 1081.5,-75.5 1081.5,-56.5 965.5,-56.5"/>
<text text-anchor="middle" x="1023.5" y="-63.5" font-family="Helvetica,sans-Serif" font-size="10.00">include/roar/server.hpp</text>
</a>
</g>
</g>
<!-- Node1&#45;&gt;Node12 -->
<g id="edge27" class="edge">
<title>Node1&#45;&gt;Node12</title>
<path fill="none" stroke="midnightblue" d="M1234.39,-282.82C1200.88,-277 1161.9,-265.74 1132.5,-244 1070.11,-197.87 1035.63,-104.38 1026.19,-75.62"/>
<polygon fill="midnightblue" stroke="midnightblue" points="1234.17,-286.33 1244.6,-284.46 1235.28,-279.42 1234.17,-286.33"/>
</g>
<!-- Node17 -->
<g id="node17" class="node">
<title>Node17</title>
<g id="a_node17"><a xlink:href="router_8cpp.html" target="_top" xlink:title=" ">
<polygon fill="none" stroke="black" points="1434.5,-112.5 1434.5,-131.5 1562.5,-131.5 1562.5,-112.5 1434.5,-112.5"/>
<text text-anchor="middle" x="1498.5" y="-119.5" font-family="Helvetica,sans-Serif" font-size="10.00">src/roar/routing/router.cpp</text>
</a>
</g>
</g>
<!-- Node1&#45;&gt;Node17 -->
<g id="edge29" class="edge">
<title>Node1&#45;&gt;Node17</title>
<path fill="none" stroke="midnightblue" d="M1303.58,-270.15C1302,-243.75 1303.34,-195.9 1329.5,-168 1344.87,-151.61 1398.95,-139.13 1441.85,-131.52"/>
<polygon fill="midnightblue" stroke="midnightblue" points="1300.11,-270.63 1304.4,-280.32 1307.09,-270.07 1300.11,-270.63"/>
</g>
<!-- Node19 -->
<g id="node19" class="node">
<title>Node19</title>
<g id="a_node19"><a xlink:href="session_8cpp.html" target="_top" xlink:title=" ">
<polygon fill="none" stroke="black" points="1580.5,-112.5 1580.5,-131.5 1722.5,-131.5 1722.5,-112.5 1580.5,-112.5"/>
<text text-anchor="middle" x="1651.5" y="-119.5" font-family="Helvetica,sans-Serif" font-size="10.00">src/roar/session/session.cpp</text>
</a>
</g>
</g>
<!-- Node1&#45;&gt;Node19 -->
<g id="edge30" class="edge">
<title>Node1&#45;&gt;Node19</title>
<path fill="none" stroke="midnightblue" d="M1316.93,-271.54C1327.27,-257 1343.72,-236.67 1362.5,-224 1439.16,-172.28 1545.12,-144.2 1605.14,-131.53"/>
<polygon fill="midnightblue" stroke="midnightblue" points="1313.81,-269.9 1311.06,-280.13 1319.59,-273.86 1313.81,-269.9"/>
</g>
<!-- Node20 -->
<g id="node20" class="node">
<title>Node20</title>
<g id="a_node20"><a xlink:href="request_8cpp.html" target="_top" xlink:title=" ">
<polygon fill="none" stroke="black" points="1371.5,-224.5 1371.5,-243.5 1475.5,-243.5 1475.5,-224.5 1371.5,-224.5"/>
<text text-anchor="middle" x="1423.5" y="-231.5" font-family="Helvetica,sans-Serif" font-size="10.00">src/roar/request.cpp</text>
</a>
</g>
</g>
<!-- Node1&#45;&gt;Node20 -->
<g id="edge28" class="edge">
<title>Node1&#45;&gt;Node20</title>
<path fill="none" stroke="midnightblue" d="M1333.4,-276.23C1355.47,-266.13 1385.68,-252.31 1404.89,-243.52"/>
<polygon fill="midnightblue" stroke="midnightblue" points="1331.83,-273.1 1324.2,-280.44 1334.75,-279.46 1331.83,-273.1"/>
</g>
<!-- Node21 -->
<g id="node21" class="node">
<title>Node21</title>
<g id="a_node21"><a xlink:href="websocket__session_8cpp.html" target="_top" xlink:title=" ">
<polygon fill="none" stroke="black" points="1493.5,-224.5 1493.5,-243.5 1701.5,-243.5 1701.5,-224.5 1493.5,-224.5"/>
<text text-anchor="middle" x="1597.5" y="-231.5" font-family="Helvetica,sans-Serif" font-size="10.00">src/roar/websocket/websocket_session.cpp</text>
</a>
</g>
</g>
<!-- Node1&#45;&gt;Node21 -->
<g id="edge31" class="edge">
<title>Node1&#45;&gt;Node21</title>
<path fill="none" stroke="midnightblue" d="M1361.73,-278.6C1416.92,-268.4 1500.06,-253.02 1551.45,-243.52"/>
<polygon fill="midnightblue" stroke="midnightblue" points="1360.97,-275.18 1351.77,-280.44 1362.24,-282.07 1360.97,-275.18"/>
</g>
<!-- Node3 -->
<g id="node3" class="node">
<title>Node3</title>
<g id="a_node3"><a xlink:href="session_8hpp.html" target="_top" xlink:title=" ">
<polygon fill="none" stroke="black" points="1119,-168.5 1119,-187.5 1278,-187.5 1278,-168.5 1119,-168.5"/>
<text text-anchor="middle" x="1198.5" y="-175.5" font-family="Helvetica,sans-Serif" font-size="10.00">include/roar/session/session.hpp</text>
</a>
</g>
</g>
<!-- Node2&#45;&gt;Node3 -->
<g id="edge2" class="edge">
<title>Node2&#45;&gt;Node3</title>
<path fill="none" stroke="midnightblue" d="M1203.05,-214.1C1201.89,-205.14 1200.56,-194.86 1199.63,-187.75"/>
<polygon fill="midnightblue" stroke="midnightblue" points="1199.59,-214.62 1204.34,-224.08 1206.53,-213.72 1199.59,-214.62"/>
</g>
<!-- Node3&#45;&gt;Node4 -->
<g id="edge3" class="edge">
<title>Node3&#45;&gt;Node4</title>
<path fill="none" stroke="midnightblue" d="M1116.53,-167.23C1031.02,-157.04 898.31,-141.22 816.94,-131.52"/>
<polygon fill="midnightblue" stroke="midnightblue" points="1116.38,-170.74 1126.72,-168.44 1117.21,-163.78 1116.38,-170.74"/>
</g>
<!-- Node3&#45;&gt;Node12 -->
<g id="edge20" class="edge">
<title>Node3&#45;&gt;Node12</title>
<path fill="none" stroke="midnightblue" d="M1162.27,-164.99C1141.29,-157.2 1114.89,-145.91 1093.5,-132 1067.92,-115.36 1042.95,-89.06 1030.93,-75.58"/>
<polygon fill="midnightblue" stroke="midnightblue" points="1161.19,-168.33 1171.79,-168.43 1163.57,-161.74 1161.19,-168.33"/>
</g>
<!-- Node15 -->
<g id="node15" class="node">
<title>Node15</title>
<g id="a_node15"><a xlink:href="server_8cpp.html" target="_top" xlink:title=" ">
<polygon fill="none" stroke="black" points="1177.5,-0.5 1177.5,-19.5 1275.5,-19.5 1275.5,-0.5 1177.5,-0.5"/>
<text text-anchor="middle" x="1226.5" y="-7.5" font-family="Helvetica,sans-Serif" font-size="10.00">src/roar/server.cpp</text>
</a>
</g>
</g>
<!-- Node3&#45;&gt;Node15 -->
<g id="edge23" class="edge">
<title>Node3&#45;&gt;Node15</title>
<path fill="none" stroke="midnightblue" d="M1163.84,-164.24C1149.6,-157.08 1134.59,-146.59 1126.5,-132 1122.19,-124.23 1123.12,-120.22 1126.5,-112 1144.15,-69.1 1189.81,-34.74 1212.82,-19.51"/>
<polygon fill="midnightblue" stroke="midnightblue" points="1162.45,-167.45 1173,-168.47 1165.39,-161.1 1162.45,-167.45"/>
</g>
<!-- Node16 -->
<g id="node16" class="node">
<title>Node16</title>
<g id="a_node16"><a xlink:href="route_8cpp.html" target="_top" xlink:title=" ">
<polygon fill="none" stroke="black" points="1136,-112.5 1136,-131.5 1261,-131.5 1261,-112.5 1136,-112.5"/>
<text text-anchor="middle" x="1198.5" y="-119.5" font-family="Helvetica,sans-Serif" font-size="10.00">src/roar/routing/route.cpp</text>
</a>
</g>
</g>
<!-- Node3&#45;&gt;Node16 -->
<g id="edge21" class="edge">
<title>Node3&#45;&gt;Node16</title>
<path fill="none" stroke="midnightblue" d="M1198.5,-157.8C1198.5,-148.91 1198.5,-138.78 1198.5,-131.75"/>
<polygon fill="midnightblue" stroke="midnightblue" points="1195,-158.08 1198.5,-168.08 1202,-158.08 1195,-158.08"/>
</g>
<!-- Node3&#45;&gt;Node17 -->
<g id="edge22" class="edge">
<title>Node3&#45;&gt;Node17</title>
<path fill="none" stroke="midnightblue" d="M1255.92,-166.66C1312.62,-156.46 1398.29,-141.04 1451.19,-131.52"/>
<polygon fill="midnightblue" stroke="midnightblue" points="1255.26,-163.23 1246.04,-168.44 1256.5,-170.12 1255.26,-163.23"/>
</g>
<!-- Node18 -->
<g id="node18" class="node">
<title>Node18</title>
<g id="a_node18"><a xlink:href="factory_8cpp.html" target="_top" xlink:title=" ">
<polygon fill="none" stroke="black" points="1279,-112.5 1279,-131.5 1416,-131.5 1416,-112.5 1279,-112.5"/>
<text text-anchor="middle" x="1347.5" y="-119.5" font-family="Helvetica,sans-Serif" font-size="10.00">src/roar/session/factory.cpp</text>
</a>
</g>
</g>
<!-- Node3&#45;&gt;Node18 -->
<g id="edge24" class="edge">
<title>Node3&#45;&gt;Node18</title>
<path fill="none" stroke="midnightblue" d="M1231.87,-164.91C1259.88,-154.75 1299.2,-140.51 1324,-131.52"/>
<polygon fill="midnightblue" stroke="midnightblue" points="1230.32,-161.75 1222.11,-168.44 1232.7,-168.33 1230.32,-161.75"/>
</g>
<!-- Node3&#45;&gt;Node19 -->
<g id="edge25" class="edge">
<title>Node3&#45;&gt;Node19</title>
<path fill="none" stroke="midnightblue" d="M1280.22,-167.26C1365.85,-157.05 1499.02,-141.18 1580.43,-131.47"/>
<polygon fill="midnightblue" stroke="midnightblue" points="1279.79,-163.78 1270.28,-168.44 1280.62,-170.74 1279.79,-163.78"/>
</g>
<!-- Node5 -->
<g id="node5" class="node">
<title>Node5</title>
<g id="a_node5"><a xlink:href="request__listener_2main_8cpp.html" target="_top" xlink:title=" ">
<polygon fill="none" stroke="black" points="774,-56.5 774,-75.5 947,-75.5 947,-56.5 774,-56.5"/>
<text text-anchor="middle" x="860.5" y="-63.5" font-family="Helvetica,sans-Serif" font-size="10.00">examples/request_listener/main.cpp</text>
</a>
</g>
</g>
<!-- Node4&#45;&gt;Node5 -->
<g id="edge4" class="edge">
<title>Node4&#45;&gt;Node5</title>
<path fill="none" stroke="midnightblue" d="M772.98,-108.1C794.47,-98.01 823.72,-84.27 842.36,-75.52"/>
<polygon fill="midnightblue" stroke="midnightblue" points="771.29,-105.02 763.72,-112.44 774.26,-111.36 771.29,-105.02"/>
</g>
<!-- Node6 -->
<g id="node6" class="node">
<title>Node6</title>
<g id="a_node6"><a xlink:href="simple__server_2main_8cpp.html" target="_top" xlink:title=" ">
<polygon fill="none" stroke="black" points="231,-0.5 231,-19.5 396,-19.5 396,-0.5 231,-0.5"/>
<text text-anchor="middle" x="313.5" y="-7.5" font-family="Helvetica,sans-Serif" font-size="10.00">examples/simple_server/main.cpp</text>
</a>
</g>
</g>
<!-- Node4&#45;&gt;Node6 -->
<g id="edge5" class="edge">
<title>Node4&#45;&gt;Node6</title>
<path fill="none" stroke="midnightblue" d="M643.28,-111.23C590.81,-104.49 526.34,-93.48 470.5,-76 450.77,-69.82 447.47,-64.22 428.5,-56 397.22,-42.45 360.43,-28.37 337.05,-19.65"/>
<polygon fill="midnightblue" stroke="midnightblue" points="642.91,-114.72 653.27,-112.49 643.78,-107.77 642.91,-114.72"/>
</g>
<!-- Node7 -->
<g id="node7" class="node">
<title>Node7</title>
<g id="a_node7"><a xlink:href="examples_2simple__server_2request__listener_8hpp.html" target="_top" xlink:title=" ">
<polygon fill="none" stroke="black" points="207,-56.5 207,-75.5 420,-75.5 420,-56.5 207,-56.5"/>
<text text-anchor="middle" x="313.5" y="-63.5" font-family="Helvetica,sans-Serif" font-size="10.00">examples/simple_server/request_listener.hpp</text>
</a>
</g>
</g>
<!-- Node4&#45;&gt;Node7 -->
<g id="edge6" class="edge">
<title>Node4&#45;&gt;Node7</title>
<path fill="none" stroke="midnightblue" d="M666.84,-111.17C585.27,-100.97 459.07,-85.2 381.63,-75.52"/>
<polygon fill="midnightblue" stroke="midnightblue" points="666.69,-114.68 677.05,-112.44 667.56,-107.73 666.69,-114.68"/>
</g>
<!-- Node9 -->
<g id="node9" class="node">
<title>Node9</title>
<g id="a_node9"><a xlink:href="websocket_2main_8cpp.html" target="_top" xlink:title=" ">
<polygon fill="none" stroke="black" points="632.5,-0.5 632.5,-19.5 784.5,-19.5 784.5,-0.5 632.5,-0.5"/>
<text text-anchor="middle" x="708.5" y="-7.5" font-family="Helvetica,sans-Serif" font-size="10.00">examples/websocket/main.cpp</text>
</a>
</g>
</g>
<!-- Node4&#45;&gt;Node9 -->
<g id="edge9" class="edge">
<title>Node4&#45;&gt;Node9</title>
<path fill="none" stroke="midnightblue" d="M739.34,-102.67C731.25,-78.62 717.38,-37.39 711.39,-19.59"/>
<polygon fill="midnightblue" stroke="midnightblue" points="736.09,-104.01 742.6,-112.37 742.73,-101.77 736.09,-104.01"/>
</g>
<!-- Node10 -->
<g id="node10" class="node">
<title>Node10</title>
<g id="a_node10"><a xlink:href="examples_2websocket_2request__listener_8hpp.html" target="_top" xlink:title=" ">
<polygon fill="none" stroke="black" points="479.5,-56.5 479.5,-75.5 679.5,-75.5 679.5,-56.5 479.5,-56.5"/>
<text text-anchor="middle" x="579.5" y="-63.5" font-family="Helvetica,sans-Serif" font-size="10.00">examples/websocket/request_listener.hpp</text>
</a>
</g>
</g>
<!-- Node4&#45;&gt;Node10 -->
<g id="edge10" class="edge">
<title>Node4&#45;&gt;Node10</title>
<path fill="none" stroke="midnightblue" d="M709.55,-109.3C678.27,-99.13 633.68,-84.62 605.68,-75.52"/>
<polygon fill="midnightblue" stroke="midnightblue" points="708.6,-112.68 719.2,-112.44 710.77,-106.02 708.6,-112.68"/>
</g>
<!-- Node4&#45;&gt;Node12 -->
<g id="edge13" class="edge">
<title>Node4&#45;&gt;Node12</title>
<path fill="none" stroke="midnightblue" d="M799.69,-110.47C852.23,-100.27 930.94,-84.98 979.66,-75.52"/>
<polygon fill="midnightblue" stroke="midnightblue" points="798.7,-107.1 789.55,-112.44 800.03,-113.97 798.7,-107.1"/>
</g>
<!-- Node14 -->
<g id="node14" class="node">
<title>Node14</title>
<g id="a_node14"><a xlink:href="src_2roar_2routing_2request__listener_8cpp.html" target="_top" xlink:title=" ">
<polygon fill="none" stroke="black" points="803,-0.5 803,-19.5 976,-19.5 976,-0.5 803,-0.5"/>
<text text-anchor="middle" x="889.5" y="-7.5" font-family="Helvetica,sans-Serif" font-size="10.00">src/roar/routing/request_listener.cpp</text>
</a>
</g>
</g>
<!-- Node4&#45;&gt;Node14 -->
<g id="edge19" class="edge">
<title>Node4&#45;&gt;Node14</title>
<path fill="none" stroke="midnightblue" d="M746.52,-102C748.26,-87.67 752.8,-68.43 764.5,-56 782.44,-36.93 809.04,-25.93 833.1,-19.58"/>
<polygon fill="midnightblue" stroke="midnightblue" points="743.02,-101.94 745.65,-112.21 749.99,-102.54 743.02,-101.94"/>
</g>
<!-- Node7&#45;&gt;Node6 -->
<g id="edge7" class="edge">
<title>Node7&#45;&gt;Node6</title>
<path fill="none" stroke="midnightblue" d="M313.5,-45.8C313.5,-36.91 313.5,-26.78 313.5,-19.75"/>
<polygon fill="midnightblue" stroke="midnightblue" points="310,-46.08 313.5,-56.08 317,-46.08 310,-46.08"/>
</g>
<!-- Node8 -->
<g id="node8" class="node">
<title>Node8</title>
<g id="a_node8"><a xlink:href="examples_2simple__server_2request__listener_8cpp.html" target="_top" xlink:title=" ">
<polygon fill="none" stroke="black" points="0,-0.5 0,-19.5 213,-19.5 213,-0.5 0,-0.5"/>
<text text-anchor="middle" x="106.5" y="-7.5" font-family="Helvetica,sans-Serif" font-size="10.00">examples/simple_server/request_listener.cpp</text>
</a>
</g>
</g>
<!-- Node7&#45;&gt;Node8 -->
<g id="edge8" class="edge">
<title>Node7&#45;&gt;Node8</title>
<path fill="none" stroke="midnightblue" d="M270.68,-53.83C231.59,-43.63 174.67,-28.78 139.15,-19.52"/>
<polygon fill="midnightblue" stroke="midnightblue" points="270.14,-57.31 280.7,-56.44 271.91,-50.53 270.14,-57.31"/>
</g>
<!-- Node10&#45;&gt;Node9 -->
<g id="edge11" class="edge">
<title>Node10&#45;&gt;Node9</title>
<path fill="none" stroke="midnightblue" d="M609.35,-52.5C633.54,-42.38 666.96,-28.39 688.16,-19.52"/>
<polygon fill="midnightblue" stroke="midnightblue" points="607.81,-49.35 599.94,-56.44 610.52,-55.81 607.81,-49.35"/>
</g>
<!-- Node11 -->
<g id="node11" class="node">
<title>Node11</title>
<g id="a_node11"><a xlink:href="examples_2websocket_2request__listener_8cpp.html" target="_top" xlink:title=" ">
<polygon fill="none" stroke="black" points="414.5,-0.5 414.5,-19.5 614.5,-19.5 614.5,-0.5 414.5,-0.5"/>
<text text-anchor="middle" x="514.5" y="-7.5" font-family="Helvetica,sans-Serif" font-size="10.00">examples/websocket/request_listener.cpp</text>
</a>
</g>
</g>
<!-- Node10&#45;&gt;Node11 -->
<g id="edge12" class="edge">
<title>Node10&#45;&gt;Node11</title>
<path fill="none" stroke="midnightblue" d="M561.23,-49.82C549.58,-40.15 534.9,-27.95 525.13,-19.83"/>
<polygon fill="midnightblue" stroke="midnightblue" points="559.13,-52.63 569.06,-56.32 563.6,-47.24 559.13,-52.63"/>
</g>
<!-- Node12&#45;&gt;Node6 -->
<g id="edge15" class="edge">
<title>Node12&#45;&gt;Node6</title>
<path fill="none" stroke="midnightblue" d="M955,-56.03C709.99,-32.13 646.32,-39.66 405.5,-20 402.46,-19.75 399.37,-19.49 396.24,-19.22"/>
<polygon fill="midnightblue" stroke="midnightblue" points="955,-59.54 965.29,-57.04 955.68,-52.58 955,-59.54"/>
</g>
<!-- Node12&#45;&gt;Node9 -->
<g id="edge16" class="edge">
<title>Node12&#45;&gt;Node9</title>
<path fill="none" stroke="midnightblue" d="M963.58,-54.73C904.05,-44.52 813.84,-29.06 758.18,-19.52"/>
<polygon fill="midnightblue" stroke="midnightblue" points="963.14,-58.2 973.59,-56.44 964.32,-51.3 963.14,-58.2"/>
</g>
<!-- Node13 -->
<g id="node13" class="node">
<title>Node13</title>
<g id="a_node13"><a xlink:href="most__minimal_2main_8cpp.html" target="_top" xlink:title=" ">
<polygon fill="none" stroke="black" points="994,-0.5 994,-19.5 1159,-19.5 1159,-0.5 994,-0.5"/>
<text text-anchor="middle" x="1076.5" y="-7.5" font-family="Helvetica,sans-Serif" font-size="10.00">examples/most_minimal/main.cpp</text>
</a>
</g>
</g>
<!-- Node12&#45;&gt;Node13 -->
<g id="edge14" class="edge">
<title>Node12&#45;&gt;Node13</title>
<path fill="none" stroke="midnightblue" d="M1039.48,-48.72C1048.82,-39.2 1060.25,-27.56 1067.91,-19.75"/>
<polygon fill="midnightblue" stroke="midnightblue" points="1036.76,-46.49 1032.25,-56.08 1041.75,-51.4 1036.76,-46.49"/>
</g>
<!-- Node12&#45;&gt;Node14 -->
<g id="edge17" class="edge">
<title>Node12&#45;&gt;Node14</title>
<path fill="none" stroke="midnightblue" d="M992.82,-52.64C967.68,-42.5 932.75,-28.43 910.63,-19.52"/>
<polygon fill="midnightblue" stroke="midnightblue" points="991.68,-55.95 1002.27,-56.44 994.3,-49.46 991.68,-55.95"/>
</g>
<!-- Node12&#45;&gt;Node15 -->
<g id="edge18" class="edge">
<title>Node12&#45;&gt;Node15</title>
<path fill="none" stroke="midnightblue" d="M1065.49,-53.83C1103.82,-43.63 1159.65,-28.78 1194.48,-19.52"/>
<polygon fill="midnightblue" stroke="midnightblue" points="1064.43,-50.49 1055.67,-56.44 1066.23,-57.26 1064.43,-50.49"/>
</g>
</g>
</svg>
        <g id="navigator" transform="translate(0 0)" fill="#404254">
                <rect fill="#f2f5e9" fill-opacity="0.5" stroke="#606060" stroke-width=".5" x="0" y="0" width="60" height="60"/>
                <use id="zoomplus" xlink:href="#zoomPlus" x="17" y="9" onmousedown="handleZoom(evt,'in')"/>
                <use id="zoomminus" xlink:href="#zoomMin" x="42" y="9" onmousedown="handleZoom(evt,'out')"/>
                <use id="reset" xlink:href="#resetDef" x="30" y="36" onmousedown="handleReset()"/>
                <g id="arrowUp" xlink:href="#dirArrow" transform="translate(30 24)" onmousedown="handlePan(0,-1)">
                  <use xlink:href="#rim" fill="#404040">
                        <set attributeName="fill" to="#808080" begin="arrowUp.mouseover" end="arrowUp.mouseout"/>
                  </use>
                  <path fill="none" stroke="white" stroke-width="1.5" d="M0,-3.0v7 M-2.5,-0.5L0,-3.0L2.5,-0.5"/>
                </g>
                <g id="arrowRight" xlink:href="#dirArrow" transform="rotate(90) translate(36 -43)" onmousedown="handlePan(1,0)">
                  <use xlink:href="#rim" fill="#404040">
                        <set attributeName="fill" to="#808080" begin="arrowRight.mouseover" end="arrowRight.mouseout"/>
                  </use>
                  <path fill="none" stroke="white" stroke-width="1.5" d="M0,-3.0v7 M-2.5,-0.5L0,-3.0L2.5,-0.5"/>
                </g>
                <g id="arrowDown" xlink:href="#dirArrow" transform="rotate(180) translate(-30 -48)" onmousedown="handlePan(0,1)">
                  <use xlink:href="#rim" fill="#404040">
                        <set attributeName="fill" to="#808080" begin="arrowDown.mouseover" end="arrowDown.mouseout"/>
                  </use>
                  <path fill="none" stroke="white" stroke-width="1.5" d="M0,-3.0v7 M-2.5,-0.5L0,-3.0L2.5,-0.5"/>
                </g>
                <g id="arrowLeft" xlink:href="#dirArrow" transform="rotate(270) translate(-36 17)" onmousedown="handlePan(-1,0)">
                  <use xlink:href="#rim" fill="#404040">
                        <set attributeName="fill" to="#808080" begin="arrowLeft.mouseover" end="arrowLeft.mouseout"/>
                  </use>
                  <path fill="none" stroke="white" stroke-width="1.5" d="M0,-3.0v7 M-2.5,-0.5L0,-3.0L2.5,-0.5"/>
                </g>
        </g>
        <svg viewBox="0 0 15 15" width="100%" height="30px" preserveAspectRatio="xMaxYMin meet">
         <g id="arrow_out" transform="scale(0.3 0.3)">
          <a xlink:href="request_8hpp__dep__incl_org.svg" target="_base">
           <rect id="button" ry="5" rx="5" y="6" x="6" height="38" width="38"
                fill="#f2f5e9" fill-opacity="0.5" stroke="#606060" stroke-width="1.0"/>
           <path id="arrow"
             d="M 11.500037,31.436501 C 11.940474,20.09759 22.043105,11.32322 32.158766,21.979434 L 37.068811,17.246167 C 37.068811,17.246167 37.088388,32 37.088388,32 L 22.160133,31.978069 C 22.160133,31.978069 26.997745,27.140456 26.997745,27.140456 C 18.528582,18.264221 13.291696,25.230495 11.500037,31.436501 z"
             style="fill:#404040;"/>
          </a>
         </g>
        </svg>
</svg>
