<?xml version="1.0" encoding="UTF-8" standalone="no"?>
<!DOCTYPE svg PUBLIC "-//W3C//DTD SVG 1.1//EN"
 "http://www.w3.org/Graphics/SVG/1.1/DTD/svg11.dtd">
<!-- Generated by graphviz version 2.44.1 (20211215.1903)
 -->
<!-- Title: src/roar/curl/request.cpp Pages: 1 -->
<!--zoomable 252 -->
<svg id="main" version="1.1" xmlns="http://www.w3.org/2000/svg" xmlns:xlink="http://www.w3.org/1999/xlink" xml:space="preserve" onload="init(evt)">
<style type="text/css"><![CDATA[
.edge:hover path { stroke: red; }
.edge:hover polygon { stroke: red; fill: red; }
]]></style>
<script type="text/javascript"><![CDATA[
var edges = document.getElementsByTagName('g');
if (edges && edges.length) {
  for (var i=0;i<edges.length;i++) {
    if (edges[i].id.substr(0,4)=='edge') {
      edges[i].setAttribute('class','edge');
    }
  }
}
]]></script>
        <defs>
                <circle id="rim" cx="0" cy="0" r="7"/>
                <circle id="rim2" cx="0" cy="0" r="3.5"/>
                <g id="zoomPlus">
                        <use xlink:href="#rim" fill="#404040">
                                <set attributeName="fill" to="#808080" begin="zoomplus.mouseover" end="zoomplus.mouseout"/>
                        </use>
                        <path d="M-4,0h8M0,-4v8" fill="none" stroke="white" stroke-width="1.5" pointer-events="none"/>
                </g>
                <g id="zoomMin">
                        <use xlink:href="#rim" fill="#404040">
                                <set attributeName="fill" to="#808080" begin="zoomminus.mouseover" end="zoomminus.mouseout"/>
                        </use>
                        <path d="M-4,0h8" fill="none" stroke="white" stroke-width="1.5" pointer-events="none"/>
                </g>
                <g id="dirArrow">
                        <path fill="none" stroke="white" stroke-width="1.5" d="M0,-3.0v7 M-2.5,-0.5L0,-3.0L2.5,-0.5"/>
                </g>
               <g id="resetDef">
                       <use xlink:href="#rim2" fill="#404040">
                               <set attributeName="fill" to="#808080" begin="reset.mouseover" end="reset.mouseout"/>
                       </use>
               </g>
        </defs>

<script type="text/javascript">
var viewWidth = 1959;
var viewHeight = 252;
var sectionId = 'dynsection-0';
</script>
<script xlink:href="svgpan.js"/>
<svg id="graph" class="graph">
<g id="viewport">
<title>src/roar/curl/request.cpp</title>
<!-- Node1 -->
<g id="node1" class="node">
<title>Node1</title>
<g id="a_node1"><a xlink:title=" ">
<polygon fill="#bfbfbf" stroke="black" points="1276,-224.5 1276,-243.5 1398,-243.5 1398,-224.5 1276,-224.5"/>
<text text-anchor="middle" x="1337" y="-231.5" font-family="Helvetica,sans-Serif" font-size="10.00">src/roar/curl/request.cpp</text>
</a>
</g>
</g>
<!-- Node2 -->
<g id="node2" class="node">
<title>Node2</title>
<g id="a_node2"><a xlink:href="curl_2request_8hpp.html" target="_top" xlink:title=" ">
<polygon fill="none" stroke="black" points="949,-168.5 949,-187.5 1055,-187.5 1055,-168.5 949,-168.5"/>
<text text-anchor="middle" x="1002" y="-175.5" font-family="Helvetica,sans-Serif" font-size="10.00">roar/curl/request.hpp</text>
</a>
</g>
</g>
<!-- Node1&#45;&gt;Node2 -->
<g id="edge1" class="edge">
<title>Node1&#45;&gt;Node2</title>
<path fill="none" stroke="midnightblue" d="M1283.92,-224.44C1224.5,-214.87 1128.28,-199.36 1065.07,-189.17"/>
<polygon fill="midnightblue" stroke="midnightblue" points="1065.26,-185.65 1054.83,-187.52 1064.15,-192.56 1065.26,-185.65"/>
</g>
<!-- Node3 -->
<g id="node3" class="node">
<title>Node3</title>
<g id="a_node3"><a xlink:href="instance_8hpp.html" target="_top" xlink:title=" ">
<polygon fill="none" stroke="black" points="1417,-56.5 1417,-75.5 1489,-75.5 1489,-56.5 1417,-56.5"/>
<text text-anchor="middle" x="1453" y="-63.5" font-family="Helvetica,sans-Serif" font-size="10.00">instance.hpp</text>
</a>
</g>
</g>
<!-- Node1&#45;&gt;Node3 -->
<g id="edge29" class="edge">
<title>Node1&#45;&gt;Node3</title>
<path fill="none" stroke="midnightblue" d="M1349.65,-224.35C1371.56,-208.67 1416.37,-173.31 1439,-132 1446.89,-117.61 1450.33,-99.15 1451.84,-85.58"/>
<polygon fill="midnightblue" stroke="midnightblue" points="1455.33,-85.8 1452.7,-75.54 1448.36,-85.2 1455.33,-85.8"/>
</g>
<!-- Node5 -->
<g id="node5" class="node">
<title>Node5</title>
<g id="a_node5"><a xlink:title=" ">
<polygon fill="none" stroke="#bfbfbf" points="1427,-0.5 1427,-19.5 1479,-19.5 1479,-0.5 1427,-0.5"/>
<text text-anchor="middle" x="1453" y="-7.5" font-family="Helvetica,sans-Serif" font-size="10.00">memory</text>
</a>
</g>
</g>
<!-- Node1&#45;&gt;Node5 -->
<g id="edge49" class="edge">
<title>Node1&#45;&gt;Node5</title>
<path fill="none" stroke="midnightblue" d="M1358.25,-224.35C1375.61,-216.59 1400.12,-203.96 1418,-188 1463.63,-147.26 1479.33,-134.25 1498,-76 1500.71,-67.54 1501.4,-64.21 1498,-56 1493.08,-44.12 1483.33,-33.74 1474.17,-25.96"/>
<polygon fill="midnightblue" stroke="midnightblue" points="1476.08,-23.01 1466.06,-19.56 1471.75,-28.51 1476.08,-23.01"/>
</g>
<!-- Node6 -->
<g id="node6" class="node">
<title>Node6</title>
<g id="a_node6"><a xlink:title=" ">
<polygon fill="none" stroke="#bfbfbf" points="1511.5,-0.5 1511.5,-19.5 1570.5,-19.5 1570.5,-0.5 1511.5,-0.5"/>
<text text-anchor="middle" x="1541" y="-7.5" font-family="Helvetica,sans-Serif" font-size="10.00">stdexcept</text>
</a>
</g>
</g>
<!-- Node1&#45;&gt;Node6 -->
<g id="edge50" class="edge">
<title>Node1&#45;&gt;Node6</title>
<path fill="none" stroke="midnightblue" d="M1365.93,-224.43C1388.07,-217 1418.65,-204.79 1442,-188 1497.7,-147.95 1525.96,-66.33 1536.29,-29.62"/>
<polygon fill="midnightblue" stroke="midnightblue" points="1539.72,-30.33 1538.92,-19.77 1532.96,-28.52 1539.72,-30.33"/>
</g>
<!-- Node7 -->
<g id="node7" class="node">
<title>Node7</title>
<g id="a_node7"><a xlink:href="curl_2response_8hpp.html" target="_top" xlink:title=" ">
<polygon fill="none" stroke="black" points="1299.5,-112.5 1299.5,-131.5 1374.5,-131.5 1374.5,-112.5 1299.5,-112.5"/>
<text text-anchor="middle" x="1337" y="-119.5" font-family="Helvetica,sans-Serif" font-size="10.00">response.hpp</text>
</a>
</g>
</g>
<!-- Node1&#45;&gt;Node7 -->
<g id="edge30" class="edge">
<title>Node1&#45;&gt;Node7</title>
<path fill="none" stroke="midnightblue" d="M1337,-224.37C1337,-206.62 1337,-165.67 1337,-141.6"/>
<polygon fill="midnightblue" stroke="midnightblue" points="1340.5,-141.59 1337,-131.59 1333.5,-141.59 1340.5,-141.59"/>
</g>
<!-- Node10 -->
<g id="node10" class="node">
<title>Node10</title>
<g id="a_node10"><a xlink:href="source_8hpp.html" target="_top" xlink:title=" ">
<polygon fill="none" stroke="black" points="241.5,-112.5 241.5,-131.5 306.5,-131.5 306.5,-112.5 241.5,-112.5"/>
<text text-anchor="middle" x="274" y="-119.5" font-family="Helvetica,sans-Serif" font-size="10.00">source.hpp</text>
</a>
</g>
</g>
<!-- Node1&#45;&gt;Node10 -->
<g id="edge33" class="edge">
<title>Node1&#45;&gt;Node10</title>
<path fill="none" stroke="midnightblue" d="M1275.88,-231.61C1108.24,-227.49 643.65,-214 493,-188 424.8,-176.23 347.81,-150.3 305.71,-134.99"/>
<polygon fill="midnightblue" stroke="midnightblue" points="306.88,-131.69 296.28,-131.52 304.46,-138.26 306.88,-131.69"/>
</g>
<!-- Node20 -->
<g id="node20" class="node">
<title>Node20</title>
<g id="a_node20"><a xlink:href="curl__error_8hpp.html" target="_top" xlink:title=" ">
<polygon fill="none" stroke="black" points="481,-112.5 481,-131.5 595,-131.5 595,-112.5 481,-112.5"/>
<text text-anchor="middle" x="538" y="-119.5" font-family="Helvetica,sans-Serif" font-size="10.00">roar/curl/curl_error.hpp</text>
</a>
</g>
</g>
<!-- Node1&#45;&gt;Node20 -->
<g id="edge25" class="edge">
<title>Node1&#45;&gt;Node20</title>
<path fill="none" stroke="midnightblue" d="M1275.68,-226.96C1197.58,-219.06 1058.54,-204.29 940,-188 817.33,-171.14 674.36,-146.93 596.27,-133.31"/>
<polygon fill="midnightblue" stroke="midnightblue" points="596.61,-129.82 586.16,-131.54 595.4,-136.71 596.61,-129.82"/>
</g>
<!-- Node22 -->
<g id="node22" class="node">
<title>Node22</title>
<g id="a_node22"><a xlink:href="sink_8hpp.html" target="_top" xlink:title=" ">
<polygon fill="none" stroke="black" points="0,-168.5 0,-187.5 92,-187.5 92,-168.5 0,-168.5"/>
<text text-anchor="middle" x="46" y="-175.5" font-family="Helvetica,sans-Serif" font-size="10.00">roar/curl/sink.hpp</text>
</a>
</g>
</g>
<!-- Node1&#45;&gt;Node22 -->
<g id="edge31" class="edge">
<title>Node1&#45;&gt;Node22</title>
<path fill="none" stroke="midnightblue" d="M1275.84,-232.13C1098.77,-229.32 570.4,-218.76 133,-188 123,-187.3 112.38,-186.36 102.11,-185.35"/>
<polygon fill="midnightblue" stroke="midnightblue" points="102.31,-181.85 92.01,-184.33 101.6,-188.82 102.31,-181.85"/>
</g>
<!-- Node23 -->
<g id="node23" class="node">
<title>Node23</title>
<g id="a_node23"><a xlink:href="file__source_8hpp.html" target="_top" xlink:title=" ">
<polygon fill="none" stroke="black" points="188,-168.5 188,-187.5 346,-187.5 346,-168.5 188,-168.5"/>
<text text-anchor="middle" x="267" y="-175.5" font-family="Helvetica,sans-Serif" font-size="10.00">roar/curl/sources/file_source.hpp</text>
</a>
</g>
</g>
<!-- Node1&#45;&gt;Node23 -->
<g id="edge34" class="edge">
<title>Node1&#45;&gt;Node23</title>
<path fill="none" stroke="midnightblue" d="M1275.87,-230.54C1125.92,-224.41 727.85,-207.51 396,-188 383.14,-187.24 369.57,-186.37 356.24,-185.48"/>
<polygon fill="midnightblue" stroke="midnightblue" points="356.33,-181.98 346.12,-184.79 355.86,-188.96 356.33,-181.98"/>
</g>
<!-- Node24 -->
<g id="node24" class="node">
<title>Node24</title>
<g id="a_node24"><a xlink:title=" ">
<polygon fill="none" stroke="#bfbfbf" points="67,-112.5 67,-131.5 117,-131.5 117,-112.5 67,-112.5"/>
<text text-anchor="middle" x="92" y="-119.5" font-family="Helvetica,sans-Serif" font-size="10.00">fstream</text>
</a>
</g>
</g>
<!-- Node1&#45;&gt;Node24 -->
<g id="edge48" class="edge">
<title>Node1&#45;&gt;Node24</title>
<path fill="none" stroke="midnightblue" d="M1275.64,-232.74C1051.18,-231.51 282.48,-224.63 179,-188 150.55,-177.93 123.66,-155.03 107.5,-139.29"/>
<polygon fill="midnightblue" stroke="midnightblue" points="109.61,-136.45 100.08,-131.82 104.64,-141.38 109.61,-136.45"/>
</g>
<!-- Node26 -->
<g id="node26" class="node">
<title>Node26</title>
<g id="a_node26"><a xlink:href="string__source_8hpp.html" target="_top" xlink:title=" ">
<polygon fill="none" stroke="black" points="502,-168.5 502,-187.5 672,-187.5 672,-168.5 502,-168.5"/>
<text text-anchor="middle" x="587" y="-175.5" font-family="Helvetica,sans-Serif" font-size="10.00">roar/curl/sources/string_source.hpp</text>
</a>
</g>
</g>
<!-- Node1&#45;&gt;Node26 -->
<g id="edge40" class="edge">
<title>Node1&#45;&gt;Node26</title>
<path fill="none" stroke="midnightblue" d="M1275.94,-228.6C1145.47,-219.21 838.66,-197.12 682.27,-185.86"/>
<polygon fill="midnightblue" stroke="midnightblue" points="682.41,-182.36 672.18,-185.13 681.91,-189.34 682.41,-182.36"/>
</g>
<!-- Node27 -->
<g id="node27" class="node">
<title>Node27</title>
<g id="a_node27"><a xlink:title=" ">
<polygon fill="none" stroke="#bfbfbf" points="1583,-168.5 1583,-187.5 1659,-187.5 1659,-168.5 1583,-168.5"/>
<text text-anchor="middle" x="1621" y="-175.5" font-family="Helvetica,sans-Serif" font-size="10.00">curl/system.h</text>
</a>
</g>
</g>
<!-- Node1&#45;&gt;Node27 -->
<g id="edge44" class="edge">
<title>Node1&#45;&gt;Node27</title>
<path fill="none" stroke="midnightblue" d="M1382,-224.44C1434.02,-214.55 1519.29,-198.34 1572.68,-188.19"/>
<polygon fill="midnightblue" stroke="midnightblue" points="1573.42,-191.61 1582.59,-186.3 1572.11,-184.73 1573.42,-191.61"/>
</g>
<!-- Node28 -->
<g id="node28" class="node">
<title>Node28</title>
<g id="a_node28"><a xlink:title=" ">
<polygon fill="none" stroke="#bfbfbf" points="1677.5,-168.5 1677.5,-187.5 1826.5,-187.5 1826.5,-168.5 1677.5,-168.5"/>
<text text-anchor="middle" x="1752" y="-175.5" font-family="Helvetica,sans-Serif" font-size="10.00">boost/algorithm/string/trim.hpp</text>
</a>
</g>
</g>
<!-- Node1&#45;&gt;Node28 -->
<g id="edge45" class="edge">
<title>Node1&#45;&gt;Node28</title>
<path fill="none" stroke="midnightblue" d="M1398.23,-225.03C1472.18,-215.41 1596.55,-199.23 1676.41,-188.84"/>
<polygon fill="midnightblue" stroke="midnightblue" points="1676.93,-192.3 1686.4,-187.54 1676.03,-185.36 1676.93,-192.3"/>
</g>
<!-- Node29 -->
<g id="node29" class="node">
<title>Node29</title>
<g id="a_node29"><a xlink:title=" ">
<polygon fill="none" stroke="#bfbfbf" points="1844,-168.5 1844,-187.5 1890,-187.5 1890,-168.5 1844,-168.5"/>
<text text-anchor="middle" x="1867" y="-175.5" font-family="Helvetica,sans-Serif" font-size="10.00">cctype</text>
</a>
</g>
</g>
<!-- Node1&#45;&gt;Node29 -->
<g id="edge46" class="edge">
<title>Node1&#45;&gt;Node29</title>
<path fill="none" stroke="midnightblue" d="M1398.2,-231.27C1490.88,-227.82 1672.36,-217.82 1833.65,-188.16"/>
<polygon fill="midnightblue" stroke="midnightblue" points="1834.57,-191.55 1843.76,-186.27 1833.28,-184.67 1834.57,-191.55"/>
</g>
<!-- Node30 -->
<g id="node30" class="node">
<title>Node30</title>
<g id="a_node30"><a xlink:title=" ">
<polygon fill="none" stroke="#bfbfbf" points="1908.5,-168.5 1908.5,-187.5 1951.5,-187.5 1951.5,-168.5 1908.5,-168.5"/>
<text text-anchor="middle" x="1930" y="-175.5" font-family="Helvetica,sans-Serif" font-size="10.00">cstdio</text>
</a>
</g>
</g>
<!-- Node1&#45;&gt;Node30 -->
<g id="edge47" class="edge">
<title>Node1&#45;&gt;Node30</title>
<path fill="none" stroke="midnightblue" d="M1398.24,-232.14C1500.25,-229.84 1711.37,-221.3 1898.44,-187.69"/>
<polygon fill="midnightblue" stroke="midnightblue" points="1899.24,-191.1 1908.45,-185.86 1897.99,-184.21 1899.24,-191.1"/>
</g>
<!-- Node2&#45;&gt;Node3 -->
<g id="edge2" class="edge">
<title>Node2&#45;&gt;Node3</title>
<path fill="none" stroke="midnightblue" d="M1055.21,-177.19C1153.52,-176.6 1358.9,-170.61 1417,-132 1433.08,-121.31 1442.66,-100.9 1447.85,-85.79"/>
<polygon fill="midnightblue" stroke="midnightblue" points="1451.29,-86.53 1450.88,-75.94 1444.59,-84.47 1451.29,-86.53"/>
</g>
<!-- Node4 -->
<g id="node4" class="node">
<title>Node4</title>
<g id="a_node4"><a xlink:title=" ">
<polygon fill="none" stroke="#bfbfbf" points="803.5,-0.5 803.5,-19.5 862.5,-19.5 862.5,-0.5 803.5,-0.5"/>
<text text-anchor="middle" x="833" y="-7.5" font-family="Helvetica,sans-Serif" font-size="10.00">curl/curl.h</text>
</a>
</g>
</g>
<!-- Node2&#45;&gt;Node4 -->
<g id="edge14" class="edge">
<title>Node2&#45;&gt;Node4</title>
<path fill="none" stroke="midnightblue" d="M948.87,-172.28C870.83,-164.81 732.79,-149.32 718,-132 682.93,-90.94 759.83,-45.55 804.29,-23.88"/>
<polygon fill="midnightblue" stroke="midnightblue" points="805.97,-26.96 813.5,-19.51 802.96,-20.64 805.97,-26.96"/>
</g>
<!-- Node2&#45;&gt;Node5 -->
<g id="edge20" class="edge">
<title>Node2&#45;&gt;Node5</title>
<path fill="none" stroke="midnightblue" d="M1055.33,-177.63C1148.37,-177.64 1335.12,-172.43 1384,-132 1411.29,-109.42 1389.62,-86.28 1408,-56 1414.76,-44.86 1424.84,-34.44 1433.75,-26.44"/>
<polygon fill="midnightblue" stroke="midnightblue" points="1436.16,-28.98 1441.47,-19.81 1431.6,-23.67 1436.16,-28.98"/>
</g>
<!-- Node2&#45;&gt;Node7 -->
<g id="edge6" class="edge">
<title>Node2&#45;&gt;Node7</title>
<path fill="none" stroke="midnightblue" d="M1055.17,-169.25C1110.94,-160.99 1201.4,-147.25 1289.42,-132.05"/>
<polygon fill="midnightblue" stroke="midnightblue" points="1290.06,-135.49 1299.31,-130.33 1288.86,-128.6 1290.06,-135.49"/>
</g>
<!-- Node9 -->
<g id="node9" class="node">
<title>Node9</title>
<g id="a_node9"><a xlink:title=" ">
<polygon fill="none" stroke="#bfbfbf" points="628.5,-56.5 628.5,-75.5 669.5,-75.5 669.5,-56.5 628.5,-56.5"/>
<text text-anchor="middle" x="649" y="-63.5" font-family="Helvetica,sans-Serif" font-size="10.00">string</text>
</a>
</g>
</g>
<!-- Node2&#45;&gt;Node9 -->
<g id="edge21" class="edge">
<title>Node2&#45;&gt;Node9</title>
<path fill="none" stroke="midnightblue" d="M948.97,-172.07C864.41,-163.82 706.32,-146.68 685,-132 669.1,-121.05 659.48,-100.69 654.24,-85.66"/>
<polygon fill="midnightblue" stroke="midnightblue" points="657.5,-84.36 651.17,-75.87 650.83,-86.46 657.5,-84.36"/>
</g>
<!-- Node2&#45;&gt;Node10 -->
<g id="edge11" class="edge">
<title>Node2&#45;&gt;Node10</title>
<path fill="none" stroke="midnightblue" d="M948.8,-176.14C834.72,-173.74 558.06,-164.87 316.94,-131.92"/>
<polygon fill="midnightblue" stroke="midnightblue" points="317.32,-128.43 306.93,-130.53 316.36,-135.37 317.32,-128.43"/>
</g>
<!-- Node11 -->
<g id="node11" class="node">
<title>Node11</title>
<g id="a_node11"><a xlink:title=" ">
<polygon fill="none" stroke="#bfbfbf" points="249.5,-56.5 249.5,-75.5 298.5,-75.5 298.5,-56.5 249.5,-56.5"/>
<text text-anchor="middle" x="274" y="-63.5" font-family="Helvetica,sans-Serif" font-size="10.00">cstddef</text>
</a>
</g>
</g>
<!-- Node2&#45;&gt;Node11 -->
<g id="edge16" class="edge">
<title>Node2&#45;&gt;Node11</title>
<path fill="none" stroke="midnightblue" d="M948.9,-175.04C833.01,-170.34 560.67,-156.94 472,-132 452.87,-126.62 450.53,-119.2 432,-112 390.5,-95.88 340.86,-82.68 308.44,-74.84"/>
<polygon fill="midnightblue" stroke="midnightblue" points="309.09,-71.4 298.55,-72.49 307.47,-78.21 309.09,-71.4"/>
</g>
<!-- Node12 -->
<g id="node12" class="node">
<title>Node12</title>
<g id="a_node12"><a xlink:title=" ">
<polygon fill="none" stroke="#bfbfbf" points="727.5,-112.5 727.5,-131.5 854.5,-131.5 854.5,-112.5 727.5,-112.5"/>
<text text-anchor="middle" x="791" y="-119.5" font-family="Helvetica,sans-Serif" font-size="10.00">boost/beast/http/field.hpp</text>
</a>
</g>
</g>
<!-- Node2&#45;&gt;Node12 -->
<g id="edge13" class="edge">
<title>Node2&#45;&gt;Node12</title>
<path fill="none" stroke="midnightblue" d="M968.57,-168.44C932.14,-159.12 873.77,-144.18 833.97,-134"/>
<polygon fill="midnightblue" stroke="midnightblue" points="834.83,-130.61 824.28,-131.52 833.1,-137.39 834.83,-130.61"/>
</g>
<!-- Node13 -->
<g id="node13" class="node">
<title>Node13</title>
<g id="a_node13"><a xlink:title=" ">
<polygon fill="none" stroke="#bfbfbf" points="873,-112.5 873,-131.5 919,-131.5 919,-112.5 873,-112.5"/>
<text text-anchor="middle" x="896" y="-119.5" font-family="Helvetica,sans-Serif" font-size="10.00">chrono</text>
</a>
</g>
</g>
<!-- Node2&#45;&gt;Node13 -->
<g id="edge15" class="edge">
<title>Node2&#45;&gt;Node13</title>
<path fill="none" stroke="midnightblue" d="M984.97,-168.32C967.97,-159.66 941.62,-146.24 922.01,-136.25"/>
<polygon fill="midnightblue" stroke="midnightblue" points="923.49,-133.08 912.99,-131.65 920.31,-139.31 923.49,-133.08"/>
</g>
<!-- Node14 -->
<g id="node14" class="node">
<title>Node14</title>
<g id="a_node14"><a xlink:title=" ">
<polygon fill="none" stroke="#bfbfbf" points="325,-112.5 325,-131.5 387,-131.5 387,-112.5 325,-112.5"/>
<text text-anchor="middle" x="356" y="-119.5" font-family="Helvetica,sans-Serif" font-size="10.00">filesystem</text>
</a>
</g>
</g>
<!-- Node2&#45;&gt;Node14 -->
<g id="edge17" class="edge">
<title>Node2&#45;&gt;Node14</title>
<path fill="none" stroke="midnightblue" d="M948.79,-173.25C848.82,-166.09 626.19,-149.63 439,-132 425.45,-130.72 410.67,-129.17 397.39,-127.72"/>
<polygon fill="midnightblue" stroke="midnightblue" points="397.44,-124.2 387.12,-126.58 396.67,-131.16 397.44,-124.2"/>
</g>
<!-- Node15 -->
<g id="node15" class="node">
<title>Node15</title>
<g id="a_node15"><a xlink:title=" ">
<polygon fill="none" stroke="#bfbfbf" points="937.5,-112.5 937.5,-131.5 996.5,-131.5 996.5,-112.5 937.5,-112.5"/>
<text text-anchor="middle" x="967" y="-119.5" font-family="Helvetica,sans-Serif" font-size="10.00">functional</text>
</a>
</g>
</g>
<!-- Node2&#45;&gt;Node15 -->
<g id="edge18" class="edge">
<title>Node2&#45;&gt;Node15</title>
<path fill="none" stroke="midnightblue" d="M996.22,-168.08C991.33,-160.53 984.17,-149.49 978.17,-140.23"/>
<polygon fill="midnightblue" stroke="midnightblue" points="981.05,-138.24 972.67,-131.75 975.17,-142.05 981.05,-138.24"/>
</g>
<!-- Node16 -->
<g id="node16" class="node">
<title>Node16</title>
<g id="a_node16"><a xlink:title=" ">
<polygon fill="none" stroke="#bfbfbf" points="1014.5,-112.5 1014.5,-131.5 1059.5,-131.5 1059.5,-112.5 1014.5,-112.5"/>
<text text-anchor="middle" x="1037" y="-119.5" font-family="Helvetica,sans-Serif" font-size="10.00">iosfwd</text>
</a>
</g>
</g>
<!-- Node2&#45;&gt;Node16 -->
<g id="edge19" class="edge">
<title>Node2&#45;&gt;Node16</title>
<path fill="none" stroke="midnightblue" d="M1007.78,-168.08C1012.67,-160.53 1019.83,-149.49 1025.83,-140.23"/>
<polygon fill="midnightblue" stroke="midnightblue" points="1028.83,-142.05 1031.33,-131.75 1022.95,-138.24 1028.83,-142.05"/>
</g>
<!-- Node17 -->
<g id="node17" class="node">
<title>Node17</title>
<g id="a_node17"><a xlink:title=" ">
<polygon fill="none" stroke="#bfbfbf" points="1077.5,-112.5 1077.5,-131.5 1160.5,-131.5 1160.5,-112.5 1077.5,-112.5"/>
<text text-anchor="middle" x="1119" y="-119.5" font-family="Helvetica,sans-Serif" font-size="10.00">unordered_map</text>
</a>
</g>
</g>
<!-- Node2&#45;&gt;Node17 -->
<g id="edge22" class="edge">
<title>Node2&#45;&gt;Node17</title>
<path fill="none" stroke="midnightblue" d="M1020.54,-168.44C1039.62,-159.64 1069.57,-145.81 1091.44,-135.72"/>
<polygon fill="midnightblue" stroke="midnightblue" points="1092.93,-138.88 1100.55,-131.52 1090,-132.53 1092.93,-138.88"/>
</g>
<!-- Node18 -->
<g id="node18" class="node">
<title>Node18</title>
<g id="a_node18"><a xlink:title=" ">
<polygon fill="none" stroke="#bfbfbf" points="1179,-112.5 1179,-131.5 1219,-131.5 1219,-112.5 1179,-112.5"/>
<text text-anchor="middle" x="1199" y="-119.5" font-family="Helvetica,sans-Serif" font-size="10.00">utility</text>
</a>
</g>
</g>
<!-- Node2&#45;&gt;Node18 -->
<g id="edge23" class="edge">
<title>Node2&#45;&gt;Node18</title>
<path fill="none" stroke="midnightblue" d="M1034.72,-168.48C1068.44,-159.62 1122.5,-145.24 1169,-132 1169.1,-131.97 1169.2,-131.94 1169.29,-131.92"/>
<polygon fill="midnightblue" stroke="midnightblue" points="1170.07,-135.34 1178.69,-129.18 1168.11,-128.62 1170.07,-135.34"/>
</g>
<!-- Node19 -->
<g id="node19" class="node">
<title>Node19</title>
<g id="a_node19"><a xlink:title=" ">
<polygon fill="none" stroke="#bfbfbf" points="1237,-112.5 1237,-131.5 1281,-131.5 1281,-112.5 1237,-112.5"/>
<text text-anchor="middle" x="1259" y="-119.5" font-family="Helvetica,sans-Serif" font-size="10.00">vector</text>
</a>
</g>
</g>
<!-- Node2&#45;&gt;Node19 -->
<g id="edge24" class="edge">
<title>Node2&#45;&gt;Node19</title>
<path fill="none" stroke="midnightblue" d="M1051.2,-168.46C1095.01,-160.58 1161.02,-148.01 1226.98,-132.09"/>
<polygon fill="midnightblue" stroke="midnightblue" points="1227.82,-135.49 1236.71,-129.72 1226.17,-128.69 1227.82,-135.49"/>
</g>
<!-- Node3&#45;&gt;Node4 -->
<g id="edge3" class="edge">
<title>Node3&#45;&gt;Node4</title>
<path fill="none" stroke="midnightblue" d="M1416.66,-60.87C1402.15,-59.27 1385.29,-57.47 1370,-56 1184.31,-38.15 962.1,-20.81 872.92,-14.01"/>
<polygon fill="midnightblue" stroke="midnightblue" points="872.95,-10.5 862.71,-13.23 872.42,-17.48 872.95,-10.5"/>
</g>
<!-- Node3&#45;&gt;Node5 -->
<g id="edge4" class="edge">
<title>Node3&#45;&gt;Node5</title>
<path fill="none" stroke="midnightblue" d="M1453,-56.08C1453,-49.01 1453,-38.86 1453,-29.99"/>
<polygon fill="midnightblue" stroke="midnightblue" points="1456.5,-29.75 1453,-19.75 1449.5,-29.75 1456.5,-29.75"/>
</g>
<!-- Node3&#45;&gt;Node6 -->
<g id="edge5" class="edge">
<title>Node3&#45;&gt;Node6</title>
<path fill="none" stroke="midnightblue" d="M1467.14,-56.32C1480.87,-47.9 1501.94,-34.97 1518.06,-25.07"/>
<polygon fill="midnightblue" stroke="midnightblue" points="1520.2,-27.87 1526.9,-19.65 1516.54,-21.9 1520.2,-27.87"/>
</g>
<!-- Node7&#45;&gt;Node3 -->
<g id="edge7" class="edge">
<title>Node7&#45;&gt;Node3</title>
<path fill="none" stroke="midnightblue" d="M1355.38,-112.44C1374.22,-103.68 1403.73,-89.94 1425.38,-79.86"/>
<polygon fill="midnightblue" stroke="midnightblue" points="1427.12,-82.91 1434.71,-75.52 1424.16,-76.56 1427.12,-82.91"/>
</g>
<!-- Node7&#45;&gt;Node4 -->
<g id="edge8" class="edge">
<title>Node7&#45;&gt;Node4</title>
<path fill="none" stroke="midnightblue" d="M1299.12,-112.73C1206.22,-92.46 967.79,-40.42 872.86,-19.7"/>
<polygon fill="midnightblue" stroke="midnightblue" points="873.32,-16.22 862.81,-17.51 871.83,-23.06 873.32,-16.22"/>
</g>
<!-- Node8 -->
<g id="node8" class="node">
<title>Node8</title>
<g id="a_node8"><a xlink:title=" ">
<polygon fill="none" stroke="#bfbfbf" points="1225,-56.5 1225,-75.5 1361,-75.5 1361,-56.5 1225,-56.5"/>
<text text-anchor="middle" x="1293" y="-63.5" font-family="Helvetica,sans-Serif" font-size="10.00">boost/beast/http/status.hpp</text>
</a>
</g>
</g>
<!-- Node7&#45;&gt;Node8 -->
<g id="edge9" class="edge">
<title>Node7&#45;&gt;Node8</title>
<path fill="none" stroke="midnightblue" d="M1329.73,-112.08C1323.46,-104.38 1314.21,-93.03 1306.57,-83.65"/>
<polygon fill="midnightblue" stroke="midnightblue" points="1309.16,-81.29 1300.13,-75.75 1303.73,-85.71 1309.16,-81.29"/>
</g>
<!-- Node7&#45;&gt;Node9 -->
<g id="edge10" class="edge">
<title>Node7&#45;&gt;Node9</title>
<path fill="none" stroke="midnightblue" d="M1299.35,-113.38C1296.2,-112.87 1293.05,-112.4 1290,-112 1056.43,-81.55 772.11,-70.72 679.63,-67.86"/>
<polygon fill="midnightblue" stroke="midnightblue" points="679.67,-64.36 669.57,-67.55 679.46,-71.35 679.67,-64.36"/>
</g>
<!-- Node10&#45;&gt;Node11 -->
<g id="edge12" class="edge">
<title>Node10&#45;&gt;Node11</title>
<path fill="none" stroke="midnightblue" d="M274,-112.08C274,-105.01 274,-94.86 274,-85.99"/>
<polygon fill="midnightblue" stroke="midnightblue" points="277.5,-85.75 274,-75.75 270.5,-85.75 277.5,-85.75"/>
</g>
<!-- Node20&#45;&gt;Node4 -->
<g id="edge26" class="edge">
<title>Node20&#45;&gt;Node4</title>
<path fill="none" stroke="midnightblue" d="M546.06,-112.29C559.66,-98.15 588.68,-70.34 619,-56 675.87,-29.1 748.79,-18.17 793.14,-13.81"/>
<polygon fill="midnightblue" stroke="midnightblue" points="793.6,-17.28 803.24,-12.88 792.96,-10.31 793.6,-17.28"/>
</g>
<!-- Node20&#45;&gt;Node9 -->
<g id="edge28" class="edge">
<title>Node20&#45;&gt;Node9</title>
<path fill="none" stroke="midnightblue" d="M555.83,-112.32C573.72,-103.62 601.48,-90.12 622.05,-80.11"/>
<polygon fill="midnightblue" stroke="midnightblue" points="623.75,-83.18 631.21,-75.65 620.69,-76.88 623.75,-83.18"/>
</g>
<!-- Node21 -->
<g id="node21" class="node">
<title>Node21</title>
<g id="a_node21"><a xlink:title=" ">
<polygon fill="none" stroke="#bfbfbf" points="508.5,-56.5 508.5,-75.5 567.5,-75.5 567.5,-56.5 508.5,-56.5"/>
<text text-anchor="middle" x="538" y="-63.5" font-family="Helvetica,sans-Serif" font-size="10.00">exception</text>
</a>
</g>
</g>
<!-- Node20&#45;&gt;Node21 -->
<g id="edge27" class="edge">
<title>Node20&#45;&gt;Node21</title>
<path fill="none" stroke="midnightblue" d="M538,-112.08C538,-105.01 538,-94.86 538,-85.99"/>
<polygon fill="midnightblue" stroke="midnightblue" points="541.5,-85.75 538,-75.75 534.5,-85.75 541.5,-85.75"/>
</g>
<!-- Node22&#45;&gt;Node11 -->
<g id="edge32" class="edge">
<title>Node22&#45;&gt;Node11</title>
<path fill="none" stroke="midnightblue" d="M44.81,-168.05C43.5,-154.07 43.24,-127.1 58,-112 82.79,-86.64 184.71,-74.42 239.23,-69.6"/>
<polygon fill="midnightblue" stroke="midnightblue" points="239.79,-73.07 249.46,-68.74 239.2,-66.09 239.79,-73.07"/>
</g>
<!-- Node23&#45;&gt;Node10 -->
<g id="edge35" class="edge">
<title>Node23&#45;&gt;Node10</title>
<path fill="none" stroke="midnightblue" d="M268.16,-168.08C269.08,-160.93 270.42,-150.64 271.58,-141.69"/>
<polygon fill="midnightblue" stroke="midnightblue" points="275.05,-142.12 272.87,-131.75 268.11,-141.22 275.05,-142.12"/>
</g>
<!-- Node23&#45;&gt;Node11 -->
<g id="edge36" class="edge">
<title>Node23&#45;&gt;Node11</title>
<path fill="none" stroke="midnightblue" d="M256.9,-168.49C243.82,-156.36 223.63,-133.22 232,-112 236.51,-100.55 245.47,-90.29 253.95,-82.47"/>
<polygon fill="midnightblue" stroke="midnightblue" points="256.47,-84.93 261.79,-75.76 251.91,-79.61 256.47,-84.93"/>
</g>
<!-- Node23&#45;&gt;Node14 -->
<g id="edge37" class="edge">
<title>Node23&#45;&gt;Node14</title>
<path fill="none" stroke="midnightblue" d="M281.3,-168.32C295.18,-159.9 316.49,-146.97 332.8,-137.07"/>
<polygon fill="midnightblue" stroke="midnightblue" points="335,-139.83 341.74,-131.65 331.37,-133.85 335,-139.83"/>
</g>
<!-- Node23&#45;&gt;Node24 -->
<g id="edge38" class="edge">
<title>Node23&#45;&gt;Node24</title>
<path fill="none" stroke="midnightblue" d="M239.27,-168.44C208.79,-159.04 159.77,-143.91 126.74,-133.72"/>
<polygon fill="midnightblue" stroke="midnightblue" points="127.64,-130.33 117.05,-130.73 125.57,-137.02 127.64,-130.33"/>
</g>
<!-- Node25 -->
<g id="node25" class="node">
<title>Node25</title>
<g id="a_node25"><a xlink:title=" ">
<polygon fill="none" stroke="#bfbfbf" points="135,-112.5 135,-131.5 185,-131.5 185,-112.5 135,-112.5"/>
<text text-anchor="middle" x="160" y="-119.5" font-family="Helvetica,sans-Serif" font-size="10.00">optional</text>
</a>
</g>
</g>
<!-- Node23&#45;&gt;Node25 -->
<g id="edge39" class="edge">
<title>Node23&#45;&gt;Node25</title>
<path fill="none" stroke="midnightblue" d="M249.81,-168.32C232.65,-159.66 206.05,-146.24 186.25,-136.25"/>
<polygon fill="midnightblue" stroke="midnightblue" points="187.65,-133.04 177.15,-131.65 184.5,-139.28 187.65,-133.04"/>
</g>
<!-- Node26&#45;&gt;Node9 -->
<g id="edge43" class="edge">
<title>Node26&#45;&gt;Node9</title>
<path fill="none" stroke="midnightblue" d="M591.87,-168.37C602.05,-150.3 625.79,-108.18 639.24,-84.31"/>
<polygon fill="midnightblue" stroke="midnightblue" points="642.3,-86.02 644.16,-75.59 636.2,-82.58 642.3,-86.02"/>
</g>
<!-- Node26&#45;&gt;Node10 -->
<g id="edge41" class="edge">
<title>Node26&#45;&gt;Node10</title>
<path fill="none" stroke="midnightblue" d="M531.07,-168.49C478.43,-160.31 397.15,-147.22 316.83,-132.08"/>
<polygon fill="midnightblue" stroke="midnightblue" points="317.01,-128.55 306.53,-130.13 315.7,-135.43 317.01,-128.55"/>
</g>
<!-- Node26&#45;&gt;Node11 -->
<g id="edge42" class="edge">
<title>Node26&#45;&gt;Node11</title>
<path fill="none" stroke="midnightblue" d="M554.22,-168.46C523.93,-160.23 477.88,-146.87 439,-132 419.31,-124.47 415.46,-120.1 396,-112 366.69,-99.8 332.77,-87.43 308.14,-78.75"/>
<polygon fill="midnightblue" stroke="midnightblue" points="309.13,-75.39 298.53,-75.38 306.81,-81.99 309.13,-75.39"/>
</g>
</g>
</svg>
        <g id="navigator" transform="translate(0 0)" fill="#404254">
                <rect fill="#f2f5e9" fill-opacity="0.5" stroke="#606060" stroke-width=".5" x="0" y="0" width="60" height="60"/>
                <use id="zoomplus" xlink:href="#zoomPlus" x="17" y="9" onmousedown="handleZoom(evt,'in')"/>
                <use id="zoomminus" xlink:href="#zoomMin" x="42" y="9" onmousedown="handleZoom(evt,'out')"/>
                <use id="reset" xlink:href="#resetDef" x="30" y="36" onmousedown="handleReset()"/>
                <g id="arrowUp" xlink:href="#dirArrow" transform="translate(30 24)" onmousedown="handlePan(0,-1)">
                  <use xlink:href="#rim" fill="#404040">
                        <set attributeName="fill" to="#808080" begin="arrowUp.mouseover" end="arrowUp.mouseout"/>
                  </use>
                  <path fill="none" stroke="white" stroke-width="1.5" d="M0,-3.0v7 M-2.5,-0.5L0,-3.0L2.5,-0.5"/>
                </g>
                <g id="arrowRight" xlink:href="#dirArrow" transform="rotate(90) translate(36 -43)" onmousedown="handlePan(1,0)">
                  <use xlink:href="#rim" fill="#404040">
                        <set attributeName="fill" to="#808080" begin="arrowRight.mouseover" end="arrowRight.mouseout"/>
                  </use>
                  <path fill="none" stroke="white" stroke-width="1.5" d="M0,-3.0v7 M-2.5,-0.5L0,-3.0L2.5,-0.5"/>
                </g>
                <g id="arrowDown" xlink:href="#dirArrow" transform="rotate(180) translate(-30 -48)" onmousedown="handlePan(0,1)">
                  <use xlink:href="#rim" fill="#404040">
                        <set attributeName="fill" to="#808080" begin="arrowDown.mouseover" end="arrowDown.mouseout"/>
                  </use>
                  <path fill="none" stroke="white" stroke-width="1.5" d="M0,-3.0v7 M-2.5,-0.5L0,-3.0L2.5,-0.5"/>
                </g>
                <g id="arrowLeft" xlink:href="#dirArrow" transform="rotate(270) translate(-36 17)" onmousedown="handlePan(-1,0)">
                  <use xlink:href="#rim" fill="#404040">
                        <set attributeName="fill" to="#808080" begin="arrowLeft.mouseover" end="arrowLeft.mouseout"/>
                  </use>
                  <path fill="none" stroke="white" stroke-width="1.5" d="M0,-3.0v7 M-2.5,-0.5L0,-3.0L2.5,-0.5"/>
                </g>
        </g>
        <svg viewBox="0 0 15 15" width="100%" height="30px" preserveAspectRatio="xMaxYMin meet">
         <g id="arrow_out" transform="scale(0.3 0.3)">
          <a xlink:href="request_8cpp__incl_org.svg" target="_base">
           <rect id="button" ry="5" rx="5" y="6" x="6" height="38" width="38"
                fill="#f2f5e9" fill-opacity="0.5" stroke="#606060" stroke-width="1.0"/>
           <path id="arrow"
             d="M 11.500037,31.436501 C 11.940474,20.09759 22.043105,11.32322 32.158766,21.979434 L 37.068811,17.246167 C 37.068811,17.246167 37.088388,32 37.088388,32 L 22.160133,31.978069 C 22.160133,31.978069 26.997745,27.140456 26.997745,27.140456 C 18.528582,18.264221 13.291696,25.230495 11.500037,31.436501 z"
             style="fill:#404040;"/>
          </a>
         </g>
        </svg>
</svg>
