<?xml version="1.0" encoding="UTF-8" standalone="no"?>
<!DOCTYPE svg PUBLIC "-//W3C//DTD SVG 1.1//EN"
 "http://www.w3.org/Graphics/SVG/1.1/DTD/svg11.dtd">
<!-- Generated by graphviz version 2.44.1 (20211215.1903)
 -->
<!-- Title: include/roar/request.hpp Pages: 1 -->
<svg width="1532pt" height="308pt"
 viewBox="0.00 0.00 1532.00 308.00" xmlns="http://www.w3.org/2000/svg" xmlns:xlink="http://www.w3.org/1999/xlink">
<g id="graph0" class="graph" transform="scale(1 1) rotate(0) translate(4 304)">
<title>include/roar/request.hpp</title>
<!-- Node1 -->
<g id="node1" class="node">
<title>Node1</title>
<g id="a_node1"><a xlink:title=" ">
<polygon fill="#bfbfbf" stroke="black" points="1046.5,-280.5 1046.5,-299.5 1167.5,-299.5 1167.5,-280.5 1046.5,-280.5"/>
<text text-anchor="middle" x="1107" y="-287.5" font-family="Helvetica,sans-Serif" font-size="10.00">include/roar/request.hpp</text>
</a>
</g>
</g>
<!-- Node2 -->
<g id="node2" class="node">
<title>Node2</title>
<g id="a_node2"><a xlink:href="response_8hpp.html" target="_top" xlink:title=" ">
<polygon fill="none" stroke="black" points="943,-224.5 943,-243.5 1071,-243.5 1071,-224.5 943,-224.5"/>
<text text-anchor="middle" x="1007" y="-231.5" font-family="Helvetica,sans-Serif" font-size="10.00">include/roar/response.hpp</text>
</a>
</g>
</g>
<!-- Node1&#45;&gt;Node2 -->
<g id="edge1" class="edge">
<title>Node1&#45;&gt;Node2</title>
<path fill="none" stroke="midnightblue" d="M1081.91,-275.45C1063.45,-265.48 1038.9,-252.23 1023.03,-243.65"/>
<polygon fill="midnightblue" stroke="midnightblue" points="1080.47,-278.65 1090.93,-280.32 1083.8,-272.49 1080.47,-278.65"/>
</g>
<!-- Node4 -->
<g id="node4" class="node">
<title>Node4</title>
<g id="a_node4"><a xlink:href="include_2roar_2routing_2request__listener_8hpp.html" target="_top" xlink:title=" ">
<polygon fill="none" stroke="black" points="606,-112.5 606,-131.5 796,-131.5 796,-112.5 606,-112.5"/>
<text text-anchor="middle" x="701" y="-119.5" font-family="Helvetica,sans-Serif" font-size="10.00">include/roar/routing/request_listener.hpp</text>
</a>
</g>
</g>
<!-- Node1&#45;&gt;Node4 -->
<g id="edge25" class="edge">
<title>Node1&#45;&gt;Node4</title>
<path fill="none" stroke="midnightblue" d="M1035.96,-283.61C961.35,-276.99 849.71,-264.11 812,-244 759.93,-216.23 719.49,-154.26 705.92,-131.55"/>
<polygon fill="midnightblue" stroke="midnightblue" points="1035.96,-287.12 1046.23,-284.5 1036.57,-280.15 1035.96,-287.12"/>
</g>
<!-- Node12 -->
<g id="node12" class="node">
<title>Node12</title>
<g id="a_node12"><a xlink:href="server_8hpp.html" target="_top" xlink:title=" ">
<polygon fill="none" stroke="black" points="767,-56.5 767,-75.5 883,-75.5 883,-56.5 767,-56.5"/>
<text text-anchor="middle" x="825" y="-63.5" font-family="Helvetica,sans-Serif" font-size="10.00">include/roar/server.hpp</text>
</a>
</g>
</g>
<!-- Node1&#45;&gt;Node12 -->
<g id="edge26" class="edge">
<title>Node1&#45;&gt;Node12</title>
<path fill="none" stroke="midnightblue" d="M1035.89,-282.82C1002.38,-277 963.4,-265.74 934,-244 871.61,-197.87 837.13,-104.38 827.69,-75.62"/>
<polygon fill="midnightblue" stroke="midnightblue" points="1035.67,-286.33 1046.1,-284.46 1036.78,-279.42 1035.67,-286.33"/>
</g>
<!-- Node16 -->
<g id="node16" class="node">
<title>Node16</title>
<g id="a_node16"><a xlink:href="router_8cpp.html" target="_top" xlink:title=" ">
<polygon fill="none" stroke="black" points="1236,-112.5 1236,-131.5 1364,-131.5 1364,-112.5 1236,-112.5"/>
<text text-anchor="middle" x="1300" y="-119.5" font-family="Helvetica,sans-Serif" font-size="10.00">src/roar/routing/router.cpp</text>
</a>
</g>
</g>
<!-- Node1&#45;&gt;Node16 -->
<g id="edge28" class="edge">
<title>Node1&#45;&gt;Node16</title>
<path fill="none" stroke="midnightblue" d="M1105.08,-270.15C1103.5,-243.75 1104.84,-195.9 1131,-168 1146.37,-151.61 1200.45,-139.13 1243.35,-131.52"/>
<polygon fill="midnightblue" stroke="midnightblue" points="1101.61,-270.63 1105.9,-280.32 1108.59,-270.07 1101.61,-270.63"/>
</g>
<!-- Node18 -->
<g id="node18" class="node">
<title>Node18</title>
<g id="a_node18"><a xlink:href="session_8cpp.html" target="_top" xlink:title=" ">
<polygon fill="none" stroke="black" points="1382,-112.5 1382,-131.5 1524,-131.5 1524,-112.5 1382,-112.5"/>
<text text-anchor="middle" x="1453" y="-119.5" font-family="Helvetica,sans-Serif" font-size="10.00">src/roar/session/session.cpp</text>
</a>
</g>
</g>
<!-- Node1&#45;&gt;Node18 -->
<g id="edge29" class="edge">
<title>Node1&#45;&gt;Node18</title>
<path fill="none" stroke="midnightblue" d="M1118.43,-271.54C1128.77,-257 1145.22,-236.67 1164,-224 1240.66,-172.28 1346.62,-144.2 1406.64,-131.53"/>
<polygon fill="midnightblue" stroke="midnightblue" points="1115.31,-269.9 1112.56,-280.13 1121.09,-273.86 1115.31,-269.9"/>
</g>
<!-- Node19 -->
<g id="node19" class="node">
<title>Node19</title>
<g id="a_node19"><a xlink:href="request_8cpp.html" target="_top" xlink:title=" ">
<polygon fill="none" stroke="black" points="1173,-224.5 1173,-243.5 1277,-243.5 1277,-224.5 1173,-224.5"/>
<text text-anchor="middle" x="1225" y="-231.5" font-family="Helvetica,sans-Serif" font-size="10.00">src/roar/request.cpp</text>
</a>
</g>
</g>
<!-- Node1&#45;&gt;Node19 -->
<g id="edge27" class="edge">
<title>Node1&#45;&gt;Node19</title>
<path fill="none" stroke="midnightblue" d="M1134.9,-276.23C1156.97,-266.13 1187.18,-252.31 1206.39,-243.52"/>
<polygon fill="midnightblue" stroke="midnightblue" points="1133.33,-273.1 1125.7,-280.44 1136.25,-279.46 1133.33,-273.1"/>
</g>
<!-- Node20 -->
<g id="node20" class="node">
<title>Node20</title>
<g id="a_node20"><a xlink:href="websocket__session_8cpp.html" target="_top" xlink:title=" ">
<polygon fill="none" stroke="black" points="1295,-224.5 1295,-243.5 1503,-243.5 1503,-224.5 1295,-224.5"/>
<text text-anchor="middle" x="1399" y="-231.5" font-family="Helvetica,sans-Serif" font-size="10.00">src/roar/websocket/websocket_session.cpp</text>
</a>
</g>
</g>
<!-- Node1&#45;&gt;Node20 -->
<g id="edge30" class="edge">
<title>Node1&#45;&gt;Node20</title>
<path fill="none" stroke="midnightblue" d="M1163.23,-278.6C1218.42,-268.4 1301.56,-253.02 1352.95,-243.52"/>
<polygon fill="midnightblue" stroke="midnightblue" points="1162.47,-275.18 1153.27,-280.44 1163.74,-282.07 1162.47,-275.18"/>
</g>
<!-- Node3 -->
<g id="node3" class="node">
<title>Node3</title>
<g id="a_node3"><a xlink:href="session_8hpp.html" target="_top" xlink:title=" ">
<polygon fill="none" stroke="black" points="920.5,-168.5 920.5,-187.5 1079.5,-187.5 1079.5,-168.5 920.5,-168.5"/>
<text text-anchor="middle" x="1000" y="-175.5" font-family="Helvetica,sans-Serif" font-size="10.00">include/roar/session/session.hpp</text>
</a>
</g>
</g>
<!-- Node2&#45;&gt;Node3 -->
<g id="edge2" class="edge">
<title>Node2&#45;&gt;Node3</title>
<path fill="none" stroke="midnightblue" d="M1004.55,-214.1C1003.39,-205.14 1002.06,-194.86 1001.13,-187.75"/>
<polygon fill="midnightblue" stroke="midnightblue" points="1001.09,-214.62 1005.84,-224.08 1008.03,-213.72 1001.09,-214.62"/>
</g>
<!-- Node3&#45;&gt;Node4 -->
<g id="edge3" class="edge">
<title>Node3&#45;&gt;Node4</title>
<path fill="none" stroke="midnightblue" d="M942.77,-166.66C886.26,-156.46 800.88,-141.04 748.16,-131.52"/>
<polygon fill="midnightblue" stroke="midnightblue" points="942.16,-170.11 952.62,-168.44 943.4,-163.22 942.16,-170.11"/>
</g>
<!-- Node3&#45;&gt;Node12 -->
<g id="edge19" class="edge">
<title>Node3&#45;&gt;Node12</title>
<path fill="none" stroke="midnightblue" d="M963.77,-164.99C942.79,-157.2 916.39,-145.91 895,-132 869.42,-115.36 844.45,-89.06 832.43,-75.58"/>
<polygon fill="midnightblue" stroke="midnightblue" points="962.69,-168.33 973.29,-168.43 965.07,-161.74 962.69,-168.33"/>
</g>
<!-- Node14 -->
<g id="node14" class="node">
<title>Node14</title>
<g id="a_node14"><a xlink:href="server_8cpp.html" target="_top" xlink:title=" ">
<polygon fill="none" stroke="black" points="994,-0.5 994,-19.5 1092,-19.5 1092,-0.5 994,-0.5"/>
<text text-anchor="middle" x="1043" y="-7.5" font-family="Helvetica,sans-Serif" font-size="10.00">src/roar/server.cpp</text>
</a>
</g>
</g>
<!-- Node3&#45;&gt;Node14 -->
<g id="edge22" class="edge">
<title>Node3&#45;&gt;Node14</title>
<path fill="none" stroke="midnightblue" d="M967.03,-164.25C943.5,-152.96 917.7,-134.75 928,-112 948.27,-67.22 999.3,-34.41 1026.05,-19.66"/>
<polygon fill="midnightblue" stroke="midnightblue" points="965.63,-167.46 976.19,-168.38 968.51,-161.08 965.63,-167.46"/>
</g>
<!-- Node15 -->
<g id="node15" class="node">
<title>Node15</title>
<g id="a_node15"><a xlink:href="route_8cpp.html" target="_top" xlink:title=" ">
<polygon fill="none" stroke="black" points="937.5,-112.5 937.5,-131.5 1062.5,-131.5 1062.5,-112.5 937.5,-112.5"/>
<text text-anchor="middle" x="1000" y="-119.5" font-family="Helvetica,sans-Serif" font-size="10.00">src/roar/routing/route.cpp</text>
</a>
</g>
</g>
<!-- Node3&#45;&gt;Node15 -->
<g id="edge20" class="edge">
<title>Node3&#45;&gt;Node15</title>
<path fill="none" stroke="midnightblue" d="M1000,-157.8C1000,-148.91 1000,-138.78 1000,-131.75"/>
<polygon fill="midnightblue" stroke="midnightblue" points="996.5,-158.08 1000,-168.08 1003.5,-158.08 996.5,-158.08"/>
</g>
<!-- Node3&#45;&gt;Node16 -->
<g id="edge21" class="edge">
<title>Node3&#45;&gt;Node16</title>
<path fill="none" stroke="midnightblue" d="M1057.42,-166.66C1114.12,-156.46 1199.79,-141.04 1252.69,-131.52"/>
<polygon fill="midnightblue" stroke="midnightblue" points="1056.76,-163.23 1047.54,-168.44 1058,-170.12 1056.76,-163.23"/>
</g>
<!-- Node17 -->
<g id="node17" class="node">
<title>Node17</title>
<g id="a_node17"><a xlink:href="factory_8cpp.html" target="_top" xlink:title=" ">
<polygon fill="none" stroke="black" points="1080.5,-112.5 1080.5,-131.5 1217.5,-131.5 1217.5,-112.5 1080.5,-112.5"/>
<text text-anchor="middle" x="1149" y="-119.5" font-family="Helvetica,sans-Serif" font-size="10.00">src/roar/session/factory.cpp</text>
</a>
</g>
</g>
<!-- Node3&#45;&gt;Node17 -->
<g id="edge23" class="edge">
<title>Node3&#45;&gt;Node17</title>
<path fill="none" stroke="midnightblue" d="M1033.37,-164.91C1061.38,-154.75 1100.7,-140.51 1125.5,-131.52"/>
<polygon fill="midnightblue" stroke="midnightblue" points="1031.82,-161.75 1023.61,-168.44 1034.2,-168.33 1031.82,-161.75"/>
</g>
<!-- Node3&#45;&gt;Node18 -->
<g id="edge24" class="edge">
<title>Node3&#45;&gt;Node18</title>
<path fill="none" stroke="midnightblue" d="M1081.72,-167.26C1167.35,-157.05 1300.52,-141.18 1381.93,-131.47"/>
<polygon fill="midnightblue" stroke="midnightblue" points="1081.29,-163.78 1071.78,-168.44 1082.12,-170.74 1081.29,-163.78"/>
</g>
<!-- Node5 -->
<g id="node5" class="node">
<title>Node5</title>
<g id="a_node5"><a xlink:href="request__listener_2main_8cpp.html" target="_top" xlink:title=" ">
<polygon fill="none" stroke="black" points="4.5,-56.5 4.5,-75.5 177.5,-75.5 177.5,-56.5 4.5,-56.5"/>
<text text-anchor="middle" x="91" y="-63.5" font-family="Helvetica,sans-Serif" font-size="10.00">examples/request_listener/main.cpp</text>
</a>
</g>
</g>
<!-- Node4&#45;&gt;Node5 -->
<g id="edge4" class="edge">
<title>Node4&#45;&gt;Node5</title>
<path fill="none" stroke="midnightblue" d="M595.6,-111.96C491.69,-103.01 328.38,-88.82 187,-76 183.92,-75.72 180.78,-75.43 177.6,-75.14"/>
<polygon fill="midnightblue" stroke="midnightblue" points="595.51,-115.47 605.78,-112.84 596.12,-108.49 595.51,-115.47"/>
</g>
<!-- Node6 -->
<g id="node6" class="node">
<title>Node6</title>
<g id="a_node6"><a xlink:href="simple__server_2main_8cpp.html" target="_top" xlink:title=" ">
<polygon fill="none" stroke="black" points="619.5,-0.5 619.5,-19.5 784.5,-19.5 784.5,-0.5 619.5,-0.5"/>
<text text-anchor="middle" x="702" y="-7.5" font-family="Helvetica,sans-Serif" font-size="10.00">examples/simple_server/main.cpp</text>
</a>
</g>
</g>
<!-- Node4&#45;&gt;Node6 -->
<g id="edge5" class="edge">
<title>Node4&#45;&gt;Node6</title>
<path fill="none" stroke="midnightblue" d="M701.17,-102.35C701.39,-78.25 701.76,-37.31 701.92,-19.59"/>
<polygon fill="midnightblue" stroke="midnightblue" points="697.67,-102.34 701.08,-112.37 704.67,-102.4 697.67,-102.34"/>
</g>
<!-- Node7 -->
<g id="node7" class="node">
<title>Node7</title>
<g id="a_node7"><a xlink:href="examples_2simple__server_2request__listener_8hpp.html" target="_top" xlink:title=" ">
<polygon fill="none" stroke="black" points="459.5,-56.5 459.5,-75.5 672.5,-75.5 672.5,-56.5 459.5,-56.5"/>
<text text-anchor="middle" x="566" y="-63.5" font-family="Helvetica,sans-Serif" font-size="10.00">examples/simple_server/request_listener.hpp</text>
</a>
</g>
</g>
<!-- Node4&#45;&gt;Node7 -->
<g id="edge6" class="edge">
<title>Node4&#45;&gt;Node7</title>
<path fill="none" stroke="midnightblue" d="M670.09,-108.64C644.76,-98.5 609.57,-84.43 587.29,-75.52"/>
<polygon fill="midnightblue" stroke="midnightblue" points="669.02,-111.98 679.61,-112.44 671.62,-105.48 669.02,-111.98"/>
</g>
<!-- Node9 -->
<g id="node9" class="node">
<title>Node9</title>
<g id="a_node9"><a xlink:href="websocket_2main_8cpp.html" target="_top" xlink:title=" ">
<polygon fill="none" stroke="black" points="218,-0.5 218,-19.5 370,-19.5 370,-0.5 218,-0.5"/>
<text text-anchor="middle" x="294" y="-7.5" font-family="Helvetica,sans-Serif" font-size="10.00">examples/websocket/main.cpp</text>
</a>
</g>
</g>
<!-- Node4&#45;&gt;Node9 -->
<g id="edge9" class="edge">
<title>Node4&#45;&gt;Node9</title>
<path fill="none" stroke="midnightblue" d="M616.86,-111.08C567.55,-103.99 504.44,-92.71 450,-76 429.08,-69.58 425.14,-64.56 405,-56 374.19,-42.91 338.23,-28.49 315.78,-19.58"/>
<polygon fill="midnightblue" stroke="midnightblue" points="616.46,-114.55 626.85,-112.48 617.44,-107.62 616.46,-114.55"/>
</g>
<!-- Node10 -->
<g id="node10" class="node">
<title>Node10</title>
<g id="a_node10"><a xlink:href="examples_2websocket_2request__listener_8hpp.html" target="_top" xlink:title=" ">
<polygon fill="none" stroke="black" points="196,-56.5 196,-75.5 396,-75.5 396,-56.5 196,-56.5"/>
<text text-anchor="middle" x="296" y="-63.5" font-family="Helvetica,sans-Serif" font-size="10.00">examples/websocket/request_listener.hpp</text>
</a>
</g>
</g>
<!-- Node4&#45;&gt;Node10 -->
<g id="edge10" class="edge">
<title>Node4&#45;&gt;Node10</title>
<path fill="none" stroke="midnightblue" d="M626.78,-111.1C550.31,-100.91 432.32,-85.18 359.87,-75.52"/>
<polygon fill="midnightblue" stroke="midnightblue" points="626.45,-114.59 636.83,-112.44 627.38,-107.65 626.45,-114.59"/>
</g>
<!-- Node4&#45;&gt;Node12 -->
<g id="edge13" class="edge">
<title>Node4&#45;&gt;Node12</title>
<path fill="none" stroke="midnightblue" d="M730.01,-108.37C753.23,-98.26 785.16,-84.35 805.44,-75.52"/>
<polygon fill="midnightblue" stroke="midnightblue" points="728.42,-105.24 720.65,-112.44 731.21,-111.66 728.42,-105.24"/>
</g>
<!-- Node13 -->
<g id="node13" class="node">
<title>Node13</title>
<g id="a_node13"><a xlink:href="src_2roar_2routing_2request__listener_8cpp.html" target="_top" xlink:title=" ">
<polygon fill="none" stroke="black" points="802.5,-0.5 802.5,-19.5 975.5,-19.5 975.5,-0.5 802.5,-0.5"/>
<text text-anchor="middle" x="889" y="-7.5" font-family="Helvetica,sans-Serif" font-size="10.00">src/roar/routing/request_listener.cpp</text>
</a>
</g>
</g>
<!-- Node4&#45;&gt;Node13 -->
<g id="edge18" class="edge">
<title>Node4&#45;&gt;Node13</title>
<path fill="none" stroke="midnightblue" d="M712.42,-103.52C722.74,-88.95 739.19,-68.62 758,-56 784.96,-37.91 819.92,-26.39 846.94,-19.54"/>
<polygon fill="midnightblue" stroke="midnightblue" points="709.29,-101.89 706.55,-112.12 715.08,-105.83 709.29,-101.89"/>
</g>
<!-- Node7&#45;&gt;Node6 -->
<g id="edge7" class="edge">
<title>Node7&#45;&gt;Node6</title>
<path fill="none" stroke="midnightblue" d="M597.13,-52.64C622.66,-42.5 658.11,-28.43 680.55,-19.52"/>
<polygon fill="midnightblue" stroke="midnightblue" points="595.55,-49.5 587.55,-56.44 598.14,-56.01 595.55,-49.5"/>
</g>
<!-- Node8 -->
<g id="node8" class="node">
<title>Node8</title>
<g id="a_node8"><a xlink:href="examples_2simple__server_2request__listener_8cpp.html" target="_top" xlink:title=" ">
<polygon fill="none" stroke="black" points="388.5,-0.5 388.5,-19.5 601.5,-19.5 601.5,-0.5 388.5,-0.5"/>
<text text-anchor="middle" x="495" y="-7.5" font-family="Helvetica,sans-Serif" font-size="10.00">examples/simple_server/request_listener.cpp</text>
</a>
</g>
</g>
<!-- Node7&#45;&gt;Node8 -->
<g id="edge8" class="edge">
<title>Node7&#45;&gt;Node8</title>
<path fill="none" stroke="midnightblue" d="M546.41,-50.1C533.63,-40.38 517.39,-28.03 506.61,-19.83"/>
<polygon fill="midnightblue" stroke="midnightblue" points="544.51,-53.06 554.59,-56.32 548.75,-47.48 544.51,-53.06"/>
</g>
<!-- Node10&#45;&gt;Node9 -->
<g id="edge11" class="edge">
<title>Node10&#45;&gt;Node9</title>
<path fill="none" stroke="midnightblue" d="M295.29,-45.8C294.96,-36.91 294.58,-26.78 294.32,-19.75"/>
<polygon fill="midnightblue" stroke="midnightblue" points="291.8,-46.22 295.67,-56.08 298.8,-45.96 291.8,-46.22"/>
</g>
<!-- Node11 -->
<g id="node11" class="node">
<title>Node11</title>
<g id="a_node11"><a xlink:href="examples_2websocket_2request__listener_8cpp.html" target="_top" xlink:title=" ">
<polygon fill="none" stroke="black" points="0,-0.5 0,-19.5 200,-19.5 200,-0.5 0,-0.5"/>
<text text-anchor="middle" x="100" y="-7.5" font-family="Helvetica,sans-Serif" font-size="10.00">examples/websocket/request_listener.cpp</text>
</a>
</g>
</g>
<!-- Node10&#45;&gt;Node11 -->
<g id="edge12" class="edge">
<title>Node10&#45;&gt;Node11</title>
<path fill="none" stroke="midnightblue" d="M254.98,-53.7C217.99,-43.51 164.4,-28.74 130.91,-19.52"/>
<polygon fill="midnightblue" stroke="midnightblue" points="254.37,-57.16 264.94,-56.44 256.23,-50.41 254.37,-57.16"/>
</g>
<!-- Node12&#45;&gt;Node6 -->
<g id="edge14" class="edge">
<title>Node12&#45;&gt;Node6</title>
<path fill="none" stroke="midnightblue" d="M796.23,-52.37C773.19,-42.26 741.52,-28.35 721.4,-19.52"/>
<polygon fill="midnightblue" stroke="midnightblue" points="794.95,-55.63 805.51,-56.44 797.76,-49.22 794.95,-55.63"/>
</g>
<!-- Node12&#45;&gt;Node9 -->
<g id="edge15" class="edge">
<title>Node12&#45;&gt;Node9</title>
<path fill="none" stroke="midnightblue" d="M756.84,-58.23C669.35,-49.51 512.85,-33.84 379,-20 376.2,-19.71 373.34,-19.41 370.45,-19.11"/>
<polygon fill="midnightblue" stroke="midnightblue" points="756.6,-61.72 766.9,-59.23 757.3,-54.76 756.6,-61.72"/>
</g>
<!-- Node12&#45;&gt;Node13 -->
<g id="edge16" class="edge">
<title>Node12&#45;&gt;Node13</title>
<path fill="none" stroke="midnightblue" d="M842.99,-49.82C854.46,-40.15 868.91,-27.95 878.53,-19.83"/>
<polygon fill="midnightblue" stroke="midnightblue" points="840.67,-47.2 835.28,-56.32 845.18,-52.55 840.67,-47.2"/>
</g>
<!-- Node12&#45;&gt;Node14 -->
<g id="edge17" class="edge">
<title>Node12&#45;&gt;Node14</title>
<path fill="none" stroke="midnightblue" d="M869.31,-54.02C910.49,-43.82 970.97,-28.84 1008.62,-19.52"/>
<polygon fill="midnightblue" stroke="midnightblue" points="868.41,-50.64 859.54,-56.44 870.09,-57.44 868.41,-50.64"/>
</g>
</g>
</svg>
