<?xml version="1.0" encoding="UTF-8" standalone="no"?>
<!DOCTYPE svg PUBLIC "-//W3C//DTD SVG 1.1//EN"
 "http://www.w3.org/Graphics/SVG/1.1/DTD/svg11.dtd">
<!-- Generated by graphviz version 2.44.1 (20211215.1903)
 -->
<!-- Title: include/roar/request.hpp Pages: 1 -->
<!--zoomable 140 -->
<svg id="main" version="1.1" xmlns="http://www.w3.org/2000/svg" xmlns:xlink="http://www.w3.org/1999/xlink" xml:space="preserve" onload="init(evt)">
<style type="text/css"><![CDATA[
.edge:hover path { stroke: red; }
.edge:hover polygon { stroke: red; fill: red; }
]]></style>
<script type="text/javascript"><![CDATA[
var edges = document.getElementsByTagName('g');
if (edges && edges.length) {
  for (var i=0;i<edges.length;i++) {
    if (edges[i].id.substr(0,4)=='edge') {
      edges[i].setAttribute('class','edge');
    }
  }
}
]]></script>
        <defs>
                <circle id="rim" cx="0" cy="0" r="7"/>
                <circle id="rim2" cx="0" cy="0" r="3.5"/>
                <g id="zoomPlus">
                        <use xlink:href="#rim" fill="#404040">
                                <set attributeName="fill" to="#808080" begin="zoomplus.mouseover" end="zoomplus.mouseout"/>
                        </use>
                        <path d="M-4,0h8M0,-4v8" fill="none" stroke="white" stroke-width="1.5" pointer-events="none"/>
                </g>
                <g id="zoomMin">
                        <use xlink:href="#rim" fill="#404040">
                                <set attributeName="fill" to="#808080" begin="zoomminus.mouseover" end="zoomminus.mouseout"/>
                        </use>
                        <path d="M-4,0h8" fill="none" stroke="white" stroke-width="1.5" pointer-events="none"/>
                </g>
                <g id="dirArrow">
                        <path fill="none" stroke="white" stroke-width="1.5" d="M0,-3.0v7 M-2.5,-0.5L0,-3.0L2.5,-0.5"/>
                </g>
               <g id="resetDef">
                       <use xlink:href="#rim2" fill="#404040">
                               <set attributeName="fill" to="#808080" begin="reset.mouseover" end="reset.mouseout"/>
                       </use>
               </g>
        </defs>

<script type="text/javascript">
var viewWidth = 2482;
var viewHeight = 140;
var sectionId = 'dynsection-0';
</script>
<script xlink:href="svgpan.js"/>
<svg id="graph" class="graph">
<g id="viewport">
<title>include/roar/request.hpp</title>
<!-- Node1 -->
<g id="node1" class="node">
<title>Node1</title>
<g id="a_node1"><a xlink:title=" ">
<polygon fill="#bfbfbf" stroke="black" points="1025.82,-112.5 1025.82,-131.5 1146.82,-131.5 1146.82,-112.5 1025.82,-112.5"/>
<text text-anchor="middle" x="1086.32" y="-119.5" font-family="Helvetica,sans-Serif" font-size="10.00">include/roar/request.hpp</text>
</a>
</g>
</g>
<!-- Node2 -->
<g id="node2" class="node">
<title>Node2</title>
<g id="a_node2"><a xlink:href="basic__auth_8hpp.html" target="_top" xlink:title=" ">
<polygon fill="none" stroke="black" points="17.82,-56.5 17.82,-75.5 178.82,-75.5 178.82,-56.5 17.82,-56.5"/>
<text text-anchor="middle" x="98.32" y="-63.5" font-family="Helvetica,sans-Serif" font-size="10.00">roar/authorization/basic_auth.hpp</text>
</a>
</g>
</g>
<!-- Node1&#45;&gt;Node2 -->
<g id="edge1" class="edge">
<title>Node1&#45;&gt;Node2</title>
<path fill="none" stroke="midnightblue" d="M1025.82,-119C882.5,-114.05 510.87,-99.91 189.24,-76.03"/>
<polygon fill="midnightblue" stroke="midnightblue" points="189.49,-72.54 179.26,-75.28 188.97,-79.52 189.49,-72.54"/>
</g>
<!-- Node3 -->
<g id="node3" class="node">
<title>Node3</title>
<g id="a_node3"><a xlink:title=" ">
<polygon fill="none" stroke="#bfbfbf" points="126.32,-0.5 126.32,-19.5 176.32,-19.5 176.32,-0.5 126.32,-0.5"/>
<text text-anchor="middle" x="151.32" y="-7.5" font-family="Helvetica,sans-Serif" font-size="10.00">optional</text>
</a>
</g>
</g>
<!-- Node1&#45;&gt;Node3 -->
<g id="edge29" class="edge">
<title>Node1&#45;&gt;Node3</title>
<path fill="none" stroke="midnightblue" d="M1025.6,-120.76C803.14,-119.59 43.71,-112.9 8.32,-76 -26.54,-39.65 63.32,-21.92 116.1,-14.86"/>
<polygon fill="midnightblue" stroke="midnightblue" points="116.63,-18.32 126.11,-13.59 115.75,-11.38 116.63,-18.32"/>
</g>
<!-- Node4 -->
<g id="node4" class="node">
<title>Node4</title>
<g id="a_node4"><a xlink:title=" ">
<polygon fill="none" stroke="#bfbfbf" points="387.82,-0.5 387.82,-19.5 428.82,-19.5 428.82,-0.5 387.82,-0.5"/>
<text text-anchor="middle" x="408.32" y="-7.5" font-family="Helvetica,sans-Serif" font-size="10.00">string</text>
</a>
</g>
</g>
<!-- Node1&#45;&gt;Node4 -->
<g id="edge30" class="edge">
<title>Node1&#45;&gt;Node4</title>
<path fill="none" stroke="midnightblue" d="M1025.61,-121.59C867.08,-122.48 450.01,-120.55 408.32,-76 397.01,-63.92 398.66,-44.35 402.13,-29.84"/>
<polygon fill="midnightblue" stroke="midnightblue" points="405.58,-30.51 404.95,-19.93 398.84,-28.59 405.58,-30.51"/>
</g>
<!-- Node6 -->
<g id="node6" class="node">
<title>Node6</title>
<g id="a_node6"><a xlink:href="digest__auth_8hpp.html" target="_top" xlink:title=" ">
<polygon fill="none" stroke="black" points="197.32,-56.5 197.32,-75.5 361.32,-75.5 361.32,-56.5 197.32,-56.5"/>
<text text-anchor="middle" x="279.32" y="-63.5" font-family="Helvetica,sans-Serif" font-size="10.00">roar/authorization/digest_auth.hpp</text>
</a>
</g>
</g>
<!-- Node1&#45;&gt;Node6 -->
<g id="edge5" class="edge">
<title>Node1&#45;&gt;Node6</title>
<path fill="none" stroke="midnightblue" d="M1025.41,-117.77C902.44,-111.11 615.76,-94.88 375.32,-76 374.05,-75.9 372.78,-75.8 371.49,-75.7"/>
<polygon fill="midnightblue" stroke="midnightblue" points="371.78,-72.21 361.52,-74.87 371.2,-79.18 371.78,-72.21"/>
</g>
<!-- Node7 -->
<g id="node7" class="node">
<title>Node7</title>
<g id="a_node7"><a xlink:href="authorization_8hpp.html" target="_top" xlink:title=" ">
<polygon fill="none" stroke="black" points="548.82,-56.5 548.82,-75.5 717.82,-75.5 717.82,-56.5 548.82,-56.5"/>
<text text-anchor="middle" x="633.32" y="-63.5" font-family="Helvetica,sans-Serif" font-size="10.00">roar/authorization/authorization.hpp</text>
</a>
</g>
</g>
<!-- Node1&#45;&gt;Node7 -->
<g id="edge9" class="edge">
<title>Node1&#45;&gt;Node7</title>
<path fill="none" stroke="midnightblue" d="M1025.7,-113.77C945.61,-104.23 804.27,-87.38 714.87,-76.72"/>
<polygon fill="midnightblue" stroke="midnightblue" points="715.12,-73.23 704.77,-75.52 714.29,-80.18 715.12,-73.23"/>
</g>
<!-- Node10 -->
<g id="node10" class="node">
<title>Node10</title>
<g id="a_node10"><a xlink:href="ranges_8hpp.html" target="_top" xlink:title=" ">
<polygon fill="none" stroke="black" points="736.32,-56.5 736.32,-75.5 870.32,-75.5 870.32,-56.5 736.32,-56.5"/>
<text text-anchor="middle" x="803.32" y="-63.5" font-family="Helvetica,sans-Serif" font-size="10.00">roar/mechanics/ranges.hpp</text>
</a>
</g>
</g>
<!-- Node1&#45;&gt;Node10 -->
<g id="edge14" class="edge">
<title>Node1&#45;&gt;Node10</title>
<path fill="none" stroke="midnightblue" d="M1041.48,-112.44C991.69,-102.94 911.34,-87.61 857.93,-77.42"/>
<polygon fill="midnightblue" stroke="midnightblue" points="858.43,-73.95 847.95,-75.52 857.12,-80.83 858.43,-73.95"/>
</g>
<!-- Node12 -->
<g id="node12" class="node">
<title>Node12</title>
<g id="a_node12"><a xlink:title=" ">
<polygon fill="none" stroke="#bfbfbf" points="860.32,-0.5 860.32,-19.5 904.32,-19.5 904.32,-0.5 860.32,-0.5"/>
<text text-anchor="middle" x="882.32" y="-7.5" font-family="Helvetica,sans-Serif" font-size="10.00">vector</text>
</a>
</g>
</g>
<!-- Node1&#45;&gt;Node12 -->
<g id="edge31" class="edge">
<title>Node1&#45;&gt;Node12</title>
<path fill="none" stroke="midnightblue" d="M1025.5,-116.69C990.73,-111.51 948.06,-100.28 917.32,-76 902.27,-64.11 892.85,-43.9 887.63,-29.17"/>
<polygon fill="midnightblue" stroke="midnightblue" points="890.94,-28.05 884.54,-19.61 884.28,-30.2 890.94,-28.05"/>
</g>
<!-- Node13 -->
<g id="node13" class="node">
<title>Node13</title>
<g id="a_node13"><a xlink:href="base64_8hpp.html" target="_top" xlink:title=" ">
<polygon fill="none" stroke="black" points="417.82,-56.5 417.82,-75.5 530.82,-75.5 530.82,-56.5 417.82,-56.5"/>
<text text-anchor="middle" x="474.32" y="-63.5" font-family="Helvetica,sans-Serif" font-size="10.00">roar/utility/base64.hpp</text>
</a>
</g>
</g>
<!-- Node1&#45;&gt;Node13 -->
<g id="edge19" class="edge">
<title>Node1&#45;&gt;Node13</title>
<path fill="none" stroke="midnightblue" d="M1025.51,-117.1C926.24,-110.5 723,-95.96 541.04,-76.14"/>
<polygon fill="midnightblue" stroke="midnightblue" points="541.34,-72.65 531.02,-75.04 540.57,-79.61 541.34,-72.65"/>
</g>
<!-- Node14 -->
<g id="node14" class="node">
<title>Node14</title>
<g id="a_node14"><a xlink:title=" ">
<polygon fill="none" stroke="#bfbfbf" points="925.82,-56.5 925.82,-75.5 1074.82,-75.5 1074.82,-56.5 925.82,-56.5"/>
<text text-anchor="middle" x="1000.32" y="-63.5" font-family="Helvetica,sans-Serif" font-size="10.00">boost/beast/http/message.hpp</text>
</a>
</g>
</g>
<!-- Node1&#45;&gt;Node14 -->
<g id="edge21" class="edge">
<title>Node1&#45;&gt;Node14</title>
<path fill="none" stroke="midnightblue" d="M1072.5,-112.32C1059.09,-103.9 1038.5,-90.97 1022.73,-81.07"/>
<polygon fill="midnightblue" stroke="midnightblue" points="1024.43,-78.01 1014.1,-75.65 1020.71,-83.94 1024.43,-78.01"/>
</g>
<!-- Node15 -->
<g id="node15" class="node">
<title>Node15</title>
<g id="a_node15"><a xlink:title=" ">
<polygon fill="none" stroke="#bfbfbf" points="1092.82,-56.5 1092.82,-75.5 1253.82,-75.5 1253.82,-56.5 1092.82,-56.5"/>
<text text-anchor="middle" x="1173.32" y="-63.5" font-family="Helvetica,sans-Serif" font-size="10.00">boost/beast/http/empty_body.hpp</text>
</a>
</g>
</g>
<!-- Node1&#45;&gt;Node15 -->
<g id="edge22" class="edge">
<title>Node1&#45;&gt;Node15</title>
<path fill="none" stroke="midnightblue" d="M1100.3,-112.32C1113.87,-103.9 1134.7,-90.97 1150.64,-81.07"/>
<polygon fill="midnightblue" stroke="midnightblue" points="1152.73,-83.9 1159.38,-75.65 1149.03,-77.95 1152.73,-83.9"/>
</g>
<!-- Node16 -->
<g id="node16" class="node">
<title>Node16</title>
<g id="a_node16"><a xlink:title=" ">
<polygon fill="none" stroke="#bfbfbf" points="1271.82,-56.5 1271.82,-75.5 1460.82,-75.5 1460.82,-56.5 1271.82,-56.5"/>
<text text-anchor="middle" x="1366.32" y="-63.5" font-family="Helvetica,sans-Serif" font-size="10.00">boost/algorithm/string/classification.hpp</text>
</a>
</g>
</g>
<!-- Node1&#45;&gt;Node16 -->
<g id="edge23" class="edge">
<title>Node1&#45;&gt;Node16</title>
<path fill="none" stroke="midnightblue" d="M1130.69,-112.44C1179.94,-102.94 1259.45,-87.61 1312.29,-77.42"/>
<polygon fill="midnightblue" stroke="midnightblue" points="1313,-80.85 1322.16,-75.52 1311.68,-73.97 1313,-80.85"/>
</g>
<!-- Node17 -->
<g id="node17" class="node">
<title>Node17</title>
<g id="a_node17"><a xlink:title=" ">
<polygon fill="none" stroke="#bfbfbf" points="1478.82,-56.5 1478.82,-75.5 1653.82,-75.5 1653.82,-56.5 1478.82,-56.5"/>
<text text-anchor="middle" x="1566.32" y="-63.5" font-family="Helvetica,sans-Serif" font-size="10.00">boost/algorithm/string/constants.hpp</text>
</a>
</g>
</g>
<!-- Node1&#45;&gt;Node17 -->
<g id="edge24" class="edge">
<title>Node1&#45;&gt;Node17</title>
<path fill="none" stroke="midnightblue" d="M1147.11,-114.16C1231.53,-104.66 1384.69,-87.43 1480.66,-76.64"/>
<polygon fill="midnightblue" stroke="midnightblue" points="1481.09,-80.11 1490.63,-75.51 1480.3,-73.15 1481.09,-80.11"/>
</g>
<!-- Node18 -->
<g id="node18" class="node">
<title>Node18</title>
<g id="a_node18"><a xlink:title=" ">
<polygon fill="none" stroke="#bfbfbf" points="1672.32,-56.5 1672.32,-75.5 1822.32,-75.5 1822.32,-56.5 1672.32,-56.5"/>
<text text-anchor="middle" x="1747.32" y="-63.5" font-family="Helvetica,sans-Serif" font-size="10.00">boost/algorithm/string/split.hpp</text>
</a>
</g>
</g>
<!-- Node1&#45;&gt;Node18 -->
<g id="edge25" class="edge">
<title>Node1&#45;&gt;Node18</title>
<path fill="none" stroke="midnightblue" d="M1147.01,-116.85C1250.42,-109.64 1467.64,-93.96 1662.1,-76.09"/>
<polygon fill="midnightblue" stroke="midnightblue" points="1662.59,-79.56 1672.22,-75.15 1661.94,-72.59 1662.59,-79.56"/>
</g>
<!-- Node19 -->
<g id="node19" class="node">
<title>Node19</title>
<g id="a_node19"><a xlink:title=" ">
<polygon fill="none" stroke="#bfbfbf" points="1839.82,-56.5 1839.82,-75.5 1988.82,-75.5 1988.82,-56.5 1839.82,-56.5"/>
<text text-anchor="middle" x="1914.32" y="-63.5" font-family="Helvetica,sans-Serif" font-size="10.00">boost/algorithm/string/trim.hpp</text>
</a>
</g>
</g>
<!-- Node1&#45;&gt;Node19 -->
<g id="edge26" class="edge">
<title>Node1&#45;&gt;Node19</title>
<path fill="none" stroke="midnightblue" d="M1147.23,-118.31C1272.83,-112.54 1569.93,-97.79 1829.68,-76.1"/>
<polygon fill="midnightblue" stroke="midnightblue" points="1830.01,-79.59 1839.68,-75.26 1829.42,-72.61 1830.01,-79.59"/>
</g>
<!-- Node20 -->
<g id="node20" class="node">
<title>Node20</title>
<g id="a_node20"><a xlink:title=" ">
<polygon fill="none" stroke="#bfbfbf" points="2007.32,-56.5 2007.32,-75.5 2179.32,-75.5 2179.32,-56.5 2007.32,-56.5"/>
<text text-anchor="middle" x="2093.32" y="-63.5" font-family="Helvetica,sans-Serif" font-size="10.00">boost/beast/websocket/rfc6455.hpp</text>
</a>
</g>
</g>
<!-- Node1&#45;&gt;Node20 -->
<g id="edge27" class="edge">
<title>Node1&#45;&gt;Node20</title>
<path fill="none" stroke="midnightblue" d="M1146.94,-118.96C1291.87,-113.86 1670.07,-99.37 1996.98,-76.06"/>
<polygon fill="midnightblue" stroke="midnightblue" points="1997.4,-79.54 2007.12,-75.34 1996.9,-72.56 1997.4,-79.54"/>
</g>
<!-- Node21 -->
<g id="node21" class="node">
<title>Node21</title>
<g id="a_node21"><a xlink:title=" ">
<polygon fill="none" stroke="#bfbfbf" points="2197.32,-56.5 2197.32,-75.5 2311.32,-75.5 2311.32,-56.5 2197.32,-56.5"/>
<text text-anchor="middle" x="2254.32" y="-63.5" font-family="Helvetica,sans-Serif" font-size="10.00">boost/lexical_cast.hpp</text>
</a>
</g>
</g>
<!-- Node1&#45;&gt;Node21 -->
<g id="edge28" class="edge">
<title>Node1&#45;&gt;Node21</title>
<path fill="none" stroke="midnightblue" d="M1147.08,-120.54C1312.4,-118.84 1784.38,-111.14 2187.02,-76.02"/>
<polygon fill="midnightblue" stroke="midnightblue" points="2187.46,-79.5 2197.12,-75.14 2186.85,-72.53 2187.46,-79.5"/>
</g>
<!-- Node22 -->
<g id="node22" class="node">
<title>Node22</title>
<g id="a_node22"><a xlink:title=" ">
<polygon fill="none" stroke="#bfbfbf" points="2329.82,-56.5 2329.82,-75.5 2412.82,-75.5 2412.82,-56.5 2329.82,-56.5"/>
<text text-anchor="middle" x="2371.32" y="-63.5" font-family="Helvetica,sans-Serif" font-size="10.00">unordered_map</text>
</a>
</g>
</g>
<!-- Node1&#45;&gt;Node22 -->
<g id="edge32" class="edge">
<title>Node1&#45;&gt;Node22</title>
<path fill="none" stroke="midnightblue" d="M1147.03,-119.9C1359.41,-115.87 2069.11,-100.94 2319.49,-75.89"/>
<polygon fill="midnightblue" stroke="midnightblue" points="2320.05,-79.35 2329.64,-74.84 2319.33,-72.39 2320.05,-79.35"/>
</g>
<!-- Node23 -->
<g id="node23" class="node">
<title>Node23</title>
<g id="a_node23"><a xlink:title=" ">
<polygon fill="none" stroke="#bfbfbf" points="2430.82,-56.5 2430.82,-75.5 2473.82,-75.5 2473.82,-56.5 2430.82,-56.5"/>
<text text-anchor="middle" x="2452.32" y="-63.5" font-family="Helvetica,sans-Serif" font-size="10.00">deque</text>
</a>
</g>
</g>
<!-- Node1&#45;&gt;Node23 -->
<g id="edge33" class="edge">
<title>Node1&#45;&gt;Node23</title>
<path fill="none" stroke="midnightblue" d="M1147.04,-121.03C1371.05,-120.82 2151.67,-117.18 2420.41,-75.86"/>
<polygon fill="midnightblue" stroke="midnightblue" points="2421.19,-79.28 2430.52,-74.25 2420.09,-72.37 2421.19,-79.28"/>
</g>
<!-- Node2&#45;&gt;Node3 -->
<g id="edge2" class="edge">
<title>Node2&#45;&gt;Node3</title>
<path fill="none" stroke="midnightblue" d="M107.07,-56.08C114.79,-48.22 126.22,-36.57 135.54,-27.08"/>
<polygon fill="midnightblue" stroke="midnightblue" points="138.22,-29.34 142.73,-19.75 133.23,-24.44 138.22,-29.34"/>
</g>
<!-- Node2&#45;&gt;Node4 -->
<g id="edge3" class="edge">
<title>Node2&#45;&gt;Node4</title>
<path fill="none" stroke="midnightblue" d="M147.44,-56.44C212.1,-45.18 323.86,-25.71 377.65,-16.34"/>
<polygon fill="midnightblue" stroke="midnightblue" points="378.35,-19.77 387.6,-14.61 377.15,-12.88 378.35,-19.77"/>
</g>
<!-- Node5 -->
<g id="node5" class="node">
<title>Node5</title>
<g id="a_node5"><a xlink:title=" ">
<polygon fill="none" stroke="#bfbfbf" points="246.32,-0.5 246.32,-19.5 312.32,-19.5 312.32,-0.5 246.32,-0.5"/>
<text text-anchor="middle" x="279.32" y="-7.5" font-family="Helvetica,sans-Serif" font-size="10.00">string_view</text>
</a>
</g>
</g>
<!-- Node2&#45;&gt;Node5 -->
<g id="edge4" class="edge">
<title>Node2&#45;&gt;Node5</title>
<path fill="none" stroke="midnightblue" d="M127,-56.44C157.85,-47.24 207.05,-32.56 241.15,-22.39"/>
<polygon fill="midnightblue" stroke="midnightblue" points="242.19,-25.73 250.77,-19.52 240.19,-19.02 242.19,-25.73"/>
</g>
<!-- Node6&#45;&gt;Node3 -->
<g id="edge6" class="edge">
<title>Node6&#45;&gt;Node3</title>
<path fill="none" stroke="midnightblue" d="M259.04,-56.44C237.97,-47.56 204.8,-33.56 180.83,-23.45"/>
<polygon fill="midnightblue" stroke="midnightblue" points="182.08,-20.18 171.51,-19.52 179.36,-26.63 182.08,-20.18"/>
</g>
<!-- Node6&#45;&gt;Node4 -->
<g id="edge7" class="edge">
<title>Node6&#45;&gt;Node4</title>
<path fill="none" stroke="midnightblue" d="M299.76,-56.44C320.99,-47.56 354.42,-33.56 378.57,-23.45"/>
<polygon fill="midnightblue" stroke="midnightblue" points="380.1,-26.61 387.97,-19.52 377.4,-20.15 380.1,-26.61"/>
</g>
<!-- Node6&#45;&gt;Node5 -->
<g id="edge8" class="edge">
<title>Node6&#45;&gt;Node5</title>
<path fill="none" stroke="midnightblue" d="M279.32,-56.08C279.32,-49.01 279.32,-38.86 279.32,-29.99"/>
<polygon fill="midnightblue" stroke="midnightblue" points="282.82,-29.75 279.32,-19.75 275.82,-29.75 282.82,-29.75"/>
</g>
<!-- Node7&#45;&gt;Node4 -->
<g id="edge11" class="edge">
<title>Node7&#45;&gt;Node4</title>
<path fill="none" stroke="midnightblue" d="M597.67,-56.44C553.8,-45.92 480.08,-28.22 438.75,-18.3"/>
<polygon fill="midnightblue" stroke="midnightblue" points="439.52,-14.89 428.98,-15.96 437.89,-21.7 439.52,-14.89"/>
</g>
<!-- Node7&#45;&gt;Node5 -->
<g id="edge12" class="edge">
<title>Node7&#45;&gt;Node5</title>
<path fill="none" stroke="midnightblue" d="M577.23,-56.44C506.68,-45.68 387.05,-27.43 322.95,-17.66"/>
<polygon fill="midnightblue" stroke="midnightblue" points="323.19,-14.15 312.78,-16.1 322.14,-21.07 323.19,-14.15"/>
</g>
<!-- Node8 -->
<g id="node8" class="node">
<title>Node8</title>
<g id="a_node8"><a xlink:title=" ">
<polygon fill="none" stroke="#bfbfbf" points="662.32,-0.5 662.32,-19.5 708.32,-19.5 708.32,-0.5 662.32,-0.5"/>
<text text-anchor="middle" x="685.32" y="-7.5" font-family="Helvetica,sans-Serif" font-size="10.00">variant</text>
</a>
</g>
</g>
<!-- Node7&#45;&gt;Node8 -->
<g id="edge10" class="edge">
<title>Node7&#45;&gt;Node8</title>
<path fill="none" stroke="midnightblue" d="M641.91,-56.08C649.48,-48.22 660.7,-36.57 669.83,-27.08"/>
<polygon fill="midnightblue" stroke="midnightblue" points="672.48,-29.38 676.89,-19.75 667.43,-24.53 672.48,-29.38"/>
</g>
<!-- Node9 -->
<g id="node9" class="node">
<title>Node9</title>
<g id="a_node9"><a xlink:title=" ">
<polygon fill="none" stroke="#bfbfbf" points="518.32,-0.5 518.32,-19.5 644.32,-19.5 644.32,-0.5 518.32,-0.5"/>
<text text-anchor="middle" x="581.32" y="-7.5" font-family="Helvetica,sans-Serif" font-size="10.00">boost/describe/enum.hpp</text>
</a>
</g>
</g>
<!-- Node7&#45;&gt;Node9 -->
<g id="edge13" class="edge">
<title>Node7&#45;&gt;Node9</title>
<path fill="none" stroke="midnightblue" d="M624.73,-56.08C617.16,-48.22 605.94,-36.57 596.8,-27.08"/>
<polygon fill="midnightblue" stroke="midnightblue" points="599.2,-24.53 589.75,-19.75 594.16,-29.38 599.2,-24.53"/>
</g>
<!-- Node10&#45;&gt;Node3 -->
<g id="edge18" class="edge">
<title>Node10&#45;&gt;Node3</title>
<path fill="none" stroke="midnightblue" d="M736.15,-56.98C732.82,-56.63 729.53,-56.31 726.32,-56 509.38,-35.35 454.38,-39.34 237.32,-20 220.67,-18.52 202.25,-16.62 186.73,-14.95"/>
<polygon fill="midnightblue" stroke="midnightblue" points="186.83,-11.44 176.51,-13.84 186.08,-18.4 186.83,-11.44"/>
</g>
<!-- Node10&#45;&gt;Node4 -->
<g id="edge16" class="edge">
<title>Node10&#45;&gt;Node4</title>
<path fill="none" stroke="midnightblue" d="M740.73,-56.44C654.8,-44.7 503.6,-24.03 438.99,-15.19"/>
<polygon fill="midnightblue" stroke="midnightblue" points="439.42,-11.72 429.04,-13.83 438.47,-18.65 439.42,-11.72"/>
</g>
<!-- Node11 -->
<g id="node11" class="node">
<title>Node11</title>
<g id="a_node11"><a xlink:title=" ">
<polygon fill="none" stroke="#bfbfbf" points="780.32,-0.5 780.32,-19.5 826.32,-19.5 826.32,-0.5 780.32,-0.5"/>
<text text-anchor="middle" x="803.32" y="-7.5" font-family="Helvetica,sans-Serif" font-size="10.00">cstdint</text>
</a>
</g>
</g>
<!-- Node10&#45;&gt;Node11 -->
<g id="edge15" class="edge">
<title>Node10&#45;&gt;Node11</title>
<path fill="none" stroke="midnightblue" d="M803.32,-56.08C803.32,-49.01 803.32,-38.86 803.32,-29.99"/>
<polygon fill="midnightblue" stroke="midnightblue" points="806.82,-29.75 803.32,-19.75 799.82,-29.75 806.82,-29.75"/>
</g>
<!-- Node10&#45;&gt;Node12 -->
<g id="edge17" class="edge">
<title>Node10&#45;&gt;Node12</title>
<path fill="none" stroke="midnightblue" d="M816.01,-56.32C828.22,-47.98 846.9,-35.21 861.32,-25.35"/>
<polygon fill="midnightblue" stroke="midnightblue" points="863.38,-28.19 869.66,-19.65 859.43,-22.41 863.38,-28.19"/>
</g>
<!-- Node13&#45;&gt;Node4 -->
<g id="edge20" class="edge">
<title>Node13&#45;&gt;Node4</title>
<path fill="none" stroke="midnightblue" d="M463.72,-56.32C453.86,-48.26 438.97,-36.08 427.1,-26.37"/>
<polygon fill="midnightblue" stroke="midnightblue" points="429.07,-23.46 419.12,-19.83 424.64,-28.88 429.07,-23.46"/>
</g>
</g>
</svg>
        <g id="navigator" transform="translate(0 0)" fill="#404254">
                <rect fill="#f2f5e9" fill-opacity="0.5" stroke="#606060" stroke-width=".5" x="0" y="0" width="60" height="60"/>
                <use id="zoomplus" xlink:href="#zoomPlus" x="17" y="9" onmousedown="handleZoom(evt,'in')"/>
                <use id="zoomminus" xlink:href="#zoomMin" x="42" y="9" onmousedown="handleZoom(evt,'out')"/>
                <use id="reset" xlink:href="#resetDef" x="30" y="36" onmousedown="handleReset()"/>
                <g id="arrowUp" xlink:href="#dirArrow" transform="translate(30 24)" onmousedown="handlePan(0,-1)">
                  <use xlink:href="#rim" fill="#404040">
                        <set attributeName="fill" to="#808080" begin="arrowUp.mouseover" end="arrowUp.mouseout"/>
                  </use>
                  <path fill="none" stroke="white" stroke-width="1.5" d="M0,-3.0v7 M-2.5,-0.5L0,-3.0L2.5,-0.5"/>
                </g>
                <g id="arrowRight" xlink:href="#dirArrow" transform="rotate(90) translate(36 -43)" onmousedown="handlePan(1,0)">
                  <use xlink:href="#rim" fill="#404040">
                        <set attributeName="fill" to="#808080" begin="arrowRight.mouseover" end="arrowRight.mouseout"/>
                  </use>
                  <path fill="none" stroke="white" stroke-width="1.5" d="M0,-3.0v7 M-2.5,-0.5L0,-3.0L2.5,-0.5"/>
                </g>
                <g id="arrowDown" xlink:href="#dirArrow" transform="rotate(180) translate(-30 -48)" onmousedown="handlePan(0,1)">
                  <use xlink:href="#rim" fill="#404040">
                        <set attributeName="fill" to="#808080" begin="arrowDown.mouseover" end="arrowDown.mouseout"/>
                  </use>
                  <path fill="none" stroke="white" stroke-width="1.5" d="M0,-3.0v7 M-2.5,-0.5L0,-3.0L2.5,-0.5"/>
                </g>
                <g id="arrowLeft" xlink:href="#dirArrow" transform="rotate(270) translate(-36 17)" onmousedown="handlePan(-1,0)">
                  <use xlink:href="#rim" fill="#404040">
                        <set attributeName="fill" to="#808080" begin="arrowLeft.mouseover" end="arrowLeft.mouseout"/>
                  </use>
                  <path fill="none" stroke="white" stroke-width="1.5" d="M0,-3.0v7 M-2.5,-0.5L0,-3.0L2.5,-0.5"/>
                </g>
        </g>
        <svg viewBox="0 0 15 15" width="100%" height="30px" preserveAspectRatio="xMaxYMin meet">
         <g id="arrow_out" transform="scale(0.3 0.3)">
          <a xlink:href="request_8hpp__incl_org.svg" target="_base">
           <rect id="button" ry="5" rx="5" y="6" x="6" height="38" width="38"
                fill="#f2f5e9" fill-opacity="0.5" stroke="#606060" stroke-width="1.0"/>
           <path id="arrow"
             d="M 11.500037,31.436501 C 11.940474,20.09759 22.043105,11.32322 32.158766,21.979434 L 37.068811,17.246167 C 37.068811,17.246167 37.088388,32 37.088388,32 L 22.160133,31.978069 C 22.160133,31.978069 26.997745,27.140456 26.997745,27.140456 C 18.528582,18.264221 13.291696,25.230495 11.500037,31.436501 z"
             style="fill:#404040;"/>
          </a>
         </g>
        </svg>
</svg>
