<?xml version="1.0" encoding="UTF-8" standalone="no"?>
<!DOCTYPE svg PUBLIC "-//W3C//DTD SVG 1.1//EN"
 "http://www.w3.org/Graphics/SVG/1.1/DTD/svg11.dtd">
<!-- Generated by graphviz version 8.1.0 (0)
 -->
<!-- Title: include/roar/request.hpp Pages: 1 -->
<!--zoomable 196 -->

<svg id="main" version="1.1" xmlns="http://www.w3.org/2000/svg" xmlns:xlink="http://www.w3.org/1999/xlink" xml:space="preserve" onload="init(evt)">
<style type="text/css"><![CDATA[
.node, .edge {opacity: 0.7;}
.node.selected, .edge.selected {opacity: 1;}
.edge:hover path { stroke: red; }
.edge:hover polygon { stroke: red; fill: red; }
]]></style>

<defs>
  <circle id="rim" cx="0" cy="0" r="7"/>
  <circle id="rim2" cx="0" cy="0" r="3.5"/>
  <g id="zoomPlus">
    <use xlink:href="#rim" fill="#404040"><set attributeName="fill" to="#808080" begin="zoomplus.mouseover" end="zoomplus.mouseout"/></use>
    <path d="M-4,0h8M0,-4v8" fill="none" stroke="white" stroke-width="1.5" pointer-events="none"/>
  </g>
  <g id="zoomMin">
    <use xlink:href="#rim" fill="#404040"><set attributeName="fill" to="#808080" begin="zoomminus.mouseover" end="zoomminus.mouseout"/></use>
    <path d="M-4,0h8" fill="none" stroke="white" stroke-width="1.5" pointer-events="none"/>
  </g>
  <g id="arrowUp" transform="translate(30 24)">
    <use xlink:href="#rim"/>
    <path pointer-events="none" fill="none" stroke="white" stroke-width="1.5" d="M0,-3.0v7 M-2.5,-0.5L0,-3.0L2.5,-0.5"/>
  </g>
  <g id="arrowRight" transform="rotate(90) translate(36 -43)">
    <use xlink:href="#rim"/>
    <path pointer-events="none" fill="none" stroke="white" stroke-width="1.5" d="M0,-3.0v7 M-2.5,-0.5L0,-3.0L2.5,-0.5"/>
  </g>
  <g id="arrowDown" transform="rotate(180) translate(-30 -48)">
    <use xlink:href="#rim"/>
    <path pointer-events="none" fill="none" stroke="white" stroke-width="1.5" d="M0,-3.0v7 M-2.5,-0.5L0,-3.0L2.5,-0.5"/>
  </g>
  <g id="arrowLeft" transform="rotate(270) translate(-36 17)">
    <use xlink:href="#rim"/>
    <path pointer-events="none" fill="none" stroke="white" stroke-width="1.5" d="M0,-3.0v7 M-2.5,-0.5L0,-3.0L2.5,-0.5"/>
  </g>
  <g id="resetDef">
    <use xlink:href="#rim2" fill="#404040"><set attributeName="fill" to="#808080" begin="reset.mouseover" end="reset.mouseout"/></use>
  </g>
</defs>
<script type="application/ecmascript">
var viewWidth = 2716;
var viewHeight = 196;
var sectionId = 'dynsection-0';
</script>
<script type="application/ecmascript" xlink:href="svg.min.js"/>
<svg id="graph" class="graph">
<g id="viewport">
<title>include/roar/request.hpp</title>
<!-- Node1 -->
<g id="Node000001" class="node">
<title>Node1</title>
<g id="a_Node000001"><a xlink:title=" ">
<polygon fill="#999999" stroke="#666666" points="1299.5,-188 1179.25,-188 1179.25,-168 1299.5,-168 1299.5,-188"/>
<text text-anchor="middle" x="1239.38" y="-174.5" font-family="Helvetica,sans-Serif" font-size="10.00">include/roar/request.hpp</text>
</a>
</g>
</g>
<!-- Node2 -->
<g id="Node000002" class="node">
<title>Node2</title>
<g id="a_Node000002"><a xlink:href="cookie_8hpp.html" target="_top" xlink:title=" ">
<polygon fill="white" stroke="#666666" points="307.88,-132 174.88,-132 174.88,-112 307.88,-112 307.88,-132"/>
<text text-anchor="middle" x="241.38" y="-118.5" font-family="Helvetica,sans-Serif" font-size="10.00">roar/mechanics/cookie.hpp</text>
</a>
</g>
</g>
<!-- Node1&#45;&gt;Node2 -->
<g id="edge1_Node000001_Node000002" class="edge">
<title>Node1&#45;&gt;Node2</title>
<g id="a_edge1_Node000001_Node000002"><a xlink:title=" ">
<path fill="none" stroke="#63b8ff" d="M1178.8,-175.53C1032.72,-171.66 649.26,-159.61 318.75,-132.14"/>
<polygon fill="#63b8ff" stroke="#63b8ff" points="319.26,-128.59 309.01,-131.24 318.68,-135.57 319.26,-128.59"/>
</a>
</g>
</g>
<!-- Node4 -->
<g id="Node000004" class="node">
<title>Node4</title>
<g id="a_Node000004"><a xlink:title=" ">
<polygon fill="#e0e0e0" stroke="#999999" points="702.38,-20 662.38,-20 662.38,0 702.38,0 702.38,-20"/>
<text text-anchor="middle" x="682.38" y="-6.5" font-family="Helvetica,sans-Serif" font-size="10.00">string</text>
</a>
</g>
</g>
<!-- Node1&#45;&gt;Node4 -->
<g id="edge40_Node000001_Node000004" class="edge">
<title>Node1&#45;&gt;Node4</title>
<g id="a_edge40_Node000001_Node000004"><a xlink:title=" ">
<path fill="none" stroke="#63b8ff" d="M1239.07,-167.6C1237.73,-143.95 1230.57,-81.99 1192.38,-56 1152.76,-29.04 817.94,-15.57 713.42,-11.99"/>
<polygon fill="#63b8ff" stroke="#63b8ff" points="713.77,-8.47 703.66,-11.63 713.54,-15.46 713.77,-8.47"/>
</a>
</g>
</g>
<!-- Node7 -->
<g id="Node000007" class="node">
<title>Node7</title>
<g id="a_Node000007"><a xlink:title=" ">
<polygon fill="#e0e0e0" stroke="#999999" points="82.75,-76 0,-76 0,-56 82.75,-56 82.75,-76"/>
<text text-anchor="middle" x="41.38" y="-62.5" font-family="Helvetica,sans-Serif" font-size="10.00">unordered_map</text>
</a>
</g>
</g>
<!-- Node1&#45;&gt;Node7 -->
<g id="edge42_Node000001_Node000007" class="edge">
<title>Node1&#45;&gt;Node7</title>
<g id="a_edge42_Node000001_Node000007"><a xlink:title=" ">
<path fill="none" stroke="#63b8ff" d="M1179,-176.01C966.86,-172.33 263.15,-158.26 165.38,-132 127,-121.69 87.07,-98.05 63.22,-82.3"/>
<polygon fill="#63b8ff" stroke="#63b8ff" points="65.57,-78.99 55.32,-76.29 61.66,-84.79 65.57,-78.99"/>
</a>
</g>
</g>
<!-- Node9 -->
<g id="Node000009" class="node">
<title>Node9</title>
<g id="a_Node000009"><a xlink:title=" ">
<polygon fill="#e0e0e0" stroke="#999999" points="514.88,-76 471.88,-76 471.88,-56 514.88,-56 514.88,-76"/>
<text text-anchor="middle" x="493.38" y="-62.5" font-family="Helvetica,sans-Serif" font-size="10.00">vector</text>
</a>
</g>
</g>
<!-- Node1&#45;&gt;Node9 -->
<g id="edge41_Node000001_Node000009" class="edge">
<title>Node1&#45;&gt;Node9</title>
<g id="a_edge41_Node000001_Node000009"><a xlink:title=" ">
<path fill="none" stroke="#63b8ff" d="M1178.81,-177.44C1012.27,-178.07 556.51,-175.74 506.38,-132 493.78,-121.02 491.29,-101.58 491.5,-86.82"/>
<polygon fill="#63b8ff" stroke="#63b8ff" points="495.02,-87.41 492.1,-77.23 488.04,-87.02 495.02,-87.41"/>
</a>
</g>
</g>
<!-- Node10 -->
<g id="Node000010" class="node">
<title>Node10</title>
<g id="a_Node000010"><a xlink:href="basic__auth_8hpp.html" target="_top" xlink:title=" ">
<polygon fill="white" stroke="#666666" points="843.38,-132 683.38,-132 683.38,-112 843.38,-112 843.38,-132"/>
<text text-anchor="middle" x="763.38" y="-118.5" font-family="Helvetica,sans-Serif" font-size="10.00">roar/authorization/basic_auth.hpp</text>
</a>
</g>
</g>
<!-- Node1&#45;&gt;Node10 -->
<g id="edge10_Node000001_Node000010" class="edge">
<title>Node1&#45;&gt;Node10</title>
<g id="a_edge10_Node000001_Node000010"><a xlink:title=" ">
<path fill="none" stroke="#63b8ff" d="M1179.09,-170.16C1097.19,-160.87 950.06,-144.18 854.6,-133.35"/>
<polygon fill="#63b8ff" stroke="#63b8ff" points="855.13,-129.77 844.8,-132.12 854.34,-136.73 855.13,-129.77"/>
</a>
</g>
</g>
<!-- Node11 -->
<g id="Node000011" class="node">
<title>Node11</title>
<g id="a_Node000011"><a xlink:title=" ">
<polygon fill="#e0e0e0" stroke="#999999" points="694.25,-76 644.5,-76 644.5,-56 694.25,-56 694.25,-76"/>
<text text-anchor="middle" x="669.38" y="-62.5" font-family="Helvetica,sans-Serif" font-size="10.00">optional</text>
</a>
</g>
</g>
<!-- Node1&#45;&gt;Node11 -->
<g id="edge39_Node000001_Node000011" class="edge">
<title>Node1&#45;&gt;Node11</title>
<g id="a_edge39_Node000001_Node000011"><a xlink:title=" ">
<path fill="none" stroke="#63b8ff" d="M1178.99,-176.53C1040.55,-174.85 709.44,-167.16 674.38,-132 662.9,-120.49 662.72,-101.44 664.78,-86.93"/>
<polygon fill="#63b8ff" stroke="#63b8ff" points="668.34,-87.97 666.74,-77.5 661.46,-86.68 668.34,-87.97"/>
</a>
</g>
</g>
<!-- Node13 -->
<g id="Node000013" class="node">
<title>Node13</title>
<g id="a_Node000013"><a xlink:href="digest__auth_8hpp.html" target="_top" xlink:title=" ">
<polygon fill="white" stroke="#666666" points="1024.88,-132 861.88,-132 861.88,-112 1024.88,-112 1024.88,-132"/>
<text text-anchor="middle" x="943.38" y="-118.5" font-family="Helvetica,sans-Serif" font-size="10.00">roar/authorization/digest_auth.hpp</text>
</a>
</g>
</g>
<!-- Node1&#45;&gt;Node13 -->
<g id="edge14_Node000001_Node000013" class="edge">
<title>Node1&#45;&gt;Node13</title>
<g id="a_edge14_Node000001_Node000013"><a xlink:title=" ">
<path fill="none" stroke="#63b8ff" d="M1187.48,-167.53C1136.91,-158.31 1059.97,-144.27 1006.02,-134.43"/>
<polygon fill="#63b8ff" stroke="#63b8ff" points="1006.68,-130.81 996.21,-132.46 1005.42,-137.69 1006.68,-130.81"/>
</a>
</g>
</g>
<!-- Node14 -->
<g id="Node000014" class="node">
<title>Node14</title>
<g id="a_Node000014"><a xlink:href="authorization_8hpp.html" target="_top" xlink:title=" ">
<polygon fill="white" stroke="#666666" points="1211.5,-132 1043.25,-132 1043.25,-112 1211.5,-112 1211.5,-132"/>
<text text-anchor="middle" x="1127.38" y="-118.5" font-family="Helvetica,sans-Serif" font-size="10.00">roar/authorization/authorization.hpp</text>
</a>
</g>
</g>
<!-- Node1&#45;&gt;Node14 -->
<g id="edge18_Node000001_Node000014" class="edge">
<title>Node1&#45;&gt;Node14</title>
<g id="a_edge18_Node000001_Node000014"><a xlink:title=" ">
<path fill="none" stroke="#63b8ff" d="M1219.87,-167.59C1202.47,-159.21 1176.74,-146.8 1156.84,-137.21"/>
<polygon fill="#63b8ff" stroke="#63b8ff" points="1158.56,-133.67 1148.04,-132.48 1155.52,-139.98 1158.56,-133.67"/>
</a>
</g>
</g>
<!-- Node17 -->
<g id="Node000017" class="node">
<title>Node17</title>
<g id="a_Node000017"><a xlink:href="ranges_8hpp.html" target="_top" xlink:title=" ">
<polygon fill="white" stroke="#666666" points="459.25,-132 325.5,-132 325.5,-112 459.25,-112 459.25,-132"/>
<text text-anchor="middle" x="392.38" y="-118.5" font-family="Helvetica,sans-Serif" font-size="10.00">roar/mechanics/ranges.hpp</text>
</a>
</g>
</g>
<!-- Node1&#45;&gt;Node17 -->
<g id="edge23_Node000001_Node000017" class="edge">
<title>Node1&#45;&gt;Node17</title>
<g id="a_edge23_Node000001_Node000017"><a xlink:title=" ">
<path fill="none" stroke="#63b8ff" d="M1179.22,-174.53C1049.9,-168.99 735.86,-154.28 473.38,-132 472.39,-131.92 471.39,-131.83 470.4,-131.74"/>
<polygon fill="#63b8ff" stroke="#63b8ff" points="470.81,-128.17 460.53,-130.73 470.17,-135.14 470.81,-128.17"/>
</a>
</g>
</g>
<!-- Node18 -->
<g id="Node000018" class="node">
<title>Node18</title>
<g id="a_Node000018"><a xlink:href="base64_8hpp.html" target="_top" xlink:title=" ">
<polygon fill="white" stroke="#666666" points="627.38,-132 515.38,-132 515.38,-112 627.38,-112 627.38,-132"/>
<text text-anchor="middle" x="571.38" y="-118.5" font-family="Helvetica,sans-Serif" font-size="10.00">roar/utility/base64.hpp</text>
</a>
</g>
</g>
<!-- Node1&#45;&gt;Node18 -->
<g id="edge28_Node000001_Node000018" class="edge">
<title>Node1&#45;&gt;Node18</title>
<g id="a_edge28_Node000001_Node000018"><a xlink:title=" ">
<path fill="none" stroke="#63b8ff" d="M1179.02,-173.51C1071.02,-167.04 837.65,-151.99 641.38,-132 640.39,-131.9 639.39,-131.8 638.39,-131.69"/>
<polygon fill="#63b8ff" stroke="#63b8ff" points="638.83,-128.11 628.51,-130.48 638.06,-135.06 638.83,-128.11"/>
</a>
</g>
</g>
<!-- Node19 -->
<g id="Node000019" class="node">
<title>Node19</title>
<g id="a_Node000019"><a xlink:title=" ">
<polygon fill="#e0e0e0" stroke="#999999" points="1415.38,-132 1267.38,-132 1267.38,-112 1415.38,-112 1415.38,-132"/>
<text text-anchor="middle" x="1341.38" y="-118.5" font-family="Helvetica,sans-Serif" font-size="10.00">boost/beast/http/message.hpp</text>
</a>
</g>
</g>
<!-- Node1&#45;&gt;Node19 -->
<g id="edge31_Node000001_Node000019" class="edge">
<title>Node1&#45;&gt;Node19</title>
<g id="a_edge31_Node000001_Node000019"><a xlink:title=" ">
<path fill="none" stroke="#63b8ff" d="M1257.14,-167.59C1272.77,-159.32 1295.77,-147.14 1313.79,-137.6"/>
<polygon fill="#63b8ff" stroke="#63b8ff" points="1315.27,-140.25 1322.47,-132.48 1311.99,-134.07 1315.27,-140.25"/>
</a>
</g>
</g>
<!-- Node20 -->
<g id="Node000020" class="node">
<title>Node20</title>
<g id="a_Node000020"><a xlink:title=" ">
<polygon fill="#e0e0e0" stroke="#999999" points="1593.75,-132 1433,-132 1433,-112 1593.75,-112 1593.75,-132"/>
<text text-anchor="middle" x="1513.38" y="-118.5" font-family="Helvetica,sans-Serif" font-size="10.00">boost/beast/http/empty_body.hpp</text>
</a>
</g>
</g>
<!-- Node1&#45;&gt;Node20 -->
<g id="edge32_Node000001_Node000020" class="edge">
<title>Node1&#45;&gt;Node20</title>
<g id="a_edge32_Node000001_Node000020"><a xlink:title=" ">
<path fill="none" stroke="#63b8ff" d="M1287.42,-167.53C1334.03,-158.35 1404.85,-144.39 1454.76,-134.55"/>
<polygon fill="#63b8ff" stroke="#63b8ff" points="1455.25,-137.82 1464.39,-132.46 1453.9,-130.96 1455.25,-137.82"/>
</a>
</g>
</g>
<!-- Node21 -->
<g id="Node000021" class="node">
<title>Node21</title>
<g id="a_Node000021"><a xlink:title=" ">
<polygon fill="#e0e0e0" stroke="#999999" points="1800.62,-132 1612.12,-132 1612.12,-112 1800.62,-112 1800.62,-132"/>
<text text-anchor="middle" x="1706.38" y="-118.5" font-family="Helvetica,sans-Serif" font-size="10.00">boost/algorithm/string/classification.hpp</text>
</a>
</g>
</g>
<!-- Node1&#45;&gt;Node21 -->
<g id="edge33_Node000001_Node000021" class="edge">
<title>Node1&#45;&gt;Node21</title>
<g id="a_edge33_Node000001_Node000021"><a xlink:title=" ">
<path fill="none" stroke="#63b8ff" d="M1299.95,-170C1379.59,-160.79 1520.31,-144.52 1613.46,-133.74"/>
<polygon fill="#63b8ff" stroke="#63b8ff" points="1613.77,-137.12 1623.3,-132.49 1612.96,-130.16 1613.77,-137.12"/>
</a>
</g>
</g>
<!-- Node22 -->
<g id="Node000022" class="node">
<title>Node22</title>
<g id="a_Node000022"><a xlink:title=" ">
<polygon fill="#e0e0e0" stroke="#999999" points="1992.5,-132 1818.25,-132 1818.25,-112 1992.5,-112 1992.5,-132"/>
<text text-anchor="middle" x="1905.38" y="-118.5" font-family="Helvetica,sans-Serif" font-size="10.00">boost/algorithm/string/constants.hpp</text>
</a>
</g>
</g>
<!-- Node1&#45;&gt;Node22 -->
<g id="edge34_Node000001_Node000022" class="edge">
<title>Node1&#45;&gt;Node22</title>
<g id="a_edge34_Node000001_Node000022"><a xlink:title=" ">
<path fill="none" stroke="#63b8ff" d="M1299.72,-172.53C1401.85,-164.9 1615.57,-148.65 1807.16,-132.18"/>
<polygon fill="#63b8ff" stroke="#63b8ff" points="1807.34,-135.59 1817,-131.25 1806.74,-128.62 1807.34,-135.59"/>
</a>
</g>
</g>
<!-- Node23 -->
<g id="Node000023" class="node">
<title>Node23</title>
<g id="a_Node000023"><a xlink:title=" ">
<polygon fill="#e0e0e0" stroke="#999999" points="2160.12,-132 2010.62,-132 2010.62,-112 2160.12,-112 2160.12,-132"/>
<text text-anchor="middle" x="2085.38" y="-118.5" font-family="Helvetica,sans-Serif" font-size="10.00">boost/algorithm/string/split.hpp</text>
</a>
</g>
</g>
<!-- Node1&#45;&gt;Node23 -->
<g id="edge35_Node000001_Node000023" class="edge">
<title>Node1&#45;&gt;Node23</title>
<g id="a_edge35_Node000001_Node000023"><a xlink:title=" ">
<path fill="none" stroke="#63b8ff" d="M1299.7,-174.42C1426.93,-168.76 1732.35,-154.06 1999.6,-132.11"/>
<polygon fill="#63b8ff" stroke="#63b8ff" points="1999.61,-135.54 2009.29,-131.22 1999.03,-128.56 1999.61,-135.54"/>
</a>
</g>
</g>
<!-- Node24 -->
<g id="Node000024" class="node">
<title>Node24</title>
<g id="a_Node000024"><a xlink:title=" ">
<polygon fill="#e0e0e0" stroke="#999999" points="2326.38,-132 2178.38,-132 2178.38,-112 2326.38,-112 2326.38,-132"/>
<text text-anchor="middle" x="2252.38" y="-118.5" font-family="Helvetica,sans-Serif" font-size="10.00">boost/algorithm/string/trim.hpp</text>
</a>
</g>
</g>
<!-- Node1&#45;&gt;Node24 -->
<g id="edge36_Node000001_Node000024" class="edge">
<title>Node1&#45;&gt;Node24</title>
<g id="a_edge36_Node000001_Node000024"><a xlink:title=" ">
<path fill="none" stroke="#63b8ff" d="M1299.84,-175.32C1446.57,-170.99 1833.4,-157.94 2167.32,-132.11"/>
<polygon fill="#63b8ff" stroke="#63b8ff" points="2167.49,-135.53 2177.18,-131.27 2166.94,-128.55 2167.49,-135.53"/>
</a>
</g>
</g>
<!-- Node25 -->
<g id="Node000025" class="node">
<title>Node25</title>
<g id="a_Node000025"><a xlink:title=" ">
<polygon fill="#e0e0e0" stroke="#999999" points="2516,-132 2344.75,-132 2344.75,-112 2516,-112 2516,-132"/>
<text text-anchor="middle" x="2430.38" y="-118.5" font-family="Helvetica,sans-Serif" font-size="10.00">boost/beast/websocket/rfc6455.hpp</text>
</a>
</g>
</g>
<!-- Node1&#45;&gt;Node25 -->
<g id="edge37_Node000001_Node000025" class="edge">
<title>Node1&#45;&gt;Node25</title>
<g id="a_edge37_Node000001_Node000025"><a xlink:title=" ">
<path fill="none" stroke="#63b8ff" d="M1299.73,-175.65C1463.86,-171.75 1932.32,-159 2333.48,-132.09"/>
<polygon fill="#63b8ff" stroke="#63b8ff" points="2333.69,-135.52 2343.43,-131.35 2333.22,-128.53 2333.69,-135.52"/>
</a>
</g>
</g>
<!-- Node26 -->
<g id="Node000026" class="node">
<title>Node26</title>
<g id="a_Node000026"><a xlink:title=" ">
<polygon fill="#e0e0e0" stroke="#999999" points="2647.12,-132 2533.62,-132 2533.62,-112 2647.12,-112 2647.12,-132"/>
<text text-anchor="middle" x="2590.38" y="-118.5" font-family="Helvetica,sans-Serif" font-size="10.00">boost/lexical_cast.hpp</text>
</a>
</g>
</g>
<!-- Node1&#45;&gt;Node26 -->
<g id="edge38_Node000001_Node000026" class="edge">
<title>Node1&#45;&gt;Node26</title>
<g id="a_edge38_Node000001_Node000026"><a xlink:title=" ">
<path fill="none" stroke="#63b8ff" d="M1299.77,-177.08C1482.56,-176.87 2046.02,-172.78 2522.46,-132.17"/>
<polygon fill="#63b8ff" stroke="#63b8ff" points="2522.68,-135.58 2532.34,-131.23 2522.08,-128.6 2522.68,-135.58"/>
</a>
</g>
</g>
<!-- Node27 -->
<g id="Node000027" class="node">
<title>Node27</title>
<g id="a_Node000027"><a xlink:title=" ">
<polygon fill="#e0e0e0" stroke="#999999" points="2707.5,-132 2665.25,-132 2665.25,-112 2707.5,-112 2707.5,-132"/>
<text text-anchor="middle" x="2686.38" y="-118.5" font-family="Helvetica,sans-Serif" font-size="10.00">deque</text>
</a>
</g>
</g>
<!-- Node1&#45;&gt;Node27 -->
<g id="edge43_Node000001_Node000027" class="edge">
<title>Node1&#45;&gt;Node27</title>
<g id="a_edge43_Node000001_Node000027"><a xlink:title=" ">
<path fill="none" stroke="#63b8ff" d="M1299.71,-177.17C1531.75,-177.48 2367.56,-175.61 2654.12,-131.88"/>
<polygon fill="#63b8ff" stroke="#63b8ff" points="2654.57,-135.19 2663.9,-130.17 2653.48,-128.28 2654.57,-135.19"/>
</a>
</g>
</g>
<!-- Node3 -->
<g id="Node000003" class="node">
<title>Node3</title>
<g id="a_Node000003"><a xlink:href="date_8hpp.html" target="_top" xlink:title=" ">
<polygon fill="white" stroke="#666666" points="313,-76 213.75,-76 213.75,-56 313,-56 313,-76"/>
<text text-anchor="middle" x="263.38" y="-62.5" font-family="Helvetica,sans-Serif" font-size="10.00">roar/utility/date.hpp</text>
</a>
</g>
</g>
<!-- Node2&#45;&gt;Node3 -->
<g id="edge2_Node000002_Node000003" class="edge">
<title>Node2&#45;&gt;Node3</title>
<g id="a_edge2_Node000002_Node000003"><a xlink:title=" ">
<path fill="none" stroke="#63b8ff" d="M245.21,-111.59C248.05,-104.63 252.01,-94.89 255.52,-86.29"/>
<polygon fill="#63b8ff" stroke="#63b8ff" points="259.06,-87.88 259.59,-77.3 252.57,-85.24 259.06,-87.88"/>
</a>
</g>
</g>
<!-- Node2&#45;&gt;Node4 -->
<g id="edge6_Node000002_Node000004" class="edge">
<title>Node2&#45;&gt;Node4</title>
<g id="a_edge6_Node000002_Node000004"><a xlink:title=" ">
<path fill="none" stroke="#63b8ff" d="M257.98,-111.72C289.41,-94.2 354.96,-57.79 360.38,-56 463.37,-21.94 593.2,-13.66 651.53,-11.64"/>
<polygon fill="#63b8ff" stroke="#63b8ff" points="651.32,-15.12 661.21,-11.32 651.11,-8.13 651.32,-15.12"/>
</a>
</g>
</g>
<!-- Node6 -->
<g id="Node000006" class="node">
<title>Node6</title>
<g id="a_Node000006"><a xlink:title=" ">
<polygon fill="#e0e0e0" stroke="#999999" points="196.12,-76 100.62,-76 100.62,-56 196.12,-56 196.12,-76"/>
<text text-anchor="middle" x="148.38" y="-62.5" font-family="Helvetica,sans-Serif" font-size="10.00">boost/optional.hpp</text>
</a>
</g>
</g>
<!-- Node2&#45;&gt;Node6 -->
<g id="edge5_Node000002_Node000006" class="edge">
<title>Node2&#45;&gt;Node6</title>
<g id="a_edge5_Node000002_Node000006"><a xlink:title=" ">
<path fill="none" stroke="#63b8ff" d="M225.18,-111.59C210.99,-103.36 190.15,-91.26 173.76,-81.74"/>
<polygon fill="#63b8ff" stroke="#63b8ff" points="176.11,-78.47 165.7,-76.48 172.59,-84.53 176.11,-78.47"/>
</a>
</g>
</g>
<!-- Node2&#45;&gt;Node7 -->
<g id="edge7_Node000002_Node000007" class="edge">
<title>Node2&#45;&gt;Node7</title>
<g id="a_edge7_Node000002_Node000007"><a xlink:title=" ">
<path fill="none" stroke="#63b8ff" d="M206.54,-111.59C173.33,-102.63 123.14,-89.08 86.81,-79.27"/>
<polygon fill="#63b8ff" stroke="#63b8ff" points="88.05,-75.71 77.48,-76.48 86.23,-82.47 88.05,-75.71"/>
</a>
</g>
</g>
<!-- Node8 -->
<g id="Node000008" class="node">
<title>Node8</title>
<g id="a_Node000008"><a xlink:title=" ">
<polygon fill="#e0e0e0" stroke="#999999" points="415,-76 369.75,-76 369.75,-56 415,-56 415,-76"/>
<text text-anchor="middle" x="392.38" y="-62.5" font-family="Helvetica,sans-Serif" font-size="10.00">cstdint</text>
</a>
</g>
</g>
<!-- Node2&#45;&gt;Node8 -->
<g id="edge8_Node000002_Node000008" class="edge">
<title>Node2&#45;&gt;Node8</title>
<g id="a_edge8_Node000002_Node000008"><a xlink:title=" ">
<path fill="none" stroke="#63b8ff" d="M267.68,-111.59C293.04,-102.52 331.52,-88.76 359.02,-78.93"/>
<polygon fill="#63b8ff" stroke="#63b8ff" points="360.1,-81.9 368.34,-75.24 357.74,-75.31 360.1,-81.9"/>
</a>
</g>
</g>
<!-- Node2&#45;&gt;Node9 -->
<g id="edge9_Node000002_Node000009" class="edge">
<title>Node2&#45;&gt;Node9</title>
<g id="a_edge9_Node000002_Node000009"><a xlink:title=" ">
<path fill="none" stroke="#63b8ff" d="M285.56,-111.53C335.66,-100.8 416.16,-83.55 460.84,-73.97"/>
<polygon fill="#63b8ff" stroke="#63b8ff" points="461.35,-77.23 470.39,-71.71 459.88,-70.38 461.35,-77.23"/>
</a>
</g>
</g>
<!-- Node3&#45;&gt;Node4 -->
<g id="edge3_Node000003_Node000004" class="edge">
<title>Node3&#45;&gt;Node4</title>
<g id="a_edge3_Node000003_Node000004"><a xlink:title=" ">
<path fill="none" stroke="#63b8ff" d="M313.33,-57.91C318.07,-57.25 322.82,-56.61 327.38,-56 447.08,-40 589.7,-22.35 651.4,-14.78"/>
<polygon fill="#63b8ff" stroke="#63b8ff" points="651.45,-18.18 660.95,-13.49 650.6,-11.23 651.45,-18.18"/>
</a>
</g>
</g>
<!-- Node5 -->
<g id="Node000005" class="node">
<title>Node5</title>
<g id="a_Node000005"><a xlink:title=" ">
<polygon fill="#e0e0e0" stroke="#999999" points="286,-20 240.75,-20 240.75,0 286,0 286,-20"/>
<text text-anchor="middle" x="263.38" y="-6.5" font-family="Helvetica,sans-Serif" font-size="10.00">chrono</text>
</a>
</g>
</g>
<!-- Node3&#45;&gt;Node5 -->
<g id="edge4_Node000003_Node000005" class="edge">
<title>Node3&#45;&gt;Node5</title>
<g id="a_edge4_Node000003_Node000005"><a xlink:title=" ">
<path fill="none" stroke="#63b8ff" d="M263.38,-55.59C263.38,-48.86 263.38,-39.53 263.38,-31.15"/>
<polygon fill="#63b8ff" stroke="#63b8ff" points="266.88,-31.3 263.38,-21.3 259.88,-31.3 266.88,-31.3"/>
</a>
</g>
</g>
<!-- Node10&#45;&gt;Node4 -->
<g id="edge12_Node000010_Node000004" class="edge">
<title>Node10&#45;&gt;Node4</title>
<g id="a_edge12_Node000010_Node000004"><a xlink:title=" ">
<path fill="none" stroke="#63b8ff" d="M756.47,-111.62C743.02,-93.36 713.11,-52.73 695.68,-29.07"/>
<polygon fill="#63b8ff" stroke="#63b8ff" points="698.01,-27.33 689.26,-21.35 692.37,-31.48 698.01,-27.33"/>
</a>
</g>
</g>
<!-- Node10&#45;&gt;Node11 -->
<g id="edge11_Node000010_Node000011" class="edge">
<title>Node10&#45;&gt;Node11</title>
<g id="a_edge11_Node000010_Node000011"><a xlink:title=" ">
<path fill="none" stroke="#63b8ff" d="M747,-111.59C732.67,-103.36 711.6,-91.26 695.03,-81.74"/>
<polygon fill="#63b8ff" stroke="#63b8ff" points="697.29,-78.43 686.88,-76.48 693.8,-84.5 697.29,-78.43"/>
</a>
</g>
</g>
<!-- Node12 -->
<g id="Node000012" class="node">
<title>Node12</title>
<g id="a_Node000012"><a xlink:title=" ">
<polygon fill="#e0e0e0" stroke="#999999" points="915.12,-76 849.62,-76 849.62,-56 915.12,-56 915.12,-76"/>
<text text-anchor="middle" x="882.38" y="-62.5" font-family="Helvetica,sans-Serif" font-size="10.00">string_view</text>
</a>
</g>
</g>
<!-- Node10&#45;&gt;Node12 -->
<g id="edge13_Node000010_Node000012" class="edge">
<title>Node10&#45;&gt;Node12</title>
<g id="a_edge13_Node000010_Node000012"><a xlink:title=" ">
<path fill="none" stroke="#63b8ff" d="M784.1,-111.59C802.76,-103.13 830.42,-90.58 851.65,-80.94"/>
<polygon fill="#63b8ff" stroke="#63b8ff" points="852.83,-83.8 860.49,-76.48 849.93,-77.42 852.83,-83.8"/>
</a>
</g>
</g>
<!-- Node13&#45;&gt;Node4 -->
<g id="edge16_Node000013_Node000004" class="edge">
<title>Node13&#45;&gt;Node4</title>
<g id="a_edge16_Node000013_Node000004"><a xlink:title=" ">
<path fill="none" stroke="#63b8ff" d="M943.52,-111.91C943.22,-97.74 940.42,-70.51 924.38,-56 893.77,-28.32 771.62,-16.8 713.46,-12.8"/>
<polygon fill="#63b8ff" stroke="#63b8ff" points="713.93,-9.26 703.73,-12.1 713.48,-16.25 713.93,-9.26"/>
</a>
</g>
</g>
<!-- Node13&#45;&gt;Node11 -->
<g id="edge15_Node000013_Node000011" class="edge">
<title>Node13&#45;&gt;Node11</title>
<g id="a_edge15_Node000013_Node000011"><a xlink:title=" ">
<path fill="none" stroke="#63b8ff" d="M895.33,-111.53C841.08,-100.84 754.05,-83.69 705.35,-74.09"/>
<polygon fill="#63b8ff" stroke="#63b8ff" points="706.19,-70.49 695.7,-71.99 704.83,-77.36 706.19,-70.49"/>
</a>
</g>
</g>
<!-- Node13&#45;&gt;Node12 -->
<g id="edge17_Node000013_Node000012" class="edge">
<title>Node13&#45;&gt;Node12</title>
<g id="a_edge17_Node000013_Node000012"><a xlink:title=" ">
<path fill="none" stroke="#63b8ff" d="M932.75,-111.59C924,-103.85 911.39,-92.69 900.98,-83.47"/>
<polygon fill="#63b8ff" stroke="#63b8ff" points="903.69,-81.31 893.88,-77.3 899.05,-86.55 903.69,-81.31"/>
</a>
</g>
</g>
<!-- Node14&#45;&gt;Node4 -->
<g id="edge20_Node000014_Node000004" class="edge">
<title>Node14&#45;&gt;Node4</title>
<g id="a_edge20_Node000014_Node000004"><a xlink:title=" ">
<path fill="none" stroke="#63b8ff" d="M1143.31,-111.53C1163.36,-98.47 1193.24,-74.47 1176.38,-56 1145.13,-21.78 817.31,-13.29 713.63,-11.46"/>
<polygon fill="#63b8ff" stroke="#63b8ff" points="713.73,-7.94 703.67,-11.27 713.61,-14.94 713.73,-7.94"/>
</a>
</g>
</g>
<!-- Node14&#45;&gt;Node12 -->
<g id="edge21_Node000014_Node000012" class="edge">
<title>Node14&#45;&gt;Node12</title>
<g id="a_edge21_Node000014_Node000012"><a xlink:title=" ">
<path fill="none" stroke="#63b8ff" d="M1084.42,-111.53C1039.92,-101.72 970.74,-86.48 926,-76.61"/>
<polygon fill="#63b8ff" stroke="#63b8ff" points="926.98,-73.03 916.46,-74.29 925.47,-79.86 926.98,-73.03"/>
</a>
</g>
</g>
<!-- Node15 -->
<g id="Node000015" class="node">
<title>Node15</title>
<g id="a_Node000015"><a xlink:title=" ">
<polygon fill="#e0e0e0" stroke="#999999" points="1024,-76 978.75,-76 978.75,-56 1024,-56 1024,-76"/>
<text text-anchor="middle" x="1001.38" y="-62.5" font-family="Helvetica,sans-Serif" font-size="10.00">variant</text>
</a>
</g>
</g>
<!-- Node14&#45;&gt;Node15 -->
<g id="edge19_Node000014_Node000015" class="edge">
<title>Node14&#45;&gt;Node15</title>
<g id="a_edge19_Node000014_Node000015"><a xlink:title=" ">
<path fill="none" stroke="#63b8ff" d="M1105.43,-111.59C1085.58,-103.09 1056.12,-90.46 1033.6,-80.81"/>
<polygon fill="#63b8ff" stroke="#63b8ff" points="1035.06,-77.2 1024.49,-76.48 1032.31,-83.64 1035.06,-77.2"/>
</a>
</g>
</g>
<!-- Node16 -->
<g id="Node000016" class="node">
<title>Node16</title>
<g id="a_Node000016"><a xlink:title=" ">
<polygon fill="#e0e0e0" stroke="#999999" points="1167.12,-76 1041.62,-76 1041.62,-56 1167.12,-56 1167.12,-76"/>
<text text-anchor="middle" x="1104.38" y="-62.5" font-family="Helvetica,sans-Serif" font-size="10.00">boost/describe/enum.hpp</text>
</a>
</g>
</g>
<!-- Node14&#45;&gt;Node16 -->
<g id="edge22_Node000014_Node000016" class="edge">
<title>Node14&#45;&gt;Node16</title>
<g id="a_edge22_Node000014_Node000016"><a xlink:title=" ">
<path fill="none" stroke="#63b8ff" d="M1123.37,-111.59C1120.4,-104.63 1116.25,-94.89 1112.59,-86.29"/>
<polygon fill="#63b8ff" stroke="#63b8ff" points="1115.47,-85.13 1108.34,-77.3 1109.03,-87.87 1115.47,-85.13"/>
</a>
</g>
</g>
<!-- Node17&#45;&gt;Node4 -->
<g id="edge25_Node000017_Node000004" class="edge">
<title>Node17&#45;&gt;Node4</title>
<g id="a_edge25_Node000017_Node000004"><a xlink:title=" ">
<path fill="none" stroke="#63b8ff" d="M399.57,-111.78C411.29,-97.44 435.99,-69.98 463.38,-56 525.1,-24.49 607.25,-15.04 651.31,-12.21"/>
<polygon fill="#63b8ff" stroke="#63b8ff" points="651.39,-15.66 661.17,-11.6 650.99,-8.67 651.39,-15.66"/>
</a>
</g>
</g>
<!-- Node17&#45;&gt;Node8 -->
<g id="edge24_Node000017_Node000008" class="edge">
<title>Node17&#45;&gt;Node8</title>
<g id="a_edge24_Node000017_Node000008"><a xlink:title=" ">
<path fill="none" stroke="#63b8ff" d="M392.38,-111.59C392.38,-104.86 392.38,-95.53 392.38,-87.15"/>
<polygon fill="#63b8ff" stroke="#63b8ff" points="395.88,-87.3 392.38,-77.3 388.88,-87.3 395.88,-87.3"/>
</a>
</g>
</g>
<!-- Node17&#45;&gt;Node9 -->
<g id="edge26_Node000017_Node000009" class="edge">
<title>Node17&#45;&gt;Node9</title>
<g id="a_edge26_Node000017_Node000009"><a xlink:title=" ">
<path fill="none" stroke="#63b8ff" d="M409.97,-111.59C425.44,-103.32 448.22,-91.14 466.06,-81.6"/>
<polygon fill="#63b8ff" stroke="#63b8ff" points="467.48,-84.28 474.64,-76.48 464.18,-78.11 467.48,-84.28"/>
</a>
</g>
</g>
<!-- Node17&#45;&gt;Node11 -->
<g id="edge27_Node000017_Node000011" class="edge">
<title>Node17&#45;&gt;Node11</title>
<g id="a_edge27_Node000017_Node000011"><a xlink:title=" ">
<path fill="none" stroke="#63b8ff" d="M440.94,-111.53C495.93,-100.81 584.24,-83.6 633.4,-74.01"/>
<polygon fill="#63b8ff" stroke="#63b8ff" points="633.99,-77.27 643.14,-71.92 632.65,-70.4 633.99,-77.27"/>
</a>
</g>
</g>
<!-- Node18&#45;&gt;Node4 -->
<g id="edge29_Node000018_Node000004" class="edge">
<title>Node18&#45;&gt;Node4</title>
<g id="a_edge29_Node000018_Node000004"><a xlink:title=" ">
<path fill="none" stroke="#63b8ff" d="M580.4,-111.66C592.72,-98.95 615.53,-75.57 635.38,-56 645.01,-46.5 655.91,-36.05 664.79,-27.6"/>
<polygon fill="#63b8ff" stroke="#63b8ff" points="666.72,-30.64 671.57,-21.22 661.91,-25.56 666.72,-30.64"/>
</a>
</g>
</g>
<!-- Node18&#45;&gt;Node9 -->
<g id="edge30_Node000018_Node000009" class="edge">
<title>Node18&#45;&gt;Node9</title>
<g id="a_edge30_Node000018_Node000009"><a xlink:title=" ">
<path fill="none" stroke="#63b8ff" d="M557.79,-111.59C546.23,-103.59 529.39,-91.93 515.83,-82.54"/>
<polygon fill="#63b8ff" stroke="#63b8ff" points="518.28,-79.29 508.07,-76.48 514.3,-85.05 518.28,-79.29"/>
</a>
</g>
</g>
</g>
</svg>

<g id="navigator" transform="translate(0 0)" fill="#404254">
  <rect fill="#f2f5e9" fill-opacity="0.5" stroke="#606060" stroke-width=".5" x="0" y="0" width="60" height="60"/>
  <use id="zoomplus" xlink:href="#zoomPlus" x="17" y="9" onmousedown="handleZoom(evt,'in')"/>
  <use id="zoomminus" xlink:href="#zoomMin" x="42" y="9" onmousedown="handleZoom(evt,'out')"/>
  <use id="reset" xlink:href="#resetDef" x="30" y="36" onmousedown="handleReset()"/>
   <use id="arrowup" xlink:href="#arrowUp" x="0" y="0" onmousedown="handlePan(0,-1)"/>
  <use id="arrowright" xlink:href="#arrowRight" x="0" y="0" onmousedown="handlePan(1,0)"/>
  <use id="arrowdown" xlink:href="#arrowDown" x="0" y="0" onmousedown="handlePan(0,1)"/>
  <use id="arrowleft" xlink:href="#arrowLeft" x="0" y="0" onmousedown="handlePan(-1,0)"/>
</g>
<svg viewBox="0 0 15 15" width="100%" height="30px" preserveAspectRatio="xMaxYMin meet">
 <g id="arrow_out" transform="scale(0.3 0.3)">
  <a xlink:href="request_8hpp__incl_org.svg" target="_base">
   <rect id="button" ry="5" rx="5" y="6" x="6" height="38" width="38"
        fill="#f2f5e9" fill-opacity="0.5" stroke="#606060" stroke-width="1.0"/>
   <path id="arrow"
     d="M 11.500037,31.436501 C 11.940474,20.09759 22.043105,11.32322 32.158766,21.979434 L 37.068811,17.246167 C 37.068811,17.246167 37.088388,32 37.088388,32 L 22.160133,31.978069 C 22.160133,31.978069 26.997745,27.140456 26.997745,27.140456 C 18.528582,18.264221 13.291696,25.230495 11.500037,31.436501 z"
     style="fill:#404040;"/>
  </a>
 </g>
</svg>

<style type='text/css'>
<![CDATA[
[data-mouse-over-selected='false'] { opacity: 0.7; }
[data-mouse-over-selected='true']  { opacity: 1.0; }
]]>
</style>
<script type="application/ecmascript"><![CDATA[
document.addEventListener('DOMContentLoaded', (event) => {
  highlightEdges();
  highlightAdjacentNodes();
});
]]></script>
</svg>
