<?xml version="1.0" encoding="UTF-8" standalone="no"?>
<!DOCTYPE svg PUBLIC "-//W3C//DTD SVG 1.1//EN"
 "http://www.w3.org/Graphics/SVG/1.1/DTD/svg11.dtd">
<!-- Generated by graphviz version 8.1.0 (0)
 -->
<!-- Title: include/roar/dns/resolve.hpp Pages: 1 -->
<svg width="544pt" height="84pt"
 viewBox="0.00 0.00 543.88 84.00" xmlns="http://www.w3.org/2000/svg" xmlns:xlink="http://www.w3.org/1999/xlink">
<g id="graph0" class="graph" transform="scale(1 1) rotate(0) translate(4 80)">
<title>include/roar/dns/resolve.hpp</title>
<!-- Node1 -->
<g id="Node000001" class="node">
<title>Node1</title>
<g id="a_Node000001"><a xlink:title=" ">
<polygon fill="#999999" stroke="#666666" points="407.5,-76 269.25,-76 269.25,-56 407.5,-56 407.5,-76"/>
<text text-anchor="middle" x="338.38" y="-62.5" font-family="Helvetica,sans-Serif" font-size="10.00">include/roar/dns/resolve.hpp</text>
</a>
</g>
</g>
<!-- Node2 -->
<g id="Node000002" class="node">
<title>Node2</title>
<g id="a_Node000002"><a xlink:title=" ">
<polygon fill="#e0e0e0" stroke="#999999" points="106.75,-20 0,-20 0,0 106.75,0 106.75,-20"/>
<text text-anchor="middle" x="53.38" y="-6.5" font-family="Helvetica,sans-Serif" font-size="10.00">boost/asio/ip/tcp.hpp</text>
</a>
</g>
</g>
<!-- Node1&#45;&gt;Node2 -->
<g id="edge1_Node000001_Node000002" class="edge">
<title>Node1&#45;&gt;Node2</title>
<g id="a_edge1_Node000001_Node000002"><a xlink:title=" ">
<path fill="none" stroke="#63b8ff" d="M288.41,-55.53C239.82,-46.33 165.95,-32.33 114.02,-22.49"/>
<polygon fill="#63b8ff" stroke="#63b8ff" points="114.76,-18.88 104.29,-20.46 113.46,-25.76 114.76,-18.88"/>
</a>
</g>
</g>
<!-- Node3 -->
<g id="Node000003" class="node">
<title>Node3</title>
<g id="a_Node000003"><a xlink:title=" ">
<polygon fill="#e0e0e0" stroke="#999999" points="267.75,-20 125,-20 125,0 267.75,0 267.75,-20"/>
<text text-anchor="middle" x="196.38" y="-6.5" font-family="Helvetica,sans-Serif" font-size="10.00">boost/system/error_code.hpp</text>
</a>
</g>
</g>
<!-- Node1&#45;&gt;Node3 -->
<g id="edge2_Node000001_Node000003" class="edge">
<title>Node1&#45;&gt;Node3</title>
<g id="a_edge2_Node000001_Node000003"><a xlink:title=" ">
<path fill="none" stroke="#63b8ff" d="M313.64,-55.59C290.87,-46.94 256.86,-34 231.32,-24.29"/>
<polygon fill="#63b8ff" stroke="#63b8ff" points="232.89,-20.76 222.3,-20.48 230.41,-27.31 232.89,-20.76"/>
</a>
</g>
</g>
<!-- Node4 -->
<g id="Node000004" class="node">
<title>Node4</title>
<g id="a_Node000004"><a xlink:title=" ">
<polygon fill="#e0e0e0" stroke="#999999" points="325.38,-20 285.38,-20 285.38,0 325.38,0 325.38,-20"/>
<text text-anchor="middle" x="305.38" y="-6.5" font-family="Helvetica,sans-Serif" font-size="10.00">string</text>
</a>
</g>
</g>
<!-- Node1&#45;&gt;Node4 -->
<g id="edge3_Node000001_Node000004" class="edge">
<title>Node1&#45;&gt;Node4</title>
<g id="a_edge3_Node000001_Node000004"><a xlink:title=" ">
<path fill="none" stroke="#63b8ff" d="M332.63,-55.59C328.23,-48.39 322.02,-38.23 316.64,-29.43"/>
<polygon fill="#63b8ff" stroke="#63b8ff" points="319.26,-28.01 311.06,-21.3 313.29,-31.66 319.26,-28.01"/>
</a>
</g>
</g>
<!-- Node5 -->
<g id="Node000005" class="node">
<title>Node5</title>
<g id="a_Node000005"><a xlink:title=" ">
<polygon fill="#e0e0e0" stroke="#999999" points="401.75,-20 343,-20 343,0 401.75,0 401.75,-20"/>
<text text-anchor="middle" x="372.38" y="-6.5" font-family="Helvetica,sans-Serif" font-size="10.00">stdexcept</text>
</a>
</g>
</g>
<!-- Node1&#45;&gt;Node5 -->
<g id="edge4_Node000001_Node000005" class="edge">
<title>Node1&#45;&gt;Node5</title>
<g id="a_edge4_Node000001_Node000005"><a xlink:title=" ">
<path fill="none" stroke="#63b8ff" d="M344.3,-55.59C348.83,-48.39 355.23,-38.23 360.77,-29.43"/>
<polygon fill="#63b8ff" stroke="#63b8ff" points="364.15,-31.63 366.52,-21.3 358.23,-27.9 364.15,-31.63"/>
</a>
</g>
</g>
<!-- Node6 -->
<g id="Node000006" class="node">
<title>Node6</title>
<g id="a_Node000006"><a xlink:title=" ">
<polygon fill="#e0e0e0" stroke="#999999" points="475.25,-20 419.5,-20 419.5,0 475.25,0 475.25,-20"/>
<text text-anchor="middle" x="447.38" y="-6.5" font-family="Helvetica,sans-Serif" font-size="10.00">algorithm</text>
</a>
</g>
</g>
<!-- Node1&#45;&gt;Node6 -->
<g id="edge5_Node000001_Node000006" class="edge">
<title>Node1&#45;&gt;Node6</title>
<g id="a_edge5_Node000001_Node000006"><a xlink:title=" ">
<path fill="none" stroke="#63b8ff" d="M357.36,-55.59C374.22,-47.24 399.1,-34.92 418.43,-25.34"/>
<polygon fill="#63b8ff" stroke="#63b8ff" points="419.83,-28.05 427.24,-20.48 416.73,-21.78 419.83,-28.05"/>
</a>
</g>
</g>
<!-- Node7 -->
<g id="Node000007" class="node">
<title>Node7</title>
<g id="a_Node000007"><a xlink:title=" ">
<polygon fill="#e0e0e0" stroke="#999999" points="535.88,-20 492.88,-20 492.88,0 535.88,0 535.88,-20"/>
<text text-anchor="middle" x="514.38" y="-6.5" font-family="Helvetica,sans-Serif" font-size="10.00">vector</text>
</a>
</g>
</g>
<!-- Node1&#45;&gt;Node7 -->
<g id="edge6_Node000001_Node000007" class="edge">
<title>Node1&#45;&gt;Node7</title>
<g id="a_edge6_Node000001_Node000007"><a xlink:title=" ">
<path fill="none" stroke="#63b8ff" d="M369.03,-55.59C400.71,-45.87 449.95,-30.77 482.18,-20.88"/>
<polygon fill="#63b8ff" stroke="#63b8ff" points="482.87,-24.02 491.41,-17.74 480.82,-17.33 482.87,-24.02"/>
</a>
</g>
</g>
</g>
</svg>
