<?xml version="1.0" encoding="UTF-8" standalone="no"?>
<!DOCTYPE svg PUBLIC "-//W3C//DTD SVG 1.1//EN"
 "http://www.w3.org/Graphics/SVG/1.1/DTD/svg11.dtd">
<!-- Generated by graphviz version 2.44.1 (20211215.1903)
 -->
<!-- Title: include/roar/response.hpp Pages: 1 -->
<!--zoomable 308 -->
<svg id="main" version="1.1" xmlns="http://www.w3.org/2000/svg" xmlns:xlink="http://www.w3.org/1999/xlink" xml:space="preserve" onload="init(evt)">
<style type="text/css"><![CDATA[
.edge:hover path { stroke: red; }
.edge:hover polygon { stroke: red; fill: red; }
]]></style>
<script type="text/javascript"><![CDATA[
var edges = document.getElementsByTagName('g');
if (edges && edges.length) {
  for (var i=0;i<edges.length;i++) {
    if (edges[i].id.substr(0,4)=='edge') {
      edges[i].setAttribute('class','edge');
    }
  }
}
]]></script>
        <defs>
                <circle id="rim" cx="0" cy="0" r="7"/>
                <circle id="rim2" cx="0" cy="0" r="3.5"/>
                <g id="zoomPlus">
                        <use xlink:href="#rim" fill="#404040">
                                <set attributeName="fill" to="#808080" begin="zoomplus.mouseover" end="zoomplus.mouseout"/>
                        </use>
                        <path d="M-4,0h8M0,-4v8" fill="none" stroke="white" stroke-width="1.5" pointer-events="none"/>
                </g>
                <g id="zoomMin">
                        <use xlink:href="#rim" fill="#404040">
                                <set attributeName="fill" to="#808080" begin="zoomminus.mouseover" end="zoomminus.mouseout"/>
                        </use>
                        <path d="M-4,0h8" fill="none" stroke="white" stroke-width="1.5" pointer-events="none"/>
                </g>
                <g id="dirArrow">
                        <path fill="none" stroke="white" stroke-width="1.5" d="M0,-3.0v7 M-2.5,-0.5L0,-3.0L2.5,-0.5"/>
                </g>
               <g id="resetDef">
                       <use xlink:href="#rim2" fill="#404040">
                               <set attributeName="fill" to="#808080" begin="reset.mouseover" end="reset.mouseout"/>
                       </use>
               </g>
        </defs>

<script type="text/javascript">
var viewWidth = 1618;
var viewHeight = 308;
var sectionId = 'dynsection-1';
</script>
<script xlink:href="svgpan.js"/>
<svg id="graph" class="graph">
<g id="viewport">
<title>include/roar/response.hpp</title>
<!-- Node1 -->
<g id="node1" class="node">
<title>Node1</title>
<g id="a_node1"><a xlink:title=" ">
<polygon fill="#bfbfbf" stroke="black" points="557,-280.5 557,-299.5 685,-299.5 685,-280.5 557,-280.5"/>
<text text-anchor="middle" x="621" y="-287.5" font-family="Helvetica,sans-Serif" font-size="10.00">include/roar/response.hpp</text>
</a>
</g>
</g>
<!-- Node2 -->
<g id="node2" class="node">
<title>Node2</title>
<g id="a_node2"><a xlink:href="session_8hpp.html" target="_top" xlink:title=" ">
<polygon fill="none" stroke="black" points="541.5,-224.5 541.5,-243.5 700.5,-243.5 700.5,-224.5 541.5,-224.5"/>
<text text-anchor="middle" x="621" y="-231.5" font-family="Helvetica,sans-Serif" font-size="10.00">include/roar/session/session.hpp</text>
</a>
</g>
</g>
<!-- Node1&#45;&gt;Node2 -->
<g id="edge1" class="edge">
<title>Node1&#45;&gt;Node2</title>
<path fill="none" stroke="midnightblue" d="M621,-269.8C621,-260.91 621,-250.78 621,-243.75"/>
<polygon fill="midnightblue" stroke="midnightblue" points="617.5,-270.08 621,-280.08 624.5,-270.08 617.5,-270.08"/>
</g>
<!-- Node3 -->
<g id="node3" class="node">
<title>Node3</title>
<g id="a_node3"><a xlink:href="directory__server_8hpp.html" target="_top" xlink:title=" ">
<polygon fill="none" stroke="black" points="133.5,-112.5 133.5,-131.5 364.5,-131.5 364.5,-112.5 133.5,-112.5"/>
<text text-anchor="middle" x="249" y="-119.5" font-family="Helvetica,sans-Serif" font-size="10.00">include/roar/directory_server/directory_server.hpp</text>
</a>
</g>
</g>
<!-- Node2&#45;&gt;Node3 -->
<g id="edge2" class="edge">
<title>Node2&#45;&gt;Node3</title>
<path fill="none" stroke="midnightblue" d="M568.27,-222.37C529.45,-214.13 475.55,-201.81 429,-188 370.55,-170.66 303.41,-144.78 270.07,-131.51"/>
<polygon fill="midnightblue" stroke="midnightblue" points="567.8,-225.85 578.3,-224.48 569.24,-219 567.8,-225.85"/>
</g>
<!-- Node4 -->
<g id="node4" class="node">
<title>Node4</title>
<g id="a_node4"><a xlink:href="server_8hpp.html" target="_top" xlink:title=" ">
<polygon fill="none" stroke="black" points="325,-56.5 325,-75.5 441,-75.5 441,-56.5 325,-56.5"/>
<text text-anchor="middle" x="383" y="-63.5" font-family="Helvetica,sans-Serif" font-size="10.00">include/roar/server.hpp</text>
</a>
</g>
</g>
<!-- Node2&#45;&gt;Node4 -->
<g id="edge31" class="edge">
<title>Node2&#45;&gt;Node4</title>
<path fill="none" stroke="midnightblue" d="M531.15,-228.13C402.14,-219.03 174.43,-194.35 125,-132 119.48,-125.03 119.28,-118.8 125,-112 150.02,-82.24 256.73,-72.16 324.83,-68.75"/>
<polygon fill="midnightblue" stroke="midnightblue" points="531.2,-231.65 541.41,-228.84 531.68,-224.66 531.2,-231.65"/>
</g>
<!-- Node11 -->
<g id="node11" class="node">
<title>Node11</title>
<g id="a_node11"><a xlink:href="server_8cpp.html" target="_top" xlink:title=" ">
<polygon fill="none" stroke="black" points="0,-0.5 0,-19.5 98,-19.5 98,-0.5 0,-0.5"/>
<text text-anchor="middle" x="49" y="-7.5" font-family="Helvetica,sans-Serif" font-size="10.00">src/roar/server.cpp</text>
</a>
</g>
</g>
<!-- Node2&#45;&gt;Node11 -->
<g id="edge34" class="edge">
<title>Node2&#45;&gt;Node11</title>
<path fill="none" stroke="midnightblue" d="M531.18,-230.55C420.12,-226.39 238.26,-215.49 177,-188 101.92,-154.31 62.15,-50.56 51.78,-19.73"/>
<polygon fill="midnightblue" stroke="midnightblue" points="531.25,-234.06 541.37,-230.93 531.5,-227.06 531.25,-234.06"/>
</g>
<!-- Node12 -->
<g id="node12" class="node">
<title>Node12</title>
<g id="a_node12"><a xlink:href="include_2roar_2routing_2request__listener_8hpp.html" target="_top" xlink:title=" ">
<polygon fill="none" stroke="black" points="438,-168.5 438,-187.5 628,-187.5 628,-168.5 438,-168.5"/>
<text text-anchor="middle" x="533" y="-175.5" font-family="Helvetica,sans-Serif" font-size="10.00">include/roar/routing/request_listener.hpp</text>
</a>
</g>
</g>
<!-- Node2&#45;&gt;Node12 -->
<g id="edge11" class="edge">
<title>Node2&#45;&gt;Node12</title>
<path fill="none" stroke="midnightblue" d="M598.02,-218.9C581.89,-209 560.82,-196.07 547.1,-187.65"/>
<polygon fill="midnightblue" stroke="midnightblue" points="596.51,-222.08 606.86,-224.32 600.17,-216.11 596.51,-222.08"/>
</g>
<!-- Node21 -->
<g id="node21" class="node">
<title>Node21</title>
<g id="a_node21"><a xlink:href="route_8cpp.html" target="_top" xlink:title=" ">
<polygon fill="none" stroke="black" points="646.5,-168.5 646.5,-187.5 771.5,-187.5 771.5,-168.5 646.5,-168.5"/>
<text text-anchor="middle" x="709" y="-175.5" font-family="Helvetica,sans-Serif" font-size="10.00">src/roar/routing/route.cpp</text>
</a>
</g>
</g>
<!-- Node2&#45;&gt;Node21 -->
<g id="edge32" class="edge">
<title>Node2&#45;&gt;Node21</title>
<path fill="none" stroke="midnightblue" d="M643.98,-218.9C660.11,-209 681.18,-196.07 694.9,-187.65"/>
<polygon fill="midnightblue" stroke="midnightblue" points="641.83,-216.11 635.14,-224.32 645.49,-222.08 641.83,-216.11"/>
</g>
<!-- Node22 -->
<g id="node22" class="node">
<title>Node22</title>
<g id="a_node22"><a xlink:href="router_8cpp.html" target="_top" xlink:title=" ">
<polygon fill="none" stroke="black" points="790,-168.5 790,-187.5 918,-187.5 918,-168.5 790,-168.5"/>
<text text-anchor="middle" x="854" y="-175.5" font-family="Helvetica,sans-Serif" font-size="10.00">src/roar/routing/router.cpp</text>
</a>
</g>
</g>
<!-- Node2&#45;&gt;Node22 -->
<g id="edge33" class="edge">
<title>Node2&#45;&gt;Node22</title>
<path fill="none" stroke="midnightblue" d="M667.8,-222.15C711.83,-211.95 776.85,-196.88 817.25,-187.52"/>
<polygon fill="midnightblue" stroke="midnightblue" points="666.87,-218.78 657.92,-224.44 668.45,-225.6 666.87,-218.78"/>
</g>
<!-- Node23 -->
<g id="node23" class="node">
<title>Node23</title>
<g id="a_node23"><a xlink:href="factory_8cpp.html" target="_top" xlink:title=" ">
<polygon fill="none" stroke="black" points="936.5,-168.5 936.5,-187.5 1073.5,-187.5 1073.5,-168.5 936.5,-168.5"/>
<text text-anchor="middle" x="1005" y="-175.5" font-family="Helvetica,sans-Serif" font-size="10.00">src/roar/session/factory.cpp</text>
</a>
</g>
</g>
<!-- Node2&#45;&gt;Node23 -->
<g id="edge35" class="edge">
<title>Node2&#45;&gt;Node23</title>
<path fill="none" stroke="midnightblue" d="M691.81,-223.04C764.34,-212.84 875.88,-197.16 944.44,-187.52"/>
<polygon fill="midnightblue" stroke="midnightblue" points="691.26,-219.59 681.85,-224.44 692.24,-226.52 691.26,-219.59"/>
</g>
<!-- Node24 -->
<g id="node24" class="node">
<title>Node24</title>
<g id="a_node24"><a xlink:href="session_8cpp.html" target="_top" xlink:title=" ">
<polygon fill="none" stroke="black" points="1092,-168.5 1092,-187.5 1234,-187.5 1234,-168.5 1092,-168.5"/>
<text text-anchor="middle" x="1163" y="-175.5" font-family="Helvetica,sans-Serif" font-size="10.00">src/roar/session/session.cpp</text>
</a>
</g>
</g>
<!-- Node2&#45;&gt;Node24 -->
<g id="edge36" class="edge">
<title>Node2&#45;&gt;Node24</title>
<path fill="none" stroke="midnightblue" d="M710.98,-224.64C804.11,-215.89 953.8,-201.56 1083,-188 1085.92,-187.69 1088.9,-187.38 1091.91,-187.05"/>
<polygon fill="midnightblue" stroke="midnightblue" points="710.38,-221.18 700.75,-225.6 711.03,-228.15 710.38,-221.18"/>
</g>
<!-- Node3&#45;&gt;Node4 -->
<g id="edge3" class="edge">
<title>Node3&#45;&gt;Node4</title>
<path fill="none" stroke="midnightblue" d="M279.68,-108.64C304.82,-98.5 339.75,-84.43 361.87,-75.52"/>
<polygon fill="midnightblue" stroke="midnightblue" points="278.2,-105.46 270.23,-112.44 280.82,-111.95 278.2,-105.46"/>
</g>
<!-- Node5 -->
<g id="node5" class="node">
<title>Node5</title>
<g id="a_node5"><a xlink:href="100__continue_2main_8cpp.html" target="_top" xlink:title=" ">
<polygon fill="none" stroke="black" points="682,-0.5 682,-19.5 844,-19.5 844,-0.5 682,-0.5"/>
<text text-anchor="middle" x="763" y="-7.5" font-family="Helvetica,sans-Serif" font-size="10.00">examples/100_continue/main.cpp</text>
</a>
</g>
</g>
<!-- Node4&#45;&gt;Node5 -->
<g id="edge4" class="edge">
<title>Node4&#45;&gt;Node5</title>
<path fill="none" stroke="midnightblue" d="M451.41,-55.28C523.1,-45.09 634.62,-29.24 703,-19.53"/>
<polygon fill="midnightblue" stroke="midnightblue" points="450.54,-51.87 441.13,-56.74 451.52,-58.8 450.54,-51.87"/>
</g>
<!-- Node6 -->
<g id="node6" class="node">
<title>Node6</title>
<g id="a_node6"><a xlink:href="most__minimal_2main_8cpp.html" target="_top" xlink:title=" ">
<polygon fill="none" stroke="black" points="307.5,-0.5 307.5,-19.5 472.5,-19.5 472.5,-0.5 307.5,-0.5"/>
<text text-anchor="middle" x="390" y="-7.5" font-family="Helvetica,sans-Serif" font-size="10.00">examples/most_minimal/main.cpp</text>
</a>
</g>
</g>
<!-- Node4&#45;&gt;Node6 -->
<g id="edge5" class="edge">
<title>Node4&#45;&gt;Node6</title>
<path fill="none" stroke="midnightblue" d="M385.45,-46.1C386.61,-37.14 387.94,-26.86 388.87,-19.75"/>
<polygon fill="midnightblue" stroke="midnightblue" points="381.97,-45.72 384.16,-56.08 388.91,-46.62 381.97,-45.72"/>
</g>
<!-- Node7 -->
<g id="node7" class="node">
<title>Node7</title>
<g id="a_node7"><a xlink:href="serve__directory_2main_8cpp.html" target="_top" xlink:title=" ">
<polygon fill="none" stroke="black" points="981.5,-0.5 981.5,-19.5 1152.5,-19.5 1152.5,-0.5 981.5,-0.5"/>
<text text-anchor="middle" x="1067" y="-7.5" font-family="Helvetica,sans-Serif" font-size="10.00">examples/serve_directory/main.cpp</text>
</a>
</g>
</g>
<!-- Node4&#45;&gt;Node7 -->
<g id="edge6" class="edge">
<title>Node4&#45;&gt;Node7</title>
<path fill="none" stroke="midnightblue" d="M451.27,-59.61C576.79,-49.7 843.93,-28.61 981.38,-17.76"/>
<polygon fill="midnightblue" stroke="midnightblue" points="450.72,-56.14 441.02,-60.42 451.27,-63.12 450.72,-56.14"/>
</g>
<!-- Node8 -->
<g id="node8" class="node">
<title>Node8</title>
<g id="a_node8"><a xlink:href="simple__server_2main_8cpp.html" target="_top" xlink:title=" ">
<polygon fill="none" stroke="black" points="1272.5,-0.5 1272.5,-19.5 1437.5,-19.5 1437.5,-0.5 1272.5,-0.5"/>
<text text-anchor="middle" x="1355" y="-7.5" font-family="Helvetica,sans-Serif" font-size="10.00">examples/simple_server/main.cpp</text>
</a>
</g>
</g>
<!-- Node4&#45;&gt;Node8 -->
<g id="edge7" class="edge">
<title>Node4&#45;&gt;Node8</title>
<path fill="none" stroke="midnightblue" d="M451.37,-60.58C475.01,-59.08 501.66,-57.43 526,-56 799.21,-39.99 1123.19,-22.97 1272.33,-15.25"/>
<polygon fill="midnightblue" stroke="midnightblue" points="450.85,-57.1 441.09,-61.23 451.29,-64.09 450.85,-57.1"/>
</g>
<!-- Node9 -->
<g id="node9" class="node">
<title>Node9</title>
<g id="a_node9"><a xlink:href="websocket_2main_8cpp.html" target="_top" xlink:title=" ">
<polygon fill="none" stroke="black" points="491,-0.5 491,-19.5 643,-19.5 643,-0.5 491,-0.5"/>
<text text-anchor="middle" x="567" y="-7.5" font-family="Helvetica,sans-Serif" font-size="10.00">examples/websocket/main.cpp</text>
</a>
</g>
</g>
<!-- Node4&#45;&gt;Node9 -->
<g id="edge8" class="edge">
<title>Node4&#45;&gt;Node9</title>
<path fill="none" stroke="midnightblue" d="M421.95,-53.57C456.66,-43.38 506.68,-28.7 537.98,-19.52"/>
<polygon fill="midnightblue" stroke="midnightblue" points="420.77,-50.27 412.16,-56.44 422.74,-56.99 420.77,-50.27"/>
</g>
<!-- Node10 -->
<g id="node10" class="node">
<title>Node10</title>
<g id="a_node10"><a xlink:href="src_2roar_2routing_2request__listener_8cpp.html" target="_top" xlink:title=" ">
<polygon fill="none" stroke="black" points="116.5,-0.5 116.5,-19.5 289.5,-19.5 289.5,-0.5 116.5,-0.5"/>
<text text-anchor="middle" x="203" y="-7.5" font-family="Helvetica,sans-Serif" font-size="10.00">src/roar/routing/request_listener.cpp</text>
</a>
</g>
</g>
<!-- Node4&#45;&gt;Node10 -->
<g id="edge9" class="edge">
<title>Node4&#45;&gt;Node10</title>
<path fill="none" stroke="midnightblue" d="M344.89,-53.57C310.94,-43.38 262.01,-28.7 231.39,-19.52"/>
<polygon fill="midnightblue" stroke="midnightblue" points="343.89,-56.92 354.48,-56.44 345.91,-50.22 343.89,-56.92"/>
</g>
<!-- Node4&#45;&gt;Node11 -->
<g id="edge10" class="edge">
<title>Node4&#45;&gt;Node11</title>
<path fill="none" stroke="midnightblue" d="M320.05,-54.82C255.67,-44.41 156.99,-28.46 98.14,-18.94"/>
<polygon fill="midnightblue" stroke="midnightblue" points="319.65,-58.3 330.08,-56.44 320.76,-51.39 319.65,-58.3"/>
</g>
<!-- Node12&#45;&gt;Node3 -->
<g id="edge28" class="edge">
<title>Node12&#45;&gt;Node3</title>
<path fill="none" stroke="midnightblue" d="M477.97,-166.54C424.3,-156.33 343.66,-141 293.79,-131.52"/>
<polygon fill="midnightblue" stroke="midnightblue" points="477.52,-170.01 488,-168.44 478.83,-163.14 477.52,-170.01"/>
</g>
<!-- Node12&#45;&gt;Node4 -->
<g id="edge29" class="edge">
<title>Node12&#45;&gt;Node4</title>
<path fill="none" stroke="midnightblue" d="M506.86,-163.72C491.3,-155.37 471.44,-143.96 455,-132 430.21,-113.97 404.28,-88.72 391.36,-75.63"/>
<polygon fill="midnightblue" stroke="midnightblue" points="505.45,-166.93 515.93,-168.49 508.72,-160.74 505.45,-166.93"/>
</g>
<!-- Node12&#45;&gt;Node5 -->
<g id="edge12" class="edge">
<title>Node12&#45;&gt;Node5</title>
<path fill="none" stroke="midnightblue" d="M622.99,-166.31C651.43,-159.74 681.73,-149.13 706,-132 745.27,-104.29 758.3,-42.28 761.85,-19.56"/>
<polygon fill="midnightblue" stroke="midnightblue" points="622.05,-162.93 613.02,-168.47 623.54,-169.77 622.05,-162.93"/>
</g>
<!-- Node12&#45;&gt;Node7 -->
<g id="edge19" class="edge">
<title>Node12&#45;&gt;Node7</title>
<path fill="none" stroke="midnightblue" d="M638.56,-167.69C777.91,-155.3 1006.22,-134.65 1010,-132 1049.33,-104.37 1062.33,-42.31 1065.86,-19.57"/>
<polygon fill="midnightblue" stroke="midnightblue" points="637.92,-164.23 628.27,-168.6 638.54,-171.2 637.92,-164.23"/>
</g>
<!-- Node12&#45;&gt;Node8 -->
<g id="edge20" class="edge">
<title>Node12&#45;&gt;Node8</title>
<path fill="none" stroke="midnightblue" d="M638.49,-168.1C774.79,-161.91 1438.97,-163.96 1530,-132 1569.59,-118.1 1587.08,-113.45 1606,-76 1610.01,-68.07 1611.7,-62.82 1606,-56 1584.69,-30.53 1502.18,-19.46 1437.5,-14.66"/>
<polygon fill="midnightblue" stroke="midnightblue" points="638.07,-164.62 628.27,-168.64 638.45,-171.61 638.07,-164.62"/>
</g>
<!-- Node12&#45;&gt;Node9 -->
<g id="edge24" class="edge">
<title>Node12&#45;&gt;Node9</title>
<path fill="none" stroke="midnightblue" d="M511.83,-162.04C502.67,-154.26 492.92,-143.88 488,-132 484.6,-123.79 485.78,-120.61 488,-112 495.12,-84.46 501.52,-78.45 519,-56 529.95,-41.94 545.38,-28.31 555.76,-19.8"/>
<polygon fill="midnightblue" stroke="midnightblue" points="509.92,-164.99 519.94,-168.44 514.25,-159.49 509.92,-164.99"/>
</g>
<!-- Node12&#45;&gt;Node10 -->
<g id="edge30" class="edge">
<title>Node12&#45;&gt;Node10</title>
<path fill="none" stroke="midnightblue" d="M502.19,-164.74C480.66,-156 451.36,-143.77 426,-132 376.24,-108.91 364.24,-102.13 316,-76 280.18,-56.6 238.87,-32.34 217.49,-19.65"/>
<polygon fill="midnightblue" stroke="midnightblue" points="500.9,-167.99 511.48,-168.49 503.52,-161.5 500.9,-167.99"/>
</g>
<!-- Node13 -->
<g id="node13" class="node">
<title>Node13</title>
<g id="a_node13"><a xlink:href="examples_2100__continue_2request__listener_8hpp.html" target="_top" xlink:title=" ">
<polygon fill="none" stroke="black" points="791,-112.5 791,-131.5 1001,-131.5 1001,-112.5 791,-112.5"/>
<text text-anchor="middle" x="896" y="-119.5" font-family="Helvetica,sans-Serif" font-size="10.00">examples/100_continue/request_listener.hpp</text>
</a>
</g>
</g>
<!-- Node12&#45;&gt;Node13 -->
<g id="edge13" class="edge">
<title>Node12&#45;&gt;Node13</title>
<path fill="none" stroke="midnightblue" d="M600.78,-166.92C669.36,-156.71 774.21,-141.12 838.75,-131.52"/>
<polygon fill="midnightblue" stroke="midnightblue" points="599.89,-163.51 590.52,-168.44 600.92,-170.43 599.89,-163.51"/>
</g>
<!-- Node15 -->
<g id="node15" class="node">
<title>Node15</title>
<g id="a_node15"><a xlink:href="file__server_8hpp.html" target="_top" xlink:title=" ">
<polygon fill="none" stroke="black" points="1094.5,-112.5 1094.5,-131.5 1289.5,-131.5 1289.5,-112.5 1094.5,-112.5"/>
<text text-anchor="middle" x="1192" y="-119.5" font-family="Helvetica,sans-Serif" font-size="10.00">examples/serve_directory/file_server.hpp</text>
</a>
</g>
</g>
<!-- Node12&#45;&gt;Node15 -->
<g id="edge16" class="edge">
<title>Node12&#45;&gt;Node15</title>
<path fill="none" stroke="midnightblue" d="M637.69,-168.03C637.79,-168.02 637.9,-168.01 638,-168 660.31,-166.14 941.54,-143.32 1094.48,-130.91"/>
<polygon fill="midnightblue" stroke="midnightblue" points="637.68,-164.51 628.01,-168.84 638.26,-171.49 637.68,-164.51"/>
</g>
<!-- Node17 -->
<g id="node17" class="node">
<title>Node17</title>
<g id="a_node17"><a xlink:href="examples_2simple__server_2request__listener_8hpp.html" target="_top" xlink:title=" ">
<polygon fill="none" stroke="black" points="1307.5,-112.5 1307.5,-131.5 1520.5,-131.5 1520.5,-112.5 1307.5,-112.5"/>
<text text-anchor="middle" x="1414" y="-119.5" font-family="Helvetica,sans-Serif" font-size="10.00">examples/simple_server/request_listener.hpp</text>
</a>
</g>
</g>
<!-- Node12&#45;&gt;Node17 -->
<g id="edge21" class="edge">
<title>Node12&#45;&gt;Node17</title>
<path fill="none" stroke="midnightblue" d="M638.41,-168C933.18,-147.52 1008.73,-151.26 1299,-132 1301.8,-131.81 1304.63,-131.62 1307.49,-131.42"/>
<polygon fill="midnightblue" stroke="midnightblue" points="638.01,-164.52 628.28,-168.7 638.5,-171.5 638.01,-164.52"/>
</g>
<!-- Node19 -->
<g id="node19" class="node">
<title>Node19</title>
<g id="a_node19"><a xlink:href="examples_2websocket_2request__listener_8hpp.html" target="_top" xlink:title=" ">
<polygon fill="none" stroke="black" points="497,-112.5 497,-131.5 697,-131.5 697,-112.5 497,-112.5"/>
<text text-anchor="middle" x="597" y="-119.5" font-family="Helvetica,sans-Serif" font-size="10.00">examples/websocket/request_listener.hpp</text>
</a>
</g>
</g>
<!-- Node12&#45;&gt;Node19 -->
<g id="edge25" class="edge">
<title>Node12&#45;&gt;Node19</title>
<path fill="none" stroke="midnightblue" d="M550.99,-161.82C562.46,-152.15 576.91,-139.95 586.53,-131.83"/>
<polygon fill="midnightblue" stroke="midnightblue" points="548.67,-159.2 543.28,-168.32 553.18,-164.55 548.67,-159.2"/>
</g>
<!-- Node13&#45;&gt;Node5 -->
<g id="edge14" class="edge">
<title>Node13&#45;&gt;Node5</title>
<path fill="none" stroke="midnightblue" d="M950.95,-109.97C989.89,-99.67 1031.66,-81.97 1010,-56 989.06,-30.9 907.86,-19.76 844.2,-14.85"/>
<polygon fill="midnightblue" stroke="midnightblue" points="950,-106.6 941.15,-112.43 951.7,-113.39 950,-106.6"/>
</g>
<!-- Node14 -->
<g id="node14" class="node">
<title>Node14</title>
<g id="a_node14"><a xlink:href="examples_2100__continue_2request__listener_8cpp.html" target="_top" xlink:title=" ">
<polygon fill="none" stroke="black" points="791,-56.5 791,-75.5 1001,-75.5 1001,-56.5 791,-56.5"/>
<text text-anchor="middle" x="896" y="-63.5" font-family="Helvetica,sans-Serif" font-size="10.00">examples/100_continue/request_listener.cpp</text>
</a>
</g>
</g>
<!-- Node13&#45;&gt;Node14 -->
<g id="edge15" class="edge">
<title>Node13&#45;&gt;Node14</title>
<path fill="none" stroke="midnightblue" d="M896,-101.8C896,-92.91 896,-82.78 896,-75.75"/>
<polygon fill="midnightblue" stroke="midnightblue" points="892.5,-102.08 896,-112.08 899.5,-102.08 892.5,-102.08"/>
</g>
<!-- Node15&#45;&gt;Node7 -->
<g id="edge18" class="edge">
<title>Node15&#45;&gt;Node7</title>
<path fill="none" stroke="midnightblue" d="M1242.45,-109.75C1279.4,-99.17 1319.76,-81.17 1299,-56 1280.43,-33.49 1210.87,-22.1 1152.71,-16.42"/>
<polygon fill="midnightblue" stroke="midnightblue" points="1241.4,-106.41 1232.67,-112.41 1243.24,-113.16 1241.4,-106.41"/>
</g>
<!-- Node16 -->
<g id="node16" class="node">
<title>Node16</title>
<g id="a_node16"><a xlink:href="file__server_8cpp.html" target="_top" xlink:title=" ">
<polygon fill="none" stroke="black" points="1094.5,-56.5 1094.5,-75.5 1289.5,-75.5 1289.5,-56.5 1094.5,-56.5"/>
<text text-anchor="middle" x="1192" y="-63.5" font-family="Helvetica,sans-Serif" font-size="10.00">examples/serve_directory/file_server.cpp</text>
</a>
</g>
</g>
<!-- Node15&#45;&gt;Node16 -->
<g id="edge17" class="edge">
<title>Node15&#45;&gt;Node16</title>
<path fill="none" stroke="midnightblue" d="M1192,-101.8C1192,-92.91 1192,-82.78 1192,-75.75"/>
<polygon fill="midnightblue" stroke="midnightblue" points="1188.5,-102.08 1192,-112.08 1195.5,-102.08 1188.5,-102.08"/>
</g>
<!-- Node17&#45;&gt;Node8 -->
<g id="edge22" class="edge">
<title>Node17&#45;&gt;Node8</title>
<path fill="none" stroke="midnightblue" d="M1397.18,-104.96C1389.52,-96.89 1380.87,-86.58 1375,-76 1364.69,-57.41 1358.99,-32.83 1356.52,-19.87"/>
<polygon fill="midnightblue" stroke="midnightblue" points="1394.85,-107.58 1404.38,-112.22 1399.82,-102.66 1394.85,-107.58"/>
</g>
<!-- Node18 -->
<g id="node18" class="node">
<title>Node18</title>
<g id="a_node18"><a xlink:href="examples_2simple__server_2request__listener_8cpp.html" target="_top" xlink:title=" ">
<polygon fill="none" stroke="black" points="1383.5,-56.5 1383.5,-75.5 1596.5,-75.5 1596.5,-56.5 1383.5,-56.5"/>
<text text-anchor="middle" x="1490" y="-63.5" font-family="Helvetica,sans-Serif" font-size="10.00">examples/simple_server/request_listener.cpp</text>
</a>
</g>
</g>
<!-- Node17&#45;&gt;Node18 -->
<g id="edge23" class="edge">
<title>Node17&#45;&gt;Node18</title>
<path fill="none" stroke="midnightblue" d="M1434.58,-106.38C1448.31,-96.62 1465.93,-84.11 1477.57,-75.83"/>
<polygon fill="midnightblue" stroke="midnightblue" points="1432.34,-103.68 1426.21,-112.32 1436.39,-109.38 1432.34,-103.68"/>
</g>
<!-- Node19&#45;&gt;Node9 -->
<g id="edge26" class="edge">
<title>Node19&#45;&gt;Node9</title>
<path fill="none" stroke="midnightblue" d="M562.4,-107.92C548.49,-100.75 533.89,-90.34 526,-76 514.55,-55.19 538.85,-31.9 554.71,-19.63"/>
<polygon fill="midnightblue" stroke="midnightblue" points="561.3,-111.27 571.84,-112.38 564.29,-104.94 561.3,-111.27"/>
</g>
<!-- Node20 -->
<g id="node20" class="node">
<title>Node20</title>
<g id="a_node20"><a xlink:href="examples_2websocket_2request__listener_8cpp.html" target="_top" xlink:title=" ">
<polygon fill="none" stroke="black" points="535,-56.5 535,-75.5 735,-75.5 735,-56.5 535,-56.5"/>
<text text-anchor="middle" x="635" y="-63.5" font-family="Helvetica,sans-Serif" font-size="10.00">examples/websocket/request_listener.cpp</text>
</a>
</g>
</g>
<!-- Node19&#45;&gt;Node20 -->
<g id="edge27" class="edge">
<title>Node19&#45;&gt;Node20</title>
<path fill="none" stroke="midnightblue" d="M609.06,-103.86C615.64,-94.5 623.51,-83.33 628.84,-75.75"/>
<polygon fill="midnightblue" stroke="midnightblue" points="606.17,-101.89 603.27,-112.08 611.89,-105.92 606.17,-101.89"/>
</g>
</g>
</svg>
        <g id="navigator" transform="translate(0 0)" fill="#404254">
                <rect fill="#f2f5e9" fill-opacity="0.5" stroke="#606060" stroke-width=".5" x="0" y="0" width="60" height="60"/>
                <use id="zoomplus" xlink:href="#zoomPlus" x="17" y="9" onmousedown="handleZoom(evt,'in')"/>
                <use id="zoomminus" xlink:href="#zoomMin" x="42" y="9" onmousedown="handleZoom(evt,'out')"/>
                <use id="reset" xlink:href="#resetDef" x="30" y="36" onmousedown="handleReset()"/>
                <g id="arrowUp" xlink:href="#dirArrow" transform="translate(30 24)" onmousedown="handlePan(0,-1)">
                  <use xlink:href="#rim" fill="#404040">
                        <set attributeName="fill" to="#808080" begin="arrowUp.mouseover" end="arrowUp.mouseout"/>
                  </use>
                  <path fill="none" stroke="white" stroke-width="1.5" d="M0,-3.0v7 M-2.5,-0.5L0,-3.0L2.5,-0.5"/>
                </g>
                <g id="arrowRight" xlink:href="#dirArrow" transform="rotate(90) translate(36 -43)" onmousedown="handlePan(1,0)">
                  <use xlink:href="#rim" fill="#404040">
                        <set attributeName="fill" to="#808080" begin="arrowRight.mouseover" end="arrowRight.mouseout"/>
                  </use>
                  <path fill="none" stroke="white" stroke-width="1.5" d="M0,-3.0v7 M-2.5,-0.5L0,-3.0L2.5,-0.5"/>
                </g>
                <g id="arrowDown" xlink:href="#dirArrow" transform="rotate(180) translate(-30 -48)" onmousedown="handlePan(0,1)">
                  <use xlink:href="#rim" fill="#404040">
                        <set attributeName="fill" to="#808080" begin="arrowDown.mouseover" end="arrowDown.mouseout"/>
                  </use>
                  <path fill="none" stroke="white" stroke-width="1.5" d="M0,-3.0v7 M-2.5,-0.5L0,-3.0L2.5,-0.5"/>
                </g>
                <g id="arrowLeft" xlink:href="#dirArrow" transform="rotate(270) translate(-36 17)" onmousedown="handlePan(-1,0)">
                  <use xlink:href="#rim" fill="#404040">
                        <set attributeName="fill" to="#808080" begin="arrowLeft.mouseover" end="arrowLeft.mouseout"/>
                  </use>
                  <path fill="none" stroke="white" stroke-width="1.5" d="M0,-3.0v7 M-2.5,-0.5L0,-3.0L2.5,-0.5"/>
                </g>
        </g>
        <svg viewBox="0 0 15 15" width="100%" height="30px" preserveAspectRatio="xMaxYMin meet">
         <g id="arrow_out" transform="scale(0.3 0.3)">
          <a xlink:href="response_8hpp__dep__incl_org.svg" target="_base">
           <rect id="button" ry="5" rx="5" y="6" x="6" height="38" width="38"
                fill="#f2f5e9" fill-opacity="0.5" stroke="#606060" stroke-width="1.0"/>
           <path id="arrow"
             d="M 11.500037,31.436501 C 11.940474,20.09759 22.043105,11.32322 32.158766,21.979434 L 37.068811,17.246167 C 37.068811,17.246167 37.088388,32 37.088388,32 L 22.160133,31.978069 C 22.160133,31.978069 26.997745,27.140456 26.997745,27.140456 C 18.528582,18.264221 13.291696,25.230495 11.500037,31.436501 z"
             style="fill:#404040;"/>
          </a>
         </g>
        </svg>
</svg>
