<?xml version="1.0" encoding="UTF-8" standalone="no"?>
<!DOCTYPE svg PUBLIC "-//W3C//DTD SVG 1.1//EN"
 "http://www.w3.org/Graphics/SVG/1.1/DTD/svg11.dtd">
<!-- Generated by graphviz version 8.1.0 (0)
 -->
<!-- Title: include/roar/response.hpp Pages: 1 -->
<!--zoomable 308 -->

<svg id="main" version="1.1" xmlns="http://www.w3.org/2000/svg" xmlns:xlink="http://www.w3.org/1999/xlink" xml:space="preserve" onload="init(evt)">
<style type="text/css"><![CDATA[
.node, .edge {opacity: 0.7;}
.node.selected, .edge.selected {opacity: 1;}
.edge:hover path { stroke: red; }
.edge:hover polygon { stroke: red; fill: red; }
]]></style>

<defs>
  <circle id="rim" cx="0" cy="0" r="7"/>
  <circle id="rim2" cx="0" cy="0" r="3.5"/>
  <g id="zoomPlus">
    <use xlink:href="#rim" fill="#404040"><set attributeName="fill" to="#808080" begin="zoomplus.mouseover" end="zoomplus.mouseout"/></use>
    <path d="M-4,0h8M0,-4v8" fill="none" stroke="white" stroke-width="1.5" pointer-events="none"/>
  </g>
  <g id="zoomMin">
    <use xlink:href="#rim" fill="#404040"><set attributeName="fill" to="#808080" begin="zoomminus.mouseover" end="zoomminus.mouseout"/></use>
    <path d="M-4,0h8" fill="none" stroke="white" stroke-width="1.5" pointer-events="none"/>
  </g>
  <g id="arrowUp" transform="translate(30 24)">
    <use xlink:href="#rim"/>
    <path pointer-events="none" fill="none" stroke="white" stroke-width="1.5" d="M0,-3.0v7 M-2.5,-0.5L0,-3.0L2.5,-0.5"/>
  </g>
  <g id="arrowRight" transform="rotate(90) translate(36 -43)">
    <use xlink:href="#rim"/>
    <path pointer-events="none" fill="none" stroke="white" stroke-width="1.5" d="M0,-3.0v7 M-2.5,-0.5L0,-3.0L2.5,-0.5"/>
  </g>
  <g id="arrowDown" transform="rotate(180) translate(-30 -48)">
    <use xlink:href="#rim"/>
    <path pointer-events="none" fill="none" stroke="white" stroke-width="1.5" d="M0,-3.0v7 M-2.5,-0.5L0,-3.0L2.5,-0.5"/>
  </g>
  <g id="arrowLeft" transform="rotate(270) translate(-36 17)">
    <use xlink:href="#rim"/>
    <path pointer-events="none" fill="none" stroke="white" stroke-width="1.5" d="M0,-3.0v7 M-2.5,-0.5L0,-3.0L2.5,-0.5"/>
  </g>
  <g id="resetDef">
    <use xlink:href="#rim2" fill="#404040"><set attributeName="fill" to="#808080" begin="reset.mouseover" end="reset.mouseout"/></use>
  </g>
</defs>
<script type="application/ecmascript">
var viewWidth = 2238;
var viewHeight = 308;
var sectionId = 'dynsection-1';
</script>
<script type="application/ecmascript" xlink:href="svg.min.js"/>
<svg id="graph" class="graph">
<g id="viewport">
<title>include/roar/response.hpp</title>
<!-- Node1 -->
<g id="Node000001" class="node">
<title>Node1</title>
<g id="a_Node000001"><a xlink:title=" ">
<polygon fill="#999999" stroke="#666666" points="339.88,-300 212.12,-300 212.12,-280 339.88,-280 339.88,-300"/>
<text text-anchor="middle" x="276" y="-286.5" font-family="Helvetica,sans-Serif" font-size="10.00">include/roar/response.hpp</text>
</a>
</g>
</g>
<!-- Node2 -->
<g id="Node000002" class="node">
<title>Node2</title>
<g id="a_Node000002"><a xlink:href="client_8hpp.html" target="_top" xlink:title=" ">
<polygon fill="white" stroke="#666666" points="255.62,-244 144.38,-244 144.38,-224 255.62,-224 255.62,-244"/>
<text text-anchor="middle" x="200" y="-230.5" font-family="Helvetica,sans-Serif" font-size="10.00">include/roar/client.hpp</text>
</a>
</g>
</g>
<!-- Node1&#45;&gt;Node2 -->
<g id="edge1_Node000001_Node000002" class="edge">
<title>Node1&#45;&gt;Node2</title>
<g id="a_edge1_Node000001_Node000002"><a xlink:title=" ">
<path fill="none" stroke="#63b8ff" d="M253.86,-273.27C240.73,-263.94 224.53,-252.43 213.34,-244.48"/>
<polygon fill="#63b8ff" stroke="#63b8ff" points="251.58,-276.65 261.76,-279.59 255.64,-270.95 251.58,-276.65"/>
</a>
</g>
</g>
<!-- Node4 -->
<g id="Node000004" class="node">
<title>Node4</title>
<g id="a_Node000004"><a xlink:href="session_8hpp.html" target="_top" xlink:title=" ">
<polygon fill="white" stroke="#666666" points="585.25,-244 426.75,-244 426.75,-224 585.25,-224 585.25,-244"/>
<text text-anchor="middle" x="506" y="-230.5" font-family="Helvetica,sans-Serif" font-size="10.00">include/roar/session/session.hpp</text>
</a>
</g>
</g>
<!-- Node1&#45;&gt;Node4 -->
<g id="edge3_Node000001_Node000004" class="edge">
<title>Node1&#45;&gt;Node4</title>
<g id="a_edge3_Node000001_Node000004"><a xlink:title=" ">
<path fill="none" stroke="#63b8ff" d="M326.84,-277.06C368.65,-267.25 427.1,-253.52 465.72,-244.46"/>
<polygon fill="#63b8ff" stroke="#63b8ff" points="326.26,-273.84 317.33,-279.53 327.86,-280.65 326.26,-273.84"/>
</a>
</g>
</g>
<!-- Node3 -->
<g id="Node000003" class="node">
<title>Node3</title>
<g id="a_Node000003"><a xlink:href="client_8cpp.html" target="_top" xlink:title=" ">
<polygon fill="white" stroke="#666666" points="94,-188 0,-188 0,-168 94,-168 94,-188"/>
<text text-anchor="middle" x="47" y="-174.5" font-family="Helvetica,sans-Serif" font-size="10.00">src/roar/client.cpp</text>
</a>
</g>
</g>
<!-- Node2&#45;&gt;Node3 -->
<g id="edge2_Node000002_Node000003" class="edge">
<title>Node2&#45;&gt;Node3</title>
<g id="a_edge2_Node000002_Node000003"><a xlink:title=" ">
<path fill="none" stroke="#63b8ff" d="M163.31,-220.05C135.76,-210.33 98.68,-197.24 73.86,-188.48"/>
<polygon fill="#63b8ff" stroke="#63b8ff" points="161.75,-223.57 172.35,-223.59 164.08,-216.97 161.75,-223.57"/>
</a>
</g>
</g>
<!-- Node5 -->
<g id="Node000005" class="node">
<title>Node5</title>
<g id="a_Node000005"><a xlink:href="directory__server_8hpp.html" target="_top" xlink:title=" ">
<polygon fill="white" stroke="#666666" points="1020.25,-132 789.75,-132 789.75,-112 1020.25,-112 1020.25,-132"/>
<text text-anchor="middle" x="905" y="-118.5" font-family="Helvetica,sans-Serif" font-size="10.00">include/roar/directory_server/directory_server.hpp</text>
</a>
</g>
</g>
<!-- Node4&#45;&gt;Node5 -->
<g id="edge4_Node000004_Node000005" class="edge">
<title>Node4&#45;&gt;Node5</title>
<g id="a_edge4_Node000004_Node000005"><a xlink:title=" ">
<path fill="none" stroke="#63b8ff" d="M596.27,-224.84C649.52,-218.34 717.68,-207.06 776,-188 819.62,-173.74 866.8,-146.65 890.15,-132.36"/>
<polygon fill="#63b8ff" stroke="#63b8ff" points="596,-221.47 586.48,-226.12 596.82,-228.42 596,-221.47"/>
</a>
</g>
</g>
<!-- Node6 -->
<g id="Node000006" class="node">
<title>Node6</title>
<g id="a_Node000006"><a xlink:href="server_8hpp.html" target="_top" xlink:title=" ">
<polygon fill="white" stroke="#666666" points="1095.5,-76 980.5,-76 980.5,-56 1095.5,-56 1095.5,-76"/>
<text text-anchor="middle" x="1038" y="-62.5" font-family="Helvetica,sans-Serif" font-size="10.00">include/roar/server.hpp</text>
</a>
</g>
</g>
<!-- Node4&#45;&gt;Node6 -->
<g id="edge33_Node000004_Node000006" class="edge">
<title>Node4&#45;&gt;Node6</title>
<g id="a_edge33_Node000004_Node000006"><a xlink:title=" ">
<path fill="none" stroke="#63b8ff" d="M596.41,-224.18C653.24,-217.08 720.01,-205.38 743,-188 773.12,-165.22 750.71,-134.56 781,-112 811.74,-89.1 914.17,-76.81 980.06,-71.11"/>
<polygon fill="#63b8ff" stroke="#63b8ff" points="596.06,-220.82 586.56,-225.5 596.91,-227.77 596.06,-220.82"/>
</a>
</g>
</g>
<!-- Node13 -->
<g id="Node000013" class="node">
<title>Node13</title>
<g id="a_Node000013"><a xlink:href="server_8cpp.html" target="_top" xlink:title=" ">
<polygon fill="white" stroke="#666666" points="492.88,-20 395.12,-20 395.12,0 492.88,0 492.88,-20"/>
<text text-anchor="middle" x="444" y="-6.5" font-family="Helvetica,sans-Serif" font-size="10.00">src/roar/server.cpp</text>
</a>
</g>
</g>
<!-- Node4&#45;&gt;Node13 -->
<g id="edge36_Node000004_Node000013" class="edge">
<title>Node4&#45;&gt;Node13</title>
<g id="a_edge36_Node000004_Node000013"><a xlink:title=" ">
<path fill="none" stroke="#63b8ff" d="M415.41,-228.01C313.25,-221.44 158.93,-208.28 141,-188 60.39,-96.84 290.05,-40.18 394.87,-19.68"/>
<polygon fill="#63b8ff" stroke="#63b8ff" points="415.16,-231.56 425.36,-228.7 415.6,-224.58 415.16,-231.56"/>
</a>
</g>
</g>
<!-- Node14 -->
<g id="Node000014" class="node">
<title>Node14</title>
<g id="a_Node000014"><a xlink:href="include_2roar_2routing_2request__listener_8hpp.html" target="_top" xlink:title=" ">
<polygon fill="white" stroke="#666666" points="1515.62,-188 1326.38,-188 1326.38,-168 1515.62,-168 1515.62,-188"/>
<text text-anchor="middle" x="1421" y="-174.5" font-family="Helvetica,sans-Serif" font-size="10.00">include/roar/routing/request_listener.hpp</text>
</a>
</g>
</g>
<!-- Node4&#45;&gt;Node14 -->
<g id="edge13_Node000004_Node000014" class="edge">
<title>Node4&#45;&gt;Node14</title>
<g id="a_edge13_Node000004_Node000014"><a xlink:title=" ">
<path fill="none" stroke="#63b8ff" d="M596.49,-227.66C770.2,-217.41 1148.84,-195.06 1326.02,-184.61"/>
<polygon fill="#63b8ff" stroke="#63b8ff" points="596.38,-224.22 586.6,-228.3 596.79,-231.21 596.38,-224.22"/>
</a>
</g>
</g>
<!-- Node23 -->
<g id="Node000023" class="node">
<title>Node23</title>
<g id="a_Node000023"><a xlink:href="route_8cpp.html" target="_top" xlink:title=" ">
<polygon fill="white" stroke="#666666" points="274.38,-188 149.62,-188 149.62,-168 274.38,-168 274.38,-188"/>
<text text-anchor="middle" x="212" y="-174.5" font-family="Helvetica,sans-Serif" font-size="10.00">src/roar/routing/route.cpp</text>
</a>
</g>
</g>
<!-- Node4&#45;&gt;Node23 -->
<g id="edge34_Node000004_Node000023" class="edge">
<title>Node4&#45;&gt;Node23</title>
<g id="a_edge34_Node000004_Node000023"><a xlink:title=" ">
<path fill="none" stroke="#63b8ff" d="M443.71,-221.56C390.11,-211.71 313.69,-197.68 263.49,-188.46"/>
<polygon fill="#63b8ff" stroke="#63b8ff" points="442.98,-225.17 453.45,-223.53 444.25,-218.28 442.98,-225.17"/>
</a>
</g>
</g>
<!-- Node24 -->
<g id="Node000024" class="node">
<title>Node24</title>
<g id="a_Node000024"><a xlink:href="router_8cpp.html" target="_top" xlink:title=" ">
<polygon fill="white" stroke="#666666" points="419.88,-188 292.12,-188 292.12,-168 419.88,-168 419.88,-188"/>
<text text-anchor="middle" x="356" y="-174.5" font-family="Helvetica,sans-Serif" font-size="10.00">src/roar/routing/router.cpp</text>
</a>
</g>
</g>
<!-- Node4&#45;&gt;Node24 -->
<g id="edge35_Node000004_Node000024" class="edge">
<title>Node4&#45;&gt;Node24</title>
<g id="a_edge35_Node000004_Node000024"><a xlink:title=" ">
<path fill="none" stroke="#63b8ff" d="M469.67,-219.92C442.7,-210.21 406.56,-197.2 382.33,-188.48"/>
<polygon fill="#63b8ff" stroke="#63b8ff" points="468.28,-223.5 478.87,-223.59 470.65,-216.91 468.28,-223.5"/>
</a>
</g>
</g>
<!-- Node25 -->
<g id="Node000025" class="node">
<title>Node25</title>
<g id="a_Node000025"><a xlink:href="factory_8cpp.html" target="_top" xlink:title=" ">
<polygon fill="white" stroke="#666666" points="574.38,-188 437.62,-188 437.62,-168 574.38,-168 574.38,-188"/>
<text text-anchor="middle" x="506" y="-174.5" font-family="Helvetica,sans-Serif" font-size="10.00">src/roar/session/factory.cpp</text>
</a>
</g>
</g>
<!-- Node4&#45;&gt;Node25 -->
<g id="edge37_Node000004_Node000025" class="edge">
<title>Node4&#45;&gt;Node25</title>
<g id="a_edge37_Node000004_Node000025"><a xlink:title=" ">
<path fill="none" stroke="#63b8ff" d="M506,-212.71C506,-204.32 506,-195.01 506,-188.3"/>
<polygon fill="#63b8ff" stroke="#63b8ff" points="502.5,-212.59 506,-222.59 509.5,-212.59 502.5,-212.59"/>
</a>
</g>
</g>
<!-- Node26 -->
<g id="Node000026" class="node">
<title>Node26</title>
<g id="a_Node000026"><a xlink:href="session_8cpp.html" target="_top" xlink:title=" ">
<polygon fill="white" stroke="#666666" points="733.62,-188 592.38,-188 592.38,-168 733.62,-168 733.62,-188"/>
<text text-anchor="middle" x="663" y="-174.5" font-family="Helvetica,sans-Serif" font-size="10.00">src/roar/session/session.cpp</text>
</a>
</g>
</g>
<!-- Node4&#45;&gt;Node26 -->
<g id="edge38_Node000004_Node000026" class="edge">
<title>Node4&#45;&gt;Node26</title>
<g id="a_edge38_Node000004_Node000026"><a xlink:title=" ">
<path fill="none" stroke="#63b8ff" d="M543.65,-220.05C571.92,-210.33 609.97,-197.24 635.44,-188.48"/>
<polygon fill="#63b8ff" stroke="#63b8ff" points="542.67,-217.03 534.35,-223.59 544.94,-223.65 542.67,-217.03"/>
</a>
</g>
</g>
<!-- Node5&#45;&gt;Node6 -->
<g id="edge5_Node000005_Node000006" class="edge">
<title>Node5&#45;&gt;Node6</title>
<g id="a_edge5_Node000005_Node000006"><a xlink:title=" ">
<path fill="none" stroke="#63b8ff" d="M938.17,-107.53C961.97,-97.87 993.46,-85.08 1014.65,-76.48"/>
<polygon fill="#63b8ff" stroke="#63b8ff" points="937.12,-104.59 929.17,-111.59 939.75,-111.07 937.12,-104.59"/>
</a>
</g>
</g>
<!-- Node7 -->
<g id="Node000007" class="node">
<title>Node7</title>
<g id="a_Node000007"><a xlink:href="100__continue_2main_8cpp.html" target="_top" xlink:title=" ">
<polygon fill="white" stroke="#666666" points="1548.75,-20 1387.25,-20 1387.25,0 1548.75,0 1548.75,-20"/>
<text text-anchor="middle" x="1468" y="-6.5" font-family="Helvetica,sans-Serif" font-size="10.00">examples/100_continue/main.cpp</text>
</a>
</g>
</g>
<!-- Node6&#45;&gt;Node7 -->
<g id="edge6_Node000006_Node000007" class="edge">
<title>Node6&#45;&gt;Node7</title>
<g id="a_edge6_Node000006_Node000007"><a xlink:title=" ">
<path fill="none" stroke="#63b8ff" d="M1106.45,-55.82C1210.56,-42.41 1318.63,-29.12 1389.73,-20.47"/>
<polygon fill="#63b8ff" stroke="#63b8ff" points="1106.21,-52.46 1096.74,-57.21 1107.1,-59.4 1106.21,-52.46"/>
</a>
</g>
</g>
<!-- Node8 -->
<g id="Node000008" class="node">
<title>Node8</title>
<g id="a_Node000008"><a xlink:href="most__minimal_2main_8cpp.html" target="_top" xlink:title=" ">
<polygon fill="white" stroke="#666666" points="1179.25,-20 1014.75,-20 1014.75,0 1179.25,0 1179.25,-20"/>
<text text-anchor="middle" x="1097" y="-6.5" font-family="Helvetica,sans-Serif" font-size="10.00">examples/most_minimal/main.cpp</text>
</a>
</g>
</g>
<!-- Node6&#45;&gt;Node8 -->
<g id="edge7_Node000006_Node000008" class="edge">
<title>Node6&#45;&gt;Node8</title>
<g id="a_edge7_Node000006_Node000008"><a xlink:title=" ">
<path fill="none" stroke="#63b8ff" d="M1056.13,-48.4C1066.23,-39.17 1078.42,-28.01 1086.84,-20.3"/>
<polygon fill="#63b8ff" stroke="#63b8ff" points="1054.29,-45.26 1049.28,-54.59 1059.02,-50.42 1054.29,-45.26"/>
</a>
</g>
</g>
<!-- Node9 -->
<g id="Node000009" class="node">
<title>Node9</title>
<g id="a_Node000009"><a xlink:href="serve__directory_2main_8cpp.html" target="_top" xlink:title=" ">
<polygon fill="white" stroke="#666666" points="2126.25,-20 1955.75,-20 1955.75,0 2126.25,0 2126.25,-20"/>
<text text-anchor="middle" x="2041" y="-6.5" font-family="Helvetica,sans-Serif" font-size="10.00">examples/serve_directory/main.cpp</text>
</a>
</g>
</g>
<!-- Node6&#45;&gt;Node9 -->
<g id="edge8_Node000006_Node000009" class="edge">
<title>Node6&#45;&gt;Node9</title>
<g id="a_edge8_Node000006_Node000009"><a xlink:title=" ">
<path fill="none" stroke="#63b8ff" d="M1106.55,-55.96C1479.95,-23.46 1576.89,-45.61 1947,-20 1949.78,-19.81 1952.61,-19.6 1955.46,-19.38"/>
<polygon fill="#63b8ff" stroke="#63b8ff" points="1106.36,-52.55 1096.71,-56.91 1106.97,-59.52 1106.36,-52.55"/>
</a>
</g>
</g>
<!-- Node10 -->
<g id="Node000010" class="node">
<title>Node10</title>
<g id="a_Node000010"><a xlink:href="simple__server_2main_8cpp.html" target="_top" xlink:title=" ">
<polygon fill="white" stroke="#666666" points="996.25,-20 831.75,-20 831.75,0 996.25,0 996.25,-20"/>
<text text-anchor="middle" x="914" y="-6.5" font-family="Helvetica,sans-Serif" font-size="10.00">examples/simple_server/main.cpp</text>
</a>
</g>
</g>
<!-- Node6&#45;&gt;Node10 -->
<g id="edge9_Node000006_Node000010" class="edge">
<title>Node6&#45;&gt;Node10</title>
<g id="a_edge9_Node000006_Node000010"><a xlink:title=" ">
<path fill="none" stroke="#63b8ff" d="M1006.48,-51.27C984.36,-41.64 955.35,-29.01 935.77,-20.48"/>
<polygon fill="#63b8ff" stroke="#63b8ff" points="1004.84,-54.81 1015.4,-55.59 1007.63,-48.39 1004.84,-54.81"/>
</a>
</g>
</g>
<!-- Node11 -->
<g id="Node000011" class="node">
<title>Node11</title>
<g id="a_Node000011"><a xlink:href="websocket_2main_8cpp.html" target="_top" xlink:title=" ">
<polygon fill="white" stroke="#666666" points="1937.5,-20 1786.5,-20 1786.5,0 1937.5,0 1937.5,-20"/>
<text text-anchor="middle" x="1862" y="-6.5" font-family="Helvetica,sans-Serif" font-size="10.00">examples/websocket/main.cpp</text>
</a>
</g>
</g>
<!-- Node6&#45;&gt;Node11 -->
<g id="edge10_Node000006_Node000011" class="edge">
<title>Node6&#45;&gt;Node11</title>
<g id="a_edge10_Node000006_Node000011"><a xlink:title=" ">
<path fill="none" stroke="#63b8ff" d="M1106.31,-55.95C1361.72,-31.58 1651.46,-18.75 1786.11,-13.65"/>
<polygon fill="#63b8ff" stroke="#63b8ff" points="1106.33,-52.53 1096.71,-56.97 1107,-59.5 1106.33,-52.53"/>
</a>
</g>
</g>
<!-- Node12 -->
<g id="Node000012" class="node">
<title>Node12</title>
<g id="a_Node000012"><a xlink:href="src_2roar_2routing_2request__listener_8cpp.html" target="_top" xlink:title=" ">
<polygon fill="white" stroke="#666666" points="1369,-20 1197,-20 1197,0 1369,0 1369,-20"/>
<text text-anchor="middle" x="1283" y="-6.5" font-family="Helvetica,sans-Serif" font-size="10.00">src/roar/routing/request_listener.cpp</text>
</a>
</g>
</g>
<!-- Node6&#45;&gt;Node12 -->
<g id="edge11_Node000006_Node000012" class="edge">
<title>Node6&#45;&gt;Node12</title>
<g id="a_edge11_Node000006_Node000012"><a xlink:title=" ">
<path fill="none" stroke="#63b8ff" d="M1091.59,-53.19C1136.17,-43.36 1198.78,-29.56 1240.09,-20.46"/>
<polygon fill="#63b8ff" stroke="#63b8ff" points="1090.97,-49.96 1081.96,-55.53 1092.48,-56.8 1090.97,-49.96"/>
</a>
</g>
</g>
<!-- Node6&#45;&gt;Node13 -->
<g id="edge12_Node000006_Node000013" class="edge">
<title>Node6&#45;&gt;Node13</title>
<g id="a_edge12_Node000006_Node000013"><a xlink:title=" ">
<path fill="none" stroke="#63b8ff" d="M969.62,-58.78C848.42,-47.77 598.73,-25.07 493.01,-15.46"/>
<polygon fill="#63b8ff" stroke="#63b8ff" points="968.96,-62.33 979.23,-59.75 969.59,-55.36 968.96,-62.33"/>
</a>
</g>
</g>
<!-- Node14&#45;&gt;Node5 -->
<g id="edge30_Node000014_Node000005" class="edge">
<title>Node14&#45;&gt;Node5</title>
<g id="a_edge30_Node000014_Node000005"><a xlink:title=" ">
<path fill="none" stroke="#63b8ff" d="M1319.54,-166.38C1225.32,-156.52 1086.3,-141.97 995.69,-132.49"/>
<polygon fill="#63b8ff" stroke="#63b8ff" points="1318.92,-169.94 1329.23,-167.5 1319.65,-162.98 1318.92,-169.94"/>
</a>
</g>
</g>
<!-- Node14&#45;&gt;Node6 -->
<g id="edge31_Node000014_Node000006" class="edge">
<title>Node14&#45;&gt;Node6</title>
<g id="a_edge31_Node000014_Node000006"><a xlink:title=" ">
<path fill="none" stroke="#63b8ff" d="M1395.42,-162.38C1365.22,-145.35 1316.64,-118.67 1297,-112 1260.7,-99.67 1160.5,-84.14 1095.9,-74.93"/>
<polygon fill="#63b8ff" stroke="#63b8ff" points="1393.46,-165.86 1403.88,-167.75 1396.91,-159.77 1393.46,-165.86"/>
</a>
</g>
</g>
<!-- Node14&#45;&gt;Node7 -->
<g id="edge14_Node000014_Node000007" class="edge">
<title>Node14&#45;&gt;Node7</title>
<g id="a_edge14_Node000014_Node000007"><a xlink:title=" ">
<path fill="none" stroke="#63b8ff" d="M1521.99,-165.22C1549.37,-158.57 1577.82,-148.19 1601,-132 1625.66,-114.77 1630.17,-104.75 1639,-76 1652.11,-33.35 1599.32,-17.93 1549.02,-12.71"/>
<polygon fill="#63b8ff" stroke="#63b8ff" points="1521.54,-161.96 1512.57,-167.59 1523.09,-168.79 1521.54,-161.96"/>
</a>
</g>
</g>
<!-- Node14&#45;&gt;Node9 -->
<g id="edge21_Node000014_Node000009" class="edge">
<title>Node14&#45;&gt;Node9</title>
<g id="a_edge21_Node000014_Node000009"><a xlink:title=" ">
<path fill="none" stroke="#63b8ff" d="M1526.7,-175.9C1722.63,-173.12 2127.42,-163.59 2183,-132 2215.83,-113.34 2244.24,-85.77 2221,-56 2207.82,-39.12 2159.75,-27.63 2116.6,-20.49"/>
<polygon fill="#63b8ff" stroke="#63b8ff" points="1526.77,-172.42 1516.82,-176.06 1526.86,-179.42 1526.77,-172.42"/>
</a>
</g>
</g>
<!-- Node14&#45;&gt;Node10 -->
<g id="edge22_Node000014_Node000010" class="edge">
<title>Node14&#45;&gt;Node10</title>
<g id="a_edge22_Node000014_Node000010"><a xlink:title=" ">
<path fill="none" stroke="#63b8ff" d="M1315.43,-173.44C1243.93,-168.65 1148.07,-157.56 1067,-132 1048.8,-126.26 1046.26,-120.14 1029,-112 991.52,-94.33 972.64,-104.96 943,-76 926.91,-60.28 919.04,-34.06 915.84,-20.21"/>
<polygon fill="#63b8ff" stroke="#63b8ff" points="1315.05,-176.98 1325.25,-174.13 1315.49,-170 1315.05,-176.98"/>
</a>
</g>
</g>
<!-- Node14&#45;&gt;Node11 -->
<g id="edge26_Node000014_Node000011" class="edge">
<title>Node14&#45;&gt;Node11</title>
<g id="a_edge26_Node000014_Node000011"><a xlink:title=" ">
<path fill="none" stroke="#63b8ff" d="M1526.78,-173.27C1657.89,-167.69 1867.51,-155.25 1895,-132 1921.29,-109.77 1923.69,-87.59 1910,-56 1903.37,-40.7 1888.69,-28.21 1877.3,-20.31"/>
<polygon fill="#63b8ff" stroke="#63b8ff" points="1526.76,-169.81 1516.91,-173.73 1527.05,-176.81 1526.76,-169.81"/>
</a>
</g>
</g>
<!-- Node14&#45;&gt;Node12 -->
<g id="edge32_Node000014_Node000012" class="edge">
<title>Node14&#45;&gt;Node12</title>
<g id="a_edge32_Node000014_Node000012"><a xlink:title=" ">
<path fill="none" stroke="#63b8ff" d="M1400.55,-160.71C1391.37,-152.71 1380.86,-142.55 1373,-132 1350.43,-101.72 1358.17,-85.82 1335,-56 1324.01,-41.86 1308.05,-28.84 1296.71,-20.48"/>
<polygon fill="#63b8ff" stroke="#63b8ff" points="1397.9,-163.9 1407.81,-167.65 1402.4,-158.53 1397.9,-163.9"/>
</a>
</g>
</g>
<!-- Node15 -->
<g id="Node000015" class="node">
<title>Node15</title>
<g id="a_Node000015"><a xlink:href="examples_2100__continue_2request__listener_8hpp.html" target="_top" xlink:title=" ">
<polygon fill="white" stroke="#666666" points="1591.75,-132 1382.25,-132 1382.25,-112 1591.75,-112 1591.75,-132"/>
<text text-anchor="middle" x="1487" y="-118.5" font-family="Helvetica,sans-Serif" font-size="10.00">examples/100_continue/request_listener.hpp</text>
</a>
</g>
</g>
<!-- Node14&#45;&gt;Node15 -->
<g id="edge15_Node000014_Node000015" class="edge">
<title>Node14&#45;&gt;Node15</title>
<g id="a_edge15_Node000014_Node000015"><a xlink:title=" ">
<path fill="none" stroke="#63b8ff" d="M1440.95,-160.68C1452.3,-151.39 1466.12,-140.09 1475.64,-132.3"/>
<polygon fill="#63b8ff" stroke="#63b8ff" points="1439.02,-158.55 1433.5,-167.59 1443.45,-163.97 1439.02,-158.55"/>
</a>
</g>
</g>
<!-- Node17 -->
<g id="Node000017" class="node">
<title>Node17</title>
<g id="a_Node000017"><a xlink:href="file__server_8hpp.html" target="_top" xlink:title=" ">
<polygon fill="white" stroke="#666666" points="2174.25,-132 1979.75,-132 1979.75,-112 2174.25,-112 2174.25,-132"/>
<text text-anchor="middle" x="2077" y="-118.5" font-family="Helvetica,sans-Serif" font-size="10.00">examples/serve_directory/file_server.hpp</text>
</a>
</g>
</g>
<!-- Node14&#45;&gt;Node17 -->
<g id="edge18_Node000014_Node000017" class="edge">
<title>Node14&#45;&gt;Node17</title>
<g id="a_edge18_Node000014_Node000017"><a xlink:title=" ">
<path fill="none" stroke="#63b8ff" d="M1526.76,-168.29C1651.8,-158 1858.19,-141.01 1979.51,-131.03"/>
<polygon fill="#63b8ff" stroke="#63b8ff" points="1526.72,-164.87 1517.04,-169.18 1527.29,-171.84 1526.72,-164.87"/>
</a>
</g>
</g>
<!-- Node19 -->
<g id="Node000019" class="node">
<title>Node19</title>
<g id="a_Node000019"><a xlink:href="examples_2simple__server_2request__listener_8hpp.html" target="_top" xlink:title=" ">
<polygon fill="white" stroke="#666666" points="1288.25,-132 1075.75,-132 1075.75,-112 1288.25,-112 1288.25,-132"/>
<text text-anchor="middle" x="1182" y="-118.5" font-family="Helvetica,sans-Serif" font-size="10.00">examples/simple_server/request_listener.hpp</text>
</a>
</g>
</g>
<!-- Node14&#45;&gt;Node19 -->
<g id="edge23_Node000014_Node000019" class="edge">
<title>Node14&#45;&gt;Node19</title>
<g id="a_edge23_Node000014_Node000019"><a xlink:title=" ">
<path fill="none" stroke="#63b8ff" d="M1368.44,-165.13C1324.98,-155.31 1264.07,-141.54 1223.86,-132.46"/>
<polygon fill="#63b8ff" stroke="#63b8ff" points="1367.57,-168.74 1378.1,-167.53 1369.11,-161.91 1367.57,-168.74"/>
</a>
</g>
</g>
<!-- Node21 -->
<g id="Node000021" class="node">
<title>Node21</title>
<g id="a_Node000021"><a xlink:href="examples_2websocket_2request__listener_8hpp.html" target="_top" xlink:title=" ">
<polygon fill="white" stroke="#666666" points="1885.5,-132 1686.5,-132 1686.5,-112 1885.5,-112 1885.5,-132"/>
<text text-anchor="middle" x="1786" y="-118.5" font-family="Helvetica,sans-Serif" font-size="10.00">examples/websocket/request_listener.hpp</text>
</a>
</g>
</g>
<!-- Node14&#45;&gt;Node21 -->
<g id="edge27_Node000014_Node000021" class="edge">
<title>Node14&#45;&gt;Node21</title>
<g id="a_edge27_Node000014_Node000021"><a xlink:title=" ">
<path fill="none" stroke="#63b8ff" d="M1495.84,-165.93C1562.49,-156.07 1658.97,-141.79 1722.08,-132.46"/>
<polygon fill="#63b8ff" stroke="#63b8ff" points="1495.38,-162.61 1486,-167.53 1496.4,-169.53 1495.38,-162.61"/>
</a>
</g>
</g>
<!-- Node15&#45;&gt;Node7 -->
<g id="edge16_Node000015_Node000007" class="edge">
<title>Node15&#45;&gt;Node7</title>
<g id="a_edge16_Node000015_Node000007"><a xlink:title=" ">
<path fill="none" stroke="#63b8ff" d="M1447.44,-107.23C1433.36,-100.19 1419.02,-90.07 1411,-76 1398.29,-53.7 1427.99,-32.19 1449.12,-20.36"/>
<polygon fill="#63b8ff" stroke="#63b8ff" points="1445.51,-110.65 1456.06,-111.61 1448.42,-104.28 1445.51,-110.65"/>
</a>
</g>
</g>
<!-- Node16 -->
<g id="Node000016" class="node">
<title>Node16</title>
<g id="a_Node000016"><a xlink:href="examples_2100__continue_2request__listener_8cpp.html" target="_top" xlink:title=" ">
<polygon fill="white" stroke="#666666" points="1629.75,-76 1420.25,-76 1420.25,-56 1629.75,-56 1629.75,-76"/>
<text text-anchor="middle" x="1525" y="-62.5" font-family="Helvetica,sans-Serif" font-size="10.00">examples/100_continue/request_listener.cpp</text>
</a>
</g>
</g>
<!-- Node15&#45;&gt;Node16 -->
<g id="edge17_Node000015_Node000016" class="edge">
<title>Node15&#45;&gt;Node16</title>
<g id="a_edge17_Node000015_Node000016"><a xlink:title=" ">
<path fill="none" stroke="#63b8ff" d="M1499.86,-102.72C1506.11,-93.84 1513.36,-83.55 1518.46,-76.3"/>
<polygon fill="#63b8ff" stroke="#63b8ff" points="1496.51,-100.4 1493.62,-110.59 1502.24,-104.43 1496.51,-100.4"/>
</a>
</g>
</g>
<!-- Node17&#45;&gt;Node9 -->
<g id="edge20_Node000017_Node000009" class="edge">
<title>Node17&#45;&gt;Node9</title>
<g id="a_edge20_Node000017_Node000009"><a xlink:title=" ">
<path fill="none" stroke="#63b8ff" d="M2042.2,-106.69C2029.37,-99.5 2016.21,-89.42 2009,-76 1998.52,-56.5 2017.58,-33.09 2030.51,-20.36"/>
<polygon fill="#63b8ff" stroke="#63b8ff" points="2040.35,-110.19 2050.85,-111.63 2043.54,-103.95 2040.35,-110.19"/>
</a>
</g>
</g>
<!-- Node18 -->
<g id="Node000018" class="node">
<title>Node18</title>
<g id="a_Node000018"><a xlink:href="file__server_8cpp.html" target="_top" xlink:title=" ">
<polygon fill="white" stroke="#666666" points="2212.25,-76 2017.75,-76 2017.75,-56 2212.25,-56 2212.25,-76"/>
<text text-anchor="middle" x="2115" y="-62.5" font-family="Helvetica,sans-Serif" font-size="10.00">examples/serve_directory/file_server.cpp</text>
</a>
</g>
</g>
<!-- Node17&#45;&gt;Node18 -->
<g id="edge19_Node000017_Node000018" class="edge">
<title>Node17&#45;&gt;Node18</title>
<g id="a_edge19_Node000017_Node000018"><a xlink:title=" ">
<path fill="none" stroke="#63b8ff" d="M2089.86,-102.72C2096.11,-93.84 2103.36,-83.55 2108.46,-76.3"/>
<polygon fill="#63b8ff" stroke="#63b8ff" points="2086.51,-100.4 2083.62,-110.59 2092.24,-104.43 2086.51,-100.4"/>
</a>
</g>
</g>
<!-- Node19&#45;&gt;Node10 -->
<g id="edge24_Node000019_Node000010" class="edge">
<title>Node19&#45;&gt;Node10</title>
<g id="a_edge24_Node000019_Node000010"><a xlink:title=" ">
<path fill="none" stroke="#63b8ff" d="M1065.1,-109.41C1033.39,-102.76 1000.09,-92.33 972,-76 947.94,-62.01 928.5,-34.55 919.47,-20.21"/>
<polygon fill="#63b8ff" stroke="#63b8ff" points="1064.3,-113.02 1074.78,-111.52 1065.65,-106.15 1064.3,-113.02"/>
</a>
</g>
</g>
<!-- Node20 -->
<g id="Node000020" class="node">
<title>Node20</title>
<g id="a_Node000020"><a xlink:href="examples_2simple__server_2request__listener_8cpp.html" target="_top" xlink:title=" ">
<polygon fill="white" stroke="#666666" points="1326.25,-76 1113.75,-76 1113.75,-56 1326.25,-56 1326.25,-76"/>
<text text-anchor="middle" x="1220" y="-62.5" font-family="Helvetica,sans-Serif" font-size="10.00">examples/simple_server/request_listener.cpp</text>
</a>
</g>
</g>
<!-- Node19&#45;&gt;Node20 -->
<g id="edge25_Node000019_Node000020" class="edge">
<title>Node19&#45;&gt;Node20</title>
<g id="a_edge25_Node000019_Node000020"><a xlink:title=" ">
<path fill="none" stroke="#63b8ff" d="M1194.86,-102.72C1201.11,-93.84 1208.36,-83.55 1213.46,-76.3"/>
<polygon fill="#63b8ff" stroke="#63b8ff" points="1191.51,-100.4 1188.62,-110.59 1197.24,-104.43 1191.51,-100.4"/>
</a>
</g>
</g>
<!-- Node21&#45;&gt;Node11 -->
<g id="edge28_Node000021_Node000011" class="edge">
<title>Node21&#45;&gt;Node11</title>
<g id="a_edge28_Node000021_Node000011"><a xlink:title=" ">
<path fill="none" stroke="#63b8ff" d="M1851.45,-107.97C1868.44,-101.3 1884.82,-91.22 1895,-76 1907.53,-57.28 1886.68,-33.17 1872.81,-20.21"/>
<polygon fill="#63b8ff" stroke="#63b8ff" points="1850.67,-104.88 1842.41,-111.52 1853.01,-111.48 1850.67,-104.88"/>
</a>
</g>
</g>
<!-- Node22 -->
<g id="Node000022" class="node">
<title>Node22</title>
<g id="a_Node000022"><a xlink:href="examples_2websocket_2request__listener_8cpp.html" target="_top" xlink:title=" ">
<polygon fill="white" stroke="#666666" points="1885.5,-76 1686.5,-76 1686.5,-56 1885.5,-56 1885.5,-76"/>
<text text-anchor="middle" x="1786" y="-62.5" font-family="Helvetica,sans-Serif" font-size="10.00">examples/websocket/request_listener.cpp</text>
</a>
</g>
</g>
<!-- Node21&#45;&gt;Node22 -->
<g id="edge29_Node000021_Node000022" class="edge">
<title>Node21&#45;&gt;Node22</title>
<g id="a_edge29_Node000021_Node000022"><a xlink:title=" ">
<path fill="none" stroke="#63b8ff" d="M1786,-100.71C1786,-92.32 1786,-83.01 1786,-76.3"/>
<polygon fill="#63b8ff" stroke="#63b8ff" points="1782.5,-100.59 1786,-110.59 1789.5,-100.59 1782.5,-100.59"/>
</a>
</g>
</g>
</g>
</svg>

<g id="navigator" transform="translate(0 0)" fill="#404254">
  <rect fill="#f2f5e9" fill-opacity="0.5" stroke="#606060" stroke-width=".5" x="0" y="0" width="60" height="60"/>
  <use id="zoomplus" xlink:href="#zoomPlus" x="17" y="9" onmousedown="handleZoom(evt,'in')"/>
  <use id="zoomminus" xlink:href="#zoomMin" x="42" y="9" onmousedown="handleZoom(evt,'out')"/>
  <use id="reset" xlink:href="#resetDef" x="30" y="36" onmousedown="handleReset()"/>
   <use id="arrowup" xlink:href="#arrowUp" x="0" y="0" onmousedown="handlePan(0,-1)"/>
  <use id="arrowright" xlink:href="#arrowRight" x="0" y="0" onmousedown="handlePan(1,0)"/>
  <use id="arrowdown" xlink:href="#arrowDown" x="0" y="0" onmousedown="handlePan(0,1)"/>
  <use id="arrowleft" xlink:href="#arrowLeft" x="0" y="0" onmousedown="handlePan(-1,0)"/>
</g>
<svg viewBox="0 0 15 15" width="100%" height="30px" preserveAspectRatio="xMaxYMin meet">
 <g id="arrow_out" transform="scale(0.3 0.3)">
  <a xlink:href="response_8hpp__dep__incl_org.svg" target="_base">
   <rect id="button" ry="5" rx="5" y="6" x="6" height="38" width="38"
        fill="#f2f5e9" fill-opacity="0.5" stroke="#606060" stroke-width="1.0"/>
   <path id="arrow"
     d="M 11.500037,31.436501 C 11.940474,20.09759 22.043105,11.32322 32.158766,21.979434 L 37.068811,17.246167 C 37.068811,17.246167 37.088388,32 37.088388,32 L 22.160133,31.978069 C 22.160133,31.978069 26.997745,27.140456 26.997745,27.140456 C 18.528582,18.264221 13.291696,25.230495 11.500037,31.436501 z"
     style="fill:#404040;"/>
  </a>
 </g>
</svg>

<style type='text/css'>
<![CDATA[
[data-mouse-over-selected='false'] { opacity: 0.7; }
[data-mouse-over-selected='true']  { opacity: 1.0; }
]]>
</style>
<script type="application/ecmascript"><![CDATA[
document.addEventListener('DOMContentLoaded', (event) => {
  highlightEdges();
  highlightAdjacentNodes();
});
]]></script>
</svg>
