<?xml version="1.0" encoding="UTF-8" standalone="no"?>
<!DOCTYPE svg PUBLIC "-//W3C//DTD SVG 1.1//EN"
 "http://www.w3.org/Graphics/SVG/1.1/DTD/svg11.dtd">
<!-- Generated by graphviz version 8.1.0 (0)
 -->
<!-- Title: src/roar/curl/response.cpp Pages: 1 -->
<svg width="398pt" height="196pt"
 viewBox="0.00 0.00 398.25 196.00" xmlns="http://www.w3.org/2000/svg" xmlns:xlink="http://www.w3.org/1999/xlink">
<g id="graph0" class="graph" transform="scale(1 1) rotate(0) translate(4 192)">
<title>src/roar/curl/response.cpp</title>
<!-- Node1 -->
<g id="Node000001" class="node">
<title>Node1</title>
<g id="a_Node000001"><a xlink:title=" ">
<polygon fill="#999999" stroke="#666666" points="267.25,-188 138,-188 138,-168 267.25,-168 267.25,-188"/>
<text text-anchor="middle" x="202.62" y="-174.5" font-family="Helvetica,sans-Serif" font-size="10.00">src/roar/curl/response.cpp</text>
</a>
</g>
</g>
<!-- Node2 -->
<g id="Node000002" class="node">
<title>Node2</title>
<g id="a_Node000002"><a xlink:title=" ">
<polygon fill="#e0e0e0" stroke="#999999" points="90.38,-132 36.88,-132 36.88,-112 90.38,-112 90.38,-132"/>
<text text-anchor="middle" x="63.62" y="-118.5" font-family="Helvetica,sans-Serif" font-size="10.00">iostream</text>
</a>
</g>
</g>
<!-- Node1&#45;&gt;Node2 -->
<g id="edge1_Node000001_Node000002" class="edge">
<title>Node1&#45;&gt;Node2</title>
<g id="a_edge1_Node000001_Node000002"><a xlink:title=" ">
<path fill="none" stroke="#63b8ff" d="M178.41,-167.59C156.23,-158.97 123.13,-146.12 98.17,-136.42"/>
<polygon fill="#63b8ff" stroke="#63b8ff" points="99.61,-132.84 89.03,-132.48 97.08,-139.36 99.61,-132.84"/>
</a>
</g>
</g>
<!-- Node3 -->
<g id="Node000003" class="node">
<title>Node3</title>
<g id="a_Node000003"><a xlink:href="curl_2response_8hpp.html" target="_top" xlink:title=" ">
<polygon fill="white" stroke="#666666" points="259,-132 146.25,-132 146.25,-112 259,-112 259,-132"/>
<text text-anchor="middle" x="202.62" y="-118.5" font-family="Helvetica,sans-Serif" font-size="10.00">roar/curl/response.hpp</text>
</a>
</g>
</g>
<!-- Node1&#45;&gt;Node3 -->
<g id="edge2_Node000001_Node000003" class="edge">
<title>Node1&#45;&gt;Node3</title>
<g id="a_edge2_Node000001_Node000003"><a xlink:title=" ">
<path fill="none" stroke="#63b8ff" d="M202.62,-167.59C202.62,-160.86 202.62,-151.53 202.62,-143.15"/>
<polygon fill="#63b8ff" stroke="#63b8ff" points="206.13,-143.3 202.62,-133.3 199.13,-143.3 206.13,-143.3"/>
</a>
</g>
</g>
<!-- Node4 -->
<g id="Node000004" class="node">
<title>Node4</title>
<g id="a_Node000004"><a xlink:href="instance_8hpp.html" target="_top" xlink:title=" ">
<polygon fill="white" stroke="#666666" points="140.38,-76 68.88,-76 68.88,-56 140.38,-56 140.38,-76"/>
<text text-anchor="middle" x="104.62" y="-62.5" font-family="Helvetica,sans-Serif" font-size="10.00">instance.hpp</text>
</a>
</g>
</g>
<!-- Node1&#45;&gt;Node4 -->
<g id="edge10_Node000001_Node000004" class="edge">
<title>Node1&#45;&gt;Node4</title>
<g id="a_edge10_Node000001_Node000004"><a xlink:title=" ">
<path fill="none" stroke="#63b8ff" d="M184.23,-167.58C170.09,-159.61 150.8,-147.1 137.62,-132 125.81,-118.46 116.94,-99.93 111.4,-86.12"/>
<polygon fill="#63b8ff" stroke="#63b8ff" points="114.47,-85.36 107.66,-77.25 107.92,-87.84 114.47,-85.36"/>
</a>
</g>
</g>
<!-- Node8 -->
<g id="Node000008" class="node">
<title>Node8</title>
<g id="a_Node000008"><a xlink:title=" ">
<polygon fill="#e0e0e0" stroke="#999999" points="390.25,-76 255,-76 255,-56 390.25,-56 390.25,-76"/>
<text text-anchor="middle" x="322.62" y="-62.5" font-family="Helvetica,sans-Serif" font-size="10.00">boost/beast/http/status.hpp</text>
</a>
</g>
</g>
<!-- Node1&#45;&gt;Node8 -->
<g id="edge11_Node000001_Node000008" class="edge">
<title>Node1&#45;&gt;Node8</title>
<g id="a_edge11_Node000001_Node000008"><a xlink:title=" ">
<path fill="none" stroke="#63b8ff" d="M218.71,-167.53C232.42,-159.08 252.28,-145.93 267.62,-132 283.63,-117.47 299.3,-98.33 309.79,-84.58"/>
<polygon fill="#63b8ff" stroke="#63b8ff" points="312.98,-87.16 316.17,-77.06 307.38,-82.97 312.98,-87.16"/>
</a>
</g>
</g>
<!-- Node10 -->
<g id="Node000010" class="node">
<title>Node10</title>
<g id="a_Node000010"><a xlink:title=" ">
<polygon fill="#e0e0e0" stroke="#999999" points="390.25,-132 315,-132 315,-112 390.25,-112 390.25,-132"/>
<text text-anchor="middle" x="352.62" y="-118.5" font-family="Helvetica,sans-Serif" font-size="10.00">curl/system.h</text>
</a>
</g>
</g>
<!-- Node1&#45;&gt;Node10 -->
<g id="edge12_Node000001_Node000010" class="edge">
<title>Node1&#45;&gt;Node10</title>
<g id="a_edge12_Node000001_Node000010"><a xlink:title=" ">
<path fill="none" stroke="#63b8ff" d="M228.75,-167.59C252.91,-158.9 289.05,-145.89 316.07,-136.16"/>
<polygon fill="#63b8ff" stroke="#63b8ff" points="317.07,-139.16 325.29,-132.48 314.7,-132.57 317.07,-139.16"/>
</a>
</g>
</g>
<!-- Node3&#45;&gt;Node4 -->
<g id="edge3_Node000003_Node000004" class="edge">
<title>Node3&#45;&gt;Node4</title>
<g id="a_edge3_Node000003_Node000004"><a xlink:title=" ">
<path fill="none" stroke="#63b8ff" d="M185.55,-111.59C170.61,-103.36 148.65,-91.26 131.37,-81.74"/>
<polygon fill="#63b8ff" stroke="#63b8ff" points="133.28,-78.24 122.83,-76.48 129.9,-84.37 133.28,-78.24"/>
</a>
</g>
</g>
<!-- Node5 -->
<g id="Node000005" class="node">
<title>Node5</title>
<g id="a_Node000005"><a xlink:title=" ">
<polygon fill="#e0e0e0" stroke="#999999" points="205,-20 146.25,-20 146.25,0 205,0 205,-20"/>
<text text-anchor="middle" x="175.62" y="-6.5" font-family="Helvetica,sans-Serif" font-size="10.00">curl/curl.h</text>
</a>
</g>
</g>
<!-- Node3&#45;&gt;Node5 -->
<g id="edge7_Node000003_Node000005" class="edge">
<title>Node3&#45;&gt;Node5</title>
<g id="a_edge7_Node000003_Node000005"><a xlink:title=" ">
<path fill="none" stroke="#63b8ff" d="M199.14,-111.8C195.82,-102.79 190.87,-88.6 187.62,-76 183.77,-61.03 180.65,-43.81 178.55,-30.85"/>
<polygon fill="#63b8ff" stroke="#63b8ff" points="181.92,-30.69 176.93,-21.35 175,-31.76 181.92,-30.69"/>
</a>
</g>
</g>
<!-- Node3&#45;&gt;Node8 -->
<g id="edge8_Node000003_Node000008" class="edge">
<title>Node3&#45;&gt;Node8</title>
<g id="a_edge8_Node000003_Node000008"><a xlink:title=" ">
<path fill="none" stroke="#63b8ff" d="M223.53,-111.59C242.34,-103.13 270.24,-90.58 291.64,-80.94"/>
<polygon fill="#63b8ff" stroke="#63b8ff" points="292.88,-83.77 300.56,-76.48 290,-77.39 292.88,-83.77"/>
</a>
</g>
</g>
<!-- Node9 -->
<g id="Node000009" class="node">
<title>Node9</title>
<g id="a_Node000009"><a xlink:title=" ">
<polygon fill="#e0e0e0" stroke="#999999" points="236.62,-76 196.62,-76 196.62,-56 236.62,-56 236.62,-76"/>
<text text-anchor="middle" x="216.62" y="-62.5" font-family="Helvetica,sans-Serif" font-size="10.00">string</text>
</a>
</g>
</g>
<!-- Node3&#45;&gt;Node9 -->
<g id="edge9_Node000003_Node000009" class="edge">
<title>Node3&#45;&gt;Node9</title>
<g id="a_edge9_Node000003_Node000009"><a xlink:title=" ">
<path fill="none" stroke="#63b8ff" d="M205.06,-111.59C206.83,-104.78 209.28,-95.32 211.48,-86.86"/>
<polygon fill="#63b8ff" stroke="#63b8ff" points="215.09,-87.86 214.21,-77.3 208.32,-86.1 215.09,-87.86"/>
</a>
</g>
</g>
<!-- Node4&#45;&gt;Node5 -->
<g id="edge4_Node000004_Node000005" class="edge">
<title>Node4&#45;&gt;Node5</title>
<g id="a_edge4_Node000004_Node000005"><a xlink:title=" ">
<path fill="none" stroke="#63b8ff" d="M116.99,-55.59C127.38,-47.7 142.44,-36.24 154.7,-26.92"/>
<polygon fill="#63b8ff" stroke="#63b8ff" points="156.56,-29.14 162.4,-20.3 152.32,-23.57 156.56,-29.14"/>
</a>
</g>
</g>
<!-- Node6 -->
<g id="Node000006" class="node">
<title>Node6</title>
<g id="a_Node000006"><a xlink:title=" ">
<polygon fill="#e0e0e0" stroke="#999999" points="51.25,-20 0,-20 0,0 51.25,0 51.25,-20"/>
<text text-anchor="middle" x="25.62" y="-6.5" font-family="Helvetica,sans-Serif" font-size="10.00">memory</text>
</a>
</g>
</g>
<!-- Node4&#45;&gt;Node6 -->
<g id="edge5_Node000004_Node000006" class="edge">
<title>Node4&#45;&gt;Node6</title>
<g id="a_edge5_Node000004_Node000006"><a xlink:title=" ">
<path fill="none" stroke="#63b8ff" d="M90.86,-55.59C79.15,-47.59 62.1,-35.93 48.37,-26.54"/>
<polygon fill="#63b8ff" stroke="#63b8ff" points="50.72,-23.23 40.49,-20.48 46.77,-29.01 50.72,-23.23"/>
</a>
</g>
</g>
<!-- Node7 -->
<g id="Node000007" class="node">
<title>Node7</title>
<g id="a_Node000007"><a xlink:title=" ">
<polygon fill="#e0e0e0" stroke="#999999" points="128,-20 69.25,-20 69.25,0 128,0 128,-20"/>
<text text-anchor="middle" x="98.62" y="-6.5" font-family="Helvetica,sans-Serif" font-size="10.00">stdexcept</text>
</a>
</g>
</g>
<!-- Node4&#45;&gt;Node7 -->
<g id="edge6_Node000004_Node000007" class="edge">
<title>Node4&#45;&gt;Node7</title>
<g id="a_edge6_Node000004_Node000007"><a xlink:title=" ">
<path fill="none" stroke="#63b8ff" d="M103.58,-55.59C102.83,-48.86 101.8,-39.53 100.86,-31.15"/>
<polygon fill="#63b8ff" stroke="#63b8ff" points="104.24,-30.85 99.66,-21.3 97.28,-31.62 104.24,-30.85"/>
</a>
</g>
</g>
</g>
</svg>
