<?xml version="1.0" encoding="UTF-8" standalone="no"?>
<!DOCTYPE svg PUBLIC "-//W3C//DTD SVG 1.1//EN"
 "http://www.w3.org/Graphics/SVG/1.1/DTD/svg11.dtd">
<!-- Generated by graphviz version 2.44.1 (20211215.1903)
 -->
<!-- Title: src/roar/curl/response.cpp Pages: 1 -->
<svg width="402pt" height="196pt"
 viewBox="0.00 0.00 402.00 196.00" xmlns="http://www.w3.org/2000/svg" xmlns:xlink="http://www.w3.org/1999/xlink">
<g id="graph0" class="graph" transform="scale(1 1) rotate(0) translate(4 192)">
<title>src/roar/curl/response.cpp</title>
<!-- Node1 -->
<g id="node1" class="node">
<title>Node1</title>
<g id="a_node1"><a xlink:title=" ">
<polygon fill="#bfbfbf" stroke="black" points="140,-168.5 140,-187.5 270,-187.5 270,-168.5 140,-168.5"/>
<text text-anchor="middle" x="205" y="-175.5" font-family="Helvetica,sans-Serif" font-size="10.00">src/roar/curl/response.cpp</text>
</a>
</g>
</g>
<!-- Node2 -->
<g id="node2" class="node">
<title>Node2</title>
<g id="a_node2"><a xlink:title=" ">
<polygon fill="none" stroke="#bfbfbf" points="38,-112.5 38,-131.5 92,-131.5 92,-112.5 38,-112.5"/>
<text text-anchor="middle" x="65" y="-119.5" font-family="Helvetica,sans-Serif" font-size="10.00">iostream</text>
</a>
</g>
</g>
<!-- Node1&#45;&gt;Node2 -->
<g id="edge1" class="edge">
<title>Node1&#45;&gt;Node2</title>
<path fill="none" stroke="midnightblue" d="M182.82,-168.44C159.57,-159.48 122.85,-145.31 96.58,-135.18"/>
<polygon fill="midnightblue" stroke="midnightblue" points="97.67,-131.85 87.08,-131.52 95.15,-138.38 97.67,-131.85"/>
</g>
<!-- Node3 -->
<g id="node3" class="node">
<title>Node3</title>
<g id="a_node3"><a xlink:href="curl_2response_8hpp.html" target="_top" xlink:title=" ">
<polygon fill="none" stroke="black" points="148.5,-112.5 148.5,-131.5 261.5,-131.5 261.5,-112.5 148.5,-112.5"/>
<text text-anchor="middle" x="205" y="-119.5" font-family="Helvetica,sans-Serif" font-size="10.00">roar/curl/response.hpp</text>
</a>
</g>
</g>
<!-- Node1&#45;&gt;Node3 -->
<g id="edge2" class="edge">
<title>Node1&#45;&gt;Node3</title>
<path fill="none" stroke="midnightblue" d="M205,-168.08C205,-161.01 205,-150.86 205,-141.99"/>
<polygon fill="midnightblue" stroke="midnightblue" points="208.5,-141.75 205,-131.75 201.5,-141.75 208.5,-141.75"/>
</g>
<!-- Node4 -->
<g id="node4" class="node">
<title>Node4</title>
<g id="a_node4"><a xlink:href="instance_8hpp.html" target="_top" xlink:title=" ">
<polygon fill="none" stroke="black" points="70,-56.5 70,-75.5 142,-75.5 142,-56.5 70,-56.5"/>
<text text-anchor="middle" x="106" y="-63.5" font-family="Helvetica,sans-Serif" font-size="10.00">instance.hpp</text>
</a>
</g>
</g>
<!-- Node1&#45;&gt;Node4 -->
<g id="edge10" class="edge">
<title>Node1&#45;&gt;Node4</title>
<path fill="none" stroke="midnightblue" d="M188.37,-168.5C174.14,-160.57 153.81,-147.63 140,-132 127.77,-118.16 118.49,-99.14 112.73,-85.25"/>
<polygon fill="midnightblue" stroke="midnightblue" points="115.94,-83.83 109.03,-75.8 109.42,-86.39 115.94,-83.83"/>
</g>
<!-- Node8 -->
<g id="node8" class="node">
<title>Node8</title>
<g id="a_node8"><a xlink:title=" ">
<polygon fill="none" stroke="#bfbfbf" points="258,-56.5 258,-75.5 394,-75.5 394,-56.5 258,-56.5"/>
<text text-anchor="middle" x="326" y="-63.5" font-family="Helvetica,sans-Serif" font-size="10.00">boost/beast/http/status.hpp</text>
</a>
</g>
</g>
<!-- Node1&#45;&gt;Node8 -->
<g id="edge11" class="edge">
<title>Node1&#45;&gt;Node8</title>
<path fill="none" stroke="midnightblue" d="M219.99,-168.4C233.94,-160.03 254.93,-146.48 271,-132 287.39,-117.23 303.37,-97.58 313.84,-83.76"/>
<polygon fill="midnightblue" stroke="midnightblue" points="316.73,-85.75 319.88,-75.64 311.11,-81.58 316.73,-85.75"/>
</g>
<!-- Node10 -->
<g id="node10" class="node">
<title>Node10</title>
<g id="a_node10"><a xlink:title=" ">
<polygon fill="none" stroke="#bfbfbf" points="318,-112.5 318,-131.5 394,-131.5 394,-112.5 318,-112.5"/>
<text text-anchor="middle" x="356" y="-119.5" font-family="Helvetica,sans-Serif" font-size="10.00">curl/system.h</text>
</a>
</g>
</g>
<!-- Node1&#45;&gt;Node10 -->
<g id="edge12" class="edge">
<title>Node1&#45;&gt;Node10</title>
<path fill="none" stroke="midnightblue" d="M228.93,-168.44C254.22,-159.4 294.3,-145.06 322.68,-134.92"/>
<polygon fill="midnightblue" stroke="midnightblue" points="323.95,-138.18 332.19,-131.52 321.59,-131.59 323.95,-138.18"/>
</g>
<!-- Node3&#45;&gt;Node4 -->
<g id="edge3" class="edge">
<title>Node3&#45;&gt;Node4</title>
<path fill="none" stroke="midnightblue" d="M189.09,-112.32C173.36,-103.74 149.06,-90.49 130.79,-80.52"/>
<polygon fill="midnightblue" stroke="midnightblue" points="132.32,-77.37 121.87,-75.65 128.97,-83.52 132.32,-77.37"/>
</g>
<!-- Node5 -->
<g id="node5" class="node">
<title>Node5</title>
<g id="a_node5"><a xlink:title=" ">
<polygon fill="none" stroke="#bfbfbf" points="147.5,-0.5 147.5,-19.5 206.5,-19.5 206.5,-0.5 147.5,-0.5"/>
<text text-anchor="middle" x="177" y="-7.5" font-family="Helvetica,sans-Serif" font-size="10.00">curl/curl.h</text>
</a>
</g>
</g>
<!-- Node3&#45;&gt;Node5 -->
<g id="edge7" class="edge">
<title>Node3&#45;&gt;Node5</title>
<path fill="none" stroke="midnightblue" d="M201.8,-112.47C198.52,-103.49 193.42,-88.89 190,-76 185.93,-60.69 182.48,-43.05 180.16,-30.01"/>
<polygon fill="midnightblue" stroke="midnightblue" points="183.57,-29.17 178.42,-19.91 176.67,-30.36 183.57,-29.17"/>
</g>
<!-- Node3&#45;&gt;Node8 -->
<g id="edge8" class="edge">
<title>Node3&#45;&gt;Node8</title>
<path fill="none" stroke="midnightblue" d="M224.17,-112.44C243.91,-103.64 274.89,-89.81 297.49,-79.72"/>
<polygon fill="midnightblue" stroke="midnightblue" points="299.21,-82.79 306.92,-75.52 296.36,-76.4 299.21,-82.79"/>
</g>
<!-- Node9 -->
<g id="node9" class="node">
<title>Node9</title>
<g id="a_node9"><a xlink:title=" ">
<polygon fill="none" stroke="#bfbfbf" points="198.5,-56.5 198.5,-75.5 239.5,-75.5 239.5,-56.5 198.5,-56.5"/>
<text text-anchor="middle" x="219" y="-63.5" font-family="Helvetica,sans-Serif" font-size="10.00">string</text>
</a>
</g>
</g>
<!-- Node3&#45;&gt;Node9 -->
<g id="edge9" class="edge">
<title>Node3&#45;&gt;Node9</title>
<path fill="none" stroke="midnightblue" d="M207.31,-112.08C209.17,-104.93 211.84,-94.64 214.15,-85.69"/>
<polygon fill="midnightblue" stroke="midnightblue" points="217.61,-86.31 216.73,-75.75 210.83,-84.55 217.61,-86.31"/>
</g>
<!-- Node4&#45;&gt;Node5 -->
<g id="edge4" class="edge">
<title>Node4&#45;&gt;Node5</title>
<path fill="none" stroke="midnightblue" d="M117.41,-56.32C128.11,-48.18 144.34,-35.84 157.16,-26.09"/>
<polygon fill="midnightblue" stroke="midnightblue" points="159.54,-28.67 165.39,-19.83 155.31,-23.1 159.54,-28.67"/>
</g>
<!-- Node6 -->
<g id="node6" class="node">
<title>Node6</title>
<g id="a_node6"><a xlink:title=" ">
<polygon fill="none" stroke="#bfbfbf" points="0,-0.5 0,-19.5 52,-19.5 52,-0.5 0,-0.5"/>
<text text-anchor="middle" x="26" y="-7.5" font-family="Helvetica,sans-Serif" font-size="10.00">memory</text>
</a>
</g>
</g>
<!-- Node4&#45;&gt;Node6 -->
<g id="edge5" class="edge">
<title>Node4&#45;&gt;Node6</title>
<path fill="none" stroke="midnightblue" d="M93.15,-56.32C80.78,-47.98 61.87,-35.21 47.26,-25.35"/>
<polygon fill="midnightblue" stroke="midnightblue" points="49.07,-22.35 38.82,-19.65 45.15,-28.15 49.07,-22.35"/>
</g>
<!-- Node7 -->
<g id="node7" class="node">
<title>Node7</title>
<g id="a_node7"><a xlink:title=" ">
<polygon fill="none" stroke="#bfbfbf" points="70.5,-0.5 70.5,-19.5 129.5,-19.5 129.5,-0.5 70.5,-0.5"/>
<text text-anchor="middle" x="100" y="-7.5" font-family="Helvetica,sans-Serif" font-size="10.00">stdexcept</text>
</a>
</g>
</g>
<!-- Node4&#45;&gt;Node7 -->
<g id="edge6" class="edge">
<title>Node4&#45;&gt;Node7</title>
<path fill="none" stroke="midnightblue" d="M105.01,-56.08C104.21,-48.93 103.07,-38.64 102.08,-29.69"/>
<polygon fill="midnightblue" stroke="midnightblue" points="105.56,-29.3 100.97,-19.75 98.6,-30.08 105.56,-29.3"/>
</g>
</g>
</svg>
