<?xml version="1.0" encoding="UTF-8" standalone="no"?>
<!DOCTYPE svg PUBLIC "-//W3C//DTD SVG 1.1//EN"
 "http://www.w3.org/Graphics/SVG/1.1/DTD/svg11.dtd">
<!-- Generated by graphviz version 2.44.1 (20211215.1903)
 -->
<!-- Title: include/roar/response.hpp Pages: 1 -->
<!--zoomable 196 -->
<svg id="main" version="1.1" xmlns="http://www.w3.org/2000/svg" xmlns:xlink="http://www.w3.org/1999/xlink" xml:space="preserve" onload="init(evt)">
<style type="text/css"><![CDATA[
.edge:hover path { stroke: red; }
.edge:hover polygon { stroke: red; fill: red; }
]]></style>
<script type="text/javascript"><![CDATA[
var edges = document.getElementsByTagName('g');
if (edges && edges.length) {
  for (var i=0;i<edges.length;i++) {
    if (edges[i].id.substr(0,4)=='edge') {
      edges[i].setAttribute('class','edge');
    }
  }
}
]]></script>
        <defs>
                <circle id="rim" cx="0" cy="0" r="7"/>
                <circle id="rim2" cx="0" cy="0" r="3.5"/>
                <g id="zoomPlus">
                        <use xlink:href="#rim" fill="#404040">
                                <set attributeName="fill" to="#808080" begin="zoomplus.mouseover" end="zoomplus.mouseout"/>
                        </use>
                        <path d="M-4,0h8M0,-4v8" fill="none" stroke="white" stroke-width="1.5" pointer-events="none"/>
                </g>
                <g id="zoomMin">
                        <use xlink:href="#rim" fill="#404040">
                                <set attributeName="fill" to="#808080" begin="zoomminus.mouseover" end="zoomminus.mouseout"/>
                        </use>
                        <path d="M-4,0h8" fill="none" stroke="white" stroke-width="1.5" pointer-events="none"/>
                </g>
                <g id="dirArrow">
                        <path fill="none" stroke="white" stroke-width="1.5" d="M0,-3.0v7 M-2.5,-0.5L0,-3.0L2.5,-0.5"/>
                </g>
               <g id="resetDef">
                       <use xlink:href="#rim2" fill="#404040">
                               <set attributeName="fill" to="#808080" begin="reset.mouseover" end="reset.mouseout"/>
                       </use>
               </g>
        </defs>

<script type="text/javascript">
var viewWidth = 3576;
var viewHeight = 196;
var sectionId = 'dynsection-0';
</script>
<script xlink:href="svgpan.js"/>
<svg id="graph" class="graph">
<g id="viewport">
<title>include/roar/response.hpp</title>
<!-- Node1 -->
<g id="node1" class="node">
<title>Node1</title>
<g id="a_node1"><a xlink:title=" ">
<polygon fill="#bfbfbf" stroke="black" points="2828,-168.5 2828,-187.5 2956,-187.5 2956,-168.5 2828,-168.5"/>
<text text-anchor="middle" x="2892" y="-175.5" font-family="Helvetica,sans-Serif" font-size="10.00">include/roar/response.hpp</text>
</a>
</g>
</g>
<!-- Node2 -->
<g id="node2" class="node">
<title>Node2</title>
<g id="a_node2"><a xlink:href="promise__compat_8hpp.html" target="_top" xlink:title=" ">
<polygon fill="none" stroke="black" points="2815.5,-112.5 2815.5,-131.5 2968.5,-131.5 2968.5,-112.5 2815.5,-112.5"/>
<text text-anchor="middle" x="2892" y="-119.5" font-family="Helvetica,sans-Serif" font-size="10.00">roar/detail/promise_compat.hpp</text>
</a>
</g>
</g>
<!-- Node1&#45;&gt;Node2 -->
<g id="edge1" class="edge">
<title>Node1&#45;&gt;Node2</title>
<path fill="none" stroke="midnightblue" d="M2892,-168.08C2892,-161.01 2892,-150.86 2892,-141.99"/>
<polygon fill="midnightblue" stroke="midnightblue" points="2895.5,-141.75 2892,-131.75 2888.5,-141.75 2895.5,-141.75"/>
</g>
<!-- Node4 -->
<g id="node4" class="node">
<title>Node4</title>
<g id="a_node4"><a xlink:title=" ">
<polygon fill="none" stroke="#bfbfbf" points="2829,-56.5 2829,-75.5 2955,-75.5 2955,-56.5 2829,-56.5"/>
<text text-anchor="middle" x="2892" y="-63.5" font-family="Helvetica,sans-Serif" font-size="10.00">promise&#45;cpp/promise.hpp</text>
</a>
</g>
</g>
<!-- Node1&#45;&gt;Node4 -->
<g id="edge57" class="edge">
<title>Node1&#45;&gt;Node4</title>
<path fill="none" stroke="midnightblue" d="M2858.2,-168.39C2839.61,-161.74 2818.11,-150.45 2807,-132 2792.67,-108.19 2824.11,-90.01 2852.72,-79.02"/>
<polygon fill="midnightblue" stroke="midnightblue" points="2854.04,-82.26 2862.25,-75.56 2851.65,-75.68 2854.04,-82.26"/>
</g>
<!-- Node5 -->
<g id="node5" class="node">
<title>Node5</title>
<g id="a_node5"><a xlink:href="cors_8hpp.html" target="_top" xlink:title=" ">
<polygon fill="none" stroke="black" points="132,-56.5 132,-75.5 206,-75.5 206,-56.5 132,-56.5"/>
<text text-anchor="middle" x="169" y="-63.5" font-family="Helvetica,sans-Serif" font-size="10.00">roar/cors.hpp</text>
</a>
</g>
</g>
<!-- Node1&#45;&gt;Node5 -->
<g id="edge4" class="edge">
<title>Node1&#45;&gt;Node5</title>
<path fill="none" stroke="midnightblue" d="M2827.77,-176.75C2583.09,-175.54 1685.99,-168.71 948,-132 625.02,-115.94 540.49,-119.8 216.25,-76.02"/>
<polygon fill="midnightblue" stroke="midnightblue" points="216.47,-72.52 206.1,-74.64 215.53,-79.46 216.47,-72.52"/>
</g>
<!-- Node12 -->
<g id="node12" class="node">
<title>Node12</title>
<g id="a_node12"><a xlink:href="request_8hpp.html" target="_top" xlink:title=" ">
<polygon fill="none" stroke="black" points="1380.5,-112.5 1380.5,-131.5 1467.5,-131.5 1467.5,-112.5 1380.5,-112.5"/>
<text text-anchor="middle" x="1424" y="-119.5" font-family="Helvetica,sans-Serif" font-size="10.00">roar/request.hpp</text>
</a>
</g>
</g>
<!-- Node1&#45;&gt;Node12 -->
<g id="edge11" class="edge">
<title>Node1&#45;&gt;Node12</title>
<path fill="none" stroke="midnightblue" d="M2827.98,-174.64C2582.71,-165.62 1705.33,-133.35 1478.07,-124.99"/>
<polygon fill="midnightblue" stroke="midnightblue" points="1477.86,-121.48 1467.74,-124.61 1477.6,-128.47 1477.86,-121.48"/>
</g>
<!-- Node22 -->
<g id="node22" class="node">
<title>Node22</title>
<g id="a_node22"><a xlink:title=" ">
<polygon fill="none" stroke="#bfbfbf" points="224.5,-56.5 224.5,-75.5 373.5,-75.5 373.5,-56.5 224.5,-56.5"/>
<text text-anchor="middle" x="299" y="-63.5" font-family="Helvetica,sans-Serif" font-size="10.00">boost/beast/http/message.hpp</text>
</a>
</g>
</g>
<!-- Node1&#45;&gt;Node22 -->
<g id="edge55" class="edge">
<title>Node1&#45;&gt;Node22</title>
<path fill="none" stroke="midnightblue" d="M2827.85,-175.75C2618.39,-171.53 1935.47,-156.67 1371,-132 940.47,-113.18 832.82,-107.02 403,-76 396.77,-75.55 390.34,-75.06 383.86,-74.54"/>
<polygon fill="midnightblue" stroke="midnightblue" points="383.93,-71.04 373.68,-73.72 383.37,-78.02 383.93,-71.04"/>
</g>
<!-- Node32 -->
<g id="node32" class="node">
<title>Node32</title>
<g id="a_node32"><a xlink:href="error_8hpp.html" target="_top" xlink:title=" ">
<polygon fill="none" stroke="black" points="2737,-56.5 2737,-75.5 2811,-75.5 2811,-56.5 2737,-56.5"/>
<text text-anchor="middle" x="2774" y="-63.5" font-family="Helvetica,sans-Serif" font-size="10.00">roar/error.hpp</text>
</a>
</g>
</g>
<!-- Node1&#45;&gt;Node32 -->
<g id="edge45" class="edge">
<title>Node1&#45;&gt;Node32</title>
<path fill="none" stroke="midnightblue" d="M2860.74,-168.44C2840.73,-161.53 2815.51,-149.95 2799,-132 2787.12,-119.08 2780.67,-99.91 2777.32,-85.73"/>
<polygon fill="midnightblue" stroke="midnightblue" points="2780.69,-84.74 2775.25,-75.65 2773.83,-86.15 2780.69,-84.74"/>
</g>
<!-- Node36 -->
<g id="node36" class="node">
<title>Node36</title>
<g id="a_node36"><a xlink:href="first__type_8hpp.html" target="_top" xlink:title=" ">
<polygon fill="none" stroke="black" points="2986.5,-112.5 2986.5,-131.5 3177.5,-131.5 3177.5,-112.5 2986.5,-112.5"/>
<text text-anchor="middle" x="3082" y="-119.5" font-family="Helvetica,sans-Serif" font-size="10.00">roar/detail/template_utility/first_type.hpp</text>
</a>
</g>
</g>
<!-- Node1&#45;&gt;Node36 -->
<g id="edge54" class="edge">
<title>Node1&#45;&gt;Node36</title>
<path fill="none" stroke="midnightblue" d="M2922.11,-168.44C2954.63,-159.2 3006.58,-144.44 3042.39,-134.26"/>
<polygon fill="midnightblue" stroke="midnightblue" points="3043.37,-137.62 3052.03,-131.52 3041.46,-130.88 3043.37,-137.62"/>
</g>
<!-- Node37 -->
<g id="node37" class="node">
<title>Node37</title>
<g id="a_node37"><a xlink:title=" ">
<polygon fill="none" stroke="#bfbfbf" points="3196,-112.5 3196,-131.5 3354,-131.5 3354,-112.5 3196,-112.5"/>
<text text-anchor="middle" x="3275" y="-119.5" font-family="Helvetica,sans-Serif" font-size="10.00">boost/beast/http/string_body.hpp</text>
</a>
</g>
</g>
<!-- Node1&#45;&gt;Node37 -->
<g id="edge56" class="edge">
<title>Node1&#45;&gt;Node37</title>
<path fill="none" stroke="midnightblue" d="M2952.69,-168.44C3021.18,-158.79 3132.44,-143.1 3204.67,-132.92"/>
<polygon fill="midnightblue" stroke="midnightblue" points="3205.18,-136.38 3214.6,-131.52 3204.21,-129.45 3205.18,-136.38"/>
</g>
<!-- Node38 -->
<g id="node38" class="node">
<title>Node38</title>
<g id="a_node38"><a xlink:title=" ">
<polygon fill="none" stroke="#bfbfbf" points="3372,-112.5 3372,-131.5 3434,-131.5 3434,-112.5 3372,-112.5"/>
<text text-anchor="middle" x="3403" y="-119.5" font-family="Helvetica,sans-Serif" font-size="10.00">type_traits</text>
</a>
</g>
</g>
<!-- Node1&#45;&gt;Node38 -->
<g id="edge58" class="edge">
<title>Node1&#45;&gt;Node38</title>
<path fill="none" stroke="midnightblue" d="M2956.32,-173.43C3045.35,-167.92 3211.29,-155.59 3361.74,-132.02"/>
<polygon fill="midnightblue" stroke="midnightblue" points="3362.3,-135.48 3371.63,-130.45 3361.2,-128.56 3362.3,-135.48"/>
</g>
<!-- Node39 -->
<g id="node39" class="node">
<title>Node39</title>
<g id="a_node39"><a xlink:title=" ">
<polygon fill="none" stroke="#bfbfbf" points="3452.5,-112.5 3452.5,-131.5 3503.5,-131.5 3503.5,-112.5 3452.5,-112.5"/>
<text text-anchor="middle" x="3478" y="-119.5" font-family="Helvetica,sans-Serif" font-size="10.00">numeric</text>
</a>
</g>
</g>
<!-- Node1&#45;&gt;Node39 -->
<g id="edge59" class="edge">
<title>Node1&#45;&gt;Node39</title>
<path fill="none" stroke="midnightblue" d="M2956.07,-175.3C3057.39,-171.84 3260.85,-161.74 3442.49,-131.77"/>
<polygon fill="midnightblue" stroke="midnightblue" points="3443.21,-135.2 3452.49,-130.09 3442.05,-128.29 3443.21,-135.2"/>
</g>
<!-- Node40 -->
<g id="node40" class="node">
<title>Node40</title>
<g id="a_node40"><a xlink:title=" ">
<polygon fill="none" stroke="#bfbfbf" points="3521.5,-112.5 3521.5,-131.5 3568.5,-131.5 3568.5,-112.5 3521.5,-112.5"/>
<text text-anchor="middle" x="3545" y="-119.5" font-family="Helvetica,sans-Serif" font-size="10.00">iterator</text>
</a>
</g>
</g>
<!-- Node1&#45;&gt;Node40 -->
<g id="edge60" class="edge">
<title>Node1&#45;&gt;Node40</title>
<path fill="none" stroke="midnightblue" d="M2956.44,-176.6C3068,-174.97 3304.25,-167.42 3511.21,-131.99"/>
<polygon fill="midnightblue" stroke="midnightblue" points="3512.1,-135.38 3521.36,-130.22 3510.91,-128.49 3512.1,-135.38"/>
</g>
<!-- Node3 -->
<g id="node3" class="node">
<title>Node3</title>
<g id="a_node3"><a xlink:title=" ">
<polygon fill="none" stroke="#bfbfbf" points="3036.5,-0.5 3036.5,-19.5 3095.5,-19.5 3095.5,-0.5 3036.5,-0.5"/>
<text text-anchor="middle" x="3066" y="-7.5" font-family="Helvetica,sans-Serif" font-size="10.00">functional</text>
</a>
</g>
</g>
<!-- Node2&#45;&gt;Node3 -->
<g id="edge2" class="edge">
<title>Node2&#45;&gt;Node3</title>
<path fill="none" stroke="midnightblue" d="M2905.83,-112.41C2920.34,-103.38 2943.81,-88.74 2964,-76 2991.56,-58.6 3023.2,-38.41 3043.84,-25.2"/>
<polygon fill="midnightblue" stroke="midnightblue" points="3045.96,-28 3052.49,-19.66 3042.19,-22.1 3045.96,-28"/>
</g>
<!-- Node2&#45;&gt;Node4 -->
<g id="edge3" class="edge">
<title>Node2&#45;&gt;Node4</title>
<path fill="none" stroke="midnightblue" d="M2892,-112.08C2892,-105.01 2892,-94.86 2892,-85.99"/>
<polygon fill="midnightblue" stroke="midnightblue" points="2895.5,-85.75 2892,-75.75 2888.5,-85.75 2895.5,-85.75"/>
</g>
<!-- Node6 -->
<g id="node6" class="node">
<title>Node6</title>
<g id="a_node6"><a xlink:title=" ">
<polygon fill="none" stroke="#bfbfbf" points="210.5,-0.5 210.5,-19.5 337.5,-19.5 337.5,-0.5 210.5,-0.5"/>
<text text-anchor="middle" x="274" y="-7.5" font-family="Helvetica,sans-Serif" font-size="10.00">boost/beast/http/field.hpp</text>
</a>
</g>
</g>
<!-- Node5&#45;&gt;Node6 -->
<g id="edge5" class="edge">
<title>Node5&#45;&gt;Node6</title>
<path fill="none" stroke="midnightblue" d="M185.87,-56.32C202.71,-47.66 228.81,-34.24 248.24,-24.25"/>
<polygon fill="midnightblue" stroke="midnightblue" points="249.88,-27.34 257.17,-19.65 246.68,-21.12 249.88,-27.34"/>
</g>
<!-- Node7 -->
<g id="node7" class="node">
<title>Node7</title>
<g id="a_node7"><a xlink:title=" ">
<polygon fill="none" stroke="#bfbfbf" points="0,-0.5 0,-19.5 128,-19.5 128,-0.5 0,-0.5"/>
<text text-anchor="middle" x="64" y="-7.5" font-family="Helvetica,sans-Serif" font-size="10.00">boost/beast/http/verb.hpp</text>
</a>
</g>
</g>
<!-- Node5&#45;&gt;Node7 -->
<g id="edge6" class="edge">
<title>Node5&#45;&gt;Node7</title>
<path fill="none" stroke="midnightblue" d="M152.13,-56.32C135.29,-47.66 109.19,-34.24 89.76,-24.25"/>
<polygon fill="midnightblue" stroke="midnightblue" points="91.32,-21.12 80.83,-19.65 88.12,-27.34 91.32,-21.12"/>
</g>
<!-- Node8 -->
<g id="node8" class="node">
<title>Node8</title>
<g id="a_node8"><a xlink:title=" ">
<polygon fill="none" stroke="#bfbfbf" points="938.5,-0.5 938.5,-19.5 979.5,-19.5 979.5,-0.5 938.5,-0.5"/>
<text text-anchor="middle" x="959" y="-7.5" font-family="Helvetica,sans-Serif" font-size="10.00">string</text>
</a>
</g>
</g>
<!-- Node5&#45;&gt;Node8 -->
<g id="edge7" class="edge">
<title>Node5&#45;&gt;Node8</title>
<path fill="none" stroke="midnightblue" d="M206.09,-57.3C209.1,-56.81 212.09,-56.37 215,-56 356.58,-37.95 806.59,-17.59 928.36,-12.31"/>
<polygon fill="midnightblue" stroke="midnightblue" points="928.64,-15.8 938.48,-11.87 928.33,-8.81 928.64,-15.8"/>
</g>
<!-- Node9 -->
<g id="node9" class="node">
<title>Node9</title>
<g id="a_node9"><a xlink:title=" ">
<polygon fill="none" stroke="#bfbfbf" points="379,-0.5 379,-19.5 423,-19.5 423,-0.5 379,-0.5"/>
<text text-anchor="middle" x="401" y="-7.5" font-family="Helvetica,sans-Serif" font-size="10.00">vector</text>
</a>
</g>
</g>
<!-- Node5&#45;&gt;Node9 -->
<g id="edge8" class="edge">
<title>Node5&#45;&gt;Node9</title>
<path fill="none" stroke="midnightblue" d="M205.76,-56.44C250.73,-45.98 326.14,-28.42 368.89,-18.47"/>
<polygon fill="midnightblue" stroke="midnightblue" points="369.81,-21.85 378.76,-16.18 368.22,-15.04 369.81,-21.85"/>
</g>
<!-- Node10 -->
<g id="node10" class="node">
<title>Node10</title>
<g id="a_node10"><a xlink:title=" ">
<polygon fill="none" stroke="#bfbfbf" points="146,-0.5 146,-19.5 192,-19.5 192,-0.5 146,-0.5"/>
<text text-anchor="middle" x="169" y="-7.5" font-family="Helvetica,sans-Serif" font-size="10.00">cctype</text>
</a>
</g>
</g>
<!-- Node5&#45;&gt;Node10 -->
<g id="edge9" class="edge">
<title>Node5&#45;&gt;Node10</title>
<path fill="none" stroke="midnightblue" d="M169,-56.08C169,-49.01 169,-38.86 169,-29.99"/>
<polygon fill="midnightblue" stroke="midnightblue" points="172.5,-29.75 169,-19.75 165.5,-29.75 172.5,-29.75"/>
</g>
<!-- Node11 -->
<g id="node11" class="node">
<title>Node11</title>
<g id="a_node11"><a xlink:title=" ">
<polygon fill="none" stroke="#bfbfbf" points="621,-0.5 621,-19.5 671,-19.5 671,-0.5 621,-0.5"/>
<text text-anchor="middle" x="646" y="-7.5" font-family="Helvetica,sans-Serif" font-size="10.00">optional</text>
</a>
</g>
</g>
<!-- Node5&#45;&gt;Node11 -->
<g id="edge10" class="edge">
<title>Node5&#45;&gt;Node11</title>
<path fill="none" stroke="midnightblue" d="M206.11,-57.44C209.11,-56.92 212.1,-56.43 215,-56 361.09,-34.13 536.62,-19.34 610.49,-13.63"/>
<polygon fill="midnightblue" stroke="midnightblue" points="610.93,-17.11 620.64,-12.85 610.4,-10.13 610.93,-17.11"/>
</g>
<!-- Node12&#45;&gt;Node8 -->
<g id="edge41" class="edge">
<title>Node12&#45;&gt;Node8</title>
<path fill="none" stroke="midnightblue" d="M1380.33,-118.34C1323.87,-113.95 1223.05,-102.81 1141,-76 1122.48,-69.95 1120.02,-63.39 1102,-56 1064.09,-40.45 1018.73,-27 989.41,-18.96"/>
<polygon fill="midnightblue" stroke="midnightblue" points="990.32,-15.58 979.75,-16.34 988.49,-22.33 990.32,-15.58"/>
</g>
<!-- Node12&#45;&gt;Node9 -->
<g id="edge42" class="edge">
<title>Node12&#45;&gt;Node9</title>
<path fill="none" stroke="midnightblue" d="M1380.49,-119.74C1190.13,-114.12 439.17,-91.05 420,-76 406.29,-65.24 402.09,-45.15 400.98,-30.14"/>
<polygon fill="midnightblue" stroke="midnightblue" points="404.47,-29.77 400.63,-19.89 397.47,-30.01 404.47,-29.77"/>
</g>
<!-- Node12&#45;&gt;Node11 -->
<g id="edge40" class="edge">
<title>Node12&#45;&gt;Node11</title>
<path fill="none" stroke="midnightblue" d="M1380.46,-119.4C1213.58,-113.16 623.36,-90.12 610,-76 596.18,-61.4 612.53,-40.49 627.43,-26.36"/>
<polygon fill="midnightblue" stroke="midnightblue" points="629.81,-28.93 634.93,-19.66 625.14,-23.71 629.81,-28.93"/>
</g>
<!-- Node13 -->
<g id="node13" class="node">
<title>Node13</title>
<g id="a_node13"><a xlink:href="basic__auth_8hpp.html" target="_top" xlink:title=" ">
<polygon fill="none" stroke="black" points="801.5,-56.5 801.5,-75.5 962.5,-75.5 962.5,-56.5 801.5,-56.5"/>
<text text-anchor="middle" x="882" y="-63.5" font-family="Helvetica,sans-Serif" font-size="10.00">roar/authorization/basic_auth.hpp</text>
</a>
</g>
</g>
<!-- Node12&#45;&gt;Node13 -->
<g id="edge12" class="edge">
<title>Node12&#45;&gt;Node13</title>
<path fill="none" stroke="midnightblue" d="M1380.27,-116.68C1301.18,-108.87 1128.81,-91.81 972.78,-76.18"/>
<polygon fill="midnightblue" stroke="midnightblue" points="972.83,-72.66 962.53,-75.15 972.13,-79.63 972.83,-72.66"/>
</g>
<!-- Node15 -->
<g id="node15" class="node">
<title>Node15</title>
<g id="a_node15"><a xlink:href="digest__auth_8hpp.html" target="_top" xlink:title=" ">
<polygon fill="none" stroke="black" points="619,-56.5 619,-75.5 783,-75.5 783,-56.5 619,-56.5"/>
<text text-anchor="middle" x="701" y="-63.5" font-family="Helvetica,sans-Serif" font-size="10.00">roar/authorization/digest_auth.hpp</text>
</a>
</g>
</g>
<!-- Node12&#45;&gt;Node15 -->
<g id="edge16" class="edge">
<title>Node12&#45;&gt;Node15</title>
<path fill="none" stroke="midnightblue" d="M1380.29,-118.3C1279.09,-111.97 1020.57,-95.28 793.44,-76.1"/>
<polygon fill="midnightblue" stroke="midnightblue" points="793.59,-72.6 783.33,-75.24 793,-79.58 793.59,-72.6"/>
</g>
<!-- Node16 -->
<g id="node16" class="node">
<title>Node16</title>
<g id="a_node16"><a xlink:href="authorization_8hpp.html" target="_top" xlink:title=" ">
<polygon fill="none" stroke="black" points="2549.5,-56.5 2549.5,-75.5 2718.5,-75.5 2718.5,-56.5 2549.5,-56.5"/>
<text text-anchor="middle" x="2634" y="-63.5" font-family="Helvetica,sans-Serif" font-size="10.00">roar/authorization/authorization.hpp</text>
</a>
</g>
</g>
<!-- Node12&#45;&gt;Node16 -->
<g id="edge20" class="edge">
<title>Node12&#45;&gt;Node16</title>
<path fill="none" stroke="midnightblue" d="M1467.65,-120.11C1616.1,-116.88 2115.21,-104.54 2539.46,-75.99"/>
<polygon fill="midnightblue" stroke="midnightblue" points="2539.73,-79.48 2549.47,-75.32 2539.25,-72.5 2539.73,-79.48"/>
</g>
<!-- Node19 -->
<g id="node19" class="node">
<title>Node19</title>
<g id="a_node19"><a xlink:href="ranges_8hpp.html" target="_top" xlink:title=" ">
<polygon fill="none" stroke="black" points="429,-56.5 429,-75.5 563,-75.5 563,-56.5 429,-56.5"/>
<text text-anchor="middle" x="496" y="-63.5" font-family="Helvetica,sans-Serif" font-size="10.00">roar/mechanics/ranges.hpp</text>
</a>
</g>
</g>
<!-- Node12&#45;&gt;Node19 -->
<g id="edge25" class="edge">
<title>Node12&#45;&gt;Node19</title>
<path fill="none" stroke="midnightblue" d="M1380.3,-119.57C1255.06,-115.27 884.1,-101.2 577,-76 575.73,-75.9 574.45,-75.79 573.16,-75.68"/>
<polygon fill="midnightblue" stroke="midnightblue" points="573.43,-72.19 563.15,-74.76 572.8,-79.16 573.43,-72.19"/>
</g>
<!-- Node21 -->
<g id="node21" class="node">
<title>Node21</title>
<g id="a_node21"><a xlink:href="base64_8hpp.html" target="_top" xlink:title=" ">
<polygon fill="none" stroke="black" points="980.5,-56.5 980.5,-75.5 1093.5,-75.5 1093.5,-56.5 980.5,-56.5"/>
<text text-anchor="middle" x="1037" y="-63.5" font-family="Helvetica,sans-Serif" font-size="10.00">roar/utility/base64.hpp</text>
</a>
</g>
</g>
<!-- Node12&#45;&gt;Node21 -->
<g id="edge30" class="edge">
<title>Node12&#45;&gt;Node21</title>
<path fill="none" stroke="midnightblue" d="M1380.36,-114.91C1313.01,-105.51 1183.25,-87.41 1103.97,-76.34"/>
<polygon fill="midnightblue" stroke="midnightblue" points="1103.99,-72.81 1093.6,-74.9 1103.02,-79.75 1103.99,-72.81"/>
</g>
<!-- Node12&#45;&gt;Node22 -->
<g id="edge32" class="edge">
<title>Node12&#45;&gt;Node22</title>
<path fill="none" stroke="midnightblue" d="M1380.48,-120.02C1237.85,-116.63 771.62,-103.99 387,-76 386.06,-75.93 385.12,-75.86 384.17,-75.79"/>
<polygon fill="midnightblue" stroke="midnightblue" points="384.12,-72.27 373.87,-74.96 383.55,-79.25 384.12,-72.27"/>
</g>
<!-- Node23 -->
<g id="node23" class="node">
<title>Node23</title>
<g id="a_node23"><a xlink:title=" ">
<polygon fill="none" stroke="#bfbfbf" points="1150.5,-56.5 1150.5,-75.5 1311.5,-75.5 1311.5,-56.5 1150.5,-56.5"/>
<text text-anchor="middle" x="1231" y="-63.5" font-family="Helvetica,sans-Serif" font-size="10.00">boost/beast/http/empty_body.hpp</text>
</a>
</g>
</g>
<!-- Node12&#45;&gt;Node23 -->
<g id="edge33" class="edge">
<title>Node12&#45;&gt;Node23</title>
<path fill="none" stroke="midnightblue" d="M1393.42,-112.44C1360.39,-103.2 1307.61,-88.44 1271.23,-78.26"/>
<polygon fill="midnightblue" stroke="midnightblue" points="1272.01,-74.84 1261.44,-75.52 1270.13,-81.58 1272.01,-74.84"/>
</g>
<!-- Node24 -->
<g id="node24" class="node">
<title>Node24</title>
<g id="a_node24"><a xlink:title=" ">
<polygon fill="none" stroke="#bfbfbf" points="1329.5,-56.5 1329.5,-75.5 1518.5,-75.5 1518.5,-56.5 1329.5,-56.5"/>
<text text-anchor="middle" x="1424" y="-63.5" font-family="Helvetica,sans-Serif" font-size="10.00">boost/algorithm/string/classification.hpp</text>
</a>
</g>
</g>
<!-- Node12&#45;&gt;Node24 -->
<g id="edge34" class="edge">
<title>Node12&#45;&gt;Node24</title>
<path fill="none" stroke="midnightblue" d="M1424,-112.08C1424,-105.01 1424,-94.86 1424,-85.99"/>
<polygon fill="midnightblue" stroke="midnightblue" points="1427.5,-85.75 1424,-75.75 1420.5,-85.75 1427.5,-85.75"/>
</g>
<!-- Node25 -->
<g id="node25" class="node">
<title>Node25</title>
<g id="a_node25"><a xlink:title=" ">
<polygon fill="none" stroke="#bfbfbf" points="1536.5,-56.5 1536.5,-75.5 1711.5,-75.5 1711.5,-56.5 1536.5,-56.5"/>
<text text-anchor="middle" x="1624" y="-63.5" font-family="Helvetica,sans-Serif" font-size="10.00">boost/algorithm/string/constants.hpp</text>
</a>
</g>
</g>
<!-- Node12&#45;&gt;Node25 -->
<g id="edge35" class="edge">
<title>Node12&#45;&gt;Node25</title>
<path fill="none" stroke="midnightblue" d="M1455.69,-112.44C1490.07,-103.16 1545.08,-88.31 1582.79,-78.13"/>
<polygon fill="midnightblue" stroke="midnightblue" points="1583.72,-81.5 1592.46,-75.52 1581.89,-74.74 1583.72,-81.5"/>
</g>
<!-- Node26 -->
<g id="node26" class="node">
<title>Node26</title>
<g id="a_node26"><a xlink:title=" ">
<polygon fill="none" stroke="#bfbfbf" points="1730,-56.5 1730,-75.5 1880,-75.5 1880,-56.5 1730,-56.5"/>
<text text-anchor="middle" x="1805" y="-63.5" font-family="Helvetica,sans-Serif" font-size="10.00">boost/algorithm/string/split.hpp</text>
</a>
</g>
</g>
<!-- Node12&#45;&gt;Node26 -->
<g id="edge36" class="edge">
<title>Node12&#45;&gt;Node26</title>
<path fill="none" stroke="midnightblue" d="M1467.71,-114.81C1532.99,-105.55 1656.64,-88.03 1734.72,-76.96"/>
<polygon fill="midnightblue" stroke="midnightblue" points="1735.54,-80.38 1744.95,-75.51 1734.56,-73.45 1735.54,-80.38"/>
</g>
<!-- Node27 -->
<g id="node27" class="node">
<title>Node27</title>
<g id="a_node27"><a xlink:title=" ">
<polygon fill="none" stroke="#bfbfbf" points="1897.5,-56.5 1897.5,-75.5 2046.5,-75.5 2046.5,-56.5 1897.5,-56.5"/>
<text text-anchor="middle" x="1972" y="-63.5" font-family="Helvetica,sans-Serif" font-size="10.00">boost/algorithm/string/trim.hpp</text>
</a>
</g>
</g>
<!-- Node12&#45;&gt;Node27 -->
<g id="edge37" class="edge">
<title>Node12&#45;&gt;Node27</title>
<path fill="none" stroke="midnightblue" d="M1467.61,-116.95C1548.29,-109.42 1726.58,-92.6 1887.28,-76.17"/>
<polygon fill="midnightblue" stroke="midnightblue" points="1887.76,-79.64 1897.35,-75.14 1887.04,-72.67 1887.76,-79.64"/>
</g>
<!-- Node28 -->
<g id="node28" class="node">
<title>Node28</title>
<g id="a_node28"><a xlink:title=" ">
<polygon fill="none" stroke="#bfbfbf" points="2065,-56.5 2065,-75.5 2237,-75.5 2237,-56.5 2065,-56.5"/>
<text text-anchor="middle" x="2151" y="-63.5" font-family="Helvetica,sans-Serif" font-size="10.00">boost/beast/websocket/rfc6455.hpp</text>
</a>
</g>
</g>
<!-- Node12&#45;&gt;Node28 -->
<g id="edge38" class="edge">
<title>Node12&#45;&gt;Node28</title>
<path fill="none" stroke="midnightblue" d="M1467.63,-118.22C1568.66,-111.73 1826.74,-94.71 2054.77,-76"/>
<polygon fill="midnightblue" stroke="midnightblue" points="2055.24,-79.47 2064.92,-75.16 2054.66,-72.5 2055.24,-79.47"/>
</g>
<!-- Node29 -->
<g id="node29" class="node">
<title>Node29</title>
<g id="a_node29"><a xlink:title=" ">
<polygon fill="none" stroke="#bfbfbf" points="2255,-56.5 2255,-75.5 2369,-75.5 2369,-56.5 2255,-56.5"/>
<text text-anchor="middle" x="2312" y="-63.5" font-family="Helvetica,sans-Serif" font-size="10.00">boost/lexical_cast.hpp</text>
</a>
</g>
</g>
<!-- Node12&#45;&gt;Node29 -->
<g id="edge39" class="edge">
<title>Node12&#45;&gt;Node29</title>
<path fill="none" stroke="midnightblue" d="M1467.76,-119.85C1589.28,-116.39 1941.33,-104.57 2244.48,-76.07"/>
<polygon fill="midnightblue" stroke="midnightblue" points="2245.17,-79.52 2254.8,-75.09 2244.51,-72.55 2245.17,-79.52"/>
</g>
<!-- Node30 -->
<g id="node30" class="node">
<title>Node30</title>
<g id="a_node30"><a xlink:title=" ">
<polygon fill="none" stroke="#bfbfbf" points="2387.5,-56.5 2387.5,-75.5 2470.5,-75.5 2470.5,-56.5 2387.5,-56.5"/>
<text text-anchor="middle" x="2429" y="-63.5" font-family="Helvetica,sans-Serif" font-size="10.00">unordered_map</text>
</a>
</g>
</g>
<!-- Node12&#45;&gt;Node30 -->
<g id="edge43" class="edge">
<title>Node12&#45;&gt;Node30</title>
<path fill="none" stroke="midnightblue" d="M1467.9,-120.92C1602.4,-120.24 2020.78,-115 2377.31,-75.91"/>
<polygon fill="midnightblue" stroke="midnightblue" points="2377.76,-79.38 2387.31,-74.8 2376.99,-72.42 2377.76,-79.38"/>
</g>
<!-- Node31 -->
<g id="node31" class="node">
<title>Node31</title>
<g id="a_node31"><a xlink:title=" ">
<polygon fill="none" stroke="#bfbfbf" points="2488.5,-56.5 2488.5,-75.5 2531.5,-75.5 2531.5,-56.5 2488.5,-56.5"/>
<text text-anchor="middle" x="2510" y="-63.5" font-family="Helvetica,sans-Serif" font-size="10.00">deque</text>
</a>
</g>
</g>
<!-- Node12&#45;&gt;Node31 -->
<g id="edge44" class="edge">
<title>Node12&#45;&gt;Node31</title>
<path fill="none" stroke="midnightblue" d="M1467.73,-120.53C1638.29,-118.49 2259.71,-109.02 2478.37,-75.58"/>
<polygon fill="midnightblue" stroke="midnightblue" points="2479.15,-79 2488.47,-73.97 2478.05,-72.08 2479.15,-79"/>
</g>
<!-- Node13&#45;&gt;Node8 -->
<g id="edge14" class="edge">
<title>Node13&#45;&gt;Node8</title>
<path fill="none" stroke="midnightblue" d="M894.37,-56.32C906.16,-48.06 924.13,-35.45 938.14,-25.63"/>
<polygon fill="midnightblue" stroke="midnightblue" points="940.48,-28.26 946.66,-19.65 936.46,-22.53 940.48,-28.26"/>
</g>
<!-- Node13&#45;&gt;Node11 -->
<g id="edge13" class="edge">
<title>Node13&#45;&gt;Node11</title>
<path fill="none" stroke="midnightblue" d="M844.61,-56.44C799.72,-46.17 725.04,-29.09 681.17,-19.05"/>
<polygon fill="midnightblue" stroke="midnightblue" points="681.78,-15.6 671.25,-16.78 680.21,-22.42 681.78,-15.6"/>
</g>
<!-- Node14 -->
<g id="node14" class="node">
<title>Node14</title>
<g id="a_node14"><a xlink:title=" ">
<polygon fill="none" stroke="#bfbfbf" points="1652,-0.5 1652,-19.5 1718,-19.5 1718,-0.5 1652,-0.5"/>
<text text-anchor="middle" x="1685" y="-7.5" font-family="Helvetica,sans-Serif" font-size="10.00">string_view</text>
</a>
</g>
</g>
<!-- Node13&#45;&gt;Node14 -->
<g id="edge15" class="edge">
<title>Node13&#45;&gt;Node14</title>
<path fill="none" stroke="midnightblue" d="M962.52,-56.72C965.38,-56.47 968.21,-56.23 971,-56 1224.93,-35.17 1530.36,-18.83 1641.71,-13.16"/>
<polygon fill="midnightblue" stroke="midnightblue" points="1642.06,-16.64 1651.87,-12.64 1641.71,-9.65 1642.06,-16.64"/>
</g>
<!-- Node15&#45;&gt;Node8 -->
<g id="edge18" class="edge">
<title>Node15&#45;&gt;Node8</title>
<path fill="none" stroke="midnightblue" d="M741.88,-56.44C793.69,-45.6 881.81,-27.16 928.26,-17.43"/>
<polygon fill="midnightblue" stroke="midnightblue" points="929.24,-20.8 938.32,-15.33 927.81,-13.95 929.24,-20.8"/>
</g>
<!-- Node15&#45;&gt;Node11 -->
<g id="edge17" class="edge">
<title>Node15&#45;&gt;Node11</title>
<path fill="none" stroke="midnightblue" d="M691.92,-56.08C683.83,-48.14 671.8,-36.34 662.09,-26.8"/>
<polygon fill="midnightblue" stroke="midnightblue" points="664.5,-24.26 654.91,-19.75 659.6,-29.25 664.5,-24.26"/>
</g>
<!-- Node15&#45;&gt;Node14 -->
<g id="edge19" class="edge">
<title>Node15&#45;&gt;Node14</title>
<path fill="none" stroke="midnightblue" d="M783.32,-56.68C786.25,-56.44 789.15,-56.21 792,-56 1117.98,-31.68 1511.91,-16.92 1641.43,-12.45"/>
<polygon fill="midnightblue" stroke="midnightblue" points="1641.84,-15.94 1651.72,-12.1 1641.6,-8.94 1641.84,-15.94"/>
</g>
<!-- Node16&#45;&gt;Node8 -->
<g id="edge22" class="edge">
<title>Node16&#45;&gt;Node8</title>
<path fill="none" stroke="midnightblue" d="M2549.47,-56.64C2546.27,-56.41 2543.11,-56.19 2540,-56 1915.77,-17.28 1150.81,-11.84 989.67,-11.11"/>
<polygon fill="midnightblue" stroke="midnightblue" points="989.54,-7.61 979.53,-11.07 989.51,-14.61 989.54,-7.61"/>
</g>
<!-- Node16&#45;&gt;Node14 -->
<g id="edge23" class="edge">
<title>Node16&#45;&gt;Node14</title>
<path fill="none" stroke="midnightblue" d="M2549.46,-56.73C2546.27,-56.48 2543.11,-56.23 2540,-56 2229.24,-32.96 1854.08,-17.48 1728.39,-12.63"/>
<polygon fill="midnightblue" stroke="midnightblue" points="1728.17,-9.11 1718.04,-12.23 1727.9,-16.11 1728.17,-9.11"/>
</g>
<!-- Node17 -->
<g id="node17" class="node">
<title>Node17</title>
<g id="a_node17"><a xlink:title=" ">
<polygon fill="none" stroke="#bfbfbf" points="2597,-0.5 2597,-19.5 2643,-19.5 2643,-0.5 2597,-0.5"/>
<text text-anchor="middle" x="2620" y="-7.5" font-family="Helvetica,sans-Serif" font-size="10.00">variant</text>
</a>
</g>
</g>
<!-- Node16&#45;&gt;Node17 -->
<g id="edge21" class="edge">
<title>Node16&#45;&gt;Node17</title>
<path fill="none" stroke="midnightblue" d="M2631.69,-56.08C2629.83,-48.93 2627.16,-38.64 2624.85,-29.69"/>
<polygon fill="midnightblue" stroke="midnightblue" points="2628.17,-28.55 2622.27,-19.75 2621.39,-30.31 2628.17,-28.55"/>
</g>
<!-- Node18 -->
<g id="node18" class="node">
<title>Node18</title>
<g id="a_node18"><a xlink:title=" ">
<polygon fill="none" stroke="#bfbfbf" points="2453,-0.5 2453,-19.5 2579,-19.5 2579,-0.5 2453,-0.5"/>
<text text-anchor="middle" x="2516" y="-7.5" font-family="Helvetica,sans-Serif" font-size="10.00">boost/describe/enum.hpp</text>
</a>
</g>
</g>
<!-- Node16&#45;&gt;Node18 -->
<g id="edge24" class="edge">
<title>Node16&#45;&gt;Node18</title>
<path fill="none" stroke="midnightblue" d="M2615.3,-56.44C2596.06,-47.64 2565.85,-33.81 2543.8,-23.72"/>
<polygon fill="midnightblue" stroke="midnightblue" points="2545.16,-20.5 2534.61,-19.52 2542.25,-26.86 2545.16,-20.5"/>
</g>
<!-- Node19&#45;&gt;Node8 -->
<g id="edge27" class="edge">
<title>Node19&#45;&gt;Node8</title>
<path fill="none" stroke="midnightblue" d="M563.32,-57.15C665.16,-45.27 854.32,-23.21 928.25,-14.59"/>
<polygon fill="midnightblue" stroke="midnightblue" points="928.78,-18.05 938.3,-13.41 927.97,-11.1 928.78,-18.05"/>
</g>
<!-- Node19&#45;&gt;Node9 -->
<g id="edge28" class="edge">
<title>Node19&#45;&gt;Node9</title>
<path fill="none" stroke="midnightblue" d="M480.74,-56.32C465.78,-47.82 442.75,-34.73 425.27,-24.8"/>
<polygon fill="midnightblue" stroke="midnightblue" points="426.65,-21.55 416.23,-19.65 423.19,-27.64 426.65,-21.55"/>
</g>
<!-- Node19&#45;&gt;Node11 -->
<g id="edge29" class="edge">
<title>Node19&#45;&gt;Node11</title>
<path fill="none" stroke="midnightblue" d="M519.77,-56.44C544.89,-47.4 584.71,-33.06 612.9,-22.92"/>
<polygon fill="midnightblue" stroke="midnightblue" points="614.12,-26.2 622.34,-19.52 611.75,-19.61 614.12,-26.2"/>
</g>
<!-- Node20 -->
<g id="node20" class="node">
<title>Node20</title>
<g id="a_node20"><a xlink:title=" ">
<polygon fill="none" stroke="#bfbfbf" points="473,-0.5 473,-19.5 519,-19.5 519,-0.5 473,-0.5"/>
<text text-anchor="middle" x="496" y="-7.5" font-family="Helvetica,sans-Serif" font-size="10.00">cstdint</text>
</a>
</g>
</g>
<!-- Node19&#45;&gt;Node20 -->
<g id="edge26" class="edge">
<title>Node19&#45;&gt;Node20</title>
<path fill="none" stroke="midnightblue" d="M496,-56.08C496,-49.01 496,-38.86 496,-29.99"/>
<polygon fill="midnightblue" stroke="midnightblue" points="499.5,-29.75 496,-19.75 492.5,-29.75 499.5,-29.75"/>
</g>
<!-- Node21&#45;&gt;Node8 -->
<g id="edge31" class="edge">
<title>Node21&#45;&gt;Node8</title>
<path fill="none" stroke="midnightblue" d="M1024.47,-56.32C1012.41,-47.98 993.97,-35.21 979.73,-25.35"/>
<polygon fill="midnightblue" stroke="midnightblue" points="981.72,-22.47 971.5,-19.65 977.73,-28.22 981.72,-22.47"/>
</g>
<!-- Node32&#45;&gt;Node3 -->
<g id="edge51" class="edge">
<title>Node32&#45;&gt;Node3</title>
<path fill="none" stroke="midnightblue" d="M2811.14,-57.66C2814.14,-57.09 2817.12,-56.53 2820,-56 2909.11,-39.57 2934.38,-38.85 3026.17,-20.29"/>
<polygon fill="midnightblue" stroke="midnightblue" points="3027.07,-23.68 3036.17,-18.25 3025.67,-16.82 3027.07,-23.68"/>
</g>
<!-- Node32&#45;&gt;Node8 -->
<g id="edge48" class="edge">
<title>Node32&#45;&gt;Node8</title>
<path fill="none" stroke="midnightblue" d="M2736.88,-57.31C2733.55,-56.8 2730.22,-56.35 2727,-56 2547.81,-36.69 1210.18,-14.95 989.72,-11.48"/>
<polygon fill="midnightblue" stroke="midnightblue" points="989.57,-7.98 979.52,-11.32 989.46,-14.97 989.57,-7.98"/>
</g>
<!-- Node32&#45;&gt;Node11 -->
<g id="edge50" class="edge">
<title>Node32&#45;&gt;Node11</title>
<path fill="none" stroke="midnightblue" d="M2736.89,-57.29C2733.55,-56.78 2730.22,-56.34 2727,-56 2329.55,-14.27 1328.5,-30.35 929,-20 839.86,-17.69 734.94,-14.13 681.37,-12.26"/>
<polygon fill="midnightblue" stroke="midnightblue" points="681.48,-8.76 671.37,-11.91 681.24,-15.76 681.48,-8.76"/>
</g>
<!-- Node32&#45;&gt;Node14 -->
<g id="edge52" class="edge">
<title>Node32&#45;&gt;Node14</title>
<path fill="none" stroke="midnightblue" d="M2736.88,-57.37C2733.55,-56.85 2730.22,-56.38 2727,-56 2341.87,-11.05 1871.95,-9.81 1728.58,-10.61"/>
<polygon fill="midnightblue" stroke="midnightblue" points="1728.41,-7.11 1718.43,-10.67 1728.45,-14.11 1728.41,-7.11"/>
</g>
<!-- Node32&#45;&gt;Node17 -->
<g id="edge49" class="edge">
<title>Node32&#45;&gt;Node17</title>
<path fill="none" stroke="midnightblue" d="M2749.6,-56.44C2723.5,-47.29 2681.96,-32.73 2652.97,-22.56"/>
<polygon fill="midnightblue" stroke="midnightblue" points="2653.87,-19.17 2643.28,-19.16 2651.56,-25.77 2653.87,-19.17"/>
</g>
<!-- Node33 -->
<g id="node33" class="node">
<title>Node33</title>
<g id="a_node33"><a xlink:href="forward_8hpp.html" target="_top" xlink:title=" ">
<polygon fill="none" stroke="black" points="2731,-0.5 2731,-19.5 2845,-19.5 2845,-0.5 2731,-0.5"/>
<text text-anchor="middle" x="2788" y="-7.5" font-family="Helvetica,sans-Serif" font-size="10.00">roar/beast/forward.hpp</text>
</a>
</g>
</g>
<!-- Node32&#45;&gt;Node33 -->
<g id="edge46" class="edge">
<title>Node32&#45;&gt;Node33</title>
<path fill="none" stroke="midnightblue" d="M2776.31,-56.08C2778.17,-48.93 2780.84,-38.64 2783.15,-29.69"/>
<polygon fill="midnightblue" stroke="midnightblue" points="2786.61,-30.31 2785.73,-19.75 2779.83,-28.55 2786.61,-30.31"/>
</g>
<!-- Node34 -->
<g id="node34" class="node">
<title>Node34</title>
<g id="a_node34"><a xlink:title=" ">
<polygon fill="none" stroke="#bfbfbf" points="2863.5,-0.5 2863.5,-19.5 3018.5,-19.5 3018.5,-0.5 2863.5,-0.5"/>
<text text-anchor="middle" x="2941" y="-7.5" font-family="Helvetica,sans-Serif" font-size="10.00">boost/system/system_error.hpp</text>
</a>
</g>
</g>
<!-- Node32&#45;&gt;Node34 -->
<g id="edge47" class="edge">
<title>Node32&#45;&gt;Node34</title>
<path fill="none" stroke="midnightblue" d="M2800.46,-56.44C2828.68,-47.32 2873.54,-32.81 2904.97,-22.65"/>
<polygon fill="midnightblue" stroke="midnightblue" points="2906.22,-25.92 2914.66,-19.52 2904.07,-19.26 2906.22,-25.92"/>
</g>
<!-- Node35 -->
<g id="node35" class="node">
<title>Node35</title>
<g id="a_node35"><a xlink:title=" ">
<polygon fill="none" stroke="#bfbfbf" points="2661,-0.5 2661,-19.5 2713,-19.5 2713,-0.5 2661,-0.5"/>
<text text-anchor="middle" x="2687" y="-7.5" font-family="Helvetica,sans-Serif" font-size="10.00">sstream</text>
</a>
</g>
</g>
<!-- Node32&#45;&gt;Node35 -->
<g id="edge53" class="edge">
<title>Node32&#45;&gt;Node35</title>
<path fill="none" stroke="midnightblue" d="M2760.02,-56.32C2746.45,-47.9 2725.62,-34.97 2709.68,-25.07"/>
<polygon fill="midnightblue" stroke="midnightblue" points="2711.29,-21.95 2700.94,-19.65 2707.59,-27.9 2711.29,-21.95"/>
</g>
</g>
</svg>
        <g id="navigator" transform="translate(0 0)" fill="#404254">
                <rect fill="#f2f5e9" fill-opacity="0.5" stroke="#606060" stroke-width=".5" x="0" y="0" width="60" height="60"/>
                <use id="zoomplus" xlink:href="#zoomPlus" x="17" y="9" onmousedown="handleZoom(evt,'in')"/>
                <use id="zoomminus" xlink:href="#zoomMin" x="42" y="9" onmousedown="handleZoom(evt,'out')"/>
                <use id="reset" xlink:href="#resetDef" x="30" y="36" onmousedown="handleReset()"/>
                <g id="arrowUp" xlink:href="#dirArrow" transform="translate(30 24)" onmousedown="handlePan(0,-1)">
                  <use xlink:href="#rim" fill="#404040">
                        <set attributeName="fill" to="#808080" begin="arrowUp.mouseover" end="arrowUp.mouseout"/>
                  </use>
                  <path fill="none" stroke="white" stroke-width="1.5" d="M0,-3.0v7 M-2.5,-0.5L0,-3.0L2.5,-0.5"/>
                </g>
                <g id="arrowRight" xlink:href="#dirArrow" transform="rotate(90) translate(36 -43)" onmousedown="handlePan(1,0)">
                  <use xlink:href="#rim" fill="#404040">
                        <set attributeName="fill" to="#808080" begin="arrowRight.mouseover" end="arrowRight.mouseout"/>
                  </use>
                  <path fill="none" stroke="white" stroke-width="1.5" d="M0,-3.0v7 M-2.5,-0.5L0,-3.0L2.5,-0.5"/>
                </g>
                <g id="arrowDown" xlink:href="#dirArrow" transform="rotate(180) translate(-30 -48)" onmousedown="handlePan(0,1)">
                  <use xlink:href="#rim" fill="#404040">
                        <set attributeName="fill" to="#808080" begin="arrowDown.mouseover" end="arrowDown.mouseout"/>
                  </use>
                  <path fill="none" stroke="white" stroke-width="1.5" d="M0,-3.0v7 M-2.5,-0.5L0,-3.0L2.5,-0.5"/>
                </g>
                <g id="arrowLeft" xlink:href="#dirArrow" transform="rotate(270) translate(-36 17)" onmousedown="handlePan(-1,0)">
                  <use xlink:href="#rim" fill="#404040">
                        <set attributeName="fill" to="#808080" begin="arrowLeft.mouseover" end="arrowLeft.mouseout"/>
                  </use>
                  <path fill="none" stroke="white" stroke-width="1.5" d="M0,-3.0v7 M-2.5,-0.5L0,-3.0L2.5,-0.5"/>
                </g>
        </g>
        <svg viewBox="0 0 15 15" width="100%" height="30px" preserveAspectRatio="xMaxYMin meet">
         <g id="arrow_out" transform="scale(0.3 0.3)">
          <a xlink:href="response_8hpp__incl_org.svg" target="_base">
           <rect id="button" ry="5" rx="5" y="6" x="6" height="38" width="38"
                fill="#f2f5e9" fill-opacity="0.5" stroke="#606060" stroke-width="1.0"/>
           <path id="arrow"
             d="M 11.500037,31.436501 C 11.940474,20.09759 22.043105,11.32322 32.158766,21.979434 L 37.068811,17.246167 C 37.068811,17.246167 37.088388,32 37.088388,32 L 22.160133,31.978069 C 22.160133,31.978069 26.997745,27.140456 26.997745,27.140456 C 18.528582,18.264221 13.291696,25.230495 11.500037,31.436501 z"
             style="fill:#404040;"/>
          </a>
         </g>
        </svg>
</svg>
