<?xml version="1.0" encoding="UTF-8" standalone="no"?>
<!DOCTYPE svg PUBLIC "-//W3C//DTD SVG 1.1//EN"
 "http://www.w3.org/Graphics/SVG/1.1/DTD/svg11.dtd">
<!-- Generated by graphviz version 2.44.1 (20211215.1903)
 -->
<!-- Title: include/roar/response.hpp Pages: 1 -->
<!--zoomable 140 -->
<svg id="main" version="1.1" xmlns="http://www.w3.org/2000/svg" xmlns:xlink="http://www.w3.org/1999/xlink" xml:space="preserve" onload="init(evt)">
<style type="text/css"><![CDATA[
.edge:hover path { stroke: red; }
.edge:hover polygon { stroke: red; fill: red; }
]]></style>
<script type="text/javascript"><![CDATA[
var edges = document.getElementsByTagName('g');
if (edges && edges.length) {
  for (var i=0;i<edges.length;i++) {
    if (edges[i].id.substr(0,4)=='edge') {
      edges[i].setAttribute('class','edge');
    }
  }
}
]]></script>
        <defs>
                <circle id="rim" cx="0" cy="0" r="7"/>
                <circle id="rim2" cx="0" cy="0" r="3.5"/>
                <g id="zoomPlus">
                        <use xlink:href="#rim" fill="#404040">
                                <set attributeName="fill" to="#808080" begin="zoomplus.mouseover" end="zoomplus.mouseout"/>
                        </use>
                        <path d="M-4,0h8M0,-4v8" fill="none" stroke="white" stroke-width="1.5" pointer-events="none"/>
                </g>
                <g id="zoomMin">
                        <use xlink:href="#rim" fill="#404040">
                                <set attributeName="fill" to="#808080" begin="zoomminus.mouseover" end="zoomminus.mouseout"/>
                        </use>
                        <path d="M-4,0h8" fill="none" stroke="white" stroke-width="1.5" pointer-events="none"/>
                </g>
                <g id="dirArrow">
                        <path fill="none" stroke="white" stroke-width="1.5" d="M0,-3.0v7 M-2.5,-0.5L0,-3.0L2.5,-0.5"/>
                </g>
               <g id="resetDef">
                       <use xlink:href="#rim2" fill="#404040">
                               <set attributeName="fill" to="#808080" begin="reset.mouseover" end="reset.mouseout"/>
                       </use>
               </g>
        </defs>

<script type="text/javascript">
var viewWidth = 2716;
var viewHeight = 140;
var sectionId = 'dynsection-0';
</script>
<script xlink:href="svgpan.js"/>
<svg id="graph" class="graph">
<g id="viewport">
<title>include/roar/response.hpp</title>
<!-- Node1 -->
<g id="node1" class="node">
<title>Node1</title>
<g id="a_node1"><a xlink:title=" ">
<polygon fill="#bfbfbf" stroke="black" points="1303,-112.5 1303,-131.5 1431,-131.5 1431,-112.5 1303,-112.5"/>
<text text-anchor="middle" x="1367" y="-119.5" font-family="Helvetica,sans-Serif" font-size="10.00">include/roar/response.hpp</text>
</a>
</g>
</g>
<!-- Node2 -->
<g id="node2" class="node">
<title>Node2</title>
<g id="a_node2"><a xlink:href="promise__compat_8hpp.html" target="_top" xlink:title=" ">
<polygon fill="none" stroke="black" points="518.5,-56.5 518.5,-75.5 671.5,-75.5 671.5,-56.5 518.5,-56.5"/>
<text text-anchor="middle" x="595" y="-63.5" font-family="Helvetica,sans-Serif" font-size="10.00">roar/detail/promise_compat.hpp</text>
</a>
</g>
</g>
<!-- Node1&#45;&gt;Node2 -->
<g id="edge1" class="edge">
<title>Node1&#45;&gt;Node2</title>
<path fill="none" stroke="midnightblue" d="M1302.84,-116.51C1164.49,-106.84 838.02,-84 681.56,-73.05"/>
<polygon fill="midnightblue" stroke="midnightblue" points="681.72,-69.56 671.5,-72.35 681.23,-76.54 681.72,-69.56"/>
</g>
<!-- Node4 -->
<g id="node4" class="node">
<title>Node4</title>
<g id="a_node4"><a xlink:title=" ">
<polygon fill="none" stroke="#bfbfbf" points="532,-0.5 532,-19.5 658,-19.5 658,-0.5 532,-0.5"/>
<text text-anchor="middle" x="595" y="-7.5" font-family="Helvetica,sans-Serif" font-size="10.00">promise&#45;cpp/promise.hpp</text>
</a>
</g>
</g>
<!-- Node1&#45;&gt;Node4 -->
<g id="edge35" class="edge">
<title>Node1&#45;&gt;Node4</title>
<path fill="none" stroke="midnightblue" d="M1302.79,-116.25C1217.07,-109.49 1060.62,-95.7 928,-76 825.68,-60.8 707.05,-35.87 642.62,-21.71"/>
<polygon fill="midnightblue" stroke="midnightblue" points="643.28,-18.27 632.76,-19.53 641.77,-25.1 643.28,-18.27"/>
</g>
<!-- Node5 -->
<g id="node5" class="node">
<title>Node5</title>
<g id="a_node5"><a xlink:href="cors_8hpp.html" target="_top" xlink:title=" ">
<polygon fill="none" stroke="black" points="937,-56.5 937,-75.5 1011,-75.5 1011,-56.5 937,-56.5"/>
<text text-anchor="middle" x="974" y="-63.5" font-family="Helvetica,sans-Serif" font-size="10.00">roar/cors.hpp</text>
</a>
</g>
</g>
<!-- Node1&#45;&gt;Node5 -->
<g id="edge4" class="edge">
<title>Node1&#45;&gt;Node5</title>
<path fill="none" stroke="midnightblue" d="M1304.73,-112.44C1225.92,-101.62 1091.95,-83.21 1021.12,-73.48"/>
<polygon fill="midnightblue" stroke="midnightblue" points="1021.53,-70 1011.15,-72.1 1020.58,-76.93 1021.53,-70"/>
</g>
<!-- Node12 -->
<g id="node12" class="node">
<title>Node12</title>
<g id="a_node12"><a xlink:href="request_8hpp.html" target="_top" xlink:title=" ">
<polygon fill="none" stroke="black" points="1323.5,-56.5 1323.5,-75.5 1410.5,-75.5 1410.5,-56.5 1323.5,-56.5"/>
<text text-anchor="middle" x="1367" y="-63.5" font-family="Helvetica,sans-Serif" font-size="10.00">roar/request.hpp</text>
</a>
</g>
</g>
<!-- Node1&#45;&gt;Node12 -->
<g id="edge11" class="edge">
<title>Node1&#45;&gt;Node12</title>
<path fill="none" stroke="midnightblue" d="M1367,-112.08C1367,-105.01 1367,-94.86 1367,-85.99"/>
<polygon fill="midnightblue" stroke="midnightblue" points="1370.5,-85.75 1367,-75.75 1363.5,-85.75 1370.5,-85.75"/>
</g>
<!-- Node13 -->
<g id="node13" class="node">
<title>Node13</title>
<g id="a_node13"><a xlink:title=" ">
<polygon fill="none" stroke="#bfbfbf" points="1220.5,-0.5 1220.5,-19.5 1369.5,-19.5 1369.5,-0.5 1220.5,-0.5"/>
<text text-anchor="middle" x="1295" y="-7.5" font-family="Helvetica,sans-Serif" font-size="10.00">boost/beast/http/message.hpp</text>
</a>
</g>
</g>
<!-- Node1&#45;&gt;Node13 -->
<g id="edge33" class="edge">
<title>Node1&#45;&gt;Node13</title>
<path fill="none" stroke="midnightblue" d="M1353.14,-112.28C1341.39,-104.21 1324.91,-91.2 1315,-76 1305.83,-61.94 1300.68,-43.45 1297.91,-29.78"/>
<polygon fill="midnightblue" stroke="midnightblue" points="1301.3,-28.88 1296.1,-19.64 1294.41,-30.1 1301.3,-28.88"/>
</g>
<!-- Node22 -->
<g id="node22" class="node">
<title>Node22</title>
<g id="a_node22"><a xlink:href="error_8hpp.html" target="_top" xlink:title=" ">
<polygon fill="none" stroke="black" points="396,-56.5 396,-75.5 470,-75.5 470,-56.5 396,-56.5"/>
<text text-anchor="middle" x="433" y="-63.5" font-family="Helvetica,sans-Serif" font-size="10.00">roar/error.hpp</text>
</a>
</g>
</g>
<!-- Node1&#45;&gt;Node22 -->
<g id="edge24" class="edge">
<title>Node1&#45;&gt;Node22</title>
<path fill="none" stroke="midnightblue" d="M1302.86,-119.07C1160.05,-114.46 805.13,-101.27 509,-76 499.67,-75.2 489.71,-74.16 480.18,-73.07"/>
<polygon fill="midnightblue" stroke="midnightblue" points="480.4,-69.58 470.06,-71.88 479.58,-76.53 480.4,-69.58"/>
</g>
<!-- Node27 -->
<g id="node27" class="node">
<title>Node27</title>
<g id="a_node27"><a xlink:href="first__type_8hpp.html" target="_top" xlink:title=" ">
<polygon fill="none" stroke="black" points="1428.5,-56.5 1428.5,-75.5 1619.5,-75.5 1619.5,-56.5 1428.5,-56.5"/>
<text text-anchor="middle" x="1524" y="-63.5" font-family="Helvetica,sans-Serif" font-size="10.00">roar/detail/template_utility/first_type.hpp</text>
</a>
</g>
</g>
<!-- Node1&#45;&gt;Node27 -->
<g id="edge32" class="edge">
<title>Node1&#45;&gt;Node27</title>
<path fill="none" stroke="midnightblue" d="M1391.88,-112.44C1418.29,-103.36 1460.22,-88.94 1489.74,-78.78"/>
<polygon fill="midnightblue" stroke="midnightblue" points="1490.92,-82.08 1499.24,-75.52 1488.64,-75.46 1490.92,-82.08"/>
</g>
<!-- Node28 -->
<g id="node28" class="node">
<title>Node28</title>
<g id="a_node28"><a xlink:title=" ">
<polygon fill="none" stroke="#bfbfbf" points="1638,-56.5 1638,-75.5 1796,-75.5 1796,-56.5 1638,-56.5"/>
<text text-anchor="middle" x="1717" y="-63.5" font-family="Helvetica,sans-Serif" font-size="10.00">boost/beast/http/string_body.hpp</text>
</a>
</g>
</g>
<!-- Node1&#45;&gt;Node28 -->
<g id="edge34" class="edge">
<title>Node1&#45;&gt;Node28</title>
<path fill="none" stroke="midnightblue" d="M1422.46,-112.44C1484.67,-102.85 1585.48,-87.29 1651.51,-77.1"/>
<polygon fill="midnightblue" stroke="midnightblue" points="1652.45,-80.5 1661.8,-75.52 1651.38,-73.58 1652.45,-80.5"/>
</g>
<!-- Node29 -->
<g id="node29" class="node">
<title>Node29</title>
<g id="a_node29"><a xlink:title=" ">
<polygon fill="none" stroke="#bfbfbf" points="1814,-56.5 1814,-75.5 1876,-75.5 1876,-56.5 1814,-56.5"/>
<text text-anchor="middle" x="1845" y="-63.5" font-family="Helvetica,sans-Serif" font-size="10.00">type_traits</text>
</a>
</g>
</g>
<!-- Node1&#45;&gt;Node29 -->
<g id="edge36" class="edge">
<title>Node1&#45;&gt;Node29</title>
<path fill="none" stroke="midnightblue" d="M1431.15,-116.81C1514.77,-110.81 1665.69,-98.17 1803.71,-76.04"/>
<polygon fill="midnightblue" stroke="midnightblue" points="1804.32,-79.49 1813.63,-74.43 1803.19,-72.58 1804.32,-79.49"/>
</g>
<!-- Node30 -->
<g id="node30" class="node">
<title>Node30</title>
<g id="a_node30"><a xlink:title=" ">
<polygon fill="none" stroke="#bfbfbf" points="1894.5,-56.5 1894.5,-75.5 1945.5,-75.5 1945.5,-56.5 1894.5,-56.5"/>
<text text-anchor="middle" x="1920" y="-63.5" font-family="Helvetica,sans-Serif" font-size="10.00">numeric</text>
</a>
</g>
</g>
<!-- Node1&#45;&gt;Node30 -->
<g id="edge37" class="edge">
<title>Node1&#45;&gt;Node30</title>
<path fill="none" stroke="midnightblue" d="M1431.23,-118.83C1527.64,-114.82 1715.53,-104.09 1884.42,-75.79"/>
<polygon fill="midnightblue" stroke="midnightblue" points="1885.22,-79.21 1894.49,-74.08 1884.05,-72.3 1885.22,-79.21"/>
</g>
<!-- Node31 -->
<g id="node31" class="node">
<title>Node31</title>
<g id="a_node31"><a xlink:title=" ">
<polygon fill="none" stroke="#bfbfbf" points="1963.5,-56.5 1963.5,-75.5 2010.5,-75.5 2010.5,-56.5 1963.5,-56.5"/>
<text text-anchor="middle" x="1987" y="-63.5" font-family="Helvetica,sans-Serif" font-size="10.00">iterator</text>
</a>
</g>
</g>
<!-- Node1&#45;&gt;Node31 -->
<g id="edge38" class="edge">
<title>Node1&#45;&gt;Node31</title>
<path fill="none" stroke="midnightblue" d="M1431.04,-120.23C1537.77,-118.05 1758.76,-109.68 1953.24,-75.99"/>
<polygon fill="midnightblue" stroke="midnightblue" points="1954.11,-79.39 1963.36,-74.21 1952.9,-72.5 1954.11,-79.39"/>
</g>
<!-- Node3 -->
<g id="node3" class="node">
<title>Node3</title>
<g id="a_node3"><a xlink:title=" ">
<polygon fill="none" stroke="#bfbfbf" points="454.5,-0.5 454.5,-19.5 513.5,-19.5 513.5,-0.5 454.5,-0.5"/>
<text text-anchor="middle" x="484" y="-7.5" font-family="Helvetica,sans-Serif" font-size="10.00">functional</text>
</a>
</g>
</g>
<!-- Node2&#45;&gt;Node3 -->
<g id="edge2" class="edge">
<title>Node2&#45;&gt;Node3</title>
<path fill="none" stroke="midnightblue" d="M577.17,-56.32C559.28,-47.62 531.52,-34.12 510.95,-24.11"/>
<polygon fill="midnightblue" stroke="midnightblue" points="512.31,-20.88 501.79,-19.65 509.25,-27.18 512.31,-20.88"/>
</g>
<!-- Node2&#45;&gt;Node4 -->
<g id="edge3" class="edge">
<title>Node2&#45;&gt;Node4</title>
<path fill="none" stroke="midnightblue" d="M595,-56.08C595,-49.01 595,-38.86 595,-29.99"/>
<polygon fill="midnightblue" stroke="midnightblue" points="598.5,-29.75 595,-19.75 591.5,-29.75 598.5,-29.75"/>
</g>
<!-- Node6 -->
<g id="node6" class="node">
<title>Node6</title>
<g id="a_node6"><a xlink:title=" ">
<polygon fill="none" stroke="#bfbfbf" points="808.5,-0.5 808.5,-19.5 935.5,-19.5 935.5,-0.5 808.5,-0.5"/>
<text text-anchor="middle" x="872" y="-7.5" font-family="Helvetica,sans-Serif" font-size="10.00">boost/beast/http/field.hpp</text>
</a>
</g>
</g>
<!-- Node5&#45;&gt;Node6 -->
<g id="edge5" class="edge">
<title>Node5&#45;&gt;Node6</title>
<path fill="none" stroke="midnightblue" d="M957.61,-56.32C941.33,-47.7 916.13,-34.36 897.28,-24.39"/>
<polygon fill="midnightblue" stroke="midnightblue" points="898.82,-21.24 888.35,-19.65 895.55,-27.43 898.82,-21.24"/>
</g>
<!-- Node7 -->
<g id="node7" class="node">
<title>Node7</title>
<g id="a_node7"><a xlink:title=" ">
<polygon fill="none" stroke="#bfbfbf" points="1013,-0.5 1013,-19.5 1141,-19.5 1141,-0.5 1013,-0.5"/>
<text text-anchor="middle" x="1077" y="-7.5" font-family="Helvetica,sans-Serif" font-size="10.00">boost/beast/http/verb.hpp</text>
</a>
</g>
</g>
<!-- Node5&#45;&gt;Node7 -->
<g id="edge6" class="edge">
<title>Node5&#45;&gt;Node7</title>
<path fill="none" stroke="midnightblue" d="M990.55,-56.32C1006.99,-47.7 1032.43,-34.36 1051.47,-24.39"/>
<polygon fill="midnightblue" stroke="midnightblue" points="1053.26,-27.4 1060.49,-19.65 1050.01,-21.2 1053.26,-27.4"/>
</g>
<!-- Node8 -->
<g id="node8" class="node">
<title>Node8</title>
<g id="a_node8"><a xlink:title=" ">
<polygon fill="none" stroke="#bfbfbf" points="953.5,-0.5 953.5,-19.5 994.5,-19.5 994.5,-0.5 953.5,-0.5"/>
<text text-anchor="middle" x="974" y="-7.5" font-family="Helvetica,sans-Serif" font-size="10.00">string</text>
</a>
</g>
</g>
<!-- Node5&#45;&gt;Node8 -->
<g id="edge7" class="edge">
<title>Node5&#45;&gt;Node8</title>
<path fill="none" stroke="midnightblue" d="M974,-56.08C974,-49.01 974,-38.86 974,-29.99"/>
<polygon fill="midnightblue" stroke="midnightblue" points="977.5,-29.75 974,-19.75 970.5,-29.75 977.5,-29.75"/>
</g>
<!-- Node9 -->
<g id="node9" class="node">
<title>Node9</title>
<g id="a_node9"><a xlink:title=" ">
<polygon fill="none" stroke="#bfbfbf" points="1159,-0.5 1159,-19.5 1203,-19.5 1203,-0.5 1159,-0.5"/>
<text text-anchor="middle" x="1181" y="-7.5" font-family="Helvetica,sans-Serif" font-size="10.00">vector</text>
</a>
</g>
</g>
<!-- Node5&#45;&gt;Node9 -->
<g id="edge8" class="edge">
<title>Node5&#45;&gt;Node9</title>
<path fill="none" stroke="midnightblue" d="M1008.82,-56.45C1042.37,-48.13 1094.8,-34.93 1148.91,-20.24"/>
<polygon fill="midnightblue" stroke="midnightblue" points="1149.95,-23.58 1158.67,-17.58 1148.1,-16.83 1149.95,-23.58"/>
</g>
<!-- Node10 -->
<g id="node10" class="node">
<title>Node10</title>
<g id="a_node10"><a xlink:title=" ">
<polygon fill="none" stroke="#bfbfbf" points="676,-0.5 676,-19.5 722,-19.5 722,-0.5 676,-0.5"/>
<text text-anchor="middle" x="699" y="-7.5" font-family="Helvetica,sans-Serif" font-size="10.00">cctype</text>
</a>
</g>
</g>
<!-- Node5&#45;&gt;Node10 -->
<g id="edge9" class="edge">
<title>Node5&#45;&gt;Node10</title>
<path fill="none" stroke="midnightblue" d="M936.73,-59.18C890.82,-51.78 810.25,-38.01 732.03,-20.07"/>
<polygon fill="midnightblue" stroke="midnightblue" points="732.54,-16.59 722.01,-17.74 730.96,-23.41 732.54,-16.59"/>
</g>
<!-- Node11 -->
<g id="node11" class="node">
<title>Node11</title>
<g id="a_node11"><a xlink:title=" ">
<polygon fill="none" stroke="#bfbfbf" points="740,-0.5 740,-19.5 790,-19.5 790,-0.5 740,-0.5"/>
<text text-anchor="middle" x="765" y="-7.5" font-family="Helvetica,sans-Serif" font-size="10.00">optional</text>
</a>
</g>
</g>
<!-- Node5&#45;&gt;Node11 -->
<g id="edge10" class="edge">
<title>Node5&#45;&gt;Node11</title>
<path fill="none" stroke="midnightblue" d="M940.88,-56.44C902.42,-46.51 839.25,-30.18 800,-20.04"/>
<polygon fill="midnightblue" stroke="midnightblue" points="800.65,-16.6 790.09,-17.48 798.9,-23.37 800.65,-16.6"/>
</g>
<!-- Node12&#45;&gt;Node8 -->
<g id="edge21" class="edge">
<title>Node12&#45;&gt;Node8</title>
<path fill="none" stroke="midnightblue" d="M1323.31,-61.97C1256.6,-56.82 1125.31,-44.65 1004.69,-19.79"/>
<polygon fill="midnightblue" stroke="midnightblue" points="1005.04,-16.28 994.54,-17.66 1003.61,-23.14 1005.04,-16.28"/>
</g>
<!-- Node12&#45;&gt;Node9 -->
<g id="edge22" class="edge">
<title>Node12&#45;&gt;Node9</title>
<path fill="none" stroke="midnightblue" d="M1337.53,-56.44C1303.5,-46.56 1247.73,-30.37 1212.76,-20.22"/>
<polygon fill="midnightblue" stroke="midnightblue" points="1213.63,-16.83 1203.05,-17.4 1211.68,-23.55 1213.63,-16.83"/>
</g>
<!-- Node12&#45;&gt;Node11 -->
<g id="edge20" class="edge">
<title>Node12&#45;&gt;Node11</title>
<path fill="none" stroke="midnightblue" d="M1323.3,-64.09C1227.75,-61.56 993.34,-52.28 800,-20 799.9,-19.98 799.8,-19.97 799.7,-19.95"/>
<polygon fill="midnightblue" stroke="midnightblue" points="800.62,-16.56 790.12,-18.01 799.23,-23.43 800.62,-16.56"/>
</g>
<!-- Node12&#45;&gt;Node13 -->
<g id="edge12" class="edge">
<title>Node12&#45;&gt;Node13</title>
<path fill="none" stroke="midnightblue" d="M1355.43,-56.32C1344.58,-48.18 1328.12,-35.84 1315.12,-26.09"/>
<polygon fill="midnightblue" stroke="midnightblue" points="1316.88,-23.03 1306.78,-19.83 1312.68,-28.63 1316.88,-23.03"/>
</g>
<!-- Node14 -->
<g id="node14" class="node">
<title>Node14</title>
<g id="a_node14"><a xlink:title=" ">
<polygon fill="none" stroke="#bfbfbf" points="1978.5,-0.5 1978.5,-19.5 2139.5,-19.5 2139.5,-0.5 1978.5,-0.5"/>
<text text-anchor="middle" x="2059" y="-7.5" font-family="Helvetica,sans-Serif" font-size="10.00">boost/beast/http/empty_body.hpp</text>
</a>
</g>
</g>
<!-- Node12&#45;&gt;Node14 -->
<g id="edge13" class="edge">
<title>Node12&#45;&gt;Node14</title>
<path fill="none" stroke="midnightblue" d="M1410.62,-57.23C1413.79,-56.77 1416.94,-56.36 1420,-56 1659.97,-27.85 1724.13,-39.98 1968.23,-20.12"/>
<polygon fill="midnightblue" stroke="midnightblue" points="1968.8,-23.58 1978.48,-19.27 1968.23,-16.6 1968.8,-23.58"/>
</g>
<!-- Node15 -->
<g id="node15" class="node">
<title>Node15</title>
<g id="a_node15"><a xlink:title=" ">
<polygon fill="none" stroke="#bfbfbf" points="2157.5,-0.5 2157.5,-19.5 2346.5,-19.5 2346.5,-0.5 2157.5,-0.5"/>
<text text-anchor="middle" x="2252" y="-7.5" font-family="Helvetica,sans-Serif" font-size="10.00">boost/algorithm/string/classification.hpp</text>
</a>
</g>
</g>
<!-- Node12&#45;&gt;Node15 -->
<g id="edge14" class="edge">
<title>Node12&#45;&gt;Node15</title>
<path fill="none" stroke="midnightblue" d="M1410.62,-57.17C1413.79,-56.73 1416.94,-56.33 1420,-56 1739.17,-21.14 1823.64,-41.69 2147.3,-20.09"/>
<polygon fill="midnightblue" stroke="midnightblue" points="2147.7,-23.57 2157.44,-19.4 2147.22,-16.59 2147.7,-23.57"/>
</g>
<!-- Node16 -->
<g id="node16" class="node">
<title>Node16</title>
<g id="a_node16"><a xlink:title=" ">
<polygon fill="none" stroke="#bfbfbf" points="2364.5,-0.5 2364.5,-19.5 2539.5,-19.5 2539.5,-0.5 2364.5,-0.5"/>
<text text-anchor="middle" x="2452" y="-7.5" font-family="Helvetica,sans-Serif" font-size="10.00">boost/algorithm/string/constants.hpp</text>
</a>
</g>
</g>
<!-- Node12&#45;&gt;Node16 -->
<g id="edge15" class="edge">
<title>Node12&#45;&gt;Node16</title>
<path fill="none" stroke="midnightblue" d="M1410.61,-57.13C1413.78,-56.7 1416.94,-56.32 1420,-56 1830.75,-13.41 1938.86,-46.89 2354.2,-20.08"/>
<polygon fill="midnightblue" stroke="midnightblue" points="2354.63,-23.56 2364.38,-19.41 2354.17,-16.57 2354.63,-23.56"/>
</g>
<!-- Node17 -->
<g id="node17" class="node">
<title>Node17</title>
<g id="a_node17"><a xlink:title=" ">
<polygon fill="none" stroke="#bfbfbf" points="2558,-0.5 2558,-19.5 2708,-19.5 2708,-0.5 2558,-0.5"/>
<text text-anchor="middle" x="2633" y="-7.5" font-family="Helvetica,sans-Serif" font-size="10.00">boost/algorithm/string/split.hpp</text>
</a>
</g>
</g>
<!-- Node12&#45;&gt;Node17 -->
<g id="edge16" class="edge">
<title>Node12&#45;&gt;Node17</title>
<path fill="none" stroke="midnightblue" d="M1410.61,-57.11C1413.78,-56.69 1416.94,-56.31 1420,-56 1916.23,-6.19 2046.46,-54.13 2547.89,-20.02"/>
<polygon fill="midnightblue" stroke="midnightblue" points="2548.18,-23.5 2557.92,-19.33 2547.7,-16.52 2548.18,-23.5"/>
</g>
<!-- Node18 -->
<g id="node18" class="node">
<title>Node18</title>
<g id="a_node18"><a xlink:title=" ">
<polygon fill="none" stroke="#bfbfbf" points="1387.5,-0.5 1387.5,-19.5 1536.5,-19.5 1536.5,-0.5 1387.5,-0.5"/>
<text text-anchor="middle" x="1462" y="-7.5" font-family="Helvetica,sans-Serif" font-size="10.00">boost/algorithm/string/trim.hpp</text>
</a>
</g>
</g>
<!-- Node12&#45;&gt;Node18 -->
<g id="edge17" class="edge">
<title>Node12&#45;&gt;Node18</title>
<path fill="none" stroke="midnightblue" d="M1382.26,-56.32C1397.22,-47.82 1420.25,-34.73 1437.73,-24.8"/>
<polygon fill="midnightblue" stroke="midnightblue" points="1439.81,-27.64 1446.77,-19.65 1436.35,-21.55 1439.81,-27.64"/>
</g>
<!-- Node19 -->
<g id="node19" class="node">
<title>Node19</title>
<g id="a_node19"><a xlink:title=" ">
<polygon fill="none" stroke="#bfbfbf" points="1555,-0.5 1555,-19.5 1727,-19.5 1727,-0.5 1555,-0.5"/>
<text text-anchor="middle" x="1641" y="-7.5" font-family="Helvetica,sans-Serif" font-size="10.00">boost/beast/websocket/rfc6455.hpp</text>
</a>
</g>
</g>
<!-- Node12&#45;&gt;Node19 -->
<g id="edge18" class="edge">
<title>Node12&#45;&gt;Node19</title>
<path fill="none" stroke="midnightblue" d="M1410.42,-56.44C1458.52,-46.96 1536.09,-31.67 1587.81,-21.48"/>
<polygon fill="midnightblue" stroke="midnightblue" points="1588.65,-24.88 1597.79,-19.52 1587.3,-18.02 1588.65,-24.88"/>
</g>
<!-- Node20 -->
<g id="node20" class="node">
<title>Node20</title>
<g id="a_node20"><a xlink:title=" ">
<polygon fill="none" stroke="#bfbfbf" points="1745,-0.5 1745,-19.5 1859,-19.5 1859,-0.5 1745,-0.5"/>
<text text-anchor="middle" x="1802" y="-7.5" font-family="Helvetica,sans-Serif" font-size="10.00">boost/lexical_cast.hpp</text>
</a>
</g>
</g>
<!-- Node12&#45;&gt;Node20 -->
<g id="edge19" class="edge">
<title>Node12&#45;&gt;Node20</title>
<path fill="none" stroke="midnightblue" d="M1410.64,-57.39C1413.81,-56.9 1416.95,-56.43 1420,-56 1556.67,-36.63 1594.01,-37.5 1734.48,-20.16"/>
<polygon fill="midnightblue" stroke="midnightblue" points="1735.28,-23.59 1744.77,-18.88 1734.42,-16.64 1735.28,-23.59"/>
</g>
<!-- Node21 -->
<g id="node21" class="node">
<title>Node21</title>
<g id="a_node21"><a xlink:title=" ">
<polygon fill="none" stroke="#bfbfbf" points="1877.5,-0.5 1877.5,-19.5 1960.5,-19.5 1960.5,-0.5 1877.5,-0.5"/>
<text text-anchor="middle" x="1919" y="-7.5" font-family="Helvetica,sans-Serif" font-size="10.00">unordered_map</text>
</a>
</g>
</g>
<!-- Node12&#45;&gt;Node21 -->
<g id="edge23" class="edge">
<title>Node12&#45;&gt;Node21</title>
<path fill="none" stroke="midnightblue" d="M1410.63,-57.28C1413.79,-56.81 1416.94,-56.38 1420,-56 1614.92,-31.67 1668.11,-44.93 1867.1,-19.99"/>
<polygon fill="midnightblue" stroke="midnightblue" points="1867.82,-23.42 1877.3,-18.69 1866.94,-16.48 1867.82,-23.42"/>
</g>
<!-- Node22&#45;&gt;Node3 -->
<g id="edge30" class="edge">
<title>Node22&#45;&gt;Node3</title>
<path fill="none" stroke="midnightblue" d="M441.42,-56.08C448.85,-48.22 459.85,-36.57 468.81,-27.08"/>
<polygon fill="midnightblue" stroke="midnightblue" points="471.41,-29.42 475.74,-19.75 466.32,-24.62 471.41,-29.42"/>
</g>
<!-- Node22&#45;&gt;Node8 -->
<g id="edge27" class="edge">
<title>Node22&#45;&gt;Node8</title>
<path fill="none" stroke="midnightblue" d="M470.08,-60.34C482.45,-58.86 496.31,-57.28 509,-56 699.16,-36.9 752.32,-56.35 943.15,-19.99"/>
<polygon fill="midnightblue" stroke="midnightblue" points="944.08,-23.38 953.23,-18.04 942.75,-16.5 944.08,-23.38"/>
</g>
<!-- Node22&#45;&gt;Node11 -->
<g id="edge29" class="edge">
<title>Node22&#45;&gt;Node11</title>
<path fill="none" stroke="midnightblue" d="M470.4,-60.68C525.26,-54.06 630.92,-40.2 729.95,-20.03"/>
<polygon fill="midnightblue" stroke="midnightblue" points="730.74,-23.44 739.82,-17.99 729.32,-16.58 730.74,-23.44"/>
</g>
<!-- Node23 -->
<g id="node23" class="node">
<title>Node23</title>
<g id="a_node23"><a xlink:href="forward_8hpp.html" target="_top" xlink:title=" ">
<polygon fill="none" stroke="black" points="0,-0.5 0,-19.5 114,-19.5 114,-0.5 0,-0.5"/>
<text text-anchor="middle" x="57" y="-7.5" font-family="Helvetica,sans-Serif" font-size="10.00">roar/beast/forward.hpp</text>
</a>
</g>
</g>
<!-- Node22&#45;&gt;Node23 -->
<g id="edge25" class="edge">
<title>Node22&#45;&gt;Node23</title>
<path fill="none" stroke="midnightblue" d="M395.92,-59.67C332.76,-50.6 203.44,-32.03 124.08,-20.63"/>
<polygon fill="midnightblue" stroke="midnightblue" points="124.57,-17.17 114.18,-19.21 123.58,-24.1 124.57,-17.17"/>
</g>
<!-- Node24 -->
<g id="node24" class="node">
<title>Node24</title>
<g id="a_node24"><a xlink:title=" ">
<polygon fill="none" stroke="#bfbfbf" points="132.5,-0.5 132.5,-19.5 287.5,-19.5 287.5,-0.5 132.5,-0.5"/>
<text text-anchor="middle" x="210" y="-7.5" font-family="Helvetica,sans-Serif" font-size="10.00">boost/system/system_error.hpp</text>
</a>
</g>
</g>
<!-- Node22&#45;&gt;Node24 -->
<g id="edge26" class="edge">
<title>Node22&#45;&gt;Node24</title>
<path fill="none" stroke="midnightblue" d="M397.66,-56.44C359.09,-47.1 297.22,-32.12 255.15,-21.93"/>
<polygon fill="midnightblue" stroke="midnightblue" points="255.71,-18.47 245.17,-19.52 254.07,-25.27 255.71,-18.47"/>
</g>
<!-- Node25 -->
<g id="node25" class="node">
<title>Node25</title>
<g id="a_node25"><a xlink:title=" ">
<polygon fill="none" stroke="#bfbfbf" points="306,-0.5 306,-19.5 352,-19.5 352,-0.5 306,-0.5"/>
<text text-anchor="middle" x="329" y="-7.5" font-family="Helvetica,sans-Serif" font-size="10.00">variant</text>
</a>
</g>
</g>
<!-- Node22&#45;&gt;Node25 -->
<g id="edge28" class="edge">
<title>Node22&#45;&gt;Node25</title>
<path fill="none" stroke="midnightblue" d="M416.29,-56.32C399.69,-47.7 374,-34.36 354.78,-24.39"/>
<polygon fill="midnightblue" stroke="midnightblue" points="356.16,-21.16 345.67,-19.65 352.93,-27.37 356.16,-21.16"/>
</g>
<!-- Node26 -->
<g id="node26" class="node">
<title>Node26</title>
<g id="a_node26"><a xlink:title=" ">
<polygon fill="none" stroke="#bfbfbf" points="370,-0.5 370,-19.5 436,-19.5 436,-0.5 370,-0.5"/>
<text text-anchor="middle" x="403" y="-7.5" font-family="Helvetica,sans-Serif" font-size="10.00">string_view</text>
</a>
</g>
</g>
<!-- Node22&#45;&gt;Node26 -->
<g id="edge31" class="edge">
<title>Node22&#45;&gt;Node26</title>
<path fill="none" stroke="midnightblue" d="M428.05,-56.08C423.9,-48.61 417.85,-37.72 412.73,-28.52"/>
<polygon fill="midnightblue" stroke="midnightblue" points="415.78,-26.79 407.86,-19.75 409.66,-30.19 415.78,-26.79"/>
</g>
</g>
</svg>
        <g id="navigator" transform="translate(0 0)" fill="#404254">
                <rect fill="#f2f5e9" fill-opacity="0.5" stroke="#606060" stroke-width=".5" x="0" y="0" width="60" height="60"/>
                <use id="zoomplus" xlink:href="#zoomPlus" x="17" y="9" onmousedown="handleZoom(evt,'in')"/>
                <use id="zoomminus" xlink:href="#zoomMin" x="42" y="9" onmousedown="handleZoom(evt,'out')"/>
                <use id="reset" xlink:href="#resetDef" x="30" y="36" onmousedown="handleReset()"/>
                <g id="arrowUp" xlink:href="#dirArrow" transform="translate(30 24)" onmousedown="handlePan(0,-1)">
                  <use xlink:href="#rim" fill="#404040">
                        <set attributeName="fill" to="#808080" begin="arrowUp.mouseover" end="arrowUp.mouseout"/>
                  </use>
                  <path fill="none" stroke="white" stroke-width="1.5" d="M0,-3.0v7 M-2.5,-0.5L0,-3.0L2.5,-0.5"/>
                </g>
                <g id="arrowRight" xlink:href="#dirArrow" transform="rotate(90) translate(36 -43)" onmousedown="handlePan(1,0)">
                  <use xlink:href="#rim" fill="#404040">
                        <set attributeName="fill" to="#808080" begin="arrowRight.mouseover" end="arrowRight.mouseout"/>
                  </use>
                  <path fill="none" stroke="white" stroke-width="1.5" d="M0,-3.0v7 M-2.5,-0.5L0,-3.0L2.5,-0.5"/>
                </g>
                <g id="arrowDown" xlink:href="#dirArrow" transform="rotate(180) translate(-30 -48)" onmousedown="handlePan(0,1)">
                  <use xlink:href="#rim" fill="#404040">
                        <set attributeName="fill" to="#808080" begin="arrowDown.mouseover" end="arrowDown.mouseout"/>
                  </use>
                  <path fill="none" stroke="white" stroke-width="1.5" d="M0,-3.0v7 M-2.5,-0.5L0,-3.0L2.5,-0.5"/>
                </g>
                <g id="arrowLeft" xlink:href="#dirArrow" transform="rotate(270) translate(-36 17)" onmousedown="handlePan(-1,0)">
                  <use xlink:href="#rim" fill="#404040">
                        <set attributeName="fill" to="#808080" begin="arrowLeft.mouseover" end="arrowLeft.mouseout"/>
                  </use>
                  <path fill="none" stroke="white" stroke-width="1.5" d="M0,-3.0v7 M-2.5,-0.5L0,-3.0L2.5,-0.5"/>
                </g>
        </g>
        <svg viewBox="0 0 15 15" width="100%" height="30px" preserveAspectRatio="xMaxYMin meet">
         <g id="arrow_out" transform="scale(0.3 0.3)">
          <a xlink:href="response_8hpp__incl_org.svg" target="_base">
           <rect id="button" ry="5" rx="5" y="6" x="6" height="38" width="38"
                fill="#f2f5e9" fill-opacity="0.5" stroke="#606060" stroke-width="1.0"/>
           <path id="arrow"
             d="M 11.500037,31.436501 C 11.940474,20.09759 22.043105,11.32322 32.158766,21.979434 L 37.068811,17.246167 C 37.068811,17.246167 37.088388,32 37.088388,32 L 22.160133,31.978069 C 22.160133,31.978069 26.997745,27.140456 26.997745,27.140456 C 18.528582,18.264221 13.291696,25.230495 11.500037,31.436501 z"
             style="fill:#404040;"/>
          </a>
         </g>
        </svg>
</svg>
