<?xml version="1.0" encoding="UTF-8" standalone="no"?>
<!DOCTYPE svg PUBLIC "-//W3C//DTD SVG 1.1//EN"
 "http://www.w3.org/Graphics/SVG/1.1/DTD/svg11.dtd">
<!-- Generated by graphviz version 8.1.0 (0)
 -->
<!-- Title: include/roar/routing/route.hpp Pages: 1 -->
<svg width="1159pt" height="196pt"
 viewBox="0.00 0.00 1159.46 196.00" xmlns="http://www.w3.org/2000/svg" xmlns:xlink="http://www.w3.org/1999/xlink">
<g id="graph0" class="graph" transform="scale(1 1) rotate(0) translate(4 192)">
<title>include/roar/routing/route.hpp</title>
<!-- Node1 -->
<g id="Node000001" class="node">
<title>Node1</title>
<g id="a_Node000001"><a xlink:title=" ">
<polygon fill="#999999" stroke="#666666" points="619.83,-188 477.83,-188 477.83,-168 619.83,-168 619.83,-188"/>
<text text-anchor="middle" x="548.83" y="-174.5" font-family="Helvetica,sans-Serif" font-size="10.00">include/roar/routing/route.hpp</text>
</a>
</g>
</g>
<!-- Node2 -->
<g id="Node000002" class="node">
<title>Node2</title>
<g id="a_Node000002"><a xlink:href="proto__route_8hpp.html" target="_top" xlink:title=" ">
<polygon fill="white" stroke="#666666" points="318.46,-132 183.21,-132 183.21,-112 318.46,-112 318.46,-132"/>
<text text-anchor="middle" x="250.83" y="-118.5" font-family="Helvetica,sans-Serif" font-size="10.00">roar/routing/proto_route.hpp</text>
</a>
</g>
</g>
<!-- Node1&#45;&gt;Node2 -->
<g id="edge1_Node000001_Node000002" class="edge">
<title>Node1&#45;&gt;Node2</title>
<g id="a_edge1_Node000001_Node000002"><a xlink:title=" ">
<path fill="none" stroke="#63b8ff" d="M496.58,-167.53C445.57,-158.29 367.89,-144.21 313.56,-134.37"/>
<polygon fill="#63b8ff" stroke="#63b8ff" points="314.48,-130.8 304.02,-132.46 313.23,-137.68 314.48,-130.8"/>
</a>
</g>
</g>
<!-- Node3 -->
<g id="Node000003" class="node">
<title>Node3</title>
<g id="a_Node000003"><a xlink:title=" ">
<polygon fill="#e0e0e0" stroke="#999999" points="572.21,-76 411.46,-76 411.46,-56 572.21,-56 572.21,-76"/>
<text text-anchor="middle" x="491.83" y="-62.5" font-family="Helvetica,sans-Serif" font-size="10.00">boost/beast/http/empty_body.hpp</text>
</a>
</g>
</g>
<!-- Node1&#45;&gt;Node3 -->
<g id="edge24_Node000001_Node000003" class="edge">
<title>Node1&#45;&gt;Node3</title>
<g id="a_edge24_Node000001_Node000003"><a xlink:title=" ">
<path fill="none" stroke="#63b8ff" d="M500.29,-167.51C480.52,-161 459.59,-150.11 447.83,-132 436.87,-115.12 453.19,-96.09 468.97,-83"/>
<polygon fill="#63b8ff" stroke="#63b8ff" points="470.74,-85.29 476.5,-76.4 466.45,-79.75 470.74,-85.29"/>
</a>
</g>
</g>
<!-- Node16 -->
<g id="Node000016" class="node">
<title>Node16</title>
<g id="a_Node000016"><a xlink:href="pimpl__special__functions_8hpp.html" target="_top" xlink:title=" ">
<polygon fill="white" stroke="#666666" points="641.21,-132 456.46,-132 456.46,-112 641.21,-112 641.21,-132"/>
<text text-anchor="middle" x="548.83" y="-118.5" font-family="Helvetica,sans-Serif" font-size="10.00">roar/detail/pimpl_special_functions.hpp</text>
</a>
</g>
</g>
<!-- Node1&#45;&gt;Node16 -->
<g id="edge17_Node000001_Node000016" class="edge">
<title>Node1&#45;&gt;Node16</title>
<g id="a_edge17_Node000001_Node000016"><a xlink:title=" ">
<path fill="none" stroke="#63b8ff" d="M548.83,-167.59C548.83,-160.86 548.83,-151.53 548.83,-143.15"/>
<polygon fill="#63b8ff" stroke="#63b8ff" points="552.33,-143.3 548.83,-133.3 545.33,-143.3 552.33,-143.3"/>
</a>
</g>
</g>
<!-- Node17 -->
<g id="Node000017" class="node">
<title>Node17</title>
<g id="a_Node000017"><a xlink:href="standard__response__provider_8hpp.html" target="_top" xlink:title=" ">
<polygon fill="white" stroke="#666666" points="836.08,-132 659.58,-132 659.58,-112 836.08,-112 836.08,-132"/>
<text text-anchor="middle" x="747.83" y="-118.5" font-family="Helvetica,sans-Serif" font-size="10.00">roar/standard_response_provider.hpp</text>
</a>
</g>
</g>
<!-- Node1&#45;&gt;Node17 -->
<g id="edge18_Node000001_Node000017" class="edge">
<title>Node1&#45;&gt;Node17</title>
<g id="a_edge18_Node000001_Node000017"><a xlink:title=" ">
<path fill="none" stroke="#63b8ff" d="M583.49,-167.59C616.53,-158.63 666.47,-145.08 702.62,-135.27"/>
<polygon fill="#63b8ff" stroke="#63b8ff" points="703.16,-138.48 711.9,-132.48 701.33,-131.72 703.16,-138.48"/>
</a>
</g>
</g>
<!-- Node22 -->
<g id="Node000022" class="node">
<title>Node22</title>
<g id="a_Node000022"><a xlink:title=" ">
<polygon fill="#e0e0e0" stroke="#999999" points="905.46,-132 854.21,-132 854.21,-112 905.46,-112 905.46,-132"/>
<text text-anchor="middle" x="879.83" y="-118.5" font-family="Helvetica,sans-Serif" font-size="10.00">memory</text>
</a>
</g>
</g>
<!-- Node1&#45;&gt;Node22 -->
<g id="edge25_Node000001_Node000022" class="edge">
<title>Node1&#45;&gt;Node22</title>
<g id="a_edge25_Node000001_Node000022"><a xlink:title=" ">
<path fill="none" stroke="#63b8ff" d="M620.06,-168.22C677.71,-160.65 761.19,-148.62 843.14,-132.17"/>
<polygon fill="#63b8ff" stroke="#63b8ff" points="843.8,-135.4 852.9,-129.98 842.41,-128.54 843.8,-135.4"/>
</a>
</g>
</g>
<!-- Node2&#45;&gt;Node3 -->
<g id="edge2_Node000002_Node000003" class="edge">
<title>Node2&#45;&gt;Node3</title>
<g id="a_edge2_Node000002_Node000003"><a xlink:title=" ">
<path fill="none" stroke="#63b8ff" d="M293.09,-111.53C333.74,-102.42 395.33,-88.62 439.17,-78.8"/>
<polygon fill="#63b8ff" stroke="#63b8ff" points="439.63,-82.06 448.62,-76.46 438.1,-75.23 439.63,-82.06"/>
</a>
</g>
</g>
<!-- Node4 -->
<g id="Node000004" class="node">
<title>Node4</title>
<g id="a_Node000004"><a xlink:href="cors_8hpp.html" target="_top" xlink:title=" ">
<polygon fill="white" stroke="#666666" points="393.33,-76 320.33,-76 320.33,-56 393.33,-56 393.33,-76"/>
<text text-anchor="middle" x="356.83" y="-62.5" font-family="Helvetica,sans-Serif" font-size="10.00">roar/cors.hpp</text>
</a>
</g>
</g>
<!-- Node2&#45;&gt;Node4 -->
<g id="edge3_Node000002_Node000004" class="edge">
<title>Node2&#45;&gt;Node4</title>
<g id="a_edge3_Node000002_Node000004"><a xlink:title=" ">
<path fill="none" stroke="#63b8ff" d="M269.29,-111.59C285.61,-103.28 309.66,-91.03 328.42,-81.47"/>
<polygon fill="#63b8ff" stroke="#63b8ff" points="329.9,-84.14 337.22,-76.48 326.72,-77.9 329.9,-84.14"/>
</a>
</g>
</g>
<!-- Node7 -->
<g id="Node000007" class="node">
<title>Node7</title>
<g id="a_Node000007"><a xlink:title=" ">
<polygon fill="#e0e0e0" stroke="#999999" points="269.83,-20 229.83,-20 229.83,0 269.83,0 269.83,-20"/>
<text text-anchor="middle" x="249.83" y="-6.5" font-family="Helvetica,sans-Serif" font-size="10.00">string</text>
</a>
</g>
</g>
<!-- Node2&#45;&gt;Node7 -->
<g id="edge13_Node000002_Node000007" class="edge">
<title>Node2&#45;&gt;Node7</title>
<g id="a_edge13_Node000002_Node000007"><a xlink:title=" ">
<path fill="none" stroke="#63b8ff" d="M257.37,-111.9C265.5,-99.46 277.74,-76.39 272.83,-56 270.63,-46.87 266.25,-37.5 261.89,-29.69"/>
<polygon fill="#63b8ff" stroke="#63b8ff" points="264.51,-28.26 256.37,-21.48 258.51,-31.86 264.51,-28.26"/>
</a>
</g>
</g>
<!-- Node11 -->
<g id="Node000011" class="node">
<title>Node11</title>
<g id="a_Node000011"><a xlink:href="regex_8hpp.html" target="_top" xlink:title=" ">
<polygon fill="white" stroke="#666666" points="263.71,-76 153.96,-76 153.96,-56 263.71,-56 263.71,-76"/>
<text text-anchor="middle" x="208.83" y="-62.5" font-family="Helvetica,sans-Serif" font-size="10.00">roar/literals/regex.hpp</text>
</a>
</g>
</g>
<!-- Node2&#45;&gt;Node11 -->
<g id="edge10_Node000002_Node000011" class="edge">
<title>Node2&#45;&gt;Node11</title>
<g id="a_edge10_Node000002_Node000011"><a xlink:title=" ">
<path fill="none" stroke="#63b8ff" d="M243.51,-111.59C237.79,-104.24 229.67,-93.8 222.73,-84.87"/>
<polygon fill="#63b8ff" stroke="#63b8ff" points="224.96,-83.04 216.06,-77.3 219.44,-87.34 224.96,-83.04"/>
</a>
</g>
</g>
<!-- Node13 -->
<g id="Node000013" class="node">
<title>Node13</title>
<g id="a_Node000013"><a xlink:title=" ">
<polygon fill="#e0e0e0" stroke="#999999" points="86.83,-20 46.83,-20 46.83,0 86.83,0 86.83,-20"/>
<text text-anchor="middle" x="66.83" y="-6.5" font-family="Helvetica,sans-Serif" font-size="10.00">regex</text>
</a>
</g>
</g>
<!-- Node2&#45;&gt;Node13 -->
<g id="edge16_Node000002_Node000013" class="edge">
<title>Node2&#45;&gt;Node13</title>
<g id="a_edge16_Node000002_Node000013"><a xlink:title=" ">
<path fill="none" stroke="#63b8ff" d="M182.98,-118.06C118.17,-113.66 27.14,-102.76 4.83,-76 -10.37,-57.76 14.44,-38.23 37.04,-25.39"/>
<polygon fill="#63b8ff" stroke="#63b8ff" points="38.32,-28.14 45.47,-20.32 35.01,-21.97 38.32,-28.14"/>
</a>
</g>
</g>
<!-- Node14 -->
<g id="Node000014" class="node">
<title>Node14</title>
<g id="a_Node000014"><a xlink:title=" ">
<polygon fill="#e0e0e0" stroke="#999999" points="71.83,-76 13.83,-76 13.83,-56 71.83,-56 71.83,-76"/>
<text text-anchor="middle" x="42.83" y="-62.5" font-family="Helvetica,sans-Serif" font-size="10.00">functional</text>
</a>
</g>
</g>
<!-- Node2&#45;&gt;Node14 -->
<g id="edge14_Node000002_Node000014" class="edge">
<title>Node2&#45;&gt;Node14</title>
<g id="a_edge14_Node000002_Node000014"><a xlink:title=" ">
<path fill="none" stroke="#63b8ff" d="M214.6,-111.59C177.68,-102.01 120.58,-87.19 82.48,-77.29"/>
<polygon fill="#63b8ff" stroke="#63b8ff" points="83.82,-73.77 73.27,-74.64 82.07,-80.54 83.82,-73.77"/>
</a>
</g>
</g>
<!-- Node15 -->
<g id="Node000015" class="node">
<title>Node15</title>
<g id="a_Node000015"><a xlink:title=" ">
<polygon fill="#e0e0e0" stroke="#999999" points="135.46,-76 90.21,-76 90.21,-56 135.46,-56 135.46,-76"/>
<text text-anchor="middle" x="112.83" y="-62.5" font-family="Helvetica,sans-Serif" font-size="10.00">variant</text>
</a>
</g>
</g>
<!-- Node2&#45;&gt;Node15 -->
<g id="edge15_Node000002_Node000015" class="edge">
<title>Node2&#45;&gt;Node15</title>
<g id="a_edge15_Node000002_Node000015"><a xlink:title=" ">
<path fill="none" stroke="#63b8ff" d="M226.79,-111.59C204.36,-102.82 170.7,-89.64 145.77,-79.89"/>
<polygon fill="#63b8ff" stroke="#63b8ff" points="147.26,-76.32 136.68,-75.94 144.71,-82.84 147.26,-76.32"/>
</a>
</g>
</g>
<!-- Node5 -->
<g id="Node000005" class="node">
<title>Node5</title>
<g id="a_Node000005"><a xlink:title=" ">
<polygon fill="#e0e0e0" stroke="#999999" points="545.96,-20 419.71,-20 419.71,0 545.96,0 545.96,-20"/>
<text text-anchor="middle" x="482.83" y="-6.5" font-family="Helvetica,sans-Serif" font-size="10.00">boost/beast/http/field.hpp</text>
</a>
</g>
</g>
<!-- Node4&#45;&gt;Node5 -->
<g id="edge4_Node000004_Node000005" class="edge">
<title>Node4&#45;&gt;Node5</title>
<g id="a_edge4_Node000004_Node000005"><a xlink:title=" ">
<path fill="none" stroke="#63b8ff" d="M378.78,-55.59C398.62,-47.09 428.09,-34.46 450.6,-24.81"/>
<polygon fill="#63b8ff" stroke="#63b8ff" points="451.9,-27.64 459.71,-20.48 449.14,-21.2 451.9,-27.64"/>
</a>
</g>
</g>
<!-- Node6 -->
<g id="Node000006" class="node">
<title>Node6</title>
<g id="a_Node000006"><a xlink:title=" ">
<polygon fill="#e0e0e0" stroke="#999999" points="691.33,-20 564.33,-20 564.33,0 691.33,0 691.33,-20"/>
<text text-anchor="middle" x="627.83" y="-6.5" font-family="Helvetica,sans-Serif" font-size="10.00">boost/beast/http/verb.hpp</text>
</a>
</g>
</g>
<!-- Node4&#45;&gt;Node6 -->
<g id="edge5_Node000004_Node000006" class="edge">
<title>Node4&#45;&gt;Node6</title>
<g id="a_edge5_Node000004_Node000006"><a xlink:title=" ">
<path fill="none" stroke="#63b8ff" d="M393.66,-57.66C439.02,-48.62 516.59,-33.17 569.94,-22.54"/>
<polygon fill="#63b8ff" stroke="#63b8ff" points="570.48,-25.8 579.6,-20.41 569.11,-18.93 570.48,-25.8"/>
</a>
</g>
</g>
<!-- Node4&#45;&gt;Node7 -->
<g id="edge6_Node000004_Node000007" class="edge">
<title>Node4&#45;&gt;Node7</title>
<g id="a_edge6_Node000004_Node000007"><a xlink:title=" ">
<path fill="none" stroke="#63b8ff" d="M338.19,-55.59C321.65,-47.24 297.22,-34.92 278.24,-25.34"/>
<polygon fill="#63b8ff" stroke="#63b8ff" points="280.12,-21.86 269.61,-20.48 276.96,-28.11 280.12,-21.86"/>
</a>
</g>
</g>
<!-- Node8 -->
<g id="Node000008" class="node">
<title>Node8</title>
<g id="a_Node000008"><a xlink:title=" ">
<polygon fill="#e0e0e0" stroke="#999999" points="752.33,-20 709.33,-20 709.33,0 752.33,0 752.33,-20"/>
<text text-anchor="middle" x="730.83" y="-6.5" font-family="Helvetica,sans-Serif" font-size="10.00">vector</text>
</a>
</g>
</g>
<!-- Node4&#45;&gt;Node8 -->
<g id="edge7_Node000004_Node000008" class="edge">
<title>Node4&#45;&gt;Node8</title>
<g id="a_edge7_Node000004_Node000008"><a xlink:title=" ">
<path fill="none" stroke="#63b8ff" d="M393.7,-57.54C396.78,-56.99 399.86,-56.47 402.83,-56 531.13,-35.73 568.29,-46.65 698.22,-20.25"/>
<polygon fill="#63b8ff" stroke="#63b8ff" points="698.9,-23.48 707.99,-18.02 697.48,-16.62 698.9,-23.48"/>
</a>
</g>
</g>
<!-- Node9 -->
<g id="Node000009" class="node">
<title>Node9</title>
<g id="a_Node000009"><a xlink:title=" ">
<polygon fill="#e0e0e0" stroke="#999999" points="333.46,-20 288.21,-20 288.21,0 333.46,0 333.46,-20"/>
<text text-anchor="middle" x="310.83" y="-6.5" font-family="Helvetica,sans-Serif" font-size="10.00">cctype</text>
</a>
</g>
</g>
<!-- Node4&#45;&gt;Node9 -->
<g id="edge8_Node000004_Node000009" class="edge">
<title>Node4&#45;&gt;Node9</title>
<g id="a_edge8_Node000004_Node000009"><a xlink:title=" ">
<path fill="none" stroke="#63b8ff" d="M348.82,-55.59C342.49,-48.16 333.47,-37.58 325.81,-28.58"/>
<polygon fill="#63b8ff" stroke="#63b8ff" points="327.9,-26.64 318.75,-21.3 322.57,-31.18 327.9,-26.64"/>
</a>
</g>
</g>
<!-- Node10 -->
<g id="Node000010" class="node">
<title>Node10</title>
<g id="a_Node000010"><a xlink:title=" ">
<polygon fill="#e0e0e0" stroke="#999999" points="401.71,-20 351.96,-20 351.96,0 401.71,0 401.71,-20"/>
<text text-anchor="middle" x="376.83" y="-6.5" font-family="Helvetica,sans-Serif" font-size="10.00">optional</text>
</a>
</g>
</g>
<!-- Node4&#45;&gt;Node10 -->
<g id="edge9_Node000004_Node000010" class="edge">
<title>Node4&#45;&gt;Node10</title>
<g id="a_edge9_Node000004_Node000010"><a xlink:title=" ">
<path fill="none" stroke="#63b8ff" d="M360.31,-55.59C362.87,-48.7 366.42,-39.1 369.58,-30.57"/>
<polygon fill="#63b8ff" stroke="#63b8ff" points="373.2,-31.89 373.39,-21.3 366.63,-29.46 373.2,-31.89"/>
</a>
</g>
</g>
<!-- Node12 -->
<g id="Node000012" class="node">
<title>Node12</title>
<g id="a_Node000012"><a xlink:title=" ">
<polygon fill="#e0e0e0" stroke="#999999" points="211.46,-20 166.21,-20 166.21,0 211.46,0 211.46,-20"/>
<text text-anchor="middle" x="188.83" y="-6.5" font-family="Helvetica,sans-Serif" font-size="10.00">cstdint</text>
</a>
</g>
</g>
<!-- Node11&#45;&gt;Node12 -->
<g id="edge11_Node000011_Node000012" class="edge">
<title>Node11&#45;&gt;Node12</title>
<g id="a_edge11_Node000011_Node000012"><a xlink:title=" ">
<path fill="none" stroke="#63b8ff" d="M205.35,-55.59C202.79,-48.7 199.24,-39.1 196.08,-30.57"/>
<polygon fill="#63b8ff" stroke="#63b8ff" points="199.03,-29.46 192.27,-21.3 192.47,-31.89 199.03,-29.46"/>
</a>
</g>
</g>
<!-- Node11&#45;&gt;Node13 -->
<g id="edge12_Node000011_Node000013" class="edge">
<title>Node11&#45;&gt;Node13</title>
<g id="a_edge12_Node000011_Node000013"><a xlink:title=" ">
<path fill="none" stroke="#63b8ff" d="M184.1,-55.59C159.93,-46.4 123.1,-32.4 97.18,-22.54"/>
<polygon fill="#63b8ff" stroke="#63b8ff" points="98.74,-19.01 88.15,-18.73 96.25,-25.55 98.74,-19.01"/>
</a>
</g>
</g>
<!-- Node17&#45;&gt;Node3 -->
<g id="edge21_Node000017_Node000003" class="edge">
<title>Node17&#45;&gt;Node3</title>
<g id="a_edge21_Node000017_Node000003"><a xlink:title=" ">
<path fill="none" stroke="#63b8ff" d="M702.95,-111.53C659.58,-102.38 593.78,-88.5 547.18,-78.68"/>
<polygon fill="#63b8ff" stroke="#63b8ff" points="548.17,-75.1 537.66,-76.46 546.73,-81.95 548.17,-75.1"/>
</a>
</g>
</g>
<!-- Node18 -->
<g id="Node000018" class="node">
<title>Node18</title>
<g id="a_Node000018"><a xlink:title=" ">
<polygon fill="#e0e0e0" stroke="#999999" points="821.83,-76 673.83,-76 673.83,-56 821.83,-56 821.83,-76"/>
<text text-anchor="middle" x="747.83" y="-62.5" font-family="Helvetica,sans-Serif" font-size="10.00">boost/beast/http/message.hpp</text>
</a>
</g>
</g>
<!-- Node17&#45;&gt;Node18 -->
<g id="edge19_Node000017_Node000018" class="edge">
<title>Node17&#45;&gt;Node18</title>
<g id="a_edge19_Node000017_Node000018"><a xlink:title=" ">
<path fill="none" stroke="#63b8ff" d="M747.83,-111.59C747.83,-104.86 747.83,-95.53 747.83,-87.15"/>
<polygon fill="#63b8ff" stroke="#63b8ff" points="751.33,-87.3 747.83,-77.3 744.33,-87.3 751.33,-87.3"/>
</a>
</g>
</g>
<!-- Node19 -->
<g id="Node000019" class="node">
<title>Node19</title>
<g id="a_Node000019"><a xlink:title=" ">
<polygon fill="#e0e0e0" stroke="#999999" points="997.71,-76 839.96,-76 839.96,-56 997.71,-56 997.71,-76"/>
<text text-anchor="middle" x="918.83" y="-62.5" font-family="Helvetica,sans-Serif" font-size="10.00">boost/beast/http/string_body.hpp</text>
</a>
</g>
</g>
<!-- Node17&#45;&gt;Node19 -->
<g id="edge20_Node000017_Node000019" class="edge">
<title>Node17&#45;&gt;Node19</title>
<g id="a_edge20_Node000017_Node000019"><a xlink:title=" ">
<path fill="none" stroke="#63b8ff" d="M777.62,-111.59C805.52,-102.78 847.45,-89.54 878.37,-79.78"/>
<polygon fill="#63b8ff" stroke="#63b8ff" points="879.33,-82.83 887.81,-76.48 877.22,-76.15 879.33,-82.83"/>
</a>
</g>
</g>
<!-- Node20 -->
<g id="Node000020" class="node">
<title>Node20</title>
<g id="a_Node000020"><a xlink:title=" ">
<polygon fill="#e0e0e0" stroke="#999999" points="1151.46,-76 1016.21,-76 1016.21,-56 1151.46,-56 1151.46,-76"/>
<text text-anchor="middle" x="1083.83" y="-62.5" font-family="Helvetica,sans-Serif" font-size="10.00">boost/beast/http/status.hpp</text>
</a>
</g>
</g>
<!-- Node17&#45;&gt;Node20 -->
<g id="edge22_Node000017_Node000020" class="edge">
<title>Node17&#45;&gt;Node20</title>
<g id="a_edge22_Node000017_Node000020"><a xlink:title=" ">
<path fill="none" stroke="#63b8ff" d="M806.74,-111.53C864.62,-102.23 952.94,-88.04 1014.25,-78.18"/>
<polygon fill="#63b8ff" stroke="#63b8ff" points="1014.67,-81.5 1023.99,-76.46 1013.56,-74.59 1014.67,-81.5"/>
</a>
</g>
</g>
<!-- Node21 -->
<g id="Node000021" class="node">
<title>Node21</title>
<g id="a_Node000021"><a xlink:title=" ">
<polygon fill="#e0e0e0" stroke="#999999" points="655.58,-76 590.08,-76 590.08,-56 655.58,-56 655.58,-76"/>
<text text-anchor="middle" x="622.83" y="-62.5" font-family="Helvetica,sans-Serif" font-size="10.00">string_view</text>
</a>
</g>
</g>
<!-- Node17&#45;&gt;Node21 -->
<g id="edge23_Node000017_Node000021" class="edge">
<title>Node17&#45;&gt;Node21</title>
<g id="a_edge23_Node000017_Node000021"><a xlink:title=" ">
<path fill="none" stroke="#63b8ff" d="M726.06,-111.59C706.37,-103.09 677.14,-90.46 654.8,-80.81"/>
<polygon fill="#63b8ff" stroke="#63b8ff" points="656.34,-77.23 645.77,-76.48 653.57,-83.66 656.34,-77.23"/>
</a>
</g>
</g>
</g>
</svg>
