<?xml version="1.0" encoding="UTF-8" standalone="no"?>
<!DOCTYPE svg PUBLIC "-//W3C//DTD SVG 1.1//EN"
 "http://www.w3.org/Graphics/SVG/1.1/DTD/svg11.dtd">
<!-- Generated by graphviz version 2.44.1 (20211215.1903)
 -->
<!-- Title: include/roar/routing/router.hpp Pages: 1 -->
<!--zoomable 196 -->
<svg id="main" version="1.1" xmlns="http://www.w3.org/2000/svg" xmlns:xlink="http://www.w3.org/1999/xlink" xml:space="preserve" onload="init(evt)">
<style type="text/css"><![CDATA[
.edge:hover path { stroke: red; }
.edge:hover polygon { stroke: red; fill: red; }
]]></style>
<script type="text/javascript"><![CDATA[
var edges = document.getElementsByTagName('g');
if (edges && edges.length) {
  for (var i=0;i<edges.length;i++) {
    if (edges[i].id.substr(0,4)=='edge') {
      edges[i].setAttribute('class','edge');
    }
  }
}
]]></script>
        <defs>
                <circle id="rim" cx="0" cy="0" r="7"/>
                <circle id="rim2" cx="0" cy="0" r="3.5"/>
                <g id="zoomPlus">
                        <use xlink:href="#rim" fill="#404040">
                                <set attributeName="fill" to="#808080" begin="zoomplus.mouseover" end="zoomplus.mouseout"/>
                        </use>
                        <path d="M-4,0h8M0,-4v8" fill="none" stroke="white" stroke-width="1.5" pointer-events="none"/>
                </g>
                <g id="zoomMin">
                        <use xlink:href="#rim" fill="#404040">
                                <set attributeName="fill" to="#808080" begin="zoomminus.mouseover" end="zoomminus.mouseout"/>
                        </use>
                        <path d="M-4,0h8" fill="none" stroke="white" stroke-width="1.5" pointer-events="none"/>
                </g>
                <g id="dirArrow">
                        <path fill="none" stroke="white" stroke-width="1.5" d="M0,-3.0v7 M-2.5,-0.5L0,-3.0L2.5,-0.5"/>
                </g>
               <g id="resetDef">
                       <use xlink:href="#rim2" fill="#404040">
                               <set attributeName="fill" to="#808080" begin="reset.mouseover" end="reset.mouseout"/>
                       </use>
               </g>
        </defs>

<script type="text/javascript">
var viewWidth = 1486;
var viewHeight = 196;
var sectionId = 'dynsection-0';
</script>
<script xlink:href="svgpan.js"/>
<svg id="graph" class="graph">
<g id="viewport">
<title>include/roar/routing/router.hpp</title>
<!-- Node1 -->
<g id="node1" class="node">
<title>Node1</title>
<g id="a_node1"><a xlink:title=" ">
<polygon fill="#bfbfbf" stroke="black" points="721,-168.5 721,-187.5 867,-187.5 867,-168.5 721,-168.5"/>
<text text-anchor="middle" x="794" y="-175.5" font-family="Helvetica,sans-Serif" font-size="10.00">include/roar/routing/router.hpp</text>
</a>
</g>
</g>
<!-- Node2 -->
<g id="node2" class="node">
<title>Node2</title>
<g id="a_node2"><a xlink:href="pimpl__special__functions_8hpp.html" target="_top" xlink:title=" ">
<polygon fill="none" stroke="black" points="58.5,-112.5 58.5,-131.5 243.5,-131.5 243.5,-112.5 58.5,-112.5"/>
<text text-anchor="middle" x="151" y="-119.5" font-family="Helvetica,sans-Serif" font-size="10.00">roar/detail/pimpl_special_functions.hpp</text>
</a>
</g>
</g>
<!-- Node1&#45;&gt;Node2 -->
<g id="edge1" class="edge">
<title>Node1&#45;&gt;Node2</title>
<path fill="none" stroke="midnightblue" d="M720.6,-170.87C617.19,-162.24 422.71,-145.98 257,-132 256.05,-131.92 255.1,-131.84 254.15,-131.76"/>
<polygon fill="midnightblue" stroke="midnightblue" points="254.04,-128.24 243.78,-130.88 253.45,-135.21 254.04,-128.24"/>
</g>
<!-- Node3 -->
<g id="node3" class="node">
<title>Node3</title>
<g id="a_node3"><a xlink:href="proto__route_8hpp.html" target="_top" xlink:title=" ">
<polygon fill="none" stroke="black" points="525,-112.5 525,-131.5 661,-131.5 661,-112.5 525,-112.5"/>
<text text-anchor="middle" x="593" y="-119.5" font-family="Helvetica,sans-Serif" font-size="10.00">roar/routing/proto_route.hpp</text>
</a>
</g>
</g>
<!-- Node1&#45;&gt;Node3 -->
<g id="edge2" class="edge">
<title>Node1&#45;&gt;Node3</title>
<path fill="none" stroke="midnightblue" d="M762.15,-168.44C727.6,-159.16 672.32,-144.31 634.42,-134.13"/>
<polygon fill="midnightblue" stroke="midnightblue" points="635.27,-130.73 624.7,-131.52 633.45,-137.49 635.27,-130.73"/>
</g>
<!-- Node4 -->
<g id="node4" class="node">
<title>Node4</title>
<g id="a_node4"><a xlink:title=" ">
<polygon fill="none" stroke="#bfbfbf" points="736.5,-56.5 736.5,-75.5 897.5,-75.5 897.5,-56.5 736.5,-56.5"/>
<text text-anchor="middle" x="817" y="-63.5" font-family="Helvetica,sans-Serif" font-size="10.00">boost/beast/http/empty_body.hpp</text>
</a>
</g>
</g>
<!-- Node1&#45;&gt;Node4 -->
<g id="edge26" class="edge">
<title>Node1&#45;&gt;Node4</title>
<path fill="none" stroke="midnightblue" d="M795.8,-168.37C799.52,-150.62 808.08,-109.67 813.11,-85.6"/>
<polygon fill="midnightblue" stroke="midnightblue" points="816.58,-86.1 815.2,-75.59 809.73,-84.66 816.58,-86.1"/>
</g>
<!-- Node7 -->
<g id="node7" class="node">
<title>Node7</title>
<g id="a_node7"><a xlink:title=" ">
<polygon fill="none" stroke="#bfbfbf" points="0,-0.5 0,-19.5 128,-19.5 128,-0.5 0,-0.5"/>
<text text-anchor="middle" x="64" y="-7.5" font-family="Helvetica,sans-Serif" font-size="10.00">boost/beast/http/verb.hpp</text>
</a>
</g>
</g>
<!-- Node1&#45;&gt;Node7 -->
<g id="edge25" class="edge">
<title>Node1&#45;&gt;Node7</title>
<path fill="none" stroke="midnightblue" d="M732.18,-168.48C675.66,-160.35 589.89,-147.11 516,-132 414.62,-111.27 389.96,-102.75 290,-76 223.63,-58.24 146.87,-35.74 102.05,-22.41"/>
<polygon fill="midnightblue" stroke="midnightblue" points="103.03,-19.05 92.45,-19.55 101.03,-25.76 103.03,-19.05"/>
</g>
<!-- Node15 -->
<g id="node15" class="node">
<title>Node15</title>
<g id="a_node15"><a xlink:title=" ">
<polygon fill="none" stroke="#bfbfbf" points="659.5,-56.5 659.5,-75.5 718.5,-75.5 718.5,-56.5 659.5,-56.5"/>
<text text-anchor="middle" x="689" y="-63.5" font-family="Helvetica,sans-Serif" font-size="10.00">functional</text>
</a>
</g>
</g>
<!-- Node1&#45;&gt;Node15 -->
<g id="edge29" class="edge">
<title>Node1&#45;&gt;Node15</title>
<path fill="none" stroke="midnightblue" d="M785.76,-168.37C768.2,-149.97 726.87,-106.67 704.32,-83.05"/>
<polygon fill="midnightblue" stroke="midnightblue" points="706.64,-80.41 697.2,-75.59 701.57,-85.24 706.64,-80.41"/>
</g>
<!-- Node17 -->
<g id="node17" class="node">
<title>Node17</title>
<g id="a_node17"><a xlink:href="standard__response__provider_8hpp.html" target="_top" xlink:title=" ">
<polygon fill="none" stroke="black" points="821.5,-112.5 821.5,-131.5 998.5,-131.5 998.5,-112.5 821.5,-112.5"/>
<text text-anchor="middle" x="910" y="-119.5" font-family="Helvetica,sans-Serif" font-size="10.00">roar/standard_response_provider.hpp</text>
</a>
</g>
</g>
<!-- Node1&#45;&gt;Node17 -->
<g id="edge18" class="edge">
<title>Node1&#45;&gt;Node17</title>
<path fill="none" stroke="midnightblue" d="M812.38,-168.44C831.22,-159.68 860.73,-145.94 882.38,-135.86"/>
<polygon fill="midnightblue" stroke="midnightblue" points="884.12,-138.91 891.71,-131.52 881.16,-132.56 884.12,-138.91"/>
</g>
<!-- Node22 -->
<g id="node22" class="node">
<title>Node22</title>
<g id="a_node22"><a xlink:title=" ">
<polygon fill="none" stroke="#bfbfbf" points="1017,-112.5 1017,-131.5 1071,-131.5 1071,-112.5 1017,-112.5"/>
<text text-anchor="middle" x="1044" y="-119.5" font-family="Helvetica,sans-Serif" font-size="10.00">iostream</text>
</a>
</g>
</g>
<!-- Node1&#45;&gt;Node22 -->
<g id="edge24" class="edge">
<title>Node1&#45;&gt;Node22</title>
<path fill="none" stroke="midnightblue" d="M837.14,-168.43C878.32,-160.13 942.35,-146.94 1006.95,-132.18"/>
<polygon fill="midnightblue" stroke="midnightblue" points="1007.94,-135.54 1016.9,-129.89 1006.37,-128.72 1007.94,-135.54"/>
</g>
<!-- Node23 -->
<g id="node23" class="node">
<title>Node23</title>
<g id="a_node23"><a xlink:title=" ">
<polygon fill="none" stroke="#bfbfbf" points="1089,-112.5 1089,-131.5 1141,-131.5 1141,-112.5 1089,-112.5"/>
<text text-anchor="middle" x="1115" y="-119.5" font-family="Helvetica,sans-Serif" font-size="10.00">memory</text>
</a>
</g>
</g>
<!-- Node1&#45;&gt;Node23 -->
<g id="edge27" class="edge">
<title>Node1&#45;&gt;Node23</title>
<path fill="none" stroke="midnightblue" d="M859.64,-168.49C915.54,-160.83 998.17,-148.53 1078.86,-132.08"/>
<polygon fill="midnightblue" stroke="midnightblue" points="1079.6,-135.5 1088.69,-130.05 1078.19,-128.64 1079.6,-135.5"/>
</g>
<!-- Node24 -->
<g id="node24" class="node">
<title>Node24</title>
<g id="a_node24"><a xlink:title=" ">
<polygon fill="none" stroke="#bfbfbf" points="1159.5,-112.5 1159.5,-131.5 1242.5,-131.5 1242.5,-112.5 1159.5,-112.5"/>
<text text-anchor="middle" x="1201" y="-119.5" font-family="Helvetica,sans-Serif" font-size="10.00">unordered_map</text>
</a>
</g>
</g>
<!-- Node1&#45;&gt;Node24 -->
<g id="edge28" class="edge">
<title>Node1&#45;&gt;Node24</title>
<path fill="none" stroke="midnightblue" d="M867.1,-168.82C936.91,-160.76 1045.34,-147.63 1149.24,-132.05"/>
<polygon fill="midnightblue" stroke="midnightblue" points="1149.91,-135.49 1159.28,-130.53 1148.87,-128.57 1149.91,-135.49"/>
</g>
<!-- Node3&#45;&gt;Node4 -->
<g id="edge3" class="edge">
<title>Node3&#45;&gt;Node4</title>
<path fill="none" stroke="midnightblue" d="M628.49,-112.44C667.32,-103.08 729.66,-88.06 771.92,-77.87"/>
<polygon fill="midnightblue" stroke="midnightblue" points="772.77,-81.26 781.67,-75.52 771.13,-74.46 772.77,-81.26"/>
</g>
<!-- Node5 -->
<g id="node5" class="node">
<title>Node5</title>
<g id="a_node5"><a xlink:href="cors_8hpp.html" target="_top" xlink:title=" ">
<polygon fill="none" stroke="black" points="363,-56.5 363,-75.5 437,-75.5 437,-56.5 363,-56.5"/>
<text text-anchor="middle" x="400" y="-63.5" font-family="Helvetica,sans-Serif" font-size="10.00">roar/cors.hpp</text>
</a>
</g>
</g>
<!-- Node3&#45;&gt;Node5 -->
<g id="edge4" class="edge">
<title>Node3&#45;&gt;Node5</title>
<path fill="none" stroke="midnightblue" d="M562.42,-112.44C529.39,-103.2 476.61,-88.44 440.23,-78.26"/>
<polygon fill="midnightblue" stroke="midnightblue" points="441.01,-74.84 430.44,-75.52 439.13,-81.58 441.01,-74.84"/>
</g>
<!-- Node8 -->
<g id="node8" class="node">
<title>Node8</title>
<g id="a_node8"><a xlink:title=" ">
<polygon fill="none" stroke="#bfbfbf" points="486.5,-0.5 486.5,-19.5 527.5,-19.5 527.5,-0.5 486.5,-0.5"/>
<text text-anchor="middle" x="507" y="-7.5" font-family="Helvetica,sans-Serif" font-size="10.00">string</text>
</a>
</g>
</g>
<!-- Node3&#45;&gt;Node8 -->
<g id="edge14" class="edge">
<title>Node3&#45;&gt;Node8</title>
<path fill="none" stroke="midnightblue" d="M540.72,-112.48C519.41,-106.15 496.81,-95.14 484,-76 474.06,-61.15 483.54,-41.51 493.16,-27.72"/>
<polygon fill="midnightblue" stroke="midnightblue" points="496.06,-29.7 499.31,-19.61 490.48,-25.47 496.06,-29.7"/>
</g>
<!-- Node12 -->
<g id="node12" class="node">
<title>Node12</title>
<g id="a_node12"><a xlink:href="regex_8hpp.html" target="_top" xlink:title=" ">
<polygon fill="none" stroke="black" points="493,-56.5 493,-75.5 603,-75.5 603,-56.5 493,-56.5"/>
<text text-anchor="middle" x="548" y="-63.5" font-family="Helvetica,sans-Serif" font-size="10.00">roar/literals/regex.hpp</text>
</a>
</g>
</g>
<!-- Node3&#45;&gt;Node12 -->
<g id="edge11" class="edge">
<title>Node3&#45;&gt;Node12</title>
<path fill="none" stroke="midnightblue" d="M585.57,-112.08C579.15,-104.38 569.69,-93.03 561.88,-83.65"/>
<polygon fill="midnightblue" stroke="midnightblue" points="564.38,-81.19 555.29,-75.75 559.01,-85.67 564.38,-81.19"/>
</g>
<!-- Node14 -->
<g id="node14" class="node">
<title>Node14</title>
<g id="a_node14"><a xlink:title=" ">
<polygon fill="none" stroke="#bfbfbf" points="610.5,-0.5 610.5,-19.5 651.5,-19.5 651.5,-0.5 610.5,-0.5"/>
<text text-anchor="middle" x="631" y="-7.5" font-family="Helvetica,sans-Serif" font-size="10.00">regex</text>
</a>
</g>
</g>
<!-- Node3&#45;&gt;Node14 -->
<g id="edge17" class="edge">
<title>Node3&#45;&gt;Node14</title>
<path fill="none" stroke="midnightblue" d="M596.94,-112.49C601.01,-103.53 607.39,-88.94 612,-76 617.54,-60.42 622.73,-42.35 626.28,-29.22"/>
<polygon fill="midnightblue" stroke="midnightblue" points="629.67,-30.08 628.85,-19.51 622.9,-28.29 629.67,-30.08"/>
</g>
<!-- Node3&#45;&gt;Node15 -->
<g id="edge15" class="edge">
<title>Node3&#45;&gt;Node15</title>
<path fill="none" stroke="midnightblue" d="M608.42,-112.32C623.54,-103.82 646.82,-90.73 664.47,-80.8"/>
<polygon fill="midnightblue" stroke="midnightblue" points="666.61,-83.61 673.61,-75.65 663.18,-77.51 666.61,-83.61"/>
</g>
<!-- Node16 -->
<g id="node16" class="node">
<title>Node16</title>
<g id="a_node16"><a xlink:title=" ">
<polygon fill="none" stroke="#bfbfbf" points="299,-56.5 299,-75.5 345,-75.5 345,-56.5 299,-56.5"/>
<text text-anchor="middle" x="322" y="-63.5" font-family="Helvetica,sans-Serif" font-size="10.00">variant</text>
</a>
</g>
</g>
<!-- Node3&#45;&gt;Node16 -->
<g id="edge16" class="edge">
<title>Node3&#45;&gt;Node16</title>
<path fill="none" stroke="midnightblue" d="M540.5,-112.48C494.08,-104.64 424.33,-92.12 354.81,-76.03"/>
<polygon fill="midnightblue" stroke="midnightblue" points="355.54,-72.6 345.01,-73.73 353.95,-79.42 355.54,-72.6"/>
</g>
<!-- Node6 -->
<g id="node6" class="node">
<title>Node6</title>
<g id="a_node6"><a xlink:title=" ">
<polygon fill="none" stroke="#bfbfbf" points="214.5,-0.5 214.5,-19.5 341.5,-19.5 341.5,-0.5 214.5,-0.5"/>
<text text-anchor="middle" x="278" y="-7.5" font-family="Helvetica,sans-Serif" font-size="10.00">boost/beast/http/field.hpp</text>
</a>
</g>
</g>
<!-- Node5&#45;&gt;Node6 -->
<g id="edge5" class="edge">
<title>Node5&#45;&gt;Node6</title>
<path fill="none" stroke="midnightblue" d="M380.67,-56.44C360.68,-47.6 329.26,-33.69 306.44,-23.59"/>
<polygon fill="midnightblue" stroke="midnightblue" points="307.8,-20.36 297.24,-19.52 304.97,-26.76 307.8,-20.36"/>
</g>
<!-- Node5&#45;&gt;Node7 -->
<g id="edge6" class="edge">
<title>Node5&#45;&gt;Node7</title>
<path fill="none" stroke="midnightblue" d="M362.87,-57.6C359.87,-57.05 356.89,-56.51 354,-56 278.69,-42.79 192.02,-29.61 133.19,-20.96"/>
<polygon fill="midnightblue" stroke="midnightblue" points="133.67,-17.49 123.26,-19.5 132.65,-24.41 133.67,-17.49"/>
</g>
<!-- Node5&#45;&gt;Node8 -->
<g id="edge7" class="edge">
<title>Node5&#45;&gt;Node8</title>
<path fill="none" stroke="midnightblue" d="M417.19,-56.32C434.35,-47.66 460.95,-34.24 480.75,-24.25"/>
<polygon fill="midnightblue" stroke="midnightblue" points="482.5,-27.28 489.85,-19.65 479.35,-21.04 482.5,-27.28"/>
</g>
<!-- Node9 -->
<g id="node9" class="node">
<title>Node9</title>
<g id="a_node9"><a xlink:title=" ">
<polygon fill="none" stroke="#bfbfbf" points="360,-0.5 360,-19.5 404,-19.5 404,-0.5 360,-0.5"/>
<text text-anchor="middle" x="382" y="-7.5" font-family="Helvetica,sans-Serif" font-size="10.00">vector</text>
</a>
</g>
</g>
<!-- Node5&#45;&gt;Node9 -->
<g id="edge8" class="edge">
<title>Node5&#45;&gt;Node9</title>
<path fill="none" stroke="midnightblue" d="M397.03,-56.08C394.62,-48.85 391.14,-38.41 388.13,-29.4"/>
<polygon fill="midnightblue" stroke="midnightblue" points="391.4,-28.13 384.92,-19.75 384.76,-30.34 391.4,-28.13"/>
</g>
<!-- Node10 -->
<g id="node10" class="node">
<title>Node10</title>
<g id="a_node10"><a xlink:title=" ">
<polygon fill="none" stroke="#bfbfbf" points="422,-0.5 422,-19.5 468,-19.5 468,-0.5 422,-0.5"/>
<text text-anchor="middle" x="445" y="-7.5" font-family="Helvetica,sans-Serif" font-size="10.00">cctype</text>
</a>
</g>
</g>
<!-- Node5&#45;&gt;Node10 -->
<g id="edge9" class="edge">
<title>Node5&#45;&gt;Node10</title>
<path fill="none" stroke="midnightblue" d="M407.43,-56.08C413.85,-48.38 423.31,-37.03 431.12,-27.65"/>
<polygon fill="midnightblue" stroke="midnightblue" points="433.99,-29.67 437.71,-19.75 428.62,-25.19 433.99,-29.67"/>
</g>
<!-- Node11 -->
<g id="node11" class="node">
<title>Node11</title>
<g id="a_node11"><a xlink:title=" ">
<polygon fill="none" stroke="#bfbfbf" points="146,-0.5 146,-19.5 196,-19.5 196,-0.5 146,-0.5"/>
<text text-anchor="middle" x="171" y="-7.5" font-family="Helvetica,sans-Serif" font-size="10.00">optional</text>
</a>
</g>
</g>
<!-- Node5&#45;&gt;Node11 -->
<g id="edge10" class="edge">
<title>Node5&#45;&gt;Node11</title>
<path fill="none" stroke="midnightblue" d="M362.9,-56.81C325.67,-48.51 266.46,-35.08 206.28,-20.26"/>
<polygon fill="midnightblue" stroke="midnightblue" points="206.78,-16.78 196.23,-17.77 205.09,-23.57 206.78,-16.78"/>
</g>
<!-- Node13 -->
<g id="node13" class="node">
<title>Node13</title>
<g id="a_node13"><a xlink:title=" ">
<polygon fill="none" stroke="#bfbfbf" points="546,-0.5 546,-19.5 592,-19.5 592,-0.5 546,-0.5"/>
<text text-anchor="middle" x="569" y="-7.5" font-family="Helvetica,sans-Serif" font-size="10.00">cstdint</text>
</a>
</g>
</g>
<!-- Node12&#45;&gt;Node13 -->
<g id="edge12" class="edge">
<title>Node12&#45;&gt;Node13</title>
<path fill="none" stroke="midnightblue" d="M551.47,-56.08C554.31,-48.77 558.43,-38.18 561.96,-29.1"/>
<polygon fill="midnightblue" stroke="midnightblue" points="565.23,-30.34 565.6,-19.75 558.71,-27.8 565.23,-30.34"/>
</g>
<!-- Node12&#45;&gt;Node14 -->
<g id="edge13" class="edge">
<title>Node12&#45;&gt;Node14</title>
<path fill="none" stroke="midnightblue" d="M561.34,-56.32C574.16,-47.98 593.78,-35.21 608.94,-25.35"/>
<polygon fill="midnightblue" stroke="midnightblue" points="611.22,-28.04 617.7,-19.65 607.41,-22.17 611.22,-28.04"/>
</g>
<!-- Node17&#45;&gt;Node4 -->
<g id="edge21" class="edge">
<title>Node17&#45;&gt;Node4</title>
<path fill="none" stroke="midnightblue" d="M895.06,-112.32C880.41,-103.82 857.87,-90.73 840.76,-80.8"/>
<polygon fill="midnightblue" stroke="midnightblue" points="842.31,-77.65 831.9,-75.65 838.8,-83.7 842.31,-77.65"/>
</g>
<!-- Node18 -->
<g id="node18" class="node">
<title>Node18</title>
<g id="a_node18"><a xlink:title=" ">
<polygon fill="none" stroke="#bfbfbf" points="915.5,-56.5 915.5,-75.5 1064.5,-75.5 1064.5,-56.5 915.5,-56.5"/>
<text text-anchor="middle" x="990" y="-63.5" font-family="Helvetica,sans-Serif" font-size="10.00">boost/beast/http/message.hpp</text>
</a>
</g>
</g>
<!-- Node17&#45;&gt;Node18 -->
<g id="edge19" class="edge">
<title>Node17&#45;&gt;Node18</title>
<path fill="none" stroke="midnightblue" d="M922.85,-112.32C935.22,-103.98 954.13,-91.21 968.74,-81.35"/>
<polygon fill="midnightblue" stroke="midnightblue" points="970.85,-84.15 977.18,-75.65 966.93,-78.35 970.85,-84.15"/>
</g>
<!-- Node19 -->
<g id="node19" class="node">
<title>Node19</title>
<g id="a_node19"><a xlink:title=" ">
<polygon fill="none" stroke="#bfbfbf" points="1082,-56.5 1082,-75.5 1240,-75.5 1240,-56.5 1082,-56.5"/>
<text text-anchor="middle" x="1161" y="-63.5" font-family="Helvetica,sans-Serif" font-size="10.00">boost/beast/http/string_body.hpp</text>
</a>
</g>
</g>
<!-- Node17&#45;&gt;Node19 -->
<g id="edge20" class="edge">
<title>Node17&#45;&gt;Node19</title>
<path fill="none" stroke="midnightblue" d="M949.77,-112.44C993.56,-103.02 1064.01,-87.87 1111.38,-77.68"/>
<polygon fill="midnightblue" stroke="midnightblue" points="1112.37,-81.04 1121.41,-75.52 1110.9,-74.2 1112.37,-81.04"/>
</g>
<!-- Node20 -->
<g id="node20" class="node">
<title>Node20</title>
<g id="a_node20"><a xlink:title=" ">
<polygon fill="none" stroke="#bfbfbf" points="1258,-56.5 1258,-75.5 1394,-75.5 1394,-56.5 1258,-56.5"/>
<text text-anchor="middle" x="1326" y="-63.5" font-family="Helvetica,sans-Serif" font-size="10.00">boost/beast/http/status.hpp</text>
</a>
</g>
</g>
<!-- Node17&#45;&gt;Node20 -->
<g id="edge22" class="edge">
<title>Node17&#45;&gt;Node20</title>
<path fill="none" stroke="midnightblue" d="M975.92,-112.44C1050.46,-102.77 1171.66,-87.04 1250.09,-76.85"/>
<polygon fill="midnightblue" stroke="midnightblue" points="1250.93,-80.27 1260.39,-75.52 1250.02,-73.33 1250.93,-80.27"/>
</g>
<!-- Node21 -->
<g id="node21" class="node">
<title>Node21</title>
<g id="a_node21"><a xlink:title=" ">
<polygon fill="none" stroke="#bfbfbf" points="1412,-56.5 1412,-75.5 1478,-75.5 1478,-56.5 1412,-56.5"/>
<text text-anchor="middle" x="1445" y="-63.5" font-family="Helvetica,sans-Serif" font-size="10.00">string_view</text>
</a>
</g>
</g>
<!-- Node17&#45;&gt;Node21 -->
<g id="edge23" class="edge">
<title>Node17&#45;&gt;Node21</title>
<path fill="none" stroke="midnightblue" d="M998.67,-112.85C1001.82,-112.57 1004.94,-112.28 1008,-112 1180.29,-96.24 1227,-102.28 1401.56,-76.06"/>
<polygon fill="midnightblue" stroke="midnightblue" points="1402.23,-79.5 1411.6,-74.54 1401.18,-72.58 1402.23,-79.5"/>
</g>
</g>
</svg>
        <g id="navigator" transform="translate(0 0)" fill="#404254">
                <rect fill="#f2f5e9" fill-opacity="0.5" stroke="#606060" stroke-width=".5" x="0" y="0" width="60" height="60"/>
                <use id="zoomplus" xlink:href="#zoomPlus" x="17" y="9" onmousedown="handleZoom(evt,'in')"/>
                <use id="zoomminus" xlink:href="#zoomMin" x="42" y="9" onmousedown="handleZoom(evt,'out')"/>
                <use id="reset" xlink:href="#resetDef" x="30" y="36" onmousedown="handleReset()"/>
                <g id="arrowUp" xlink:href="#dirArrow" transform="translate(30 24)" onmousedown="handlePan(0,-1)">
                  <use xlink:href="#rim" fill="#404040">
                        <set attributeName="fill" to="#808080" begin="arrowUp.mouseover" end="arrowUp.mouseout"/>
                  </use>
                  <path fill="none" stroke="white" stroke-width="1.5" d="M0,-3.0v7 M-2.5,-0.5L0,-3.0L2.5,-0.5"/>
                </g>
                <g id="arrowRight" xlink:href="#dirArrow" transform="rotate(90) translate(36 -43)" onmousedown="handlePan(1,0)">
                  <use xlink:href="#rim" fill="#404040">
                        <set attributeName="fill" to="#808080" begin="arrowRight.mouseover" end="arrowRight.mouseout"/>
                  </use>
                  <path fill="none" stroke="white" stroke-width="1.5" d="M0,-3.0v7 M-2.5,-0.5L0,-3.0L2.5,-0.5"/>
                </g>
                <g id="arrowDown" xlink:href="#dirArrow" transform="rotate(180) translate(-30 -48)" onmousedown="handlePan(0,1)">
                  <use xlink:href="#rim" fill="#404040">
                        <set attributeName="fill" to="#808080" begin="arrowDown.mouseover" end="arrowDown.mouseout"/>
                  </use>
                  <path fill="none" stroke="white" stroke-width="1.5" d="M0,-3.0v7 M-2.5,-0.5L0,-3.0L2.5,-0.5"/>
                </g>
                <g id="arrowLeft" xlink:href="#dirArrow" transform="rotate(270) translate(-36 17)" onmousedown="handlePan(-1,0)">
                  <use xlink:href="#rim" fill="#404040">
                        <set attributeName="fill" to="#808080" begin="arrowLeft.mouseover" end="arrowLeft.mouseout"/>
                  </use>
                  <path fill="none" stroke="white" stroke-width="1.5" d="M0,-3.0v7 M-2.5,-0.5L0,-3.0L2.5,-0.5"/>
                </g>
        </g>
        <svg viewBox="0 0 15 15" width="100%" height="30px" preserveAspectRatio="xMaxYMin meet">
         <g id="arrow_out" transform="scale(0.3 0.3)">
          <a xlink:href="router_8hpp__incl_org.svg" target="_base">
           <rect id="button" ry="5" rx="5" y="6" x="6" height="38" width="38"
                fill="#f2f5e9" fill-opacity="0.5" stroke="#606060" stroke-width="1.0"/>
           <path id="arrow"
             d="M 11.500037,31.436501 C 11.940474,20.09759 22.043105,11.32322 32.158766,21.979434 L 37.068811,17.246167 C 37.068811,17.246167 37.088388,32 37.088388,32 L 22.160133,31.978069 C 22.160133,31.978069 26.997745,27.140456 26.997745,27.140456 C 18.528582,18.264221 13.291696,25.230495 11.500037,31.436501 z"
             style="fill:#404040;"/>
          </a>
         </g>
        </svg>
</svg>
