<?xml version="1.0" encoding="UTF-8" standalone="no"?>
<!DOCTYPE svg PUBLIC "-//W3C//DTD SVG 1.1//EN"
 "http://www.w3.org/Graphics/SVG/1.1/DTD/svg11.dtd">
<!-- Generated by graphviz version 8.1.0 (0)
 -->
<!-- Title: src/roar/utility/sha.cpp Pages: 1 -->
<svg width="525pt" height="140pt"
 viewBox="0.00 0.00 524.88 140.00" xmlns="http://www.w3.org/2000/svg" xmlns:xlink="http://www.w3.org/1999/xlink">
<g id="graph0" class="graph" transform="scale(1 1) rotate(0) translate(4 136)">
<title>src/roar/utility/sha.cpp</title>
<!-- Node1 -->
<g id="Node000001" class="node">
<title>Node1</title>
<g id="a_Node000001"><a xlink:title=" ">
<polygon fill="#999999" stroke="#666666" points="368.38,-132 255.62,-132 255.62,-112 368.38,-112 368.38,-132"/>
<text text-anchor="middle" x="312" y="-118.5" font-family="Helvetica,sans-Serif" font-size="10.00">src/roar/utility/sha.cpp</text>
</a>
</g>
</g>
<!-- Node2 -->
<g id="Node000002" class="node">
<title>Node2</title>
<g id="a_Node000002"><a xlink:href="sha_8hpp.html" target="_top" xlink:title=" ">
<polygon fill="white" stroke="#666666" points="139.12,-76 42.88,-76 42.88,-56 139.12,-56 139.12,-76"/>
<text text-anchor="middle" x="91" y="-62.5" font-family="Helvetica,sans-Serif" font-size="10.00">roar/utility/sha.hpp</text>
</a>
</g>
</g>
<!-- Node1&#45;&gt;Node2 -->
<g id="edge1_Node000001_Node000002" class="edge">
<title>Node1&#45;&gt;Node2</title>
<g id="a_edge1_Node000001_Node000002"><a xlink:title=" ">
<path fill="none" stroke="#63b8ff" d="M273.25,-111.53C236.28,-102.5 180.44,-88.85 140.32,-79.05"/>
<polygon fill="#63b8ff" stroke="#63b8ff" points="141.25,-75.43 130.7,-76.46 139.59,-82.23 141.25,-75.43"/>
</a>
</g>
</g>
<!-- Node6 -->
<g id="Node000006" class="node">
<title>Node6</title>
<g id="a_Node000006"><a xlink:title=" ">
<polygon fill="#e0e0e0" stroke="#999999" points="234.38,-76 157.62,-76 157.62,-56 234.38,-56 234.38,-76"/>
<text text-anchor="middle" x="196" y="-62.5" font-family="Helvetica,sans-Serif" font-size="10.00">openssl/evp.h</text>
</a>
</g>
</g>
<!-- Node1&#45;&gt;Node6 -->
<g id="edge5_Node000001_Node000006" class="edge">
<title>Node1&#45;&gt;Node6</title>
<g id="a_edge5_Node000001_Node000006"><a xlink:title=" ">
<path fill="none" stroke="#63b8ff" d="M291.79,-111.59C273.69,-103.17 246.89,-90.69 226.23,-81.07"/>
<polygon fill="#63b8ff" stroke="#63b8ff" points="227.91,-77.53 217.36,-76.48 224.95,-83.87 227.91,-77.53"/>
</a>
</g>
</g>
<!-- Node7 -->
<g id="Node000007" class="node">
<title>Node7</title>
<g id="a_Node000007"><a xlink:title=" ">
<polygon fill="#e0e0e0" stroke="#999999" points="303.62,-76 252.38,-76 252.38,-56 303.62,-56 303.62,-76"/>
<text text-anchor="middle" x="278" y="-62.5" font-family="Helvetica,sans-Serif" font-size="10.00">sstream</text>
</a>
</g>
</g>
<!-- Node1&#45;&gt;Node7 -->
<g id="edge6_Node000001_Node000007" class="edge">
<title>Node1&#45;&gt;Node7</title>
<g id="a_edge6_Node000001_Node000007"><a xlink:title=" ">
<path fill="none" stroke="#63b8ff" d="M306.08,-111.59C301.54,-104.39 295.15,-94.23 289.6,-85.43"/>
<polygon fill="#63b8ff" stroke="#63b8ff" points="292.14,-83.9 283.85,-77.3 286.22,-87.63 292.14,-83.9"/>
</a>
</g>
</g>
<!-- Node8 -->
<g id="Node000008" class="node">
<title>Node8</title>
<g id="a_Node000008"><a xlink:title=" ">
<polygon fill="#e0e0e0" stroke="#999999" points="372.62,-76 321.38,-76 321.38,-56 372.62,-56 372.62,-76"/>
<text text-anchor="middle" x="347" y="-62.5" font-family="Helvetica,sans-Serif" font-size="10.00">memory</text>
</a>
</g>
</g>
<!-- Node1&#45;&gt;Node8 -->
<g id="edge7_Node000001_Node000008" class="edge">
<title>Node1&#45;&gt;Node8</title>
<g id="a_edge7_Node000001_Node000008"><a xlink:title=" ">
<path fill="none" stroke="#63b8ff" d="M318.1,-111.59C322.76,-104.39 329.35,-94.23 335.05,-85.43"/>
<polygon fill="#63b8ff" stroke="#63b8ff" points="338.47,-87.59 340.97,-77.3 332.6,-83.79 338.47,-87.59"/>
</a>
</g>
</g>
<!-- Node9 -->
<g id="Node000009" class="node">
<title>Node9</title>
<g id="a_Node000009"><a xlink:title=" ">
<polygon fill="#e0e0e0" stroke="#999999" points="449,-76 391,-76 391,-56 449,-56 449,-76"/>
<text text-anchor="middle" x="420" y="-62.5" font-family="Helvetica,sans-Serif" font-size="10.00">functional</text>
</a>
</g>
</g>
<!-- Node1&#45;&gt;Node9 -->
<g id="edge8_Node000001_Node000009" class="edge">
<title>Node1&#45;&gt;Node9</title>
<g id="a_edge8_Node000001_Node000009"><a xlink:title=" ">
<path fill="none" stroke="#63b8ff" d="M330.81,-111.59C347.51,-103.24 372.17,-90.92 391.32,-81.34"/>
<polygon fill="#63b8ff" stroke="#63b8ff" points="392.66,-84.08 400.04,-76.48 389.53,-77.82 392.66,-84.08"/>
</a>
</g>
</g>
<!-- Node10 -->
<g id="Node000010" class="node">
<title>Node10</title>
<g id="a_Node000010"><a xlink:title=" ">
<polygon fill="#e0e0e0" stroke="#999999" points="516.88,-76 467.12,-76 467.12,-56 516.88,-56 516.88,-76"/>
<text text-anchor="middle" x="492" y="-62.5" font-family="Helvetica,sans-Serif" font-size="10.00">iomanip</text>
</a>
</g>
</g>
<!-- Node1&#45;&gt;Node10 -->
<g id="edge9_Node000001_Node000010" class="edge">
<title>Node1&#45;&gt;Node10</title>
<g id="a_edge9_Node000001_Node000010"><a xlink:title=" ">
<path fill="none" stroke="#63b8ff" d="M343.35,-111.59C374.98,-102.11 423.73,-87.48 456.7,-77.59"/>
<polygon fill="#63b8ff" stroke="#63b8ff" points="457.23,-80.78 465.81,-74.56 455.22,-74.08 457.23,-80.78"/>
</a>
</g>
</g>
<!-- Node3 -->
<g id="Node000003" class="node">
<title>Node3</title>
<g id="a_Node000003"><a xlink:title=" ">
<polygon fill="#e0e0e0" stroke="#999999" points="40,-20 0,-20 0,0 40,0 40,-20"/>
<text text-anchor="middle" x="20" y="-6.5" font-family="Helvetica,sans-Serif" font-size="10.00">string</text>
</a>
</g>
</g>
<!-- Node2&#45;&gt;Node3 -->
<g id="edge2_Node000002_Node000003" class="edge">
<title>Node2&#45;&gt;Node3</title>
<g id="a_edge2_Node000002_Node000003"><a xlink:title=" ">
<path fill="none" stroke="#63b8ff" d="M78.63,-55.59C68.25,-47.7 53.19,-36.24 40.93,-26.92"/>
<polygon fill="#63b8ff" stroke="#63b8ff" points="43.3,-23.57 33.23,-20.3 39.07,-29.14 43.3,-23.57"/>
</a>
</g>
</g>
<!-- Node4 -->
<g id="Node000004" class="node">
<title>Node4</title>
<g id="a_Node000004"><a xlink:title=" ">
<polygon fill="#e0e0e0" stroke="#999999" points="123.75,-20 58.25,-20 58.25,0 123.75,0 123.75,-20"/>
<text text-anchor="middle" x="91" y="-6.5" font-family="Helvetica,sans-Serif" font-size="10.00">string_view</text>
</a>
</g>
</g>
<!-- Node2&#45;&gt;Node4 -->
<g id="edge3_Node000002_Node000004" class="edge">
<title>Node2&#45;&gt;Node4</title>
<g id="a_edge3_Node000002_Node000004"><a xlink:title=" ">
<path fill="none" stroke="#63b8ff" d="M91,-55.59C91,-48.86 91,-39.53 91,-31.15"/>
<polygon fill="#63b8ff" stroke="#63b8ff" points="94.5,-31.3 91,-21.3 87.5,-31.3 94.5,-31.3"/>
</a>
</g>
</g>
<!-- Node5 -->
<g id="Node000005" class="node">
<title>Node5</title>
<g id="a_Node000005"><a xlink:title=" ">
<polygon fill="#e0e0e0" stroke="#999999" points="191.88,-20 142.12,-20 142.12,0 191.88,0 191.88,-20"/>
<text text-anchor="middle" x="167" y="-6.5" font-family="Helvetica,sans-Serif" font-size="10.00">optional</text>
</a>
</g>
</g>
<!-- Node2&#45;&gt;Node5 -->
<g id="edge4_Node000002_Node000005" class="edge">
<title>Node2&#45;&gt;Node5</title>
<g id="a_edge4_Node000002_Node000005"><a xlink:title=" ">
<path fill="none" stroke="#63b8ff" d="M104.24,-55.59C115.39,-47.67 131.59,-36.16 144.74,-26.82"/>
<polygon fill="#63b8ff" stroke="#63b8ff" points="146.53,-29.12 152.66,-20.48 142.48,-23.42 146.53,-29.12"/>
</a>
</g>
</g>
</g>
</svg>
