<?xml version="1.0" encoding="UTF-8" standalone="no"?>
<!DOCTYPE svg PUBLIC "-//W3C//DTD SVG 1.1//EN"
 "http://www.w3.org/Graphics/SVG/1.1/DTD/svg11.dtd">
<!-- Generated by graphviz version 8.1.0 (0)
 -->
<!-- Title: include/roar/detail/shared_from_base.hpp Pages: 1 -->
<!--zoomable 364 -->

<svg id="main" version="1.1" xmlns="http://www.w3.org/2000/svg" xmlns:xlink="http://www.w3.org/1999/xlink" xml:space="preserve" onload="init(evt)">
<style type="text/css"><![CDATA[
.node, .edge {opacity: 0.7;}
.node.selected, .edge.selected {opacity: 1;}
.edge:hover path { stroke: red; }
.edge:hover polygon { stroke: red; fill: red; }
]]></style>

<defs>
  <circle id="rim" cx="0" cy="0" r="7"/>
  <circle id="rim2" cx="0" cy="0" r="3.5"/>
  <g id="zoomPlus">
    <use xlink:href="#rim" fill="#404040"><set attributeName="fill" to="#808080" begin="zoomplus.mouseover" end="zoomplus.mouseout"/></use>
    <path d="M-4,0h8M0,-4v8" fill="none" stroke="white" stroke-width="1.5" pointer-events="none"/>
  </g>
  <g id="zoomMin">
    <use xlink:href="#rim" fill="#404040"><set attributeName="fill" to="#808080" begin="zoomminus.mouseover" end="zoomminus.mouseout"/></use>
    <path d="M-4,0h8" fill="none" stroke="white" stroke-width="1.5" pointer-events="none"/>
  </g>
  <g id="arrowUp" transform="translate(30 24)">
    <use xlink:href="#rim"/>
    <path pointer-events="none" fill="none" stroke="white" stroke-width="1.5" d="M0,-3.0v7 M-2.5,-0.5L0,-3.0L2.5,-0.5"/>
  </g>
  <g id="arrowRight" transform="rotate(90) translate(36 -43)">
    <use xlink:href="#rim"/>
    <path pointer-events="none" fill="none" stroke="white" stroke-width="1.5" d="M0,-3.0v7 M-2.5,-0.5L0,-3.0L2.5,-0.5"/>
  </g>
  <g id="arrowDown" transform="rotate(180) translate(-30 -48)">
    <use xlink:href="#rim"/>
    <path pointer-events="none" fill="none" stroke="white" stroke-width="1.5" d="M0,-3.0v7 M-2.5,-0.5L0,-3.0L2.5,-0.5"/>
  </g>
  <g id="arrowLeft" transform="rotate(270) translate(-36 17)">
    <use xlink:href="#rim"/>
    <path pointer-events="none" fill="none" stroke="white" stroke-width="1.5" d="M0,-3.0v7 M-2.5,-0.5L0,-3.0L2.5,-0.5"/>
  </g>
  <g id="resetDef">
    <use xlink:href="#rim2" fill="#404040"><set attributeName="fill" to="#808080" begin="reset.mouseover" end="reset.mouseout"/></use>
  </g>
</defs>
<script type="application/ecmascript">
var viewWidth = 1822;
var viewHeight = 364;
var sectionId = 'dynsection-1';
</script>
<script type="application/ecmascript" xlink:href="svg.min.js"/>
<svg id="graph" class="graph">
<g id="viewport">
<title>include/roar/detail/shared_from_base.hpp</title>
<!-- Node1 -->
<g id="Node000001" class="node">
<title>Node1</title>
<g id="a_Node000001"><a xlink:title=" ">
<polygon fill="#999999" stroke="#666666" points="370.62,-356 176.12,-356 176.12,-336 370.62,-336 370.62,-356"/>
<text text-anchor="middle" x="273.38" y="-342.5" font-family="Helvetica,sans-Serif" font-size="10.00">include/roar/detail/shared_from_base.hpp</text>
</a>
</g>
</g>
<!-- Node2 -->
<g id="Node000002" class="node">
<title>Node2</title>
<g id="a_Node000002"><a xlink:href="websocket__client_8hpp.html" target="_top" xlink:title=" ">
<polygon fill="white" stroke="#666666" points="262.38,-300 48.37,-300 48.37,-280 262.38,-280 262.38,-300"/>
<text text-anchor="middle" x="155.38" y="-286.5" font-family="Helvetica,sans-Serif" font-size="10.00">include/roar/websocket/websocket_client.hpp</text>
</a>
</g>
</g>
<!-- Node1&#45;&gt;Node2 -->
<g id="edge1_Node000001_Node000002" class="edge">
<title>Node1&#45;&gt;Node2</title>
<g id="a_edge1_Node000001_Node000002"><a xlink:title=" ">
<path fill="none" stroke="#63b8ff" d="M243.09,-331.14C222.08,-321.52 194.64,-308.97 176.09,-300.48"/>
<polygon fill="#63b8ff" stroke="#63b8ff" points="241.27,-334.62 251.82,-335.59 244.18,-328.25 241.27,-334.62"/>
</a>
</g>
</g>
<!-- Node4 -->
<g id="Node000004" class="node">
<title>Node4</title>
<g id="a_Node000004"><a xlink:href="websocket__session_8hpp.html" target="_top" xlink:title=" ">
<polygon fill="white" stroke="#666666" points="533.62,-300 309.12,-300 309.12,-280 533.62,-280 533.62,-300"/>
<text text-anchor="middle" x="421.38" y="-286.5" font-family="Helvetica,sans-Serif" font-size="10.00">include/roar/websocket/websocket_session.hpp</text>
</a>
</g>
</g>
<!-- Node1&#45;&gt;Node4 -->
<g id="edge3_Node000001_Node000004" class="edge">
<title>Node1&#45;&gt;Node4</title>
<g id="a_edge3_Node000001_Node000004"><a xlink:title=" ">
<path fill="none" stroke="#63b8ff" d="M309.22,-331.92C335.83,-322.21 371.49,-309.2 395.39,-300.48"/>
<polygon fill="#63b8ff" stroke="#63b8ff" points="308.35,-328.88 300.15,-335.59 310.75,-335.45 308.35,-328.88"/>
</a>
</g>
</g>
<!-- Node3 -->
<g id="Node000003" class="node">
<title>Node3</title>
<g id="a_Node000003"><a xlink:href="websocket__client_8cpp.html" target="_top" xlink:title=" ">
<polygon fill="white" stroke="#666666" points="196.75,-244 0,-244 0,-224 196.75,-224 196.75,-244"/>
<text text-anchor="middle" x="98.38" y="-230.5" font-family="Helvetica,sans-Serif" font-size="10.00">src/roar/websocket/websocket_client.cpp</text>
</a>
</g>
</g>
<!-- Node2&#45;&gt;Node3 -->
<g id="edge2_Node000002_Node000003" class="edge">
<title>Node2&#45;&gt;Node3</title>
<g id="a_edge2_Node000002_Node000003"><a xlink:title=" ">
<path fill="none" stroke="#63b8ff" d="M137.56,-272.13C127.87,-262.94 116.25,-251.93 108.19,-244.3"/>
<polygon fill="#63b8ff" stroke="#63b8ff" points="134.78,-274.26 144.45,-278.59 139.59,-269.18 134.78,-274.26"/>
</a>
</g>
</g>
<!-- Node5 -->
<g id="Node000005" class="node">
<title>Node5</title>
<g id="a_Node000005"><a xlink:href="examples_2websocket_2request__listener_8hpp.html" target="_top" xlink:title=" ">
<polygon fill="white" stroke="#666666" points="242.88,-132 43.88,-132 43.88,-112 242.88,-112 242.88,-132"/>
<text text-anchor="middle" x="143.38" y="-118.5" font-family="Helvetica,sans-Serif" font-size="10.00">examples/websocket/request_listener.hpp</text>
</a>
</g>
</g>
<!-- Node4&#45;&gt;Node5 -->
<g id="edge4_Node000004_Node000005" class="edge">
<title>Node4&#45;&gt;Node5</title>
<g id="a_edge4_Node000004_Node000005"><a xlink:title=" ">
<path fill="none" stroke="#63b8ff" d="M431.13,-269.69C436.65,-255.79 440.75,-237.23 431.38,-224 402.84,-183.75 263.38,-148.61 189.51,-132.44"/>
<polygon fill="#63b8ff" stroke="#63b8ff" points="427.56,-268.09 426.64,-278.65 433.94,-270.97 427.56,-268.09"/>
</a>
</g>
</g>
<!-- Node8 -->
<g id="Node000008" class="node">
<title>Node8</title>
<g id="a_Node000008"><a xlink:href="session_8hpp.html" target="_top" xlink:title=" ">
<polygon fill="white" stroke="#666666" points="1347.62,-244 1189.12,-244 1189.12,-224 1347.62,-224 1347.62,-244"/>
<text text-anchor="middle" x="1268.38" y="-230.5" font-family="Helvetica,sans-Serif" font-size="10.00">include/roar/session/session.hpp</text>
</a>
</g>
</g>
<!-- Node4&#45;&gt;Node8 -->
<g id="edge7_Node000004_Node000008" class="edge">
<title>Node4&#45;&gt;Node8</title>
<g id="a_edge7_Node000004_Node000008"><a xlink:title=" ">
<path fill="none" stroke="#63b8ff" d="M544.74,-281.14C721.11,-269.89 1040.36,-249.54 1188.67,-240.08"/>
<polygon fill="#63b8ff" stroke="#63b8ff" points="544.61,-277.7 534.85,-281.83 545.05,-284.69 544.61,-277.7"/>
</a>
</g>
</g>
<!-- Node28 -->
<g id="Node000028" class="node">
<title>Node28</title>
<g id="a_Node000028"><a xlink:href="websocket__session_8cpp.html" target="_top" xlink:title=" ">
<polygon fill="white" stroke="#666666" points="422,-244 214.75,-244 214.75,-224 422,-224 422,-244"/>
<text text-anchor="middle" x="318.38" y="-230.5" font-family="Helvetica,sans-Serif" font-size="10.00">src/roar/websocket/websocket_session.cpp</text>
</a>
</g>
</g>
<!-- Node4&#45;&gt;Node28 -->
<g id="edge41_Node000004_Node000028" class="edge">
<title>Node4&#45;&gt;Node28</title>
<g id="a_edge41_Node000004_Node000028"><a xlink:title=" ">
<path fill="none" stroke="#63b8ff" d="M393.93,-274.61C375.73,-265.07 352.35,-252.81 336.46,-244.48"/>
<polygon fill="#63b8ff" stroke="#63b8ff" points="391.95,-278.05 402.43,-279.59 395.2,-271.85 391.95,-278.05"/>
</a>
</g>
</g>
<!-- Node6 -->
<g id="Node000006" class="node">
<title>Node6</title>
<g id="a_Node000006"><a xlink:href="websocket_2main_8cpp.html" target="_top" xlink:title=" ">
<polygon fill="white" stroke="#666666" points="346.88,-20 195.88,-20 195.88,0 346.88,0 346.88,-20"/>
<text text-anchor="middle" x="271.38" y="-6.5" font-family="Helvetica,sans-Serif" font-size="10.00">examples/websocket/main.cpp</text>
</a>
</g>
</g>
<!-- Node5&#45;&gt;Node6 -->
<g id="edge5_Node000005_Node000006" class="edge">
<title>Node5&#45;&gt;Node6</title>
<g id="a_edge5_Node000005_Node000006"><a xlink:title=" ">
<path fill="none" stroke="#63b8ff" d="M169.98,-106.23C183.58,-98.12 200.03,-87.4 213.38,-76 234.08,-58.32 254.34,-33.37 264.55,-20.11"/>
<polygon fill="#63b8ff" stroke="#63b8ff" points="168.55,-103.59 161.67,-111.65 172.07,-109.64 168.55,-103.59"/>
</a>
</g>
</g>
<!-- Node7 -->
<g id="Node000007" class="node">
<title>Node7</title>
<g id="a_Node000007"><a xlink:href="examples_2websocket_2request__listener_8cpp.html" target="_top" xlink:title=" ">
<polygon fill="white" stroke="#666666" points="204.88,-76 5.88,-76 5.88,-56 204.88,-56 204.88,-76"/>
<text text-anchor="middle" x="105.38" y="-62.5" font-family="Helvetica,sans-Serif" font-size="10.00">examples/websocket/request_listener.cpp</text>
</a>
</g>
</g>
<!-- Node5&#45;&gt;Node7 -->
<g id="edge6_Node000005_Node000007" class="edge">
<title>Node5&#45;&gt;Node7</title>
<g id="a_edge6_Node000005_Node000007"><a xlink:title=" ">
<path fill="none" stroke="#63b8ff" d="M130.51,-102.72C124.26,-93.84 117.02,-83.55 111.92,-76.3"/>
<polygon fill="#63b8ff" stroke="#63b8ff" points="128.14,-104.43 136.76,-110.59 133.86,-100.4 128.14,-104.43"/>
</a>
</g>
</g>
<!-- Node9 -->
<g id="Node000009" class="node">
<title>Node9</title>
<g id="a_Node000009"><a xlink:href="directory__server_8hpp.html" target="_top" xlink:title=" ">
<polygon fill="white" stroke="#666666" points="1177.62,-132 947.12,-132 947.12,-112 1177.62,-112 1177.62,-132"/>
<text text-anchor="middle" x="1062.38" y="-118.5" font-family="Helvetica,sans-Serif" font-size="10.00">include/roar/directory_server/directory_server.hpp</text>
</a>
</g>
</g>
<!-- Node8&#45;&gt;Node9 -->
<g id="edge8_Node000008_Node000009" class="edge">
<title>Node8&#45;&gt;Node9</title>
<g id="a_edge8_Node000008_Node000009"><a xlink:title=" ">
<path fill="none" stroke="#63b8ff" d="M1233.34,-219.47C1212.86,-211.16 1186.72,-199.86 1164.38,-188 1131.17,-170.38 1094.53,-145.62 1075.5,-132.32"/>
<polygon fill="#63b8ff" stroke="#63b8ff" points="1231.9,-223.06 1242.48,-223.53 1234.5,-216.56 1231.9,-223.06"/>
</a>
</g>
</g>
<!-- Node10 -->
<g id="Node000010" class="node">
<title>Node10</title>
<g id="a_Node000010"><a xlink:href="server_8hpp.html" target="_top" xlink:title=" ">
<polygon fill="white" stroke="#666666" points="1091.88,-76 976.88,-76 976.88,-56 1091.88,-56 1091.88,-76"/>
<text text-anchor="middle" x="1034.38" y="-62.5" font-family="Helvetica,sans-Serif" font-size="10.00">include/roar/server.hpp</text>
</a>
</g>
</g>
<!-- Node8&#45;&gt;Node10 -->
<g id="edge35_Node000008_Node000010" class="edge">
<title>Node8&#45;&gt;Node10</title>
<g id="a_edge35_Node000008_Node000010"><a xlink:title=" ">
<path fill="none" stroke="#63b8ff" d="M1233.74,-218.82C1220.29,-211.57 1206.06,-201.4 1197.38,-188 1178.82,-159.36 1208.71,-137.81 1186.38,-112 1163.14,-85.15 1124.73,-73.94 1092.33,-69.42"/>
<polygon fill="#63b8ff" stroke="#63b8ff" points="1231.8,-222.26 1242.31,-223.59 1234.92,-215.99 1231.8,-222.26"/>
</a>
</g>
</g>
<!-- Node16 -->
<g id="Node000016" class="node">
<title>Node16</title>
<g id="a_Node000016"><a xlink:href="server_8cpp.html" target="_top" xlink:title=" ">
<polygon fill="white" stroke="#666666" points="1675.25,-20 1577.5,-20 1577.5,0 1675.25,0 1675.25,-20"/>
<text text-anchor="middle" x="1626.38" y="-6.5" font-family="Helvetica,sans-Serif" font-size="10.00">src/roar/server.cpp</text>
</a>
</g>
</g>
<!-- Node8&#45;&gt;Node16 -->
<g id="edge38_Node000008_Node000016" class="edge">
<title>Node8&#45;&gt;Node16</title>
<g id="a_edge38_Node000008_Node000016"><a xlink:title=" ">
<path fill="none" stroke="#63b8ff" d="M1358.89,-231.86C1502.71,-229.09 1770.24,-219.7 1799.38,-188 1859.85,-122.19 1707.84,-46.47 1648.72,-20.39"/>
<polygon fill="#63b8ff" stroke="#63b8ff" points="1358.84,-228.38 1348.91,-232.06 1358.97,-235.38 1358.84,-228.38"/>
</a>
</g>
</g>
<!-- Node17 -->
<g id="Node000017" class="node">
<title>Node17</title>
<g id="a_Node000017"><a xlink:href="include_2roar_2routing_2request__listener_8hpp.html" target="_top" xlink:title=" ">
<polygon fill="white" stroke="#666666" points="909,-188 719.75,-188 719.75,-168 909,-168 909,-188"/>
<text text-anchor="middle" x="814.38" y="-174.5" font-family="Helvetica,sans-Serif" font-size="10.00">include/roar/routing/request_listener.hpp</text>
</a>
</g>
</g>
<!-- Node8&#45;&gt;Node17 -->
<g id="edge17_Node000008_Node000017" class="edge">
<title>Node8&#45;&gt;Node17</title>
<g id="a_edge17_Node000008_Node000017"><a xlink:title=" ">
<path fill="none" stroke="#63b8ff" d="M1178.09,-222.26C1095.11,-212.39 973.27,-197.9 893.88,-188.46"/>
<polygon fill="#63b8ff" stroke="#63b8ff" points="1177.43,-225.83 1187.77,-223.53 1178.26,-218.88 1177.43,-225.83"/>
</a>
</g>
</g>
<!-- Node24 -->
<g id="Node000024" class="node">
<title>Node24</title>
<g id="a_Node000024"><a xlink:href="route_8cpp.html" target="_top" xlink:title=" ">
<polygon fill="white" stroke="#666666" points="1330.75,-188 1206,-188 1206,-168 1330.75,-168 1330.75,-188"/>
<text text-anchor="middle" x="1268.38" y="-174.5" font-family="Helvetica,sans-Serif" font-size="10.00">src/roar/routing/route.cpp</text>
</a>
</g>
</g>
<!-- Node8&#45;&gt;Node24 -->
<g id="edge36_Node000008_Node000024" class="edge">
<title>Node8&#45;&gt;Node24</title>
<g id="a_edge36_Node000008_Node000024"><a xlink:title=" ">
<path fill="none" stroke="#63b8ff" d="M1268.38,-212.71C1268.38,-204.32 1268.38,-195.01 1268.38,-188.3"/>
<polygon fill="#63b8ff" stroke="#63b8ff" points="1264.88,-212.59 1268.38,-222.59 1271.88,-212.59 1264.88,-212.59"/>
</a>
</g>
</g>
<!-- Node25 -->
<g id="Node000025" class="node">
<title>Node25</title>
<g id="a_Node000025"><a xlink:href="router_8cpp.html" target="_top" xlink:title=" ">
<polygon fill="white" stroke="#666666" points="1476.25,-188 1348.5,-188 1348.5,-168 1476.25,-168 1476.25,-188"/>
<text text-anchor="middle" x="1412.38" y="-174.5" font-family="Helvetica,sans-Serif" font-size="10.00">src/roar/routing/router.cpp</text>
</a>
</g>
</g>
<!-- Node8&#45;&gt;Node25 -->
<g id="edge37_Node000008_Node000025" class="edge">
<title>Node8&#45;&gt;Node25</title>
<g id="a_edge37_Node000008_Node000025"><a xlink:title=" ">
<path fill="none" stroke="#63b8ff" d="M1303.6,-219.79C1329.45,-210.1 1363.94,-197.16 1387.1,-188.48"/>
<polygon fill="#63b8ff" stroke="#63b8ff" points="1302.59,-216.81 1294.46,-223.59 1305.05,-223.36 1302.59,-216.81"/>
</a>
</g>
</g>
<!-- Node26 -->
<g id="Node000026" class="node">
<title>Node26</title>
<g id="a_Node000026"><a xlink:href="factory_8cpp.html" target="_top" xlink:title=" ">
<polygon fill="white" stroke="#666666" points="1630.75,-188 1494,-188 1494,-168 1630.75,-168 1630.75,-188"/>
<text text-anchor="middle" x="1562.38" y="-174.5" font-family="Helvetica,sans-Serif" font-size="10.00">src/roar/session/factory.cpp</text>
</a>
</g>
</g>
<!-- Node8&#45;&gt;Node26 -->
<g id="edge39_Node000008_Node000026" class="edge">
<title>Node8&#45;&gt;Node26</title>
<g id="a_edge39_Node000008_Node000026"><a xlink:title=" ">
<path fill="none" stroke="#63b8ff" d="M1330.66,-221.56C1384.26,-211.71 1460.68,-197.68 1510.89,-188.46"/>
<polygon fill="#63b8ff" stroke="#63b8ff" points="1330.13,-218.28 1320.92,-223.53 1331.39,-225.17 1330.13,-218.28"/>
</a>
</g>
</g>
<!-- Node27 -->
<g id="Node000027" class="node">
<title>Node27</title>
<g id="a_Node000027"><a xlink:href="session_8cpp.html" target="_top" xlink:title=" ">
<polygon fill="white" stroke="#666666" points="1790,-188 1648.75,-188 1648.75,-168 1790,-168 1790,-188"/>
<text text-anchor="middle" x="1719.38" y="-174.5" font-family="Helvetica,sans-Serif" font-size="10.00">src/roar/session/session.cpp</text>
</a>
</g>
</g>
<!-- Node8&#45;&gt;Node27 -->
<g id="edge40_Node000008_Node000027" class="edge">
<title>Node8&#45;&gt;Node27</title>
<g id="a_edge40_Node000008_Node000027"><a xlink:title=" ">
<path fill="none" stroke="#63b8ff" d="M1358.41,-222.22C1443.65,-212.01 1569.91,-196.9 1648.29,-187.51"/>
<polygon fill="#63b8ff" stroke="#63b8ff" points="1358.22,-218.84 1348.71,-223.5 1359.05,-225.79 1358.22,-218.84"/>
</a>
</g>
</g>
<!-- Node9&#45;&gt;Node10 -->
<g id="edge9_Node000009_Node000010" class="edge">
<title>Node9&#45;&gt;Node10</title>
<g id="a_edge9_Node000009_Node000010"><a xlink:title=" ">
<path fill="none" stroke="#63b8ff" d="M1052.45,-101.87C1047.95,-93.19 1042.83,-83.32 1039.2,-76.3"/>
<polygon fill="#63b8ff" stroke="#63b8ff" points="1049.79,-103.33 1057.5,-110.59 1056,-100.11 1049.79,-103.33"/>
</a>
</g>
</g>
<!-- Node10&#45;&gt;Node6 -->
<g id="edge14_Node000010_Node000006" class="edge">
<title>Node10&#45;&gt;Node6</title>
<g id="a_edge14_Node000010_Node000006"><a xlink:title=" ">
<path fill="none" stroke="#63b8ff" d="M965.63,-60.13C822.99,-50.04 495.79,-26.88 347.23,-16.37"/>
<polygon fill="#63b8ff" stroke="#63b8ff" points="965.18,-63.68 975.4,-60.9 965.67,-56.7 965.18,-63.68"/>
</a>
</g>
</g>
<!-- Node11 -->
<g id="Node000011" class="node">
<title>Node11</title>
<g id="a_Node000011"><a xlink:href="100__continue_2main_8cpp.html" target="_top" xlink:title=" ">
<polygon fill="white" stroke="#666666" points="1000.12,-20 838.62,-20 838.62,0 1000.12,0 1000.12,-20"/>
<text text-anchor="middle" x="919.38" y="-6.5" font-family="Helvetica,sans-Serif" font-size="10.00">examples/100_continue/main.cpp</text>
</a>
</g>
</g>
<!-- Node10&#45;&gt;Node11 -->
<g id="edge10_Node000010_Node000011" class="edge">
<title>Node10&#45;&gt;Node11</title>
<g id="a_edge10_Node000010_Node000011"><a xlink:title=" ">
<path fill="none" stroke="#63b8ff" d="M1004.58,-51.01C984.14,-41.41 957.56,-28.93 939.56,-20.48"/>
<polygon fill="#63b8ff" stroke="#63b8ff" points="1002.8,-54.51 1013.34,-55.59 1005.78,-48.18 1002.8,-54.51"/>
</a>
</g>
</g>
<!-- Node12 -->
<g id="Node000012" class="node">
<title>Node12</title>
<g id="a_Node000012"><a xlink:href="most__minimal_2main_8cpp.html" target="_top" xlink:title=" ">
<polygon fill="white" stroke="#666666" points="1182.62,-20 1018.12,-20 1018.12,0 1182.62,0 1182.62,-20"/>
<text text-anchor="middle" x="1100.38" y="-6.5" font-family="Helvetica,sans-Serif" font-size="10.00">examples/most_minimal/main.cpp</text>
</a>
</g>
</g>
<!-- Node10&#45;&gt;Node12 -->
<g id="edge11_Node000010_Node000012" class="edge">
<title>Node10&#45;&gt;Node12</title>
<g id="a_edge11_Node000010_Node000012"><a xlink:title=" ">
<path fill="none" stroke="#63b8ff" d="M1054.32,-48.68C1065.68,-39.39 1079.49,-28.09 1089.01,-20.3"/>
<polygon fill="#63b8ff" stroke="#63b8ff" points="1052.39,-46.55 1046.87,-55.59 1056.83,-51.97 1052.39,-46.55"/>
</a>
</g>
</g>
<!-- Node13 -->
<g id="Node000013" class="node">
<title>Node13</title>
<g id="a_Node000013"><a xlink:href="serve__directory_2main_8cpp.html" target="_top" xlink:title=" ">
<polygon fill="white" stroke="#666666" points="1445.62,-20 1275.12,-20 1275.12,0 1445.62,0 1445.62,-20"/>
<text text-anchor="middle" x="1360.38" y="-6.5" font-family="Helvetica,sans-Serif" font-size="10.00">examples/serve_directory/main.cpp</text>
</a>
</g>
</g>
<!-- Node10&#45;&gt;Node13 -->
<g id="edge12_Node000010_Node000013" class="edge">
<title>Node10&#45;&gt;Node13</title>
<g id="a_edge12_Node000010_Node000013"><a xlink:title=" ">
<path fill="none" stroke="#63b8ff" d="M1102.33,-53.74C1161.81,-43.89 1247.26,-29.74 1303.28,-20.46"/>
<polygon fill="#63b8ff" stroke="#63b8ff" points="1101.83,-50.44 1092.53,-55.53 1102.97,-57.35 1101.83,-50.44"/>
</a>
</g>
</g>
<!-- Node14 -->
<g id="Node000014" class="node">
<title>Node14</title>
<g id="a_Node000014"><a xlink:href="simple__server_2main_8cpp.html" target="_top" xlink:title=" ">
<polygon fill="white" stroke="#666666" points="630.62,-20 466.12,-20 466.12,0 630.62,0 630.62,-20"/>
<text text-anchor="middle" x="548.38" y="-6.5" font-family="Helvetica,sans-Serif" font-size="10.00">examples/simple_server/main.cpp</text>
</a>
</g>
</g>
<!-- Node10&#45;&gt;Node14 -->
<g id="edge13_Node000010_Node000014" class="edge">
<title>Node10&#45;&gt;Node14</title>
<g id="a_edge13_Node000010_Node000014"><a xlink:title=" ">
<path fill="none" stroke="#63b8ff" d="M965.79,-57.38C877.83,-47.61 725.41,-30.67 631.11,-20.19"/>
<polygon fill="#63b8ff" stroke="#63b8ff" points="965.39,-60.97 975.72,-58.59 966.16,-54.01 965.39,-60.97"/>
</a>
</g>
</g>
<!-- Node15 -->
<g id="Node000015" class="node">
<title>Node15</title>
<g id="a_Node000015"><a xlink:href="src_2roar_2routing_2request__listener_8cpp.html" target="_top" xlink:title=" ">
<polygon fill="white" stroke="#666666" points="820.38,-20 648.38,-20 648.38,0 820.38,0 820.38,-20"/>
<text text-anchor="middle" x="734.38" y="-6.5" font-family="Helvetica,sans-Serif" font-size="10.00">src/roar/routing/request_listener.cpp</text>
</a>
</g>
</g>
<!-- Node10&#45;&gt;Node15 -->
<g id="edge15_Node000010_Node000015" class="edge">
<title>Node10&#45;&gt;Node15</title>
<g id="a_edge15_Node000010_Node000015"><a xlink:title=" ">
<path fill="none" stroke="#63b8ff" d="M971.16,-53.62C916.45,-43.77 838.25,-29.7 786.91,-20.46"/>
<polygon fill="#63b8ff" stroke="#63b8ff" points="970.31,-57.21 980.78,-55.53 971.55,-50.32 970.31,-57.21"/>
</a>
</g>
</g>
<!-- Node10&#45;&gt;Node16 -->
<g id="edge16_Node000010_Node000016" class="edge">
<title>Node10&#45;&gt;Node16</title>
<g id="a_edge16_Node000010_Node000016"><a xlink:title=" ">
<path fill="none" stroke="#63b8ff" d="M1102.92,-58.47C1111.82,-57.63 1120.81,-56.79 1129.38,-56 1293.5,-40.8 1488.17,-23.34 1577.34,-15.37"/>
<polygon fill="#63b8ff" stroke="#63b8ff" points="1102.77,-55.06 1093.15,-59.49 1103.43,-62.03 1102.77,-55.06"/>
</a>
</g>
</g>
<!-- Node17&#45;&gt;Node5 -->
<g id="edge31_Node000017_Node000005" class="edge">
<title>Node17&#45;&gt;Node5</title>
<g id="a_edge31_Node000017_Node000005"><a xlink:title=" ">
<path fill="none" stroke="#63b8ff" d="M708.37,-168.47C580.75,-158.2 368.05,-141.08 243.24,-131.04"/>
<polygon fill="#63b8ff" stroke="#63b8ff" points="708.06,-172.04 718.31,-169.35 708.62,-165.06 708.06,-172.04"/>
</a>
</g>
</g>
<!-- Node17&#45;&gt;Node6 -->
<g id="edge30_Node000017_Node000006" class="edge">
<title>Node17&#45;&gt;Node6</title>
<g id="a_edge30_Node000017_Node000006"><a xlink:title=" ">
<path fill="none" stroke="#63b8ff" d="M708.62,-172.74C575.02,-166.52 358.75,-153.3 328.38,-132 289.4,-104.67 276.29,-43.52 272.62,-20.24"/>
<polygon fill="#63b8ff" stroke="#63b8ff" points="708.14,-176.27 718.29,-173.23 708.46,-169.28 708.14,-176.27"/>
</a>
</g>
</g>
<!-- Node17&#45;&gt;Node9 -->
<g id="edge32_Node000017_Node000009" class="edge">
<title>Node17&#45;&gt;Node9</title>
<g id="a_edge32_Node000017_Node000009"><a xlink:title=" ">
<path fill="none" stroke="#63b8ff" d="M868.34,-165.25C913.47,-155.42 977.03,-141.58 1018.94,-132.46"/>
<polygon fill="#63b8ff" stroke="#63b8ff" points="867.88,-161.98 858.86,-167.53 869.37,-168.82 867.88,-161.98"/>
</a>
</g>
</g>
<!-- Node17&#45;&gt;Node10 -->
<g id="edge33_Node000017_Node000010" class="edge">
<title>Node17&#45;&gt;Node10</title>
<g id="a_edge33_Node000017_Node000010"><a xlink:title=" ">
<path fill="none" stroke="#63b8ff" d="M841.02,-162.6C866.01,-149.19 904.5,-128.81 938.38,-112 964.1,-99.24 994.12,-85.32 1013.65,-76.39"/>
<polygon fill="#63b8ff" stroke="#63b8ff" points="839.65,-159.89 832.5,-167.71 842.97,-166.06 839.65,-159.89"/>
</a>
</g>
</g>
<!-- Node17&#45;&gt;Node11 -->
<g id="edge18_Node000017_Node000011" class="edge">
<title>Node17&#45;&gt;Node11</title>
<g id="a_edge18_Node000017_Node000011"><a xlink:title=" ">
<path fill="none" stroke="#63b8ff" d="M834.94,-160.79C844.14,-152.82 854.63,-142.64 862.38,-132 889.7,-94.44 909.12,-41.72 916.31,-20.45"/>
<polygon fill="#63b8ff" stroke="#63b8ff" points="833.09,-158.61 827.65,-167.71 837.57,-163.99 833.09,-158.61"/>
</a>
</g>
</g>
<!-- Node17&#45;&gt;Node13 -->
<g id="edge25_Node000017_Node000013" class="edge">
<title>Node17&#45;&gt;Node13</title>
<g id="a_edge25_Node000017_Node000013"><a xlink:title=" ">
<path fill="none" stroke="#63b8ff" d="M920.15,-173.06C1093.11,-166.1 1419.08,-150.59 1436.38,-132 1470.34,-95.49 1404.12,-41.72 1374.09,-20.3"/>
<polygon fill="#63b8ff" stroke="#63b8ff" points="920.09,-169.6 910.24,-173.5 920.37,-176.59 920.09,-169.6"/>
</a>
</g>
</g>
<!-- Node17&#45;&gt;Node14 -->
<g id="edge26_Node000017_Node000014" class="edge">
<title>Node17&#45;&gt;Node14</title>
<g id="a_edge26_Node000017_Node000014"><a xlink:title=" ">
<path fill="none" stroke="#63b8ff" d="M709.09,-168.67C677.95,-162.18 645.29,-151.03 619.38,-132 579.33,-102.59 558.02,-43.22 551.02,-20.31"/>
<polygon fill="#63b8ff" stroke="#63b8ff" points="708.1,-172.23 718.58,-170.69 709.43,-165.36 708.1,-172.23"/>
</a>
</g>
</g>
<!-- Node17&#45;&gt;Node15 -->
<g id="edge34_Node000017_Node000015" class="edge">
<title>Node17&#45;&gt;Node15</title>
<g id="a_edge34_Node000017_Node000015"><a xlink:title=" ">
<path fill="none" stroke="#63b8ff" d="M728.08,-165.67C687.98,-158.45 646.48,-147.5 634.38,-132 613.59,-105.38 616.03,-84.36 634.38,-56 646.11,-37.85 667.09,-26.95 686.82,-20.44"/>
<polygon fill="#63b8ff" stroke="#63b8ff" points="727.33,-169.26 737.78,-167.51 728.52,-162.36 727.33,-169.26"/>
</a>
</g>
</g>
<!-- Node18 -->
<g id="Node000018" class="node">
<title>Node18</title>
<g id="a_Node000018"><a xlink:href="examples_2100__continue_2request__listener_8hpp.html" target="_top" xlink:title=" ">
<polygon fill="white" stroke="#666666" points="853.12,-132 643.62,-132 643.62,-112 853.12,-112 853.12,-132"/>
<text text-anchor="middle" x="748.38" y="-118.5" font-family="Helvetica,sans-Serif" font-size="10.00">examples/100_continue/request_listener.hpp</text>
</a>
</g>
</g>
<!-- Node17&#45;&gt;Node18 -->
<g id="edge19_Node000017_Node000018" class="edge">
<title>Node17&#45;&gt;Node18</title>
<g id="a_edge19_Node000017_Node000018"><a xlink:title=" ">
<path fill="none" stroke="#63b8ff" d="M794.43,-160.68C783.07,-151.39 769.26,-140.09 759.74,-132.3"/>
<polygon fill="#63b8ff" stroke="#63b8ff" points="791.92,-163.97 801.88,-167.59 796.36,-158.55 791.92,-163.97"/>
</a>
</g>
</g>
<!-- Node20 -->
<g id="Node000020" class="node">
<title>Node20</title>
<g id="a_Node000020"><a xlink:href="file__server_8hpp.html" target="_top" xlink:title=" ">
<polygon fill="white" stroke="#666666" points="1427.62,-132 1233.12,-132 1233.12,-112 1427.62,-112 1427.62,-132"/>
<text text-anchor="middle" x="1330.38" y="-118.5" font-family="Helvetica,sans-Serif" font-size="10.00">examples/serve_directory/file_server.hpp</text>
</a>
</g>
</g>
<!-- Node17&#45;&gt;Node20 -->
<g id="edge22_Node000017_Node000020" class="edge">
<title>Node17&#45;&gt;Node20</title>
<g id="a_edge22_Node000017_Node000020"><a xlink:title=" ">
<path fill="none" stroke="#63b8ff" d="M915.83,-166.38C1010.06,-156.52 1149.07,-141.97 1239.68,-132.49"/>
<polygon fill="#63b8ff" stroke="#63b8ff" points="915.72,-162.98 906.14,-167.5 916.45,-169.94 915.72,-162.98"/>
</a>
</g>
</g>
<!-- Node22 -->
<g id="Node000022" class="node">
<title>Node22</title>
<g id="a_Node000022"><a xlink:href="examples_2simple__server_2request__listener_8hpp.html" target="_top" xlink:title=" ">
<polygon fill="white" stroke="#666666" points="549.62,-132 337.12,-132 337.12,-112 549.62,-112 549.62,-132"/>
<text text-anchor="middle" x="443.38" y="-118.5" font-family="Helvetica,sans-Serif" font-size="10.00">examples/simple_server/request_listener.hpp</text>
</a>
</g>
</g>
<!-- Node17&#45;&gt;Node22 -->
<g id="edge27_Node000017_Node000022" class="edge">
<title>Node17&#45;&gt;Node22</title>
<g id="a_edge27_Node000017_Node000022"><a xlink:title=" ">
<path fill="none" stroke="#63b8ff" d="M738.72,-165.99C670.96,-156.13 572.63,-141.81 508.35,-132.46"/>
<polygon fill="#63b8ff" stroke="#63b8ff" points="737.93,-169.56 748.33,-167.53 738.94,-162.63 737.93,-169.56"/>
</a>
</g>
</g>
<!-- Node18&#45;&gt;Node11 -->
<g id="edge20_Node000018_Node000011" class="edge">
<title>Node18&#45;&gt;Node11</title>
<g id="a_edge20_Node000018_Node000011"><a xlink:title=" ">
<path fill="none" stroke="#63b8ff" d="M795.01,-108.18C816.7,-100.86 842.12,-90.26 862.38,-76 884.71,-60.27 904.1,-34.06 913.44,-20.21"/>
<polygon fill="#63b8ff" stroke="#63b8ff" points="794.14,-105.1 785.7,-111.51 796.29,-111.76 794.14,-105.1"/>
</a>
</g>
</g>
<!-- Node19 -->
<g id="Node000019" class="node">
<title>Node19</title>
<g id="a_Node000019"><a xlink:href="examples_2100__continue_2request__listener_8cpp.html" target="_top" xlink:title=" ">
<polygon fill="white" stroke="#666666" points="853.12,-76 643.62,-76 643.62,-56 853.12,-56 853.12,-76"/>
<text text-anchor="middle" x="748.38" y="-62.5" font-family="Helvetica,sans-Serif" font-size="10.00">examples/100_continue/request_listener.cpp</text>
</a>
</g>
</g>
<!-- Node18&#45;&gt;Node19 -->
<g id="edge21_Node000018_Node000019" class="edge">
<title>Node18&#45;&gt;Node19</title>
<g id="a_edge21_Node000018_Node000019"><a xlink:title=" ">
<path fill="none" stroke="#63b8ff" d="M748.38,-100.71C748.38,-92.32 748.38,-83.01 748.38,-76.3"/>
<polygon fill="#63b8ff" stroke="#63b8ff" points="744.88,-100.59 748.38,-110.59 751.88,-100.59 744.88,-100.59"/>
</a>
</g>
</g>
<!-- Node20&#45;&gt;Node13 -->
<g id="edge24_Node000020_Node000013" class="edge">
<title>Node20&#45;&gt;Node13</title>
<g id="a_edge24_Node000020_Node000013"><a xlink:title=" ">
<path fill="none" stroke="#63b8ff" d="M1335.75,-101.3C1342.26,-77.43 1352.96,-38.2 1357.82,-20.35"/>
<polygon fill="#63b8ff" stroke="#63b8ff" points="1332.19,-100.05 1332.93,-110.62 1338.94,-101.89 1332.19,-100.05"/>
</a>
</g>
</g>
<!-- Node21 -->
<g id="Node000021" class="node">
<title>Node21</title>
<g id="a_Node000021"><a xlink:href="file__server_8cpp.html" target="_top" xlink:title=" ">
<polygon fill="white" stroke="#666666" points="1332.62,-76 1138.12,-76 1138.12,-56 1332.62,-56 1332.62,-76"/>
<text text-anchor="middle" x="1235.38" y="-62.5" font-family="Helvetica,sans-Serif" font-size="10.00">examples/serve_directory/file_server.cpp</text>
</a>
</g>
</g>
<!-- Node20&#45;&gt;Node21 -->
<g id="edge23_Node000020_Node000021" class="edge">
<title>Node20&#45;&gt;Node21</title>
<g id="a_edge23_Node000020_Node000021"><a xlink:title=" ">
<path fill="none" stroke="#63b8ff" d="M1304.6,-106.35C1287.88,-96.84 1266.58,-84.74 1252.05,-76.48"/>
<polygon fill="#63b8ff" stroke="#63b8ff" points="1302.4,-109.69 1312.83,-111.59 1305.86,-103.61 1302.4,-109.69"/>
</a>
</g>
</g>
<!-- Node22&#45;&gt;Node14 -->
<g id="edge28_Node000022_Node000014" class="edge">
<title>Node22&#45;&gt;Node14</title>
<g id="a_edge28_Node000022_Node000014"><a xlink:title=" ">
<path fill="none" stroke="#63b8ff" d="M383.13,-108.85C345.49,-98.5 307.76,-81.25 328.38,-56 345.78,-34.67 410.96,-23.18 465.89,-17.16"/>
<polygon fill="#63b8ff" stroke="#63b8ff" points="382.14,-112.47 392.69,-111.59 383.89,-105.69 382.14,-112.47"/>
</a>
</g>
</g>
<!-- Node23 -->
<g id="Node000023" class="node">
<title>Node23</title>
<g id="a_Node000023"><a xlink:href="examples_2simple__server_2request__listener_8cpp.html" target="_top" xlink:title=" ">
<polygon fill="white" stroke="#666666" points="549.62,-76 337.12,-76 337.12,-56 549.62,-56 549.62,-76"/>
<text text-anchor="middle" x="443.38" y="-62.5" font-family="Helvetica,sans-Serif" font-size="10.00">examples/simple_server/request_listener.cpp</text>
</a>
</g>
</g>
<!-- Node22&#45;&gt;Node23 -->
<g id="edge29_Node000022_Node000023" class="edge">
<title>Node22&#45;&gt;Node23</title>
<g id="a_edge29_Node000022_Node000023"><a xlink:title=" ">
<path fill="none" stroke="#63b8ff" d="M443.38,-100.71C443.38,-92.32 443.38,-83.01 443.38,-76.3"/>
<polygon fill="#63b8ff" stroke="#63b8ff" points="439.88,-100.59 443.38,-110.59 446.88,-100.59 439.88,-100.59"/>
</a>
</g>
</g>
</g>
</svg>

<g id="navigator" transform="translate(0 0)" fill="#404254">
  <rect fill="#f2f5e9" fill-opacity="0.5" stroke="#606060" stroke-width=".5" x="0" y="0" width="60" height="60"/>
  <use id="zoomplus" xlink:href="#zoomPlus" x="17" y="9" onmousedown="handleZoom(evt,'in')"/>
  <use id="zoomminus" xlink:href="#zoomMin" x="42" y="9" onmousedown="handleZoom(evt,'out')"/>
  <use id="reset" xlink:href="#resetDef" x="30" y="36" onmousedown="handleReset()"/>
   <use id="arrowup" xlink:href="#arrowUp" x="0" y="0" onmousedown="handlePan(0,-1)"/>
  <use id="arrowright" xlink:href="#arrowRight" x="0" y="0" onmousedown="handlePan(1,0)"/>
  <use id="arrowdown" xlink:href="#arrowDown" x="0" y="0" onmousedown="handlePan(0,1)"/>
  <use id="arrowleft" xlink:href="#arrowLeft" x="0" y="0" onmousedown="handlePan(-1,0)"/>
</g>
<svg viewBox="0 0 15 15" width="100%" height="30px" preserveAspectRatio="xMaxYMin meet">
 <g id="arrow_out" transform="scale(0.3 0.3)">
  <a xlink:href="shared__from__base_8hpp__dep__incl_org.svg" target="_base">
   <rect id="button" ry="5" rx="5" y="6" x="6" height="38" width="38"
        fill="#f2f5e9" fill-opacity="0.5" stroke="#606060" stroke-width="1.0"/>
   <path id="arrow"
     d="M 11.500037,31.436501 C 11.940474,20.09759 22.043105,11.32322 32.158766,21.979434 L 37.068811,17.246167 C 37.068811,17.246167 37.088388,32 37.088388,32 L 22.160133,31.978069 C 22.160133,31.978069 26.997745,27.140456 26.997745,27.140456 C 18.528582,18.264221 13.291696,25.230495 11.500037,31.436501 z"
     style="fill:#404040;"/>
  </a>
 </g>
</svg>

<style type='text/css'>
<![CDATA[
[data-mouse-over-selected='false'] { opacity: 0.7; }
[data-mouse-over-selected='true']  { opacity: 1.0; }
]]>
</style>
<script type="application/ecmascript"><![CDATA[
document.addEventListener('DOMContentLoaded', (event) => {
  highlightEdges();
  highlightAdjacentNodes();
});
]]></script>
</svg>
