<?xml version="1.0" encoding="UTF-8" standalone="no"?>
<!DOCTYPE svg PUBLIC "-//W3C//DTD SVG 1.1//EN"
 "http://www.w3.org/Graphics/SVG/1.1/DTD/svg11.dtd">
<!-- Generated by graphviz version 2.44.1 (20211215.1903)
 -->
<!-- Title: include/roar/detail/shared_from_base.hpp Pages: 1 -->
<!--zoomable 308 -->
<svg id="main" version="1.1" xmlns="http://www.w3.org/2000/svg" xmlns:xlink="http://www.w3.org/1999/xlink" xml:space="preserve" onload="init(evt)">
<style type="text/css"><![CDATA[
.edge:hover path { stroke: red; }
.edge:hover polygon { stroke: red; fill: red; }
]]></style>
<script type="text/javascript"><![CDATA[
var edges = document.getElementsByTagName('g');
if (edges && edges.length) {
  for (var i=0;i<edges.length;i++) {
    if (edges[i].id.substr(0,4)=='edge') {
      edges[i].setAttribute('class','edge');
    }
  }
}
]]></script>
        <defs>
                <circle id="rim" cx="0" cy="0" r="7"/>
                <circle id="rim2" cx="0" cy="0" r="3.5"/>
                <g id="zoomPlus">
                        <use xlink:href="#rim" fill="#404040">
                                <set attributeName="fill" to="#808080" begin="zoomplus.mouseover" end="zoomplus.mouseout"/>
                        </use>
                        <path d="M-4,0h8M0,-4v8" fill="none" stroke="white" stroke-width="1.5" pointer-events="none"/>
                </g>
                <g id="zoomMin">
                        <use xlink:href="#rim" fill="#404040">
                                <set attributeName="fill" to="#808080" begin="zoomminus.mouseover" end="zoomminus.mouseout"/>
                        </use>
                        <path d="M-4,0h8" fill="none" stroke="white" stroke-width="1.5" pointer-events="none"/>
                </g>
                <g id="dirArrow">
                        <path fill="none" stroke="white" stroke-width="1.5" d="M0,-3.0v7 M-2.5,-0.5L0,-3.0L2.5,-0.5"/>
                </g>
               <g id="resetDef">
                       <use xlink:href="#rim2" fill="#404040">
                               <set attributeName="fill" to="#808080" begin="reset.mouseover" end="reset.mouseout"/>
                       </use>
               </g>
        </defs>

<script type="text/javascript">
var viewWidth = 1310;
var viewHeight = 308;
var sectionId = 'dynsection-1';
</script>
<script xlink:href="svgpan.js"/>
<svg id="graph" class="graph">
<g id="viewport">
<title>include/roar/detail/shared_from_base.hpp</title>
<!-- Node1 -->
<g id="node1" class="node">
<title>Node1</title>
<g id="a_node1"><a xlink:title=" ">
<polygon fill="#bfbfbf" stroke="black" points="516.5,-280.5 516.5,-299.5 711.5,-299.5 711.5,-280.5 516.5,-280.5"/>
<text text-anchor="middle" x="614" y="-287.5" font-family="Helvetica,sans-Serif" font-size="10.00">include/roar/detail/shared_from_base.hpp</text>
</a>
</g>
</g>
<!-- Node2 -->
<g id="node2" class="node">
<title>Node2</title>
<g id="a_node2"><a xlink:href="websocket__client_8hpp.html" target="_top" xlink:title=" ">
<polygon fill="none" stroke="black" points="387.5,-224.5 387.5,-243.5 602.5,-243.5 602.5,-224.5 387.5,-224.5"/>
<text text-anchor="middle" x="495" y="-231.5" font-family="Helvetica,sans-Serif" font-size="10.00">include/roar/websocket/websocket_client.hpp</text>
</a>
</g>
</g>
<!-- Node1&#45;&gt;Node2 -->
<g id="edge1" class="edge">
<title>Node1&#45;&gt;Node2</title>
<path fill="none" stroke="midnightblue" d="M585.86,-276.23C563.6,-266.13 533.14,-252.31 513.77,-243.52"/>
<polygon fill="midnightblue" stroke="midnightblue" points="584.59,-279.5 595.14,-280.44 587.48,-273.12 584.59,-279.5"/>
</g>
<!-- Node4 -->
<g id="node4" class="node">
<title>Node4</title>
<g id="a_node4"><a xlink:href="websocket__session_8hpp.html" target="_top" xlink:title=" ">
<polygon fill="none" stroke="black" points="696.5,-224.5 696.5,-243.5 921.5,-243.5 921.5,-224.5 696.5,-224.5"/>
<text text-anchor="middle" x="809" y="-231.5" font-family="Helvetica,sans-Serif" font-size="10.00">include/roar/websocket/websocket_session.hpp</text>
</a>
</g>
</g>
<!-- Node1&#45;&gt;Node4 -->
<g id="edge3" class="edge">
<title>Node1&#45;&gt;Node4</title>
<path fill="none" stroke="midnightblue" d="M654.81,-277.7C691.61,-267.51 744.93,-252.74 778.25,-243.52"/>
<polygon fill="midnightblue" stroke="midnightblue" points="653.6,-274.4 644.9,-280.44 655.47,-281.15 653.6,-274.4"/>
</g>
<!-- Node3 -->
<g id="node3" class="node">
<title>Node3</title>
<g id="a_node3"><a xlink:href="websocket__client_8cpp.html" target="_top" xlink:title=" ">
<polygon fill="none" stroke="black" points="245.5,-168.5 245.5,-187.5 442.5,-187.5 442.5,-168.5 245.5,-168.5"/>
<text text-anchor="middle" x="344" y="-175.5" font-family="Helvetica,sans-Serif" font-size="10.00">src/roar/websocket/websocket_client.cpp</text>
</a>
</g>
</g>
<!-- Node2&#45;&gt;Node3 -->
<g id="edge2" class="edge">
<title>Node2&#45;&gt;Node3</title>
<path fill="none" stroke="midnightblue" d="M461.55,-221.04C433.14,-210.88 393.06,-196.55 367.81,-187.52"/>
<polygon fill="midnightblue" stroke="midnightblue" points="460.48,-224.37 471.07,-224.44 462.84,-217.78 460.48,-224.37"/>
</g>
<!-- Node5 -->
<g id="node5" class="node">
<title>Node5</title>
<g id="a_node5"><a xlink:href="examples_2websocket_2request__listener_8hpp.html" target="_top" xlink:title=" ">
<polygon fill="none" stroke="black" points="1090,-56.5 1090,-75.5 1290,-75.5 1290,-56.5 1090,-56.5"/>
<text text-anchor="middle" x="1190" y="-63.5" font-family="Helvetica,sans-Serif" font-size="10.00">examples/websocket/request_listener.hpp</text>
</a>
</g>
</g>
<!-- Node4&#45;&gt;Node5 -->
<g id="edge4" class="edge">
<title>Node4&#45;&gt;Node5</title>
<path fill="none" stroke="midnightblue" d="M827.43,-218.23C845.94,-203.93 875.7,-182.37 904,-168 991.33,-123.66 1102.74,-90.44 1157.13,-75.58"/>
<polygon fill="midnightblue" stroke="midnightblue" points="825.25,-215.49 819.54,-224.42 829.57,-221 825.25,-215.49"/>
</g>
<!-- Node8 -->
<g id="node8" class="node">
<title>Node8</title>
<g id="a_node8"><a xlink:href="session_8hpp.html" target="_top" xlink:title=" ">
<polygon fill="none" stroke="black" points="460.5,-168.5 460.5,-187.5 619.5,-187.5 619.5,-168.5 460.5,-168.5"/>
<text text-anchor="middle" x="540" y="-175.5" font-family="Helvetica,sans-Serif" font-size="10.00">include/roar/session/session.hpp</text>
</a>
</g>
</g>
<!-- Node4&#45;&gt;Node8 -->
<g id="edge7" class="edge">
<title>Node4&#45;&gt;Node8</title>
<path fill="none" stroke="midnightblue" d="M756.56,-222.47C705.72,-212.27 629.56,-196.98 582.42,-187.52"/>
<polygon fill="midnightblue" stroke="midnightblue" points="755.88,-225.91 766.38,-224.44 757.26,-219.04 755.88,-225.91"/>
</g>
<!-- Node22 -->
<g id="node22" class="node">
<title>Node22</title>
<g id="a_node22"><a xlink:href="websocket__session_8cpp.html" target="_top" xlink:title=" ">
<polygon fill="none" stroke="black" points="913,-168.5 913,-187.5 1121,-187.5 1121,-168.5 913,-168.5"/>
<text text-anchor="middle" x="1017" y="-175.5" font-family="Helvetica,sans-Serif" font-size="10.00">src/roar/websocket/websocket_session.cpp</text>
</a>
</g>
</g>
<!-- Node4&#45;&gt;Node22 -->
<g id="edge29" class="edge">
<title>Node4&#45;&gt;Node22</title>
<path fill="none" stroke="midnightblue" d="M851.78,-221.89C891.06,-211.7 948.43,-196.8 984.2,-187.52"/>
<polygon fill="midnightblue" stroke="midnightblue" points="850.76,-218.54 841.96,-224.44 852.52,-225.32 850.76,-218.54"/>
</g>
<!-- Node6 -->
<g id="node6" class="node">
<title>Node6</title>
<g id="a_node6"><a xlink:href="websocket_2main_8cpp.html" target="_top" xlink:title=" ">
<polygon fill="none" stroke="black" points="932,-0.5 932,-19.5 1084,-19.5 1084,-0.5 932,-0.5"/>
<text text-anchor="middle" x="1008" y="-7.5" font-family="Helvetica,sans-Serif" font-size="10.00">examples/websocket/main.cpp</text>
</a>
</g>
</g>
<!-- Node5&#45;&gt;Node6 -->
<g id="edge5" class="edge">
<title>Node5&#45;&gt;Node6</title>
<path fill="none" stroke="midnightblue" d="M1151.47,-53.57C1117.14,-43.38 1067.67,-28.7 1036.7,-19.52"/>
<polygon fill="midnightblue" stroke="midnightblue" points="1150.58,-56.95 1161.16,-56.44 1152.57,-50.24 1150.58,-56.95"/>
</g>
<!-- Node7 -->
<g id="node7" class="node">
<title>Node7</title>
<g id="a_node7"><a xlink:href="examples_2websocket_2request__listener_8cpp.html" target="_top" xlink:title=" ">
<polygon fill="none" stroke="black" points="1102,-0.5 1102,-19.5 1302,-19.5 1302,-0.5 1102,-0.5"/>
<text text-anchor="middle" x="1202" y="-7.5" font-family="Helvetica,sans-Serif" font-size="10.00">examples/websocket/request_listener.cpp</text>
</a>
</g>
</g>
<!-- Node5&#45;&gt;Node7 -->
<g id="edge6" class="edge">
<title>Node5&#45;&gt;Node7</title>
<path fill="none" stroke="midnightblue" d="M1194.2,-46.1C1196.19,-37.14 1198.48,-26.86 1200.06,-19.75"/>
<polygon fill="midnightblue" stroke="midnightblue" points="1190.73,-45.56 1191.98,-56.08 1197.57,-47.08 1190.73,-45.56"/>
</g>
<!-- Node9 -->
<g id="node9" class="node">
<title>Node9</title>
<g id="a_node9"><a xlink:href="include_2roar_2routing_2request__listener_8hpp.html" target="_top" xlink:title=" ">
<polygon fill="none" stroke="black" points="667,-112.5 667,-131.5 857,-131.5 857,-112.5 667,-112.5"/>
<text text-anchor="middle" x="762" y="-119.5" font-family="Helvetica,sans-Serif" font-size="10.00">include/roar/routing/request_listener.hpp</text>
</a>
</g>
</g>
<!-- Node8&#45;&gt;Node9 -->
<g id="edge8" class="edge">
<title>Node8&#45;&gt;Node9</title>
<path fill="none" stroke="midnightblue" d="M585.12,-166.02C627.06,-155.82 688.65,-140.84 726.99,-131.52"/>
<polygon fill="midnightblue" stroke="midnightblue" points="584.07,-162.68 575.18,-168.44 585.72,-169.48 584.07,-162.68"/>
</g>
<!-- Node14 -->
<g id="node14" class="node">
<title>Node14</title>
<g id="a_node14"><a xlink:href="server_8hpp.html" target="_top" xlink:title=" ">
<polygon fill="none" stroke="black" points="418,-56.5 418,-75.5 534,-75.5 534,-56.5 418,-56.5"/>
<text text-anchor="middle" x="476" y="-63.5" font-family="Helvetica,sans-Serif" font-size="10.00">include/roar/server.hpp</text>
</a>
</g>
</g>
<!-- Node8&#45;&gt;Node14 -->
<g id="edge23" class="edge">
<title>Node8&#45;&gt;Node14</title>
<path fill="none" stroke="midnightblue" d="M575.96,-164.76C604.21,-153.13 636.29,-134.15 620,-112 608.33,-96.12 560.61,-83.36 523.26,-75.54"/>
<polygon fill="midnightblue" stroke="midnightblue" points="574.64,-161.52 566.6,-168.42 577.18,-168.04 574.64,-161.52"/>
</g>
<!-- Node17 -->
<g id="node17" class="node">
<title>Node17</title>
<g id="a_node17"><a xlink:href="server_8cpp.html" target="_top" xlink:title=" ">
<polygon fill="none" stroke="black" points="0,-0.5 0,-19.5 98,-19.5 98,-0.5 0,-0.5"/>
<text text-anchor="middle" x="49" y="-7.5" font-family="Helvetica,sans-Serif" font-size="10.00">src/roar/server.cpp</text>
</a>
</g>
</g>
<!-- Node8&#45;&gt;Node17 -->
<g id="edge26" class="edge">
<title>Node8&#45;&gt;Node17</title>
<path fill="none" stroke="midnightblue" d="M449.96,-168.08C369.35,-163.85 45.47,-166.16 14,-132 -16.37,-99.03 24.34,-41.27 41.77,-19.57"/>
<polygon fill="midnightblue" stroke="midnightblue" points="450.17,-171.6 460.38,-168.79 450.64,-164.61 450.17,-171.6"/>
</g>
<!-- Node18 -->
<g id="node18" class="node">
<title>Node18</title>
<g id="a_node18"><a xlink:href="route_8cpp.html" target="_top" xlink:title=" ">
<polygon fill="none" stroke="black" points="23.5,-112.5 23.5,-131.5 148.5,-131.5 148.5,-112.5 23.5,-112.5"/>
<text text-anchor="middle" x="86" y="-119.5" font-family="Helvetica,sans-Serif" font-size="10.00">src/roar/routing/route.cpp</text>
</a>
</g>
</g>
<!-- Node8&#45;&gt;Node18 -->
<g id="edge24" class="edge">
<title>Node8&#45;&gt;Node18</title>
<path fill="none" stroke="midnightblue" d="M456.22,-167.3C378.81,-158.3 260.62,-144.46 158,-132 155,-131.64 151.93,-131.26 148.83,-130.88"/>
<polygon fill="midnightblue" stroke="midnightblue" points="456.06,-170.81 466.39,-168.49 456.86,-163.85 456.06,-170.81"/>
</g>
<!-- Node19 -->
<g id="node19" class="node">
<title>Node19</title>
<g id="a_node19"><a xlink:href="router_8cpp.html" target="_top" xlink:title=" ">
<polygon fill="none" stroke="black" points="167,-112.5 167,-131.5 295,-131.5 295,-112.5 167,-112.5"/>
<text text-anchor="middle" x="231" y="-119.5" font-family="Helvetica,sans-Serif" font-size="10.00">src/roar/routing/router.cpp</text>
</a>
</g>
</g>
<!-- Node8&#45;&gt;Node19 -->
<g id="edge25" class="edge">
<title>Node8&#45;&gt;Node19</title>
<path fill="none" stroke="midnightblue" d="M480.86,-166.66C422.46,-156.46 334.22,-141.04 279.73,-131.52"/>
<polygon fill="midnightblue" stroke="midnightblue" points="480.58,-170.17 491.04,-168.44 481.79,-163.27 480.58,-170.17"/>
</g>
<!-- Node20 -->
<g id="node20" class="node">
<title>Node20</title>
<g id="a_node20"><a xlink:href="factory_8cpp.html" target="_top" xlink:title=" ">
<polygon fill="none" stroke="black" points="313.5,-112.5 313.5,-131.5 450.5,-131.5 450.5,-112.5 313.5,-112.5"/>
<text text-anchor="middle" x="382" y="-119.5" font-family="Helvetica,sans-Serif" font-size="10.00">src/roar/session/factory.cpp</text>
</a>
</g>
</g>
<!-- Node8&#45;&gt;Node20 -->
<g id="edge27" class="edge">
<title>Node8&#45;&gt;Node20</title>
<path fill="none" stroke="midnightblue" d="M505.39,-165.17C475.64,-155 433.45,-140.59 406.92,-131.52"/>
<polygon fill="midnightblue" stroke="midnightblue" points="504.37,-168.52 514.96,-168.44 506.63,-161.9 504.37,-168.52"/>
</g>
<!-- Node21 -->
<g id="node21" class="node">
<title>Node21</title>
<g id="a_node21"><a xlink:href="session_8cpp.html" target="_top" xlink:title=" ">
<polygon fill="none" stroke="black" points="469,-112.5 469,-131.5 611,-131.5 611,-112.5 469,-112.5"/>
<text text-anchor="middle" x="540" y="-119.5" font-family="Helvetica,sans-Serif" font-size="10.00">src/roar/session/session.cpp</text>
</a>
</g>
</g>
<!-- Node8&#45;&gt;Node21 -->
<g id="edge28" class="edge">
<title>Node8&#45;&gt;Node21</title>
<path fill="none" stroke="midnightblue" d="M540,-157.8C540,-148.91 540,-138.78 540,-131.75"/>
<polygon fill="midnightblue" stroke="midnightblue" points="536.5,-158.08 540,-168.08 543.5,-158.08 536.5,-158.08"/>
</g>
<!-- Node9&#45;&gt;Node5 -->
<g id="edge15" class="edge">
<title>Node9&#45;&gt;Node5</title>
<path fill="none" stroke="midnightblue" d="M839.94,-111.17C920.74,-100.97 1045.78,-85.2 1122.5,-75.52"/>
<polygon fill="midnightblue" stroke="midnightblue" points="839.3,-107.72 829.82,-112.44 840.18,-114.66 839.3,-107.72"/>
</g>
<!-- Node9&#45;&gt;Node6 -->
<g id="edge14" class="edge">
<title>Node9&#45;&gt;Node6</title>
<path fill="none" stroke="midnightblue" d="M788.23,-107.79C805.97,-98.84 829.91,-86.74 851,-76 868.36,-67.16 872.21,-63.93 890,-56 921.64,-41.9 959.18,-28.07 983.27,-19.54"/>
<polygon fill="midnightblue" stroke="midnightblue" points="786.43,-104.77 779.08,-112.4 789.58,-111.03 786.43,-104.77"/>
</g>
<!-- Node10 -->
<g id="node10" class="node">
<title>Node10</title>
<g id="a_node10"><a xlink:href="request__listener_2main_8cpp.html" target="_top" xlink:title=" ">
<polygon fill="none" stroke="black" points="898.5,-56.5 898.5,-75.5 1071.5,-75.5 1071.5,-56.5 898.5,-56.5"/>
<text text-anchor="middle" x="985" y="-63.5" font-family="Helvetica,sans-Serif" font-size="10.00">examples/request_listener/main.cpp</text>
</a>
</g>
</g>
<!-- Node9&#45;&gt;Node10 -->
<g id="edge9" class="edge">
<title>Node9&#45;&gt;Node10</title>
<path fill="none" stroke="midnightblue" d="M807.06,-110.09C849.19,-99.89 911.24,-84.86 949.83,-75.52"/>
<polygon fill="midnightblue" stroke="midnightblue" points="806.23,-106.69 797.34,-112.44 807.88,-113.49 806.23,-106.69"/>
</g>
<!-- Node11 -->
<g id="node11" class="node">
<title>Node11</title>
<g id="a_node11"><a xlink:href="simple__server_2main_8cpp.html" target="_top" xlink:title=" ">
<polygon fill="none" stroke="black" points="517.5,-0.5 517.5,-19.5 682.5,-19.5 682.5,-0.5 517.5,-0.5"/>
<text text-anchor="middle" x="600" y="-7.5" font-family="Helvetica,sans-Serif" font-size="10.00">examples/simple_server/main.cpp</text>
</a>
</g>
</g>
<!-- Node9&#45;&gt;Node11 -->
<g id="edge10" class="edge">
<title>Node9&#45;&gt;Node11</title>
<path fill="none" stroke="midnightblue" d="M681.42,-109.75C659.1,-103.13 636.5,-92.64 620,-76 604.7,-60.57 601.06,-33.74 600.23,-19.87"/>
<polygon fill="midnightblue" stroke="midnightblue" points="680.73,-113.19 691.29,-112.44 682.57,-106.44 680.73,-113.19"/>
</g>
<!-- Node12 -->
<g id="node12" class="node">
<title>Node12</title>
<g id="a_node12"><a xlink:href="examples_2simple__server_2request__listener_8hpp.html" target="_top" xlink:title=" ">
<polygon fill="none" stroke="black" points="628.5,-56.5 628.5,-75.5 841.5,-75.5 841.5,-56.5 628.5,-56.5"/>
<text text-anchor="middle" x="735" y="-63.5" font-family="Helvetica,sans-Serif" font-size="10.00">examples/simple_server/request_listener.hpp</text>
</a>
</g>
</g>
<!-- Node9&#45;&gt;Node12 -->
<g id="edge11" class="edge">
<title>Node9&#45;&gt;Node12</title>
<path fill="none" stroke="midnightblue" d="M752.99,-102.98C748.41,-93.82 743.05,-83.09 739.38,-75.75"/>
<polygon fill="midnightblue" stroke="midnightblue" points="749.94,-104.7 757.54,-112.08 756.2,-101.57 749.94,-104.7"/>
</g>
<!-- Node9&#45;&gt;Node14 -->
<g id="edge16" class="edge">
<title>Node9&#45;&gt;Node14</title>
<path fill="none" stroke="midnightblue" d="M706.59,-110.54C652.53,-100.33 571.33,-85 521.11,-75.52"/>
<polygon fill="midnightblue" stroke="midnightblue" points="706.21,-114.03 716.68,-112.44 707.51,-107.15 706.21,-114.03"/>
</g>
<!-- Node16 -->
<g id="node16" class="node">
<title>Node16</title>
<g id="a_node16"><a xlink:href="src_2roar_2routing_2request__listener_8cpp.html" target="_top" xlink:title=" ">
<polygon fill="none" stroke="black" points="326.5,-0.5 326.5,-19.5 499.5,-19.5 499.5,-0.5 326.5,-0.5"/>
<text text-anchor="middle" x="413" y="-7.5" font-family="Helvetica,sans-Serif" font-size="10.00">src/roar/routing/request_listener.cpp</text>
</a>
</g>
</g>
<!-- Node9&#45;&gt;Node16 -->
<g id="edge22" class="edge">
<title>Node9&#45;&gt;Node16</title>
<path fill="none" stroke="midnightblue" d="M720.2,-109.71C688.25,-100.94 643.18,-88.24 604,-76 572.07,-66.03 481.46,-34.75 437.51,-19.51"/>
<polygon fill="midnightblue" stroke="midnightblue" points="719.51,-113.16 730.08,-112.42 721.36,-106.4 719.51,-113.16"/>
</g>
<!-- Node12&#45;&gt;Node11 -->
<g id="edge12" class="edge">
<title>Node12&#45;&gt;Node11</title>
<path fill="none" stroke="midnightblue" d="M704.09,-52.64C678.76,-42.5 643.57,-28.43 621.29,-19.52"/>
<polygon fill="midnightblue" stroke="midnightblue" points="703.02,-55.98 713.61,-56.44 705.62,-49.48 703.02,-55.98"/>
</g>
<!-- Node13 -->
<g id="node13" class="node">
<title>Node13</title>
<g id="a_node13"><a xlink:href="examples_2simple__server_2request__listener_8cpp.html" target="_top" xlink:title=" ">
<polygon fill="none" stroke="black" points="700.5,-0.5 700.5,-19.5 913.5,-19.5 913.5,-0.5 700.5,-0.5"/>
<text text-anchor="middle" x="807" y="-7.5" font-family="Helvetica,sans-Serif" font-size="10.00">examples/simple_server/request_listener.cpp</text>
</a>
</g>
</g>
<!-- Node12&#45;&gt;Node13 -->
<g id="edge13" class="edge">
<title>Node12&#45;&gt;Node13</title>
<path fill="none" stroke="midnightblue" d="M754.87,-50.1C767.82,-40.38 784.3,-28.03 795.22,-19.83"/>
<polygon fill="midnightblue" stroke="midnightblue" points="752.47,-47.52 746.57,-56.32 756.67,-53.12 752.47,-47.52"/>
</g>
<!-- Node14&#45;&gt;Node6 -->
<g id="edge19" class="edge">
<title>Node14&#45;&gt;Node6</title>
<path fill="none" stroke="midnightblue" d="M544.31,-58.23C632,-49.52 788.85,-33.85 923,-20 925.8,-19.71 928.66,-19.41 931.55,-19.11"/>
<polygon fill="midnightblue" stroke="midnightblue" points="543.83,-54.76 534.23,-59.23 544.53,-61.73 543.83,-54.76"/>
</g>
<!-- Node14&#45;&gt;Node11 -->
<g id="edge18" class="edge">
<title>Node14&#45;&gt;Node11</title>
<path fill="none" stroke="midnightblue" d="M505.01,-52.37C528.23,-42.26 560.16,-28.35 580.44,-19.52"/>
<polygon fill="midnightblue" stroke="midnightblue" points="503.42,-49.24 495.65,-56.44 506.21,-55.66 503.42,-49.24"/>
</g>
<!-- Node15 -->
<g id="node15" class="node">
<title>Node15</title>
<g id="a_node15"><a xlink:href="most__minimal_2main_8cpp.html" target="_top" xlink:title=" ">
<polygon fill="none" stroke="black" points="143.5,-0.5 143.5,-19.5 308.5,-19.5 308.5,-0.5 143.5,-0.5"/>
<text text-anchor="middle" x="226" y="-7.5" font-family="Helvetica,sans-Serif" font-size="10.00">examples/most_minimal/main.cpp</text>
</a>
</g>
</g>
<!-- Node14&#45;&gt;Node15 -->
<g id="edge17" class="edge">
<title>Node14&#45;&gt;Node15</title>
<path fill="none" stroke="midnightblue" d="M426.38,-54.28C379.13,-44.08 308.96,-28.92 265.43,-19.52"/>
<polygon fill="midnightblue" stroke="midnightblue" points="425.87,-57.75 436.39,-56.44 427.35,-50.91 425.87,-57.75"/>
</g>
<!-- Node14&#45;&gt;Node16 -->
<g id="edge20" class="edge">
<title>Node14&#45;&gt;Node16</title>
<path fill="none" stroke="midnightblue" d="M457.96,-49.54C446.73,-39.91 432.68,-27.87 423.31,-19.83"/>
<polygon fill="midnightblue" stroke="midnightblue" points="456.01,-52.47 465.88,-56.32 460.56,-47.16 456.01,-52.47"/>
</g>
<!-- Node14&#45;&gt;Node17 -->
<g id="edge21" class="edge">
<title>Node14&#45;&gt;Node17</title>
<path fill="none" stroke="midnightblue" d="M408,-56.4C321.62,-45.48 174.62,-26.89 98.29,-17.23"/>
<polygon fill="midnightblue" stroke="midnightblue" points="407.61,-59.88 417.97,-57.66 408.49,-52.93 407.61,-59.88"/>
</g>
</g>
</svg>
        <g id="navigator" transform="translate(0 0)" fill="#404254">
                <rect fill="#f2f5e9" fill-opacity="0.5" stroke="#606060" stroke-width=".5" x="0" y="0" width="60" height="60"/>
                <use id="zoomplus" xlink:href="#zoomPlus" x="17" y="9" onmousedown="handleZoom(evt,'in')"/>
                <use id="zoomminus" xlink:href="#zoomMin" x="42" y="9" onmousedown="handleZoom(evt,'out')"/>
                <use id="reset" xlink:href="#resetDef" x="30" y="36" onmousedown="handleReset()"/>
                <g id="arrowUp" xlink:href="#dirArrow" transform="translate(30 24)" onmousedown="handlePan(0,-1)">
                  <use xlink:href="#rim" fill="#404040">
                        <set attributeName="fill" to="#808080" begin="arrowUp.mouseover" end="arrowUp.mouseout"/>
                  </use>
                  <path fill="none" stroke="white" stroke-width="1.5" d="M0,-3.0v7 M-2.5,-0.5L0,-3.0L2.5,-0.5"/>
                </g>
                <g id="arrowRight" xlink:href="#dirArrow" transform="rotate(90) translate(36 -43)" onmousedown="handlePan(1,0)">
                  <use xlink:href="#rim" fill="#404040">
                        <set attributeName="fill" to="#808080" begin="arrowRight.mouseover" end="arrowRight.mouseout"/>
                  </use>
                  <path fill="none" stroke="white" stroke-width="1.5" d="M0,-3.0v7 M-2.5,-0.5L0,-3.0L2.5,-0.5"/>
                </g>
                <g id="arrowDown" xlink:href="#dirArrow" transform="rotate(180) translate(-30 -48)" onmousedown="handlePan(0,1)">
                  <use xlink:href="#rim" fill="#404040">
                        <set attributeName="fill" to="#808080" begin="arrowDown.mouseover" end="arrowDown.mouseout"/>
                  </use>
                  <path fill="none" stroke="white" stroke-width="1.5" d="M0,-3.0v7 M-2.5,-0.5L0,-3.0L2.5,-0.5"/>
                </g>
                <g id="arrowLeft" xlink:href="#dirArrow" transform="rotate(270) translate(-36 17)" onmousedown="handlePan(-1,0)">
                  <use xlink:href="#rim" fill="#404040">
                        <set attributeName="fill" to="#808080" begin="arrowLeft.mouseover" end="arrowLeft.mouseout"/>
                  </use>
                  <path fill="none" stroke="white" stroke-width="1.5" d="M0,-3.0v7 M-2.5,-0.5L0,-3.0L2.5,-0.5"/>
                </g>
        </g>
        <svg viewBox="0 0 15 15" width="100%" height="30px" preserveAspectRatio="xMaxYMin meet">
         <g id="arrow_out" transform="scale(0.3 0.3)">
          <a xlink:href="shared__from__base_8hpp__dep__incl_org.svg" target="_base">
           <rect id="button" ry="5" rx="5" y="6" x="6" height="38" width="38"
                fill="#f2f5e9" fill-opacity="0.5" stroke="#606060" stroke-width="1.0"/>
           <path id="arrow"
             d="M 11.500037,31.436501 C 11.940474,20.09759 22.043105,11.32322 32.158766,21.979434 L 37.068811,17.246167 C 37.068811,17.246167 37.088388,32 37.088388,32 L 22.160133,31.978069 C 22.160133,31.978069 26.997745,27.140456 26.997745,27.140456 C 18.528582,18.264221 13.291696,25.230495 11.500037,31.436501 z"
             style="fill:#404040;"/>
          </a>
         </g>
        </svg>
</svg>
