<?xml version="1.0" encoding="UTF-8" standalone="no"?>
<!DOCTYPE svg PUBLIC "-//W3C//DTD SVG 1.1//EN"
 "http://www.w3.org/Graphics/SVG/1.1/DTD/svg11.dtd">
<!-- Generated by graphviz version 8.1.0 (0)
 -->
<!-- Title: src/roar/utility/shutdown_barrier.cpp Pages: 1 -->
<svg width="540pt" height="140pt"
 viewBox="0.00 0.00 539.88 140.00" xmlns="http://www.w3.org/2000/svg" xmlns:xlink="http://www.w3.org/1999/xlink">
<g id="graph0" class="graph" transform="scale(1 1) rotate(0) translate(4 136)">
<title>src/roar/utility/shutdown_barrier.cpp</title>
<!-- Node1 -->
<g id="Node000001" class="node">
<title>Node1</title>
<g id="a_Node000001"><a xlink:title=" ">
<polygon fill="#999999" stroke="#666666" points="425,-132 253.75,-132 253.75,-112 425,-112 425,-132"/>
<text text-anchor="middle" x="339.38" y="-118.5" font-family="Helvetica,sans-Serif" font-size="10.00">src/roar/utility/shutdown_barrier.cpp</text>
</a>
</g>
</g>
<!-- Node2 -->
<g id="Node000002" class="node">
<title>Node2</title>
<g id="a_Node000002"><a xlink:href="shutdown__barrier_8hpp.html" target="_top" xlink:title=" ">
<polygon fill="white" stroke="#666666" points="154.75,-76 0,-76 0,-56 154.75,-56 154.75,-76"/>
<text text-anchor="middle" x="77.38" y="-62.5" font-family="Helvetica,sans-Serif" font-size="10.00">roar/utility/shutdown_barrier.hpp</text>
</a>
</g>
</g>
<!-- Node1&#45;&gt;Node2 -->
<g id="edge1_Node000001_Node000002" class="edge">
<title>Node1&#45;&gt;Node2</title>
<g id="a_edge1_Node000001_Node000002"><a xlink:title=" ">
<path fill="none" stroke="#63b8ff" d="M293.44,-111.53C249.05,-102.38 181.71,-88.5 134.03,-78.68"/>
<polygon fill="#63b8ff" stroke="#63b8ff" points="134.76,-75.05 124.26,-76.46 133.35,-81.9 134.76,-75.05"/>
</a>
</g>
</g>
<!-- Node4 -->
<g id="Node000004" class="node">
<title>Node4</title>
<g id="a_Node000004"><a xlink:title=" ">
<polygon fill="#e0e0e0" stroke="#999999" points="266.38,-76 172.38,-76 172.38,-56 266.38,-56 266.38,-76"/>
<text text-anchor="middle" x="219.38" y="-62.5" font-family="Helvetica,sans-Serif" font-size="10.00">condition_variable</text>
</a>
</g>
</g>
<!-- Node1&#45;&gt;Node4 -->
<g id="edge3_Node000001_Node000004" class="edge">
<title>Node1&#45;&gt;Node4</title>
<g id="a_edge3_Node000001_Node000004"><a xlink:title=" ">
<path fill="none" stroke="#63b8ff" d="M318.47,-111.59C299.66,-103.13 271.76,-90.58 250.36,-80.94"/>
<polygon fill="#63b8ff" stroke="#63b8ff" points="252,-77.39 241.44,-76.48 249.12,-83.77 252,-77.39"/>
</a>
</g>
</g>
<!-- Node5 -->
<g id="Node000005" class="node">
<title>Node5</title>
<g id="a_Node000005"><a xlink:title=" ">
<polygon fill="#e0e0e0" stroke="#999999" points="330.75,-76 284,-76 284,-56 330.75,-56 330.75,-76"/>
<text text-anchor="middle" x="307.38" y="-62.5" font-family="Helvetica,sans-Serif" font-size="10.00">csignal</text>
</a>
</g>
</g>
<!-- Node1&#45;&gt;Node5 -->
<g id="edge4_Node000001_Node000005" class="edge">
<title>Node1&#45;&gt;Node5</title>
<g id="a_edge4_Node000001_Node000005"><a xlink:title=" ">
<path fill="none" stroke="#63b8ff" d="M333.8,-111.59C329.58,-104.47 323.64,-94.45 318.47,-85.72"/>
<polygon fill="#63b8ff" stroke="#63b8ff" points="320.99,-84.12 312.89,-77.3 314.97,-87.69 320.99,-84.12"/>
</a>
</g>
</g>
<!-- Node6 -->
<g id="Node000006" class="node">
<title>Node6</title>
<g id="a_Node000006"><a xlink:title=" ">
<polygon fill="#e0e0e0" stroke="#999999" points="394,-76 348.75,-76 348.75,-56 394,-56 394,-76"/>
<text text-anchor="middle" x="371.38" y="-62.5" font-family="Helvetica,sans-Serif" font-size="10.00">cstring</text>
</a>
</g>
</g>
<!-- Node1&#45;&gt;Node6 -->
<g id="edge5_Node000001_Node000006" class="edge">
<title>Node1&#45;&gt;Node6</title>
<g id="a_edge5_Node000001_Node000006"><a xlink:title=" ">
<path fill="none" stroke="#63b8ff" d="M344.95,-111.59C349.17,-104.47 355.11,-94.45 360.28,-85.72"/>
<polygon fill="#63b8ff" stroke="#63b8ff" points="363.78,-87.69 365.86,-77.3 357.76,-84.12 363.78,-87.69"/>
</a>
</g>
</g>
<!-- Node7 -->
<g id="Node000007" class="node">
<title>Node7</title>
<g id="a_Node000007"><a xlink:title=" ">
<polygon fill="#e0e0e0" stroke="#999999" points="470.38,-76 412.38,-76 412.38,-56 470.38,-56 470.38,-76"/>
<text text-anchor="middle" x="441.38" y="-62.5" font-family="Helvetica,sans-Serif" font-size="10.00">exception</text>
</a>
</g>
</g>
<!-- Node1&#45;&gt;Node7 -->
<g id="edge6_Node000001_Node000007" class="edge">
<title>Node1&#45;&gt;Node7</title>
<g id="a_edge6_Node000001_Node000007"><a xlink:title=" ">
<path fill="none" stroke="#63b8ff" d="M357.14,-111.59C372.77,-103.32 395.77,-91.14 413.79,-81.6"/>
<polygon fill="#63b8ff" stroke="#63b8ff" points="415.27,-84.25 422.47,-76.48 411.99,-78.07 415.27,-84.25"/>
</a>
</g>
</g>
<!-- Node8 -->
<g id="Node000008" class="node">
<title>Node8</title>
<g id="a_Node000008"><a xlink:title=" ">
<polygon fill="#e0e0e0" stroke="#999999" points="531.88,-76 488.88,-76 488.88,-56 531.88,-56 531.88,-76"/>
<text text-anchor="middle" x="510.38" y="-62.5" font-family="Helvetica,sans-Serif" font-size="10.00">mutex</text>
</a>
</g>
</g>
<!-- Node1&#45;&gt;Node8 -->
<g id="edge7_Node000001_Node000008" class="edge">
<title>Node1&#45;&gt;Node8</title>
<g id="a_edge7_Node000001_Node000008"><a xlink:title=" ">
<path fill="none" stroke="#63b8ff" d="M369.16,-111.59C399.63,-101.97 446.83,-87.07 478.16,-77.17"/>
<polygon fill="#63b8ff" stroke="#63b8ff" points="479.04,-80.25 487.52,-73.9 476.93,-73.57 479.04,-80.25"/>
</a>
</g>
</g>
<!-- Node3 -->
<g id="Node000003" class="node">
<title>Node3</title>
<g id="a_Node000003"><a xlink:title=" ">
<polygon fill="#e0e0e0" stroke="#999999" points="103,-20 51.75,-20 51.75,0 103,0 103,-20"/>
<text text-anchor="middle" x="77.38" y="-6.5" font-family="Helvetica,sans-Serif" font-size="10.00">memory</text>
</a>
</g>
</g>
<!-- Node2&#45;&gt;Node3 -->
<g id="edge2_Node000002_Node000003" class="edge">
<title>Node2&#45;&gt;Node3</title>
<g id="a_edge2_Node000002_Node000003"><a xlink:title=" ">
<path fill="none" stroke="#63b8ff" d="M77.38,-55.59C77.38,-48.86 77.38,-39.53 77.38,-31.15"/>
<polygon fill="#63b8ff" stroke="#63b8ff" points="80.88,-31.3 77.38,-21.3 73.88,-31.3 80.88,-31.3"/>
</a>
</g>
</g>
</g>
</svg>
