<?xml version="1.0" encoding="UTF-8" standalone="no"?>
<!DOCTYPE svg PUBLIC "-//W3C//DTD SVG 1.1//EN"
 "http://www.w3.org/Graphics/SVG/1.1/DTD/svg11.dtd">
<!-- Generated by graphviz version 8.1.0 (0)
 -->
<!-- Title: include/roar/curl/source.hpp Pages: 1 -->
<svg width="706pt" height="140pt"
 viewBox="0.00 0.00 705.50 140.00" xmlns="http://www.w3.org/2000/svg" xmlns:xlink="http://www.w3.org/1999/xlink">
<g id="graph0" class="graph" transform="scale(1 1) rotate(0) translate(4 136)">
<title>include/roar/curl/source.hpp</title>
<!-- Node1 -->
<g id="Node000001" class="node">
<title>Node1</title>
<g id="a_Node000001"><a xlink:title=" ">
<polygon fill="#999999" stroke="#666666" points="370.75,-132 234.75,-132 234.75,-112 370.75,-112 370.75,-132"/>
<text text-anchor="middle" x="302.75" y="-118.5" font-family="Helvetica,sans-Serif" font-size="10.00">include/roar/curl/source.hpp</text>
</a>
</g>
</g>
<!-- Node2 -->
<g id="Node000002" class="node">
<title>Node2</title>
<g id="a_Node000002"><a xlink:href="curl_2request_8hpp.html" target="_top" xlink:title=" ">
<polygon fill="white" stroke="#666666" points="212.25,-76 73.25,-76 73.25,-56 212.25,-56 212.25,-76"/>
<text text-anchor="middle" x="142.75" y="-62.5" font-family="Helvetica,sans-Serif" font-size="10.00">include/roar/curl/request.hpp</text>
</a>
</g>
</g>
<!-- Node1&#45;&gt;Node2 -->
<g id="edge1_Node000001_Node000002" class="edge">
<title>Node1&#45;&gt;Node2</title>
<g id="a_edge1_Node000001_Node000002"><a xlink:title=" ">
<path fill="none" stroke="#63b8ff" d="M264.76,-108.18C235.92,-98.44 196.91,-85.28 170.84,-76.48"/>
<polygon fill="#63b8ff" stroke="#63b8ff" points="263.29,-111.71 273.88,-111.59 265.52,-105.08 263.29,-111.71"/>
</a>
</g>
</g>
<!-- Node4 -->
<g id="Node000004" class="node">
<title>Node4</title>
<g id="a_Node000004"><a xlink:href="request_8cpp.html" target="_top" xlink:title=" ">
<polygon fill="white" stroke="#666666" points="301.62,-20 179.88,-20 179.88,0 301.62,0 301.62,-20"/>
<text text-anchor="middle" x="240.75" y="-6.5" font-family="Helvetica,sans-Serif" font-size="10.00">src/roar/curl/request.cpp</text>
</a>
</g>
</g>
<!-- Node1&#45;&gt;Node4 -->
<g id="edge10_Node000001_Node000004" class="edge">
<title>Node1&#45;&gt;Node4</title>
<g id="a_edge10_Node000001_Node000004"><a xlink:title=" ">
<path fill="none" stroke="#63b8ff" d="M283.16,-104.42C274.92,-96.55 265.84,-86.56 259.75,-76 249.29,-57.88 244.19,-33.53 242.05,-20.38"/>
<polygon fill="#63b8ff" stroke="#63b8ff" points="280.53,-106.67 290.29,-110.8 285.24,-101.49 280.53,-106.67"/>
</a>
</g>
</g>
<!-- Node5 -->
<g id="Node000005" class="node">
<title>Node5</title>
<g id="a_Node000005"><a xlink:href="file__source_8hpp.html" target="_top" xlink:title=" ">
<polygon fill="white" stroke="#666666" points="460.5,-76 269,-76 269,-56 460.5,-56 460.5,-76"/>
<text text-anchor="middle" x="364.75" y="-62.5" font-family="Helvetica,sans-Serif" font-size="10.00">include/roar/curl/sources/file_source.hpp</text>
</a>
</g>
</g>
<!-- Node1&#45;&gt;Node5 -->
<g id="edge4_Node000001_Node000005" class="edge">
<title>Node1&#45;&gt;Node5</title>
<g id="a_edge4_Node000001_Node000005"><a xlink:title=" ">
<path fill="none" stroke="#63b8ff" d="M321.81,-104.4C332.41,-95.17 345.22,-84.01 354.07,-76.3"/>
<polygon fill="#63b8ff" stroke="#63b8ff" points="319.79,-102.39 314.55,-111.59 324.39,-107.67 319.79,-102.39"/>
</a>
</g>
</g>
<!-- Node7 -->
<g id="Node000007" class="node">
<title>Node7</title>
<g id="a_Node000007"><a xlink:href="string__source_8hpp.html" target="_top" xlink:title=" ">
<polygon fill="white" stroke="#666666" points="681.12,-76 478.38,-76 478.38,-56 681.12,-56 681.12,-76"/>
<text text-anchor="middle" x="579.75" y="-62.5" font-family="Helvetica,sans-Serif" font-size="10.00">include/roar/curl/sources/string_source.hpp</text>
</a>
</g>
</g>
<!-- Node1&#45;&gt;Node7 -->
<g id="edge7_Node000001_Node000007" class="edge">
<title>Node1&#45;&gt;Node7</title>
<g id="a_edge7_Node000001_Node000007"><a xlink:title=" ">
<path fill="none" stroke="#63b8ff" d="M362.07,-109.44C412.54,-99.6 484.13,-85.64 531.24,-76.46"/>
<polygon fill="#63b8ff" stroke="#63b8ff" points="361.46,-106.18 352.32,-111.53 362.8,-113.05 361.46,-106.18"/>
</a>
</g>
</g>
<!-- Node3 -->
<g id="Node000003" class="node">
<title>Node3</title>
<g id="a_Node000003"><a xlink:href="100__continue_2main_8cpp.html" target="_top" xlink:title=" ">
<polygon fill="white" stroke="#666666" points="161.5,-20 0,-20 0,0 161.5,0 161.5,-20"/>
<text text-anchor="middle" x="80.75" y="-6.5" font-family="Helvetica,sans-Serif" font-size="10.00">examples/100_continue/main.cpp</text>
</a>
</g>
</g>
<!-- Node2&#45;&gt;Node3 -->
<g id="edge2_Node000002_Node000003" class="edge">
<title>Node2&#45;&gt;Node3</title>
<g id="a_edge2_Node000002_Node000003"><a xlink:title=" ">
<path fill="none" stroke="#63b8ff" d="M123.69,-48.4C113.09,-39.17 100.28,-28.01 91.43,-20.3"/>
<polygon fill="#63b8ff" stroke="#63b8ff" points="121.11,-51.67 130.95,-55.59 125.71,-46.39 121.11,-51.67"/>
</a>
</g>
</g>
<!-- Node2&#45;&gt;Node4 -->
<g id="edge3_Node000002_Node000004" class="edge">
<title>Node2&#45;&gt;Node4</title>
<g id="a_edge3_Node000002_Node000004"><a xlink:title=" ">
<path fill="none" stroke="#63b8ff" d="M169.34,-50.35C186.59,-40.84 208.56,-28.74 223.55,-20.48"/>
<polygon fill="#63b8ff" stroke="#63b8ff" points="167.89,-47.7 160.82,-55.59 171.27,-53.83 167.89,-47.7"/>
</a>
</g>
</g>
<!-- Node5&#45;&gt;Node4 -->
<g id="edge5_Node000005_Node000004" class="edge">
<title>Node5&#45;&gt;Node4</title>
<g id="a_edge5_Node000005_Node000004"><a xlink:title=" ">
<path fill="none" stroke="#63b8ff" d="M333.23,-51.27C311.11,-41.64 282.1,-29.01 262.52,-20.48"/>
<polygon fill="#63b8ff" stroke="#63b8ff" points="331.59,-54.81 342.15,-55.59 334.38,-48.39 331.59,-54.81"/>
</a>
</g>
</g>
<!-- Node6 -->
<g id="Node000006" class="node">
<title>Node6</title>
<g id="a_Node000006"><a xlink:href="file__source_8cpp.html" target="_top" xlink:title=" ">
<polygon fill="white" stroke="#666666" points="493.88,-20 319.62,-20 319.62,0 493.88,0 493.88,-20"/>
<text text-anchor="middle" x="406.75" y="-6.5" font-family="Helvetica,sans-Serif" font-size="10.00">src/roar/curl/sources/file_source.cpp</text>
</a>
</g>
</g>
<!-- Node5&#45;&gt;Node6 -->
<g id="edge6_Node000005_Node000006" class="edge">
<title>Node5&#45;&gt;Node6</title>
<g id="a_edge6_Node000005_Node000006"><a xlink:title=" ">
<path fill="none" stroke="#63b8ff" d="M378.75,-47C385.7,-38.06 393.82,-27.62 399.52,-20.3"/>
<polygon fill="#63b8ff" stroke="#63b8ff" points="375.44,-44.55 372.07,-54.59 380.97,-48.85 375.44,-44.55"/>
</a>
</g>
</g>
<!-- Node7&#45;&gt;Node4 -->
<g id="edge8_Node000007_Node000004" class="edge">
<title>Node7&#45;&gt;Node4</title>
<g id="a_edge8_Node000007_Node000004"><a xlink:title=" ">
<path fill="none" stroke="#63b8ff" d="M509.47,-53.81C447.6,-43.95 358.49,-29.76 300.12,-20.46"/>
<polygon fill="#63b8ff" stroke="#63b8ff" points="508.89,-57.42 519.31,-55.53 509.99,-50.5 508.89,-57.42"/>
</a>
</g>
</g>
<!-- Node8 -->
<g id="Node000008" class="node">
<title>Node8</title>
<g id="a_Node000008"><a xlink:href="string__source_8cpp.html" target="_top" xlink:title=" ">
<polygon fill="white" stroke="#666666" points="697.5,-20 512,-20 512,0 697.5,0 697.5,-20"/>
<text text-anchor="middle" x="604.75" y="-6.5" font-family="Helvetica,sans-Serif" font-size="10.00">src/roar/curl/sources/string_source.cpp</text>
</a>
</g>
</g>
<!-- Node7&#45;&gt;Node8 -->
<g id="edge9_Node000007_Node000008" class="edge">
<title>Node7&#45;&gt;Node8</title>
<g id="a_edge9_Node000007_Node000008"><a xlink:title=" ">
<path fill="none" stroke="#63b8ff" d="M588.61,-45.87C592.63,-37.19 597.2,-27.32 600.45,-20.3"/>
<polygon fill="#63b8ff" stroke="#63b8ff" points="585.13,-44.05 584.1,-54.59 591.48,-46.99 585.13,-44.05"/>
</a>
</g>
</g>
</g>
</svg>
