<?xml version="1.0" encoding="UTF-8" standalone="no"?>
<!DOCTYPE svg PUBLIC "-//W3C//DTD SVG 1.1//EN"
 "http://www.w3.org/Graphics/SVG/1.1/DTD/svg11.dtd">
<!-- Generated by graphviz version 8.1.0 (0)
 -->
<!-- Title: include/roar/curl/source.hpp Pages: 1 -->
<!--zoomable 140 -->

<svg id="main" version="1.1" xmlns="http://www.w3.org/2000/svg" xmlns:xlink="http://www.w3.org/1999/xlink" xml:space="preserve" onload="init(evt)">
<style type="text/css"><![CDATA[
.node, .edge {opacity: 0.7;}
.node.selected, .edge.selected {opacity: 1;}
.edge:hover path { stroke: red; }
.edge:hover polygon { stroke: red; fill: red; }
]]></style>

<defs>
  <circle id="rim" cx="0" cy="0" r="7"/>
  <circle id="rim2" cx="0" cy="0" r="3.5"/>
  <g id="zoomPlus">
    <use xlink:href="#rim" fill="#404040"><set attributeName="fill" to="#808080" begin="zoomplus.mouseover" end="zoomplus.mouseout"/></use>
    <path d="M-4,0h8M0,-4v8" fill="none" stroke="white" stroke-width="1.5" pointer-events="none"/>
  </g>
  <g id="zoomMin">
    <use xlink:href="#rim" fill="#404040"><set attributeName="fill" to="#808080" begin="zoomminus.mouseover" end="zoomminus.mouseout"/></use>
    <path d="M-4,0h8" fill="none" stroke="white" stroke-width="1.5" pointer-events="none"/>
  </g>
  <g id="arrowUp" transform="translate(30 24)">
    <use xlink:href="#rim"/>
    <path pointer-events="none" fill="none" stroke="white" stroke-width="1.5" d="M0,-3.0v7 M-2.5,-0.5L0,-3.0L2.5,-0.5"/>
  </g>
  <g id="arrowRight" transform="rotate(90) translate(36 -43)">
    <use xlink:href="#rim"/>
    <path pointer-events="none" fill="none" stroke="white" stroke-width="1.5" d="M0,-3.0v7 M-2.5,-0.5L0,-3.0L2.5,-0.5"/>
  </g>
  <g id="arrowDown" transform="rotate(180) translate(-30 -48)">
    <use xlink:href="#rim"/>
    <path pointer-events="none" fill="none" stroke="white" stroke-width="1.5" d="M0,-3.0v7 M-2.5,-0.5L0,-3.0L2.5,-0.5"/>
  </g>
  <g id="arrowLeft" transform="rotate(270) translate(-36 17)">
    <use xlink:href="#rim"/>
    <path pointer-events="none" fill="none" stroke="white" stroke-width="1.5" d="M0,-3.0v7 M-2.5,-0.5L0,-3.0L2.5,-0.5"/>
  </g>
  <g id="resetDef">
    <use xlink:href="#rim2" fill="#404040"><set attributeName="fill" to="#808080" begin="reset.mouseover" end="reset.mouseout"/></use>
  </g>
</defs>
<script type="application/ecmascript">
var viewWidth = 706;
var viewHeight = 140;
var sectionId = 'dynsection-1';
</script>
<script type="application/ecmascript" xlink:href="svg.min.js"/>
<svg id="graph" class="graph">
<g id="viewport">
<title>include/roar/curl/source.hpp</title>
<!-- Node1 -->
<g id="Node000001" class="node">
<title>Node1</title>
<g id="a_Node000001"><a xlink:title=" ">
<polygon fill="#999999" stroke="#666666" points="370.75,-132 234.75,-132 234.75,-112 370.75,-112 370.75,-132"/>
<text text-anchor="middle" x="302.75" y="-118.5" font-family="Helvetica,sans-Serif" font-size="10.00">include/roar/curl/source.hpp</text>
</a>
</g>
</g>
<!-- Node2 -->
<g id="Node000002" class="node">
<title>Node2</title>
<g id="a_Node000002"><a xlink:href="curl_2request_8hpp.html" target="_top" xlink:title=" ">
<polygon fill="white" stroke="#666666" points="212.25,-76 73.25,-76 73.25,-56 212.25,-56 212.25,-76"/>
<text text-anchor="middle" x="142.75" y="-62.5" font-family="Helvetica,sans-Serif" font-size="10.00">include/roar/curl/request.hpp</text>
</a>
</g>
</g>
<!-- Node1&#45;&gt;Node2 -->
<g id="edge1_Node000001_Node000002" class="edge">
<title>Node1&#45;&gt;Node2</title>
<g id="a_edge1_Node000001_Node000002"><a xlink:title=" ">
<path fill="none" stroke="#63b8ff" d="M264.76,-108.18C235.92,-98.44 196.91,-85.28 170.84,-76.48"/>
<polygon fill="#63b8ff" stroke="#63b8ff" points="263.29,-111.71 273.88,-111.59 265.52,-105.08 263.29,-111.71"/>
</a>
</g>
</g>
<!-- Node4 -->
<g id="Node000004" class="node">
<title>Node4</title>
<g id="a_Node000004"><a xlink:href="request_8cpp.html" target="_top" xlink:title=" ">
<polygon fill="white" stroke="#666666" points="301.62,-20 179.88,-20 179.88,0 301.62,0 301.62,-20"/>
<text text-anchor="middle" x="240.75" y="-6.5" font-family="Helvetica,sans-Serif" font-size="10.00">src/roar/curl/request.cpp</text>
</a>
</g>
</g>
<!-- Node1&#45;&gt;Node4 -->
<g id="edge10_Node000001_Node000004" class="edge">
<title>Node1&#45;&gt;Node4</title>
<g id="a_edge10_Node000001_Node000004"><a xlink:title=" ">
<path fill="none" stroke="#63b8ff" d="M283.16,-104.42C274.92,-96.55 265.84,-86.56 259.75,-76 249.29,-57.88 244.19,-33.53 242.05,-20.38"/>
<polygon fill="#63b8ff" stroke="#63b8ff" points="280.53,-106.67 290.29,-110.8 285.24,-101.49 280.53,-106.67"/>
</a>
</g>
</g>
<!-- Node5 -->
<g id="Node000005" class="node">
<title>Node5</title>
<g id="a_Node000005"><a xlink:href="file__source_8hpp.html" target="_top" xlink:title=" ">
<polygon fill="white" stroke="#666666" points="460.5,-76 269,-76 269,-56 460.5,-56 460.5,-76"/>
<text text-anchor="middle" x="364.75" y="-62.5" font-family="Helvetica,sans-Serif" font-size="10.00">include/roar/curl/sources/file_source.hpp</text>
</a>
</g>
</g>
<!-- Node1&#45;&gt;Node5 -->
<g id="edge4_Node000001_Node000005" class="edge">
<title>Node1&#45;&gt;Node5</title>
<g id="a_edge4_Node000001_Node000005"><a xlink:title=" ">
<path fill="none" stroke="#63b8ff" d="M321.81,-104.4C332.41,-95.17 345.22,-84.01 354.07,-76.3"/>
<polygon fill="#63b8ff" stroke="#63b8ff" points="319.79,-102.39 314.55,-111.59 324.39,-107.67 319.79,-102.39"/>
</a>
</g>
</g>
<!-- Node7 -->
<g id="Node000007" class="node">
<title>Node7</title>
<g id="a_Node000007"><a xlink:href="string__source_8hpp.html" target="_top" xlink:title=" ">
<polygon fill="white" stroke="#666666" points="681.12,-76 478.38,-76 478.38,-56 681.12,-56 681.12,-76"/>
<text text-anchor="middle" x="579.75" y="-62.5" font-family="Helvetica,sans-Serif" font-size="10.00">include/roar/curl/sources/string_source.hpp</text>
</a>
</g>
</g>
<!-- Node1&#45;&gt;Node7 -->
<g id="edge7_Node000001_Node000007" class="edge">
<title>Node1&#45;&gt;Node7</title>
<g id="a_edge7_Node000001_Node000007"><a xlink:title=" ">
<path fill="none" stroke="#63b8ff" d="M362.07,-109.44C412.54,-99.6 484.13,-85.64 531.24,-76.46"/>
<polygon fill="#63b8ff" stroke="#63b8ff" points="361.46,-106.18 352.32,-111.53 362.8,-113.05 361.46,-106.18"/>
</a>
</g>
</g>
<!-- Node3 -->
<g id="Node000003" class="node">
<title>Node3</title>
<g id="a_Node000003"><a xlink:href="100__continue_2main_8cpp.html" target="_top" xlink:title=" ">
<polygon fill="white" stroke="#666666" points="161.5,-20 0,-20 0,0 161.5,0 161.5,-20"/>
<text text-anchor="middle" x="80.75" y="-6.5" font-family="Helvetica,sans-Serif" font-size="10.00">examples/100_continue/main.cpp</text>
</a>
</g>
</g>
<!-- Node2&#45;&gt;Node3 -->
<g id="edge2_Node000002_Node000003" class="edge">
<title>Node2&#45;&gt;Node3</title>
<g id="a_edge2_Node000002_Node000003"><a xlink:title=" ">
<path fill="none" stroke="#63b8ff" d="M123.69,-48.4C113.09,-39.17 100.28,-28.01 91.43,-20.3"/>
<polygon fill="#63b8ff" stroke="#63b8ff" points="121.11,-51.67 130.95,-55.59 125.71,-46.39 121.11,-51.67"/>
</a>
</g>
</g>
<!-- Node2&#45;&gt;Node4 -->
<g id="edge3_Node000002_Node000004" class="edge">
<title>Node2&#45;&gt;Node4</title>
<g id="a_edge3_Node000002_Node000004"><a xlink:title=" ">
<path fill="none" stroke="#63b8ff" d="M169.34,-50.35C186.59,-40.84 208.56,-28.74 223.55,-20.48"/>
<polygon fill="#63b8ff" stroke="#63b8ff" points="167.89,-47.7 160.82,-55.59 171.27,-53.83 167.89,-47.7"/>
</a>
</g>
</g>
<!-- Node5&#45;&gt;Node4 -->
<g id="edge5_Node000005_Node000004" class="edge">
<title>Node5&#45;&gt;Node4</title>
<g id="a_edge5_Node000005_Node000004"><a xlink:title=" ">
<path fill="none" stroke="#63b8ff" d="M333.23,-51.27C311.11,-41.64 282.1,-29.01 262.52,-20.48"/>
<polygon fill="#63b8ff" stroke="#63b8ff" points="331.59,-54.81 342.15,-55.59 334.38,-48.39 331.59,-54.81"/>
</a>
</g>
</g>
<!-- Node6 -->
<g id="Node000006" class="node">
<title>Node6</title>
<g id="a_Node000006"><a xlink:href="file__source_8cpp.html" target="_top" xlink:title=" ">
<polygon fill="white" stroke="#666666" points="493.88,-20 319.62,-20 319.62,0 493.88,0 493.88,-20"/>
<text text-anchor="middle" x="406.75" y="-6.5" font-family="Helvetica,sans-Serif" font-size="10.00">src/roar/curl/sources/file_source.cpp</text>
</a>
</g>
</g>
<!-- Node5&#45;&gt;Node6 -->
<g id="edge6_Node000005_Node000006" class="edge">
<title>Node5&#45;&gt;Node6</title>
<g id="a_edge6_Node000005_Node000006"><a xlink:title=" ">
<path fill="none" stroke="#63b8ff" d="M378.75,-47C385.7,-38.06 393.82,-27.62 399.52,-20.3"/>
<polygon fill="#63b8ff" stroke="#63b8ff" points="375.44,-44.55 372.07,-54.59 380.97,-48.85 375.44,-44.55"/>
</a>
</g>
</g>
<!-- Node7&#45;&gt;Node4 -->
<g id="edge8_Node000007_Node000004" class="edge">
<title>Node7&#45;&gt;Node4</title>
<g id="a_edge8_Node000007_Node000004"><a xlink:title=" ">
<path fill="none" stroke="#63b8ff" d="M509.47,-53.81C447.6,-43.95 358.49,-29.76 300.12,-20.46"/>
<polygon fill="#63b8ff" stroke="#63b8ff" points="508.89,-57.42 519.31,-55.53 509.99,-50.5 508.89,-57.42"/>
</a>
</g>
</g>
<!-- Node8 -->
<g id="Node000008" class="node">
<title>Node8</title>
<g id="a_Node000008"><a xlink:href="string__source_8cpp.html" target="_top" xlink:title=" ">
<polygon fill="white" stroke="#666666" points="697.5,-20 512,-20 512,0 697.5,0 697.5,-20"/>
<text text-anchor="middle" x="604.75" y="-6.5" font-family="Helvetica,sans-Serif" font-size="10.00">src/roar/curl/sources/string_source.cpp</text>
</a>
</g>
</g>
<!-- Node7&#45;&gt;Node8 -->
<g id="edge9_Node000007_Node000008" class="edge">
<title>Node7&#45;&gt;Node8</title>
<g id="a_edge9_Node000007_Node000008"><a xlink:title=" ">
<path fill="none" stroke="#63b8ff" d="M588.61,-45.87C592.63,-37.19 597.2,-27.32 600.45,-20.3"/>
<polygon fill="#63b8ff" stroke="#63b8ff" points="585.13,-44.05 584.1,-54.59 591.48,-46.99 585.13,-44.05"/>
</a>
</g>
</g>
</g>
</svg>

<g id="navigator" transform="translate(0 0)" fill="#404254">
  <rect fill="#f2f5e9" fill-opacity="0.5" stroke="#606060" stroke-width=".5" x="0" y="0" width="60" height="60"/>
  <use id="zoomplus" xlink:href="#zoomPlus" x="17" y="9" onmousedown="handleZoom(evt,'in')"/>
  <use id="zoomminus" xlink:href="#zoomMin" x="42" y="9" onmousedown="handleZoom(evt,'out')"/>
  <use id="reset" xlink:href="#resetDef" x="30" y="36" onmousedown="handleReset()"/>
   <use id="arrowup" xlink:href="#arrowUp" x="0" y="0" onmousedown="handlePan(0,-1)"/>
  <use id="arrowright" xlink:href="#arrowRight" x="0" y="0" onmousedown="handlePan(1,0)"/>
  <use id="arrowdown" xlink:href="#arrowDown" x="0" y="0" onmousedown="handlePan(0,1)"/>
  <use id="arrowleft" xlink:href="#arrowLeft" x="0" y="0" onmousedown="handlePan(-1,0)"/>
</g>
<svg viewBox="0 0 15 15" width="100%" height="30px" preserveAspectRatio="xMaxYMin meet">
 <g id="arrow_out" transform="scale(0.3 0.3)">
  <a xlink:href="source_8hpp__dep__incl_org.svg" target="_base">
   <rect id="button" ry="5" rx="5" y="6" x="6" height="38" width="38"
        fill="#f2f5e9" fill-opacity="0.5" stroke="#606060" stroke-width="1.0"/>
   <path id="arrow"
     d="M 11.500037,31.436501 C 11.940474,20.09759 22.043105,11.32322 32.158766,21.979434 L 37.068811,17.246167 C 37.068811,17.246167 37.088388,32 37.088388,32 L 22.160133,31.978069 C 22.160133,31.978069 26.997745,27.140456 26.997745,27.140456 C 18.528582,18.264221 13.291696,25.230495 11.500037,31.436501 z"
     style="fill:#404040;"/>
  </a>
 </g>
</svg>

<style type='text/css'>
<![CDATA[
[data-mouse-over-selected='false'] { opacity: 0.7; }
[data-mouse-over-selected='true']  { opacity: 1.0; }
]]>
</style>
<script type="application/ecmascript"><![CDATA[
document.addEventListener('DOMContentLoaded', (event) => {
  highlightEdges();
  highlightAdjacentNodes();
});
]]></script>
</svg>
