<?xml version="1.0" encoding="UTF-8" standalone="no"?>
<!DOCTYPE svg PUBLIC "-//W3C//DTD SVG 1.1//EN"
 "http://www.w3.org/Graphics/SVG/1.1/DTD/svg11.dtd">
<!-- Generated by graphviz version 2.44.1 (20211215.1903)
 -->
<!-- Title: src/roar/filesystem/special_paths.cpp Pages: 1 -->
<svg width="669pt" height="140pt"
 viewBox="0.00 0.00 669.00 140.00" xmlns="http://www.w3.org/2000/svg" xmlns:xlink="http://www.w3.org/1999/xlink">
<g id="graph0" class="graph" transform="scale(1 1) rotate(0) translate(4 136)">
<title>src/roar/filesystem/special_paths.cpp</title>
<!-- Node1 -->
<g id="node1" class="node">
<title>Node1</title>
<g id="a_node1"><a xlink:title=" ">
<polygon fill="#bfbfbf" stroke="black" points="342,-112.5 342,-131.5 521,-131.5 521,-112.5 342,-112.5"/>
<text text-anchor="middle" x="431.5" y="-119.5" font-family="Helvetica,sans-Serif" font-size="10.00">src/roar/filesystem/special_paths.cpp</text>
</a>
</g>
</g>
<!-- Node2 -->
<g id="node2" class="node">
<title>Node2</title>
<g id="a_node2"><a xlink:href="special__paths_8hpp.html" target="_top" xlink:title=" ">
<polygon fill="none" stroke="black" points="0,-56.5 0,-75.5 163,-75.5 163,-56.5 0,-56.5"/>
<text text-anchor="middle" x="81.5" y="-63.5" font-family="Helvetica,sans-Serif" font-size="10.00">roar/filesystem/special_paths.hpp</text>
</a>
</g>
</g>
<!-- Node1&#45;&gt;Node2 -->
<g id="edge1" class="edge">
<title>Node1&#45;&gt;Node2</title>
<path fill="none" stroke="midnightblue" d="M376.04,-112.44C313.83,-102.85 213.02,-87.29 146.99,-77.1"/>
<polygon fill="midnightblue" stroke="midnightblue" points="147.12,-73.58 136.7,-75.52 146.05,-80.5 147.12,-73.58"/>
</g>
<!-- Node4 -->
<g id="node4" class="node">
<title>Node4</title>
<g id="a_node4"><a xlink:title=" ">
<polygon fill="none" stroke="#bfbfbf" points="181,-56.5 181,-75.5 310,-75.5 310,-56.5 181,-56.5"/>
<text text-anchor="middle" x="245.5" y="-63.5" font-family="Helvetica,sans-Serif" font-size="10.00">boost/algorithm/string.hpp</text>
</a>
</g>
</g>
<!-- Node1&#45;&gt;Node4 -->
<g id="edge3" class="edge">
<title>Node1&#45;&gt;Node4</title>
<path fill="none" stroke="midnightblue" d="M402.03,-112.44C370.33,-103.24 319.77,-88.56 284.73,-78.39"/>
<polygon fill="midnightblue" stroke="midnightblue" points="285.41,-74.94 274.83,-75.52 283.46,-81.67 285.41,-74.94"/>
</g>
<!-- Node5 -->
<g id="node5" class="node">
<title>Node5</title>
<g id="a_node5"><a xlink:title=" ">
<polygon fill="none" stroke="#bfbfbf" points="328,-56.5 328,-75.5 379,-75.5 379,-56.5 328,-56.5"/>
<text text-anchor="middle" x="353.5" y="-63.5" font-family="Helvetica,sans-Serif" font-size="10.00">unistd.h</text>
</a>
</g>
</g>
<!-- Node1&#45;&gt;Node5 -->
<g id="edge4" class="edge">
<title>Node1&#45;&gt;Node5</title>
<path fill="none" stroke="midnightblue" d="M418.97,-112.32C406.91,-103.98 388.47,-91.21 374.23,-81.35"/>
<polygon fill="midnightblue" stroke="midnightblue" points="376.22,-78.47 366,-75.65 372.23,-84.22 376.22,-78.47"/>
</g>
<!-- Node6 -->
<g id="node6" class="node">
<title>Node6</title>
<g id="a_node6"><a xlink:title=" ">
<polygon fill="none" stroke="#bfbfbf" points="397.5,-56.5 397.5,-75.5 465.5,-75.5 465.5,-56.5 397.5,-56.5"/>
<text text-anchor="middle" x="431.5" y="-63.5" font-family="Helvetica,sans-Serif" font-size="10.00">sys/types.h</text>
</a>
</g>
</g>
<!-- Node1&#45;&gt;Node6 -->
<g id="edge5" class="edge">
<title>Node1&#45;&gt;Node6</title>
<path fill="none" stroke="midnightblue" d="M431.5,-112.08C431.5,-105.01 431.5,-94.86 431.5,-85.99"/>
<polygon fill="midnightblue" stroke="midnightblue" points="435,-85.75 431.5,-75.75 428,-85.75 435,-85.75"/>
</g>
<!-- Node7 -->
<g id="node7" class="node">
<title>Node7</title>
<g id="a_node7"><a xlink:title=" ">
<polygon fill="none" stroke="#bfbfbf" points="484,-56.5 484,-75.5 527,-75.5 527,-56.5 484,-56.5"/>
<text text-anchor="middle" x="505.5" y="-63.5" font-family="Helvetica,sans-Serif" font-size="10.00">pwd.h</text>
</a>
</g>
</g>
<!-- Node1&#45;&gt;Node7 -->
<g id="edge6" class="edge">
<title>Node1&#45;&gt;Node7</title>
<path fill="none" stroke="midnightblue" d="M443.39,-112.32C454.65,-104.11 471.79,-91.6 485.21,-81.81"/>
<polygon fill="midnightblue" stroke="midnightblue" points="487.38,-84.56 493.39,-75.83 483.25,-78.9 487.38,-84.56"/>
</g>
<!-- Node8 -->
<g id="node8" class="node">
<title>Node8</title>
<g id="a_node8"><a xlink:title=" ">
<polygon fill="none" stroke="#bfbfbf" points="545,-56.5 545,-75.5 596,-75.5 596,-56.5 545,-56.5"/>
<text text-anchor="middle" x="570.5" y="-63.5" font-family="Helvetica,sans-Serif" font-size="10.00">numeric</text>
</a>
</g>
</g>
<!-- Node1&#45;&gt;Node8 -->
<g id="edge7" class="edge">
<title>Node1&#45;&gt;Node8</title>
<path fill="none" stroke="midnightblue" d="M453.52,-112.44C476.6,-103.48 513.06,-89.31 539.14,-79.18"/>
<polygon fill="midnightblue" stroke="midnightblue" points="540.52,-82.4 548.58,-75.52 537.99,-75.88 540.52,-82.4"/>
</g>
<!-- Node9 -->
<g id="node9" class="node">
<title>Node9</title>
<g id="a_node9"><a xlink:title=" ">
<polygon fill="none" stroke="#bfbfbf" points="614,-56.5 614,-75.5 661,-75.5 661,-56.5 614,-56.5"/>
<text text-anchor="middle" x="637.5" y="-63.5" font-family="Helvetica,sans-Serif" font-size="10.00">iterator</text>
</a>
</g>
</g>
<!-- Node1&#45;&gt;Node9 -->
<g id="edge8" class="edge">
<title>Node1&#45;&gt;Node9</title>
<path fill="none" stroke="midnightblue" d="M465.24,-112.5C498.35,-104.11 550.52,-90.75 604.09,-76.35"/>
<polygon fill="midnightblue" stroke="midnightblue" points="605.01,-79.72 613.75,-73.74 603.18,-72.96 605.01,-79.72"/>
</g>
<!-- Node3 -->
<g id="node3" class="node">
<title>Node3</title>
<g id="a_node3"><a xlink:title=" ">
<polygon fill="none" stroke="#bfbfbf" points="50.5,-0.5 50.5,-19.5 112.5,-19.5 112.5,-0.5 50.5,-0.5"/>
<text text-anchor="middle" x="81.5" y="-7.5" font-family="Helvetica,sans-Serif" font-size="10.00">filesystem</text>
</a>
</g>
</g>
<!-- Node2&#45;&gt;Node3 -->
<g id="edge2" class="edge">
<title>Node2&#45;&gt;Node3</title>
<path fill="none" stroke="midnightblue" d="M81.5,-56.08C81.5,-49.01 81.5,-38.86 81.5,-29.99"/>
<polygon fill="midnightblue" stroke="midnightblue" points="85,-29.75 81.5,-19.75 78,-29.75 85,-29.75"/>
</g>
</g>
</svg>
