<?xml version="1.0" encoding="UTF-8" standalone="no"?>
<!DOCTYPE svg PUBLIC "-//W3C//DTD SVG 1.1//EN"
 "http://www.w3.org/Graphics/SVG/1.1/DTD/svg11.dtd">
<!-- Generated by graphviz version 8.1.0 (0)
 -->
<!-- Title: src/roar/filesystem/special_paths.cpp Pages: 1 -->
<svg width="663pt" height="140pt"
 viewBox="0.00 0.00 663.12 140.00" xmlns="http://www.w3.org/2000/svg" xmlns:xlink="http://www.w3.org/1999/xlink">
<g id="graph0" class="graph" transform="scale(1 1) rotate(0) translate(4 136)">
<title>src/roar/filesystem/special_paths.cpp</title>
<!-- Node1 -->
<g id="Node000001" class="node">
<title>Node1</title>
<g id="a_Node000001"><a xlink:title=" ">
<polygon fill="#999999" stroke="#666666" points="518.5,-132 339.75,-132 339.75,-112 518.5,-112 518.5,-132"/>
<text text-anchor="middle" x="429.12" y="-118.5" font-family="Helvetica,sans-Serif" font-size="10.00">src/roar/filesystem/special_paths.cpp</text>
</a>
</g>
</g>
<!-- Node2 -->
<g id="Node000002" class="node">
<title>Node2</title>
<g id="a_Node000002"><a xlink:href="special__paths_8hpp.html" target="_top" xlink:title=" ">
<polygon fill="white" stroke="#666666" points="162.25,-76 0,-76 0,-56 162.25,-56 162.25,-76"/>
<text text-anchor="middle" x="81.12" y="-62.5" font-family="Helvetica,sans-Serif" font-size="10.00">roar/filesystem/special_paths.hpp</text>
</a>
</g>
</g>
<!-- Node1&#45;&gt;Node2 -->
<g id="edge1_Node000001_Node000002" class="edge">
<title>Node1&#45;&gt;Node2</title>
<g id="a_edge1_Node000001_Node000002"><a xlink:title=" ">
<path fill="none" stroke="#63b8ff" d="M368.11,-111.53C308.04,-102.21 216.31,-87.98 152.8,-78.12"/>
<polygon fill="#63b8ff" stroke="#63b8ff" points="153.49,-74.53 143.07,-76.46 152.42,-81.45 153.49,-74.53"/>
</a>
</g>
</g>
<!-- Node4 -->
<g id="Node000004" class="node">
<title>Node4</title>
<g id="a_Node000004"><a xlink:title=" ">
<polygon fill="#e0e0e0" stroke="#999999" points="308.38,-76 179.88,-76 179.88,-56 308.38,-56 308.38,-76"/>
<text text-anchor="middle" x="244.12" y="-62.5" font-family="Helvetica,sans-Serif" font-size="10.00">boost/algorithm/string.hpp</text>
</a>
</g>
</g>
<!-- Node1&#45;&gt;Node4 -->
<g id="edge3_Node000001_Node000004" class="edge">
<title>Node1&#45;&gt;Node4</title>
<g id="a_edge3_Node000001_Node000004"><a xlink:title=" ">
<path fill="none" stroke="#63b8ff" d="M396.9,-111.59C366.45,-102.71 320.56,-89.31 287.02,-79.52"/>
<polygon fill="#63b8ff" stroke="#63b8ff" points="288.18,-75.92 277.6,-76.48 286.22,-82.64 288.18,-75.92"/>
</a>
</g>
</g>
<!-- Node5 -->
<g id="Node000005" class="node">
<title>Node5</title>
<g id="a_Node000005"><a xlink:title=" ">
<polygon fill="#e0e0e0" stroke="#999999" points="377.38,-76 326.88,-76 326.88,-56 377.38,-56 377.38,-76"/>
<text text-anchor="middle" x="352.12" y="-62.5" font-family="Helvetica,sans-Serif" font-size="10.00">unistd.h</text>
</a>
</g>
</g>
<!-- Node1&#45;&gt;Node5 -->
<g id="edge4_Node000001_Node000005" class="edge">
<title>Node1&#45;&gt;Node5</title>
<g id="a_edge4_Node000001_Node000005"><a xlink:title=" ">
<path fill="none" stroke="#63b8ff" d="M415.71,-111.59C404.3,-103.59 387.68,-91.93 374.29,-82.54"/>
<polygon fill="#63b8ff" stroke="#63b8ff" points="376.84,-79.36 366.64,-76.48 372.82,-85.09 376.84,-79.36"/>
</a>
</g>
</g>
<!-- Node6 -->
<g id="Node000006" class="node">
<title>Node6</title>
<g id="a_Node000006"><a xlink:title=" ">
<polygon fill="#e0e0e0" stroke="#999999" points="462.62,-76 395.62,-76 395.62,-56 462.62,-56 462.62,-76"/>
<text text-anchor="middle" x="429.12" y="-62.5" font-family="Helvetica,sans-Serif" font-size="10.00">sys/types.h</text>
</a>
</g>
</g>
<!-- Node1&#45;&gt;Node6 -->
<g id="edge5_Node000001_Node000006" class="edge">
<title>Node1&#45;&gt;Node6</title>
<g id="a_edge5_Node000001_Node000006"><a xlink:title=" ">
<path fill="none" stroke="#63b8ff" d="M429.12,-111.59C429.12,-104.86 429.12,-95.53 429.12,-87.15"/>
<polygon fill="#63b8ff" stroke="#63b8ff" points="432.63,-87.3 429.12,-77.3 425.63,-87.3 432.63,-87.3"/>
</a>
</g>
</g>
<!-- Node7 -->
<g id="Node000007" class="node">
<title>Node7</title>
<g id="a_Node000007"><a xlink:title=" ">
<polygon fill="#e0e0e0" stroke="#999999" points="523.25,-76 481,-76 481,-56 523.25,-56 523.25,-76"/>
<text text-anchor="middle" x="502.12" y="-62.5" font-family="Helvetica,sans-Serif" font-size="10.00">pwd.h</text>
</a>
</g>
</g>
<!-- Node1&#45;&gt;Node7 -->
<g id="edge6_Node000001_Node000007" class="edge">
<title>Node1&#45;&gt;Node7</title>
<g id="a_edge6_Node000001_Node000007"><a xlink:title=" ">
<path fill="none" stroke="#63b8ff" d="M441.84,-111.59C452.62,-103.62 468.31,-92.02 480.98,-82.64"/>
<polygon fill="#63b8ff" stroke="#63b8ff" points="482.6,-85.06 488.56,-76.3 478.43,-79.43 482.6,-85.06"/>
</a>
</g>
</g>
<!-- Node8 -->
<g id="Node000008" class="node">
<title>Node8</title>
<g id="a_Node000008"><a xlink:title=" ">
<polygon fill="#e0e0e0" stroke="#999999" points="591.38,-76 540.88,-76 540.88,-56 591.38,-56 591.38,-76"/>
<text text-anchor="middle" x="566.12" y="-62.5" font-family="Helvetica,sans-Serif" font-size="10.00">numeric</text>
</a>
</g>
</g>
<!-- Node1&#45;&gt;Node8 -->
<g id="edge7_Node000001_Node000008" class="edge">
<title>Node1&#45;&gt;Node8</title>
<g id="a_edge7_Node000001_Node000008"><a xlink:title=" ">
<path fill="none" stroke="#63b8ff" d="M452.99,-111.59C474.86,-102.97 507.47,-90.12 532.08,-80.42"/>
<polygon fill="#63b8ff" stroke="#63b8ff" points="533.06,-83.4 541.08,-76.48 530.49,-76.89 533.06,-83.4"/>
</a>
</g>
</g>
<!-- Node9 -->
<g id="Node000009" class="node">
<title>Node9</title>
<g id="a_Node000009"><a xlink:title=" ">
<polygon fill="#e0e0e0" stroke="#999999" points="655.12,-76 609.12,-76 609.12,-56 655.12,-56 655.12,-76"/>
<text text-anchor="middle" x="632.12" y="-62.5" font-family="Helvetica,sans-Serif" font-size="10.00">iterator</text>
</a>
</g>
</g>
<!-- Node1&#45;&gt;Node9 -->
<g id="edge8_Node000001_Node000009" class="edge">
<title>Node1&#45;&gt;Node9</title>
<g id="a_edge8_Node000001_Node000009"><a xlink:title=" ">
<path fill="none" stroke="#63b8ff" d="M465.87,-111.52C498.29,-103.12 547.11,-90.36 598.14,-76.51"/>
<polygon fill="#63b8ff" stroke="#63b8ff" points="598.99,-79.63 607.72,-73.63 597.15,-72.88 598.99,-79.63"/>
</a>
</g>
</g>
<!-- Node3 -->
<g id="Node000003" class="node">
<title>Node3</title>
<g id="a_Node000003"><a xlink:title=" ">
<polygon fill="#e0e0e0" stroke="#999999" points="111.62,-20 50.62,-20 50.62,0 111.62,0 111.62,-20"/>
<text text-anchor="middle" x="81.12" y="-6.5" font-family="Helvetica,sans-Serif" font-size="10.00">filesystem</text>
</a>
</g>
</g>
<!-- Node2&#45;&gt;Node3 -->
<g id="edge2_Node000002_Node000003" class="edge">
<title>Node2&#45;&gt;Node3</title>
<g id="a_edge2_Node000002_Node000003"><a xlink:title=" ">
<path fill="none" stroke="#63b8ff" d="M81.12,-55.59C81.12,-48.86 81.12,-39.53 81.12,-31.15"/>
<polygon fill="#63b8ff" stroke="#63b8ff" points="84.63,-31.3 81.12,-21.3 77.63,-31.3 84.63,-31.3"/>
</a>
</g>
</g>
</g>
</svg>
