<?xml version="1.0" encoding="UTF-8" standalone="no"?>
<!DOCTYPE svg PUBLIC "-//W3C//DTD SVG 1.1//EN"
 "http://www.w3.org/Graphics/SVG/1.1/DTD/svg11.dtd">
<!-- Generated by graphviz version 2.44.1 (20211215.1903)
 -->
<!-- Title: include/roar/standard_response_provider.hpp Pages: 1 -->
<svg width="1839pt" height="308pt"
 viewBox="0.00 0.00 1838.81 308.00" xmlns="http://www.w3.org/2000/svg" xmlns:xlink="http://www.w3.org/1999/xlink">
<g id="graph0" class="graph" transform="scale(1 1) rotate(0) translate(4 304)">
<title>include/roar/standard_response_provider.hpp</title>
<!-- Node1 -->
<g id="node1" class="node">
<title>Node1</title>
<g id="a_node1"><a xlink:title=" ">
<polygon fill="#bfbfbf" stroke="black" points="930.31,-280.5 930.31,-299.5 1141.31,-299.5 1141.31,-280.5 930.31,-280.5"/>
<text text-anchor="middle" x="1035.81" y="-287.5" font-family="Helvetica,sans-Serif" font-size="10.00">include/roar/standard_response_provider.hpp</text>
</a>
</g>
</g>
<!-- Node2 -->
<g id="node2" class="node">
<title>Node2</title>
<g id="a_node2"><a xlink:href="route_8hpp.html" target="_top" xlink:title=" ">
<polygon fill="none" stroke="black" points="311.31,-224.5 311.31,-243.5 454.31,-243.5 454.31,-224.5 311.31,-224.5"/>
<text text-anchor="middle" x="382.81" y="-231.5" font-family="Helvetica,sans-Serif" font-size="10.00">include/roar/routing/route.hpp</text>
</a>
</g>
</g>
<!-- Node1&#45;&gt;Node2 -->
<g id="edge1" class="edge">
<title>Node1&#45;&gt;Node2</title>
<path fill="none" stroke="midnightblue" d="M922.37,-279.62C787.82,-268.49 567.6,-250.28 454.62,-240.94"/>
<polygon fill="midnightblue" stroke="midnightblue" points="922.45,-283.14 932.7,-280.47 923.03,-276.16 922.45,-283.14"/>
</g>
<!-- Node5 -->
<g id="node5" class="node">
<title>Node5</title>
<g id="a_node5"><a xlink:href="router_8hpp.html" target="_top" xlink:title=" ">
<polygon fill="none" stroke="black" points="79.81,-224.5 79.81,-243.5 225.81,-243.5 225.81,-224.5 79.81,-224.5"/>
<text text-anchor="middle" x="152.81" y="-231.5" font-family="Helvetica,sans-Serif" font-size="10.00">include/roar/routing/router.hpp</text>
</a>
</g>
</g>
<!-- Node1&#45;&gt;Node5 -->
<g id="edge4" class="edge">
<title>Node1&#45;&gt;Node5</title>
<path fill="none" stroke="midnightblue" d="M920.16,-281.93C735.5,-270.63 379.27,-248.85 225.93,-239.47"/>
<polygon fill="midnightblue" stroke="midnightblue" points="919.98,-285.42 930.18,-282.54 920.41,-278.44 919.98,-285.42"/>
</g>
<!-- Node8 -->
<g id="node8" class="node">
<title>Node8</title>
<g id="a_node8"><a xlink:href="server_8hpp.html" target="_top" xlink:title=" ">
<polygon fill="none" stroke="black" points="1244.81,-56.5 1244.81,-75.5 1360.81,-75.5 1360.81,-56.5 1244.81,-56.5"/>
<text text-anchor="middle" x="1302.81" y="-63.5" font-family="Helvetica,sans-Serif" font-size="10.00">include/roar/server.hpp</text>
</a>
</g>
</g>
<!-- Node1&#45;&gt;Node8 -->
<g id="edge8" class="edge">
<title>Node1&#45;&gt;Node8</title>
<path fill="none" stroke="midnightblue" d="M1151.7,-284.73C1280.57,-278.9 1474.13,-266.51 1499.81,-244 1544.34,-204.97 1528.74,-148.1 1481.81,-112 1447.27,-85.43 1398.91,-74.39 1361.16,-69.88"/>
<polygon fill="midnightblue" stroke="midnightblue" points="1151.21,-281.25 1141.37,-285.19 1151.52,-288.24 1151.21,-281.25"/>
</g>
<!-- Node15 -->
<g id="node15" class="node">
<title>Node15</title>
<g id="a_node15"><a xlink:href="factory_8hpp.html" target="_top" xlink:title=" ">
<polygon fill="none" stroke="black" points="1046.31,-224.5 1046.31,-243.5 1201.31,-243.5 1201.31,-224.5 1046.31,-224.5"/>
<text text-anchor="middle" x="1123.81" y="-231.5" font-family="Helvetica,sans-Serif" font-size="10.00">include/roar/session/factory.hpp</text>
</a>
</g>
</g>
<!-- Node1&#45;&gt;Node15 -->
<g id="edge16" class="edge">
<title>Node1&#45;&gt;Node15</title>
<path fill="none" stroke="midnightblue" d="M1058.79,-274.9C1074.93,-265 1095.99,-252.07 1109.71,-243.65"/>
<polygon fill="midnightblue" stroke="midnightblue" points="1056.64,-272.11 1049.95,-280.32 1060.31,-278.08 1056.64,-272.11"/>
</g>
<!-- Node17 -->
<g id="node17" class="node">
<title>Node17</title>
<g id="a_node17"><a xlink:href="session_8hpp.html" target="_top" xlink:title=" ">
<polygon fill="none" stroke="black" points="869.31,-224.5 869.31,-243.5 1028.31,-243.5 1028.31,-224.5 869.31,-224.5"/>
<text text-anchor="middle" x="948.81" y="-231.5" font-family="Helvetica,sans-Serif" font-size="10.00">include/roar/session/session.hpp</text>
</a>
</g>
</g>
<!-- Node1&#45;&gt;Node17 -->
<g id="edge19" class="edge">
<title>Node1&#45;&gt;Node17</title>
<path fill="none" stroke="midnightblue" d="M1013.1,-274.9C997.14,-265 976.32,-252.07 962.76,-243.65"/>
<polygon fill="midnightblue" stroke="midnightblue" points="1011.49,-278.02 1021.83,-280.32 1015.18,-272.08 1011.49,-278.02"/>
</g>
<!-- Node28 -->
<g id="node28" class="node">
<title>Node28</title>
<g id="a_node28"><a xlink:href="standard__text__response__provider_8hpp.html" target="_top" xlink:title=" ">
<polygon fill="none" stroke="black" points="1257.31,-224.5 1257.31,-243.5 1490.31,-243.5 1490.31,-224.5 1257.31,-224.5"/>
<text text-anchor="middle" x="1373.81" y="-231.5" font-family="Helvetica,sans-Serif" font-size="10.00">include/roar/standard_text_response_provider.hpp</text>
</a>
</g>
</g>
<!-- Node1&#45;&gt;Node28 -->
<g id="edge48" class="edge">
<title>Node1&#45;&gt;Node28</title>
<path fill="none" stroke="midnightblue" d="M1099.32,-278.85C1163.18,-268.65 1260.53,-253.1 1320.51,-243.52"/>
<polygon fill="midnightblue" stroke="midnightblue" points="1098.69,-275.41 1089.37,-280.44 1099.8,-282.32 1098.69,-275.41"/>
</g>
<!-- Node3 -->
<g id="node3" class="node">
<title>Node3</title>
<g id="a_node3"><a xlink:href="route_8cpp.html" target="_top" xlink:title=" ">
<polygon fill="none" stroke="black" points="320.31,-168.5 320.31,-187.5 445.31,-187.5 445.31,-168.5 320.31,-168.5"/>
<text text-anchor="middle" x="382.81" y="-175.5" font-family="Helvetica,sans-Serif" font-size="10.00">src/roar/routing/route.cpp</text>
</a>
</g>
</g>
<!-- Node2&#45;&gt;Node3 -->
<g id="edge2" class="edge">
<title>Node2&#45;&gt;Node3</title>
<path fill="none" stroke="midnightblue" d="M382.81,-213.8C382.81,-204.91 382.81,-194.78 382.81,-187.75"/>
<polygon fill="midnightblue" stroke="midnightblue" points="379.31,-214.08 382.81,-224.08 386.31,-214.08 379.31,-214.08"/>
</g>
<!-- Node4 -->
<g id="node4" class="node">
<title>Node4</title>
<g id="a_node4"><a xlink:href="router_8cpp.html" target="_top" xlink:title=" ">
<polygon fill="none" stroke="black" points="173.81,-168.5 173.81,-187.5 301.81,-187.5 301.81,-168.5 173.81,-168.5"/>
<text text-anchor="middle" x="237.81" y="-175.5" font-family="Helvetica,sans-Serif" font-size="10.00">src/roar/routing/router.cpp</text>
</a>
</g>
</g>
<!-- Node2&#45;&gt;Node4 -->
<g id="edge3" class="edge">
<title>Node2&#45;&gt;Node4</title>
<path fill="none" stroke="midnightblue" d="M350.34,-220.91C323.08,-210.75 284.82,-196.51 260.68,-187.52"/>
<polygon fill="midnightblue" stroke="midnightblue" points="349.24,-224.23 359.84,-224.44 351.69,-217.67 349.24,-224.23"/>
</g>
<!-- Node5&#45;&gt;Node4 -->
<g id="edge5" class="edge">
<title>Node5&#45;&gt;Node4</title>
<path fill="none" stroke="midnightblue" d="M175.01,-218.9C190.59,-209 210.94,-196.07 224.19,-187.65"/>
<polygon fill="midnightblue" stroke="midnightblue" points="173.03,-216.01 166.47,-224.32 176.79,-221.92 173.03,-216.01"/>
</g>
<!-- Node6 -->
<g id="node6" class="node">
<title>Node6</title>
<g id="a_node6"><a xlink:href="server_8cpp.html" target="_top" xlink:title=" ">
<polygon fill="none" stroke="black" points="218.81,-0.5 218.81,-19.5 316.81,-19.5 316.81,-0.5 218.81,-0.5"/>
<text text-anchor="middle" x="267.81" y="-7.5" font-family="Helvetica,sans-Serif" font-size="10.00">src/roar/server.cpp</text>
</a>
</g>
</g>
<!-- Node5&#45;&gt;Node6 -->
<g id="edge6" class="edge">
<title>Node5&#45;&gt;Node6</title>
<path fill="none" stroke="midnightblue" d="M69.61,-224.74C26.57,-216.54 -13.5,-200.26 4.81,-168 54.56,-80.37 174.77,-36.44 233.86,-19.54"/>
<polygon fill="midnightblue" stroke="midnightblue" points="69.24,-228.22 79.69,-226.51 70.45,-221.33 69.24,-228.22"/>
</g>
<!-- Node7 -->
<g id="node7" class="node">
<title>Node7</title>
<g id="a_node7"><a xlink:href="session_8cpp.html" target="_top" xlink:title=" ">
<polygon fill="none" stroke="black" points="13.81,-168.5 13.81,-187.5 155.81,-187.5 155.81,-168.5 13.81,-168.5"/>
<text text-anchor="middle" x="84.81" y="-175.5" font-family="Helvetica,sans-Serif" font-size="10.00">src/roar/session/session.cpp</text>
</a>
</g>
</g>
<!-- Node5&#45;&gt;Node7 -->
<g id="edge7" class="edge">
<title>Node5&#45;&gt;Node7</title>
<path fill="none" stroke="midnightblue" d="M134.05,-218.1C121.81,-208.38 106.25,-196.03 95.94,-187.83"/>
<polygon fill="midnightblue" stroke="midnightblue" points="131.88,-220.85 141.89,-224.32 136.23,-215.36 131.88,-220.85"/>
</g>
<!-- Node8&#45;&gt;Node6 -->
<g id="edge15" class="edge">
<title>Node8&#45;&gt;Node6</title>
<path fill="none" stroke="midnightblue" d="M1234.47,-61.43C1039.75,-51.28 485.3,-22.35 316.91,-13.56"/>
<polygon fill="midnightblue" stroke="midnightblue" points="1234.41,-64.94 1244.58,-61.96 1234.77,-57.95 1234.41,-64.94"/>
</g>
<!-- Node9 -->
<g id="node9" class="node">
<title>Node9</title>
<g id="a_node9"><a xlink:href="100__continue_2main_8cpp.html" target="_top" xlink:title=" ">
<polygon fill="none" stroke="black" points="797.81,-0.5 797.81,-19.5 959.81,-19.5 959.81,-0.5 797.81,-0.5"/>
<text text-anchor="middle" x="878.81" y="-7.5" font-family="Helvetica,sans-Serif" font-size="10.00">examples/100_continue/main.cpp</text>
</a>
</g>
</g>
<!-- Node8&#45;&gt;Node9 -->
<g id="edge9" class="edge">
<title>Node8&#45;&gt;Node9</title>
<path fill="none" stroke="midnightblue" d="M1234.35,-56.28C1154.8,-46.15 1024.42,-29.54 945.59,-19.51"/>
<polygon fill="midnightblue" stroke="midnightblue" points="1234.38,-59.81 1244.75,-57.6 1235.27,-52.87 1234.38,-59.81"/>
</g>
<!-- Node10 -->
<g id="node10" class="node">
<title>Node10</title>
<g id="a_node10"><a xlink:href="most__minimal_2main_8cpp.html" target="_top" xlink:title=" ">
<polygon fill="none" stroke="black" points="1239.31,-0.5 1239.31,-19.5 1404.31,-19.5 1404.31,-0.5 1239.31,-0.5"/>
<text text-anchor="middle" x="1321.81" y="-7.5" font-family="Helvetica,sans-Serif" font-size="10.00">examples/most_minimal/main.cpp</text>
</a>
</g>
</g>
<!-- Node8&#45;&gt;Node10 -->
<g id="edge10" class="edge">
<title>Node8&#45;&gt;Node10</title>
<path fill="none" stroke="midnightblue" d="M1309.36,-46.4C1312.54,-37.36 1316.21,-26.94 1318.73,-19.75"/>
<polygon fill="midnightblue" stroke="midnightblue" points="1305.97,-45.49 1305.95,-56.08 1312.57,-47.81 1305.97,-45.49"/>
</g>
<!-- Node11 -->
<g id="node11" class="node">
<title>Node11</title>
<g id="a_node11"><a xlink:href="serve__directory_2main_8cpp.html" target="_top" xlink:title=" ">
<polygon fill="none" stroke="black" points="489.31,-0.5 489.31,-19.5 660.31,-19.5 660.31,-0.5 489.31,-0.5"/>
<text text-anchor="middle" x="574.81" y="-7.5" font-family="Helvetica,sans-Serif" font-size="10.00">examples/serve_directory/main.cpp</text>
</a>
</g>
</g>
<!-- Node8&#45;&gt;Node11 -->
<g id="edge11" class="edge">
<title>Node8&#45;&gt;Node11</title>
<path fill="none" stroke="midnightblue" d="M1234.7,-59.95C1101.48,-50.07 806.73,-28.2 660.51,-17.36"/>
<polygon fill="midnightblue" stroke="midnightblue" points="1234.54,-63.45 1244.77,-60.69 1235.06,-56.46 1234.54,-63.45"/>
</g>
<!-- Node12 -->
<g id="node12" class="node">
<title>Node12</title>
<g id="a_node12"><a xlink:href="simple__server_2main_8cpp.html" target="_top" xlink:title=" ">
<polygon fill="none" stroke="black" points="1056.31,-0.5 1056.31,-19.5 1221.31,-19.5 1221.31,-0.5 1056.31,-0.5"/>
<text text-anchor="middle" x="1138.81" y="-7.5" font-family="Helvetica,sans-Serif" font-size="10.00">examples/simple_server/main.cpp</text>
</a>
</g>
</g>
<!-- Node8&#45;&gt;Node12 -->
<g id="edge12" class="edge">
<title>Node8&#45;&gt;Node12</title>
<path fill="none" stroke="midnightblue" d="M1267.29,-53.3C1236.39,-43.13 1192.34,-28.62 1164.68,-19.52"/>
<polygon fill="midnightblue" stroke="midnightblue" points="1266.23,-56.64 1276.83,-56.44 1268.42,-49.99 1266.23,-56.64"/>
</g>
<!-- Node13 -->
<g id="node13" class="node">
<title>Node13</title>
<g id="a_node13"><a xlink:href="websocket_2main_8cpp.html" target="_top" xlink:title=" ">
<polygon fill="none" stroke="black" points="1678.81,-0.5 1678.81,-19.5 1830.81,-19.5 1830.81,-0.5 1678.81,-0.5"/>
<text text-anchor="middle" x="1754.81" y="-7.5" font-family="Helvetica,sans-Serif" font-size="10.00">examples/websocket/main.cpp</text>
</a>
</g>
</g>
<!-- Node8&#45;&gt;Node13 -->
<g id="edge13" class="edge">
<title>Node8&#45;&gt;Node13</title>
<path fill="none" stroke="midnightblue" d="M1370.95,-56.86C1455.17,-46.8 1597.81,-29.76 1683.48,-19.52"/>
<polygon fill="midnightblue" stroke="midnightblue" points="1370.49,-53.39 1360.98,-58.05 1371.32,-60.34 1370.49,-53.39"/>
</g>
<!-- Node14 -->
<g id="node14" class="node">
<title>Node14</title>
<g id="a_node14"><a xlink:href="src_2roar_2routing_2request__listener_8cpp.html" target="_top" xlink:title=" ">
<polygon fill="none" stroke="black" points="1422.31,-0.5 1422.31,-19.5 1595.31,-19.5 1595.31,-0.5 1422.31,-0.5"/>
<text text-anchor="middle" x="1508.81" y="-7.5" font-family="Helvetica,sans-Serif" font-size="10.00">src/roar/routing/request_listener.cpp</text>
</a>
</g>
</g>
<!-- Node8&#45;&gt;Node14 -->
<g id="edge14" class="edge">
<title>Node8&#45;&gt;Node14</title>
<path fill="none" stroke="midnightblue" d="M1345.43,-53.83C1384.32,-43.63 1440.98,-28.78 1476.32,-19.52"/>
<polygon fill="midnightblue" stroke="midnightblue" points="1344.24,-50.52 1335.45,-56.44 1346.01,-57.29 1344.24,-50.52"/>
</g>
<!-- Node15&#45;&gt;Node6 -->
<g id="edge17" class="edge">
<title>Node15&#45;&gt;Node6</title>
<path fill="none" stroke="midnightblue" d="M1036.06,-223.59C838.37,-202.12 373.07,-150 343.81,-132 300.08,-105.09 277.38,-42.58 270.29,-19.64"/>
<polygon fill="midnightblue" stroke="midnightblue" points="1035.81,-227.08 1046.13,-224.68 1036.56,-220.12 1035.81,-227.08"/>
</g>
<!-- Node16 -->
<g id="node16" class="node">
<title>Node16</title>
<g id="a_node16"><a xlink:href="factory_8cpp.html" target="_top" xlink:title=" ">
<polygon fill="none" stroke="black" points="1352.31,-168.5 1352.31,-187.5 1489.31,-187.5 1489.31,-168.5 1352.31,-168.5"/>
<text text-anchor="middle" x="1420.81" y="-175.5" font-family="Helvetica,sans-Serif" font-size="10.00">src/roar/session/factory.cpp</text>
</a>
</g>
</g>
<!-- Node15&#45;&gt;Node16 -->
<g id="edge18" class="edge">
<title>Node15&#45;&gt;Node16</title>
<path fill="none" stroke="midnightblue" d="M1181.01,-222.6C1237.14,-212.4 1321.71,-197.02 1373.97,-187.52"/>
<polygon fill="midnightblue" stroke="midnightblue" points="1180.09,-219.21 1170.87,-224.44 1181.34,-226.1 1180.09,-219.21"/>
</g>
<!-- Node17&#45;&gt;Node3 -->
<g id="edge43" class="edge">
<title>Node17&#45;&gt;Node3</title>
<path fill="none" stroke="midnightblue" d="M858.96,-225.4C760.82,-216.94 599.03,-202.54 459.81,-188 455.13,-187.51 450.28,-186.99 445.41,-186.45"/>
<polygon fill="midnightblue" stroke="midnightblue" points="858.87,-228.9 869.14,-226.27 859.47,-221.93 858.87,-228.9"/>
</g>
<!-- Node17&#45;&gt;Node4 -->
<g id="edge44" class="edge">
<title>Node17&#45;&gt;Node4</title>
<path fill="none" stroke="midnightblue" d="M859.1,-228.09C735.68,-221.02 506.64,-206.72 311.81,-188 308.59,-187.69 305.29,-187.36 301.97,-187"/>
<polygon fill="midnightblue" stroke="midnightblue" points="859.08,-231.6 869.26,-228.67 859.47,-224.61 859.08,-231.6"/>
</g>
<!-- Node17&#45;&gt;Node6 -->
<g id="edge45" class="edge">
<title>Node17&#45;&gt;Node6</title>
<path fill="none" stroke="midnightblue" d="M859.01,-232.84C766.82,-230.64 619.97,-221.47 497.81,-188 477.48,-182.43 474.78,-174.76 454.81,-168 384.54,-144.21 347.07,-181.5 291.81,-132 258.95,-102.56 263.44,-42.15 266.44,-19.68"/>
<polygon fill="midnightblue" stroke="midnightblue" points="859.07,-236.34 869.14,-233.05 859.22,-229.34 859.07,-236.34"/>
</g>
<!-- Node17&#45;&gt;Node7 -->
<g id="edge47" class="edge">
<title>Node17&#45;&gt;Node7</title>
<path fill="none" stroke="midnightblue" d="M858.9,-229.44C713.05,-223.31 415.88,-209.31 164.81,-188 161.89,-187.75 158.91,-187.48 155.89,-187.2"/>
<polygon fill="midnightblue" stroke="midnightblue" points="859,-232.95 869.14,-229.87 859.3,-225.95 859,-232.95"/>
</g>
<!-- Node17&#45;&gt;Node8 -->
<g id="edge42" class="edge">
<title>Node17&#45;&gt;Node8</title>
<path fill="none" stroke="midnightblue" d="M1019.05,-223.04C1144.85,-204.49 1397.87,-163.65 1422.81,-132 1445.84,-102.78 1395.49,-84.96 1353.1,-75.54"/>
<polygon fill="midnightblue" stroke="midnightblue" points="1018.5,-219.58 1009.12,-224.5 1019.52,-226.51 1018.5,-219.58"/>
</g>
<!-- Node17&#45;&gt;Node16 -->
<g id="edge46" class="edge">
<title>Node17&#45;&gt;Node16</title>
<path fill="none" stroke="midnightblue" d="M1033.36,-223.33C1124.43,-212.91 1267.61,-196.53 1352.04,-186.87"/>
<polygon fill="midnightblue" stroke="midnightblue" points="1032.88,-219.86 1023.34,-224.47 1033.68,-226.81 1032.88,-219.86"/>
</g>
<!-- Node18 -->
<g id="node18" class="node">
<title>Node18</title>
<g id="a_node18"><a xlink:href="directory__server_8hpp.html" target="_top" xlink:title=" ">
<polygon fill="none" stroke="black" points="1182.31,-112.5 1182.31,-131.5 1413.31,-131.5 1413.31,-112.5 1182.31,-112.5"/>
<text text-anchor="middle" x="1297.81" y="-119.5" font-family="Helvetica,sans-Serif" font-size="10.00">include/roar/directory_server/directory_server.hpp</text>
</a>
</g>
</g>
<!-- Node17&#45;&gt;Node18 -->
<g id="edge20" class="edge">
<title>Node17&#45;&gt;Node18</title>
<path fill="none" stroke="midnightblue" d="M1010.93,-222.58C1051.57,-214.95 1105.51,-203.27 1151.81,-188 1200.56,-171.93 1255.1,-145.14 1281.6,-131.52"/>
<polygon fill="midnightblue" stroke="midnightblue" points="1010.09,-219.18 1000.89,-224.43 1011.36,-226.06 1010.09,-219.18"/>
</g>
<!-- Node19 -->
<g id="node19" class="node">
<title>Node19</title>
<g id="a_node19"><a xlink:href="include_2roar_2routing_2request__listener_8hpp.html" target="_top" xlink:title=" ">
<polygon fill="none" stroke="black" points="952.81,-168.5 952.81,-187.5 1142.81,-187.5 1142.81,-168.5 952.81,-168.5"/>
<text text-anchor="middle" x="1047.81" y="-175.5" font-family="Helvetica,sans-Serif" font-size="10.00">include/roar/routing/request_listener.hpp</text>
</a>
</g>
</g>
<!-- Node17&#45;&gt;Node19 -->
<g id="edge22" class="edge">
<title>Node17&#45;&gt;Node19</title>
<path fill="none" stroke="midnightblue" d="M973.65,-219.45C991.93,-209.48 1016.23,-196.23 1031.95,-187.65"/>
<polygon fill="midnightblue" stroke="midnightblue" points="971.82,-216.46 964.72,-224.32 975.17,-222.61 971.82,-216.46"/>
</g>
<!-- Node18&#45;&gt;Node8 -->
<g id="edge21" class="edge">
<title>Node18&#45;&gt;Node8</title>
<path fill="none" stroke="midnightblue" d="M1299.56,-102.1C1300.39,-93.14 1301.34,-82.86 1302,-75.75"/>
<polygon fill="midnightblue" stroke="midnightblue" points="1296.08,-101.8 1298.64,-112.08 1303.05,-102.45 1296.08,-101.8"/>
</g>
<!-- Node19&#45;&gt;Node8 -->
<g id="edge40" class="edge">
<title>Node19&#45;&gt;Node8</title>
<path fill="none" stroke="midnightblue" d="M1071.36,-163.58C1096.32,-149.67 1137.12,-127.77 1173.81,-112 1207.81,-97.39 1248.27,-83.87 1274.7,-75.55"/>
<polygon fill="midnightblue" stroke="midnightblue" points="1069.62,-160.55 1062.61,-168.5 1073.04,-166.65 1069.62,-160.55"/>
</g>
<!-- Node19&#45;&gt;Node9 -->
<g id="edge23" class="edge">
<title>Node19&#45;&gt;Node9</title>
<path fill="none" stroke="midnightblue" d="M966.66,-166.84C924.31,-159.69 878.68,-148.43 865.81,-132 839.24,-98.06 863.27,-41.38 874.13,-19.75"/>
<polygon fill="midnightblue" stroke="midnightblue" points="966.33,-170.33 976.77,-168.48 967.46,-163.42 966.33,-170.33"/>
</g>
<!-- Node19&#45;&gt;Node11 -->
<g id="edge30" class="edge">
<title>Node19&#45;&gt;Node11</title>
<path fill="none" stroke="midnightblue" d="M942.38,-172.95C817.67,-167.17 623.74,-154.64 598.81,-132 566.16,-102.34 570.52,-42.06 573.46,-19.65"/>
<polygon fill="midnightblue" stroke="midnightblue" points="942.58,-176.47 952.73,-173.42 942.9,-169.47 942.58,-176.47"/>
</g>
<!-- Node19&#45;&gt;Node12 -->
<g id="edge31" class="edge">
<title>Node19&#45;&gt;Node12</title>
<path fill="none" stroke="midnightblue" d="M1070.48,-162.66C1095.12,-145.53 1132.98,-114.32 1147.81,-76 1155.22,-56.88 1147.76,-32.51 1142.68,-19.73"/>
<polygon fill="midnightblue" stroke="midnightblue" points="1068.4,-159.84 1062.06,-168.32 1072.31,-165.64 1068.4,-159.84"/>
</g>
<!-- Node19&#45;&gt;Node13 -->
<g id="edge35" class="edge">
<title>Node19&#45;&gt;Node13</title>
<path fill="none" stroke="midnightblue" d="M1153.22,-172.49C1356.11,-163.56 1782,-143.49 1792.81,-132 1823.75,-99.13 1780.77,-41.31 1762.42,-19.58"/>
<polygon fill="midnightblue" stroke="midnightblue" points="1152.98,-169 1143.14,-172.93 1153.28,-175.99 1152.98,-169"/>
</g>
<!-- Node19&#45;&gt;Node14 -->
<g id="edge41" class="edge">
<title>Node19&#45;&gt;Node14</title>
<path fill="none" stroke="midnightblue" d="M1153.21,-173.79C1247.9,-169.23 1378.62,-158.26 1422.81,-132 1468.68,-104.75 1496.6,-42.45 1505.61,-19.61"/>
<polygon fill="midnightblue" stroke="midnightblue" points="1152.84,-170.31 1143.01,-174.27 1153.17,-177.3 1152.84,-170.31"/>
</g>
<!-- Node19&#45;&gt;Node18 -->
<g id="edge39" class="edge">
<title>Node19&#45;&gt;Node18</title>
<path fill="none" stroke="midnightblue" d="M1097.44,-166.28C1144.68,-156.08 1214.85,-140.92 1258.38,-131.52"/>
<polygon fill="midnightblue" stroke="midnightblue" points="1096.46,-162.91 1087.43,-168.44 1097.94,-169.75 1096.46,-162.91"/>
</g>
<!-- Node20 -->
<g id="node20" class="node">
<title>Node20</title>
<g id="a_node20"><a xlink:href="examples_2100__continue_2request__listener_8hpp.html" target="_top" xlink:title=" ">
<polygon fill="none" stroke="black" points="607.81,-112.5 607.81,-131.5 817.81,-131.5 817.81,-112.5 607.81,-112.5"/>
<text text-anchor="middle" x="712.81" y="-119.5" font-family="Helvetica,sans-Serif" font-size="10.00">examples/100_continue/request_listener.hpp</text>
</a>
</g>
</g>
<!-- Node19&#45;&gt;Node20 -->
<g id="edge24" class="edge">
<title>Node19&#45;&gt;Node20</title>
<path fill="none" stroke="midnightblue" d="M984.48,-166.79C921.18,-156.59 824.96,-141.08 765.65,-131.52"/>
<polygon fill="midnightblue" stroke="midnightblue" points="984.3,-170.31 994.73,-168.44 985.42,-163.4 984.3,-170.31"/>
</g>
<!-- Node22 -->
<g id="node22" class="node">
<title>Node22</title>
<g id="a_node22"><a xlink:href="file__server_8hpp.html" target="_top" xlink:title=" ">
<polygon fill="none" stroke="black" points="352.31,-112.5 352.31,-131.5 547.31,-131.5 547.31,-112.5 352.31,-112.5"/>
<text text-anchor="middle" x="449.81" y="-119.5" font-family="Helvetica,sans-Serif" font-size="10.00">examples/serve_directory/file_server.hpp</text>
</a>
</g>
</g>
<!-- Node19&#45;&gt;Node22 -->
<g id="edge27" class="edge">
<title>Node19&#45;&gt;Node22</title>
<path fill="none" stroke="midnightblue" d="M943.37,-167.57C830.69,-157.39 652.86,-141.34 544.24,-131.53"/>
<polygon fill="midnightblue" stroke="midnightblue" points="943.11,-171.06 953.39,-168.47 943.74,-164.09 943.11,-171.06"/>
</g>
<!-- Node24 -->
<g id="node24" class="node">
<title>Node24</title>
<g id="a_node24"><a xlink:href="examples_2simple__server_2request__listener_8hpp.html" target="_top" xlink:title=" ">
<polygon fill="none" stroke="black" points="874.31,-112.5 874.31,-131.5 1087.31,-131.5 1087.31,-112.5 874.31,-112.5"/>
<text text-anchor="middle" x="980.81" y="-119.5" font-family="Helvetica,sans-Serif" font-size="10.00">examples/simple_server/request_listener.hpp</text>
</a>
</g>
</g>
<!-- Node19&#45;&gt;Node24 -->
<g id="edge32" class="edge">
<title>Node19&#45;&gt;Node24</title>
<path fill="none" stroke="midnightblue" d="M1028.98,-161.82C1016.97,-152.15 1001.84,-139.95 991.77,-131.83"/>
<polygon fill="midnightblue" stroke="midnightblue" points="1027.07,-164.77 1037.05,-168.32 1031.46,-159.32 1027.07,-164.77"/>
</g>
<!-- Node26 -->
<g id="node26" class="node">
<title>Node26</title>
<g id="a_node26"><a xlink:href="examples_2websocket_2request__listener_8hpp.html" target="_top" xlink:title=" ">
<polygon fill="none" stroke="black" points="1583.81,-112.5 1583.81,-131.5 1783.81,-131.5 1783.81,-112.5 1583.81,-112.5"/>
<text text-anchor="middle" x="1683.81" y="-119.5" font-family="Helvetica,sans-Serif" font-size="10.00">examples/websocket/request_listener.hpp</text>
</a>
</g>
</g>
<!-- Node19&#45;&gt;Node26 -->
<g id="edge36" class="edge">
<title>Node19&#45;&gt;Node26</title>
<path fill="none" stroke="midnightblue" d="M1153.29,-168.04C1272.89,-157.89 1466.44,-141.46 1583.74,-131.5"/>
<polygon fill="midnightblue" stroke="midnightblue" points="1152.7,-164.58 1143.03,-168.92 1153.29,-171.56 1152.7,-164.58"/>
</g>
<!-- Node20&#45;&gt;Node9 -->
<g id="edge25" class="edge">
<title>Node20&#45;&gt;Node9</title>
<path fill="none" stroke="midnightblue" d="M753.4,-109.23C774.95,-101.8 801.17,-90.78 821.81,-76 844.27,-59.93 863.89,-33.38 873.15,-19.72"/>
<polygon fill="midnightblue" stroke="midnightblue" points="752.25,-105.92 743.86,-112.4 754.45,-112.57 752.25,-105.92"/>
</g>
<!-- Node21 -->
<g id="node21" class="node">
<title>Node21</title>
<g id="a_node21"><a xlink:href="examples_2100__continue_2request__listener_8cpp.html" target="_top" xlink:title=" ">
<polygon fill="none" stroke="black" points="602.81,-56.5 602.81,-75.5 812.81,-75.5 812.81,-56.5 602.81,-56.5"/>
<text text-anchor="middle" x="707.81" y="-63.5" font-family="Helvetica,sans-Serif" font-size="10.00">examples/100_continue/request_listener.cpp</text>
</a>
</g>
</g>
<!-- Node20&#45;&gt;Node21 -->
<g id="edge26" class="edge">
<title>Node20&#45;&gt;Node21</title>
<path fill="none" stroke="midnightblue" d="M711.06,-102.1C710.23,-93.14 709.28,-82.86 708.62,-75.75"/>
<polygon fill="midnightblue" stroke="midnightblue" points="707.58,-102.45 711.99,-112.08 714.55,-101.8 707.58,-102.45"/>
</g>
<!-- Node22&#45;&gt;Node11 -->
<g id="edge29" class="edge">
<title>Node22&#45;&gt;Node11</title>
<path fill="none" stroke="midnightblue" d="M474.39,-107.3C488.12,-99.08 505.17,-87.94 518.81,-76 539.22,-58.15 558.91,-32.83 568.59,-19.68"/>
<polygon fill="midnightblue" stroke="midnightblue" points="472.36,-104.43 465.49,-112.49 475.89,-110.47 472.36,-104.43"/>
</g>
<!-- Node23 -->
<g id="node23" class="node">
<title>Node23</title>
<g id="a_node23"><a xlink:href="file__server_8cpp.html" target="_top" xlink:title=" ">
<polygon fill="none" stroke="black" points="314.31,-56.5 314.31,-75.5 509.31,-75.5 509.31,-56.5 314.31,-56.5"/>
<text text-anchor="middle" x="411.81" y="-63.5" font-family="Helvetica,sans-Serif" font-size="10.00">examples/serve_directory/file_server.cpp</text>
</a>
</g>
</g>
<!-- Node22&#45;&gt;Node23 -->
<g id="edge28" class="edge">
<title>Node22&#45;&gt;Node23</title>
<path fill="none" stroke="midnightblue" d="M437.75,-103.86C431.17,-94.5 423.3,-83.33 417.97,-75.75"/>
<polygon fill="midnightblue" stroke="midnightblue" points="434.92,-105.92 443.54,-112.08 440.65,-101.89 434.92,-105.92"/>
</g>
<!-- Node24&#45;&gt;Node12 -->
<g id="edge33" class="edge">
<title>Node24&#45;&gt;Node12</title>
<path fill="none" stroke="midnightblue" d="M1076.11,-109.47C1096.44,-102.72 1115.94,-92.22 1129.81,-76 1143.44,-60.07 1142.13,-33.46 1140.31,-19.75"/>
<polygon fill="midnightblue" stroke="midnightblue" points="1074.97,-106.16 1066.41,-112.41 1076.99,-112.86 1074.97,-106.16"/>
</g>
<!-- Node25 -->
<g id="node25" class="node">
<title>Node25</title>
<g id="a_node25"><a xlink:href="examples_2simple__server_2request__listener_8cpp.html" target="_top" xlink:title=" ">
<polygon fill="none" stroke="black" points="907.31,-56.5 907.31,-75.5 1120.31,-75.5 1120.31,-56.5 907.31,-56.5"/>
<text text-anchor="middle" x="1013.81" y="-63.5" font-family="Helvetica,sans-Serif" font-size="10.00">examples/simple_server/request_listener.cpp</text>
</a>
</g>
</g>
<!-- Node24&#45;&gt;Node25 -->
<g id="edge34" class="edge">
<title>Node24&#45;&gt;Node25</title>
<path fill="none" stroke="midnightblue" d="M991.64,-103.27C997.29,-94.05 1003.93,-83.17 1008.46,-75.75"/>
<polygon fill="midnightblue" stroke="midnightblue" points="988.49,-101.73 986.26,-112.08 994.46,-105.38 988.49,-101.73"/>
</g>
<!-- Node26&#45;&gt;Node13 -->
<g id="edge37" class="edge">
<title>Node26&#45;&gt;Node13</title>
<path fill="none" stroke="midnightblue" d="M1706.02,-106.35C1716.41,-98.47 1728.15,-87.93 1735.81,-76 1747.38,-58 1752.1,-32.74 1753.87,-19.64"/>
<polygon fill="midnightblue" stroke="midnightblue" points="1703.8,-103.63 1697.73,-112.31 1707.89,-109.32 1703.8,-103.63"/>
</g>
<!-- Node27 -->
<g id="node27" class="node">
<title>Node27</title>
<g id="a_node27"><a xlink:href="examples_2websocket_2request__listener_8cpp.html" target="_top" xlink:title=" ">
<polygon fill="none" stroke="black" points="1526.81,-56.5 1526.81,-75.5 1726.81,-75.5 1726.81,-56.5 1526.81,-56.5"/>
<text text-anchor="middle" x="1626.81" y="-63.5" font-family="Helvetica,sans-Serif" font-size="10.00">examples/websocket/request_listener.cpp</text>
</a>
</g>
</g>
<!-- Node26&#45;&gt;Node27 -->
<g id="edge38" class="edge">
<title>Node26&#45;&gt;Node27</title>
<path fill="none" stroke="midnightblue" d="M1667.19,-105.25C1657.08,-95.67 1644.54,-83.79 1636.14,-75.83"/>
<polygon fill="midnightblue" stroke="midnightblue" points="1664.99,-107.99 1674.65,-112.32 1669.8,-102.91 1664.99,-107.99"/>
</g>
<!-- Node28&#45;&gt;Node8 -->
<g id="edge49" class="edge">
<title>Node28&#45;&gt;Node8</title>
<path fill="none" stroke="midnightblue" d="M1446.48,-222.03C1479.22,-213.05 1508.62,-196.88 1498.81,-168 1488.72,-138.29 1481.69,-129.74 1455.81,-112 1427.72,-92.74 1391.31,-81.6 1361.05,-75.22"/>
<polygon fill="midnightblue" stroke="midnightblue" points="1445.56,-218.66 1436.72,-224.49 1447.27,-225.44 1445.56,-218.66"/>
</g>
</g>
</svg>
