<?xml version="1.0" encoding="UTF-8" standalone="no"?>
<!DOCTYPE svg PUBLIC "-//W3C//DTD SVG 1.1//EN"
 "http://www.w3.org/Graphics/SVG/1.1/DTD/svg11.dtd">
<!-- Generated by graphviz version 2.44.1 (20211215.1903)
 -->
<!-- Title: include/roar/standard_response_provider.hpp Pages: 1 -->
<svg width="1694pt" height="252pt"
 viewBox="0.00 0.00 1694.03 252.00" xmlns="http://www.w3.org/2000/svg" xmlns:xlink="http://www.w3.org/1999/xlink">
<g id="graph0" class="graph" transform="scale(1 1) rotate(0) translate(4 248)">
<title>include/roar/standard_response_provider.hpp</title>
<!-- Node1 -->
<g id="node1" class="node">
<title>Node1</title>
<g id="a_node1"><a xlink:title=" ">
<polygon fill="#bfbfbf" stroke="black" points="496.53,-224.5 496.53,-243.5 707.53,-243.5 707.53,-224.5 496.53,-224.5"/>
<text text-anchor="middle" x="602.03" y="-231.5" font-family="Helvetica,sans-Serif" font-size="10.00">include/roar/standard_response_provider.hpp</text>
</a>
</g>
</g>
<!-- Node2 -->
<g id="node2" class="node">
<title>Node2</title>
<g id="a_node2"><a xlink:href="route_8hpp.html" target="_top" xlink:title=" ">
<polygon fill="none" stroke="black" points="274.53,-168.5 274.53,-187.5 417.53,-187.5 417.53,-168.5 274.53,-168.5"/>
<text text-anchor="middle" x="346.03" y="-175.5" font-family="Helvetica,sans-Serif" font-size="10.00">include/roar/routing/route.hpp</text>
</a>
</g>
</g>
<!-- Node1&#45;&gt;Node2 -->
<g id="edge1" class="edge">
<title>Node1&#45;&gt;Node2</title>
<path fill="none" stroke="midnightblue" d="M551.52,-222.35C503.14,-212.14 431.08,-196.94 386.41,-187.52"/>
<polygon fill="midnightblue" stroke="midnightblue" points="550.96,-225.8 561.47,-224.44 552.41,-218.95 550.96,-225.8"/>
</g>
<!-- Node5 -->
<g id="node5" class="node">
<title>Node5</title>
<g id="a_node5"><a xlink:href="router_8hpp.html" target="_top" xlink:title=" ">
<polygon fill="none" stroke="black" points="82.03,-168.5 82.03,-187.5 228.03,-187.5 228.03,-168.5 82.03,-168.5"/>
<text text-anchor="middle" x="155.03" y="-175.5" font-family="Helvetica,sans-Serif" font-size="10.00">include/roar/routing/router.hpp</text>
</a>
</g>
</g>
<!-- Node1&#45;&gt;Node5 -->
<g id="edge4" class="edge">
<title>Node1&#45;&gt;Node5</title>
<path fill="none" stroke="midnightblue" d="M521.15,-223.23C436.78,-213.04 305.82,-197.22 225.53,-187.52"/>
<polygon fill="midnightblue" stroke="midnightblue" points="520.86,-226.72 531.21,-224.44 521.7,-219.77 520.86,-226.72"/>
</g>
<!-- Node8 -->
<g id="node8" class="node">
<title>Node8</title>
<g id="a_node8"><a xlink:href="server_8hpp.html" target="_top" xlink:title=" ">
<polygon fill="none" stroke="black" points="1041.03,-56.5 1041.03,-75.5 1157.03,-75.5 1157.03,-56.5 1041.03,-56.5"/>
<text text-anchor="middle" x="1099.03" y="-63.5" font-family="Helvetica,sans-Serif" font-size="10.00">include/roar/server.hpp</text>
</a>
</g>
</g>
<!-- Node1&#45;&gt;Node8 -->
<g id="edge8" class="edge">
<title>Node1&#45;&gt;Node8</title>
<path fill="none" stroke="midnightblue" d="M684.23,-223.01C769.89,-210.32 906.38,-183.56 1014.03,-132 1045.2,-117.08 1075.95,-89.53 1090.43,-75.57"/>
<polygon fill="midnightblue" stroke="midnightblue" points="683.69,-219.55 674.3,-224.45 684.7,-226.48 683.69,-219.55"/>
</g>
<!-- Node13 -->
<g id="node13" class="node">
<title>Node13</title>
<g id="a_node13"><a xlink:href="factory_8hpp.html" target="_top" xlink:title=" ">
<polygon fill="none" stroke="black" points="612.53,-168.5 612.53,-187.5 767.53,-187.5 767.53,-168.5 612.53,-168.5"/>
<text text-anchor="middle" x="690.03" y="-175.5" font-family="Helvetica,sans-Serif" font-size="10.00">include/roar/session/factory.hpp</text>
</a>
</g>
</g>
<!-- Node1&#45;&gt;Node13 -->
<g id="edge14" class="edge">
<title>Node1&#45;&gt;Node13</title>
<path fill="none" stroke="midnightblue" d="M625.01,-218.9C641.15,-209 662.21,-196.07 675.93,-187.65"/>
<polygon fill="midnightblue" stroke="midnightblue" points="622.86,-216.11 616.17,-224.32 626.53,-222.08 622.86,-216.11"/>
</g>
<!-- Node15 -->
<g id="node15" class="node">
<title>Node15</title>
<g id="a_node15"><a xlink:href="session_8hpp.html" target="_top" xlink:title=" ">
<polygon fill="none" stroke="black" points="435.53,-168.5 435.53,-187.5 594.53,-187.5 594.53,-168.5 435.53,-168.5"/>
<text text-anchor="middle" x="515.03" y="-175.5" font-family="Helvetica,sans-Serif" font-size="10.00">include/roar/session/session.hpp</text>
</a>
</g>
</g>
<!-- Node1&#45;&gt;Node15 -->
<g id="edge17" class="edge">
<title>Node1&#45;&gt;Node15</title>
<path fill="none" stroke="midnightblue" d="M579.32,-218.9C563.36,-209 542.54,-196.07 528.98,-187.65"/>
<polygon fill="midnightblue" stroke="midnightblue" points="577.71,-222.02 588.06,-224.32 581.4,-216.08 577.71,-222.02"/>
</g>
<!-- Node22 -->
<g id="node22" class="node">
<title>Node22</title>
<g id="a_node22"><a xlink:href="standard__text__response__provider_8hpp.html" target="_top" xlink:title=" ">
<polygon fill="none" stroke="black" points="1061.53,-168.5 1061.53,-187.5 1294.53,-187.5 1294.53,-168.5 1061.53,-168.5"/>
<text text-anchor="middle" x="1178.03" y="-175.5" font-family="Helvetica,sans-Serif" font-size="10.00">include/roar/standard_text_response_provider.hpp</text>
</a>
</g>
</g>
<!-- Node1&#45;&gt;Node22 -->
<g id="edge36" class="edge">
<title>Node1&#45;&gt;Node22</title>
<path fill="none" stroke="midnightblue" d="M702.96,-223.54C811.52,-213.36 982.56,-197.33 1087.08,-187.53"/>
<polygon fill="midnightblue" stroke="midnightblue" points="702.61,-220.06 692.98,-224.47 703.27,-227.02 702.61,-220.06"/>
</g>
<!-- Node3 -->
<g id="node3" class="node">
<title>Node3</title>
<g id="a_node3"><a xlink:href="route_8cpp.html" target="_top" xlink:title=" ">
<polygon fill="none" stroke="black" points="322.53,-112.5 322.53,-131.5 447.53,-131.5 447.53,-112.5 322.53,-112.5"/>
<text text-anchor="middle" x="385.03" y="-119.5" font-family="Helvetica,sans-Serif" font-size="10.00">src/roar/routing/route.cpp</text>
</a>
</g>
</g>
<!-- Node2&#45;&gt;Node3 -->
<g id="edge2" class="edge">
<title>Node2&#45;&gt;Node3</title>
<path fill="none" stroke="midnightblue" d="M358.42,-159.86C365.17,-150.5 373.24,-139.33 378.71,-131.75"/>
<polygon fill="midnightblue" stroke="midnightblue" points="355.49,-157.93 352.47,-168.08 361.17,-162.03 355.49,-157.93"/>
</g>
<!-- Node4 -->
<g id="node4" class="node">
<title>Node4</title>
<g id="a_node4"><a xlink:href="router_8cpp.html" target="_top" xlink:title=" ">
<polygon fill="none" stroke="black" points="176.03,-112.5 176.03,-131.5 304.03,-131.5 304.03,-112.5 176.03,-112.5"/>
<text text-anchor="middle" x="240.03" y="-119.5" font-family="Helvetica,sans-Serif" font-size="10.00">src/roar/routing/router.cpp</text>
</a>
</g>
</g>
<!-- Node2&#45;&gt;Node4 -->
<g id="edge3" class="edge">
<title>Node2&#45;&gt;Node4</title>
<path fill="none" stroke="midnightblue" d="M319.98,-163.73C300.35,-153.73 274.01,-140.31 257.02,-131.65"/>
<polygon fill="midnightblue" stroke="midnightblue" points="318.5,-166.9 329,-168.32 321.68,-160.67 318.5,-166.9"/>
</g>
<!-- Node5&#45;&gt;Node4 -->
<g id="edge5" class="edge">
<title>Node5&#45;&gt;Node4</title>
<path fill="none" stroke="midnightblue" d="M177.23,-162.9C192.81,-153 213.16,-140.07 226.41,-131.65"/>
<polygon fill="midnightblue" stroke="midnightblue" points="175.25,-160.01 168.69,-168.32 179.01,-165.92 175.25,-160.01"/>
</g>
<!-- Node6 -->
<g id="node6" class="node">
<title>Node6</title>
<g id="a_node6"><a xlink:href="server_8cpp.html" target="_top" xlink:title=" ">
<polygon fill="none" stroke="black" points="411.03,-0.5 411.03,-19.5 509.03,-19.5 509.03,-0.5 411.03,-0.5"/>
<text text-anchor="middle" x="460.03" y="-7.5" font-family="Helvetica,sans-Serif" font-size="10.00">src/roar/server.cpp</text>
</a>
</g>
</g>
<!-- Node5&#45;&gt;Node6 -->
<g id="edge6" class="edge">
<title>Node5&#45;&gt;Node6</title>
<path fill="none" stroke="midnightblue" d="M71.78,-167.09C26.14,-158.15 -16.76,-141.68 7.03,-112 57.3,-49.29 304.33,-22.98 410.92,-14.42"/>
<polygon fill="midnightblue" stroke="midnightblue" points="71.37,-170.57 81.84,-168.93 72.64,-163.68 71.37,-170.57"/>
</g>
<!-- Node7 -->
<g id="node7" class="node">
<title>Node7</title>
<g id="a_node7"><a xlink:href="session_8cpp.html" target="_top" xlink:title=" ">
<polygon fill="none" stroke="black" points="16.03,-112.5 16.03,-131.5 158.03,-131.5 158.03,-112.5 16.03,-112.5"/>
<text text-anchor="middle" x="87.03" y="-119.5" font-family="Helvetica,sans-Serif" font-size="10.00">src/roar/session/session.cpp</text>
</a>
</g>
</g>
<!-- Node5&#45;&gt;Node7 -->
<g id="edge7" class="edge">
<title>Node5&#45;&gt;Node7</title>
<path fill="none" stroke="midnightblue" d="M136.27,-162.1C124.03,-152.38 108.47,-140.03 98.16,-131.83"/>
<polygon fill="midnightblue" stroke="midnightblue" points="134.1,-164.85 144.11,-168.32 138.45,-159.36 134.1,-164.85"/>
</g>
<!-- Node8&#45;&gt;Node6 -->
<g id="edge13" class="edge">
<title>Node8&#45;&gt;Node6</title>
<path fill="none" stroke="midnightblue" d="M1030.57,-60.33C899.25,-51.26 616.36,-31.18 519.03,-20 515.84,-19.63 512.56,-19.22 509.25,-18.79"/>
<polygon fill="midnightblue" stroke="midnightblue" points="1030.68,-63.84 1040.9,-61.04 1031.16,-56.86 1030.68,-63.84"/>
</g>
<!-- Node9 -->
<g id="node9" class="node">
<title>Node9</title>
<g id="a_node9"><a xlink:href="most__minimal_2main_8cpp.html" target="_top" xlink:title=" ">
<polygon fill="none" stroke="black" points="1132.53,-0.5 1132.53,-19.5 1297.53,-19.5 1297.53,-0.5 1132.53,-0.5"/>
<text text-anchor="middle" x="1215.03" y="-7.5" font-family="Helvetica,sans-Serif" font-size="10.00">examples/most_minimal/main.cpp</text>
</a>
</g>
</g>
<!-- Node8&#45;&gt;Node9 -->
<g id="edge9" class="edge">
<title>Node8&#45;&gt;Node9</title>
<path fill="none" stroke="midnightblue" d="M1126.75,-52.1C1148.43,-42.01 1177.94,-28.27 1196.74,-19.52"/>
<polygon fill="midnightblue" stroke="midnightblue" points="1125,-49.05 1117.41,-56.44 1127.96,-55.4 1125,-49.05"/>
</g>
<!-- Node10 -->
<g id="node10" class="node">
<title>Node10</title>
<g id="a_node10"><a xlink:href="simple__server_2main_8cpp.html" target="_top" xlink:title=" ">
<polygon fill="none" stroke="black" points="758.53,-0.5 758.53,-19.5 923.53,-19.5 923.53,-0.5 758.53,-0.5"/>
<text text-anchor="middle" x="841.03" y="-7.5" font-family="Helvetica,sans-Serif" font-size="10.00">examples/simple_server/main.cpp</text>
</a>
</g>
</g>
<!-- Node8&#45;&gt;Node10 -->
<g id="edge10" class="edge">
<title>Node8&#45;&gt;Node10</title>
<path fill="none" stroke="midnightblue" d="M1048.13,-54.35C999.37,-44.14 926.75,-28.94 881.72,-19.52"/>
<polygon fill="midnightblue" stroke="midnightblue" points="1047.65,-57.82 1058.15,-56.44 1049.08,-50.97 1047.65,-57.82"/>
</g>
<!-- Node11 -->
<g id="node11" class="node">
<title>Node11</title>
<g id="a_node11"><a xlink:href="websocket_2main_8cpp.html" target="_top" xlink:title=" ">
<polygon fill="none" stroke="black" points="1316.03,-0.5 1316.03,-19.5 1468.03,-19.5 1468.03,-0.5 1316.03,-0.5"/>
<text text-anchor="middle" x="1392.03" y="-7.5" font-family="Helvetica,sans-Serif" font-size="10.00">examples/websocket/main.cpp</text>
</a>
</g>
</g>
<!-- Node8&#45;&gt;Node11 -->
<g id="edge11" class="edge">
<title>Node8&#45;&gt;Node11</title>
<path fill="none" stroke="midnightblue" d="M1155.46,-54.6C1210.83,-44.4 1294.26,-29.02 1345.82,-19.52"/>
<polygon fill="midnightblue" stroke="midnightblue" points="1154.66,-51.19 1145.46,-56.44 1155.93,-58.07 1154.66,-51.19"/>
</g>
<!-- Node12 -->
<g id="node12" class="node">
<title>Node12</title>
<g id="a_node12"><a xlink:href="src_2roar_2routing_2request__listener_8cpp.html" target="_top" xlink:title=" ">
<polygon fill="none" stroke="black" points="941.53,-0.5 941.53,-19.5 1114.53,-19.5 1114.53,-0.5 941.53,-0.5"/>
<text text-anchor="middle" x="1028.03" y="-7.5" font-family="Helvetica,sans-Serif" font-size="10.00">src/roar/routing/request_listener.cpp</text>
</a>
</g>
</g>
<!-- Node8&#45;&gt;Node12 -->
<g id="edge12" class="edge">
<title>Node8&#45;&gt;Node12</title>
<path fill="none" stroke="midnightblue" d="M1079.44,-50.1C1066.67,-40.38 1050.42,-28.03 1039.65,-19.83"/>
<polygon fill="midnightblue" stroke="midnightblue" points="1077.55,-53.06 1087.63,-56.32 1081.79,-47.48 1077.55,-53.06"/>
</g>
<!-- Node13&#45;&gt;Node6 -->
<g id="edge15" class="edge">
<title>Node13&#45;&gt;Node6</title>
<path fill="none" stroke="midnightblue" d="M665.24,-163.53C649.72,-154.89 629.44,-143.23 612.03,-132 576.17,-108.86 567.44,-102.56 534.03,-76 509.94,-56.85 483.14,-32.49 469.36,-19.72"/>
<polygon fill="midnightblue" stroke="midnightblue" points="663.77,-166.71 674.22,-168.48 667.16,-160.59 663.77,-166.71"/>
</g>
<!-- Node14 -->
<g id="node14" class="node">
<title>Node14</title>
<g id="a_node14"><a xlink:href="factory_8cpp.html" target="_top" xlink:title=" ">
<polygon fill="none" stroke="black" points="867.53,-112.5 867.53,-131.5 1004.53,-131.5 1004.53,-112.5 867.53,-112.5"/>
<text text-anchor="middle" x="936.03" y="-119.5" font-family="Helvetica,sans-Serif" font-size="10.00">src/roar/session/factory.cpp</text>
</a>
</g>
</g>
<!-- Node13&#45;&gt;Node14 -->
<g id="edge16" class="edge">
<title>Node13&#45;&gt;Node14</title>
<path fill="none" stroke="midnightblue" d="M738.86,-166.28C785.35,-156.08 854.4,-140.92 897.24,-131.52"/>
<polygon fill="midnightblue" stroke="midnightblue" points="738.03,-162.88 729.01,-168.44 739.53,-169.72 738.03,-162.88"/>
</g>
<!-- Node15&#45;&gt;Node3 -->
<g id="edge31" class="edge">
<title>Node15&#45;&gt;Node3</title>
<path fill="none" stroke="midnightblue" d="M484.95,-164.5C460.58,-154.38 426.89,-140.39 405.54,-131.52"/>
<polygon fill="midnightblue" stroke="midnightblue" points="483.86,-167.84 494.43,-168.44 486.54,-161.38 483.86,-167.84"/>
</g>
<!-- Node15&#45;&gt;Node4 -->
<g id="edge32" class="edge">
<title>Node15&#45;&gt;Node4</title>
<path fill="none" stroke="midnightblue" d="M461.43,-166.47C409.45,-156.27 331.6,-140.98 283.4,-131.52"/>
<polygon fill="midnightblue" stroke="midnightblue" points="460.97,-169.95 471.46,-168.44 462.32,-163.08 460.97,-169.95"/>
</g>
<!-- Node15&#45;&gt;Node6 -->
<g id="edge33" class="edge">
<title>Node15&#45;&gt;Node6</title>
<path fill="none" stroke="midnightblue" d="M508.94,-158.75C506.21,-150.57 502.96,-140.8 500.03,-132 486.02,-89.79 469.35,-39.27 462.84,-19.51"/>
<polygon fill="midnightblue" stroke="midnightblue" points="505.67,-160 512.15,-168.38 512.31,-157.78 505.67,-160"/>
</g>
<!-- Node15&#45;&gt;Node7 -->
<g id="edge35" class="edge">
<title>Node15&#45;&gt;Node7</title>
<path fill="none" stroke="midnightblue" d="M437.1,-167.17C356.29,-156.97 231.26,-141.2 154.53,-131.52"/>
<polygon fill="midnightblue" stroke="midnightblue" points="436.86,-170.66 447.22,-168.44 437.73,-163.72 436.86,-170.66"/>
</g>
<!-- Node15&#45;&gt;Node8 -->
<g id="edge30" class="edge">
<title>Node15&#45;&gt;Node8</title>
<path fill="none" stroke="midnightblue" d="M602.54,-167.31C677.96,-158.37 780.7,-144.61 820.03,-132 838.58,-126.05 840.6,-118.3 859.03,-112 919.2,-91.42 991.26,-79.51 1040.61,-73.17"/>
<polygon fill="midnightblue" stroke="midnightblue" points="602.08,-163.84 592.56,-168.48 602.9,-170.79 602.08,-163.84"/>
</g>
<!-- Node15&#45;&gt;Node14 -->
<g id="edge34" class="edge">
<title>Node15&#45;&gt;Node14</title>
<path fill="none" stroke="midnightblue" d="M591.7,-167.17C671.18,-156.97 794.17,-141.2 869.64,-131.52"/>
<polygon fill="midnightblue" stroke="midnightblue" points="591.22,-163.7 581.74,-168.44 592.11,-170.64 591.22,-163.7"/>
</g>
<!-- Node16 -->
<g id="node16" class="node">
<title>Node16</title>
<g id="a_node16"><a xlink:href="include_2roar_2routing_2request__listener_8hpp.html" target="_top" xlink:title=" ">
<polygon fill="none" stroke="black" points="621.03,-112.5 621.03,-131.5 811.03,-131.5 811.03,-112.5 621.03,-112.5"/>
<text text-anchor="middle" x="716.03" y="-119.5" font-family="Helvetica,sans-Serif" font-size="10.00">include/roar/routing/request_listener.hpp</text>
</a>
</g>
</g>
<!-- Node15&#45;&gt;Node16 -->
<g id="edge18" class="edge">
<title>Node15&#45;&gt;Node16</title>
<path fill="none" stroke="midnightblue" d="M556.61,-165.83C594.57,-155.63 649.84,-140.78 684.33,-131.52"/>
<polygon fill="midnightblue" stroke="midnightblue" points="555.63,-162.47 546.88,-168.44 557.45,-169.23 555.63,-162.47"/>
</g>
<!-- Node16&#45;&gt;Node8 -->
<g id="edge28" class="edge">
<title>Node16&#45;&gt;Node8</title>
<path fill="none" stroke="midnightblue" d="M786.77,-111.03C859.89,-100.72 972.69,-84.81 1040.83,-75.21"/>
<polygon fill="midnightblue" stroke="midnightblue" points="786.13,-107.58 776.72,-112.44 787.11,-114.51 786.13,-107.58"/>
</g>
<!-- Node16&#45;&gt;Node10 -->
<g id="edge20" class="edge">
<title>Node16&#45;&gt;Node10</title>
<path fill="none" stroke="midnightblue" d="M795.81,-111.13C861.56,-102.18 945.65,-88.51 956.03,-76 979.54,-47.68 928.37,-29.32 886.92,-19.56"/>
<polygon fill="midnightblue" stroke="midnightblue" points="795.29,-107.67 785.84,-112.47 796.22,-114.61 795.29,-107.67"/>
</g>
<!-- Node16&#45;&gt;Node11 -->
<g id="edge24" class="edge">
<title>Node16&#45;&gt;Node11</title>
<path fill="none" stroke="midnightblue" d="M821.39,-112.67C933.18,-103.45 1102.29,-88.25 1166.03,-76 1240.81,-61.63 1326.58,-33.7 1367.64,-19.59"/>
<polygon fill="midnightblue" stroke="midnightblue" points="820.77,-109.21 811.1,-113.52 821.35,-116.19 820.77,-109.21"/>
</g>
<!-- Node16&#45;&gt;Node12 -->
<g id="edge29" class="edge">
<title>Node16&#45;&gt;Node12</title>
<path fill="none" stroke="midnightblue" d="M809.54,-111.22C870.88,-103.56 944.63,-91.58 972.03,-76 996.12,-62.31 1014.77,-34.2 1023.17,-19.85"/>
<polygon fill="midnightblue" stroke="midnightblue" points="808.92,-107.77 799.42,-112.46 809.77,-114.72 808.92,-107.77"/>
</g>
<!-- Node17 -->
<g id="node17" class="node">
<title>Node17</title>
<g id="a_node17"><a xlink:href="request__listener_2main_8cpp.html" target="_top" xlink:title=" ">
<polygon fill="none" stroke="black" points="773.53,-56.5 773.53,-75.5 946.53,-75.5 946.53,-56.5 773.53,-56.5"/>
<text text-anchor="middle" x="860.03" y="-63.5" font-family="Helvetica,sans-Serif" font-size="10.00">examples/request_listener/main.cpp</text>
</a>
</g>
</g>
<!-- Node16&#45;&gt;Node17 -->
<g id="edge19" class="edge">
<title>Node16&#45;&gt;Node17</title>
<path fill="none" stroke="midnightblue" d="M748.28,-108.91C775.36,-98.75 813.35,-84.51 837.32,-75.52"/>
<polygon fill="midnightblue" stroke="midnightblue" points="746.99,-105.66 738.85,-112.44 749.44,-112.21 746.99,-105.66"/>
</g>
<!-- Node18 -->
<g id="node18" class="node">
<title>Node18</title>
<g id="a_node18"><a xlink:href="examples_2simple__server_2request__listener_8hpp.html" target="_top" xlink:title=" ">
<polygon fill="none" stroke="black" points="542.53,-56.5 542.53,-75.5 755.53,-75.5 755.53,-56.5 542.53,-56.5"/>
<text text-anchor="middle" x="649.03" y="-63.5" font-family="Helvetica,sans-Serif" font-size="10.00">examples/simple_server/request_listener.hpp</text>
</a>
</g>
</g>
<!-- Node16&#45;&gt;Node18 -->
<g id="edge21" class="edge">
<title>Node16&#45;&gt;Node18</title>
<path fill="none" stroke="midnightblue" d="M697.2,-105.82C685.2,-96.15 670.06,-83.95 659.99,-75.83"/>
<polygon fill="midnightblue" stroke="midnightblue" points="695.29,-108.77 705.27,-112.32 699.68,-103.32 695.29,-108.77"/>
</g>
<!-- Node20 -->
<g id="node20" class="node">
<title>Node20</title>
<g id="a_node20"><a xlink:href="examples_2websocket_2request__listener_8hpp.html" target="_top" xlink:title=" ">
<polygon fill="none" stroke="black" points="1292.03,-56.5 1292.03,-75.5 1492.03,-75.5 1492.03,-56.5 1292.03,-56.5"/>
<text text-anchor="middle" x="1392.03" y="-63.5" font-family="Helvetica,sans-Serif" font-size="10.00">examples/websocket/request_listener.hpp</text>
</a>
</g>
</g>
<!-- Node16&#45;&gt;Node20 -->
<g id="edge25" class="edge">
<title>Node16&#45;&gt;Node20</title>
<path fill="none" stroke="midnightblue" d="M821.35,-112.59C949.96,-102.31 1165.89,-85.06 1292.03,-74.99"/>
<polygon fill="midnightblue" stroke="midnightblue" points="820.79,-109.12 811.1,-113.41 821.34,-116.1 820.79,-109.12"/>
</g>
<!-- Node18&#45;&gt;Node10 -->
<g id="edge22" class="edge">
<title>Node18&#45;&gt;Node10</title>
<path fill="none" stroke="midnightblue" d="M689.22,-53.7C725.45,-43.51 777.95,-28.74 810.75,-19.52"/>
<polygon fill="midnightblue" stroke="midnightblue" points="688.14,-50.37 679.46,-56.44 690.03,-57.11 688.14,-50.37"/>
</g>
<!-- Node19 -->
<g id="node19" class="node">
<title>Node19</title>
<g id="a_node19"><a xlink:href="examples_2simple__server_2request__listener_8cpp.html" target="_top" xlink:title=" ">
<polygon fill="none" stroke="black" points="527.53,-0.5 527.53,-19.5 740.53,-19.5 740.53,-0.5 527.53,-0.5"/>
<text text-anchor="middle" x="634.03" y="-7.5" font-family="Helvetica,sans-Serif" font-size="10.00">examples/simple_server/request_listener.cpp</text>
</a>
</g>
</g>
<!-- Node18&#45;&gt;Node19 -->
<g id="edge23" class="edge">
<title>Node18&#45;&gt;Node19</title>
<path fill="none" stroke="midnightblue" d="M643.87,-46.4C641.36,-37.36 638.46,-26.94 636.46,-19.75"/>
<polygon fill="midnightblue" stroke="midnightblue" points="640.51,-47.38 646.56,-56.08 647.25,-45.51 640.51,-47.38"/>
</g>
<!-- Node20&#45;&gt;Node11 -->
<g id="edge26" class="edge">
<title>Node20&#45;&gt;Node11</title>
<path fill="none" stroke="midnightblue" d="M1392.03,-45.8C1392.03,-36.91 1392.03,-26.78 1392.03,-19.75"/>
<polygon fill="midnightblue" stroke="midnightblue" points="1388.53,-46.08 1392.03,-56.08 1395.53,-46.08 1388.53,-46.08"/>
</g>
<!-- Node21 -->
<g id="node21" class="node">
<title>Node21</title>
<g id="a_node21"><a xlink:href="examples_2websocket_2request__listener_8cpp.html" target="_top" xlink:title=" ">
<polygon fill="none" stroke="black" points="1486.03,-0.5 1486.03,-19.5 1686.03,-19.5 1686.03,-0.5 1486.03,-0.5"/>
<text text-anchor="middle" x="1586.03" y="-7.5" font-family="Helvetica,sans-Serif" font-size="10.00">examples/websocket/request_listener.cpp</text>
</a>
</g>
</g>
<!-- Node20&#45;&gt;Node21 -->
<g id="edge27" class="edge">
<title>Node20&#45;&gt;Node21</title>
<path fill="none" stroke="midnightblue" d="M1432.63,-53.7C1469.25,-43.51 1522.29,-28.74 1555.44,-19.52"/>
<polygon fill="midnightblue" stroke="midnightblue" points="1431.47,-50.39 1422.77,-56.44 1433.35,-57.13 1431.47,-50.39"/>
</g>
<!-- Node22&#45;&gt;Node8 -->
<g id="edge37" class="edge">
<title>Node22&#45;&gt;Node8</title>
<path fill="none" stroke="midnightblue" d="M1165.79,-159.96C1148.67,-136.12 1118.22,-93.71 1105.2,-75.59"/>
<polygon fill="midnightblue" stroke="midnightblue" points="1163.16,-162.29 1171.83,-168.37 1168.84,-158.2 1163.16,-162.29"/>
</g>
</g>
</svg>
