<?xml version="1.0" encoding="UTF-8" standalone="no"?>
<!DOCTYPE svg PUBLIC "-//W3C//DTD SVG 1.1//EN"
 "http://www.w3.org/Graphics/SVG/1.1/DTD/svg11.dtd">
<!-- Generated by graphviz version 8.1.0 (0)
 -->
<!-- Title: include/roar/standard_response_provider.hpp Pages: 1 -->
<svg width="1847pt" height="308pt"
 viewBox="0.00 0.00 1847.30 308.00" xmlns="http://www.w3.org/2000/svg" xmlns:xlink="http://www.w3.org/1999/xlink">
<g id="graph0" class="graph" transform="scale(1 1) rotate(0) translate(4 304)">
<title>include/roar/standard_response_provider.hpp</title>
<!-- Node1 -->
<g id="Node000001" class="node">
<title>Node1</title>
<g id="a_Node000001"><a xlink:title=" ">
<polygon fill="#999999" stroke="#666666" points="1151.93,-300 941.68,-300 941.68,-280 1151.93,-280 1151.93,-300"/>
<text text-anchor="middle" x="1046.8" y="-286.5" font-family="Helvetica,sans-Serif" font-size="10.00">include/roar/standard_response_provider.hpp</text>
</a>
</g>
</g>
<!-- Node2 -->
<g id="Node000002" class="node">
<title>Node2</title>
<g id="a_Node000002"><a xlink:href="route_8hpp.html" target="_top" xlink:title=" ">
<polygon fill="white" stroke="#666666" points="452.8,-244 310.8,-244 310.8,-224 452.8,-224 452.8,-244"/>
<text text-anchor="middle" x="381.8" y="-230.5" font-family="Helvetica,sans-Serif" font-size="10.00">include/roar/routing/route.hpp</text>
</a>
</g>
</g>
<!-- Node1&#45;&gt;Node2 -->
<g id="edge1_Node000001_Node000002" class="edge">
<title>Node1&#45;&gt;Node2</title>
<g id="a_edge1_Node000001_Node000002"><a xlink:title=" ">
<path fill="none" stroke="#63b8ff" d="M930.84,-279.58C792.99,-268.39 567.26,-250.06 452.94,-240.78"/>
<polygon fill="#63b8ff" stroke="#63b8ff" points="930.18,-283.12 940.43,-280.44 930.75,-276.15 930.18,-283.12"/>
</a>
</g>
</g>
<!-- Node5 -->
<g id="Node000005" class="node">
<title>Node5</title>
<g id="a_Node000005"><a xlink:href="router_8hpp.html" target="_top" xlink:title=" ">
<polygon fill="white" stroke="#666666" points="225.3,-244 80.3,-244 80.3,-224 225.3,-224 225.3,-244"/>
<text text-anchor="middle" x="152.8" y="-230.5" font-family="Helvetica,sans-Serif" font-size="10.00">include/roar/routing/router.hpp</text>
</a>
</g>
</g>
<!-- Node1&#45;&gt;Node5 -->
<g id="edge4_Node000001_Node000005" class="edge">
<title>Node1&#45;&gt;Node5</title>
<g id="a_edge4_Node000001_Node000005"><a xlink:title=" ">
<path fill="none" stroke="#63b8ff" d="M930.47,-281.97C743.23,-270.66 380.37,-248.75 225.6,-239.4"/>
<polygon fill="#63b8ff" stroke="#63b8ff" points="929.99,-285.51 940.18,-282.62 930.41,-278.52 929.99,-285.51"/>
</a>
</g>
</g>
<!-- Node8 -->
<g id="Node000008" class="node">
<title>Node8</title>
<g id="a_Node000008"><a xlink:href="server_8hpp.html" target="_top" xlink:title=" ">
<polygon fill="white" stroke="#666666" points="1371.3,-76 1256.3,-76 1256.3,-56 1371.3,-56 1371.3,-76"/>
<text text-anchor="middle" x="1313.8" y="-62.5" font-family="Helvetica,sans-Serif" font-size="10.00">include/roar/server.hpp</text>
</a>
</g>
</g>
<!-- Node1&#45;&gt;Node8 -->
<g id="edge8_Node000001_Node000008" class="edge">
<title>Node1&#45;&gt;Node8</title>
<g id="a_edge8_Node000001_Node000008"><a xlink:title=" ">
<path fill="none" stroke="#63b8ff" d="M1162.81,-284.56C1290.79,-278.6 1482.16,-266.11 1507.8,-244 1552.6,-205.37 1537.64,-148.13 1490.8,-112 1456.66,-85.66 1408.84,-74.61 1371.51,-70.03"/>
<polygon fill="#63b8ff" stroke="#63b8ff" points="1163,-281.1 1153.17,-285.05 1163.32,-288.09 1163,-281.1"/>
</a>
</g>
</g>
<!-- Node15 -->
<g id="Node000015" class="node">
<title>Node15</title>
<g id="a_Node000015"><a xlink:href="factory_8hpp.html" target="_top" xlink:title=" ">
<polygon fill="white" stroke="#666666" points="1210.8,-244 1056.8,-244 1056.8,-224 1210.8,-224 1210.8,-244"/>
<text text-anchor="middle" x="1133.8" y="-230.5" font-family="Helvetica,sans-Serif" font-size="10.00">include/roar/session/factory.hpp</text>
</a>
</g>
</g>
<!-- Node1&#45;&gt;Node15 -->
<g id="edge16_Node000001_Node000015" class="edge">
<title>Node1&#45;&gt;Node15</title>
<g id="a_edge16_Node000001_Node000015"><a xlink:title=" ">
<path fill="none" stroke="#63b8ff" d="M1071.27,-273.81C1086.45,-264.39 1105.47,-252.58 1118.53,-244.48"/>
<polygon fill="#63b8ff" stroke="#63b8ff" points="1069.61,-271.35 1062.96,-279.59 1073.3,-277.29 1069.61,-271.35"/>
</a>
</g>
</g>
<!-- Node17 -->
<g id="Node000017" class="node">
<title>Node17</title>
<g id="a_Node000017"><a xlink:href="session_8hpp.html" target="_top" xlink:title=" ">
<polygon fill="white" stroke="#666666" points="1039.05,-244 880.55,-244 880.55,-224 1039.05,-224 1039.05,-244"/>
<text text-anchor="middle" x="959.8" y="-230.5" font-family="Helvetica,sans-Serif" font-size="10.00">include/roar/session/session.hpp</text>
</a>
</g>
</g>
<!-- Node1&#45;&gt;Node17 -->
<g id="edge19_Node000001_Node000017" class="edge">
<title>Node1&#45;&gt;Node17</title>
<g id="a_edge19_Node000001_Node000017"><a xlink:title=" ">
<path fill="none" stroke="#63b8ff" d="M1022.33,-273.81C1007.15,-264.39 988.13,-252.58 975.07,-244.48"/>
<polygon fill="#63b8ff" stroke="#63b8ff" points="1020.3,-277.29 1030.65,-279.59 1024,-271.35 1020.3,-277.29"/>
</a>
</g>
</g>
<!-- Node28 -->
<g id="Node000028" class="node">
<title>Node28</title>
<g id="a_Node000028"><a xlink:href="standard__text__response__provider_8hpp.html" target="_top" xlink:title=" ">
<polygon fill="white" stroke="#666666" points="1498.8,-244 1266.8,-244 1266.8,-224 1498.8,-224 1498.8,-244"/>
<text text-anchor="middle" x="1382.8" y="-230.5" font-family="Helvetica,sans-Serif" font-size="10.00">include/roar/standard_text_response_provider.hpp</text>
</a>
</g>
</g>
<!-- Node1&#45;&gt;Node28 -->
<g id="edge48_Node000001_Node000028" class="edge">
<title>Node1&#45;&gt;Node28</title>
<g id="a_edge48_Node000001_Node000028"><a xlink:title=" ">
<path fill="none" stroke="#63b8ff" d="M1116.45,-277.81C1177.78,-267.95 1266.1,-253.76 1323.96,-244.46"/>
<polygon fill="#63b8ff" stroke="#63b8ff" points="1116.03,-274.49 1106.71,-279.53 1117.14,-281.4 1116.03,-274.49"/>
</a>
</g>
</g>
<!-- Node3 -->
<g id="Node000003" class="node">
<title>Node3</title>
<g id="a_Node000003"><a xlink:href="route_8cpp.html" target="_top" xlink:title=" ">
<polygon fill="white" stroke="#666666" points="444.18,-188 319.43,-188 319.43,-168 444.18,-168 444.18,-188"/>
<text text-anchor="middle" x="381.8" y="-174.5" font-family="Helvetica,sans-Serif" font-size="10.00">src/roar/routing/route.cpp</text>
</a>
</g>
</g>
<!-- Node2&#45;&gt;Node3 -->
<g id="edge2_Node000002_Node000003" class="edge">
<title>Node2&#45;&gt;Node3</title>
<g id="a_edge2_Node000002_Node000003"><a xlink:title=" ">
<path fill="none" stroke="#63b8ff" d="M381.8,-212.71C381.8,-204.32 381.8,-195.01 381.8,-188.3"/>
<polygon fill="#63b8ff" stroke="#63b8ff" points="378.3,-212.59 381.8,-222.59 385.3,-212.59 378.3,-212.59"/>
</a>
</g>
</g>
<!-- Node4 -->
<g id="Node000004" class="node">
<title>Node4</title>
<g id="a_Node000004"><a xlink:href="router_8cpp.html" target="_top" xlink:title=" ">
<polygon fill="white" stroke="#666666" points="301.68,-188 173.93,-188 173.93,-168 301.68,-168 301.68,-188"/>
<text text-anchor="middle" x="237.8" y="-174.5" font-family="Helvetica,sans-Serif" font-size="10.00">src/roar/routing/router.cpp</text>
</a>
</g>
</g>
<!-- Node2&#45;&gt;Node4 -->
<g id="edge3_Node000002_Node000004" class="edge">
<title>Node2&#45;&gt;Node4</title>
<g id="a_edge3_Node000002_Node000004"><a xlink:title=" ">
<path fill="none" stroke="#63b8ff" d="M346.58,-219.79C320.73,-210.1 286.23,-197.16 263.08,-188.48"/>
<polygon fill="#63b8ff" stroke="#63b8ff" points="345.13,-223.36 355.72,-223.59 347.58,-216.81 345.13,-223.36"/>
</a>
</g>
</g>
<!-- Node5&#45;&gt;Node4 -->
<g id="edge5_Node000005_Node000004" class="edge">
<title>Node5&#45;&gt;Node4</title>
<g id="a_edge5_Node000005_Node000004"><a xlink:title=" ">
<path fill="none" stroke="#63b8ff" d="M176.71,-217.81C191.54,-208.39 210.12,-196.58 222.88,-188.48"/>
<polygon fill="#63b8ff" stroke="#63b8ff" points="175.17,-215.28 168.61,-223.59 178.92,-221.19 175.17,-215.28"/>
</a>
</g>
</g>
<!-- Node6 -->
<g id="Node000006" class="node">
<title>Node6</title>
<g id="a_Node000006"><a xlink:href="server_8cpp.html" target="_top" xlink:title=" ">
<polygon fill="white" stroke="#666666" points="315.68,-20 217.93,-20 217.93,0 315.68,0 315.68,-20"/>
<text text-anchor="middle" x="266.8" y="-6.5" font-family="Helvetica,sans-Serif" font-size="10.00">src/roar/server.cpp</text>
</a>
</g>
</g>
<!-- Node5&#45;&gt;Node6 -->
<g id="edge6_Node000005_Node000006" class="edge">
<title>Node5&#45;&gt;Node6</title>
<g id="a_edge6_Node000005_Node000006"><a xlink:title=" ">
<path fill="none" stroke="#63b8ff" d="M69.52,-224.73C26.52,-216.53 -13.47,-200.26 4.8,-168 53.55,-81.95 170.32,-37.95 230.13,-20.41"/>
<polygon fill="#63b8ff" stroke="#63b8ff" points="68.73,-228.32 79.19,-226.6 69.94,-221.42 68.73,-228.32"/>
</a>
</g>
</g>
<!-- Node7 -->
<g id="Node000007" class="node">
<title>Node7</title>
<g id="a_Node000007"><a xlink:href="session_8cpp.html" target="_top" xlink:title=" ">
<polygon fill="white" stroke="#666666" points="155.43,-188 14.18,-188 14.18,-168 155.43,-168 155.43,-188"/>
<text text-anchor="middle" x="84.8" y="-174.5" font-family="Helvetica,sans-Serif" font-size="10.00">src/roar/session/session.cpp</text>
</a>
</g>
</g>
<!-- Node5&#45;&gt;Node7 -->
<g id="edge7_Node000005_Node000007" class="edge">
<title>Node5&#45;&gt;Node7</title>
<g id="a_edge7_Node000005_Node000007"><a xlink:title=" ">
<path fill="none" stroke="#63b8ff" d="M132.6,-216.95C120.83,-207.61 106.41,-196.16 96.51,-188.3"/>
<polygon fill="#63b8ff" stroke="#63b8ff" points="129.95,-220.12 139.96,-223.59 134.3,-214.63 129.95,-220.12"/>
</a>
</g>
</g>
<!-- Node8&#45;&gt;Node6 -->
<g id="edge15_Node000008_Node000006" class="edge">
<title>Node8&#45;&gt;Node6</title>
<g id="a_edge15_Node000008_Node000006"><a xlink:title=" ">
<path fill="none" stroke="#63b8ff" d="M1245.26,-61.47C1048.66,-51.32 486.01,-22.31 316.03,-13.54"/>
<polygon fill="#63b8ff" stroke="#63b8ff" points="1244.85,-65 1255.02,-62.02 1245.21,-58.01 1244.85,-65"/>
</a>
</g>
</g>
<!-- Node9 -->
<g id="Node000009" class="node">
<title>Node9</title>
<g id="a_Node000009"><a xlink:href="100__continue_2main_8cpp.html" target="_top" xlink:title=" ">
<polygon fill="white" stroke="#666666" points="958.55,-20 797.05,-20 797.05,0 958.55,0 958.55,-20"/>
<text text-anchor="middle" x="877.8" y="-6.5" font-family="Helvetica,sans-Serif" font-size="10.00">examples/100_continue/main.cpp</text>
</a>
</g>
</g>
<!-- Node8&#45;&gt;Node9 -->
<g id="edge9_Node000008_Node000009" class="edge">
<title>Node8&#45;&gt;Node9</title>
<g id="a_edge9_Node000008_Node000009"><a xlink:title=" ">
<path fill="none" stroke="#63b8ff" d="M1245.09,-56.49C1166.02,-46.7 1036.52,-30.66 954.3,-20.47"/>
<polygon fill="#63b8ff" stroke="#63b8ff" points="1244.55,-60.07 1254.9,-57.83 1245.41,-53.13 1244.55,-60.07"/>
</a>
</g>
</g>
<!-- Node10 -->
<g id="Node000010" class="node">
<title>Node10</title>
<g id="a_Node000010"><a xlink:href="most__minimal_2main_8cpp.html" target="_top" xlink:title=" ">
<polygon fill="white" stroke="#666666" points="1406.05,-20 1241.55,-20 1241.55,0 1406.05,0 1406.05,-20"/>
<text text-anchor="middle" x="1323.8" y="-6.5" font-family="Helvetica,sans-Serif" font-size="10.00">examples/most_minimal/main.cpp</text>
</a>
</g>
</g>
<!-- Node8&#45;&gt;Node10 -->
<g id="edge10_Node000008_Node000010" class="edge">
<title>Node8&#45;&gt;Node10</title>
<g id="a_edge10_Node000008_Node000010"><a xlink:title=" ">
<path fill="none" stroke="#63b8ff" d="M1317.5,-45C1319.07,-36.54 1320.82,-27.08 1322.08,-20.3"/>
<polygon fill="#63b8ff" stroke="#63b8ff" points="1313.92,-44.12 1315.54,-54.59 1320.81,-45.4 1313.92,-44.12"/>
</a>
</g>
</g>
<!-- Node11 -->
<g id="Node000011" class="node">
<title>Node11</title>
<g id="a_Node000011"><a xlink:href="serve__directory_2main_8cpp.html" target="_top" xlink:title=" ">
<polygon fill="white" stroke="#666666" points="659.05,-20 488.55,-20 488.55,0 659.05,0 659.05,-20"/>
<text text-anchor="middle" x="573.8" y="-6.5" font-family="Helvetica,sans-Serif" font-size="10.00">examples/serve_directory/main.cpp</text>
</a>
</g>
</g>
<!-- Node8&#45;&gt;Node11 -->
<g id="edge11_Node000008_Node000011" class="edge">
<title>Node8&#45;&gt;Node11</title>
<g id="a_edge11_Node000008_Node000011"><a xlink:title=" ">
<path fill="none" stroke="#63b8ff" d="M1245.41,-60.01C1109.97,-50.13 807.92,-28.08 659.48,-17.25"/>
<polygon fill="#63b8ff" stroke="#63b8ff" points="1244.81,-63.55 1255.04,-60.79 1245.32,-56.57 1244.81,-63.55"/>
</a>
</g>
</g>
<!-- Node12 -->
<g id="Node000012" class="node">
<title>Node12</title>
<g id="a_Node000012"><a xlink:href="simple__server_2main_8cpp.html" target="_top" xlink:title=" ">
<polygon fill="white" stroke="#666666" points="1223.05,-20 1058.55,-20 1058.55,0 1223.05,0 1223.05,-20"/>
<text text-anchor="middle" x="1140.8" y="-6.5" font-family="Helvetica,sans-Serif" font-size="10.00">examples/simple_server/main.cpp</text>
</a>
</g>
</g>
<!-- Node8&#45;&gt;Node12 -->
<g id="edge12_Node000008_Node000012" class="edge">
<title>Node8&#45;&gt;Node12</title>
<g id="a_edge12_Node000008_Node000012"><a xlink:title=" ">
<path fill="none" stroke="#63b8ff" d="M1273.54,-52.43C1242.28,-42.67 1199.6,-29.35 1171.17,-20.48"/>
<polygon fill="#63b8ff" stroke="#63b8ff" points="1272.08,-55.96 1282.67,-55.59 1274.16,-49.27 1272.08,-55.96"/>
</a>
</g>
</g>
<!-- Node13 -->
<g id="Node000013" class="node">
<title>Node13</title>
<g id="a_Node000013"><a xlink:href="websocket_2main_8cpp.html" target="_top" xlink:title=" ">
<polygon fill="white" stroke="#666666" points="1839.3,-20 1688.3,-20 1688.3,0 1839.3,0 1839.3,-20"/>
<text text-anchor="middle" x="1763.8" y="-6.5" font-family="Helvetica,sans-Serif" font-size="10.00">examples/websocket/main.cpp</text>
</a>
</g>
</g>
<!-- Node8&#45;&gt;Node13 -->
<g id="edge13_Node000008_Node000013" class="edge">
<title>Node8&#45;&gt;Node13</title>
<g id="a_edge13_Node000008_Node000013"><a xlink:title=" ">
<path fill="none" stroke="#63b8ff" d="M1382.47,-56.76C1464.9,-46.87 1602.68,-30.34 1688.11,-20.08"/>
<polygon fill="#63b8ff" stroke="#63b8ff" points="1382.22,-53.38 1372.71,-58.05 1383.06,-60.33 1382.22,-53.38"/>
</a>
</g>
</g>
<!-- Node14 -->
<g id="Node000014" class="node">
<title>Node14</title>
<g id="a_Node000014"><a xlink:href="src_2roar_2routing_2request__listener_8cpp.html" target="_top" xlink:title=" ">
<polygon fill="white" stroke="#666666" points="1595.8,-20 1423.8,-20 1423.8,0 1595.8,0 1595.8,-20"/>
<text text-anchor="middle" x="1509.8" y="-6.5" font-family="Helvetica,sans-Serif" font-size="10.00">src/roar/routing/request_listener.cpp</text>
</a>
</g>
</g>
<!-- Node8&#45;&gt;Node14 -->
<g id="edge14_Node000008_Node000014" class="edge">
<title>Node8&#45;&gt;Node14</title>
<g id="a_edge14_Node000008_Node000014"><a xlink:title=" ">
<path fill="none" stroke="#63b8ff" d="M1358.49,-52.69C1393.99,-42.91 1442.9,-29.43 1475.39,-20.48"/>
<polygon fill="#63b8ff" stroke="#63b8ff" points="1357.65,-49.56 1348.94,-55.59 1359.51,-56.31 1357.65,-49.56"/>
</a>
</g>
</g>
<!-- Node15&#45;&gt;Node6 -->
<g id="edge17_Node000015_Node000006" class="edge">
<title>Node15&#45;&gt;Node6</title>
<g id="a_edge17_Node000015_Node000006"><a xlink:title=" ">
<path fill="none" stroke="#63b8ff" d="M1045.68,-223.71C845.71,-202.37 372.52,-150.25 342.8,-132 299.47,-105.38 276.8,-43.8 269.49,-20.32"/>
<polygon fill="#63b8ff" stroke="#63b8ff" points="1045.12,-227.28 1055.44,-224.86 1045.86,-220.32 1045.12,-227.28"/>
</a>
</g>
</g>
<!-- Node16 -->
<g id="Node000016" class="node">
<title>Node16</title>
<g id="a_Node000016"><a xlink:href="factory_8cpp.html" target="_top" xlink:title=" ">
<polygon fill="white" stroke="#666666" points="1499.18,-188 1362.43,-188 1362.43,-168 1499.18,-168 1499.18,-188"/>
<text text-anchor="middle" x="1430.8" y="-174.5" font-family="Helvetica,sans-Serif" font-size="10.00">src/roar/session/factory.cpp</text>
</a>
</g>
</g>
<!-- Node15&#45;&gt;Node16 -->
<g id="edge18_Node000015_Node000016" class="edge">
<title>Node15&#45;&gt;Node16</title>
<g id="a_edge18_Node000015_Node000016"><a xlink:title=" ">
<path fill="none" stroke="#63b8ff" d="M1196.38,-221.62C1250.55,-211.77 1327.96,-197.7 1378.79,-188.46"/>
<polygon fill="#63b8ff" stroke="#63b8ff" points="1196.09,-218.3 1186.87,-223.53 1197.34,-225.19 1196.09,-218.3"/>
</a>
</g>
</g>
<!-- Node17&#45;&gt;Node3 -->
<g id="edge43_Node000017_Node000003" class="edge">
<title>Node17&#45;&gt;Node3</title>
<g id="a_edge43_Node000017_Node000003"><a xlink:title=" ">
<path fill="none" stroke="#63b8ff" d="M869.46,-225.68C768.9,-217.35 601.6,-202.96 457.8,-188 453.44,-187.55 448.94,-187.06 444.41,-186.56"/>
<polygon fill="#63b8ff" stroke="#63b8ff" points="868.93,-229.23 879.18,-226.57 869.5,-222.26 868.93,-229.23"/>
</a>
</g>
</g>
<!-- Node17&#45;&gt;Node4 -->
<g id="edge44_Node000017_Node000004" class="edge">
<title>Node17&#45;&gt;Node4</title>
<g id="a_edge44_Node000017_Node000004"><a xlink:title=" ">
<path fill="none" stroke="#63b8ff" d="M869.57,-228.27C744.1,-221.35 509.89,-207.16 310.8,-188 307.88,-187.72 304.89,-187.42 301.87,-187.1"/>
<polygon fill="#63b8ff" stroke="#63b8ff" points="869.08,-231.8 879.26,-228.86 869.47,-224.81 869.08,-231.8"/>
</a>
</g>
</g>
<!-- Node17&#45;&gt;Node6 -->
<g id="edge45_Node000017_Node000006" class="edge">
<title>Node17&#45;&gt;Node6</title>
<g id="a_edge45_Node000017_Node000006"><a xlink:title=" ">
<path fill="none" stroke="#63b8ff" d="M869.38,-233.2C774.66,-231.34 622.37,-222.49 495.8,-188 475.47,-182.46 472.76,-174.77 452.8,-168 382.95,-144.31 345.7,-181.25 290.8,-132 258.28,-102.83 262.35,-43.31 265.34,-20.34"/>
<polygon fill="#63b8ff" stroke="#63b8ff" points="869.29,-236.71 879.35,-233.39 869.41,-229.72 869.29,-236.71"/>
</a>
</g>
</g>
<!-- Node17&#45;&gt;Node7 -->
<g id="edge47_Node000017_Node000007" class="edge">
<title>Node17&#45;&gt;Node7</title>
<g id="a_edge47_Node000017_Node000007"><a xlink:title=" ">
<path fill="none" stroke="#63b8ff" d="M869.35,-229.52C721.71,-223.46 419.8,-209.54 164.8,-188 161.88,-187.75 158.89,-187.49 155.88,-187.2"/>
<polygon fill="#63b8ff" stroke="#63b8ff" points="869.01,-233.05 879.15,-229.96 869.3,-226.05 869.01,-233.05"/>
</a>
</g>
</g>
<!-- Node17&#45;&gt;Node8 -->
<g id="edge42_Node000017_Node000008" class="edge">
<title>Node17&#45;&gt;Node8</title>
<g id="a_edge42_Node000017_Node000008"><a xlink:title=" ">
<path fill="none" stroke="#63b8ff" d="M1037.32,-221.89C1164.9,-202.83 1407.5,-162.93 1431.8,-132 1453.91,-103.86 1407.44,-86.14 1366.47,-76.43"/>
<polygon fill="#63b8ff" stroke="#63b8ff" points="1036.84,-218.58 1027.47,-223.51 1037.87,-225.5 1036.84,-218.58"/>
</a>
</g>
</g>
<!-- Node17&#45;&gt;Node16 -->
<g id="edge46_Node000017_Node000016" class="edge">
<title>Node17&#45;&gt;Node16</title>
<g id="a_edge46_Node000017_Node000016"><a xlink:title=" ">
<path fill="none" stroke="#63b8ff" d="M1050.29,-222.63C1141.26,-212.2 1279.52,-196.34 1361.94,-186.9"/>
<polygon fill="#63b8ff" stroke="#63b8ff" points="1049.97,-219.25 1040.43,-223.87 1050.77,-226.21 1049.97,-219.25"/>
</a>
</g>
</g>
<!-- Node18 -->
<g id="Node000018" class="node">
<title>Node18</title>
<g id="a_Node000018"><a xlink:href="directory__server_8hpp.html" target="_top" xlink:title=" ">
<polygon fill="white" stroke="#666666" points="1423.05,-132 1192.55,-132 1192.55,-112 1423.05,-112 1423.05,-132"/>
<text text-anchor="middle" x="1307.8" y="-118.5" font-family="Helvetica,sans-Serif" font-size="10.00">include/roar/directory_server/directory_server.hpp</text>
</a>
</g>
</g>
<!-- Node17&#45;&gt;Node18 -->
<g id="edge20_Node000017_Node000018" class="edge">
<title>Node17&#45;&gt;Node18</title>
<g id="a_edge20_Node000017_Node000018"><a xlink:title=" ">
<path fill="none" stroke="#63b8ff" d="M1028.53,-221.51C1068.55,-213.92 1119.66,-202.66 1163.8,-188 1210.92,-172.36 1263.39,-146.34 1290.1,-132.44"/>
<polygon fill="#63b8ff" stroke="#63b8ff" points="1028.01,-218.24 1018.82,-223.51 1029.29,-225.12 1028.01,-218.24"/>
</a>
</g>
</g>
<!-- Node19 -->
<g id="Node000019" class="node">
<title>Node19</title>
<g id="a_Node000019"><a xlink:href="include_2roar_2routing_2request__listener_8hpp.html" target="_top" xlink:title=" ">
<polygon fill="white" stroke="#666666" points="1154.43,-188 965.18,-188 965.18,-168 1154.43,-168 1154.43,-188"/>
<text text-anchor="middle" x="1059.8" y="-174.5" font-family="Helvetica,sans-Serif" font-size="10.00">include/roar/routing/request_listener.hpp</text>
</a>
</g>
</g>
<!-- Node17&#45;&gt;Node19 -->
<g id="edge22_Node000017_Node000019" class="edge">
<title>Node17&#45;&gt;Node19</title>
<g id="a_edge22_Node000017_Node000019"><a xlink:title=" ">
<path fill="none" stroke="#63b8ff" d="M986.44,-218.61C1004.12,-209.07 1026.81,-196.81 1042.25,-188.48"/>
<polygon fill="#63b8ff" stroke="#63b8ff" points="985.36,-215.76 978.22,-223.59 988.68,-221.92 985.36,-215.76"/>
</a>
</g>
</g>
<!-- Node18&#45;&gt;Node8 -->
<g id="edge21_Node000018_Node000008" class="edge">
<title>Node18&#45;&gt;Node8</title>
<g id="a_edge21_Node000018_Node000008"><a xlink:title=" ">
<path fill="none" stroke="#63b8ff" d="M1310.05,-100.71C1310.99,-92.32 1312.02,-83.01 1312.77,-76.3"/>
<polygon fill="#63b8ff" stroke="#63b8ff" points="1306.47,-100.27 1308.85,-110.59 1313.43,-101.04 1306.47,-100.27"/>
</a>
</g>
</g>
<!-- Node19&#45;&gt;Node8 -->
<g id="edge40_Node000019_Node000008" class="edge">
<title>Node19&#45;&gt;Node8</title>
<g id="a_edge40_Node000019_Node000008"><a xlink:title=" ">
<path fill="none" stroke="#63b8ff" d="M1085.22,-162.24C1109.91,-148.25 1148.7,-127.17 1183.8,-112 1216.68,-97.78 1255.66,-84.78 1282.31,-76.44"/>
<polygon fill="#63b8ff" stroke="#63b8ff" points="1083.81,-159.58 1076.87,-167.58 1087.29,-165.66 1083.81,-159.58"/>
</a>
</g>
</g>
<!-- Node19&#45;&gt;Node9 -->
<g id="edge23_Node000019_Node000009" class="edge">
<title>Node19&#45;&gt;Node9</title>
<g id="a_edge23_Node000019_Node000009"><a xlink:title=" ">
<path fill="none" stroke="#63b8ff" d="M972.1,-165.7C931.69,-158.52 890,-147.59 877.8,-132 851.64,-98.59 866.77,-42.57 874.31,-20.42"/>
<polygon fill="#63b8ff" stroke="#63b8ff" points="971.43,-169.31 981.88,-167.54 972.61,-162.41 971.43,-169.31"/>
</a>
</g>
</g>
<!-- Node19&#45;&gt;Node11 -->
<g id="edge30_Node000019_Node000011" class="edge">
<title>Node19&#45;&gt;Node11</title>
<g id="a_edge30_Node000019_Node000011"><a xlink:title=" ">
<path fill="none" stroke="#63b8ff" d="M954.17,-172.35C830.18,-165.97 638.03,-152.86 611.8,-132 576.65,-104.04 573.39,-43.8 573.52,-20.49"/>
<polygon fill="#63b8ff" stroke="#63b8ff" points="953.67,-175.88 963.83,-172.89 954.02,-168.89 953.67,-175.88"/>
</a>
</g>
</g>
<!-- Node19&#45;&gt;Node12 -->
<g id="edge31_Node000019_Node000012" class="edge">
<title>Node19&#45;&gt;Node12</title>
<g id="a_edge31_Node000019_Node000012"><a xlink:title=" ">
<path fill="none" stroke="#63b8ff" d="M1081.34,-160.82C1103.02,-142.92 1134.79,-111.83 1145.8,-76 1151.65,-56.96 1147.09,-33.38 1143.67,-20.5"/>
<polygon fill="#63b8ff" stroke="#63b8ff" points="1079.39,-158.69 1073.75,-167.66 1083.76,-164.17 1079.39,-158.69"/>
</a>
</g>
</g>
<!-- Node19&#45;&gt;Node13 -->
<g id="edge35_Node000019_Node000013" class="edge">
<title>Node19&#45;&gt;Node13</title>
<g id="a_edge35_Node000019_Node000013"><a xlink:title=" ">
<path fill="none" stroke="#63b8ff" d="M1165.69,-172.44C1368.12,-163.47 1791.05,-143.43 1801.8,-132 1832.44,-99.45 1790.59,-42.44 1771.95,-20.23"/>
<polygon fill="#63b8ff" stroke="#63b8ff" points="1165.58,-168.99 1155.74,-172.92 1165.89,-175.98 1165.58,-168.99"/>
</a>
</g>
</g>
<!-- Node19&#45;&gt;Node14 -->
<g id="edge41_Node000019_Node000014" class="edge">
<title>Node19&#45;&gt;Node14</title>
<g id="a_edge41_Node000019_Node000014"><a xlink:title=" ">
<path fill="none" stroke="#63b8ff" d="M1165.21,-174.13C1259.29,-169.81 1388.66,-159 1431.8,-132 1475.23,-104.81 1499.12,-43.58 1506.92,-20.26"/>
<polygon fill="#63b8ff" stroke="#63b8ff" points="1165.33,-170.66 1155.49,-174.6 1165.64,-177.66 1165.33,-170.66"/>
</a>
</g>
</g>
<!-- Node19&#45;&gt;Node18 -->
<g id="edge39_Node000019_Node000018" class="edge">
<title>Node19&#45;&gt;Node18</title>
<g id="a_edge39_Node000019_Node000018"><a xlink:title=" ">
<path fill="none" stroke="#63b8ff" d="M1113.76,-165.25C1158.9,-155.42 1222.46,-141.58 1264.37,-132.46"/>
<polygon fill="#63b8ff" stroke="#63b8ff" points="1113.31,-161.98 1104.28,-167.53 1114.8,-168.82 1113.31,-161.98"/>
</a>
</g>
</g>
<!-- Node20 -->
<g id="Node000020" class="node">
<title>Node20</title>
<g id="a_Node000020"><a xlink:href="examples_2100__continue_2request__listener_8hpp.html" target="_top" xlink:title=" ">
<polygon fill="white" stroke="#666666" points="830.55,-132 621.05,-132 621.05,-112 830.55,-112 830.55,-132"/>
<text text-anchor="middle" x="725.8" y="-118.5" font-family="Helvetica,sans-Serif" font-size="10.00">examples/100_continue/request_listener.hpp</text>
</a>
</g>
</g>
<!-- Node19&#45;&gt;Node20 -->
<g id="edge24_Node000019_Node000020" class="edge">
<title>Node19&#45;&gt;Node20</title>
<g id="a_edge24_Node000019_Node000020"><a xlink:title=" ">
<path fill="none" stroke="#63b8ff" d="M990.56,-165.81C929.6,-155.95 841.81,-141.76 784.29,-132.46"/>
<polygon fill="#63b8ff" stroke="#63b8ff" points="989.81,-169.39 1000.24,-167.53 990.93,-162.48 989.81,-169.39"/>
</a>
</g>
</g>
<!-- Node22 -->
<g id="Node000022" class="node">
<title>Node22</title>
<g id="a_Node000022"><a xlink:href="file__server_8hpp.html" target="_top" xlink:title=" ">
<polygon fill="white" stroke="#666666" points="546.05,-132 351.55,-132 351.55,-112 546.05,-112 546.05,-132"/>
<text text-anchor="middle" x="448.8" y="-118.5" font-family="Helvetica,sans-Serif" font-size="10.00">examples/serve_directory/file_server.hpp</text>
</a>
</g>
</g>
<!-- Node19&#45;&gt;Node22 -->
<g id="edge27_Node000019_Node000022" class="edge">
<title>Node19&#45;&gt;Node22</title>
<g id="a_edge27_Node000019_Node000022"><a xlink:title=" ">
<path fill="none" stroke="#63b8ff" d="M954.12,-167.66C839.41,-157.52 657.76,-141.47 546.35,-131.62"/>
<polygon fill="#63b8ff" stroke="#63b8ff" points="953.73,-171.23 964,-168.62 954.35,-164.25 953.73,-171.23"/>
</a>
</g>
</g>
<!-- Node24 -->
<g id="Node000024" class="node">
<title>Node24</title>
<g id="a_Node000024"><a xlink:href="examples_2simple__server_2request__listener_8hpp.html" target="_top" xlink:title=" ">
<polygon fill="white" stroke="#666666" points="1099.05,-132 886.55,-132 886.55,-112 1099.05,-112 1099.05,-132"/>
<text text-anchor="middle" x="992.8" y="-118.5" font-family="Helvetica,sans-Serif" font-size="10.00">examples/simple_server/request_listener.hpp</text>
</a>
</g>
</g>
<!-- Node19&#45;&gt;Node24 -->
<g id="edge32_Node000019_Node000024" class="edge">
<title>Node19&#45;&gt;Node24</title>
<g id="a_edge32_Node000019_Node000024"><a xlink:title=" ">
<path fill="none" stroke="#63b8ff" d="M1039.89,-160.95C1028.3,-151.61 1014.1,-140.16 1004.34,-132.3"/>
<polygon fill="#63b8ff" stroke="#63b8ff" points="1037.15,-164.04 1047.13,-167.59 1041.54,-158.59 1037.15,-164.04"/>
</a>
</g>
</g>
<!-- Node26 -->
<g id="Node000026" class="node">
<title>Node26</title>
<g id="a_Node000026"><a xlink:href="examples_2websocket_2request__listener_8hpp.html" target="_top" xlink:title=" ">
<polygon fill="white" stroke="#666666" points="1792.3,-132 1593.3,-132 1593.3,-112 1792.3,-112 1792.3,-132"/>
<text text-anchor="middle" x="1692.8" y="-118.5" font-family="Helvetica,sans-Serif" font-size="10.00">examples/websocket/request_listener.hpp</text>
</a>
</g>
</g>
<!-- Node19&#45;&gt;Node26 -->
<g id="edge36_Node000019_Node000026" class="edge">
<title>Node19&#45;&gt;Node26</title>
<g id="a_edge36_Node000019_Node000026"><a xlink:title=" ">
<path fill="none" stroke="#63b8ff" d="M1165.84,-167.95C1284.9,-157.8 1476.63,-141.44 1593.06,-131.51"/>
<polygon fill="#63b8ff" stroke="#63b8ff" points="1165.58,-164.55 1155.91,-168.89 1166.17,-171.52 1165.58,-164.55"/>
</a>
</g>
</g>
<!-- Node20&#45;&gt;Node9 -->
<g id="edge25_Node000020_Node000009" class="edge">
<title>Node20&#45;&gt;Node9</title>
<g id="a_edge25_Node000020_Node000009"><a xlink:title=" ">
<path fill="none" stroke="#63b8ff" d="M762.9,-107.58C781.32,-99.92 803.31,-89.21 820.8,-76 842.36,-59.72 861.78,-34.2 871.41,-20.48"/>
<polygon fill="#63b8ff" stroke="#63b8ff" points="761.79,-104.66 753.81,-111.63 764.4,-111.16 761.79,-104.66"/>
</a>
</g>
</g>
<!-- Node21 -->
<g id="Node000021" class="node">
<title>Node21</title>
<g id="a_Node000021"><a xlink:href="examples_2100__continue_2request__listener_8cpp.html" target="_top" xlink:title=" ">
<polygon fill="white" stroke="#666666" points="811.55,-76 602.05,-76 602.05,-56 811.55,-56 811.55,-76"/>
<text text-anchor="middle" x="706.8" y="-62.5" font-family="Helvetica,sans-Serif" font-size="10.00">examples/100_continue/request_listener.cpp</text>
</a>
</g>
</g>
<!-- Node20&#45;&gt;Node21 -->
<g id="edge26_Node000020_Node000021" class="edge">
<title>Node20&#45;&gt;Node21</title>
<g id="a_edge26_Node000020_Node000021"><a xlink:title=" ">
<path fill="none" stroke="#63b8ff" d="M718.87,-101.29C715.86,-92.75 712.49,-83.16 710.07,-76.3"/>
<polygon fill="#63b8ff" stroke="#63b8ff" points="715.87,-102.32 722.49,-110.59 722.47,-100 715.87,-102.32"/>
</a>
</g>
</g>
<!-- Node22&#45;&gt;Node11 -->
<g id="edge29_Node000022_Node000011" class="edge">
<title>Node22&#45;&gt;Node11</title>
<g id="a_edge29_Node000022_Node000011"><a xlink:title=" ">
<path fill="none" stroke="#63b8ff" d="M474.66,-106.16C487.87,-98.02 503.84,-87.31 516.8,-76 537.15,-58.23 557.06,-33.32 567.09,-20.09"/>
<polygon fill="#63b8ff" stroke="#63b8ff" points="473.38,-103.44 466.61,-111.59 476.98,-109.44 473.38,-103.44"/>
</a>
</g>
</g>
<!-- Node23 -->
<g id="Node000023" class="node">
<title>Node23</title>
<g id="a_Node000023"><a xlink:href="file__server_8cpp.html" target="_top" xlink:title=" ">
<polygon fill="white" stroke="#666666" points="508.05,-76 313.55,-76 313.55,-56 508.05,-56 508.05,-76"/>
<text text-anchor="middle" x="410.8" y="-62.5" font-family="Helvetica,sans-Serif" font-size="10.00">examples/serve_directory/file_server.cpp</text>
</a>
</g>
</g>
<!-- Node22&#45;&gt;Node23 -->
<g id="edge28_Node000022_Node000023" class="edge">
<title>Node22&#45;&gt;Node23</title>
<g id="a_edge28_Node000022_Node000023"><a xlink:title=" ">
<path fill="none" stroke="#63b8ff" d="M435.94,-102.72C429.69,-93.84 422.44,-83.55 417.34,-76.3"/>
<polygon fill="#63b8ff" stroke="#63b8ff" points="433.56,-104.43 442.18,-110.59 439.29,-100.4 433.56,-104.43"/>
</a>
</g>
</g>
<!-- Node24&#45;&gt;Node12 -->
<g id="edge33_Node000024_Node000012" class="edge">
<title>Node24&#45;&gt;Node12</title>
<g id="a_edge33_Node000024_Node000012"><a xlink:title=" ">
<path fill="none" stroke="#63b8ff" d="M1073.87,-108.34C1093.58,-101.67 1112.94,-91.5 1126.8,-76 1140.8,-60.34 1141.97,-34.09 1141.48,-20.23"/>
<polygon fill="#63b8ff" stroke="#63b8ff" points="1073.09,-105.23 1064.56,-111.52 1075.15,-111.92 1073.09,-105.23"/>
</a>
</g>
</g>
<!-- Node25 -->
<g id="Node000025" class="node">
<title>Node25</title>
<g id="a_Node000025"><a xlink:href="examples_2simple__server_2request__listener_8cpp.html" target="_top" xlink:title=" ">
<polygon fill="white" stroke="#666666" points="1118.05,-76 905.55,-76 905.55,-56 1118.05,-56 1118.05,-76"/>
<text text-anchor="middle" x="1011.8" y="-62.5" font-family="Helvetica,sans-Serif" font-size="10.00">examples/simple_server/request_listener.cpp</text>
</a>
</g>
</g>
<!-- Node24&#45;&gt;Node25 -->
<g id="edge34_Node000024_Node000025" class="edge">
<title>Node24&#45;&gt;Node25</title>
<g id="a_edge34_Node000024_Node000025"><a xlink:title=" ">
<path fill="none" stroke="#63b8ff" d="M999.74,-101.29C1002.74,-92.75 1006.11,-83.16 1008.53,-76.3"/>
<polygon fill="#63b8ff" stroke="#63b8ff" points="996.13,-100 996.11,-110.59 1002.73,-102.32 996.13,-100"/>
</a>
</g>
</g>
<!-- Node26&#45;&gt;Node13 -->
<g id="edge37_Node000026_Node000013" class="edge">
<title>Node26&#45;&gt;Node13</title>
<g id="a_edge37_Node000026_Node000013"><a xlink:title=" ">
<path fill="none" stroke="#63b8ff" d="M1716.44,-105.25C1726.46,-97.51 1737.49,-87.38 1744.8,-76 1756.24,-58.19 1760.98,-33.29 1762.8,-20.08"/>
<polygon fill="#63b8ff" stroke="#63b8ff" points="1714.67,-102.94 1708.66,-111.67 1718.8,-108.6 1714.67,-102.94"/>
</a>
</g>
</g>
<!-- Node27 -->
<g id="Node000027" class="node">
<title>Node27</title>
<g id="a_Node000027"><a xlink:href="examples_2websocket_2request__listener_8cpp.html" target="_top" xlink:title=" ">
<polygon fill="white" stroke="#666666" points="1735.3,-76 1536.3,-76 1536.3,-56 1735.3,-56 1735.3,-76"/>
<text text-anchor="middle" x="1635.8" y="-62.5" font-family="Helvetica,sans-Serif" font-size="10.00">examples/websocket/request_listener.cpp</text>
</a>
</g>
</g>
<!-- Node26&#45;&gt;Node27 -->
<g id="edge38_Node000026_Node000027" class="edge">
<title>Node26&#45;&gt;Node27</title>
<g id="a_edge38_Node000026_Node000027"><a xlink:title=" ">
<path fill="none" stroke="#63b8ff" d="M1674.99,-104.13C1665.3,-94.94 1653.67,-83.93 1645.62,-76.3"/>
<polygon fill="#63b8ff" stroke="#63b8ff" points="1672.21,-106.26 1681.87,-110.59 1677.02,-101.18 1672.21,-106.26"/>
</a>
</g>
</g>
<!-- Node28&#45;&gt;Node8 -->
<g id="edge49_Node000028_Node000008" class="edge">
<title>Node28&#45;&gt;Node8</title>
<g id="a_edge49_Node000028_Node000008"><a xlink:title=" ">
<path fill="none" stroke="#63b8ff" d="M1460.24,-220.66C1490.99,-211.44 1517.13,-195.47 1507.8,-168 1497.71,-138.29 1490.65,-129.79 1464.8,-112 1437.2,-93 1401.44,-81.88 1371.64,-75.45"/>
<polygon fill="#63b8ff" stroke="#63b8ff" points="1459.41,-217.53 1450.68,-223.54 1461.25,-224.29 1459.41,-217.53"/>
</a>
</g>
</g>
</g>
</svg>
