<?xml version="1.0" encoding="UTF-8" standalone="no"?>
<!DOCTYPE svg PUBLIC "-//W3C//DTD SVG 1.1//EN"
 "http://www.w3.org/Graphics/SVG/1.1/DTD/svg11.dtd">
<!-- Generated by graphviz version 2.44.1 (20211215.1903)
 -->
<!-- Title: include/roar/detail/stream_type.hpp Pages: 1 -->
<!--zoomable 364 -->
<svg id="main" version="1.1" xmlns="http://www.w3.org/2000/svg" xmlns:xlink="http://www.w3.org/1999/xlink" xml:space="preserve" onload="init(evt)">
<style type="text/css"><![CDATA[
.edge:hover path { stroke: red; }
.edge:hover polygon { stroke: red; fill: red; }
]]></style>
<script type="text/javascript"><![CDATA[
var edges = document.getElementsByTagName('g');
if (edges && edges.length) {
  for (var i=0;i<edges.length;i++) {
    if (edges[i].id.substr(0,4)=='edge') {
      edges[i].setAttribute('class','edge');
    }
  }
}
]]></script>
        <defs>
                <circle id="rim" cx="0" cy="0" r="7"/>
                <circle id="rim2" cx="0" cy="0" r="3.5"/>
                <g id="zoomPlus">
                        <use xlink:href="#rim" fill="#404040">
                                <set attributeName="fill" to="#808080" begin="zoomplus.mouseover" end="zoomplus.mouseout"/>
                        </use>
                        <path d="M-4,0h8M0,-4v8" fill="none" stroke="white" stroke-width="1.5" pointer-events="none"/>
                </g>
                <g id="zoomMin">
                        <use xlink:href="#rim" fill="#404040">
                                <set attributeName="fill" to="#808080" begin="zoomminus.mouseover" end="zoomminus.mouseout"/>
                        </use>
                        <path d="M-4,0h8" fill="none" stroke="white" stroke-width="1.5" pointer-events="none"/>
                </g>
                <g id="dirArrow">
                        <path fill="none" stroke="white" stroke-width="1.5" d="M0,-3.0v7 M-2.5,-0.5L0,-3.0L2.5,-0.5"/>
                </g>
               <g id="resetDef">
                       <use xlink:href="#rim2" fill="#404040">
                               <set attributeName="fill" to="#808080" begin="reset.mouseover" end="reset.mouseout"/>
                       </use>
               </g>
        </defs>

<script type="text/javascript">
var viewWidth = 2053;
var viewHeight = 364;
var sectionId = 'dynsection-1';
</script>
<script xlink:href="svgpan.js"/>
<svg id="graph" class="graph">
<g id="viewport">
<title>include/roar/detail/stream_type.hpp</title>
<!-- Node1 -->
<g id="node1" class="node">
<title>Node1</title>
<g id="a_node1"><a xlink:title=" ">
<polygon fill="#bfbfbf" stroke="black" points="1401.5,-336.5 1401.5,-355.5 1570.5,-355.5 1570.5,-336.5 1401.5,-336.5"/>
<text text-anchor="middle" x="1486" y="-343.5" font-family="Helvetica,sans-Serif" font-size="10.00">include/roar/detail/stream_type.hpp</text>
</a>
</g>
</g>
<!-- Node2 -->
<g id="node2" class="node">
<title>Node2</title>
<g id="a_node2"><a xlink:href="session_8hpp.html" target="_top" xlink:title=" ">
<polygon fill="none" stroke="black" points="1111.5,-168.5 1111.5,-187.5 1270.5,-187.5 1270.5,-168.5 1111.5,-168.5"/>
<text text-anchor="middle" x="1191" y="-175.5" font-family="Helvetica,sans-Serif" font-size="10.00">include/roar/session/session.hpp</text>
</a>
</g>
</g>
<!-- Node1&#45;&gt;Node2 -->
<g id="edge1" class="edge">
<title>Node1&#45;&gt;Node2</title>
<path fill="none" stroke="midnightblue" d="M1461.59,-331.27C1402.75,-298.15 1254.37,-214.66 1206.29,-187.61"/>
<polygon fill="midnightblue" stroke="midnightblue" points="1460.12,-334.46 1470.55,-336.31 1463.56,-328.35 1460.12,-334.46"/>
</g>
<!-- Node22 -->
<g id="node22" class="node">
<title>Node22</title>
<g id="a_node22"><a xlink:href="websocket__base_8hpp.html" target="_top" xlink:title=" ">
<polygon fill="none" stroke="black" points="1566,-280.5 1566,-299.5 1778,-299.5 1778,-280.5 1566,-280.5"/>
<text text-anchor="middle" x="1672" y="-287.5" font-family="Helvetica,sans-Serif" font-size="10.00">include/roar/websocket/websocket_base.hpp</text>
</a>
</g>
</g>
<!-- Node1&#45;&gt;Node22 -->
<g id="edge30" class="edge">
<title>Node1&#45;&gt;Node22</title>
<path fill="none" stroke="midnightblue" d="M1525.38,-333.57C1560.47,-323.38 1611.02,-308.7 1642.67,-299.52"/>
<polygon fill="midnightblue" stroke="midnightblue" points="1524.1,-330.29 1515.47,-336.44 1526.05,-337.02 1524.1,-330.29"/>
</g>
<!-- Node25 -->
<g id="node25" class="node">
<title>Node25</title>
<g id="a_node25"><a xlink:href="websocket__session_8hpp.html" target="_top" xlink:title=" ">
<polygon fill="none" stroke="black" points="1373.5,-224.5 1373.5,-243.5 1598.5,-243.5 1598.5,-224.5 1373.5,-224.5"/>
<text text-anchor="middle" x="1486" y="-231.5" font-family="Helvetica,sans-Serif" font-size="10.00">include/roar/websocket/websocket_session.hpp</text>
</a>
</g>
</g>
<!-- Node1&#45;&gt;Node25 -->
<g id="edge38" class="edge">
<title>Node1&#45;&gt;Node25</title>
<path fill="none" stroke="midnightblue" d="M1486,-326.35C1486,-302.25 1486,-261.31 1486,-243.59"/>
<polygon fill="midnightblue" stroke="midnightblue" points="1482.5,-326.37 1486,-336.37 1489.5,-326.37 1482.5,-326.37"/>
</g>
<!-- Node3 -->
<g id="node3" class="node">
<title>Node3</title>
<g id="a_node3"><a xlink:href="include_2roar_2routing_2request__listener_8hpp.html" target="_top" xlink:title=" ">
<polygon fill="none" stroke="black" points="586,-112.5 586,-131.5 776,-131.5 776,-112.5 586,-112.5"/>
<text text-anchor="middle" x="681" y="-119.5" font-family="Helvetica,sans-Serif" font-size="10.00">include/roar/routing/request_listener.hpp</text>
</a>
</g>
</g>
<!-- Node2&#45;&gt;Node3 -->
<g id="edge2" class="edge">
<title>Node2&#45;&gt;Node3</title>
<path fill="none" stroke="midnightblue" d="M1101.31,-167.5C1005.14,-157.32 853.82,-141.3 761.39,-131.51"/>
<polygon fill="midnightblue" stroke="midnightblue" points="1101,-170.99 1111.31,-168.56 1101.74,-164.03 1101,-170.99"/>
</g>
<!-- Node14 -->
<g id="node14" class="node">
<title>Node14</title>
<g id="a_node14"><a xlink:href="server_8hpp.html" target="_top" xlink:title=" ">
<polygon fill="none" stroke="black" points="939,-56.5 939,-75.5 1055,-75.5 1055,-56.5 939,-56.5"/>
<text text-anchor="middle" x="997" y="-63.5" font-family="Helvetica,sans-Serif" font-size="10.00">include/roar/server.hpp</text>
</a>
</g>
</g>
<!-- Node2&#45;&gt;Node14 -->
<g id="edge24" class="edge">
<title>Node2&#45;&gt;Node14</title>
<path fill="none" stroke="midnightblue" d="M1101.05,-172.15C998.07,-165.66 841.17,-152.52 823,-132 817.11,-125.34 817.56,-119.03 823,-112 831.05,-101.61 903.88,-85.4 952.73,-75.54"/>
<polygon fill="midnightblue" stroke="midnightblue" points="1100.95,-175.65 1111.15,-172.78 1101.38,-168.66 1100.95,-175.65"/>
</g>
<!-- Node17 -->
<g id="node17" class="node">
<title>Node17</title>
<g id="a_node17"><a xlink:href="server_8cpp.html" target="_top" xlink:title=" ">
<polygon fill="none" stroke="black" points="1197,-0.5 1197,-19.5 1295,-19.5 1295,-0.5 1197,-0.5"/>
<text text-anchor="middle" x="1246" y="-7.5" font-family="Helvetica,sans-Serif" font-size="10.00">src/roar/server.cpp</text>
</a>
</g>
</g>
<!-- Node2&#45;&gt;Node17 -->
<g id="edge27" class="edge">
<title>Node2&#45;&gt;Node17</title>
<path fill="none" stroke="midnightblue" d="M1280.67,-171.72C1339.95,-166.14 1410.1,-154.8 1429,-132 1434.67,-125.16 1433.52,-119.65 1429,-112 1397.64,-58.87 1327.23,-31.77 1283.46,-19.55"/>
<polygon fill="midnightblue" stroke="midnightblue" points="1280.15,-168.25 1270.5,-172.63 1280.77,-175.22 1280.15,-168.25"/>
</g>
<!-- Node18 -->
<g id="node18" class="node">
<title>Node18</title>
<g id="a_node18"><a xlink:href="route_8cpp.html" target="_top" xlink:title=" ">
<polygon fill="none" stroke="black" points="832.5,-112.5 832.5,-131.5 957.5,-131.5 957.5,-112.5 832.5,-112.5"/>
<text text-anchor="middle" x="895" y="-119.5" font-family="Helvetica,sans-Serif" font-size="10.00">src/roar/routing/route.cpp</text>
</a>
</g>
</g>
<!-- Node2&#45;&gt;Node18 -->
<g id="edge25" class="edge">
<title>Node2&#45;&gt;Node18</title>
<path fill="none" stroke="midnightblue" d="M1134,-166.6C1078.06,-156.4 993.77,-141.02 941.68,-131.52"/>
<polygon fill="midnightblue" stroke="midnightblue" points="1133.63,-170.09 1144.1,-168.44 1134.89,-163.21 1133.63,-170.09"/>
</g>
<!-- Node19 -->
<g id="node19" class="node">
<title>Node19</title>
<g id="a_node19"><a xlink:href="router_8cpp.html" target="_top" xlink:title=" ">
<polygon fill="none" stroke="black" points="976,-112.5 976,-131.5 1104,-131.5 1104,-112.5 976,-112.5"/>
<text text-anchor="middle" x="1040" y="-119.5" font-family="Helvetica,sans-Serif" font-size="10.00">src/roar/routing/router.cpp</text>
</a>
</g>
</g>
<!-- Node2&#45;&gt;Node19 -->
<g id="edge26" class="edge">
<title>Node2&#45;&gt;Node19</title>
<path fill="none" stroke="midnightblue" d="M1157.55,-165.04C1129.14,-154.88 1089.06,-140.55 1063.81,-131.52"/>
<polygon fill="midnightblue" stroke="midnightblue" points="1156.48,-168.37 1167.07,-168.44 1158.84,-161.78 1156.48,-168.37"/>
</g>
<!-- Node20 -->
<g id="node20" class="node">
<title>Node20</title>
<g id="a_node20"><a xlink:href="factory_8cpp.html" target="_top" xlink:title=" ">
<polygon fill="none" stroke="black" points="1122.5,-112.5 1122.5,-131.5 1259.5,-131.5 1259.5,-112.5 1122.5,-112.5"/>
<text text-anchor="middle" x="1191" y="-119.5" font-family="Helvetica,sans-Serif" font-size="10.00">src/roar/session/factory.cpp</text>
</a>
</g>
</g>
<!-- Node2&#45;&gt;Node20 -->
<g id="edge28" class="edge">
<title>Node2&#45;&gt;Node20</title>
<path fill="none" stroke="midnightblue" d="M1191,-157.8C1191,-148.91 1191,-138.78 1191,-131.75"/>
<polygon fill="midnightblue" stroke="midnightblue" points="1187.5,-158.08 1191,-168.08 1194.5,-158.08 1187.5,-158.08"/>
</g>
<!-- Node21 -->
<g id="node21" class="node">
<title>Node21</title>
<g id="a_node21"><a xlink:href="session_8cpp.html" target="_top" xlink:title=" ">
<polygon fill="none" stroke="black" points="1278,-112.5 1278,-131.5 1420,-131.5 1420,-112.5 1278,-112.5"/>
<text text-anchor="middle" x="1349" y="-119.5" font-family="Helvetica,sans-Serif" font-size="10.00">src/roar/session/session.cpp</text>
</a>
</g>
</g>
<!-- Node2&#45;&gt;Node21 -->
<g id="edge29" class="edge">
<title>Node2&#45;&gt;Node21</title>
<path fill="none" stroke="midnightblue" d="M1225.61,-165.17C1255.36,-155 1297.55,-140.59 1324.08,-131.52"/>
<polygon fill="midnightblue" stroke="midnightblue" points="1224.37,-161.9 1216.04,-168.44 1226.63,-168.52 1224.37,-161.9"/>
</g>
<!-- Node4 -->
<g id="node4" class="node">
<title>Node4</title>
<g id="a_node4"><a xlink:href="100__continue_2main_8cpp.html" target="_top" xlink:title=" ">
<polygon fill="none" stroke="black" points="228,-0.5 228,-19.5 390,-19.5 390,-0.5 228,-0.5"/>
<text text-anchor="middle" x="309" y="-7.5" font-family="Helvetica,sans-Serif" font-size="10.00">examples/100_continue/main.cpp</text>
</a>
</g>
</g>
<!-- Node3&#45;&gt;Node4 -->
<g id="edge3" class="edge">
<title>Node3&#45;&gt;Node4</title>
<path fill="none" stroke="midnightblue" d="M585.63,-111.1C537.97,-104.36 479.96,-93.4 430,-76 427.23,-75.03 357.07,-37.06 324.88,-19.61"/>
<polygon fill="midnightblue" stroke="midnightblue" points="585.25,-114.59 595.64,-112.48 586.21,-107.65 585.25,-114.59"/>
</g>
<!-- Node5 -->
<g id="node5" class="node">
<title>Node5</title>
<g id="a_node5"><a xlink:href="examples_2100__continue_2request__listener_8hpp.html" target="_top" xlink:title=" ">
<polygon fill="none" stroke="black" points="173,-56.5 173,-75.5 383,-75.5 383,-56.5 173,-56.5"/>
<text text-anchor="middle" x="278" y="-63.5" font-family="Helvetica,sans-Serif" font-size="10.00">examples/100_continue/request_listener.hpp</text>
</a>
</g>
</g>
<!-- Node3&#45;&gt;Node5 -->
<g id="edge4" class="edge">
<title>Node3&#45;&gt;Node5</title>
<path fill="none" stroke="midnightblue" d="M607.15,-111.1C531.05,-100.91 413.65,-85.18 341.56,-75.52"/>
<polygon fill="midnightblue" stroke="midnightblue" points="606.77,-114.58 617.14,-112.44 607.7,-107.65 606.77,-114.58"/>
</g>
<!-- Node7 -->
<g id="node7" class="node">
<title>Node7</title>
<g id="a_node7"><a xlink:href="request__listener_2main_8cpp.html" target="_top" xlink:title=" ">
<polygon fill="none" stroke="black" points="747.5,-56.5 747.5,-75.5 920.5,-75.5 920.5,-56.5 747.5,-56.5"/>
<text text-anchor="middle" x="834" y="-63.5" font-family="Helvetica,sans-Serif" font-size="10.00">examples/request_listener/main.cpp</text>
</a>
</g>
</g>
<!-- Node3&#45;&gt;Node7 -->
<g id="edge7" class="edge">
<title>Node3&#45;&gt;Node7</title>
<path fill="none" stroke="midnightblue" d="M714.89,-109.04C743.68,-98.88 784.29,-84.55 809.87,-75.52"/>
<polygon fill="midnightblue" stroke="midnightblue" points="713.51,-105.81 705.24,-112.44 715.84,-112.42 713.51,-105.81"/>
</g>
<!-- Node8 -->
<g id="node8" class="node">
<title>Node8</title>
<g id="a_node8"><a xlink:href="simple__server_2main_8cpp.html" target="_top" xlink:title=" ">
<polygon fill="none" stroke="black" points="639.5,-0.5 639.5,-19.5 804.5,-19.5 804.5,-0.5 639.5,-0.5"/>
<text text-anchor="middle" x="722" y="-7.5" font-family="Helvetica,sans-Serif" font-size="10.00">examples/simple_server/main.cpp</text>
</a>
</g>
</g>
<!-- Node3&#45;&gt;Node8 -->
<g id="edge8" class="edge">
<title>Node3&#45;&gt;Node8</title>
<path fill="none" stroke="midnightblue" d="M687.78,-102.51C692.57,-89.5 699.15,-71.67 705,-56 709.73,-43.33 715.28,-28.67 718.72,-19.62"/>
<polygon fill="midnightblue" stroke="midnightblue" points="684.4,-101.57 684.24,-112.16 690.97,-103.98 684.4,-101.57"/>
</g>
<!-- Node9 -->
<g id="node9" class="node">
<title>Node9</title>
<g id="a_node9"><a xlink:href="examples_2simple__server_2request__listener_8hpp.html" target="_top" xlink:title=" ">
<polygon fill="none" stroke="black" points="439.5,-56.5 439.5,-75.5 652.5,-75.5 652.5,-56.5 439.5,-56.5"/>
<text text-anchor="middle" x="546" y="-63.5" font-family="Helvetica,sans-Serif" font-size="10.00">examples/simple_server/request_listener.hpp</text>
</a>
</g>
</g>
<!-- Node3&#45;&gt;Node9 -->
<g id="edge9" class="edge">
<title>Node3&#45;&gt;Node9</title>
<path fill="none" stroke="midnightblue" d="M650.09,-108.64C624.76,-98.5 589.57,-84.43 567.29,-75.52"/>
<polygon fill="midnightblue" stroke="midnightblue" points="649.02,-111.98 659.61,-112.44 651.62,-105.48 649.02,-111.98"/>
</g>
<!-- Node11 -->
<g id="node11" class="node">
<title>Node11</title>
<g id="a_node11"><a xlink:href="websocket_2main_8cpp.html" target="_top" xlink:title=" ">
<polygon fill="none" stroke="black" points="1313,-0.5 1313,-19.5 1465,-19.5 1465,-0.5 1313,-0.5"/>
<text text-anchor="middle" x="1389" y="-7.5" font-family="Helvetica,sans-Serif" font-size="10.00">examples/websocket/main.cpp</text>
</a>
</g>
</g>
<!-- Node3&#45;&gt;Node11 -->
<g id="edge12" class="edge">
<title>Node3&#45;&gt;Node11</title>
<path fill="none" stroke="midnightblue" d="M781.28,-111.45C858.72,-103.53 968.44,-91.14 1064,-76 1168.57,-59.43 1290.72,-33.1 1351.15,-19.6"/>
<polygon fill="midnightblue" stroke="midnightblue" points="780.64,-107.99 771.05,-112.49 781.35,-114.96 780.64,-107.99"/>
</g>
<!-- Node12 -->
<g id="node12" class="node">
<title>Node12</title>
<g id="a_node12"><a xlink:href="examples_2websocket_2request__listener_8hpp.html" target="_top" xlink:title=" ">
<polygon fill="none" stroke="black" points="1417,-56.5 1417,-75.5 1617,-75.5 1617,-56.5 1417,-56.5"/>
<text text-anchor="middle" x="1517" y="-63.5" font-family="Helvetica,sans-Serif" font-size="10.00">examples/websocket/request_listener.hpp</text>
</a>
</g>
</g>
<!-- Node3&#45;&gt;Node12 -->
<g id="edge13" class="edge">
<title>Node3&#45;&gt;Node12</title>
<path fill="none" stroke="midnightblue" d="M786.42,-114.3C798.75,-113.52 811.15,-112.74 823,-112 1080.77,-95.83 1145.37,-94.16 1403,-76 1407.55,-75.68 1412.21,-75.34 1416.91,-75"/>
<polygon fill="midnightblue" stroke="midnightblue" points="785.85,-110.83 776.1,-114.96 786.3,-117.82 785.85,-110.83"/>
</g>
<!-- Node3&#45;&gt;Node14 -->
<g id="edge16" class="edge">
<title>Node3&#45;&gt;Node14</title>
<path fill="none" stroke="midnightblue" d="M741.11,-110.73C800.83,-100.52 891.33,-85.06 947.16,-75.52"/>
<polygon fill="midnightblue" stroke="midnightblue" points="740.34,-107.31 731.07,-112.44 741.52,-114.21 740.34,-107.31"/>
</g>
<!-- Node16 -->
<g id="node16" class="node">
<title>Node16</title>
<g id="a_node16"><a xlink:href="src_2roar_2routing_2request__listener_8cpp.html" target="_top" xlink:title=" ">
<polygon fill="none" stroke="black" points="822.5,-0.5 822.5,-19.5 995.5,-19.5 995.5,-0.5 822.5,-0.5"/>
<text text-anchor="middle" x="909" y="-7.5" font-family="Helvetica,sans-Serif" font-size="10.00">src/roar/routing/request_listener.cpp</text>
</a>
</g>
</g>
<!-- Node3&#45;&gt;Node16 -->
<g id="edge23" class="edge">
<title>Node3&#45;&gt;Node16</title>
<path fill="none" stroke="midnightblue" d="M691.86,-103.65C702.02,-88.83 718.53,-68.05 738,-56 768.8,-36.94 807.54,-25.89 840.35,-19.52"/>
<polygon fill="midnightblue" stroke="midnightblue" points="688.69,-102.09 686.13,-112.37 694.54,-105.93 688.69,-102.09"/>
</g>
<!-- Node5&#45;&gt;Node4 -->
<g id="edge5" class="edge">
<title>Node5&#45;&gt;Node4</title>
<path fill="none" stroke="midnightblue" d="M288.18,-47.27C293.47,-38.05 299.72,-27.17 303.98,-19.75"/>
<polygon fill="midnightblue" stroke="midnightblue" points="285.06,-45.67 283.12,-56.08 291.13,-49.15 285.06,-45.67"/>
</g>
<!-- Node6 -->
<g id="node6" class="node">
<title>Node6</title>
<g id="a_node6"><a xlink:href="examples_2100__continue_2request__listener_8cpp.html" target="_top" xlink:title=" ">
<polygon fill="none" stroke="black" points="0,-0.5 0,-19.5 210,-19.5 210,-0.5 0,-0.5"/>
<text text-anchor="middle" x="105" y="-7.5" font-family="Helvetica,sans-Serif" font-size="10.00">examples/100_continue/request_listener.cpp</text>
</a>
</g>
</g>
<!-- Node5&#45;&gt;Node6 -->
<g id="edge6" class="edge">
<title>Node5&#45;&gt;Node6</title>
<path fill="none" stroke="midnightblue" d="M240.95,-53.44C208.34,-43.26 161.59,-28.66 132.28,-19.52"/>
<polygon fill="midnightblue" stroke="midnightblue" points="240,-56.8 250.59,-56.44 242.08,-50.12 240,-56.8"/>
</g>
<!-- Node9&#45;&gt;Node8 -->
<g id="edge10" class="edge">
<title>Node9&#45;&gt;Node8</title>
<path fill="none" stroke="midnightblue" d="M583.69,-53.44C616.87,-43.26 664.43,-28.66 694.24,-19.52"/>
<polygon fill="midnightblue" stroke="midnightblue" points="582.42,-50.16 573.89,-56.44 584.47,-56.86 582.42,-50.16"/>
</g>
<!-- Node10 -->
<g id="node10" class="node">
<title>Node10</title>
<g id="a_node10"><a xlink:href="examples_2simple__server_2request__listener_8cpp.html" target="_top" xlink:title=" ">
<polygon fill="none" stroke="black" points="408.5,-0.5 408.5,-19.5 621.5,-19.5 621.5,-0.5 408.5,-0.5"/>
<text text-anchor="middle" x="515" y="-7.5" font-family="Helvetica,sans-Serif" font-size="10.00">examples/simple_server/request_listener.cpp</text>
</a>
</g>
</g>
<!-- Node9&#45;&gt;Node10 -->
<g id="edge11" class="edge">
<title>Node9&#45;&gt;Node10</title>
<path fill="none" stroke="midnightblue" d="M535.82,-47.27C530.53,-38.05 524.28,-27.17 520.02,-19.75"/>
<polygon fill="midnightblue" stroke="midnightblue" points="532.87,-49.15 540.88,-56.08 538.94,-45.67 532.87,-49.15"/>
</g>
<!-- Node12&#45;&gt;Node11 -->
<g id="edge14" class="edge">
<title>Node12&#45;&gt;Node11</title>
<path fill="none" stroke="midnightblue" d="M1487.38,-52.5C1463.38,-42.38 1430.22,-28.39 1409.19,-19.52"/>
<polygon fill="midnightblue" stroke="midnightblue" points="1486.14,-55.78 1496.72,-56.44 1488.86,-49.33 1486.14,-55.78"/>
</g>
<!-- Node13 -->
<g id="node13" class="node">
<title>Node13</title>
<g id="a_node13"><a xlink:href="examples_2websocket_2request__listener_8cpp.html" target="_top" xlink:title=" ">
<polygon fill="none" stroke="black" points="1483,-0.5 1483,-19.5 1683,-19.5 1683,-0.5 1483,-0.5"/>
<text text-anchor="middle" x="1583" y="-7.5" font-family="Helvetica,sans-Serif" font-size="10.00">examples/websocket/request_listener.cpp</text>
</a>
</g>
</g>
<!-- Node12&#45;&gt;Node13 -->
<g id="edge15" class="edge">
<title>Node12&#45;&gt;Node13</title>
<path fill="none" stroke="midnightblue" d="M1535.55,-49.82C1547.38,-40.15 1562.29,-27.95 1572.2,-19.83"/>
<polygon fill="midnightblue" stroke="midnightblue" points="1533.13,-47.28 1527.6,-56.32 1537.56,-52.7 1533.13,-47.28"/>
</g>
<!-- Node14&#45;&gt;Node4 -->
<g id="edge17" class="edge">
<title>Node14&#45;&gt;Node4</title>
<path fill="none" stroke="midnightblue" d="M928.5,-56.02C692.35,-32.7 630.94,-39.47 399,-20 396.18,-19.76 393.32,-19.52 390.42,-19.26"/>
<polygon fill="midnightblue" stroke="midnightblue" points="928.49,-59.54 938.79,-57.05 929.19,-52.57 928.49,-59.54"/>
</g>
<!-- Node14&#45;&gt;Node8 -->
<g id="edge19" class="edge">
<title>Node14&#45;&gt;Node8</title>
<path fill="none" stroke="midnightblue" d="M943.39,-54.47C891.42,-44.27 813.56,-28.98 765.37,-19.52"/>
<polygon fill="midnightblue" stroke="midnightblue" points="942.94,-57.95 953.43,-56.44 944.29,-51.08 942.94,-57.95"/>
</g>
<!-- Node14&#45;&gt;Node11 -->
<g id="edge20" class="edge">
<title>Node14&#45;&gt;Node11</title>
<path fill="none" stroke="midnightblue" d="M1065.4,-55.58C1139.28,-45.4 1255.96,-29.33 1327.18,-19.52"/>
<polygon fill="midnightblue" stroke="midnightblue" points="1064.69,-52.14 1055.26,-56.97 1065.65,-59.08 1064.69,-52.14"/>
</g>
<!-- Node15 -->
<g id="node15" class="node">
<title>Node15</title>
<g id="a_node15"><a xlink:href="most__minimal_2main_8cpp.html" target="_top" xlink:title=" ">
<polygon fill="none" stroke="black" points="1013.5,-0.5 1013.5,-19.5 1178.5,-19.5 1178.5,-0.5 1013.5,-0.5"/>
<text text-anchor="middle" x="1096" y="-7.5" font-family="Helvetica,sans-Serif" font-size="10.00">examples/most_minimal/main.cpp</text>
</a>
</g>
</g>
<!-- Node14&#45;&gt;Node15 -->
<g id="edge18" class="edge">
<title>Node14&#45;&gt;Node15</title>
<path fill="none" stroke="midnightblue" d="M1021.84,-51.45C1040.11,-41.48 1064.42,-28.23 1080.13,-19.65"/>
<polygon fill="midnightblue" stroke="midnightblue" points="1020.01,-48.46 1012.91,-56.32 1023.36,-54.61 1020.01,-48.46"/>
</g>
<!-- Node14&#45;&gt;Node16 -->
<g id="edge21" class="edge">
<title>Node14&#45;&gt;Node16</title>
<path fill="none" stroke="midnightblue" d="M974.02,-50.9C957.89,-41 936.82,-28.07 923.1,-19.65"/>
<polygon fill="midnightblue" stroke="midnightblue" points="972.51,-54.08 982.86,-56.32 976.17,-48.11 972.51,-54.08"/>
</g>
<!-- Node14&#45;&gt;Node17 -->
<g id="edge22" class="edge">
<title>Node14&#45;&gt;Node17</title>
<path fill="none" stroke="midnightblue" d="M1046.42,-54.28C1093.48,-44.08 1163.37,-28.92 1206.73,-19.52"/>
<polygon fill="midnightblue" stroke="midnightblue" points="1045.49,-50.9 1036.45,-56.44 1046.97,-57.74 1045.49,-50.9"/>
</g>
<!-- Node23 -->
<g id="node23" class="node">
<title>Node23</title>
<g id="a_node23"><a xlink:href="websocket__client_8hpp.html" target="_top" xlink:title=" ">
<polygon fill="none" stroke="black" points="1616.5,-224.5 1616.5,-243.5 1831.5,-243.5 1831.5,-224.5 1616.5,-224.5"/>
<text text-anchor="middle" x="1724" y="-231.5" font-family="Helvetica,sans-Serif" font-size="10.00">include/roar/websocket/websocket_client.hpp</text>
</a>
</g>
</g>
<!-- Node22&#45;&gt;Node23 -->
<g id="edge31" class="edge">
<title>Node22&#45;&gt;Node23</title>
<path fill="none" stroke="midnightblue" d="M1687.68,-272.72C1696.84,-263.2 1708.05,-251.56 1715.57,-243.75"/>
<polygon fill="midnightblue" stroke="midnightblue" points="1685,-270.45 1680.59,-280.08 1690.04,-275.31 1685,-270.45"/>
</g>
<!-- Node22&#45;&gt;Node25 -->
<g id="edge33" class="edge">
<title>Node22&#45;&gt;Node25</title>
<path fill="none" stroke="midnightblue" d="M1632.62,-277.57C1597.53,-267.38 1546.98,-252.7 1515.33,-243.52"/>
<polygon fill="midnightblue" stroke="midnightblue" points="1631.95,-281.02 1642.53,-280.44 1633.9,-274.29 1631.95,-281.02"/>
</g>
<!-- Node27 -->
<g id="node27" class="node">
<title>Node27</title>
<g id="a_node27"><a xlink:href="websocket__base_8cpp.html" target="_top" xlink:title=" ">
<polygon fill="none" stroke="black" points="1849.5,-224.5 1849.5,-243.5 2044.5,-243.5 2044.5,-224.5 1849.5,-224.5"/>
<text text-anchor="middle" x="1947" y="-231.5" font-family="Helvetica,sans-Serif" font-size="10.00">src/roar/websocket/websocket_base.cpp</text>
</a>
</g>
</g>
<!-- Node22&#45;&gt;Node27 -->
<g id="edge37" class="edge">
<title>Node22&#45;&gt;Node27</title>
<path fill="none" stroke="midnightblue" d="M1725.61,-278.47C1777.58,-268.27 1855.44,-252.98 1903.63,-243.52"/>
<polygon fill="midnightblue" stroke="midnightblue" points="1724.71,-275.08 1715.57,-280.44 1726.06,-281.95 1724.71,-275.08"/>
</g>
<!-- Node24 -->
<g id="node24" class="node">
<title>Node24</title>
<g id="a_node24"><a xlink:href="websocket__client_8cpp.html" target="_top" xlink:title=" ">
<polygon fill="none" stroke="black" points="1740.5,-168.5 1740.5,-187.5 1937.5,-187.5 1937.5,-168.5 1740.5,-168.5"/>
<text text-anchor="middle" x="1839" y="-175.5" font-family="Helvetica,sans-Serif" font-size="10.00">src/roar/websocket/websocket_client.cpp</text>
</a>
</g>
</g>
<!-- Node23&#45;&gt;Node24 -->
<g id="edge32" class="edge">
<title>Node23&#45;&gt;Node24</title>
<path fill="none" stroke="midnightblue" d="M1751.48,-220.1C1772.97,-210.01 1802.22,-196.27 1820.86,-187.52"/>
<polygon fill="midnightblue" stroke="midnightblue" points="1749.79,-217.02 1742.22,-224.44 1752.76,-223.36 1749.79,-217.02"/>
</g>
<!-- Node25&#45;&gt;Node2 -->
<g id="edge35" class="edge">
<title>Node25&#45;&gt;Node2</title>
<path fill="none" stroke="midnightblue" d="M1429.19,-222.6C1373.44,-212.4 1289.44,-197.02 1237.52,-187.52"/>
<polygon fill="midnightblue" stroke="midnightblue" points="1428.79,-226.09 1439.26,-224.44 1430.05,-219.2 1428.79,-226.09"/>
</g>
<!-- Node25&#45;&gt;Node12 -->
<g id="edge34" class="edge">
<title>Node25&#45;&gt;Node12</title>
<path fill="none" stroke="midnightblue" d="M1489.56,-213.93C1496.29,-177.92 1510.61,-101.23 1515.4,-75.57"/>
<polygon fill="midnightblue" stroke="midnightblue" points="1486.06,-213.6 1487.67,-224.08 1492.94,-214.89 1486.06,-213.6"/>
</g>
<!-- Node26 -->
<g id="node26" class="node">
<title>Node26</title>
<g id="a_node26"><a xlink:href="websocket__session_8cpp.html" target="_top" xlink:title=" ">
<polygon fill="none" stroke="black" points="1514,-168.5 1514,-187.5 1722,-187.5 1722,-168.5 1514,-168.5"/>
<text text-anchor="middle" x="1618" y="-175.5" font-family="Helvetica,sans-Serif" font-size="10.00">src/roar/websocket/websocket_session.cpp</text>
</a>
</g>
</g>
<!-- Node25&#45;&gt;Node26 -->
<g id="edge36" class="edge">
<title>Node25&#45;&gt;Node26</title>
<path fill="none" stroke="midnightblue" d="M1516.22,-220.64C1540.99,-210.5 1575.4,-196.43 1597.18,-187.52"/>
<polygon fill="midnightblue" stroke="midnightblue" points="1514.85,-217.42 1506.92,-224.44 1517.5,-223.9 1514.85,-217.42"/>
</g>
</g>
</svg>
        <g id="navigator" transform="translate(0 0)" fill="#404254">
                <rect fill="#f2f5e9" fill-opacity="0.5" stroke="#606060" stroke-width=".5" x="0" y="0" width="60" height="60"/>
                <use id="zoomplus" xlink:href="#zoomPlus" x="17" y="9" onmousedown="handleZoom(evt,'in')"/>
                <use id="zoomminus" xlink:href="#zoomMin" x="42" y="9" onmousedown="handleZoom(evt,'out')"/>
                <use id="reset" xlink:href="#resetDef" x="30" y="36" onmousedown="handleReset()"/>
                <g id="arrowUp" xlink:href="#dirArrow" transform="translate(30 24)" onmousedown="handlePan(0,-1)">
                  <use xlink:href="#rim" fill="#404040">
                        <set attributeName="fill" to="#808080" begin="arrowUp.mouseover" end="arrowUp.mouseout"/>
                  </use>
                  <path fill="none" stroke="white" stroke-width="1.5" d="M0,-3.0v7 M-2.5,-0.5L0,-3.0L2.5,-0.5"/>
                </g>
                <g id="arrowRight" xlink:href="#dirArrow" transform="rotate(90) translate(36 -43)" onmousedown="handlePan(1,0)">
                  <use xlink:href="#rim" fill="#404040">
                        <set attributeName="fill" to="#808080" begin="arrowRight.mouseover" end="arrowRight.mouseout"/>
                  </use>
                  <path fill="none" stroke="white" stroke-width="1.5" d="M0,-3.0v7 M-2.5,-0.5L0,-3.0L2.5,-0.5"/>
                </g>
                <g id="arrowDown" xlink:href="#dirArrow" transform="rotate(180) translate(-30 -48)" onmousedown="handlePan(0,1)">
                  <use xlink:href="#rim" fill="#404040">
                        <set attributeName="fill" to="#808080" begin="arrowDown.mouseover" end="arrowDown.mouseout"/>
                  </use>
                  <path fill="none" stroke="white" stroke-width="1.5" d="M0,-3.0v7 M-2.5,-0.5L0,-3.0L2.5,-0.5"/>
                </g>
                <g id="arrowLeft" xlink:href="#dirArrow" transform="rotate(270) translate(-36 17)" onmousedown="handlePan(-1,0)">
                  <use xlink:href="#rim" fill="#404040">
                        <set attributeName="fill" to="#808080" begin="arrowLeft.mouseover" end="arrowLeft.mouseout"/>
                  </use>
                  <path fill="none" stroke="white" stroke-width="1.5" d="M0,-3.0v7 M-2.5,-0.5L0,-3.0L2.5,-0.5"/>
                </g>
        </g>
        <svg viewBox="0 0 15 15" width="100%" height="30px" preserveAspectRatio="xMaxYMin meet">
         <g id="arrow_out" transform="scale(0.3 0.3)">
          <a xlink:href="stream__type_8hpp__dep__incl_org.svg" target="_base">
           <rect id="button" ry="5" rx="5" y="6" x="6" height="38" width="38"
                fill="#f2f5e9" fill-opacity="0.5" stroke="#606060" stroke-width="1.0"/>
           <path id="arrow"
             d="M 11.500037,31.436501 C 11.940474,20.09759 22.043105,11.32322 32.158766,21.979434 L 37.068811,17.246167 C 37.068811,17.246167 37.088388,32 37.088388,32 L 22.160133,31.978069 C 22.160133,31.978069 26.997745,27.140456 26.997745,27.140456 C 18.528582,18.264221 13.291696,25.230495 11.500037,31.436501 z"
             style="fill:#404040;"/>
          </a>
         </g>
        </svg>
</svg>
