<?xml version="1.0" encoding="UTF-8" standalone="no"?>
<!DOCTYPE svg PUBLIC "-//W3C//DTD SVG 1.1//EN"
 "http://www.w3.org/Graphics/SVG/1.1/DTD/svg11.dtd">
<!-- Generated by graphviz version 2.44.1 (20211215.1903)
 -->
<!-- Title: include/roar/detail/stream_type.hpp Pages: 1 -->
<!--zoomable 420 -->
<svg id="main" version="1.1" xmlns="http://www.w3.org/2000/svg" xmlns:xlink="http://www.w3.org/1999/xlink" xml:space="preserve" onload="init(evt)">
<style type="text/css"><![CDATA[
.edge:hover path { stroke: red; }
.edge:hover polygon { stroke: red; fill: red; }
]]></style>
<script type="text/javascript"><![CDATA[
var edges = document.getElementsByTagName('g');
if (edges && edges.length) {
  for (var i=0;i<edges.length;i++) {
    if (edges[i].id.substr(0,4)=='edge') {
      edges[i].setAttribute('class','edge');
    }
  }
}
]]></script>
        <defs>
                <circle id="rim" cx="0" cy="0" r="7"/>
                <circle id="rim2" cx="0" cy="0" r="3.5"/>
                <g id="zoomPlus">
                        <use xlink:href="#rim" fill="#404040">
                                <set attributeName="fill" to="#808080" begin="zoomplus.mouseover" end="zoomplus.mouseout"/>
                        </use>
                        <path d="M-4,0h8M0,-4v8" fill="none" stroke="white" stroke-width="1.5" pointer-events="none"/>
                </g>
                <g id="zoomMin">
                        <use xlink:href="#rim" fill="#404040">
                                <set attributeName="fill" to="#808080" begin="zoomminus.mouseover" end="zoomminus.mouseout"/>
                        </use>
                        <path d="M-4,0h8" fill="none" stroke="white" stroke-width="1.5" pointer-events="none"/>
                </g>
                <g id="dirArrow">
                        <path fill="none" stroke="white" stroke-width="1.5" d="M0,-3.0v7 M-2.5,-0.5L0,-3.0L2.5,-0.5"/>
                </g>
               <g id="resetDef">
                       <use xlink:href="#rim2" fill="#404040">
                               <set attributeName="fill" to="#808080" begin="reset.mouseover" end="reset.mouseout"/>
                       </use>
               </g>
        </defs>

<script type="text/javascript">
var viewWidth = 2105;
var viewHeight = 420;
var sectionId = 'dynsection-1';
</script>
<script xlink:href="svgpan.js"/>
<svg id="graph" class="graph">
<g id="viewport">
<title>include/roar/detail/stream_type.hpp</title>
<!-- Node1 -->
<g id="node1" class="node">
<title>Node1</title>
<g id="a_node1"><a xlink:title=" ">
<polygon fill="#bfbfbf" stroke="black" points="1454.36,-392.5 1454.36,-411.5 1623.36,-411.5 1623.36,-392.5 1454.36,-392.5"/>
<text text-anchor="middle" x="1538.86" y="-399.5" font-family="Helvetica,sans-Serif" font-size="10.00">include/roar/detail/stream_type.hpp</text>
</a>
</g>
</g>
<!-- Node2 -->
<g id="node2" class="node">
<title>Node2</title>
<g id="a_node2"><a xlink:href="session_8hpp.html" target="_top" xlink:title=" ">
<polygon fill="none" stroke="black" points="1257.36,-224.5 1257.36,-243.5 1416.36,-243.5 1416.36,-224.5 1257.36,-224.5"/>
<text text-anchor="middle" x="1336.86" y="-231.5" font-family="Helvetica,sans-Serif" font-size="10.00">include/roar/session/session.hpp</text>
</a>
</g>
</g>
<!-- Node1&#45;&gt;Node2 -->
<g id="edge1" class="edge">
<title>Node1&#45;&gt;Node2</title>
<path fill="none" stroke="midnightblue" d="M1520.36,-385.8C1478.93,-351.75 1379.77,-270.27 1347.33,-243.61"/>
<polygon fill="midnightblue" stroke="midnightblue" points="1518.33,-388.66 1528.28,-392.31 1522.78,-383.26 1518.33,-388.66"/>
</g>
<!-- Node25 -->
<g id="node25" class="node">
<title>Node25</title>
<g id="a_node25"><a xlink:href="websocket__base_8hpp.html" target="_top" xlink:title=" ">
<polygon fill="none" stroke="black" points="1618.86,-336.5 1618.86,-355.5 1830.86,-355.5 1830.86,-336.5 1618.86,-336.5"/>
<text text-anchor="middle" x="1724.86" y="-343.5" font-family="Helvetica,sans-Serif" font-size="10.00">include/roar/websocket/websocket_base.hpp</text>
</a>
</g>
</g>
<!-- Node1&#45;&gt;Node25 -->
<g id="edge37" class="edge">
<title>Node1&#45;&gt;Node25</title>
<path fill="none" stroke="midnightblue" d="M1578.23,-389.57C1613.32,-379.38 1663.88,-364.7 1695.52,-355.52"/>
<polygon fill="midnightblue" stroke="midnightblue" points="1576.95,-386.29 1568.33,-392.44 1578.91,-393.02 1576.95,-386.29"/>
</g>
<!-- Node28 -->
<g id="node28" class="node">
<title>Node28</title>
<g id="a_node28"><a xlink:href="websocket__session_8hpp.html" target="_top" xlink:title=" ">
<polygon fill="none" stroke="black" points="1426.36,-280.5 1426.36,-299.5 1651.36,-299.5 1651.36,-280.5 1426.36,-280.5"/>
<text text-anchor="middle" x="1538.86" y="-287.5" font-family="Helvetica,sans-Serif" font-size="10.00">include/roar/websocket/websocket_session.hpp</text>
</a>
</g>
</g>
<!-- Node1&#45;&gt;Node28 -->
<g id="edge45" class="edge">
<title>Node1&#45;&gt;Node28</title>
<path fill="none" stroke="midnightblue" d="M1538.86,-382.35C1538.86,-358.25 1538.86,-317.31 1538.86,-299.59"/>
<polygon fill="midnightblue" stroke="midnightblue" points="1535.36,-382.37 1538.86,-392.37 1542.36,-382.37 1535.36,-382.37"/>
</g>
<!-- Node3 -->
<g id="node3" class="node">
<title>Node3</title>
<g id="a_node3"><a xlink:href="directory__server_8hpp.html" target="_top" xlink:title=" ">
<polygon fill="none" stroke="black" points="954.36,-112.5 954.36,-131.5 1185.36,-131.5 1185.36,-112.5 954.36,-112.5"/>
<text text-anchor="middle" x="1069.86" y="-119.5" font-family="Helvetica,sans-Serif" font-size="10.00">include/roar/directory_server/directory_server.hpp</text>
</a>
</g>
</g>
<!-- Node2&#45;&gt;Node3 -->
<g id="edge2" class="edge">
<title>Node2&#45;&gt;Node3</title>
<path fill="none" stroke="midnightblue" d="M1362.54,-219.18C1383.78,-205.99 1408.17,-185.6 1392.86,-168 1378.92,-151.98 1270.42,-139.29 1182.96,-131.52"/>
<polygon fill="midnightblue" stroke="midnightblue" points="1360.59,-216.26 1353.76,-224.35 1364.15,-222.29 1360.59,-216.26"/>
</g>
<!-- Node4 -->
<g id="node4" class="node">
<title>Node4</title>
<g id="a_node4"><a xlink:href="server_8hpp.html" target="_top" xlink:title=" ">
<polygon fill="none" stroke="black" points="963.86,-56.5 963.86,-75.5 1079.86,-75.5 1079.86,-56.5 963.86,-56.5"/>
<text text-anchor="middle" x="1021.86" y="-63.5" font-family="Helvetica,sans-Serif" font-size="10.00">include/roar/server.hpp</text>
</a>
</g>
</g>
<!-- Node2&#45;&gt;Node4 -->
<g id="edge31" class="edge">
<title>Node2&#45;&gt;Node4</title>
<path fill="none" stroke="midnightblue" d="M1369.51,-220.34C1395.81,-208.23 1425.95,-188.8 1409.86,-168 1370.79,-117.53 1332.62,-148.06 1270.86,-132 1193.24,-111.82 1102.05,-87.98 1054.48,-75.54"/>
<polygon fill="midnightblue" stroke="midnightblue" points="1367.85,-217.24 1360.09,-224.45 1370.65,-223.66 1367.85,-217.24"/>
</g>
<!-- Node11 -->
<g id="node11" class="node">
<title>Node11</title>
<g id="a_node11"><a xlink:href="server_8cpp.html" target="_top" xlink:title=" ">
<polygon fill="none" stroke="black" points="1412.86,-0.5 1412.86,-19.5 1510.86,-19.5 1510.86,-0.5 1412.86,-0.5"/>
<text text-anchor="middle" x="1461.86" y="-7.5" font-family="Helvetica,sans-Serif" font-size="10.00">src/roar/server.cpp</text>
</a>
</g>
</g>
<!-- Node2&#45;&gt;Node11 -->
<g id="edge34" class="edge">
<title>Node2&#45;&gt;Node11</title>
<path fill="none" stroke="midnightblue" d="M1375.49,-220.88C1413.29,-206.58 1468.13,-178.65 1488.86,-132 1502.57,-101.13 1497.87,-88.55 1488.86,-56 1485.01,-42.13 1475.63,-28.24 1469.01,-19.64"/>
<polygon fill="midnightblue" stroke="midnightblue" points="1374,-217.7 1365.8,-224.39 1376.39,-224.28 1374,-217.7"/>
</g>
<!-- Node12 -->
<g id="node12" class="node">
<title>Node12</title>
<g id="a_node12"><a xlink:href="include_2roar_2routing_2request__listener_8hpp.html" target="_top" xlink:title=" ">
<polygon fill="none" stroke="black" points="587.86,-168.5 587.86,-187.5 777.86,-187.5 777.86,-168.5 587.86,-168.5"/>
<text text-anchor="middle" x="682.86" y="-175.5" font-family="Helvetica,sans-Serif" font-size="10.00">include/roar/routing/request_listener.hpp</text>
</a>
</g>
</g>
<!-- Node2&#45;&gt;Node12 -->
<g id="edge11" class="edge">
<title>Node2&#45;&gt;Node12</title>
<path fill="none" stroke="midnightblue" d="M1246.86,-225.77C1137.93,-216.98 948.93,-201.64 786.86,-188 783.97,-187.76 781.03,-187.51 778.07,-187.26"/>
<polygon fill="midnightblue" stroke="midnightblue" points="1246.9,-229.28 1257.15,-226.6 1247.46,-222.3 1246.9,-229.28"/>
</g>
<!-- Node21 -->
<g id="node21" class="node">
<title>Node21</title>
<g id="a_node21"><a xlink:href="route_8cpp.html" target="_top" xlink:title=" ">
<polygon fill="none" stroke="black" points="796.36,-168.5 796.36,-187.5 921.36,-187.5 921.36,-168.5 796.36,-168.5"/>
<text text-anchor="middle" x="858.86" y="-175.5" font-family="Helvetica,sans-Serif" font-size="10.00">src/roar/routing/route.cpp</text>
</a>
</g>
</g>
<!-- Node2&#45;&gt;Node21 -->
<g id="edge32" class="edge">
<title>Node2&#45;&gt;Node21</title>
<path fill="none" stroke="midnightblue" d="M1247.01,-223.41C1164.72,-214.53 1039.54,-200.82 930.86,-188 927.85,-187.65 924.78,-187.28 921.68,-186.91"/>
<polygon fill="midnightblue" stroke="midnightblue" points="1246.77,-226.9 1257.08,-224.49 1247.52,-219.94 1246.77,-226.9"/>
</g>
<!-- Node22 -->
<g id="node22" class="node">
<title>Node22</title>
<g id="a_node22"><a xlink:href="router_8cpp.html" target="_top" xlink:title=" ">
<polygon fill="none" stroke="black" points="939.86,-168.5 939.86,-187.5 1067.86,-187.5 1067.86,-168.5 939.86,-168.5"/>
<text text-anchor="middle" x="1003.86" y="-175.5" font-family="Helvetica,sans-Serif" font-size="10.00">src/roar/routing/router.cpp</text>
</a>
</g>
</g>
<!-- Node2&#45;&gt;Node22 -->
<g id="edge33" class="edge">
<title>Node2&#45;&gt;Node22</title>
<path fill="none" stroke="midnightblue" d="M1273.9,-222.79C1210.97,-212.59 1115.34,-197.08 1056.37,-187.52"/>
<polygon fill="midnightblue" stroke="midnightblue" points="1273.66,-226.3 1284.09,-224.44 1274.78,-219.39 1273.66,-226.3"/>
</g>
<!-- Node23 -->
<g id="node23" class="node">
<title>Node23</title>
<g id="a_node23"><a xlink:href="factory_8cpp.html" target="_top" xlink:title=" ">
<polygon fill="none" stroke="black" points="1086.36,-168.5 1086.36,-187.5 1223.36,-187.5 1223.36,-168.5 1086.36,-168.5"/>
<text text-anchor="middle" x="1154.86" y="-175.5" font-family="Helvetica,sans-Serif" font-size="10.00">src/roar/session/factory.cpp</text>
</a>
</g>
</g>
<!-- Node2&#45;&gt;Node23 -->
<g id="edge35" class="edge">
<title>Node2&#45;&gt;Node23</title>
<path fill="none" stroke="midnightblue" d="M1298.32,-221.57C1263.99,-211.38 1214.52,-196.7 1183.56,-187.52"/>
<polygon fill="midnightblue" stroke="midnightblue" points="1297.43,-224.95 1308.02,-224.44 1299.43,-218.24 1297.43,-224.95"/>
</g>
<!-- Node24 -->
<g id="node24" class="node">
<title>Node24</title>
<g id="a_node24"><a xlink:href="session_8cpp.html" target="_top" xlink:title=" ">
<polygon fill="none" stroke="black" points="1241.86,-168.5 1241.86,-187.5 1383.86,-187.5 1383.86,-168.5 1241.86,-168.5"/>
<text text-anchor="middle" x="1312.86" y="-175.5" font-family="Helvetica,sans-Serif" font-size="10.00">src/roar/session/session.cpp</text>
</a>
</g>
</g>
<!-- Node2&#45;&gt;Node24 -->
<g id="edge36" class="edge">
<title>Node2&#45;&gt;Node24</title>
<path fill="none" stroke="midnightblue" d="M1328.72,-214.69C1324.67,-205.59 1319.97,-195.01 1316.74,-187.75"/>
<polygon fill="midnightblue" stroke="midnightblue" points="1325.63,-216.37 1332.89,-224.08 1332.03,-213.52 1325.63,-216.37"/>
</g>
<!-- Node3&#45;&gt;Node4 -->
<g id="edge3" class="edge">
<title>Node3&#45;&gt;Node4</title>
<path fill="none" stroke="midnightblue" d="M1055.13,-104.43C1046.71,-94.97 1036.51,-83.48 1029.63,-75.75"/>
<polygon fill="midnightblue" stroke="midnightblue" points="1052.67,-106.93 1061.93,-112.08 1057.9,-102.28 1052.67,-106.93"/>
</g>
<!-- Node5 -->
<g id="node5" class="node">
<title>Node5</title>
<g id="a_node5"><a xlink:href="100__continue_2main_8cpp.html" target="_top" xlink:title=" ">
<polygon fill="none" stroke="black" points="448.86,-0.5 448.86,-19.5 610.86,-19.5 610.86,-0.5 448.86,-0.5"/>
<text text-anchor="middle" x="529.86" y="-7.5" font-family="Helvetica,sans-Serif" font-size="10.00">examples/100_continue/main.cpp</text>
</a>
</g>
</g>
<!-- Node4&#45;&gt;Node5 -->
<g id="edge4" class="edge">
<title>Node4&#45;&gt;Node5</title>
<path fill="none" stroke="midnightblue" d="M953.3,-57.48C862.49,-47.51 702.74,-29.98 607.56,-19.53"/>
<polygon fill="midnightblue" stroke="midnightblue" points="953.16,-60.98 963.48,-58.59 953.93,-54.02 953.16,-60.98"/>
</g>
<!-- Node6 -->
<g id="node6" class="node">
<title>Node6</title>
<g id="a_node6"><a xlink:href="most__minimal_2main_8cpp.html" target="_top" xlink:title=" ">
<polygon fill="none" stroke="black" points="1003.36,-0.5 1003.36,-19.5 1168.36,-19.5 1168.36,-0.5 1003.36,-0.5"/>
<text text-anchor="middle" x="1085.86" y="-7.5" font-family="Helvetica,sans-Serif" font-size="10.00">examples/most_minimal/main.cpp</text>
</a>
</g>
</g>
<!-- Node4&#45;&gt;Node6 -->
<g id="edge5" class="edge">
<title>Node4&#45;&gt;Node6</title>
<path fill="none" stroke="midnightblue" d="M1039.85,-49.82C1051.31,-40.15 1065.77,-27.95 1075.39,-19.83"/>
<polygon fill="midnightblue" stroke="midnightblue" points="1037.52,-47.2 1032.14,-56.32 1042.04,-52.55 1037.52,-47.2"/>
</g>
<!-- Node7 -->
<g id="node7" class="node">
<title>Node7</title>
<g id="a_node7"><a xlink:href="serve__directory_2main_8cpp.html" target="_top" xlink:title=" ">
<polygon fill="none" stroke="black" points="152.36,-0.5 152.36,-19.5 323.36,-19.5 323.36,-0.5 152.36,-0.5"/>
<text text-anchor="middle" x="237.86" y="-7.5" font-family="Helvetica,sans-Serif" font-size="10.00">examples/serve_directory/main.cpp</text>
</a>
</g>
</g>
<!-- Node4&#45;&gt;Node7 -->
<g id="edge6" class="edge">
<title>Node4&#45;&gt;Node7</title>
<path fill="none" stroke="midnightblue" d="M953.18,-60.27C810.06,-50.41 480.19,-27.69 323.5,-16.9"/>
<polygon fill="midnightblue" stroke="midnightblue" points="953.35,-63.79 963.57,-60.99 953.83,-56.81 953.35,-63.79"/>
</g>
<!-- Node8 -->
<g id="node8" class="node">
<title>Node8</title>
<g id="a_node8"><a xlink:href="simple__server_2main_8cpp.html" target="_top" xlink:title=" ">
<polygon fill="none" stroke="black" points="629.36,-0.5 629.36,-19.5 794.36,-19.5 794.36,-0.5 629.36,-0.5"/>
<text text-anchor="middle" x="711.86" y="-7.5" font-family="Helvetica,sans-Serif" font-size="10.00">examples/simple_server/main.cpp</text>
</a>
</g>
</g>
<!-- Node4&#45;&gt;Node8 -->
<g id="edge7" class="edge">
<title>Node4&#45;&gt;Node8</title>
<path fill="none" stroke="midnightblue" d="M962.52,-54.66C903.94,-44.46 815.41,-29.04 760.75,-19.52"/>
<polygon fill="midnightblue" stroke="midnightblue" points="962.28,-58.18 972.73,-56.44 963.48,-51.28 962.28,-58.18"/>
</g>
<!-- Node9 -->
<g id="node9" class="node">
<title>Node9</title>
<g id="a_node9"><a xlink:href="websocket_2main_8cpp.html" target="_top" xlink:title=" ">
<polygon fill="none" stroke="black" points="1186.86,-0.5 1186.86,-19.5 1338.86,-19.5 1338.86,-0.5 1186.86,-0.5"/>
<text text-anchor="middle" x="1262.86" y="-7.5" font-family="Helvetica,sans-Serif" font-size="10.00">examples/websocket/main.cpp</text>
</a>
</g>
</g>
<!-- Node4&#45;&gt;Node9 -->
<g id="edge8" class="edge">
<title>Node4&#45;&gt;Node9</title>
<path fill="none" stroke="midnightblue" d="M1069.98,-54.22C1115.52,-44.01 1182.97,-28.9 1224.85,-19.52"/>
<polygon fill="midnightblue" stroke="midnightblue" points="1069.03,-50.84 1060.04,-56.44 1070.57,-57.67 1069.03,-50.84"/>
</g>
<!-- Node10 -->
<g id="node10" class="node">
<title>Node10</title>
<g id="a_node10"><a xlink:href="src_2roar_2routing_2request__listener_8cpp.html" target="_top" xlink:title=" ">
<polygon fill="none" stroke="black" points="812.36,-0.5 812.36,-19.5 985.36,-19.5 985.36,-0.5 812.36,-0.5"/>
<text text-anchor="middle" x="898.86" y="-7.5" font-family="Helvetica,sans-Serif" font-size="10.00">src/roar/routing/request_listener.cpp</text>
</a>
</g>
</g>
<!-- Node4&#45;&gt;Node10 -->
<g id="edge9" class="edge">
<title>Node4&#45;&gt;Node10</title>
<path fill="none" stroke="midnightblue" d="M993.08,-52.37C970.05,-42.26 938.37,-28.35 918.25,-19.52"/>
<polygon fill="midnightblue" stroke="midnightblue" points="991.8,-55.63 1002.37,-56.44 994.62,-49.22 991.8,-55.63"/>
</g>
<!-- Node4&#45;&gt;Node11 -->
<g id="edge10" class="edge">
<title>Node4&#45;&gt;Node11</title>
<path fill="none" stroke="midnightblue" d="M1090.32,-56.6C1179.72,-45.63 1334.04,-26.69 1412.69,-17.03"/>
<polygon fill="midnightblue" stroke="midnightblue" points="1089.78,-53.14 1080.28,-57.83 1090.64,-60.08 1089.78,-53.14"/>
</g>
<!-- Node12&#45;&gt;Node3 -->
<g id="edge28" class="edge">
<title>Node12&#45;&gt;Node3</title>
<path fill="none" stroke="midnightblue" d="M754.22,-167.04C827.31,-156.84 939.73,-141.16 1008.82,-131.52"/>
<polygon fill="midnightblue" stroke="midnightblue" points="753.6,-163.6 744.18,-168.44 754.56,-170.53 753.6,-163.6"/>
</g>
<!-- Node12&#45;&gt;Node4 -->
<g id="edge29" class="edge">
<title>Node12&#45;&gt;Node4</title>
<path fill="none" stroke="midnightblue" d="M759.94,-166.84C802.61,-159.81 856.11,-148.68 901.86,-132 923.23,-124.21 980.04,-91.54 1007.11,-75.7"/>
<polygon fill="midnightblue" stroke="midnightblue" points="759.22,-163.41 749.9,-168.45 760.33,-170.32 759.22,-163.41"/>
</g>
<!-- Node12&#45;&gt;Node5 -->
<g id="edge12" class="edge">
<title>Node12&#45;&gt;Node5</title>
<path fill="none" stroke="midnightblue" d="M624.66,-165.57C603.99,-158.89 582.09,-148.39 566.86,-132 536.2,-99.01 530.91,-41.26 530.03,-19.57"/>
<polygon fill="midnightblue" stroke="midnightblue" points="623.78,-168.96 634.36,-168.47 625.78,-162.25 623.78,-168.96"/>
</g>
<!-- Node12&#45;&gt;Node7 -->
<g id="edge19" class="edge">
<title>Node12&#45;&gt;Node7</title>
<path fill="none" stroke="midnightblue" d="M577.13,-174.52C478.83,-170.49 340.85,-159.89 294.86,-132 253.55,-106.96 241.74,-42.73 238.76,-19.53"/>
<polygon fill="midnightblue" stroke="midnightblue" points="577.29,-178.03 587.42,-174.93 577.56,-171.04 577.29,-178.03"/>
</g>
<!-- Node12&#45;&gt;Node8 -->
<g id="edge20" class="edge">
<title>Node12&#45;&gt;Node8</title>
<path fill="none" stroke="midnightblue" d="M744.47,-165.46C764.21,-158.82 784.41,-148.38 797.86,-132 813.89,-112.46 805.62,-101.18 807.86,-76 808.64,-67.15 812.62,-63.5 807.86,-56 795.81,-37.05 773.44,-25.94 753.33,-19.5"/>
<polygon fill="midnightblue" stroke="midnightblue" points="743.37,-162.14 734.85,-168.43 745.44,-168.83 743.37,-162.14"/>
</g>
<!-- Node12&#45;&gt;Node9 -->
<g id="edge24" class="edge">
<title>Node12&#45;&gt;Node9</title>
<path fill="none" stroke="midnightblue" d="M788.24,-167.87C937.54,-154.92 1192.79,-132.68 1193.86,-132 1235.99,-104.98 1255.1,-42.54 1260.87,-19.63"/>
<polygon fill="midnightblue" stroke="midnightblue" points="787.78,-164.4 778.12,-168.75 788.39,-171.37 787.78,-164.4"/>
</g>
<!-- Node12&#45;&gt;Node10 -->
<g id="edge30" class="edge">
<title>Node12&#45;&gt;Node10</title>
<path fill="none" stroke="midnightblue" d="M742.09,-165.94C766.97,-159.17 795.12,-148.51 816.86,-132 858.28,-100.53 885.94,-41.87 895.32,-19.75"/>
<polygon fill="midnightblue" stroke="midnightblue" points="741.19,-162.56 732.38,-168.44 742.93,-169.34 741.19,-162.56"/>
</g>
<!-- Node13 -->
<g id="node13" class="node">
<title>Node13</title>
<g id="a_node13"><a xlink:href="examples_2100__continue_2request__listener_8hpp.html" target="_top" xlink:title=" ">
<polygon fill="none" stroke="black" points="303.86,-112.5 303.86,-131.5 513.86,-131.5 513.86,-112.5 303.86,-112.5"/>
<text text-anchor="middle" x="408.86" y="-119.5" font-family="Helvetica,sans-Serif" font-size="10.00">examples/100_continue/request_listener.hpp</text>
</a>
</g>
</g>
<!-- Node12&#45;&gt;Node13 -->
<g id="edge13" class="edge">
<title>Node12&#45;&gt;Node13</title>
<path fill="none" stroke="midnightblue" d="M629.44,-166.47C577.66,-156.27 500.08,-140.98 452.07,-131.52"/>
<polygon fill="midnightblue" stroke="midnightblue" points="628.95,-169.94 639.44,-168.44 630.3,-163.08 628.95,-169.94"/>
</g>
<!-- Node15 -->
<g id="node15" class="node">
<title>Node15</title>
<g id="a_node15"><a xlink:href="file__server_8hpp.html" target="_top" xlink:title=" ">
<polygon fill="none" stroke="black" points="15.36,-112.5 15.36,-131.5 210.36,-131.5 210.36,-112.5 15.36,-112.5"/>
<text text-anchor="middle" x="112.86" y="-119.5" font-family="Helvetica,sans-Serif" font-size="10.00">examples/serve_directory/file_server.hpp</text>
</a>
</g>
</g>
<!-- Node12&#45;&gt;Node15 -->
<g id="edge16" class="edge">
<title>Node12&#45;&gt;Node15</title>
<path fill="none" stroke="midnightblue" d="M582.65,-167.51C475.21,-157.33 306.19,-141.32 202.86,-131.53"/>
<polygon fill="midnightblue" stroke="midnightblue" points="582.57,-171.01 592.85,-168.47 583.23,-164.05 582.57,-171.01"/>
</g>
<!-- Node17 -->
<g id="node17" class="node">
<title>Node17</title>
<g id="a_node17"><a xlink:href="examples_2simple__server_2request__listener_8hpp.html" target="_top" xlink:title=" ">
<polygon fill="none" stroke="black" points="576.36,-112.5 576.36,-131.5 789.36,-131.5 789.36,-112.5 576.36,-112.5"/>
<text text-anchor="middle" x="682.86" y="-119.5" font-family="Helvetica,sans-Serif" font-size="10.00">examples/simple_server/request_listener.hpp</text>
</a>
</g>
</g>
<!-- Node12&#45;&gt;Node17 -->
<g id="edge21" class="edge">
<title>Node12&#45;&gt;Node17</title>
<path fill="none" stroke="midnightblue" d="M682.86,-157.8C682.86,-148.91 682.86,-138.78 682.86,-131.75"/>
<polygon fill="midnightblue" stroke="midnightblue" points="679.36,-158.08 682.86,-168.08 686.36,-158.08 679.36,-158.08"/>
</g>
<!-- Node19 -->
<g id="node19" class="node">
<title>Node19</title>
<g id="a_node19"><a xlink:href="examples_2websocket_2request__listener_8hpp.html" target="_top" xlink:title=" ">
<polygon fill="none" stroke="black" points="1279.86,-112.5 1279.86,-131.5 1479.86,-131.5 1479.86,-112.5 1279.86,-112.5"/>
<text text-anchor="middle" x="1379.86" y="-119.5" font-family="Helvetica,sans-Serif" font-size="10.00">examples/websocket/request_listener.hpp</text>
</a>
</g>
</g>
<!-- Node12&#45;&gt;Node19 -->
<g id="edge25" class="edge">
<title>Node12&#45;&gt;Node19</title>
<path fill="none" stroke="midnightblue" d="M788.21,-167.9C967.45,-153.38 1163.89,-138.76 1279.63,-130.28"/>
<polygon fill="midnightblue" stroke="midnightblue" points="787.75,-164.42 778.07,-168.72 788.32,-171.4 787.75,-164.42"/>
</g>
<!-- Node13&#45;&gt;Node5 -->
<g id="edge14" class="edge">
<title>Node13&#45;&gt;Node5</title>
<path fill="none" stroke="midnightblue" d="M437.16,-107.98C452.37,-100.11 470.82,-89.07 484.86,-76 503.13,-58.97 518.17,-33.3 525.33,-19.89"/>
<polygon fill="midnightblue" stroke="midnightblue" points="435.56,-104.87 428.17,-112.46 438.68,-111.13 435.56,-104.87"/>
</g>
<!-- Node14 -->
<g id="node14" class="node">
<title>Node14</title>
<g id="a_node14"><a xlink:href="examples_2100__continue_2request__listener_8cpp.html" target="_top" xlink:title=" ">
<polygon fill="none" stroke="black" points="265.86,-56.5 265.86,-75.5 475.86,-75.5 475.86,-56.5 265.86,-56.5"/>
<text text-anchor="middle" x="370.86" y="-63.5" font-family="Helvetica,sans-Serif" font-size="10.00">examples/100_continue/request_listener.cpp</text>
</a>
</g>
</g>
<!-- Node13&#45;&gt;Node14 -->
<g id="edge15" class="edge">
<title>Node13&#45;&gt;Node14</title>
<path fill="none" stroke="midnightblue" d="M396.79,-103.86C390.21,-94.5 382.34,-83.33 377.01,-75.75"/>
<polygon fill="midnightblue" stroke="midnightblue" points="393.96,-105.92 402.58,-112.08 399.69,-101.89 393.96,-105.92"/>
</g>
<!-- Node15&#45;&gt;Node7 -->
<g id="edge18" class="edge">
<title>Node15&#45;&gt;Node7</title>
<path fill="none" stroke="midnightblue" d="M62.41,-109.75C25.46,-99.17 -14.9,-81.17 5.86,-56 24.42,-33.49 93.99,-22.1 152.14,-16.42"/>
<polygon fill="midnightblue" stroke="midnightblue" points="61.62,-113.16 72.19,-112.41 63.46,-106.41 61.62,-113.16"/>
</g>
<!-- Node16 -->
<g id="node16" class="node">
<title>Node16</title>
<g id="a_node16"><a xlink:href="file__server_8cpp.html" target="_top" xlink:title=" ">
<polygon fill="none" stroke="black" points="15.36,-56.5 15.36,-75.5 210.36,-75.5 210.36,-56.5 15.36,-56.5"/>
<text text-anchor="middle" x="112.86" y="-63.5" font-family="Helvetica,sans-Serif" font-size="10.00">examples/serve_directory/file_server.cpp</text>
</a>
</g>
</g>
<!-- Node15&#45;&gt;Node16 -->
<g id="edge17" class="edge">
<title>Node15&#45;&gt;Node16</title>
<path fill="none" stroke="midnightblue" d="M112.86,-101.8C112.86,-92.91 112.86,-82.78 112.86,-75.75"/>
<polygon fill="midnightblue" stroke="midnightblue" points="109.36,-102.08 112.86,-112.08 116.36,-102.08 109.36,-102.08"/>
</g>
<!-- Node17&#45;&gt;Node8 -->
<g id="edge22" class="edge">
<title>Node17&#45;&gt;Node8</title>
<path fill="none" stroke="midnightblue" d="M744.67,-109.34C762.94,-102.7 780.95,-92.3 791.86,-76 808.77,-50.71 767.94,-30.35 738.6,-19.52"/>
<polygon fill="midnightblue" stroke="midnightblue" points="743.54,-106.03 735.13,-112.48 745.73,-112.68 743.54,-106.03"/>
</g>
<!-- Node18 -->
<g id="node18" class="node">
<title>Node18</title>
<g id="a_node18"><a xlink:href="examples_2simple__server_2request__listener_8cpp.html" target="_top" xlink:title=" ">
<polygon fill="none" stroke="black" points="570.36,-56.5 570.36,-75.5 783.36,-75.5 783.36,-56.5 570.36,-56.5"/>
<text text-anchor="middle" x="676.86" y="-63.5" font-family="Helvetica,sans-Serif" font-size="10.00">examples/simple_server/request_listener.cpp</text>
</a>
</g>
</g>
<!-- Node17&#45;&gt;Node18 -->
<g id="edge23" class="edge">
<title>Node17&#45;&gt;Node18</title>
<path fill="none" stroke="midnightblue" d="M680.76,-102.1C679.76,-93.14 678.62,-82.86 677.83,-75.75"/>
<polygon fill="midnightblue" stroke="midnightblue" points="677.28,-102.53 681.86,-112.08 684.24,-101.76 677.28,-102.53"/>
</g>
<!-- Node19&#45;&gt;Node9 -->
<g id="edge26" class="edge">
<title>Node19&#45;&gt;Node9</title>
<path fill="none" stroke="midnightblue" d="M1321.63,-109.4C1302.64,-102.74 1283.27,-92.3 1270.86,-76 1258.18,-59.36 1259.59,-33.06 1261.39,-19.58"/>
<polygon fill="midnightblue" stroke="midnightblue" points="1320.59,-112.74 1331.18,-112.46 1322.73,-106.07 1320.59,-112.74"/>
</g>
<!-- Node20 -->
<g id="node20" class="node">
<title>Node20</title>
<g id="a_node20"><a xlink:href="examples_2websocket_2request__listener_8cpp.html" target="_top" xlink:title=" ">
<polygon fill="none" stroke="black" points="1279.86,-56.5 1279.86,-75.5 1479.86,-75.5 1479.86,-56.5 1279.86,-56.5"/>
<text text-anchor="middle" x="1379.86" y="-63.5" font-family="Helvetica,sans-Serif" font-size="10.00">examples/websocket/request_listener.cpp</text>
</a>
</g>
</g>
<!-- Node19&#45;&gt;Node20 -->
<g id="edge27" class="edge">
<title>Node19&#45;&gt;Node20</title>
<path fill="none" stroke="midnightblue" d="M1379.86,-101.8C1379.86,-92.91 1379.86,-82.78 1379.86,-75.75"/>
<polygon fill="midnightblue" stroke="midnightblue" points="1376.36,-102.08 1379.86,-112.08 1383.36,-102.08 1376.36,-102.08"/>
</g>
<!-- Node26 -->
<g id="node26" class="node">
<title>Node26</title>
<g id="a_node26"><a xlink:href="websocket__client_8hpp.html" target="_top" xlink:title=" ">
<polygon fill="none" stroke="black" points="1669.36,-280.5 1669.36,-299.5 1884.36,-299.5 1884.36,-280.5 1669.36,-280.5"/>
<text text-anchor="middle" x="1776.86" y="-287.5" font-family="Helvetica,sans-Serif" font-size="10.00">include/roar/websocket/websocket_client.hpp</text>
</a>
</g>
</g>
<!-- Node25&#45;&gt;Node26 -->
<g id="edge38" class="edge">
<title>Node25&#45;&gt;Node26</title>
<path fill="none" stroke="midnightblue" d="M1740.53,-328.72C1749.7,-319.2 1760.91,-307.56 1768.43,-299.75"/>
<polygon fill="midnightblue" stroke="midnightblue" points="1737.86,-326.45 1733.44,-336.08 1742.9,-331.31 1737.86,-326.45"/>
</g>
<!-- Node25&#45;&gt;Node28 -->
<g id="edge40" class="edge">
<title>Node25&#45;&gt;Node28</title>
<path fill="none" stroke="midnightblue" d="M1685.48,-333.57C1650.39,-323.38 1599.83,-308.7 1568.19,-299.52"/>
<polygon fill="midnightblue" stroke="midnightblue" points="1684.8,-337.02 1695.38,-336.44 1686.76,-330.29 1684.8,-337.02"/>
</g>
<!-- Node30 -->
<g id="node30" class="node">
<title>Node30</title>
<g id="a_node30"><a xlink:href="websocket__base_8cpp.html" target="_top" xlink:title=" ">
<polygon fill="none" stroke="black" points="1902.36,-280.5 1902.36,-299.5 2097.36,-299.5 2097.36,-280.5 1902.36,-280.5"/>
<text text-anchor="middle" x="1999.86" y="-287.5" font-family="Helvetica,sans-Serif" font-size="10.00">src/roar/websocket/websocket_base.cpp</text>
</a>
</g>
</g>
<!-- Node25&#45;&gt;Node30 -->
<g id="edge44" class="edge">
<title>Node25&#45;&gt;Node30</title>
<path fill="none" stroke="midnightblue" d="M1778.46,-334.47C1830.44,-324.27 1908.29,-308.98 1956.48,-299.52"/>
<polygon fill="midnightblue" stroke="midnightblue" points="1777.57,-331.08 1768.43,-336.44 1778.92,-337.95 1777.57,-331.08"/>
</g>
<!-- Node27 -->
<g id="node27" class="node">
<title>Node27</title>
<g id="a_node27"><a xlink:href="websocket__client_8cpp.html" target="_top" xlink:title=" ">
<polygon fill="none" stroke="black" points="1793.36,-224.5 1793.36,-243.5 1990.36,-243.5 1990.36,-224.5 1793.36,-224.5"/>
<text text-anchor="middle" x="1891.86" y="-231.5" font-family="Helvetica,sans-Serif" font-size="10.00">src/roar/websocket/websocket_client.cpp</text>
</a>
</g>
</g>
<!-- Node26&#45;&gt;Node27 -->
<g id="edge39" class="edge">
<title>Node26&#45;&gt;Node27</title>
<path fill="none" stroke="midnightblue" d="M1804.34,-276.1C1825.82,-266.01 1855.08,-252.27 1873.72,-243.52"/>
<polygon fill="midnightblue" stroke="midnightblue" points="1802.64,-273.02 1795.08,-280.44 1805.62,-279.36 1802.64,-273.02"/>
</g>
<!-- Node28&#45;&gt;Node2 -->
<g id="edge42" class="edge">
<title>Node28&#45;&gt;Node2</title>
<path fill="none" stroke="midnightblue" d="M1497.07,-277.83C1458.93,-267.63 1403.37,-252.78 1368.71,-243.52"/>
<polygon fill="midnightblue" stroke="midnightblue" points="1496.28,-281.24 1506.85,-280.44 1498.09,-274.48 1496.28,-281.24"/>
</g>
<!-- Node28&#45;&gt;Node19 -->
<g id="edge41" class="edge">
<title>Node28&#45;&gt;Node19</title>
<path fill="none" stroke="midnightblue" d="M1531.39,-271.09C1520,-245.53 1496.16,-198.33 1463.86,-168 1446.25,-151.47 1421.4,-139.16 1403.3,-131.63"/>
<polygon fill="midnightblue" stroke="midnightblue" points="1528.2,-272.53 1535.38,-280.32 1534.63,-269.75 1528.2,-272.53"/>
</g>
<!-- Node29 -->
<g id="node29" class="node">
<title>Node29</title>
<g id="a_node29"><a xlink:href="websocket__session_8cpp.html" target="_top" xlink:title=" ">
<polygon fill="none" stroke="black" points="1566.86,-224.5 1566.86,-243.5 1774.86,-243.5 1774.86,-224.5 1566.86,-224.5"/>
<text text-anchor="middle" x="1670.86" y="-231.5" font-family="Helvetica,sans-Serif" font-size="10.00">src/roar/websocket/websocket_session.cpp</text>
</a>
</g>
</g>
<!-- Node28&#45;&gt;Node29 -->
<g id="edge43" class="edge">
<title>Node28&#45;&gt;Node29</title>
<path fill="none" stroke="midnightblue" d="M1569.07,-276.64C1593.85,-266.5 1628.25,-252.43 1650.04,-243.52"/>
<polygon fill="midnightblue" stroke="midnightblue" points="1567.7,-273.42 1559.77,-280.44 1570.35,-279.9 1567.7,-273.42"/>
</g>
</g>
</svg>
        <g id="navigator" transform="translate(0 0)" fill="#404254">
                <rect fill="#f2f5e9" fill-opacity="0.5" stroke="#606060" stroke-width=".5" x="0" y="0" width="60" height="60"/>
                <use id="zoomplus" xlink:href="#zoomPlus" x="17" y="9" onmousedown="handleZoom(evt,'in')"/>
                <use id="zoomminus" xlink:href="#zoomMin" x="42" y="9" onmousedown="handleZoom(evt,'out')"/>
                <use id="reset" xlink:href="#resetDef" x="30" y="36" onmousedown="handleReset()"/>
                <g id="arrowUp" xlink:href="#dirArrow" transform="translate(30 24)" onmousedown="handlePan(0,-1)">
                  <use xlink:href="#rim" fill="#404040">
                        <set attributeName="fill" to="#808080" begin="arrowUp.mouseover" end="arrowUp.mouseout"/>
                  </use>
                  <path fill="none" stroke="white" stroke-width="1.5" d="M0,-3.0v7 M-2.5,-0.5L0,-3.0L2.5,-0.5"/>
                </g>
                <g id="arrowRight" xlink:href="#dirArrow" transform="rotate(90) translate(36 -43)" onmousedown="handlePan(1,0)">
                  <use xlink:href="#rim" fill="#404040">
                        <set attributeName="fill" to="#808080" begin="arrowRight.mouseover" end="arrowRight.mouseout"/>
                  </use>
                  <path fill="none" stroke="white" stroke-width="1.5" d="M0,-3.0v7 M-2.5,-0.5L0,-3.0L2.5,-0.5"/>
                </g>
                <g id="arrowDown" xlink:href="#dirArrow" transform="rotate(180) translate(-30 -48)" onmousedown="handlePan(0,1)">
                  <use xlink:href="#rim" fill="#404040">
                        <set attributeName="fill" to="#808080" begin="arrowDown.mouseover" end="arrowDown.mouseout"/>
                  </use>
                  <path fill="none" stroke="white" stroke-width="1.5" d="M0,-3.0v7 M-2.5,-0.5L0,-3.0L2.5,-0.5"/>
                </g>
                <g id="arrowLeft" xlink:href="#dirArrow" transform="rotate(270) translate(-36 17)" onmousedown="handlePan(-1,0)">
                  <use xlink:href="#rim" fill="#404040">
                        <set attributeName="fill" to="#808080" begin="arrowLeft.mouseover" end="arrowLeft.mouseout"/>
                  </use>
                  <path fill="none" stroke="white" stroke-width="1.5" d="M0,-3.0v7 M-2.5,-0.5L0,-3.0L2.5,-0.5"/>
                </g>
        </g>
        <svg viewBox="0 0 15 15" width="100%" height="30px" preserveAspectRatio="xMaxYMin meet">
         <g id="arrow_out" transform="scale(0.3 0.3)">
          <a xlink:href="stream__type_8hpp__dep__incl_org.svg" target="_base">
           <rect id="button" ry="5" rx="5" y="6" x="6" height="38" width="38"
                fill="#f2f5e9" fill-opacity="0.5" stroke="#606060" stroke-width="1.0"/>
           <path id="arrow"
             d="M 11.500037,31.436501 C 11.940474,20.09759 22.043105,11.32322 32.158766,21.979434 L 37.068811,17.246167 C 37.068811,17.246167 37.088388,32 37.088388,32 L 22.160133,31.978069 C 22.160133,31.978069 26.997745,27.140456 26.997745,27.140456 C 18.528582,18.264221 13.291696,25.230495 11.500037,31.436501 z"
             style="fill:#404040;"/>
          </a>
         </g>
        </svg>
</svg>
