<?xml version="1.0" encoding="UTF-8" standalone="no"?>
<!DOCTYPE svg PUBLIC "-//W3C//DTD SVG 1.1//EN"
 "http://www.w3.org/Graphics/SVG/1.1/DTD/svg11.dtd">
<!-- Generated by graphviz version 8.1.0 (0)
 -->
<!-- Title: include/roar/detail/stream_type.hpp Pages: 1 -->
<!--zoomable 420 -->

<svg id="main" version="1.1" xmlns="http://www.w3.org/2000/svg" xmlns:xlink="http://www.w3.org/1999/xlink" xml:space="preserve" onload="init(evt)">
<style type="text/css"><![CDATA[
.node, .edge {opacity: 0.7;}
.node.selected, .edge.selected {opacity: 1;}
.edge:hover path { stroke: red; }
.edge:hover polygon { stroke: red; fill: red; }
]]></style>

<defs>
  <circle id="rim" cx="0" cy="0" r="7"/>
  <circle id="rim2" cx="0" cy="0" r="3.5"/>
  <g id="zoomPlus">
    <use xlink:href="#rim" fill="#404040"><set attributeName="fill" to="#808080" begin="zoomplus.mouseover" end="zoomplus.mouseout"/></use>
    <path d="M-4,0h8M0,-4v8" fill="none" stroke="white" stroke-width="1.5" pointer-events="none"/>
  </g>
  <g id="zoomMin">
    <use xlink:href="#rim" fill="#404040"><set attributeName="fill" to="#808080" begin="zoomminus.mouseover" end="zoomminus.mouseout"/></use>
    <path d="M-4,0h8" fill="none" stroke="white" stroke-width="1.5" pointer-events="none"/>
  </g>
  <g id="arrowUp" transform="translate(30 24)">
    <use xlink:href="#rim"/>
    <path pointer-events="none" fill="none" stroke="white" stroke-width="1.5" d="M0,-3.0v7 M-2.5,-0.5L0,-3.0L2.5,-0.5"/>
  </g>
  <g id="arrowRight" transform="rotate(90) translate(36 -43)">
    <use xlink:href="#rim"/>
    <path pointer-events="none" fill="none" stroke="white" stroke-width="1.5" d="M0,-3.0v7 M-2.5,-0.5L0,-3.0L2.5,-0.5"/>
  </g>
  <g id="arrowDown" transform="rotate(180) translate(-30 -48)">
    <use xlink:href="#rim"/>
    <path pointer-events="none" fill="none" stroke="white" stroke-width="1.5" d="M0,-3.0v7 M-2.5,-0.5L0,-3.0L2.5,-0.5"/>
  </g>
  <g id="arrowLeft" transform="rotate(270) translate(-36 17)">
    <use xlink:href="#rim"/>
    <path pointer-events="none" fill="none" stroke="white" stroke-width="1.5" d="M0,-3.0v7 M-2.5,-0.5L0,-3.0L2.5,-0.5"/>
  </g>
  <g id="resetDef">
    <use xlink:href="#rim2" fill="#404040"><set attributeName="fill" to="#808080" begin="reset.mouseover" end="reset.mouseout"/></use>
  </g>
</defs>
<script type="application/ecmascript">
var viewWidth = 2098;
var viewHeight = 420;
var sectionId = 'dynsection-1';
</script>
<script type="application/ecmascript" xlink:href="svg.min.js"/>
<svg id="graph" class="graph">
<g id="viewport">
<title>include/roar/detail/stream_type.hpp</title>
<!-- Node1 -->
<g id="Node000001" class="node">
<title>Node1</title>
<g id="a_Node000001"><a xlink:title=" ">
<polygon fill="#999999" stroke="#666666" points="1617.95,-412 1449.7,-412 1449.7,-392 1617.95,-392 1617.95,-412"/>
<text text-anchor="middle" x="1533.82" y="-398.5" font-family="Helvetica,sans-Serif" font-size="10.00">include/roar/detail/stream_type.hpp</text>
</a>
</g>
</g>
<!-- Node2 -->
<g id="Node000002" class="node">
<title>Node2</title>
<g id="a_Node000002"><a xlink:href="session_8hpp.html" target="_top" xlink:title=" ">
<polygon fill="white" stroke="#666666" points="1412.07,-244 1253.57,-244 1253.57,-224 1412.07,-224 1412.07,-244"/>
<text text-anchor="middle" x="1332.82" y="-230.5" font-family="Helvetica,sans-Serif" font-size="10.00">include/roar/session/session.hpp</text>
</a>
</g>
</g>
<!-- Node1&#45;&gt;Node2 -->
<g id="edge1_Node000001_Node000002" class="edge">
<title>Node1&#45;&gt;Node2</title>
<g id="a_edge1_Node000001_Node000002"><a xlink:title=" ">
<path fill="none" stroke="#63b8ff" d="M1514.22,-384.81C1472.67,-350.49 1376.88,-271.39 1344.08,-244.3"/>
<polygon fill="#63b8ff" stroke="#63b8ff" points="1511.5,-387.93 1521.44,-391.6 1515.96,-382.53 1511.5,-387.93"/>
</a>
</g>
</g>
<!-- Node25 -->
<g id="Node000025" class="node">
<title>Node25</title>
<g id="a_Node000025"><a xlink:href="websocket__base_8hpp.html" target="_top" xlink:title=" ">
<polygon fill="white" stroke="#666666" points="1824.7,-356 1612.95,-356 1612.95,-336 1824.7,-336 1824.7,-356"/>
<text text-anchor="middle" x="1718.82" y="-342.5" font-family="Helvetica,sans-Serif" font-size="10.00">include/roar/websocket/websocket_base.hpp</text>
</a>
</g>
</g>
<!-- Node1&#45;&gt;Node25 -->
<g id="edge37_Node000001_Node000025" class="edge">
<title>Node1&#45;&gt;Node25</title>
<g id="a_edge37_Node000001_Node000025"><a xlink:title=" ">
<path fill="none" stroke="#63b8ff" d="M1576.44,-388.56C1609.91,-378.79 1655.81,-365.39 1686.35,-356.48"/>
<polygon fill="#63b8ff" stroke="#63b8ff" points="1575.66,-385.43 1567.05,-391.59 1577.63,-392.15 1575.66,-385.43"/>
</a>
</g>
</g>
<!-- Node28 -->
<g id="Node000028" class="node">
<title>Node28</title>
<g id="a_Node000028"><a xlink:href="websocket__session_8hpp.html" target="_top" xlink:title=" ">
<polygon fill="white" stroke="#666666" points="1646.07,-300 1421.57,-300 1421.57,-280 1646.07,-280 1646.07,-300"/>
<text text-anchor="middle" x="1533.82" y="-286.5" font-family="Helvetica,sans-Serif" font-size="10.00">include/roar/websocket/websocket_session.hpp</text>
</a>
</g>
</g>
<!-- Node1&#45;&gt;Node28 -->
<g id="edge45_Node000001_Node000028" class="edge">
<title>Node1&#45;&gt;Node28</title>
<g id="a_edge45_Node000001_Node000028"><a xlink:title=" ">
<path fill="none" stroke="#63b8ff" d="M1533.82,-380.64C1533.82,-356.72 1533.82,-318.03 1533.82,-300.35"/>
<polygon fill="#63b8ff" stroke="#63b8ff" points="1530.32,-380.62 1533.82,-390.62 1537.32,-380.62 1530.32,-380.62"/>
</a>
</g>
</g>
<!-- Node3 -->
<g id="Node000003" class="node">
<title>Node3</title>
<g id="a_Node000003"><a xlink:href="directory__server_8hpp.html" target="_top" xlink:title=" ">
<polygon fill="white" stroke="#666666" points="1181.07,-132 950.57,-132 950.57,-112 1181.07,-112 1181.07,-132"/>
<text text-anchor="middle" x="1065.82" y="-118.5" font-family="Helvetica,sans-Serif" font-size="10.00">include/roar/directory_server/directory_server.hpp</text>
</a>
</g>
</g>
<!-- Node2&#45;&gt;Node3 -->
<g id="edge2_Node000002_Node000003" class="edge">
<title>Node2&#45;&gt;Node3</title>
<g id="a_edge2_Node000002_Node000003"><a xlink:title=" ">
<path fill="none" stroke="#63b8ff" d="M1359.73,-218.09C1380.23,-204.85 1402.63,-185.02 1387.82,-168 1374.07,-152.19 1267.92,-139.58 1181.2,-131.78"/>
<polygon fill="#63b8ff" stroke="#63b8ff" points="1358.29,-215.48 1351.58,-223.67 1361.94,-221.45 1358.29,-215.48"/>
</a>
</g>
</g>
<!-- Node4 -->
<g id="Node000004" class="node">
<title>Node4</title>
<g id="a_Node000004"><a xlink:href="server_8hpp.html" target="_top" xlink:title=" ">
<polygon fill="white" stroke="#666666" points="1076.32,-76 961.32,-76 961.32,-56 1076.32,-56 1076.32,-76"/>
<text text-anchor="middle" x="1018.82" y="-62.5" font-family="Helvetica,sans-Serif" font-size="10.00">include/roar/server.hpp</text>
</a>
</g>
</g>
<!-- Node2&#45;&gt;Node4 -->
<g id="edge31_Node000002_Node000004" class="edge">
<title>Node2&#45;&gt;Node4</title>
<g id="a_edge31_Node000002_Node000004"><a xlink:title=" ">
<path fill="none" stroke="#63b8ff" d="M1367.54,-219.09C1392.88,-206.88 1420.29,-187.99 1404.82,-168 1365.76,-117.53 1327.57,-148.12 1265.82,-132 1260.63,-130.65 1122.17,-94.2 1054.87,-76.49"/>
<polygon fill="#63b8ff" stroke="#63b8ff" points="1366.32,-216.26 1358.67,-223.59 1369.22,-222.63 1366.32,-216.26"/>
</a>
</g>
</g>
<!-- Node11 -->
<g id="Node000011" class="node">
<title>Node11</title>
<g id="a_Node000011"><a xlink:href="server_8cpp.html" target="_top" xlink:title=" ">
<polygon fill="white" stroke="#666666" points="1505.7,-20 1407.95,-20 1407.95,0 1505.7,0 1505.7,-20"/>
<text text-anchor="middle" x="1456.82" y="-6.5" font-family="Helvetica,sans-Serif" font-size="10.00">src/roar/server.cpp</text>
</a>
</g>
</g>
<!-- Node2&#45;&gt;Node11 -->
<g id="edge34_Node000002_Node000011" class="edge">
<title>Node2&#45;&gt;Node11</title>
<g id="a_edge34_Node000002_Node000011"><a xlink:title=" ">
<path fill="none" stroke="#63b8ff" d="M1373.93,-219.73C1411.33,-205.06 1463.69,-177.31 1483.82,-132 1497.54,-101.13 1492.84,-88.55 1483.82,-56 1480.08,-42.48 1471.07,-28.94 1464.48,-20.3"/>
<polygon fill="#63b8ff" stroke="#63b8ff" points="1372.94,-216.74 1364.81,-223.53 1375.4,-223.29 1372.94,-216.74"/>
</a>
</g>
</g>
<!-- Node12 -->
<g id="Node000012" class="node">
<title>Node12</title>
<g id="a_Node000012"><a xlink:href="include_2roar_2routing_2request__listener_8hpp.html" target="_top" xlink:title=" ">
<polygon fill="white" stroke="#666666" points="776.45,-188 587.2,-188 587.2,-168 776.45,-168 776.45,-188"/>
<text text-anchor="middle" x="681.82" y="-174.5" font-family="Helvetica,sans-Serif" font-size="10.00">include/roar/routing/request_listener.hpp</text>
</a>
</g>
</g>
<!-- Node2&#45;&gt;Node12 -->
<g id="edge11_Node000002_Node000012" class="edge">
<title>Node2&#45;&gt;Node12</title>
<g id="a_edge11_Node000002_Node000012"><a xlink:title=" ">
<path fill="none" stroke="#63b8ff" d="M1242.2,-225.66C1133.69,-216.85 946.46,-201.56 785.82,-188 782.84,-187.75 779.81,-187.49 776.76,-187.23"/>
<polygon fill="#63b8ff" stroke="#63b8ff" points="1241.84,-229.23 1252.09,-226.55 1242.41,-222.25 1241.84,-229.23"/>
</a>
</g>
</g>
<!-- Node21 -->
<g id="Node000021" class="node">
<title>Node21</title>
<g id="a_Node000021"><a xlink:href="route_8cpp.html" target="_top" xlink:title=" ">
<polygon fill="white" stroke="#666666" points="919.2,-188 794.45,-188 794.45,-168 919.2,-168 919.2,-188"/>
<text text-anchor="middle" x="856.82" y="-174.5" font-family="Helvetica,sans-Serif" font-size="10.00">src/roar/routing/route.cpp</text>
</a>
</g>
</g>
<!-- Node2&#45;&gt;Node21 -->
<g id="edge32_Node000002_Node000021" class="edge">
<title>Node2&#45;&gt;Node21</title>
<g id="a_edge32_Node000002_Node000021"><a xlink:title=" ">
<path fill="none" stroke="#63b8ff" d="M1242.44,-223.36C1160.34,-214.51 1035.9,-200.85 927.82,-188 925.11,-187.68 922.33,-187.34 919.53,-187"/>
<polygon fill="#63b8ff" stroke="#63b8ff" points="1241.93,-226.93 1252.24,-224.52 1242.67,-219.97 1241.93,-226.93"/>
</a>
</g>
</g>
<!-- Node22 -->
<g id="Node000022" class="node">
<title>Node22</title>
<g id="a_Node000022"><a xlink:href="router_8cpp.html" target="_top" xlink:title=" ">
<polygon fill="white" stroke="#666666" points="1064.7,-188 936.95,-188 936.95,-168 1064.7,-168 1064.7,-188"/>
<text text-anchor="middle" x="1000.82" y="-174.5" font-family="Helvetica,sans-Serif" font-size="10.00">src/roar/routing/router.cpp</text>
</a>
</g>
</g>
<!-- Node2&#45;&gt;Node22 -->
<g id="edge33_Node000002_Node000022" class="edge">
<title>Node2&#45;&gt;Node22</title>
<g id="a_edge33_Node000002_Node000022"><a xlink:title=" ">
<path fill="none" stroke="#63b8ff" d="M1264,-221.81C1203.4,-211.95 1116.13,-197.76 1058.96,-188.46"/>
<polygon fill="#63b8ff" stroke="#63b8ff" points="1263.18,-225.38 1273.61,-223.53 1264.3,-218.47 1263.18,-225.38"/>
</a>
</g>
</g>
<!-- Node23 -->
<g id="Node000023" class="node">
<title>Node23</title>
<g id="a_Node000023"><a xlink:href="factory_8cpp.html" target="_top" xlink:title=" ">
<polygon fill="white" stroke="#666666" points="1219.2,-188 1082.45,-188 1082.45,-168 1219.2,-168 1219.2,-188"/>
<text text-anchor="middle" x="1150.82" y="-174.5" font-family="Helvetica,sans-Serif" font-size="10.00">src/roar/session/factory.cpp</text>
</a>
</g>
</g>
<!-- Node2&#45;&gt;Node23 -->
<g id="edge35_Node000002_Node000023" class="edge">
<title>Node2&#45;&gt;Node23</title>
<g id="a_edge35_Node000002_Node000023"><a xlink:title=" ">
<path fill="none" stroke="#63b8ff" d="M1290.89,-220.56C1257.97,-210.79 1212.81,-197.39 1182.77,-188.48"/>
<polygon fill="#63b8ff" stroke="#63b8ff" points="1289.54,-224.1 1300.12,-223.59 1291.53,-217.39 1289.54,-224.1"/>
</a>
</g>
</g>
<!-- Node24 -->
<g id="Node000024" class="node">
<title>Node24</title>
<g id="a_Node000024"><a xlink:href="session_8cpp.html" target="_top" xlink:title=" ">
<polygon fill="white" stroke="#666666" points="1378.45,-188 1237.2,-188 1237.2,-168 1378.45,-168 1378.45,-188"/>
<text text-anchor="middle" x="1307.82" y="-174.5" font-family="Helvetica,sans-Serif" font-size="10.00">src/roar/session/session.cpp</text>
</a>
</g>
</g>
<!-- Node2&#45;&gt;Node24 -->
<g id="edge36_Node000002_Node000024" class="edge">
<title>Node2&#45;&gt;Node24</title>
<g id="a_edge36_Node000002_Node000024"><a xlink:title=" ">
<path fill="none" stroke="#63b8ff" d="M1323.96,-213.87C1319.94,-205.19 1315.38,-195.32 1312.13,-188.3"/>
<polygon fill="#63b8ff" stroke="#63b8ff" points="1321.09,-214.99 1328.47,-222.59 1327.44,-212.05 1321.09,-214.99"/>
</a>
</g>
</g>
<!-- Node3&#45;&gt;Node4 -->
<g id="edge3_Node000003_Node000004" class="edge">
<title>Node3&#45;&gt;Node4</title>
<g id="a_edge3_Node000003_Node000004"><a xlink:title=" ">
<path fill="none" stroke="#63b8ff" d="M1050.65,-103.57C1042.76,-94.5 1033.42,-83.78 1026.91,-76.3"/>
<polygon fill="#63b8ff" stroke="#63b8ff" points="1048.43,-105.35 1057.63,-110.59 1053.71,-100.75 1048.43,-105.35"/>
</a>
</g>
</g>
<!-- Node5 -->
<g id="Node000005" class="node">
<title>Node5</title>
<g id="a_Node000005"><a xlink:href="100__continue_2main_8cpp.html" target="_top" xlink:title=" ">
<polygon fill="white" stroke="#666666" points="609.57,-20 448.07,-20 448.07,0 609.57,0 609.57,-20"/>
<text text-anchor="middle" x="528.82" y="-6.5" font-family="Helvetica,sans-Serif" font-size="10.00">examples/100_continue/main.cpp</text>
</a>
</g>
</g>
<!-- Node4&#45;&gt;Node5 -->
<g id="edge4_Node000004_Node000005" class="edge">
<title>Node4&#45;&gt;Node5</title>
<g id="a_edge4_Node000004_Node000005"><a xlink:title=" ">
<path fill="none" stroke="#63b8ff" d="M950.35,-57.45C861.02,-47.61 704.92,-30.41 609.81,-19.93"/>
<polygon fill="#63b8ff" stroke="#63b8ff" points="949.85,-61.03 960.17,-58.65 950.62,-54.07 949.85,-61.03"/>
</a>
</g>
</g>
<!-- Node6 -->
<g id="Node000006" class="node">
<title>Node6</title>
<g id="a_Node000006"><a xlink:href="most__minimal_2main_8cpp.html" target="_top" xlink:title=" ">
<polygon fill="white" stroke="#666666" points="1164.07,-20 999.57,-20 999.57,0 1164.07,0 1164.07,-20"/>
<text text-anchor="middle" x="1081.82" y="-6.5" font-family="Helvetica,sans-Serif" font-size="10.00">examples/most_minimal/main.cpp</text>
</a>
</g>
</g>
<!-- Node4&#45;&gt;Node6 -->
<g id="edge5_Node000004_Node000006" class="edge">
<title>Node4&#45;&gt;Node6</title>
<g id="a_edge5_Node000004_Node000006"><a xlink:title=" ">
<path fill="none" stroke="#63b8ff" d="M1037.86,-48.68C1048.7,-39.39 1061.89,-28.09 1070.97,-20.3"/>
<polygon fill="#63b8ff" stroke="#63b8ff" points="1036.11,-46.43 1030.8,-55.59 1040.67,-51.74 1036.11,-46.43"/>
</a>
</g>
</g>
<!-- Node7 -->
<g id="Node000007" class="node">
<title>Node7</title>
<g id="a_Node000007"><a xlink:href="serve__directory_2main_8cpp.html" target="_top" xlink:title=" ">
<polygon fill="white" stroke="#666666" points="322.07,-20 151.57,-20 151.57,0 322.07,0 322.07,-20"/>
<text text-anchor="middle" x="236.82" y="-6.5" font-family="Helvetica,sans-Serif" font-size="10.00">examples/serve_directory/main.cpp</text>
</a>
</g>
</g>
<!-- Node4&#45;&gt;Node7 -->
<g id="edge6_Node000004_Node000007" class="edge">
<title>Node4&#45;&gt;Node7</title>
<g id="a_edge6_Node000004_Node000007"><a xlink:title=" ">
<path fill="none" stroke="#63b8ff" d="M950.23,-60.26C807.45,-50.4 478.64,-27.7 322.34,-16.91"/>
<polygon fill="#63b8ff" stroke="#63b8ff" points="949.78,-63.81 960,-61.01 950.27,-56.83 949.78,-63.81"/>
</a>
</g>
</g>
<!-- Node8 -->
<g id="Node000008" class="node">
<title>Node8</title>
<g id="a_Node000008"><a xlink:href="simple__server_2main_8cpp.html" target="_top" xlink:title=" ">
<polygon fill="white" stroke="#666666" points="792.07,-20 627.57,-20 627.57,0 792.07,0 792.07,-20"/>
<text text-anchor="middle" x="709.82" y="-6.5" font-family="Helvetica,sans-Serif" font-size="10.00">examples/simple_server/main.cpp</text>
</a>
</g>
</g>
<!-- Node4&#45;&gt;Node8 -->
<g id="edge7_Node000004_Node000008" class="edge">
<title>Node4&#45;&gt;Node8</title>
<g id="a_edge7_Node000004_Node000008"><a xlink:title=" ">
<path fill="none" stroke="#63b8ff" d="M954.06,-53.68C897.69,-43.83 816.92,-29.72 763.94,-20.46"/>
<polygon fill="#63b8ff" stroke="#63b8ff" points="953.19,-57.26 963.64,-55.53 954.4,-50.36 953.19,-57.26"/>
</a>
</g>
</g>
<!-- Node9 -->
<g id="Node000009" class="node">
<title>Node9</title>
<g id="a_Node000009"><a xlink:href="websocket_2main_8cpp.html" target="_top" xlink:title=" ">
<polygon fill="white" stroke="#666666" points="1333.32,-20 1182.32,-20 1182.32,0 1333.32,0 1333.32,-20"/>
<text text-anchor="middle" x="1257.82" y="-6.5" font-family="Helvetica,sans-Serif" font-size="10.00">examples/websocket/main.cpp</text>
</a>
</g>
</g>
<!-- Node4&#45;&gt;Node9 -->
<g id="edge8_Node000004_Node000009" class="edge">
<title>Node4&#45;&gt;Node9</title>
<g id="a_edge8_Node000004_Node000009"><a xlink:title=" ">
<path fill="none" stroke="#63b8ff" d="M1071.38,-53.13C1114.84,-43.31 1175.75,-29.54 1215.97,-20.46"/>
<polygon fill="#63b8ff" stroke="#63b8ff" points="1070.71,-49.91 1061.73,-55.53 1072.25,-56.74 1070.71,-49.91"/>
</a>
</g>
</g>
<!-- Node10 -->
<g id="Node000010" class="node">
<title>Node10</title>
<g id="a_Node000010"><a xlink:href="src_2roar_2routing_2request__listener_8cpp.html" target="_top" xlink:title=" ">
<polygon fill="white" stroke="#666666" points="981.82,-20 809.82,-20 809.82,0 981.82,0 981.82,-20"/>
<text text-anchor="middle" x="895.82" y="-6.5" font-family="Helvetica,sans-Serif" font-size="10.00">src/roar/routing/request_listener.cpp</text>
</a>
</g>
</g>
<!-- Node4&#45;&gt;Node10 -->
<g id="edge9_Node000004_Node000010" class="edge">
<title>Node4&#45;&gt;Node10</title>
<g id="a_edge9_Node000004_Node000010"><a xlink:title=" ">
<path fill="none" stroke="#63b8ff" d="M987.55,-51.27C965.61,-41.64 936.84,-29.01 917.41,-20.48"/>
<polygon fill="#63b8ff" stroke="#63b8ff" points="985.83,-54.78 996.4,-55.59 988.65,-48.37 985.83,-54.78"/>
</a>
</g>
</g>
<!-- Node4&#45;&gt;Node11 -->
<g id="edge10_Node000004_Node000011" class="edge">
<title>Node4&#45;&gt;Node11</title>
<g id="a_edge10_Node000004_Node000011"><a xlink:title=" ">
<path fill="none" stroke="#63b8ff" d="M1087.32,-56.55C1176.32,-45.58 1329.54,-26.69 1407.77,-17.05"/>
<polygon fill="#63b8ff" stroke="#63b8ff" points="1087.03,-53.19 1077.53,-57.88 1087.89,-60.13 1087.03,-53.19"/>
</a>
</g>
</g>
<!-- Node12&#45;&gt;Node3 -->
<g id="edge28_Node000012_Node000003" class="edge">
<title>Node12&#45;&gt;Node3</title>
<g id="a_edge28_Node000012_Node000003"><a xlink:title=" ">
<path fill="none" stroke="#63b8ff" d="M759.69,-166.05C829.84,-156.18 931.9,-141.83 998.57,-132.46"/>
<polygon fill="#63b8ff" stroke="#63b8ff" points="759.56,-162.67 750.15,-167.53 760.54,-169.61 759.56,-162.67"/>
</a>
</g>
</g>
<!-- Node12&#45;&gt;Node4 -->
<g id="edge29_Node000012_Node000004" class="edge">
<title>Node12&#45;&gt;Node4</title>
<g id="a_edge29_Node000012_Node000004"><a xlink:title=" ">
<path fill="none" stroke="#63b8ff" d="M764.45,-165.7C805.62,-158.61 855.7,-147.76 898.82,-132 919.85,-124.31 975.24,-92.55 1002.79,-76.45"/>
<polygon fill="#63b8ff" stroke="#63b8ff" points="763.92,-162.4 754.64,-167.51 765.08,-169.31 763.92,-162.4"/>
</a>
</g>
</g>
<!-- Node12&#45;&gt;Node5 -->
<g id="edge12_Node000012_Node000005" class="edge">
<title>Node12&#45;&gt;Node5</title>
<g id="a_edge12_Node000012_Node000005"><a xlink:title=" ">
<path fill="none" stroke="#63b8ff" d="M620.8,-164.27C601.33,-157.53 581.15,-147.34 566.82,-132 536.32,-99.33 530.3,-42.39 529.11,-20.21"/>
<polygon fill="#63b8ff" stroke="#63b8ff" points="619.6,-167.87 630.2,-167.57 621.73,-161.2 619.6,-167.87"/>
</a>
</g>
</g>
<!-- Node12&#45;&gt;Node7 -->
<g id="edge19_Node000012_Node000007" class="edge">
<title>Node12&#45;&gt;Node7</title>
<g id="a_edge19_Node000012_Node000007"><a xlink:title=" ">
<path fill="none" stroke="#63b8ff" d="M575.95,-174.52C477.66,-170.48 339.79,-159.87 293.82,-132 252.92,-107.2 240.93,-43.96 237.81,-20.21"/>
<polygon fill="#63b8ff" stroke="#63b8ff" points="575.7,-178.05 585.83,-174.95 575.98,-171.06 575.7,-178.05"/>
</a>
</g>
</g>
<!-- Node12&#45;&gt;Node8 -->
<g id="edge20_Node000012_Node000008" class="edge">
<title>Node12&#45;&gt;Node8</title>
<g id="a_edge20_Node000012_Node000008"><a xlink:title=" ">
<path fill="none" stroke="#63b8ff" d="M747.72,-164.16C766.12,-157.48 784.45,-147.35 796.82,-132 812.64,-112.38 803.82,-101.13 805.82,-76 806.53,-67.14 810.59,-63.5 805.82,-56 794.37,-37.98 773.58,-27.05 754.27,-20.49"/>
<polygon fill="#63b8ff" stroke="#63b8ff" points="746.92,-161.06 738.52,-167.52 749.11,-167.71 746.92,-161.06"/>
</a>
</g>
</g>
<!-- Node12&#45;&gt;Node9 -->
<g id="edge24_Node000012_Node000009" class="edge">
<title>Node12&#45;&gt;Node9</title>
<g id="a_edge24_Node000012_Node000009"><a xlink:title=" ">
<path fill="none" stroke="#63b8ff" d="M787.78,-167.77C936.36,-154.8 1188.77,-132.68 1189.82,-132 1231.31,-105.19 1249.96,-43.73 1255.74,-20.3"/>
<polygon fill="#63b8ff" stroke="#63b8ff" points="787.48,-164.37 777.83,-168.72 788.09,-171.34 787.48,-164.37"/>
</a>
</g>
</g>
<!-- Node12&#45;&gt;Node10 -->
<g id="edge30_Node000012_Node000010" class="edge">
<title>Node12&#45;&gt;Node10</title>
<g id="a_edge30_Node000012_Node000010"><a xlink:title=" ">
<path fill="none" stroke="#63b8ff" d="M745.98,-164.71C769.63,-157.92 795.57,-147.57 815.82,-132 856.35,-100.85 882.91,-43.02 892.17,-20.41"/>
<polygon fill="#63b8ff" stroke="#63b8ff" points="745.39,-161.52 736.65,-167.5 747.22,-168.27 745.39,-161.52"/>
</a>
</g>
</g>
<!-- Node13 -->
<g id="Node000013" class="node">
<title>Node13</title>
<g id="a_Node000013"><a xlink:href="examples_2100__continue_2request__listener_8hpp.html" target="_top" xlink:title=" ">
<polygon fill="white" stroke="#666666" points="512.57,-132 303.07,-132 303.07,-112 512.57,-112 512.57,-132"/>
<text text-anchor="middle" x="407.82" y="-118.5" font-family="Helvetica,sans-Serif" font-size="10.00">examples/100_continue/request_listener.hpp</text>
</a>
</g>
</g>
<!-- Node12&#45;&gt;Node13 -->
<g id="edge13_Node000012_Node000013" class="edge">
<title>Node12&#45;&gt;Node13</title>
<g id="a_edge13_Node000012_Node000013"><a xlink:title=" ">
<path fill="none" stroke="#63b8ff" d="M623.15,-165.44C573.22,-155.6 502.4,-141.64 455.81,-132.46"/>
<polygon fill="#63b8ff" stroke="#63b8ff" points="622.29,-169.03 632.78,-167.53 623.65,-162.16 622.29,-169.03"/>
</a>
</g>
</g>
<!-- Node15 -->
<g id="Node000015" class="node">
<title>Node15</title>
<g id="a_Node000015"><a xlink:href="file__server_8hpp.html" target="_top" xlink:title=" ">
<polygon fill="white" stroke="#666666" points="209.07,-132 14.57,-132 14.57,-112 209.07,-112 209.07,-132"/>
<text text-anchor="middle" x="111.82" y="-118.5" font-family="Helvetica,sans-Serif" font-size="10.00">examples/serve_directory/file_server.hpp</text>
</a>
</g>
</g>
<!-- Node12&#45;&gt;Node15 -->
<g id="edge16_Node000012_Node000015" class="edge">
<title>Node12&#45;&gt;Node15</title>
<g id="a_edge16_Node000012_Node000015"><a xlink:title=" ">
<path fill="none" stroke="#63b8ff" d="M575.81,-166.96C470.86,-157.01 311.53,-141.92 209.56,-132.26"/>
<polygon fill="#63b8ff" stroke="#63b8ff" points="575.45,-170.53 585.74,-167.99 576.11,-163.56 575.45,-170.53"/>
</a>
</g>
</g>
<!-- Node17 -->
<g id="Node000017" class="node">
<title>Node17</title>
<g id="a_Node000017"><a xlink:href="examples_2simple__server_2request__listener_8hpp.html" target="_top" xlink:title=" ">
<polygon fill="white" stroke="#666666" points="788.07,-132 575.57,-132 575.57,-112 788.07,-112 788.07,-132"/>
<text text-anchor="middle" x="681.82" y="-118.5" font-family="Helvetica,sans-Serif" font-size="10.00">examples/simple_server/request_listener.hpp</text>
</a>
</g>
</g>
<!-- Node12&#45;&gt;Node17 -->
<g id="edge21_Node000012_Node000017" class="edge">
<title>Node12&#45;&gt;Node17</title>
<g id="a_edge21_Node000012_Node000017"><a xlink:title=" ">
<path fill="none" stroke="#63b8ff" d="M681.82,-156.71C681.82,-148.32 681.82,-139.01 681.82,-132.3"/>
<polygon fill="#63b8ff" stroke="#63b8ff" points="678.32,-156.59 681.82,-166.59 685.32,-156.59 678.32,-156.59"/>
</a>
</g>
</g>
<!-- Node19 -->
<g id="Node000019" class="node">
<title>Node19</title>
<g id="a_Node000019"><a xlink:href="examples_2websocket_2request__listener_8hpp.html" target="_top" xlink:title=" ">
<polygon fill="white" stroke="#666666" points="1474.32,-132 1275.32,-132 1275.32,-112 1474.32,-112 1474.32,-132"/>
<text text-anchor="middle" x="1374.82" y="-118.5" font-family="Helvetica,sans-Serif" font-size="10.00">examples/websocket/request_listener.hpp</text>
</a>
</g>
</g>
<!-- Node12&#45;&gt;Node19 -->
<g id="edge25_Node000012_Node000019" class="edge">
<title>Node12&#45;&gt;Node19</title>
<g id="a_edge25_Node000012_Node000019"><a xlink:title=" ">
<path fill="none" stroke="#63b8ff" d="M787.64,-167.86C965.65,-153.4 1160.19,-138.81 1275.01,-130.32"/>
<polygon fill="#63b8ff" stroke="#63b8ff" points="787.44,-164.45 777.76,-168.74 788.01,-171.42 787.44,-164.45"/>
</a>
</g>
</g>
<!-- Node13&#45;&gt;Node5 -->
<g id="edge14_Node000013_Node000005" class="edge">
<title>Node13&#45;&gt;Node5</title>
<g id="a_edge14_Node000013_Node000005"><a xlink:title=" ">
<path fill="none" stroke="#63b8ff" d="M438.79,-106.58C453.45,-98.82 470.6,-88.31 483.82,-76 501.9,-59.16 516.8,-33.87 524.06,-20.33"/>
<polygon fill="#63b8ff" stroke="#63b8ff" points="437.45,-103.85 430.12,-111.5 440.62,-110.09 437.45,-103.85"/>
</a>
</g>
</g>
<!-- Node14 -->
<g id="Node000014" class="node">
<title>Node14</title>
<g id="a_Node000014"><a xlink:href="examples_2100__continue_2request__listener_8cpp.html" target="_top" xlink:title=" ">
<polygon fill="white" stroke="#666666" points="474.57,-76 265.07,-76 265.07,-56 474.57,-56 474.57,-76"/>
<text text-anchor="middle" x="369.82" y="-62.5" font-family="Helvetica,sans-Serif" font-size="10.00">examples/100_continue/request_listener.cpp</text>
</a>
</g>
</g>
<!-- Node13&#45;&gt;Node14 -->
<g id="edge15_Node000013_Node000014" class="edge">
<title>Node13&#45;&gt;Node14</title>
<g id="a_edge15_Node000013_Node000014"><a xlink:title=" ">
<path fill="none" stroke="#63b8ff" d="M394.96,-102.72C388.71,-93.84 381.47,-83.55 376.36,-76.3"/>
<polygon fill="#63b8ff" stroke="#63b8ff" points="392.59,-104.43 401.2,-110.59 398.31,-100.4 392.59,-104.43"/>
</a>
</g>
</g>
<!-- Node15&#45;&gt;Node7 -->
<g id="edge18_Node000015_Node000007" class="edge">
<title>Node15&#45;&gt;Node7</title>
<g id="a_edge18_Node000015_Node000007"><a xlink:title=" ">
<path fill="none" stroke="#63b8ff" d="M58.22,-108.6C22.65,-97.84 -14.11,-80.19 5.82,-56 24.27,-33.61 93.33,-22.22 151.17,-16.5"/>
<polygon fill="#63b8ff" stroke="#63b8ff" points="57.08,-112.2 67.66,-111.58 59,-105.47 57.08,-112.2"/>
</a>
</g>
</g>
<!-- Node16 -->
<g id="Node000016" class="node">
<title>Node16</title>
<g id="a_Node000016"><a xlink:href="file__server_8cpp.html" target="_top" xlink:title=" ">
<polygon fill="white" stroke="#666666" points="209.07,-76 14.57,-76 14.57,-56 209.07,-56 209.07,-76"/>
<text text-anchor="middle" x="111.82" y="-62.5" font-family="Helvetica,sans-Serif" font-size="10.00">examples/serve_directory/file_server.cpp</text>
</a>
</g>
</g>
<!-- Node15&#45;&gt;Node16 -->
<g id="edge17_Node000015_Node000016" class="edge">
<title>Node15&#45;&gt;Node16</title>
<g id="a_edge17_Node000015_Node000016"><a xlink:title=" ">
<path fill="none" stroke="#63b8ff" d="M111.82,-100.71C111.82,-92.32 111.82,-83.01 111.82,-76.3"/>
<polygon fill="#63b8ff" stroke="#63b8ff" points="108.32,-100.59 111.82,-110.59 115.32,-100.59 108.32,-100.59"/>
</a>
</g>
</g>
<!-- Node17&#45;&gt;Node8 -->
<g id="edge22_Node000017_Node000008" class="edge">
<title>Node17&#45;&gt;Node8</title>
<g id="a_edge22_Node000017_Node000008"><a xlink:title=" ">
<path fill="none" stroke="#63b8ff" d="M746.21,-108.02C763.22,-101.35 779.65,-91.26 789.82,-76 806.2,-51.43 768.23,-31.53 739.17,-20.49"/>
<polygon fill="#63b8ff" stroke="#63b8ff" points="745.44,-104.94 737.17,-111.57 747.77,-111.54 745.44,-104.94"/>
</a>
</g>
</g>
<!-- Node18 -->
<g id="Node000018" class="node">
<title>Node18</title>
<g id="a_Node000018"><a xlink:href="examples_2simple__server_2request__listener_8cpp.html" target="_top" xlink:title=" ">
<polygon fill="white" stroke="#666666" points="781.07,-76 568.57,-76 568.57,-56 781.07,-56 781.07,-76"/>
<text text-anchor="middle" x="674.82" y="-62.5" font-family="Helvetica,sans-Serif" font-size="10.00">examples/simple_server/request_listener.cpp</text>
</a>
</g>
</g>
<!-- Node17&#45;&gt;Node18 -->
<g id="edge23_Node000017_Node000018" class="edge">
<title>Node17&#45;&gt;Node18</title>
<g id="a_edge23_Node000017_Node000018"><a xlink:title=" ">
<path fill="none" stroke="#63b8ff" d="M679.19,-100.71C678.1,-92.32 676.9,-83.01 676.03,-76.3"/>
<polygon fill="#63b8ff" stroke="#63b8ff" points="675.85,-101.13 680.6,-110.59 682.79,-100.23 675.85,-101.13"/>
</a>
</g>
</g>
<!-- Node19&#45;&gt;Node9 -->
<g id="edge26_Node000019_Node000009" class="edge">
<title>Node19&#45;&gt;Node9</title>
<g id="a_edge26_Node000019_Node000009"><a xlink:title=" ">
<path fill="none" stroke="#63b8ff" d="M1312.67,-107.97C1294.97,-101.27 1277.38,-91.18 1265.82,-76 1253.42,-59.72 1254.5,-34.2 1256.24,-20.48"/>
<polygon fill="#63b8ff" stroke="#63b8ff" points="1311.47,-111.6 1322.06,-111.53 1313.74,-104.98 1311.47,-111.6"/>
</a>
</g>
</g>
<!-- Node20 -->
<g id="Node000020" class="node">
<title>Node20</title>
<g id="a_Node000020"><a xlink:href="examples_2websocket_2request__listener_8cpp.html" target="_top" xlink:title=" ">
<polygon fill="white" stroke="#666666" points="1474.32,-76 1275.32,-76 1275.32,-56 1474.32,-56 1474.32,-76"/>
<text text-anchor="middle" x="1374.82" y="-62.5" font-family="Helvetica,sans-Serif" font-size="10.00">examples/websocket/request_listener.cpp</text>
</a>
</g>
</g>
<!-- Node19&#45;&gt;Node20 -->
<g id="edge27_Node000019_Node000020" class="edge">
<title>Node19&#45;&gt;Node20</title>
<g id="a_edge27_Node000019_Node000020"><a xlink:title=" ">
<path fill="none" stroke="#63b8ff" d="M1374.82,-100.71C1374.82,-92.32 1374.82,-83.01 1374.82,-76.3"/>
<polygon fill="#63b8ff" stroke="#63b8ff" points="1371.32,-100.59 1374.82,-110.59 1378.32,-100.59 1371.32,-100.59"/>
</a>
</g>
</g>
<!-- Node26 -->
<g id="Node000026" class="node">
<title>Node26</title>
<g id="a_Node000026"><a xlink:href="websocket__client_8hpp.html" target="_top" xlink:title=" ">
<polygon fill="white" stroke="#666666" points="1877.82,-300 1663.82,-300 1663.82,-280 1877.82,-280 1877.82,-300"/>
<text text-anchor="middle" x="1770.82" y="-286.5" font-family="Helvetica,sans-Serif" font-size="10.00">include/roar/websocket/websocket_client.hpp</text>
</a>
</g>
</g>
<!-- Node25&#45;&gt;Node26 -->
<g id="edge38_Node000025_Node000026" class="edge">
<title>Node25&#45;&gt;Node26</title>
<g id="a_edge38_Node000025_Node000026"><a xlink:title=" ">
<path fill="none" stroke="#63b8ff" d="M1735.34,-327.85C1744.13,-318.72 1754.59,-307.86 1761.87,-300.3"/>
<polygon fill="#63b8ff" stroke="#63b8ff" points="1733.29,-324.96 1728.88,-334.59 1738.34,-329.82 1733.29,-324.96"/>
</a>
</g>
</g>
<!-- Node25&#45;&gt;Node28 -->
<g id="edge40_Node000025_Node000028" class="edge">
<title>Node25&#45;&gt;Node28</title>
<g id="a_edge40_Node000025_Node000028"><a xlink:title=" ">
<path fill="none" stroke="#63b8ff" d="M1676.2,-332.56C1642.73,-322.79 1596.83,-309.39 1566.3,-300.48"/>
<polygon fill="#63b8ff" stroke="#63b8ff" points="1675.02,-336.15 1685.6,-335.59 1676.98,-329.43 1675.02,-336.15"/>
</a>
</g>
</g>
<!-- Node30 -->
<g id="Node000030" class="node">
<title>Node30</title>
<g id="a_Node000030"><a xlink:href="websocket__base_8cpp.html" target="_top" xlink:title=" ">
<polygon fill="white" stroke="#666666" points="2090.07,-300 1895.57,-300 1895.57,-280 2090.07,-280 2090.07,-300"/>
<text text-anchor="middle" x="1992.82" y="-286.5" font-family="Helvetica,sans-Serif" font-size="10.00">src/roar/websocket/websocket_base.cpp</text>
</a>
</g>
</g>
<!-- Node25&#45;&gt;Node30 -->
<g id="edge44_Node000025_Node000030" class="edge">
<title>Node25&#45;&gt;Node30</title>
<g id="a_edge44_Node000025_Node000030"><a xlink:title=" ">
<path fill="none" stroke="#63b8ff" d="M1777.5,-333.44C1827.42,-323.6 1898.24,-309.64 1944.84,-300.46"/>
<polygon fill="#63b8ff" stroke="#63b8ff" points="1777,-330.16 1767.86,-335.53 1778.35,-337.03 1777,-330.16"/>
</a>
</g>
</g>
<!-- Node27 -->
<g id="Node000027" class="node">
<title>Node27</title>
<g id="a_Node000027"><a xlink:href="websocket__client_8cpp.html" target="_top" xlink:title=" ">
<polygon fill="white" stroke="#666666" points="1984.2,-244 1787.45,-244 1787.45,-224 1984.2,-224 1984.2,-244"/>
<text text-anchor="middle" x="1885.82" y="-230.5" font-family="Helvetica,sans-Serif" font-size="10.00">src/roar/websocket/websocket_client.cpp</text>
</a>
</g>
</g>
<!-- Node26&#45;&gt;Node27 -->
<g id="edge39_Node000026_Node000027" class="edge">
<title>Node26&#45;&gt;Node27</title>
<g id="a_edge39_Node000026_Node000027"><a xlink:title=" ">
<path fill="none" stroke="#63b8ff" d="M1800.62,-275.01C1821.06,-265.41 1847.64,-252.93 1865.63,-244.48"/>
<polygon fill="#63b8ff" stroke="#63b8ff" points="1799.42,-272.18 1791.85,-279.59 1802.39,-278.51 1799.42,-272.18"/>
</a>
</g>
</g>
<!-- Node28&#45;&gt;Node2 -->
<g id="edge42_Node000028_Node000002" class="edge">
<title>Node28&#45;&gt;Node2</title>
<g id="a_edge42_Node000028_Node000002"><a xlink:title=" ">
<path fill="none" stroke="#63b8ff" d="M1488.46,-276.81C1452.02,-267.02 1401.57,-253.47 1368.11,-244.48"/>
<polygon fill="#63b8ff" stroke="#63b8ff" points="1487.24,-280.38 1497.81,-279.59 1489.06,-273.62 1487.24,-280.38"/>
</a>
</g>
</g>
<!-- Node28&#45;&gt;Node19 -->
<g id="edge41_Node000028_Node000019" class="edge">
<title>Node28&#45;&gt;Node19</title>
<g id="a_edge41_Node000028_Node000019"><a xlink:title=" ">
<path fill="none" stroke="#63b8ff" d="M1525.71,-269.64C1514.08,-243.78 1490.53,-197.77 1458.82,-168 1441.81,-152.03 1418.06,-140 1400.15,-132.42"/>
<polygon fill="#63b8ff" stroke="#63b8ff" points="1522.88,-270.91 1530.08,-278.68 1529.3,-268.11 1522.88,-270.91"/>
</a>
</g>
</g>
<!-- Node29 -->
<g id="Node000029" class="node">
<title>Node29</title>
<g id="a_Node000029"><a xlink:href="websocket__session_8cpp.html" target="_top" xlink:title=" ">
<polygon fill="white" stroke="#666666" points="1769.45,-244 1562.2,-244 1562.2,-224 1769.45,-224 1769.45,-244"/>
<text text-anchor="middle" x="1665.82" y="-230.5" font-family="Helvetica,sans-Serif" font-size="10.00">src/roar/websocket/websocket_session.cpp</text>
</a>
</g>
</g>
<!-- Node28&#45;&gt;Node29 -->
<g id="edge43_Node000028_Node000029" class="edge">
<title>Node28&#45;&gt;Node29</title>
<g id="a_edge43_Node000028_Node000029"><a xlink:title=" ">
<path fill="none" stroke="#63b8ff" d="M1566.74,-275.53C1590.37,-265.87 1621.62,-253.08 1642.65,-244.48"/>
<polygon fill="#63b8ff" stroke="#63b8ff" points="1565.74,-272.57 1557.81,-279.59 1568.39,-279.05 1565.74,-272.57"/>
</a>
</g>
</g>
</g>
</svg>

<g id="navigator" transform="translate(0 0)" fill="#404254">
  <rect fill="#f2f5e9" fill-opacity="0.5" stroke="#606060" stroke-width=".5" x="0" y="0" width="60" height="60"/>
  <use id="zoomplus" xlink:href="#zoomPlus" x="17" y="9" onmousedown="handleZoom(evt,'in')"/>
  <use id="zoomminus" xlink:href="#zoomMin" x="42" y="9" onmousedown="handleZoom(evt,'out')"/>
  <use id="reset" xlink:href="#resetDef" x="30" y="36" onmousedown="handleReset()"/>
   <use id="arrowup" xlink:href="#arrowUp" x="0" y="0" onmousedown="handlePan(0,-1)"/>
  <use id="arrowright" xlink:href="#arrowRight" x="0" y="0" onmousedown="handlePan(1,0)"/>
  <use id="arrowdown" xlink:href="#arrowDown" x="0" y="0" onmousedown="handlePan(0,1)"/>
  <use id="arrowleft" xlink:href="#arrowLeft" x="0" y="0" onmousedown="handlePan(-1,0)"/>
</g>
<svg viewBox="0 0 15 15" width="100%" height="30px" preserveAspectRatio="xMaxYMin meet">
 <g id="arrow_out" transform="scale(0.3 0.3)">
  <a xlink:href="stream__type_8hpp__dep__incl_org.svg" target="_base">
   <rect id="button" ry="5" rx="5" y="6" x="6" height="38" width="38"
        fill="#f2f5e9" fill-opacity="0.5" stroke="#606060" stroke-width="1.0"/>
   <path id="arrow"
     d="M 11.500037,31.436501 C 11.940474,20.09759 22.043105,11.32322 32.158766,21.979434 L 37.068811,17.246167 C 37.068811,17.246167 37.088388,32 37.088388,32 L 22.160133,31.978069 C 22.160133,31.978069 26.997745,27.140456 26.997745,27.140456 C 18.528582,18.264221 13.291696,25.230495 11.500037,31.436501 z"
     style="fill:#404040;"/>
  </a>
 </g>
</svg>

<style type='text/css'>
<![CDATA[
[data-mouse-over-selected='false'] { opacity: 0.7; }
[data-mouse-over-selected='true']  { opacity: 1.0; }
]]>
</style>
<script type="application/ecmascript"><![CDATA[
document.addEventListener('DOMContentLoaded', (event) => {
  highlightEdges();
  highlightAdjacentNodes();
});
]]></script>
</svg>
