<?xml version="1.0" encoding="UTF-8" standalone="no"?>
<!DOCTYPE svg PUBLIC "-//W3C//DTD SVG 1.1//EN"
 "http://www.w3.org/Graphics/SVG/1.1/DTD/svg11.dtd">
<!-- Generated by graphviz version 8.1.0 (0)
 -->
<!-- Title: src/roar/curl/sources/string_source.cpp Pages: 1 -->
<svg width="465pt" height="196pt"
 viewBox="0.00 0.00 464.52 196.00" xmlns="http://www.w3.org/2000/svg" xmlns:xlink="http://www.w3.org/1999/xlink">
<g id="graph0" class="graph" transform="scale(1 1) rotate(0) translate(4 192)">
<title>src/roar/curl/sources/string_source.cpp</title>
<!-- Node1 -->
<g id="Node000001" class="node">
<title>Node1</title>
<g id="a_Node000001"><a xlink:title=" ">
<polygon fill="#999999" stroke="#666666" points="421.88,-188 236.38,-188 236.38,-168 421.88,-168 421.88,-188"/>
<text text-anchor="middle" x="329.12" y="-174.5" font-family="Helvetica,sans-Serif" font-size="10.00">src/roar/curl/sources/string_source.cpp</text>
</a>
</g>
</g>
<!-- Node2 -->
<g id="Node000002" class="node">
<title>Node2</title>
<g id="a_Node000002"><a xlink:href="string__source_8hpp.html" target="_top" xlink:title=" ">
<polygon fill="white" stroke="#666666" points="214.62,-132 45.62,-132 45.62,-112 214.62,-112 214.62,-132"/>
<text text-anchor="middle" x="130.12" y="-118.5" font-family="Helvetica,sans-Serif" font-size="10.00">roar/curl/sources/string_source.hpp</text>
</a>
</g>
</g>
<!-- Node1&#45;&gt;Node2 -->
<g id="edge1_Node000001_Node000002" class="edge">
<title>Node1&#45;&gt;Node2</title>
<g id="a_edge1_Node000001_Node000002"><a xlink:title=" ">
<path fill="none" stroke="#63b8ff" d="M294.46,-167.59C261.42,-158.63 211.49,-145.08 175.33,-135.27"/>
<polygon fill="#63b8ff" stroke="#63b8ff" points="176.63,-131.72 166.06,-132.48 174.79,-138.48 176.63,-131.72"/>
</a>
</g>
</g>
<!-- Node6 -->
<g id="Node000006" class="node">
<title>Node6</title>
<g id="a_Node000006"><a xlink:title=" ">
<polygon fill="#e0e0e0" stroke="#999999" points="288,-132 232.25,-132 232.25,-112 288,-112 288,-132"/>
<text text-anchor="middle" x="260.12" y="-118.5" font-family="Helvetica,sans-Serif" font-size="10.00">algorithm</text>
</a>
</g>
</g>
<!-- Node1&#45;&gt;Node6 -->
<g id="edge6_Node000001_Node000006" class="edge">
<title>Node1&#45;&gt;Node6</title>
<g id="a_edge6_Node000001_Node000006"><a xlink:title=" ">
<path fill="none" stroke="#63b8ff" d="M317.11,-167.59C307.01,-159.7 292.38,-148.24 280.46,-138.92"/>
<polygon fill="#63b8ff" stroke="#63b8ff" points="283.04,-135.71 273.01,-132.3 278.72,-141.22 283.04,-135.71"/>
</a>
</g>
</g>
<!-- Node7 -->
<g id="Node000007" class="node">
<title>Node7</title>
<g id="a_Node000007"><a xlink:title=" ">
<polygon fill="#e0e0e0" stroke="#999999" points="352.12,-132 306.12,-132 306.12,-112 352.12,-112 352.12,-132"/>
<text text-anchor="middle" x="329.12" y="-118.5" font-family="Helvetica,sans-Serif" font-size="10.00">iterator</text>
</a>
</g>
</g>
<!-- Node1&#45;&gt;Node7 -->
<g id="edge7_Node000001_Node000007" class="edge">
<title>Node1&#45;&gt;Node7</title>
<g id="a_edge7_Node000001_Node000007"><a xlink:title=" ">
<path fill="none" stroke="#63b8ff" d="M329.12,-167.59C329.12,-160.86 329.12,-151.53 329.12,-143.15"/>
<polygon fill="#63b8ff" stroke="#63b8ff" points="332.63,-143.3 329.12,-133.3 325.63,-143.3 332.63,-143.3"/>
</a>
</g>
</g>
<!-- Node8 -->
<g id="Node000008" class="node">
<title>Node8</title>
<g id="a_Node000008"><a xlink:title=" ">
<polygon fill="#e0e0e0" stroke="#999999" points="409.75,-132 370.5,-132 370.5,-112 409.75,-112 409.75,-132"/>
<text text-anchor="middle" x="390.12" y="-118.5" font-family="Helvetica,sans-Serif" font-size="10.00">utility</text>
</a>
</g>
</g>
<!-- Node1&#45;&gt;Node8 -->
<g id="edge8_Node000001_Node000008" class="edge">
<title>Node1&#45;&gt;Node8</title>
<g id="a_edge8_Node000001_Node000008"><a xlink:title=" ">
<path fill="none" stroke="#63b8ff" d="M339.75,-167.59C348.5,-159.85 361.11,-148.69 371.52,-139.47"/>
<polygon fill="#63b8ff" stroke="#63b8ff" points="373.45,-142.55 378.62,-133.3 368.81,-137.31 373.45,-142.55"/>
</a>
</g>
</g>
<!-- Node9 -->
<g id="Node000009" class="node">
<title>Node9</title>
<g id="a_Node000009"><a xlink:title=" ">
<polygon fill="#e0e0e0" stroke="#999999" points="456.52,-132 427.73,-132 427.73,-112 456.52,-112 456.52,-132"/>
<text text-anchor="middle" x="442.12" y="-118.5" font-family="Helvetica,sans-Serif" font-size="10.00">ios</text>
</a>
</g>
</g>
<!-- Node1&#45;&gt;Node9 -->
<g id="edge9_Node000001_Node000009" class="edge">
<title>Node1&#45;&gt;Node9</title>
<g id="a_edge9_Node000001_Node000009"><a xlink:title=" ">
<path fill="none" stroke="#63b8ff" d="M348.81,-167.59C367.87,-158.48 396.83,-144.64 417.43,-134.8"/>
<polygon fill="#63b8ff" stroke="#63b8ff" points="418.83,-137.53 426.34,-130.06 415.81,-131.22 418.83,-137.53"/>
</a>
</g>
</g>
<!-- Node3 -->
<g id="Node000003" class="node">
<title>Node3</title>
<g id="a_Node000003"><a xlink:href="source_8hpp.html" target="_top" xlink:title=" ">
<polygon fill="white" stroke="#666666" points="102.25,-76 0,-76 0,-56 102.25,-56 102.25,-76"/>
<text text-anchor="middle" x="51.12" y="-62.5" font-family="Helvetica,sans-Serif" font-size="10.00">roar/curl/source.hpp</text>
</a>
</g>
</g>
<!-- Node2&#45;&gt;Node3 -->
<g id="edge2_Node000002_Node000003" class="edge">
<title>Node2&#45;&gt;Node3</title>
<g id="a_edge2_Node000002_Node000003"><a xlink:title=" ">
<path fill="none" stroke="#63b8ff" d="M116.36,-111.59C104.65,-103.59 87.6,-91.93 73.87,-82.54"/>
<polygon fill="#63b8ff" stroke="#63b8ff" points="76.22,-79.23 65.99,-76.48 72.27,-85.01 76.22,-79.23"/>
</a>
</g>
</g>
<!-- Node4 -->
<g id="Node000004" class="node">
<title>Node4</title>
<g id="a_Node000004"><a xlink:title=" ">
<polygon fill="#e0e0e0" stroke="#999999" points="114.25,-20 66,-20 66,0 114.25,0 114.25,-20"/>
<text text-anchor="middle" x="90.12" y="-6.5" font-family="Helvetica,sans-Serif" font-size="10.00">cstddef</text>
</a>
</g>
</g>
<!-- Node2&#45;&gt;Node4 -->
<g id="edge4_Node000002_Node000004" class="edge">
<title>Node2&#45;&gt;Node4</title>
<g id="a_edge4_Node000002_Node000004"><a xlink:title=" ">
<path fill="none" stroke="#63b8ff" d="M127.86,-111.6C124.67,-98.82 118.42,-75.36 111.12,-56 107.86,-47.35 103.65,-38.05 99.85,-30.16"/>
<polygon fill="#63b8ff" stroke="#63b8ff" points="102.63,-28.89 95.06,-21.47 96.36,-31.99 102.63,-28.89"/>
</a>
</g>
</g>
<!-- Node5 -->
<g id="Node000005" class="node">
<title>Node5</title>
<g id="a_Node000005"><a xlink:title=" ">
<polygon fill="#e0e0e0" stroke="#999999" points="198.12,-76 158.12,-76 158.12,-56 198.12,-56 198.12,-76"/>
<text text-anchor="middle" x="178.12" y="-62.5" font-family="Helvetica,sans-Serif" font-size="10.00">string</text>
</a>
</g>
</g>
<!-- Node2&#45;&gt;Node5 -->
<g id="edge5_Node000002_Node000005" class="edge">
<title>Node2&#45;&gt;Node5</title>
<g id="a_edge5_Node000002_Node000005"><a xlink:title=" ">
<path fill="none" stroke="#63b8ff" d="M138.49,-111.59C145.16,-104.08 154.7,-93.35 162.74,-84.3"/>
<polygon fill="#63b8ff" stroke="#63b8ff" points="164.83,-87.1 168.86,-77.3 159.6,-82.45 164.83,-87.1"/>
</a>
</g>
</g>
<!-- Node3&#45;&gt;Node4 -->
<g id="edge3_Node000003_Node000004" class="edge">
<title>Node3&#45;&gt;Node4</title>
<g id="a_edge3_Node000003_Node000004"><a xlink:title=" ">
<path fill="none" stroke="#63b8ff" d="M57.92,-55.59C63.18,-48.32 70.61,-38.02 77.02,-29.15"/>
<polygon fill="#63b8ff" stroke="#63b8ff" points="80.39,-31.45 83.41,-21.3 74.72,-27.36 80.39,-31.45"/>
</a>
</g>
</g>
</g>
</svg>
