<?xml version="1.0" encoding="UTF-8" standalone="no"?>
<!DOCTYPE svg PUBLIC "-//W3C//DTD SVG 1.1//EN"
 "http://www.w3.org/Graphics/SVG/1.1/DTD/svg11.dtd">
<!-- Generated by graphviz version 2.44.1 (20211215.1903)
 -->
<!-- Title: src/roar/curl/sources/string_source.cpp Pages: 1 -->
<svg width="470pt" height="196pt"
 viewBox="0.00 0.00 470.00 196.00" xmlns="http://www.w3.org/2000/svg" xmlns:xlink="http://www.w3.org/1999/xlink">
<g id="graph0" class="graph" transform="scale(1 1) rotate(0) translate(4 192)">
<title>src/roar/curl/sources/string_source.cpp</title>
<!-- Node1 -->
<g id="node1" class="node">
<title>Node1</title>
<g id="a_node1"><a xlink:title=" ">
<polygon fill="#bfbfbf" stroke="black" points="239.5,-168.5 239.5,-187.5 425.5,-187.5 425.5,-168.5 239.5,-168.5"/>
<text text-anchor="middle" x="332.5" y="-175.5" font-family="Helvetica,sans-Serif" font-size="10.00">src/roar/curl/sources/string_source.cpp</text>
</a>
</g>
</g>
<!-- Node2 -->
<g id="node2" class="node">
<title>Node2</title>
<g id="a_node2"><a xlink:href="string__source_8hpp.html" target="_top" xlink:title=" ">
<polygon fill="none" stroke="black" points="46.5,-112.5 46.5,-131.5 216.5,-131.5 216.5,-112.5 46.5,-112.5"/>
<text text-anchor="middle" x="131.5" y="-119.5" font-family="Helvetica,sans-Serif" font-size="10.00">roar/curl/sources/string_source.hpp</text>
</a>
</g>
</g>
<!-- Node1&#45;&gt;Node2 -->
<g id="edge1" class="edge">
<title>Node1&#45;&gt;Node2</title>
<path fill="none" stroke="midnightblue" d="M300.65,-168.44C266.1,-159.16 210.82,-144.31 172.92,-134.13"/>
<polygon fill="midnightblue" stroke="midnightblue" points="173.77,-130.73 163.2,-131.52 171.95,-137.49 173.77,-130.73"/>
</g>
<!-- Node6 -->
<g id="node6" class="node">
<title>Node6</title>
<g id="a_node6"><a xlink:title=" ">
<polygon fill="none" stroke="#bfbfbf" points="234.5,-112.5 234.5,-131.5 290.5,-131.5 290.5,-112.5 234.5,-112.5"/>
<text text-anchor="middle" x="262.5" y="-119.5" font-family="Helvetica,sans-Serif" font-size="10.00">algorithm</text>
</a>
</g>
</g>
<!-- Node1&#45;&gt;Node6 -->
<g id="edge6" class="edge">
<title>Node1&#45;&gt;Node6</title>
<path fill="none" stroke="midnightblue" d="M321.25,-168.32C310.7,-160.18 294.7,-147.84 282.06,-138.09"/>
<polygon fill="midnightblue" stroke="midnightblue" points="284.01,-135.17 273.95,-131.83 279.73,-140.71 284.01,-135.17"/>
</g>
<!-- Node7 -->
<g id="node7" class="node">
<title>Node7</title>
<g id="a_node7"><a xlink:title=" ">
<polygon fill="none" stroke="#bfbfbf" points="309,-112.5 309,-131.5 356,-131.5 356,-112.5 309,-112.5"/>
<text text-anchor="middle" x="332.5" y="-119.5" font-family="Helvetica,sans-Serif" font-size="10.00">iterator</text>
</a>
</g>
</g>
<!-- Node1&#45;&gt;Node7 -->
<g id="edge7" class="edge">
<title>Node1&#45;&gt;Node7</title>
<path fill="none" stroke="midnightblue" d="M332.5,-168.08C332.5,-161.01 332.5,-150.86 332.5,-141.99"/>
<polygon fill="midnightblue" stroke="midnightblue" points="336,-141.75 332.5,-131.75 329,-141.75 336,-141.75"/>
</g>
<!-- Node8 -->
<g id="node8" class="node">
<title>Node8</title>
<g id="a_node8"><a xlink:title=" ">
<polygon fill="none" stroke="#bfbfbf" points="374.5,-112.5 374.5,-131.5 414.5,-131.5 414.5,-112.5 374.5,-112.5"/>
<text text-anchor="middle" x="394.5" y="-119.5" font-family="Helvetica,sans-Serif" font-size="10.00">utility</text>
</a>
</g>
</g>
<!-- Node1&#45;&gt;Node8 -->
<g id="edge8" class="edge">
<title>Node1&#45;&gt;Node8</title>
<path fill="none" stroke="midnightblue" d="M342.46,-168.32C351.63,-160.34 365.44,-148.31 376.53,-138.65"/>
<polygon fill="midnightblue" stroke="midnightblue" points="379.12,-141.04 384.36,-131.83 374.52,-135.76 379.12,-141.04"/>
</g>
<!-- Node9 -->
<g id="node9" class="node">
<title>Node9</title>
<g id="a_node9"><a xlink:title=" ">
<polygon fill="none" stroke="#bfbfbf" points="433,-112.5 433,-131.5 462,-131.5 462,-112.5 433,-112.5"/>
<text text-anchor="middle" x="447.5" y="-119.5" font-family="Helvetica,sans-Serif" font-size="10.00">ios</text>
</a>
</g>
</g>
<!-- Node1&#45;&gt;Node9 -->
<g id="edge9" class="edge">
<title>Node1&#45;&gt;Node9</title>
<path fill="none" stroke="midnightblue" d="M350.72,-168.44C370.38,-159.21 401.78,-144.47 423.46,-134.29"/>
<polygon fill="midnightblue" stroke="midnightblue" points="425.09,-137.39 432.65,-129.97 422.11,-131.05 425.09,-137.39"/>
</g>
<!-- Node3 -->
<g id="node3" class="node">
<title>Node3</title>
<g id="a_node3"><a xlink:href="source_8hpp.html" target="_top" xlink:title=" ">
<polygon fill="none" stroke="black" points="0,-56.5 0,-75.5 103,-75.5 103,-56.5 0,-56.5"/>
<text text-anchor="middle" x="51.5" y="-63.5" font-family="Helvetica,sans-Serif" font-size="10.00">roar/curl/source.hpp</text>
</a>
</g>
</g>
<!-- Node2&#45;&gt;Node3 -->
<g id="edge2" class="edge">
<title>Node2&#45;&gt;Node3</title>
<path fill="none" stroke="midnightblue" d="M118.65,-112.32C106.28,-103.98 87.37,-91.21 72.76,-81.35"/>
<polygon fill="midnightblue" stroke="midnightblue" points="74.57,-78.35 64.32,-75.65 70.65,-84.15 74.57,-78.35"/>
</g>
<!-- Node4 -->
<g id="node4" class="node">
<title>Node4</title>
<g id="a_node4"><a xlink:title=" ">
<polygon fill="none" stroke="#bfbfbf" points="67,-0.5 67,-19.5 116,-19.5 116,-0.5 67,-0.5"/>
<text text-anchor="middle" x="91.5" y="-7.5" font-family="Helvetica,sans-Serif" font-size="10.00">cstddef</text>
</a>
</g>
</g>
<!-- Node2&#45;&gt;Node4 -->
<g id="edge4" class="edge">
<title>Node2&#45;&gt;Node4</title>
<path fill="none" stroke="midnightblue" d="M129.44,-112.45C126.33,-99.89 119.97,-75.8 112.5,-56 109.08,-46.92 104.61,-37.14 100.67,-29.01"/>
<polygon fill="midnightblue" stroke="midnightblue" points="103.68,-27.19 96.09,-19.79 97.41,-30.31 103.68,-27.19"/>
</g>
<!-- Node5 -->
<g id="node5" class="node">
<title>Node5</title>
<g id="a_node5"><a xlink:title=" ">
<polygon fill="none" stroke="#bfbfbf" points="160,-56.5 160,-75.5 201,-75.5 201,-56.5 160,-56.5"/>
<text text-anchor="middle" x="180.5" y="-63.5" font-family="Helvetica,sans-Serif" font-size="10.00">string</text>
</a>
</g>
</g>
<!-- Node2&#45;&gt;Node5 -->
<g id="edge5" class="edge">
<title>Node2&#45;&gt;Node5</title>
<path fill="none" stroke="midnightblue" d="M139.59,-112.08C146.66,-104.3 157.09,-92.8 165.65,-83.37"/>
<polygon fill="midnightblue" stroke="midnightblue" points="168.43,-85.51 172.56,-75.75 163.25,-80.8 168.43,-85.51"/>
</g>
<!-- Node3&#45;&gt;Node4 -->
<g id="edge3" class="edge">
<title>Node3&#45;&gt;Node4</title>
<path fill="none" stroke="midnightblue" d="M58.11,-56.08C63.76,-48.46 72.04,-37.26 78.95,-27.94"/>
<polygon fill="midnightblue" stroke="midnightblue" points="81.88,-29.87 85.02,-19.75 76.25,-25.7 81.88,-29.87"/>
</g>
</g>
</svg>
