<?xml version="1.0" encoding="UTF-8" standalone="no"?>
<!DOCTYPE svg PUBLIC "-//W3C//DTD SVG 1.1//EN"
 "http://www.w3.org/Graphics/SVG/1.1/DTD/svg11.dtd">
<!-- Generated by graphviz version 8.1.0 (0)
 -->
<!-- Title: Roar::Detail::RangeFileBodyImpl::Sequence Pages: 1 -->
<svg width="211pt" height="232pt"
 viewBox="0.00 0.00 211.00 232.00" xmlns="http://www.w3.org/2000/svg" xmlns:xlink="http://www.w3.org/1999/xlink">

<svg id="main" version="1.1" xmlns="http://www.w3.org/2000/svg" xmlns:xlink="http://www.w3.org/1999/xlink" xml:space="preserve" onload="init(evt)">
<style type="text/css"><![CDATA[
.node, .edge {opacity: 0.7;}
.node.selected, .edge.selected {opacity: 1;}
.edge:hover path { stroke: red; }
.edge:hover polygon { stroke: red; fill: red; }
]]></style>
<script type="application/ecmascript" xlink:href="svg.min.js"/>
<svg id="graph" class="graph">
<g id="graph0" class="graph" transform="scale(1 1) rotate(0) translate(4 228)">
<title>Roar::Detail::RangeFileBodyImpl::Sequence</title>
<!-- Node1 -->
<g id="Node000001" class="node">
<title>Node1</title>
<g id="a_Node000001"><a xlink:title=" ">
<polygon fill="#999999" stroke="none" points="203,-100 0,-100 0,0 203,0 203,-100"/>
<text text-anchor="start" x="4.75" y="-86.5" font-family="Helvetica,sans-Serif" font-size="10.00">Roar::Detail::RangeFileBodyImpl::Sequence</text>
<text text-anchor="start" x="100" y="-70.5" font-family="Helvetica,sans-Serif" font-size="10.00"> </text>
<text text-anchor="start" x="38" y="-54.5" font-family="Helvetica,sans-Serif" font-size="10.00">+</text>
<text text-anchor="start" x="82" y="-54.5" font-family="Helvetica,sans-Serif" font-size="10.00">Sequence()</text>
<text text-anchor="start" x="38" y="-38.5" font-family="Helvetica,sans-Serif" font-size="10.00">+</text>
<text text-anchor="start" x="82" y="-38.5" font-family="Helvetica,sans-Serif" font-size="10.00">Sequence()</text>
<text text-anchor="start" x="38" y="-22.5" font-family="Helvetica,sans-Serif" font-size="10.00">+</text>
<text text-anchor="start" x="82" y="-22.5" font-family="Helvetica,sans-Serif" font-size="10.00">Sequence()</text>
<text text-anchor="start" x="38" y="-6.5" font-family="Helvetica,sans-Serif" font-size="10.00">+</text>
<text text-anchor="start" x="82" y="-6.5" font-family="Helvetica,sans-Serif" font-size="10.00">Sequence()</text>
<polygon fill="#666666" stroke="#666666" points="0,-82 0,-82 203,-82 203,-82 0,-82"/>
<polygon fill="#666666" stroke="#666666" points="0,-66 0,-66 203,-66 203,-66 0,-66"/>
<polygon fill="none" stroke="#666666" points="0,0 0,-100 203,-100 203,0 0,0"/>
</a>
</g>
</g>
<!-- Node2 -->
<g id="Node000002" class="node">
<title>Node2</title>
<g id="a_Node000002"><a xlink:title=" ">
<polygon fill="white" stroke="none" points="75.5,-224 31.5,-224 31.5,-172 75.5,-172 75.5,-224"/>
<text text-anchor="start" x="36.25" y="-210.5" font-family="Helvetica,sans-Serif" font-size="10.00">uint64_t</text>
<text text-anchor="start" x="52" y="-194.5" font-family="Helvetica,sans-Serif" font-size="10.00"> </text>
<text text-anchor="start" x="52" y="-178.5" font-family="Helvetica,sans-Serif" font-size="10.00"> </text>
<polygon fill="#666666" stroke="#666666" points="31.5,-206 31.5,-206 75.5,-206 75.5,-206 31.5,-206"/>
<polygon fill="#666666" stroke="#666666" points="31.5,-190 31.5,-190 75.5,-190 75.5,-190 31.5,-190"/>
<polygon fill="none" stroke="#666666" points="31.5,-172 31.5,-224 75.5,-224 75.5,-172 31.5,-172"/>
</a>
</g>
</g>
<!-- Node2&#45;&gt;Node1 -->
<g id="edge1_Node000001_Node000002" class="edge">
<title>Node2&#45;&gt;Node1</title>
<g id="a_edge1_Node000001_Node000002"><a xlink:title=" ">
<path fill="none" stroke="#63b8ff" d="M50.01,-172.19C48.67,-156.32 48.61,-135.49 54.25,-118 54.97,-115.76 55.8,-113.53 56.71,-111.32"/>
<polygon fill="none" stroke="#63b8ff" points="56.71,-111.32 55.73,-104.18 61.94,-100.52 62.93,-107.66 56.71,-111.32"/>
</a>
</g>
<text text-anchor="middle" x="91.62" y="-144.5" font-family="Helvetica,sans-Serif" font-size="10.00" fill="grey"> +end</text>
<text text-anchor="middle" x="91.62" y="-132.5" font-family="Helvetica,sans-Serif" font-size="10.00" fill="grey">+headConsumed</text>
<text text-anchor="middle" x="91.62" y="-120.5" font-family="Helvetica,sans-Serif" font-size="10.00" fill="grey">+start</text>
</g>
<!-- Node3 -->
<g id="Node000003" class="node">
<title>Node3</title>
<g id="a_Node000003"><a xlink:title=" ">
<polygon fill="white" stroke="none" points="167.5,-224 133.5,-224 133.5,-172 167.5,-172 167.5,-224"/>
<text text-anchor="start" x="138.5" y="-210.5" font-family="Helvetica,sans-Serif" font-size="10.00">string</text>
<text text-anchor="start" x="149" y="-194.5" font-family="Helvetica,sans-Serif" font-size="10.00"> </text>
<text text-anchor="start" x="149" y="-178.5" font-family="Helvetica,sans-Serif" font-size="10.00"> </text>
<polygon fill="#666666" stroke="#666666" points="133.5,-206 133.5,-206 167.5,-206 167.5,-206 133.5,-206"/>
<polygon fill="#666666" stroke="#666666" points="133.5,-190 133.5,-190 167.5,-190 167.5,-190 133.5,-190"/>
<polygon fill="none" stroke="#666666" points="133.5,-172 133.5,-224 167.5,-224 167.5,-172 133.5,-172"/>
</a>
</g>
</g>
<!-- Node3&#45;&gt;Node1 -->
<g id="edge2_Node000001_Node000003" class="edge">
<title>Node3&#45;&gt;Node1</title>
<g id="a_edge2_Node000001_Node000003"><a xlink:title=" ">
<path fill="none" stroke="#63b8ff" d="M144.36,-172.23C140.29,-156.55 134.59,-135.93 128.5,-118 127.81,-115.96 127.09,-113.89 126.34,-111.81"/>
<polygon fill="none" stroke="#63b8ff" points="126.38,-111.9 120.54,-107.66 122.21,-100.64 128.04,-104.88 126.38,-111.9"/>
</a>
</g>
<text text-anchor="middle" x="170" y="-132.5" font-family="Helvetica,sans-Serif" font-size="10.00" fill="grey"> +headSection</text>
</g>
</g>
</svg>
</svg>

<style type='text/css'>
<![CDATA[
[data-mouse-over-selected='false'] { opacity: 0.7; }
[data-mouse-over-selected='true']  { opacity: 1.0; }
]]>
</style>
<script type="application/ecmascript"><![CDATA[
document.addEventListener('DOMContentLoaded', (event) => {
  highlightEdges();
  highlightAdjacentNodes();
});
]]></script>
</svg>
