<?xml version="1.0" encoding="UTF-8" standalone="no"?>
<!DOCTYPE svg PUBLIC "-//W3C//DTD SVG 1.1//EN"
 "http://www.w3.org/Graphics/SVG/1.1/DTD/svg11.dtd">
<!-- Generated by graphviz version 2.44.1 (20211215.1903)
 -->
<!-- Title: Roar::Server::Implementation Pages: 1 -->
<!--zoomable 320 -->
<svg id="main" version="1.1" xmlns="http://www.w3.org/2000/svg" xmlns:xlink="http://www.w3.org/1999/xlink" xml:space="preserve" onload="init(evt)">
<style type="text/css"><![CDATA[
.edge:hover path { stroke: red; }
.edge:hover polygon { stroke: red; fill: red; }
]]></style>
<script type="text/javascript"><![CDATA[
var edges = document.getElementsByTagName('g');
if (edges && edges.length) {
  for (var i=0;i<edges.length;i++) {
    if (edges[i].id.substr(0,4)=='edge') {
      edges[i].setAttribute('class','edge');
    }
  }
}
]]></script>
        <defs>
                <circle id="rim" cx="0" cy="0" r="7"/>
                <circle id="rim2" cx="0" cy="0" r="3.5"/>
                <g id="zoomPlus">
                        <use xlink:href="#rim" fill="#404040">
                                <set attributeName="fill" to="#808080" begin="zoomplus.mouseover" end="zoomplus.mouseout"/>
                        </use>
                        <path d="M-4,0h8M0,-4v8" fill="none" stroke="white" stroke-width="1.5" pointer-events="none"/>
                </g>
                <g id="zoomMin">
                        <use xlink:href="#rim" fill="#404040">
                                <set attributeName="fill" to="#808080" begin="zoomminus.mouseover" end="zoomminus.mouseout"/>
                        </use>
                        <path d="M-4,0h8" fill="none" stroke="white" stroke-width="1.5" pointer-events="none"/>
                </g>
                <g id="dirArrow">
                        <path fill="none" stroke="white" stroke-width="1.5" d="M0,-3.0v7 M-2.5,-0.5L0,-3.0L2.5,-0.5"/>
                </g>
               <g id="resetDef">
                       <use xlink:href="#rim2" fill="#404040">
                               <set attributeName="fill" to="#808080" begin="reset.mouseover" end="reset.mouseout"/>
                       </use>
               </g>
        </defs>

<script type="text/javascript">
var viewWidth = 1830;
var viewHeight = 320;
var sectionId = 'dynsection-0';
</script>
<script xlink:href="svgpan.js"/>
<svg id="graph" class="graph">
<g id="viewport">
<title>Roar::Server::Implementation</title>
<!-- Node1 -->
<g id="node1" class="node">
<title>Node1</title>
<g id="a_node1"><a xlink:title=" ">
<polygon fill="#bfbfbf" stroke="black" points="673.5,-0.5 673.5,-68.5 818.5,-68.5 818.5,-0.5 673.5,-0.5"/>
<text text-anchor="middle" x="746" y="-56.5" font-family="Helvetica,sans-Serif" font-size="10.00">Roar::Server::Implementation</text>
<polyline fill="none" stroke="black" points="673.5,-49.5 818.5,-49.5 "/>
<text text-anchor="middle" x="746" y="-37.5" font-family="Helvetica,sans-Serif" font-size="10.00"> </text>
<polyline fill="none" stroke="black" points="673.5,-30.5 818.5,-30.5 "/>
<text text-anchor="start" x="681.5" y="-18.5" font-family="Helvetica,sans-Serif" font-size="10.00">+ Implementation()</text>
<text text-anchor="start" x="681.5" y="-7.5" font-family="Helvetica,sans-Serif" font-size="10.00">+ acceptOnce()</text>
</a>
</g>
</g>
<!-- Node2 -->
<g id="node2" class="node">
<title>Node2</title>
<g id="a_node2"><a xlink:title=" ">
<polygon fill="none" stroke="black" points="0,-138.5 0,-195.5 264,-195.5 264,-138.5 0,-138.5"/>
<text text-anchor="middle" x="132" y="-183.5" font-family="Helvetica,sans-Serif" font-size="10.00">std::enable_shared_from_this&lt; Server::Implementation &gt;</text>
<polyline fill="none" stroke="black" points="0,-176.5 264,-176.5 "/>
<text text-anchor="middle" x="132" y="-164.5" font-family="Helvetica,sans-Serif" font-size="10.00"> </text>
<polyline fill="none" stroke="black" points="0,-157.5 264,-157.5 "/>
<text text-anchor="middle" x="132" y="-145.5" font-family="Helvetica,sans-Serif" font-size="10.00"> </text>
</a>
</g>
</g>
<!-- Node2&#45;&gt;Node1 -->
<g id="edge1" class="edge">
<title>Node2&#45;&gt;Node1</title>
<path fill="none" stroke="midnightblue" d="M212.92,-135.01C258.48,-118.61 316.75,-99.37 370,-87 473.97,-62.84 596.92,-48.64 673.2,-41.46"/>
<polygon fill="none" stroke="midnightblue" points="211.61,-131.76 203.4,-138.46 213.99,-138.34 211.61,-131.76"/>
</g>
<!-- Node3 -->
<g id="node3" class="node">
<title>Node3</title>
<g id="a_node3"><a xlink:title=" ">
<polygon fill="none" stroke="black" points="282,-138.5 282,-195.5 336,-195.5 336,-138.5 282,-138.5"/>
<text text-anchor="middle" x="309" y="-183.5" font-family="Helvetica,sans-Serif" font-size="10.00">acceptor</text>
<polyline fill="none" stroke="black" points="282,-176.5 336,-176.5 "/>
<text text-anchor="middle" x="309" y="-164.5" font-family="Helvetica,sans-Serif" font-size="10.00"> </text>
<polyline fill="none" stroke="black" points="282,-157.5 336,-157.5 "/>
<text text-anchor="middle" x="309" y="-145.5" font-family="Helvetica,sans-Serif" font-size="10.00"> </text>
</a>
</g>
</g>
<!-- Node3&#45;&gt;Node1 -->
<g id="edge2" class="edge">
<title>Node3&#45;&gt;Node1</title>
<path fill="none" stroke="#404040" d="M332.12,-138.12C336.16,-134.1 340.52,-130.24 345,-127 379.82,-101.83 391.89,-99.48 433,-87 508.49,-64.07 597.52,-50.68 661.29,-43.33"/>
<polygon fill="none" stroke="#404040" points="661.36,-43.32 666.88,-38.67 673.29,-41.98 667.77,-46.62 661.36,-43.32"/>
<text text-anchor="middle" x="456.5" y="-95.5" font-family="Helvetica,sans-Serif" font-size="10.00"> +acceptor</text>
</g>
<!-- Node4 -->
<g id="node4" class="node">
<title>Node4</title>
<g id="a_node4"><a xlink:title=" ">
<polygon fill="none" stroke="black" points="354.5,-138.5 354.5,-195.5 527.5,-195.5 527.5,-138.5 354.5,-138.5"/>
<text text-anchor="middle" x="441" y="-183.5" font-family="Helvetica,sans-Serif" font-size="10.00">optional&lt; boost::asio::ssl::context &gt;</text>
<polyline fill="none" stroke="black" points="354.5,-176.5 527.5,-176.5 "/>
<text text-anchor="middle" x="441" y="-164.5" font-family="Helvetica,sans-Serif" font-size="10.00"> </text>
<polyline fill="none" stroke="black" points="354.5,-157.5 527.5,-157.5 "/>
<text text-anchor="middle" x="441" y="-145.5" font-family="Helvetica,sans-Serif" font-size="10.00"> </text>
</a>
</g>
</g>
<!-- Node4&#45;&gt;Node1 -->
<g id="edge3" class="edge">
<title>Node4&#45;&gt;Node1</title>
<path fill="none" stroke="#404040" d="M458.49,-138.12C470.81,-120.79 488.84,-99.51 510,-87 555.75,-59.96 614.03,-47.07 661.23,-40.95"/>
<polygon fill="none" stroke="#404040" points="661.37,-40.93 666.85,-36.24 673.29,-39.5 667.81,-44.19 661.37,-40.93"/>
<text text-anchor="middle" x="538.5" y="-95.5" font-family="Helvetica,sans-Serif" font-size="10.00"> +sslContext</text>
</g>
<!-- Node5 -->
<g id="node5" class="node">
<title>Node5</title>
<g id="a_node5"><a xlink:title=" ">
<polygon fill="none" stroke="black" points="545.5,-138.5 545.5,-195.5 598.5,-195.5 598.5,-138.5 545.5,-138.5"/>
<text text-anchor="middle" x="572" y="-183.5" font-family="Helvetica,sans-Serif" font-size="10.00">endpoint</text>
<polyline fill="none" stroke="black" points="545.5,-176.5 598.5,-176.5 "/>
<text text-anchor="middle" x="572" y="-164.5" font-family="Helvetica,sans-Serif" font-size="10.00"> </text>
<polyline fill="none" stroke="black" points="545.5,-157.5 598.5,-157.5 "/>
<text text-anchor="middle" x="572" y="-145.5" font-family="Helvetica,sans-Serif" font-size="10.00"> </text>
</a>
</g>
</g>
<!-- Node5&#45;&gt;Node1 -->
<g id="edge4" class="edge">
<title>Node5&#45;&gt;Node1</title>
<path fill="none" stroke="#404040" d="M568.12,-138.24C567.36,-121.61 569.39,-101.04 581,-87 600.75,-63.12 631.41,-50.12 660.98,-43.12"/>
<polygon fill="none" stroke="#404040" points="661.36,-43.03 666.4,-37.88 673.1,-40.55 668.06,-45.7 661.36,-43.03"/>
<text text-anchor="middle" x="622" y="-101" font-family="Helvetica,sans-Serif" font-size="10.00"> +bindEndpoint</text>
<text text-anchor="middle" x="622" y="-90" font-family="Helvetica,sans-Serif" font-size="10.00">+resolvedEndpoint</text>
</g>
<!-- Node6 -->
<g id="node6" class="node">
<title>Node6</title>
<g id="a_node6"><a xlink:title=" ">
<polygon fill="none" stroke="black" points="617,-138.5 617,-195.5 695,-195.5 695,-138.5 617,-138.5"/>
<text text-anchor="middle" x="656" y="-183.5" font-family="Helvetica,sans-Serif" font-size="10.00">shared_mutex</text>
<polyline fill="none" stroke="black" points="617,-176.5 695,-176.5 "/>
<text text-anchor="middle" x="656" y="-164.5" font-family="Helvetica,sans-Serif" font-size="10.00"> </text>
<polyline fill="none" stroke="black" points="617,-157.5 695,-157.5 "/>
<text text-anchor="middle" x="656" y="-145.5" font-family="Helvetica,sans-Serif" font-size="10.00"> </text>
</a>
</g>
</g>
<!-- Node6&#45;&gt;Node1 -->
<g id="edge5" class="edge">
<title>Node6&#45;&gt;Node1</title>
<path fill="none" stroke="#404040" d="M658.8,-138.16C661.49,-122.11 666.74,-102.16 677,-87 679.33,-83.55 681.97,-80.25 684.83,-77.09"/>
<polygon fill="none" stroke="#404040" points="684.85,-77.06 686.29,-70 693.36,-68.6 691.93,-75.67 684.85,-77.06"/>
<text text-anchor="middle" x="724" y="-95.5" font-family="Helvetica,sans-Serif" font-size="10.00"> +acceptorStopGuard</text>
</g>
<!-- Node7 -->
<g id="node7" class="node">
<title>Node7</title>
<g id="a_node7"><a xlink:title=" ">
<polygon fill="none" stroke="black" points="713,-138.5 713,-195.5 917,-195.5 917,-138.5 713,-138.5"/>
<text text-anchor="middle" x="815" y="-183.5" font-family="Helvetica,sans-Serif" font-size="10.00">function&lt; void(boost::system::error_code)&gt;</text>
<polyline fill="none" stroke="black" points="713,-176.5 917,-176.5 "/>
<text text-anchor="middle" x="815" y="-164.5" font-family="Helvetica,sans-Serif" font-size="10.00"> </text>
<polyline fill="none" stroke="black" points="713,-157.5 917,-157.5 "/>
<text text-anchor="middle" x="815" y="-145.5" font-family="Helvetica,sans-Serif" font-size="10.00"> </text>
</a>
</g>
</g>
<!-- Node7&#45;&gt;Node1 -->
<g id="edge6" class="edge">
<title>Node7&#45;&gt;Node1</title>
<path fill="none" stroke="#404040" d="M801.41,-138.43C793.81,-123.18 784.06,-103.95 775,-87 773.65,-84.48 772.26,-81.9 770.84,-79.3"/>
<polygon fill="none" stroke="#404040" points="770.74,-79.13 764.34,-75.81 764.94,-68.63 771.34,-71.94 770.74,-79.13"/>
<text text-anchor="middle" x="824" y="-95.5" font-family="Helvetica,sans-Serif" font-size="10.00"> +onAcceptAbort</text>
</g>
<!-- Node8 -->
<g id="node8" class="node">
<title>Node8</title>
<g id="a_node8"><a xlink:title=" ">
<polygon fill="none" stroke="black" points="935,-138.5 935,-195.5 1189,-195.5 1189,-138.5 935,-138.5"/>
<text text-anchor="middle" x="1062" y="-183.5" font-family="Helvetica,sans-Serif" font-size="10.00">shared_ptr&lt; const Roar::StandardResponseProvider &gt;</text>
<polyline fill="none" stroke="black" points="935,-176.5 1189,-176.5 "/>
<text text-anchor="middle" x="1062" y="-164.5" font-family="Helvetica,sans-Serif" font-size="10.00"> </text>
<polyline fill="none" stroke="black" points="935,-157.5 1189,-157.5 "/>
<text text-anchor="middle" x="1062" y="-145.5" font-family="Helvetica,sans-Serif" font-size="10.00"> </text>
</a>
</g>
</g>
<!-- Node8&#45;&gt;Node1 -->
<g id="edge7" class="edge">
<title>Node8&#45;&gt;Node1</title>
<path fill="none" stroke="#404040" d="M995.37,-138.48C947.12,-118.56 881.56,-91.48 829.76,-70.09"/>
<polygon fill="none" stroke="#404040" points="829.69,-70.06 822.62,-71.47 818.6,-65.48 825.67,-64.07 829.69,-70.06"/>
<text text-anchor="middle" x="986.5" y="-95.5" font-family="Helvetica,sans-Serif" font-size="10.00"> +standardResponseProvider</text>
</g>
<!-- Node9 -->
<g id="node9" class="node">
<title>Node9</title>
<g id="a_node9"><a xlink:title=" ">
<polygon fill="none" stroke="black" points="1207.5,-138.5 1207.5,-195.5 1344.5,-195.5 1344.5,-138.5 1207.5,-138.5"/>
<text text-anchor="middle" x="1276" y="-183.5" font-family="Helvetica,sans-Serif" font-size="10.00">shared_ptr&lt; Roar::Router &gt;</text>
<polyline fill="none" stroke="black" points="1207.5,-176.5 1344.5,-176.5 "/>
<text text-anchor="middle" x="1276" y="-164.5" font-family="Helvetica,sans-Serif" font-size="10.00"> </text>
<polyline fill="none" stroke="black" points="1207.5,-157.5 1344.5,-157.5 "/>
<text text-anchor="middle" x="1276" y="-145.5" font-family="Helvetica,sans-Serif" font-size="10.00"> </text>
</a>
</g>
</g>
<!-- Node9&#45;&gt;Node1 -->
<g id="edge8" class="edge">
<title>Node9&#45;&gt;Node1</title>
<path fill="none" stroke="#404040" d="M1224.18,-138.36C1215.56,-134.27 1206.62,-130.32 1198,-127 1075,-79.67 923.3,-55.38 830.66,-44.06"/>
<polygon fill="none" stroke="#404040" points="830.46,-44.04 824.03,-47.3 818.55,-42.62 824.98,-39.36 830.46,-44.04"/>
<text text-anchor="middle" x="1156" y="-95.5" font-family="Helvetica,sans-Serif" font-size="10.00"> +router</text>
</g>
<!-- Node10 -->
<g id="node10" class="node">
<title>Node10</title>
<g id="a_node10"><a xlink:title=" ">
<polygon fill="none" stroke="black" points="1362.5,-138.5 1362.5,-195.5 1517.5,-195.5 1517.5,-138.5 1362.5,-138.5"/>
<text text-anchor="middle" x="1440" y="-183.5" font-family="Helvetica,sans-Serif" font-size="10.00">function&lt; void(Roar::Error &amp;&amp;)&gt;</text>
<polyline fill="none" stroke="black" points="1362.5,-176.5 1517.5,-176.5 "/>
<text text-anchor="middle" x="1440" y="-164.5" font-family="Helvetica,sans-Serif" font-size="10.00"> </text>
<polyline fill="none" stroke="black" points="1362.5,-157.5 1517.5,-157.5 "/>
<text text-anchor="middle" x="1440" y="-145.5" font-family="Helvetica,sans-Serif" font-size="10.00"> </text>
</a>
</g>
</g>
<!-- Node10&#45;&gt;Node1 -->
<g id="edge9" class="edge">
<title>Node10&#45;&gt;Node1</title>
<path fill="none" stroke="#404040" d="M1382.61,-138.36C1372.86,-134.22 1362.73,-130.25 1353,-127 1173.37,-66.98 950.62,-46.2 831.19,-39.1"/>
<polygon fill="none" stroke="#404040" points="830.88,-39.08 824.66,-42.73 818.9,-38.4 825.12,-34.75 830.88,-39.08"/>
<text text-anchor="middle" x="1310.5" y="-95.5" font-family="Helvetica,sans-Serif" font-size="10.00"> +onError</text>
</g>
<!-- Node11 -->
<g id="node11" class="node">
<title>Node11</title>
<g id="a_node11"><a xlink:href="classRoar_1_1Factory.html" target="_top" xlink:title="This factory creates sessions.">
<polygon fill="none" stroke="black" points="1535.5,-127.5 1535.5,-206.5 1744.5,-206.5 1744.5,-127.5 1535.5,-127.5"/>
<text text-anchor="middle" x="1640" y="-194.5" font-family="Helvetica,sans-Serif" font-size="10.00">Roar::Factory</text>
<polyline fill="none" stroke="black" points="1535.5,-187.5 1744.5,-187.5 "/>
<text text-anchor="middle" x="1640" y="-175.5" font-family="Helvetica,sans-Serif" font-size="10.00"> </text>
<polyline fill="none" stroke="black" points="1535.5,-168.5 1744.5,-168.5 "/>
<text text-anchor="start" x="1543.5" y="-156.5" font-family="Helvetica,sans-Serif" font-size="10.00">+ Factory()</text>
<text text-anchor="start" x="1543.5" y="-145.5" font-family="Helvetica,sans-Serif" font-size="10.00">+ ROAR_PIMPL_SPECIAL_FUNCTIONS()</text>
<text text-anchor="start" x="1543.5" y="-134.5" font-family="Helvetica,sans-Serif" font-size="10.00">+ makeSession()</text>
</a>
</g>
</g>
<!-- Node11&#45;&gt;Node1 -->
<g id="edge10" class="edge">
<title>Node11&#45;&gt;Node1</title>
<path fill="none" stroke="#404040" d="M1535.48,-129.69C1532.29,-128.76 1529.13,-127.86 1526,-127 1279.6,-59.33 975.93,-41.7 830.9,-37.11"/>
<polygon fill="none" stroke="#404040" points="830.63,-37.1 824.51,-40.92 818.63,-36.74 824.75,-32.92 830.63,-37.1"/>
<text text-anchor="middle" x="1482" y="-95.5" font-family="Helvetica,sans-Serif" font-size="10.00"> +sessionFactory</text>
</g>
<!-- Node12 -->
<g id="node12" class="node">
<title>Node12</title>
<g id="a_node12"><a xlink:title=" ">
<polygon fill="none" stroke="black" points="1538.5,-254.5 1538.5,-311.5 1591.5,-311.5 1591.5,-254.5 1538.5,-254.5"/>
<text text-anchor="middle" x="1565" y="-299.5" font-family="Helvetica,sans-Serif" font-size="10.00">seconds</text>
<polyline fill="none" stroke="black" points="1538.5,-292.5 1591.5,-292.5 "/>
<text text-anchor="middle" x="1565" y="-280.5" font-family="Helvetica,sans-Serif" font-size="10.00"> </text>
<polyline fill="none" stroke="black" points="1538.5,-273.5 1591.5,-273.5 "/>
<text text-anchor="middle" x="1565" y="-261.5" font-family="Helvetica,sans-Serif" font-size="10.00"> </text>
</a>
</g>
</g>
<!-- Node12&#45;&gt;Node11 -->
<g id="edge11" class="edge">
<title>Node12&#45;&gt;Node11</title>
<path fill="none" stroke="#404040" d="M1577.6,-254.39C1582.33,-244.84 1588.02,-234.23 1594,-225 1595.79,-222.24 1597.68,-219.46 1599.64,-216.69"/>
<polygon fill="none" stroke="#404040" points="1599.85,-216.41 1600.19,-209.21 1606.97,-206.75 1606.63,-213.96 1599.85,-216.41"/>
<text text-anchor="middle" x="1644" y="-228" font-family="Helvetica,sans-Serif" font-size="10.00"> +sslDetectionTimeout</text>
</g>
<!-- Node13 -->
<g id="node13" class="node">
<title>Node13</title>
<g id="a_node13"><a xlink:title=" ">
<polygon fill="none" stroke="black" points="1610,-254.5 1610,-311.5 1822,-311.5 1822,-254.5 1610,-254.5"/>
<text text-anchor="middle" x="1716" y="-299.5" font-family="Helvetica,sans-Serif" font-size="10.00">unique_ptr&lt; Roar::Factory::Implementation &gt;</text>
<polyline fill="none" stroke="black" points="1610,-292.5 1822,-292.5 "/>
<text text-anchor="middle" x="1716" y="-280.5" font-family="Helvetica,sans-Serif" font-size="10.00"> </text>
<polyline fill="none" stroke="black" points="1610,-273.5 1822,-273.5 "/>
<text text-anchor="middle" x="1716" y="-261.5" font-family="Helvetica,sans-Serif" font-size="10.00"> </text>
</a>
</g>
</g>
<!-- Node13&#45;&gt;Node11 -->
<g id="edge12" class="edge">
<title>Node13&#45;&gt;Node11</title>
<path fill="none" stroke="#404040" d="M1707.76,-254.29C1704.26,-244.63 1699.66,-233.97 1694,-225 1692.06,-221.93 1689.94,-218.88 1687.7,-215.88"/>
<polygon fill="none" stroke="#404040" points="1687.69,-215.88 1680.82,-213.7 1680.19,-206.51 1687.06,-208.69 1687.69,-215.88"/>
<text text-anchor="middle" x="1714" y="-228" font-family="Helvetica,sans-Serif" font-size="10.00"> &#45;impl_</text>
</g>
</g>
</svg>
        <g id="navigator" transform="translate(0 0)" fill="#404254">
                <rect fill="#f2f5e9" fill-opacity="0.5" stroke="#606060" stroke-width=".5" x="0" y="0" width="60" height="60"/>
                <use id="zoomplus" xlink:href="#zoomPlus" x="17" y="9" onmousedown="handleZoom(evt,'in')"/>
                <use id="zoomminus" xlink:href="#zoomMin" x="42" y="9" onmousedown="handleZoom(evt,'out')"/>
                <use id="reset" xlink:href="#resetDef" x="30" y="36" onmousedown="handleReset()"/>
                <g id="arrowUp" xlink:href="#dirArrow" transform="translate(30 24)" onmousedown="handlePan(0,-1)">
                  <use xlink:href="#rim" fill="#404040">
                        <set attributeName="fill" to="#808080" begin="arrowUp.mouseover" end="arrowUp.mouseout"/>
                  </use>
                  <path fill="none" stroke="white" stroke-width="1.5" d="M0,-3.0v7 M-2.5,-0.5L0,-3.0L2.5,-0.5"/>
                </g>
                <g id="arrowRight" xlink:href="#dirArrow" transform="rotate(90) translate(36 -43)" onmousedown="handlePan(1,0)">
                  <use xlink:href="#rim" fill="#404040">
                        <set attributeName="fill" to="#808080" begin="arrowRight.mouseover" end="arrowRight.mouseout"/>
                  </use>
                  <path fill="none" stroke="white" stroke-width="1.5" d="M0,-3.0v7 M-2.5,-0.5L0,-3.0L2.5,-0.5"/>
                </g>
                <g id="arrowDown" xlink:href="#dirArrow" transform="rotate(180) translate(-30 -48)" onmousedown="handlePan(0,1)">
                  <use xlink:href="#rim" fill="#404040">
                        <set attributeName="fill" to="#808080" begin="arrowDown.mouseover" end="arrowDown.mouseout"/>
                  </use>
                  <path fill="none" stroke="white" stroke-width="1.5" d="M0,-3.0v7 M-2.5,-0.5L0,-3.0L2.5,-0.5"/>
                </g>
                <g id="arrowLeft" xlink:href="#dirArrow" transform="rotate(270) translate(-36 17)" onmousedown="handlePan(-1,0)">
                  <use xlink:href="#rim" fill="#404040">
                        <set attributeName="fill" to="#808080" begin="arrowLeft.mouseover" end="arrowLeft.mouseout"/>
                  </use>
                  <path fill="none" stroke="white" stroke-width="1.5" d="M0,-3.0v7 M-2.5,-0.5L0,-3.0L2.5,-0.5"/>
                </g>
        </g>
        <svg viewBox="0 0 15 15" width="100%" height="30px" preserveAspectRatio="xMaxYMin meet">
         <g id="arrow_out" transform="scale(0.3 0.3)">
          <a xlink:href="structRoar_1_1Server_1_1Implementation__coll__graph_org.svg" target="_base">
           <rect id="button" ry="5" rx="5" y="6" x="6" height="38" width="38"
                fill="#f2f5e9" fill-opacity="0.5" stroke="#606060" stroke-width="1.0"/>
           <path id="arrow"
             d="M 11.500037,31.436501 C 11.940474,20.09759 22.043105,11.32322 32.158766,21.979434 L 37.068811,17.246167 C 37.068811,17.246167 37.088388,32 37.088388,32 L 22.160133,31.978069 C 22.160133,31.978069 26.997745,27.140456 26.997745,27.140456 C 18.528582,18.264221 13.291696,25.230495 11.500037,31.436501 z"
             style="fill:#404040;"/>
          </a>
         </g>
        </svg>
</svg>
