<?xml version="1.0" encoding="UTF-8" standalone="no"?>
<!DOCTYPE svg PUBLIC "-//W3C//DTD SVG 1.1//EN"
 "http://www.w3.org/Graphics/SVG/1.1/DTD/svg11.dtd">
<!-- Generated by graphviz version 8.1.0 (0)
 -->
<!-- Title: Roar::WebsocketClient::ConnectParameters Pages: 1 -->
<svg width="456pt" height="172pt"
 viewBox="0.00 0.00 456.00 172.00" xmlns="http://www.w3.org/2000/svg" xmlns:xlink="http://www.w3.org/1999/xlink">

<svg id="main" version="1.1" xmlns="http://www.w3.org/2000/svg" xmlns:xlink="http://www.w3.org/1999/xlink" xml:space="preserve" onload="init(evt)">
<style type="text/css"><![CDATA[
.node, .edge {opacity: 0.7;}
.node.selected, .edge.selected {opacity: 1;}
.edge:hover path { stroke: red; }
.edge:hover polygon { stroke: red; fill: red; }
]]></style>
<script type="application/ecmascript" xlink:href="svg.min.js"/>
<svg id="graph" class="graph">
<g id="graph0" class="graph" transform="scale(1 1) rotate(0) translate(4 168)">
<title>Roar::WebsocketClient::ConnectParameters</title>
<!-- Node1 -->
<g id="Node000001" class="node">
<title>Node1</title>
<g id="a_Node000001"><a xlink:title=" ">
<polygon fill="#999999" stroke="none" points="236,-52 32,-52 32,0 236,0 236,-52"/>
<text text-anchor="start" x="36.88" y="-38.5" font-family="Helvetica,sans-Serif" font-size="10.00">Roar::WebsocketClient::ConnectParameters</text>
<text text-anchor="start" x="132.5" y="-22.5" font-family="Helvetica,sans-Serif" font-size="10.00"> </text>
<text text-anchor="start" x="132.5" y="-6.5" font-family="Helvetica,sans-Serif" font-size="10.00"> </text>
<polygon fill="#666666" stroke="#666666" points="32,-34 32,-34 236,-34 236,-34 32,-34"/>
<polygon fill="#666666" stroke="#666666" points="32,-18 32,-18 236,-18 236,-18 32,-18"/>
<polygon fill="none" stroke="#666666" points="32,0 32,-52 236,-52 236,0 32,0"/>
</a>
</g>
</g>
<!-- Node2 -->
<g id="Node000002" class="node">
<title>Node2</title>
<g id="a_Node000002"><a xlink:title=" ">
<polygon fill="white" stroke="none" points="70,-164 0,-164 0,-112 70,-112 70,-164"/>
<text text-anchor="start" x="4.62" y="-150.5" font-family="Helvetica,sans-Serif" font-size="10.00">string const &amp;</text>
<text text-anchor="start" x="33.5" y="-134.5" font-family="Helvetica,sans-Serif" font-size="10.00"> </text>
<text text-anchor="start" x="33.5" y="-118.5" font-family="Helvetica,sans-Serif" font-size="10.00"> </text>
<polygon fill="#666666" stroke="#666666" points="0,-146 0,-146 70,-146 70,-146 0,-146"/>
<polygon fill="#666666" stroke="#666666" points="0,-130 0,-130 70,-130 70,-130 0,-130"/>
<polygon fill="none" stroke="#666666" points="0,-112 0,-164 70,-164 70,-112 0,-112"/>
</a>
</g>
</g>
<!-- Node2&#45;&gt;Node1 -->
<g id="edge1_Node000001_Node000002" class="edge">
<title>Node2&#45;&gt;Node1</title>
<g id="a_edge1_Node000001_Node000002"><a xlink:title=" ">
<path fill="none" stroke="#63b8ff" d="M47.74,-112.27C55.28,-98.94 65.63,-82.66 77.25,-70 80.4,-66.56 83.86,-63.21 87.46,-59.98"/>
<polygon fill="none" stroke="#63b8ff" points="87.34,-60.08 89.36,-53.16 96.53,-52.36 94.51,-59.28 87.34,-60.08"/>
</a>
</g>
<text text-anchor="middle" x="91.88" y="-84.5" font-family="Helvetica,sans-Serif" font-size="10.00" fill="grey"> +host</text>
<text text-anchor="middle" x="91.88" y="-72.5" font-family="Helvetica,sans-Serif" font-size="10.00" fill="grey">+port</text>
</g>
<!-- Node3 -->
<g id="Node000003" class="node">
<title>Node3</title>
<g id="a_Node000003"><a xlink:title=" ">
<polygon fill="white" stroke="none" points="122,-164 88,-164 88,-112 122,-112 122,-164"/>
<text text-anchor="start" x="93" y="-150.5" font-family="Helvetica,sans-Serif" font-size="10.00">string</text>
<text text-anchor="start" x="103.5" y="-134.5" font-family="Helvetica,sans-Serif" font-size="10.00"> </text>
<text text-anchor="start" x="103.5" y="-118.5" font-family="Helvetica,sans-Serif" font-size="10.00"> </text>
<polygon fill="#666666" stroke="#666666" points="88,-146 88,-146 122,-146 122,-146 88,-146"/>
<polygon fill="#666666" stroke="#666666" points="88,-130 88,-130 122,-130 122,-130 88,-130"/>
<polygon fill="none" stroke="#666666" points="88,-112 88,-164 122,-164 122,-112 88,-112"/>
</a>
</g>
</g>
<!-- Node3&#45;&gt;Node1 -->
<g id="edge2_Node000001_Node000003" class="edge">
<title>Node3&#45;&gt;Node1</title>
<g id="a_edge2_Node000001_Node000003"><a xlink:title=" ">
<path fill="none" stroke="#63b8ff" d="M106.12,-112.1C107.19,-99.32 109.25,-83.6 113.25,-70 113.86,-67.92 114.56,-65.82 115.33,-63.72"/>
<polygon fill="none" stroke="#63b8ff" points="115.29,-63.81 113.93,-56.73 119.94,-52.75 121.3,-59.83 115.29,-63.81"/>
</a>
</g>
<text text-anchor="middle" x="127.88" y="-78.5" font-family="Helvetica,sans-Serif" font-size="10.00" fill="grey"> +path</text>
</g>
<!-- Node4 -->
<g id="Node000004" class="node">
<title>Node4</title>
<g id="a_Node000004"><a xlink:title=" ">
<polygon fill="white" stroke="none" points="186,-164 140,-164 140,-112 186,-112 186,-164"/>
<text text-anchor="start" x="144.62" y="-150.5" font-family="Helvetica,sans-Serif" font-size="10.00">seconds</text>
<text text-anchor="start" x="161.5" y="-134.5" font-family="Helvetica,sans-Serif" font-size="10.00"> </text>
<text text-anchor="start" x="161.5" y="-118.5" font-family="Helvetica,sans-Serif" font-size="10.00"> </text>
<polygon fill="#666666" stroke="#666666" points="140,-146 140,-146 186,-146 186,-146 140,-146"/>
<polygon fill="#666666" stroke="#666666" points="140,-130 140,-130 186,-130 186,-130 140,-130"/>
<polygon fill="none" stroke="#666666" points="140,-112 140,-164 186,-164 186,-112 140,-112"/>
</a>
</g>
</g>
<!-- Node4&#45;&gt;Node1 -->
<g id="edge3_Node000001_Node000004" class="edge">
<title>Node4&#45;&gt;Node1</title>
<g id="a_edge3_Node000001_Node000004"><a xlink:title=" ">
<path fill="none" stroke="#63b8ff" d="M156.42,-112.04C152.71,-97.98 148.01,-80.13 143.87,-64.42"/>
<polygon fill="none" stroke="#63b8ff" points="143.84,-64.34 138.45,-59.56 140.78,-52.73 146.18,-57.52 143.84,-64.34"/>
</a>
</g>
<text text-anchor="middle" x="172.62" y="-78.5" font-family="Helvetica,sans-Serif" font-size="10.00" fill="grey"> +timeout</text>
</g>
<!-- Node5 -->
<g id="Node000005" class="node">
<title>Node5</title>
<g id="a_Node000005"><a xlink:title=" ">
<polygon fill="white" stroke="none" points="448,-164 204,-164 204,-112 448,-112 448,-164"/>
<text text-anchor="start" x="208.62" y="-150.5" font-family="Helvetica,sans-Serif" font-size="10.00">unordered_map&lt; boost::beast::http::field, std::string &gt;</text>
<text text-anchor="start" x="324.5" y="-134.5" font-family="Helvetica,sans-Serif" font-size="10.00"> </text>
<text text-anchor="start" x="324.5" y="-118.5" font-family="Helvetica,sans-Serif" font-size="10.00"> </text>
<polygon fill="#666666" stroke="#666666" points="204,-146 204,-146 448,-146 448,-146 204,-146"/>
<polygon fill="#666666" stroke="#666666" points="204,-130 204,-130 448,-130 448,-130 204,-130"/>
<polygon fill="none" stroke="#666666" points="204,-112 204,-164 448,-164 448,-112 204,-112"/>
</a>
</g>
</g>
<!-- Node5&#45;&gt;Node1 -->
<g id="edge4_Node000001_Node000005" class="edge">
<title>Node5&#45;&gt;Node1</title>
<g id="a_edge4_Node000001_Node000005"><a xlink:title=" ">
<path fill="none" stroke="#63b8ff" d="M282.43,-112.04C254.57,-96.08 218.21,-75.24 188.45,-58.19"/>
<polygon fill="none" stroke="#63b8ff" points="188.59,-58.28 181.4,-58.76 178.18,-52.31 185.37,-51.82 188.59,-58.28"/>
</a>
</g>
<text text-anchor="middle" x="268.75" y="-78.5" font-family="Helvetica,sans-Serif" font-size="10.00" fill="grey"> +headers</text>
</g>
</g>
</svg>
</svg>

<style type='text/css'>
<![CDATA[
[data-mouse-over-selected='false'] { opacity: 0.7; }
[data-mouse-over-selected='true']  { opacity: 1.0; }
]]>
</style>
<script type="application/ecmascript"><![CDATA[
document.addEventListener('DOMContentLoaded', (event) => {
  highlightEdges();
  highlightAdjacentNodes();
});
]]></script>
</svg>
