<?xml version="1.0" encoding="UTF-8" standalone="no"?>
<!DOCTYPE svg PUBLIC "-//W3C//DTD SVG 1.1//EN"
 "http://www.w3.org/Graphics/SVG/1.1/DTD/svg11.dtd">
<!-- Generated by graphviz version 8.1.0 (0)
 -->
<!-- Title: Roar::DigestAuth Pages: 1 -->
<svg width="103pt" height="328pt"
 viewBox="0.00 0.00 103.25 328.00" xmlns="http://www.w3.org/2000/svg" xmlns:xlink="http://www.w3.org/1999/xlink">
<g id="graph0" class="graph" transform="scale(1 1) rotate(0) translate(4 324)">
<title>Roar::DigestAuth</title>
<!-- Node1 -->
<g id="Node000001" class="node">
<title>Node1</title>
<g id="a_Node000001"><a xlink:title=" ">
<polygon fill="#999999" stroke="none" points="93,-100 0,-100 0,0 93,0 93,-100"/>
<text text-anchor="start" x="8.62" y="-86.5" font-family="Helvetica,sans-Serif" font-size="10.00">Roar::DigestAuth</text>
<text text-anchor="start" x="45" y="-70.5" font-family="Helvetica,sans-Serif" font-size="10.00"> </text>
<text text-anchor="start" x="4" y="-54.5" font-family="Helvetica,sans-Serif" font-size="10.00">+</text>
<text text-anchor="start" x="14" y="-54.5" font-family="Helvetica,sans-Serif" font-size="10.00">toParameters()</text>
<text text-anchor="start" x="4" y="-38.5" font-family="Helvetica,sans-Serif" font-size="10.00">+</text>
<text text-anchor="start" x="14" y="-38.5" font-family="Helvetica,sans-Serif" font-size="10.00">DigestAuth()</text>
<text text-anchor="start" x="4" y="-22.5" font-family="Helvetica,sans-Serif" font-size="10.00">+</text>
<text text-anchor="start" x="14" y="-22.5" font-family="Helvetica,sans-Serif" font-size="10.00">DigestAuth()</text>
<text text-anchor="start" x="4" y="-6.5" font-family="Helvetica,sans-Serif" font-size="10.00">+</text>
<text text-anchor="start" x="14" y="-6.5" font-family="Helvetica,sans-Serif" font-size="10.00">fromParameters()</text>
<polygon fill="#666666" stroke="#666666" points="0,-82 0,-82 93,-82 93,-82 0,-82"/>
<polygon fill="#666666" stroke="#666666" points="0,-66 0,-66 93,-66 93,-66 0,-66"/>
<polygon fill="none" stroke="#666666" points="0,0 0,-100 93,-100 93,0 0,0"/>
</a>
</g>
</g>
<!-- Node2 -->
<g id="Node000002" class="node">
<title>Node2</title>
<g id="a_Node000002"><a xlink:title=" ">
<polygon fill="white" stroke="none" points="63.5,-320 29.5,-320 29.5,-268 63.5,-268 63.5,-320"/>
<text text-anchor="start" x="34.5" y="-306.5" font-family="Helvetica,sans-Serif" font-size="10.00">string</text>
<text text-anchor="start" x="45" y="-290.5" font-family="Helvetica,sans-Serif" font-size="10.00"> </text>
<text text-anchor="start" x="45" y="-274.5" font-family="Helvetica,sans-Serif" font-size="10.00"> </text>
<polygon fill="#666666" stroke="#666666" points="29.5,-302 29.5,-302 63.5,-302 63.5,-302 29.5,-302"/>
<polygon fill="#666666" stroke="#666666" points="29.5,-286 29.5,-286 63.5,-286 63.5,-286 29.5,-286"/>
<polygon fill="none" stroke="#666666" points="29.5,-268 29.5,-320 63.5,-320 63.5,-268 29.5,-268"/>
</a>
</g>
</g>
<!-- Node2&#45;&gt;Node1 -->
<g id="edge1_Node000001_Node000002" class="edge">
<title>Node2&#45;&gt;Node1</title>
<g id="a_edge1_Node000001_Node000002"><a xlink:title=" ">
<path fill="none" stroke="#63b8ff" d="M46.5,-268.01C46.5,-231.65 46.5,-163.01 46.5,-112.62"/>
<polygon fill="none" stroke="#63b8ff" points="46.5,-112.49 42.5,-106.49 46.5,-100.49 50.5,-106.49 46.5,-112.49"/>
</a>
</g>
<text text-anchor="middle" x="70.88" y="-240.5" font-family="Helvetica,sans-Serif" font-size="10.00" fill="grey"> +algorithm</text>
<text text-anchor="middle" x="70.88" y="-228.5" font-family="Helvetica,sans-Serif" font-size="10.00" fill="grey">+cnonce</text>
<text text-anchor="middle" x="70.88" y="-216.5" font-family="Helvetica,sans-Serif" font-size="10.00" fill="grey">+nc</text>
<text text-anchor="middle" x="70.88" y="-204.5" font-family="Helvetica,sans-Serif" font-size="10.00" fill="grey">+nonce</text>
<text text-anchor="middle" x="70.88" y="-192.5" font-family="Helvetica,sans-Serif" font-size="10.00" fill="grey">+opaque</text>
<text text-anchor="middle" x="70.88" y="-180.5" font-family="Helvetica,sans-Serif" font-size="10.00" fill="grey">+qop</text>
<text text-anchor="middle" x="70.88" y="-168.5" font-family="Helvetica,sans-Serif" font-size="10.00" fill="grey">+realm</text>
<text text-anchor="middle" x="70.88" y="-156.5" font-family="Helvetica,sans-Serif" font-size="10.00" fill="grey">+response</text>
<text text-anchor="middle" x="70.88" y="-144.5" font-family="Helvetica,sans-Serif" font-size="10.00" fill="grey">+uri</text>
<text text-anchor="middle" x="70.88" y="-132.5" font-family="Helvetica,sans-Serif" font-size="10.00" fill="grey">+username</text>
<text text-anchor="middle" x="70.88" y="-120.5" font-family="Helvetica,sans-Serif" font-size="10.00" fill="grey">...</text>
</g>
</g>
</svg>
