<?xml version="1.0" encoding="UTF-8" standalone="no"?>
<!DOCTYPE svg PUBLIC "-//W3C//DTD SVG 1.1//EN"
 "http://www.w3.org/Graphics/SVG/1.1/DTD/svg11.dtd">
<!-- Generated by graphviz version 2.44.1 (20211215.1903)
 -->
<!-- Title: Roar::Error Pages: 1 -->
<svg width="320pt" height="171pt"
 viewBox="0.00 0.00 319.50 171.00" xmlns="http://www.w3.org/2000/svg" xmlns:xlink="http://www.w3.org/1999/xlink">
<g id="graph0" class="graph" transform="scale(1 1) rotate(0) translate(4 167)">
<title>Roar::Error</title>
<!-- Node1 -->
<g id="node1" class="node">
<title>Node1</title>
<g id="a_node1"><a xlink:title="Holds errors that are produced asynchronously anywhere.">
<polygon fill="#bfbfbf" stroke="black" points="163,-0.5 163,-57.5 228,-57.5 228,-0.5 163,-0.5"/>
<text text-anchor="middle" x="195.5" y="-45.5" font-family="Helvetica,sans-Serif" font-size="10.00">Roar::Error</text>
<polyline fill="none" stroke="black" points="163,-38.5 228,-38.5 "/>
<text text-anchor="middle" x="195.5" y="-26.5" font-family="Helvetica,sans-Serif" font-size="10.00"> </text>
<polyline fill="none" stroke="black" points="163,-19.5 228,-19.5 "/>
<text text-anchor="start" x="171" y="-7.5" font-family="Helvetica,sans-Serif" font-size="10.00">+ toString()</text>
</a>
</g>
</g>
<!-- Node2 -->
<g id="node2" class="node">
<title>Node2</title>
<g id="a_node2"><a xlink:title=" ">
<polygon fill="none" stroke="black" points="0,-105.5 0,-162.5 227,-162.5 227,-105.5 0,-105.5"/>
<text text-anchor="middle" x="113.5" y="-150.5" font-family="Helvetica,sans-Serif" font-size="10.00">variant&lt; boost::system::error_code, std::string &gt;</text>
<polyline fill="none" stroke="black" points="0,-143.5 227,-143.5 "/>
<text text-anchor="middle" x="113.5" y="-131.5" font-family="Helvetica,sans-Serif" font-size="10.00"> </text>
<polyline fill="none" stroke="black" points="0,-124.5 227,-124.5 "/>
<text text-anchor="middle" x="113.5" y="-112.5" font-family="Helvetica,sans-Serif" font-size="10.00"> </text>
</a>
</g>
</g>
<!-- Node2&#45;&gt;Node1 -->
<g id="edge1" class="edge">
<title>Node2&#45;&gt;Node1</title>
<path fill="none" stroke="#404040" d="M135.47,-105.4C144.76,-93.74 155.71,-79.98 165.71,-67.42"/>
<polygon fill="none" stroke="#404040" points="165.99,-67.07 166.6,-59.88 173.46,-57.68 172.86,-64.86 165.99,-67.07"/>
<text text-anchor="middle" x="172" y="-79" font-family="Helvetica,sans-Serif" font-size="10.00"> +error</text>
</g>
<!-- Node3 -->
<g id="node3" class="node">
<title>Node3</title>
<g id="a_node3"><a xlink:title=" ">
<polygon fill="none" stroke="black" points="245.5,-105.5 245.5,-162.5 311.5,-162.5 311.5,-105.5 245.5,-105.5"/>
<text text-anchor="middle" x="278.5" y="-150.5" font-family="Helvetica,sans-Serif" font-size="10.00">string_view</text>
<polyline fill="none" stroke="black" points="245.5,-143.5 311.5,-143.5 "/>
<text text-anchor="middle" x="278.5" y="-131.5" font-family="Helvetica,sans-Serif" font-size="10.00"> </text>
<polyline fill="none" stroke="black" points="245.5,-124.5 311.5,-124.5 "/>
<text text-anchor="middle" x="278.5" y="-112.5" font-family="Helvetica,sans-Serif" font-size="10.00"> </text>
</a>
</g>
</g>
<!-- Node3&#45;&gt;Node1 -->
<g id="edge2" class="edge">
<title>Node3&#45;&gt;Node1</title>
<path fill="none" stroke="#404040" d="M256.26,-105.4C246.77,-93.62 235.55,-79.7 225.36,-67.05"/>
<polygon fill="none" stroke="#404040" points="225.33,-67.02 218.45,-64.86 217.8,-57.68 224.68,-59.84 225.33,-67.02"/>
<text text-anchor="middle" x="272" y="-79" font-family="Helvetica,sans-Serif" font-size="10.00"> +additionalInfo</text>
</g>
</g>
</svg>
