<?xml version="1.0" encoding="UTF-8" standalone="no"?>
<!DOCTYPE svg PUBLIC "-//W3C//DTD SVG 1.1//EN"
 "http://www.w3.org/Graphics/SVG/1.1/DTD/svg11.dtd">
<!-- Generated by graphviz version 8.1.0 (0)
 -->
<!-- Title: Roar::Factory::Implementation Pages: 1 -->
<svg width="528pt" height="160pt"
 viewBox="0.00 0.00 527.50 160.00" xmlns="http://www.w3.org/2000/svg" xmlns:xlink="http://www.w3.org/1999/xlink">
<g id="graph0" class="graph" transform="scale(1 1) rotate(0) translate(4 156)">
<title>Roar::Factory::Implementation</title>
<!-- Node1 -->
<g id="Node000001" class="node">
<title>Node1</title>
<g id="a_Node000001"><a xlink:title=" ">
<polygon fill="#999999" stroke="none" points="381.5,-52 239.5,-52 239.5,0 381.5,0 381.5,-52"/>
<text text-anchor="start" x="244.12" y="-38.5" font-family="Helvetica,sans-Serif" font-size="10.00">Roar::Factory::Implementation</text>
<text text-anchor="start" x="309" y="-22.5" font-family="Helvetica,sans-Serif" font-size="10.00"> </text>
<text text-anchor="start" x="256.5" y="-6.5" font-family="Helvetica,sans-Serif" font-size="10.00">+</text>
<text text-anchor="start" x="279.5" y="-6.5" font-family="Helvetica,sans-Serif" font-size="10.00">Implementation()</text>
<polygon fill="#666666" stroke="#666666" points="239.5,-34 239.5,-34 381.5,-34 381.5,-34 239.5,-34"/>
<polygon fill="#666666" stroke="#666666" points="239.5,-18 239.5,-18 381.5,-18 381.5,-18 239.5,-18"/>
<polygon fill="none" stroke="#666666" points="239.5,0 239.5,-52 381.5,-52 381.5,0 239.5,0"/>
</a>
</g>
</g>
<!-- Node2 -->
<g id="Node000002" class="node">
<title>Node2</title>
<g id="a_Node000002"><a xlink:title=" ">
<polygon fill="white" stroke="none" points="353,-152 0,-152 0,-100 353,-100 353,-152"/>
<text text-anchor="start" x="4.75" y="-138.5" font-family="Helvetica,sans-Serif" font-size="10.00">optional&lt; std::variant&lt; Roar::SslServerContext, boost::asio::ssl::context &gt; &gt; &amp;</text>
<text text-anchor="start" x="175" y="-122.5" font-family="Helvetica,sans-Serif" font-size="10.00"> </text>
<text text-anchor="start" x="175" y="-106.5" font-family="Helvetica,sans-Serif" font-size="10.00"> </text>
<polygon fill="#666666" stroke="#666666" points="0,-134 0,-134 353,-134 353,-134 0,-134"/>
<polygon fill="#666666" stroke="#666666" points="0,-118 0,-118 353,-118 353,-118 0,-118"/>
<polygon fill="none" stroke="#666666" points="0,-100 0,-152 353,-152 353,-100 0,-100"/>
</a>
</g>
</g>
<!-- Node2&#45;&gt;Node1 -->
<g id="edge1_Node000001_Node000002" class="edge">
<title>Node2&#45;&gt;Node1</title>
<g id="a_edge1_Node000001_Node000002"><a xlink:title=" ">
<path fill="none" stroke="#63b8ff" d="M210.66,-100.02C227.51,-87.69 248.05,-72.67 266.1,-59.47"/>
<polygon fill="none" stroke="#63b8ff" points="265.99,-59.55 268.47,-52.78 275.67,-52.47 273.19,-59.24 265.99,-59.55"/>
</a>
</g>
<text text-anchor="middle" x="280.62" y="-72.5" font-family="Helvetica,sans-Serif" font-size="10.00" fill="grey"> +sslContext</text>
</g>
<!-- Node3 -->
<g id="Node000003" class="node">
<title>Node3</title>
<g id="a_Node000003"><a xlink:title=" ">
<polygon fill="white" stroke="none" points="519.5,-152 371.5,-152 371.5,-100 519.5,-100 519.5,-152"/>
<text text-anchor="start" x="376.5" y="-138.5" font-family="Helvetica,sans-Serif" font-size="10.00">function&lt; void(Roar::Error &amp;&amp;)&gt;</text>
<text text-anchor="start" x="444" y="-122.5" font-family="Helvetica,sans-Serif" font-size="10.00"> </text>
<text text-anchor="start" x="444" y="-106.5" font-family="Helvetica,sans-Serif" font-size="10.00"> </text>
<polygon fill="#666666" stroke="#666666" points="371.5,-134 371.5,-134 519.5,-134 519.5,-134 371.5,-134"/>
<polygon fill="#666666" stroke="#666666" points="371.5,-118 371.5,-118 519.5,-118 519.5,-118 371.5,-118"/>
<polygon fill="none" stroke="#666666" points="371.5,-100 371.5,-152 519.5,-152 519.5,-100 371.5,-100"/>
</a>
</g>
</g>
<!-- Node3&#45;&gt;Node1 -->
<g id="edge2_Node000001_Node000003" class="edge">
<title>Node3&#45;&gt;Node1</title>
<g id="a_edge2_Node000001_Node000003"><a xlink:title=" ">
<path fill="none" stroke="#63b8ff" d="M411.08,-100.02C394.11,-87.69 373.42,-72.67 355.23,-59.47"/>
<polygon fill="none" stroke="#63b8ff" points="355.29,-59.52 348.09,-59.23 345.58,-52.47 352.79,-52.75 355.29,-59.52"/>
</a>
</g>
<text text-anchor="middle" x="405.75" y="-72.5" font-family="Helvetica,sans-Serif" font-size="10.00" fill="grey"> +onError</text>
</g>
</g>
</svg>
