<?xml version="1.0" encoding="UTF-8" standalone="no"?>
<!DOCTYPE svg PUBLIC "-//W3C//DTD SVG 1.1//EN"
 "http://www.w3.org/Graphics/SVG/1.1/DTD/svg11.dtd">
<!-- Generated by graphviz version 2.44.1 (20211215.1903)
 -->
<!-- Title: Roar::Server::ConstructionArguments Pages: 1 -->
<svg width="927pt" height="171pt"
 viewBox="0.00 0.00 927.00 171.00" xmlns="http://www.w3.org/2000/svg" xmlns:xlink="http://www.w3.org/1999/xlink">
<g id="graph0" class="graph" transform="scale(1 1) rotate(0) translate(4 167)">
<title>Roar::Server::ConstructionArguments</title>
<!-- Node1 -->
<g id="node1" class="node">
<title>Node1</title>
<g id="a_node1"><a xlink:title=" ">
<polygon fill="#bfbfbf" stroke="black" points="284.5,-0.5 284.5,-57.5 465.5,-57.5 465.5,-0.5 284.5,-0.5"/>
<text text-anchor="middle" x="375" y="-45.5" font-family="Helvetica,sans-Serif" font-size="10.00">Roar::Server::ConstructionArguments</text>
<polyline fill="none" stroke="black" points="284.5,-38.5 465.5,-38.5 "/>
<text text-anchor="middle" x="375" y="-26.5" font-family="Helvetica,sans-Serif" font-size="10.00"> </text>
<polyline fill="none" stroke="black" points="284.5,-19.5 465.5,-19.5 "/>
<text text-anchor="middle" x="375" y="-7.5" font-family="Helvetica,sans-Serif" font-size="10.00"> </text>
</a>
</g>
</g>
<!-- Node2 -->
<g id="node2" class="node">
<title>Node2</title>
<g id="a_node2"><a xlink:title=" ">
<polygon fill="none" stroke="black" points="0,-105.5 0,-162.5 88,-162.5 88,-105.5 0,-105.5"/>
<text text-anchor="middle" x="44" y="-150.5" font-family="Helvetica,sans-Serif" font-size="10.00">any_io_executor</text>
<polyline fill="none" stroke="black" points="0,-143.5 88,-143.5 "/>
<text text-anchor="middle" x="44" y="-131.5" font-family="Helvetica,sans-Serif" font-size="10.00"> </text>
<polyline fill="none" stroke="black" points="0,-124.5 88,-124.5 "/>
<text text-anchor="middle" x="44" y="-112.5" font-family="Helvetica,sans-Serif" font-size="10.00"> </text>
</a>
</g>
</g>
<!-- Node2&#45;&gt;Node1 -->
<g id="edge1" class="edge">
<title>Node2&#45;&gt;Node1</title>
<path fill="none" stroke="#404040" d="M88.19,-108.74C91.14,-107.4 94.09,-106.14 97,-105 153.66,-82.71 219.32,-64.66 272.61,-51.85"/>
<polygon fill="none" stroke="#404040" points="272.8,-51.81 277.71,-46.53 284.47,-49.04 279.56,-54.31 272.8,-51.81"/>
<text text-anchor="middle" x="203.5" y="-79" font-family="Helvetica,sans-Serif" font-size="10.00"> +executor</text>
</g>
<!-- Node3 -->
<g id="node3" class="node">
<title>Node3</title>
<g id="a_node3"><a xlink:title=" ">
<polygon fill="none" stroke="black" points="106.5,-105.5 106.5,-162.5 279.5,-162.5 279.5,-105.5 106.5,-105.5"/>
<text text-anchor="middle" x="193" y="-150.5" font-family="Helvetica,sans-Serif" font-size="10.00">optional&lt; boost::asio::ssl::context &gt;</text>
<polyline fill="none" stroke="black" points="106.5,-143.5 279.5,-143.5 "/>
<text text-anchor="middle" x="193" y="-131.5" font-family="Helvetica,sans-Serif" font-size="10.00"> </text>
<polyline fill="none" stroke="black" points="106.5,-124.5 279.5,-124.5 "/>
<text text-anchor="middle" x="193" y="-112.5" font-family="Helvetica,sans-Serif" font-size="10.00"> </text>
</a>
</g>
</g>
<!-- Node3&#45;&gt;Node1 -->
<g id="edge2" class="edge">
<title>Node3&#45;&gt;Node1</title>
<path fill="none" stroke="#404040" d="M241.77,-105.4C264.42,-92.58 291.54,-77.23 315.39,-63.73"/>
<polygon fill="none" stroke="#404040" points="315.65,-63.59 318.9,-57.15 326.09,-57.68 322.84,-64.11 315.65,-63.59"/>
<text text-anchor="middle" x="318.5" y="-79" font-family="Helvetica,sans-Serif" font-size="10.00"> +sslContext</text>
</g>
<!-- Node4 -->
<g id="node4" class="node">
<title>Node4</title>
<g id="a_node4"><a xlink:title=" ">
<polygon fill="none" stroke="black" points="297.5,-105.5 297.5,-162.5 452.5,-162.5 452.5,-105.5 297.5,-105.5"/>
<text text-anchor="middle" x="375" y="-150.5" font-family="Helvetica,sans-Serif" font-size="10.00">function&lt; void(Roar::Error &amp;&amp;)&gt;</text>
<polyline fill="none" stroke="black" points="297.5,-143.5 452.5,-143.5 "/>
<text text-anchor="middle" x="375" y="-131.5" font-family="Helvetica,sans-Serif" font-size="10.00"> </text>
<polyline fill="none" stroke="black" points="297.5,-124.5 452.5,-124.5 "/>
<text text-anchor="middle" x="375" y="-112.5" font-family="Helvetica,sans-Serif" font-size="10.00"> </text>
</a>
</g>
</g>
<!-- Node4&#45;&gt;Node1 -->
<g id="edge3" class="edge">
<title>Node4&#45;&gt;Node1</title>
<path fill="none" stroke="#404040" d="M375,-105.4C375,-94.55 375,-81.87 375,-70.05"/>
<polygon fill="none" stroke="#404040" points="375,-69.68 371,-63.68 375,-57.68 379,-63.68 375,-69.68"/>
<text text-anchor="middle" x="395.5" y="-79" font-family="Helvetica,sans-Serif" font-size="10.00"> +onError</text>
</g>
<!-- Node5 -->
<g id="node5" class="node">
<title>Node5</title>
<g id="a_node5"><a xlink:title=" ">
<polygon fill="none" stroke="black" points="471,-105.5 471,-162.5 675,-162.5 675,-105.5 471,-105.5"/>
<text text-anchor="middle" x="573" y="-150.5" font-family="Helvetica,sans-Serif" font-size="10.00">function&lt; void(boost::system::error_code)&gt;</text>
<polyline fill="none" stroke="black" points="471,-143.5 675,-143.5 "/>
<text text-anchor="middle" x="573" y="-131.5" font-family="Helvetica,sans-Serif" font-size="10.00"> </text>
<polyline fill="none" stroke="black" points="471,-124.5 675,-124.5 "/>
<text text-anchor="middle" x="573" y="-112.5" font-family="Helvetica,sans-Serif" font-size="10.00"> </text>
</a>
</g>
</g>
<!-- Node5&#45;&gt;Node1 -->
<g id="edge4" class="edge">
<title>Node5&#45;&gt;Node1</title>
<path fill="none" stroke="#404040" d="M519.94,-105.4C495.08,-92.47 465.26,-76.95 439.15,-63.37"/>
<polygon fill="none" stroke="#404040" points="438.85,-63.22 431.68,-64 428.21,-57.68 435.38,-56.9 438.85,-63.22"/>
<text text-anchor="middle" x="517" y="-79" font-family="Helvetica,sans-Serif" font-size="10.00"> +onAcceptAbort</text>
</g>
<!-- Node6 -->
<g id="node6" class="node">
<title>Node6</title>
<g id="a_node6"><a xlink:title=" ">
<polygon fill="none" stroke="black" points="693,-105.5 693,-162.5 919,-162.5 919,-105.5 693,-105.5"/>
<text text-anchor="middle" x="806" y="-150.5" font-family="Helvetica,sans-Serif" font-size="10.00">unique_ptr&lt; Roar::StandardResponseProvider &gt;</text>
<polyline fill="none" stroke="black" points="693,-143.5 919,-143.5 "/>
<text text-anchor="middle" x="806" y="-131.5" font-family="Helvetica,sans-Serif" font-size="10.00"> </text>
<polyline fill="none" stroke="black" points="693,-124.5 919,-124.5 "/>
<text text-anchor="middle" x="806" y="-112.5" font-family="Helvetica,sans-Serif" font-size="10.00"> </text>
</a>
</g>
</g>
<!-- Node6&#45;&gt;Node1 -->
<g id="edge5" class="edge">
<title>Node6&#45;&gt;Node1</title>
<path fill="none" stroke="#404040" d="M692.76,-105.94C626.08,-90 542.39,-70 477.64,-54.53"/>
<polygon fill="none" stroke="#404040" points="477.45,-54.48 470.68,-56.98 465.78,-51.69 472.54,-49.2 477.45,-54.48"/>
<text text-anchor="middle" x="666.5" y="-79" font-family="Helvetica,sans-Serif" font-size="10.00"> +standardResponseProvider</text>
</g>
</g>
</svg>
