<?xml version="1.0" encoding="UTF-8" standalone="no"?>
<!DOCTYPE svg PUBLIC "-//W3C//DTD SVG 1.1//EN"
 "http://www.w3.org/Graphics/SVG/1.1/DTD/svg11.dtd">
<!-- Generated by graphviz version 2.44.1 (20211215.1903)
 -->
<!-- Title: Roar::Route::Implementation Pages: 1 -->
<!--zoomable 393 -->
<svg id="main" version="1.1" xmlns="http://www.w3.org/2000/svg" xmlns:xlink="http://www.w3.org/1999/xlink" xml:space="preserve" onload="init(evt)">
<style type="text/css"><![CDATA[
.edge:hover path { stroke: red; }
.edge:hover polygon { stroke: red; fill: red; }
]]></style>
<script type="text/javascript"><![CDATA[
var edges = document.getElementsByTagName('g');
if (edges && edges.length) {
  for (var i=0;i<edges.length;i++) {
    if (edges[i].id.substr(0,4)=='edge') {
      edges[i].setAttribute('class','edge');
    }
  }
}
]]></script>
        <defs>
                <circle id="rim" cx="0" cy="0" r="7"/>
                <circle id="rim2" cx="0" cy="0" r="3.5"/>
                <g id="zoomPlus">
                        <use xlink:href="#rim" fill="#404040">
                                <set attributeName="fill" to="#808080" begin="zoomplus.mouseover" end="zoomplus.mouseout"/>
                        </use>
                        <path d="M-4,0h8M0,-4v8" fill="none" stroke="white" stroke-width="1.5" pointer-events="none"/>
                </g>
                <g id="zoomMin">
                        <use xlink:href="#rim" fill="#404040">
                                <set attributeName="fill" to="#808080" begin="zoomminus.mouseover" end="zoomminus.mouseout"/>
                        </use>
                        <path d="M-4,0h8" fill="none" stroke="white" stroke-width="1.5" pointer-events="none"/>
                </g>
                <g id="dirArrow">
                        <path fill="none" stroke="white" stroke-width="1.5" d="M0,-3.0v7 M-2.5,-0.5L0,-3.0L2.5,-0.5"/>
                </g>
               <g id="resetDef">
                       <use xlink:href="#rim2" fill="#404040">
                               <set attributeName="fill" to="#808080" begin="reset.mouseover" end="reset.mouseout"/>
                       </use>
               </g>
        </defs>

<script type="text/javascript">
var viewWidth = 1132;
var viewHeight = 393;
var sectionId = 'dynsection-0';
</script>
<script xlink:href="svgpan.js"/>
<svg id="graph" class="graph">
<g id="viewport">
<title>Roar::Route::Implementation</title>
<!-- Node1 -->
<g id="node1" class="node">
<title>Node1</title>
<g id="a_node1"><a xlink:title=" ">
<polygon fill="#bfbfbf" stroke="black" points="540.5,-0.5 540.5,-57.5 683.5,-57.5 683.5,-0.5 540.5,-0.5"/>
<text text-anchor="middle" x="612" y="-45.5" font-family="Helvetica,sans-Serif" font-size="10.00">Roar::Route::Implementation</text>
<polyline fill="none" stroke="black" points="540.5,-38.5 683.5,-38.5 "/>
<text text-anchor="middle" x="612" y="-26.5" font-family="Helvetica,sans-Serif" font-size="10.00"> </text>
<polyline fill="none" stroke="black" points="540.5,-19.5 683.5,-19.5 "/>
<text text-anchor="start" x="548.5" y="-7.5" font-family="Helvetica,sans-Serif" font-size="10.00">+ Implementation()</text>
</a>
</g>
</g>
<!-- Node2 -->
<g id="node2" class="node">
<title>Node2</title>
<g id="a_node2"><a xlink:href="structRoar_1_1ProtoRoute.html" target="_top" xlink:title="A proper Route is built up from this object. This object is usually created internally.">
<polygon fill="none" stroke="black" points="565.5,-95.5 565.5,-152.5 658.5,-152.5 658.5,-95.5 565.5,-95.5"/>
<text text-anchor="middle" x="612" y="-140.5" font-family="Helvetica,sans-Serif" font-size="10.00">Roar::ProtoRoute</text>
<polyline fill="none" stroke="black" points="565.5,-133.5 658.5,-133.5 "/>
<text text-anchor="middle" x="612" y="-121.5" font-family="Helvetica,sans-Serif" font-size="10.00"> </text>
<polyline fill="none" stroke="black" points="565.5,-114.5 658.5,-114.5 "/>
<text text-anchor="middle" x="612" y="-102.5" font-family="Helvetica,sans-Serif" font-size="10.00"> </text>
</a>
</g>
</g>
<!-- Node2&#45;&gt;Node1 -->
<g id="edge1" class="edge">
<title>Node2&#45;&gt;Node1</title>
<path fill="none" stroke="midnightblue" d="M612,-85.24C612,-76.03 612,-66.35 612,-57.71"/>
<polygon fill="none" stroke="midnightblue" points="608.5,-85.35 612,-95.35 615.5,-85.35 608.5,-85.35"/>
</g>
<!-- Node3 -->
<g id="node3" class="node">
<title>Node3</title>
<g id="a_node3"><a xlink:title=" ">
<polygon fill="none" stroke="black" points="0,-206 0,-263 272,-263 272,-206 0,-206"/>
<text text-anchor="middle" x="136" y="-251" font-family="Helvetica,sans-Serif" font-size="10.00">variant&lt; std::string, std::regex, Roar::Detail::ServedPath &gt;</text>
<polyline fill="none" stroke="black" points="0,-244 272,-244 "/>
<text text-anchor="middle" x="136" y="-232" font-family="Helvetica,sans-Serif" font-size="10.00"> </text>
<polyline fill="none" stroke="black" points="0,-225 272,-225 "/>
<text text-anchor="middle" x="136" y="-213" font-family="Helvetica,sans-Serif" font-size="10.00"> </text>
</a>
</g>
</g>
<!-- Node3&#45;&gt;Node2 -->
<g id="edge2" class="edge">
<title>Node3&#45;&gt;Node2</title>
<path fill="none" stroke="#404040" d="M255.08,-205.95C263.85,-203.93 272.56,-201.93 281,-200 376.44,-178.16 487.43,-153.08 553.58,-138.16"/>
<polygon fill="none" stroke="#404040" points="553.69,-138.13 558.66,-132.91 565.39,-135.5 560.42,-140.72 553.69,-138.13"/>
<text text-anchor="middle" x="423" y="-174" font-family="Helvetica,sans-Serif" font-size="10.00"> +path</text>
</g>
<!-- Node4 -->
<g id="node4" class="node">
<title>Node4</title>
<g id="a_node4"><a xlink:title=" ">
<polygon fill="none" stroke="black" points="290,-200.5 290,-268.5 610,-268.5 610,-200.5 290,-200.5"/>
<text text-anchor="start" x="298" y="-256.5" font-family="Helvetica,sans-Serif" font-size="10.00">function&lt; void(Roar::Session &amp;session, Roar::Request&lt; boost::beast</text>
<text text-anchor="middle" x="450" y="-245.5" font-family="Helvetica,sans-Serif" font-size="10.00">::http::empty_body &gt; &amp;&amp;req)&gt;</text>
<polyline fill="none" stroke="black" points="290,-238.5 610,-238.5 "/>
<text text-anchor="middle" x="450" y="-226.5" font-family="Helvetica,sans-Serif" font-size="10.00"> </text>
<polyline fill="none" stroke="black" points="290,-219.5 610,-219.5 "/>
<text text-anchor="middle" x="450" y="-207.5" font-family="Helvetica,sans-Serif" font-size="10.00"> </text>
</a>
</g>
</g>
<!-- Node4&#45;&gt;Node2 -->
<g id="edge3" class="edge">
<title>Node4&#45;&gt;Node2</title>
<path fill="none" stroke="#404040" d="M499.49,-200.36C518.81,-187.41 540.97,-172.57 560.48,-159.5"/>
<polygon fill="none" stroke="#404040" points="560.75,-159.33 563.51,-152.66 570.72,-152.65 567.96,-159.31 560.75,-159.33"/>
<text text-anchor="middle" x="566.5" y="-174" font-family="Helvetica,sans-Serif" font-size="10.00"> +callRoute</text>
</g>
<!-- Node5 -->
<g id="node5" class="node">
<title>Node5</title>
<g id="a_node5"><a xlink:title=" ">
<polygon fill="none" stroke="black" points="628,-206 628,-263 922,-263 922,-206 628,-206"/>
<text text-anchor="middle" x="775" y="-251" font-family="Helvetica,sans-Serif" font-size="10.00">function&lt; bool(std::string const &amp;, std::vector&lt; std::string &gt; &amp;)&gt;</text>
<polyline fill="none" stroke="black" points="628,-244 922,-244 "/>
<text text-anchor="middle" x="775" y="-232" font-family="Helvetica,sans-Serif" font-size="10.00"> </text>
<polyline fill="none" stroke="black" points="628,-225 922,-225 "/>
<text text-anchor="middle" x="775" y="-213" font-family="Helvetica,sans-Serif" font-size="10.00"> </text>
</a>
</g>
</g>
<!-- Node5&#45;&gt;Node2 -->
<g id="edge4" class="edge">
<title>Node5&#45;&gt;Node2</title>
<path fill="none" stroke="#404040" d="M733.45,-205.84C712.18,-191.68 686.09,-174.32 663.55,-159.32"/>
<polygon fill="none" stroke="#404040" points="663.47,-159.26 656.26,-159.26 653.48,-152.61 660.69,-152.6 663.47,-159.26"/>
<text text-anchor="middle" x="717.5" y="-174" font-family="Helvetica,sans-Serif" font-size="10.00"> +matches</text>
</g>
<!-- Node6 -->
<g id="node6" class="node">
<title>Node6</title>
<g id="a_node6"><a xlink:href="structRoar_1_1RouteOptions.html" target="_top" xlink:title="Options that modify the server behavior for a given route.">
<polygon fill="none" stroke="black" points="940,-206 940,-263 1044,-263 1044,-206 940,-206"/>
<text text-anchor="middle" x="992" y="-251" font-family="Helvetica,sans-Serif" font-size="10.00">Roar::RouteOptions</text>
<polyline fill="none" stroke="black" points="940,-244 1044,-244 "/>
<text text-anchor="middle" x="992" y="-232" font-family="Helvetica,sans-Serif" font-size="10.00"> </text>
<polyline fill="none" stroke="black" points="940,-225 1044,-225 "/>
<text text-anchor="middle" x="992" y="-213" font-family="Helvetica,sans-Serif" font-size="10.00"> </text>
</a>
</g>
</g>
<!-- Node6&#45;&gt;Node2 -->
<g id="edge5" class="edge">
<title>Node6&#45;&gt;Node2</title>
<path fill="none" stroke="#404040" d="M944.64,-205.9C940.1,-203.74 935.51,-201.73 931,-200 843.18,-166.29 735.73,-144.83 670.64,-133.87"/>
<polygon fill="none" stroke="#404040" points="670.44,-133.84 663.87,-136.81 658.6,-131.88 665.17,-128.91 670.44,-133.84"/>
<text text-anchor="middle" x="904.5" y="-174" font-family="Helvetica,sans-Serif" font-size="10.00"> +routeOptions</text>
</g>
<!-- Node7 -->
<g id="node7" class="node">
<title>Node7</title>
<g id="a_node7"><a xlink:title=" ">
<polygon fill="none" stroke="black" points="918.5,-327.5 918.5,-384.5 953.5,-384.5 953.5,-327.5 918.5,-327.5"/>
<text text-anchor="middle" x="936" y="-372.5" font-family="Helvetica,sans-Serif" font-size="10.00">bool</text>
<polyline fill="none" stroke="black" points="918.5,-365.5 953.5,-365.5 "/>
<text text-anchor="middle" x="936" y="-353.5" font-family="Helvetica,sans-Serif" font-size="10.00"> </text>
<polyline fill="none" stroke="black" points="918.5,-346.5 953.5,-346.5 "/>
<text text-anchor="middle" x="936" y="-334.5" font-family="Helvetica,sans-Serif" font-size="10.00"> </text>
</a>
</g>
</g>
<!-- Node7&#45;&gt;Node6 -->
<g id="edge6" class="edge">
<title>Node7&#45;&gt;Node6</title>
<path fill="none" stroke="#404040" d="M939.74,-327.29C942.15,-314.58 945.99,-299.58 952,-287 954.22,-282.35 956.92,-277.72 959.86,-273.25"/>
<polygon fill="none" stroke="#404040" points="960.06,-272.97 960.28,-265.76 967.02,-263.2 966.8,-270.4 960.06,-272.97"/>
<text text-anchor="middle" x="989" y="-301" font-family="Helvetica,sans-Serif" font-size="10.00"> +allowUnsecure</text>
<text text-anchor="middle" x="989" y="-290" font-family="Helvetica,sans-Serif" font-size="10.00">+expectUpgrade</text>
</g>
<!-- Node8 -->
<g id="node8" class="node">
<title>Node8</title>
<g id="a_node8"><a xlink:title=" ">
<polygon fill="none" stroke="black" points="972,-327.5 972,-384.5 1124,-384.5 1124,-327.5 972,-327.5"/>
<text text-anchor="middle" x="1048" y="-372.5" font-family="Helvetica,sans-Serif" font-size="10.00">optional&lt; Roar::CorsSettings &gt;</text>
<polyline fill="none" stroke="black" points="972,-365.5 1124,-365.5 "/>
<text text-anchor="middle" x="1048" y="-353.5" font-family="Helvetica,sans-Serif" font-size="10.00"> </text>
<polyline fill="none" stroke="black" points="972,-346.5 1124,-346.5 "/>
<text text-anchor="middle" x="1048" y="-334.5" font-family="Helvetica,sans-Serif" font-size="10.00"> </text>
</a>
</g>
</g>
<!-- Node8&#45;&gt;Node6 -->
<g id="edge7" class="edge">
<title>Node8&#45;&gt;Node6</title>
<path fill="none" stroke="#404040" d="M1040.86,-327.21C1037.16,-314.63 1032.13,-299.75 1026,-287 1023.81,-282.44 1021.26,-277.81 1018.58,-273.28"/>
<polygon fill="none" stroke="#404040" points="1018.52,-273.19 1011.94,-270.23 1012.14,-263.02 1018.72,-265.98 1018.52,-273.19"/>
<text text-anchor="middle" x="1048" y="-295.5" font-family="Helvetica,sans-Serif" font-size="10.00"> +cors</text>
</g>
</g>
</svg>
        <g id="navigator" transform="translate(0 0)" fill="#404254">
                <rect fill="#f2f5e9" fill-opacity="0.5" stroke="#606060" stroke-width=".5" x="0" y="0" width="60" height="60"/>
                <use id="zoomplus" xlink:href="#zoomPlus" x="17" y="9" onmousedown="handleZoom(evt,'in')"/>
                <use id="zoomminus" xlink:href="#zoomMin" x="42" y="9" onmousedown="handleZoom(evt,'out')"/>
                <use id="reset" xlink:href="#resetDef" x="30" y="36" onmousedown="handleReset()"/>
                <g id="arrowUp" xlink:href="#dirArrow" transform="translate(30 24)" onmousedown="handlePan(0,-1)">
                  <use xlink:href="#rim" fill="#404040">
                        <set attributeName="fill" to="#808080" begin="arrowUp.mouseover" end="arrowUp.mouseout"/>
                  </use>
                  <path fill="none" stroke="white" stroke-width="1.5" d="M0,-3.0v7 M-2.5,-0.5L0,-3.0L2.5,-0.5"/>
                </g>
                <g id="arrowRight" xlink:href="#dirArrow" transform="rotate(90) translate(36 -43)" onmousedown="handlePan(1,0)">
                  <use xlink:href="#rim" fill="#404040">
                        <set attributeName="fill" to="#808080" begin="arrowRight.mouseover" end="arrowRight.mouseout"/>
                  </use>
                  <path fill="none" stroke="white" stroke-width="1.5" d="M0,-3.0v7 M-2.5,-0.5L0,-3.0L2.5,-0.5"/>
                </g>
                <g id="arrowDown" xlink:href="#dirArrow" transform="rotate(180) translate(-30 -48)" onmousedown="handlePan(0,1)">
                  <use xlink:href="#rim" fill="#404040">
                        <set attributeName="fill" to="#808080" begin="arrowDown.mouseover" end="arrowDown.mouseout"/>
                  </use>
                  <path fill="none" stroke="white" stroke-width="1.5" d="M0,-3.0v7 M-2.5,-0.5L0,-3.0L2.5,-0.5"/>
                </g>
                <g id="arrowLeft" xlink:href="#dirArrow" transform="rotate(270) translate(-36 17)" onmousedown="handlePan(-1,0)">
                  <use xlink:href="#rim" fill="#404040">
                        <set attributeName="fill" to="#808080" begin="arrowLeft.mouseover" end="arrowLeft.mouseout"/>
                  </use>
                  <path fill="none" stroke="white" stroke-width="1.5" d="M0,-3.0v7 M-2.5,-0.5L0,-3.0L2.5,-0.5"/>
                </g>
        </g>
        <svg viewBox="0 0 15 15" width="100%" height="30px" preserveAspectRatio="xMaxYMin meet">
         <g id="arrow_out" transform="scale(0.3 0.3)">
          <a xlink:href="structRoar_1_1Route_1_1Implementation__coll__graph_org.svg" target="_base">
           <rect id="button" ry="5" rx="5" y="6" x="6" height="38" width="38"
                fill="#f2f5e9" fill-opacity="0.5" stroke="#606060" stroke-width="1.0"/>
           <path id="arrow"
             d="M 11.500037,31.436501 C 11.940474,20.09759 22.043105,11.32322 32.158766,21.979434 L 37.068811,17.246167 C 37.068811,17.246167 37.088388,32 37.088388,32 L 22.160133,31.978069 C 22.160133,31.978069 26.997745,27.140456 26.997745,27.140456 C 18.528582,18.264221 13.291696,25.230495 11.500037,31.436501 z"
             style="fill:#404040;"/>
          </a>
         </g>
        </svg>
</svg>
