<?xml version="1.0" encoding="UTF-8" standalone="no"?>
<!DOCTYPE svg PUBLIC "-//W3C//DTD SVG 1.1//EN"
 "http://www.w3.org/Graphics/SVG/1.1/DTD/svg11.dtd">
<!-- Generated by graphviz version 2.44.1 (20211215.1903)
 -->
<!-- Title: Roar::Route::Implementation Pages: 1 -->
<svg width="1017pt" height="393pt"
 viewBox="0.00 0.00 1017.50 393.00" xmlns="http://www.w3.org/2000/svg" xmlns:xlink="http://www.w3.org/1999/xlink">
<g id="graph0" class="graph" transform="scale(1 1) rotate(0) translate(4 389)">
<title>Roar::Route::Implementation</title>
<!-- Node1 -->
<g id="node1" class="node">
<title>Node1</title>
<g id="a_node1"><a xlink:title=" ">
<polygon fill="#bfbfbf" stroke="black" points="426,-0.5 426,-57.5 569,-57.5 569,-0.5 426,-0.5"/>
<text text-anchor="middle" x="497.5" y="-45.5" font-family="Helvetica,sans-Serif" font-size="10.00">Roar::Route::Implementation</text>
<polyline fill="none" stroke="black" points="426,-38.5 569,-38.5 "/>
<text text-anchor="middle" x="497.5" y="-26.5" font-family="Helvetica,sans-Serif" font-size="10.00"> </text>
<polyline fill="none" stroke="black" points="426,-19.5 569,-19.5 "/>
<text text-anchor="start" x="434" y="-7.5" font-family="Helvetica,sans-Serif" font-size="10.00">+ Implementation()</text>
</a>
</g>
</g>
<!-- Node2 -->
<g id="node2" class="node">
<title>Node2</title>
<g id="a_node2"><a xlink:href="structRoar_1_1ProtoRoute.html" target="_top" xlink:title="A proper Route is built up from this object. This object is usually created internally.">
<polygon fill="none" stroke="black" points="451,-95.5 451,-152.5 544,-152.5 544,-95.5 451,-95.5"/>
<text text-anchor="middle" x="497.5" y="-140.5" font-family="Helvetica,sans-Serif" font-size="10.00">Roar::ProtoRoute</text>
<polyline fill="none" stroke="black" points="451,-133.5 544,-133.5 "/>
<text text-anchor="middle" x="497.5" y="-121.5" font-family="Helvetica,sans-Serif" font-size="10.00"> </text>
<polyline fill="none" stroke="black" points="451,-114.5 544,-114.5 "/>
<text text-anchor="middle" x="497.5" y="-102.5" font-family="Helvetica,sans-Serif" font-size="10.00"> </text>
</a>
</g>
</g>
<!-- Node2&#45;&gt;Node1 -->
<g id="edge1" class="edge">
<title>Node2&#45;&gt;Node1</title>
<path fill="none" stroke="midnightblue" d="M497.5,-85.24C497.5,-76.03 497.5,-66.35 497.5,-57.71"/>
<polygon fill="none" stroke="midnightblue" points="494,-85.35 497.5,-95.35 501,-85.35 494,-85.35"/>
</g>
<!-- Node3 -->
<g id="node3" class="node">
<title>Node3</title>
<g id="a_node3"><a xlink:title=" ">
<polygon fill="none" stroke="black" points="0,-206 0,-263 157,-263 157,-206 0,-206"/>
<text text-anchor="middle" x="78.5" y="-251" font-family="Helvetica,sans-Serif" font-size="10.00">variant&lt; std::string, std::regex &gt;</text>
<polyline fill="none" stroke="black" points="0,-244 157,-244 "/>
<text text-anchor="middle" x="78.5" y="-232" font-family="Helvetica,sans-Serif" font-size="10.00"> </text>
<polyline fill="none" stroke="black" points="0,-225 157,-225 "/>
<text text-anchor="middle" x="78.5" y="-213" font-family="Helvetica,sans-Serif" font-size="10.00"> </text>
</a>
</g>
</g>
<!-- Node3&#45;&gt;Node2 -->
<g id="edge2" class="edge">
<title>Node3&#45;&gt;Node2</title>
<path fill="none" stroke="#404040" d="M148.32,-205.9C154.43,-203.8 160.55,-201.8 166.5,-200 260.49,-171.62 372.36,-148.41 439.01,-135.66"/>
<polygon fill="none" stroke="#404040" points="439.12,-135.64 444.27,-130.59 450.91,-133.4 445.76,-138.45 439.12,-135.64"/>
<text text-anchor="middle" x="279.5" y="-174" font-family="Helvetica,sans-Serif" font-size="10.00"> +path</text>
</g>
<!-- Node4 -->
<g id="node4" class="node">
<title>Node4</title>
<g id="a_node4"><a xlink:title=" ">
<polygon fill="none" stroke="black" points="175.5,-200.5 175.5,-268.5 495.5,-268.5 495.5,-200.5 175.5,-200.5"/>
<text text-anchor="start" x="183.5" y="-256.5" font-family="Helvetica,sans-Serif" font-size="10.00">function&lt; void(Roar::Session &amp;session, Roar::Request&lt; boost::beast</text>
<text text-anchor="middle" x="335.5" y="-245.5" font-family="Helvetica,sans-Serif" font-size="10.00">::http::empty_body &gt; &amp;&amp;req)&gt;</text>
<polyline fill="none" stroke="black" points="175.5,-238.5 495.5,-238.5 "/>
<text text-anchor="middle" x="335.5" y="-226.5" font-family="Helvetica,sans-Serif" font-size="10.00"> </text>
<polyline fill="none" stroke="black" points="175.5,-219.5 495.5,-219.5 "/>
<text text-anchor="middle" x="335.5" y="-207.5" font-family="Helvetica,sans-Serif" font-size="10.00"> </text>
</a>
</g>
</g>
<!-- Node4&#45;&gt;Node2 -->
<g id="edge3" class="edge">
<title>Node4&#45;&gt;Node2</title>
<path fill="none" stroke="#404040" d="M384.99,-200.36C404.31,-187.41 426.47,-172.57 445.98,-159.5"/>
<polygon fill="none" stroke="#404040" points="446.25,-159.33 449.01,-152.66 456.22,-152.65 453.46,-159.31 446.25,-159.33"/>
<text text-anchor="middle" x="452" y="-174" font-family="Helvetica,sans-Serif" font-size="10.00"> +callRoute</text>
</g>
<!-- Node5 -->
<g id="node5" class="node">
<title>Node5</title>
<g id="a_node5"><a xlink:title=" ">
<polygon fill="none" stroke="black" points="513.5,-206 513.5,-263 807.5,-263 807.5,-206 513.5,-206"/>
<text text-anchor="middle" x="660.5" y="-251" font-family="Helvetica,sans-Serif" font-size="10.00">function&lt; bool(std::string const &amp;, std::vector&lt; std::string &gt; &amp;)&gt;</text>
<polyline fill="none" stroke="black" points="513.5,-244 807.5,-244 "/>
<text text-anchor="middle" x="660.5" y="-232" font-family="Helvetica,sans-Serif" font-size="10.00"> </text>
<polyline fill="none" stroke="black" points="513.5,-225 807.5,-225 "/>
<text text-anchor="middle" x="660.5" y="-213" font-family="Helvetica,sans-Serif" font-size="10.00"> </text>
</a>
</g>
</g>
<!-- Node5&#45;&gt;Node2 -->
<g id="edge4" class="edge">
<title>Node5&#45;&gt;Node2</title>
<path fill="none" stroke="#404040" d="M618.95,-205.84C597.68,-191.68 571.59,-174.32 549.05,-159.32"/>
<polygon fill="none" stroke="#404040" points="548.97,-159.26 541.76,-159.26 538.98,-152.61 546.19,-152.6 548.97,-159.26"/>
<text text-anchor="middle" x="603" y="-174" font-family="Helvetica,sans-Serif" font-size="10.00"> +matches</text>
</g>
<!-- Node6 -->
<g id="node6" class="node">
<title>Node6</title>
<g id="a_node6"><a xlink:href="structRoar_1_1RouteOptions.html" target="_top" xlink:title="Options that modify the server behavior for a given route.">
<polygon fill="none" stroke="black" points="825.5,-206 825.5,-263 929.5,-263 929.5,-206 825.5,-206"/>
<text text-anchor="middle" x="877.5" y="-251" font-family="Helvetica,sans-Serif" font-size="10.00">Roar::RouteOptions</text>
<polyline fill="none" stroke="black" points="825.5,-244 929.5,-244 "/>
<text text-anchor="middle" x="877.5" y="-232" font-family="Helvetica,sans-Serif" font-size="10.00"> </text>
<polyline fill="none" stroke="black" points="825.5,-225 929.5,-225 "/>
<text text-anchor="middle" x="877.5" y="-213" font-family="Helvetica,sans-Serif" font-size="10.00"> </text>
</a>
</g>
</g>
<!-- Node6&#45;&gt;Node2 -->
<g id="edge5" class="edge">
<title>Node6&#45;&gt;Node2</title>
<path fill="none" stroke="#404040" d="M830.14,-205.9C825.6,-203.74 821.01,-201.73 816.5,-200 728.68,-166.29 621.23,-144.83 556.14,-133.87"/>
<polygon fill="none" stroke="#404040" points="555.94,-133.84 549.37,-136.81 544.1,-131.88 550.67,-128.91 555.94,-133.84"/>
<text text-anchor="middle" x="790" y="-174" font-family="Helvetica,sans-Serif" font-size="10.00"> +routeOptions</text>
</g>
<!-- Node7 -->
<g id="node7" class="node">
<title>Node7</title>
<g id="a_node7"><a xlink:title=" ">
<polygon fill="none" stroke="black" points="804,-327.5 804,-384.5 839,-384.5 839,-327.5 804,-327.5"/>
<text text-anchor="middle" x="821.5" y="-372.5" font-family="Helvetica,sans-Serif" font-size="10.00">bool</text>
<polyline fill="none" stroke="black" points="804,-365.5 839,-365.5 "/>
<text text-anchor="middle" x="821.5" y="-353.5" font-family="Helvetica,sans-Serif" font-size="10.00"> </text>
<polyline fill="none" stroke="black" points="804,-346.5 839,-346.5 "/>
<text text-anchor="middle" x="821.5" y="-334.5" font-family="Helvetica,sans-Serif" font-size="10.00"> </text>
</a>
</g>
</g>
<!-- Node7&#45;&gt;Node6 -->
<g id="edge6" class="edge">
<title>Node7&#45;&gt;Node6</title>
<path fill="none" stroke="#404040" d="M825.24,-327.29C827.65,-314.58 831.49,-299.58 837.5,-287 839.72,-282.35 842.42,-277.72 845.36,-273.25"/>
<polygon fill="none" stroke="#404040" points="845.56,-272.97 845.78,-265.76 852.52,-263.2 852.3,-270.4 845.56,-272.97"/>
<text text-anchor="middle" x="874.5" y="-301" font-family="Helvetica,sans-Serif" font-size="10.00"> +allowUnsecure</text>
<text text-anchor="middle" x="874.5" y="-290" font-family="Helvetica,sans-Serif" font-size="10.00">+expectUpgrade</text>
</g>
<!-- Node8 -->
<g id="node8" class="node">
<title>Node8</title>
<g id="a_node8"><a xlink:title=" ">
<polygon fill="none" stroke="black" points="857.5,-327.5 857.5,-384.5 1009.5,-384.5 1009.5,-327.5 857.5,-327.5"/>
<text text-anchor="middle" x="933.5" y="-372.5" font-family="Helvetica,sans-Serif" font-size="10.00">optional&lt; Roar::CorsSettings &gt;</text>
<polyline fill="none" stroke="black" points="857.5,-365.5 1009.5,-365.5 "/>
<text text-anchor="middle" x="933.5" y="-353.5" font-family="Helvetica,sans-Serif" font-size="10.00"> </text>
<polyline fill="none" stroke="black" points="857.5,-346.5 1009.5,-346.5 "/>
<text text-anchor="middle" x="933.5" y="-334.5" font-family="Helvetica,sans-Serif" font-size="10.00"> </text>
</a>
</g>
</g>
<!-- Node8&#45;&gt;Node6 -->
<g id="edge7" class="edge">
<title>Node8&#45;&gt;Node6</title>
<path fill="none" stroke="#404040" d="M926.36,-327.21C922.66,-314.63 917.63,-299.75 911.5,-287 909.31,-282.44 906.76,-277.81 904.08,-273.28"/>
<polygon fill="none" stroke="#404040" points="904.02,-273.19 897.44,-270.23 897.64,-263.02 904.22,-265.98 904.02,-273.19"/>
<text text-anchor="middle" x="933.5" y="-295.5" font-family="Helvetica,sans-Serif" font-size="10.00"> +cors</text>
</g>
</g>
</svg>
