<?xml version="1.0" encoding="UTF-8" standalone="no"?>
<!DOCTYPE svg PUBLIC "-//W3C//DTD SVG 1.1//EN"
 "http://www.w3.org/Graphics/SVG/1.1/DTD/svg11.dtd">
<!-- Generated by graphviz version 8.1.0 (0)
 -->
<!-- Title: Roar::Server::ConstructionArguments Pages: 1 -->
<!--zoomable 160 -->

<svg id="main" version="1.1" xmlns="http://www.w3.org/2000/svg" xmlns:xlink="http://www.w3.org/1999/xlink" xml:space="preserve" onload="init(evt)">
<style type="text/css"><![CDATA[
.node, .edge {opacity: 0.7;}
.node.selected, .edge.selected {opacity: 1;}
.edge:hover path { stroke: red; }
.edge:hover polygon { stroke: red; fill: red; }
]]></style>

<defs>
  <circle id="rim" cx="0" cy="0" r="7"/>
  <circle id="rim2" cx="0" cy="0" r="3.5"/>
  <g id="zoomPlus">
    <use xlink:href="#rim" fill="#404040"><set attributeName="fill" to="#808080" begin="zoomplus.mouseover" end="zoomplus.mouseout"/></use>
    <path d="M-4,0h8M0,-4v8" fill="none" stroke="white" stroke-width="1.5" pointer-events="none"/>
  </g>
  <g id="zoomMin">
    <use xlink:href="#rim" fill="#404040"><set attributeName="fill" to="#808080" begin="zoomminus.mouseover" end="zoomminus.mouseout"/></use>
    <path d="M-4,0h8" fill="none" stroke="white" stroke-width="1.5" pointer-events="none"/>
  </g>
  <g id="arrowUp" transform="translate(30 24)">
    <use xlink:href="#rim"/>
    <path pointer-events="none" fill="none" stroke="white" stroke-width="1.5" d="M0,-3.0v7 M-2.5,-0.5L0,-3.0L2.5,-0.5"/>
  </g>
  <g id="arrowRight" transform="rotate(90) translate(36 -43)">
    <use xlink:href="#rim"/>
    <path pointer-events="none" fill="none" stroke="white" stroke-width="1.5" d="M0,-3.0v7 M-2.5,-0.5L0,-3.0L2.5,-0.5"/>
  </g>
  <g id="arrowDown" transform="rotate(180) translate(-30 -48)">
    <use xlink:href="#rim"/>
    <path pointer-events="none" fill="none" stroke="white" stroke-width="1.5" d="M0,-3.0v7 M-2.5,-0.5L0,-3.0L2.5,-0.5"/>
  </g>
  <g id="arrowLeft" transform="rotate(270) translate(-36 17)">
    <use xlink:href="#rim"/>
    <path pointer-events="none" fill="none" stroke="white" stroke-width="1.5" d="M0,-3.0v7 M-2.5,-0.5L0,-3.0L2.5,-0.5"/>
  </g>
  <g id="resetDef">
    <use xlink:href="#rim2" fill="#404040"><set attributeName="fill" to="#808080" begin="reset.mouseover" end="reset.mouseout"/></use>
  </g>
</defs>
<script type="application/ecmascript">
var viewWidth = 1069;
var viewHeight = 160;
var sectionId = 'dynsection-0';
</script>
<script type="application/ecmascript" xlink:href="svg.min.js"/>
<svg id="graph" class="graph">
<g id="viewport">
<title>Roar::Server::ConstructionArguments</title>
<!-- Node1 -->
<g id="Node000001" class="node">
<title>Node1</title>
<g id="a_Node000001"><a xlink:title=" ">
<polygon fill="#999999" stroke="none" points="621.5,-52 447.5,-52 447.5,0 621.5,0 621.5,-52"/>
<text text-anchor="start" x="452.38" y="-38.5" font-family="Helvetica,sans-Serif" font-size="10.00">Roar::Server::ConstructionArguments</text>
<text text-anchor="start" x="533" y="-22.5" font-family="Helvetica,sans-Serif" font-size="10.00"> </text>
<text text-anchor="start" x="533" y="-6.5" font-family="Helvetica,sans-Serif" font-size="10.00"> </text>
<polygon fill="#666666" stroke="#666666" points="447.5,-34 447.5,-34 621.5,-34 621.5,-34 447.5,-34"/>
<polygon fill="#666666" stroke="#666666" points="447.5,-18 447.5,-18 621.5,-18 621.5,-18 447.5,-18"/>
<polygon fill="none" stroke="#666666" points="447.5,0 447.5,-52 621.5,-52 621.5,0 447.5,0"/>
</a>
</g>
</g>
<!-- Node2 -->
<g id="Node000002" class="node">
<title>Node2</title>
<g id="a_Node000002"><a xlink:title=" ">
<polygon fill="white" stroke="none" points="81,-152 0,-152 0,-100 81,-100 81,-152"/>
<text text-anchor="start" x="4.88" y="-138.5" font-family="Helvetica,sans-Serif" font-size="10.00">any_io_executor</text>
<text text-anchor="start" x="39" y="-122.5" font-family="Helvetica,sans-Serif" font-size="10.00"> </text>
<text text-anchor="start" x="39" y="-106.5" font-family="Helvetica,sans-Serif" font-size="10.00"> </text>
<polygon fill="#666666" stroke="#666666" points="0,-134 0,-134 81,-134 81,-134 0,-134"/>
<polygon fill="#666666" stroke="#666666" points="0,-118 0,-118 81,-118 81,-118 0,-118"/>
<polygon fill="none" stroke="#666666" points="0,-100 0,-152 81,-152 81,-100 0,-100"/>
</a>
</g>
</g>
<!-- Node2&#45;&gt;Node1 -->
<g id="edge1_Node000001_Node000002" class="edge">
<title>Node2&#45;&gt;Node1</title>
<g id="a_edge1_Node000001_Node000002"><a xlink:title=" ">
<path fill="none" stroke="#63b8ff" d="M81,-103.15C83.84,-101.99 86.69,-100.92 89.5,-100 204.65,-62.2 343.26,-43.42 434.85,-34.48"/>
<polygon fill="none" stroke="#63b8ff" points="434.89,-34.48 440.48,-29.93 446.83,-33.35 441.24,-37.89 434.89,-34.48"/>
</a>
</g>
<text text-anchor="middle" x="220.75" y="-72.5" font-family="Helvetica,sans-Serif" font-size="10.00" fill="grey"> +executor</text>
</g>
<!-- Node3 -->
<g id="Node000003" class="node">
<title>Node3</title>
<g id="a_Node000003"><a xlink:title=" ">
<polygon fill="white" stroke="none" points="442,-152 99,-152 99,-100 442,-100 442,-152"/>
<text text-anchor="start" x="103.62" y="-138.5" font-family="Helvetica,sans-Serif" font-size="10.00">optional&lt; std::variant&lt; Roar::SslServerContext, boost::asio::ssl::context &gt; &gt;</text>
<text text-anchor="start" x="269" y="-122.5" font-family="Helvetica,sans-Serif" font-size="10.00"> </text>
<text text-anchor="start" x="269" y="-106.5" font-family="Helvetica,sans-Serif" font-size="10.00"> </text>
<polygon fill="#666666" stroke="#666666" points="99,-134 99,-134 442,-134 442,-134 99,-134"/>
<polygon fill="#666666" stroke="#666666" points="99,-118 99,-118 442,-118 442,-118 99,-118"/>
<polygon fill="none" stroke="#666666" points="99,-100 99,-152 442,-152 442,-100 99,-100"/>
</a>
</g>
</g>
<!-- Node3&#45;&gt;Node1 -->
<g id="edge2_Node000001_Node000003" class="edge">
<title>Node3&#45;&gt;Node1</title>
<g id="a_edge2_Node000001_Node000003"><a xlink:title=" ">
<path fill="none" stroke="#63b8ff" d="M337.8,-100.02C373.64,-86.71 417.94,-70.27 455.41,-56.36"/>
<polygon fill="none" stroke="#63b8ff" points="455.23,-56.43 459.46,-50.59 466.48,-52.25 462.24,-58.09 455.23,-56.43"/>
</a>
</g>
<text text-anchor="middle" x="446.62" y="-72.5" font-family="Helvetica,sans-Serif" font-size="10.00" fill="grey"> +sslContext</text>
</g>
<!-- Node4 -->
<g id="Node000004" class="node">
<title>Node4</title>
<g id="a_Node000004"><a xlink:title=" ">
<polygon fill="white" stroke="none" points="608.5,-152 460.5,-152 460.5,-100 608.5,-100 608.5,-152"/>
<text text-anchor="start" x="465.5" y="-138.5" font-family="Helvetica,sans-Serif" font-size="10.00">function&lt; void(Roar::Error &amp;&amp;)&gt;</text>
<text text-anchor="start" x="533" y="-122.5" font-family="Helvetica,sans-Serif" font-size="10.00"> </text>
<text text-anchor="start" x="533" y="-106.5" font-family="Helvetica,sans-Serif" font-size="10.00"> </text>
<polygon fill="#666666" stroke="#666666" points="460.5,-134 460.5,-134 608.5,-134 608.5,-134 460.5,-134"/>
<polygon fill="#666666" stroke="#666666" points="460.5,-118 460.5,-118 608.5,-118 608.5,-118 460.5,-118"/>
<polygon fill="none" stroke="#666666" points="460.5,-100 460.5,-152 608.5,-152 608.5,-100 460.5,-100"/>
</a>
</g>
</g>
<!-- Node4&#45;&gt;Node1 -->
<g id="edge3_Node000001_Node000004" class="edge">
<title>Node4&#45;&gt;Node1</title>
<g id="a_edge3_Node000001_Node000004"><a xlink:title=" ">
<path fill="none" stroke="#63b8ff" d="M534.5,-100.02C534.5,-89.3 534.5,-76.56 534.5,-64.73"/>
<polygon fill="none" stroke="#63b8ff" points="534.5,-64.84 530.5,-58.84 534.5,-52.84 538.5,-58.84 534.5,-64.84"/>
</a>
</g>
<text text-anchor="middle" x="554.75" y="-72.5" font-family="Helvetica,sans-Serif" font-size="10.00" fill="grey"> +onError</text>
</g>
<!-- Node5 -->
<g id="Node000005" class="node">
<title>Node5</title>
<g id="a_Node000005"><a xlink:title=" ">
<polygon fill="white" stroke="none" points="824,-152 627,-152 627,-100 824,-100 824,-152"/>
<text text-anchor="start" x="631.75" y="-138.5" font-family="Helvetica,sans-Serif" font-size="10.00">function&lt; void(boost::system::error_code)&gt;</text>
<text text-anchor="start" x="724" y="-122.5" font-family="Helvetica,sans-Serif" font-size="10.00"> </text>
<text text-anchor="start" x="724" y="-106.5" font-family="Helvetica,sans-Serif" font-size="10.00"> </text>
<polygon fill="#666666" stroke="#666666" points="627,-134 627,-134 824,-134 824,-134 627,-134"/>
<polygon fill="#666666" stroke="#666666" points="627,-118 627,-118 824,-118 824,-118 627,-118"/>
<polygon fill="none" stroke="#666666" points="627,-100 627,-152 824,-152 824,-100 627,-100"/>
</a>
</g>
</g>
<!-- Node5&#45;&gt;Node1 -->
<g id="edge4_Node000001_Node000005" class="edge">
<title>Node5&#45;&gt;Node1</title>
<g id="a_edge4_Node000001_Node000005"><a xlink:title=" ">
<path fill="none" stroke="#63b8ff" d="M676.81,-100.02C651.78,-87.17 621.04,-71.4 594.55,-57.81"/>
<polygon fill="none" stroke="#63b8ff" points="594.58,-57.83 587.42,-58.65 583.9,-52.35 591.07,-51.53 594.58,-57.83"/>
</a>
</g>
<text text-anchor="middle" x="677.25" y="-72.5" font-family="Helvetica,sans-Serif" font-size="10.00" fill="grey"> +onAcceptAbort</text>
</g>
<!-- Node6 -->
<g id="Node000006" class="node">
<title>Node6</title>
<g id="a_Node000006"><a xlink:title=" ">
<polygon fill="white" stroke="none" points="1061,-152 842,-152 842,-100 1061,-100 1061,-152"/>
<text text-anchor="start" x="846.88" y="-138.5" font-family="Helvetica,sans-Serif" font-size="10.00">unique_ptr&lt; Roar::StandardResponseProvider &gt;</text>
<text text-anchor="start" x="950" y="-122.5" font-family="Helvetica,sans-Serif" font-size="10.00"> </text>
<text text-anchor="start" x="950" y="-106.5" font-family="Helvetica,sans-Serif" font-size="10.00"> </text>
<polygon fill="#666666" stroke="#666666" points="842,-134 842,-134 1061,-134 1061,-134 842,-134"/>
<polygon fill="#666666" stroke="#666666" points="842,-118 842,-118 1061,-118 1061,-118 842,-118"/>
<polygon fill="none" stroke="#666666" points="842,-100 842,-152 1061,-152 1061,-100 842,-100"/>
</a>
</g>
</g>
<!-- Node6&#45;&gt;Node1 -->
<g id="edge5_Node000001_Node000006" class="edge">
<title>Node6&#45;&gt;Node1</title>
<g id="a_edge5_Node000001_Node000006"><a xlink:title=" ">
<path fill="none" stroke="#63b8ff" d="M845.96,-100.04C806.03,-90.6 760.18,-79.79 718.5,-70 690.94,-63.53 661.06,-56.53 633.55,-50.1"/>
<polygon fill="none" stroke="#63b8ff" points="633.66,-50.13 626.9,-52.66 621.97,-47.4 628.72,-44.87 633.66,-50.13"/>
</a>
</g>
<text text-anchor="middle" x="825.88" y="-72.5" font-family="Helvetica,sans-Serif" font-size="10.00" fill="grey"> +standardResponseProvider</text>
</g>
</g>
</svg>

<g id="navigator" transform="translate(0 0)" fill="#404254">
  <rect fill="#f2f5e9" fill-opacity="0.5" stroke="#606060" stroke-width=".5" x="0" y="0" width="60" height="60"/>
  <use id="zoomplus" xlink:href="#zoomPlus" x="17" y="9" onmousedown="handleZoom(evt,'in')"/>
  <use id="zoomminus" xlink:href="#zoomMin" x="42" y="9" onmousedown="handleZoom(evt,'out')"/>
  <use id="reset" xlink:href="#resetDef" x="30" y="36" onmousedown="handleReset()"/>
   <use id="arrowup" xlink:href="#arrowUp" x="0" y="0" onmousedown="handlePan(0,-1)"/>
  <use id="arrowright" xlink:href="#arrowRight" x="0" y="0" onmousedown="handlePan(1,0)"/>
  <use id="arrowdown" xlink:href="#arrowDown" x="0" y="0" onmousedown="handlePan(0,1)"/>
  <use id="arrowleft" xlink:href="#arrowLeft" x="0" y="0" onmousedown="handlePan(-1,0)"/>
</g>
<svg viewBox="0 0 15 15" width="100%" height="30px" preserveAspectRatio="xMaxYMin meet">
 <g id="arrow_out" transform="scale(0.3 0.3)">
  <a xlink:href="structRoar_1_1Server_1_1ConstructionArguments__coll__graph_org.svg" target="_base">
   <rect id="button" ry="5" rx="5" y="6" x="6" height="38" width="38"
        fill="#f2f5e9" fill-opacity="0.5" stroke="#606060" stroke-width="1.0"/>
   <path id="arrow"
     d="M 11.500037,31.436501 C 11.940474,20.09759 22.043105,11.32322 32.158766,21.979434 L 37.068811,17.246167 C 37.068811,17.246167 37.088388,32 37.088388,32 L 22.160133,31.978069 C 22.160133,31.978069 26.997745,27.140456 26.997745,27.140456 C 18.528582,18.264221 13.291696,25.230495 11.500037,31.436501 z"
     style="fill:#404040;"/>
  </a>
 </g>
</svg>

<style type='text/css'>
<![CDATA[
[data-mouse-over-selected='false'] { opacity: 0.7; }
[data-mouse-over-selected='true']  { opacity: 1.0; }
]]>
</style>
<script type="application/ecmascript"><![CDATA[
document.addEventListener('DOMContentLoaded', (event) => {
  highlightEdges();
  highlightAdjacentNodes();
});
]]></script>
</svg>
