<?xml version="1.0" encoding="UTF-8" standalone="no"?>
<!DOCTYPE svg PUBLIC "-//W3C//DTD SVG 1.1//EN"
 "http://www.w3.org/Graphics/SVG/1.1/DTD/svg11.dtd">
<!-- Generated by graphviz version 8.1.0 (0)
 -->
<!-- Title: Roar::overloaded&lt; Ts &gt; Pages: 1 -->
<svg width="120pt" height="148pt"
 viewBox="0.00 0.00 120.00 148.00" xmlns="http://www.w3.org/2000/svg" xmlns:xlink="http://www.w3.org/1999/xlink">
<g id="graph0" class="graph" transform="scale(1 1) rotate(0) translate(4 144)">
<title>Roar::overloaded&lt; Ts &gt;</title>
<!-- Node1 -->
<g id="Node000001" class="node">
<title>Node1</title>
<g id="a_Node000001"><a xlink:title=" ">
<polygon fill="#999999" stroke="none" points="112,-52 0,-52 0,0 112,0 112,-52"/>
<text text-anchor="start" x="5" y="-38.5" font-family="Helvetica,sans-Serif" font-size="10.00">Roar::overloaded&lt; Ts &gt;</text>
<text text-anchor="start" x="54.5" y="-22.5" font-family="Helvetica,sans-Serif" font-size="10.00"> </text>
<text text-anchor="start" x="54.5" y="-6.5" font-family="Helvetica,sans-Serif" font-size="10.00"> </text>
<polygon fill="#666666" stroke="#666666" points="0,-34 0,-34 112,-34 112,-34 0,-34"/>
<polygon fill="#666666" stroke="#666666" points="0,-18 0,-18 112,-18 112,-18 0,-18"/>
<polygon fill="none" stroke="#666666" points="0,0 0,-52 112,-52 112,0 0,0"/>
</a>
</g>
</g>
<!-- Node2 -->
<g id="Node000002" class="node">
<title>Node2</title>
<g id="a_Node000002"><a xlink:href="classRoar_1_1Ts.html" target="_top" xlink:title=" ">
<polygon fill="white" stroke="none" points="66,-140 46,-140 46,-88 66,-88 66,-140"/>
<text text-anchor="start" x="50.75" y="-126.5" font-family="Helvetica,sans-Serif" font-size="10.00">Ts</text>
<text text-anchor="start" x="54.5" y="-110.5" font-family="Helvetica,sans-Serif" font-size="10.00"> </text>
<text text-anchor="start" x="54.5" y="-94.5" font-family="Helvetica,sans-Serif" font-size="10.00"> </text>
<polygon fill="#666666" stroke="#666666" points="46,-122 46,-122 66,-122 66,-122 46,-122"/>
<polygon fill="#666666" stroke="#666666" points="46,-106 46,-106 66,-106 66,-106 46,-106"/>
<polygon fill="none" stroke="#666666" points="46,-88 46,-140 66,-140 66,-88 46,-88"/>
</a>
</g>
</g>
<!-- Node2&#45;&gt;Node1 -->
<g id="edge1_Node000001_Node000002" class="edge">
<title>Node2&#45;&gt;Node1</title>
<g id="a_edge1_Node000001_Node000002"><a xlink:title=" ">
<path fill="none" stroke="#63b8ff" d="M56,-77.23C56,-68.69 56,-59.75 56,-51.82"/>
<polygon fill="none" stroke="#63b8ff" points="52.5,-77.13 56,-87.13 59.5,-77.13 52.5,-77.13"/>
</a>
</g>
</g>
</g>
</svg>
