<?xml version="1.0" encoding="UTF-8" standalone="no"?>
<!DOCTYPE svg PUBLIC "-//W3C//DTD SVG 1.1//EN"
 "http://www.w3.org/Graphics/SVG/1.1/DTD/svg11.dtd">
<!-- Generated by graphviz version 8.1.0 (0)
 -->
<!-- Title: Roar::Curl::VerboseLogEntry Pages: 1 -->
<svg width="143pt" height="160pt"
 viewBox="0.00 0.00 143.00 160.00" xmlns="http://www.w3.org/2000/svg" xmlns:xlink="http://www.w3.org/1999/xlink">

<svg id="main" version="1.1" xmlns="http://www.w3.org/2000/svg" xmlns:xlink="http://www.w3.org/1999/xlink" xml:space="preserve" onload="init(evt)">
<style type="text/css"><![CDATA[
.node, .edge {opacity: 0.7;}
.node.selected, .edge.selected {opacity: 1;}
.edge:hover path { stroke: red; }
.edge:hover polygon { stroke: red; fill: red; }
]]></style>
<script type="application/ecmascript" xlink:href="svg.min.js"/>
<svg id="graph" class="graph">
<g id="graph0" class="graph" transform="scale(1 1) rotate(0) translate(4 156)">
<title>Roar::Curl::VerboseLogEntry</title>
<!-- Node1 -->
<g id="Node000001" class="node">
<title>Node1</title>
<g id="a_Node000001"><a xlink:title=" ">
<polygon fill="#999999" stroke="none" points="135,-52 0,-52 0,0 135,0 135,-52"/>
<text text-anchor="start" x="4.88" y="-38.5" font-family="Helvetica,sans-Serif" font-size="10.00">Roar::Curl::VerboseLogEntry</text>
<text text-anchor="start" x="66" y="-22.5" font-family="Helvetica,sans-Serif" font-size="10.00"> </text>
<text text-anchor="start" x="66" y="-6.5" font-family="Helvetica,sans-Serif" font-size="10.00"> </text>
<polygon fill="#666666" stroke="#666666" points="0,-34 0,-34 135,-34 135,-34 0,-34"/>
<polygon fill="#666666" stroke="#666666" points="0,-18 0,-18 135,-18 135,-18 0,-18"/>
<polygon fill="none" stroke="#666666" points="0,0 0,-52 135,-52 135,0 0,0"/>
</a>
</g>
</g>
<!-- Node2 -->
<g id="Node000002" class="node">
<title>Node2</title>
<g id="a_Node000002"><a xlink:title=" ">
<polygon fill="white" stroke="none" points="66,-152 1,-152 1,-100 66,-100 66,-152"/>
<text text-anchor="start" x="5.75" y="-138.5" font-family="Helvetica,sans-Serif" font-size="10.00">curl_infotype</text>
<text text-anchor="start" x="32" y="-122.5" font-family="Helvetica,sans-Serif" font-size="10.00"> </text>
<text text-anchor="start" x="32" y="-106.5" font-family="Helvetica,sans-Serif" font-size="10.00"> </text>
<polygon fill="#666666" stroke="#666666" points="1,-134 1,-134 66,-134 66,-134 1,-134"/>
<polygon fill="#666666" stroke="#666666" points="1,-118 1,-118 66,-118 66,-118 1,-118"/>
<polygon fill="none" stroke="#666666" points="1,-100 1,-152 66,-152 66,-100 1,-100"/>
</a>
</g>
</g>
<!-- Node2&#45;&gt;Node1 -->
<g id="edge1_Node000001_Node000002" class="edge">
<title>Node2&#45;&gt;Node1</title>
<g id="a_edge1_Node000001_Node000002"><a xlink:title=" ">
<path fill="none" stroke="#63b8ff" d="M41.61,-100.03C44.71,-90.6 48.34,-79.78 51.75,-70 52.42,-68.08 53.11,-66.11 53.82,-64.13"/>
<polygon fill="none" stroke="#63b8ff" points="53.83,-64.1 52.1,-57.1 57.9,-52.81 59.63,-59.81 53.83,-64.1"/>
</a>
</g>
<text text-anchor="middle" x="65.38" y="-72.5" font-family="Helvetica,sans-Serif" font-size="10.00" fill="grey"> +type</text>
</g>
<!-- Node3 -->
<g id="Node000003" class="node">
<title>Node3</title>
<g id="a_Node000003"><a xlink:title=" ">
<polygon fill="white" stroke="none" points="118.5,-152 84.5,-152 84.5,-100 118.5,-100 118.5,-152"/>
<text text-anchor="start" x="89.5" y="-138.5" font-family="Helvetica,sans-Serif" font-size="10.00">string</text>
<text text-anchor="start" x="100" y="-122.5" font-family="Helvetica,sans-Serif" font-size="10.00"> </text>
<text text-anchor="start" x="100" y="-106.5" font-family="Helvetica,sans-Serif" font-size="10.00"> </text>
<polygon fill="#666666" stroke="#666666" points="84.5,-134 84.5,-134 118.5,-134 118.5,-134 84.5,-134"/>
<polygon fill="#666666" stroke="#666666" points="84.5,-118 84.5,-118 118.5,-118 118.5,-118 84.5,-118"/>
<polygon fill="none" stroke="#666666" points="84.5,-100 84.5,-152 118.5,-152 118.5,-100 84.5,-100"/>
</a>
</g>
</g>
<!-- Node3&#45;&gt;Node1 -->
<g id="edge2_Node000001_Node000003" class="edge">
<title>Node3&#45;&gt;Node1</title>
<g id="a_edge2_Node000001_Node000003"><a xlink:title=" ">
<path fill="none" stroke="#63b8ff" d="M92.83,-100.02C89.04,-89.07 84.5,-76.01 80.33,-63.97"/>
<polygon fill="none" stroke="#63b8ff" points="80.38,-64.13 74.63,-59.77 76.45,-52.79 82.19,-57.15 80.38,-64.13"/>
</a>
</g>
<text text-anchor="middle" x="100.38" y="-72.5" font-family="Helvetica,sans-Serif" font-size="10.00" fill="grey"> +data</text>
</g>
</g>
</svg>
</svg>

<style type='text/css'>
<![CDATA[
[data-mouse-over-selected='false'] { opacity: 0.7; }
[data-mouse-over-selected='true']  { opacity: 1.0; }
]]>
</style>
<script type="application/ecmascript"><![CDATA[
document.addEventListener('DOMContentLoaded', (event) => {
  highlightEdges();
  highlightAdjacentNodes();
});
]]></script>
</svg>
