<?xml version="1.0" encoding="UTF-8" standalone="no"?>
<!DOCTYPE svg PUBLIC "-//W3C//DTD SVG 1.1//EN"
 "http://www.w3.org/Graphics/SVG/1.1/DTD/svg11.dtd">
<!-- Generated by graphviz version 2.44.1 (20211215.1903)
 -->
<!-- Title: Roar::Detail::SharedFromBase&lt; Base, Derived &gt; Pages: 1 -->
<svg width="239pt" height="160pt"
 viewBox="0.00 0.00 239.00 160.00" xmlns="http://www.w3.org/2000/svg" xmlns:xlink="http://www.w3.org/1999/xlink">
<g id="graph0" class="graph" transform="scale(1 1) rotate(0) translate(4 156)">
<title>Roar::Detail::SharedFromBase&lt; Base, Derived &gt;</title>
<!-- Node1 -->
<g id="node1" class="node">
<title>Node1</title>
<g id="a_node1"><a xlink:title=" ">
<polygon fill="#bfbfbf" stroke="black" points="0,-0.5 0,-57.5 231,-57.5 231,-0.5 0,-0.5"/>
<text text-anchor="middle" x="115.5" y="-45.5" font-family="Helvetica,sans-Serif" font-size="10.00">Roar::Detail::SharedFromBase&lt; Base, Derived &gt;</text>
<polyline fill="none" stroke="black" points="0,-38.5 231,-38.5 "/>
<text text-anchor="middle" x="115.5" y="-26.5" font-family="Helvetica,sans-Serif" font-size="10.00"> </text>
<polyline fill="none" stroke="black" points="0,-19.5 231,-19.5 "/>
<text text-anchor="start" x="8" y="-7.5" font-family="Helvetica,sans-Serif" font-size="10.00">+ shared_from_this()</text>
</a>
</g>
</g>
<!-- Node2 -->
<g id="node2" class="node">
<title>Node2</title>
<g id="a_node2"><a xlink:href="classBase.html" target="_top" xlink:title=" ">
<polygon fill="none" stroke="black" points="96,-94.5 96,-151.5 135,-151.5 135,-94.5 96,-94.5"/>
<text text-anchor="middle" x="115.5" y="-139.5" font-family="Helvetica,sans-Serif" font-size="10.00">Base</text>
<polyline fill="none" stroke="black" points="96,-132.5 135,-132.5 "/>
<text text-anchor="middle" x="115.5" y="-120.5" font-family="Helvetica,sans-Serif" font-size="10.00"> </text>
<polyline fill="none" stroke="black" points="96,-113.5 135,-113.5 "/>
<text text-anchor="middle" x="115.5" y="-101.5" font-family="Helvetica,sans-Serif" font-size="10.00"> </text>
</a>
</g>
</g>
<!-- Node2&#45;&gt;Node1 -->
<g id="edge1" class="edge">
<title>Node2&#45;&gt;Node1</title>
<path fill="none" stroke="midnightblue" d="M115.5,-84.21C115.5,-75.29 115.5,-65.95 115.5,-57.58"/>
<polygon fill="none" stroke="midnightblue" points="112,-84.4 115.5,-94.4 119,-84.4 112,-84.4"/>
</g>
</g>
</svg>
