<?xml version="1.0" encoding="UTF-8" standalone="no"?>
<!DOCTYPE svg PUBLIC "-//W3C//DTD SVG 1.1//EN"
 "http://www.w3.org/Graphics/SVG/1.1/DTD/svg11.dtd">
<!-- Generated by graphviz version 2.44.1 (20211215.1903)
 -->
<!-- Title: Roar::SslContextCreationParameters Pages: 1 -->
<svg width="237pt" height="204pt"
 viewBox="0.00 0.00 237.50 204.00" xmlns="http://www.w3.org/2000/svg" xmlns:xlink="http://www.w3.org/1999/xlink">
<g id="graph0" class="graph" transform="scale(1 1) rotate(0) translate(4 200)">
<title>Roar::SslContextCreationParameters</title>
<!-- Node1 -->
<g id="node1" class="node">
<title>Node1</title>
<g id="a_node1"><a xlink:title=" ">
<polygon fill="#bfbfbf" stroke="black" points="0,-0.5 0,-57.5 179,-57.5 179,-0.5 0,-0.5"/>
<text text-anchor="middle" x="89.5" y="-45.5" font-family="Helvetica,sans-Serif" font-size="10.00">Roar::SslContextCreationParameters</text>
<polyline fill="none" stroke="black" points="0,-38.5 179,-38.5 "/>
<text text-anchor="middle" x="89.5" y="-26.5" font-family="Helvetica,sans-Serif" font-size="10.00"> </text>
<polyline fill="none" stroke="black" points="0,-19.5 179,-19.5 "/>
<text text-anchor="middle" x="89.5" y="-7.5" font-family="Helvetica,sans-Serif" font-size="10.00"> </text>
</a>
</g>
</g>
<!-- Node2 -->
<g id="node2" class="node">
<title>Node2</title>
<g id="a_node2"><a xlink:title=" ">
<polygon fill="none" stroke="black" points="27,-138.5 27,-195.5 76,-195.5 76,-138.5 27,-138.5"/>
<text text-anchor="middle" x="51.5" y="-183.5" font-family="Helvetica,sans-Serif" font-size="10.00">method</text>
<polyline fill="none" stroke="black" points="27,-176.5 76,-176.5 "/>
<text text-anchor="middle" x="51.5" y="-164.5" font-family="Helvetica,sans-Serif" font-size="10.00"> </text>
<polyline fill="none" stroke="black" points="27,-157.5 76,-157.5 "/>
<text text-anchor="middle" x="51.5" y="-145.5" font-family="Helvetica,sans-Serif" font-size="10.00"> </text>
</a>
</g>
</g>
<!-- Node2&#45;&gt;Node1 -->
<g id="edge1" class="edge">
<title>Node2&#45;&gt;Node1</title>
<path fill="none" stroke="#404040" d="M52.47,-138.21C53.77,-120.1 56.74,-96.18 63.5,-76 64.3,-73.62 65.22,-71.23 66.23,-68.85"/>
<polygon fill="none" stroke="#404040" points="66.29,-68.73 65.29,-61.59 71.5,-57.92 72.5,-65.06 66.29,-68.73"/>
<text text-anchor="middle" x="84.5" y="-95.5" font-family="Helvetica,sans-Serif" font-size="10.00"> +method</text>
</g>
<!-- Node3 -->
<g id="node3" class="node">
<title>Node3</title>
<g id="a_node3"><a xlink:title=" ">
<polygon fill="none" stroke="black" points="94.5,-138.5 94.5,-195.5 160.5,-195.5 160.5,-138.5 94.5,-138.5"/>
<text text-anchor="middle" x="127.5" y="-183.5" font-family="Helvetica,sans-Serif" font-size="10.00">string_view</text>
<polyline fill="none" stroke="black" points="94.5,-176.5 160.5,-176.5 "/>
<text text-anchor="middle" x="127.5" y="-164.5" font-family="Helvetica,sans-Serif" font-size="10.00"> </text>
<polyline fill="none" stroke="black" points="94.5,-157.5 160.5,-157.5 "/>
<text text-anchor="middle" x="127.5" y="-145.5" font-family="Helvetica,sans-Serif" font-size="10.00"> </text>
</a>
</g>
</g>
<!-- Node3&#45;&gt;Node1 -->
<g id="edge2" class="edge">
<title>Node3&#45;&gt;Node1</title>
<path fill="none" stroke="#404040" d="M121.43,-138.25C117.35,-120.36 111.61,-96.67 105.5,-76 104.84,-73.75 104.13,-71.45 103.39,-69.13"/>
<polygon fill="none" stroke="#404040" points="103.34,-68.99 97.66,-64.55 99.57,-57.59 105.26,-62.03 103.34,-68.99"/>
<text text-anchor="middle" x="173" y="-112" font-family="Helvetica,sans-Serif" font-size="10.00"> +certificate</text>
<text text-anchor="middle" x="173" y="-101" font-family="Helvetica,sans-Serif" font-size="10.00">+diffieHellmanParameters</text>
<text text-anchor="middle" x="173" y="-90" font-family="Helvetica,sans-Serif" font-size="10.00">+password</text>
<text text-anchor="middle" x="173" y="-79" font-family="Helvetica,sans-Serif" font-size="10.00">+privateKey</text>
</g>
</g>
</svg>
