<?xml version="1.0" encoding="UTF-8" standalone="no"?>
<!DOCTYPE svg PUBLIC "-//W3C//DTD SVG 1.1//EN"
 "http://www.w3.org/Graphics/SVG/1.1/DTD/svg11.dtd">
<!-- Generated by graphviz version 8.1.0 (0)
 -->
<!-- Title: Roar::Session::Implementation Pages: 1 -->
<!--zoomable 288 -->

<svg id="main" version="1.1" xmlns="http://www.w3.org/2000/svg" xmlns:xlink="http://www.w3.org/1999/xlink" xml:space="preserve" onload="init(evt)">
<style type="text/css"><![CDATA[
.node, .edge {opacity: 0.7;}
.node.selected, .edge.selected {opacity: 1;}
.edge:hover path { stroke: red; }
.edge:hover polygon { stroke: red; fill: red; }
]]></style>

<defs>
  <circle id="rim" cx="0" cy="0" r="7"/>
  <circle id="rim2" cx="0" cy="0" r="3.5"/>
  <g id="zoomPlus">
    <use xlink:href="#rim" fill="#404040"><set attributeName="fill" to="#808080" begin="zoomplus.mouseover" end="zoomplus.mouseout"/></use>
    <path d="M-4,0h8M0,-4v8" fill="none" stroke="white" stroke-width="1.5" pointer-events="none"/>
  </g>
  <g id="zoomMin">
    <use xlink:href="#rim" fill="#404040"><set attributeName="fill" to="#808080" begin="zoomminus.mouseover" end="zoomminus.mouseout"/></use>
    <path d="M-4,0h8" fill="none" stroke="white" stroke-width="1.5" pointer-events="none"/>
  </g>
  <g id="arrowUp" transform="translate(30 24)">
    <use xlink:href="#rim"/>
    <path pointer-events="none" fill="none" stroke="white" stroke-width="1.5" d="M0,-3.0v7 M-2.5,-0.5L0,-3.0L2.5,-0.5"/>
  </g>
  <g id="arrowRight" transform="rotate(90) translate(36 -43)">
    <use xlink:href="#rim"/>
    <path pointer-events="none" fill="none" stroke="white" stroke-width="1.5" d="M0,-3.0v7 M-2.5,-0.5L0,-3.0L2.5,-0.5"/>
  </g>
  <g id="arrowDown" transform="rotate(180) translate(-30 -48)">
    <use xlink:href="#rim"/>
    <path pointer-events="none" fill="none" stroke="white" stroke-width="1.5" d="M0,-3.0v7 M-2.5,-0.5L0,-3.0L2.5,-0.5"/>
  </g>
  <g id="arrowLeft" transform="rotate(270) translate(-36 17)">
    <use xlink:href="#rim"/>
    <path pointer-events="none" fill="none" stroke="white" stroke-width="1.5" d="M0,-3.0v7 M-2.5,-0.5L0,-3.0L2.5,-0.5"/>
  </g>
  <g id="resetDef">
    <use xlink:href="#rim2" fill="#404040"><set attributeName="fill" to="#808080" begin="reset.mouseover" end="reset.mouseout"/></use>
  </g>
</defs>
<script type="application/ecmascript">
var viewWidth = 1600;
var viewHeight = 288;
var sectionId = 'dynsection-0';
</script>
<script type="application/ecmascript" xlink:href="svg.min.js"/>
<svg id="graph" class="graph">
<g id="viewport">
<title>Roar::Session::Implementation</title>
<!-- Node1 -->
<g id="Node000001" class="node">
<title>Node1</title>
<g id="a_Node000001"><a xlink:title=" ">
<polygon fill="#999999" stroke="none" points="746,-68 601,-68 601,0 746,0 746,-68"/>
<text text-anchor="start" x="606" y="-54.5" font-family="Helvetica,sans-Serif" font-size="10.00">Roar::Session::Implementation</text>
<text text-anchor="start" x="672" y="-38.5" font-family="Helvetica,sans-Serif" font-size="10.00"> </text>
<text text-anchor="start" x="618.5" y="-22.5" font-family="Helvetica,sans-Serif" font-size="10.00">+</text>
<text text-anchor="start" x="642" y="-22.5" font-family="Helvetica,sans-Serif" font-size="10.00">Implementation()</text>
<text text-anchor="start" x="618.5" y="-6.5" font-family="Helvetica,sans-Serif" font-size="10.00">+</text>
<text text-anchor="start" x="642" y="-6.5" font-family="Helvetica,sans-Serif" font-size="10.00">withStreamDo()</text>
<polygon fill="#666666" stroke="#666666" points="601,-50 601,-50 746,-50 746,-50 601,-50"/>
<polygon fill="#666666" stroke="#666666" points="601,-34 601,-34 746,-34 746,-34 601,-34"/>
<polygon fill="none" stroke="#666666" points="601,0 601,-68 746,-68 746,0 601,0"/>
</a>
</g>
</g>
<!-- Node2 -->
<g id="Node000002" class="node">
<title>Node2</title>
<g id="a_Node000002"><a xlink:title=" ">
<polygon fill="white" stroke="none" points="357,-168 0,-168 0,-116 357,-116 357,-168"/>
<text text-anchor="start" x="4.88" y="-154.5" font-family="Helvetica,sans-Serif" font-size="10.00">variant&lt; Detail::StreamType, boost::beast::ssl_stream&lt; Detail::StreamType &gt; &gt;</text>
<text text-anchor="start" x="177" y="-138.5" font-family="Helvetica,sans-Serif" font-size="10.00"> </text>
<text text-anchor="start" x="177" y="-122.5" font-family="Helvetica,sans-Serif" font-size="10.00"> </text>
<polygon fill="#666666" stroke="#666666" points="0,-150 0,-150 357,-150 357,-150 0,-150"/>
<polygon fill="#666666" stroke="#666666" points="0,-134 0,-134 357,-134 357,-134 0,-134"/>
<polygon fill="none" stroke="#666666" points="0,-116 0,-168 357,-168 357,-116 0,-116"/>
</a>
</g>
</g>
<!-- Node2&#45;&gt;Node1 -->
<g id="edge1_Node000001_Node000002" class="edge">
<title>Node2&#45;&gt;Node1</title>
<g id="a_edge1_Node000001_Node000002"><a xlink:title=" ">
<path fill="none" stroke="#63b8ff" d="M255.28,-116.12C288.86,-105.84 328.88,-94.38 365.5,-86 440.1,-68.92 526.11,-55.16 588.25,-46.26"/>
<polygon fill="none" stroke="#63b8ff" points="588.36,-46.25 593.74,-41.45 600.24,-44.57 594.86,-49.37 588.36,-46.25"/>
</a>
</g>
<text text-anchor="middle" x="385" y="-88.5" font-family="Helvetica,sans-Serif" font-size="10.00" fill="grey"> +stream</text>
</g>
<!-- Node3 -->
<g id="Node000003" class="node">
<title>Node3</title>
<g id="a_Node000003"><a xlink:title=" ">
<polygon fill="white" stroke="none" points="427.5,-168 375.5,-168 375.5,-116 427.5,-116 427.5,-168"/>
<text text-anchor="start" x="380.12" y="-154.5" font-family="Helvetica,sans-Serif" font-size="10.00">flat_buffer</text>
<text text-anchor="start" x="400" y="-138.5" font-family="Helvetica,sans-Serif" font-size="10.00"> </text>
<text text-anchor="start" x="400" y="-122.5" font-family="Helvetica,sans-Serif" font-size="10.00"> </text>
<polygon fill="#666666" stroke="#666666" points="375.5,-150 375.5,-150 427.5,-150 427.5,-150 375.5,-150"/>
<polygon fill="#666666" stroke="#666666" points="375.5,-134 375.5,-134 427.5,-134 427.5,-134 375.5,-134"/>
<polygon fill="none" stroke="#666666" points="375.5,-116 375.5,-168 427.5,-168 427.5,-116 375.5,-116"/>
</a>
</g>
</g>
<!-- Node3&#45;&gt;Node1 -->
<g id="edge2_Node000001_Node000003" class="edge">
<title>Node3&#45;&gt;Node1</title>
<g id="a_edge2_Node000001_Node000003"><a xlink:title=" ">
<path fill="none" stroke="#63b8ff" d="M402.61,-116.11C404.37,-105.44 408.25,-93.69 416.5,-86 441.18,-62.99 523.57,-49.52 588.49,-42.27"/>
<polygon fill="none" stroke="#63b8ff" points="588.39,-42.28 593.93,-37.66 600.32,-40.99 594.79,-45.61 588.39,-42.28"/>
</a>
</g>
<text text-anchor="middle" x="433" y="-88.5" font-family="Helvetica,sans-Serif" font-size="10.00" fill="grey"> +buffer</text>
</g>
<!-- Node4 -->
<g id="Node000004" class="node">
<title>Node4</title>
<g id="a_Node000004"><a xlink:title=" ">
<polygon fill="white" stroke="none" points="490.5,-280 462.5,-280 462.5,-228 490.5,-228 490.5,-280"/>
<text text-anchor="start" x="467.5" y="-266.5" font-family="Helvetica,sans-Serif" font-size="10.00">bool</text>
<text text-anchor="start" x="475" y="-250.5" font-family="Helvetica,sans-Serif" font-size="10.00"> </text>
<text text-anchor="start" x="475" y="-234.5" font-family="Helvetica,sans-Serif" font-size="10.00"> </text>
<polygon fill="#666666" stroke="#666666" points="462.5,-262 462.5,-262 490.5,-262 490.5,-262 462.5,-262"/>
<polygon fill="#666666" stroke="#666666" points="462.5,-246 462.5,-246 490.5,-246 490.5,-246 462.5,-246"/>
<polygon fill="none" stroke="#666666" points="462.5,-228 462.5,-280 490.5,-280 490.5,-228 462.5,-228"/>
</a>
</g>
</g>
<!-- Node4&#45;&gt;Node1 -->
<g id="edge3_Node000001_Node000004" class="edge">
<title>Node4&#45;&gt;Node1</title>
<g id="a_edge3_Node000001_Node000004"><a xlink:title=" ">
<path fill="none" stroke="#63b8ff" d="M467.64,-228.09C458.86,-198.65 449.67,-149.42 472.25,-116 498.29,-77.45 546.05,-57.24 588.51,-46.65"/>
<polygon fill="none" stroke="#63b8ff" points="588.62,-46.63 593.57,-41.38 600.32,-43.93 595.37,-49.18 588.62,-46.63"/>
</a>
</g>
<text text-anchor="middle" x="496.12" y="-138.5" font-family="Helvetica,sans-Serif" font-size="10.00" fill="grey"> +isSecure</text>
</g>
<!-- Node8 -->
<g id="Node000008" class="node">
<title>Node8</title>
<g id="a_Node000008"><a xlink:href="structRoar_1_1RouteOptions.html" target="_top" xlink:title="Options that modify the server behavior for a given route.">
<polygon fill="white" stroke="none" points="626,-168 529,-168 529,-116 626,-116 626,-168"/>
<text text-anchor="start" x="534" y="-154.5" font-family="Helvetica,sans-Serif" font-size="10.00">Roar::RouteOptions</text>
<text text-anchor="start" x="576" y="-138.5" font-family="Helvetica,sans-Serif" font-size="10.00"> </text>
<text text-anchor="start" x="576" y="-122.5" font-family="Helvetica,sans-Serif" font-size="10.00"> </text>
<polygon fill="#666666" stroke="#666666" points="529,-150 529,-150 626,-150 626,-150 529,-150"/>
<polygon fill="#666666" stroke="#666666" points="529,-134 529,-134 626,-134 626,-134 529,-134"/>
<polygon fill="none" stroke="#666666" points="529,-116 529,-168 626,-168 626,-116 529,-116"/>
</a>
</g>
</g>
<!-- Node4&#45;&gt;Node8 -->
<g id="edge8_Node000008_Node000004" class="edge">
<title>Node4&#45;&gt;Node8</title>
<g id="a_edge8_Node000008_Node000004"><a xlink:title=" ">
<path fill="none" stroke="#63b8ff" d="M483.84,-228.04C488.76,-214.47 496.32,-198.05 507,-186 510.53,-182.02 514.52,-178.28 518.76,-174.81"/>
<polygon fill="none" stroke="#63b8ff" points="518.66,-174.89 521.09,-168.1 528.29,-167.73 525.86,-174.52 518.66,-174.89"/>
</a>
</g>
<text text-anchor="middle" x="544.25" y="-200.5" font-family="Helvetica,sans-Serif" font-size="10.00" fill="grey"> +allowUnsecure</text>
<text text-anchor="middle" x="544.25" y="-188.5" font-family="Helvetica,sans-Serif" font-size="10.00" fill="grey">+expectUpgrade</text>
</g>
<!-- Node5 -->
<g id="Node000005" class="node">
<title>Node5</title>
<g id="a_Node000005"><a xlink:title=" ">
<polygon fill="white" stroke="none" points="792.5,-168 644.5,-168 644.5,-116 792.5,-116 792.5,-168"/>
<text text-anchor="start" x="649.5" y="-154.5" font-family="Helvetica,sans-Serif" font-size="10.00">function&lt; void(Roar::Error &amp;&amp;)&gt;</text>
<text text-anchor="start" x="717" y="-138.5" font-family="Helvetica,sans-Serif" font-size="10.00"> </text>
<text text-anchor="start" x="717" y="-122.5" font-family="Helvetica,sans-Serif" font-size="10.00"> </text>
<polygon fill="#666666" stroke="#666666" points="644.5,-150 644.5,-150 792.5,-150 792.5,-150 644.5,-150"/>
<polygon fill="#666666" stroke="#666666" points="644.5,-134 644.5,-134 792.5,-134 792.5,-134 644.5,-134"/>
<polygon fill="none" stroke="#666666" points="644.5,-116 644.5,-168 792.5,-168 792.5,-116 644.5,-116"/>
</a>
</g>
</g>
<!-- Node5&#45;&gt;Node1 -->
<g id="edge4_Node000001_Node000005" class="edge">
<title>Node5&#45;&gt;Node1</title>
<g id="a_edge4_Node000001_Node000005"><a xlink:title=" ">
<path fill="none" stroke="#63b8ff" d="M707.95,-116.15C703.3,-105.2 697.7,-92 692.37,-79.46"/>
<polygon fill="none" stroke="#63b8ff" points="692.44,-79.61 686.41,-75.65 687.75,-68.56 693.77,-72.52 692.44,-79.61"/>
</a>
</g>
<text text-anchor="middle" x="720.75" y="-88.5" font-family="Helvetica,sans-Serif" font-size="10.00" fill="grey"> +onError</text>
</g>
<!-- Node6 -->
<g id="Node000006" class="node">
<title>Node6</title>
<g id="a_Node000006"><a xlink:title=" ">
<polygon fill="white" stroke="none" points="934.5,-168 810.5,-168 810.5,-116 934.5,-116 934.5,-168"/>
<text text-anchor="start" x="815.5" y="-154.5" font-family="Helvetica,sans-Serif" font-size="10.00">weak_ptr&lt; Roar::Router &gt;</text>
<text text-anchor="start" x="871" y="-138.5" font-family="Helvetica,sans-Serif" font-size="10.00"> </text>
<text text-anchor="start" x="871" y="-122.5" font-family="Helvetica,sans-Serif" font-size="10.00"> </text>
<polygon fill="#666666" stroke="#666666" points="810.5,-150 810.5,-150 934.5,-150 934.5,-150 810.5,-150"/>
<polygon fill="#666666" stroke="#666666" points="810.5,-134 810.5,-134 934.5,-134 934.5,-134 810.5,-134"/>
<polygon fill="none" stroke="#666666" points="810.5,-116 810.5,-168 934.5,-168 934.5,-116 810.5,-116"/>
</a>
</g>
</g>
<!-- Node6&#45;&gt;Node1 -->
<g id="edge5_Node000001_Node000006" class="edge">
<title>Node6&#45;&gt;Node1</title>
<g id="a_edge5_Node000001_Node000006"><a xlink:title=" ">
<path fill="none" stroke="#63b8ff" d="M825.59,-116.01C802.07,-103.48 773.04,-88.02 746.68,-73.98"/>
<polygon fill="none" stroke="#63b8ff" points="746.56,-73.91 739.38,-74.62 735.97,-68.27 743.14,-67.56 746.56,-73.91"/>
</a>
</g>
<text text-anchor="middle" x="808.38" y="-88.5" font-family="Helvetica,sans-Serif" font-size="10.00" fill="grey"> +router</text>
</g>
<!-- Node7 -->
<g id="Node000007" class="node">
<title>Node7</title>
<g id="a_Node000007"><a xlink:title=" ">
<polygon fill="white" stroke="none" points="1326.5,-168 952.5,-168 952.5,-116 1326.5,-116 1326.5,-168"/>
<text text-anchor="start" x="957.25" y="-154.5" font-family="Helvetica,sans-Serif" font-size="10.00">shared_ptr&lt; boost::beast::http::request_parser&lt; boost::beast::http::empty_body &gt; &gt;</text>
<text text-anchor="start" x="1138" y="-138.5" font-family="Helvetica,sans-Serif" font-size="10.00"> </text>
<text text-anchor="start" x="1138" y="-122.5" font-family="Helvetica,sans-Serif" font-size="10.00"> </text>
<polygon fill="#666666" stroke="#666666" points="952.5,-150 952.5,-150 1326.5,-150 1326.5,-150 952.5,-150"/>
<polygon fill="#666666" stroke="#666666" points="952.5,-134 952.5,-134 1326.5,-134 1326.5,-134 952.5,-134"/>
<polygon fill="none" stroke="#666666" points="952.5,-116 952.5,-168 1326.5,-168 1326.5,-116 952.5,-116"/>
</a>
</g>
</g>
<!-- Node7&#45;&gt;Node1 -->
<g id="edge6_Node000001_Node000007" class="edge">
<title>Node7&#45;&gt;Node1</title>
<g id="a_edge6_Node000001_Node000007"><a xlink:title=" ">
<path fill="none" stroke="#63b8ff" d="M1029.65,-116.01C946.69,-97.14 834.48,-71.62 758.35,-54.3"/>
<polygon fill="none" stroke="#63b8ff" points="758.56,-54.35 751.82,-56.92 746.86,-51.69 753.59,-49.12 758.56,-54.35"/>
</a>
</g>
<text text-anchor="middle" x="981.88" y="-88.5" font-family="Helvetica,sans-Serif" font-size="10.00" fill="grey"> +headerParser</text>
</g>
<!-- Node8&#45;&gt;Node1 -->
<g id="edge7_Node000001_Node000008" class="edge">
<title>Node8&#45;&gt;Node1</title>
<g id="a_edge7_Node000001_Node000008"><a xlink:title=" ">
<path fill="none" stroke="#63b8ff" d="M600.01,-116.15C610.53,-104.53 623.36,-90.36 635.33,-77.14"/>
<polygon fill="none" stroke="#63b8ff" points="635.2,-77.29 636.26,-70.16 643.25,-68.4 642.19,-75.53 635.2,-77.29"/>
</a>
</g>
<text text-anchor="middle" x="657.75" y="-88.5" font-family="Helvetica,sans-Serif" font-size="10.00" fill="grey"> +routeOptions</text>
</g>
<!-- Node9 -->
<g id="Node000009" class="node">
<title>Node9</title>
<g id="a_Node000009"><a xlink:title=" ">
<polygon fill="white" stroke="none" points="666,-280 521,-280 521,-228 666,-228 666,-280"/>
<text text-anchor="start" x="525.62" y="-266.5" font-family="Helvetica,sans-Serif" font-size="10.00">optional&lt; Roar::CorsSettings &gt;</text>
<text text-anchor="start" x="592" y="-250.5" font-family="Helvetica,sans-Serif" font-size="10.00"> </text>
<text text-anchor="start" x="592" y="-234.5" font-family="Helvetica,sans-Serif" font-size="10.00"> </text>
<polygon fill="#666666" stroke="#666666" points="521,-262 521,-262 666,-262 666,-262 521,-262"/>
<polygon fill="#666666" stroke="#666666" points="521,-246 521,-246 666,-246 666,-246 521,-246"/>
<polygon fill="none" stroke="#666666" points="521,-228 521,-280 666,-280 666,-228 521,-228"/>
</a>
</g>
</g>
<!-- Node9&#45;&gt;Node8 -->
<g id="edge9_Node000008_Node000009" class="edge">
<title>Node9&#45;&gt;Node8</title>
<g id="a_edge9_Node000008_Node000009"><a xlink:title=" ">
<path fill="none" stroke="#63b8ff" d="M589.87,-228.04C587.82,-213.98 585.23,-196.13 582.94,-180.42"/>
<polygon fill="none" stroke="#63b8ff" points="582.97,-180.63 578.15,-175.27 581.25,-168.75 586.07,-174.12 582.97,-180.63"/>
</a>
</g>
<text text-anchor="middle" x="601.38" y="-194.5" font-family="Helvetica,sans-Serif" font-size="10.00" fill="grey"> +cors</text>
</g>
<!-- Node10 -->
<g id="Node000010" class="node">
<title>Node10</title>
<g id="a_Node000010"><a xlink:title=" ">
<polygon fill="white" stroke="none" points="1592,-168 1345,-168 1345,-116 1592,-116 1592,-168"/>
<text text-anchor="start" x="1350" y="-154.5" font-family="Helvetica,sans-Serif" font-size="10.00">shared_ptr&lt; const Roar::StandardResponseProvider &gt;</text>
<text text-anchor="start" x="1467" y="-138.5" font-family="Helvetica,sans-Serif" font-size="10.00"> </text>
<text text-anchor="start" x="1467" y="-122.5" font-family="Helvetica,sans-Serif" font-size="10.00"> </text>
<polygon fill="#666666" stroke="#666666" points="1345,-150 1345,-150 1592,-150 1592,-150 1345,-150"/>
<polygon fill="#666666" stroke="#666666" points="1345,-134 1345,-134 1592,-134 1592,-134 1345,-134"/>
<polygon fill="none" stroke="#666666" points="1345,-116 1345,-168 1592,-168 1592,-116 1345,-116"/>
</a>
</g>
</g>
<!-- Node10&#45;&gt;Node1 -->
<g id="edge10_Node000001_Node000010" class="edge">
<title>Node10&#45;&gt;Node1</title>
<g id="a_edge10_Node000001_Node000010"><a xlink:title=" ">
<path fill="none" stroke="#63b8ff" d="M1345.01,-117.51C1341.81,-116.99 1338.63,-116.49 1335.5,-116 1129.12,-84.01 884.94,-56.89 758.66,-43.66"/>
<polygon fill="none" stroke="#63b8ff" points="758.54,-43.64 752.16,-47 746.61,-42.4 752.99,-39.04 758.54,-43.64"/>
</a>
</g>
<text text-anchor="middle" x="1271.88" y="-88.5" font-family="Helvetica,sans-Serif" font-size="10.00" fill="grey"> +standardResponseProvider</text>
</g>
</g>
</svg>

<g id="navigator" transform="translate(0 0)" fill="#404254">
  <rect fill="#f2f5e9" fill-opacity="0.5" stroke="#606060" stroke-width=".5" x="0" y="0" width="60" height="60"/>
  <use id="zoomplus" xlink:href="#zoomPlus" x="17" y="9" onmousedown="handleZoom(evt,'in')"/>
  <use id="zoomminus" xlink:href="#zoomMin" x="42" y="9" onmousedown="handleZoom(evt,'out')"/>
  <use id="reset" xlink:href="#resetDef" x="30" y="36" onmousedown="handleReset()"/>
   <use id="arrowup" xlink:href="#arrowUp" x="0" y="0" onmousedown="handlePan(0,-1)"/>
  <use id="arrowright" xlink:href="#arrowRight" x="0" y="0" onmousedown="handlePan(1,0)"/>
  <use id="arrowdown" xlink:href="#arrowDown" x="0" y="0" onmousedown="handlePan(0,1)"/>
  <use id="arrowleft" xlink:href="#arrowLeft" x="0" y="0" onmousedown="handlePan(-1,0)"/>
</g>
<svg viewBox="0 0 15 15" width="100%" height="30px" preserveAspectRatio="xMaxYMin meet">
 <g id="arrow_out" transform="scale(0.3 0.3)">
  <a xlink:href="structRoar_1_1Session_1_1Implementation__coll__graph_org.svg" target="_base">
   <rect id="button" ry="5" rx="5" y="6" x="6" height="38" width="38"
        fill="#f2f5e9" fill-opacity="0.5" stroke="#606060" stroke-width="1.0"/>
   <path id="arrow"
     d="M 11.500037,31.436501 C 11.940474,20.09759 22.043105,11.32322 32.158766,21.979434 L 37.068811,17.246167 C 37.068811,17.246167 37.088388,32 37.088388,32 L 22.160133,31.978069 C 22.160133,31.978069 26.997745,27.140456 26.997745,27.140456 C 18.528582,18.264221 13.291696,25.230495 11.500037,31.436501 z"
     style="fill:#404040;"/>
  </a>
 </g>
</svg>

<style type='text/css'>
<![CDATA[
[data-mouse-over-selected='false'] { opacity: 0.7; }
[data-mouse-over-selected='true']  { opacity: 1.0; }
]]>
</style>
<script type="application/ecmascript"><![CDATA[
document.addEventListener('DOMContentLoaded', (event) => {
  highlightEdges();
  highlightAdjacentNodes();
});
]]></script>
</svg>
