<?xml version="1.0" encoding="UTF-8" standalone="no"?>
<!DOCTYPE svg PUBLIC "-//W3C//DTD SVG 1.1//EN"
 "http://www.w3.org/Graphics/SVG/1.1/DTD/svg11.dtd">
<!-- Generated by graphviz version 8.1.0 (0)
 -->
<!-- Title: Roar::Detail::PromiseReferenceWrap&lt; T &gt; Pages: 1 -->
<svg width="203pt" height="148pt"
 viewBox="0.00 0.00 203.00 148.00" xmlns="http://www.w3.org/2000/svg" xmlns:xlink="http://www.w3.org/1999/xlink">
<g id="graph0" class="graph" transform="scale(1 1) rotate(0) translate(4 144)">
<title>Roar::Detail::PromiseReferenceWrap&lt; T &gt;</title>
<!-- Node1 -->
<g id="Node000001" class="node">
<title>Node1</title>
<g id="a_Node000001"><a xlink:title=" ">
<polygon fill="#999999" stroke="none" points="195,-52 0,-52 0,0 195,0 195,-52"/>
<text text-anchor="start" x="4.88" y="-38.5" font-family="Helvetica,sans-Serif" font-size="10.00">Roar::Detail::PromiseReferenceWrap&lt; T &gt;</text>
<text text-anchor="start" x="96" y="-22.5" font-family="Helvetica,sans-Serif" font-size="10.00"> </text>
<text text-anchor="start" x="36.5" y="-6.5" font-family="Helvetica,sans-Serif" font-size="10.00">+</text>
<text text-anchor="start" x="79" y="-6.5" font-family="Helvetica,sans-Serif" font-size="10.00">operator()()</text>
<polygon fill="#666666" stroke="#666666" points="0,-34 0,-34 195,-34 195,-34 0,-34"/>
<polygon fill="#666666" stroke="#666666" points="0,-18 0,-18 195,-18 195,-18 0,-18"/>
<polygon fill="none" stroke="#666666" points="0,0 0,-52 195,-52 195,0 0,0"/>
</a>
</g>
</g>
<!-- Node2 -->
<g id="Node000002" class="node">
<title>Node2</title>
<g id="a_Node000002"><a xlink:title=" ">
<polygon fill="white" stroke="none" points="164,-140 31,-140 31,-88 164,-88 164,-140"/>
<text text-anchor="start" x="36" y="-126.5" font-family="Helvetica,sans-Serif" font-size="10.00">std::reference_wrapper&lt; T &gt;</text>
<text text-anchor="start" x="96" y="-110.5" font-family="Helvetica,sans-Serif" font-size="10.00"> </text>
<text text-anchor="start" x="96" y="-94.5" font-family="Helvetica,sans-Serif" font-size="10.00"> </text>
<polygon fill="#666666" stroke="#666666" points="31,-122 31,-122 164,-122 164,-122 31,-122"/>
<polygon fill="#666666" stroke="#666666" points="31,-106 31,-106 164,-106 164,-106 31,-106"/>
<polygon fill="none" stroke="#666666" points="31,-88 31,-140 164,-140 164,-88 31,-88"/>
</a>
</g>
</g>
<!-- Node2&#45;&gt;Node1 -->
<g id="edge1_Node000001_Node000002" class="edge">
<title>Node2&#45;&gt;Node1</title>
<g id="a_edge1_Node000001_Node000002"><a xlink:title=" ">
<path fill="none" stroke="#63b8ff" d="M97.5,-77.23C97.5,-68.69 97.5,-59.75 97.5,-51.82"/>
<polygon fill="none" stroke="#63b8ff" points="94,-77.13 97.5,-87.13 101,-77.13 94,-77.13"/>
</a>
</g>
</g>
</g>
</svg>
