<?xml version="1.0" encoding="UTF-8" standalone="no"?>
<!DOCTYPE svg PUBLIC "-//W3C//DTD SVG 1.1//EN"
 "http://www.w3.org/Graphics/SVG/1.1/DTD/svg11.dtd">
<!-- Generated by graphviz version 2.44.1 (20211215.1903)
 -->
<!-- Title: Roar::Detail::RangeFileBodyImpl::Sequence Pages: 1 -->
<svg width="218pt" height="226pt"
 viewBox="0.00 0.00 218.00 226.00" xmlns="http://www.w3.org/2000/svg" xmlns:xlink="http://www.w3.org/1999/xlink">
<g id="graph0" class="graph" transform="scale(1 1) rotate(0) translate(4 222)">
<title>Roar::Detail::RangeFileBodyImpl::Sequence</title>
<!-- Node1 -->
<g id="node1" class="node">
<title>Node1</title>
<g id="a_node1"><a xlink:title=" ">
<polygon fill="#bfbfbf" stroke="black" points="0,-0.5 0,-90.5 210,-90.5 210,-0.5 0,-0.5"/>
<text text-anchor="middle" x="105" y="-78.5" font-family="Helvetica,sans-Serif" font-size="10.00">Roar::Detail::RangeFileBodyImpl::Sequence</text>
<polyline fill="none" stroke="black" points="0,-71.5 210,-71.5 "/>
<text text-anchor="middle" x="105" y="-59.5" font-family="Helvetica,sans-Serif" font-size="10.00"> </text>
<polyline fill="none" stroke="black" points="0,-52.5 210,-52.5 "/>
<text text-anchor="start" x="8" y="-40.5" font-family="Helvetica,sans-Serif" font-size="10.00">+ Sequence()</text>
<text text-anchor="start" x="8" y="-29.5" font-family="Helvetica,sans-Serif" font-size="10.00">+ Sequence()</text>
<text text-anchor="start" x="8" y="-18.5" font-family="Helvetica,sans-Serif" font-size="10.00">+ Sequence()</text>
<text text-anchor="start" x="8" y="-7.5" font-family="Helvetica,sans-Serif" font-size="10.00">+ Sequence()</text>
</a>
</g>
</g>
<!-- Node2 -->
<g id="node2" class="node">
<title>Node2</title>
<g id="a_node2"><a xlink:title=" ">
<polygon fill="none" stroke="black" points="30.5,-160.5 30.5,-217.5 81.5,-217.5 81.5,-160.5 30.5,-160.5"/>
<text text-anchor="middle" x="56" y="-205.5" font-family="Helvetica,sans-Serif" font-size="10.00">uint64_t</text>
<polyline fill="none" stroke="black" points="30.5,-198.5 81.5,-198.5 "/>
<text text-anchor="middle" x="56" y="-186.5" font-family="Helvetica,sans-Serif" font-size="10.00"> </text>
<polyline fill="none" stroke="black" points="30.5,-179.5 81.5,-179.5 "/>
<text text-anchor="middle" x="56" y="-167.5" font-family="Helvetica,sans-Serif" font-size="10.00"> </text>
</a>
</g>
</g>
<!-- Node2&#45;&gt;Node1 -->
<g id="edge1" class="edge">
<title>Node2&#45;&gt;Node1</title>
<path fill="none" stroke="#404040" d="M52.13,-160.21C51.01,-144.72 51.34,-125.33 57,-109 57.89,-106.43 58.94,-103.88 60.1,-101.36"/>
<polygon fill="none" stroke="#404040" points="60.22,-101.15 59.54,-93.97 65.91,-90.58 66.58,-97.76 60.22,-101.15"/>
<text text-anchor="middle" x="94.5" y="-134" font-family="Helvetica,sans-Serif" font-size="10.00"> +end</text>
<text text-anchor="middle" x="94.5" y="-123" font-family="Helvetica,sans-Serif" font-size="10.00">+headConsumed</text>
<text text-anchor="middle" x="94.5" y="-112" font-family="Helvetica,sans-Serif" font-size="10.00">+start</text>
</g>
<!-- Node3 -->
<g id="node3" class="node">
<title>Node3</title>
<g id="a_node3"><a xlink:title=" ">
<polygon fill="none" stroke="black" points="133.5,-160.5 133.5,-217.5 174.5,-217.5 174.5,-160.5 133.5,-160.5"/>
<text text-anchor="middle" x="154" y="-205.5" font-family="Helvetica,sans-Serif" font-size="10.00">string</text>
<polyline fill="none" stroke="black" points="133.5,-198.5 174.5,-198.5 "/>
<text text-anchor="middle" x="154" y="-186.5" font-family="Helvetica,sans-Serif" font-size="10.00"> </text>
<polyline fill="none" stroke="black" points="133.5,-179.5 174.5,-179.5 "/>
<text text-anchor="middle" x="154" y="-167.5" font-family="Helvetica,sans-Serif" font-size="10.00"> </text>
</a>
</g>
</g>
<!-- Node3&#45;&gt;Node1 -->
<g id="edge2" class="edge">
<title>Node3&#45;&gt;Node1</title>
<path fill="none" stroke="#404040" d="M147.27,-160.29C143.31,-145.01 137.93,-125.78 132,-109 131.17,-106.65 130.29,-104.26 129.38,-101.86"/>
<polygon fill="none" stroke="#404040" points="129.34,-101.75 123.41,-97.64 124.93,-90.59 130.85,-94.7 129.34,-101.75"/>
<text text-anchor="middle" x="174" y="-123" font-family="Helvetica,sans-Serif" font-size="10.00"> +headSection</text>
</g>
</g>
</svg>
