<?xml version="1.0" encoding="UTF-8" standalone="no"?>
<!DOCTYPE svg PUBLIC "-//W3C//DTD SVG 1.1//EN"
 "http://www.w3.org/Graphics/SVG/1.1/DTD/svg11.dtd">
<!-- Generated by graphviz version 8.1.0 (0)
 -->
<!-- Title: Roar::Server::Implementation Pages: 1 -->
<svg width="1933pt" height="320pt"
 viewBox="0.00 0.00 1933.00 320.00" xmlns="http://www.w3.org/2000/svg" xmlns:xlink="http://www.w3.org/1999/xlink">
<g id="graph0" class="graph" transform="scale(1 1) rotate(0) translate(4 316)">
<title>Roar::Server::Implementation</title>
<!-- Node1 -->
<g id="Node000001" class="node">
<title>Node1</title>
<g id="a_Node000001"><a xlink:title=" ">
<polygon fill="#999999" stroke="none" points="959.5,-68 821.5,-68 821.5,0 959.5,0 959.5,-68"/>
<text text-anchor="start" x="826.38" y="-54.5" font-family="Helvetica,sans-Serif" font-size="10.00">Roar::Server::Implementation</text>
<text text-anchor="start" x="889" y="-38.5" font-family="Helvetica,sans-Serif" font-size="10.00"> </text>
<text text-anchor="start" x="837.5" y="-22.5" font-family="Helvetica,sans-Serif" font-size="10.00">+</text>
<text text-anchor="start" x="859.5" y="-22.5" font-family="Helvetica,sans-Serif" font-size="10.00">Implementation()</text>
<text text-anchor="start" x="837.5" y="-6.5" font-family="Helvetica,sans-Serif" font-size="10.00">+</text>
<text text-anchor="start" x="859.5" y="-6.5" font-family="Helvetica,sans-Serif" font-size="10.00">acceptOnce()</text>
<polygon fill="#666666" stroke="#666666" points="821.5,-50 821.5,-50 959.5,-50 959.5,-50 821.5,-50"/>
<polygon fill="#666666" stroke="#666666" points="821.5,-34 821.5,-34 959.5,-34 959.5,-34 821.5,-34"/>
<polygon fill="none" stroke="#666666" points="821.5,0 821.5,-68 959.5,-68 959.5,0 821.5,0"/>
</a>
</g>
</g>
<!-- Node2 -->
<g id="Node000002" class="node">
<title>Node2</title>
<g id="a_Node000002"><a xlink:title=" ">
<polygon fill="white" stroke="none" points="257,-196 0,-196 0,-144 257,-144 257,-196"/>
<text text-anchor="start" x="4.75" y="-182.5" font-family="Helvetica,sans-Serif" font-size="10.00">std::enable_shared_from_this&lt; Server::Implementation &gt;</text>
<text text-anchor="start" x="127" y="-166.5" font-family="Helvetica,sans-Serif" font-size="10.00"> </text>
<text text-anchor="start" x="127" y="-150.5" font-family="Helvetica,sans-Serif" font-size="10.00"> </text>
<polygon fill="#666666" stroke="#666666" points="0,-178 0,-178 257,-178 257,-178 0,-178"/>
<polygon fill="#666666" stroke="#666666" points="0,-162 0,-162 257,-162 257,-162 0,-162"/>
<polygon fill="none" stroke="#666666" points="0,-144 0,-196 257,-196 257,-144 0,-144"/>
</a>
</g>
</g>
<!-- Node2&#45;&gt;Node1 -->
<g id="edge1_Node000001_Node000002" class="edge">
<title>Node2&#45;&gt;Node1</title>
<g id="a_edge1_Node000001_Node000002"><a xlink:title=" ">
<path fill="none" stroke="#63b8ff" d="M198.15,-140.02C245.39,-121.59 309.71,-98.85 368.5,-86 528.4,-51.05 721.11,-40.04 821.71,-36.58"/>
<polygon fill="none" stroke="#63b8ff" points="197.05,-137.08 189.03,-144 199.62,-143.6 197.05,-137.08"/>
</a>
</g>
</g>
<!-- Node3 -->
<g id="Node000003" class="node">
<title>Node3</title>
<g id="a_Node000003"><a xlink:title=" ">
<polygon fill="white" stroke="none" points="322,-196 275,-196 275,-144 322,-144 322,-196"/>
<text text-anchor="start" x="279.75" y="-182.5" font-family="Helvetica,sans-Serif" font-size="10.00">acceptor</text>
<text text-anchor="start" x="297" y="-166.5" font-family="Helvetica,sans-Serif" font-size="10.00"> </text>
<text text-anchor="start" x="297" y="-150.5" font-family="Helvetica,sans-Serif" font-size="10.00"> </text>
<polygon fill="#666666" stroke="#666666" points="275,-178 275,-178 322,-178 322,-178 275,-178"/>
<polygon fill="#666666" stroke="#666666" points="275,-162 275,-162 322,-162 322,-162 275,-162"/>
<polygon fill="none" stroke="#666666" points="275,-144 275,-196 322,-196 322,-144 275,-144"/>
</a>
</g>
</g>
<!-- Node3&#45;&gt;Node1 -->
<g id="edge2_Node000001_Node000003" class="edge">
<title>Node3&#45;&gt;Node1</title>
<g id="a_edge2_Node000001_Node000003"><a xlink:title=" ">
<path fill="none" stroke="#63b8ff" d="M313.31,-144.09C318.07,-137.97 323.86,-132.02 330.5,-128 409.56,-80.12 673.41,-52.48 808.81,-41.12"/>
<polygon fill="none" stroke="#63b8ff" points="808.64,-41.13 814.29,-36.65 820.6,-40.14 814.95,-44.62 808.64,-41.13"/>
</a>
</g>
<text text-anchor="middle" x="480.75" y="-94.5" font-family="Helvetica,sans-Serif" font-size="10.00" fill="grey"> +acceptor</text>
</g>
<!-- Node4 -->
<g id="Node000004" class="node">
<title>Node4</title>
<g id="a_Node000004"><a xlink:title=" ">
<polygon fill="white" stroke="none" points="683,-196 340,-196 340,-144 683,-144 683,-196"/>
<text text-anchor="start" x="344.62" y="-182.5" font-family="Helvetica,sans-Serif" font-size="10.00">optional&lt; std::variant&lt; Roar::SslServerContext, boost::asio::ssl::context &gt; &gt;</text>
<text text-anchor="start" x="510" y="-166.5" font-family="Helvetica,sans-Serif" font-size="10.00"> </text>
<text text-anchor="start" x="510" y="-150.5" font-family="Helvetica,sans-Serif" font-size="10.00"> </text>
<polygon fill="#666666" stroke="#666666" points="340,-178 340,-178 683,-178 683,-178 340,-178"/>
<polygon fill="#666666" stroke="#666666" points="340,-162 340,-162 683,-162 683,-162 340,-162"/>
<polygon fill="none" stroke="#666666" points="340,-144 340,-196 683,-196 683,-144 340,-144"/>
</a>
</g>
</g>
<!-- Node4&#45;&gt;Node1 -->
<g id="edge3_Node000001_Node000004" class="edge">
<title>Node4&#45;&gt;Node1</title>
<g id="a_edge3_Node000001_Node000004"><a xlink:title=" ">
<path fill="none" stroke="#63b8ff" d="M549.12,-144.15C578.55,-125.71 621.09,-101.23 661.25,-86 708.7,-68 764.2,-55.45 808.71,-47.3"/>
<polygon fill="none" stroke="#63b8ff" points="808.85,-47.28 814.05,-42.29 820.66,-45.18 815.45,-50.17 808.85,-47.28"/>
</a>
</g>
<text text-anchor="middle" x="689.62" y="-94.5" font-family="Helvetica,sans-Serif" font-size="10.00" fill="grey"> +sslContext</text>
</g>
<!-- Node5 -->
<g id="Node000005" class="node">
<title>Node5</title>
<g id="a_Node000005"><a xlink:title=" ">
<polygon fill="white" stroke="none" points="747.5,-196 701.5,-196 701.5,-144 747.5,-144 747.5,-196"/>
<text text-anchor="start" x="706.12" y="-182.5" font-family="Helvetica,sans-Serif" font-size="10.00">endpoint</text>
<text text-anchor="start" x="723" y="-166.5" font-family="Helvetica,sans-Serif" font-size="10.00"> </text>
<text text-anchor="start" x="723" y="-150.5" font-family="Helvetica,sans-Serif" font-size="10.00"> </text>
<polygon fill="#666666" stroke="#666666" points="701.5,-178 701.5,-178 747.5,-178 747.5,-178 701.5,-178"/>
<polygon fill="#666666" stroke="#666666" points="701.5,-162 701.5,-162 747.5,-162 747.5,-162 701.5,-162"/>
<polygon fill="none" stroke="#666666" points="701.5,-144 701.5,-196 747.5,-196 747.5,-144 701.5,-144"/>
</a>
</g>
</g>
<!-- Node5&#45;&gt;Node1 -->
<g id="edge4_Node000001_Node000005" class="edge">
<title>Node5&#45;&gt;Node1</title>
<g id="a_edge4_Node000001_Node000005"><a xlink:title=" ">
<path fill="none" stroke="#63b8ff" d="M719.86,-144.22C717.95,-126.18 718.62,-102.18 731.5,-86 750.37,-62.29 780.34,-49.44 809.2,-42.53"/>
<polygon fill="none" stroke="#63b8ff" points="809.28,-42.52 814.32,-37.36 821.02,-40.03 815.98,-45.19 809.28,-42.52"/>
</a>
</g>
<text text-anchor="middle" x="772" y="-100.5" font-family="Helvetica,sans-Serif" font-size="10.00" fill="grey"> +bindEndpoint</text>
<text text-anchor="middle" x="772" y="-88.5" font-family="Helvetica,sans-Serif" font-size="10.00" fill="grey">+resolvedEndpoint</text>
</g>
<!-- Node6 -->
<g id="Node000006" class="node">
<title>Node6</title>
<g id="a_Node000006"><a xlink:title=" ">
<polygon fill="white" stroke="none" points="837,-196 766,-196 766,-144 837,-144 837,-196"/>
<text text-anchor="start" x="770.75" y="-182.5" font-family="Helvetica,sans-Serif" font-size="10.00">shared_mutex</text>
<text text-anchor="start" x="800" y="-166.5" font-family="Helvetica,sans-Serif" font-size="10.00"> </text>
<text text-anchor="start" x="800" y="-150.5" font-family="Helvetica,sans-Serif" font-size="10.00"> </text>
<polygon fill="#666666" stroke="#666666" points="766,-178 766,-178 837,-178 837,-178 766,-178"/>
<polygon fill="#666666" stroke="#666666" points="766,-162 766,-162 837,-162 837,-162 766,-162"/>
<polygon fill="none" stroke="#666666" points="766,-144 766,-196 837,-196 837,-144 766,-144"/>
</a>
</g>
</g>
<!-- Node6&#45;&gt;Node1 -->
<g id="edge5_Node000001_Node000006" class="edge">
<title>Node6&#45;&gt;Node1</title>
<g id="a_edge5_Node000001_Node000006"><a xlink:title=" ">
<path fill="none" stroke="#63b8ff" d="M805.75,-144.11C809.59,-126.71 816.55,-103.53 828.5,-86 830.56,-82.98 832.85,-80.04 835.3,-77.2"/>
<polygon fill="none" stroke="#63b8ff" points="835.24,-77.26 836.49,-70.16 843.53,-68.59 842.28,-75.69 835.24,-77.26"/>
</a>
</g>
<text text-anchor="middle" x="875" y="-94.5" font-family="Helvetica,sans-Serif" font-size="10.00" fill="grey"> +acceptorStopGuard</text>
</g>
<!-- Node7 -->
<g id="Node000007" class="node">
<title>Node7</title>
<g id="a_Node000007"><a xlink:title=" ">
<polygon fill="white" stroke="none" points="1052,-196 855,-196 855,-144 1052,-144 1052,-196"/>
<text text-anchor="start" x="859.75" y="-182.5" font-family="Helvetica,sans-Serif" font-size="10.00">function&lt; void(boost::system::error_code)&gt;</text>
<text text-anchor="start" x="952" y="-166.5" font-family="Helvetica,sans-Serif" font-size="10.00"> </text>
<text text-anchor="start" x="952" y="-150.5" font-family="Helvetica,sans-Serif" font-size="10.00"> </text>
<polygon fill="#666666" stroke="#666666" points="855,-178 855,-178 1052,-178 1052,-178 855,-178"/>
<polygon fill="#666666" stroke="#666666" points="855,-162 855,-162 1052,-162 1052,-162 855,-162"/>
<polygon fill="none" stroke="#666666" points="855,-144 855,-196 1052,-196 1052,-144 855,-144"/>
</a>
</g>
</g>
<!-- Node7&#45;&gt;Node1 -->
<g id="edge6_Node000001_Node000007" class="edge">
<title>Node7&#45;&gt;Node1</title>
<g id="a_edge6_Node000001_Node000007"><a xlink:title=" ">
<path fill="none" stroke="#63b8ff" d="M947.12,-144.32C942.28,-127.43 934.88,-104.77 925.5,-86 924.32,-83.64 923.04,-81.26 921.7,-78.88"/>
<polygon fill="none" stroke="#63b8ff" points="921.74,-78.95 915.2,-75.91 915.5,-68.7 922.03,-71.75 921.74,-78.95"/>
</a>
</g>
<text text-anchor="middle" x="972.25" y="-94.5" font-family="Helvetica,sans-Serif" font-size="10.00" fill="grey"> +onAcceptAbort</text>
</g>
<!-- Node8 -->
<g id="Node000008" class="node">
<title>Node8</title>
<g id="a_Node000008"><a xlink:title=" ">
<polygon fill="white" stroke="none" points="1317,-196 1070,-196 1070,-144 1317,-144 1317,-196"/>
<text text-anchor="start" x="1075" y="-182.5" font-family="Helvetica,sans-Serif" font-size="10.00">shared_ptr&lt; const Roar::StandardResponseProvider &gt;</text>
<text text-anchor="start" x="1192" y="-166.5" font-family="Helvetica,sans-Serif" font-size="10.00"> </text>
<text text-anchor="start" x="1192" y="-150.5" font-family="Helvetica,sans-Serif" font-size="10.00"> </text>
<polygon fill="#666666" stroke="#666666" points="1070,-178 1070,-178 1317,-178 1317,-178 1070,-178"/>
<polygon fill="#666666" stroke="#666666" points="1070,-162 1070,-162 1317,-162 1317,-162 1070,-162"/>
<polygon fill="none" stroke="#666666" points="1070,-144 1070,-196 1317,-196 1317,-144 1070,-144"/>
</a>
</g>
</g>
<!-- Node8&#45;&gt;Node1 -->
<g id="edge7_Node000001_Node000008" class="edge">
<title>Node8&#45;&gt;Node1</title>
<g id="a_edge7_Node000001_Node000008"><a xlink:title=" ">
<path fill="none" stroke="#63b8ff" d="M1140.26,-144.01C1104.31,-127.28 1055.72,-104.94 1012.5,-86 999.25,-80.19 985.12,-74.15 971.36,-68.35"/>
<polygon fill="none" stroke="#63b8ff" points="971.28,-68.32 964.2,-69.68 960.22,-63.67 967.3,-62.3 971.28,-68.32"/>
</a>
</g>
<text text-anchor="middle" x="1125.88" y="-94.5" font-family="Helvetica,sans-Serif" font-size="10.00" fill="grey"> +standardResponseProvider</text>
</g>
<!-- Node9 -->
<g id="Node000009" class="node">
<title>Node9</title>
<g id="a_Node000009"><a xlink:title=" ">
<polygon fill="white" stroke="none" points="1465.5,-196 1335.5,-196 1335.5,-144 1465.5,-144 1465.5,-196"/>
<text text-anchor="start" x="1340.5" y="-182.5" font-family="Helvetica,sans-Serif" font-size="10.00">shared_ptr&lt; Roar::Router &gt;</text>
<text text-anchor="start" x="1399" y="-166.5" font-family="Helvetica,sans-Serif" font-size="10.00"> </text>
<text text-anchor="start" x="1399" y="-150.5" font-family="Helvetica,sans-Serif" font-size="10.00"> </text>
<polygon fill="#666666" stroke="#666666" points="1335.5,-178 1335.5,-178 1465.5,-178 1465.5,-178 1335.5,-178"/>
<polygon fill="#666666" stroke="#666666" points="1335.5,-162 1335.5,-162 1465.5,-162 1465.5,-162 1335.5,-162"/>
<polygon fill="none" stroke="#666666" points="1335.5,-144 1335.5,-196 1465.5,-196 1465.5,-144 1335.5,-144"/>
</a>
</g>
</g>
<!-- Node9&#45;&gt;Node1 -->
<g id="edge8_Node000001_Node000009" class="edge">
<title>Node9&#45;&gt;Node1</title>
<g id="a_edge8_Node000001_Node000009"><a xlink:title=" ">
<path fill="none" stroke="#63b8ff" d="M1358.37,-144.13C1347.83,-138.42 1336.42,-132.67 1325.5,-128 1208.42,-77.92 1061.69,-53.77 972.09,-42.93"/>
<polygon fill="none" stroke="#63b8ff" points="972.1,-42.93 965.68,-46.2 960.19,-41.53 966.61,-38.25 972.1,-42.93"/>
</a>
</g>
<text text-anchor="middle" x="1286.38" y="-94.5" font-family="Helvetica,sans-Serif" font-size="10.00" fill="grey"> +router</text>
</g>
<!-- Node10 -->
<g id="Node000010" class="node">
<title>Node10</title>
<g id="a_Node000010"><a xlink:title=" ">
<polygon fill="white" stroke="none" points="1631.5,-196 1483.5,-196 1483.5,-144 1631.5,-144 1631.5,-196"/>
<text text-anchor="start" x="1488.5" y="-182.5" font-family="Helvetica,sans-Serif" font-size="10.00">function&lt; void(Roar::Error &amp;&amp;)&gt;</text>
<text text-anchor="start" x="1556" y="-166.5" font-family="Helvetica,sans-Serif" font-size="10.00"> </text>
<text text-anchor="start" x="1556" y="-150.5" font-family="Helvetica,sans-Serif" font-size="10.00"> </text>
<polygon fill="#666666" stroke="#666666" points="1483.5,-178 1483.5,-178 1631.5,-178 1631.5,-178 1483.5,-178"/>
<polygon fill="#666666" stroke="#666666" points="1483.5,-162 1483.5,-162 1631.5,-162 1631.5,-162 1483.5,-162"/>
<polygon fill="none" stroke="#666666" points="1483.5,-144 1483.5,-196 1631.5,-196 1631.5,-144 1483.5,-144"/>
</a>
</g>
</g>
<!-- Node10&#45;&gt;Node1 -->
<g id="edge9_Node000001_Node000010" class="edge">
<title>Node10&#45;&gt;Node1</title>
<g id="a_edge9_Node000001_Node000010"><a xlink:title=" ">
<path fill="none" stroke="#63b8ff" d="M1511.3,-144.02C1499.51,-138.25 1486.72,-132.5 1474.5,-128 1302.87,-64.84 1087.32,-44.55 972.08,-38.05"/>
<polygon fill="none" stroke="#63b8ff" points="972.1,-38.05 965.89,-41.72 960.11,-37.41 966.32,-33.73 972.1,-38.05"/>
</a>
</g>
<text text-anchor="middle" x="1434.75" y="-94.5" font-family="Helvetica,sans-Serif" font-size="10.00" fill="grey"> +onError</text>
</g>
<!-- Node11 -->
<g id="Node000011" class="node">
<title>Node11</title>
<g id="a_Node000011"><a xlink:href="classRoar_1_1Factory.html" target="_top" xlink:title="This factory creates sessions.">
<polygon fill="white" stroke="none" points="1851,-212 1650,-212 1650,-128 1851,-128 1851,-212"/>
<text text-anchor="start" x="1720.5" y="-198.5" font-family="Helvetica,sans-Serif" font-size="10.00">Roar::Factory</text>
<text text-anchor="start" x="1749" y="-182.5" font-family="Helvetica,sans-Serif" font-size="10.00"> </text>
<text text-anchor="start" x="1654" y="-166.5" font-family="Helvetica,sans-Serif" font-size="10.00">+</text>
<text text-anchor="start" x="1664" y="-166.5" font-family="Helvetica,sans-Serif" font-size="10.00">Factory()</text>
<text text-anchor="start" x="1654" y="-150.5" font-family="Helvetica,sans-Serif" font-size="10.00">+</text>
<text text-anchor="start" x="1664" y="-150.5" font-family="Helvetica,sans-Serif" font-size="10.00">ROAR_PIMPL_SPECIAL_FUNCTIONS()</text>
<text text-anchor="start" x="1654" y="-134.5" font-family="Helvetica,sans-Serif" font-size="10.00">+</text>
<text text-anchor="start" x="1664" y="-134.5" font-family="Helvetica,sans-Serif" font-size="10.00">makeSession()</text>
<polygon fill="#666666" stroke="#666666" points="1650,-194 1650,-194 1851,-194 1851,-194 1650,-194"/>
<polygon fill="#666666" stroke="#666666" points="1650,-178 1650,-178 1851,-178 1851,-178 1650,-178"/>
<polygon fill="none" stroke="#666666" points="1650,-128 1650,-212 1851,-212 1851,-128 1650,-128"/>
</a>
</g>
</g>
<!-- Node11&#45;&gt;Node1 -->
<g id="edge10_Node000001_Node000011" class="edge">
<title>Node11&#45;&gt;Node1</title>
<g id="a_edge10_Node000001_Node000011"><a xlink:title=" ">
<path fill="none" stroke="#63b8ff" d="M1650.27,-131.03C1646.98,-129.98 1643.72,-128.97 1640.5,-128 1404.71,-57.18 1111.64,-40.21 971.93,-36.2"/>
<polygon fill="none" stroke="#63b8ff" points="972.2,-36.21 966.1,-40.05 960.2,-35.89 966.31,-32.05 972.2,-36.21"/>
</a>
</g>
<text text-anchor="middle" x="1600.38" y="-94.5" font-family="Helvetica,sans-Serif" font-size="10.00" fill="grey"> +sessionFactory</text>
</g>
<!-- Node12 -->
<g id="Node000012" class="node">
<title>Node12</title>
<g id="a_Node000012"><a xlink:title=" ">
<polygon fill="white" stroke="none" points="1701.5,-312 1655.5,-312 1655.5,-260 1701.5,-260 1701.5,-312"/>
<text text-anchor="start" x="1660.12" y="-298.5" font-family="Helvetica,sans-Serif" font-size="10.00">seconds</text>
<text text-anchor="start" x="1677" y="-282.5" font-family="Helvetica,sans-Serif" font-size="10.00"> </text>
<text text-anchor="start" x="1677" y="-266.5" font-family="Helvetica,sans-Serif" font-size="10.00"> </text>
<polygon fill="#666666" stroke="#666666" points="1655.5,-294 1655.5,-294 1701.5,-294 1701.5,-294 1655.5,-294"/>
<polygon fill="#666666" stroke="#666666" points="1655.5,-278 1655.5,-278 1701.5,-278 1701.5,-278 1655.5,-278"/>
<polygon fill="none" stroke="#666666" points="1655.5,-260 1655.5,-312 1701.5,-312 1701.5,-260 1655.5,-260"/>
</a>
</g>
</g>
<!-- Node12&#45;&gt;Node11 -->
<g id="edge11_Node000011_Node000012" class="edge">
<title>Node12&#45;&gt;Node11</title>
<g id="a_edge11_Node000011_Node000012"><a xlink:title=" ">
<path fill="none" stroke="#63b8ff" d="M1687.08,-260.15C1690.9,-250.43 1695.82,-239.38 1701.5,-230 1703.07,-227.41 1704.75,-224.81 1706.51,-222.22"/>
<polygon fill="none" stroke="#63b8ff" points="1706.52,-222.2 1706.79,-215 1713.55,-212.48 1713.28,-219.68 1706.52,-222.2"/>
</a>
</g>
<text text-anchor="middle" x="1751" y="-232.5" font-family="Helvetica,sans-Serif" font-size="10.00" fill="grey"> +sslDetectionTimeout</text>
</g>
<!-- Node13 -->
<g id="Node000013" class="node">
<title>Node13</title>
<g id="a_Node000013"><a xlink:title=" ">
<polygon fill="white" stroke="none" points="1925,-312 1720,-312 1720,-260 1925,-260 1925,-312"/>
<text text-anchor="start" x="1724.62" y="-298.5" font-family="Helvetica,sans-Serif" font-size="10.00">unique_ptr&lt; Roar::Factory::Implementation &gt;</text>
<text text-anchor="start" x="1821" y="-282.5" font-family="Helvetica,sans-Serif" font-size="10.00"> </text>
<text text-anchor="start" x="1821" y="-266.5" font-family="Helvetica,sans-Serif" font-size="10.00"> </text>
<polygon fill="#666666" stroke="#666666" points="1720,-294 1720,-294 1925,-294 1925,-294 1720,-294"/>
<polygon fill="#666666" stroke="#666666" points="1720,-278 1720,-278 1925,-278 1925,-278 1720,-278"/>
<polygon fill="none" stroke="#666666" points="1720,-260 1720,-312 1925,-312 1925,-260 1720,-260"/>
</a>
</g>
</g>
<!-- Node13&#45;&gt;Node11 -->
<g id="edge12_Node000011_Node000013" class="edge">
<title>Node13&#45;&gt;Node11</title>
<g id="a_edge12_Node000011_Node000013"><a xlink:title=" ">
<path fill="none" stroke="#63b8ff" d="M1814.48,-260.1C1810.86,-250.38 1806.12,-239.34 1800.5,-230 1798.95,-227.43 1797.29,-224.85 1795.55,-222.3"/>
<polygon fill="none" stroke="#63b8ff" points="1795.62,-222.39 1788.86,-219.89 1788.57,-212.69 1795.33,-215.19 1795.62,-222.39"/>
</a>
</g>
<text text-anchor="middle" x="1821.12" y="-232.5" font-family="Helvetica,sans-Serif" font-size="10.00" fill="grey"> &#45;impl_</text>
</g>
</g>
</svg>
