<?xml version="1.0" encoding="UTF-8" standalone="no"?>
<!DOCTYPE svg PUBLIC "-//W3C//DTD SVG 1.1//EN"
 "http://www.w3.org/Graphics/SVG/1.1/DTD/svg11.dtd">
<!-- Generated by graphviz version 8.1.0 (0)
 -->
<!-- Title: Roar::Detail::PromiseTypeBind&lt; PromiseTypeBindFail&lt; FailArgs... &gt; &gt; Pages: 1 -->
<svg width="326pt" height="297pt"
 viewBox="0.00 0.00 326.00 297.00" xmlns="http://www.w3.org/2000/svg" xmlns:xlink="http://www.w3.org/1999/xlink">

<svg id="main" version="1.1" xmlns="http://www.w3.org/2000/svg" xmlns:xlink="http://www.w3.org/1999/xlink" xml:space="preserve" onload="init(evt)">
<style type="text/css"><![CDATA[
.node, .edge {opacity: 0.7;}
.node.selected, .edge.selected {opacity: 1;}
.edge:hover path { stroke: red; }
.edge:hover polygon { stroke: red; fill: red; }
]]></style>
<script type="application/ecmascript" xlink:href="svg.min.js"/>
<svg id="graph" class="graph">
<g id="graph0" class="graph" transform="scale(1 1) rotate(0) translate(4 293)">
<title>Roar::Detail::PromiseTypeBind&lt; PromiseTypeBindFail&lt; FailArgs... &gt; &gt;</title>
<!-- Node1 -->
<g id="Node000001" class="node">
<title>Node1</title>
<g id="a_Node000001"><a xlink:title=" ">
<polygon fill="#999999" stroke="none" points="318,-84 0,-84 0,0 318,0 318,-84"/>
<text text-anchor="start" x="4.88" y="-70.5" font-family="Helvetica,sans-Serif" font-size="10.00">Roar::Detail::PromiseTypeBind&lt; PromiseTypeBindFail&lt; FailArgs... &gt; &gt;</text>
<text text-anchor="start" x="157.5" y="-54.5" font-family="Helvetica,sans-Serif" font-size="10.00"> </text>
<text text-anchor="start" x="52.5" y="-38.5" font-family="Helvetica,sans-Serif" font-size="10.00">+</text>
<text text-anchor="start" x="111" y="-38.5" font-family="Helvetica,sans-Serif" font-size="10.00">then()</text>
<text text-anchor="start" x="52.5" y="-22.5" font-family="Helvetica,sans-Serif" font-size="10.00">+</text>
<text text-anchor="start" x="111" y="-22.5" font-family="Helvetica,sans-Serif" font-size="10.00">fail()</text>
<text text-anchor="start" x="52.5" y="-6.5" font-family="Helvetica,sans-Serif" font-size="10.00">+</text>
<text text-anchor="start" x="111" y="-6.5" font-family="Helvetica,sans-Serif" font-size="10.00">PromiseTypeBindBase()</text>
<polygon fill="#666666" stroke="#666666" points="0,-66 0,-66 318,-66 318,-66 0,-66"/>
<polygon fill="#666666" stroke="#666666" points="0,-50 0,-50 318,-50 318,-50 0,-50"/>
<polygon fill="none" stroke="#666666" points="0,0 0,-84 318,-84 318,0 0,0"/>
</a>
</g>
</g>
<!-- Node2 -->
<g id="Node000002" class="node">
<title>Node2</title>
<g id="a_Node000002"><a xlink:href="classRoar_1_1Detail_1_1PromiseTypeBindBase.html" target="_top" xlink:title=" ">
<polygon fill="white" stroke="none" points="242.5,-189 75.5,-189 75.5,-121 242.5,-121 242.5,-189"/>
<text text-anchor="start" x="80.25" y="-175.5" font-family="Helvetica,sans-Serif" font-size="10.00">Roar::Detail::PromiseTypeBindBase</text>
<text text-anchor="start" x="157.5" y="-159.5" font-family="Helvetica,sans-Serif" font-size="10.00"> </text>
<text text-anchor="start" x="89" y="-143.5" font-family="Helvetica,sans-Serif" font-size="10.00">+</text>
<text text-anchor="start" x="108.5" y="-143.5" font-family="Helvetica,sans-Serif" font-size="10.00">PromiseTypeBindBase()</text>
<text text-anchor="start" x="89" y="-127.5" font-family="Helvetica,sans-Serif" font-size="10.00">+</text>
<text text-anchor="start" x="108.5" y="-127.5" font-family="Helvetica,sans-Serif" font-size="10.00">~PromiseTypeBindBase()</text>
<polygon fill="#666666" stroke="#666666" points="75.5,-171 75.5,-171 242.5,-171 242.5,-171 75.5,-171"/>
<polygon fill="#666666" stroke="#666666" points="75.5,-155 75.5,-155 242.5,-155 242.5,-155 75.5,-155"/>
<polygon fill="none" stroke="#666666" points="75.5,-121 75.5,-189 242.5,-189 242.5,-121 75.5,-121"/>
</a>
</g>
</g>
<!-- Node2&#45;&gt;Node1 -->
<g id="edge1_Node000001_Node000002" class="edge">
<title>Node2&#45;&gt;Node1</title>
<g id="a_edge1_Node000001_Node000002"><a xlink:title=" ">
<path fill="none" stroke="#63b8ff" d="M159,-110.45C159,-101.65 159,-92.44 159,-83.74"/>
<polygon fill="none" stroke="#63b8ff" points="155.5,-110.3 159,-120.3 162.5,-110.3 155.5,-110.3"/>
</a>
</g>
</g>
<!-- Node3 -->
<g id="Node000003" class="node">
<title>Node3</title>
<g id="a_Node000003"><a xlink:title=" ">
<polygon fill="white" stroke="none" points="182,-289 136,-289 136,-237 182,-237 182,-289"/>
<text text-anchor="start" x="141" y="-275.5" font-family="Helvetica,sans-Serif" font-size="10.00">Promise</text>
<text text-anchor="start" x="157.5" y="-259.5" font-family="Helvetica,sans-Serif" font-size="10.00"> </text>
<text text-anchor="start" x="157.5" y="-243.5" font-family="Helvetica,sans-Serif" font-size="10.00"> </text>
<polygon fill="#666666" stroke="#666666" points="136,-271 136,-271 182,-271 182,-271 136,-271"/>
<polygon fill="#666666" stroke="#666666" points="136,-255 136,-255 182,-255 182,-255 136,-255"/>
<polygon fill="none" stroke="#666666" points="136,-237 136,-289 182,-289 182,-237 136,-237"/>
</a>
</g>
</g>
<!-- Node3&#45;&gt;Node2 -->
<g id="edge2_Node000002_Node000003" class="edge">
<title>Node3&#45;&gt;Node2</title>
<g id="a_edge2_Node000002_Node000003"><a xlink:title=" ">
<path fill="none" stroke="#63b8ff" d="M159,-237.15C159,-226.54 159,-213.82 159,-201.63"/>
<polygon fill="none" stroke="#63b8ff" points="159,-201.63 155,-195.63 159,-189.63 163,-195.63 159,-201.63"/>
</a>
</g>
<text text-anchor="middle" x="183" y="-209.5" font-family="Helvetica,sans-Serif" font-size="10.00" fill="grey"> #promise_</text>
</g>
</g>
</svg>
</svg>

<style type='text/css'>
<![CDATA[
[data-mouse-over-selected='false'] { opacity: 0.7; }
[data-mouse-over-selected='true']  { opacity: 1.0; }
]]>
</style>
<script type="application/ecmascript"><![CDATA[
document.addEventListener('DOMContentLoaded', (event) => {
  highlightEdges();
  highlightAdjacentNodes();
});
]]></script>
</svg>
