<?xml version="1.0" encoding="UTF-8" standalone="no"?>
<!DOCTYPE svg PUBLIC "-//W3C//DTD SVG 1.1//EN"
 "http://www.w3.org/Graphics/SVG/1.1/DTD/svg11.dtd">
<!-- Generated by graphviz version 8.1.0 (0)
 -->
<!-- Title: Roar::WebsocketClient::Implementation Pages: 1 -->
<!--zoomable 252 -->

<svg id="main" version="1.1" xmlns="http://www.w3.org/2000/svg" xmlns:xlink="http://www.w3.org/1999/xlink" xml:space="preserve" onload="init(evt)">
<style type="text/css"><![CDATA[
.node, .edge {opacity: 0.7;}
.node.selected, .edge.selected {opacity: 1;}
.edge:hover path { stroke: red; }
.edge:hover polygon { stroke: red; fill: red; }
]]></style>

<defs>
  <circle id="rim" cx="0" cy="0" r="7"/>
  <circle id="rim2" cx="0" cy="0" r="3.5"/>
  <g id="zoomPlus">
    <use xlink:href="#rim" fill="#404040"><set attributeName="fill" to="#808080" begin="zoomplus.mouseover" end="zoomplus.mouseout"/></use>
    <path d="M-4,0h8M0,-4v8" fill="none" stroke="white" stroke-width="1.5" pointer-events="none"/>
  </g>
  <g id="zoomMin">
    <use xlink:href="#rim" fill="#404040"><set attributeName="fill" to="#808080" begin="zoomminus.mouseover" end="zoomminus.mouseout"/></use>
    <path d="M-4,0h8" fill="none" stroke="white" stroke-width="1.5" pointer-events="none"/>
  </g>
  <g id="arrowUp" transform="translate(30 24)">
    <use xlink:href="#rim"/>
    <path pointer-events="none" fill="none" stroke="white" stroke-width="1.5" d="M0,-3.0v7 M-2.5,-0.5L0,-3.0L2.5,-0.5"/>
  </g>
  <g id="arrowRight" transform="rotate(90) translate(36 -43)">
    <use xlink:href="#rim"/>
    <path pointer-events="none" fill="none" stroke="white" stroke-width="1.5" d="M0,-3.0v7 M-2.5,-0.5L0,-3.0L2.5,-0.5"/>
  </g>
  <g id="arrowDown" transform="rotate(180) translate(-30 -48)">
    <use xlink:href="#rim"/>
    <path pointer-events="none" fill="none" stroke="white" stroke-width="1.5" d="M0,-3.0v7 M-2.5,-0.5L0,-3.0L2.5,-0.5"/>
  </g>
  <g id="arrowLeft" transform="rotate(270) translate(-36 17)">
    <use xlink:href="#rim"/>
    <path pointer-events="none" fill="none" stroke="white" stroke-width="1.5" d="M0,-3.0v7 M-2.5,-0.5L0,-3.0L2.5,-0.5"/>
  </g>
  <g id="resetDef">
    <use xlink:href="#rim2" fill="#404040"><set attributeName="fill" to="#808080" begin="reset.mouseover" end="reset.mouseout"/></use>
  </g>
</defs>
<script type="application/ecmascript">
var viewWidth = 642;
var viewHeight = 252;
var sectionId = 'dynsection-0';
</script>
<script type="application/ecmascript" xlink:href="svg.min.js"/>
<svg id="graph" class="graph">
<g id="viewport">
<title>Roar::WebsocketClient::Implementation</title>
<!-- Node1 -->
<g id="Node000001" class="node">
<title>Node1</title>
<g id="a_Node000001"><a xlink:title=" ">
<polygon fill="#999999" stroke="none" points="345,-132 161,-132 161,0 345,0 345,-132"/>
<text text-anchor="start" x="166" y="-118.5" font-family="Helvetica,sans-Serif" font-size="10.00">Roar::WebsocketClient::Implementation</text>
<text text-anchor="start" x="251.5" y="-102.5" font-family="Helvetica,sans-Serif" font-size="10.00"> </text>
<text text-anchor="start" x="172" y="-86.5" font-family="Helvetica,sans-Serif" font-size="10.00">+</text>
<text text-anchor="start" x="189" y="-86.5" font-family="Helvetica,sans-Serif" font-size="10.00">Implementation()</text>
<text text-anchor="start" x="172" y="-70.5" font-family="Helvetica,sans-Serif" font-size="10.00">+</text>
<text text-anchor="start" x="189" y="-70.5" font-family="Helvetica,sans-Serif" font-size="10.00">onConnect()</text>
<text text-anchor="start" x="172" y="-54.5" font-family="Helvetica,sans-Serif" font-size="10.00">+</text>
<text text-anchor="start" x="189" y="-54.5" font-family="Helvetica,sans-Serif" font-size="10.00">performSslHandshake()</text>
<text text-anchor="start" x="172" y="-38.5" font-family="Helvetica,sans-Serif" font-size="10.00">+</text>
<text text-anchor="start" x="189" y="-38.5" font-family="Helvetica,sans-Serif" font-size="10.00">onSslHandshake()</text>
<text text-anchor="start" x="172" y="-22.5" font-family="Helvetica,sans-Serif" font-size="10.00">+</text>
<text text-anchor="start" x="189" y="-22.5" font-family="Helvetica,sans-Serif" font-size="10.00">performWebsocketHandshake()</text>
<text text-anchor="start" x="172" y="-6.5" font-family="Helvetica,sans-Serif" font-size="10.00">+</text>
<text text-anchor="start" x="189" y="-6.5" font-family="Helvetica,sans-Serif" font-size="10.00">onWebsocketHandshake()</text>
<polygon fill="#666666" stroke="#666666" points="161,-114 161,-114 345,-114 345,-114 161,-114"/>
<polygon fill="#666666" stroke="#666666" points="161,-98 161,-98 345,-98 345,-98 161,-98"/>
<polygon fill="none" stroke="#666666" points="161,0 161,-132 345,-132 345,0 161,0"/>
</a>
</g>
</g>
<!-- Node2 -->
<g id="Node000002" class="node">
<title>Node2</title>
<g id="a_Node000002"><a xlink:title=" ">
<polygon fill="white" stroke="none" points="52,-244 0,-244 0,-192 52,-192 52,-244"/>
<text text-anchor="start" x="4.62" y="-230.5" font-family="Helvetica,sans-Serif" font-size="10.00">flat_buffer</text>
<text text-anchor="start" x="24.5" y="-214.5" font-family="Helvetica,sans-Serif" font-size="10.00"> </text>
<text text-anchor="start" x="24.5" y="-198.5" font-family="Helvetica,sans-Serif" font-size="10.00"> </text>
<polygon fill="#666666" stroke="#666666" points="0,-226 0,-226 52,-226 52,-226 0,-226"/>
<polygon fill="#666666" stroke="#666666" points="0,-210 0,-210 52,-210 52,-210 0,-210"/>
<polygon fill="none" stroke="#666666" points="0,-192 0,-244 52,-244 52,-192 0,-192"/>
</a>
</g>
</g>
<!-- Node2&#45;&gt;Node1 -->
<g id="edge1_Node000001_Node000002" class="edge">
<title>Node2&#45;&gt;Node1</title>
<g id="a_edge1_Node000001_Node000002"><a xlink:title=" ">
<path fill="none" stroke="#63b8ff" d="M51.91,-198.31C54.96,-196.16 58.04,-194.02 61,-192 89.82,-172.34 121.44,-151.47 150.55,-132.54"/>
<polygon fill="none" stroke="#63b8ff" points="150.33,-132.68 153.18,-126.06 160.4,-126.14 157.54,-132.77 150.33,-132.68"/>
</a>
</g>
<text text-anchor="middle" x="135.5" y="-158.5" font-family="Helvetica,sans-Serif" font-size="10.00" fill="grey"> +buffer</text>
</g>
<!-- Node3 -->
<g id="Node000003" class="node">
<title>Node3</title>
<g id="a_Node000003"><a xlink:title=" ">
<polygon fill="white" stroke="none" points="218,-244 70,-244 70,-192 218,-192 218,-244"/>
<text text-anchor="start" x="75" y="-230.5" font-family="Helvetica,sans-Serif" font-size="10.00">function&lt; void(Roar::Error &amp;&amp;)&gt;</text>
<text text-anchor="start" x="142.5" y="-214.5" font-family="Helvetica,sans-Serif" font-size="10.00"> </text>
<text text-anchor="start" x="142.5" y="-198.5" font-family="Helvetica,sans-Serif" font-size="10.00"> </text>
<polygon fill="#666666" stroke="#666666" points="70,-226 70,-226 218,-226 218,-226 70,-226"/>
<polygon fill="#666666" stroke="#666666" points="70,-210 70,-210 218,-210 218,-210 70,-210"/>
<polygon fill="none" stroke="#666666" points="70,-192 70,-244 218,-244 218,-192 70,-192"/>
</a>
</g>
</g>
<!-- Node3&#45;&gt;Node1 -->
<g id="edge2_Node000001_Node000003" class="edge">
<title>Node3&#45;&gt;Node1</title>
<g id="a_edge2_Node000001_Node000003"><a xlink:title=" ">
<path fill="none" stroke="#63b8ff" d="M162,-192.23C172.05,-178.39 185.18,-160.33 198.31,-142.26"/>
<polygon fill="none" stroke="#63b8ff" points="198.23,-142.38 198.52,-135.17 205.28,-132.67 204.99,-139.87 198.23,-142.38"/>
</a>
</g>
<text text-anchor="middle" x="212.25" y="-158.5" font-family="Helvetica,sans-Serif" font-size="10.00" fill="grey"> +onError</text>
</g>
<!-- Node4 -->
<g id="Node000004" class="node">
<title>Node4</title>
<g id="a_Node000004"><a xlink:title=" ">
<polygon fill="white" stroke="none" points="270,-244 236,-244 236,-192 270,-192 270,-244"/>
<text text-anchor="start" x="241" y="-230.5" font-family="Helvetica,sans-Serif" font-size="10.00">string</text>
<text text-anchor="start" x="251.5" y="-214.5" font-family="Helvetica,sans-Serif" font-size="10.00"> </text>
<text text-anchor="start" x="251.5" y="-198.5" font-family="Helvetica,sans-Serif" font-size="10.00"> </text>
<polygon fill="#666666" stroke="#666666" points="236,-226 236,-226 270,-226 270,-226 236,-226"/>
<polygon fill="#666666" stroke="#666666" points="236,-210 236,-210 270,-210 270,-210 236,-210"/>
<polygon fill="none" stroke="#666666" points="236,-192 236,-244 270,-244 270,-192 236,-192"/>
</a>
</g>
</g>
<!-- Node4&#45;&gt;Node1 -->
<g id="edge3_Node000001_Node000004" class="edge">
<title>Node4&#45;&gt;Node1</title>
<g id="a_edge3_Node000001_Node000004"><a xlink:title=" ">
<path fill="none" stroke="#63b8ff" d="M253,-192.23C253,-179.04 253,-162.01 253,-144.78"/>
<polygon fill="none" stroke="#63b8ff" points="253,-144.84 249,-138.84 253,-132.84 257,-138.84 253,-144.84"/>
</a>
</g>
<text text-anchor="middle" x="266.88" y="-164.5" font-family="Helvetica,sans-Serif" font-size="10.00" fill="grey"> +host</text>
<text text-anchor="middle" x="266.88" y="-152.5" font-family="Helvetica,sans-Serif" font-size="10.00" fill="grey">+path</text>
</g>
<!-- Node5 -->
<g id="Node000005" class="node">
<title>Node5</title>
<g id="a_Node000005"><a xlink:title=" ">
<polygon fill="white" stroke="none" points="532,-244 288,-244 288,-192 532,-192 532,-244"/>
<text text-anchor="start" x="292.62" y="-230.5" font-family="Helvetica,sans-Serif" font-size="10.00">unordered_map&lt; boost::beast::http::field, std::string &gt;</text>
<text text-anchor="start" x="408.5" y="-214.5" font-family="Helvetica,sans-Serif" font-size="10.00"> </text>
<text text-anchor="start" x="408.5" y="-198.5" font-family="Helvetica,sans-Serif" font-size="10.00"> </text>
<polygon fill="#666666" stroke="#666666" points="288,-226 288,-226 532,-226 532,-226 288,-226"/>
<polygon fill="#666666" stroke="#666666" points="288,-210 288,-210 532,-210 532,-210 288,-210"/>
<polygon fill="none" stroke="#666666" points="288,-192 288,-244 532,-244 532,-192 288,-192"/>
</a>
</g>
</g>
<!-- Node5&#45;&gt;Node1 -->
<g id="edge4_Node000001_Node000005" class="edge">
<title>Node5&#45;&gt;Node1</title>
<g id="a_edge4_Node000001_Node000005"><a xlink:title=" ">
<path fill="none" stroke="#63b8ff" d="M384.07,-192.23C369.19,-178.01 349.63,-159.32 330.18,-140.74"/>
<polygon fill="none" stroke="#63b8ff" points="330.3,-140.85 323.2,-139.6 321.62,-132.56 328.72,-133.82 330.3,-140.85"/>
</a>
</g>
<text text-anchor="middle" x="409.5" y="-158.5" font-family="Helvetica,sans-Serif" font-size="10.00" fill="grey"> +handshakeHeaders</text>
</g>
<!-- Node6 -->
<g id="Node000006" class="node">
<title>Node6</title>
<g id="a_Node000006"><a xlink:title=" ">
<polygon fill="white" stroke="none" points="633.5,-244 550.5,-244 550.5,-192 633.5,-192 633.5,-244"/>
<text text-anchor="start" x="555.25" y="-230.5" font-family="Helvetica,sans-Serif" font-size="10.00">function&lt; void()&gt;</text>
<text text-anchor="start" x="590.5" y="-214.5" font-family="Helvetica,sans-Serif" font-size="10.00"> </text>
<text text-anchor="start" x="590.5" y="-198.5" font-family="Helvetica,sans-Serif" font-size="10.00"> </text>
<polygon fill="#666666" stroke="#666666" points="550.5,-226 550.5,-226 633.5,-226 633.5,-226 550.5,-226"/>
<polygon fill="#666666" stroke="#666666" points="550.5,-210 550.5,-210 633.5,-210 633.5,-210 550.5,-210"/>
<polygon fill="none" stroke="#666666" points="550.5,-192 550.5,-244 633.5,-244 633.5,-192 550.5,-192"/>
</a>
</g>
</g>
<!-- Node6&#45;&gt;Node1 -->
<g id="edge5_Node000001_Node000006" class="edge">
<title>Node6&#45;&gt;Node1</title>
<g id="a_edge5_Node000001_Node000006"><a xlink:title=" ">
<path fill="none" stroke="#63b8ff" d="M550.55,-194.77C524.77,-181.25 490.78,-163.95 460,-150 426.86,-134.98 390.17,-119.81 356.98,-106.61"/>
<polygon fill="none" stroke="#63b8ff" points="356.93,-106.59 349.88,-108.1 345.77,-102.18 352.82,-100.67 356.93,-106.59"/>
</a>
</g>
<text text-anchor="middle" x="556.12" y="-158.5" font-family="Helvetica,sans-Serif" font-size="10.00" fill="grey"> +onConnectComplete</text>
</g>
</g>
</svg>

<g id="navigator" transform="translate(0 0)" fill="#404254">
  <rect fill="#f2f5e9" fill-opacity="0.5" stroke="#606060" stroke-width=".5" x="0" y="0" width="60" height="60"/>
  <use id="zoomplus" xlink:href="#zoomPlus" x="17" y="9" onmousedown="handleZoom(evt,'in')"/>
  <use id="zoomminus" xlink:href="#zoomMin" x="42" y="9" onmousedown="handleZoom(evt,'out')"/>
  <use id="reset" xlink:href="#resetDef" x="30" y="36" onmousedown="handleReset()"/>
   <use id="arrowup" xlink:href="#arrowUp" x="0" y="0" onmousedown="handlePan(0,-1)"/>
  <use id="arrowright" xlink:href="#arrowRight" x="0" y="0" onmousedown="handlePan(1,0)"/>
  <use id="arrowdown" xlink:href="#arrowDown" x="0" y="0" onmousedown="handlePan(0,1)"/>
  <use id="arrowleft" xlink:href="#arrowLeft" x="0" y="0" onmousedown="handlePan(-1,0)"/>
</g>
<svg viewBox="0 0 15 15" width="100%" height="30px" preserveAspectRatio="xMaxYMin meet">
 <g id="arrow_out" transform="scale(0.3 0.3)">
  <a xlink:href="structRoar_1_1WebsocketClient_1_1Implementation__coll__graph_org.svg" target="_base">
   <rect id="button" ry="5" rx="5" y="6" x="6" height="38" width="38"
        fill="#f2f5e9" fill-opacity="0.5" stroke="#606060" stroke-width="1.0"/>
   <path id="arrow"
     d="M 11.500037,31.436501 C 11.940474,20.09759 22.043105,11.32322 32.158766,21.979434 L 37.068811,17.246167 C 37.068811,17.246167 37.088388,32 37.088388,32 L 22.160133,31.978069 C 22.160133,31.978069 26.997745,27.140456 26.997745,27.140456 C 18.528582,18.264221 13.291696,25.230495 11.500037,31.436501 z"
     style="fill:#404040;"/>
  </a>
 </g>
</svg>

<style type='text/css'>
<![CDATA[
[data-mouse-over-selected='false'] { opacity: 0.7; }
[data-mouse-over-selected='true']  { opacity: 1.0; }
]]>
</style>
<script type="application/ecmascript"><![CDATA[
document.addEventListener('DOMContentLoaded', (event) => {
  highlightEdges();
  highlightAdjacentNodes();
});
]]></script>
</svg>
