<?xml version="1.0" encoding="UTF-8" standalone="no"?>
<!DOCTYPE svg PUBLIC "-//W3C//DTD SVG 1.1//EN"
 "http://www.w3.org/Graphics/SVG/1.1/DTD/svg11.dtd">
<!-- Generated by graphviz version 8.1.0 (0)
 -->
<!-- Title: Roar::Client::ConstructionArguments Pages: 1 -->
<svg width="276pt" height="160pt"
 viewBox="0.00 0.00 275.50 160.00" xmlns="http://www.w3.org/2000/svg" xmlns:xlink="http://www.w3.org/1999/xlink">
<g id="graph0" class="graph" transform="scale(1 1) rotate(0) translate(4 156)">
<title>Roar::Client::ConstructionArguments</title>
<!-- Node1 -->
<g id="Node000001" class="node">
<title>Node1</title>
<g id="a_Node000001"><a xlink:title=" ">
<polygon fill="#999999" stroke="none" points="197,-52 26,-52 26,0 197,0 197,-52"/>
<text text-anchor="start" x="30.88" y="-38.5" font-family="Helvetica,sans-Serif" font-size="10.00">Roar::Client::ConstructionArguments</text>
<text text-anchor="start" x="110" y="-22.5" font-family="Helvetica,sans-Serif" font-size="10.00"> </text>
<text text-anchor="start" x="110" y="-6.5" font-family="Helvetica,sans-Serif" font-size="10.00"> </text>
<polygon fill="#666666" stroke="#666666" points="26,-34 26,-34 197,-34 197,-34 26,-34"/>
<polygon fill="#666666" stroke="#666666" points="26,-18 26,-18 197,-18 197,-18 26,-18"/>
<polygon fill="none" stroke="#666666" points="26,0 26,-52 197,-52 197,0 26,0"/>
</a>
</g>
</g>
<!-- Node2 -->
<g id="Node000002" class="node">
<title>Node2</title>
<g id="a_Node000002"><a xlink:title=" ">
<polygon fill="white" stroke="none" points="81,-152 0,-152 0,-100 81,-100 81,-152"/>
<text text-anchor="start" x="4.88" y="-138.5" font-family="Helvetica,sans-Serif" font-size="10.00">any_io_executor</text>
<text text-anchor="start" x="39" y="-122.5" font-family="Helvetica,sans-Serif" font-size="10.00"> </text>
<text text-anchor="start" x="39" y="-106.5" font-family="Helvetica,sans-Serif" font-size="10.00"> </text>
<polygon fill="#666666" stroke="#666666" points="0,-134 0,-134 81,-134 81,-134 0,-134"/>
<polygon fill="#666666" stroke="#666666" points="0,-118 0,-118 81,-118 81,-118 0,-118"/>
<polygon fill="none" stroke="#666666" points="0,-100 0,-152 81,-152 81,-100 0,-100"/>
</a>
</g>
</g>
<!-- Node2&#45;&gt;Node1 -->
<g id="edge1_Node000001_Node000002" class="edge">
<title>Node2&#45;&gt;Node1</title>
<g id="a_edge1_Node000001_Node000002"><a xlink:title=" ">
<path fill="none" stroke="#63b8ff" d="M58.6,-100.02C66.86,-88.61 76.79,-74.9 85.81,-62.46"/>
<polygon fill="none" stroke="#63b8ff" points="85.86,-62.39 86.14,-55.18 92.9,-52.67 92.62,-59.87 85.86,-62.39"/>
</a>
</g>
<text text-anchor="middle" x="103.75" y="-72.5" font-family="Helvetica,sans-Serif" font-size="10.00" fill="grey"> +executor</text>
</g>
<!-- Node3 -->
<g id="Node000003" class="node">
<title>Node3</title>
<g id="a_Node000003"><a xlink:title=" ">
<polygon fill="white" stroke="none" points="267.5,-152 99.5,-152 99.5,-100 267.5,-100 267.5,-152"/>
<text text-anchor="start" x="104.38" y="-138.5" font-family="Helvetica,sans-Serif" font-size="10.00">optional&lt; Roar::Client::SslOptions &gt;</text>
<text text-anchor="start" x="182" y="-122.5" font-family="Helvetica,sans-Serif" font-size="10.00"> </text>
<text text-anchor="start" x="182" y="-106.5" font-family="Helvetica,sans-Serif" font-size="10.00"> </text>
<polygon fill="#666666" stroke="#666666" points="99.5,-134 99.5,-134 267.5,-134 267.5,-134 99.5,-134"/>
<polygon fill="#666666" stroke="#666666" points="99.5,-118 99.5,-118 267.5,-118 267.5,-118 99.5,-118"/>
<polygon fill="none" stroke="#666666" points="99.5,-100 99.5,-152 267.5,-152 267.5,-100 99.5,-100"/>
</a>
</g>
</g>
<!-- Node3&#45;&gt;Node1 -->
<g id="edge2_Node000001_Node000003" class="edge">
<title>Node3&#45;&gt;Node1</title>
<g id="a_edge2_Node000001_Node000003"><a xlink:title=" ">
<path fill="none" stroke="#63b8ff" d="M165.15,-100.02C156.68,-88.5 146.49,-74.63 137.27,-62.08"/>
<polygon fill="none" stroke="#63b8ff" points="137.46,-62.33 130.68,-59.87 130.36,-52.66 137.13,-55.13 137.46,-62.33"/>
</a>
</g>
<text text-anchor="middle" x="179.25" y="-72.5" font-family="Helvetica,sans-Serif" font-size="10.00" fill="grey"> +sslOptions</text>
</g>
</g>
</svg>
