<?xml version="1.0" encoding="UTF-8" standalone="no"?>
<!DOCTYPE svg PUBLIC "-//W3C//DTD SVG 1.1//EN"
 "http://www.w3.org/Graphics/SVG/1.1/DTD/svg11.dtd">
<!-- Generated by graphviz version 2.44.1 (20211215.1903)
 -->
<!-- Title: Roar::WebsocketClient::ConnectParameters Pages: 1 -->
<svg width="484pt" height="182pt"
 viewBox="0.00 0.00 484.00 182.00" xmlns="http://www.w3.org/2000/svg" xmlns:xlink="http://www.w3.org/1999/xlink">
<g id="graph0" class="graph" transform="scale(1 1) rotate(0) translate(4 178)">
<title>Roar::WebsocketClient::ConnectParameters</title>
<!-- Node1 -->
<g id="node1" class="node">
<title>Node1</title>
<g id="a_node1"><a xlink:title=" ">
<polygon fill="#bfbfbf" stroke="black" points="42,-0.5 42,-57.5 253,-57.5 253,-0.5 42,-0.5"/>
<text text-anchor="middle" x="147.5" y="-45.5" font-family="Helvetica,sans-Serif" font-size="10.00">Roar::WebsocketClient::ConnectParameters</text>
<polyline fill="none" stroke="black" points="42,-38.5 253,-38.5 "/>
<text text-anchor="middle" x="147.5" y="-26.5" font-family="Helvetica,sans-Serif" font-size="10.00"> </text>
<polyline fill="none" stroke="black" points="42,-19.5 253,-19.5 "/>
<text text-anchor="middle" x="147.5" y="-7.5" font-family="Helvetica,sans-Serif" font-size="10.00"> </text>
</a>
</g>
</g>
<!-- Node2 -->
<g id="node2" class="node">
<title>Node2</title>
<g id="a_node2"><a xlink:title=" ">
<polygon fill="none" stroke="black" points="0,-116.5 0,-173.5 77,-173.5 77,-116.5 0,-116.5"/>
<text text-anchor="middle" x="38.5" y="-161.5" font-family="Helvetica,sans-Serif" font-size="10.00">string const &amp;</text>
<polyline fill="none" stroke="black" points="0,-154.5 77,-154.5 "/>
<text text-anchor="middle" x="38.5" y="-142.5" font-family="Helvetica,sans-Serif" font-size="10.00"> </text>
<polyline fill="none" stroke="black" points="0,-135.5 77,-135.5 "/>
<text text-anchor="middle" x="38.5" y="-123.5" font-family="Helvetica,sans-Serif" font-size="10.00"> </text>
</a>
</g>
</g>
<!-- Node2&#45;&gt;Node1 -->
<g id="edge1" class="edge">
<title>Node2&#45;&gt;Node1</title>
<path fill="none" stroke="#404040" d="M59.08,-116.22C68.97,-103.5 81.31,-88.5 93.5,-76 96.84,-72.58 100.41,-69.13 104.06,-65.75"/>
<polygon fill="none" stroke="#404040" points="104.28,-65.55 106.08,-58.57 113.22,-57.54 111.42,-64.52 104.28,-65.55"/>
<text text-anchor="middle" x="107.5" y="-90" font-family="Helvetica,sans-Serif" font-size="10.00"> +host</text>
<text text-anchor="middle" x="107.5" y="-79" font-family="Helvetica,sans-Serif" font-size="10.00">+port</text>
</g>
<!-- Node3 -->
<g id="node3" class="node">
<title>Node3</title>
<g id="a_node3"><a xlink:title=" ">
<polygon fill="none" stroke="black" points="95,-116.5 95,-173.5 136,-173.5 136,-116.5 95,-116.5"/>
<text text-anchor="middle" x="115.5" y="-161.5" font-family="Helvetica,sans-Serif" font-size="10.00">string</text>
<polyline fill="none" stroke="black" points="95,-154.5 136,-154.5 "/>
<text text-anchor="middle" x="115.5" y="-142.5" font-family="Helvetica,sans-Serif" font-size="10.00"> </text>
<polyline fill="none" stroke="black" points="95,-135.5 136,-135.5 "/>
<text text-anchor="middle" x="115.5" y="-123.5" font-family="Helvetica,sans-Serif" font-size="10.00"> </text>
</a>
</g>
</g>
<!-- Node3&#45;&gt;Node1 -->
<g id="edge2" class="edge">
<title>Node3&#45;&gt;Node1</title>
<path fill="none" stroke="#404040" d="M120.71,-116.32C123.28,-103.89 126.65,-89.11 130.5,-76 131.17,-73.73 131.89,-71.42 132.64,-69.09"/>
<polygon fill="none" stroke="#404040" points="132.72,-68.87 130.89,-61.89 136.63,-57.52 138.46,-64.5 132.72,-68.87"/>
<text text-anchor="middle" x="144.5" y="-84.5" font-family="Helvetica,sans-Serif" font-size="10.00"> +path</text>
</g>
<!-- Node4 -->
<g id="node4" class="node">
<title>Node4</title>
<g id="a_node4"><a xlink:title=" ">
<polygon fill="none" stroke="black" points="154,-116.5 154,-173.5 207,-173.5 207,-116.5 154,-116.5"/>
<text text-anchor="middle" x="180.5" y="-161.5" font-family="Helvetica,sans-Serif" font-size="10.00">seconds</text>
<polyline fill="none" stroke="black" points="154,-154.5 207,-154.5 "/>
<text text-anchor="middle" x="180.5" y="-142.5" font-family="Helvetica,sans-Serif" font-size="10.00"> </text>
<polyline fill="none" stroke="black" points="154,-135.5 207,-135.5 "/>
<text text-anchor="middle" x="180.5" y="-123.5" font-family="Helvetica,sans-Serif" font-size="10.00"> </text>
</a>
</g>
</g>
<!-- Node4&#45;&gt;Node1 -->
<g id="edge3" class="edge">
<title>Node4&#45;&gt;Node1</title>
<path fill="none" stroke="#404040" d="M172.51,-116.4C168.45,-102.36 163.44,-85.05 158.97,-69.61"/>
<polygon fill="none" stroke="#404040" points="158.87,-69.26 153.36,-64.61 155.53,-57.74 161.04,-62.39 158.87,-69.26"/>
<text text-anchor="middle" x="188.5" y="-84.5" font-family="Helvetica,sans-Serif" font-size="10.00"> +timeout</text>
</g>
<!-- Node5 -->
<g id="node5" class="node">
<title>Node5</title>
<g id="a_node5"><a xlink:title=" ">
<polygon fill="none" stroke="black" points="225,-116.5 225,-173.5 476,-173.5 476,-116.5 225,-116.5"/>
<text text-anchor="middle" x="350.5" y="-161.5" font-family="Helvetica,sans-Serif" font-size="10.00">unordered_map&lt; boost::beast::http::field, std::string &gt;</text>
<polyline fill="none" stroke="black" points="225,-154.5 476,-154.5 "/>
<text text-anchor="middle" x="350.5" y="-142.5" font-family="Helvetica,sans-Serif" font-size="10.00"> </text>
<polyline fill="none" stroke="black" points="225,-135.5 476,-135.5 "/>
<text text-anchor="middle" x="350.5" y="-123.5" font-family="Helvetica,sans-Serif" font-size="10.00"> </text>
</a>
</g>
</g>
<!-- Node5&#45;&gt;Node1 -->
<g id="edge4" class="edge">
<title>Node5&#45;&gt;Node1</title>
<path fill="none" stroke="#404040" d="M301.36,-116.4C273.04,-100.5 237.23,-80.39 207.28,-63.57"/>
<polygon fill="none" stroke="#404040" points="207,-63.42 199.81,-63.97 196.54,-57.54 203.73,-56.99 207,-63.42"/>
<text text-anchor="middle" x="288.5" y="-84.5" font-family="Helvetica,sans-Serif" font-size="10.00"> +headers</text>
</g>
</g>
</svg>
