<?xml version="1.0" encoding="UTF-8" standalone="no"?>
<!DOCTYPE svg PUBLIC "-//W3C//DTD SVG 1.1//EN"
 "http://www.w3.org/Graphics/SVG/1.1/DTD/svg11.dtd">
<!-- Generated by graphviz version 8.1.0 (0)
 -->
<!-- Title: Roar::CorsSettings Pages: 1 -->
<svg width="979pt" height="172pt"
 viewBox="0.00 0.00 979.00 172.00" xmlns="http://www.w3.org/2000/svg" xmlns:xlink="http://www.w3.org/1999/xlink">
<g id="graph0" class="graph" transform="scale(1 1) rotate(0) translate(4 168)">
<title>Roar::CorsSettings</title>
<!-- Node1 -->
<g id="Node000001" class="node">
<title>Node1</title>
<g id="a_Node000001"><a xlink:title="Settings object to control CORS requests.">
<polygon fill="#999999" stroke="none" points="668.5,-52 574.5,-52 574.5,0 668.5,0 668.5,-52"/>
<text text-anchor="start" x="579.5" y="-38.5" font-family="Helvetica,sans-Serif" font-size="10.00">Roar::CorsSettings</text>
<text text-anchor="start" x="620" y="-22.5" font-family="Helvetica,sans-Serif" font-size="10.00"> </text>
<text text-anchor="start" x="620" y="-6.5" font-family="Helvetica,sans-Serif" font-size="10.00"> </text>
<polygon fill="#666666" stroke="#666666" points="574.5,-34 574.5,-34 668.5,-34 668.5,-34 574.5,-34"/>
<polygon fill="#666666" stroke="#666666" points="574.5,-18 574.5,-18 668.5,-18 668.5,-18 574.5,-18"/>
<polygon fill="none" stroke="#666666" points="574.5,0 574.5,-52 668.5,-52 668.5,0 574.5,0"/>
</a>
</g>
</g>
<!-- Node2 -->
<g id="Node000002" class="node">
<title>Node2</title>
<g id="a_Node000002"><a xlink:title=" ">
<polygon fill="white" stroke="none" points="189,-164 0,-164 0,-112 189,-112 189,-164"/>
<text text-anchor="start" x="4.88" y="-150.5" font-family="Helvetica,sans-Serif" font-size="10.00">function&lt; std::string(std::string const &amp;)&gt;</text>
<text text-anchor="start" x="93" y="-134.5" font-family="Helvetica,sans-Serif" font-size="10.00"> </text>
<text text-anchor="start" x="93" y="-118.5" font-family="Helvetica,sans-Serif" font-size="10.00"> </text>
<polygon fill="#666666" stroke="#666666" points="0,-146 0,-146 189,-146 189,-146 0,-146"/>
<polygon fill="#666666" stroke="#666666" points="0,-130 0,-130 189,-130 189,-130 0,-130"/>
<polygon fill="none" stroke="#666666" points="0,-112 0,-164 189,-164 189,-112 0,-112"/>
</a>
</g>
</g>
<!-- Node2&#45;&gt;Node1 -->
<g id="edge1_Node000001_Node000002" class="edge">
<title>Node2&#45;&gt;Node1</title>
<g id="a_edge1_Node000001_Node000002"><a xlink:title=" ">
<path fill="none" stroke="#63b8ff" d="M188.86,-114.23C192.11,-113.48 195.33,-112.73 198.5,-112 282.99,-92.53 304.03,-87.22 389,-70 447.65,-58.11 514.91,-45.82 561.94,-37.44"/>
<polygon fill="none" stroke="#63b8ff" points="561.95,-37.44 567.16,-32.45 573.76,-35.34 568.55,-40.33 561.95,-37.44"/>
</a>
</g>
<text text-anchor="middle" x="423.25" y="-78.5" font-family="Helvetica,sans-Serif" font-size="10.00" fill="grey"> +allowedOrigin</text>
</g>
<!-- Node3 -->
<g id="Node000003" class="node">
<title>Node3</title>
<g id="a_Node000003"><a xlink:title=" ">
<polygon fill="white" stroke="none" points="525.5,-164 207.5,-164 207.5,-112 525.5,-112 525.5,-164"/>
<text text-anchor="start" x="212.38" y="-150.5" font-family="Helvetica,sans-Serif" font-size="10.00">function&lt; std::vector&lt; std::string &gt;(std::vector&lt; std::string &gt; const &amp;)&gt;</text>
<text text-anchor="start" x="365" y="-134.5" font-family="Helvetica,sans-Serif" font-size="10.00"> </text>
<text text-anchor="start" x="365" y="-118.5" font-family="Helvetica,sans-Serif" font-size="10.00"> </text>
<polygon fill="#666666" stroke="#666666" points="207.5,-146 207.5,-146 525.5,-146 525.5,-146 207.5,-146"/>
<polygon fill="#666666" stroke="#666666" points="207.5,-130 207.5,-130 525.5,-130 525.5,-130 207.5,-130"/>
<polygon fill="none" stroke="#666666" points="207.5,-112 207.5,-164 525.5,-164 525.5,-112 207.5,-112"/>
</a>
</g>
</g>
<!-- Node3&#45;&gt;Node1 -->
<g id="edge2_Node000001_Node000003" class="edge">
<title>Node3&#45;&gt;Node1</title>
<g id="a_edge2_Node000001_Node000003"><a xlink:title=" ">
<path fill="none" stroke="#63b8ff" d="M420.13,-112.11C448.2,-99.26 483.19,-83.48 514.75,-70 530.27,-63.37 547.17,-56.43 562.85,-50.12"/>
<polygon fill="none" stroke="#63b8ff" points="562.59,-50.22 566.67,-44.28 573.72,-45.76 569.64,-51.7 562.59,-50.22"/>
</a>
</g>
<text text-anchor="middle" x="565.88" y="-84.5" font-family="Helvetica,sans-Serif" font-size="10.00" fill="grey"> +headerAllowSelection</text>
<text text-anchor="middle" x="565.88" y="-72.5" font-family="Helvetica,sans-Serif" font-size="10.00" fill="grey">+methodAllowSelection</text>
</g>
<!-- Node4 -->
<g id="Node000004" class="node">
<title>Node4</title>
<g id="a_Node000004"><a xlink:title=" ">
<polygon fill="white" stroke="none" points="699,-164 544,-164 544,-112 699,-112 699,-164"/>
<text text-anchor="start" x="548.75" y="-150.5" font-family="Helvetica,sans-Serif" font-size="10.00">vector&lt; boost::beast::http::field &gt;</text>
<text text-anchor="start" x="620" y="-134.5" font-family="Helvetica,sans-Serif" font-size="10.00"> </text>
<text text-anchor="start" x="620" y="-118.5" font-family="Helvetica,sans-Serif" font-size="10.00"> </text>
<polygon fill="#666666" stroke="#666666" points="544,-146 544,-146 699,-146 699,-146 544,-146"/>
<polygon fill="#666666" stroke="#666666" points="544,-130 544,-130 699,-130 699,-130 544,-130"/>
<polygon fill="none" stroke="#666666" points="544,-112 544,-164 699,-164 699,-112 544,-112"/>
</a>
</g>
</g>
<!-- Node4&#45;&gt;Node1 -->
<g id="edge3_Node000001_Node000004" class="edge">
<title>Node4&#45;&gt;Node1</title>
<g id="a_edge3_Node000001_Node000004"><a xlink:title=" ">
<path fill="none" stroke="#63b8ff" d="M621.5,-112.04C621.5,-98.12 621.5,-80.49 621.5,-64.9"/>
<polygon fill="none" stroke="#63b8ff" points="621.5,-64.76 617.5,-58.76 621.5,-52.76 625.5,-58.76 621.5,-64.76"/>
</a>
</g>
<text text-anchor="middle" x="660.12" y="-78.5" font-family="Helvetica,sans-Serif" font-size="10.00" fill="grey"> +exposeHeaders</text>
</g>
<!-- Node5 -->
<g id="Node000005" class="node">
<title>Node5</title>
<g id="a_Node000005"><a xlink:title=" ">
<polygon fill="white" stroke="none" points="796,-164 717,-164 717,-112 796,-112 796,-164"/>
<text text-anchor="start" x="721.62" y="-150.5" font-family="Helvetica,sans-Serif" font-size="10.00">optional&lt; bool &gt;</text>
<text text-anchor="start" x="755" y="-134.5" font-family="Helvetica,sans-Serif" font-size="10.00"> </text>
<text text-anchor="start" x="755" y="-118.5" font-family="Helvetica,sans-Serif" font-size="10.00"> </text>
<polygon fill="#666666" stroke="#666666" points="717,-146 717,-146 796,-146 796,-146 717,-146"/>
<polygon fill="#666666" stroke="#666666" points="717,-130 717,-130 796,-130 796,-130 717,-130"/>
<polygon fill="none" stroke="#666666" points="717,-112 717,-164 796,-164 796,-112 717,-112"/>
</a>
</g>
</g>
<!-- Node5&#45;&gt;Node1 -->
<g id="edge4_Node000001_Node000005" class="edge">
<title>Node5&#45;&gt;Node1</title>
<g id="a_edge4_Node000001_Node000005"><a xlink:title=" ">
<path fill="none" stroke="#63b8ff" d="M740.33,-112.31C730.53,-98.66 717.13,-82.08 702.5,-70 695.41,-64.15 687.4,-58.74 679.24,-53.89"/>
<polygon fill="none" stroke="#63b8ff" points="679.34,-53.95 672.15,-54.49 668.88,-48.06 676.07,-47.52 679.34,-53.95"/>
</a>
</g>
<text text-anchor="middle" x="766" y="-78.5" font-family="Helvetica,sans-Serif" font-size="10.00" fill="grey"> +allowCredentials</text>
</g>
<!-- Node6 -->
<g id="Node000006" class="node">
<title>Node6</title>
<g id="a_Node000006"><a xlink:title=" ">
<polygon fill="white" stroke="none" points="858.5,-164 830.5,-164 830.5,-112 858.5,-112 858.5,-164"/>
<text text-anchor="start" x="835.5" y="-150.5" font-family="Helvetica,sans-Serif" font-size="10.00">bool</text>
<text text-anchor="start" x="843" y="-134.5" font-family="Helvetica,sans-Serif" font-size="10.00"> </text>
<text text-anchor="start" x="843" y="-118.5" font-family="Helvetica,sans-Serif" font-size="10.00"> </text>
<polygon fill="#666666" stroke="#666666" points="830.5,-146 830.5,-146 858.5,-146 858.5,-146 830.5,-146"/>
<polygon fill="#666666" stroke="#666666" points="830.5,-130 830.5,-130 858.5,-130 858.5,-130 830.5,-130"/>
<polygon fill="none" stroke="#666666" points="830.5,-112 830.5,-164 858.5,-164 858.5,-112 830.5,-112"/>
</a>
</g>
</g>
<!-- Node6&#45;&gt;Node1 -->
<g id="edge5_Node000001_Node000006" class="edge">
<title>Node6&#45;&gt;Node1</title>
<g id="a_edge5_Node000001_Node000006"><a xlink:title=" ">
<path fill="none" stroke="#63b8ff" d="M837.73,-112.19C832.56,-97.81 823.97,-80.51 810.5,-70 773.71,-41.3 721.32,-31.08 681.03,-27.73"/>
<polygon fill="none" stroke="#63b8ff" points="681.01,-27.73 674.76,-31.32 669.04,-26.92 675.3,-23.33 681.01,-27.73"/>
</a>
</g>
<text text-anchor="middle" x="899.75" y="-78.5" font-family="Helvetica,sans-Serif" font-size="10.00" fill="grey"> +generatePreflightOptionsRoute</text>
</g>
</g>
</svg>
