<?xml version="1.0" encoding="UTF-8" standalone="no"?>
<!DOCTYPE svg PUBLIC "-//W3C//DTD SVG 1.1//EN"
 "http://www.w3.org/Graphics/SVG/1.1/DTD/svg11.dtd">
<!-- Generated by graphviz version 2.44.1 (20211215.1903)
 -->
<!-- Title: Roar::ServeInfo&lt; RequestListenerT &gt; Pages: 1 -->
<svg width="390pt" height="171pt"
 viewBox="0.00 0.00 389.50 171.00" xmlns="http://www.w3.org/2000/svg" xmlns:xlink="http://www.w3.org/1999/xlink">
<g id="graph0" class="graph" transform="scale(1 1) rotate(0) translate(4 167)">
<title>Roar::ServeInfo&lt; RequestListenerT &gt;</title>
<!-- Node1 -->
<g id="node1" class="node">
<title>Node1</title>
<g id="a_node1"><a xlink:title=" ">
<polygon fill="#bfbfbf" stroke="black" points="95,-0.5 95,-57.5 276,-57.5 276,-0.5 95,-0.5"/>
<text text-anchor="middle" x="185.5" y="-45.5" font-family="Helvetica,sans-Serif" font-size="10.00">Roar::ServeInfo&lt; RequestListenerT &gt;</text>
<polyline fill="none" stroke="black" points="95,-38.5 276,-38.5 "/>
<text text-anchor="middle" x="185.5" y="-26.5" font-family="Helvetica,sans-Serif" font-size="10.00"> </text>
<polyline fill="none" stroke="black" points="95,-19.5 276,-19.5 "/>
<text text-anchor="middle" x="185.5" y="-7.5" font-family="Helvetica,sans-Serif" font-size="10.00"> </text>
</a>
</g>
</g>
<!-- Node2 -->
<g id="node2" class="node">
<title>Node2</title>
<g id="a_node2"><a xlink:title=" ">
<polygon fill="none" stroke="black" points="0,-105.5 0,-162.5 171,-162.5 171,-105.5 0,-105.5"/>
<text text-anchor="middle" x="85.5" y="-150.5" font-family="Helvetica,sans-Serif" font-size="10.00">ServeOptions&lt; RequestListenerT &gt;</text>
<polyline fill="none" stroke="black" points="0,-143.5 171,-143.5 "/>
<text text-anchor="middle" x="85.5" y="-131.5" font-family="Helvetica,sans-Serif" font-size="10.00"> </text>
<polyline fill="none" stroke="black" points="0,-124.5 171,-124.5 "/>
<text text-anchor="middle" x="85.5" y="-112.5" font-family="Helvetica,sans-Serif" font-size="10.00"> </text>
</a>
</g>
</g>
<!-- Node2&#45;&gt;Node1 -->
<g id="edge1" class="edge">
<title>Node2&#45;&gt;Node1</title>
<path fill="none" stroke="#404040" d="M112.3,-105.4C123.96,-93.39 137.78,-79.16 150.25,-66.31"/>
<polygon fill="none" stroke="#404040" points="150.27,-66.29 151.58,-59.2 158.63,-57.68 157.32,-64.77 150.27,-66.29"/>
<text text-anchor="middle" x="172" y="-79" font-family="Helvetica,sans-Serif" font-size="10.00"> +serveOptions</text>
</g>
<!-- Node3 -->
<g id="node3" class="node">
<title>Node3</title>
<g id="a_node3"><a xlink:title=" ">
<polygon fill="none" stroke="black" points="189.5,-105.5 189.5,-162.5 381.5,-162.5 381.5,-105.5 189.5,-105.5"/>
<text text-anchor="middle" x="285.5" y="-150.5" font-family="Helvetica,sans-Serif" font-size="10.00">ServeHandlerType&lt; RequestListenerT &gt;</text>
<polyline fill="none" stroke="black" points="189.5,-143.5 381.5,-143.5 "/>
<text text-anchor="middle" x="285.5" y="-131.5" font-family="Helvetica,sans-Serif" font-size="10.00"> </text>
<polyline fill="none" stroke="black" points="189.5,-124.5 381.5,-124.5 "/>
<text text-anchor="middle" x="285.5" y="-112.5" font-family="Helvetica,sans-Serif" font-size="10.00"> </text>
</a>
</g>
</g>
<!-- Node3&#45;&gt;Node1 -->
<g id="edge2" class="edge">
<title>Node3&#45;&gt;Node1</title>
<path fill="none" stroke="#404040" d="M258.7,-105.4C247.04,-93.39 233.22,-79.16 220.75,-66.31"/>
<polygon fill="none" stroke="#404040" points="220.73,-66.29 213.68,-64.77 212.37,-57.68 219.42,-59.2 220.73,-66.29"/>
<text text-anchor="middle" x="258" y="-79" font-family="Helvetica,sans-Serif" font-size="10.00"> +handler</text>
</g>
</g>
</svg>
