<?xml version="1.0" encoding="UTF-8" standalone="no"?>
<!DOCTYPE svg PUBLIC "-//W3C//DTD SVG 1.1//EN"
 "http://www.w3.org/Graphics/SVG/1.1/DTD/svg11.dtd">
<!-- Generated by graphviz version 2.44.1 (20211215.1903)
 -->
<!-- Title: Roar::SslContextCreationParameters Pages: 1 -->
<svg width="401pt" height="182pt"
 viewBox="0.00 0.00 401.50 182.00" xmlns="http://www.w3.org/2000/svg" xmlns:xlink="http://www.w3.org/1999/xlink">
<g id="graph0" class="graph" transform="scale(1 1) rotate(0) translate(4 178)">
<title>Roar::SslContextCreationParameters</title>
<!-- Node1 -->
<g id="node1" class="node">
<title>Node1</title>
<g id="a_node1"><a xlink:title=" ">
<polygon fill="#bfbfbf" stroke="black" points="91,-0.5 91,-57.5 270,-57.5 270,-0.5 91,-0.5"/>
<text text-anchor="middle" x="180.5" y="-45.5" font-family="Helvetica,sans-Serif" font-size="10.00">Roar::SslContextCreationParameters</text>
<polyline fill="none" stroke="black" points="91,-38.5 270,-38.5 "/>
<text text-anchor="middle" x="180.5" y="-26.5" font-family="Helvetica,sans-Serif" font-size="10.00"> </text>
<polyline fill="none" stroke="black" points="91,-19.5 270,-19.5 "/>
<text text-anchor="middle" x="180.5" y="-7.5" font-family="Helvetica,sans-Serif" font-size="10.00"> </text>
</a>
</g>
</g>
<!-- Node2 -->
<g id="node2" class="node">
<title>Node2</title>
<g id="a_node2"><a xlink:title=" ">
<polygon fill="none" stroke="black" points="0,-116.5 0,-173.5 49,-173.5 49,-116.5 0,-116.5"/>
<text text-anchor="middle" x="24.5" y="-161.5" font-family="Helvetica,sans-Serif" font-size="10.00">method</text>
<polyline fill="none" stroke="black" points="0,-154.5 49,-154.5 "/>
<text text-anchor="middle" x="24.5" y="-142.5" font-family="Helvetica,sans-Serif" font-size="10.00"> </text>
<polyline fill="none" stroke="black" points="0,-135.5 49,-135.5 "/>
<text text-anchor="middle" x="24.5" y="-123.5" font-family="Helvetica,sans-Serif" font-size="10.00"> </text>
</a>
</g>
</g>
<!-- Node2&#45;&gt;Node1 -->
<g id="edge1" class="edge">
<title>Node2&#45;&gt;Node1</title>
<path fill="none" stroke="#404040" d="M49.16,-122.65C51.94,-120.37 54.76,-118.11 57.5,-116 80.49,-98.27 106.77,-79.68 129.12,-64.34"/>
<polygon fill="none" stroke="#404040" points="129.18,-64.3 131.88,-57.61 139.09,-57.53 136.39,-64.22 129.18,-64.3"/>
<text text-anchor="middle" x="132.5" y="-84.5" font-family="Helvetica,sans-Serif" font-size="10.00"> +method</text>
</g>
<!-- Node3 -->
<g id="node3" class="node">
<title>Node3</title>
<g id="a_node3"><a xlink:title=" ">
<polygon fill="none" stroke="black" points="67,-116.5 67,-173.5 294,-173.5 294,-116.5 67,-116.5"/>
<text text-anchor="middle" x="180.5" y="-161.5" font-family="Helvetica,sans-Serif" font-size="10.00">variant&lt; std::string_view, std::filesystem::path &gt;</text>
<polyline fill="none" stroke="black" points="67,-154.5 294,-154.5 "/>
<text text-anchor="middle" x="180.5" y="-142.5" font-family="Helvetica,sans-Serif" font-size="10.00"> </text>
<polyline fill="none" stroke="black" points="67,-135.5 294,-135.5 "/>
<text text-anchor="middle" x="180.5" y="-123.5" font-family="Helvetica,sans-Serif" font-size="10.00"> </text>
</a>
</g>
</g>
<!-- Node3&#45;&gt;Node1 -->
<g id="edge2" class="edge">
<title>Node3&#45;&gt;Node1</title>
<path fill="none" stroke="#404040" d="M180.5,-116.4C180.5,-102.5 180.5,-85.39 180.5,-70.07"/>
<polygon fill="none" stroke="#404040" points="180.5,-69.74 176.5,-63.74 180.5,-57.74 184.5,-63.74 180.5,-69.74"/>
<text text-anchor="middle" x="207" y="-90" font-family="Helvetica,sans-Serif" font-size="10.00"> +certificate</text>
<text text-anchor="middle" x="207" y="-79" font-family="Helvetica,sans-Serif" font-size="10.00">+privateKey</text>
</g>
<!-- Node4 -->
<g id="node4" class="node">
<title>Node4</title>
<g id="a_node4"><a xlink:title=" ">
<polygon fill="none" stroke="black" points="312.5,-116.5 312.5,-173.5 378.5,-173.5 378.5,-116.5 312.5,-116.5"/>
<text text-anchor="middle" x="345.5" y="-161.5" font-family="Helvetica,sans-Serif" font-size="10.00">string_view</text>
<polyline fill="none" stroke="black" points="312.5,-154.5 378.5,-154.5 "/>
<text text-anchor="middle" x="345.5" y="-142.5" font-family="Helvetica,sans-Serif" font-size="10.00"> </text>
<polyline fill="none" stroke="black" points="312.5,-135.5 378.5,-135.5 "/>
<text text-anchor="middle" x="345.5" y="-123.5" font-family="Helvetica,sans-Serif" font-size="10.00"> </text>
</a>
</g>
</g>
<!-- Node4&#45;&gt;Node1 -->
<g id="edge3" class="edge">
<title>Node4&#45;&gt;Node1</title>
<path fill="none" stroke="#404040" d="M312.11,-120.93C288.75,-104.79 257.13,-82.94 230.74,-64.71"/>
<polygon fill="none" stroke="#404040" points="230.41,-64.48 223.2,-64.36 220.54,-57.66 227.75,-57.78 230.41,-64.48"/>
<text text-anchor="middle" x="335.5" y="-90" font-family="Helvetica,sans-Serif" font-size="10.00"> +diffieHellmanParameters</text>
<text text-anchor="middle" x="335.5" y="-79" font-family="Helvetica,sans-Serif" font-size="10.00">+password</text>
</g>
</g>
</svg>
