<?xml version="1.0" encoding="UTF-8" standalone="no"?>
<!DOCTYPE svg PUBLIC "-//W3C//DTD SVG 1.1//EN"
 "http://www.w3.org/Graphics/SVG/1.1/DTD/svg11.dtd">
<!-- Generated by graphviz version 8.1.0 (0)
 -->
<!-- Title: Roar::Detail::ServedPath Pages: 1 -->
<svg width="127pt" height="160pt"
 viewBox="0.00 0.00 127.00 160.00" xmlns="http://www.w3.org/2000/svg" xmlns:xlink="http://www.w3.org/1999/xlink">

<svg id="main" version="1.1" xmlns="http://www.w3.org/2000/svg" xmlns:xlink="http://www.w3.org/1999/xlink" xml:space="preserve" onload="init(evt)">
<style type="text/css"><![CDATA[
.node, .edge {opacity: 0.7;}
.node.selected, .edge.selected {opacity: 1;}
.edge:hover path { stroke: red; }
.edge:hover polygon { stroke: red; fill: red; }
]]></style>
<script type="application/ecmascript" xlink:href="svg.min.js"/>
<svg id="graph" class="graph">
<g id="graph0" class="graph" transform="scale(1 1) rotate(0) translate(4 156)">
<title>Roar::Detail::ServedPath</title>
<!-- Node1 -->
<g id="Node000001" class="node">
<title>Node1</title>
<g id="a_Node000001"><a xlink:title=" ">
<polygon fill="#999999" stroke="none" points="119,-52 0,-52 0,0 119,0 119,-52"/>
<text text-anchor="start" x="4.75" y="-38.5" font-family="Helvetica,sans-Serif" font-size="10.00">Roar::Detail::ServedPath</text>
<text text-anchor="start" x="58" y="-22.5" font-family="Helvetica,sans-Serif" font-size="10.00"> </text>
<text text-anchor="start" x="58" y="-6.5" font-family="Helvetica,sans-Serif" font-size="10.00"> </text>
<polygon fill="#666666" stroke="#666666" points="0,-34 0,-34 119,-34 119,-34 0,-34"/>
<polygon fill="#666666" stroke="#666666" points="0,-18 0,-18 119,-18 119,-18 0,-18"/>
<polygon fill="none" stroke="#666666" points="0,0 0,-52 119,-52 119,0 0,0"/>
</a>
</g>
</g>
<!-- Node2 -->
<g id="Node000002" class="node">
<title>Node2</title>
<g id="a_Node000002"><a xlink:title=" ">
<polygon fill="white" stroke="none" points="76.5,-152 42.5,-152 42.5,-100 76.5,-100 76.5,-152"/>
<text text-anchor="start" x="47.5" y="-138.5" font-family="Helvetica,sans-Serif" font-size="10.00">string</text>
<text text-anchor="start" x="58" y="-122.5" font-family="Helvetica,sans-Serif" font-size="10.00"> </text>
<text text-anchor="start" x="58" y="-106.5" font-family="Helvetica,sans-Serif" font-size="10.00"> </text>
<polygon fill="#666666" stroke="#666666" points="42.5,-134 42.5,-134 76.5,-134 76.5,-134 42.5,-134"/>
<polygon fill="#666666" stroke="#666666" points="42.5,-118 42.5,-118 76.5,-118 76.5,-118 42.5,-118"/>
<polygon fill="none" stroke="#666666" points="42.5,-100 42.5,-152 76.5,-152 76.5,-100 42.5,-100"/>
</a>
</g>
</g>
<!-- Node2&#45;&gt;Node1 -->
<g id="edge1_Node000001_Node000002" class="edge">
<title>Node2&#45;&gt;Node1</title>
<g id="a_edge1_Node000001_Node000002"><a xlink:title=" ">
<path fill="none" stroke="#63b8ff" d="M59.5,-100.02C59.5,-89.3 59.5,-76.56 59.5,-64.73"/>
<polygon fill="none" stroke="#63b8ff" points="59.5,-64.84 55.5,-58.84 59.5,-52.84 63.5,-58.84 59.5,-64.84"/>
</a>
</g>
<text text-anchor="middle" x="84.62" y="-72.5" font-family="Helvetica,sans-Serif" font-size="10.00" fill="grey"> +basePath</text>
</g>
</g>
</svg>
</svg>

<style type='text/css'>
<![CDATA[
[data-mouse-over-selected='false'] { opacity: 0.7; }
[data-mouse-over-selected='true']  { opacity: 1.0; }
]]>
</style>
<script type="application/ecmascript"><![CDATA[
document.addEventListener('DOMContentLoaded', (event) => {
  highlightEdges();
  highlightAdjacentNodes();
});
]]></script>
</svg>
