<?xml version="1.0" encoding="UTF-8" standalone="no"?>
<!DOCTYPE svg PUBLIC "-//W3C//DTD SVG 1.1//EN"
 "http://www.w3.org/Graphics/SVG/1.1/DTD/svg11.dtd">
<!-- Generated by graphviz version 2.44.1 (20211215.1903)
 -->
<!-- Title: Roar::Detail::PromiseTypeBind&lt; PromiseTypeBindThen&lt; ThenArgs... &gt; &gt; Pages: 1 -->
<svg width="344pt" height="299pt"
 viewBox="0.00 0.00 344.00 299.00" xmlns="http://www.w3.org/2000/svg" xmlns:xlink="http://www.w3.org/1999/xlink">
<g id="graph0" class="graph" transform="scale(1 1) rotate(0) translate(4 295)">
<title>Roar::Detail::PromiseTypeBind&lt; PromiseTypeBindThen&lt; ThenArgs... &gt; &gt;</title>
<!-- Node1 -->
<g id="node1" class="node">
<title>Node1</title>
<g id="a_node1"><a xlink:title=" ">
<polygon fill="#bfbfbf" stroke="black" points="0,-0.5 0,-79.5 336,-79.5 336,-0.5 0,-0.5"/>
<text text-anchor="middle" x="168" y="-67.5" font-family="Helvetica,sans-Serif" font-size="10.00">Roar::Detail::PromiseTypeBind&lt; PromiseTypeBindThen&lt; ThenArgs... &gt; &gt;</text>
<polyline fill="none" stroke="black" points="0,-60.5 336,-60.5 "/>
<text text-anchor="middle" x="168" y="-48.5" font-family="Helvetica,sans-Serif" font-size="10.00"> </text>
<polyline fill="none" stroke="black" points="0,-41.5 336,-41.5 "/>
<text text-anchor="start" x="8" y="-29.5" font-family="Helvetica,sans-Serif" font-size="10.00">+ then()</text>
<text text-anchor="start" x="8" y="-18.5" font-family="Helvetica,sans-Serif" font-size="10.00">+ fail()</text>
<text text-anchor="start" x="8" y="-7.5" font-family="Helvetica,sans-Serif" font-size="10.00">+ PromiseTypeBindBase()</text>
</a>
</g>
</g>
<!-- Node2 -->
<g id="node2" class="node">
<title>Node2</title>
<g id="a_node2"><a xlink:href="classRoar_1_1Detail_1_1PromiseTypeBindBase.html" target="_top" xlink:title=" ">
<polygon fill="none" stroke="black" points="81,-117.5 81,-185.5 255,-185.5 255,-117.5 81,-117.5"/>
<text text-anchor="middle" x="168" y="-173.5" font-family="Helvetica,sans-Serif" font-size="10.00">Roar::Detail::PromiseTypeBindBase</text>
<polyline fill="none" stroke="black" points="81,-166.5 255,-166.5 "/>
<text text-anchor="middle" x="168" y="-154.5" font-family="Helvetica,sans-Serif" font-size="10.00"> </text>
<polyline fill="none" stroke="black" points="81,-147.5 255,-147.5 "/>
<text text-anchor="start" x="89" y="-135.5" font-family="Helvetica,sans-Serif" font-size="10.00">+ PromiseTypeBindBase()</text>
<text text-anchor="start" x="89" y="-124.5" font-family="Helvetica,sans-Serif" font-size="10.00">+ ~PromiseTypeBindBase()</text>
</a>
</g>
</g>
<!-- Node2&#45;&gt;Node1 -->
<g id="edge1" class="edge">
<title>Node2&#45;&gt;Node1</title>
<path fill="none" stroke="midnightblue" d="M168,-107.34C168,-98.25 168,-88.72 168,-79.81"/>
<polygon fill="none" stroke="midnightblue" points="164.5,-107.35 168,-117.35 171.5,-107.35 164.5,-107.35"/>
</g>
<!-- Node3 -->
<g id="node3" class="node">
<title>Node3</title>
<g id="a_node3"><a xlink:title=" ">
<polygon fill="none" stroke="black" points="141.5,-233.5 141.5,-290.5 194.5,-290.5 194.5,-233.5 141.5,-233.5"/>
<text text-anchor="middle" x="168" y="-278.5" font-family="Helvetica,sans-Serif" font-size="10.00">Promise</text>
<polyline fill="none" stroke="black" points="141.5,-271.5 194.5,-271.5 "/>
<text text-anchor="middle" x="168" y="-259.5" font-family="Helvetica,sans-Serif" font-size="10.00"> </text>
<polyline fill="none" stroke="black" points="141.5,-252.5 194.5,-252.5 "/>
<text text-anchor="middle" x="168" y="-240.5" font-family="Helvetica,sans-Serif" font-size="10.00"> </text>
</a>
</g>
</g>
<!-- Node3&#45;&gt;Node2 -->
<g id="edge2" class="edge">
<title>Node3&#45;&gt;Node2</title>
<path fill="none" stroke="#404040" d="M168,-233.34C168,-222.53 168,-209.85 168,-197.77"/>
<polygon fill="none" stroke="#404040" points="168,-197.52 164,-191.52 168,-185.52 172,-191.52 168,-197.52"/>
<text text-anchor="middle" x="192.5" y="-207" font-family="Helvetica,sans-Serif" font-size="10.00"> #promise_</text>
</g>
</g>
</svg>
