<?xml version="1.0" encoding="UTF-8" standalone="no"?>
<!DOCTYPE svg PUBLIC "-//W3C//DTD SVG 1.1//EN"
 "http://www.w3.org/Graphics/SVG/1.1/DTD/svg11.dtd">
<!-- Generated by graphviz version 2.44.1 (20211215.1903)
 -->
<!-- Title: Roar::ServeInfo&lt; RequestListenerT &gt; Pages: 1 -->
<svg width="612pt" height="392pt"
 viewBox="0.00 0.00 612.00 392.00" xmlns="http://www.w3.org/2000/svg" xmlns:xlink="http://www.w3.org/1999/xlink">
<g id="graph0" class="graph" transform="scale(1 1) rotate(0) translate(4 388)">
<title>Roar::ServeInfo&lt; RequestListenerT &gt;</title>
<!-- Node1 -->
<g id="node1" class="node">
<title>Node1</title>
<g id="a_node1"><a xlink:title=" ">
<polygon fill="#bfbfbf" stroke="black" points="217.5,-0.5 217.5,-57.5 398.5,-57.5 398.5,-0.5 217.5,-0.5"/>
<text text-anchor="middle" x="308" y="-45.5" font-family="Helvetica,sans-Serif" font-size="10.00">Roar::ServeInfo&lt; RequestListenerT &gt;</text>
<polyline fill="none" stroke="black" points="217.5,-38.5 398.5,-38.5 "/>
<text text-anchor="middle" x="308" y="-26.5" font-family="Helvetica,sans-Serif" font-size="10.00"> </text>
<polyline fill="none" stroke="black" points="217.5,-19.5 398.5,-19.5 "/>
<text text-anchor="middle" x="308" y="-7.5" font-family="Helvetica,sans-Serif" font-size="10.00"> </text>
</a>
</g>
</g>
<!-- Node2 -->
<g id="node2" class="node">
<title>Node2</title>
<g id="a_node2"><a xlink:href="structRoar_1_1RouteInfoBase.html" target="_top" xlink:title="This class is what is used in ROAR_GET, ROAR_PUT, ... requests All options you can set for routes beh...">
<polygon fill="none" stroke="black" points="0,-105.5 0,-162.5 204,-162.5 204,-105.5 0,-105.5"/>
<text text-anchor="middle" x="102" y="-150.5" font-family="Helvetica,sans-Serif" font-size="10.00">Roar::RouteInfoBase&lt; RequestListenerT &gt;</text>
<polyline fill="none" stroke="black" points="0,-143.5 204,-143.5 "/>
<text text-anchor="middle" x="102" y="-131.5" font-family="Helvetica,sans-Serif" font-size="10.00"> </text>
<polyline fill="none" stroke="black" points="0,-124.5 204,-124.5 "/>
<text text-anchor="middle" x="102" y="-112.5" font-family="Helvetica,sans-Serif" font-size="10.00"> </text>
</a>
</g>
</g>
<!-- Node2&#45;&gt;Node1 -->
<g id="edge1" class="edge">
<title>Node2&#45;&gt;Node1</title>
<path fill="none" stroke="midnightblue" d="M166.4,-100.8C194.07,-86.97 226.07,-70.97 252.64,-57.68"/>
<polygon fill="none" stroke="midnightblue" points="164.58,-97.8 157.2,-105.4 167.71,-104.06 164.58,-97.8"/>
</g>
<!-- Node3 -->
<g id="node3" class="node">
<title>Node3</title>
<g id="a_node3"><a xlink:title=" ">
<polygon fill="none" stroke="black" points="59.5,-210.5 59.5,-267.5 94.5,-267.5 94.5,-210.5 59.5,-210.5"/>
<text text-anchor="middle" x="77" y="-255.5" font-family="Helvetica,sans-Serif" font-size="10.00">char</text>
<polyline fill="none" stroke="black" points="59.5,-248.5 94.5,-248.5 "/>
<text text-anchor="middle" x="77" y="-236.5" font-family="Helvetica,sans-Serif" font-size="10.00"> </text>
<polyline fill="none" stroke="black" points="59.5,-229.5 94.5,-229.5 "/>
<text text-anchor="middle" x="77" y="-217.5" font-family="Helvetica,sans-Serif" font-size="10.00"> </text>
</a>
</g>
</g>
<!-- Node3&#45;&gt;Node2 -->
<g id="edge2" class="edge">
<title>Node3&#45;&gt;Node2</title>
<path fill="none" stroke="#404040" d="M83.7,-210.4C86.36,-199.43 89.47,-186.6 92.37,-174.67"/>
<polygon fill="none" stroke="#404040" points="92.45,-174.34 89.98,-167.57 95.28,-162.68 97.75,-169.45 92.45,-174.34"/>
<text text-anchor="middle" x="105" y="-184" font-family="Helvetica,sans-Serif" font-size="10.00"> +path</text>
</g>
<!-- Node4 -->
<g id="node4" class="node">
<title>Node4</title>
<g id="a_node4"><a xlink:href="structRoar_1_1RouteOptions.html" target="_top" xlink:title="Options that modify the server behavior for a given route.">
<polygon fill="none" stroke="black" points="113,-210.5 113,-267.5 217,-267.5 217,-210.5 113,-210.5"/>
<text text-anchor="middle" x="165" y="-255.5" font-family="Helvetica,sans-Serif" font-size="10.00">Roar::RouteOptions</text>
<polyline fill="none" stroke="black" points="113,-248.5 217,-248.5 "/>
<text text-anchor="middle" x="165" y="-236.5" font-family="Helvetica,sans-Serif" font-size="10.00"> </text>
<polyline fill="none" stroke="black" points="113,-229.5 217,-229.5 "/>
<text text-anchor="middle" x="165" y="-217.5" font-family="Helvetica,sans-Serif" font-size="10.00"> </text>
</a>
</g>
</g>
<!-- Node4&#45;&gt;Node2 -->
<g id="edge3" class="edge">
<title>Node4&#45;&gt;Node2</title>
<path fill="none" stroke="#404040" d="M148.12,-210.4C141.13,-198.97 132.9,-185.52 125.35,-173.17"/>
<polygon fill="none" stroke="#404040" points="125.19,-172.92 118.65,-169.88 118.93,-162.68 125.47,-165.71 125.19,-172.92"/>
<text text-anchor="middle" x="168.5" y="-184" font-family="Helvetica,sans-Serif" font-size="10.00"> +routeOptions</text>
</g>
<!-- Node5 -->
<g id="node5" class="node">
<title>Node5</title>
<g id="a_node5"><a xlink:title=" ">
<polygon fill="none" stroke="black" points="91.5,-326.5 91.5,-383.5 126.5,-383.5 126.5,-326.5 91.5,-326.5"/>
<text text-anchor="middle" x="109" y="-371.5" font-family="Helvetica,sans-Serif" font-size="10.00">bool</text>
<polyline fill="none" stroke="black" points="91.5,-364.5 126.5,-364.5 "/>
<text text-anchor="middle" x="109" y="-352.5" font-family="Helvetica,sans-Serif" font-size="10.00"> </text>
<polyline fill="none" stroke="black" points="91.5,-345.5 126.5,-345.5 "/>
<text text-anchor="middle" x="109" y="-333.5" font-family="Helvetica,sans-Serif" font-size="10.00"> </text>
</a>
</g>
</g>
<!-- Node5&#45;&gt;Node4 -->
<g id="edge4" class="edge">
<title>Node5&#45;&gt;Node4</title>
<path fill="none" stroke="#404040" d="M112.37,-326.47C114.7,-313.66 118.59,-298.52 125,-286 126.49,-283.1 128.2,-280.23 130.05,-277.42"/>
<polygon fill="none" stroke="#404040" points="130.15,-277.28 130.5,-270.08 137.28,-267.62 136.93,-274.83 130.15,-277.28"/>
<text text-anchor="middle" x="162" y="-300" font-family="Helvetica,sans-Serif" font-size="10.00"> +allowUnsecure</text>
<text text-anchor="middle" x="162" y="-289" font-family="Helvetica,sans-Serif" font-size="10.00">+expectUpgrade</text>
</g>
<!-- Node6 -->
<g id="node6" class="node">
<title>Node6</title>
<g id="a_node6"><a xlink:title=" ">
<polygon fill="none" stroke="black" points="145,-326.5 145,-383.5 297,-383.5 297,-326.5 145,-326.5"/>
<text text-anchor="middle" x="221" y="-371.5" font-family="Helvetica,sans-Serif" font-size="10.00">optional&lt; Roar::CorsSettings &gt;</text>
<polyline fill="none" stroke="black" points="145,-364.5 297,-364.5 "/>
<text text-anchor="middle" x="221" y="-352.5" font-family="Helvetica,sans-Serif" font-size="10.00"> </text>
<polyline fill="none" stroke="black" points="145,-345.5 297,-345.5 "/>
<text text-anchor="middle" x="221" y="-333.5" font-family="Helvetica,sans-Serif" font-size="10.00"> </text>
</a>
</g>
</g>
<!-- Node6&#45;&gt;Node4 -->
<g id="edge5" class="edge">
<title>Node6&#45;&gt;Node4</title>
<path fill="none" stroke="#404040" d="M214.27,-326.39C210.62,-313.7 205.52,-298.69 199,-286 197.61,-283.29 196.07,-280.58 194.42,-277.89"/>
<polygon fill="none" stroke="#404040" points="194.35,-277.78 187.7,-274.98 187.73,-267.77 194.38,-270.57 194.35,-277.78"/>
<text text-anchor="middle" x="223" y="-294.5" font-family="Helvetica,sans-Serif" font-size="10.00"> +cors</text>
</g>
<!-- Node7 -->
<g id="node7" class="node">
<title>Node7</title>
<g id="a_node7"><a xlink:title=" ">
<polygon fill="none" stroke="black" points="222.5,-105.5 222.5,-162.5 393.5,-162.5 393.5,-105.5 222.5,-105.5"/>
<text text-anchor="middle" x="308" y="-150.5" font-family="Helvetica,sans-Serif" font-size="10.00">ServeOptions&lt; RequestListenerT &gt;</text>
<polyline fill="none" stroke="black" points="222.5,-143.5 393.5,-143.5 "/>
<text text-anchor="middle" x="308" y="-131.5" font-family="Helvetica,sans-Serif" font-size="10.00"> </text>
<polyline fill="none" stroke="black" points="222.5,-124.5 393.5,-124.5 "/>
<text text-anchor="middle" x="308" y="-112.5" font-family="Helvetica,sans-Serif" font-size="10.00"> </text>
</a>
</g>
</g>
<!-- Node7&#45;&gt;Node1 -->
<g id="edge6" class="edge">
<title>Node7&#45;&gt;Node1</title>
<path fill="none" stroke="#404040" d="M308,-105.4C308,-94.55 308,-81.87 308,-70.05"/>
<polygon fill="none" stroke="#404040" points="308,-69.68 304,-63.68 308,-57.68 312,-63.68 308,-69.68"/>
<text text-anchor="middle" x="341.5" y="-79" font-family="Helvetica,sans-Serif" font-size="10.00"> +serveOptions</text>
</g>
<!-- Node8 -->
<g id="node8" class="node">
<title>Node8</title>
<g id="a_node8"><a xlink:title=" ">
<polygon fill="none" stroke="black" points="412,-105.5 412,-162.5 604,-162.5 604,-105.5 412,-105.5"/>
<text text-anchor="middle" x="508" y="-150.5" font-family="Helvetica,sans-Serif" font-size="10.00">ServeHandlerType&lt; RequestListenerT &gt;</text>
<polyline fill="none" stroke="black" points="412,-143.5 604,-143.5 "/>
<text text-anchor="middle" x="508" y="-131.5" font-family="Helvetica,sans-Serif" font-size="10.00"> </text>
<polyline fill="none" stroke="black" points="412,-124.5 604,-124.5 "/>
<text text-anchor="middle" x="508" y="-112.5" font-family="Helvetica,sans-Serif" font-size="10.00"> </text>
</a>
</g>
</g>
<!-- Node8&#45;&gt;Node1 -->
<g id="edge7" class="edge">
<title>Node8&#45;&gt;Node1</title>
<path fill="none" stroke="#404040" d="M454.4,-105.4C429.18,-92.41 398.9,-76.81 372.44,-63.19"/>
<polygon fill="none" stroke="#404040" points="372.41,-63.17 365.25,-63.98 361.74,-57.68 368.91,-56.87 372.41,-63.17"/>
<text text-anchor="middle" x="433.5" y="-79" font-family="Helvetica,sans-Serif" font-size="10.00"> +handler</text>
</g>
</g>
</svg>
