<?xml version="1.0" encoding="UTF-8" standalone="no"?>
<!DOCTYPE svg PUBLIC "-//W3C//DTD SVG 1.1//EN"
 "http://www.w3.org/Graphics/SVG/1.1/DTD/svg11.dtd">
<!-- Generated by graphviz version 2.44.1 (20211215.1903)
 -->
<!-- Title: Roar::Session::Implementation Pages: 1 -->
<svg width="1650pt" height="298pt"
 viewBox="0.00 0.00 1650.00 298.00" xmlns="http://www.w3.org/2000/svg" xmlns:xlink="http://www.w3.org/1999/xlink">
<g id="graph0" class="graph" transform="scale(1 1) rotate(0) translate(4 294)">
<title>Roar::Session::Implementation</title>
<!-- Node1 -->
<g id="node1" class="node">
<title>Node1</title>
<g id="a_node1"><a xlink:title=" ">
<polygon fill="#bfbfbf" stroke="black" points="624,-0.5 624,-68.5 776,-68.5 776,-0.5 624,-0.5"/>
<text text-anchor="middle" x="700" y="-56.5" font-family="Helvetica,sans-Serif" font-size="10.00">Roar::Session::Implementation</text>
<polyline fill="none" stroke="black" points="624,-49.5 776,-49.5 "/>
<text text-anchor="middle" x="700" y="-37.5" font-family="Helvetica,sans-Serif" font-size="10.00"> </text>
<polyline fill="none" stroke="black" points="624,-30.5 776,-30.5 "/>
<text text-anchor="start" x="632" y="-18.5" font-family="Helvetica,sans-Serif" font-size="10.00">+ Implementation()</text>
<text text-anchor="start" x="632" y="-7.5" font-family="Helvetica,sans-Serif" font-size="10.00">+ withStreamDo()</text>
</a>
</g>
</g>
<!-- Node2 -->
<g id="node2" class="node">
<title>Node2</title>
<g id="a_node2"><a xlink:title=" ">
<polygon fill="none" stroke="black" points="0,-116.5 0,-173.5 364,-173.5 364,-116.5 0,-116.5"/>
<text text-anchor="middle" x="182" y="-161.5" font-family="Helvetica,sans-Serif" font-size="10.00">variant&lt; Detail::StreamType, boost::beast::ssl_stream&lt; Detail::StreamType &gt; &gt;</text>
<polyline fill="none" stroke="black" points="0,-154.5 364,-154.5 "/>
<text text-anchor="middle" x="182" y="-142.5" font-family="Helvetica,sans-Serif" font-size="10.00"> </text>
<polyline fill="none" stroke="black" points="0,-135.5 364,-135.5 "/>
<text text-anchor="middle" x="182" y="-123.5" font-family="Helvetica,sans-Serif" font-size="10.00"> </text>
</a>
</g>
</g>
<!-- Node2&#45;&gt;Node1 -->
<g id="edge1" class="edge">
<title>Node2&#45;&gt;Node1</title>
<path fill="none" stroke="#404040" d="M268.69,-116.43C302.82,-106.23 342.52,-95.17 379,-87 457,-69.53 546.94,-55.63 611.74,-46.69"/>
<polygon fill="none" stroke="#404040" points="612.05,-46.65 617.46,-41.87 623.94,-45.03 618.54,-49.8 612.05,-46.65"/>
<text text-anchor="middle" x="399" y="-90" font-family="Helvetica,sans-Serif" font-size="10.00"> +stream</text>
</g>
<!-- Node3 -->
<g id="node3" class="node">
<title>Node3</title>
<g id="a_node3"><a xlink:title=" ">
<polygon fill="none" stroke="black" points="382.5,-116.5 382.5,-173.5 441.5,-173.5 441.5,-116.5 382.5,-116.5"/>
<text text-anchor="middle" x="412" y="-161.5" font-family="Helvetica,sans-Serif" font-size="10.00">flat_buffer</text>
<polyline fill="none" stroke="black" points="382.5,-154.5 441.5,-154.5 "/>
<text text-anchor="middle" x="412" y="-142.5" font-family="Helvetica,sans-Serif" font-size="10.00"> </text>
<polyline fill="none" stroke="black" points="382.5,-135.5 441.5,-135.5 "/>
<text text-anchor="middle" x="412" y="-123.5" font-family="Helvetica,sans-Serif" font-size="10.00"> </text>
</a>
</g>
</g>
<!-- Node3&#45;&gt;Node1 -->
<g id="edge2" class="edge">
<title>Node3&#45;&gt;Node1</title>
<path fill="none" stroke="#404040" d="M414.69,-116.34C417.11,-105.75 421.62,-94.45 430,-87 456.58,-63.37 543.74,-49.8 611.92,-42.58"/>
<polygon fill="none" stroke="#404040" points="612.04,-42.57 617.6,-37.98 623.98,-41.35 618.42,-45.94 612.04,-42.57"/>
<text text-anchor="middle" x="447" y="-90" font-family="Helvetica,sans-Serif" font-size="10.00"> +buffer</text>
</g>
<!-- Node4 -->
<g id="node4" class="node">
<title>Node4</title>
<g id="a_node4"><a xlink:title=" ">
<polygon fill="none" stroke="black" points="469.5,-232.5 469.5,-289.5 504.5,-289.5 504.5,-232.5 469.5,-232.5"/>
<text text-anchor="middle" x="487" y="-277.5" font-family="Helvetica,sans-Serif" font-size="10.00">bool</text>
<polyline fill="none" stroke="black" points="469.5,-270.5 504.5,-270.5 "/>
<text text-anchor="middle" x="487" y="-258.5" font-family="Helvetica,sans-Serif" font-size="10.00"> </text>
<polyline fill="none" stroke="black" points="469.5,-251.5 504.5,-251.5 "/>
<text text-anchor="middle" x="487" y="-239.5" font-family="Helvetica,sans-Serif" font-size="10.00"> </text>
</a>
</g>
</g>
<!-- Node4&#45;&gt;Node1 -->
<g id="edge3" class="edge">
<title>Node4&#45;&gt;Node1</title>
<path fill="none" stroke="#404040" d="M478.39,-232.34C470.5,-201.16 463.26,-150.35 487,-116 515.11,-75.32 566.6,-55.18 611.91,-45.21"/>
<polygon fill="none" stroke="#404040" points="612.12,-45.17 617.21,-40.05 623.88,-42.78 618.8,-47.89 612.12,-45.17"/>
<text text-anchor="middle" x="511" y="-142.5" font-family="Helvetica,sans-Serif" font-size="10.00"> +isSecure</text>
</g>
<!-- Node8 -->
<g id="node8" class="node">
<title>Node8</title>
<g id="a_node8"><a xlink:href="structRoar_1_1RouteOptions.html" target="_top" xlink:title="Options that modify the server behavior for a given route.">
<polygon fill="none" stroke="black" points="544,-116.5 544,-173.5 648,-173.5 648,-116.5 544,-116.5"/>
<text text-anchor="middle" x="596" y="-161.5" font-family="Helvetica,sans-Serif" font-size="10.00">Roar::RouteOptions</text>
<polyline fill="none" stroke="black" points="544,-154.5 648,-154.5 "/>
<text text-anchor="middle" x="596" y="-142.5" font-family="Helvetica,sans-Serif" font-size="10.00"> </text>
<polyline fill="none" stroke="black" points="544,-135.5 648,-135.5 "/>
<text text-anchor="middle" x="596" y="-123.5" font-family="Helvetica,sans-Serif" font-size="10.00"> </text>
</a>
</g>
</g>
<!-- Node4&#45;&gt;Node8 -->
<g id="edge8" class="edge">
<title>Node4&#45;&gt;Node8</title>
<path fill="none" stroke="#404040" d="M497.61,-232.43C503.65,-219.17 512.19,-203.66 523,-192 526.49,-188.23 530.36,-184.65 534.45,-181.26"/>
<polygon fill="none" stroke="#404040" points="534.74,-181.04 537.08,-174.21 544.27,-173.75 541.94,-180.57 534.74,-181.04"/>
<text text-anchor="middle" x="560" y="-206" font-family="Helvetica,sans-Serif" font-size="10.00"> +allowUnsecure</text>
<text text-anchor="middle" x="560" y="-195" font-family="Helvetica,sans-Serif" font-size="10.00">+expectUpgrade</text>
</g>
<!-- Node5 -->
<g id="node5" class="node">
<title>Node5</title>
<g id="a_node5"><a xlink:title=" ">
<polygon fill="none" stroke="black" points="666.5,-116.5 666.5,-173.5 821.5,-173.5 821.5,-116.5 666.5,-116.5"/>
<text text-anchor="middle" x="744" y="-161.5" font-family="Helvetica,sans-Serif" font-size="10.00">function&lt; void(Roar::Error &amp;&amp;)&gt;</text>
<polyline fill="none" stroke="black" points="666.5,-154.5 821.5,-154.5 "/>
<text text-anchor="middle" x="744" y="-142.5" font-family="Helvetica,sans-Serif" font-size="10.00"> </text>
<polyline fill="none" stroke="black" points="666.5,-135.5 821.5,-135.5 "/>
<text text-anchor="middle" x="744" y="-123.5" font-family="Helvetica,sans-Serif" font-size="10.00"> </text>
</a>
</g>
</g>
<!-- Node5&#45;&gt;Node1 -->
<g id="edge4" class="edge">
<title>Node5&#45;&gt;Node1</title>
<path fill="none" stroke="#404040" d="M732.78,-116.34C728.31,-105.3 723.04,-92.31 718.05,-80.01"/>
<polygon fill="none" stroke="#404040" points="717.9,-79.64 711.94,-75.58 713.39,-68.52 719.35,-72.58 717.9,-79.64"/>
<text text-anchor="middle" x="745.5" y="-90" font-family="Helvetica,sans-Serif" font-size="10.00"> +onError</text>
</g>
<!-- Node6 -->
<g id="node6" class="node">
<title>Node6</title>
<g id="a_node6"><a xlink:title=" ">
<polygon fill="none" stroke="black" points="839.5,-116.5 839.5,-173.5 970.5,-173.5 970.5,-116.5 839.5,-116.5"/>
<text text-anchor="middle" x="905" y="-161.5" font-family="Helvetica,sans-Serif" font-size="10.00">weak_ptr&lt; Roar::Router &gt;</text>
<polyline fill="none" stroke="black" points="839.5,-154.5 970.5,-154.5 "/>
<text text-anchor="middle" x="905" y="-142.5" font-family="Helvetica,sans-Serif" font-size="10.00"> </text>
<polyline fill="none" stroke="black" points="839.5,-135.5 970.5,-135.5 "/>
<text text-anchor="middle" x="905" y="-123.5" font-family="Helvetica,sans-Serif" font-size="10.00"> </text>
</a>
</g>
</g>
<!-- Node6&#45;&gt;Node1 -->
<g id="edge5" class="edge">
<title>Node6&#45;&gt;Node1</title>
<path fill="none" stroke="#404040" d="M853,-116.48C828.82,-103.68 799.63,-88.23 773.26,-74.27"/>
<polygon fill="none" stroke="#404040" points="773.14,-74.21 765.97,-74.94 762.54,-68.6 769.71,-67.87 773.14,-74.21"/>
<text text-anchor="middle" x="832" y="-90" font-family="Helvetica,sans-Serif" font-size="10.00"> +router</text>
</g>
<!-- Node7 -->
<g id="node7" class="node">
<title>Node7</title>
<g id="a_node7"><a xlink:title=" ">
<polygon fill="none" stroke="black" points="988.5,-116.5 988.5,-173.5 1369.5,-173.5 1369.5,-116.5 988.5,-116.5"/>
<text text-anchor="middle" x="1179" y="-161.5" font-family="Helvetica,sans-Serif" font-size="10.00">shared_ptr&lt; boost::beast::http::request_parser&lt; boost::beast::http::empty_body &gt; &gt;</text>
<polyline fill="none" stroke="black" points="988.5,-154.5 1369.5,-154.5 "/>
<text text-anchor="middle" x="1179" y="-142.5" font-family="Helvetica,sans-Serif" font-size="10.00"> </text>
<polyline fill="none" stroke="black" points="988.5,-135.5 1369.5,-135.5 "/>
<text text-anchor="middle" x="1179" y="-123.5" font-family="Helvetica,sans-Serif" font-size="10.00"> </text>
</a>
</g>
</g>
<!-- Node7&#45;&gt;Node1 -->
<g id="edge6" class="edge">
<title>Node7&#45;&gt;Node1</title>
<path fill="none" stroke="#404040" d="M1057.51,-116.48C973.45,-97.44 863.54,-72.54 787.89,-55.41"/>
<polygon fill="none" stroke="#404040" points="787.76,-55.38 781.02,-57.95 776.06,-52.73 782.79,-50.15 787.76,-55.38"/>
<text text-anchor="middle" x="1002.5" y="-90" font-family="Helvetica,sans-Serif" font-size="10.00"> +headerParser</text>
</g>
<!-- Node8&#45;&gt;Node1 -->
<g id="edge7" class="edge">
<title>Node8&#45;&gt;Node1</title>
<path fill="none" stroke="#404040" d="M622.51,-116.34C633.86,-104.51 647.35,-90.43 659.87,-77.36"/>
<polygon fill="none" stroke="#404040" points="660.05,-77.18 661.31,-70.08 668.35,-68.52 667.09,-75.62 660.05,-77.18"/>
<text text-anchor="middle" x="680.5" y="-90" font-family="Helvetica,sans-Serif" font-size="10.00"> +routeOptions</text>
</g>
<!-- Node9 -->
<g id="node9" class="node">
<title>Node9</title>
<g id="a_node9"><a xlink:title=" ">
<polygon fill="none" stroke="black" points="532,-232.5 532,-289.5 684,-289.5 684,-232.5 532,-232.5"/>
<text text-anchor="middle" x="608" y="-277.5" font-family="Helvetica,sans-Serif" font-size="10.00">optional&lt; Roar::CorsSettings &gt;</text>
<polyline fill="none" stroke="black" points="532,-270.5 684,-270.5 "/>
<text text-anchor="middle" x="608" y="-258.5" font-family="Helvetica,sans-Serif" font-size="10.00"> </text>
<polyline fill="none" stroke="black" points="532,-251.5 684,-251.5 "/>
<text text-anchor="middle" x="608" y="-239.5" font-family="Helvetica,sans-Serif" font-size="10.00"> </text>
</a>
</g>
</g>
<!-- Node9&#45;&gt;Node8 -->
<g id="edge9" class="edge">
<title>Node9&#45;&gt;Node8</title>
<path fill="none" stroke="#404040" d="M605.1,-232.4C603.63,-218.5 601.83,-201.39 600.22,-186.07"/>
<polygon fill="none" stroke="#404040" points="600.18,-185.67 595.57,-180.12 598.92,-173.74 603.53,-179.29 600.18,-185.67"/>
<text text-anchor="middle" x="618" y="-200.5" font-family="Helvetica,sans-Serif" font-size="10.00"> +cors</text>
</g>
<!-- Node10 -->
<g id="node10" class="node">
<title>Node10</title>
<g id="a_node10"><a xlink:title=" ">
<polygon fill="none" stroke="black" points="1388,-116.5 1388,-173.5 1642,-173.5 1642,-116.5 1388,-116.5"/>
<text text-anchor="middle" x="1515" y="-161.5" font-family="Helvetica,sans-Serif" font-size="10.00">shared_ptr&lt; const Roar::StandardResponseProvider &gt;</text>
<polyline fill="none" stroke="black" points="1388,-154.5 1642,-154.5 "/>
<text text-anchor="middle" x="1515" y="-142.5" font-family="Helvetica,sans-Serif" font-size="10.00"> </text>
<polyline fill="none" stroke="black" points="1388,-135.5 1642,-135.5 "/>
<text text-anchor="middle" x="1515" y="-123.5" font-family="Helvetica,sans-Serif" font-size="10.00"> </text>
</a>
</g>
</g>
<!-- Node10&#45;&gt;Node1 -->
<g id="edge10" class="edge">
<title>Node10&#45;&gt;Node1</title>
<path fill="none" stroke="#404040" d="M1387.65,-117.44C1384.74,-116.94 1381.86,-116.46 1379,-116 1168.14,-81.86 918.23,-55.94 788.35,-43.55"/>
<polygon fill="none" stroke="#404040" points="788.1,-43.53 781.75,-46.95 776.16,-42.4 782.51,-38.98 788.1,-43.53"/>
<text text-anchor="middle" x="1312.5" y="-90" font-family="Helvetica,sans-Serif" font-size="10.00"> +standardResponseProvider</text>
</g>
</g>
</svg>
