<?xml version="1.0" encoding="UTF-8" standalone="no"?>
<!DOCTYPE svg PUBLIC "-//W3C//DTD SVG 1.1//EN"
 "http://www.w3.org/Graphics/SVG/1.1/DTD/svg11.dtd">
<!-- Generated by graphviz version 8.1.0 (0)
 -->
<!-- Title: Roar::ServeOptions&lt; RequestListenerT &gt; Pages: 1 -->
<!--zoomable 220 -->

<svg id="main" version="1.1" xmlns="http://www.w3.org/2000/svg" xmlns:xlink="http://www.w3.org/1999/xlink" xml:space="preserve" onload="init(evt)">
<style type="text/css"><![CDATA[
.node, .edge {opacity: 0.7;}
.node.selected, .edge.selected {opacity: 1;}
.edge:hover path { stroke: red; }
.edge:hover polygon { stroke: red; fill: red; }
]]></style>

<defs>
  <circle id="rim" cx="0" cy="0" r="7"/>
  <circle id="rim2" cx="0" cy="0" r="3.5"/>
  <g id="zoomPlus">
    <use xlink:href="#rim" fill="#404040"><set attributeName="fill" to="#808080" begin="zoomplus.mouseover" end="zoomplus.mouseout"/></use>
    <path d="M-4,0h8M0,-4v8" fill="none" stroke="white" stroke-width="1.5" pointer-events="none"/>
  </g>
  <g id="zoomMin">
    <use xlink:href="#rim" fill="#404040"><set attributeName="fill" to="#808080" begin="zoomminus.mouseover" end="zoomminus.mouseout"/></use>
    <path d="M-4,0h8" fill="none" stroke="white" stroke-width="1.5" pointer-events="none"/>
  </g>
  <g id="arrowUp" transform="translate(30 24)">
    <use xlink:href="#rim"/>
    <path pointer-events="none" fill="none" stroke="white" stroke-width="1.5" d="M0,-3.0v7 M-2.5,-0.5L0,-3.0L2.5,-0.5"/>
  </g>
  <g id="arrowRight" transform="rotate(90) translate(36 -43)">
    <use xlink:href="#rim"/>
    <path pointer-events="none" fill="none" stroke="white" stroke-width="1.5" d="M0,-3.0v7 M-2.5,-0.5L0,-3.0L2.5,-0.5"/>
  </g>
  <g id="arrowDown" transform="rotate(180) translate(-30 -48)">
    <use xlink:href="#rim"/>
    <path pointer-events="none" fill="none" stroke="white" stroke-width="1.5" d="M0,-3.0v7 M-2.5,-0.5L0,-3.0L2.5,-0.5"/>
  </g>
  <g id="arrowLeft" transform="rotate(270) translate(-36 17)">
    <use xlink:href="#rim"/>
    <path pointer-events="none" fill="none" stroke="white" stroke-width="1.5" d="M0,-3.0v7 M-2.5,-0.5L0,-3.0L2.5,-0.5"/>
  </g>
  <g id="resetDef">
    <use xlink:href="#rim2" fill="#404040"><set attributeName="fill" to="#808080" begin="reset.mouseover" end="reset.mouseout"/></use>
  </g>
</defs>
<script type="application/ecmascript">
var viewWidth = 1450;
var viewHeight = 220;
var sectionId = 'dynsection-0';
</script>
<script type="application/ecmascript" xlink:href="svg.min.js"/>
<svg id="graph" class="graph">
<g id="viewport">
<title>Roar::ServeOptions&lt; RequestListenerT &gt;</title>
<!-- Node1 -->
<g id="Node000001" class="node">
<title>Node1</title>
<g id="a_Node000001"><a xlink:title=" ">
<polygon fill="#999999" stroke="none" points="722.5,-52 531.5,-52 531.5,0 722.5,0 722.5,-52"/>
<text text-anchor="start" x="536.25" y="-38.5" font-family="Helvetica,sans-Serif" font-size="10.00">Roar::ServeOptions&lt; RequestListenerT &gt;</text>
<text text-anchor="start" x="625.5" y="-22.5" font-family="Helvetica,sans-Serif" font-size="10.00"> </text>
<text text-anchor="start" x="625.5" y="-6.5" font-family="Helvetica,sans-Serif" font-size="10.00"> </text>
<polygon fill="#666666" stroke="#666666" points="531.5,-34 531.5,-34 722.5,-34 722.5,-34 531.5,-34"/>
<polygon fill="#666666" stroke="#666666" points="531.5,-18 531.5,-18 722.5,-18 722.5,-18 531.5,-18"/>
<polygon fill="none" stroke="#666666" points="531.5,0 531.5,-52 722.5,-52 722.5,0 531.5,0"/>
</a>
</g>
</g>
<!-- Node2 -->
<g id="Node000002" class="node">
<title>Node2</title>
<g id="a_Node000002"><a xlink:title=" ">
<polygon fill="white" stroke="none" points="198,-212 0,-212 0,-160 198,-160 198,-212"/>
<text text-anchor="start" x="4.88" y="-198.5" font-family="Helvetica,sans-Serif" font-size="10.00">FlexibleProvider&lt; RequestListenerT, bool &gt;</text>
<text text-anchor="start" x="97.5" y="-182.5" font-family="Helvetica,sans-Serif" font-size="10.00"> </text>
<text text-anchor="start" x="97.5" y="-166.5" font-family="Helvetica,sans-Serif" font-size="10.00"> </text>
<polygon fill="#666666" stroke="#666666" points="0,-194 0,-194 198,-194 198,-194 0,-194"/>
<polygon fill="#666666" stroke="#666666" points="0,-178 0,-178 198,-178 198,-178 0,-178"/>
<polygon fill="none" stroke="#666666" points="0,-160 0,-212 198,-212 198,-160 0,-160"/>
</a>
</g>
</g>
<!-- Node2&#45;&gt;Node1 -->
<g id="edge1_Node000001_Node000002" class="edge">
<title>Node2&#45;&gt;Node1</title>
<g id="a_edge1_Node000001_Node000002"><a xlink:title=" ">
<path fill="none" stroke="#63b8ff" d="M126.47,-160.01C158.05,-132.88 212.64,-90.66 267.75,-70 312.39,-53.27 430.39,-41.26 519.06,-34.26"/>
<polygon fill="none" stroke="#63b8ff" points="519.05,-34.26 524.73,-29.81 531.02,-33.33 525.35,-37.78 519.05,-34.26"/>
</a>
</g>
<text text-anchor="middle" x="348.62" y="-132.5" font-family="Helvetica,sans-Serif" font-size="10.00" fill="grey"> +allowDelete</text>
<text text-anchor="middle" x="348.62" y="-120.5" font-family="Helvetica,sans-Serif" font-size="10.00" fill="grey">+allowDeleteOfNonEmptyDirectories</text>
<text text-anchor="middle" x="348.62" y="-108.5" font-family="Helvetica,sans-Serif" font-size="10.00" fill="grey">+allowDownload</text>
<text text-anchor="middle" x="348.62" y="-96.5" font-family="Helvetica,sans-Serif" font-size="10.00" fill="grey">+allowListing</text>
<text text-anchor="middle" x="348.62" y="-84.5" font-family="Helvetica,sans-Serif" font-size="10.00" fill="grey">+allowOverwrite</text>
<text text-anchor="middle" x="348.62" y="-72.5" font-family="Helvetica,sans-Serif" font-size="10.00" fill="grey">+allowUpload</text>
</g>
<!-- Node3 -->
<g id="Node000003" class="node">
<title>Node3</title>
<g id="a_Node000003"><a xlink:title=" ">
<polygon fill="white" stroke="none" points="485.5,-212 216.5,-212 216.5,-160 485.5,-160 485.5,-212"/>
<text text-anchor="start" x="221.25" y="-198.5" font-family="Helvetica,sans-Serif" font-size="10.00">FlexibleProvider&lt; RequestListenerT, std::filesystem::path &gt;</text>
<text text-anchor="start" x="349.5" y="-182.5" font-family="Helvetica,sans-Serif" font-size="10.00"> </text>
<text text-anchor="start" x="349.5" y="-166.5" font-family="Helvetica,sans-Serif" font-size="10.00"> </text>
<polygon fill="#666666" stroke="#666666" points="216.5,-194 216.5,-194 485.5,-194 485.5,-194 216.5,-194"/>
<polygon fill="#666666" stroke="#666666" points="216.5,-178 216.5,-178 485.5,-178 485.5,-178 216.5,-178"/>
<polygon fill="none" stroke="#666666" points="216.5,-160 216.5,-212 485.5,-212 485.5,-160 216.5,-160"/>
</a>
</g>
</g>
<!-- Node3&#45;&gt;Node1 -->
<g id="edge2_Node000001_Node000003" class="edge">
<title>Node3&#45;&gt;Node1</title>
<g id="a_edge2_Node000001_Node000003"><a xlink:title=" ">
<path fill="none" stroke="#63b8ff" d="M394.43,-160.14C442.51,-132.61 520.12,-88.19 572.31,-58.31"/>
<polygon fill="none" stroke="#63b8ff" points="572.17,-58.39 575.39,-51.93 582.59,-52.42 579.37,-58.88 572.17,-58.39"/>
</a>
</g>
<text text-anchor="middle" x="577.88" y="-102.5" font-family="Helvetica,sans-Serif" font-size="10.00" fill="grey"> +pathProvider</text>
</g>
<!-- Node4 -->
<g id="Node000004" class="node">
<title>Node4</title>
<g id="a_Node000004"><a xlink:title=" ">
<polygon fill="white" stroke="none" points="750,-212 504,-212 504,-160 750,-160 750,-212"/>
<text text-anchor="start" x="508.88" y="-198.5" font-family="Helvetica,sans-Serif" font-size="10.00">FlexibleProvider&lt; RequestListenerT, std::string, true &gt;</text>
<text text-anchor="start" x="625.5" y="-182.5" font-family="Helvetica,sans-Serif" font-size="10.00"> </text>
<text text-anchor="start" x="625.5" y="-166.5" font-family="Helvetica,sans-Serif" font-size="10.00"> </text>
<polygon fill="#666666" stroke="#666666" points="504,-194 504,-194 750,-194 750,-194 504,-194"/>
<polygon fill="#666666" stroke="#666666" points="504,-178 504,-178 750,-178 750,-178 504,-178"/>
<polygon fill="none" stroke="#666666" points="504,-160 504,-212 750,-212 750,-160 504,-160"/>
</a>
</g>
</g>
<!-- Node4&#45;&gt;Node1 -->
<g id="edge3_Node000001_Node000004" class="edge">
<title>Node4&#45;&gt;Node1</title>
<g id="a_edge3_Node000001_Node000004"><a xlink:title=" ">
<path fill="none" stroke="#63b8ff" d="M627,-160.31C627,-134.65 627,-94.16 627,-64.53"/>
<polygon fill="none" stroke="#63b8ff" points="627,-64.68 623,-58.68 627,-52.68 631,-58.68 627,-64.68"/>
</a>
</g>
<text text-anchor="middle" x="673.12" y="-102.5" font-family="Helvetica,sans-Serif" font-size="10.00" fill="grey"> +customListingStyle</text>
</g>
<!-- Node5 -->
<g id="Node000005" class="node">
<title>Node5</title>
<g id="a_Node000005"><a xlink:title=" ">
<polygon fill="white" stroke="none" points="1132,-212 768,-212 768,-160 1132,-160 1132,-212"/>
<text text-anchor="start" x="772.62" y="-198.5" font-family="Helvetica,sans-Serif" font-size="10.00">FlexibleProvider&lt; RequestListenerT, std::function&lt; void(std::string const &amp;err)&gt; &gt;</text>
<text text-anchor="start" x="948.5" y="-182.5" font-family="Helvetica,sans-Serif" font-size="10.00"> </text>
<text text-anchor="start" x="948.5" y="-166.5" font-family="Helvetica,sans-Serif" font-size="10.00"> </text>
<polygon fill="#666666" stroke="#666666" points="768,-194 768,-194 1132,-194 1132,-194 768,-194"/>
<polygon fill="#666666" stroke="#666666" points="768,-178 768,-178 1132,-178 1132,-178 768,-178"/>
<polygon fill="none" stroke="#666666" points="768,-160 768,-212 1132,-212 1132,-160 768,-160"/>
</a>
</g>
</g>
<!-- Node5&#45;&gt;Node1 -->
<g id="edge4_Node000001_Node000005" class="edge">
<title>Node5&#45;&gt;Node1</title>
<g id="a_edge4_Node000001_Node000005"><a xlink:title=" ">
<path fill="none" stroke="#63b8ff" d="M902.5,-160.1C856.8,-136.35 785.6,-99.86 723,-70 714.13,-65.77 704.76,-61.42 695.47,-57.19"/>
<polygon fill="none" stroke="#63b8ff" points="695.56,-57.23 688.44,-58.4 684.63,-52.28 691.74,-51.11 695.56,-57.23"/>
</a>
</g>
<text text-anchor="middle" x="883.25" y="-102.5" font-family="Helvetica,sans-Serif" font-size="10.00" fill="grey"> +onError</text>
</g>
<!-- Node6 -->
<g id="Node000006" class="node">
<title>Node6</title>
<g id="a_Node000006"><a xlink:title=" ">
<polygon fill="white" stroke="none" points="1441.5,-212 1150.5,-212 1150.5,-160 1441.5,-160 1441.5,-212"/>
<text text-anchor="start" x="1155.38" y="-198.5" font-family="Helvetica,sans-Serif" font-size="10.00">FlexibleProvider&lt; RequestListenerT, std::function&lt; void(bool)&gt; &gt;</text>
<text text-anchor="start" x="1294.5" y="-182.5" font-family="Helvetica,sans-Serif" font-size="10.00"> </text>
<text text-anchor="start" x="1294.5" y="-166.5" font-family="Helvetica,sans-Serif" font-size="10.00"> </text>
<polygon fill="#666666" stroke="#666666" points="1150.5,-194 1150.5,-194 1441.5,-194 1441.5,-194 1150.5,-194"/>
<polygon fill="#666666" stroke="#666666" points="1150.5,-178 1150.5,-178 1441.5,-178 1441.5,-178 1150.5,-178"/>
<polygon fill="none" stroke="#666666" points="1150.5,-160 1150.5,-212 1441.5,-212 1441.5,-160 1150.5,-160"/>
</a>
</g>
</g>
<!-- Node6&#45;&gt;Node1 -->
<g id="edge5_Node000001_Node000006" class="edge">
<title>Node6&#45;&gt;Node1</title>
<g id="a_edge5_Node000001_Node000006"><a xlink:title=" ">
<path fill="none" stroke="#63b8ff" d="M1222.76,-160.04C1145.33,-134.41 1019.25,-94.88 908,-70 851.38,-57.34 787.51,-47.24 734.98,-40.02"/>
<polygon fill="none" stroke="#63b8ff" points="735.01,-40.02 728.53,-43.18 723.12,-38.41 729.6,-35.25 735.01,-40.02"/>
</a>
</g>
<text text-anchor="middle" x="1209.38" y="-102.5" font-family="Helvetica,sans-Serif" font-size="10.00" fill="grey"> +onFileServeComplete</text>
</g>
</g>
</svg>

<g id="navigator" transform="translate(0 0)" fill="#404254">
  <rect fill="#f2f5e9" fill-opacity="0.5" stroke="#606060" stroke-width=".5" x="0" y="0" width="60" height="60"/>
  <use id="zoomplus" xlink:href="#zoomPlus" x="17" y="9" onmousedown="handleZoom(evt,'in')"/>
  <use id="zoomminus" xlink:href="#zoomMin" x="42" y="9" onmousedown="handleZoom(evt,'out')"/>
  <use id="reset" xlink:href="#resetDef" x="30" y="36" onmousedown="handleReset()"/>
   <use id="arrowup" xlink:href="#arrowUp" x="0" y="0" onmousedown="handlePan(0,-1)"/>
  <use id="arrowright" xlink:href="#arrowRight" x="0" y="0" onmousedown="handlePan(1,0)"/>
  <use id="arrowdown" xlink:href="#arrowDown" x="0" y="0" onmousedown="handlePan(0,1)"/>
  <use id="arrowleft" xlink:href="#arrowLeft" x="0" y="0" onmousedown="handlePan(-1,0)"/>
</g>
<svg viewBox="0 0 15 15" width="100%" height="30px" preserveAspectRatio="xMaxYMin meet">
 <g id="arrow_out" transform="scale(0.3 0.3)">
  <a xlink:href="structRoar_1_1ServeOptions__coll__graph_org.svg" target="_base">
   <rect id="button" ry="5" rx="5" y="6" x="6" height="38" width="38"
        fill="#f2f5e9" fill-opacity="0.5" stroke="#606060" stroke-width="1.0"/>
   <path id="arrow"
     d="M 11.500037,31.436501 C 11.940474,20.09759 22.043105,11.32322 32.158766,21.979434 L 37.068811,17.246167 C 37.068811,17.246167 37.088388,32 37.088388,32 L 22.160133,31.978069 C 22.160133,31.978069 26.997745,27.140456 26.997745,27.140456 C 18.528582,18.264221 13.291696,25.230495 11.500037,31.436501 z"
     style="fill:#404040;"/>
  </a>
 </g>
</svg>

<style type='text/css'>
<![CDATA[
[data-mouse-over-selected='false'] { opacity: 0.7; }
[data-mouse-over-selected='true']  { opacity: 1.0; }
]]>
</style>
<script type="application/ecmascript"><![CDATA[
document.addEventListener('DOMContentLoaded', (event) => {
  highlightEdges();
  highlightAdjacentNodes();
});
]]></script>
</svg>
