<?xml version="1.0" encoding="UTF-8" standalone="no"?>
<!DOCTYPE svg PUBLIC "-//W3C//DTD SVG 1.1//EN"
 "http://www.w3.org/Graphics/SVG/1.1/DTD/svg11.dtd">
<!-- Generated by graphviz version 8.1.0 (0)
 -->
<!-- Title: Roar::Detail::PromiseTypeBind&lt; PromiseTypeBindThen&lt; ThenArgs... &gt;, PromiseTypeBindFail&lt; FailArgs... &gt; &gt; Pages: 1 -->
<svg width="331pt" height="309pt"
 viewBox="0.00 0.00 331.00 309.00" xmlns="http://www.w3.org/2000/svg" xmlns:xlink="http://www.w3.org/1999/xlink">
<g id="graph0" class="graph" transform="scale(1 1) rotate(0) translate(4 305)">
<title>Roar::Detail::PromiseTypeBind&lt; PromiseTypeBindThen&lt; ThenArgs... &gt;, PromiseTypeBindFail&lt; FailArgs... &gt; &gt;</title>
<!-- Node1 -->
<g id="Node000001" class="node">
<title>Node1</title>
<g id="a_Node000001"><a xlink:title=" ">
<polygon fill="#999999" stroke="none" points="323,-96 0,-96 0,0 323,0 323,-96"/>
<text text-anchor="start" x="4.75" y="-82.5" font-family="Helvetica,sans-Serif" font-size="10.00">Roar::Detail::PromiseTypeBind&lt; PromiseTypeBindThen&lt; ThenArgs... &gt;,</text>
<text text-anchor="start" x="77.88" y="-70.5" font-family="Helvetica,sans-Serif" font-size="10.00"> PromiseTypeBindFail&lt; FailArgs... &gt; &gt;</text>
<text text-anchor="start" x="160" y="-54.5" font-family="Helvetica,sans-Serif" font-size="10.00"> </text>
<text text-anchor="start" x="54" y="-38.5" font-family="Helvetica,sans-Serif" font-size="10.00">+</text>
<text text-anchor="start" x="114" y="-38.5" font-family="Helvetica,sans-Serif" font-size="10.00">then()</text>
<text text-anchor="start" x="54" y="-22.5" font-family="Helvetica,sans-Serif" font-size="10.00">+</text>
<text text-anchor="start" x="114" y="-22.5" font-family="Helvetica,sans-Serif" font-size="10.00">fail()</text>
<text text-anchor="start" x="54" y="-6.5" font-family="Helvetica,sans-Serif" font-size="10.00">+</text>
<text text-anchor="start" x="114" y="-6.5" font-family="Helvetica,sans-Serif" font-size="10.00">PromiseTypeBindBase()</text>
<polygon fill="#666666" stroke="#666666" points="0,-66 0,-66 323,-66 323,-66 0,-66"/>
<polygon fill="#666666" stroke="#666666" points="0,-50 0,-50 323,-50 323,-50 0,-50"/>
<polygon fill="none" stroke="#666666" points="0,0 0,-96 323,-96 323,0 0,0"/>
</a>
</g>
</g>
<!-- Node2 -->
<g id="Node000002" class="node">
<title>Node2</title>
<g id="a_Node000002"><a xlink:href="classRoar_1_1Detail_1_1PromiseTypeBindBase.html" target="_top" xlink:title=" ">
<polygon fill="white" stroke="none" points="245,-201 78,-201 78,-133 245,-133 245,-201"/>
<text text-anchor="start" x="82.75" y="-187.5" font-family="Helvetica,sans-Serif" font-size="10.00">Roar::Detail::PromiseTypeBindBase</text>
<text text-anchor="start" x="160" y="-171.5" font-family="Helvetica,sans-Serif" font-size="10.00"> </text>
<text text-anchor="start" x="91.5" y="-155.5" font-family="Helvetica,sans-Serif" font-size="10.00">+</text>
<text text-anchor="start" x="111" y="-155.5" font-family="Helvetica,sans-Serif" font-size="10.00">PromiseTypeBindBase()</text>
<text text-anchor="start" x="91.5" y="-139.5" font-family="Helvetica,sans-Serif" font-size="10.00">+</text>
<text text-anchor="start" x="111" y="-139.5" font-family="Helvetica,sans-Serif" font-size="10.00">~PromiseTypeBindBase()</text>
<polygon fill="#666666" stroke="#666666" points="78,-183 78,-183 245,-183 245,-183 78,-183"/>
<polygon fill="#666666" stroke="#666666" points="78,-167 78,-167 245,-167 245,-167 78,-167"/>
<polygon fill="none" stroke="#666666" points="78,-133 78,-201 245,-201 245,-133 78,-133"/>
</a>
</g>
</g>
<!-- Node2&#45;&gt;Node1 -->
<g id="edge1_Node000001_Node000002" class="edge">
<title>Node2&#45;&gt;Node1</title>
<g id="a_edge1_Node000001_Node000002"><a xlink:title=" ">
<path fill="none" stroke="#63b8ff" d="M161.5,-122.36C161.5,-113.64 161.5,-104.44 161.5,-95.62"/>
<polygon fill="none" stroke="#63b8ff" points="158,-122.1 161.5,-132.1 165,-122.1 158,-122.1"/>
</a>
</g>
</g>
<!-- Node3 -->
<g id="Node000003" class="node">
<title>Node3</title>
<g id="a_Node000003"><a xlink:title=" ">
<polygon fill="white" stroke="none" points="184.5,-301 138.5,-301 138.5,-249 184.5,-249 184.5,-301"/>
<text text-anchor="start" x="143.5" y="-287.5" font-family="Helvetica,sans-Serif" font-size="10.00">Promise</text>
<text text-anchor="start" x="160" y="-271.5" font-family="Helvetica,sans-Serif" font-size="10.00"> </text>
<text text-anchor="start" x="160" y="-255.5" font-family="Helvetica,sans-Serif" font-size="10.00"> </text>
<polygon fill="#666666" stroke="#666666" points="138.5,-283 138.5,-283 184.5,-283 184.5,-283 138.5,-283"/>
<polygon fill="#666666" stroke="#666666" points="138.5,-267 138.5,-267 184.5,-267 184.5,-267 138.5,-267"/>
<polygon fill="none" stroke="#666666" points="138.5,-249 138.5,-301 184.5,-301 184.5,-249 138.5,-249"/>
</a>
</g>
</g>
<!-- Node3&#45;&gt;Node2 -->
<g id="edge2_Node000002_Node000003" class="edge">
<title>Node3&#45;&gt;Node2</title>
<g id="a_edge2_Node000002_Node000003"><a xlink:title=" ">
<path fill="none" stroke="#63b8ff" d="M161.5,-249.15C161.5,-238.54 161.5,-225.82 161.5,-213.63"/>
<polygon fill="none" stroke="#63b8ff" points="161.5,-213.63 157.5,-207.63 161.5,-201.63 165.5,-207.63 161.5,-213.63"/>
</a>
</g>
<text text-anchor="middle" x="185.5" y="-221.5" font-family="Helvetica,sans-Serif" font-size="10.00" fill="grey"> #promise_</text>
</g>
</g>
</svg>
