<?xml version="1.0" encoding="UTF-8" standalone="no"?>
<!DOCTYPE svg PUBLIC "-//W3C//DTD SVG 1.1//EN"
 "http://www.w3.org/Graphics/SVG/1.1/DTD/svg11.dtd">
<!-- Generated by graphviz version 8.1.0 (0)
 -->
<!-- Title: Roar::Detail::DirectoryServerConstructionArgs&lt; RequestListenerT &gt; Pages: 1 -->
<svg width="404pt" height="160pt"
 viewBox="0.00 0.00 404.00 160.00" xmlns="http://www.w3.org/2000/svg" xmlns:xlink="http://www.w3.org/1999/xlink">

<svg id="main" version="1.1" xmlns="http://www.w3.org/2000/svg" xmlns:xlink="http://www.w3.org/1999/xlink" xml:space="preserve" onload="init(evt)">
<style type="text/css"><![CDATA[
.node, .edge {opacity: 0.7;}
.node.selected, .edge.selected {opacity: 1;}
.edge:hover path { stroke: red; }
.edge:hover polygon { stroke: red; fill: red; }
]]></style>
<script type="application/ecmascript" xlink:href="svg.min.js"/>
<svg id="graph" class="graph">
<g id="graph0" class="graph" transform="scale(1 1) rotate(0) translate(4 156)">
<title>Roar::Detail::DirectoryServerConstructionArgs&lt; RequestListenerT &gt;</title>
<!-- Node1 -->
<g id="Node000001" class="node">
<title>Node1</title>
<g id="a_Node000001"><a xlink:title=" ">
<polygon fill="#999999" stroke="none" points="307,-52 0,-52 0,0 307,0 307,-52"/>
<text text-anchor="start" x="4.62" y="-38.5" font-family="Helvetica,sans-Serif" font-size="10.00">Roar::Detail::DirectoryServerConstructionArgs&lt; RequestListenerT &gt;</text>
<text text-anchor="start" x="152" y="-22.5" font-family="Helvetica,sans-Serif" font-size="10.00"> </text>
<text text-anchor="start" x="152" y="-6.5" font-family="Helvetica,sans-Serif" font-size="10.00"> </text>
<polygon fill="#666666" stroke="#666666" points="0,-34 0,-34 307,-34 307,-34 0,-34"/>
<polygon fill="#666666" stroke="#666666" points="0,-18 0,-18 307,-18 307,-18 0,-18"/>
<polygon fill="none" stroke="#666666" points="0,0 0,-52 307,-52 307,0 0,0"/>
</a>
</g>
</g>
<!-- Node2 -->
<g id="Node000002" class="node">
<title>Node2</title>
<g id="a_Node000002"><a xlink:title=" ">
<polygon fill="white" stroke="none" points="61.5,-152 33.5,-152 33.5,-100 61.5,-100 61.5,-152"/>
<text text-anchor="start" x="38.5" y="-138.5" font-family="Helvetica,sans-Serif" font-size="10.00">bool</text>
<text text-anchor="start" x="46" y="-122.5" font-family="Helvetica,sans-Serif" font-size="10.00"> </text>
<text text-anchor="start" x="46" y="-106.5" font-family="Helvetica,sans-Serif" font-size="10.00"> </text>
<polygon fill="#666666" stroke="#666666" points="33.5,-134 33.5,-134 61.5,-134 61.5,-134 33.5,-134"/>
<polygon fill="#666666" stroke="#666666" points="33.5,-118 33.5,-118 61.5,-118 61.5,-118 33.5,-118"/>
<polygon fill="none" stroke="#666666" points="33.5,-100 33.5,-152 61.5,-152 61.5,-100 33.5,-100"/>
</a>
</g>
</g>
<!-- Node2&#45;&gt;Node1 -->
<g id="edge1_Node000001_Node000002" class="edge">
<title>Node2&#45;&gt;Node1</title>
<g id="a_edge1_Node000001_Node000002"><a xlink:title=" ">
<path fill="none" stroke="#63b8ff" d="M53.15,-100.17C56.48,-89.89 61.58,-78.43 69.25,-70 72.69,-66.21 76.55,-62.71 80.66,-59.48"/>
<polygon fill="none" stroke="#63b8ff" points="80.77,-59.4 83.39,-52.68 90.6,-52.51 87.98,-59.23 80.77,-59.4"/>
</a>
</g>
<text text-anchor="middle" x="109.62" y="-72.5" font-family="Helvetica,sans-Serif" font-size="10.00" fill="grey"> +serverIsSecure_</text>
</g>
<!-- Node3 -->
<g id="Node000003" class="node">
<title>Node3</title>
<g id="a_Node000003"><a xlink:title=" ">
<polygon fill="white" stroke="none" points="227,-152 80,-152 80,-100 227,-100 227,-152"/>
<text text-anchor="start" x="84.88" y="-138.5" font-family="Helvetica,sans-Serif" font-size="10.00">ServeInfo&lt; RequestListenerT &gt;</text>
<text text-anchor="start" x="152" y="-122.5" font-family="Helvetica,sans-Serif" font-size="10.00"> </text>
<text text-anchor="start" x="152" y="-106.5" font-family="Helvetica,sans-Serif" font-size="10.00"> </text>
<polygon fill="#666666" stroke="#666666" points="80,-134 80,-134 227,-134 227,-134 80,-134"/>
<polygon fill="#666666" stroke="#666666" points="80,-118 80,-118 227,-118 227,-118 80,-118"/>
<polygon fill="none" stroke="#666666" points="80,-100 80,-152 227,-152 227,-100 80,-100"/>
</a>
</g>
</g>
<!-- Node3&#45;&gt;Node1 -->
<g id="edge2_Node000001_Node000003" class="edge">
<title>Node3&#45;&gt;Node1</title>
<g id="a_edge2_Node000001_Node000003"><a xlink:title=" ">
<path fill="none" stroke="#63b8ff" d="M153.5,-100.02C153.5,-89.3 153.5,-76.56 153.5,-64.73"/>
<polygon fill="none" stroke="#63b8ff" points="153.5,-64.84 149.5,-58.84 153.5,-52.84 157.5,-58.84 153.5,-64.84"/>
</a>
</g>
<text text-anchor="middle" x="180.88" y="-72.5" font-family="Helvetica,sans-Serif" font-size="10.00" fill="grey"> +serveInfo_</text>
</g>
<!-- Node4 -->
<g id="Node000004" class="node">
<title>Node4</title>
<g id="a_Node000004"><a xlink:title=" ">
<polygon fill="white" stroke="none" points="396,-152 245,-152 245,-100 396,-100 396,-152"/>
<text text-anchor="start" x="250" y="-138.5" font-family="Helvetica,sans-Serif" font-size="10.00">shared_ptr&lt; RequestListenerT &gt;</text>
<text text-anchor="start" x="319" y="-122.5" font-family="Helvetica,sans-Serif" font-size="10.00"> </text>
<text text-anchor="start" x="319" y="-106.5" font-family="Helvetica,sans-Serif" font-size="10.00"> </text>
<polygon fill="#666666" stroke="#666666" points="245,-134 245,-134 396,-134 396,-134 245,-134"/>
<polygon fill="#666666" stroke="#666666" points="245,-118 245,-118 396,-118 396,-118 245,-118"/>
<polygon fill="none" stroke="#666666" points="245,-100 245,-152 396,-152 396,-100 245,-100"/>
</a>
</g>
</g>
<!-- Node4&#45;&gt;Node1 -->
<g id="edge3_Node000001_Node000004" class="edge">
<title>Node4&#45;&gt;Node1</title>
<g id="a_edge3_Node000001_Node000004"><a xlink:title=" ">
<path fill="none" stroke="#63b8ff" d="M277.93,-100.02C256.33,-87.35 229.89,-71.83 206.94,-58.36"/>
<polygon fill="none" stroke="#63b8ff" points="207.12,-58.47 199.92,-58.88 196.77,-52.39 203.97,-51.98 207.12,-58.47"/>
</a>
</g>
<text text-anchor="middle" x="269.38" y="-72.5" font-family="Helvetica,sans-Serif" font-size="10.00" fill="grey"> +listener_</text>
</g>
</g>
</svg>
</svg>

<style type='text/css'>
<![CDATA[
[data-mouse-over-selected='false'] { opacity: 0.7; }
[data-mouse-over-selected='true']  { opacity: 1.0; }
]]>
</style>
<script type="application/ecmascript"><![CDATA[
document.addEventListener('DOMContentLoaded', (event) => {
  highlightEdges();
  highlightAdjacentNodes();
});
]]></script>
</svg>
