<?xml version="1.0" encoding="UTF-8" standalone="no"?>
<!DOCTYPE svg PUBLIC "-//W3C//DTD SVG 1.1//EN"
 "http://www.w3.org/Graphics/SVG/1.1/DTD/svg11.dtd">
<!-- Generated by graphviz version 8.1.0 (0)
 -->
<!-- Title: Roar::ShutdownBarrier::Implementation Pages: 1 -->
<svg width="423pt" height="160pt"
 viewBox="0.00 0.00 422.75 160.00" xmlns="http://www.w3.org/2000/svg" xmlns:xlink="http://www.w3.org/1999/xlink">

<svg id="main" version="1.1" xmlns="http://www.w3.org/2000/svg" xmlns:xlink="http://www.w3.org/1999/xlink" xml:space="preserve" onload="init(evt)">
<style type="text/css"><![CDATA[
.node, .edge {opacity: 0.7;}
.node.selected, .edge.selected {opacity: 1;}
.edge:hover path { stroke: red; }
.edge:hover polygon { stroke: red; fill: red; }
]]></style>
<script type="application/ecmascript" xlink:href="svg.min.js"/>
<svg id="graph" class="graph">
<g id="graph0" class="graph" transform="scale(1 1) rotate(0) translate(4 156)">
<title>Roar::ShutdownBarrier::Implementation</title>
<!-- Node1 -->
<g id="Node000001" class="node">
<title>Node1</title>
<g id="a_Node000001"><a xlink:title=" ">
<polygon fill="#999999" stroke="none" points="281,-52 100,-52 100,0 281,0 281,-52"/>
<text text-anchor="start" x="104.62" y="-38.5" font-family="Helvetica,sans-Serif" font-size="10.00">Roar::ShutdownBarrier::Implementation</text>
<text text-anchor="start" x="189" y="-22.5" font-family="Helvetica,sans-Serif" font-size="10.00"> </text>
<text text-anchor="start" x="189" y="-6.5" font-family="Helvetica,sans-Serif" font-size="10.00"> </text>
<polygon fill="#666666" stroke="#666666" points="100,-34 100,-34 281,-34 281,-34 100,-34"/>
<polygon fill="#666666" stroke="#666666" points="100,-18 100,-18 281,-18 281,-18 100,-18"/>
<polygon fill="none" stroke="#666666" points="100,0 100,-52 281,-52 281,0 100,0"/>
</a>
</g>
</g>
<!-- Node2 -->
<g id="Node000002" class="node">
<title>Node2</title>
<g id="a_Node000002"><a xlink:title=" ">
<polygon fill="white" stroke="none" points="37,-152 0,-152 0,-100 37,-100 37,-152"/>
<text text-anchor="start" x="5" y="-138.5" font-family="Helvetica,sans-Serif" font-size="10.00">mutex</text>
<text text-anchor="start" x="17" y="-122.5" font-family="Helvetica,sans-Serif" font-size="10.00"> </text>
<text text-anchor="start" x="17" y="-106.5" font-family="Helvetica,sans-Serif" font-size="10.00"> </text>
<polygon fill="#666666" stroke="#666666" points="0,-134 0,-134 37,-134 37,-134 0,-134"/>
<polygon fill="#666666" stroke="#666666" points="0,-118 0,-118 37,-118 37,-118 0,-118"/>
<polygon fill="none" stroke="#666666" points="0,-100 0,-152 37,-152 37,-100 0,-100"/>
</a>
</g>
</g>
<!-- Node2&#45;&gt;Node1 -->
<g id="edge1_Node000001_Node000002" class="edge">
<title>Node2&#45;&gt;Node1</title>
<g id="a_edge1_Node000001_Node000002"><a xlink:title=" ">
<path fill="none" stroke="#63b8ff" d="M21.15,-100.04C23.48,-89.5 27.85,-77.86 36,-70 50.37,-56.14 68.82,-46.68 87.92,-40.23"/>
<polygon fill="none" stroke="#63b8ff" points="87.86,-40.24 92.44,-34.67 99.34,-36.76 94.76,-42.33 87.86,-40.24"/>
</a>
</g>
<text text-anchor="middle" x="80.75" y="-72.5" font-family="Helvetica,sans-Serif" font-size="10.00" fill="grey"> +m_conditionMutex</text>
</g>
<!-- Node3 -->
<g id="Node000003" class="node">
<title>Node3</title>
<g id="a_Node000003"><a xlink:title=" ">
<polygon fill="white" stroke="none" points="174.5,-152 86.5,-152 86.5,-100 174.5,-100 174.5,-152"/>
<text text-anchor="start" x="91.5" y="-138.5" font-family="Helvetica,sans-Serif" font-size="10.00">condition_variable</text>
<text text-anchor="start" x="129" y="-122.5" font-family="Helvetica,sans-Serif" font-size="10.00"> </text>
<text text-anchor="start" x="129" y="-106.5" font-family="Helvetica,sans-Serif" font-size="10.00"> </text>
<polygon fill="#666666" stroke="#666666" points="86.5,-134 86.5,-134 174.5,-134 174.5,-134 86.5,-134"/>
<polygon fill="#666666" stroke="#666666" points="86.5,-118 86.5,-118 174.5,-118 174.5,-118 86.5,-118"/>
<polygon fill="none" stroke="#666666" points="86.5,-100 86.5,-152 174.5,-152 174.5,-100 86.5,-100"/>
</a>
</g>
</g>
<!-- Node3&#45;&gt;Node1 -->
<g id="edge2_Node000001_Node000003" class="edge">
<title>Node3&#45;&gt;Node1</title>
<g id="a_edge2_Node000001_Node000003"><a xlink:title=" ">
<path fill="none" stroke="#63b8ff" d="M126.63,-100.27C126.2,-90.36 127.22,-79.14 132,-70 133.62,-66.91 135.56,-63.99 137.75,-61.24"/>
<polygon fill="none" stroke="#63b8ff" points="137.68,-61.31 138.93,-54.21 145.96,-52.63 144.72,-59.74 137.68,-61.31"/>
</a>
</g>
<text text-anchor="middle" x="181.25" y="-72.5" font-family="Helvetica,sans-Serif" font-size="10.00" fill="grey"> +m_conditionWatcher</text>
</g>
<!-- Node4 -->
<g id="Node000004" class="node">
<title>Node4</title>
<g id="a_Node000004"><a xlink:title=" ">
<polygon fill="white" stroke="none" points="265.5,-152 237.5,-152 237.5,-100 265.5,-100 265.5,-152"/>
<text text-anchor="start" x="242.5" y="-138.5" font-family="Helvetica,sans-Serif" font-size="10.00">bool</text>
<text text-anchor="start" x="250" y="-122.5" font-family="Helvetica,sans-Serif" font-size="10.00"> </text>
<text text-anchor="start" x="250" y="-106.5" font-family="Helvetica,sans-Serif" font-size="10.00"> </text>
<polygon fill="#666666" stroke="#666666" points="237.5,-134 237.5,-134 265.5,-134 265.5,-134 237.5,-134"/>
<polygon fill="#666666" stroke="#666666" points="237.5,-118 237.5,-118 265.5,-118 265.5,-118 237.5,-118"/>
<polygon fill="none" stroke="#666666" points="237.5,-100 237.5,-152 265.5,-152 265.5,-100 237.5,-100"/>
</a>
</g>
</g>
<!-- Node4&#45;&gt;Node1 -->
<g id="edge3_Node000001_Node000004" class="edge">
<title>Node4&#45;&gt;Node1</title>
<g id="a_edge3_Node000001_Node000004"><a xlink:title=" ">
<path fill="none" stroke="#63b8ff" d="M243.64,-100C240.04,-90.26 235.28,-79.24 229.5,-70 227.77,-67.23 225.86,-64.48 223.83,-61.78"/>
<polygon fill="none" stroke="#63b8ff" points="223.77,-61.71 216.88,-59.58 216.18,-52.41 223.08,-54.53 223.77,-61.71"/>
</a>
</g>
<text text-anchor="middle" x="285" y="-72.5" font-family="Helvetica,sans-Serif" font-size="10.00" fill="grey"> +m_performShutdown</text>
</g>
<!-- Node5 -->
<g id="Node000005" class="node">
<title>Node5</title>
<g id="a_Node000005"><a xlink:title=" ">
<polygon fill="white" stroke="none" points="383.5,-152 363.5,-152 363.5,-100 383.5,-100 383.5,-152"/>
<text text-anchor="start" x="368.25" y="-138.5" font-family="Helvetica,sans-Serif" font-size="10.00">int</text>
<text text-anchor="start" x="372" y="-122.5" font-family="Helvetica,sans-Serif" font-size="10.00"> </text>
<text text-anchor="start" x="372" y="-106.5" font-family="Helvetica,sans-Serif" font-size="10.00"> </text>
<polygon fill="#666666" stroke="#666666" points="363.5,-134 363.5,-134 383.5,-134 383.5,-134 363.5,-134"/>
<polygon fill="#666666" stroke="#666666" points="363.5,-118 363.5,-118 383.5,-118 383.5,-118 363.5,-118"/>
<polygon fill="none" stroke="#666666" points="363.5,-100 363.5,-152 383.5,-152 383.5,-100 363.5,-100"/>
</a>
</g>
</g>
<!-- Node5&#45;&gt;Node1 -->
<g id="edge4_Node000001_Node000005" class="edge">
<title>Node5&#45;&gt;Node1</title>
<g id="a_edge4_Node000001_Node000005"><a xlink:title=" ">
<path fill="none" stroke="#63b8ff" d="M363.56,-101.82C357.74,-90.74 349.37,-78.15 338.5,-70 324.89,-59.8 308.92,-52.01 292.59,-46.07"/>
<polygon fill="none" stroke="#63b8ff" points="292.89,-46.17 285.93,-48.05 281.52,-42.34 288.48,-40.46 292.89,-46.17"/>
</a>
</g>
<text text-anchor="middle" x="382.12" y="-72.5" font-family="Helvetica,sans-Serif" font-size="10.00" fill="grey"> +m_lastSignal</text>
</g>
</g>
</svg>
</svg>

<style type='text/css'>
<![CDATA[
[data-mouse-over-selected='false'] { opacity: 0.7; }
[data-mouse-over-selected='true']  { opacity: 1.0; }
]]>
</style>
<script type="application/ecmascript"><![CDATA[
document.addEventListener('DOMContentLoaded', (event) => {
  highlightEdges();
  highlightAdjacentNodes();
});
]]></script>
</svg>
