<?xml version="1.0" encoding="UTF-8" standalone="no"?>
<!DOCTYPE svg PUBLIC "-//W3C//DTD SVG 1.1//EN"
 "http://www.w3.org/Graphics/SVG/1.1/DTD/svg11.dtd">
<!-- Generated by graphviz version 2.44.1 (20211215.1903)
 -->
<!-- Title: Roar::DigestAuth Pages: 1 -->
<svg width="109pt" height="303pt"
 viewBox="0.00 0.00 109.00 303.00" xmlns="http://www.w3.org/2000/svg" xmlns:xlink="http://www.w3.org/1999/xlink">
<g id="graph0" class="graph" transform="scale(1 1) rotate(0) translate(4 299)">
<title>Roar::DigestAuth</title>
<!-- Node1 -->
<g id="node1" class="node">
<title>Node1</title>
<g id="a_node1"><a xlink:title=" ">
<polygon fill="#bfbfbf" stroke="black" points="0,-0.5 0,-79.5 101,-79.5 101,-0.5 0,-0.5"/>
<text text-anchor="middle" x="50.5" y="-67.5" font-family="Helvetica,sans-Serif" font-size="10.00">Roar::DigestAuth</text>
<polyline fill="none" stroke="black" points="0,-60.5 101,-60.5 "/>
<text text-anchor="middle" x="50.5" y="-48.5" font-family="Helvetica,sans-Serif" font-size="10.00"> </text>
<polyline fill="none" stroke="black" points="0,-41.5 101,-41.5 "/>
<text text-anchor="start" x="8" y="-29.5" font-family="Helvetica,sans-Serif" font-size="10.00">+ DigestAuth()</text>
<text text-anchor="start" x="8" y="-18.5" font-family="Helvetica,sans-Serif" font-size="10.00">+ DigestAuth()</text>
<text text-anchor="start" x="8" y="-7.5" font-family="Helvetica,sans-Serif" font-size="10.00">+ fromParameters()</text>
</a>
</g>
</g>
<!-- Node2 -->
<g id="node2" class="node">
<title>Node2</title>
<g id="a_node2"><a xlink:title=" ">
<polygon fill="none" stroke="black" points="30,-237.5 30,-294.5 71,-294.5 71,-237.5 30,-237.5"/>
<text text-anchor="middle" x="50.5" y="-282.5" font-family="Helvetica,sans-Serif" font-size="10.00">string</text>
<polyline fill="none" stroke="black" points="30,-275.5 71,-275.5 "/>
<text text-anchor="middle" x="50.5" y="-263.5" font-family="Helvetica,sans-Serif" font-size="10.00"> </text>
<polyline fill="none" stroke="black" points="30,-256.5 71,-256.5 "/>
<text text-anchor="middle" x="50.5" y="-244.5" font-family="Helvetica,sans-Serif" font-size="10.00"> </text>
</a>
</g>
</g>
<!-- Node2&#45;&gt;Node1 -->
<g id="edge1" class="edge">
<title>Node2&#45;&gt;Node1</title>
<path fill="none" stroke="#404040" d="M50.5,-237.08C50.5,-200.85 50.5,-136.95 50.5,-91.96"/>
<polygon fill="none" stroke="#404040" points="50.5,-91.81 46.5,-85.81 50.5,-79.81 54.5,-85.81 50.5,-91.81"/>
<text text-anchor="middle" x="75" y="-211" font-family="Helvetica,sans-Serif" font-size="10.00"> +algorithm</text>
<text text-anchor="middle" x="75" y="-200" font-family="Helvetica,sans-Serif" font-size="10.00">+cnonce</text>
<text text-anchor="middle" x="75" y="-189" font-family="Helvetica,sans-Serif" font-size="10.00">+nc</text>
<text text-anchor="middle" x="75" y="-178" font-family="Helvetica,sans-Serif" font-size="10.00">+nonce</text>
<text text-anchor="middle" x="75" y="-167" font-family="Helvetica,sans-Serif" font-size="10.00">+opaque</text>
<text text-anchor="middle" x="75" y="-156" font-family="Helvetica,sans-Serif" font-size="10.00">+qop</text>
<text text-anchor="middle" x="75" y="-145" font-family="Helvetica,sans-Serif" font-size="10.00">+realm</text>
<text text-anchor="middle" x="75" y="-134" font-family="Helvetica,sans-Serif" font-size="10.00">+response</text>
<text text-anchor="middle" x="75" y="-123" font-family="Helvetica,sans-Serif" font-size="10.00">+uri</text>
<text text-anchor="middle" x="75" y="-112" font-family="Helvetica,sans-Serif" font-size="10.00">+username</text>
<text text-anchor="middle" x="75" y="-101" font-family="Helvetica,sans-Serif" font-size="10.00">...</text>
</g>
</g>
</svg>
