<?xml version="1.0" encoding="UTF-8" standalone="no"?>
<!DOCTYPE svg PUBLIC "-//W3C//DTD SVG 1.1//EN"
 "http://www.w3.org/Graphics/SVG/1.1/DTD/svg11.dtd">
<!-- Generated by graphviz version 8.1.0 (0)
 -->
<!-- Title: Roar::PseudoRegex Pages: 1 -->
<svg width="113pt" height="160pt"
 viewBox="0.00 0.00 113.00 160.00" xmlns="http://www.w3.org/2000/svg" xmlns:xlink="http://www.w3.org/1999/xlink">
<g id="graph0" class="graph" transform="scale(1 1) rotate(0) translate(4 156)">
<title>Roar::PseudoRegex</title>
<!-- Node1 -->
<g id="Node000001" class="node">
<title>Node1</title>
<g id="a_Node000001"><a xlink:title=" ">
<polygon fill="#999999" stroke="none" points="105,-52 0,-52 0,0 105,0 105,-52"/>
<text text-anchor="start" x="8.25" y="-38.5" font-family="Helvetica,sans-Serif" font-size="10.00">Roar::PseudoRegex</text>
<text text-anchor="start" x="51" y="-22.5" font-family="Helvetica,sans-Serif" font-size="10.00"> </text>
<text text-anchor="start" x="4" y="-6.5" font-family="Helvetica,sans-Serif" font-size="10.00">+</text>
<text text-anchor="start" x="14" y="-6.5" font-family="Helvetica,sans-Serif" font-size="10.00">operator std::regex()</text>
<polygon fill="#666666" stroke="#666666" points="0,-34 0,-34 105,-34 105,-34 0,-34"/>
<polygon fill="#666666" stroke="#666666" points="0,-18 0,-18 105,-18 105,-18 0,-18"/>
<polygon fill="none" stroke="#666666" points="0,0 0,-52 105,-52 105,0 0,0"/>
</a>
</g>
</g>
<!-- Node2 -->
<g id="Node000002" class="node">
<title>Node2</title>
<g id="a_Node000002"><a xlink:href="classchar.html" target="_top" xlink:title=" ">
<polygon fill="white" stroke="none" points="35.5,-152 7.5,-152 7.5,-100 35.5,-100 35.5,-152"/>
<text text-anchor="start" x="12.12" y="-138.5" font-family="Helvetica,sans-Serif" font-size="10.00">char</text>
<text text-anchor="start" x="20" y="-122.5" font-family="Helvetica,sans-Serif" font-size="10.00"> </text>
<text text-anchor="start" x="20" y="-106.5" font-family="Helvetica,sans-Serif" font-size="10.00"> </text>
<polygon fill="#666666" stroke="#666666" points="7.5,-134 7.5,-134 35.5,-134 35.5,-134 7.5,-134"/>
<polygon fill="#666666" stroke="#666666" points="7.5,-118 7.5,-118 35.5,-118 35.5,-118 7.5,-118"/>
<polygon fill="none" stroke="#666666" points="7.5,-100 7.5,-152 35.5,-152 35.5,-100 7.5,-100"/>
</a>
</g>
</g>
<!-- Node2&#45;&gt;Node1 -->
<g id="edge1_Node000001_Node000002" class="edge">
<title>Node2&#45;&gt;Node1</title>
<g id="a_edge1_Node000001_Node000002"><a xlink:title=" ">
<path fill="none" stroke="#63b8ff" d="M18.9,-100.12C18.68,-90.5 19.41,-79.54 22.5,-70 23.28,-67.6 24.24,-65.21 25.34,-62.86"/>
<polygon fill="none" stroke="#63b8ff" points="25.37,-62.81 24.84,-55.62 31.28,-52.37 31.81,-59.56 25.37,-62.81"/>
</a>
</g>
<text text-anchor="middle" x="42" y="-72.5" font-family="Helvetica,sans-Serif" font-size="10.00" fill="grey"> +pattern</text>
</g>
<!-- Node3 -->
<g id="Node000003" class="node">
<title>Node3</title>
<g id="a_Node000003"><a xlink:title=" ">
<polygon fill="white" stroke="none" points="101.5,-152 65.5,-152 65.5,-100 101.5,-100 101.5,-152"/>
<text text-anchor="start" x="70.38" y="-138.5" font-family="Helvetica,sans-Serif" font-size="10.00">size_t</text>
<text text-anchor="start" x="82" y="-122.5" font-family="Helvetica,sans-Serif" font-size="10.00"> </text>
<text text-anchor="start" x="82" y="-106.5" font-family="Helvetica,sans-Serif" font-size="10.00"> </text>
<polygon fill="#666666" stroke="#666666" points="65.5,-134 65.5,-134 101.5,-134 101.5,-134 65.5,-134"/>
<polygon fill="#666666" stroke="#666666" points="65.5,-118 65.5,-118 101.5,-118 101.5,-118 65.5,-118"/>
<polygon fill="none" stroke="#666666" points="65.5,-100 65.5,-152 101.5,-152 101.5,-100 65.5,-100"/>
</a>
</g>
</g>
<!-- Node3&#45;&gt;Node1 -->
<g id="edge2_Node000001_Node000003" class="edge">
<title>Node3&#45;&gt;Node1</title>
<g id="a_edge2_Node000001_Node000003"><a xlink:title=" ">
<path fill="none" stroke="#63b8ff" d="M75.6,-100.02C72.17,-89.19 68.09,-76.28 64.32,-64.35"/>
<polygon fill="none" stroke="#63b8ff" points="64.28,-64.24 58.66,-59.72 60.66,-52.8 66.28,-57.31 64.28,-64.24"/>
</a>
</g>
<text text-anchor="middle" x="83" y="-72.5" font-family="Helvetica,sans-Serif" font-size="10.00" fill="grey"> +size</text>
</g>
</g>
</svg>
