<?xml version="1.0" encoding="UTF-8" standalone="no"?>
<!DOCTYPE svg PUBLIC "-//W3C//DTD SVG 1.1//EN"
 "http://www.w3.org/Graphics/SVG/1.1/DTD/svg11.dtd">
<!-- Generated by graphviz version 8.1.0 (0)
 -->
<!-- Title: Roar::Route::Implementation Pages: 1 -->
<svg width="1101pt" height="373pt"
 viewBox="0.00 0.00 1101.00 373.00" xmlns="http://www.w3.org/2000/svg" xmlns:xlink="http://www.w3.org/1999/xlink">
<g id="graph0" class="graph" transform="scale(1 1) rotate(0) translate(4 369)">
<title>Roar::Route::Implementation</title>
<!-- Node1 -->
<g id="Node000001" class="node">
<title>Node1</title>
<g id="a_Node000001"><a xlink:title=" ">
<polygon fill="#999999" stroke="none" points="666.5,-52 530.5,-52 530.5,0 666.5,0 666.5,-52"/>
<text text-anchor="start" x="535.5" y="-38.5" font-family="Helvetica,sans-Serif" font-size="10.00">Roar::Route::Implementation</text>
<text text-anchor="start" x="597" y="-22.5" font-family="Helvetica,sans-Serif" font-size="10.00"> </text>
<text text-anchor="start" x="546" y="-6.5" font-family="Helvetica,sans-Serif" font-size="10.00">+</text>
<text text-anchor="start" x="567.5" y="-6.5" font-family="Helvetica,sans-Serif" font-size="10.00">Implementation()</text>
<polygon fill="#666666" stroke="#666666" points="530.5,-34 530.5,-34 666.5,-34 666.5,-34 530.5,-34"/>
<polygon fill="#666666" stroke="#666666" points="530.5,-18 530.5,-18 666.5,-18 666.5,-18 530.5,-18"/>
<polygon fill="none" stroke="#666666" points="530.5,0 530.5,-52 666.5,-52 666.5,0 530.5,0"/>
</a>
</g>
</g>
<!-- Node2 -->
<g id="Node000002" class="node">
<title>Node2</title>
<g id="a_Node000002"><a xlink:href="structRoar_1_1ProtoRoute.html" target="_top" xlink:title="A proper Route is built up from this object. This object is usually created internally.">
<polygon fill="white" stroke="none" points="641.5,-141 555.5,-141 555.5,-89 641.5,-89 641.5,-141"/>
<text text-anchor="start" x="560.25" y="-127.5" font-family="Helvetica,sans-Serif" font-size="10.00">Roar::ProtoRoute</text>
<text text-anchor="start" x="597" y="-111.5" font-family="Helvetica,sans-Serif" font-size="10.00"> </text>
<text text-anchor="start" x="597" y="-95.5" font-family="Helvetica,sans-Serif" font-size="10.00"> </text>
<polygon fill="#666666" stroke="#666666" points="555.5,-123 555.5,-123 641.5,-123 641.5,-123 555.5,-123"/>
<polygon fill="#666666" stroke="#666666" points="555.5,-107 555.5,-107 641.5,-107 641.5,-107 555.5,-107"/>
<polygon fill="none" stroke="#666666" points="555.5,-89 555.5,-141 641.5,-141 641.5,-89 555.5,-89"/>
</a>
</g>
</g>
<!-- Node2&#45;&gt;Node1 -->
<g id="edge1_Node000001_Node000002" class="edge">
<title>Node2&#45;&gt;Node1</title>
<g id="a_edge1_Node000001_Node000002"><a xlink:title=" ">
<path fill="none" stroke="#63b8ff" d="M598.5,-78.35C598.5,-69.42 598.5,-60.03 598.5,-51.76"/>
<polygon fill="none" stroke="#63b8ff" points="595,-78.3 598.5,-88.3 602,-78.3 595,-78.3"/>
</a>
</g>
</g>
<!-- Node3 -->
<g id="Node000003" class="node">
<title>Node3</title>
<g id="a_Node000003"><a xlink:title=" ">
<polygon fill="white" stroke="none" points="265,-247 0,-247 0,-195 265,-195 265,-247"/>
<text text-anchor="start" x="4.62" y="-233.5" font-family="Helvetica,sans-Serif" font-size="10.00">variant&lt; std::string, std::regex, Roar::Detail::ServedPath &gt;</text>
<text text-anchor="start" x="131" y="-217.5" font-family="Helvetica,sans-Serif" font-size="10.00"> </text>
<text text-anchor="start" x="131" y="-201.5" font-family="Helvetica,sans-Serif" font-size="10.00"> </text>
<polygon fill="#666666" stroke="#666666" points="0,-229 0,-229 265,-229 265,-229 0,-229"/>
<polygon fill="#666666" stroke="#666666" points="0,-213 0,-213 265,-213 265,-213 0,-213"/>
<polygon fill="none" stroke="#666666" points="0,-195 0,-247 265,-247 265,-195 0,-195"/>
</a>
</g>
</g>
<!-- Node3&#45;&gt;Node2 -->
<g id="edge2_Node000002_Node000003" class="edge">
<title>Node3&#45;&gt;Node2</title>
<g id="a_edge2_Node000002_Node000003"><a xlink:title=" ">
<path fill="none" stroke="#63b8ff" d="M244.41,-195.02C338.79,-173.96 469.86,-144.71 543.18,-128.35"/>
<polygon fill="none" stroke="#63b8ff" points="543.15,-128.35 548.14,-123.14 554.86,-125.74 549.88,-130.95 543.15,-128.35"/>
</a>
</g>
<text text-anchor="middle" x="407.38" y="-161.5" font-family="Helvetica,sans-Serif" font-size="10.00" fill="grey"> +path</text>
</g>
<!-- Node4 -->
<g id="Node000004" class="node">
<title>Node4</title>
<g id="a_Node000004"><a xlink:title=" ">
<polygon fill="white" stroke="none" points="596,-253 283,-253 283,-189 596,-189 596,-253"/>
<text text-anchor="start" x="288" y="-239.5" font-family="Helvetica,sans-Serif" font-size="10.00">function&lt; void(Roar::Session &amp;session, Roar::Request&lt; boost::beast</text>
<text text-anchor="start" x="374.62" y="-227.5" font-family="Helvetica,sans-Serif" font-size="10.00">::http::empty_body &gt; &amp;&amp;req)&gt;</text>
<text text-anchor="start" x="438" y="-211.5" font-family="Helvetica,sans-Serif" font-size="10.00"> </text>
<text text-anchor="start" x="438" y="-195.5" font-family="Helvetica,sans-Serif" font-size="10.00"> </text>
<polygon fill="#666666" stroke="#666666" points="283,-223 283,-223 596,-223 596,-223 283,-223"/>
<polygon fill="#666666" stroke="#666666" points="283,-207 283,-207 596,-207 596,-207 283,-207"/>
<polygon fill="none" stroke="#666666" points="283,-189 283,-253 596,-253 596,-189 283,-189"/>
</a>
</g>
</g>
<!-- Node4&#45;&gt;Node2 -->
<g id="edge3_Node000002_Node000004" class="edge">
<title>Node4&#45;&gt;Node2</title>
<g id="a_edge3_Node000002_Node000004"><a xlink:title=" ">
<path fill="none" stroke="#63b8ff" d="M486.77,-189.08C506.62,-176.09 529.7,-161 549.71,-147.91"/>
<polygon fill="none" stroke="#63b8ff" points="549.67,-147.94 552.51,-141.3 559.72,-141.37 556.89,-148 549.67,-147.94"/>
</a>
</g>
<text text-anchor="middle" x="554.62" y="-161.5" font-family="Helvetica,sans-Serif" font-size="10.00" fill="grey"> +callRoute</text>
</g>
<!-- Node5 -->
<g id="Node000005" class="node">
<title>Node5</title>
<g id="a_Node000005"><a xlink:title=" ">
<polygon fill="white" stroke="none" points="901,-247 614,-247 614,-195 901,-195 901,-247"/>
<text text-anchor="start" x="618.75" y="-233.5" font-family="Helvetica,sans-Serif" font-size="10.00">function&lt; bool(std::string const &amp;, std::vector&lt; std::string &gt; &amp;)&gt;</text>
<text text-anchor="start" x="756" y="-217.5" font-family="Helvetica,sans-Serif" font-size="10.00"> </text>
<text text-anchor="start" x="756" y="-201.5" font-family="Helvetica,sans-Serif" font-size="10.00"> </text>
<polygon fill="#666666" stroke="#666666" points="614,-229 614,-229 901,-229 901,-229 614,-229"/>
<polygon fill="#666666" stroke="#666666" points="614,-213 614,-213 901,-213 901,-213 614,-213"/>
<polygon fill="none" stroke="#666666" points="614,-195 614,-247 901,-247 901,-195 614,-195"/>
</a>
</g>
</g>
<!-- Node5&#45;&gt;Node2 -->
<g id="edge4_Node000002_Node000005" class="edge">
<title>Node5&#45;&gt;Node2</title>
<g id="a_edge4_Node000002_Node000005"><a xlink:title=" ">
<path fill="none" stroke="#63b8ff" d="M719.42,-195.09C697.76,-180.93 670.42,-163.05 647.22,-147.87"/>
<polygon fill="none" stroke="#63b8ff" points="647.35,-147.95 640.13,-148.01 637.3,-141.38 644.51,-141.32 647.35,-147.95"/>
</a>
</g>
<text text-anchor="middle" x="701.75" y="-161.5" font-family="Helvetica,sans-Serif" font-size="10.00" fill="grey"> +matches</text>
</g>
<!-- Node6 -->
<g id="Node000006" class="node">
<title>Node6</title>
<g id="a_Node000006"><a xlink:href="structRoar_1_1RouteOptions.html" target="_top" xlink:title="Options that modify the server behavior for a given route.">
<polygon fill="white" stroke="none" points="1016,-247 919,-247 919,-195 1016,-195 1016,-247"/>
<text text-anchor="start" x="924" y="-233.5" font-family="Helvetica,sans-Serif" font-size="10.00">Roar::RouteOptions</text>
<text text-anchor="start" x="966" y="-217.5" font-family="Helvetica,sans-Serif" font-size="10.00"> </text>
<text text-anchor="start" x="966" y="-201.5" font-family="Helvetica,sans-Serif" font-size="10.00"> </text>
<polygon fill="#666666" stroke="#666666" points="919,-229 919,-229 1016,-229 1016,-229 919,-229"/>
<polygon fill="#666666" stroke="#666666" points="919,-213 919,-213 1016,-213 1016,-213 919,-213"/>
<polygon fill="none" stroke="#666666" points="919,-195 919,-247 1016,-247 1016,-195 919,-195"/>
</a>
</g>
</g>
<!-- Node6&#45;&gt;Node2 -->
<g id="edge5_Node000002_Node000006" class="edge">
<title>Node6&#45;&gt;Node2</title>
<g id="a_edge5_Node000002_Node000006"><a xlink:title=" ">
<path fill="none" stroke="#63b8ff" d="M923.72,-195.08C919,-192.85 914.2,-190.77 909.5,-189 823.02,-156.38 717.35,-135.3 654.11,-124.55"/>
<polygon fill="none" stroke="#63b8ff" points="654.01,-124.53 647.43,-127.49 642.17,-122.56 648.75,-119.6 654.01,-124.53"/>
</a>
</g>
<text text-anchor="middle" x="884.75" y="-161.5" font-family="Helvetica,sans-Serif" font-size="10.00" fill="grey"> +routeOptions</text>
</g>
<!-- Node7 -->
<g id="Node000007" class="node">
<title>Node7</title>
<g id="a_Node000007"><a xlink:title=" ">
<polygon fill="white" stroke="none" points="929.5,-365 901.5,-365 901.5,-313 929.5,-313 929.5,-365"/>
<text text-anchor="start" x="906.5" y="-351.5" font-family="Helvetica,sans-Serif" font-size="10.00">bool</text>
<text text-anchor="start" x="914" y="-335.5" font-family="Helvetica,sans-Serif" font-size="10.00"> </text>
<text text-anchor="start" x="914" y="-319.5" font-family="Helvetica,sans-Serif" font-size="10.00"> </text>
<polygon fill="#666666" stroke="#666666" points="901.5,-347 901.5,-347 929.5,-347 929.5,-347 901.5,-347"/>
<polygon fill="#666666" stroke="#666666" points="901.5,-331 901.5,-331 929.5,-331 929.5,-331 901.5,-331"/>
<polygon fill="none" stroke="#666666" points="901.5,-313 901.5,-365 929.5,-365 929.5,-313 901.5,-313"/>
</a>
</g>
</g>
<!-- Node7&#45;&gt;Node6 -->
<g id="edge6_Node000006_Node000007" class="edge">
<title>Node7&#45;&gt;Node6</title>
<g id="a_edge6_Node000006_Node000007"><a xlink:title=" ">
<path fill="none" stroke="#63b8ff" d="M915.68,-313.19C916.58,-300.13 919.01,-284.15 925,-271 927.21,-266.16 930.05,-261.43 933.21,-256.95"/>
<polygon fill="none" stroke="#63b8ff" points="933.07,-257.13 933.63,-249.94 940.48,-247.69 939.92,-254.88 933.07,-257.13"/>
</a>
</g>
<text text-anchor="middle" x="961.25" y="-285.5" font-family="Helvetica,sans-Serif" font-size="10.00" fill="grey"> +allowUnsecure</text>
<text text-anchor="middle" x="961.25" y="-273.5" font-family="Helvetica,sans-Serif" font-size="10.00" fill="grey">+expectUpgrade</text>
</g>
<!-- Node8 -->
<g id="Node000008" class="node">
<title>Node8</title>
<g id="a_Node000008"><a xlink:title=" ">
<polygon fill="white" stroke="none" points="1093,-365 948,-365 948,-313 1093,-313 1093,-365"/>
<text text-anchor="start" x="952.62" y="-351.5" font-family="Helvetica,sans-Serif" font-size="10.00">optional&lt; Roar::CorsSettings &gt;</text>
<text text-anchor="start" x="1019" y="-335.5" font-family="Helvetica,sans-Serif" font-size="10.00"> </text>
<text text-anchor="start" x="1019" y="-319.5" font-family="Helvetica,sans-Serif" font-size="10.00"> </text>
<polygon fill="#666666" stroke="#666666" points="948,-347 948,-347 1093,-347 1093,-347 948,-347"/>
<polygon fill="#666666" stroke="#666666" points="948,-331 948,-331 1093,-331 1093,-331 948,-331"/>
<polygon fill="none" stroke="#666666" points="948,-313 948,-365 1093,-365 1093,-313 948,-313"/>
</a>
</g>
</g>
<!-- Node8&#45;&gt;Node6 -->
<g id="edge7_Node000006_Node000008" class="edge">
<title>Node8&#45;&gt;Node6</title>
<g id="a_edge7_Node000006_Node000008"><a xlink:title=" ">
<path fill="none" stroke="#63b8ff" d="M1013.96,-313.25C1010.17,-300.36 1004.87,-284.51 998.5,-271 996.45,-266.65 994.08,-262.21 991.59,-257.87"/>
<polygon fill="none" stroke="#63b8ff" points="991.53,-257.78 984.99,-254.73 985.29,-247.52 991.83,-250.57 991.53,-257.78"/>
</a>
</g>
<text text-anchor="middle" x="1021.38" y="-279.5" font-family="Helvetica,sans-Serif" font-size="10.00" fill="grey"> +cors</text>
</g>
</g>
</svg>
