<?xml version="1.0" encoding="UTF-8" standalone="no"?>
<!DOCTYPE svg PUBLIC "-//W3C//DTD SVG 1.1//EN"
 "http://www.w3.org/Graphics/SVG/1.1/DTD/svg11.dtd">
<!-- Generated by graphviz version 8.1.0 (0)
 -->
<!-- Title: Roar::ServeInfo&lt; RequestListenerT &gt; Pages: 1 -->
<svg width="376pt" height="160pt"
 viewBox="0.00 0.00 375.50 160.00" xmlns="http://www.w3.org/2000/svg" xmlns:xlink="http://www.w3.org/1999/xlink">

<svg id="main" version="1.1" xmlns="http://www.w3.org/2000/svg" xmlns:xlink="http://www.w3.org/1999/xlink" xml:space="preserve" onload="init(evt)">
<style type="text/css"><![CDATA[
.node, .edge {opacity: 0.7;}
.node.selected, .edge.selected {opacity: 1;}
.edge:hover path { stroke: red; }
.edge:hover polygon { stroke: red; fill: red; }
]]></style>
<script type="application/ecmascript" xlink:href="svg.min.js"/>
<svg id="graph" class="graph">
<g id="graph0" class="graph" transform="scale(1 1) rotate(0) translate(4 156)">
<title>Roar::ServeInfo&lt; RequestListenerT &gt;</title>
<!-- Node1 -->
<g id="Node000001" class="node">
<title>Node1</title>
<g id="a_Node000001"><a xlink:title=" ">
<polygon fill="#999999" stroke="none" points="265,-52 91,-52 91,0 265,0 265,-52"/>
<text text-anchor="start" x="95.88" y="-38.5" font-family="Helvetica,sans-Serif" font-size="10.00">Roar::ServeInfo&lt; RequestListenerT &gt;</text>
<text text-anchor="start" x="176.5" y="-22.5" font-family="Helvetica,sans-Serif" font-size="10.00"> </text>
<text text-anchor="start" x="176.5" y="-6.5" font-family="Helvetica,sans-Serif" font-size="10.00"> </text>
<polygon fill="#666666" stroke="#666666" points="91,-34 91,-34 265,-34 265,-34 91,-34"/>
<polygon fill="#666666" stroke="#666666" points="91,-18 91,-18 265,-18 265,-18 91,-18"/>
<polygon fill="none" stroke="#666666" points="91,0 91,-52 265,-52 265,0 91,0"/>
</a>
</g>
</g>
<!-- Node2 -->
<g id="Node000002" class="node">
<title>Node2</title>
<g id="a_Node000002"><a xlink:title=" ">
<polygon fill="white" stroke="none" points="164,-152 0,-152 0,-100 164,-100 164,-152"/>
<text text-anchor="start" x="4.75" y="-138.5" font-family="Helvetica,sans-Serif" font-size="10.00">ServeOptions&lt; RequestListenerT &gt;</text>
<text text-anchor="start" x="80.5" y="-122.5" font-family="Helvetica,sans-Serif" font-size="10.00"> </text>
<text text-anchor="start" x="80.5" y="-106.5" font-family="Helvetica,sans-Serif" font-size="10.00"> </text>
<polygon fill="#666666" stroke="#666666" points="0,-134 0,-134 164,-134 164,-134 0,-134"/>
<polygon fill="#666666" stroke="#666666" points="0,-118 0,-118 164,-118 164,-118 0,-118"/>
<polygon fill="none" stroke="#666666" points="0,-100 0,-152 164,-152 164,-100 0,-100"/>
</a>
</g>
</g>
<!-- Node2&#45;&gt;Node1 -->
<g id="edge1_Node000001_Node000002" class="edge">
<title>Node2&#45;&gt;Node1</title>
<g id="a_edge1_Node000001_Node000002"><a xlink:title=" ">
<path fill="none" stroke="#63b8ff" d="M106.47,-100.02C118.1,-88.15 132.16,-73.79 144.74,-60.96"/>
<polygon fill="none" stroke="#63b8ff" points="144.54,-61.15 145.88,-54.07 152.94,-52.58 151.6,-59.67 144.54,-61.15"/>
</a>
</g>
<text text-anchor="middle" x="169.38" y="-72.5" font-family="Helvetica,sans-Serif" font-size="10.00" fill="grey"> +serveOptions</text>
</g>
<!-- Node3 -->
<g id="Node000003" class="node">
<title>Node3</title>
<g id="a_Node000003"><a xlink:title=" ">
<polygon fill="white" stroke="none" points="367.5,-152 182.5,-152 182.5,-100 367.5,-100 367.5,-152"/>
<text text-anchor="start" x="187.25" y="-138.5" font-family="Helvetica,sans-Serif" font-size="10.00">ServeHandlerType&lt; RequestListenerT &gt;</text>
<text text-anchor="start" x="273.5" y="-122.5" font-family="Helvetica,sans-Serif" font-size="10.00"> </text>
<text text-anchor="start" x="273.5" y="-106.5" font-family="Helvetica,sans-Serif" font-size="10.00"> </text>
<polygon fill="#666666" stroke="#666666" points="182.5,-134 182.5,-134 367.5,-134 367.5,-134 182.5,-134"/>
<polygon fill="#666666" stroke="#666666" points="182.5,-118 182.5,-118 367.5,-118 367.5,-118 182.5,-118"/>
<polygon fill="none" stroke="#666666" points="182.5,-100 182.5,-152 367.5,-152 367.5,-100 182.5,-100"/>
</a>
</g>
</g>
<!-- Node3&#45;&gt;Node1 -->
<g id="edge2_Node000001_Node000003" class="edge">
<title>Node3&#45;&gt;Node1</title>
<g id="a_edge2_Node000001_Node000003"><a xlink:title=" ">
<path fill="none" stroke="#63b8ff" d="M250.27,-100.02C238.53,-88.15 224.31,-73.79 211.61,-60.96"/>
<polygon fill="none" stroke="#63b8ff" points="211.76,-61.11 204.7,-59.66 203.32,-52.58 210.38,-54.03 211.76,-61.11"/>
</a>
</g>
<text text-anchor="middle" x="252.25" y="-72.5" font-family="Helvetica,sans-Serif" font-size="10.00" fill="grey"> +handler</text>
</g>
</g>
</svg>
</svg>

<style type='text/css'>
<![CDATA[
[data-mouse-over-selected='false'] { opacity: 0.7; }
[data-mouse-over-selected='true']  { opacity: 1.0; }
]]>
</style>
<script type="application/ecmascript"><![CDATA[
document.addEventListener('DOMContentLoaded', (event) => {
  highlightEdges();
  highlightAdjacentNodes();
});
]]></script>
</svg>
