<?xml version="1.0" encoding="UTF-8" standalone="no"?>
<!DOCTYPE svg PUBLIC "-//W3C//DTD SVG 1.1//EN"
 "http://www.w3.org/Graphics/SVG/1.1/DTD/svg11.dtd">
<!-- Generated by graphviz version 2.44.1 (20211215.1903)
 -->
<!-- Title: Roar::Detail::PromiseTypeBind&lt; PromiseTypeBindFail&lt; FailArgs... &gt; &gt; Pages: 1 -->
<svg width="333pt" height="299pt"
 viewBox="0.00 0.00 333.00 299.00" xmlns="http://www.w3.org/2000/svg" xmlns:xlink="http://www.w3.org/1999/xlink">
<g id="graph0" class="graph" transform="scale(1 1) rotate(0) translate(4 295)">
<title>Roar::Detail::PromiseTypeBind&lt; PromiseTypeBindFail&lt; FailArgs... &gt; &gt;</title>
<!-- Node1 -->
<g id="node1" class="node">
<title>Node1</title>
<g id="a_node1"><a xlink:title=" ">
<polygon fill="#bfbfbf" stroke="black" points="0,-0.5 0,-79.5 325,-79.5 325,-0.5 0,-0.5"/>
<text text-anchor="middle" x="162.5" y="-67.5" font-family="Helvetica,sans-Serif" font-size="10.00">Roar::Detail::PromiseTypeBind&lt; PromiseTypeBindFail&lt; FailArgs... &gt; &gt;</text>
<polyline fill="none" stroke="black" points="0,-60.5 325,-60.5 "/>
<text text-anchor="middle" x="162.5" y="-48.5" font-family="Helvetica,sans-Serif" font-size="10.00"> </text>
<polyline fill="none" stroke="black" points="0,-41.5 325,-41.5 "/>
<text text-anchor="start" x="8" y="-29.5" font-family="Helvetica,sans-Serif" font-size="10.00">+ then()</text>
<text text-anchor="start" x="8" y="-18.5" font-family="Helvetica,sans-Serif" font-size="10.00">+ fail()</text>
<text text-anchor="start" x="8" y="-7.5" font-family="Helvetica,sans-Serif" font-size="10.00">+ PromiseTypeBindBase()</text>
</a>
</g>
</g>
<!-- Node2 -->
<g id="node2" class="node">
<title>Node2</title>
<g id="a_node2"><a xlink:href="classRoar_1_1Detail_1_1PromiseTypeBindBase.html" target="_top" xlink:title=" ">
<polygon fill="none" stroke="black" points="75.5,-117.5 75.5,-185.5 249.5,-185.5 249.5,-117.5 75.5,-117.5"/>
<text text-anchor="middle" x="162.5" y="-173.5" font-family="Helvetica,sans-Serif" font-size="10.00">Roar::Detail::PromiseTypeBindBase</text>
<polyline fill="none" stroke="black" points="75.5,-166.5 249.5,-166.5 "/>
<text text-anchor="middle" x="162.5" y="-154.5" font-family="Helvetica,sans-Serif" font-size="10.00"> </text>
<polyline fill="none" stroke="black" points="75.5,-147.5 249.5,-147.5 "/>
<text text-anchor="start" x="83.5" y="-135.5" font-family="Helvetica,sans-Serif" font-size="10.00">+ PromiseTypeBindBase()</text>
<text text-anchor="start" x="83.5" y="-124.5" font-family="Helvetica,sans-Serif" font-size="10.00">+ ~PromiseTypeBindBase()</text>
</a>
</g>
</g>
<!-- Node2&#45;&gt;Node1 -->
<g id="edge1" class="edge">
<title>Node2&#45;&gt;Node1</title>
<path fill="none" stroke="midnightblue" d="M162.5,-107.34C162.5,-98.25 162.5,-88.72 162.5,-79.81"/>
<polygon fill="none" stroke="midnightblue" points="159,-107.35 162.5,-117.35 166,-107.35 159,-107.35"/>
</g>
<!-- Node3 -->
<g id="node3" class="node">
<title>Node3</title>
<g id="a_node3"><a xlink:title=" ">
<polygon fill="none" stroke="black" points="136,-233.5 136,-290.5 189,-290.5 189,-233.5 136,-233.5"/>
<text text-anchor="middle" x="162.5" y="-278.5" font-family="Helvetica,sans-Serif" font-size="10.00">Promise</text>
<polyline fill="none" stroke="black" points="136,-271.5 189,-271.5 "/>
<text text-anchor="middle" x="162.5" y="-259.5" font-family="Helvetica,sans-Serif" font-size="10.00"> </text>
<polyline fill="none" stroke="black" points="136,-252.5 189,-252.5 "/>
<text text-anchor="middle" x="162.5" y="-240.5" font-family="Helvetica,sans-Serif" font-size="10.00"> </text>
</a>
</g>
</g>
<!-- Node3&#45;&gt;Node2 -->
<g id="edge2" class="edge">
<title>Node3&#45;&gt;Node2</title>
<path fill="none" stroke="#404040" d="M162.5,-233.34C162.5,-222.53 162.5,-209.85 162.5,-197.77"/>
<polygon fill="none" stroke="#404040" points="162.5,-197.52 158.5,-191.52 162.5,-185.52 166.5,-191.52 162.5,-197.52"/>
<text text-anchor="middle" x="187" y="-207" font-family="Helvetica,sans-Serif" font-size="10.00"> #promise_</text>
</g>
</g>
</svg>
