<?xml version="1.0" encoding="UTF-8" standalone="no"?>
<!DOCTYPE svg PUBLIC "-//W3C//DTD SVG 1.1//EN"
 "http://www.w3.org/Graphics/SVG/1.1/DTD/svg11.dtd">
<!-- Generated by graphviz version 2.44.1 (20211215.1903)
 -->
<!-- Title: Roar::Ranges Pages: 1 -->
<svg width="224pt" height="171pt"
 viewBox="0.00 0.00 224.00 171.00" xmlns="http://www.w3.org/2000/svg" xmlns:xlink="http://www.w3.org/1999/xlink">
<g id="graph0" class="graph" transform="scale(1 1) rotate(0) translate(4 167)">
<title>Roar::Ranges</title>
<!-- Node1 -->
<g id="node1" class="node">
<title>Node1</title>
<g id="a_node1"><a xlink:title=" ">
<polygon fill="#bfbfbf" stroke="black" points="40,-0.5 40,-57.5 117,-57.5 117,-0.5 40,-0.5"/>
<text text-anchor="middle" x="78.5" y="-45.5" font-family="Helvetica,sans-Serif" font-size="10.00">Roar::Ranges</text>
<polyline fill="none" stroke="black" points="40,-38.5 117,-38.5 "/>
<text text-anchor="middle" x="78.5" y="-26.5" font-family="Helvetica,sans-Serif" font-size="10.00"> </text>
<polyline fill="none" stroke="black" points="40,-19.5 117,-19.5 "/>
<text text-anchor="start" x="48" y="-7.5" font-family="Helvetica,sans-Serif" font-size="10.00">+ fromString()</text>
</a>
</g>
</g>
<!-- Node2 -->
<g id="node2" class="node">
<title>Node2</title>
<g id="a_node2"><a xlink:title=" ">
<polygon fill="none" stroke="black" points="0,-105.5 0,-162.5 41,-162.5 41,-105.5 0,-105.5"/>
<text text-anchor="middle" x="20.5" y="-150.5" font-family="Helvetica,sans-Serif" font-size="10.00">string</text>
<polyline fill="none" stroke="black" points="0,-143.5 41,-143.5 "/>
<text text-anchor="middle" x="20.5" y="-131.5" font-family="Helvetica,sans-Serif" font-size="10.00"> </text>
<polyline fill="none" stroke="black" points="0,-124.5 41,-124.5 "/>
<text text-anchor="middle" x="20.5" y="-112.5" font-family="Helvetica,sans-Serif" font-size="10.00"> </text>
</a>
</g>
</g>
<!-- Node2&#45;&gt;Node1 -->
<g id="edge1" class="edge">
<title>Node2&#45;&gt;Node1</title>
<path fill="none" stroke="#404040" d="M36.04,-105.4C42.48,-93.97 50.05,-80.52 57.01,-68.17"/>
<polygon fill="none" stroke="#404040" points="57.03,-68.13 56.48,-60.94 62.91,-57.68 63.46,-64.87 57.03,-68.13"/>
<text text-anchor="middle" x="64" y="-79" font-family="Helvetica,sans-Serif" font-size="10.00"> +unit</text>
</g>
<!-- Node3 -->
<g id="node3" class="node">
<title>Node3</title>
<g id="a_node3"><a xlink:title=" ">
<polygon fill="none" stroke="black" points="59,-105.5 59,-162.5 216,-162.5 216,-105.5 59,-105.5"/>
<text text-anchor="middle" x="137.5" y="-150.5" font-family="Helvetica,sans-Serif" font-size="10.00">vector&lt; Roar::Ranges::Range &gt;</text>
<polyline fill="none" stroke="black" points="59,-143.5 216,-143.5 "/>
<text text-anchor="middle" x="137.5" y="-131.5" font-family="Helvetica,sans-Serif" font-size="10.00"> </text>
<polyline fill="none" stroke="black" points="59,-124.5 216,-124.5 "/>
<text text-anchor="middle" x="137.5" y="-112.5" font-family="Helvetica,sans-Serif" font-size="10.00"> </text>
</a>
</g>
</g>
<!-- Node3&#45;&gt;Node1 -->
<g id="edge2" class="edge">
<title>Node3&#45;&gt;Node1</title>
<path fill="none" stroke="#404040" d="M121.69,-105.4C115.14,-93.97 107.44,-80.52 100.36,-68.17"/>
<polygon fill="none" stroke="#404040" points="100.32,-68.09 93.87,-64.87 94.35,-57.68 100.81,-60.9 100.32,-68.09"/>
<text text-anchor="middle" x="129" y="-79" font-family="Helvetica,sans-Serif" font-size="10.00"> +ranges</text>
</g>
</g>
</svg>
