<?xml version="1.0" encoding="UTF-8" standalone="no"?>
<!DOCTYPE svg PUBLIC "-//W3C//DTD SVG 1.1//EN"
 "http://www.w3.org/Graphics/SVG/1.1/DTD/svg11.dtd">
<!-- Generated by graphviz version 2.44.1 (20211215.1903)
 -->
<!-- Title: Roar::WebsocketClient::Implementation Pages: 1 -->
<!--zoomable 237 -->
<svg id="main" version="1.1" xmlns="http://www.w3.org/2000/svg" xmlns:xlink="http://www.w3.org/1999/xlink" xml:space="preserve" onload="init(evt)">
<style type="text/css"><![CDATA[
.edge:hover path { stroke: red; }
.edge:hover polygon { stroke: red; fill: red; }
]]></style>
<script type="text/javascript"><![CDATA[
var edges = document.getElementsByTagName('g');
if (edges && edges.length) {
  for (var i=0;i<edges.length;i++) {
    if (edges[i].id.substr(0,4)=='edge') {
      edges[i].setAttribute('class','edge');
    }
  }
}
]]></script>
        <defs>
                <circle id="rim" cx="0" cy="0" r="7"/>
                <circle id="rim2" cx="0" cy="0" r="3.5"/>
                <g id="zoomPlus">
                        <use xlink:href="#rim" fill="#404040">
                                <set attributeName="fill" to="#808080" begin="zoomplus.mouseover" end="zoomplus.mouseout"/>
                        </use>
                        <path d="M-4,0h8M0,-4v8" fill="none" stroke="white" stroke-width="1.5" pointer-events="none"/>
                </g>
                <g id="zoomMin">
                        <use xlink:href="#rim" fill="#404040">
                                <set attributeName="fill" to="#808080" begin="zoomminus.mouseover" end="zoomminus.mouseout"/>
                        </use>
                        <path d="M-4,0h8" fill="none" stroke="white" stroke-width="1.5" pointer-events="none"/>
                </g>
                <g id="dirArrow">
                        <path fill="none" stroke="white" stroke-width="1.5" d="M0,-3.0v7 M-2.5,-0.5L0,-3.0L2.5,-0.5"/>
                </g>
               <g id="resetDef">
                       <use xlink:href="#rim2" fill="#404040">
                               <set attributeName="fill" to="#808080" begin="reset.mouseover" end="reset.mouseout"/>
                       </use>
               </g>
        </defs>

<script type="text/javascript">
var viewWidth = 676;
var viewHeight = 237;
var sectionId = 'dynsection-0';
</script>
<script xlink:href="svgpan.js"/>
<svg id="graph" class="graph">
<g id="viewport">
<title>Roar::WebsocketClient::Implementation</title>
<!-- Node1 -->
<g id="node1" class="node">
<title>Node1</title>
<g id="a_node1"><a xlink:title=" ">
<polygon fill="#bfbfbf" stroke="black" points="175,-0.5 175,-112.5 366,-112.5 366,-0.5 175,-0.5"/>
<text text-anchor="middle" x="270.5" y="-100.5" font-family="Helvetica,sans-Serif" font-size="10.00">Roar::WebsocketClient::Implementation</text>
<polyline fill="none" stroke="black" points="175,-93.5 366,-93.5 "/>
<text text-anchor="middle" x="270.5" y="-81.5" font-family="Helvetica,sans-Serif" font-size="10.00"> </text>
<polyline fill="none" stroke="black" points="175,-74.5 366,-74.5 "/>
<text text-anchor="start" x="183" y="-62.5" font-family="Helvetica,sans-Serif" font-size="10.00">+ Implementation()</text>
<text text-anchor="start" x="183" y="-51.5" font-family="Helvetica,sans-Serif" font-size="10.00">+ onConnect()</text>
<text text-anchor="start" x="183" y="-40.5" font-family="Helvetica,sans-Serif" font-size="10.00">+ performSslHandshake()</text>
<text text-anchor="start" x="183" y="-29.5" font-family="Helvetica,sans-Serif" font-size="10.00">+ onSslHandshake()</text>
<text text-anchor="start" x="183" y="-18.5" font-family="Helvetica,sans-Serif" font-size="10.00">+ performWebsocketHandshake()</text>
<text text-anchor="start" x="183" y="-7.5" font-family="Helvetica,sans-Serif" font-size="10.00">+ onWebsocketHandshake()</text>
</a>
</g>
</g>
<!-- Node2 -->
<g id="node2" class="node">
<title>Node2</title>
<g id="a_node2"><a xlink:title=" ">
<polygon fill="none" stroke="black" points="0,-171.5 0,-228.5 59,-228.5 59,-171.5 0,-171.5"/>
<text text-anchor="middle" x="29.5" y="-216.5" font-family="Helvetica,sans-Serif" font-size="10.00">flat_buffer</text>
<polyline fill="none" stroke="black" points="0,-209.5 59,-209.5 "/>
<text text-anchor="middle" x="29.5" y="-197.5" font-family="Helvetica,sans-Serif" font-size="10.00"> </text>
<polyline fill="none" stroke="black" points="0,-190.5 59,-190.5 "/>
<text text-anchor="middle" x="29.5" y="-178.5" font-family="Helvetica,sans-Serif" font-size="10.00"> </text>
</a>
</g>
</g>
<!-- Node2&#45;&gt;Node1 -->
<g id="edge1" class="edge">
<title>Node2&#45;&gt;Node1</title>
<path fill="none" stroke="#404040" d="M59.12,-176.63C61.92,-174.68 64.74,-172.78 67.5,-171 98.22,-151.2 132.6,-131.22 164.2,-113.65"/>
<polygon fill="none" stroke="#404040" points="164.3,-113.59 167.62,-107.19 174.81,-107.79 171.49,-114.19 164.3,-113.59"/>
<text text-anchor="middle" x="150.5" y="-139.5" font-family="Helvetica,sans-Serif" font-size="10.00"> +buffer</text>
</g>
<!-- Node3 -->
<g id="node3" class="node">
<title>Node3</title>
<g id="a_node3"><a xlink:title=" ">
<polygon fill="none" stroke="black" points="77,-171.5 77,-228.5 232,-228.5 232,-171.5 77,-171.5"/>
<text text-anchor="middle" x="154.5" y="-216.5" font-family="Helvetica,sans-Serif" font-size="10.00">function&lt; void(Roar::Error &amp;&amp;)&gt;</text>
<polyline fill="none" stroke="black" points="77,-209.5 232,-209.5 "/>
<text text-anchor="middle" x="154.5" y="-197.5" font-family="Helvetica,sans-Serif" font-size="10.00"> </text>
<polyline fill="none" stroke="black" points="77,-190.5 232,-190.5 "/>
<text text-anchor="middle" x="154.5" y="-178.5" font-family="Helvetica,sans-Serif" font-size="10.00"> </text>
</a>
</g>
</g>
<!-- Node3&#45;&gt;Node1 -->
<g id="edge2" class="edge">
<title>Node3&#45;&gt;Node1</title>
<path fill="none" stroke="#404040" d="M177.14,-171.38C188.71,-157.27 203.32,-139.45 217.52,-122.12"/>
<polygon fill="none" stroke="#404040" points="217.74,-121.85 218.45,-114.68 225.35,-112.57 224.64,-119.75 217.74,-121.85"/>
<text text-anchor="middle" x="230" y="-139.5" font-family="Helvetica,sans-Serif" font-size="10.00"> +onError</text>
</g>
<!-- Node4 -->
<g id="node4" class="node">
<title>Node4</title>
<g id="a_node4"><a xlink:title=" ">
<polygon fill="none" stroke="black" points="250,-171.5 250,-228.5 291,-228.5 291,-171.5 250,-171.5"/>
<text text-anchor="middle" x="270.5" y="-216.5" font-family="Helvetica,sans-Serif" font-size="10.00">string</text>
<polyline fill="none" stroke="black" points="250,-209.5 291,-209.5 "/>
<text text-anchor="middle" x="270.5" y="-197.5" font-family="Helvetica,sans-Serif" font-size="10.00"> </text>
<polyline fill="none" stroke="black" points="250,-190.5 291,-190.5 "/>
<text text-anchor="middle" x="270.5" y="-178.5" font-family="Helvetica,sans-Serif" font-size="10.00"> </text>
</a>
</g>
</g>
<!-- Node4&#45;&gt;Node1 -->
<g id="edge3" class="edge">
<title>Node4&#45;&gt;Node1</title>
<path fill="none" stroke="#404040" d="M270.5,-171.38C270.5,-158.05 270.5,-141.42 270.5,-125.01"/>
<polygon fill="none" stroke="#404040" points="270.5,-124.57 266.5,-118.57 270.5,-112.57 274.5,-118.57 270.5,-124.57"/>
<text text-anchor="middle" x="284.5" y="-145" font-family="Helvetica,sans-Serif" font-size="10.00"> +host</text>
<text text-anchor="middle" x="284.5" y="-134" font-family="Helvetica,sans-Serif" font-size="10.00">+path</text>
</g>
<!-- Node5 -->
<g id="node5" class="node">
<title>Node5</title>
<g id="a_node5"><a xlink:title=" ">
<polygon fill="none" stroke="black" points="309,-171.5 309,-228.5 560,-228.5 560,-171.5 309,-171.5"/>
<text text-anchor="middle" x="434.5" y="-216.5" font-family="Helvetica,sans-Serif" font-size="10.00">unordered_map&lt; boost::beast::http::field, std::string &gt;</text>
<polyline fill="none" stroke="black" points="309,-209.5 560,-209.5 "/>
<text text-anchor="middle" x="434.5" y="-197.5" font-family="Helvetica,sans-Serif" font-size="10.00"> </text>
<polyline fill="none" stroke="black" points="309,-190.5 560,-190.5 "/>
<text text-anchor="middle" x="434.5" y="-178.5" font-family="Helvetica,sans-Serif" font-size="10.00"> </text>
</a>
</g>
</g>
<!-- Node5&#45;&gt;Node1 -->
<g id="edge4" class="edge">
<title>Node5&#45;&gt;Node1</title>
<path fill="none" stroke="#404040" d="M402.49,-171.38C385.6,-156.81 364.13,-138.29 343.45,-120.44"/>
<polygon fill="none" stroke="#404040" points="343.42,-120.41 336.26,-119.52 334.33,-112.57 341.49,-113.47 343.42,-120.41"/>
<text text-anchor="middle" x="423.5" y="-139.5" font-family="Helvetica,sans-Serif" font-size="10.00"> +handshakeHeaders</text>
</g>
<!-- Node6 -->
<g id="node6" class="node">
<title>Node6</title>
<g id="a_node6"><a xlink:title=" ">
<polygon fill="none" stroke="black" points="578.5,-171.5 578.5,-228.5 668.5,-228.5 668.5,-171.5 578.5,-171.5"/>
<text text-anchor="middle" x="623.5" y="-216.5" font-family="Helvetica,sans-Serif" font-size="10.00">function&lt; void()&gt;</text>
<polyline fill="none" stroke="black" points="578.5,-209.5 668.5,-209.5 "/>
<text text-anchor="middle" x="623.5" y="-197.5" font-family="Helvetica,sans-Serif" font-size="10.00"> </text>
<polyline fill="none" stroke="black" points="578.5,-190.5 668.5,-190.5 "/>
<text text-anchor="middle" x="623.5" y="-178.5" font-family="Helvetica,sans-Serif" font-size="10.00"> </text>
</a>
</g>
</g>
<!-- Node6&#45;&gt;Node1 -->
<g id="edge5" class="edge">
<title>Node6&#45;&gt;Node1</title>
<path fill="none" stroke="#404040" d="M578.26,-175.21C575.31,-173.76 572.37,-172.34 569.5,-171 507.29,-141.83 435.35,-114.34 377.63,-93.72"/>
<polygon fill="none" stroke="#404040" points="377.59,-93.71 370.6,-95.47 366.29,-89.69 373.28,-87.93 377.59,-93.71"/>
<text text-anchor="middle" x="571" y="-139.5" font-family="Helvetica,sans-Serif" font-size="10.00"> +onConnectComplete</text>
</g>
</g>
</svg>
        <g id="navigator" transform="translate(0 0)" fill="#404254">
                <rect fill="#f2f5e9" fill-opacity="0.5" stroke="#606060" stroke-width=".5" x="0" y="0" width="60" height="60"/>
                <use id="zoomplus" xlink:href="#zoomPlus" x="17" y="9" onmousedown="handleZoom(evt,'in')"/>
                <use id="zoomminus" xlink:href="#zoomMin" x="42" y="9" onmousedown="handleZoom(evt,'out')"/>
                <use id="reset" xlink:href="#resetDef" x="30" y="36" onmousedown="handleReset()"/>
                <g id="arrowUp" xlink:href="#dirArrow" transform="translate(30 24)" onmousedown="handlePan(0,-1)">
                  <use xlink:href="#rim" fill="#404040">
                        <set attributeName="fill" to="#808080" begin="arrowUp.mouseover" end="arrowUp.mouseout"/>
                  </use>
                  <path fill="none" stroke="white" stroke-width="1.5" d="M0,-3.0v7 M-2.5,-0.5L0,-3.0L2.5,-0.5"/>
                </g>
                <g id="arrowRight" xlink:href="#dirArrow" transform="rotate(90) translate(36 -43)" onmousedown="handlePan(1,0)">
                  <use xlink:href="#rim" fill="#404040">
                        <set attributeName="fill" to="#808080" begin="arrowRight.mouseover" end="arrowRight.mouseout"/>
                  </use>
                  <path fill="none" stroke="white" stroke-width="1.5" d="M0,-3.0v7 M-2.5,-0.5L0,-3.0L2.5,-0.5"/>
                </g>
                <g id="arrowDown" xlink:href="#dirArrow" transform="rotate(180) translate(-30 -48)" onmousedown="handlePan(0,1)">
                  <use xlink:href="#rim" fill="#404040">
                        <set attributeName="fill" to="#808080" begin="arrowDown.mouseover" end="arrowDown.mouseout"/>
                  </use>
                  <path fill="none" stroke="white" stroke-width="1.5" d="M0,-3.0v7 M-2.5,-0.5L0,-3.0L2.5,-0.5"/>
                </g>
                <g id="arrowLeft" xlink:href="#dirArrow" transform="rotate(270) translate(-36 17)" onmousedown="handlePan(-1,0)">
                  <use xlink:href="#rim" fill="#404040">
                        <set attributeName="fill" to="#808080" begin="arrowLeft.mouseover" end="arrowLeft.mouseout"/>
                  </use>
                  <path fill="none" stroke="white" stroke-width="1.5" d="M0,-3.0v7 M-2.5,-0.5L0,-3.0L2.5,-0.5"/>
                </g>
        </g>
        <svg viewBox="0 0 15 15" width="100%" height="30px" preserveAspectRatio="xMaxYMin meet">
         <g id="arrow_out" transform="scale(0.3 0.3)">
          <a xlink:href="structRoar_1_1WebsocketClient_1_1Implementation__coll__graph_org.svg" target="_base">
           <rect id="button" ry="5" rx="5" y="6" x="6" height="38" width="38"
                fill="#f2f5e9" fill-opacity="0.5" stroke="#606060" stroke-width="1.0"/>
           <path id="arrow"
             d="M 11.500037,31.436501 C 11.940474,20.09759 22.043105,11.32322 32.158766,21.979434 L 37.068811,17.246167 C 37.068811,17.246167 37.088388,32 37.088388,32 L 22.160133,31.978069 C 22.160133,31.978069 26.997745,27.140456 26.997745,27.140456 C 18.528582,18.264221 13.291696,25.230495 11.500037,31.436501 z"
             style="fill:#404040;"/>
          </a>
         </g>
        </svg>
</svg>
