<?xml version="1.0" encoding="UTF-8" standalone="no"?>
<!DOCTYPE svg PUBLIC "-//W3C//DTD SVG 1.1//EN"
 "http://www.w3.org/Graphics/SVG/1.1/DTD/svg11.dtd">
<!-- Generated by graphviz version 2.44.1 (20211215.1903)
 -->
<!-- Title: Roar::Router::Implementation Pages: 1 -->
<svg width="626pt" height="204pt"
 viewBox="0.00 0.00 626.00 204.00" xmlns="http://www.w3.org/2000/svg" xmlns:xlink="http://www.w3.org/1999/xlink">
<g id="graph0" class="graph" transform="scale(1 1) rotate(0) translate(4 200)">
<title>Roar::Router::Implementation</title>
<!-- Node1 -->
<g id="node1" class="node">
<title>Node1</title>
<g id="a_node1"><a xlink:title=" ">
<polygon fill="#bfbfbf" stroke="black" points="131,-0.5 131,-79.5 277,-79.5 277,-0.5 131,-0.5"/>
<text text-anchor="middle" x="204" y="-67.5" font-family="Helvetica,sans-Serif" font-size="10.00">Roar::Router::Implementation</text>
<polyline fill="none" stroke="black" points="131,-60.5 277,-60.5 "/>
<text text-anchor="middle" x="204" y="-48.5" font-family="Helvetica,sans-Serif" font-size="10.00"> </text>
<polyline fill="none" stroke="black" points="131,-41.5 277,-41.5 "/>
<text text-anchor="start" x="139" y="-29.5" font-family="Helvetica,sans-Serif" font-size="10.00">+ Implementation()</text>
<text text-anchor="start" x="139" y="-18.5" font-family="Helvetica,sans-Serif" font-size="10.00">+ findRouteImpl()</text>
<text text-anchor="start" x="139" y="-7.5" font-family="Helvetica,sans-Serif" font-size="10.00">+ findRoute()</text>
</a>
</g>
</g>
<!-- Node2 -->
<g id="node2" class="node">
<title>Node2</title>
<g id="a_node2"><a xlink:title=" ">
<polygon fill="none" stroke="black" points="0,-138.5 0,-195.5 44,-195.5 44,-138.5 0,-138.5"/>
<text text-anchor="middle" x="22" y="-183.5" font-family="Helvetica,sans-Serif" font-size="10.00">mutex</text>
<polyline fill="none" stroke="black" points="0,-176.5 44,-176.5 "/>
<text text-anchor="middle" x="22" y="-164.5" font-family="Helvetica,sans-Serif" font-size="10.00"> </text>
<polyline fill="none" stroke="black" points="0,-157.5 44,-157.5 "/>
<text text-anchor="middle" x="22" y="-145.5" font-family="Helvetica,sans-Serif" font-size="10.00"> </text>
</a>
</g>
</g>
<!-- Node2&#45;&gt;Node1 -->
<g id="edge1" class="edge">
<title>Node2&#45;&gt;Node1</title>
<path fill="none" stroke="#404040" d="M44.32,-145.07C47.18,-142.61 50.12,-140.2 53,-138 76.72,-119.87 103.83,-101.72 128.48,-86.11"/>
<polygon fill="none" stroke="#404040" points="128.71,-85.96 131.67,-79.38 138.87,-79.58 135.92,-86.16 128.71,-85.96"/>
<text text-anchor="middle" x="142" y="-106.5" font-family="Helvetica,sans-Serif" font-size="10.00"> +routesMutex</text>
</g>
<!-- Node3 -->
<g id="node3" class="node">
<title>Node3</title>
<g id="a_node3"><a xlink:title=" ">
<polygon fill="none" stroke="black" points="62.5,-138.5 62.5,-195.5 345.5,-195.5 345.5,-138.5 62.5,-138.5"/>
<text text-anchor="middle" x="204" y="-183.5" font-family="Helvetica,sans-Serif" font-size="10.00">unordered_multimap&lt; boost::beast::http::verb, Roar::Route &gt;</text>
<polyline fill="none" stroke="black" points="62.5,-176.5 345.5,-176.5 "/>
<text text-anchor="middle" x="204" y="-164.5" font-family="Helvetica,sans-Serif" font-size="10.00"> </text>
<polyline fill="none" stroke="black" points="62.5,-157.5 345.5,-157.5 "/>
<text text-anchor="middle" x="204" y="-145.5" font-family="Helvetica,sans-Serif" font-size="10.00"> </text>
</a>
</g>
</g>
<!-- Node3&#45;&gt;Node1 -->
<g id="edge2" class="edge">
<title>Node3&#45;&gt;Node1</title>
<path fill="none" stroke="#404040" d="M204,-138.26C204,-124.64 204,-107.79 204,-91.96"/>
<polygon fill="none" stroke="#404040" points="204,-91.57 200,-85.57 204,-79.57 208,-85.57 204,-91.57"/>
<text text-anchor="middle" x="236.5" y="-112" font-family="Helvetica,sans-Serif" font-size="10.00"> +regexRoutes</text>
<text text-anchor="middle" x="236.5" y="-101" font-family="Helvetica,sans-Serif" font-size="10.00">+stringRoutes</text>
</g>
<!-- Node4 -->
<g id="node4" class="node">
<title>Node4</title>
<g id="a_node4"><a xlink:title=" ">
<polygon fill="none" stroke="black" points="364,-138.5 364,-195.5 618,-195.5 618,-138.5 364,-138.5"/>
<text text-anchor="middle" x="491" y="-183.5" font-family="Helvetica,sans-Serif" font-size="10.00">shared_ptr&lt; const Roar::StandardResponseProvider &gt;</text>
<polyline fill="none" stroke="black" points="364,-176.5 618,-176.5 "/>
<text text-anchor="middle" x="491" y="-164.5" font-family="Helvetica,sans-Serif" font-size="10.00"> </text>
<polyline fill="none" stroke="black" points="364,-157.5 618,-157.5 "/>
<text text-anchor="middle" x="491" y="-145.5" font-family="Helvetica,sans-Serif" font-size="10.00"> </text>
</a>
</g>
</g>
<!-- Node4&#45;&gt;Node1 -->
<g id="edge3" class="edge">
<title>Node4&#45;&gt;Node1</title>
<path fill="none" stroke="#404040" d="M427.66,-138.41C386.65,-120.55 332.78,-97.09 288.18,-77.66"/>
<polygon fill="none" stroke="#404040" points="288.06,-77.61 280.96,-78.88 277.05,-72.82 284.15,-71.55 288.06,-77.61"/>
<text text-anchor="middle" x="444.5" y="-106.5" font-family="Helvetica,sans-Serif" font-size="10.00"> +standardResponseProvider</text>
</g>
</g>
</svg>
