<?xml version="1.0" encoding="UTF-8" standalone="no"?>
<!DOCTYPE svg PUBLIC "-//W3C//DTD SVG 1.1//EN"
 "http://www.w3.org/Graphics/SVG/1.1/DTD/svg11.dtd">
<!-- Generated by graphviz version 2.44.1 (20211215.1903)
 -->
<!-- Title: Roar::RouteInfo&lt; RequestListenerT &gt; Pages: 1 -->
<svg width="687pt" height="392pt"
 viewBox="0.00 0.00 686.50 392.00" xmlns="http://www.w3.org/2000/svg" xmlns:xlink="http://www.w3.org/1999/xlink">
<g id="graph0" class="graph" transform="scale(1 1) rotate(0) translate(4 388)">
<title>Roar::RouteInfo&lt; RequestListenerT &gt;</title>
<!-- Node1 -->
<g id="node1" class="node">
<title>Node1</title>
<g id="a_node1"><a xlink:title=" ">
<polygon fill="#bfbfbf" stroke="black" points="288,-0.5 288,-57.5 470,-57.5 470,-0.5 288,-0.5"/>
<text text-anchor="middle" x="379" y="-45.5" font-family="Helvetica,sans-Serif" font-size="10.00">Roar::RouteInfo&lt; RequestListenerT &gt;</text>
<polyline fill="none" stroke="black" points="288,-38.5 470,-38.5 "/>
<text text-anchor="middle" x="379" y="-26.5" font-family="Helvetica,sans-Serif" font-size="10.00"> </text>
<polyline fill="none" stroke="black" points="288,-19.5 470,-19.5 "/>
<text text-anchor="middle" x="379" y="-7.5" font-family="Helvetica,sans-Serif" font-size="10.00"> </text>
</a>
</g>
</g>
<!-- Node2 -->
<g id="node2" class="node">
<title>Node2</title>
<g id="a_node2"><a xlink:href="structRoar_1_1RouteInfoBase.html" target="_top" xlink:title="This class is what is used in ROAR_GET, ROAR_PUT, ... requests All options you can set for routes beh...">
<polygon fill="none" stroke="black" points="0,-105.5 0,-162.5 204,-162.5 204,-105.5 0,-105.5"/>
<text text-anchor="middle" x="102" y="-150.5" font-family="Helvetica,sans-Serif" font-size="10.00">Roar::RouteInfoBase&lt; RequestListenerT &gt;</text>
<polyline fill="none" stroke="black" points="0,-143.5 204,-143.5 "/>
<text text-anchor="middle" x="102" y="-131.5" font-family="Helvetica,sans-Serif" font-size="10.00"> </text>
<polyline fill="none" stroke="black" points="0,-124.5 204,-124.5 "/>
<text text-anchor="middle" x="102" y="-112.5" font-family="Helvetica,sans-Serif" font-size="10.00"> </text>
</a>
</g>
</g>
<!-- Node2&#45;&gt;Node1 -->
<g id="edge1" class="edge">
<title>Node2&#45;&gt;Node1</title>
<path fill="none" stroke="midnightblue" d="M185.7,-101.88C223.55,-87.8 267.9,-71.31 304.56,-57.68"/>
<polygon fill="none" stroke="midnightblue" points="184.38,-98.63 176.23,-105.4 186.82,-105.19 184.38,-98.63"/>
</g>
<!-- Node3 -->
<g id="node3" class="node">
<title>Node3</title>
<g id="a_node3"><a xlink:title=" ">
<polygon fill="none" stroke="black" points="59.5,-210.5 59.5,-267.5 94.5,-267.5 94.5,-210.5 59.5,-210.5"/>
<text text-anchor="middle" x="77" y="-255.5" font-family="Helvetica,sans-Serif" font-size="10.00">char</text>
<polyline fill="none" stroke="black" points="59.5,-248.5 94.5,-248.5 "/>
<text text-anchor="middle" x="77" y="-236.5" font-family="Helvetica,sans-Serif" font-size="10.00"> </text>
<polyline fill="none" stroke="black" points="59.5,-229.5 94.5,-229.5 "/>
<text text-anchor="middle" x="77" y="-217.5" font-family="Helvetica,sans-Serif" font-size="10.00"> </text>
</a>
</g>
</g>
<!-- Node3&#45;&gt;Node2 -->
<g id="edge2" class="edge">
<title>Node3&#45;&gt;Node2</title>
<path fill="none" stroke="#404040" d="M83.7,-210.4C86.36,-199.43 89.47,-186.6 92.37,-174.67"/>
<polygon fill="none" stroke="#404040" points="92.45,-174.34 89.98,-167.57 95.28,-162.68 97.75,-169.45 92.45,-174.34"/>
<text text-anchor="middle" x="105" y="-184" font-family="Helvetica,sans-Serif" font-size="10.00"> +path</text>
</g>
<!-- Node4 -->
<g id="node4" class="node">
<title>Node4</title>
<g id="a_node4"><a xlink:href="structRoar_1_1RouteOptions.html" target="_top" xlink:title="Options that modify the server behavior for a given route.">
<polygon fill="none" stroke="black" points="113,-210.5 113,-267.5 217,-267.5 217,-210.5 113,-210.5"/>
<text text-anchor="middle" x="165" y="-255.5" font-family="Helvetica,sans-Serif" font-size="10.00">Roar::RouteOptions</text>
<polyline fill="none" stroke="black" points="113,-248.5 217,-248.5 "/>
<text text-anchor="middle" x="165" y="-236.5" font-family="Helvetica,sans-Serif" font-size="10.00"> </text>
<polyline fill="none" stroke="black" points="113,-229.5 217,-229.5 "/>
<text text-anchor="middle" x="165" y="-217.5" font-family="Helvetica,sans-Serif" font-size="10.00"> </text>
</a>
</g>
</g>
<!-- Node4&#45;&gt;Node2 -->
<g id="edge3" class="edge">
<title>Node4&#45;&gt;Node2</title>
<path fill="none" stroke="#404040" d="M148.12,-210.4C141.13,-198.97 132.9,-185.52 125.35,-173.17"/>
<polygon fill="none" stroke="#404040" points="125.19,-172.92 118.65,-169.88 118.93,-162.68 125.47,-165.71 125.19,-172.92"/>
<text text-anchor="middle" x="168.5" y="-184" font-family="Helvetica,sans-Serif" font-size="10.00"> +routeOptions</text>
</g>
<!-- Node5 -->
<g id="node5" class="node">
<title>Node5</title>
<g id="a_node5"><a xlink:title=" ">
<polygon fill="none" stroke="black" points="91.5,-326.5 91.5,-383.5 126.5,-383.5 126.5,-326.5 91.5,-326.5"/>
<text text-anchor="middle" x="109" y="-371.5" font-family="Helvetica,sans-Serif" font-size="10.00">bool</text>
<polyline fill="none" stroke="black" points="91.5,-364.5 126.5,-364.5 "/>
<text text-anchor="middle" x="109" y="-352.5" font-family="Helvetica,sans-Serif" font-size="10.00"> </text>
<polyline fill="none" stroke="black" points="91.5,-345.5 126.5,-345.5 "/>
<text text-anchor="middle" x="109" y="-333.5" font-family="Helvetica,sans-Serif" font-size="10.00"> </text>
</a>
</g>
</g>
<!-- Node5&#45;&gt;Node4 -->
<g id="edge4" class="edge">
<title>Node5&#45;&gt;Node4</title>
<path fill="none" stroke="#404040" d="M112.37,-326.47C114.7,-313.66 118.59,-298.52 125,-286 126.49,-283.1 128.2,-280.23 130.05,-277.42"/>
<polygon fill="none" stroke="#404040" points="130.15,-277.28 130.5,-270.08 137.28,-267.62 136.93,-274.83 130.15,-277.28"/>
<text text-anchor="middle" x="162" y="-300" font-family="Helvetica,sans-Serif" font-size="10.00"> +allowUnsecure</text>
<text text-anchor="middle" x="162" y="-289" font-family="Helvetica,sans-Serif" font-size="10.00">+expectUpgrade</text>
</g>
<!-- Node6 -->
<g id="node6" class="node">
<title>Node6</title>
<g id="a_node6"><a xlink:title=" ">
<polygon fill="none" stroke="black" points="145,-326.5 145,-383.5 297,-383.5 297,-326.5 145,-326.5"/>
<text text-anchor="middle" x="221" y="-371.5" font-family="Helvetica,sans-Serif" font-size="10.00">optional&lt; Roar::CorsSettings &gt;</text>
<polyline fill="none" stroke="black" points="145,-364.5 297,-364.5 "/>
<text text-anchor="middle" x="221" y="-352.5" font-family="Helvetica,sans-Serif" font-size="10.00"> </text>
<polyline fill="none" stroke="black" points="145,-345.5 297,-345.5 "/>
<text text-anchor="middle" x="221" y="-333.5" font-family="Helvetica,sans-Serif" font-size="10.00"> </text>
</a>
</g>
</g>
<!-- Node6&#45;&gt;Node4 -->
<g id="edge5" class="edge">
<title>Node6&#45;&gt;Node4</title>
<path fill="none" stroke="#404040" d="M214.27,-326.39C210.62,-313.7 205.52,-298.69 199,-286 197.61,-283.29 196.07,-280.58 194.42,-277.89"/>
<polygon fill="none" stroke="#404040" points="194.35,-277.78 187.7,-274.98 187.73,-267.77 194.38,-270.57 194.35,-277.78"/>
<text text-anchor="middle" x="223" y="-294.5" font-family="Helvetica,sans-Serif" font-size="10.00"> +cors</text>
</g>
<!-- Node7 -->
<g id="node7" class="node">
<title>Node7</title>
<g id="a_node7"><a xlink:title=" ">
<polygon fill="none" stroke="black" points="222,-105.5 222,-162.5 392,-162.5 392,-105.5 222,-105.5"/>
<text text-anchor="middle" x="307" y="-150.5" font-family="Helvetica,sans-Serif" font-size="10.00">optional&lt; boost::beast::http::verb &gt;</text>
<polyline fill="none" stroke="black" points="222,-143.5 392,-143.5 "/>
<text text-anchor="middle" x="307" y="-131.5" font-family="Helvetica,sans-Serif" font-size="10.00"> </text>
<polyline fill="none" stroke="black" points="222,-124.5 392,-124.5 "/>
<text text-anchor="middle" x="307" y="-112.5" font-family="Helvetica,sans-Serif" font-size="10.00"> </text>
</a>
</g>
</g>
<!-- Node7&#45;&gt;Node1 -->
<g id="edge6" class="edge">
<title>Node7&#45;&gt;Node1</title>
<path fill="none" stroke="#404040" d="M326.29,-105.4C334.37,-93.85 343.88,-80.25 352.58,-67.8"/>
<polygon fill="none" stroke="#404040" points="352.78,-67.51 352.94,-60.3 359.65,-57.68 359.49,-64.89 352.78,-67.51"/>
<text text-anchor="middle" x="360" y="-79" font-family="Helvetica,sans-Serif" font-size="10.00"> +verb</text>
</g>
<!-- Node8 -->
<g id="node8" class="node">
<title>Node8</title>
<g id="a_node8"><a xlink:title=" ">
<polygon fill="none" stroke="black" points="410,-105.5 410,-162.5 494,-162.5 494,-105.5 410,-105.5"/>
<text text-anchor="middle" x="452" y="-150.5" font-family="Helvetica,sans-Serif" font-size="10.00">RoutePathType</text>
<polyline fill="none" stroke="black" points="410,-143.5 494,-143.5 "/>
<text text-anchor="middle" x="452" y="-131.5" font-family="Helvetica,sans-Serif" font-size="10.00"> </text>
<polyline fill="none" stroke="black" points="410,-124.5 494,-124.5 "/>
<text text-anchor="middle" x="452" y="-112.5" font-family="Helvetica,sans-Serif" font-size="10.00"> </text>
</a>
</g>
</g>
<!-- Node8&#45;&gt;Node1 -->
<g id="edge7" class="edge">
<title>Node8&#45;&gt;Node1</title>
<path fill="none" stroke="#404040" d="M432.44,-105.4C424.25,-93.85 414.61,-80.25 405.79,-67.8"/>
<polygon fill="none" stroke="#404040" points="405.56,-67.47 398.82,-64.89 398.62,-57.68 405.35,-60.26 405.56,-67.47"/>
<text text-anchor="middle" x="442.5" y="-79" font-family="Helvetica,sans-Serif" font-size="10.00"> +pathType</text>
</g>
<!-- Node9 -->
<g id="node9" class="node">
<title>Node9</title>
<g id="a_node9"><a xlink:title=" ">
<polygon fill="none" stroke="black" points="511.5,-105.5 511.5,-162.5 678.5,-162.5 678.5,-105.5 511.5,-105.5"/>
<text text-anchor="middle" x="595" y="-150.5" font-family="Helvetica,sans-Serif" font-size="10.00">HandlerType&lt; RequestListenerT &gt;</text>
<polyline fill="none" stroke="black" points="511.5,-143.5 678.5,-143.5 "/>
<text text-anchor="middle" x="595" y="-131.5" font-family="Helvetica,sans-Serif" font-size="10.00"> </text>
<polyline fill="none" stroke="black" points="511.5,-124.5 678.5,-124.5 "/>
<text text-anchor="middle" x="595" y="-112.5" font-family="Helvetica,sans-Serif" font-size="10.00"> </text>
</a>
</g>
</g>
<!-- Node9&#45;&gt;Node1 -->
<g id="edge8" class="edge">
<title>Node9&#45;&gt;Node1</title>
<path fill="none" stroke="#404040" d="M537.12,-105.4C509.76,-92.35 476.88,-76.68 448.22,-63.01"/>
<polygon fill="none" stroke="#404040" points="447.88,-62.84 440.74,-63.87 437.04,-57.68 444.18,-56.65 447.88,-62.84"/>
<text text-anchor="middle" x="513.5" y="-79" font-family="Helvetica,sans-Serif" font-size="10.00"> +handler</text>
</g>
</g>
</svg>
