<?xml version="1.0" encoding="UTF-8" standalone="no"?>
<!DOCTYPE svg PUBLIC "-//W3C//DTD SVG 1.1//EN"
 "http://www.w3.org/Graphics/SVG/1.1/DTD/svg11.dtd">
<!-- Generated by graphviz version 8.1.0 (0)
 -->
<!-- Title: Roar::Url::Host Pages: 1 -->
<svg width="346pt" height="164pt"
 viewBox="0.00 0.00 346.00 164.00" xmlns="http://www.w3.org/2000/svg" xmlns:xlink="http://www.w3.org/1999/xlink">

<svg id="main" version="1.1" xmlns="http://www.w3.org/2000/svg" xmlns:xlink="http://www.w3.org/1999/xlink" xml:space="preserve" onload="init(evt)">
<style type="text/css"><![CDATA[
.node, .edge {opacity: 0.7;}
.node.selected, .edge.selected {opacity: 1;}
.edge:hover path { stroke: red; }
.edge:hover polygon { stroke: red; fill: red; }
]]></style>
<script type="application/ecmascript" xlink:href="svg.min.js"/>
<svg id="graph" class="graph">
<g id="graph0" class="graph" transform="scale(1 1) rotate(0) translate(4 160)">
<title>Roar::Url::Host</title>
<!-- Node1 -->
<g id="Node000001" class="node">
<title>Node1</title>
<g id="a_Node000001"><a xlink:title=" ">
<polygon fill="#999999" stroke="none" points="202.5,-68 126.5,-68 126.5,0 202.5,0 202.5,-68"/>
<text text-anchor="start" x="131.12" y="-54.5" font-family="Helvetica,sans-Serif" font-size="10.00">Roar::Url::Host</text>
<text text-anchor="start" x="163" y="-38.5" font-family="Helvetica,sans-Serif" font-size="10.00"> </text>
<text text-anchor="start" x="132" y="-22.5" font-family="Helvetica,sans-Serif" font-size="10.00">+</text>
<text text-anchor="start" x="143.5" y="-22.5" font-family="Helvetica,sans-Serif" font-size="10.00">as_variant()</text>
<text text-anchor="start" x="132" y="-6.5" font-family="Helvetica,sans-Serif" font-size="10.00">+</text>
<text text-anchor="start" x="143.5" y="-6.5" font-family="Helvetica,sans-Serif" font-size="10.00">as_variant()</text>
<polygon fill="#666666" stroke="#666666" points="126.5,-50 126.5,-50 202.5,-50 202.5,-50 126.5,-50"/>
<polygon fill="#666666" stroke="#666666" points="126.5,-34 126.5,-34 202.5,-34 202.5,-34 126.5,-34"/>
<polygon fill="none" stroke="#666666" points="126.5,0 126.5,-68 202.5,-68 202.5,0 126.5,0"/>
</a>
</g>
</g>
<!-- Node2 -->
<g id="Node000002" class="node">
<title>Node2</title>
<g id="a_Node000002"><a xlink:title=" ">
<polygon fill="white" stroke="none" points="151,-156 0,-156 0,-104 151,-104 151,-156"/>
<text text-anchor="start" x="4.62" y="-142.5" font-family="Helvetica,sans-Serif" font-size="10.00">boost::spirit::x3::position_tagged</text>
<text text-anchor="start" x="74" y="-126.5" font-family="Helvetica,sans-Serif" font-size="10.00"> </text>
<text text-anchor="start" x="74" y="-110.5" font-family="Helvetica,sans-Serif" font-size="10.00"> </text>
<polygon fill="#666666" stroke="#666666" points="0,-138 0,-138 151,-138 151,-138 0,-138"/>
<polygon fill="#666666" stroke="#666666" points="0,-122 0,-122 151,-122 151,-122 0,-122"/>
<polygon fill="none" stroke="#666666" points="0,-104 0,-156 151,-156 151,-104 0,-104"/>
</a>
</g>
</g>
<!-- Node2&#45;&gt;Node1 -->
<g id="edge1_Node000001_Node000002" class="edge">
<title>Node2&#45;&gt;Node1</title>
<g id="a_edge1_Node000001_Node000002"><a xlink:title=" ">
<path fill="none" stroke="#63b8ff" d="M106.38,-96.39C115.18,-87.09 124.77,-76.97 133.57,-67.67"/>
<polygon fill="none" stroke="#63b8ff" points="104.22,-93.63 99.88,-103.3 109.3,-98.45 104.22,-93.63"/>
</a>
</g>
</g>
<!-- Node3 -->
<g id="Node000003" class="node">
<title>Node3</title>
<g id="a_Node000003"><a xlink:title=" ">
<polygon fill="white" stroke="none" points="338,-156 169,-156 169,-104 338,-104 338,-156"/>
<text text-anchor="start" x="173.62" y="-142.5" font-family="Helvetica,sans-Serif" font-size="10.00">std::variant&lt; std::string, Ipv4, Ipv6 &gt;</text>
<text text-anchor="start" x="252" y="-126.5" font-family="Helvetica,sans-Serif" font-size="10.00"> </text>
<text text-anchor="start" x="252" y="-110.5" font-family="Helvetica,sans-Serif" font-size="10.00"> </text>
<polygon fill="#666666" stroke="#666666" points="169,-138 169,-138 338,-138 338,-138 169,-138"/>
<polygon fill="#666666" stroke="#666666" points="169,-122 169,-122 338,-122 338,-122 169,-122"/>
<polygon fill="none" stroke="#666666" points="169,-104 169,-156 338,-156 338,-104 169,-104"/>
</a>
</g>
</g>
<!-- Node3&#45;&gt;Node1 -->
<g id="edge2_Node000001_Node000003" class="edge">
<title>Node3&#45;&gt;Node1</title>
<g id="a_edge2_Node000001_Node000003"><a xlink:title=" ">
<path fill="none" stroke="#63b8ff" d="M222.62,-96.39C213.82,-87.09 204.23,-76.97 195.43,-67.67"/>
<polygon fill="none" stroke="#63b8ff" points="219.7,-98.45 229.12,-103.3 224.78,-93.63 219.7,-98.45"/>
</a>
</g>
</g>
</g>
</svg>
</svg>

<style type='text/css'>
<![CDATA[
[data-mouse-over-selected='false'] { opacity: 0.7; }
[data-mouse-over-selected='true']  { opacity: 1.0; }
]]>
</style>
<script type="application/ecmascript"><![CDATA[
document.addEventListener('DOMContentLoaded', (event) => {
  highlightEdges();
  highlightAdjacentNodes();
});
]]></script>
</svg>
