<?xml version="1.0" encoding="UTF-8" standalone="no"?>
<!DOCTYPE svg PUBLIC "-//W3C//DTD SVG 1.1//EN"
 "http://www.w3.org/Graphics/SVG/1.1/DTD/svg11.dtd">
<!-- Generated by graphviz version 8.1.0 (0)
 -->
<!-- Title: src/roar/url/url.cpp Pages: 1 -->
<!--zoomable 252 -->

<svg id="main" version="1.1" xmlns="http://www.w3.org/2000/svg" xmlns:xlink="http://www.w3.org/1999/xlink" xml:space="preserve" onload="init(evt)">
<style type="text/css"><![CDATA[
.node, .edge {opacity: 0.7;}
.node.selected, .edge.selected {opacity: 1;}
.edge:hover path { stroke: red; }
.edge:hover polygon { stroke: red; fill: red; }
]]></style>

<defs>
  <circle id="rim" cx="0" cy="0" r="7"/>
  <circle id="rim2" cx="0" cy="0" r="3.5"/>
  <g id="zoomPlus">
    <use xlink:href="#rim" fill="#404040"><set attributeName="fill" to="#808080" begin="zoomplus.mouseover" end="zoomplus.mouseout"/></use>
    <path d="M-4,0h8M0,-4v8" fill="none" stroke="white" stroke-width="1.5" pointer-events="none"/>
  </g>
  <g id="zoomMin">
    <use xlink:href="#rim" fill="#404040"><set attributeName="fill" to="#808080" begin="zoomminus.mouseover" end="zoomminus.mouseout"/></use>
    <path d="M-4,0h8" fill="none" stroke="white" stroke-width="1.5" pointer-events="none"/>
  </g>
  <g id="arrowUp" transform="translate(30 24)">
    <use xlink:href="#rim"/>
    <path pointer-events="none" fill="none" stroke="white" stroke-width="1.5" d="M0,-3.0v7 M-2.5,-0.5L0,-3.0L2.5,-0.5"/>
  </g>
  <g id="arrowRight" transform="rotate(90) translate(36 -43)">
    <use xlink:href="#rim"/>
    <path pointer-events="none" fill="none" stroke="white" stroke-width="1.5" d="M0,-3.0v7 M-2.5,-0.5L0,-3.0L2.5,-0.5"/>
  </g>
  <g id="arrowDown" transform="rotate(180) translate(-30 -48)">
    <use xlink:href="#rim"/>
    <path pointer-events="none" fill="none" stroke="white" stroke-width="1.5" d="M0,-3.0v7 M-2.5,-0.5L0,-3.0L2.5,-0.5"/>
  </g>
  <g id="arrowLeft" transform="rotate(270) translate(-36 17)">
    <use xlink:href="#rim"/>
    <path pointer-events="none" fill="none" stroke="white" stroke-width="1.5" d="M0,-3.0v7 M-2.5,-0.5L0,-3.0L2.5,-0.5"/>
  </g>
  <g id="resetDef">
    <use xlink:href="#rim2" fill="#404040"><set attributeName="fill" to="#808080" begin="reset.mouseover" end="reset.mouseout"/></use>
  </g>
</defs>
<script type="application/ecmascript">
var viewWidth = 1683;
var viewHeight = 252;
var sectionId = 'dynsection-0';
</script>
<script type="application/ecmascript" xlink:href="svg.min.js"/>
<svg id="graph" class="graph">
<g id="viewport">
<title>src/roar/url/url.cpp</title>
<!-- Node1 -->
<g id="Node000001" class="node">
<title>Node1</title>
<g id="a_Node000001"><a xlink:title=" ">
<polygon fill="#999999" stroke="#666666" points="1165.12,-244 1070.38,-244 1070.38,-224 1165.12,-224 1165.12,-244"/>
<text text-anchor="middle" x="1117.75" y="-230.5" font-family="Helvetica,sans-Serif" font-size="10.00">src/roar/url/url.cpp</text>
</a>
</g>
</g>
<!-- Node2 -->
<g id="Node000002" class="node">
<title>Node2</title>
<g id="a_Node000002"><a xlink:href="url_8hpp.html" target="_top" xlink:title=" ">
<polygon fill="white" stroke="#666666" points="231.88,-132 153.62,-132 153.62,-112 231.88,-112 231.88,-132"/>
<text text-anchor="middle" x="192.75" y="-118.5" font-family="Helvetica,sans-Serif" font-size="10.00">roar/url/url.hpp</text>
</a>
</g>
</g>
<!-- Node1&#45;&gt;Node2 -->
<g id="edge1_Node000001_Node000002" class="edge">
<title>Node1&#45;&gt;Node2</title>
<g id="a_edge1_Node000001_Node000002"><a xlink:title=" ">
<path fill="none" stroke="#63b8ff" d="M1070.2,-232.61C879.01,-230.8 175.1,-221.87 142.75,-188 127.71,-172.25 148.5,-152.11 167.66,-138.46"/>
<polygon fill="#63b8ff" stroke="#63b8ff" points="169.44,-140.81 175.78,-132.32 165.53,-135 169.44,-140.81"/>
</a>
</g>
</g>
<!-- Node13 -->
<g id="Node000013" class="node">
<title>Node13</title>
<g id="a_Node000013"><a xlink:title=" ">
<polygon fill="#e0e0e0" stroke="#999999" points="587.12,-76 504.38,-76 504.38,-56 587.12,-56 587.12,-76"/>
<text text-anchor="middle" x="545.75" y="-62.5" font-family="Helvetica,sans-Serif" font-size="10.00">unordered_map</text>
</a>
</g>
</g>
<!-- Node1&#45;&gt;Node13 -->
<g id="edge46_Node000001_Node000013" class="edge">
<title>Node1&#45;&gt;Node13</title>
<g id="a_edge46_Node000001_Node000013"><a xlink:title=" ">
<path fill="none" stroke="#63b8ff" d="M1069.91,-232.52C882.48,-230.43 206.87,-220.64 175.75,-188 169.62,-181.57 170.36,-175.06 175.75,-168 195.27,-142.43 396.18,-97.91 493.48,-77.62"/>
<polygon fill="#63b8ff" stroke="#63b8ff" points="493.9,-80.9 502.98,-75.44 492.47,-74.05 493.9,-80.9"/>
</a>
</g>
</g>
<!-- Node15 -->
<g id="Node000015" class="node">
<title>Node15</title>
<g id="a_Node000015"><a xlink:title=" ">
<polygon fill="#e0e0e0" stroke="#999999" points="328.5,-188 185,-188 185,-168 328.5,-168 328.5,-188"/>
<text text-anchor="middle" x="256.75" y="-174.5" font-family="Helvetica,sans-Serif" font-size="10.00">boost/fusion/include/at_c.hpp</text>
</a>
</g>
</g>
<!-- Node1&#45;&gt;Node15 -->
<g id="edge20_Node000001_Node000015" class="edge">
<title>Node1&#45;&gt;Node15</title>
<g id="a_edge20_Node000001_Node000015"><a xlink:title=" ">
<path fill="none" stroke="#63b8ff" d="M1070.07,-231C948.63,-225.74 617.79,-210.36 342.75,-188 341.77,-187.92 340.78,-187.84 339.79,-187.76"/>
<polygon fill="#63b8ff" stroke="#63b8ff" points="340.26,-184.2 329.99,-186.8 339.64,-191.17 340.26,-184.2"/>
</a>
</g>
</g>
<!-- Node16 -->
<g id="Node000016" class="node">
<title>Node16</title>
<g id="a_Node000016"><a xlink:title=" ">
<polygon fill="#e0e0e0" stroke="#999999" points="955.38,-76 832.12,-76 832.12,-56 955.38,-56 955.38,-76"/>
<text text-anchor="middle" x="893.75" y="-62.5" font-family="Helvetica,sans-Serif" font-size="10.00">boost/spirit/home/x3.hpp</text>
</a>
</g>
</g>
<!-- Node1&#45;&gt;Node16 -->
<g id="edge21_Node000001_Node000016" class="edge">
<title>Node1&#45;&gt;Node16</title>
<g id="a_edge21_Node000001_Node000016"><a xlink:title=" ">
<path fill="none" stroke="#63b8ff" d="M1114.94,-223.95C1110.09,-209.84 1098.8,-182.69 1079.75,-168 1032.62,-131.65 1001.13,-163.69 950.75,-132 931.76,-120.05 915.51,-99.89 905.28,-85.19"/>
<polygon fill="#63b8ff" stroke="#63b8ff" points="907.65,-83.43 899.19,-77.04 901.82,-87.31 907.65,-83.43"/>
</a>
</g>
</g>
<!-- Node17 -->
<g id="Node000017" class="node">
<title>Node17</title>
<g id="a_Node000017"><a xlink:title=" ">
<polygon fill="#e0e0e0" stroke="#999999" points="668.25,-188 385.25,-188 385.25,-168 668.25,-168 668.25,-188"/>
<text text-anchor="middle" x="526.75" y="-174.5" font-family="Helvetica,sans-Serif" font-size="10.00">boost/spirit/home/x3/support/utility/annotate_on_success.hpp</text>
</a>
</g>
</g>
<!-- Node1&#45;&gt;Node17 -->
<g id="edge22_Node000001_Node000017" class="edge">
<title>Node1&#45;&gt;Node17</title>
<g id="a_edge22_Node000001_Node000017"><a xlink:title=" ">
<path fill="none" stroke="#63b8ff" d="M1069.89,-228.63C977.27,-220.16 771.25,-201.34 641.24,-189.46"/>
<polygon fill="#63b8ff" stroke="#63b8ff" points="641.74,-185.9 631.47,-188.48 641.11,-192.87 641.74,-185.9"/>
</a>
</g>
</g>
<!-- Node18 -->
<g id="Node000018" class="node">
<title>Node18</title>
<g id="a_Node000018"><a xlink:title=" ">
<polygon fill="#e0e0e0" stroke="#999999" points="936.75,-188 686.75,-188 686.75,-168 936.75,-168 936.75,-188"/>
<text text-anchor="middle" x="811.75" y="-174.5" font-family="Helvetica,sans-Serif" font-size="10.00">boost/spirit/home/x3/support/utility/error_reporting.hpp</text>
</a>
</g>
</g>
<!-- Node1&#45;&gt;Node18 -->
<g id="edge23_Node000001_Node000018" class="edge">
<title>Node1&#45;&gt;Node18</title>
<g id="a_edge23_Node000001_Node000018"><a xlink:title=" ">
<path fill="none" stroke="#63b8ff" d="M1069.94,-224.56C1017.72,-215.35 933.81,-200.54 875.9,-190.32"/>
<polygon fill="#63b8ff" stroke="#63b8ff" points="876.86,-186.76 866.4,-188.47 875.64,-193.65 876.86,-186.76"/>
</a>
</g>
</g>
<!-- Node19 -->
<g id="Node000019" class="node">
<title>Node19</title>
<g id="a_Node000019"><a xlink:href="parser_2ipv4_8hpp.html" target="_top" xlink:title=" ">
<polygon fill="white" stroke="#666666" points="723.62,-132 607.88,-132 607.88,-112 723.62,-112 723.62,-132"/>
<text text-anchor="middle" x="665.75" y="-118.5" font-family="Helvetica,sans-Serif" font-size="10.00">roar/url/parser/ipv4.hpp</text>
</a>
</g>
</g>
<!-- Node1&#45;&gt;Node19 -->
<g id="edge24_Node000001_Node000019" class="edge">
<title>Node1&#45;&gt;Node19</title>
<g id="a_edge24_Node000001_Node000019"><a xlink:title=" ">
<path fill="none" stroke="#63b8ff" d="M1069.98,-231.89C909.68,-227.91 399.59,-213.33 375.75,-188 369.66,-181.53 369.97,-174.75 375.75,-168 403.63,-135.46 520.1,-126.25 596.69,-123.77"/>
<polygon fill="#63b8ff" stroke="#63b8ff" points="596.79,-127.23 606.68,-123.45 596.58,-120.24 596.79,-127.23"/>
</a>
</g>
</g>
<!-- Node20 -->
<g id="Node000020" class="node">
<title>Node20</title>
<g id="a_Node000020"><a xlink:href="parser_2ipv6_8hpp.html" target="_top" xlink:title=" ">
<polygon fill="white" stroke="#666666" points="1070.62,-188 954.88,-188 954.88,-168 1070.62,-168 1070.62,-188"/>
<text text-anchor="middle" x="1012.75" y="-174.5" font-family="Helvetica,sans-Serif" font-size="10.00">roar/url/parser/ipv6.hpp</text>
</a>
</g>
</g>
<!-- Node1&#45;&gt;Node20 -->
<g id="edge27_Node000001_Node000020" class="edge">
<title>Node1&#45;&gt;Node20</title>
<g id="a_edge27_Node000001_Node000020"><a xlink:title=" ">
<path fill="none" stroke="#63b8ff" d="M1099.46,-223.59C1083.3,-215.28 1059.48,-203.03 1040.89,-193.47"/>
<polygon fill="#63b8ff" stroke="#63b8ff" points="1042.68,-189.94 1032.18,-188.48 1039.47,-196.17 1042.68,-189.94"/>
</a>
</g>
</g>
<!-- Node21 -->
<g id="Node000021" class="node">
<title>Node21</title>
<g id="a_Node000021"><a xlink:href="concat__containers_8hpp.html" target="_top" xlink:title=" ">
<polygon fill="white" stroke="#666666" points="1119.75,-132 959.75,-132 959.75,-112 1119.75,-112 1119.75,-132"/>
<text text-anchor="middle" x="1039.75" y="-118.5" font-family="Helvetica,sans-Serif" font-size="10.00">roar/utility/concat_containers.hpp</text>
</a>
</g>
</g>
<!-- Node1&#45;&gt;Node21 -->
<g id="edge35_Node000001_Node000021" class="edge">
<title>Node1&#45;&gt;Node21</title>
<g id="a_edge35_Node000001_Node000021"><a xlink:title=" ">
<path fill="none" stroke="#63b8ff" d="M1119.49,-223.81C1121.52,-210.46 1123.36,-185.39 1112.75,-168 1104.45,-154.4 1090.34,-144.3 1076.71,-137.16"/>
<polygon fill="#63b8ff" stroke="#63b8ff" points="1078.5,-133.66 1067.97,-132.47 1075.47,-139.96 1078.5,-133.66"/>
</a>
</g>
</g>
<!-- Node22 -->
<g id="Node000022" class="node">
<title>Node22</title>
<g id="a_Node000022"><a xlink:title=" ">
<polygon fill="#e0e0e0" stroke="#999999" points="1147.75,-76 1101.75,-76 1101.75,-56 1147.75,-56 1147.75,-76"/>
<text text-anchor="middle" x="1124.75" y="-62.5" font-family="Helvetica,sans-Serif" font-size="10.00">iterator</text>
</a>
</g>
</g>
<!-- Node1&#45;&gt;Node22 -->
<g id="edge44_Node000001_Node000022" class="edge">
<title>Node1&#45;&gt;Node22</title>
<g id="a_edge44_Node000001_Node000022"><a xlink:title=" ">
<path fill="none" stroke="#63b8ff" d="M1121.34,-223.51C1124.53,-214.52 1128.97,-200.56 1130.75,-188 1135.74,-152.73 1131.5,-111.16 1128.06,-87.07"/>
<polygon fill="#63b8ff" stroke="#63b8ff" points="1131.41,-86.82 1126.43,-77.47 1124.49,-87.88 1131.41,-86.82"/>
</a>
</g>
</g>
<!-- Node23 -->
<g id="Node000023" class="node">
<title>Node23</title>
<g id="a_Node000023"><a xlink:href="encode_8hpp.html" target="_top" xlink:title=" ">
<polygon fill="white" stroke="#666666" points="1444.38,-132 1345.12,-132 1345.12,-112 1444.38,-112 1444.38,-132"/>
<text text-anchor="middle" x="1394.75" y="-118.5" font-family="Helvetica,sans-Serif" font-size="10.00">roar/url/encode.hpp</text>
</a>
</g>
</g>
<!-- Node1&#45;&gt;Node23 -->
<g id="edge33_Node000001_Node000023" class="edge">
<title>Node1&#45;&gt;Node23</title>
<g id="a_edge33_Node000001_Node000023"><a xlink:title=" ">
<path fill="none" stroke="#63b8ff" d="M1138.74,-223.56C1167.91,-210.55 1222.48,-186.6 1269.75,-168 1298.86,-156.55 1332.21,-144.6 1357.14,-135.9"/>
<polygon fill="#63b8ff" stroke="#63b8ff" points="1357.97,-138.96 1366.27,-132.37 1355.67,-132.35 1357.97,-138.96"/>
</a>
</g>
</g>
<!-- Node24 -->
<g id="Node000024" class="node">
<title>Node24</title>
<g id="a_Node000024"><a xlink:href="demangle_8hpp.html" target="_top" xlink:title=" ">
<polygon fill="white" stroke="#666666" points="1401,-188 1278.5,-188 1278.5,-168 1401,-168 1401,-188"/>
<text text-anchor="middle" x="1339.75" y="-174.5" font-family="Helvetica,sans-Serif" font-size="10.00">roar/utility/demangle.hpp</text>
</a>
</g>
</g>
<!-- Node1&#45;&gt;Node24 -->
<g id="edge36_Node000001_Node000024" class="edge">
<title>Node1&#45;&gt;Node24</title>
<g id="a_edge36_Node000001_Node000024"><a xlink:title=" ">
<path fill="none" stroke="#63b8ff" d="M1156.67,-223.53C1193.81,-214.5 1249.9,-200.85 1290.21,-191.05"/>
<polygon fill="#63b8ff" stroke="#63b8ff" points="1290.98,-194.22 1299.87,-188.46 1289.33,-187.42 1290.98,-194.22"/>
</a>
</g>
</g>
<!-- Node27 -->
<g id="Node000027" class="node">
<title>Node27</title>
<g id="a_Node000027"><a xlink:href="visit__overloaded_8hpp.html" target="_top" xlink:title=" ">
<polygon fill="white" stroke="#666666" points="1327.25,-132 1176.25,-132 1176.25,-112 1327.25,-112 1327.25,-132"/>
<text text-anchor="middle" x="1251.75" y="-118.5" font-family="Helvetica,sans-Serif" font-size="10.00">roar/utility/visit_overloaded.hpp</text>
</a>
</g>
</g>
<!-- Node1&#45;&gt;Node27 -->
<g id="edge40_Node000001_Node000027" class="edge">
<title>Node1&#45;&gt;Node27</title>
<g id="a_edge40_Node000001_Node000027"><a xlink:title=" ">
<path fill="none" stroke="#63b8ff" d="M1135.16,-223.52C1150.03,-215.06 1171.66,-201.91 1188.75,-188 1206.75,-173.36 1224.94,-153.98 1237.12,-140.2"/>
<polygon fill="#63b8ff" stroke="#63b8ff" points="1240.28,-142.91 1244.19,-133.06 1234.99,-138.32 1240.28,-142.91"/>
</a>
</g>
</g>
<!-- Node29 -->
<g id="Node000029" class="node">
<title>Node29</title>
<g id="a_Node000029"><a xlink:title=" ">
<polygon fill="#e0e0e0" stroke="#999999" points="1468.62,-188 1418.88,-188 1418.88,-168 1468.62,-168 1468.62,-188"/>
<text text-anchor="middle" x="1443.75" y="-174.5" font-family="Helvetica,sans-Serif" font-size="10.00">iomanip</text>
</a>
</g>
</g>
<!-- Node1&#45;&gt;Node29 -->
<g id="edge43_Node000001_Node000029" class="edge">
<title>Node1&#45;&gt;Node29</title>
<g id="a_edge43_Node000001_Node000029"><a xlink:title=" ">
<path fill="none" stroke="#63b8ff" d="M1165.57,-227.21C1221.48,-220.09 1316.97,-206.85 1408.06,-188.17"/>
<polygon fill="#63b8ff" stroke="#63b8ff" points="1408.49,-191.45 1417.57,-185.98 1407.07,-184.59 1408.49,-191.45"/>
</a>
</g>
</g>
<!-- Node30 -->
<g id="Node000030" class="node">
<title>Node30</title>
<g id="a_Node000030"><a xlink:title=" ">
<polygon fill="#e0e0e0" stroke="#999999" points="1538.38,-188 1487.12,-188 1487.12,-168 1538.38,-168 1538.38,-188"/>
<text text-anchor="middle" x="1512.75" y="-174.5" font-family="Helvetica,sans-Serif" font-size="10.00">sstream</text>
</a>
</g>
</g>
<!-- Node1&#45;&gt;Node30 -->
<g id="edge45_Node000001_Node000030" class="edge">
<title>Node1&#45;&gt;Node30</title>
<g id="a_edge45_Node000001_Node000030"><a xlink:title=" ">
<path fill="none" stroke="#63b8ff" d="M1165.51,-228.98C1232.72,-222.9 1359.15,-209.89 1476.26,-188.06"/>
<polygon fill="#63b8ff" stroke="#63b8ff" points="1476.66,-191.35 1485.84,-186.05 1475.36,-184.48 1476.66,-191.35"/>
</a>
</g>
</g>
<!-- Node31 -->
<g id="Node000031" class="node">
<title>Node31</title>
<g id="a_Node000031"><a xlink:title=" ">
<polygon fill="#e0e0e0" stroke="#999999" points="1595.38,-188 1556.12,-188 1556.12,-168 1595.38,-168 1595.38,-188"/>
<text text-anchor="middle" x="1575.75" y="-174.5" font-family="Helvetica,sans-Serif" font-size="10.00">utility</text>
</a>
</g>
</g>
<!-- Node1&#45;&gt;Node31 -->
<g id="edge47_Node000001_Node000031" class="edge">
<title>Node1&#45;&gt;Node31</title>
<g id="a_edge47_Node000001_Node000031"><a xlink:title=" ">
<path fill="none" stroke="#63b8ff" d="M1165.33,-231.23C1243.21,-227.64 1402.73,-217.38 1545.05,-188.22"/>
<polygon fill="#63b8ff" stroke="#63b8ff" points="1545.62,-191.46 1554.7,-185.99 1544.19,-184.61 1545.62,-191.46"/>
</a>
</g>
</g>
<!-- Node3 -->
<g id="Node000003" class="node">
<title>Node3</title>
<g id="a_Node000003"><a xlink:href="ipv4_8hpp.html" target="_top" xlink:title=" ">
<polygon fill="white" stroke="#666666" points="658.12,-76 605.38,-76 605.38,-56 658.12,-56 658.12,-76"/>
<text text-anchor="middle" x="631.75" y="-62.5" font-family="Helvetica,sans-Serif" font-size="10.00">ipv4.hpp</text>
</a>
</g>
</g>
<!-- Node2&#45;&gt;Node3 -->
<g id="edge2_Node000002_Node000003" class="edge">
<title>Node2&#45;&gt;Node3</title>
<g id="a_edge2_Node000002_Node000003"><a xlink:title=" ">
<path fill="none" stroke="#63b8ff" d="M232.19,-118.36C302.79,-113.24 455.57,-100.46 594.29,-76.02"/>
<polygon fill="#63b8ff" stroke="#63b8ff" points="594.87,-79.29 604.1,-74.08 593.64,-72.4 594.87,-79.29"/>
</a>
</g>
</g>
<!-- Node4 -->
<g id="Node000004" class="node">
<title>Node4</title>
<g id="a_Node000004"><a xlink:title=" ">
<polygon fill="#e0e0e0" stroke="#999999" points="602.12,-20 423.38,-20 423.38,0 602.12,0 602.12,-20"/>
<text text-anchor="middle" x="512.75" y="-6.5" font-family="Helvetica,sans-Serif" font-size="10.00">boost/fusion/include/adapt_struct.hpp</text>
</a>
</g>
</g>
<!-- Node2&#45;&gt;Node4 -->
<g id="edge12_Node000002_Node000004" class="edge">
<title>Node2&#45;&gt;Node4</title>
<g id="a_edge12_Node000002_Node000004"><a xlink:title=" ">
<path fill="none" stroke="#63b8ff" d="M195.37,-111.69C199.95,-97.22 210.9,-69.58 230.75,-56 259.83,-36.1 343.56,-24.43 412.28,-17.98"/>
<polygon fill="#63b8ff" stroke="#63b8ff" points="412.53,-21.38 422.18,-16.99 411.9,-14.41 412.53,-21.38"/>
</a>
</g>
</g>
<!-- Node6 -->
<g id="Node000006" class="node">
<title>Node6</title>
<g id="a_Node000006"><a xlink:title=" ">
<polygon fill="#e0e0e0" stroke="#999999" points="779.75,-20 739.75,-20 739.75,0 779.75,0 779.75,-20"/>
<text text-anchor="middle" x="759.75" y="-6.5" font-family="Helvetica,sans-Serif" font-size="10.00">string</text>
</a>
</g>
</g>
<!-- Node2&#45;&gt;Node6 -->
<g id="edge16_Node000002_Node000006" class="edge">
<title>Node2&#45;&gt;Node6</title>
<g id="a_edge16_Node000002_Node000006"><a xlink:title=" ">
<path fill="none" stroke="#63b8ff" d="M232,-120.22C350.37,-117.51 698.1,-106.99 737.75,-76 751.38,-65.35 756.62,-45.87 758.61,-31.01"/>
<polygon fill="#63b8ff" stroke="#63b8ff" points="762.16,-31.61 759.61,-21.33 755.19,-30.96 762.16,-31.61"/>
</a>
</g>
</g>
<!-- Node7 -->
<g id="Node000007" class="node">
<title>Node7</title>
<g id="a_Node000007"><a xlink:title=" ">
<polygon fill="#e0e0e0" stroke="#999999" points="300.25,-20 257.25,-20 257.25,0 300.25,0 300.25,-20"/>
<text text-anchor="middle" x="278.75" y="-6.5" font-family="Helvetica,sans-Serif" font-size="10.00">vector</text>
</a>
</g>
</g>
<!-- Node2&#45;&gt;Node7 -->
<g id="edge19_Node000002_Node000007" class="edge">
<title>Node2&#45;&gt;Node7</title>
<g id="a_edge19_Node000002_Node000007"><a xlink:title=" ">
<path fill="none" stroke="#63b8ff" d="M190.9,-111.75C188.75,-98.32 186.75,-73.15 197.75,-56 208.93,-38.57 229.35,-27.29 246.89,-20.38"/>
<polygon fill="#63b8ff" stroke="#63b8ff" points="247.57,-23.49 255.79,-16.81 245.2,-16.91 247.57,-23.49"/>
</a>
</g>
</g>
<!-- Node8 -->
<g id="Node000008" class="node">
<title>Node8</title>
<g id="a_Node000008"><a xlink:href="ipv6_8hpp.html" target="_top" xlink:title=" ">
<polygon fill="white" stroke="#666666" points="729.12,-76 676.38,-76 676.38,-56 729.12,-56 729.12,-76"/>
<text text-anchor="middle" x="702.75" y="-62.5" font-family="Helvetica,sans-Serif" font-size="10.00">ipv6.hpp</text>
</a>
</g>
</g>
<!-- Node2&#45;&gt;Node8 -->
<g id="edge7_Node000002_Node000008" class="edge">
<title>Node2&#45;&gt;Node8</title>
<g id="a_edge7_Node000002_Node000008"><a xlink:title=" ">
<path fill="none" stroke="#63b8ff" d="M232.34,-119.26C312.37,-115.3 499.19,-103.86 665.68,-75.91"/>
<polygon fill="#63b8ff" stroke="#63b8ff" points="665.84,-79.26 675.11,-74.13 664.66,-72.36 665.84,-79.26"/>
</a>
</g>
</g>
<!-- Node10 -->
<g id="Node000010" class="node">
<title>Node10</title>
<g id="a_Node000010"><a xlink:title=" ">
<polygon fill="#e0e0e0" stroke="#999999" points="485.88,-76 239.62,-76 239.62,-56 485.88,-56 485.88,-76"/>
<text text-anchor="middle" x="362.75" y="-62.5" font-family="Helvetica,sans-Serif" font-size="10.00">boost/spirit/home/x3/support/ast/position_tagged.hpp</text>
</a>
</g>
</g>
<!-- Node2&#45;&gt;Node10 -->
<g id="edge13_Node000002_Node000010" class="edge">
<title>Node2&#45;&gt;Node10</title>
<g id="a_edge13_Node000002_Node000010"><a xlink:title=" ">
<path fill="none" stroke="#63b8ff" d="M222.36,-111.59C250.1,-102.78 291.79,-89.54 322.53,-79.78"/>
<polygon fill="#63b8ff" stroke="#63b8ff" points="323.44,-82.84 331.91,-76.48 321.32,-76.17 323.44,-82.84"/>
</a>
</g>
</g>
<!-- Node11 -->
<g id="Node000011" class="node">
<title>Node11</title>
<g id="a_Node000011"><a xlink:title=" ">
<polygon fill="#e0e0e0" stroke="#999999" points="77.5,-76 0,-76 0,-56 77.5,-56 77.5,-76"/>
<text text-anchor="middle" x="38.75" y="-62.5" font-family="Helvetica,sans-Serif" font-size="10.00">boost/leaf.hpp</text>
</a>
</g>
</g>
<!-- Node2&#45;&gt;Node11 -->
<g id="edge14_Node000002_Node000011" class="edge">
<title>Node2&#45;&gt;Node11</title>
<g id="a_edge14_Node000002_Node000011"><a xlink:title=" ">
<path fill="none" stroke="#63b8ff" d="M165.93,-111.59C141.01,-102.86 103.69,-89.77 75.92,-80.03"/>
<polygon fill="#63b8ff" stroke="#63b8ff" points="77.38,-76.49 66.78,-76.48 75.06,-83.09 77.38,-76.49"/>
</a>
</g>
</g>
<!-- Node12 -->
<g id="Node000012" class="node">
<title>Node12</title>
<g id="a_Node000012"><a xlink:title=" ">
<polygon fill="#e0e0e0" stroke="#999999" points="145.62,-76 95.88,-76 95.88,-56 145.62,-56 145.62,-76"/>
<text text-anchor="middle" x="120.75" y="-62.5" font-family="Helvetica,sans-Serif" font-size="10.00">optional</text>
</a>
</g>
</g>
<!-- Node2&#45;&gt;Node12 -->
<g id="edge15_Node000002_Node000012" class="edge">
<title>Node2&#45;&gt;Node12</title>
<g id="a_edge15_Node000002_Node000012"><a xlink:title=" ">
<path fill="none" stroke="#63b8ff" d="M180.21,-111.59C169.57,-103.62 154.1,-92.02 141.61,-82.64"/>
<polygon fill="#63b8ff" stroke="#63b8ff" points="144.25,-79.5 134.15,-76.3 140.05,-85.1 144.25,-79.5"/>
</a>
</g>
</g>
<!-- Node2&#45;&gt;Node13 -->
<g id="edge17_Node000002_Node000013" class="edge">
<title>Node2&#45;&gt;Node13</title>
<g id="a_edge17_Node000002_Node000013"><a xlink:title=" ">
<path fill="none" stroke="#63b8ff" d="M232.09,-114.21C236.7,-113.45 241.32,-112.7 245.75,-112 352.87,-95.16 382.57,-93.79 493.4,-76.17"/>
<polygon fill="#63b8ff" stroke="#63b8ff" points="493.7,-79.51 503.02,-74.47 492.59,-72.6 493.7,-79.51"/>
</a>
</g>
</g>
<!-- Node14 -->
<g id="Node000014" class="node">
<title>Node14</title>
<g id="a_Node000014"><a xlink:title=" ">
<polygon fill="#e0e0e0" stroke="#999999" points="1040.38,-76 995.12,-76 995.12,-56 1040.38,-56 1040.38,-76"/>
<text text-anchor="middle" x="1017.75" y="-62.5" font-family="Helvetica,sans-Serif" font-size="10.00">variant</text>
</a>
</g>
</g>
<!-- Node2&#45;&gt;Node14 -->
<g id="edge18_Node000002_Node000014" class="edge">
<title>Node2&#45;&gt;Node14</title>
<g id="a_edge18_Node000002_Node000014"><a xlink:title=" ">
<path fill="none" stroke="#63b8ff" d="M232.25,-120.23C346.21,-117.68 685.29,-107.78 964.75,-76 971.11,-75.28 977.86,-74.3 984.34,-73.25"/>
<polygon fill="#63b8ff" stroke="#63b8ff" points="984.6,-76.58 993.87,-71.45 983.42,-69.68 984.6,-76.58"/>
</a>
</g>
</g>
<!-- Node3&#45;&gt;Node4 -->
<g id="edge3_Node000003_Node000004" class="edge">
<title>Node3&#45;&gt;Node4</title>
<g id="a_edge3_Node000003_Node000004"><a xlink:title=" ">
<path fill="none" stroke="#63b8ff" d="M611.02,-55.59C592.37,-47.13 564.7,-34.58 543.48,-24.94"/>
<polygon fill="#63b8ff" stroke="#63b8ff" points="545.19,-21.42 534.64,-20.48 542.3,-27.8 545.19,-21.42"/>
</a>
</g>
</g>
<!-- Node5 -->
<g id="Node000005" class="node">
<title>Node5</title>
<g id="a_Node000005"><a xlink:title=" ">
<polygon fill="#e0e0e0" stroke="#999999" points="665.38,-20 620.12,-20 620.12,0 665.38,0 665.38,-20"/>
<text text-anchor="middle" x="642.75" y="-6.5" font-family="Helvetica,sans-Serif" font-size="10.00">cstdint</text>
</a>
</g>
</g>
<!-- Node3&#45;&gt;Node5 -->
<g id="edge4_Node000003_Node000005" class="edge">
<title>Node3&#45;&gt;Node5</title>
<g id="a_edge4_Node000003_Node000005"><a xlink:title=" ">
<path fill="none" stroke="#63b8ff" d="M633.67,-55.59C635.05,-48.78 636.98,-39.32 638.7,-30.86"/>
<polygon fill="#63b8ff" stroke="#63b8ff" points="642.29,-31.8 640.86,-21.3 635.43,-30.4 642.29,-31.8"/>
</a>
</g>
</g>
<!-- Node3&#45;&gt;Node6 -->
<g id="edge5_Node000003_Node000006" class="edge">
<title>Node3&#45;&gt;Node6</title>
<g id="a_edge5_Node000003_Node000006"><a xlink:title=" ">
<path fill="none" stroke="#63b8ff" d="M654.05,-55.59C674.92,-46.79 706.27,-33.56 729.41,-23.8"/>
<polygon fill="#63b8ff" stroke="#63b8ff" points="730.54,-26.7 738.4,-19.59 727.82,-20.25 730.54,-26.7"/>
</a>
</g>
</g>
<!-- Node3&#45;&gt;Node7 -->
<g id="edge6_Node000003_Node000007" class="edge">
<title>Node3&#45;&gt;Node7</title>
<g id="a_edge6_Node000003_Node000007"><a xlink:title=" ">
<path fill="none" stroke="#63b8ff" d="M605.08,-58.01C601.95,-57.28 598.78,-56.59 595.75,-56 492.44,-35.81 368.5,-20.87 310.99,-14.45"/>
<polygon fill="#63b8ff" stroke="#63b8ff" points="311.73,-10.9 301.4,-13.29 310.96,-17.86 311.73,-10.9"/>
</a>
</g>
</g>
<!-- Node8&#45;&gt;Node4 -->
<g id="edge8_Node000008_Node000004" class="edge">
<title>Node8&#45;&gt;Node4</title>
<g id="a_edge8_Node000008_Node000004"><a xlink:title=" ">
<path fill="none" stroke="#63b8ff" d="M675.93,-57.38C644.93,-48.57 593.45,-33.94 556.6,-23.46"/>
<polygon fill="#63b8ff" stroke="#63b8ff" points="557.72,-19.86 547.15,-20.49 555.81,-26.59 557.72,-19.86"/>
</a>
</g>
</g>
<!-- Node8&#45;&gt;Node5 -->
<g id="edge10_Node000008_Node000005" class="edge">
<title>Node8&#45;&gt;Node5</title>
<g id="a_edge10_Node000008_Node000005"><a xlink:title=" ">
<path fill="none" stroke="#63b8ff" d="M692.3,-55.59C683.7,-47.85 671.29,-36.69 661.05,-27.47"/>
<polygon fill="#63b8ff" stroke="#63b8ff" points="663.86,-25.39 654.08,-21.3 659.17,-30.59 663.86,-25.39"/>
</a>
</g>
</g>
<!-- Node8&#45;&gt;Node6 -->
<g id="edge11_Node000008_Node000006" class="edge">
<title>Node8&#45;&gt;Node6</title>
<g id="a_edge11_Node000008_Node000006"><a xlink:title=" ">
<path fill="none" stroke="#63b8ff" d="M712.68,-55.59C720.77,-47.93 732.4,-36.91 742.07,-27.75"/>
<polygon fill="#63b8ff" stroke="#63b8ff" points="744.08,-30.72 748.94,-21.3 739.27,-25.63 744.08,-30.72"/>
</a>
</g>
</g>
<!-- Node9 -->
<g id="Node000009" class="node">
<title>Node9</title>
<g id="a_Node000009"><a xlink:title=" ">
<polygon fill="#e0e0e0" stroke="#999999" points="721.62,-20 683.88,-20 683.88,0 721.62,0 721.62,-20"/>
<text text-anchor="middle" x="702.75" y="-6.5" font-family="Helvetica,sans-Serif" font-size="10.00">array</text>
</a>
</g>
</g>
<!-- Node8&#45;&gt;Node9 -->
<g id="edge9_Node000008_Node000009" class="edge">
<title>Node8&#45;&gt;Node9</title>
<g id="a_edge9_Node000008_Node000009"><a xlink:title=" ">
<path fill="none" stroke="#63b8ff" d="M702.75,-55.59C702.75,-48.86 702.75,-39.53 702.75,-31.15"/>
<polygon fill="#63b8ff" stroke="#63b8ff" points="706.25,-31.3 702.75,-21.3 699.25,-31.3 706.25,-31.3"/>
</a>
</g>
</g>
<!-- Node19&#45;&gt;Node3 -->
<g id="edge25_Node000019_Node000003" class="edge">
<title>Node19&#45;&gt;Node3</title>
<g id="a_edge25_Node000019_Node000003"><a xlink:title=" ">
<path fill="none" stroke="#63b8ff" d="M659.83,-111.59C655.29,-104.39 648.9,-94.23 643.35,-85.43"/>
<polygon fill="#63b8ff" stroke="#63b8ff" points="645.89,-83.9 637.6,-77.3 639.97,-87.63 645.89,-83.9"/>
</a>
</g>
</g>
<!-- Node19&#45;&gt;Node16 -->
<g id="edge26_Node000019_Node000016" class="edge">
<title>Node19&#45;&gt;Node16</title>
<g id="a_edge26_Node000019_Node000016"><a xlink:title=" ">
<path fill="none" stroke="#63b8ff" d="M705.73,-111.53C743.94,-102.48 801.72,-88.8 843.14,-78.99"/>
<polygon fill="#63b8ff" stroke="#63b8ff" points="843.9,-82.17 852.82,-76.46 842.28,-75.36 843.9,-82.17"/>
</a>
</g>
</g>
<!-- Node20&#45;&gt;Node8 -->
<g id="edge28_Node000020_Node000008" class="edge">
<title>Node20&#45;&gt;Node8</title>
<g id="a_edge28_Node000020_Node000008"><a xlink:title=" ">
<path fill="none" stroke="#63b8ff" d="M986.05,-167.53C930.66,-147.87 803.13,-102.62 739.81,-80.15"/>
<polygon fill="#63b8ff" stroke="#63b8ff" points="741.09,-76.54 730.49,-76.49 738.75,-83.13 741.09,-76.54"/>
</a>
</g>
</g>
<!-- Node20&#45;&gt;Node16 -->
<g id="edge32_Node000020_Node000016" class="edge">
<title>Node20&#45;&gt;Node16</title>
<g id="a_edge32_Node000020_Node000016"><a xlink:title=" ">
<path fill="none" stroke="#63b8ff" d="M977.54,-167.59C957.64,-160.66 933.64,-149.37 917.75,-132 906.2,-119.38 900.08,-100.73 896.92,-86.64"/>
<polygon fill="#63b8ff" stroke="#63b8ff" points="900.22,-86.27 894.9,-77.1 893.34,-87.58 900.22,-86.27"/>
</a>
</g>
</g>
<!-- Node20&#45;&gt;Node19 -->
<g id="edge29_Node000020_Node000019" class="edge">
<title>Node20&#45;&gt;Node19</title>
<g id="a_edge29_Node000020_Node000019"><a xlink:title=" ">
<path fill="none" stroke="#63b8ff" d="M954.67,-167.96C894.12,-158.54 799.24,-143.77 734.87,-133.76"/>
<polygon fill="#63b8ff" stroke="#63b8ff" points="735.44,-130.15 725.02,-132.07 734.36,-137.06 735.44,-130.15"/>
</a>
</g>
</g>
<!-- Node20&#45;&gt;Node21 -->
<g id="edge30_Node000020_Node000021" class="edge">
<title>Node20&#45;&gt;Node21</title>
<g id="a_edge30_Node000020_Node000021"><a xlink:title=" ">
<path fill="none" stroke="#63b8ff" d="M1017.45,-167.59C1020.98,-160.55 1025.92,-150.67 1030.25,-142"/>
<polygon fill="#63b8ff" stroke="#63b8ff" points="1033.76,-143.81 1035.1,-133.3 1027.5,-140.68 1033.76,-143.81"/>
</a>
</g>
</g>
<!-- Node21&#45;&gt;Node22 -->
<g id="edge31_Node000021_Node000022" class="edge">
<title>Node21&#45;&gt;Node22</title>
<g id="a_edge31_Node000021_Node000022"><a xlink:title=" ">
<path fill="none" stroke="#63b8ff" d="M1054.56,-111.59C1067.28,-103.51 1085.86,-91.71 1100.71,-82.27"/>
<polygon fill="#63b8ff" stroke="#63b8ff" points="1102.26,-84.8 1108.83,-76.48 1098.51,-78.89 1102.26,-84.8"/>
</a>
</g>
</g>
<!-- Node23&#45;&gt;Node6 -->
<g id="edge34_Node000023_Node000006" class="edge">
<title>Node23&#45;&gt;Node6</title>
<g id="a_edge34_Node000023_Node000006"><a xlink:title=" ">
<path fill="none" stroke="#63b8ff" d="M1388.25,-111.86C1377.15,-97.1 1352.99,-68.41 1324.75,-56 1227.92,-13.46 895.32,-10.63 791.18,-10.82"/>
<polygon fill="#63b8ff" stroke="#63b8ff" points="791.18,-7.32 781.19,-10.85 791.2,-14.32 791.18,-7.32"/>
</a>
</g>
</g>
<!-- Node24&#45;&gt;Node6 -->
<g id="edge39_Node000024_Node000006" class="edge">
<title>Node24&#45;&gt;Node6</title>
<g id="a_edge39_Node000024_Node000006"><a xlink:title=" ">
<path fill="none" stroke="#63b8ff" d="M1401.37,-168.88C1496.81,-156.26 1669.65,-133.26 1670.75,-132 1676.6,-125.3 1676.46,-118.81 1670.75,-112 1612.82,-42.94 943.69,-17 790.75,-11.96"/>
<polygon fill="#63b8ff" stroke="#63b8ff" points="790.98,-8.43 780.87,-11.61 790.75,-15.43 790.98,-8.43"/>
</a>
</g>
</g>
<!-- Node25 -->
<g id="Node000025" class="node">
<title>Node25</title>
<g id="a_Node000025"><a xlink:title=" ">
<polygon fill="#e0e0e0" stroke="#999999" points="1662,-132 1533.5,-132 1533.5,-112 1662,-112 1662,-132"/>
<text text-anchor="middle" x="1597.75" y="-118.5" font-family="Helvetica,sans-Serif" font-size="10.00">boost/algorithm/string.hpp</text>
</a>
</g>
</g>
<!-- Node24&#45;&gt;Node25 -->
<g id="edge37_Node000024_Node000025" class="edge">
<title>Node24&#45;&gt;Node25</title>
<g id="a_edge37_Node000024_Node000025"><a xlink:title=" ">
<path fill="none" stroke="#63b8ff" d="M1384.99,-167.53C1428.69,-158.38 1495.01,-144.5 1541.96,-134.68"/>
<polygon fill="#63b8ff" stroke="#63b8ff" points="1542.5,-137.93 1551.57,-132.46 1541.06,-131.08 1542.5,-137.93"/>
</a>
</g>
</g>
<!-- Node26 -->
<g id="Node000026" class="node">
<title>Node26</title>
<g id="a_Node000026"><a xlink:title=" ">
<polygon fill="#e0e0e0" stroke="#999999" points="1515.12,-132 1462.38,-132 1462.38,-112 1515.12,-112 1515.12,-132"/>
<text text-anchor="middle" x="1488.75" y="-118.5" font-family="Helvetica,sans-Serif" font-size="10.00">cxxabi.h</text>
</a>
</g>
</g>
<!-- Node24&#45;&gt;Node26 -->
<g id="edge38_Node000024_Node000026" class="edge">
<title>Node24&#45;&gt;Node26</title>
<g id="a_edge38_Node000024_Node000026"><a xlink:title=" ">
<path fill="none" stroke="#63b8ff" d="M1365.7,-167.59C1389.7,-158.9 1425.6,-145.89 1452.43,-136.16"/>
<polygon fill="#63b8ff" stroke="#63b8ff" points="1453.38,-139.18 1461.59,-132.48 1451,-132.6 1453.38,-139.18"/>
</a>
</g>
</g>
<!-- Node27&#45;&gt;Node14 -->
<g id="edge42_Node000027_Node000014" class="edge">
<title>Node27&#45;&gt;Node14</title>
<g id="a_edge42_Node000027_Node000014"><a xlink:title=" ">
<path fill="none" stroke="#63b8ff" d="M1210.72,-111.53C1165.36,-101.06 1093.16,-84.4 1051.12,-74.7"/>
<polygon fill="#63b8ff" stroke="#63b8ff" points="1052.15,-71.12 1041.62,-72.28 1050.57,-77.94 1052.15,-71.12"/>
</a>
</g>
</g>
<!-- Node28 -->
<g id="Node000028" class="node">
<title>Node28</title>
<g id="a_Node000028"><a xlink:href="overloaded_8hpp.html" target="_top" xlink:title=" ">
<polygon fill="white" stroke="#666666" points="1315.62,-76 1187.88,-76 1187.88,-56 1315.62,-56 1315.62,-76"/>
<text text-anchor="middle" x="1251.75" y="-62.5" font-family="Helvetica,sans-Serif" font-size="10.00">roar/utility/overloaded.hpp</text>
</a>
</g>
</g>
<!-- Node27&#45;&gt;Node28 -->
<g id="edge41_Node000027_Node000028" class="edge">
<title>Node27&#45;&gt;Node28</title>
<g id="a_edge41_Node000027_Node000028"><a xlink:title=" ">
<path fill="none" stroke="#63b8ff" d="M1251.75,-111.59C1251.75,-104.86 1251.75,-95.53 1251.75,-87.15"/>
<polygon fill="#63b8ff" stroke="#63b8ff" points="1255.25,-87.3 1251.75,-77.3 1248.25,-87.3 1255.25,-87.3"/>
</a>
</g>
</g>
</g>
</svg>

<g id="navigator" transform="translate(0 0)" fill="#404254">
  <rect fill="#f2f5e9" fill-opacity="0.5" stroke="#606060" stroke-width=".5" x="0" y="0" width="60" height="60"/>
  <use id="zoomplus" xlink:href="#zoomPlus" x="17" y="9" onmousedown="handleZoom(evt,'in')"/>
  <use id="zoomminus" xlink:href="#zoomMin" x="42" y="9" onmousedown="handleZoom(evt,'out')"/>
  <use id="reset" xlink:href="#resetDef" x="30" y="36" onmousedown="handleReset()"/>
   <use id="arrowup" xlink:href="#arrowUp" x="0" y="0" onmousedown="handlePan(0,-1)"/>
  <use id="arrowright" xlink:href="#arrowRight" x="0" y="0" onmousedown="handlePan(1,0)"/>
  <use id="arrowdown" xlink:href="#arrowDown" x="0" y="0" onmousedown="handlePan(0,1)"/>
  <use id="arrowleft" xlink:href="#arrowLeft" x="0" y="0" onmousedown="handlePan(-1,0)"/>
</g>
<svg viewBox="0 0 15 15" width="100%" height="30px" preserveAspectRatio="xMaxYMin meet">
 <g id="arrow_out" transform="scale(0.3 0.3)">
  <a xlink:href="url_8cpp__incl_org.svg" target="_base">
   <rect id="button" ry="5" rx="5" y="6" x="6" height="38" width="38"
        fill="#f2f5e9" fill-opacity="0.5" stroke="#606060" stroke-width="1.0"/>
   <path id="arrow"
     d="M 11.500037,31.436501 C 11.940474,20.09759 22.043105,11.32322 32.158766,21.979434 L 37.068811,17.246167 C 37.068811,17.246167 37.088388,32 37.088388,32 L 22.160133,31.978069 C 22.160133,31.978069 26.997745,27.140456 26.997745,27.140456 C 18.528582,18.264221 13.291696,25.230495 11.500037,31.436501 z"
     style="fill:#404040;"/>
  </a>
 </g>
</svg>

<style type='text/css'>
<![CDATA[
[data-mouse-over-selected='false'] { opacity: 0.7; }
[data-mouse-over-selected='true']  { opacity: 1.0; }
]]>
</style>
<script type="application/ecmascript"><![CDATA[
document.addEventListener('DOMContentLoaded', (event) => {
  highlightEdges();
  highlightAdjacentNodes();
});
]]></script>
</svg>
