<?xml version="1.0" encoding="UTF-8" standalone="no"?>
<!DOCTYPE svg PUBLIC "-//W3C//DTD SVG 1.1//EN"
 "http://www.w3.org/Graphics/SVG/1.1/DTD/svg11.dtd">
<!-- Generated by graphviz version 8.1.0 (0)
 -->
<!-- Title: include/roar/body/void_body.hpp Pages: 1 -->
<svg width="220pt" height="84pt"
 viewBox="0.00 0.00 219.62 84.00" xmlns="http://www.w3.org/2000/svg" xmlns:xlink="http://www.w3.org/1999/xlink">
<g id="graph0" class="graph" transform="scale(1 1) rotate(0) translate(4 80)">
<title>include/roar/body/void_body.hpp</title>
<!-- Node1 -->
<g id="Node000001" class="node">
<title>Node1</title>
<g id="a_Node000001"><a xlink:title=" ">
<polygon fill="#999999" stroke="#666666" points="208.75,-76 53.25,-76 53.25,-56 208.75,-56 208.75,-76"/>
<text text-anchor="middle" x="131" y="-62.5" font-family="Helvetica,sans-Serif" font-size="10.00">include/roar/body/void_body.hpp</text>
</a>
</g>
</g>
<!-- Node2 -->
<g id="Node000002" class="node">
<title>Node2</title>
<g id="a_Node000002"><a xlink:title=" ">
<polygon fill="#e0e0e0" stroke="#999999" points="148,-20 0,-20 0,0 148,0 148,-20"/>
<text text-anchor="middle" x="74" y="-6.5" font-family="Helvetica,sans-Serif" font-size="10.00">boost/beast/http/message.hpp</text>
</a>
</g>
</g>
<!-- Node1&#45;&gt;Node2 -->
<g id="edge1_Node000001_Node000002" class="edge">
<title>Node1&#45;&gt;Node2</title>
<g id="a_edge1_Node000001_Node000002"><a xlink:title=" ">
<path fill="none" stroke="#63b8ff" d="M121.07,-55.59C112.98,-47.93 101.35,-36.91 91.68,-27.75"/>
<polygon fill="#63b8ff" stroke="#63b8ff" points="94.48,-25.63 84.81,-21.3 89.67,-30.72 94.48,-25.63"/>
</a>
</g>
</g>
<!-- Node3 -->
<g id="Node000003" class="node">
<title>Node3</title>
<g id="a_Node000003"><a xlink:title=" ">
<polygon fill="#e0e0e0" stroke="#999999" points="211.62,-20 166.38,-20 166.38,0 211.62,0 211.62,-20"/>
<text text-anchor="middle" x="189" y="-6.5" font-family="Helvetica,sans-Serif" font-size="10.00">cstdint</text>
</a>
</g>
</g>
<!-- Node1&#45;&gt;Node3 -->
<g id="edge2_Node000001_Node000003" class="edge">
<title>Node1&#45;&gt;Node3</title>
<g id="a_edge2_Node000001_Node000003"><a xlink:title=" ">
<path fill="none" stroke="#63b8ff" d="M141.1,-55.59C149.34,-47.93 161.17,-36.91 171.01,-27.75"/>
<polygon fill="#63b8ff" stroke="#63b8ff" points="173.08,-30.67 178.01,-21.3 168.31,-25.55 173.08,-30.67"/>
</a>
</g>
</g>
</g>
</svg>
