<?xml version="1.0" encoding="UTF-8" standalone="no"?>
<!DOCTYPE svg PUBLIC "-//W3C//DTD SVG 1.1//EN"
 "http://www.w3.org/Graphics/SVG/1.1/DTD/svg11.dtd">
<!-- Generated by graphviz version 8.1.0 (0)
 -->
<!-- Title: include/roar/body/void_body.hpp Pages: 1 -->
<svg width="1614pt" height="308pt"
 viewBox="0.00 0.00 1613.72 308.00" xmlns="http://www.w3.org/2000/svg" xmlns:xlink="http://www.w3.org/1999/xlink">
<g id="graph0" class="graph" transform="scale(1 1) rotate(0) translate(4 304)">
<title>include/roar/body/void_body.hpp</title>
<!-- Node1 -->
<g id="Node000001" class="node">
<title>Node1</title>
<g id="a_Node000001"><a xlink:title=" ">
<polygon fill="#999999" stroke="#666666" points="695.62,-300 540.12,-300 540.12,-280 695.62,-280 695.62,-300"/>
<text text-anchor="middle" x="617.88" y="-286.5" font-family="Helvetica,sans-Serif" font-size="10.00">include/roar/body/void_body.hpp</text>
</a>
</g>
</g>
<!-- Node2 -->
<g id="Node000002" class="node">
<title>Node2</title>
<g id="a_Node000002"><a xlink:href="session_8hpp.html" target="_top" xlink:title=" ">
<polygon fill="white" stroke="#666666" points="697.12,-244 538.62,-244 538.62,-224 697.12,-224 697.12,-244"/>
<text text-anchor="middle" x="617.88" y="-230.5" font-family="Helvetica,sans-Serif" font-size="10.00">include/roar/session/session.hpp</text>
</a>
</g>
</g>
<!-- Node1&#45;&gt;Node2 -->
<g id="edge1_Node000001_Node000002" class="edge">
<title>Node1&#45;&gt;Node2</title>
<g id="a_edge1_Node000001_Node000002"><a xlink:title=" ">
<path fill="none" stroke="#63b8ff" d="M617.88,-268.71C617.88,-260.32 617.88,-251.01 617.88,-244.3"/>
<polygon fill="#63b8ff" stroke="#63b8ff" points="614.38,-268.59 617.88,-278.59 621.38,-268.59 614.38,-268.59"/>
</a>
</g>
</g>
<!-- Node3 -->
<g id="Node000003" class="node">
<title>Node3</title>
<g id="a_Node000003"><a xlink:href="directory__server_8hpp.html" target="_top" xlink:title=" ">
<polygon fill="white" stroke="#666666" points="363.12,-132 132.62,-132 132.62,-112 363.12,-112 363.12,-132"/>
<text text-anchor="middle" x="247.88" y="-118.5" font-family="Helvetica,sans-Serif" font-size="10.00">include/roar/directory_server/directory_server.hpp</text>
</a>
</g>
</g>
<!-- Node2&#45;&gt;Node3 -->
<g id="edge2_Node000002_Node000003" class="edge">
<title>Node2&#45;&gt;Node3</title>
<g id="a_edge2_Node000002_Node000003"><a xlink:title=" ">
<path fill="none" stroke="#63b8ff" d="M560.36,-221.29C522.21,-213.07 471.19,-201.22 426.88,-188 370,-171.04 304.88,-145.91 271.04,-132.4"/>
<polygon fill="#63b8ff" stroke="#63b8ff" points="559.26,-224.84 569.77,-223.51 560.72,-218 559.26,-224.84"/>
</a>
</g>
</g>
<!-- Node4 -->
<g id="Node000004" class="node">
<title>Node4</title>
<g id="a_Node000004"><a xlink:href="server_8hpp.html" target="_top" xlink:title=" ">
<polygon fill="white" stroke="#666666" points="438.38,-76 323.38,-76 323.38,-56 438.38,-56 438.38,-76"/>
<text text-anchor="middle" x="380.88" y="-62.5" font-family="Helvetica,sans-Serif" font-size="10.00">include/roar/server.hpp</text>
</a>
</g>
</g>
<!-- Node2&#45;&gt;Node4 -->
<g id="edge31_Node000002_Node000004" class="edge">
<title>Node2&#45;&gt;Node4</title>
<g id="a_edge31_Node000002_Node000004"><a xlink:title=" ">
<path fill="none" stroke="#63b8ff" d="M527.75,-228.03C399.14,-218.81 173.03,-194.01 123.88,-132 118.35,-125.03 118.16,-118.81 123.88,-112 148.79,-82.35 255.09,-72.23 322.93,-68.78"/>
<polygon fill="#63b8ff" stroke="#63b8ff" points="527.14,-231.56 537.36,-228.77 527.63,-224.58 527.14,-231.56"/>
</a>
</g>
</g>
<!-- Node11 -->
<g id="Node000011" class="node">
<title>Node11</title>
<g id="a_Node000011"><a xlink:href="server_8cpp.html" target="_top" xlink:title=" ">
<polygon fill="white" stroke="#666666" points="97.75,-20 0,-20 0,0 97.75,0 97.75,-20"/>
<text text-anchor="middle" x="48.88" y="-6.5" font-family="Helvetica,sans-Serif" font-size="10.00">src/roar/server.cpp</text>
</a>
</g>
</g>
<!-- Node2&#45;&gt;Node11 -->
<g id="edge34_Node000002_Node000011" class="edge">
<title>Node2&#45;&gt;Node11</title>
<g id="a_edge34_Node000002_Node000011"><a xlink:title=" ">
<path fill="none" stroke="#63b8ff" d="M527.33,-230.48C416.67,-226.24 236.65,-215.29 175.88,-188 101.35,-154.53 62.17,-51.53 51.75,-20.16"/>
<polygon fill="#63b8ff" stroke="#63b8ff" points="527.02,-234.01 537.14,-230.88 527.28,-227.01 527.02,-234.01"/>
</a>
</g>
</g>
<!-- Node12 -->
<g id="Node000012" class="node">
<title>Node12</title>
<g id="a_Node000012"><a xlink:href="include_2roar_2routing_2request__listener_8hpp.html" target="_top" xlink:title=" ">
<polygon fill="white" stroke="#666666" points="625.5,-188 436.25,-188 436.25,-168 625.5,-168 625.5,-188"/>
<text text-anchor="middle" x="530.88" y="-174.5" font-family="Helvetica,sans-Serif" font-size="10.00">include/roar/routing/request_listener.hpp</text>
</a>
</g>
</g>
<!-- Node2&#45;&gt;Node12 -->
<g id="edge11_Node000002_Node000012" class="edge">
<title>Node2&#45;&gt;Node12</title>
<g id="a_edge11_Node000002_Node000012"><a xlink:title=" ">
<path fill="none" stroke="#63b8ff" d="M593.4,-217.81C578.23,-208.39 559.2,-196.58 546.15,-188.48"/>
<polygon fill="#63b8ff" stroke="#63b8ff" points="591.38,-221.29 601.72,-223.59 595.07,-215.35 591.38,-221.29"/>
</a>
</g>
</g>
<!-- Node21 -->
<g id="Node000021" class="node">
<title>Node21</title>
<g id="a_Node000021"><a xlink:href="route_8cpp.html" target="_top" xlink:title=" ">
<polygon fill="white" stroke="#666666" points="768.25,-188 643.5,-188 643.5,-168 768.25,-168 768.25,-188"/>
<text text-anchor="middle" x="705.88" y="-174.5" font-family="Helvetica,sans-Serif" font-size="10.00">src/roar/routing/route.cpp</text>
</a>
</g>
</g>
<!-- Node2&#45;&gt;Node21 -->
<g id="edge32_Node000002_Node000021" class="edge">
<title>Node2&#45;&gt;Node21</title>
<g id="a_edge32_Node000002_Node000021"><a xlink:title=" ">
<path fill="none" stroke="#63b8ff" d="M642.19,-218.08C657.61,-208.62 677.1,-196.66 690.43,-188.48"/>
<polygon fill="#63b8ff" stroke="#63b8ff" points="640.9,-215.38 634.2,-223.59 644.56,-221.35 640.9,-215.38"/>
</a>
</g>
</g>
<!-- Node22 -->
<g id="Node000022" class="node">
<title>Node22</title>
<g id="a_Node000022"><a xlink:href="router_8cpp.html" target="_top" xlink:title=" ">
<polygon fill="white" stroke="#666666" points="913.75,-188 786,-188 786,-168 913.75,-168 913.75,-188"/>
<text text-anchor="middle" x="849.88" y="-174.5" font-family="Helvetica,sans-Serif" font-size="10.00">src/roar/routing/router.cpp</text>
</a>
</g>
</g>
<!-- Node2&#45;&gt;Node22 -->
<g id="edge33_Node000002_Node000022" class="edge">
<title>Node2&#45;&gt;Node22</title>
<g id="a_edge33_Node000002_Node000022"><a xlink:title=" ">
<path fill="none" stroke="#63b8ff" d="M669.16,-221.06C711.33,-211.25 770.29,-197.52 809.24,-188.46"/>
<polygon fill="#63b8ff" stroke="#63b8ff" points="668.5,-217.86 659.55,-223.53 670.08,-224.67 668.5,-217.86"/>
</a>
</g>
</g>
<!-- Node23 -->
<g id="Node000023" class="node">
<title>Node23</title>
<g id="a_Node000023"><a xlink:href="factory_8cpp.html" target="_top" xlink:title=" ">
<polygon fill="white" stroke="#666666" points="1068.25,-188 931.5,-188 931.5,-168 1068.25,-168 1068.25,-188"/>
<text text-anchor="middle" x="999.88" y="-174.5" font-family="Helvetica,sans-Serif" font-size="10.00">src/roar/session/factory.cpp</text>
</a>
</g>
</g>
<!-- Node2&#45;&gt;Node23 -->
<g id="edge35_Node000002_Node000023" class="edge">
<title>Node2&#45;&gt;Node23</title>
<g id="a_edge35_Node000002_Node000023"><a xlink:title=" ">
<path fill="none" stroke="#63b8ff" d="M695.34,-222.05C765.12,-212.18 866.65,-197.83 932.98,-188.46"/>
<polygon fill="#63b8ff" stroke="#63b8ff" points="695.26,-218.67 685.85,-223.53 696.24,-225.6 695.26,-218.67"/>
</a>
</g>
</g>
<!-- Node24 -->
<g id="Node000024" class="node">
<title>Node24</title>
<g id="a_Node000024"><a xlink:href="session_8cpp.html" target="_top" xlink:title=" ">
<polygon fill="white" stroke="#666666" points="1227.5,-188 1086.25,-188 1086.25,-168 1227.5,-168 1227.5,-188"/>
<text text-anchor="middle" x="1156.88" y="-174.5" font-family="Helvetica,sans-Serif" font-size="10.00">src/roar/session/session.cpp</text>
</a>
</g>
</g>
<!-- Node2&#45;&gt;Node24 -->
<g id="edge36_Node000002_Node000024" class="edge">
<title>Node2&#45;&gt;Node24</title>
<g id="a_edge36_Node000002_Node000024"><a xlink:title=" ">
<path fill="none" stroke="#63b8ff" d="M708.25,-224.52C800.84,-215.75 948.96,-201.47 1076.88,-188 1079.79,-187.69 1082.77,-187.38 1085.78,-187.05"/>
<polygon fill="#63b8ff" stroke="#63b8ff" points="708.14,-221.11 698.51,-225.54 708.8,-228.08 708.14,-221.11"/>
</a>
</g>
</g>
<!-- Node3&#45;&gt;Node4 -->
<g id="edge3_Node000003_Node000004" class="edge">
<title>Node3&#45;&gt;Node4</title>
<g id="a_edge3_Node000003_Node000004"><a xlink:title=" ">
<path fill="none" stroke="#63b8ff" d="M281.05,-107.53C304.85,-97.87 336.33,-85.08 357.53,-76.48"/>
<polygon fill="#63b8ff" stroke="#63b8ff" points="279.99,-104.59 272.04,-111.59 282.62,-111.07 279.99,-104.59"/>
</a>
</g>
</g>
<!-- Node5 -->
<g id="Node000005" class="node">
<title>Node5</title>
<g id="a_Node000005"><a xlink:href="100__continue_2main_8cpp.html" target="_top" xlink:title=" ">
<polygon fill="white" stroke="#666666" points="841.62,-20 680.12,-20 680.12,0 841.62,0 841.62,-20"/>
<text text-anchor="middle" x="760.88" y="-6.5" font-family="Helvetica,sans-Serif" font-size="10.00">examples/100_continue/main.cpp</text>
</a>
</g>
</g>
<!-- Node4&#45;&gt;Node5 -->
<g id="edge4_Node000004_Node000005" class="edge">
<title>Node4&#45;&gt;Node5</title>
<g id="a_edge4_Node000004_Node000005"><a xlink:title=" ">
<path fill="none" stroke="#63b8ff" d="M449.4,-55.26C518.84,-45.39 625.55,-30.23 694.29,-20.46"/>
<polygon fill="#63b8ff" stroke="#63b8ff" points="449,-51.93 439.59,-56.8 449.98,-58.86 449,-51.93"/>
</a>
</g>
</g>
<!-- Node6 -->
<g id="Node000006" class="node">
<title>Node6</title>
<g id="a_Node000006"><a xlink:href="most__minimal_2main_8cpp.html" target="_top" xlink:title=" ">
<polygon fill="white" stroke="#666666" points="470.12,-20 305.62,-20 305.62,0 470.12,0 470.12,-20"/>
<text text-anchor="middle" x="387.88" y="-6.5" font-family="Helvetica,sans-Serif" font-size="10.00">examples/most_minimal/main.cpp</text>
</a>
</g>
</g>
<!-- Node4&#45;&gt;Node6 -->
<g id="edge5_Node000004_Node000006" class="edge">
<title>Node4&#45;&gt;Node6</title>
<g id="a_edge5_Node000004_Node000006"><a xlink:title=" ">
<path fill="none" stroke="#63b8ff" d="M383.5,-44.71C384.59,-36.32 385.8,-27.01 386.67,-20.3"/>
<polygon fill="#63b8ff" stroke="#63b8ff" points="379.91,-44.23 382.09,-54.59 386.85,-45.13 379.91,-44.23"/>
</a>
</g>
</g>
<!-- Node7 -->
<g id="Node000007" class="node">
<title>Node7</title>
<g id="a_Node000007"><a xlink:href="serve__directory_2main_8cpp.html" target="_top" xlink:title=" ">
<polygon fill="white" stroke="#666666" points="1150.12,-20 979.62,-20 979.62,0 1150.12,0 1150.12,-20"/>
<text text-anchor="middle" x="1064.88" y="-6.5" font-family="Helvetica,sans-Serif" font-size="10.00">examples/serve_directory/main.cpp</text>
</a>
</g>
</g>
<!-- Node4&#45;&gt;Node7 -->
<g id="edge6_Node000004_Node000007" class="edge">
<title>Node4&#45;&gt;Node7</title>
<g id="a_edge6_Node000004_Node000007"><a xlink:title=" ">
<path fill="none" stroke="#63b8ff" d="M449.21,-59.61C574.73,-49.7 841.71,-28.62 979.16,-17.77"/>
<polygon fill="#63b8ff" stroke="#63b8ff" points="449.3,-56.17 439.6,-60.44 449.85,-63.14 449.3,-56.17"/>
</a>
</g>
</g>
<!-- Node8 -->
<g id="Node000008" class="node">
<title>Node8</title>
<g id="a_Node000008"><a xlink:href="simple__server_2main_8cpp.html" target="_top" xlink:title=" ">
<polygon fill="white" stroke="#666666" points="1435.12,-20 1270.62,-20 1270.62,0 1435.12,0 1435.12,-20"/>
<text text-anchor="middle" x="1352.88" y="-6.5" font-family="Helvetica,sans-Serif" font-size="10.00">examples/simple_server/main.cpp</text>
</a>
</g>
</g>
<!-- Node4&#45;&gt;Node8 -->
<g id="edge7_Node000004_Node000008" class="edge">
<title>Node4&#45;&gt;Node8</title>
<g id="a_edge7_Node000004_Node000008"><a xlink:title=" ">
<path fill="none" stroke="#63b8ff" d="M449.41,-60.6C473.29,-59.1 500.26,-57.44 524.88,-56 797.76,-40.06 1121.34,-23.01 1270.3,-15.27"/>
<polygon fill="#63b8ff" stroke="#63b8ff" points="449.43,-57.16 439.67,-61.28 449.88,-64.14 449.43,-57.16"/>
</a>
</g>
</g>
<!-- Node9 -->
<g id="Node000009" class="node">
<title>Node9</title>
<g id="a_Node000009"><a xlink:href="websocket_2main_8cpp.html" target="_top" xlink:title=" ">
<polygon fill="white" stroke="#666666" points="639.38,-20 488.38,-20 488.38,0 639.38,0 639.38,-20"/>
<text text-anchor="middle" x="563.88" y="-6.5" font-family="Helvetica,sans-Serif" font-size="10.00">examples/websocket/main.cpp</text>
</a>
</g>
</g>
<!-- Node4&#45;&gt;Node9 -->
<g id="edge8_Node000004_Node000009" class="edge">
<title>Node4&#45;&gt;Node9</title>
<g id="a_edge8_Node000004_Node000009"><a xlink:title=" ">
<path fill="none" stroke="#63b8ff" d="M423.03,-52.56C456.14,-42.79 501.54,-29.39 531.75,-20.48"/>
<polygon fill="#63b8ff" stroke="#63b8ff" points="422.35,-49.41 413.75,-55.59 424.33,-56.12 422.35,-49.41"/>
</a>
</g>
</g>
<!-- Node10 -->
<g id="Node000010" class="node">
<title>Node10</title>
<g id="a_Node000010"><a xlink:href="src_2roar_2routing_2request__listener_8cpp.html" target="_top" xlink:title=" ">
<polygon fill="white" stroke="#666666" points="287.88,-20 115.88,-20 115.88,0 287.88,0 287.88,-20"/>
<text text-anchor="middle" x="201.88" y="-6.5" font-family="Helvetica,sans-Serif" font-size="10.00">src/roar/routing/request_listener.cpp</text>
</a>
</g>
</g>
<!-- Node4&#45;&gt;Node10 -->
<g id="edge9_Node000004_Node000010" class="edge">
<title>Node4&#45;&gt;Node10</title>
<g id="a_edge9_Node000004_Node000010"><a xlink:title=" ">
<path fill="none" stroke="#63b8ff" d="M339.22,-52.43C306.87,-42.67 262.72,-29.35 233.3,-20.48"/>
<polygon fill="#63b8ff" stroke="#63b8ff" points="338.11,-56.06 348.7,-55.59 340.13,-49.35 338.11,-56.06"/>
</a>
</g>
</g>
<!-- Node4&#45;&gt;Node11 -->
<g id="edge10_Node000004_Node000011" class="edge">
<title>Node4&#45;&gt;Node11</title>
<g id="a_edge10_Node000004_Node000011"><a xlink:title=" ">
<path fill="none" stroke="#63b8ff" d="M312.28,-53.84C248.47,-43.46 154.94,-28.25 98.2,-19.02"/>
<polygon fill="#63b8ff" stroke="#63b8ff" points="311.61,-57.44 322.05,-55.59 312.74,-50.53 311.61,-57.44"/>
</a>
</g>
</g>
<!-- Node12&#45;&gt;Node3 -->
<g id="edge28_Node000012_Node000003" class="edge">
<title>Node12&#45;&gt;Node3</title>
<g id="a_edge28_Node000012_Node000003"><a xlink:title=" ">
<path fill="none" stroke="#63b8ff" d="M470.6,-165.5C419.02,-155.66 345.66,-141.66 297.44,-132.46"/>
<polygon fill="#63b8ff" stroke="#63b8ff" points="469.78,-169.1 480.26,-167.53 471.09,-162.22 469.78,-169.1"/>
</a>
</g>
</g>
<!-- Node12&#45;&gt;Node4 -->
<g id="edge29_Node000012_Node000004" class="edge">
<title>Node12&#45;&gt;Node4</title>
<g id="a_edge29_Node000012_Node000004"><a xlink:title=" ">
<path fill="none" stroke="#63b8ff" d="M502.5,-162.51C487.3,-154.29 468.54,-143.39 452.88,-132 428.36,-114.17 402.72,-89.28 389.66,-76.07"/>
<polygon fill="#63b8ff" stroke="#63b8ff" points="500.44,-165.91 510.91,-167.51 503.72,-159.73 500.44,-165.91"/>
</a>
</g>
</g>
<!-- Node12&#45;&gt;Node5 -->
<g id="edge12_Node000012_Node000005" class="edge">
<title>Node12&#45;&gt;Node5</title>
<g id="a_edge12_Node000012_Node000005"><a xlink:title=" ">
<path fill="none" stroke="#63b8ff" d="M625.93,-165.1C652.87,-158.46 681.04,-148.11 703.88,-132 742.77,-104.55 755.92,-43.47 759.62,-20.23"/>
<polygon fill="#63b8ff" stroke="#63b8ff" points="625.25,-161.9 616.29,-167.55 626.82,-168.72 625.25,-161.9"/>
</a>
</g>
</g>
<!-- Node12&#45;&gt;Node7 -->
<g id="edge19_Node000012_Node000007" class="edge">
<title>Node12&#45;&gt;Node7</title>
<g id="a_edge19_Node000012_Node000007"><a xlink:title=" ">
<path fill="none" stroke="#63b8ff" d="M636.57,-167.67C775.93,-155.29 1004.1,-134.65 1007.88,-132 1046.83,-104.64 1059.95,-43.51 1063.63,-20.24"/>
<polygon fill="#63b8ff" stroke="#63b8ff" points="636.52,-164.25 626.86,-168.63 637.13,-171.23 636.52,-164.25"/>
</a>
</g>
</g>
<!-- Node12&#45;&gt;Node8 -->
<g id="edge20_Node000012_Node000008" class="edge">
<title>Node12&#45;&gt;Node8</title>
<g id="a_edge20_Node000012_Node000008"><a xlink:title=" ">
<path fill="none" stroke="#63b8ff" d="M636.38,-168.04C773,-161.89 1436.04,-164.22 1526.88,-132 1566.08,-118.09 1583.23,-113.19 1601.88,-76 1605.86,-68.05 1607.57,-62.82 1601.88,-56 1580.82,-30.8 1499.44,-19.69 1435.37,-14.8"/>
<polygon fill="#63b8ff" stroke="#63b8ff" points="636.6,-164.58 626.8,-168.6 636.97,-171.57 636.6,-164.58"/>
</a>
</g>
</g>
<!-- Node12&#45;&gt;Node9 -->
<g id="edge24_Node000012_Node000009" class="edge">
<title>Node12&#45;&gt;Node9</title>
<g id="a_edge24_Node000012_Node000009"><a xlink:title=" ">
<path fill="none" stroke="#63b8ff" d="M508.92,-160.85C500.33,-153.18 491.45,-143.23 486.88,-132 483.52,-123.77 484.65,-120.61 486.88,-112 497.19,-72.08 533.52,-36.59 552.36,-20.36"/>
<polygon fill="#63b8ff" stroke="#63b8ff" points="506.31,-164.06 516.25,-167.73 510.77,-158.66 506.31,-164.06"/>
</a>
</g>
</g>
<!-- Node12&#45;&gt;Node10 -->
<g id="edge30_Node000012_Node000010" class="edge">
<title>Node12&#45;&gt;Node10</title>
<g id="a_edge30_Node000012_Node000010"><a xlink:title=" ">
<path fill="none" stroke="#63b8ff" d="M496.73,-163.42C475.57,-154.81 447.94,-143.22 423.88,-132 344.11,-94.8 253.11,-41.65 217.41,-20.35"/>
<polygon fill="#63b8ff" stroke="#63b8ff" points="495.26,-167.01 505.85,-167.51 497.89,-160.52 495.26,-167.01"/>
</a>
</g>
</g>
<!-- Node13 -->
<g id="Node000013" class="node">
<title>Node13</title>
<g id="a_Node000013"><a xlink:href="examples_2100__continue_2request__listener_8hpp.html" target="_top" xlink:title=" ">
<polygon fill="white" stroke="#666666" points="998.62,-132 789.12,-132 789.12,-112 998.62,-112 998.62,-132"/>
<text text-anchor="middle" x="893.88" y="-118.5" font-family="Helvetica,sans-Serif" font-size="10.00">examples/100_continue/request_listener.hpp</text>
</a>
</g>
</g>
<!-- Node12&#45;&gt;Node13 -->
<g id="edge13_Node000012_Node000013" class="edge">
<title>Node12&#45;&gt;Node13</title>
<g id="a_edge13_Node000012_Node000013"><a xlink:title=" ">
<path fill="none" stroke="#63b8ff" d="M605.3,-165.93C671.59,-156.07 767.54,-141.79 830.3,-132.46"/>
<polygon fill="#63b8ff" stroke="#63b8ff" points="604.9,-162.6 595.52,-167.53 605.93,-169.52 604.9,-162.6"/>
</a>
</g>
</g>
<!-- Node15 -->
<g id="Node000015" class="node">
<title>Node15</title>
<g id="a_Node000015"><a xlink:href="file__server_8hpp.html" target="_top" xlink:title=" ">
<polygon fill="white" stroke="#666666" points="1287.12,-132 1092.62,-132 1092.62,-112 1287.12,-112 1287.12,-132"/>
<text text-anchor="middle" x="1189.88" y="-118.5" font-family="Helvetica,sans-Serif" font-size="10.00">examples/serve_directory/file_server.hpp</text>
</a>
</g>
</g>
<!-- Node12&#45;&gt;Node15 -->
<g id="edge16_Node000012_Node000015" class="edge">
<title>Node12&#45;&gt;Node15</title>
<g id="a_edge16_Node000012_Node000015"><a xlink:title=" ">
<path fill="none" stroke="#63b8ff" d="M636.66,-167.87C693.1,-163.27 948.88,-142.54 1092.22,-130.92"/>
<polygon fill="#63b8ff" stroke="#63b8ff" points="636.49,-164.46 626.81,-168.76 637.06,-171.43 636.49,-164.46"/>
</a>
</g>
</g>
<!-- Node17 -->
<g id="Node000017" class="node">
<title>Node17</title>
<g id="a_Node000017"><a xlink:href="examples_2simple__server_2request__listener_8hpp.html" target="_top" xlink:title=" ">
<polygon fill="white" stroke="#666666" points="1518.12,-132 1305.62,-132 1305.62,-112 1518.12,-112 1518.12,-132"/>
<text text-anchor="middle" x="1411.88" y="-118.5" font-family="Helvetica,sans-Serif" font-size="10.00">examples/simple_server/request_listener.hpp</text>
</a>
</g>
</g>
<!-- Node12&#45;&gt;Node17 -->
<g id="edge21_Node000012_Node000017" class="edge">
<title>Node12&#45;&gt;Node17</title>
<g id="a_edge21_Node000012_Node000017"><a xlink:title=" ">
<path fill="none" stroke="#63b8ff" d="M636.35,-167.92C930.12,-147.41 1005.74,-151.15 1295.88,-132 1299,-131.79 1302.17,-131.58 1305.37,-131.36"/>
<polygon fill="#63b8ff" stroke="#63b8ff" points="636.53,-164.47 626.8,-168.66 637.02,-171.45 636.53,-164.47"/>
</a>
</g>
</g>
<!-- Node19 -->
<g id="Node000019" class="node">
<title>Node19</title>
<g id="a_Node000019"><a xlink:href="examples_2websocket_2request__listener_8hpp.html" target="_top" xlink:title=" ">
<polygon fill="white" stroke="#666666" points="694.38,-132 495.38,-132 495.38,-112 694.38,-112 694.38,-132"/>
<text text-anchor="middle" x="594.88" y="-118.5" font-family="Helvetica,sans-Serif" font-size="10.00">examples/websocket/request_listener.hpp</text>
</a>
</g>
</g>
<!-- Node12&#45;&gt;Node19 -->
<g id="edge25_Node000012_Node000019" class="edge">
<title>Node12&#45;&gt;Node19</title>
<g id="a_edge25_Node000012_Node000019"><a xlink:title=" ">
<path fill="none" stroke="#63b8ff" d="M550.22,-160.68C561.23,-151.39 574.62,-140.09 583.85,-132.3"/>
<polygon fill="#63b8ff" stroke="#63b8ff" points="548.41,-158.47 543.02,-167.59 552.92,-163.82 548.41,-158.47"/>
</a>
</g>
</g>
<!-- Node13&#45;&gt;Node5 -->
<g id="edge14_Node000013_Node000005" class="edge">
<title>Node13&#45;&gt;Node5</title>
<g id="a_edge14_Node000013_Node000005"><a xlink:title=" ">
<path fill="none" stroke="#63b8ff" d="M953.06,-108.82C990.7,-98.38 1028.75,-81.03 1007.88,-56 986.93,-30.9 905.73,-19.76 842.08,-14.85"/>
<polygon fill="#63b8ff" stroke="#63b8ff" points="952.29,-105.67 943.5,-111.58 954.06,-112.44 952.29,-105.67"/>
</a>
</g>
</g>
<!-- Node14 -->
<g id="Node000014" class="node">
<title>Node14</title>
<g id="a_Node000014"><a xlink:href="examples_2100__continue_2request__listener_8cpp.html" target="_top" xlink:title=" ">
<polygon fill="white" stroke="#666666" points="998.62,-76 789.12,-76 789.12,-56 998.62,-56 998.62,-76"/>
<text text-anchor="middle" x="893.88" y="-62.5" font-family="Helvetica,sans-Serif" font-size="10.00">examples/100_continue/request_listener.cpp</text>
</a>
</g>
</g>
<!-- Node13&#45;&gt;Node14 -->
<g id="edge15_Node000013_Node000014" class="edge">
<title>Node13&#45;&gt;Node14</title>
<g id="a_edge15_Node000013_Node000014"><a xlink:title=" ">
<path fill="none" stroke="#63b8ff" d="M893.88,-100.71C893.88,-92.32 893.88,-83.01 893.88,-76.3"/>
<polygon fill="#63b8ff" stroke="#63b8ff" points="890.38,-100.59 893.88,-110.59 897.38,-100.59 890.38,-100.59"/>
</a>
</g>
</g>
<!-- Node15&#45;&gt;Node7 -->
<g id="edge18_Node000015_Node000007" class="edge">
<title>Node15&#45;&gt;Node7</title>
<g id="a_edge18_Node000015_Node000007"><a xlink:title=" ">
<path fill="none" stroke="#63b8ff" d="M1243.48,-108.6C1279.04,-97.84 1315.8,-80.19 1295.88,-56 1277.43,-33.61 1208.37,-22.22 1150.53,-16.5"/>
<polygon fill="#63b8ff" stroke="#63b8ff" points="1242.69,-105.47 1234.04,-111.58 1244.62,-112.2 1242.69,-105.47"/>
</a>
</g>
</g>
<!-- Node16 -->
<g id="Node000016" class="node">
<title>Node16</title>
<g id="a_Node000016"><a xlink:href="file__server_8cpp.html" target="_top" xlink:title=" ">
<polygon fill="white" stroke="#666666" points="1287.12,-76 1092.62,-76 1092.62,-56 1287.12,-56 1287.12,-76"/>
<text text-anchor="middle" x="1189.88" y="-62.5" font-family="Helvetica,sans-Serif" font-size="10.00">examples/serve_directory/file_server.cpp</text>
</a>
</g>
</g>
<!-- Node15&#45;&gt;Node16 -->
<g id="edge17_Node000015_Node000016" class="edge">
<title>Node15&#45;&gt;Node16</title>
<g id="a_edge17_Node000015_Node000016"><a xlink:title=" ">
<path fill="none" stroke="#63b8ff" d="M1189.88,-100.71C1189.88,-92.32 1189.88,-83.01 1189.88,-76.3"/>
<polygon fill="#63b8ff" stroke="#63b8ff" points="1186.38,-100.59 1189.88,-110.59 1193.38,-100.59 1186.38,-100.59"/>
</a>
</g>
</g>
<!-- Node17&#45;&gt;Node8 -->
<g id="edge22_Node000017_Node000008" class="edge">
<title>Node17&#45;&gt;Node8</title>
<g id="a_edge22_Node000017_Node000008"><a xlink:title=" ">
<path fill="none" stroke="#63b8ff" d="M1393.45,-103.95C1385.85,-96.07 1377.53,-86.21 1371.88,-76 1361.74,-57.69 1356.51,-33.42 1354.27,-20.33"/>
<polygon fill="#63b8ff" stroke="#63b8ff" points="1390.67,-106.1 1400.24,-110.64 1395.58,-101.12 1390.67,-106.1"/>
</a>
</g>
</g>
<!-- Node18 -->
<g id="Node000018" class="node">
<title>Node18</title>
<g id="a_Node000018"><a xlink:href="examples_2simple__server_2request__listener_8cpp.html" target="_top" xlink:title=" ">
<polygon fill="white" stroke="#666666" points="1593.12,-76 1380.62,-76 1380.62,-56 1593.12,-56 1593.12,-76"/>
<text text-anchor="middle" x="1486.88" y="-62.5" font-family="Helvetica,sans-Serif" font-size="10.00">examples/simple_server/request_listener.cpp</text>
</a>
</g>
</g>
<!-- Node17&#45;&gt;Node18 -->
<g id="edge23_Node000017_Node000018" class="edge">
<title>Node17&#45;&gt;Node18</title>
<g id="a_edge23_Node000017_Node000018"><a xlink:title=" ">
<path fill="none" stroke="#63b8ff" d="M1433.72,-105.27C1446.68,-95.94 1462.67,-84.43 1473.71,-76.48"/>
<polygon fill="#63b8ff" stroke="#63b8ff" points="1432.01,-102.91 1425.94,-111.59 1436.1,-108.59 1432.01,-102.91"/>
</a>
</g>
</g>
<!-- Node19&#45;&gt;Node9 -->
<g id="edge26_Node000019_Node000009" class="edge">
<title>Node19&#45;&gt;Node9</title>
<g id="a_edge26_Node000019_Node000009"><a xlink:title=" ">
<path fill="none" stroke="#63b8ff" d="M559.17,-106.97C545.94,-99.81 532.34,-89.67 524.88,-76 513.84,-55.79 536.12,-32.83 551.32,-20.33"/>
<polygon fill="#63b8ff" stroke="#63b8ff" points="557.14,-110.36 567.65,-111.66 560.24,-104.09 557.14,-110.36"/>
</a>
</g>
</g>
<!-- Node20 -->
<g id="Node000020" class="node">
<title>Node20</title>
<g id="a_Node000020"><a xlink:href="examples_2websocket_2request__listener_8cpp.html" target="_top" xlink:title=" ">
<polygon fill="white" stroke="#666666" points="732.38,-76 533.38,-76 533.38,-56 732.38,-56 732.38,-76"/>
<text text-anchor="middle" x="632.88" y="-62.5" font-family="Helvetica,sans-Serif" font-size="10.00">examples/websocket/request_listener.cpp</text>
</a>
</g>
</g>
<!-- Node19&#45;&gt;Node20 -->
<g id="edge27_Node000019_Node000020" class="edge">
<title>Node19&#45;&gt;Node20</title>
<g id="a_edge27_Node000019_Node000020"><a xlink:title=" ">
<path fill="none" stroke="#63b8ff" d="M607.74,-102.72C613.99,-93.84 621.23,-83.55 626.33,-76.3"/>
<polygon fill="#63b8ff" stroke="#63b8ff" points="604.39,-100.4 601.49,-110.59 610.11,-104.43 604.39,-100.4"/>
</a>
</g>
</g>
</g>
</svg>
