<?xml version="1.0" encoding="UTF-8" standalone="no"?>
<!DOCTYPE svg PUBLIC "-//W3C//DTD SVG 1.1//EN"
 "http://www.w3.org/Graphics/SVG/1.1/DTD/svg11.dtd">
<!-- Generated by graphviz version 8.1.0 (0)
 -->
<!-- Title: src/roar/websocket/websocket_client.cpp Pages: 1 -->
<svg width="2180pt" height="252pt"
 viewBox="0.00 0.00 2180.25 252.00" xmlns="http://www.w3.org/2000/svg" xmlns:xlink="http://www.w3.org/1999/xlink">
<g id="graph0" class="graph" transform="scale(1 1) rotate(0) translate(4 248)">
<title>src/roar/websocket/websocket_client.cpp</title>
<!-- Node1 -->
<g id="Node000001" class="node">
<title>Node1</title>
<g id="a_Node000001"><a xlink:title=" ">
<polygon fill="#999999" stroke="#666666" points="1722.75,-244 1526,-244 1526,-224 1722.75,-224 1722.75,-244"/>
<text text-anchor="middle" x="1624.38" y="-230.5" font-family="Helvetica,sans-Serif" font-size="10.00">src/roar/websocket/websocket_client.cpp</text>
</a>
</g>
</g>
<!-- Node2 -->
<g id="Node000002" class="node">
<title>Node2</title>
<g id="a_Node000002"><a xlink:title=" ">
<polygon fill="#e0e0e0" stroke="#999999" points="564.12,-188 396.62,-188 396.62,-168 564.12,-168 564.12,-188"/>
<text text-anchor="middle" x="480.38" y="-174.5" font-family="Helvetica,sans-Serif" font-size="10.00">boost/beast/core/stream_traits.hpp</text>
</a>
</g>
</g>
<!-- Node1&#45;&gt;Node2 -->
<g id="edge1_Node000001_Node000002" class="edge">
<title>Node1&#45;&gt;Node2</title>
<g id="a_edge1_Node000001_Node000002"><a xlink:title=" ">
<path fill="none" stroke="#63b8ff" d="M1525.74,-230.54C1341.33,-225.56 931.49,-212.66 575.3,-188.09"/>
<polygon fill="#63b8ff" stroke="#63b8ff" points="575.73,-184.55 565.51,-187.35 575.24,-191.53 575.73,-184.55"/>
</a>
</g>
</g>
<!-- Node3 -->
<g id="Node000003" class="node">
<title>Node3</title>
<g id="a_Node000003"><a xlink:href="websocket__client_8hpp.html" target="_top" xlink:title=" ">
<polygon fill="white" stroke="#666666" points="762.5,-188 582.25,-188 582.25,-168 762.5,-168 762.5,-188"/>
<text text-anchor="middle" x="672.38" y="-174.5" font-family="Helvetica,sans-Serif" font-size="10.00">roar/websocket/websocket_client.hpp</text>
</a>
</g>
</g>
<!-- Node1&#45;&gt;Node3 -->
<g id="edge2_Node000001_Node000003" class="edge">
<title>Node1&#45;&gt;Node3</title>
<g id="a_edge2_Node000001_Node000003"><a xlink:title=" ">
<path fill="none" stroke="#63b8ff" d="M1525.63,-227.4C1343.64,-217.08 957.13,-195.15 773.42,-184.73"/>
<polygon fill="#63b8ff" stroke="#63b8ff" points="773.87,-181.19 763.68,-184.12 773.47,-188.18 773.87,-181.19"/>
</a>
</g>
</g>
<!-- Node26 -->
<g id="Node000026" class="node">
<title>Node26</title>
<g id="a_Node000026"><a xlink:title=" ">
<polygon fill="#e0e0e0" stroke="#999999" points="1348.38,-76 1212.38,-76 1212.38,-56 1348.38,-56 1348.38,-76"/>
<text text-anchor="middle" x="1280.38" y="-62.5" font-family="Helvetica,sans-Serif" font-size="10.00">boost/beast/websocket.hpp</text>
</a>
</g>
</g>
<!-- Node1&#45;&gt;Node26 -->
<g id="edge51_Node000001_Node000026" class="edge">
<title>Node1&#45;&gt;Node26</title>
<g id="a_edge51_Node000001_Node000026"><a xlink:title=" ">
<path fill="none" stroke="#63b8ff" d="M1593.53,-223.55C1567.67,-215.26 1530.01,-202.31 1498.38,-188 1425.45,-155.01 1344.14,-106.55 1304.6,-82.18"/>
<polygon fill="#63b8ff" stroke="#63b8ff" points="1306.61,-78.68 1296.26,-76.39 1302.92,-84.63 1306.61,-78.68"/>
</a>
</g>
</g>
<!-- Node27 -->
<g id="Node000027" class="node">
<title>Node27</title>
<g id="a_Node000027"><a xlink:title=" ">
<polygon fill="#e0e0e0" stroke="#999999" points="1518.25,-76 1366.5,-76 1366.5,-56 1518.25,-56 1518.25,-76"/>
<text text-anchor="middle" x="1442.38" y="-62.5" font-family="Helvetica,sans-Serif" font-size="10.00">boost/beast/websocket/ssl.hpp</text>
</a>
</g>
</g>
<!-- Node1&#45;&gt;Node27 -->
<g id="edge52_Node000001_Node000027" class="edge">
<title>Node1&#45;&gt;Node27</title>
<g id="a_edge52_Node000001_Node000027"><a xlink:title=" ">
<path fill="none" stroke="#63b8ff" d="M1591.3,-223.53C1570.2,-216.3 1543.2,-204.7 1523.38,-188 1489.2,-159.22 1463.6,-112.5 1451.03,-86.33"/>
<polygon fill="#63b8ff" stroke="#63b8ff" points="1453.84,-85.08 1446.45,-77.49 1447.5,-88.03 1453.84,-85.08"/>
</a>
</g>
</g>
<!-- Node32 -->
<g id="Node000032" class="node">
<title>Node32</title>
<g id="a_Node000032"><a xlink:href="resolve_8hpp.html" target="_top" xlink:title=" ">
<polygon fill="white" stroke="#666666" points="1636.62,-188 1532.12,-188 1532.12,-168 1636.62,-168 1636.62,-188"/>
<text text-anchor="middle" x="1584.38" y="-174.5" font-family="Helvetica,sans-Serif" font-size="10.00">roar/dns/resolve.hpp</text>
</a>
</g>
</g>
<!-- Node1&#45;&gt;Node32 -->
<g id="edge41_Node000001_Node000032" class="edge">
<title>Node1&#45;&gt;Node32</title>
<g id="a_edge41_Node000001_Node000032"><a xlink:title=" ">
<path fill="none" stroke="#63b8ff" d="M1617.41,-223.59C1611.96,-216.24 1604.22,-205.8 1597.61,-196.87"/>
<polygon fill="#63b8ff" stroke="#63b8ff" points="1600.03,-195.25 1591.26,-189.3 1594.4,-199.42 1600.03,-195.25"/>
</a>
</g>
</g>
<!-- Node34 -->
<g id="Node000034" class="node">
<title>Node34</title>
<g id="a_Node000034"><a xlink:title=" ">
<polygon fill="#e0e0e0" stroke="#999999" points="1965.75,-132 1907,-132 1907,-112 1965.75,-112 1965.75,-132"/>
<text text-anchor="middle" x="1936.38" y="-118.5" font-family="Helvetica,sans-Serif" font-size="10.00">stdexcept</text>
</a>
</g>
</g>
<!-- Node1&#45;&gt;Node34 -->
<g id="edge54_Node000001_Node000034" class="edge">
<title>Node1&#45;&gt;Node34</title>
<g id="a_edge54_Node000001_Node000034"><a xlink:title=" ">
<path fill="none" stroke="#63b8ff" d="M1629.91,-223.66C1639.05,-209.14 1658.76,-181.44 1683.38,-168 1765.42,-123.2 1800.88,-149.19 1895.92,-132.29"/>
<polygon fill="#63b8ff" stroke="#63b8ff" points="1896.38,-135.57 1905.55,-130.26 1895.07,-128.7 1896.38,-135.57"/>
</a>
</g>
</g>
<!-- Node37 -->
<g id="Node000037" class="node">
<title>Node37</title>
<g id="a_Node000037"><a xlink:title=" ">
<polygon fill="#e0e0e0" stroke="#999999" points="1798.75,-188 1692,-188 1692,-168 1798.75,-168 1798.75,-188"/>
<text text-anchor="middle" x="1745.38" y="-174.5" font-family="Helvetica,sans-Serif" font-size="10.00">boost/asio/buffer.hpp</text>
</a>
</g>
</g>
<!-- Node1&#45;&gt;Node37 -->
<g id="edge48_Node000001_Node000037" class="edge">
<title>Node1&#45;&gt;Node37</title>
<g id="a_edge48_Node000001_Node000037"><a xlink:title=" ">
<path fill="none" stroke="#63b8ff" d="M1645.45,-223.59C1664.42,-215.13 1692.55,-202.58 1714.13,-192.94"/>
<polygon fill="#63b8ff" stroke="#63b8ff" points="1715.43,-195.75 1723.13,-188.48 1712.58,-189.36 1715.43,-195.75"/>
</a>
</g>
</g>
<!-- Node38 -->
<g id="Node000038" class="node">
<title>Node38</title>
<g id="a_Node000038"><a xlink:title=" ">
<polygon fill="#e0e0e0" stroke="#999999" points="1924.12,-188 1816.62,-188 1816.62,-168 1924.12,-168 1924.12,-188"/>
<text text-anchor="middle" x="1870.38" y="-174.5" font-family="Helvetica,sans-Serif" font-size="10.00">boost/beast/core.hpp</text>
</a>
</g>
</g>
<!-- Node1&#45;&gt;Node38 -->
<g id="edge49_Node000001_Node000038" class="edge">
<title>Node1&#45;&gt;Node38</title>
<g id="a_edge49_Node000001_Node000038"><a xlink:title=" ">
<path fill="none" stroke="#63b8ff" d="M1667.51,-223.53C1709.01,-214.42 1771.88,-200.62 1816.62,-190.8"/>
<polygon fill="#63b8ff" stroke="#63b8ff" points="1817.28,-194.02 1826.29,-188.46 1815.78,-187.18 1817.28,-194.02"/>
</a>
</g>
</g>
<!-- Node39 -->
<g id="Node000039" class="node">
<title>Node39</title>
<g id="a_Node000039"><a xlink:title=" ">
<polygon fill="#e0e0e0" stroke="#999999" points="2044.12,-188 1942.62,-188 1942.62,-168 2044.12,-168 2044.12,-188"/>
<text text-anchor="middle" x="1993.38" y="-174.5" font-family="Helvetica,sans-Serif" font-size="10.00">boost/beast/ssl.hpp</text>
</a>
</g>
</g>
<!-- Node1&#45;&gt;Node39 -->
<g id="edge50_Node000001_Node000039" class="edge">
<title>Node1&#45;&gt;Node39</title>
<g id="a_edge50_Node000001_Node000039"><a xlink:title=" ">
<path fill="none" stroke="#63b8ff" d="M1690.09,-223.51C1750.27,-214.81 1842.12,-201.47 1931.69,-188.24"/>
<polygon fill="#63b8ff" stroke="#63b8ff" points="1931.93,-191.6 1941.31,-186.67 1930.91,-184.67 1931.93,-191.6"/>
</a>
</g>
</g>
<!-- Node40 -->
<g id="Node000040" class="node">
<title>Node40</title>
<g id="a_Node000040"><a xlink:title=" ">
<polygon fill="#e0e0e0" stroke="#999999" points="2172.25,-188 2062.5,-188 2062.5,-168 2172.25,-168 2172.25,-188"/>
<text text-anchor="middle" x="2117.38" y="-174.5" font-family="Helvetica,sans-Serif" font-size="10.00">boost/asio/strand.hpp</text>
</a>
</g>
</g>
<!-- Node1&#45;&gt;Node40 -->
<g id="edge53_Node000001_Node000040" class="edge">
<title>Node1&#45;&gt;Node40</title>
<g id="a_edge53_Node000001_Node000040"><a xlink:title=" ">
<path fill="none" stroke="#63b8ff" d="M1722.89,-223.66C1807.36,-215.42 1932.61,-202.66 2051.49,-188.19"/>
<polygon fill="#63b8ff" stroke="#63b8ff" points="2051.73,-191.57 2061.23,-186.88 2050.88,-184.62 2051.73,-191.57"/>
</a>
</g>
</g>
<!-- Node4 -->
<g id="Node000004" class="node">
<title>Node4</title>
<g id="a_Node000004"><a xlink:href="promise__compat_8hpp.html" target="_top" xlink:title=" ">
<polygon fill="white" stroke="#666666" points="647.62,-76 495.12,-76 495.12,-56 647.62,-56 647.62,-76"/>
<text text-anchor="middle" x="571.38" y="-62.5" font-family="Helvetica,sans-Serif" font-size="10.00">roar/detail/promise_compat.hpp</text>
</a>
</g>
</g>
<!-- Node3&#45;&gt;Node4 -->
<g id="edge3_Node000003_Node000004" class="edge">
<title>Node3&#45;&gt;Node4</title>
<g id="a_edge3_Node000003_Node000004"><a xlink:title=" ">
<path fill="none" stroke="#63b8ff" d="M581.84,-168.49C559.59,-161.85 538.21,-150.66 524.38,-132 511.95,-115.23 530.18,-95.82 547.43,-82.6"/>
<polygon fill="#63b8ff" stroke="#63b8ff" points="549.12,-84.98 555.2,-76.31 545.04,-79.3 549.12,-84.98"/>
</a>
</g>
</g>
<!-- Node6 -->
<g id="Node000006" class="node">
<title>Node6</title>
<g id="a_Node000006"><a xlink:title=" ">
<polygon fill="#e0e0e0" stroke="#999999" points="440.12,-20 314.62,-20 314.62,0 440.12,0 440.12,-20"/>
<text text-anchor="middle" x="377.38" y="-6.5" font-family="Helvetica,sans-Serif" font-size="10.00">promise&#45;cpp/promise.hpp</text>
</a>
</g>
</g>
<!-- Node3&#45;&gt;Node6 -->
<g id="edge36_Node000003_Node000006" class="edge">
<title>Node3&#45;&gt;Node6</title>
<g id="a_edge36_Node000003_Node000006"><a xlink:title=" ">
<path fill="none" stroke="#63b8ff" d="M597.42,-167.55C564.22,-161.03 525.68,-150.13 494.38,-132 448.43,-105.39 408.77,-55.61 389.61,-28.94"/>
<polygon fill="#63b8ff" stroke="#63b8ff" points="392.12,-27.42 383.51,-21.25 386.39,-31.45 392.12,-27.42"/>
</a>
</g>
</g>
<!-- Node7 -->
<g id="Node000007" class="node">
<title>Node7</title>
<g id="a_Node000007"><a xlink:href="pimpl__special__functions_8hpp.html" target="_top" xlink:title=" ">
<polygon fill="white" stroke="#666666" points="184.75,-132 0,-132 0,-112 184.75,-112 184.75,-132"/>
<text text-anchor="middle" x="92.38" y="-118.5" font-family="Helvetica,sans-Serif" font-size="10.00">roar/detail/pimpl_special_functions.hpp</text>
</a>
</g>
</g>
<!-- Node3&#45;&gt;Node7 -->
<g id="edge6_Node000003_Node000007" class="edge">
<title>Node3&#45;&gt;Node7</title>
<g id="a_edge6_Node000003_Node000007"><a xlink:title=" ">
<path fill="none" stroke="#63b8ff" d="M581.75,-168.56C477.22,-158.83 305.72,-142.86 195.99,-132.65"/>
<polygon fill="#63b8ff" stroke="#63b8ff" points="196.52,-129.09 186.24,-131.65 195.87,-136.06 196.52,-129.09"/>
</a>
</g>
</g>
<!-- Node8 -->
<g id="Node000008" class="node">
<title>Node8</title>
<g id="a_Node000008"><a xlink:href="shared__from__base_8hpp.html" target="_top" xlink:title=" ">
<polygon fill="white" stroke="#666666" points="363.75,-132 203,-132 203,-112 363.75,-112 363.75,-132"/>
<text text-anchor="middle" x="283.38" y="-118.5" font-family="Helvetica,sans-Serif" font-size="10.00">roar/detail/shared_from_base.hpp</text>
</a>
</g>
</g>
<!-- Node3&#45;&gt;Node8 -->
<g id="edge7_Node000003_Node000008" class="edge">
<title>Node3&#45;&gt;Node8</title>
<g id="a_edge7_Node000003_Node000008"><a xlink:title=" ">
<path fill="none" stroke="#63b8ff" d="M604.17,-167.53C536.61,-158.15 433.22,-143.8 362.18,-133.94"/>
<polygon fill="#63b8ff" stroke="#63b8ff" points="362.89,-130.37 352.5,-132.46 361.92,-137.3 362.89,-130.37"/>
</a>
</g>
</g>
<!-- Node9 -->
<g id="Node000009" class="node">
<title>Node9</title>
<g id="a_Node000009"><a xlink:title=" ">
<polygon fill="#e0e0e0" stroke="#999999" points="355,-76 303.75,-76 303.75,-56 355,-56 355,-76"/>
<text text-anchor="middle" x="329.38" y="-62.5" font-family="Helvetica,sans-Serif" font-size="10.00">memory</text>
</a>
</g>
</g>
<!-- Node3&#45;&gt;Node9 -->
<g id="edge37_Node000003_Node000009" class="edge">
<title>Node3&#45;&gt;Node9</title>
<g id="a_edge37_Node000003_Node000009"><a xlink:title=" ">
<path fill="none" stroke="#63b8ff" d="M594.91,-167.51C531.35,-158.98 446.89,-145.71 415.38,-132 388.48,-120.3 362.29,-98.57 346.02,-83.48"/>
<polygon fill="#63b8ff" stroke="#63b8ff" points="349.12,-81.64 339.46,-77.27 344.29,-86.71 349.12,-81.64"/>
</a>
</g>
</g>
<!-- Node10 -->
<g id="Node000010" class="node">
<title>Node10</title>
<g id="a_Node000010"><a xlink:href="websocket__base_8hpp.html" target="_top" xlink:title=" ">
<polygon fill="white" stroke="#666666" points="1168.38,-132 990.38,-132 990.38,-112 1168.38,-112 1168.38,-132"/>
<text text-anchor="middle" x="1079.38" y="-118.5" font-family="Helvetica,sans-Serif" font-size="10.00">roar/websocket/websocket_base.hpp</text>
</a>
</g>
</g>
<!-- Node3&#45;&gt;Node10 -->
<g id="edge9_Node000003_Node000010" class="edge">
<title>Node3&#45;&gt;Node10</title>
<g id="a_edge9_Node000003_Node000010"><a xlink:title=" ">
<path fill="none" stroke="#63b8ff" d="M743.73,-167.53C814.57,-158.13 923.05,-143.74 997.39,-133.88"/>
<polygon fill="#63b8ff" stroke="#63b8ff" points="997.64,-137.24 1007.1,-132.46 996.72,-130.3 997.64,-137.24"/>
</a>
</g>
</g>
<!-- Node17 -->
<g id="Node000017" class="node">
<title>Node17</title>
<g id="a_Node000017"><a xlink:title=" ">
<polygon fill="#e0e0e0" stroke="#999999" points="508.25,-20 458.5,-20 458.5,0 508.25,0 508.25,-20"/>
<text text-anchor="middle" x="483.38" y="-6.5" font-family="Helvetica,sans-Serif" font-size="10.00">optional</text>
</a>
</g>
</g>
<!-- Node3&#45;&gt;Node17 -->
<g id="edge38_Node000003_Node000017" class="edge">
<title>Node3&#45;&gt;Node17</title>
<g id="a_edge38_Node000003_Node000017"><a xlink:title=" ">
<path fill="none" stroke="#63b8ff" d="M594.18,-167.53C566.93,-161.08 537.64,-150.23 515.38,-132 485.5,-107.54 481.68,-58.73 482.14,-31.17"/>
<polygon fill="#63b8ff" stroke="#63b8ff" points="485.66,-31.6 482.55,-21.47 478.67,-31.33 485.66,-31.6"/>
</a>
</g>
</g>
<!-- Node24 -->
<g id="Node000024" class="node">
<title>Node24</title>
<g id="a_Node000024"><a xlink:title=" ">
<polygon fill="#e0e0e0" stroke="#999999" points="1718.38,-20 1564.38,-20 1564.38,0 1718.38,0 1718.38,-20"/>
<text text-anchor="middle" x="1641.38" y="-6.5" font-family="Helvetica,sans-Serif" font-size="10.00">boost/asio/any_io_executor.hpp</text>
</a>
</g>
</g>
<!-- Node3&#45;&gt;Node24 -->
<g id="edge33_Node000003_Node000024" class="edge">
<title>Node3&#45;&gt;Node24</title>
<g id="a_edge33_Node000003_Node000024"><a xlink:title=" ">
<path fill="none" stroke="#63b8ff" d="M762.78,-171.56C1010.77,-156.2 1685.53,-111.32 1717.38,-76 1735.08,-56.36 1704.82,-37.09 1677.4,-24.69"/>
<polygon fill="#63b8ff" stroke="#63b8ff" points="1679.09,-21.18 1668.52,-20.45 1676.33,-27.61 1679.09,-21.18"/>
</a>
</g>
</g>
<!-- Node28 -->
<g id="Node000028" class="node">
<title>Node28</title>
<g id="a_Node000028"><a xlink:title=" ">
<polygon fill="#e0e0e0" stroke="#999999" points="663.75,-132 533,-132 533,-112 663.75,-112 663.75,-132"/>
<text text-anchor="middle" x="598.38" y="-118.5" font-family="Helvetica,sans-Serif" font-size="10.00">boost/asio/ssl/context.hpp</text>
</a>
</g>
</g>
<!-- Node3&#45;&gt;Node28 -->
<g id="edge34_Node000003_Node000028" class="edge">
<title>Node3&#45;&gt;Node28</title>
<g id="a_edge34_Node000003_Node000028"><a xlink:title=" ">
<path fill="none" stroke="#63b8ff" d="M659.49,-167.59C648.56,-159.62 632.66,-148.02 619.81,-138.64"/>
<polygon fill="#63b8ff" stroke="#63b8ff" points="622.26,-135.37 612.12,-132.3 618.13,-141.02 622.26,-135.37"/>
</a>
</g>
</g>
<!-- Node29 -->
<g id="Node000029" class="node">
<title>Node29</title>
<g id="a_Node000029"><a xlink:title=" ">
<polygon fill="#e0e0e0" stroke="#999999" points="808.5,-132 682.25,-132 682.25,-112 808.5,-112 808.5,-132"/>
<text text-anchor="middle" x="745.38" y="-118.5" font-family="Helvetica,sans-Serif" font-size="10.00">boost/beast/http/field.hpp</text>
</a>
</g>
</g>
<!-- Node3&#45;&gt;Node29 -->
<g id="edge35_Node000003_Node000029" class="edge">
<title>Node3&#45;&gt;Node29</title>
<g id="a_edge35_Node000003_Node000029"><a xlink:title=" ">
<path fill="none" stroke="#63b8ff" d="M685.09,-167.59C695.87,-159.62 711.56,-148.02 724.23,-138.64"/>
<polygon fill="#63b8ff" stroke="#63b8ff" points="725.85,-141.06 731.81,-132.3 721.68,-135.43 725.85,-141.06"/>
</a>
</g>
</g>
<!-- Node30 -->
<g id="Node000030" class="node">
<title>Node30</title>
<g id="a_Node000030"><a xlink:title=" ">
<polygon fill="#e0e0e0" stroke="#999999" points="872,-132 826.75,-132 826.75,-112 872,-112 872,-132"/>
<text text-anchor="middle" x="849.38" y="-118.5" font-family="Helvetica,sans-Serif" font-size="10.00">chrono</text>
</a>
</g>
</g>
<!-- Node3&#45;&gt;Node30 -->
<g id="edge39_Node000003_Node000030" class="edge">
<title>Node3&#45;&gt;Node30</title>
<g id="a_edge39_Node000003_Node000030"><a xlink:title=" ">
<path fill="none" stroke="#63b8ff" d="M703.21,-167.59C734.8,-157.96 783.75,-143.02 816.18,-133.13"/>
<polygon fill="#63b8ff" stroke="#63b8ff" points="816.95,-136.25 825.49,-129.98 814.9,-129.55 816.95,-136.25"/>
</a>
</g>
</g>
<!-- Node31 -->
<g id="Node000031" class="node">
<title>Node31</title>
<g id="a_Node000031"><a xlink:title=" ">
<polygon fill="#e0e0e0" stroke="#999999" points="972.75,-132 890,-132 890,-112 972.75,-112 972.75,-132"/>
<text text-anchor="middle" x="931.38" y="-118.5" font-family="Helvetica,sans-Serif" font-size="10.00">unordered_map</text>
</a>
</g>
</g>
<!-- Node3&#45;&gt;Node31 -->
<g id="edge40_Node000003_Node000031" class="edge">
<title>Node3&#45;&gt;Node31</title>
<g id="a_edge40_Node000003_Node000031"><a xlink:title=" ">
<path fill="none" stroke="#63b8ff" d="M717.79,-167.53C762.87,-158.13 831.92,-143.73 879.23,-133.87"/>
<polygon fill="#63b8ff" stroke="#63b8ff" points="879.8,-137.12 888.87,-131.65 878.37,-130.27 879.8,-137.12"/>
</a>
</g>
</g>
<!-- Node5 -->
<g id="Node000005" class="node">
<title>Node5</title>
<g id="a_Node000005"><a xlink:title=" ">
<polygon fill="#e0e0e0" stroke="#999999" points="584.38,-20 526.38,-20 526.38,0 584.38,0 584.38,-20"/>
<text text-anchor="middle" x="555.38" y="-6.5" font-family="Helvetica,sans-Serif" font-size="10.00">functional</text>
</a>
</g>
</g>
<!-- Node4&#45;&gt;Node5 -->
<g id="edge4_Node000004_Node000005" class="edge">
<title>Node4&#45;&gt;Node5</title>
<g id="a_edge4_Node000004_Node000005"><a xlink:title=" ">
<path fill="none" stroke="#63b8ff" d="M568.59,-55.59C566.55,-48.7 563.7,-39.1 561.17,-30.57"/>
<polygon fill="#63b8ff" stroke="#63b8ff" points="564.33,-29.89 558.13,-21.3 557.62,-31.88 564.33,-29.89"/>
</a>
</g>
</g>
<!-- Node4&#45;&gt;Node6 -->
<g id="edge5_Node000004_Node000006" class="edge">
<title>Node4&#45;&gt;Node6</title>
<g id="a_edge5_Node000004_Node000006"><a xlink:title=" ">
<path fill="none" stroke="#63b8ff" d="M537.58,-55.59C505.51,-46.67 457.11,-33.19 421.9,-23.39"/>
<polygon fill="#63b8ff" stroke="#63b8ff" points="423,-19.79 412.43,-20.48 421.13,-26.53 423,-19.79"/>
</a>
</g>
</g>
<!-- Node8&#45;&gt;Node9 -->
<g id="edge8_Node000008_Node000009" class="edge">
<title>Node8&#45;&gt;Node9</title>
<g id="a_edge8_Node000008_Node000009"><a xlink:title=" ">
<path fill="none" stroke="#63b8ff" d="M291.39,-111.59C297.72,-104.16 306.74,-93.58 314.4,-84.58"/>
<polygon fill="#63b8ff" stroke="#63b8ff" points="317.63,-87.18 321.45,-77.3 312.31,-82.64 317.63,-87.18"/>
</a>
</g>
</g>
<!-- Node10&#45;&gt;Node4 -->
<g id="edge21_Node000010_Node000004" class="edge">
<title>Node10&#45;&gt;Node4</title>
<g id="a_edge21_Node000010_Node000004"><a xlink:title=" ">
<path fill="none" stroke="#63b8ff" d="M990.02,-111.5C896.63,-101.57 751.08,-86.1 658.53,-76.26"/>
<polygon fill="#63b8ff" stroke="#63b8ff" points="659.1,-72.7 648.79,-75.12 658.36,-79.66 659.1,-72.7"/>
</a>
</g>
</g>
<!-- Node10&#45;&gt;Node6 -->
<g id="edge27_Node000010_Node000006" class="edge">
<title>Node10&#45;&gt;Node6</title>
<g id="a_edge27_Node000010_Node000006"><a xlink:title=" ">
<path fill="none" stroke="#63b8ff" d="M990.24,-112.32C885.36,-101.83 721.94,-84.54 694.38,-76 676.14,-70.35 674.48,-62.04 656.38,-56 637.18,-49.59 526.84,-32.75 450.81,-21.59"/>
<polygon fill="#63b8ff" stroke="#63b8ff" points="451.72,-18.04 441.32,-20.05 450.71,-24.96 451.72,-18.04"/>
</a>
</g>
</g>
<!-- Node11 -->
<g id="Node000011" class="node">
<title>Node11</title>
<g id="a_Node000011"><a xlink:href="read__result_8hpp.html" target="_top" xlink:title=" ">
<polygon fill="white" stroke="#666666" points="1156.62,-76 1004.12,-76 1004.12,-56 1156.62,-56 1156.62,-76"/>
<text text-anchor="middle" x="1080.38" y="-62.5" font-family="Helvetica,sans-Serif" font-size="10.00">roar/websocket/read_result.hpp</text>
</a>
</g>
</g>
<!-- Node10&#45;&gt;Node11 -->
<g id="edge10_Node000010_Node000011" class="edge">
<title>Node10&#45;&gt;Node11</title>
<g id="a_edge10_Node000010_Node000011"><a xlink:title=" ">
<path fill="none" stroke="#63b8ff" d="M1079.55,-111.59C1079.67,-104.86 1079.85,-95.53 1080,-87.15"/>
<polygon fill="#63b8ff" stroke="#63b8ff" points="1083.52,-87.36 1080.2,-77.3 1076.52,-87.23 1083.52,-87.36"/>
</a>
</g>
</g>
<!-- Node13 -->
<g id="Node000013" class="node">
<title>Node13</title>
<g id="a_Node000013"><a xlink:href="error_8hpp.html" target="_top" xlink:title=" ">
<polygon fill="white" stroke="#666666" points="777.25,-76 703.5,-76 703.5,-56 777.25,-56 777.25,-76"/>
<text text-anchor="middle" x="740.38" y="-62.5" font-family="Helvetica,sans-Serif" font-size="10.00">roar/error.hpp</text>
</a>
</g>
</g>
<!-- Node10&#45;&gt;Node13 -->
<g id="edge12_Node000010_Node000013" class="edge">
<title>Node10&#45;&gt;Node13</title>
<g id="a_edge12_Node000010_Node000013"><a xlink:title=" ">
<path fill="none" stroke="#63b8ff" d="M1016.39,-111.52C958.01,-102.65 868.75,-88.87 791.38,-76 790.4,-75.84 789.42,-75.67 788.44,-75.51"/>
<polygon fill="#63b8ff" stroke="#63b8ff" points="789.13,-71.91 778.68,-73.67 787.95,-78.81 789.13,-71.91"/>
</a>
</g>
</g>
<!-- Node16 -->
<g id="Node000016" class="node">
<title>Node16</title>
<g id="a_Node000016"><a xlink:title=" ">
<polygon fill="#e0e0e0" stroke="#999999" points="1103,-20 1057.75,-20 1057.75,0 1103,0 1103,-20"/>
<text text-anchor="middle" x="1080.38" y="-6.5" font-family="Helvetica,sans-Serif" font-size="10.00">variant</text>
</a>
</g>
</g>
<!-- Node10&#45;&gt;Node16 -->
<g id="edge32_Node000010_Node000016" class="edge">
<title>Node10&#45;&gt;Node16</title>
<g id="a_edge32_Node000010_Node000016"><a xlink:title=" ">
<path fill="none" stroke="#63b8ff" d="M995.15,-111.53C925.23,-102.81 835.48,-89.24 824.38,-76 818.66,-69.19 818.61,-62.76 824.38,-56 855.37,-19.65 984.15,-29.71 1046.88,-19.98"/>
<polygon fill="#63b8ff" stroke="#63b8ff" points="1047.25,-23.29 1056.43,-18 1045.96,-16.41 1047.25,-23.29"/>
</a>
</g>
</g>
<!-- Node20 -->
<g id="Node000020" class="node">
<title>Node20</title>
<g id="a_Node000020"><a xlink:href="stream__type_8hpp.html" target="_top" xlink:title=" ">
<polygon fill="white" stroke="#666666" points="1708.62,-76 1574.12,-76 1574.12,-56 1708.62,-56 1708.62,-76"/>
<text text-anchor="middle" x="1641.38" y="-62.5" font-family="Helvetica,sans-Serif" font-size="10.00">roar/detail/stream_type.hpp</text>
</a>
</g>
</g>
<!-- Node10&#45;&gt;Node20 -->
<g id="edge22_Node000010_Node000020" class="edge">
<title>Node10&#45;&gt;Node20</title>
<g id="a_edge22_Node000010_Node000020"><a xlink:title=" ">
<path fill="none" stroke="#63b8ff" d="M1168.74,-112.41C1277.62,-101.95 1459.81,-84.45 1563.3,-74.5"/>
<polygon fill="#63b8ff" stroke="#63b8ff" points="1563.37,-77.92 1572.99,-73.47 1562.7,-70.95 1563.37,-77.92"/>
</a>
</g>
</g>
<!-- Node21 -->
<g id="Node000021" class="node">
<title>Node21</title>
<g id="a_Node000021"><a xlink:title=" ">
<polygon fill="#e0e0e0" stroke="#999999" points="1363,-20 1203.75,-20 1203.75,0 1363,0 1363,-20"/>
<text text-anchor="middle" x="1283.38" y="-6.5" font-family="Helvetica,sans-Serif" font-size="10.00">boost/beast/core/tcp_stream.hpp</text>
</a>
</g>
</g>
<!-- Node10&#45;&gt;Node21 -->
<g id="edge29_Node000010_Node000021" class="edge">
<title>Node10&#45;&gt;Node21</title>
<g id="a_edge29_Node000010_Node000021"><a xlink:title=" ">
<path fill="none" stroke="#63b8ff" d="M1097.55,-111.63C1115,-102.61 1142.07,-88.52 1165.38,-76 1197.11,-58.96 1233.36,-38.9 1257.22,-25.62"/>
<polygon fill="#63b8ff" stroke="#63b8ff" points="1258.6,-28.3 1265.63,-20.37 1255.19,-22.18 1258.6,-28.3"/>
</a>
</g>
</g>
<!-- Node25 -->
<g id="Node000025" class="node">
<title>Node25</title>
<g id="a_Node000025"><a xlink:title=" ">
<polygon fill="#e0e0e0" stroke="#999999" points="985.62,-76 833.12,-76 833.12,-56 985.62,-56 985.62,-76"/>
<text text-anchor="middle" x="909.38" y="-62.5" font-family="Helvetica,sans-Serif" font-size="10.00">boost/beast/ssl/ssl_stream.hpp</text>
</a>
</g>
</g>
<!-- Node10&#45;&gt;Node25 -->
<g id="edge28_Node000010_Node000025" class="edge">
<title>Node10&#45;&gt;Node25</title>
<g id="a_edge28_Node000010_Node000025"><a xlink:title=" ">
<path fill="none" stroke="#63b8ff" d="M1049.76,-111.59C1022.02,-102.78 980.34,-89.54 949.6,-79.78"/>
<polygon fill="#63b8ff" stroke="#63b8ff" points="950.81,-76.17 940.22,-76.48 948.69,-82.84 950.81,-76.17"/>
</a>
</g>
</g>
<!-- Node10&#45;&gt;Node26 -->
<g id="edge30_Node000010_Node000026" class="edge">
<title>Node10&#45;&gt;Node26</title>
<g id="a_edge30_Node000010_Node000026"><a xlink:title=" ">
<path fill="none" stroke="#63b8ff" d="M1114.39,-111.59C1147.76,-102.63 1198.2,-89.08 1234.71,-79.27"/>
<polygon fill="#63b8ff" stroke="#63b8ff" points="1235.34,-82.45 1244.09,-76.48 1233.52,-75.69 1235.34,-82.45"/>
</a>
</g>
</g>
<!-- Node10&#45;&gt;Node27 -->
<g id="edge31_Node000010_Node000027" class="edge">
<title>Node10&#45;&gt;Node27</title>
<g id="a_edge31_Node000010_Node000027"><a xlink:title=" ">
<path fill="none" stroke="#63b8ff" d="M1143.02,-111.53C1205.81,-102.19 1301.76,-87.92 1368.02,-78.06"/>
<polygon fill="#63b8ff" stroke="#63b8ff" points="1368.43,-81.39 1377.8,-76.46 1367.4,-74.47 1368.43,-81.39"/>
</a>
</g>
</g>
<!-- Node12 -->
<g id="Node000012" class="node">
<title>Node12</title>
<g id="a_Node000012"><a xlink:title=" ">
<polygon fill="#e0e0e0" stroke="#999999" points="1161.38,-20 1121.38,-20 1121.38,0 1161.38,0 1161.38,-20"/>
<text text-anchor="middle" x="1141.38" y="-6.5" font-family="Helvetica,sans-Serif" font-size="10.00">string</text>
</a>
</g>
</g>
<!-- Node11&#45;&gt;Node12 -->
<g id="edge11_Node000011_Node000012" class="edge">
<title>Node11&#45;&gt;Node12</title>
<g id="a_edge11_Node000011_Node000012"><a xlink:title=" ">
<path fill="none" stroke="#63b8ff" d="M1091,-55.59C1099.75,-47.85 1112.36,-36.69 1122.77,-27.47"/>
<polygon fill="#63b8ff" stroke="#63b8ff" points="1124.7,-30.55 1129.87,-21.3 1120.06,-25.31 1124.7,-30.55"/>
</a>
</g>
</g>
<!-- Node13&#45;&gt;Node5 -->
<g id="edge18_Node000013_Node000005" class="edge">
<title>Node13&#45;&gt;Node5</title>
<g id="a_edge18_Node000013_Node000005"><a xlink:title=" ">
<path fill="none" stroke="#63b8ff" d="M708.15,-55.59C676.76,-46.43 628.98,-32.48 595.22,-22.63"/>
<polygon fill="#63b8ff" stroke="#63b8ff" points="596.37,-19.03 585.79,-19.59 594.41,-25.75 596.37,-19.03"/>
</a>
</g>
</g>
<!-- Node13&#45;&gt;Node12 -->
<g id="edge15_Node000013_Node000012" class="edge">
<title>Node13&#45;&gt;Node12</title>
<g id="a_edge15_Node000013_Node000012"><a xlink:title=" ">
<path fill="none" stroke="#63b8ff" d="M777.46,-60.9C859.1,-51.82 1051.29,-30.15 1110.19,-19.91"/>
<polygon fill="#63b8ff" stroke="#63b8ff" points="1110.74,-23.18 1119.9,-17.86 1109.42,-16.31 1110.74,-23.18"/>
</a>
</g>
</g>
<!-- Node14 -->
<g id="Node000014" class="node">
<title>Node14</title>
<g id="a_Node000014"><a xlink:href="forward_8hpp.html" target="_top" xlink:title=" ">
<polygon fill="white" stroke="#666666" points="1040.12,-20 926.62,-20 926.62,0 1040.12,0 1040.12,-20"/>
<text text-anchor="middle" x="983.38" y="-6.5" font-family="Helvetica,sans-Serif" font-size="10.00">roar/beast/forward.hpp</text>
</a>
</g>
</g>
<!-- Node13&#45;&gt;Node14 -->
<g id="edge13_Node000013_Node000014" class="edge">
<title>Node13&#45;&gt;Node14</title>
<g id="a_edge13_Node000013_Node000014"><a xlink:title=" ">
<path fill="none" stroke="#63b8ff" d="M777.55,-56.74C818.29,-47.69 883.99,-33.09 930.18,-22.82"/>
<polygon fill="#63b8ff" stroke="#63b8ff" points="930.89,-26.03 939.89,-20.44 929.37,-19.19 930.89,-26.03"/>
</a>
</g>
</g>
<!-- Node15 -->
<g id="Node000015" class="node">
<title>Node15</title>
<g id="a_Node000015"><a xlink:title=" ">
<polygon fill="#e0e0e0" stroke="#999999" points="756.38,-20 602.38,-20 602.38,0 756.38,0 756.38,-20"/>
<text text-anchor="middle" x="679.38" y="-6.5" font-family="Helvetica,sans-Serif" font-size="10.00">boost/system/system_error.hpp</text>
</a>
</g>
</g>
<!-- Node13&#45;&gt;Node15 -->
<g id="edge14_Node000013_Node000015" class="edge">
<title>Node13&#45;&gt;Node15</title>
<g id="a_edge14_Node000013_Node000015"><a xlink:title=" ">
<path fill="none" stroke="#63b8ff" d="M729.75,-55.59C721,-47.85 708.39,-36.69 697.98,-27.47"/>
<polygon fill="#63b8ff" stroke="#63b8ff" points="700.69,-25.31 690.88,-21.3 696.05,-30.55 700.69,-25.31"/>
</a>
</g>
</g>
<!-- Node13&#45;&gt;Node16 -->
<g id="edge16_Node000013_Node000016" class="edge">
<title>Node13&#45;&gt;Node16</title>
<g id="a_edge16_Node000013_Node000016"><a xlink:title=" ">
<path fill="none" stroke="#63b8ff" d="M777.67,-58.26C782.28,-57.47 786.93,-56.7 791.38,-56 902.38,-38.47 934.3,-43.86 1047.01,-20.27"/>
<polygon fill="#63b8ff" stroke="#63b8ff" points="1047.39,-23.56 1056.45,-18.06 1045.94,-16.71 1047.39,-23.56"/>
</a>
</g>
</g>
<!-- Node13&#45;&gt;Node17 -->
<g id="edge17_Node000013_Node000017" class="edge">
<title>Node13&#45;&gt;Node17</title>
<g id="a_edge17_Node000013_Node000017"><a xlink:title=" ">
<path fill="none" stroke="#63b8ff" d="M703.14,-58.19C660.82,-50.3 589.47,-36.52 518.98,-20.27"/>
<polygon fill="#63b8ff" stroke="#63b8ff" points="520.12,-16.71 509.58,-17.85 518.53,-23.53 520.12,-16.71"/>
</a>
</g>
</g>
<!-- Node18 -->
<g id="Node000018" class="node">
<title>Node18</title>
<g id="a_Node000018"><a xlink:title=" ">
<polygon fill="#e0e0e0" stroke="#999999" points="840.12,-20 774.62,-20 774.62,0 840.12,0 840.12,-20"/>
<text text-anchor="middle" x="807.38" y="-6.5" font-family="Helvetica,sans-Serif" font-size="10.00">string_view</text>
</a>
</g>
</g>
<!-- Node13&#45;&gt;Node18 -->
<g id="edge19_Node000013_Node000018" class="edge">
<title>Node13&#45;&gt;Node18</title>
<g id="a_edge19_Node000013_Node000018"><a xlink:title=" ">
<path fill="none" stroke="#63b8ff" d="M752.05,-55.59C761.75,-47.77 775.78,-36.46 787.28,-27.19"/>
<polygon fill="#63b8ff" stroke="#63b8ff" points="789.25,-29.3 794.84,-20.3 784.86,-23.85 789.25,-29.3"/>
</a>
</g>
</g>
<!-- Node19 -->
<g id="Node000019" class="node">
<title>Node19</title>
<g id="a_Node000019"><a xlink:title=" ">
<polygon fill="#e0e0e0" stroke="#999999" points="909,-20 857.75,-20 857.75,0 909,0 909,-20"/>
<text text-anchor="middle" x="883.38" y="-6.5" font-family="Helvetica,sans-Serif" font-size="10.00">sstream</text>
</a>
</g>
</g>
<!-- Node13&#45;&gt;Node19 -->
<g id="edge20_Node000013_Node000019" class="edge">
<title>Node13&#45;&gt;Node19</title>
<g id="a_edge20_Node000013_Node000019"><a xlink:title=" ">
<path fill="none" stroke="#63b8ff" d="M765.28,-55.59C788.21,-46.94 822.46,-34 848.18,-24.29"/>
<polygon fill="#63b8ff" stroke="#63b8ff" points="849.15,-27.29 857.27,-20.48 846.68,-20.74 849.15,-27.29"/>
</a>
</g>
</g>
<!-- Node20&#45;&gt;Node21 -->
<g id="edge23_Node000020_Node000021" class="edge">
<title>Node20&#45;&gt;Node21</title>
<g id="a_edge23_Node000020_Node000021"><a xlink:title=" ">
<path fill="none" stroke="#63b8ff" d="M1578.61,-55.53C1516.68,-46.19 1422.06,-31.92 1356.7,-22.06"/>
<polygon fill="#63b8ff" stroke="#63b8ff" points="1357.48,-18.49 1347.07,-20.46 1356.44,-25.41 1357.48,-18.49"/>
</a>
</g>
</g>
<!-- Node22 -->
<g id="Node000022" class="node">
<title>Node22</title>
<g id="a_Node000022"><a xlink:title=" ">
<polygon fill="#e0e0e0" stroke="#999999" points="1545.88,-20 1388.88,-20 1388.88,0 1545.88,0 1545.88,-20"/>
<text text-anchor="middle" x="1467.38" y="-6.5" font-family="Helvetica,sans-Serif" font-size="10.00">boost/beast/core/rate_policy.hpp</text>
</a>
</g>
</g>
<!-- Node20&#45;&gt;Node22 -->
<g id="edge24_Node000020_Node000022" class="edge">
<title>Node20&#45;&gt;Node22</title>
<g id="a_edge24_Node000020_Node000022"><a xlink:title=" ">
<path fill="none" stroke="#63b8ff" d="M1611.07,-55.59C1582.55,-46.74 1539.64,-33.43 1508.13,-23.65"/>
<polygon fill="#63b8ff" stroke="#63b8ff" points="1509.51,-20.1 1498.92,-20.48 1507.43,-26.79 1509.51,-20.1"/>
</a>
</g>
</g>
<!-- Node23 -->
<g id="Node000023" class="node">
<title>Node23</title>
<g id="a_Node000023"><a xlink:title=" ">
<polygon fill="#e0e0e0" stroke="#999999" points="1842.75,-20 1736,-20 1736,0 1842.75,0 1842.75,-20"/>
<text text-anchor="middle" x="1789.38" y="-6.5" font-family="Helvetica,sans-Serif" font-size="10.00">boost/asio/ip/tcp.hpp</text>
</a>
</g>
</g>
<!-- Node20&#45;&gt;Node23 -->
<g id="edge25_Node000020_Node000023" class="edge">
<title>Node20&#45;&gt;Node23</title>
<g id="a_edge25_Node000020_Node000023"><a xlink:title=" ">
<path fill="none" stroke="#63b8ff" d="M1667.15,-55.59C1690.99,-46.9 1726.65,-33.89 1753.3,-24.16"/>
<polygon fill="#63b8ff" stroke="#63b8ff" points="1754.2,-27.2 1762.39,-20.48 1751.8,-20.62 1754.2,-27.2"/>
</a>
</g>
</g>
<!-- Node20&#45;&gt;Node24 -->
<g id="edge26_Node000020_Node000024" class="edge">
<title>Node20&#45;&gt;Node24</title>
<g id="a_edge26_Node000020_Node000024"><a xlink:title=" ">
<path fill="none" stroke="#63b8ff" d="M1641.38,-55.59C1641.38,-48.86 1641.38,-39.53 1641.38,-31.15"/>
<polygon fill="#63b8ff" stroke="#63b8ff" points="1644.88,-31.3 1641.38,-21.3 1637.88,-31.3 1644.88,-31.3"/>
</a>
</g>
</g>
<!-- Node32&#45;&gt;Node12 -->
<g id="edge44_Node000032_Node000012" class="edge">
<title>Node32&#45;&gt;Node12</title>
<g id="a_edge44_Node000032_Node000012"><a xlink:title=" ">
<path fill="none" stroke="#63b8ff" d="M1583.11,-167.8C1579.37,-144.6 1566.14,-83.63 1527.38,-56 1466.76,-12.81 1268.1,-30.24 1194.38,-20 1187.28,-19.01 1179.67,-17.81 1172.5,-16.61"/>
<polygon fill="#63b8ff" stroke="#63b8ff" points="1173.17,-13 1162.72,-14.75 1171.98,-19.9 1173.17,-13"/>
</a>
</g>
</g>
<!-- Node32&#45;&gt;Node23 -->
<g id="edge42_Node000032_Node000023" class="edge">
<title>Node32&#45;&gt;Node23</title>
<g id="a_edge42_Node000032_Node000023"><a xlink:title=" ">
<path fill="none" stroke="#63b8ff" d="M1584.34,-167.55C1584.83,-153.4 1587.91,-126.79 1603.38,-112 1651.98,-65.5 1696.23,-115.91 1750.38,-76 1765.91,-64.55 1776.44,-44.89 1782.61,-30.19"/>
<polygon fill="#63b8ff" stroke="#63b8ff" points="1786.15,-31.71 1786.48,-21.12 1779.62,-29.2 1786.15,-31.71"/>
</a>
</g>
</g>
<!-- Node33 -->
<g id="Node000033" class="node">
<title>Node33</title>
<g id="a_Node000033"><a xlink:title=" ">
<polygon fill="#e0e0e0" stroke="#999999" points="1754.75,-132 1612,-132 1612,-112 1754.75,-112 1754.75,-132"/>
<text text-anchor="middle" x="1683.38" y="-118.5" font-family="Helvetica,sans-Serif" font-size="10.00">boost/system/error_code.hpp</text>
</a>
</g>
</g>
<!-- Node32&#45;&gt;Node33 -->
<g id="edge43_Node000032_Node000033" class="edge">
<title>Node32&#45;&gt;Node33</title>
<g id="a_edge43_Node000032_Node000033"><a xlink:title=" ">
<path fill="none" stroke="#63b8ff" d="M1601.62,-167.59C1616.72,-159.36 1638.9,-147.26 1656.36,-137.74"/>
<polygon fill="#63b8ff" stroke="#63b8ff" points="1657.89,-140.34 1665,-132.48 1654.54,-134.2 1657.89,-140.34"/>
</a>
</g>
</g>
<!-- Node32&#45;&gt;Node34 -->
<g id="edge45_Node000032_Node000034" class="edge">
<title>Node32&#45;&gt;Node34</title>
<g id="a_edge45_Node000032_Node000034"><a xlink:title=" ">
<path fill="none" stroke="#63b8ff" d="M1636.99,-169.72C1712.74,-159.21 1847.98,-140.3 1895.74,-132.25"/>
<polygon fill="#63b8ff" stroke="#63b8ff" points="1896.33,-135.53 1905.56,-130.33 1895.1,-128.64 1896.33,-135.53"/>
</a>
</g>
</g>
<!-- Node35 -->
<g id="Node000035" class="node">
<title>Node35</title>
<g id="a_Node000035"><a xlink:title=" ">
<polygon fill="#e0e0e0" stroke="#999999" points="1828.25,-132 1772.5,-132 1772.5,-112 1828.25,-112 1828.25,-132"/>
<text text-anchor="middle" x="1800.38" y="-118.5" font-family="Helvetica,sans-Serif" font-size="10.00">algorithm</text>
</a>
</g>
</g>
<!-- Node32&#45;&gt;Node35 -->
<g id="edge46_Node000032_Node000035" class="edge">
<title>Node32&#45;&gt;Node35</title>
<g id="a_edge46_Node000032_Node000035"><a xlink:title=" ">
<path fill="none" stroke="#63b8ff" d="M1622,-167.59C1661.11,-157.82 1722.03,-142.59 1761.57,-132.7"/>
<polygon fill="#63b8ff" stroke="#63b8ff" points="1762.27,-135.88 1771.12,-130.06 1760.57,-129.09 1762.27,-135.88"/>
</a>
</g>
</g>
<!-- Node36 -->
<g id="Node000036" class="node">
<title>Node36</title>
<g id="a_Node000036"><a xlink:title=" ">
<polygon fill="#e0e0e0" stroke="#999999" points="1888.88,-132 1845.88,-132 1845.88,-112 1888.88,-112 1888.88,-132"/>
<text text-anchor="middle" x="1867.38" y="-118.5" font-family="Helvetica,sans-Serif" font-size="10.00">vector</text>
</a>
</g>
</g>
<!-- Node32&#45;&gt;Node36 -->
<g id="edge47_Node000032_Node000036" class="edge">
<title>Node32&#45;&gt;Node36</title>
<g id="a_edge47_Node000032_Node000036"><a xlink:title=" ">
<path fill="none" stroke="#63b8ff" d="M1637.07,-169.44C1686.19,-161.99 1761.65,-149.51 1835.14,-132.34"/>
<polygon fill="#63b8ff" stroke="#63b8ff" points="1835.58,-135.59 1844.5,-129.88 1833.96,-128.78 1835.58,-135.59"/>
</a>
</g>
</g>
</g>
</svg>
