<?xml version="1.0" encoding="UTF-8" standalone="no"?>
<!DOCTYPE svg PUBLIC "-//W3C//DTD SVG 1.1//EN"
 "http://www.w3.org/Graphics/SVG/1.1/DTD/svg11.dtd">
<!-- Generated by graphviz version 2.44.1 (20211215.1903)
 -->
<!-- Title: include/roar/websocket/websocket_session.hpp Pages: 1 -->
<!--zoomable 308 -->
<svg id="main" version="1.1" xmlns="http://www.w3.org/2000/svg" xmlns:xlink="http://www.w3.org/1999/xlink" xml:space="preserve" onload="init(evt)">
<style type="text/css"><![CDATA[
.edge:hover path { stroke: red; }
.edge:hover polygon { stroke: red; fill: red; }
]]></style>
<script type="text/javascript"><![CDATA[
var edges = document.getElementsByTagName('g');
if (edges && edges.length) {
  for (var i=0;i<edges.length;i++) {
    if (edges[i].id.substr(0,4)=='edge') {
      edges[i].setAttribute('class','edge');
    }
  }
}
]]></script>
        <defs>
                <circle id="rim" cx="0" cy="0" r="7"/>
                <circle id="rim2" cx="0" cy="0" r="3.5"/>
                <g id="zoomPlus">
                        <use xlink:href="#rim" fill="#404040">
                                <set attributeName="fill" to="#808080" begin="zoomplus.mouseover" end="zoomplus.mouseout"/>
                        </use>
                        <path d="M-4,0h8M0,-4v8" fill="none" stroke="white" stroke-width="1.5" pointer-events="none"/>
                </g>
                <g id="zoomMin">
                        <use xlink:href="#rim" fill="#404040">
                                <set attributeName="fill" to="#808080" begin="zoomminus.mouseover" end="zoomminus.mouseout"/>
                        </use>
                        <path d="M-4,0h8" fill="none" stroke="white" stroke-width="1.5" pointer-events="none"/>
                </g>
                <g id="dirArrow">
                        <path fill="none" stroke="white" stroke-width="1.5" d="M0,-3.0v7 M-2.5,-0.5L0,-3.0L2.5,-0.5"/>
                </g>
               <g id="resetDef">
                       <use xlink:href="#rim2" fill="#404040">
                               <set attributeName="fill" to="#808080" begin="reset.mouseover" end="reset.mouseout"/>
                       </use>
               </g>
        </defs>

<script type="text/javascript">
var viewWidth = 2136;
var viewHeight = 308;
var sectionId = 'dynsection-1';
</script>
<script xlink:href="svgpan.js"/>
<svg id="graph" class="graph">
<g id="viewport">
<title>include/roar/websocket/websocket_session.hpp</title>
<!-- Node1 -->
<g id="node1" class="node">
<title>Node1</title>
<g id="a_node1"><a xlink:title=" ">
<polygon fill="#bfbfbf" stroke="black" points="1462.5,-280.5 1462.5,-299.5 1687.5,-299.5 1687.5,-280.5 1462.5,-280.5"/>
<text text-anchor="middle" x="1575" y="-287.5" font-family="Helvetica,sans-Serif" font-size="10.00">include/roar/websocket/websocket_session.hpp</text>
</a>
</g>
</g>
<!-- Node2 -->
<g id="node2" class="node">
<title>Node2</title>
<g id="a_node2"><a xlink:href="examples_2websocket_2request__listener_8hpp.html" target="_top" xlink:title=" ">
<polygon fill="none" stroke="black" points="38,-112.5 38,-131.5 238,-131.5 238,-112.5 38,-112.5"/>
<text text-anchor="middle" x="138" y="-119.5" font-family="Helvetica,sans-Serif" font-size="10.00">examples/websocket/request_listener.hpp</text>
</a>
</g>
</g>
<!-- Node1&#45;&gt;Node2 -->
<g id="edge1" class="edge">
<title>Node1&#45;&gt;Node2</title>
<path fill="none" stroke="midnightblue" d="M1491.22,-279.32C1233.56,-249.56 455.63,-159.69 211.87,-131.53"/>
<polygon fill="midnightblue" stroke="midnightblue" points="1490.93,-282.81 1501.27,-280.48 1491.73,-275.86 1490.93,-282.81"/>
</g>
<!-- Node5 -->
<g id="node5" class="node">
<title>Node5</title>
<g id="a_node5"><a xlink:href="session_8hpp.html" target="_top" xlink:title=" ">
<polygon fill="none" stroke="black" points="1495.5,-224.5 1495.5,-243.5 1654.5,-243.5 1654.5,-224.5 1495.5,-224.5"/>
<text text-anchor="middle" x="1575" y="-231.5" font-family="Helvetica,sans-Serif" font-size="10.00">include/roar/session/session.hpp</text>
</a>
</g>
</g>
<!-- Node1&#45;&gt;Node5 -->
<g id="edge4" class="edge">
<title>Node1&#45;&gt;Node5</title>
<path fill="none" stroke="midnightblue" d="M1575,-269.8C1575,-260.91 1575,-250.78 1575,-243.75"/>
<polygon fill="midnightblue" stroke="midnightblue" points="1571.5,-270.08 1575,-280.08 1578.5,-270.08 1571.5,-270.08"/>
</g>
<!-- Node25 -->
<g id="node25" class="node">
<title>Node25</title>
<g id="a_node25"><a xlink:href="websocket__session_8cpp.html" target="_top" xlink:title=" ">
<polygon fill="none" stroke="black" points="1673,-224.5 1673,-243.5 1881,-243.5 1881,-224.5 1673,-224.5"/>
<text text-anchor="middle" x="1777" y="-231.5" font-family="Helvetica,sans-Serif" font-size="10.00">src/roar/websocket/websocket_session.cpp</text>
</a>
</g>
</g>
<!-- Node1&#45;&gt;Node25 -->
<g id="edge38" class="edge">
<title>Node1&#45;&gt;Node25</title>
<path fill="none" stroke="midnightblue" d="M1616.79,-277.83C1654.93,-267.63 1710.48,-252.78 1745.14,-243.52"/>
<polygon fill="midnightblue" stroke="midnightblue" points="1615.76,-274.48 1607.01,-280.44 1617.57,-281.24 1615.76,-274.48"/>
</g>
<!-- Node3 -->
<g id="node3" class="node">
<title>Node3</title>
<g id="a_node3"><a xlink:href="websocket_2main_8cpp.html" target="_top" xlink:title=" ">
<polygon fill="none" stroke="black" points="171,-0.5 171,-19.5 323,-19.5 323,-0.5 171,-0.5"/>
<text text-anchor="middle" x="247" y="-7.5" font-family="Helvetica,sans-Serif" font-size="10.00">examples/websocket/main.cpp</text>
</a>
</g>
</g>
<!-- Node2&#45;&gt;Node3 -->
<g id="edge2" class="edge">
<title>Node2&#45;&gt;Node3</title>
<path fill="none" stroke="midnightblue" d="M165.47,-107.65C179.65,-99.82 196.53,-88.92 209,-76 225.52,-58.88 237.76,-33.25 243.45,-19.86"/>
<polygon fill="midnightblue" stroke="midnightblue" points="163.81,-104.57 156.62,-112.35 167.09,-110.75 163.81,-104.57"/>
</g>
<!-- Node4 -->
<g id="node4" class="node">
<title>Node4</title>
<g id="a_node4"><a xlink:href="examples_2websocket_2request__listener_8cpp.html" target="_top" xlink:title=" ">
<polygon fill="none" stroke="black" points="0,-56.5 0,-75.5 200,-75.5 200,-56.5 0,-56.5"/>
<text text-anchor="middle" x="100" y="-63.5" font-family="Helvetica,sans-Serif" font-size="10.00">examples/websocket/request_listener.cpp</text>
</a>
</g>
</g>
<!-- Node2&#45;&gt;Node4 -->
<g id="edge3" class="edge">
<title>Node2&#45;&gt;Node4</title>
<path fill="none" stroke="midnightblue" d="M125.94,-103.86C119.36,-94.5 111.49,-83.33 106.16,-75.75"/>
<polygon fill="midnightblue" stroke="midnightblue" points="123.11,-105.92 131.73,-112.08 128.83,-101.89 123.11,-105.92"/>
</g>
<!-- Node6 -->
<g id="node6" class="node">
<title>Node6</title>
<g id="a_node6"><a xlink:href="directory__server_8hpp.html" target="_top" xlink:title=" ">
<polygon fill="none" stroke="black" points="1251.5,-112.5 1251.5,-131.5 1482.5,-131.5 1482.5,-112.5 1251.5,-112.5"/>
<text text-anchor="middle" x="1367" y="-119.5" font-family="Helvetica,sans-Serif" font-size="10.00">include/roar/directory_server/directory_server.hpp</text>
</a>
</g>
</g>
<!-- Node5&#45;&gt;Node6 -->
<g id="edge5" class="edge">
<title>Node5&#45;&gt;Node6</title>
<path fill="none" stroke="midnightblue" d="M1542.53,-220.63C1521.47,-212.23 1493.64,-200.43 1470,-188 1435.94,-170.1 1398.25,-144.8 1379.3,-131.67"/>
<polygon fill="midnightblue" stroke="midnightblue" points="1541.4,-223.95 1551.99,-224.35 1543.97,-217.43 1541.4,-223.95"/>
</g>
<!-- Node7 -->
<g id="node7" class="node">
<title>Node7</title>
<g id="a_node7"><a xlink:href="server_8hpp.html" target="_top" xlink:title=" ">
<polygon fill="none" stroke="black" points="1194,-56.5 1194,-75.5 1310,-75.5 1310,-56.5 1194,-56.5"/>
<text text-anchor="middle" x="1252" y="-63.5" font-family="Helvetica,sans-Serif" font-size="10.00">include/roar/server.hpp</text>
</a>
</g>
</g>
<!-- Node5&#45;&gt;Node7 -->
<g id="edge32" class="edge">
<title>Node5&#45;&gt;Node7</title>
<path fill="none" stroke="midnightblue" d="M1543.04,-220.13C1528.87,-212.8 1513.33,-202.21 1504,-188 1485.22,-159.42 1515.83,-136.53 1492,-112 1467.37,-86.65 1373,-75.23 1310.19,-70.35"/>
<polygon fill="midnightblue" stroke="midnightblue" points="1541.54,-223.29 1552.07,-224.48 1544.58,-216.99 1541.54,-223.29"/>
</g>
<!-- Node13 -->
<g id="node13" class="node">
<title>Node13</title>
<g id="a_node13"><a xlink:href="server_8cpp.html" target="_top" xlink:title=" ">
<polygon fill="none" stroke="black" points="1736,-0.5 1736,-19.5 1834,-19.5 1834,-0.5 1736,-0.5"/>
<text text-anchor="middle" x="1785" y="-7.5" font-family="Helvetica,sans-Serif" font-size="10.00">src/roar/server.cpp</text>
</a>
</g>
</g>
<!-- Node5&#45;&gt;Node13 -->
<g id="edge35" class="edge">
<title>Node5&#45;&gt;Node13</title>
<path fill="none" stroke="midnightblue" d="M1664.78,-224.18C1746.61,-219.88 2076.94,-222.75 2109,-188 2196.68,-92.95 1944.93,-37.78 1834.3,-18.67"/>
<polygon fill="midnightblue" stroke="midnightblue" points="1664.31,-220.71 1654.57,-224.87 1664.78,-227.69 1664.31,-220.71"/>
</g>
<!-- Node14 -->
<g id="node14" class="node">
<title>Node14</title>
<g id="a_node14"><a xlink:href="include_2roar_2routing_2request__listener_8hpp.html" target="_top" xlink:title=" ">
<polygon fill="none" stroke="black" points="783,-168.5 783,-187.5 973,-187.5 973,-168.5 783,-168.5"/>
<text text-anchor="middle" x="878" y="-175.5" font-family="Helvetica,sans-Serif" font-size="10.00">include/roar/routing/request_listener.hpp</text>
</a>
</g>
</g>
<!-- Node5&#45;&gt;Node14 -->
<g id="edge14" class="edge">
<title>Node5&#45;&gt;Node14</title>
<path fill="none" stroke="midnightblue" d="M1485.31,-226.05C1353.41,-215.83 1108.18,-196.83 973.2,-186.38"/>
<polygon fill="midnightblue" stroke="midnightblue" points="1485.14,-229.55 1495.38,-226.83 1485.69,-222.57 1485.14,-229.55"/>
</g>
<!-- Node21 -->
<g id="node21" class="node">
<title>Node21</title>
<g id="a_node21"><a xlink:href="route_8cpp.html" target="_top" xlink:title=" ">
<polygon fill="none" stroke="black" points="1512.5,-168.5 1512.5,-187.5 1637.5,-187.5 1637.5,-168.5 1512.5,-168.5"/>
<text text-anchor="middle" x="1575" y="-175.5" font-family="Helvetica,sans-Serif" font-size="10.00">src/roar/routing/route.cpp</text>
</a>
</g>
</g>
<!-- Node5&#45;&gt;Node21 -->
<g id="edge33" class="edge">
<title>Node5&#45;&gt;Node21</title>
<path fill="none" stroke="midnightblue" d="M1575,-213.8C1575,-204.91 1575,-194.78 1575,-187.75"/>
<polygon fill="midnightblue" stroke="midnightblue" points="1571.5,-214.08 1575,-224.08 1578.5,-214.08 1571.5,-214.08"/>
</g>
<!-- Node22 -->
<g id="node22" class="node">
<title>Node22</title>
<g id="a_node22"><a xlink:href="router_8cpp.html" target="_top" xlink:title=" ">
<polygon fill="none" stroke="black" points="1656,-168.5 1656,-187.5 1784,-187.5 1784,-168.5 1656,-168.5"/>
<text text-anchor="middle" x="1720" y="-175.5" font-family="Helvetica,sans-Serif" font-size="10.00">src/roar/routing/router.cpp</text>
</a>
</g>
</g>
<!-- Node5&#45;&gt;Node22 -->
<g id="edge34" class="edge">
<title>Node5&#45;&gt;Node22</title>
<path fill="none" stroke="midnightblue" d="M1607.48,-220.91C1634.74,-210.75 1672.99,-196.51 1697.13,-187.52"/>
<polygon fill="midnightblue" stroke="midnightblue" points="1606.13,-217.67 1597.98,-224.44 1608.57,-224.23 1606.13,-217.67"/>
</g>
<!-- Node23 -->
<g id="node23" class="node">
<title>Node23</title>
<g id="a_node23"><a xlink:href="factory_8cpp.html" target="_top" xlink:title=" ">
<polygon fill="none" stroke="black" points="1802.5,-168.5 1802.5,-187.5 1939.5,-187.5 1939.5,-168.5 1802.5,-168.5"/>
<text text-anchor="middle" x="1871" y="-175.5" font-family="Helvetica,sans-Serif" font-size="10.00">src/roar/session/factory.cpp</text>
</a>
</g>
</g>
<!-- Node5&#45;&gt;Node23 -->
<g id="edge36" class="edge">
<title>Node5&#45;&gt;Node23</title>
<path fill="none" stroke="midnightblue" d="M1632,-222.6C1687.94,-212.4 1772.23,-197.02 1824.32,-187.52"/>
<polygon fill="midnightblue" stroke="midnightblue" points="1631.11,-219.21 1621.9,-224.44 1632.37,-226.09 1631.11,-219.21"/>
</g>
<!-- Node24 -->
<g id="node24" class="node">
<title>Node24</title>
<g id="a_node24"><a xlink:href="session_8cpp.html" target="_top" xlink:title=" ">
<polygon fill="none" stroke="black" points="1958,-168.5 1958,-187.5 2100,-187.5 2100,-168.5 1958,-168.5"/>
<text text-anchor="middle" x="2029" y="-175.5" font-family="Helvetica,sans-Serif" font-size="10.00">src/roar/session/session.cpp</text>
</a>
</g>
</g>
<!-- Node5&#45;&gt;Node24 -->
<g id="edge37" class="edge">
<title>Node5&#45;&gt;Node24</title>
<path fill="none" stroke="midnightblue" d="M1656.65,-223.29C1742.43,-213.09 1876.01,-197.2 1957.69,-187.48"/>
<polygon fill="midnightblue" stroke="midnightblue" points="1656.2,-219.82 1646.69,-224.47 1657.03,-226.77 1656.2,-219.82"/>
</g>
<!-- Node6&#45;&gt;Node7 -->
<g id="edge6" class="edge">
<title>Node6&#45;&gt;Node7</title>
<path fill="none" stroke="midnightblue" d="M1339.52,-108.1C1318.03,-98.01 1288.78,-84.27 1270.14,-75.52"/>
<polygon fill="midnightblue" stroke="midnightblue" points="1338.24,-111.36 1348.78,-112.44 1341.21,-105.02 1338.24,-111.36"/>
</g>
<!-- Node7&#45;&gt;Node3 -->
<g id="edge11" class="edge">
<title>Node7&#45;&gt;Node3</title>
<path fill="none" stroke="midnightblue" d="M1183.82,-58.74C1171.57,-57.74 1158.91,-56.77 1147,-56 785.19,-32.51 693.56,-47.1 332,-20 329.19,-19.79 326.33,-19.56 323.44,-19.32"/>
<polygon fill="midnightblue" stroke="midnightblue" points="1183.73,-62.25 1193.99,-59.6 1184.32,-55.27 1183.73,-62.25"/>
</g>
<!-- Node8 -->
<g id="node8" class="node">
<title>Node8</title>
<g id="a_node8"><a xlink:href="100__continue_2main_8cpp.html" target="_top" xlink:title=" ">
<polygon fill="none" stroke="black" points="974,-0.5 974,-19.5 1136,-19.5 1136,-0.5 974,-0.5"/>
<text text-anchor="middle" x="1055" y="-7.5" font-family="Helvetica,sans-Serif" font-size="10.00">examples/100_continue/main.cpp</text>
</a>
</g>
</g>
<!-- Node7&#45;&gt;Node8 -->
<g id="edge7" class="edge">
<title>Node7&#45;&gt;Node8</title>
<path fill="none" stroke="midnightblue" d="M1210.77,-53.7C1173.59,-43.51 1119.73,-28.74 1086.07,-19.52"/>
<polygon fill="midnightblue" stroke="midnightblue" points="1210.22,-57.18 1220.78,-56.44 1212.07,-50.42 1210.22,-57.18"/>
</g>
<!-- Node9 -->
<g id="node9" class="node">
<title>Node9</title>
<g id="a_node9"><a xlink:href="most__minimal_2main_8cpp.html" target="_top" xlink:title=" ">
<polygon fill="none" stroke="black" points="1154.5,-0.5 1154.5,-19.5 1319.5,-19.5 1319.5,-0.5 1154.5,-0.5"/>
<text text-anchor="middle" x="1237" y="-7.5" font-family="Helvetica,sans-Serif" font-size="10.00">examples/most_minimal/main.cpp</text>
</a>
</g>
</g>
<!-- Node7&#45;&gt;Node9 -->
<g id="edge8" class="edge">
<title>Node7&#45;&gt;Node9</title>
<path fill="none" stroke="midnightblue" d="M1246.83,-46.4C1244.32,-37.36 1241.43,-26.94 1239.43,-19.75"/>
<polygon fill="midnightblue" stroke="midnightblue" points="1243.47,-47.38 1249.52,-56.08 1250.22,-45.51 1243.47,-47.38"/>
</g>
<!-- Node10 -->
<g id="node10" class="node">
<title>Node10</title>
<g id="a_node10"><a xlink:href="serve__directory_2main_8cpp.html" target="_top" xlink:title=" ">
<polygon fill="none" stroke="black" points="341.5,-0.5 341.5,-19.5 512.5,-19.5 512.5,-0.5 341.5,-0.5"/>
<text text-anchor="middle" x="427" y="-7.5" font-family="Helvetica,sans-Serif" font-size="10.00">examples/serve_directory/main.cpp</text>
</a>
</g>
</g>
<!-- Node7&#45;&gt;Node10 -->
<g id="edge9" class="edge">
<title>Node7&#45;&gt;Node10</title>
<path fill="none" stroke="midnightblue" d="M1183.81,-58.92C1171.56,-57.9 1158.9,-56.88 1147,-56 917.96,-39.03 647.62,-23.28 512.66,-15.71"/>
<polygon fill="midnightblue" stroke="midnightblue" points="1183.72,-62.43 1193.98,-59.79 1184.31,-55.45 1183.72,-62.43"/>
</g>
<!-- Node11 -->
<g id="node11" class="node">
<title>Node11</title>
<g id="a_node11"><a xlink:href="simple__server_2main_8cpp.html" target="_top" xlink:title=" ">
<polygon fill="none" stroke="black" points="775.5,-0.5 775.5,-19.5 940.5,-19.5 940.5,-0.5 775.5,-0.5"/>
<text text-anchor="middle" x="858" y="-7.5" font-family="Helvetica,sans-Serif" font-size="10.00">examples/simple_server/main.cpp</text>
</a>
</g>
</g>
<!-- Node7&#45;&gt;Node11 -->
<g id="edge10" class="edge">
<title>Node7&#45;&gt;Node11</title>
<path fill="none" stroke="midnightblue" d="M1183.69,-55.64C1109.5,-45.47 992.02,-29.37 920.28,-19.54"/>
<polygon fill="midnightblue" stroke="midnightblue" points="1183.48,-59.14 1193.86,-57.03 1184.43,-52.21 1183.48,-59.14"/>
</g>
<!-- Node12 -->
<g id="node12" class="node">
<title>Node12</title>
<g id="a_node12"><a xlink:href="src_2roar_2routing_2request__listener_8cpp.html" target="_top" xlink:title=" ">
<polygon fill="none" stroke="black" points="1337.5,-0.5 1337.5,-19.5 1510.5,-19.5 1510.5,-0.5 1337.5,-0.5"/>
<text text-anchor="middle" x="1424" y="-7.5" font-family="Helvetica,sans-Serif" font-size="10.00">src/roar/routing/request_listener.cpp</text>
</a>
</g>
</g>
<!-- Node7&#45;&gt;Node12 -->
<g id="edge12" class="edge">
<title>Node7&#45;&gt;Node12</title>
<path fill="none" stroke="midnightblue" d="M1288.83,-53.44C1321.26,-43.26 1367.74,-28.66 1396.87,-19.52"/>
<polygon fill="midnightblue" stroke="midnightblue" points="1287.75,-50.11 1279.25,-56.44 1289.84,-56.79 1287.75,-50.11"/>
</g>
<!-- Node7&#45;&gt;Node13 -->
<g id="edge13" class="edge">
<title>Node7&#45;&gt;Node13</title>
<path fill="none" stroke="midnightblue" d="M1320.28,-58.08C1429.26,-47.04 1639.99,-25.69 1735.64,-16"/>
<polygon fill="midnightblue" stroke="midnightblue" points="1319.65,-54.63 1310.05,-59.12 1320.36,-61.59 1319.65,-54.63"/>
</g>
<!-- Node14&#45;&gt;Node2 -->
<g id="edge28" class="edge">
<title>Node14&#45;&gt;Node2</title>
<path fill="none" stroke="midnightblue" d="M772.52,-169.64C648.08,-160.91 434.96,-145.8 252,-132 247.45,-131.66 242.79,-131.3 238.09,-130.94"/>
<polygon fill="midnightblue" stroke="midnightblue" points="772.58,-173.16 782.8,-170.37 773.07,-166.17 772.58,-173.16"/>
</g>
<!-- Node14&#45;&gt;Node3 -->
<g id="edge27" class="edge">
<title>Node14&#45;&gt;Node3</title>
<path fill="none" stroke="midnightblue" d="M772.46,-172.65C627.07,-165.98 378.85,-151.87 342,-132 293.34,-105.76 261.26,-42.84 250.76,-19.72"/>
<polygon fill="midnightblue" stroke="midnightblue" points="772.6,-176.16 782.75,-173.12 772.92,-169.17 772.6,-176.16"/>
</g>
<!-- Node14&#45;&gt;Node6 -->
<g id="edge29" class="edge">
<title>Node14&#45;&gt;Node6</title>
<path fill="none" stroke="midnightblue" d="M965.36,-167.35C1057.59,-157.17 1201.59,-141.27 1289.79,-131.53"/>
<polygon fill="midnightblue" stroke="midnightblue" points="964.77,-163.9 955.21,-168.47 965.54,-170.85 964.77,-163.9"/>
</g>
<!-- Node14&#45;&gt;Node7 -->
<g id="edge30" class="edge">
<title>Node14&#45;&gt;Node7</title>
<path fill="none" stroke="midnightblue" d="M983.08,-171.86C1037.77,-166.34 1104.77,-155.05 1161,-132 1194.41,-118.31 1227.31,-90.2 1242.8,-75.85"/>
<polygon fill="midnightblue" stroke="midnightblue" points="982.64,-168.38 973.02,-172.82 983.31,-175.35 982.64,-168.38"/>
</g>
<!-- Node14&#45;&gt;Node8 -->
<g id="edge15" class="edge">
<title>Node14&#45;&gt;Node8</title>
<path fill="none" stroke="midnightblue" d="M964.53,-167.1C1019.82,-159.46 1085.41,-147.58 1109,-132 1140.52,-111.19 1166.99,-88.04 1147,-56 1135.33,-37.3 1113.38,-26.15 1093.85,-19.64"/>
<polygon fill="midnightblue" stroke="midnightblue" points="963.78,-163.66 954.34,-168.47 964.72,-170.6 963.78,-163.66"/>
</g>
<!-- Node14&#45;&gt;Node10 -->
<g id="edge22" class="edge">
<title>Node14&#45;&gt;Node10</title>
<path fill="none" stroke="midnightblue" d="M772.81,-174.82C629.98,-170.82 389.05,-159.98 360,-132 335.57,-108.47 336.38,-85.57 353,-56 363.02,-38.18 383.28,-26.59 400.07,-19.64"/>
<polygon fill="midnightblue" stroke="midnightblue" points="772.82,-178.32 782.92,-175.1 773.02,-171.33 772.82,-178.32"/>
</g>
<!-- Node14&#45;&gt;Node11 -->
<g id="edge23" class="edge">
<title>Node14&#45;&gt;Node11</title>
<path fill="none" stroke="midnightblue" d="M792.77,-167.1C737.85,-159.44 672.46,-147.52 649,-132 623.91,-115.41 619.83,-104.75 611,-76 608.39,-67.5 605.31,-62.83 611,-56 631.77,-31.11 711.79,-19.95 775.2,-14.97"/>
<polygon fill="midnightblue" stroke="midnightblue" points="792.51,-170.6 802.89,-168.48 793.46,-163.66 792.51,-170.6"/>
</g>
<!-- Node14&#45;&gt;Node12 -->
<g id="edge31" class="edge">
<title>Node14&#45;&gt;Node12</title>
<path fill="none" stroke="midnightblue" d="M983.32,-169.14C1045.01,-162.75 1123.92,-151.49 1192,-132 1206.83,-127.76 1305.36,-83.19 1319,-76 1353.52,-57.82 1392.03,-32.63 1411.41,-19.6"/>
<polygon fill="midnightblue" stroke="midnightblue" points="982.78,-165.68 973.18,-170.16 983.49,-172.64 982.78,-165.68"/>
</g>
<!-- Node15 -->
<g id="node15" class="node">
<title>Node15</title>
<g id="a_node15"><a xlink:href="examples_2100__continue_2request__listener_8hpp.html" target="_top" xlink:title=" ">
<polygon fill="none" stroke="black" points="658,-112.5 658,-131.5 868,-131.5 868,-112.5 658,-112.5"/>
<text text-anchor="middle" x="763" y="-119.5" font-family="Helvetica,sans-Serif" font-size="10.00">examples/100_continue/request_listener.hpp</text>
</a>
</g>
</g>
<!-- Node14&#45;&gt;Node15 -->
<g id="edge16" class="edge">
<title>Node14&#45;&gt;Node15</title>
<path fill="none" stroke="midnightblue" d="M850.52,-164.1C829.03,-154.01 799.78,-140.27 781.14,-131.52"/>
<polygon fill="midnightblue" stroke="midnightblue" points="849.24,-167.36 859.78,-168.44 852.21,-161.02 849.24,-167.36"/>
</g>
<!-- Node17 -->
<g id="node17" class="node">
<title>Node17</title>
<g id="a_node17"><a xlink:href="file__server_8hpp.html" target="_top" xlink:title=" ">
<polygon fill="none" stroke="black" points="369.5,-112.5 369.5,-131.5 564.5,-131.5 564.5,-112.5 369.5,-112.5"/>
<text text-anchor="middle" x="467" y="-119.5" font-family="Helvetica,sans-Serif" font-size="10.00">examples/serve_directory/file_server.hpp</text>
</a>
</g>
</g>
<!-- Node14&#45;&gt;Node17 -->
<g id="edge19" class="edge">
<title>Node14&#45;&gt;Node17</title>
<path fill="none" stroke="midnightblue" d="M802.68,-167.1C725.07,-156.91 605.34,-141.18 531.82,-131.52"/>
<polygon fill="midnightblue" stroke="midnightblue" points="802.51,-170.61 812.88,-168.44 803.42,-163.67 802.51,-170.61"/>
</g>
<!-- Node19 -->
<g id="node19" class="node">
<title>Node19</title>
<g id="a_node19"><a xlink:href="examples_2simple__server_2request__listener_8hpp.html" target="_top" xlink:title=" ">
<polygon fill="none" stroke="black" points="886.5,-112.5 886.5,-131.5 1099.5,-131.5 1099.5,-112.5 886.5,-112.5"/>
<text text-anchor="middle" x="993" y="-119.5" font-family="Helvetica,sans-Serif" font-size="10.00">examples/simple_server/request_listener.hpp</text>
</a>
</g>
</g>
<!-- Node14&#45;&gt;Node19 -->
<g id="edge24" class="edge">
<title>Node14&#45;&gt;Node19</title>
<path fill="none" stroke="midnightblue" d="M905.48,-164.1C926.97,-154.01 956.22,-140.27 974.86,-131.52"/>
<polygon fill="midnightblue" stroke="midnightblue" points="903.79,-161.02 896.22,-168.44 906.76,-167.36 903.79,-161.02"/>
</g>
<!-- Node15&#45;&gt;Node8 -->
<g id="edge17" class="edge">
<title>Node15&#45;&gt;Node8</title>
<path fill="none" stroke="midnightblue" d="M790.77,-108.32C821.2,-94.64 871.6,-72.58 916,-56 953.54,-41.98 997.69,-28.12 1025.99,-19.57"/>
<polygon fill="midnightblue" stroke="midnightblue" points="789.3,-105.15 781.63,-112.45 792.18,-111.53 789.3,-105.15"/>
</g>
<!-- Node16 -->
<g id="node16" class="node">
<title>Node16</title>
<g id="a_node16"><a xlink:href="examples_2100__continue_2request__listener_8cpp.html" target="_top" xlink:title=" ">
<polygon fill="none" stroke="black" points="620,-56.5 620,-75.5 830,-75.5 830,-56.5 620,-56.5"/>
<text text-anchor="middle" x="725" y="-63.5" font-family="Helvetica,sans-Serif" font-size="10.00">examples/100_continue/request_listener.cpp</text>
</a>
</g>
</g>
<!-- Node15&#45;&gt;Node16 -->
<g id="edge18" class="edge">
<title>Node15&#45;&gt;Node16</title>
<path fill="none" stroke="midnightblue" d="M750.94,-103.86C744.36,-94.5 736.49,-83.33 731.16,-75.75"/>
<polygon fill="midnightblue" stroke="midnightblue" points="748.11,-105.92 756.73,-112.08 753.83,-101.89 748.11,-105.92"/>
</g>
<!-- Node17&#45;&gt;Node10 -->
<g id="edge21" class="edge">
<title>Node17&#45;&gt;Node10</title>
<path fill="none" stroke="midnightblue" d="M406.76,-109.25C388.66,-102.61 370.78,-92.22 360,-76 344.4,-52.51 380.96,-30.92 405.98,-19.5"/>
<polygon fill="midnightblue" stroke="midnightblue" points="405.9,-112.66 416.49,-112.49 408.1,-106.01 405.9,-112.66"/>
</g>
<!-- Node18 -->
<g id="node18" class="node">
<title>Node18</title>
<g id="a_node18"><a xlink:href="file__server_8cpp.html" target="_top" xlink:title=" ">
<polygon fill="none" stroke="black" points="369.5,-56.5 369.5,-75.5 564.5,-75.5 564.5,-56.5 369.5,-56.5"/>
<text text-anchor="middle" x="467" y="-63.5" font-family="Helvetica,sans-Serif" font-size="10.00">examples/serve_directory/file_server.cpp</text>
</a>
</g>
</g>
<!-- Node17&#45;&gt;Node18 -->
<g id="edge20" class="edge">
<title>Node17&#45;&gt;Node18</title>
<path fill="none" stroke="midnightblue" d="M467,-101.8C467,-92.91 467,-82.78 467,-75.75"/>
<polygon fill="midnightblue" stroke="midnightblue" points="463.5,-102.08 467,-112.08 470.5,-102.08 463.5,-102.08"/>
</g>
<!-- Node19&#45;&gt;Node11 -->
<g id="edge25" class="edge">
<title>Node19&#45;&gt;Node11</title>
<path fill="none" stroke="midnightblue" d="M965.84,-107.82C950.45,-99.72 931.28,-88.5 916,-76 894.69,-58.57 874.37,-33.07 864.4,-19.79"/>
<polygon fill="midnightblue" stroke="midnightblue" points="964.36,-111 974.86,-112.45 967.56,-104.77 964.36,-111"/>
</g>
<!-- Node20 -->
<g id="node20" class="node">
<title>Node20</title>
<g id="a_node20"><a xlink:href="examples_2simple__server_2request__listener_8cpp.html" target="_top" xlink:title=" ">
<polygon fill="none" stroke="black" points="924.5,-56.5 924.5,-75.5 1137.5,-75.5 1137.5,-56.5 924.5,-56.5"/>
<text text-anchor="middle" x="1031" y="-63.5" font-family="Helvetica,sans-Serif" font-size="10.00">examples/simple_server/request_listener.cpp</text>
</a>
</g>
</g>
<!-- Node19&#45;&gt;Node20 -->
<g id="edge26" class="edge">
<title>Node19&#45;&gt;Node20</title>
<path fill="none" stroke="midnightblue" d="M1005.06,-103.86C1011.64,-94.5 1019.51,-83.33 1024.84,-75.75"/>
<polygon fill="midnightblue" stroke="midnightblue" points="1002.17,-101.89 999.27,-112.08 1007.89,-105.92 1002.17,-101.89"/>
</g>
</g>
</svg>
        <g id="navigator" transform="translate(0 0)" fill="#404254">
                <rect fill="#f2f5e9" fill-opacity="0.5" stroke="#606060" stroke-width=".5" x="0" y="0" width="60" height="60"/>
                <use id="zoomplus" xlink:href="#zoomPlus" x="17" y="9" onmousedown="handleZoom(evt,'in')"/>
                <use id="zoomminus" xlink:href="#zoomMin" x="42" y="9" onmousedown="handleZoom(evt,'out')"/>
                <use id="reset" xlink:href="#resetDef" x="30" y="36" onmousedown="handleReset()"/>
                <g id="arrowUp" xlink:href="#dirArrow" transform="translate(30 24)" onmousedown="handlePan(0,-1)">
                  <use xlink:href="#rim" fill="#404040">
                        <set attributeName="fill" to="#808080" begin="arrowUp.mouseover" end="arrowUp.mouseout"/>
                  </use>
                  <path fill="none" stroke="white" stroke-width="1.5" d="M0,-3.0v7 M-2.5,-0.5L0,-3.0L2.5,-0.5"/>
                </g>
                <g id="arrowRight" xlink:href="#dirArrow" transform="rotate(90) translate(36 -43)" onmousedown="handlePan(1,0)">
                  <use xlink:href="#rim" fill="#404040">
                        <set attributeName="fill" to="#808080" begin="arrowRight.mouseover" end="arrowRight.mouseout"/>
                  </use>
                  <path fill="none" stroke="white" stroke-width="1.5" d="M0,-3.0v7 M-2.5,-0.5L0,-3.0L2.5,-0.5"/>
                </g>
                <g id="arrowDown" xlink:href="#dirArrow" transform="rotate(180) translate(-30 -48)" onmousedown="handlePan(0,1)">
                  <use xlink:href="#rim" fill="#404040">
                        <set attributeName="fill" to="#808080" begin="arrowDown.mouseover" end="arrowDown.mouseout"/>
                  </use>
                  <path fill="none" stroke="white" stroke-width="1.5" d="M0,-3.0v7 M-2.5,-0.5L0,-3.0L2.5,-0.5"/>
                </g>
                <g id="arrowLeft" xlink:href="#dirArrow" transform="rotate(270) translate(-36 17)" onmousedown="handlePan(-1,0)">
                  <use xlink:href="#rim" fill="#404040">
                        <set attributeName="fill" to="#808080" begin="arrowLeft.mouseover" end="arrowLeft.mouseout"/>
                  </use>
                  <path fill="none" stroke="white" stroke-width="1.5" d="M0,-3.0v7 M-2.5,-0.5L0,-3.0L2.5,-0.5"/>
                </g>
        </g>
        <svg viewBox="0 0 15 15" width="100%" height="30px" preserveAspectRatio="xMaxYMin meet">
         <g id="arrow_out" transform="scale(0.3 0.3)">
          <a xlink:href="websocket__session_8hpp__dep__incl_org.svg" target="_base">
           <rect id="button" ry="5" rx="5" y="6" x="6" height="38" width="38"
                fill="#f2f5e9" fill-opacity="0.5" stroke="#606060" stroke-width="1.0"/>
           <path id="arrow"
             d="M 11.500037,31.436501 C 11.940474,20.09759 22.043105,11.32322 32.158766,21.979434 L 37.068811,17.246167 C 37.068811,17.246167 37.088388,32 37.088388,32 L 22.160133,31.978069 C 22.160133,31.978069 26.997745,27.140456 26.997745,27.140456 C 18.528582,18.264221 13.291696,25.230495 11.500037,31.436501 z"
             style="fill:#404040;"/>
          </a>
         </g>
        </svg>
</svg>
