<?xml version="1.0" encoding="UTF-8" standalone="no"?>
<!DOCTYPE svg PUBLIC "-//W3C//DTD SVG 1.1//EN"
 "http://www.w3.org/Graphics/SVG/1.1/DTD/svg11.dtd">
<!-- Generated by graphviz version 2.44.1 (20211215.1903)
 -->
<!-- Title: include/roar/websocket/websocket_session.hpp Pages: 1 -->
<svg width="1938pt" height="308pt"
 viewBox="0.00 0.00 1937.71 308.00" xmlns="http://www.w3.org/2000/svg" xmlns:xlink="http://www.w3.org/1999/xlink">
<g id="graph0" class="graph" transform="scale(1 1) rotate(0) translate(4 304)">
<title>include/roar/websocket/websocket_session.hpp</title>
<!-- Node1 -->
<g id="node1" class="node">
<title>Node1</title>
<g id="a_node1"><a xlink:title=" ">
<polygon fill="#bfbfbf" stroke="black" points="1387.27,-280.5 1387.27,-299.5 1612.27,-299.5 1612.27,-280.5 1387.27,-280.5"/>
<text text-anchor="middle" x="1499.77" y="-287.5" font-family="Helvetica,sans-Serif" font-size="10.00">include/roar/websocket/websocket_session.hpp</text>
</a>
</g>
</g>
<!-- Node2 -->
<g id="node2" class="node">
<title>Node2</title>
<g id="a_node2"><a xlink:href="examples_2websocket_2request__listener_8hpp.html" target="_top" xlink:title=" ">
<polygon fill="none" stroke="black" points="1714.77,-112.5 1714.77,-131.5 1914.77,-131.5 1914.77,-112.5 1714.77,-112.5"/>
<text text-anchor="middle" x="1814.77" y="-119.5" font-family="Helvetica,sans-Serif" font-size="10.00">examples/websocket/request_listener.hpp</text>
</a>
</g>
</g>
<!-- Node1&#45;&gt;Node2 -->
<g id="edge1" class="edge">
<title>Node1&#45;&gt;Node2</title>
<path fill="none" stroke="midnightblue" d="M1500.74,-269.94C1502.45,-255.59 1506.97,-236.34 1518.77,-224 1573.01,-167.3 1660.32,-142.43 1726.09,-131.52"/>
<polygon fill="midnightblue" stroke="midnightblue" points="1497.23,-269.92 1499.89,-280.18 1504.2,-270.5 1497.23,-269.92"/>
</g>
<!-- Node5 -->
<g id="node5" class="node">
<title>Node5</title>
<g id="a_node5"><a xlink:href="session_8hpp.html" target="_top" xlink:title=" ">
<polygon fill="none" stroke="black" points="460.27,-224.5 460.27,-243.5 619.27,-243.5 619.27,-224.5 460.27,-224.5"/>
<text text-anchor="middle" x="539.77" y="-231.5" font-family="Helvetica,sans-Serif" font-size="10.00">include/roar/session/session.hpp</text>
</a>
</g>
</g>
<!-- Node1&#45;&gt;Node5 -->
<g id="edge4" class="edge">
<title>Node1&#45;&gt;Node5</title>
<path fill="none" stroke="midnightblue" d="M1376.57,-282.07C1176.56,-270.82 786.75,-248.89 619.32,-239.47"/>
<polygon fill="midnightblue" stroke="midnightblue" points="1376.64,-285.58 1386.82,-282.65 1377.04,-278.59 1376.64,-285.58"/>
</g>
<!-- Node26 -->
<g id="node26" class="node">
<title>Node26</title>
<g id="a_node26"><a xlink:href="websocket__session_8cpp.html" target="_top" xlink:title=" ">
<polygon fill="none" stroke="black" points="1527.77,-224.5 1527.77,-243.5 1735.77,-243.5 1735.77,-224.5 1527.77,-224.5"/>
<text text-anchor="middle" x="1631.77" y="-231.5" font-family="Helvetica,sans-Serif" font-size="10.00">src/roar/websocket/websocket_session.cpp</text>
</a>
</g>
</g>
<!-- Node1&#45;&gt;Node26 -->
<g id="edge39" class="edge">
<title>Node1&#45;&gt;Node26</title>
<path fill="none" stroke="midnightblue" d="M1529.99,-276.64C1554.76,-266.5 1589.17,-252.43 1610.95,-243.52"/>
<polygon fill="midnightblue" stroke="midnightblue" points="1528.62,-273.42 1520.69,-280.44 1531.27,-279.9 1528.62,-273.42"/>
</g>
<!-- Node3 -->
<g id="node3" class="node">
<title>Node3</title>
<g id="a_node3"><a xlink:href="websocket_2main_8cpp.html" target="_top" xlink:title=" ">
<polygon fill="none" stroke="black" points="1610.77,-0.5 1610.77,-19.5 1762.77,-19.5 1762.77,-0.5 1610.77,-0.5"/>
<text text-anchor="middle" x="1686.77" y="-7.5" font-family="Helvetica,sans-Serif" font-size="10.00">examples/websocket/main.cpp</text>
</a>
</g>
</g>
<!-- Node2&#45;&gt;Node3 -->
<g id="edge2" class="edge">
<title>Node2&#45;&gt;Node3</title>
<path fill="none" stroke="midnightblue" d="M1866.48,-109.81C1904.01,-99.31 1944.8,-81.39 1923.77,-56 1903.54,-31.56 1824.25,-20.29 1762.89,-15.16"/>
<polygon fill="midnightblue" stroke="midnightblue" points="1865.31,-106.5 1856.54,-112.45 1867.11,-113.27 1865.31,-106.5"/>
</g>
<!-- Node4 -->
<g id="node4" class="node">
<title>Node4</title>
<g id="a_node4"><a xlink:href="examples_2websocket_2request__listener_8cpp.html" target="_top" xlink:title=" ">
<polygon fill="none" stroke="black" points="1714.77,-56.5 1714.77,-75.5 1914.77,-75.5 1914.77,-56.5 1714.77,-56.5"/>
<text text-anchor="middle" x="1814.77" y="-63.5" font-family="Helvetica,sans-Serif" font-size="10.00">examples/websocket/request_listener.cpp</text>
</a>
</g>
</g>
<!-- Node2&#45;&gt;Node4 -->
<g id="edge3" class="edge">
<title>Node2&#45;&gt;Node4</title>
<path fill="none" stroke="midnightblue" d="M1814.77,-101.8C1814.77,-92.91 1814.77,-82.78 1814.77,-75.75"/>
<polygon fill="midnightblue" stroke="midnightblue" points="1811.27,-102.08 1814.77,-112.08 1818.27,-102.08 1811.27,-102.08"/>
</g>
<!-- Node6 -->
<g id="node6" class="node">
<title>Node6</title>
<g id="a_node6"><a xlink:href="directory__server_8hpp.html" target="_top" xlink:title=" ">
<polygon fill="none" stroke="black" points="640.27,-112.5 640.27,-131.5 871.27,-131.5 871.27,-112.5 640.27,-112.5"/>
<text text-anchor="middle" x="755.77" y="-119.5" font-family="Helvetica,sans-Serif" font-size="10.00">include/roar/directory_server/directory_server.hpp</text>
</a>
</g>
</g>
<!-- Node5&#45;&gt;Node6 -->
<g id="edge5" class="edge">
<title>Node5&#45;&gt;Node6</title>
<path fill="none" stroke="midnightblue" d="M574.61,-221.02C597.32,-212.75 627.36,-200.94 652.77,-188 687.25,-170.44 725.07,-144.77 743.83,-131.56"/>
<polygon fill="midnightblue" stroke="midnightblue" points="573.27,-217.78 565.04,-224.45 575.63,-224.37 573.27,-217.78"/>
</g>
<!-- Node7 -->
<g id="node7" class="node">
<title>Node7</title>
<g id="a_node7"><a xlink:href="server_8hpp.html" target="_top" xlink:title=" ">
<polygon fill="none" stroke="black" points="726.77,-56.5 726.77,-75.5 842.77,-75.5 842.77,-56.5 726.77,-56.5"/>
<text text-anchor="middle" x="784.77" y="-63.5" font-family="Helvetica,sans-Serif" font-size="10.00">include/roar/server.hpp</text>
</a>
</g>
</g>
<!-- Node5&#45;&gt;Node7 -->
<g id="edge33" class="edge">
<title>Node5&#45;&gt;Node7</title>
<path fill="none" stroke="midnightblue" d="M576.96,-220.49C592.57,-213.37 609.45,-202.84 619.77,-188 639.29,-159.92 609.21,-137.69 631.77,-112 655.34,-85.16 694.01,-73.95 726.57,-69.42"/>
<polygon fill="midnightblue" stroke="midnightblue" points="575.33,-217.38 567.48,-224.49 578.06,-223.83 575.33,-217.38"/>
</g>
<!-- Node13 -->
<g id="node13" class="node">
<title>Node13</title>
<g id="a_node13"><a xlink:href="server_8cpp.html" target="_top" xlink:title=" ">
<polygon fill="none" stroke="black" points="102.77,-0.5 102.77,-19.5 200.77,-19.5 200.77,-0.5 102.77,-0.5"/>
<text text-anchor="middle" x="151.77" y="-7.5" font-family="Helvetica,sans-Serif" font-size="10.00">src/roar/server.cpp</text>
</a>
</g>
</g>
<!-- Node5&#45;&gt;Node13 -->
<g id="edge36" class="edge">
<title>Node5&#45;&gt;Node13</title>
<path fill="none" stroke="midnightblue" d="M450.12,-231.8C307.65,-228.94 42.62,-219.42 13.77,-188 -41.96,-127.29 88.59,-46.08 135.66,-19.68"/>
<polygon fill="midnightblue" stroke="midnightblue" points="450.1,-235.3 460.16,-231.99 450.23,-228.3 450.1,-235.3"/>
</g>
<!-- Node14 -->
<g id="node14" class="node">
<title>Node14</title>
<g id="a_node14"><a xlink:href="include_2roar_2routing_2request__listener_8hpp.html" target="_top" xlink:title=" ">
<polygon fill="none" stroke="black" points="967.77,-168.5 967.77,-187.5 1157.77,-187.5 1157.77,-168.5 967.77,-168.5"/>
<text text-anchor="middle" x="1062.77" y="-175.5" font-family="Helvetica,sans-Serif" font-size="10.00">include/roar/routing/request_listener.hpp</text>
</a>
</g>
</g>
<!-- Node5&#45;&gt;Node14 -->
<g id="edge14" class="edge">
<title>Node5&#45;&gt;Node14</title>
<path fill="none" stroke="midnightblue" d="M629.72,-223.71C728.15,-213.55 884.63,-197.39 980.09,-187.54"/>
<polygon fill="midnightblue" stroke="midnightblue" points="629.08,-220.26 619.49,-224.77 629.8,-227.22 629.08,-220.26"/>
</g>
<!-- Node22 -->
<g id="node22" class="node">
<title>Node22</title>
<g id="a_node22"><a xlink:href="route_8cpp.html" target="_top" xlink:title=" ">
<polygon fill="none" stroke="black" points="23.27,-168.5 23.27,-187.5 148.27,-187.5 148.27,-168.5 23.27,-168.5"/>
<text text-anchor="middle" x="85.77" y="-175.5" font-family="Helvetica,sans-Serif" font-size="10.00">src/roar/routing/route.cpp</text>
</a>
</g>
</g>
<!-- Node5&#45;&gt;Node22 -->
<g id="edge34" class="edge">
<title>Node5&#45;&gt;Node22</title>
<path fill="none" stroke="midnightblue" d="M455.99,-223.3C378.58,-214.3 260.39,-200.46 157.77,-188 154.77,-187.64 151.7,-187.26 148.6,-186.88"/>
<polygon fill="midnightblue" stroke="midnightblue" points="455.83,-226.81 466.16,-224.49 456.64,-219.85 455.83,-226.81"/>
</g>
<!-- Node23 -->
<g id="node23" class="node">
<title>Node23</title>
<g id="a_node23"><a xlink:href="router_8cpp.html" target="_top" xlink:title=" ">
<polygon fill="none" stroke="black" points="166.77,-168.5 166.77,-187.5 294.77,-187.5 294.77,-168.5 166.77,-168.5"/>
<text text-anchor="middle" x="230.77" y="-175.5" font-family="Helvetica,sans-Serif" font-size="10.00">src/roar/routing/router.cpp</text>
</a>
</g>
</g>
<!-- Node5&#45;&gt;Node23 -->
<g id="edge35" class="edge">
<title>Node5&#45;&gt;Node23</title>
<path fill="none" stroke="midnightblue" d="M480.63,-222.66C422.23,-212.46 333.99,-197.04 279.5,-187.52"/>
<polygon fill="midnightblue" stroke="midnightblue" points="480.36,-226.17 490.81,-224.44 481.56,-219.27 480.36,-226.17"/>
</g>
<!-- Node24 -->
<g id="node24" class="node">
<title>Node24</title>
<g id="a_node24"><a xlink:href="factory_8cpp.html" target="_top" xlink:title=" ">
<polygon fill="none" stroke="black" points="313.27,-168.5 313.27,-187.5 450.27,-187.5 450.27,-168.5 313.27,-168.5"/>
<text text-anchor="middle" x="381.77" y="-175.5" font-family="Helvetica,sans-Serif" font-size="10.00">src/roar/session/factory.cpp</text>
</a>
</g>
</g>
<!-- Node5&#45;&gt;Node24 -->
<g id="edge37" class="edge">
<title>Node5&#45;&gt;Node24</title>
<path fill="none" stroke="midnightblue" d="M505.16,-221.17C475.41,-211 433.22,-196.59 406.69,-187.52"/>
<polygon fill="midnightblue" stroke="midnightblue" points="504.14,-224.52 514.74,-224.44 506.41,-217.9 504.14,-224.52"/>
</g>
<!-- Node25 -->
<g id="node25" class="node">
<title>Node25</title>
<g id="a_node25"><a xlink:href="session_8cpp.html" target="_top" xlink:title=" ">
<polygon fill="none" stroke="black" points="468.77,-168.5 468.77,-187.5 610.77,-187.5 610.77,-168.5 468.77,-168.5"/>
<text text-anchor="middle" x="539.77" y="-175.5" font-family="Helvetica,sans-Serif" font-size="10.00">src/roar/session/session.cpp</text>
</a>
</g>
</g>
<!-- Node5&#45;&gt;Node25 -->
<g id="edge38" class="edge">
<title>Node5&#45;&gt;Node25</title>
<path fill="none" stroke="midnightblue" d="M539.77,-213.8C539.77,-204.91 539.77,-194.78 539.77,-187.75"/>
<polygon fill="midnightblue" stroke="midnightblue" points="536.27,-214.08 539.77,-224.08 543.27,-214.08 536.27,-214.08"/>
</g>
<!-- Node6&#45;&gt;Node7 -->
<g id="edge6" class="edge">
<title>Node6&#45;&gt;Node7</title>
<path fill="none" stroke="midnightblue" d="M765.45,-102.98C770.37,-93.82 776.13,-83.09 780.07,-75.75"/>
<polygon fill="midnightblue" stroke="midnightblue" points="762.21,-101.62 760.56,-112.08 768.38,-104.93 762.21,-101.62"/>
</g>
<!-- Node7&#45;&gt;Node3 -->
<g id="edge11" class="edge">
<title>Node7&#45;&gt;Node3</title>
<path fill="none" stroke="midnightblue" d="M852.94,-60.92C1017.91,-51.04 1437.8,-25.91 1610.65,-15.56"/>
<polygon fill="midnightblue" stroke="midnightblue" points="852.69,-57.43 842.91,-61.52 853.1,-64.42 852.69,-57.43"/>
</g>
<!-- Node8 -->
<g id="node8" class="node">
<title>Node8</title>
<g id="a_node8"><a xlink:href="100__continue_2main_8cpp.html" target="_top" xlink:title=" ">
<polygon fill="none" stroke="black" points="349.77,-0.5 349.77,-19.5 511.77,-19.5 511.77,-0.5 349.77,-0.5"/>
<text text-anchor="middle" x="430.77" y="-7.5" font-family="Helvetica,sans-Serif" font-size="10.00">examples/100_continue/main.cpp</text>
</a>
</g>
</g>
<!-- Node7&#45;&gt;Node8 -->
<g id="edge7" class="edge">
<title>Node7&#45;&gt;Node8</title>
<path fill="none" stroke="midnightblue" d="M718.67,-54.92C651.79,-44.71 549.54,-29.12 486.6,-19.52"/>
<polygon fill="midnightblue" stroke="midnightblue" points="718.27,-58.4 728.68,-56.44 719.32,-51.48 718.27,-58.4"/>
</g>
<!-- Node9 -->
<g id="node9" class="node">
<title>Node9</title>
<g id="a_node9"><a xlink:href="most__minimal_2main_8cpp.html" target="_top" xlink:title=" ">
<polygon fill="none" stroke="black" points="555.27,-0.5 555.27,-19.5 720.27,-19.5 720.27,-0.5 555.27,-0.5"/>
<text text-anchor="middle" x="637.77" y="-7.5" font-family="Helvetica,sans-Serif" font-size="10.00">examples/most_minimal/main.cpp</text>
</a>
</g>
</g>
<!-- Node7&#45;&gt;Node9 -->
<g id="edge8" class="edge">
<title>Node7&#45;&gt;Node9</title>
<path fill="none" stroke="midnightblue" d="M751.85,-52.91C724.21,-42.75 685.43,-28.51 660.96,-19.52"/>
<polygon fill="midnightblue" stroke="midnightblue" points="750.89,-56.28 761.48,-56.44 753.3,-49.71 750.89,-56.28"/>
</g>
<!-- Node10 -->
<g id="node10" class="node">
<title>Node10</title>
<g id="a_node10"><a xlink:href="serve__directory_2main_8cpp.html" target="_top" xlink:title=" ">
<polygon fill="none" stroke="black" points="929.27,-0.5 929.27,-19.5 1100.27,-19.5 1100.27,-0.5 929.27,-0.5"/>
<text text-anchor="middle" x="1014.77" y="-7.5" font-family="Helvetica,sans-Serif" font-size="10.00">examples/serve_directory/main.cpp</text>
</a>
</g>
</g>
<!-- Node7&#45;&gt;Node10 -->
<g id="edge9" class="edge">
<title>Node7&#45;&gt;Node10</title>
<path fill="none" stroke="midnightblue" d="M830.97,-54.15C874.43,-43.95 938.61,-28.88 978.5,-19.52"/>
<polygon fill="midnightblue" stroke="midnightblue" points="830.15,-50.75 821.22,-56.44 831.75,-57.57 830.15,-50.75"/>
</g>
<!-- Node11 -->
<g id="node11" class="node">
<title>Node11</title>
<g id="a_node11"><a xlink:href="simple__server_2main_8cpp.html" target="_top" xlink:title=" ">
<polygon fill="none" stroke="black" points="1143.27,-0.5 1143.27,-19.5 1308.27,-19.5 1308.27,-0.5 1143.27,-0.5"/>
<text text-anchor="middle" x="1225.77" y="-7.5" font-family="Helvetica,sans-Serif" font-size="10.00">examples/simple_server/main.cpp</text>
</a>
</g>
</g>
<!-- Node7&#45;&gt;Node11 -->
<g id="edge10" class="edge">
<title>Node7&#45;&gt;Node11</title>
<path fill="none" stroke="midnightblue" d="M852.89,-56.66C935.29,-46.57 1073.25,-29.68 1156.27,-19.51"/>
<polygon fill="midnightblue" stroke="midnightblue" points="852.38,-53.2 842.88,-57.88 853.23,-60.14 852.38,-53.2"/>
</g>
<!-- Node12 -->
<g id="node12" class="node">
<title>Node12</title>
<g id="a_node12"><a xlink:href="src_2roar_2routing_2request__listener_8cpp.html" target="_top" xlink:title=" ">
<polygon fill="none" stroke="black" points="738.27,-0.5 738.27,-19.5 911.27,-19.5 911.27,-0.5 738.27,-0.5"/>
<text text-anchor="middle" x="824.77" y="-7.5" font-family="Helvetica,sans-Serif" font-size="10.00">src/roar/routing/request_listener.cpp</text>
</a>
</g>
</g>
<!-- Node7&#45;&gt;Node12 -->
<g id="edge12" class="edge">
<title>Node7&#45;&gt;Node12</title>
<path fill="none" stroke="midnightblue" d="M797.47,-47.86C804.4,-38.5 812.68,-27.33 818.29,-19.75"/>
<polygon fill="midnightblue" stroke="midnightblue" points="794.52,-45.96 791.38,-56.08 800.14,-50.13 794.52,-45.96"/>
</g>
<!-- Node7&#45;&gt;Node13 -->
<g id="edge13" class="edge">
<title>Node7&#45;&gt;Node13</title>
<path fill="none" stroke="midnightblue" d="M716.52,-59.18C587.99,-48.21 312.88,-24.74 200.81,-15.18"/>
<polygon fill="midnightblue" stroke="midnightblue" points="716.38,-62.68 726.64,-60.04 716.97,-55.7 716.38,-62.68"/>
</g>
<!-- Node14&#45;&gt;Node2 -->
<g id="edge29" class="edge">
<title>Node14&#45;&gt;Node2</title>
<path fill="none" stroke="midnightblue" d="M1167.98,-169.85C1294.47,-161.19 1513.18,-146.02 1700.77,-132 1705.33,-131.66 1709.98,-131.31 1714.68,-130.95"/>
<polygon fill="midnightblue" stroke="midnightblue" points="1167.65,-166.36 1157.91,-170.54 1168.13,-173.35 1167.65,-166.36"/>
</g>
<!-- Node14&#45;&gt;Node3 -->
<g id="edge28" class="edge">
<title>Node14&#45;&gt;Node3</title>
<path fill="none" stroke="midnightblue" d="M1167.97,-176.16C1331.55,-173.82 1631.93,-165.04 1667.77,-132 1699.98,-102.31 1692.66,-42.05 1688.57,-19.65"/>
<polygon fill="midnightblue" stroke="midnightblue" points="1167.83,-172.66 1157.88,-176.3 1167.93,-179.66 1167.83,-172.66"/>
</g>
<!-- Node14&#45;&gt;Node6 -->
<g id="edge30" class="edge">
<title>Node14&#45;&gt;Node6</title>
<path fill="none" stroke="midnightblue" d="M1004.01,-166.66C945.99,-156.46 858.32,-141.04 804.19,-131.52"/>
<polygon fill="midnightblue" stroke="midnightblue" points="1003.67,-170.16 1014.13,-168.44 1004.88,-163.26 1003.67,-170.16"/>
</g>
<!-- Node14&#45;&gt;Node7 -->
<g id="edge31" class="edge">
<title>Node14&#45;&gt;Node7</title>
<path fill="none" stroke="midnightblue" d="M1023,-165.56C994.95,-157.15 956.67,-144.96 923.77,-132 922.24,-131.4 840.34,-93.04 802.99,-75.54"/>
<polygon fill="midnightblue" stroke="midnightblue" points="1022.26,-168.99 1032.84,-168.48 1024.25,-162.28 1022.26,-168.99"/>
</g>
<!-- Node14&#45;&gt;Node8 -->
<g id="edge15" class="edge">
<title>Node14&#45;&gt;Node8</title>
<path fill="none" stroke="midnightblue" d="M957.64,-173.96C767.62,-167.95 384.71,-153.27 364.77,-132 331.38,-96.39 393.12,-40.7 419.58,-19.54"/>
<polygon fill="midnightblue" stroke="midnightblue" points="957.54,-177.46 967.65,-174.28 957.76,-170.46 957.54,-177.46"/>
</g>
<!-- Node14&#45;&gt;Node10 -->
<g id="edge23" class="edge">
<title>Node14&#45;&gt;Node10</title>
<path fill="none" stroke="midnightblue" d="M1123.02,-165.25C1141.11,-158.61 1159,-148.22 1169.77,-132 1188.46,-103.86 1190.05,-83.01 1169.77,-56 1157.4,-39.53 1108.13,-27.14 1068.42,-19.57"/>
<polygon fill="midnightblue" stroke="midnightblue" points="1121.67,-162.01 1113.28,-168.49 1123.87,-168.66 1121.67,-162.01"/>
</g>
<!-- Node14&#45;&gt;Node11 -->
<g id="edge24" class="edge">
<title>Node14&#45;&gt;Node11</title>
<path fill="none" stroke="midnightblue" d="M1129.27,-165.64C1150.71,-159.01 1172.98,-148.54 1188.77,-132 1219.87,-99.43 1224.89,-41.43 1225.65,-19.62"/>
<polygon fill="midnightblue" stroke="midnightblue" points="1128.17,-162.31 1119.51,-168.42 1130.08,-169.04 1128.17,-162.31"/>
</g>
<!-- Node14&#45;&gt;Node12 -->
<g id="edge32" class="edge">
<title>Node14&#45;&gt;Node12</title>
<path fill="none" stroke="midnightblue" d="M1026.22,-165C1005.05,-157.21 978.4,-145.91 956.77,-132 903.44,-97.69 851.28,-41.22 832.3,-19.7"/>
<polygon fill="midnightblue" stroke="midnightblue" points="1025.23,-168.36 1035.83,-168.43 1027.59,-161.77 1025.23,-168.36"/>
</g>
<!-- Node15 -->
<g id="node15" class="node">
<title>Node15</title>
<g id="a_node15"><a xlink:href="examples_2100__continue_2request__listener_8hpp.html" target="_top" xlink:title=" ">
<polygon fill="none" stroke="black" points="373.77,-112.5 373.77,-131.5 583.77,-131.5 583.77,-112.5 373.77,-112.5"/>
<text text-anchor="middle" x="478.77" y="-119.5" font-family="Helvetica,sans-Serif" font-size="10.00">examples/100_continue/request_listener.hpp</text>
</a>
</g>
</g>
<!-- Node14&#45;&gt;Node15 -->
<g id="edge16" class="edge">
<title>Node14&#45;&gt;Node15</title>
<path fill="none" stroke="midnightblue" d="M960.44,-167.54C850.38,-157.36 676.96,-141.33 570.98,-131.53"/>
<polygon fill="midnightblue" stroke="midnightblue" points="960.28,-171.04 970.56,-168.47 960.92,-164.07 960.28,-171.04"/>
</g>
<!-- Node17 -->
<g id="node17" class="node">
<title>Node17</title>
<g id="a_node17"><a xlink:href="request__listener_2main_8cpp.html" target="_top" xlink:title=" ">
<polygon fill="none" stroke="black" points="1485.27,-112.5 1485.27,-131.5 1658.27,-131.5 1658.27,-112.5 1485.27,-112.5"/>
<text text-anchor="middle" x="1571.77" y="-119.5" font-family="Helvetica,sans-Serif" font-size="10.00">examples/request_listener/main.cpp</text>
</a>
</g>
</g>
<!-- Node14&#45;&gt;Node17 -->
<g id="edge19" class="edge">
<title>Node14&#45;&gt;Node17</title>
<path fill="none" stroke="midnightblue" d="M1153.12,-167.41C1249.1,-157.23 1399.41,-141.29 1491.4,-131.53"/>
<polygon fill="midnightblue" stroke="midnightblue" points="1152.72,-163.94 1143.14,-168.47 1153.46,-170.9 1152.72,-163.94"/>
</g>
<!-- Node18 -->
<g id="node18" class="node">
<title>Node18</title>
<g id="a_node18"><a xlink:href="file__server_8hpp.html" target="_top" xlink:title=" ">
<polygon fill="none" stroke="black" points="965.27,-112.5 965.27,-131.5 1160.27,-131.5 1160.27,-112.5 965.27,-112.5"/>
<text text-anchor="middle" x="1062.77" y="-119.5" font-family="Helvetica,sans-Serif" font-size="10.00">examples/serve_directory/file_server.hpp</text>
</a>
</g>
</g>
<!-- Node14&#45;&gt;Node18 -->
<g id="edge20" class="edge">
<title>Node14&#45;&gt;Node18</title>
<path fill="none" stroke="midnightblue" d="M1062.77,-157.8C1062.77,-148.91 1062.77,-138.78 1062.77,-131.75"/>
<polygon fill="midnightblue" stroke="midnightblue" points="1059.27,-158.08 1062.77,-168.08 1066.27,-158.08 1059.27,-158.08"/>
</g>
<!-- Node20 -->
<g id="node20" class="node">
<title>Node20</title>
<g id="a_node20"><a xlink:href="examples_2simple__server_2request__listener_8hpp.html" target="_top" xlink:title=" ">
<polygon fill="none" stroke="black" points="1254.27,-112.5 1254.27,-131.5 1467.27,-131.5 1467.27,-112.5 1254.27,-112.5"/>
<text text-anchor="middle" x="1360.77" y="-119.5" font-family="Helvetica,sans-Serif" font-size="10.00">examples/simple_server/request_listener.hpp</text>
</a>
</g>
</g>
<!-- Node14&#45;&gt;Node20 -->
<g id="edge25" class="edge">
<title>Node14&#45;&gt;Node20</title>
<path fill="none" stroke="midnightblue" d="M1120.16,-166.6C1176.48,-156.4 1261.33,-141.02 1313.77,-131.52"/>
<polygon fill="midnightblue" stroke="midnightblue" points="1119.21,-163.22 1109.99,-168.44 1120.45,-170.1 1119.21,-163.22"/>
</g>
<!-- Node15&#45;&gt;Node8 -->
<g id="edge17" class="edge">
<title>Node15&#45;&gt;Node8</title>
<path fill="none" stroke="midnightblue" d="M466.29,-104.2C460.65,-96.01 454.26,-85.83 449.77,-76 440.98,-56.75 435.16,-32.44 432.48,-19.7"/>
<polygon fill="midnightblue" stroke="midnightblue" points="463.54,-106.37 472.2,-112.47 469.24,-102.3 463.54,-106.37"/>
</g>
<!-- Node16 -->
<g id="node16" class="node">
<title>Node16</title>
<g id="a_node16"><a xlink:href="examples_2100__continue_2request__listener_8cpp.html" target="_top" xlink:title=" ">
<polygon fill="none" stroke="black" points="458.77,-56.5 458.77,-75.5 668.77,-75.5 668.77,-56.5 458.77,-56.5"/>
<text text-anchor="middle" x="563.77" y="-63.5" font-family="Helvetica,sans-Serif" font-size="10.00">examples/100_continue/request_listener.cpp</text>
</a>
</g>
</g>
<!-- Node15&#45;&gt;Node16 -->
<g id="edge18" class="edge">
<title>Node15&#45;&gt;Node16</title>
<path fill="none" stroke="midnightblue" d="M500.97,-106.9C516.55,-97 536.9,-84.07 550.15,-75.65"/>
<polygon fill="midnightblue" stroke="midnightblue" points="498.99,-104.01 492.43,-112.32 502.75,-109.92 498.99,-104.01"/>
</g>
<!-- Node18&#45;&gt;Node10 -->
<g id="edge22" class="edge">
<title>Node18&#45;&gt;Node10</title>
<path fill="none" stroke="midnightblue" d="M1003.06,-109.12C985.14,-102.47 967.43,-92.11 956.77,-76 942.08,-53.8 975,-31.4 997.02,-19.57"/>
<polygon fill="midnightblue" stroke="midnightblue" points="1002.4,-112.59 1013,-112.45 1004.63,-105.95 1002.4,-112.59"/>
</g>
<!-- Node19 -->
<g id="node19" class="node">
<title>Node19</title>
<g id="a_node19"><a xlink:href="file__server_8cpp.html" target="_top" xlink:title=" ">
<polygon fill="none" stroke="black" points="965.27,-56.5 965.27,-75.5 1160.27,-75.5 1160.27,-56.5 965.27,-56.5"/>
<text text-anchor="middle" x="1062.77" y="-63.5" font-family="Helvetica,sans-Serif" font-size="10.00">examples/serve_directory/file_server.cpp</text>
</a>
</g>
</g>
<!-- Node18&#45;&gt;Node19 -->
<g id="edge21" class="edge">
<title>Node18&#45;&gt;Node19</title>
<path fill="none" stroke="midnightblue" d="M1062.77,-101.8C1062.77,-92.91 1062.77,-82.78 1062.77,-75.75"/>
<polygon fill="midnightblue" stroke="midnightblue" points="1059.27,-102.08 1062.77,-112.08 1066.27,-102.08 1059.27,-102.08"/>
</g>
<!-- Node20&#45;&gt;Node11 -->
<g id="edge26" class="edge">
<title>Node20&#45;&gt;Node11</title>
<path fill="none" stroke="midnightblue" d="M1333.61,-107.82C1318.22,-99.72 1299.06,-88.5 1283.77,-76 1262.46,-58.57 1242.14,-33.07 1232.17,-19.79"/>
<polygon fill="midnightblue" stroke="midnightblue" points="1332.14,-111 1342.63,-112.45 1335.33,-104.77 1332.14,-111"/>
</g>
<!-- Node21 -->
<g id="node21" class="node">
<title>Node21</title>
<g id="a_node21"><a xlink:href="examples_2simple__server_2request__listener_8cpp.html" target="_top" xlink:title=" ">
<polygon fill="none" stroke="black" points="1292.27,-56.5 1292.27,-75.5 1505.27,-75.5 1505.27,-56.5 1292.27,-56.5"/>
<text text-anchor="middle" x="1398.77" y="-63.5" font-family="Helvetica,sans-Serif" font-size="10.00">examples/simple_server/request_listener.cpp</text>
</a>
</g>
</g>
<!-- Node20&#45;&gt;Node21 -->
<g id="edge27" class="edge">
<title>Node20&#45;&gt;Node21</title>
<path fill="none" stroke="midnightblue" d="M1372.84,-103.86C1379.42,-94.5 1387.28,-83.33 1392.61,-75.75"/>
<polygon fill="midnightblue" stroke="midnightblue" points="1369.94,-101.89 1367.05,-112.08 1375.66,-105.92 1369.94,-101.89"/>
</g>
</g>
</svg>
