<?xml version="1.0" encoding="UTF-8" standalone="no"?>
<!DOCTYPE svg PUBLIC "-//W3C//DTD SVG 1.1//EN"
 "http://www.w3.org/Graphics/SVG/1.1/DTD/svg11.dtd">
<!-- Generated by graphviz version 2.44.1 (20211215.1903)
 -->
<!-- Title: src/roar/websocket/websocket_session.cpp Pages: 1 -->
<svg width="2665pt" height="252pt"
 viewBox="0.00 0.00 2665.50 252.00" xmlns="http://www.w3.org/2000/svg" xmlns:xlink="http://www.w3.org/1999/xlink">
<g id="graph0" class="graph" transform="scale(1 1) rotate(0) translate(4 248)">
<title>src/roar/websocket/websocket_session.cpp</title>
<!-- Node1 -->
<g id="node1" class="node">
<title>Node1</title>
<g id="a_node1"><a xlink:title=" ">
<polygon fill="#bfbfbf" stroke="black" points="1887.5,-224.5 1887.5,-243.5 2095.5,-243.5 2095.5,-224.5 1887.5,-224.5"/>
<text text-anchor="middle" x="1991.5" y="-231.5" font-family="Helvetica,sans-Serif" font-size="10.00">src/roar/websocket/websocket_session.cpp</text>
</a>
</g>
</g>
<!-- Node2 -->
<g id="node2" class="node">
<title>Node2</title>
<g id="a_node2"><a xlink:href="websocket__session_8hpp.html" target="_top" xlink:title=" ">
<polygon fill="none" stroke="black" points="459,-168.5 459,-187.5 650,-187.5 650,-168.5 459,-168.5"/>
<text text-anchor="middle" x="554.5" y="-175.5" font-family="Helvetica,sans-Serif" font-size="10.00">roar/websocket/websocket_session.hpp</text>
</a>
</g>
</g>
<!-- Node1&#45;&gt;Node2 -->
<g id="edge1" class="edge">
<title>Node1&#45;&gt;Node2</title>
<path fill="none" stroke="midnightblue" d="M1887.29,-229.08C1622.58,-219.14 926.46,-192.98 660.17,-182.97"/>
<polygon fill="midnightblue" stroke="midnightblue" points="660.24,-179.47 650.12,-182.59 659.98,-186.47 660.24,-179.47"/>
</g>
<!-- Node9 -->
<g id="node9" class="node">
<title>Node9</title>
<g id="a_node9"><a xlink:href="error_8hpp.html" target="_top" xlink:title=" ">
<polygon fill="none" stroke="black" points="1247.5,-56.5 1247.5,-75.5 1321.5,-75.5 1321.5,-56.5 1247.5,-56.5"/>
<text text-anchor="middle" x="1284.5" y="-63.5" font-family="Helvetica,sans-Serif" font-size="10.00">roar/error.hpp</text>
</a>
</g>
</g>
<!-- Node1&#45;&gt;Node9 -->
<g id="edge51" class="edge">
<title>Node1&#45;&gt;Node9</title>
<path fill="none" stroke="midnightblue" d="M1887.33,-229.08C1660.18,-219.46 1136.35,-191.06 1083.5,-132 1077.57,-125.38 1077.94,-118.94 1083.5,-112 1085.94,-108.95 1178.85,-89.07 1237.48,-76.77"/>
<polygon fill="midnightblue" stroke="midnightblue" points="1238.22,-80.19 1247.29,-74.72 1236.78,-73.34 1238.22,-80.19"/>
</g>
<!-- Node25 -->
<g id="node25" class="node">
<title>Node25</title>
<g id="a_node25"><a xlink:title=" ">
<polygon fill="none" stroke="#bfbfbf" points="1942,-56.5 1942,-75.5 2079,-75.5 2079,-56.5 1942,-56.5"/>
<text text-anchor="middle" x="2010.5" y="-63.5" font-family="Helvetica,sans-Serif" font-size="10.00">boost/beast/websocket.hpp</text>
</a>
</g>
</g>
<!-- Node1&#45;&gt;Node25 -->
<g id="edge52" class="edge">
<title>Node1&#45;&gt;Node25</title>
<path fill="none" stroke="midnightblue" d="M2087.53,-224.5C2242.6,-208.89 2525.67,-171.71 2471.5,-112 2446.37,-84.3 2214.35,-73.1 2089.38,-69.04"/>
<polygon fill="midnightblue" stroke="midnightblue" points="2089.2,-65.53 2079.1,-68.71 2088.98,-72.53 2089.2,-65.53"/>
</g>
<!-- Node28 -->
<g id="node28" class="node">
<title>Node28</title>
<g id="a_node28"><a xlink:href="request_8hpp.html" target="_top" xlink:title=" ">
<polygon fill="none" stroke="black" points="1948,-168.5 1948,-187.5 2035,-187.5 2035,-168.5 1948,-168.5"/>
<text text-anchor="middle" x="1991.5" y="-175.5" font-family="Helvetica,sans-Serif" font-size="10.00">roar/request.hpp</text>
</a>
</g>
</g>
<!-- Node1&#45;&gt;Node28 -->
<g id="edge38" class="edge">
<title>Node1&#45;&gt;Node28</title>
<path fill="none" stroke="midnightblue" d="M1991.5,-224.08C1991.5,-217.01 1991.5,-206.86 1991.5,-197.99"/>
<polygon fill="midnightblue" stroke="midnightblue" points="1995,-197.75 1991.5,-187.75 1988,-197.75 1995,-197.75"/>
</g>
<!-- Node38 -->
<g id="node38" class="node">
<title>Node38</title>
<g id="a_node38"><a xlink:title=" ">
<polygon fill="none" stroke="#bfbfbf" points="2595.5,-168.5 2595.5,-187.5 2657.5,-187.5 2657.5,-168.5 2595.5,-168.5"/>
<text text-anchor="middle" x="2626.5" y="-175.5" font-family="Helvetica,sans-Serif" font-size="10.00">type_traits</text>
</a>
</g>
</g>
<!-- Node1&#45;&gt;Node38 -->
<g id="edge53" class="edge">
<title>Node1&#45;&gt;Node38</title>
<path fill="none" stroke="midnightblue" d="M2095.55,-228.88C2213.74,-223.32 2412.18,-211.3 2581.5,-188 2582.6,-187.85 2583.72,-187.69 2584.85,-187.51"/>
<polygon fill="midnightblue" stroke="midnightblue" points="2585.83,-190.9 2595.11,-185.78 2584.67,-184 2585.83,-190.9"/>
</g>
<!-- Node3 -->
<g id="node3" class="node">
<title>Node3</title>
<g id="a_node3"><a xlink:href="pimpl__special__functions_8hpp.html" target="_top" xlink:title=" ">
<polygon fill="none" stroke="black" points="86,-112.5 86,-131.5 271,-131.5 271,-112.5 86,-112.5"/>
<text text-anchor="middle" x="178.5" y="-119.5" font-family="Helvetica,sans-Serif" font-size="10.00">roar/detail/pimpl_special_functions.hpp</text>
</a>
</g>
</g>
<!-- Node2&#45;&gt;Node3 -->
<g id="edge2" class="edge">
<title>Node2&#45;&gt;Node3</title>
<path fill="none" stroke="midnightblue" d="M494.92,-168.44C427.82,-158.81 318.9,-143.16 247.98,-132.98"/>
<polygon fill="midnightblue" stroke="midnightblue" points="248.2,-129.47 237.8,-131.52 247.2,-136.4 248.2,-129.47"/>
</g>
<!-- Node4 -->
<g id="node4" class="node">
<title>Node4</title>
<g id="a_node4"><a xlink:href="shared__from__base_8hpp.html" target="_top" xlink:title=" ">
<polygon fill="none" stroke="black" points="289,-112.5 289,-131.5 450,-131.5 450,-112.5 289,-112.5"/>
<text text-anchor="middle" x="369.5" y="-119.5" font-family="Helvetica,sans-Serif" font-size="10.00">roar/detail/shared_from_base.hpp</text>
</a>
</g>
</g>
<!-- Node2&#45;&gt;Node4 -->
<g id="edge3" class="edge">
<title>Node2&#45;&gt;Node4</title>
<path fill="none" stroke="midnightblue" d="M525.19,-168.44C493.66,-159.24 443.37,-144.56 408.51,-134.39"/>
<polygon fill="midnightblue" stroke="midnightblue" points="409.26,-130.96 398.68,-131.52 407.3,-137.68 409.26,-130.96"/>
</g>
<!-- Node5 -->
<g id="node5" class="node">
<title>Node5</title>
<g id="a_node5"><a xlink:title=" ">
<polygon fill="none" stroke="#bfbfbf" points="270.5,-56.5 270.5,-75.5 322.5,-75.5 322.5,-56.5 270.5,-56.5"/>
<text text-anchor="middle" x="296.5" y="-63.5" font-family="Helvetica,sans-Serif" font-size="10.00">memory</text>
</a>
</g>
</g>
<!-- Node2&#45;&gt;Node5 -->
<g id="edge36" class="edge">
<title>Node2&#45;&gt;Node5</title>
<path fill="none" stroke="midnightblue" d="M544.24,-168.38C527.38,-154.61 492.3,-127.63 458.5,-112 447.01,-106.69 376.69,-87.91 332.56,-76.36"/>
<polygon fill="midnightblue" stroke="midnightblue" points="333.32,-72.94 322.76,-73.8 331.55,-79.71 333.32,-72.94"/>
</g>
<!-- Node6 -->
<g id="node6" class="node">
<title>Node6</title>
<g id="a_node6"><a xlink:href="websocket__base_8hpp.html" target="_top" xlink:title=" ">
<polygon fill="none" stroke="black" points="640,-112.5 640,-131.5 819,-131.5 819,-112.5 640,-112.5"/>
<text text-anchor="middle" x="729.5" y="-119.5" font-family="Helvetica,sans-Serif" font-size="10.00">roar/websocket/websocket_base.hpp</text>
</a>
</g>
</g>
<!-- Node2&#45;&gt;Node6 -->
<g id="edge5" class="edge">
<title>Node2&#45;&gt;Node6</title>
<path fill="none" stroke="midnightblue" d="M582.23,-168.44C611.93,-159.28 659.22,-144.69 692.17,-134.52"/>
<polygon fill="midnightblue" stroke="midnightblue" points="693.38,-137.81 701.9,-131.52 691.31,-131.12 693.38,-137.81"/>
</g>
<!-- Node12 -->
<g id="node12" class="node">
<title>Node12</title>
<g id="a_node12"><a xlink:title=" ">
<polygon fill="none" stroke="#bfbfbf" points="652.5,-0.5 652.5,-19.5 698.5,-19.5 698.5,-0.5 652.5,-0.5"/>
<text text-anchor="middle" x="675.5" y="-7.5" font-family="Helvetica,sans-Serif" font-size="10.00">variant</text>
</a>
</g>
</g>
<!-- Node2&#45;&gt;Node12 -->
<g id="edge37" class="edge">
<title>Node2&#45;&gt;Node12</title>
<path fill="none" stroke="midnightblue" d="M557.42,-168.32C564.79,-147.31 585.76,-92.76 616.5,-56 626.57,-43.95 640.44,-33.17 652.19,-25.19"/>
<polygon fill="midnightblue" stroke="midnightblue" points="654.21,-28.05 660.67,-19.65 650.39,-22.18 654.21,-28.05"/>
</g>
<!-- Node18 -->
<g id="node18" class="node">
<title>Node18</title>
<g id="a_node18"><a xlink:title=" ">
<polygon fill="none" stroke="#bfbfbf" points="716.5,-0.5 716.5,-19.5 842.5,-19.5 842.5,-0.5 716.5,-0.5"/>
<text text-anchor="middle" x="779.5" y="-7.5" font-family="Helvetica,sans-Serif" font-size="10.00">promise&#45;cpp/promise.hpp</text>
</a>
</g>
</g>
<!-- Node2&#45;&gt;Node18 -->
<g id="edge35" class="edge">
<title>Node2&#45;&gt;Node18</title>
<path fill="none" stroke="midnightblue" d="M564.05,-168.23C578.17,-155.39 605.65,-130.95 630.5,-112 673.77,-78.99 727.12,-44.15 756.82,-25.25"/>
<polygon fill="midnightblue" stroke="midnightblue" points="759.01,-28 765.58,-19.69 755.26,-22.09 759.01,-28"/>
</g>
<!-- Node19 -->
<g id="node19" class="node">
<title>Node19</title>
<g id="a_node19"><a xlink:href="stream__type_8hpp.html" target="_top" xlink:title=" ">
<polygon fill="none" stroke="black" points="341,-56.5 341,-75.5 476,-75.5 476,-56.5 341,-56.5"/>
<text text-anchor="middle" x="408.5" y="-63.5" font-family="Helvetica,sans-Serif" font-size="10.00">roar/detail/stream_type.hpp</text>
</a>
</g>
</g>
<!-- Node2&#45;&gt;Node19 -->
<g id="edge31" class="edge">
<title>Node2&#45;&gt;Node19</title>
<path fill="none" stroke="midnightblue" d="M458.98,-174.77C326.87,-170.67 101.7,-159.68 76.5,-132 70.52,-125.43 70.65,-118.69 76.5,-112 80.68,-107.21 233.97,-87.98 330.77,-76.26"/>
<polygon fill="midnightblue" stroke="midnightblue" points="331.32,-79.72 340.82,-75.05 330.48,-72.77 331.32,-79.72"/>
</g>
<!-- Node20 -->
<g id="node20" class="node">
<title>Node20</title>
<g id="a_node20"><a xlink:title=" ">
<polygon fill="none" stroke="#bfbfbf" points="474.5,-0.5 474.5,-19.5 634.5,-19.5 634.5,-0.5 474.5,-0.5"/>
<text text-anchor="middle" x="554.5" y="-7.5" font-family="Helvetica,sans-Serif" font-size="10.00">boost/beast/core/tcp_stream.hpp</text>
</a>
</g>
</g>
<!-- Node2&#45;&gt;Node20 -->
<g id="edge34" class="edge">
<title>Node2&#45;&gt;Node20</title>
<path fill="none" stroke="midnightblue" d="M550.9,-168.22C547.44,-159.28 542.47,-144.94 540.5,-132 535.43,-98.61 535.43,-89.39 540.5,-56 541.87,-47 544.69,-37.33 547.45,-29.26"/>
<polygon fill="midnightblue" stroke="midnightblue" points="550.77,-30.37 550.9,-19.78 544.19,-27.98 550.77,-30.37"/>
</g>
<!-- Node24 -->
<g id="node24" class="node">
<title>Node24</title>
<g id="a_node24"><a xlink:title=" ">
<polygon fill="none" stroke="#bfbfbf" points="1076,-56.5 1076,-75.5 1229,-75.5 1229,-56.5 1076,-56.5"/>
<text text-anchor="middle" x="1152.5" y="-63.5" font-family="Helvetica,sans-Serif" font-size="10.00">boost/beast/ssl/ssl_stream.hpp</text>
</a>
</g>
</g>
<!-- Node2&#45;&gt;Node24 -->
<g id="edge33" class="edge">
<title>Node2&#45;&gt;Node24</title>
<path fill="none" stroke="midnightblue" d="M650.05,-168.6C703.26,-162.11 770.14,-150.92 827.5,-132 846,-125.9 847.98,-118.03 866.5,-112 903.57,-99.92 1000.72,-85.96 1071.54,-76.83"/>
<polygon fill="midnightblue" stroke="midnightblue" points="1072.31,-80.26 1081.78,-75.52 1071.42,-73.32 1072.31,-80.26"/>
</g>
<!-- Node27 -->
<g id="node27" class="node">
<title>Node27</title>
<g id="a_node27"><a xlink:title=" ">
<polygon fill="none" stroke="#bfbfbf" points="876,-112.5 876,-131.5 1037,-131.5 1037,-112.5 876,-112.5"/>
<text text-anchor="middle" x="956.5" y="-119.5" font-family="Helvetica,sans-Serif" font-size="10.00">boost/beast/http/empty_body.hpp</text>
</a>
</g>
</g>
<!-- Node2&#45;&gt;Node27 -->
<g id="edge32" class="edge">
<title>Node2&#45;&gt;Node27</title>
<path fill="none" stroke="midnightblue" d="M618.2,-168.44C690.24,-158.77 807.35,-143.04 883.15,-132.85"/>
<polygon fill="midnightblue" stroke="midnightblue" points="883.65,-136.32 893.1,-131.52 882.72,-129.38 883.65,-136.32"/>
</g>
<!-- Node4&#45;&gt;Node5 -->
<g id="edge4" class="edge">
<title>Node4&#45;&gt;Node5</title>
<path fill="none" stroke="midnightblue" d="M357.77,-112.32C346.66,-104.11 329.76,-91.6 316.52,-81.81"/>
<polygon fill="midnightblue" stroke="midnightblue" points="318.56,-78.97 308.44,-75.83 314.4,-84.59 318.56,-78.97"/>
</g>
<!-- Node7 -->
<g id="node7" class="node">
<title>Node7</title>
<g id="a_node7"><a xlink:href="read__result_8hpp.html" target="_top" xlink:title=" ">
<polygon fill="none" stroke="black" points="1387,-56.5 1387,-75.5 1540,-75.5 1540,-56.5 1387,-56.5"/>
<text text-anchor="middle" x="1463.5" y="-63.5" font-family="Helvetica,sans-Serif" font-size="10.00">roar/websocket/read_result.hpp</text>
</a>
</g>
</g>
<!-- Node6&#45;&gt;Node7 -->
<g id="edge6" class="edge">
<title>Node6&#45;&gt;Node7</title>
<path fill="none" stroke="midnightblue" d="M819.14,-114.41C961.19,-103.95 1236.28,-83.72 1376.61,-73.39"/>
<polygon fill="midnightblue" stroke="midnightblue" points="1377.17,-76.86 1386.88,-72.64 1376.65,-69.88 1377.17,-76.86"/>
</g>
<!-- Node6&#45;&gt;Node9 -->
<g id="edge8" class="edge">
<title>Node6&#45;&gt;Node9</title>
<path fill="none" stroke="midnightblue" d="M819.21,-114.15C938.37,-104.87 1143.67,-88.2 1237.31,-75.84"/>
<polygon fill="midnightblue" stroke="midnightblue" points="1237.92,-79.29 1247.36,-74.47 1236.98,-72.35 1237.92,-79.29"/>
</g>
<!-- Node6&#45;&gt;Node12 -->
<g id="edge30" class="edge">
<title>Node6&#45;&gt;Node12</title>
<path fill="none" stroke="midnightblue" d="M725.26,-112.37C716.43,-94.38 695.9,-52.55 684.15,-28.63"/>
<polygon fill="midnightblue" stroke="midnightblue" points="687.27,-27.03 679.72,-19.59 680.98,-30.11 687.27,-27.03"/>
</g>
<!-- Node17 -->
<g id="node17" class="node">
<title>Node17</title>
<g id="a_node17"><a xlink:href="promise__compat_8hpp.html" target="_top" xlink:title=" ">
<polygon fill="none" stroke="black" points="905,-56.5 905,-75.5 1058,-75.5 1058,-56.5 905,-56.5"/>
<text text-anchor="middle" x="981.5" y="-63.5" font-family="Helvetica,sans-Serif" font-size="10.00">roar/detail/promise_compat.hpp</text>
</a>
</g>
</g>
<!-- Node6&#45;&gt;Node17 -->
<g id="edge17" class="edge">
<title>Node6&#45;&gt;Node17</title>
<path fill="none" stroke="midnightblue" d="M769.43,-112.44C813.39,-103.02 884.13,-87.87 931.68,-77.68"/>
<polygon fill="midnightblue" stroke="midnightblue" points="932.71,-81.03 941.76,-75.52 931.25,-74.19 932.71,-81.03"/>
</g>
<!-- Node6&#45;&gt;Node18 -->
<g id="edge25" class="edge">
<title>Node6&#45;&gt;Node18</title>
<path fill="none" stroke="midnightblue" d="M726.37,-112.09C722.35,-99.08 716.87,-74.43 725.5,-56 731.54,-43.09 743.31,-32.6 754.32,-25"/>
<polygon fill="midnightblue" stroke="midnightblue" points="756.33,-27.87 762.87,-19.54 752.56,-21.97 756.33,-27.87"/>
</g>
<!-- Node6&#45;&gt;Node19 -->
<g id="edge20" class="edge">
<title>Node6&#45;&gt;Node19</title>
<path fill="none" stroke="midnightblue" d="M678.64,-112.44C621.82,-102.89 529.88,-87.42 469.31,-77.23"/>
<polygon fill="midnightblue" stroke="midnightblue" points="469.57,-73.72 459.13,-75.52 468.41,-80.63 469.57,-73.72"/>
</g>
<!-- Node6&#45;&gt;Node20 -->
<g id="edge27" class="edge">
<title>Node6&#45;&gt;Node20</title>
<path fill="none" stroke="midnightblue" d="M715.77,-112.37C685.61,-93.41 613.36,-48 576.68,-24.94"/>
<polygon fill="midnightblue" stroke="midnightblue" points="578.5,-21.95 568.17,-19.59 574.77,-27.88 578.5,-21.95"/>
</g>
<!-- Node6&#45;&gt;Node24 -->
<g id="edge26" class="edge">
<title>Node6&#45;&gt;Node24</title>
<path fill="none" stroke="midnightblue" d="M796.53,-112.44C872.48,-102.75 996.06,-86.97 1075.8,-76.79"/>
<polygon fill="midnightblue" stroke="midnightblue" points="1076.31,-80.25 1085.79,-75.52 1075.43,-73.31 1076.31,-80.25"/>
</g>
<!-- Node6&#45;&gt;Node25 -->
<g id="edge28" class="edge">
<title>Node6&#45;&gt;Node25</title>
<path fill="none" stroke="midnightblue" d="M819.02,-114.78C834.83,-113.78 851.15,-112.81 866.5,-112 1266.59,-90.99 1745.86,-75.17 1931.59,-69.39"/>
<polygon fill="midnightblue" stroke="midnightblue" points="1931.92,-72.88 1941.81,-69.07 1931.7,-65.88 1931.92,-72.88"/>
</g>
<!-- Node26 -->
<g id="node26" class="node">
<title>Node26</title>
<g id="a_node26"><a xlink:title=" ">
<polygon fill="none" stroke="#bfbfbf" points="734.5,-56.5 734.5,-75.5 886.5,-75.5 886.5,-56.5 734.5,-56.5"/>
<text text-anchor="middle" x="810.5" y="-63.5" font-family="Helvetica,sans-Serif" font-size="10.00">boost/beast/websocket/ssl.hpp</text>
</a>
</g>
</g>
<!-- Node6&#45;&gt;Node26 -->
<g id="edge29" class="edge">
<title>Node6&#45;&gt;Node26</title>
<path fill="none" stroke="midnightblue" d="M742.51,-112.32C755.03,-103.98 774.18,-91.21 788.97,-81.35"/>
<polygon fill="midnightblue" stroke="midnightblue" points="791.14,-84.11 797.52,-75.65 787.26,-78.29 791.14,-84.11"/>
</g>
<!-- Node8 -->
<g id="node8" class="node">
<title>Node8</title>
<g id="a_node8"><a xlink:title=" ">
<polygon fill="none" stroke="#bfbfbf" points="1490,-0.5 1490,-19.5 1531,-19.5 1531,-0.5 1490,-0.5"/>
<text text-anchor="middle" x="1510.5" y="-7.5" font-family="Helvetica,sans-Serif" font-size="10.00">string</text>
</a>
</g>
</g>
<!-- Node7&#45;&gt;Node8 -->
<g id="edge7" class="edge">
<title>Node7&#45;&gt;Node8</title>
<path fill="none" stroke="midnightblue" d="M1471.26,-56.08C1478.04,-48.3 1488.04,-36.8 1496.26,-27.37"/>
<polygon fill="midnightblue" stroke="midnightblue" points="1498.96,-29.59 1502.88,-19.75 1493.68,-25 1498.96,-29.59"/>
</g>
<!-- Node9&#45;&gt;Node8 -->
<g id="edge11" class="edge">
<title>Node9&#45;&gt;Node8</title>
<path fill="none" stroke="midnightblue" d="M1321.52,-57.26C1359.06,-49.24 1419.01,-35.99 1480.08,-19.97"/>
<polygon fill="midnightblue" stroke="midnightblue" points="1481.12,-23.32 1489.89,-17.38 1479.33,-16.55 1481.12,-23.32"/>
</g>
<!-- Node10 -->
<g id="node10" class="node">
<title>Node10</title>
<g id="a_node10"><a xlink:href="forward_8hpp.html" target="_top" xlink:title=" ">
<polygon fill="none" stroke="black" points="1099.5,-0.5 1099.5,-19.5 1213.5,-19.5 1213.5,-0.5 1099.5,-0.5"/>
<text text-anchor="middle" x="1156.5" y="-7.5" font-family="Helvetica,sans-Serif" font-size="10.00">roar/beast/forward.hpp</text>
</a>
</g>
</g>
<!-- Node9&#45;&gt;Node10 -->
<g id="edge9" class="edge">
<title>Node9&#45;&gt;Node10</title>
<path fill="none" stroke="midnightblue" d="M1264.22,-56.44C1243.15,-47.56 1209.98,-33.56 1186.01,-23.45"/>
<polygon fill="midnightblue" stroke="midnightblue" points="1187.26,-20.18 1176.69,-19.52 1184.54,-26.63 1187.26,-20.18"/>
</g>
<!-- Node11 -->
<g id="node11" class="node">
<title>Node11</title>
<g id="a_node11"><a xlink:title=" ">
<polygon fill="none" stroke="#bfbfbf" points="1232,-0.5 1232,-19.5 1387,-19.5 1387,-0.5 1232,-0.5"/>
<text text-anchor="middle" x="1309.5" y="-7.5" font-family="Helvetica,sans-Serif" font-size="10.00">boost/system/system_error.hpp</text>
</a>
</g>
</g>
<!-- Node9&#45;&gt;Node11 -->
<g id="edge10" class="edge">
<title>Node9&#45;&gt;Node11</title>
<path fill="none" stroke="midnightblue" d="M1288.63,-56.08C1292.01,-48.77 1296.92,-38.18 1301.12,-29.1"/>
<polygon fill="midnightblue" stroke="midnightblue" points="1304.42,-30.3 1305.45,-19.75 1298.07,-27.36 1304.42,-30.3"/>
</g>
<!-- Node9&#45;&gt;Node12 -->
<g id="edge12" class="edge">
<title>Node9&#45;&gt;Node12</title>
<path fill="none" stroke="midnightblue" d="M1247.37,-57.46C1244.04,-56.91 1240.71,-56.42 1237.5,-56 1006.66,-26.17 941.98,-59.21 708.94,-19.89"/>
<polygon fill="midnightblue" stroke="midnightblue" points="709.24,-16.39 698.79,-18.15 708.06,-23.29 709.24,-16.39"/>
</g>
<!-- Node13 -->
<g id="node13" class="node">
<title>Node13</title>
<g id="a_node13"><a xlink:title=" ">
<polygon fill="none" stroke="#bfbfbf" points="2027.5,-0.5 2027.5,-19.5 2077.5,-19.5 2077.5,-0.5 2027.5,-0.5"/>
<text text-anchor="middle" x="2052.5" y="-7.5" font-family="Helvetica,sans-Serif" font-size="10.00">optional</text>
</a>
</g>
</g>
<!-- Node9&#45;&gt;Node13 -->
<g id="edge13" class="edge">
<title>Node9&#45;&gt;Node13</title>
<path fill="none" stroke="midnightblue" d="M1321.59,-61.15C1338.61,-59.46 1359.07,-57.51 1377.5,-56 1622.02,-36.02 1916.92,-18.69 2017.18,-12.98"/>
<polygon fill="midnightblue" stroke="midnightblue" points="2017.56,-16.47 2027.35,-12.4 2017.17,-9.48 2017.56,-16.47"/>
</g>
<!-- Node14 -->
<g id="node14" class="node">
<title>Node14</title>
<g id="a_node14"><a xlink:title=" ">
<polygon fill="none" stroke="#bfbfbf" points="952,-0.5 952,-19.5 1011,-19.5 1011,-0.5 952,-0.5"/>
<text text-anchor="middle" x="981.5" y="-7.5" font-family="Helvetica,sans-Serif" font-size="10.00">functional</text>
</a>
</g>
</g>
<!-- Node9&#45;&gt;Node14 -->
<g id="edge14" class="edge">
<title>Node9&#45;&gt;Node14</title>
<path fill="none" stroke="midnightblue" d="M1247.32,-57.79C1244,-57.17 1240.69,-56.57 1237.5,-56 1144.36,-39.36 1118.08,-39.01 1021.19,-20.03"/>
<polygon fill="midnightblue" stroke="midnightblue" points="1021.76,-16.58 1011.27,-18.07 1020.4,-23.44 1021.76,-16.58"/>
</g>
<!-- Node15 -->
<g id="node15" class="node">
<title>Node15</title>
<g id="a_node15"><a xlink:title=" ">
<polygon fill="none" stroke="#bfbfbf" points="1405.5,-0.5 1405.5,-19.5 1471.5,-19.5 1471.5,-0.5 1405.5,-0.5"/>
<text text-anchor="middle" x="1438.5" y="-7.5" font-family="Helvetica,sans-Serif" font-size="10.00">string_view</text>
</a>
</g>
</g>
<!-- Node9&#45;&gt;Node15 -->
<g id="edge15" class="edge">
<title>Node9&#45;&gt;Node15</title>
<path fill="none" stroke="midnightblue" d="M1308.9,-56.44C1334.7,-47.4 1375.58,-33.06 1404.52,-22.92"/>
<polygon fill="midnightblue" stroke="midnightblue" points="1405.93,-26.13 1414.21,-19.52 1403.62,-19.52 1405.93,-26.13"/>
</g>
<!-- Node16 -->
<g id="node16" class="node">
<title>Node16</title>
<g id="a_node16"><a xlink:title=" ">
<polygon fill="none" stroke="#bfbfbf" points="1029.5,-0.5 1029.5,-19.5 1081.5,-19.5 1081.5,-0.5 1029.5,-0.5"/>
<text text-anchor="middle" x="1055.5" y="-7.5" font-family="Helvetica,sans-Serif" font-size="10.00">sstream</text>
</a>
</g>
</g>
<!-- Node9&#45;&gt;Node16 -->
<g id="edge16" class="edge">
<title>Node9&#45;&gt;Node16</title>
<path fill="none" stroke="midnightblue" d="M1247.25,-56.64C1210.21,-48.26 1151.51,-34.82 1091.83,-20.29"/>
<polygon fill="midnightblue" stroke="midnightblue" points="1092.4,-16.82 1081.86,-17.85 1090.74,-23.62 1092.4,-16.82"/>
</g>
<!-- Node17&#45;&gt;Node14 -->
<g id="edge18" class="edge">
<title>Node17&#45;&gt;Node14</title>
<path fill="none" stroke="midnightblue" d="M981.5,-56.08C981.5,-49.01 981.5,-38.86 981.5,-29.99"/>
<polygon fill="midnightblue" stroke="midnightblue" points="985,-29.75 981.5,-19.75 978,-29.75 985,-29.75"/>
</g>
<!-- Node17&#45;&gt;Node18 -->
<g id="edge19" class="edge">
<title>Node17&#45;&gt;Node18</title>
<path fill="none" stroke="midnightblue" d="M949.49,-56.44C914.77,-47.16 859.21,-32.31 821.12,-22.13"/>
<polygon fill="midnightblue" stroke="midnightblue" points="821.92,-18.72 811.36,-19.52 820.11,-25.48 821.92,-18.72"/>
</g>
<!-- Node19&#45;&gt;Node20 -->
<g id="edge21" class="edge">
<title>Node19&#45;&gt;Node20</title>
<path fill="none" stroke="midnightblue" d="M431.63,-56.44C455.98,-47.44 494.51,-33.19 521.92,-23.05"/>
<polygon fill="midnightblue" stroke="midnightblue" points="523.31,-26.27 531.47,-19.52 520.88,-19.7 523.31,-26.27"/>
</g>
<!-- Node21 -->
<g id="node21" class="node">
<title>Node21</title>
<g id="a_node21"><a xlink:title=" ">
<polygon fill="none" stroke="#bfbfbf" points="173.5,-0.5 173.5,-19.5 331.5,-19.5 331.5,-0.5 173.5,-0.5"/>
<text text-anchor="middle" x="252.5" y="-7.5" font-family="Helvetica,sans-Serif" font-size="10.00">boost/beast/core/rate_policy.hpp</text>
</a>
</g>
</g>
<!-- Node19&#45;&gt;Node21 -->
<g id="edge22" class="edge">
<title>Node19&#45;&gt;Node21</title>
<path fill="none" stroke="midnightblue" d="M383.78,-56.44C357.65,-47.4 316.24,-33.06 286.92,-22.92"/>
<polygon fill="midnightblue" stroke="midnightblue" points="287.7,-19.48 277.1,-19.52 285.41,-26.1 287.7,-19.48"/>
</g>
<!-- Node22 -->
<g id="node22" class="node">
<title>Node22</title>
<g id="a_node22"><a xlink:title=" ">
<polygon fill="none" stroke="#bfbfbf" points="349,-0.5 349,-19.5 456,-19.5 456,-0.5 349,-0.5"/>
<text text-anchor="middle" x="402.5" y="-7.5" font-family="Helvetica,sans-Serif" font-size="10.00">boost/asio/ip/tcp.hpp</text>
</a>
</g>
</g>
<!-- Node19&#45;&gt;Node22 -->
<g id="edge23" class="edge">
<title>Node19&#45;&gt;Node22</title>
<path fill="none" stroke="midnightblue" d="M407.51,-56.08C406.71,-48.93 405.57,-38.64 404.58,-29.69"/>
<polygon fill="midnightblue" stroke="midnightblue" points="408.06,-29.3 403.47,-19.75 401.1,-30.08 408.06,-29.3"/>
</g>
<!-- Node23 -->
<g id="node23" class="node">
<title>Node23</title>
<g id="a_node23"><a xlink:title=" ">
<polygon fill="none" stroke="#bfbfbf" points="0,-0.5 0,-19.5 155,-19.5 155,-0.5 0,-0.5"/>
<text text-anchor="middle" x="77.5" y="-7.5" font-family="Helvetica,sans-Serif" font-size="10.00">boost/asio/any_io_executor.hpp</text>
</a>
</g>
</g>
<!-- Node19&#45;&gt;Node23 -->
<g id="edge24" class="edge">
<title>Node19&#45;&gt;Node23</title>
<path fill="none" stroke="midnightblue" d="M356.05,-56.44C297.34,-46.87 202.27,-31.36 139.82,-21.17"/>
<polygon fill="midnightblue" stroke="midnightblue" points="140.14,-17.67 129.7,-19.52 139.01,-24.58 140.14,-17.67"/>
</g>
<!-- Node28&#45;&gt;Node8 -->
<g id="edge48" class="edge">
<title>Node28&#45;&gt;Node8</title>
<path fill="none" stroke="midnightblue" d="M2035.14,-176.19C2147.93,-173.63 2442.41,-163.95 2471.5,-132 2477.48,-125.43 2477.31,-118.72 2471.5,-112 2409.15,-39.89 1699.95,-16.21 1541.69,-11.81"/>
<polygon fill="midnightblue" stroke="midnightblue" points="1541.35,-8.29 1531.26,-11.52 1541.16,-15.29 1541.35,-8.29"/>
</g>
<!-- Node28&#45;&gt;Node13 -->
<g id="edge47" class="edge">
<title>Node28&#45;&gt;Node13</title>
<path fill="none" stroke="midnightblue" d="M2035.19,-176.48C2153.61,-174.61 2473.99,-166.38 2505.5,-132 2528.32,-107.1 2528.17,-81.04 2505.5,-56 2477.58,-25.16 2189.16,-14.61 2087.63,-11.84"/>
<polygon fill="midnightblue" stroke="midnightblue" points="2087.66,-8.34 2077.57,-11.57 2087.47,-15.33 2087.66,-8.34"/>
</g>
<!-- Node28&#45;&gt;Node27 -->
<g id="edge40" class="edge">
<title>Node28&#45;&gt;Node27</title>
<path fill="none" stroke="midnightblue" d="M1947.54,-175.15C1816.25,-169.56 1415.53,-151.99 1083.5,-132 1071.78,-131.29 1059.45,-130.49 1047.28,-129.67"/>
<polygon fill="midnightblue" stroke="midnightblue" points="1047.32,-126.16 1037.1,-128.97 1046.84,-133.15 1047.32,-126.16"/>
</g>
<!-- Node29 -->
<g id="node29" class="node">
<title>Node29</title>
<g id="a_node29"><a xlink:title=" ">
<polygon fill="none" stroke="#bfbfbf" points="1093,-112.5 1093,-131.5 1242,-131.5 1242,-112.5 1093,-112.5"/>
<text text-anchor="middle" x="1167.5" y="-119.5" font-family="Helvetica,sans-Serif" font-size="10.00">boost/beast/http/message.hpp</text>
</a>
</g>
</g>
<!-- Node28&#45;&gt;Node29 -->
<g id="edge39" class="edge">
<title>Node28&#45;&gt;Node29</title>
<path fill="none" stroke="midnightblue" d="M1947.6,-175.06C1834.28,-169.9 1522.47,-154.71 1252.14,-132.1"/>
<polygon fill="midnightblue" stroke="midnightblue" points="1252.4,-128.61 1242.14,-131.26 1251.81,-135.59 1252.4,-128.61"/>
</g>
<!-- Node30 -->
<g id="node30" class="node">
<title>Node30</title>
<g id="a_node30"><a xlink:title=" ">
<polygon fill="none" stroke="#bfbfbf" points="1260,-112.5 1260,-131.5 1449,-131.5 1449,-112.5 1260,-112.5"/>
<text text-anchor="middle" x="1354.5" y="-119.5" font-family="Helvetica,sans-Serif" font-size="10.00">boost/algorithm/string/classification.hpp</text>
</a>
</g>
</g>
<!-- Node28&#45;&gt;Node30 -->
<g id="edge41" class="edge">
<title>Node28&#45;&gt;Node30</title>
<path fill="none" stroke="midnightblue" d="M1947.89,-173.37C1858.39,-165.91 1647.24,-148.27 1459.15,-132.14"/>
<polygon fill="midnightblue" stroke="midnightblue" points="1459.34,-128.64 1449.07,-131.28 1458.74,-135.62 1459.34,-128.64"/>
</g>
<!-- Node31 -->
<g id="node31" class="node">
<title>Node31</title>
<g id="a_node31"><a xlink:title=" ">
<polygon fill="none" stroke="#bfbfbf" points="1467,-112.5 1467,-131.5 1642,-131.5 1642,-112.5 1467,-112.5"/>
<text text-anchor="middle" x="1554.5" y="-119.5" font-family="Helvetica,sans-Serif" font-size="10.00">boost/algorithm/string/constants.hpp</text>
</a>
</g>
</g>
<!-- Node28&#45;&gt;Node31 -->
<g id="edge42" class="edge">
<title>Node28&#45;&gt;Node31</title>
<path fill="none" stroke="midnightblue" d="M1947.6,-171.58C1874.16,-162.5 1725.44,-144.12 1633.45,-132.76"/>
<polygon fill="midnightblue" stroke="midnightblue" points="1633.71,-129.26 1623.35,-131.51 1632.85,-136.21 1633.71,-129.26"/>
</g>
<!-- Node32 -->
<g id="node32" class="node">
<title>Node32</title>
<g id="a_node32"><a xlink:title=" ">
<polygon fill="none" stroke="#bfbfbf" points="1660.5,-112.5 1660.5,-131.5 1810.5,-131.5 1810.5,-112.5 1660.5,-112.5"/>
<text text-anchor="middle" x="1735.5" y="-119.5" font-family="Helvetica,sans-Serif" font-size="10.00">boost/algorithm/string/split.hpp</text>
</a>
</g>
</g>
<!-- Node28&#45;&gt;Node32 -->
<g id="edge43" class="edge">
<title>Node28&#45;&gt;Node32</title>
<path fill="none" stroke="midnightblue" d="M1950.94,-168.44C1906.18,-159 1834.12,-143.8 1785.8,-133.61"/>
<polygon fill="midnightblue" stroke="midnightblue" points="1786.38,-130.16 1775.87,-131.52 1784.94,-137.01 1786.38,-130.16"/>
</g>
<!-- Node33 -->
<g id="node33" class="node">
<title>Node33</title>
<g id="a_node33"><a xlink:title=" ">
<polygon fill="none" stroke="#bfbfbf" points="1828,-112.5 1828,-131.5 1977,-131.5 1977,-112.5 1828,-112.5"/>
<text text-anchor="middle" x="1902.5" y="-119.5" font-family="Helvetica,sans-Serif" font-size="10.00">boost/algorithm/string/trim.hpp</text>
</a>
</g>
</g>
<!-- Node28&#45;&gt;Node33 -->
<g id="edge44" class="edge">
<title>Node28&#45;&gt;Node33</title>
<path fill="none" stroke="midnightblue" d="M1977.2,-168.32C1963.32,-159.9 1942.01,-146.97 1925.7,-137.07"/>
<polygon fill="midnightblue" stroke="midnightblue" points="1927.13,-133.85 1916.76,-131.65 1923.5,-139.83 1927.13,-133.85"/>
</g>
<!-- Node34 -->
<g id="node34" class="node">
<title>Node34</title>
<g id="a_node34"><a xlink:title=" ">
<polygon fill="none" stroke="#bfbfbf" points="1995.5,-112.5 1995.5,-131.5 2167.5,-131.5 2167.5,-112.5 1995.5,-112.5"/>
<text text-anchor="middle" x="2081.5" y="-119.5" font-family="Helvetica,sans-Serif" font-size="10.00">boost/beast/websocket/rfc6455.hpp</text>
</a>
</g>
</g>
<!-- Node28&#45;&gt;Node34 -->
<g id="edge45" class="edge">
<title>Node28&#45;&gt;Node34</title>
<path fill="none" stroke="midnightblue" d="M2005.96,-168.32C2020,-159.9 2041.55,-146.97 2058.04,-137.07"/>
<polygon fill="midnightblue" stroke="midnightblue" points="2060.3,-139.8 2067.08,-131.65 2056.7,-133.8 2060.3,-139.8"/>
</g>
<!-- Node35 -->
<g id="node35" class="node">
<title>Node35</title>
<g id="a_node35"><a xlink:title=" ">
<polygon fill="none" stroke="#bfbfbf" points="2185.5,-112.5 2185.5,-131.5 2299.5,-131.5 2299.5,-112.5 2185.5,-112.5"/>
<text text-anchor="middle" x="2242.5" y="-119.5" font-family="Helvetica,sans-Serif" font-size="10.00">boost/lexical_cast.hpp</text>
</a>
</g>
</g>
<!-- Node28&#45;&gt;Node35 -->
<g id="edge46" class="edge">
<title>Node28&#45;&gt;Node35</title>
<path fill="none" stroke="midnightblue" d="M2031.27,-168.44C2075.06,-159.02 2145.51,-143.87 2192.88,-133.68"/>
<polygon fill="midnightblue" stroke="midnightblue" points="2193.87,-137.04 2202.91,-131.52 2192.4,-130.2 2193.87,-137.04"/>
</g>
<!-- Node36 -->
<g id="node36" class="node">
<title>Node36</title>
<g id="a_node36"><a xlink:title=" ">
<polygon fill="none" stroke="#bfbfbf" points="2317.5,-112.5 2317.5,-131.5 2361.5,-131.5 2361.5,-112.5 2317.5,-112.5"/>
<text text-anchor="middle" x="2339.5" y="-119.5" font-family="Helvetica,sans-Serif" font-size="10.00">vector</text>
</a>
</g>
</g>
<!-- Node28&#45;&gt;Node36 -->
<g id="edge49" class="edge">
<title>Node28&#45;&gt;Node36</title>
<path fill="none" stroke="midnightblue" d="M2035.17,-172.78C2094.7,-166.59 2204.75,-153.61 2307.34,-131.99"/>
<polygon fill="midnightblue" stroke="midnightblue" points="2308.2,-135.39 2317.25,-129.87 2306.73,-128.54 2308.2,-135.39"/>
</g>
<!-- Node37 -->
<g id="node37" class="node">
<title>Node37</title>
<g id="a_node37"><a xlink:title=" ">
<polygon fill="none" stroke="#bfbfbf" points="2380,-112.5 2380,-131.5 2463,-131.5 2463,-112.5 2380,-112.5"/>
<text text-anchor="middle" x="2421.5" y="-119.5" font-family="Helvetica,sans-Serif" font-size="10.00">unordered_map</text>
</a>
</g>
</g>
<!-- Node28&#45;&gt;Node37 -->
<g id="edge50" class="edge">
<title>Node28&#45;&gt;Node37</title>
<path fill="none" stroke="midnightblue" d="M2035.09,-172.63C2103.9,-165.56 2242.14,-150.64 2369.83,-132.02"/>
<polygon fill="midnightblue" stroke="midnightblue" points="2370.4,-135.48 2379.78,-130.56 2369.38,-128.55 2370.4,-135.48"/>
</g>
</g>
</svg>
