<?xml version="1.0" encoding="UTF-8" standalone="no"?>
<!DOCTYPE svg PUBLIC "-//W3C//DTD SVG 1.1//EN"
 "http://www.w3.org/Graphics/SVG/1.1/DTD/svg11.dtd">
<!-- Generated by graphviz version 8.1.0 (0)
 -->
<!-- Title: include/roar/websocket/websocket_client.hpp Pages: 1 -->
<!--zoomable 196 -->

<svg id="main" version="1.1" xmlns="http://www.w3.org/2000/svg" xmlns:xlink="http://www.w3.org/1999/xlink" xml:space="preserve" onload="init(evt)">
<style type="text/css"><![CDATA[
.node, .edge {opacity: 0.7;}
.node.selected, .edge.selected {opacity: 1;}
.edge:hover path { stroke: red; }
.edge:hover polygon { stroke: red; fill: red; }
]]></style>

<defs>
  <circle id="rim" cx="0" cy="0" r="7"/>
  <circle id="rim2" cx="0" cy="0" r="3.5"/>
  <g id="zoomPlus">
    <use xlink:href="#rim" fill="#404040"><set attributeName="fill" to="#808080" begin="zoomplus.mouseover" end="zoomplus.mouseout"/></use>
    <path d="M-4,0h8M0,-4v8" fill="none" stroke="white" stroke-width="1.5" pointer-events="none"/>
  </g>
  <g id="zoomMin">
    <use xlink:href="#rim" fill="#404040"><set attributeName="fill" to="#808080" begin="zoomminus.mouseover" end="zoomminus.mouseout"/></use>
    <path d="M-4,0h8" fill="none" stroke="white" stroke-width="1.5" pointer-events="none"/>
  </g>
  <g id="arrowUp" transform="translate(30 24)">
    <use xlink:href="#rim"/>
    <path pointer-events="none" fill="none" stroke="white" stroke-width="1.5" d="M0,-3.0v7 M-2.5,-0.5L0,-3.0L2.5,-0.5"/>
  </g>
  <g id="arrowRight" transform="rotate(90) translate(36 -43)">
    <use xlink:href="#rim"/>
    <path pointer-events="none" fill="none" stroke="white" stroke-width="1.5" d="M0,-3.0v7 M-2.5,-0.5L0,-3.0L2.5,-0.5"/>
  </g>
  <g id="arrowDown" transform="rotate(180) translate(-30 -48)">
    <use xlink:href="#rim"/>
    <path pointer-events="none" fill="none" stroke="white" stroke-width="1.5" d="M0,-3.0v7 M-2.5,-0.5L0,-3.0L2.5,-0.5"/>
  </g>
  <g id="arrowLeft" transform="rotate(270) translate(-36 17)">
    <use xlink:href="#rim"/>
    <path pointer-events="none" fill="none" stroke="white" stroke-width="1.5" d="M0,-3.0v7 M-2.5,-0.5L0,-3.0L2.5,-0.5"/>
  </g>
  <g id="resetDef">
    <use xlink:href="#rim2" fill="#404040"><set attributeName="fill" to="#808080" begin="reset.mouseover" end="reset.mouseout"/></use>
  </g>
</defs>
<script type="application/ecmascript">
var viewWidth = 2149;
var viewHeight = 196;
var sectionId = 'dynsection-0';
</script>
<script type="application/ecmascript" xlink:href="svg.min.js"/>
<svg id="graph" class="graph">
<g id="viewport">
<title>include/roar/websocket/websocket_client.hpp</title>
<!-- Node1 -->
<g id="Node000001" class="node">
<title>Node1</title>
<g id="a_Node000001"><a xlink:title=" ">
<polygon fill="#999999" stroke="#666666" points="1541.75,-188 1327.75,-188 1327.75,-168 1541.75,-168 1541.75,-188"/>
<text text-anchor="middle" x="1434.75" y="-174.5" font-family="Helvetica,sans-Serif" font-size="10.00">include/roar/websocket/websocket_client.hpp</text>
</a>
</g>
</g>
<!-- Node2 -->
<g id="Node000002" class="node">
<title>Node2</title>
<g id="a_Node000002"><a xlink:href="promise__compat_8hpp.html" target="_top" xlink:title=" ">
<polygon fill="white" stroke="#666666" points="243,-76 90.5,-76 90.5,-56 243,-56 243,-76"/>
<text text-anchor="middle" x="166.75" y="-62.5" font-family="Helvetica,sans-Serif" font-size="10.00">roar/detail/promise_compat.hpp</text>
</a>
</g>
</g>
<!-- Node1&#45;&gt;Node2 -->
<g id="edge1_Node000001_Node000002" class="edge">
<title>Node1&#45;&gt;Node2</title>
<g id="a_edge1_Node000001_Node000002"><a xlink:title=" ">
<path fill="none" stroke="#63b8ff" d="M1327.38,-172.59C1182.94,-166.18 918.13,-152.74 692.75,-132 532.51,-117.26 345.74,-92.32 243.46,-78"/>
<polygon fill="#63b8ff" stroke="#63b8ff" points="244.01,-74.41 233.62,-76.48 243.04,-81.34 244.01,-74.41"/>
</a>
</g>
</g>
<!-- Node4 -->
<g id="Node000004" class="node">
<title>Node4</title>
<g id="a_Node000004"><a xlink:title=" ">
<polygon fill="#e0e0e0" stroke="#999999" points="125.5,-20 0,-20 0,0 125.5,0 125.5,-20"/>
<text text-anchor="middle" x="62.75" y="-6.5" font-family="Helvetica,sans-Serif" font-size="10.00">promise&#45;cpp/promise.hpp</text>
</a>
</g>
</g>
<!-- Node1&#45;&gt;Node4 -->
<g id="edge34_Node000001_Node000004" class="edge">
<title>Node1&#45;&gt;Node4</title>
<g id="a_edge34_Node000001_Node000004"><a xlink:title=" ">
<path fill="none" stroke="#63b8ff" d="M1327.38,-174.51C1155.66,-169.9 808.72,-158.03 515.75,-132 322.03,-114.79 229.58,-202.39 81.75,-76 68.78,-64.91 64.41,-45.49 63.06,-30.76"/>
<polygon fill="#63b8ff" stroke="#63b8ff" points="66.52,-31 62.51,-21.2 59.53,-31.36 66.52,-31"/>
</a>
</g>
</g>
<!-- Node5 -->
<g id="Node000005" class="node">
<title>Node5</title>
<g id="a_Node000005"><a xlink:href="pimpl__special__functions_8hpp.html" target="_top" xlink:title=" ">
<polygon fill="white" stroke="#666666" points="1467.12,-132 1282.38,-132 1282.38,-112 1467.12,-112 1467.12,-132"/>
<text text-anchor="middle" x="1374.75" y="-118.5" font-family="Helvetica,sans-Serif" font-size="10.00">roar/detail/pimpl_special_functions.hpp</text>
</a>
</g>
</g>
<!-- Node1&#45;&gt;Node5 -->
<g id="edge4_Node000001_Node000005" class="edge">
<title>Node1&#45;&gt;Node5</title>
<g id="a_edge4_Node000001_Node000005"><a xlink:title=" ">
<path fill="none" stroke="#63b8ff" d="M1424.3,-167.59C1415.7,-159.85 1403.29,-148.69 1393.05,-139.47"/>
<polygon fill="#63b8ff" stroke="#63b8ff" points="1395.86,-137.39 1386.08,-133.3 1391.17,-142.59 1395.86,-137.39"/>
</a>
</g>
</g>
<!-- Node6 -->
<g id="Node000006" class="node">
<title>Node6</title>
<g id="a_Node000006"><a xlink:href="shared__from__base_8hpp.html" target="_top" xlink:title=" ">
<polygon fill="white" stroke="#666666" points="1683.12,-132 1522.38,-132 1522.38,-112 1683.12,-112 1683.12,-132"/>
<text text-anchor="middle" x="1602.75" y="-118.5" font-family="Helvetica,sans-Serif" font-size="10.00">roar/detail/shared_from_base.hpp</text>
</a>
</g>
</g>
<!-- Node1&#45;&gt;Node6 -->
<g id="edge5_Node000001_Node000006" class="edge">
<title>Node1&#45;&gt;Node6</title>
<g id="a_edge5_Node000001_Node000006"><a xlink:title=" ">
<path fill="none" stroke="#63b8ff" d="M1464.01,-167.59C1491.43,-158.78 1532.62,-145.54 1563,-135.78"/>
<polygon fill="#63b8ff" stroke="#63b8ff" points="1563.81,-138.87 1572.26,-132.48 1561.67,-132.21 1563.81,-138.87"/>
</a>
</g>
</g>
<!-- Node7 -->
<g id="Node000007" class="node">
<title>Node7</title>
<g id="a_Node000007"><a xlink:title=" ">
<polygon fill="#e0e0e0" stroke="#999999" points="1574.38,-76 1523.12,-76 1523.12,-56 1574.38,-56 1574.38,-76"/>
<text text-anchor="middle" x="1548.75" y="-62.5" font-family="Helvetica,sans-Serif" font-size="10.00">memory</text>
</a>
</g>
</g>
<!-- Node1&#45;&gt;Node7 -->
<g id="edge35_Node000001_Node000007" class="edge">
<title>Node1&#45;&gt;Node7</title>
<g id="a_edge35_Node000001_Node000007"><a xlink:title=" ">
<path fill="none" stroke="#63b8ff" d="M1444.47,-167.62C1463.74,-149.03 1507,-107.28 1531.32,-83.82"/>
<polygon fill="#63b8ff" stroke="#63b8ff" points="1533.29,-86.82 1538.06,-77.35 1528.43,-81.78 1533.29,-86.82"/>
</a>
</g>
</g>
<!-- Node8 -->
<g id="Node000008" class="node">
<title>Node8</title>
<g id="a_Node000008"><a xlink:href="websocket__base_8hpp.html" target="_top" xlink:title=" ">
<polygon fill="white" stroke="#666666" points="879.75,-132 701.75,-132 701.75,-112 879.75,-112 879.75,-132"/>
<text text-anchor="middle" x="790.75" y="-118.5" font-family="Helvetica,sans-Serif" font-size="10.00">roar/websocket/websocket_base.hpp</text>
</a>
</g>
</g>
<!-- Node1&#45;&gt;Node8 -->
<g id="edge7_Node000001_Node000008" class="edge">
<title>Node1&#45;&gt;Node8</title>
<g id="a_edge7_Node000001_Node000008"><a xlink:title=" ">
<path fill="none" stroke="#63b8ff" d="M1327.32,-167.99C1205.69,-157.79 1009.08,-141.31 890.65,-131.38"/>
<polygon fill="#63b8ff" stroke="#63b8ff" points="891.05,-127.81 880.79,-130.47 890.46,-134.79 891.05,-127.81"/>
</a>
</g>
</g>
<!-- Node15 -->
<g id="Node000015" class="node">
<title>Node15</title>
<g id="a_Node000015"><a xlink:title=" ">
<polygon fill="#e0e0e0" stroke="#999999" points="968.62,-20 918.88,-20 918.88,0 968.62,0 968.62,-20"/>
<text text-anchor="middle" x="943.75" y="-6.5" font-family="Helvetica,sans-Serif" font-size="10.00">optional</text>
</a>
</g>
</g>
<!-- Node1&#45;&gt;Node15 -->
<g id="edge36_Node000001_Node000015" class="edge">
<title>Node1&#45;&gt;Node15</title>
<g id="a_edge36_Node000001_Node000015"><a xlink:title=" ">
<path fill="none" stroke="#63b8ff" d="M1393.98,-167.54C1359.12,-159.15 1307.76,-146.07 1263.75,-132 1263.3,-131.86 1062.16,-55.78 979.04,-24.35"/>
<polygon fill="#63b8ff" stroke="#63b8ff" points="980.41,-20.75 969.82,-20.48 977.93,-27.29 980.41,-20.75"/>
</a>
</g>
</g>
<!-- Node22 -->
<g id="Node000022" class="node">
<title>Node22</title>
<g id="a_Node000022"><a xlink:title=" ">
<polygon fill="#e0e0e0" stroke="#999999" points="1627.75,-20 1473.75,-20 1473.75,0 1627.75,0 1627.75,-20"/>
<text text-anchor="middle" x="1550.75" y="-6.5" font-family="Helvetica,sans-Serif" font-size="10.00">boost/asio/any_io_executor.hpp</text>
</a>
</g>
</g>
<!-- Node1&#45;&gt;Node22 -->
<g id="edge31_Node000001_Node000022" class="edge">
<title>Node1&#45;&gt;Node22</title>
<g id="a_edge31_Node000001_Node000022"><a xlink:title=" ">
<path fill="none" stroke="#63b8ff" d="M1333.92,-167.51C1289.72,-158.96 1252.23,-142.75 1273.75,-112 1299.94,-74.58 1424.24,-40.24 1497.13,-22.88"/>
<polygon fill="#63b8ff" stroke="#63b8ff" points="1497.56,-26.14 1506.49,-20.44 1495.96,-19.33 1497.56,-26.14"/>
</a>
</g>
</g>
<!-- Node26 -->
<g id="Node000026" class="node">
<title>Node26</title>
<g id="a_Node000026"><a xlink:title=" ">
<polygon fill="#e0e0e0" stroke="#999999" points="1832.12,-132 1701.38,-132 1701.38,-112 1832.12,-112 1832.12,-132"/>
<text text-anchor="middle" x="1766.75" y="-118.5" font-family="Helvetica,sans-Serif" font-size="10.00">boost/asio/ssl/context.hpp</text>
</a>
</g>
</g>
<!-- Node1&#45;&gt;Node26 -->
<g id="edge32_Node000001_Node000026" class="edge">
<title>Node1&#45;&gt;Node26</title>
<g id="a_edge32_Node000001_Node000026"><a xlink:title=" ">
<path fill="none" stroke="#63b8ff" d="M1492.96,-167.53C1550.15,-158.23 1637.42,-144.04 1698,-134.18"/>
<polygon fill="#63b8ff" stroke="#63b8ff" points="1698.3,-137.52 1707.61,-132.46 1697.17,-130.61 1698.3,-137.52"/>
</a>
</g>
</g>
<!-- Node27 -->
<g id="Node000027" class="node">
<title>Node27</title>
<g id="a_Node000027"><a xlink:title=" ">
<polygon fill="#e0e0e0" stroke="#999999" points="1976.88,-132 1850.62,-132 1850.62,-112 1976.88,-112 1976.88,-132"/>
<text text-anchor="middle" x="1913.75" y="-118.5" font-family="Helvetica,sans-Serif" font-size="10.00">boost/beast/http/field.hpp</text>
</a>
</g>
</g>
<!-- Node1&#45;&gt;Node27 -->
<g id="edge33_Node000001_Node000027" class="edge">
<title>Node1&#45;&gt;Node27</title>
<g id="a_edge33_Node000001_Node000027"><a xlink:title=" ">
<path fill="none" stroke="#63b8ff" d="M1523.09,-167.52C1602.87,-158.89 1723.81,-145.63 1839.62,-132.12"/>
<polygon fill="#63b8ff" stroke="#63b8ff" points="1839.92,-135.49 1849.45,-130.85 1839.11,-128.54 1839.92,-135.49"/>
</a>
</g>
</g>
<!-- Node28 -->
<g id="Node000028" class="node">
<title>Node28</title>
<g id="a_Node000028"><a xlink:title=" ">
<polygon fill="#e0e0e0" stroke="#999999" points="2040.38,-132 1995.12,-132 1995.12,-112 2040.38,-112 2040.38,-132"/>
<text text-anchor="middle" x="2017.75" y="-118.5" font-family="Helvetica,sans-Serif" font-size="10.00">chrono</text>
</a>
</g>
</g>
<!-- Node1&#45;&gt;Node28 -->
<g id="edge37_Node000001_Node000028" class="edge">
<title>Node1&#45;&gt;Node28</title>
<g id="a_edge37_Node000001_Node000028"><a xlink:title=" ">
<path fill="none" stroke="#63b8ff" d="M1542.2,-174.34C1651.43,-170.24 1825.51,-159.88 1984.36,-131.89"/>
<polygon fill="#63b8ff" stroke="#63b8ff" points="1984.57,-135.23 1993.8,-130.03 1983.34,-128.34 1984.57,-135.23"/>
</a>
</g>
</g>
<!-- Node29 -->
<g id="Node000029" class="node">
<title>Node29</title>
<g id="a_Node000029"><a xlink:title=" ">
<polygon fill="#e0e0e0" stroke="#999999" points="2141.12,-132 2058.38,-132 2058.38,-112 2141.12,-112 2141.12,-132"/>
<text text-anchor="middle" x="2099.75" y="-118.5" font-family="Helvetica,sans-Serif" font-size="10.00">unordered_map</text>
</a>
</g>
</g>
<!-- Node1&#45;&gt;Node29 -->
<g id="edge38_Node000001_Node000029" class="edge">
<title>Node1&#45;&gt;Node29</title>
<g id="a_edge38_Node000001_Node000029"><a xlink:title=" ">
<path fill="none" stroke="#63b8ff" d="M1542.02,-172.57C1662.61,-166.81 1864.43,-154.85 2047.16,-132.21"/>
<polygon fill="#63b8ff" stroke="#63b8ff" points="2047.57,-135.56 2057.06,-130.84 2046.7,-128.61 2047.57,-135.56"/>
</a>
</g>
</g>
<!-- Node3 -->
<g id="Node000003" class="node">
<title>Node3</title>
<g id="a_Node000003"><a xlink:title=" ">
<polygon fill="#e0e0e0" stroke="#999999" points="201.75,-20 143.75,-20 143.75,0 201.75,0 201.75,-20"/>
<text text-anchor="middle" x="172.75" y="-6.5" font-family="Helvetica,sans-Serif" font-size="10.00">functional</text>
</a>
</g>
</g>
<!-- Node2&#45;&gt;Node3 -->
<g id="edge2_Node000002_Node000003" class="edge">
<title>Node2&#45;&gt;Node3</title>
<g id="a_edge2_Node000002_Node000003"><a xlink:title=" ">
<path fill="none" stroke="#63b8ff" d="M167.8,-55.59C168.54,-48.86 169.58,-39.53 170.51,-31.15"/>
<polygon fill="#63b8ff" stroke="#63b8ff" points="174.09,-31.62 171.72,-21.3 167.13,-30.85 174.09,-31.62"/>
</a>
</g>
</g>
<!-- Node2&#45;&gt;Node4 -->
<g id="edge3_Node000002_Node000004" class="edge">
<title>Node2&#45;&gt;Node4</title>
<g id="a_edge3_Node000002_Node000004"><a xlink:title=" ">
<path fill="none" stroke="#63b8ff" d="M148.63,-55.59C132.63,-47.28 109.03,-35.03 90.62,-25.47"/>
<polygon fill="#63b8ff" stroke="#63b8ff" points="92.49,-21.98 82.01,-20.48 89.27,-28.19 92.49,-21.98"/>
</a>
</g>
</g>
<!-- Node6&#45;&gt;Node7 -->
<g id="edge6_Node000006_Node000007" class="edge">
<title>Node6&#45;&gt;Node7</title>
<g id="a_edge6_Node000006_Node000007"><a xlink:title=" ">
<path fill="none" stroke="#63b8ff" d="M1593.34,-111.59C1585.76,-104.01 1574.88,-93.13 1565.77,-84.02"/>
<polygon fill="#63b8ff" stroke="#63b8ff" points="1568.59,-81.89 1559.05,-77.3 1563.64,-86.84 1568.59,-81.89"/>
</a>
</g>
</g>
<!-- Node8&#45;&gt;Node2 -->
<g id="edge19_Node000008_Node000002" class="edge">
<title>Node8&#45;&gt;Node2</title>
<g id="a_edge19_Node000008_Node000002"><a xlink:title=" ">
<path fill="none" stroke="#63b8ff" d="M701.43,-113.9C595.35,-105.37 413.09,-90.4 256.75,-76 255.93,-75.92 255.1,-75.85 254.28,-75.77"/>
<polygon fill="#63b8ff" stroke="#63b8ff" points="254.62,-72.19 244.34,-74.74 253.96,-79.16 254.62,-72.19"/>
</a>
</g>
</g>
<!-- Node8&#45;&gt;Node4 -->
<g id="edge25_Node000008_Node000004" class="edge">
<title>Node8&#45;&gt;Node4</title>
<g id="a_edge25_Node000008_Node000004"><a xlink:title=" ">
<path fill="none" stroke="#63b8ff" d="M701.36,-117.19C578.59,-111.24 364.5,-98.07 289.75,-76 271.45,-70.6 269.62,-62.71 251.75,-56 212.09,-41.11 165.85,-30 129.03,-22.54"/>
<polygon fill="#63b8ff" stroke="#63b8ff" points="129.91,-18.95 119.42,-20.44 128.55,-25.82 129.91,-18.95"/>
</a>
</g>
</g>
<!-- Node9 -->
<g id="Node000009" class="node">
<title>Node9</title>
<g id="a_Node000009"><a xlink:href="read__result_8hpp.html" target="_top" xlink:title=" ">
<polygon fill="white" stroke="#666666" points="1037,-76 884.5,-76 884.5,-56 1037,-56 1037,-76"/>
<text text-anchor="middle" x="960.75" y="-62.5" font-family="Helvetica,sans-Serif" font-size="10.00">roar/websocket/read_result.hpp</text>
</a>
</g>
</g>
<!-- Node8&#45;&gt;Node9 -->
<g id="edge8_Node000008_Node000009" class="edge">
<title>Node8&#45;&gt;Node9</title>
<g id="a_edge8_Node000008_Node000009"><a xlink:title=" ">
<path fill="none" stroke="#63b8ff" d="M820.36,-111.59C848.1,-102.78 889.79,-89.54 920.53,-79.78"/>
<polygon fill="#63b8ff" stroke="#63b8ff" points="921.44,-82.84 929.91,-76.48 919.32,-76.17 921.44,-82.84"/>
</a>
</g>
</g>
<!-- Node11 -->
<g id="Node000011" class="node">
<title>Node11</title>
<g id="a_Node000011"><a xlink:href="error_8hpp.html" target="_top" xlink:title=" ">
<polygon fill="white" stroke="#666666" points="372.62,-76 298.88,-76 298.88,-56 372.62,-56 372.62,-76"/>
<text text-anchor="middle" x="335.75" y="-62.5" font-family="Helvetica,sans-Serif" font-size="10.00">roar/error.hpp</text>
</a>
</g>
</g>
<!-- Node8&#45;&gt;Node11 -->
<g id="edge10_Node000008_Node000011" class="edge">
<title>Node8&#45;&gt;Node11</title>
<g id="a_edge10_Node000008_Node000011"><a xlink:title=" ">
<path fill="none" stroke="#63b8ff" d="M701.51,-113.35C620.98,-105.95 499.04,-93.51 383.88,-76.21"/>
<polygon fill="#63b8ff" stroke="#63b8ff" points="384.52,-72.62 374.11,-74.58 383.47,-79.54 384.52,-72.62"/>
</a>
</g>
</g>
<!-- Node14 -->
<g id="Node000014" class="node">
<title>Node14</title>
<g id="a_Node000014"><a xlink:title=" ">
<polygon fill="#e0e0e0" stroke="#999999" points="883.38,-20 838.12,-20 838.12,0 883.38,0 883.38,-20"/>
<text text-anchor="middle" x="860.75" y="-6.5" font-family="Helvetica,sans-Serif" font-size="10.00">variant</text>
</a>
</g>
</g>
<!-- Node8&#45;&gt;Node14 -->
<g id="edge30_Node000008_Node000014" class="edge">
<title>Node8&#45;&gt;Node14</title>
<g id="a_edge30_Node000008_Node000014"><a xlink:title=" ">
<path fill="none" stroke="#63b8ff" d="M880.18,-117.11C944.96,-112.2 1024.69,-101.1 1045.75,-76 1051.46,-69.19 1051.24,-62.99 1045.75,-56 1041.03,-49.99 946.59,-29.18 894.52,-18.09"/>
<polygon fill="#63b8ff" stroke="#63b8ff" points="895.3,-14.47 884.79,-15.81 893.85,-21.31 895.3,-14.47"/>
</a>
</g>
</g>
<!-- Node18 -->
<g id="Node000018" class="node">
<title>Node18</title>
<g id="a_Node000018"><a xlink:href="stream__type_8hpp.html" target="_top" xlink:title=" ">
<polygon fill="white" stroke="#666666" points="1303,-76 1168.5,-76 1168.5,-56 1303,-56 1303,-76"/>
<text text-anchor="middle" x="1235.75" y="-62.5" font-family="Helvetica,sans-Serif" font-size="10.00">roar/detail/stream_type.hpp</text>
</a>
</g>
</g>
<!-- Node8&#45;&gt;Node18 -->
<g id="edge20_Node000008_Node000018" class="edge">
<title>Node8&#45;&gt;Node18</title>
<g id="a_edge20_Node000008_Node000018"><a xlink:title=" ">
<path fill="none" stroke="#63b8ff" d="M869.03,-111.5C950.18,-101.65 1076.3,-86.35 1157.45,-76.5"/>
<polygon fill="#63b8ff" stroke="#63b8ff" points="1157.6,-79.89 1167.11,-75.21 1156.76,-72.94 1157.6,-79.89"/>
</a>
</g>
</g>
<!-- Node19 -->
<g id="Node000019" class="node">
<title>Node19</title>
<g id="a_Node000019"><a xlink:title=" ">
<polygon fill="#e0e0e0" stroke="#999999" points="1155.38,-20 996.12,-20 996.12,0 1155.38,0 1155.38,-20"/>
<text text-anchor="middle" x="1075.75" y="-6.5" font-family="Helvetica,sans-Serif" font-size="10.00">boost/beast/core/tcp_stream.hpp</text>
</a>
</g>
</g>
<!-- Node8&#45;&gt;Node19 -->
<g id="edge27_Node000008_Node000019" class="edge">
<title>Node8&#45;&gt;Node19</title>
<g id="a_edge27_Node000008_Node000019"><a xlink:title=" ">
<path fill="none" stroke="#63b8ff" d="M880.15,-116.98C949.18,-111.97 1037.12,-100.79 1062.75,-76 1074.64,-64.5 1077.28,-45.42 1077.3,-30.9"/>
<polygon fill="#63b8ff" stroke="#63b8ff" points="1080.76,-30.89 1076.86,-21.04 1073.77,-31.17 1080.76,-30.89"/>
</a>
</g>
</g>
<!-- Node23 -->
<g id="Node000023" class="node">
<title>Node23</title>
<g id="a_Node000023"><a xlink:title=" ">
<polygon fill="#e0e0e0" stroke="#999999" points="543,-76 390.5,-76 390.5,-56 543,-56 543,-76"/>
<text text-anchor="middle" x="466.75" y="-62.5" font-family="Helvetica,sans-Serif" font-size="10.00">boost/beast/ssl/ssl_stream.hpp</text>
</a>
</g>
</g>
<!-- Node8&#45;&gt;Node23 -->
<g id="edge26_Node000008_Node000023" class="edge">
<title>Node8&#45;&gt;Node23</title>
<g id="a_edge26_Node000008_Node000023"><a xlink:title=" ">
<path fill="none" stroke="#63b8ff" d="M733.94,-111.53C678.24,-102.25 593.32,-88.09 534.21,-78.24"/>
<polygon fill="#63b8ff" stroke="#63b8ff" points="534.93,-74.65 524.49,-76.46 533.78,-81.55 534.93,-74.65"/>
</a>
</g>
</g>
<!-- Node24 -->
<g id="Node000024" class="node">
<title>Node24</title>
<g id="a_Node000024"><a xlink:title=" ">
<polygon fill="#e0e0e0" stroke="#999999" points="696.75,-76 560.75,-76 560.75,-56 696.75,-56 696.75,-76"/>
<text text-anchor="middle" x="628.75" y="-62.5" font-family="Helvetica,sans-Serif" font-size="10.00">boost/beast/websocket.hpp</text>
</a>
</g>
</g>
<!-- Node8&#45;&gt;Node24 -->
<g id="edge28_Node000008_Node000024" class="edge">
<title>Node8&#45;&gt;Node24</title>
<g id="a_edge28_Node000008_Node000024"><a xlink:title=" ">
<path fill="none" stroke="#63b8ff" d="M762.53,-111.59C736.21,-102.82 696.72,-89.66 667.46,-79.9"/>
<polygon fill="#63b8ff" stroke="#63b8ff" points="668.78,-76.32 658.19,-76.48 666.57,-82.96 668.78,-76.32"/>
</a>
</g>
</g>
<!-- Node25 -->
<g id="Node000025" class="node">
<title>Node25</title>
<g id="a_Node000025"><a xlink:title=" ">
<polygon fill="#e0e0e0" stroke="#999999" points="866.62,-76 714.88,-76 714.88,-56 866.62,-56 866.62,-76"/>
<text text-anchor="middle" x="790.75" y="-62.5" font-family="Helvetica,sans-Serif" font-size="10.00">boost/beast/websocket/ssl.hpp</text>
</a>
</g>
</g>
<!-- Node8&#45;&gt;Node25 -->
<g id="edge29_Node000008_Node000025" class="edge">
<title>Node8&#45;&gt;Node25</title>
<g id="a_edge29_Node000008_Node000025"><a xlink:title=" ">
<path fill="none" stroke="#63b8ff" d="M790.75,-111.59C790.75,-104.86 790.75,-95.53 790.75,-87.15"/>
<polygon fill="#63b8ff" stroke="#63b8ff" points="794.25,-87.3 790.75,-77.3 787.25,-87.3 794.25,-87.3"/>
</a>
</g>
</g>
<!-- Node10 -->
<g id="Node000010" class="node">
<title>Node10</title>
<g id="a_Node000010"><a xlink:title=" ">
<polygon fill="#e0e0e0" stroke="#999999" points="785.75,-20 745.75,-20 745.75,0 785.75,0 785.75,-20"/>
<text text-anchor="middle" x="765.75" y="-6.5" font-family="Helvetica,sans-Serif" font-size="10.00">string</text>
</a>
</g>
</g>
<!-- Node9&#45;&gt;Node10 -->
<g id="edge9_Node000009_Node000010" class="edge">
<title>Node9&#45;&gt;Node10</title>
<g id="a_edge9_Node000009_Node000010"><a xlink:title=" ">
<path fill="none" stroke="#63b8ff" d="M926.78,-55.59C890,-45.41 831.84,-29.3 796.4,-19.49"/>
<polygon fill="#63b8ff" stroke="#63b8ff" points="797.75,-15.95 787.18,-16.66 795.88,-22.7 797.75,-15.95"/>
</a>
</g>
</g>
<!-- Node11&#45;&gt;Node3 -->
<g id="edge16_Node000011_Node000003" class="edge">
<title>Node11&#45;&gt;Node3</title>
<g id="a_edge16_Node000011_Node000003"><a xlink:title=" ">
<path fill="none" stroke="#63b8ff" d="M307.36,-55.59C280.87,-46.82 241.14,-33.66 211.7,-23.9"/>
<polygon fill="#63b8ff" stroke="#63b8ff" points="212.96,-20.3 202.36,-20.48 210.76,-26.95 212.96,-20.3"/>
</a>
</g>
</g>
<!-- Node11&#45;&gt;Node10 -->
<g id="edge13_Node000011_Node000010" class="edge">
<title>Node11&#45;&gt;Node10</title>
<g id="a_edge13_Node000011_Node000010"><a xlink:title=" ">
<path fill="none" stroke="#63b8ff" d="M373.11,-57.44C376.03,-56.93 378.94,-56.44 381.75,-56 512.19,-35.63 668.87,-20 734.47,-13.85"/>
<polygon fill="#63b8ff" stroke="#63b8ff" points="734.64,-17.25 744.28,-12.84 734,-10.28 734.64,-17.25"/>
</a>
</g>
</g>
<!-- Node12 -->
<g id="Node000012" class="node">
<title>Node12</title>
<g id="a_Node000012"><a xlink:href="forward_8hpp.html" target="_top" xlink:title=" ">
<polygon fill="white" stroke="#666666" points="402.5,-20 289,-20 289,0 402.5,0 402.5,-20"/>
<text text-anchor="middle" x="345.75" y="-6.5" font-family="Helvetica,sans-Serif" font-size="10.00">roar/beast/forward.hpp</text>
</a>
</g>
</g>
<!-- Node11&#45;&gt;Node12 -->
<g id="edge11_Node000011_Node000012" class="edge">
<title>Node11&#45;&gt;Node12</title>
<g id="a_edge11_Node000011_Node000012"><a xlink:title=" ">
<path fill="none" stroke="#63b8ff" d="M337.49,-55.59C338.75,-48.78 340.51,-39.32 342.07,-30.86"/>
<polygon fill="#63b8ff" stroke="#63b8ff" points="345.65,-31.77 344.03,-21.3 338.77,-30.49 345.65,-31.77"/>
</a>
</g>
</g>
<!-- Node13 -->
<g id="Node000013" class="node">
<title>Node13</title>
<g id="a_Node000013"><a xlink:title=" ">
<polygon fill="#e0e0e0" stroke="#999999" points="574.75,-20 420.75,-20 420.75,0 574.75,0 574.75,-20"/>
<text text-anchor="middle" x="497.75" y="-6.5" font-family="Helvetica,sans-Serif" font-size="10.00">boost/system/system_error.hpp</text>
</a>
</g>
</g>
<!-- Node11&#45;&gt;Node13 -->
<g id="edge12_Node000011_Node000013" class="edge">
<title>Node11&#45;&gt;Node13</title>
<g id="a_edge12_Node000011_Node000013"><a xlink:title=" ">
<path fill="none" stroke="#63b8ff" d="M363.97,-55.59C390.29,-46.82 429.78,-33.66 459.04,-23.9"/>
<polygon fill="#63b8ff" stroke="#63b8ff" points="459.93,-26.96 468.31,-20.48 457.72,-20.32 459.93,-26.96"/>
</a>
</g>
</g>
<!-- Node11&#45;&gt;Node14 -->
<g id="edge14_Node000011_Node000014" class="edge">
<title>Node11&#45;&gt;Node14</title>
<g id="a_edge14_Node000011_Node000014"><a xlink:title=" ">
<path fill="none" stroke="#63b8ff" d="M373.1,-57.35C376.02,-56.85 378.93,-56.4 381.75,-56 564.2,-30.27 611.64,-40.45 794.75,-20 805.3,-18.82 816.77,-17.33 827.14,-15.9"/>
<polygon fill="#63b8ff" stroke="#63b8ff" points="827.46,-19.25 836.88,-14.4 826.49,-12.32 827.46,-19.25"/>
</a>
</g>
</g>
<!-- Node11&#45;&gt;Node15 -->
<g id="edge15_Node000011_Node000015" class="edge">
<title>Node11&#45;&gt;Node15</title>
<g id="a_edge15_Node000011_Node000015"><a xlink:title=" ">
<path fill="none" stroke="#63b8ff" d="M373.09,-57.3C376.02,-56.81 378.93,-56.37 381.75,-56 607.45,-26.09 666.78,-47.82 892.75,-20 897.6,-19.4 902.69,-18.65 907.7,-17.84"/>
<polygon fill="#63b8ff" stroke="#63b8ff" points="908.14,-21.15 917.41,-16.01 906.96,-14.25 908.14,-21.15"/>
</a>
</g>
</g>
<!-- Node16 -->
<g id="Node000016" class="node">
<title>Node16</title>
<g id="a_Node000016"><a xlink:title=" ">
<polygon fill="#e0e0e0" stroke="#999999" points="658.5,-20 593,-20 593,0 658.5,0 658.5,-20"/>
<text text-anchor="middle" x="625.75" y="-6.5" font-family="Helvetica,sans-Serif" font-size="10.00">string_view</text>
</a>
</g>
</g>
<!-- Node11&#45;&gt;Node16 -->
<g id="edge17_Node000011_Node000016" class="edge">
<title>Node11&#45;&gt;Node16</title>
<g id="a_edge17_Node000011_Node000016"><a xlink:title=" ">
<path fill="none" stroke="#63b8ff" d="M372.9,-57.68C375.89,-57.1 378.87,-56.54 381.75,-56 468.06,-39.87 492.47,-37.7 582.1,-20.27"/>
<polygon fill="#63b8ff" stroke="#63b8ff" points="582.62,-23.54 591.76,-18.18 581.27,-16.67 582.62,-23.54"/>
</a>
</g>
</g>
<!-- Node17 -->
<g id="Node000017" class="node">
<title>Node17</title>
<g id="a_Node000017"><a xlink:title=" ">
<polygon fill="#e0e0e0" stroke="#999999" points="271.38,-20 220.12,-20 220.12,0 271.38,0 271.38,-20"/>
<text text-anchor="middle" x="245.75" y="-6.5" font-family="Helvetica,sans-Serif" font-size="10.00">sstream</text>
</a>
</g>
</g>
<!-- Node11&#45;&gt;Node17 -->
<g id="edge18_Node000011_Node000017" class="edge">
<title>Node11&#45;&gt;Node17</title>
<g id="a_edge18_Node000011_Node000017"><a xlink:title=" ">
<path fill="none" stroke="#63b8ff" d="M320.07,-55.59C306.48,-47.44 286.55,-35.48 270.76,-26"/>
<polygon fill="#63b8ff" stroke="#63b8ff" points="272.92,-22.62 262.55,-20.48 269.32,-28.63 272.92,-22.62"/>
</a>
</g>
</g>
<!-- Node18&#45;&gt;Node19 -->
<g id="edge21_Node000018_Node000019" class="edge">
<title>Node18&#45;&gt;Node19</title>
<g id="a_edge21_Node000018_Node000019"><a xlink:title=" ">
<path fill="none" stroke="#63b8ff" d="M1207.88,-55.59C1181.88,-46.82 1142.88,-33.66 1113.98,-23.9"/>
<polygon fill="#63b8ff" stroke="#63b8ff" points="1115.43,-20.36 1104.84,-20.48 1113.19,-26.99 1115.43,-20.36"/>
</a>
</g>
</g>
<!-- Node20 -->
<g id="Node000020" class="node">
<title>Node20</title>
<g id="a_Node000020"><a xlink:title=" ">
<polygon fill="#e0e0e0" stroke="#999999" points="1455.25,-20 1298.25,-20 1298.25,0 1455.25,0 1455.25,-20"/>
<text text-anchor="middle" x="1376.75" y="-6.5" font-family="Helvetica,sans-Serif" font-size="10.00">boost/beast/core/rate_policy.hpp</text>
</a>
</g>
</g>
<!-- Node18&#45;&gt;Node20 -->
<g id="edge22_Node000018_Node000020" class="edge">
<title>Node18&#45;&gt;Node20</title>
<g id="a_edge22_Node000018_Node000020"><a xlink:title=" ">
<path fill="none" stroke="#63b8ff" d="M1260.31,-55.59C1282.92,-46.94 1316.69,-34 1342.05,-24.29"/>
<polygon fill="#63b8ff" stroke="#63b8ff" points="1342.91,-27.32 1351,-20.48 1340.41,-20.79 1342.91,-27.32"/>
</a>
</g>
</g>
<!-- Node21 -->
<g id="Node000021" class="node">
<title>Node21</title>
<g id="a_Node000021"><a xlink:title=" ">
<polygon fill="#e0e0e0" stroke="#999999" points="1280.12,-20 1173.38,-20 1173.38,0 1280.12,0 1280.12,-20"/>
<text text-anchor="middle" x="1226.75" y="-6.5" font-family="Helvetica,sans-Serif" font-size="10.00">boost/asio/ip/tcp.hpp</text>
</a>
</g>
</g>
<!-- Node18&#45;&gt;Node21 -->
<g id="edge23_Node000018_Node000021" class="edge">
<title>Node18&#45;&gt;Node21</title>
<g id="a_edge23_Node000018_Node000021"><a xlink:title=" ">
<path fill="none" stroke="#63b8ff" d="M1234.18,-55.59C1233.05,-48.78 1231.47,-39.32 1230.06,-30.86"/>
<polygon fill="#63b8ff" stroke="#63b8ff" points="1233.4,-30.59 1228.3,-21.3 1226.49,-31.74 1233.4,-30.59"/>
</a>
</g>
</g>
<!-- Node18&#45;&gt;Node22 -->
<g id="edge24_Node000018_Node000022" class="edge">
<title>Node18&#45;&gt;Node22</title>
<g id="a_edge24_Node000018_Node000022"><a xlink:title=" ">
<path fill="none" stroke="#63b8ff" d="M1290.98,-55.53C1345.02,-46.27 1427.36,-32.15 1484.8,-22.31"/>
<polygon fill="#63b8ff" stroke="#63b8ff" points="1485.32,-25.6 1494.58,-20.46 1484.14,-18.7 1485.32,-25.6"/>
</a>
</g>
</g>
</g>
</svg>

<g id="navigator" transform="translate(0 0)" fill="#404254">
  <rect fill="#f2f5e9" fill-opacity="0.5" stroke="#606060" stroke-width=".5" x="0" y="0" width="60" height="60"/>
  <use id="zoomplus" xlink:href="#zoomPlus" x="17" y="9" onmousedown="handleZoom(evt,'in')"/>
  <use id="zoomminus" xlink:href="#zoomMin" x="42" y="9" onmousedown="handleZoom(evt,'out')"/>
  <use id="reset" xlink:href="#resetDef" x="30" y="36" onmousedown="handleReset()"/>
   <use id="arrowup" xlink:href="#arrowUp" x="0" y="0" onmousedown="handlePan(0,-1)"/>
  <use id="arrowright" xlink:href="#arrowRight" x="0" y="0" onmousedown="handlePan(1,0)"/>
  <use id="arrowdown" xlink:href="#arrowDown" x="0" y="0" onmousedown="handlePan(0,1)"/>
  <use id="arrowleft" xlink:href="#arrowLeft" x="0" y="0" onmousedown="handlePan(-1,0)"/>
</g>
<svg viewBox="0 0 15 15" width="100%" height="30px" preserveAspectRatio="xMaxYMin meet">
 <g id="arrow_out" transform="scale(0.3 0.3)">
  <a xlink:href="websocket__client_8hpp__incl_org.svg" target="_base">
   <rect id="button" ry="5" rx="5" y="6" x="6" height="38" width="38"
        fill="#f2f5e9" fill-opacity="0.5" stroke="#606060" stroke-width="1.0"/>
   <path id="arrow"
     d="M 11.500037,31.436501 C 11.940474,20.09759 22.043105,11.32322 32.158766,21.979434 L 37.068811,17.246167 C 37.068811,17.246167 37.088388,32 37.088388,32 L 22.160133,31.978069 C 22.160133,31.978069 26.997745,27.140456 26.997745,27.140456 C 18.528582,18.264221 13.291696,25.230495 11.500037,31.436501 z"
     style="fill:#404040;"/>
  </a>
 </g>
</svg>

<style type='text/css'>
<![CDATA[
[data-mouse-over-selected='false'] { opacity: 0.7; }
[data-mouse-over-selected='true']  { opacity: 1.0; }
]]>
</style>
<script type="application/ecmascript"><![CDATA[
document.addEventListener('DOMContentLoaded', (event) => {
  highlightEdges();
  highlightAdjacentNodes();
});
]]></script>
</svg>
