<?xml version="1.0" encoding="UTF-8" standalone="no"?>
<!DOCTYPE svg PUBLIC "-//W3C//DTD SVG 1.1//EN"
 "http://www.w3.org/Graphics/SVG/1.1/DTD/svg11.dtd">
<!-- Generated by graphviz version 2.44.1 (20211215.1903)
 -->
<!-- Title: src/roar/websocket/websocket_client.cpp Pages: 1 -->
<!--zoomable 252 -->
<svg id="main" version="1.1" xmlns="http://www.w3.org/2000/svg" xmlns:xlink="http://www.w3.org/1999/xlink" xml:space="preserve" onload="init(evt)">
<style type="text/css"><![CDATA[
.edge:hover path { stroke: red; }
.edge:hover polygon { stroke: red; fill: red; }
]]></style>
<script type="text/javascript"><![CDATA[
var edges = document.getElementsByTagName('g');
if (edges && edges.length) {
  for (var i=0;i<edges.length;i++) {
    if (edges[i].id.substr(0,4)=='edge') {
      edges[i].setAttribute('class','edge');
    }
  }
}
]]></script>
        <defs>
                <circle id="rim" cx="0" cy="0" r="7"/>
                <circle id="rim2" cx="0" cy="0" r="3.5"/>
                <g id="zoomPlus">
                        <use xlink:href="#rim" fill="#404040">
                                <set attributeName="fill" to="#808080" begin="zoomplus.mouseover" end="zoomplus.mouseout"/>
                        </use>
                        <path d="M-4,0h8M0,-4v8" fill="none" stroke="white" stroke-width="1.5" pointer-events="none"/>
                </g>
                <g id="zoomMin">
                        <use xlink:href="#rim" fill="#404040">
                                <set attributeName="fill" to="#808080" begin="zoomminus.mouseover" end="zoomminus.mouseout"/>
                        </use>
                        <path d="M-4,0h8" fill="none" stroke="white" stroke-width="1.5" pointer-events="none"/>
                </g>
                <g id="dirArrow">
                        <path fill="none" stroke="white" stroke-width="1.5" d="M0,-3.0v7 M-2.5,-0.5L0,-3.0L2.5,-0.5"/>
                </g>
               <g id="resetDef">
                       <use xlink:href="#rim2" fill="#404040">
                               <set attributeName="fill" to="#808080" begin="reset.mouseover" end="reset.mouseout"/>
                       </use>
               </g>
        </defs>

<script type="text/javascript">
var viewWidth = 2191;
var viewHeight = 252;
var sectionId = 'dynsection-0';
</script>
<script xlink:href="svgpan.js"/>
<svg id="graph" class="graph">
<g id="viewport">
<title>src/roar/websocket/websocket_client.cpp</title>
<!-- Node1 -->
<g id="node1" class="node">
<title>Node1</title>
<g id="a_node1"><a xlink:title=" ">
<polygon fill="#bfbfbf" stroke="black" points="1533,-224.5 1533,-243.5 1730,-243.5 1730,-224.5 1533,-224.5"/>
<text text-anchor="middle" x="1631.5" y="-231.5" font-family="Helvetica,sans-Serif" font-size="10.00">src/roar/websocket/websocket_client.cpp</text>
</a>
</g>
</g>
<!-- Node2 -->
<g id="node2" class="node">
<title>Node2</title>
<g id="a_node2"><a xlink:title=" ">
<polygon fill="none" stroke="#bfbfbf" points="397.5,-168.5 397.5,-187.5 565.5,-187.5 565.5,-168.5 397.5,-168.5"/>
<text text-anchor="middle" x="481.5" y="-175.5" font-family="Helvetica,sans-Serif" font-size="10.00">boost/beast/core/stream_traits.hpp</text>
</a>
</g>
</g>
<!-- Node1&#45;&gt;Node2 -->
<g id="edge1" class="edge">
<title>Node1&#45;&gt;Node2</title>
<path fill="none" stroke="midnightblue" d="M1532.77,-230.53C1347.52,-225.53 934.96,-212.56 575.61,-187.96"/>
<polygon fill="midnightblue" stroke="midnightblue" points="575.75,-184.46 565.53,-187.27 575.26,-191.45 575.75,-184.46"/>
</g>
<!-- Node3 -->
<g id="node3" class="node">
<title>Node3</title>
<g id="a_node3"><a xlink:href="websocket__client_8hpp.html" target="_top" xlink:title=" ">
<polygon fill="none" stroke="black" points="584,-168.5 584,-187.5 765,-187.5 765,-168.5 584,-168.5"/>
<text text-anchor="middle" x="674.5" y="-175.5" font-family="Helvetica,sans-Serif" font-size="10.00">roar/websocket/websocket_client.hpp</text>
</a>
</g>
</g>
<!-- Node1&#45;&gt;Node3 -->
<g id="edge2" class="edge">
<title>Node1&#45;&gt;Node3</title>
<path fill="none" stroke="midnightblue" d="M1532.69,-227.42C1349.66,-217.1 959.78,-195.1 775.28,-184.69"/>
<polygon fill="midnightblue" stroke="midnightblue" points="775.22,-181.18 765.04,-184.11 774.83,-188.17 775.22,-181.18"/>
</g>
<!-- Node26 -->
<g id="node26" class="node">
<title>Node26</title>
<g id="a_node26"><a xlink:title=" ">
<polygon fill="none" stroke="#bfbfbf" points="1218,-56.5 1218,-75.5 1355,-75.5 1355,-56.5 1218,-56.5"/>
<text text-anchor="middle" x="1286.5" y="-63.5" font-family="Helvetica,sans-Serif" font-size="10.00">boost/beast/websocket.hpp</text>
</a>
</g>
</g>
<!-- Node1&#45;&gt;Node26 -->
<g id="edge51" class="edge">
<title>Node1&#45;&gt;Node26</title>
<path fill="none" stroke="midnightblue" d="M1603.46,-224.43C1577.59,-216.18 1538.32,-202.81 1505.5,-188 1431.22,-154.48 1348.2,-105.11 1309.14,-81.12"/>
<polygon fill="midnightblue" stroke="midnightblue" points="1310.54,-77.87 1300.19,-75.59 1306.86,-83.82 1310.54,-77.87"/>
</g>
<!-- Node27 -->
<g id="node27" class="node">
<title>Node27</title>
<g id="a_node27"><a xlink:title=" ">
<polygon fill="none" stroke="#bfbfbf" points="1373.5,-56.5 1373.5,-75.5 1525.5,-75.5 1525.5,-56.5 1373.5,-56.5"/>
<text text-anchor="middle" x="1449.5" y="-63.5" font-family="Helvetica,sans-Serif" font-size="10.00">boost/beast/websocket/ssl.hpp</text>
</a>
</g>
</g>
<!-- Node1&#45;&gt;Node27 -->
<g id="edge52" class="edge">
<title>Node1&#45;&gt;Node27</title>
<path fill="none" stroke="midnightblue" d="M1601.2,-224.47C1579.74,-217.32 1551.2,-205.44 1530.5,-188 1495.66,-158.66 1469.74,-110.68 1457.44,-84.83"/>
<polygon fill="midnightblue" stroke="midnightblue" points="1460.51,-83.13 1453.14,-75.52 1454.15,-86.06 1460.51,-83.13"/>
</g>
<!-- Node32 -->
<g id="node32" class="node">
<title>Node32</title>
<g id="a_node32"><a xlink:href="resolve_8hpp.html" target="_top" xlink:title=" ">
<polygon fill="none" stroke="black" points="1539,-168.5 1539,-187.5 1644,-187.5 1644,-168.5 1539,-168.5"/>
<text text-anchor="middle" x="1591.5" y="-175.5" font-family="Helvetica,sans-Serif" font-size="10.00">roar/dns/resolve.hpp</text>
</a>
</g>
</g>
<!-- Node1&#45;&gt;Node32 -->
<g id="edge41" class="edge">
<title>Node1&#45;&gt;Node32</title>
<path fill="none" stroke="midnightblue" d="M1624.89,-224.08C1619.24,-216.46 1610.96,-205.26 1604.05,-195.94"/>
<polygon fill="midnightblue" stroke="midnightblue" points="1606.75,-193.7 1597.98,-187.75 1601.12,-197.87 1606.75,-193.7"/>
</g>
<!-- Node34 -->
<g id="node34" class="node">
<title>Node34</title>
<g id="a_node34"><a xlink:title=" ">
<polygon fill="none" stroke="#bfbfbf" points="1918,-112.5 1918,-131.5 1977,-131.5 1977,-112.5 1918,-112.5"/>
<text text-anchor="middle" x="1947.5" y="-119.5" font-family="Helvetica,sans-Serif" font-size="10.00">stdexcept</text>
</a>
</g>
</g>
<!-- Node1&#45;&gt;Node34 -->
<g id="edge54" class="edge">
<title>Node1&#45;&gt;Node34</title>
<path fill="none" stroke="midnightblue" d="M1636.99,-224.12C1646.42,-209.74 1667.12,-181.58 1692.5,-168 1775.55,-123.58 1810.75,-149.17 1907.82,-131.94"/>
<polygon fill="midnightblue" stroke="midnightblue" points="1908.55,-135.36 1917.73,-130.07 1907.25,-128.48 1908.55,-135.36"/>
</g>
<!-- Node37 -->
<g id="node37" class="node">
<title>Node37</title>
<g id="a_node37"><a xlink:title=" ">
<polygon fill="none" stroke="#bfbfbf" points="1701,-168.5 1701,-187.5 1808,-187.5 1808,-168.5 1701,-168.5"/>
<text text-anchor="middle" x="1754.5" y="-175.5" font-family="Helvetica,sans-Serif" font-size="10.00">boost/asio/buffer.hpp</text>
</a>
</g>
</g>
<!-- Node1&#45;&gt;Node37 -->
<g id="edge48" class="edge">
<title>Node1&#45;&gt;Node37</title>
<path fill="none" stroke="midnightblue" d="M1650.99,-224.44C1671.14,-215.6 1702.82,-201.69 1725.83,-191.59"/>
<polygon fill="midnightblue" stroke="midnightblue" points="1727.35,-194.74 1735.1,-187.52 1724.54,-188.33 1727.35,-194.74"/>
</g>
<!-- Node38 -->
<g id="node38" class="node">
<title>Node38</title>
<g id="a_node38"><a xlink:title=" ">
<polygon fill="none" stroke="#bfbfbf" points="1826.5,-168.5 1826.5,-187.5 1934.5,-187.5 1934.5,-168.5 1826.5,-168.5"/>
<text text-anchor="middle" x="1880.5" y="-175.5" font-family="Helvetica,sans-Serif" font-size="10.00">boost/beast/core.hpp</text>
</a>
</g>
</g>
<!-- Node1&#45;&gt;Node38 -->
<g id="edge49" class="edge">
<title>Node1&#45;&gt;Node38</title>
<path fill="none" stroke="midnightblue" d="M1670.95,-224.44C1714.39,-215.02 1784.29,-199.87 1831.28,-189.68"/>
<polygon fill="midnightblue" stroke="midnightblue" points="1832.2,-193.06 1841.23,-187.52 1830.72,-186.22 1832.2,-193.06"/>
</g>
<!-- Node39 -->
<g id="node39" class="node">
<title>Node39</title>
<g id="a_node39"><a xlink:title=" ">
<polygon fill="none" stroke="#bfbfbf" points="1952.5,-168.5 1952.5,-187.5 2054.5,-187.5 2054.5,-168.5 1952.5,-168.5"/>
<text text-anchor="middle" x="2003.5" y="-175.5" font-family="Helvetica,sans-Serif" font-size="10.00">boost/beast/ssl.hpp</text>
</a>
</g>
</g>
<!-- Node1&#45;&gt;Node39 -->
<g id="edge50" class="edge">
<title>Node1&#45;&gt;Node39</title>
<path fill="none" stroke="midnightblue" d="M1691.33,-224.47C1752,-215.8 1848.88,-201.89 1942.51,-188.14"/>
<polygon fill="midnightblue" stroke="midnightblue" points="1943.06,-191.6 1952.44,-186.68 1942.04,-184.67 1943.06,-191.6"/>
</g>
<!-- Node40 -->
<g id="node40" class="node">
<title>Node40</title>
<g id="a_node40"><a xlink:title=" ">
<polygon fill="none" stroke="#bfbfbf" points="2072.5,-168.5 2072.5,-187.5 2182.5,-187.5 2182.5,-168.5 2072.5,-168.5"/>
<text text-anchor="middle" x="2127.5" y="-175.5" font-family="Helvetica,sans-Serif" font-size="10.00">boost/asio/strand.hpp</text>
</a>
</g>
</g>
<!-- Node1&#45;&gt;Node40 -->
<g id="edge53" class="edge">
<title>Node1&#45;&gt;Node40</title>
<path fill="none" stroke="midnightblue" d="M1722.63,-224.47C1807.82,-216.27 1938.86,-203.1 2062.34,-188.1"/>
<polygon fill="midnightblue" stroke="midnightblue" points="2062.86,-191.57 2072.36,-186.88 2062.01,-184.62 2062.86,-191.57"/>
</g>
<!-- Node4 -->
<g id="node4" class="node">
<title>Node4</title>
<g id="a_node4"><a xlink:href="promise__compat_8hpp.html" target="_top" xlink:title=" ">
<polygon fill="none" stroke="black" points="497,-56.5 497,-75.5 650,-75.5 650,-56.5 497,-56.5"/>
<text text-anchor="middle" x="573.5" y="-63.5" font-family="Helvetica,sans-Serif" font-size="10.00">roar/detail/promise_compat.hpp</text>
</a>
</g>
</g>
<!-- Node3&#45;&gt;Node4 -->
<g id="edge3" class="edge">
<title>Node3&#45;&gt;Node4</title>
<path fill="none" stroke="midnightblue" d="M583.96,-168.49C561.71,-161.85 540.33,-150.66 526.5,-132 513.74,-114.79 533.29,-94.79 550.92,-81.57"/>
<polygon fill="midnightblue" stroke="midnightblue" points="553.13,-84.3 559.27,-75.67 549.09,-78.58 553.13,-84.3"/>
</g>
<!-- Node6 -->
<g id="node6" class="node">
<title>Node6</title>
<g id="a_node6"><a xlink:title=" ">
<polygon fill="none" stroke="#bfbfbf" points="315.5,-0.5 315.5,-19.5 441.5,-19.5 441.5,-0.5 315.5,-0.5"/>
<text text-anchor="middle" x="378.5" y="-7.5" font-family="Helvetica,sans-Serif" font-size="10.00">promise&#45;cpp/promise.hpp</text>
</a>
</g>
</g>
<!-- Node3&#45;&gt;Node6 -->
<g id="edge36" class="edge">
<title>Node3&#45;&gt;Node6</title>
<path fill="none" stroke="midnightblue" d="M604.8,-168.48C570.48,-162.09 529.5,-151.02 496.5,-132 449.65,-105 409.11,-54.18 390.07,-27.82"/>
<polygon fill="midnightblue" stroke="midnightblue" points="392.88,-25.74 384.25,-19.59 387.17,-29.78 392.88,-25.74"/>
</g>
<!-- Node7 -->
<g id="node7" class="node">
<title>Node7</title>
<g id="a_node7"><a xlink:href="pimpl__special__functions_8hpp.html" target="_top" xlink:title=" ">
<polygon fill="none" stroke="black" points="0,-112.5 0,-131.5 185,-131.5 185,-112.5 0,-112.5"/>
<text text-anchor="middle" x="92.5" y="-119.5" font-family="Helvetica,sans-Serif" font-size="10.00">roar/detail/pimpl_special_functions.hpp</text>
</a>
</g>
</g>
<!-- Node3&#45;&gt;Node7 -->
<g id="edge6" class="edge">
<title>Node3&#45;&gt;Node7</title>
<path fill="none" stroke="midnightblue" d="M583.88,-168.59C478.39,-158.8 304.59,-142.68 194.47,-132.46"/>
<polygon fill="midnightblue" stroke="midnightblue" points="194.63,-128.96 184.35,-131.52 193.98,-135.93 194.63,-128.96"/>
</g>
<!-- Node8 -->
<g id="node8" class="node">
<title>Node8</title>
<g id="a_node8"><a xlink:href="shared__from__base_8hpp.html" target="_top" xlink:title=" ">
<polygon fill="none" stroke="black" points="203,-112.5 203,-131.5 364,-131.5 364,-112.5 203,-112.5"/>
<text text-anchor="middle" x="283.5" y="-119.5" font-family="Helvetica,sans-Serif" font-size="10.00">roar/detail/shared_from_base.hpp</text>
</a>
</g>
</g>
<!-- Node3&#45;&gt;Node8 -->
<g id="edge7" class="edge">
<title>Node3&#45;&gt;Node8</title>
<path fill="none" stroke="midnightblue" d="M612.54,-168.44C542.62,-158.79 429.03,-143.1 355.3,-132.92"/>
<polygon fill="midnightblue" stroke="midnightblue" points="355.55,-129.42 345.17,-131.52 354.59,-136.35 355.55,-129.42"/>
</g>
<!-- Node9 -->
<g id="node9" class="node">
<title>Node9</title>
<g id="a_node9"><a xlink:title=" ">
<polygon fill="none" stroke="#bfbfbf" points="304.5,-56.5 304.5,-75.5 356.5,-75.5 356.5,-56.5 304.5,-56.5"/>
<text text-anchor="middle" x="330.5" y="-63.5" font-family="Helvetica,sans-Serif" font-size="10.00">memory</text>
</a>
</g>
</g>
<!-- Node3&#45;&gt;Node9 -->
<g id="edge37" class="edge">
<title>Node3&#45;&gt;Node9</title>
<path fill="none" stroke="midnightblue" d="M603.89,-168.48C539.43,-160.01 449.34,-146.27 416.5,-132 389.31,-120.19 362.85,-98.11 346.62,-82.99"/>
<polygon fill="midnightblue" stroke="midnightblue" points="348.76,-80.19 339.11,-75.81 343.92,-85.25 348.76,-80.19"/>
</g>
<!-- Node10 -->
<g id="node10" class="node">
<title>Node10</title>
<g id="a_node10"><a xlink:href="websocket__base_8hpp.html" target="_top" xlink:title=" ">
<polygon fill="none" stroke="black" points="995,-112.5 995,-131.5 1174,-131.5 1174,-112.5 995,-112.5"/>
<text text-anchor="middle" x="1084.5" y="-119.5" font-family="Helvetica,sans-Serif" font-size="10.00">roar/websocket/websocket_base.hpp</text>
</a>
</g>
</g>
<!-- Node3&#45;&gt;Node10 -->
<g id="edge9" class="edge">
<title>Node3&#45;&gt;Node10</title>
<path fill="none" stroke="midnightblue" d="M739.47,-168.44C812.94,-158.77 932.38,-143.04 1009.69,-132.85"/>
<polygon fill="midnightblue" stroke="midnightblue" points="1010.38,-136.29 1019.84,-131.52 1009.47,-129.35 1010.38,-136.29"/>
</g>
<!-- Node17 -->
<g id="node17" class="node">
<title>Node17</title>
<g id="a_node17"><a xlink:title=" ">
<polygon fill="none" stroke="#bfbfbf" points="459.5,-0.5 459.5,-19.5 509.5,-19.5 509.5,-0.5 459.5,-0.5"/>
<text text-anchor="middle" x="484.5" y="-7.5" font-family="Helvetica,sans-Serif" font-size="10.00">optional</text>
</a>
</g>
</g>
<!-- Node3&#45;&gt;Node17 -->
<g id="edge38" class="edge">
<title>Node3&#45;&gt;Node17</title>
<path fill="none" stroke="midnightblue" d="M600.31,-168.46C571.96,-162.13 540.87,-151.13 517.5,-132 487.13,-107.14 483.17,-57.3 483.48,-29.98"/>
<polygon fill="midnightblue" stroke="midnightblue" points="486.99,-29.9 483.81,-19.79 479.99,-29.67 486.99,-29.9"/>
</g>
<!-- Node24 -->
<g id="node24" class="node">
<title>Node24</title>
<g id="a_node24"><a xlink:title=" ">
<polygon fill="none" stroke="#bfbfbf" points="1572,-0.5 1572,-19.5 1727,-19.5 1727,-0.5 1572,-0.5"/>
<text text-anchor="middle" x="1649.5" y="-7.5" font-family="Helvetica,sans-Serif" font-size="10.00">boost/asio/any_io_executor.hpp</text>
</a>
</g>
</g>
<!-- Node3&#45;&gt;Node24 -->
<g id="edge33" class="edge">
<title>Node3&#45;&gt;Node24</title>
<path fill="none" stroke="midnightblue" d="M765.06,-171.61C1014.35,-156.33 1694.41,-111.57 1726.5,-76 1744.92,-55.58 1711.67,-35.72 1683.27,-23.44"/>
<polygon fill="midnightblue" stroke="midnightblue" points="1684.49,-20.16 1673.91,-19.58 1681.82,-26.63 1684.49,-20.16"/>
</g>
<!-- Node28 -->
<g id="node28" class="node">
<title>Node28</title>
<g id="a_node28"><a xlink:title=" ">
<polygon fill="none" stroke="#bfbfbf" points="535,-112.5 535,-131.5 666,-131.5 666,-112.5 535,-112.5"/>
<text text-anchor="middle" x="600.5" y="-119.5" font-family="Helvetica,sans-Serif" font-size="10.00">boost/asio/ssl/context.hpp</text>
</a>
</g>
</g>
<!-- Node3&#45;&gt;Node28 -->
<g id="edge34" class="edge">
<title>Node3&#45;&gt;Node28</title>
<path fill="none" stroke="midnightblue" d="M662.61,-168.32C651.35,-160.11 634.21,-147.6 620.79,-137.81"/>
<polygon fill="midnightblue" stroke="midnightblue" points="622.75,-134.9 612.61,-131.83 618.62,-140.56 622.75,-134.9"/>
</g>
<!-- Node29 -->
<g id="node29" class="node">
<title>Node29</title>
<g id="a_node29"><a xlink:title=" ">
<polygon fill="none" stroke="#bfbfbf" points="684,-112.5 684,-131.5 811,-131.5 811,-112.5 684,-112.5"/>
<text text-anchor="middle" x="747.5" y="-119.5" font-family="Helvetica,sans-Serif" font-size="10.00">boost/beast/http/field.hpp</text>
</a>
</g>
</g>
<!-- Node3&#45;&gt;Node29 -->
<g id="edge35" class="edge">
<title>Node3&#45;&gt;Node29</title>
<path fill="none" stroke="midnightblue" d="M686.23,-168.32C697.34,-160.11 714.24,-147.6 727.48,-137.81"/>
<polygon fill="midnightblue" stroke="midnightblue" points="729.6,-140.59 735.56,-131.83 725.44,-134.97 729.6,-140.59"/>
</g>
<!-- Node30 -->
<g id="node30" class="node">
<title>Node30</title>
<g id="a_node30"><a xlink:title=" ">
<polygon fill="none" stroke="#bfbfbf" points="829.5,-112.5 829.5,-131.5 875.5,-131.5 875.5,-112.5 829.5,-112.5"/>
<text text-anchor="middle" x="852.5" y="-119.5" font-family="Helvetica,sans-Serif" font-size="10.00">chrono</text>
</a>
</g>
</g>
<!-- Node3&#45;&gt;Node30 -->
<g id="edge39" class="edge">
<title>Node3&#45;&gt;Node30</title>
<path fill="none" stroke="midnightblue" d="M702.7,-168.44C734.42,-158.82 785.87,-143.21 819.44,-133.03"/>
<polygon fill="midnightblue" stroke="midnightblue" points="820.7,-136.31 829.25,-130.05 818.66,-129.61 820.7,-136.31"/>
</g>
<!-- Node31 -->
<g id="node31" class="node">
<title>Node31</title>
<g id="a_node31"><a xlink:title=" ">
<polygon fill="none" stroke="#bfbfbf" points="894,-112.5 894,-131.5 977,-131.5 977,-112.5 894,-112.5"/>
<text text-anchor="middle" x="935.5" y="-119.5" font-family="Helvetica,sans-Serif" font-size="10.00">unordered_map</text>
</a>
</g>
</g>
<!-- Node3&#45;&gt;Node31 -->
<g id="edge40" class="edge">
<title>Node3&#45;&gt;Node31</title>
<path fill="none" stroke="midnightblue" d="M715.86,-168.44C761.58,-158.98 835.26,-143.74 884.52,-133.55"/>
<polygon fill="midnightblue" stroke="midnightblue" points="885.25,-136.97 894.34,-131.52 883.84,-130.12 885.25,-136.97"/>
</g>
<!-- Node5 -->
<g id="node5" class="node">
<title>Node5</title>
<g id="a_node5"><a xlink:title=" ">
<polygon fill="none" stroke="#bfbfbf" points="528,-0.5 528,-19.5 587,-19.5 587,-0.5 528,-0.5"/>
<text text-anchor="middle" x="557.5" y="-7.5" font-family="Helvetica,sans-Serif" font-size="10.00">functional</text>
</a>
</g>
</g>
<!-- Node4&#45;&gt;Node5 -->
<g id="edge4" class="edge">
<title>Node4&#45;&gt;Node5</title>
<path fill="none" stroke="midnightblue" d="M570.86,-56.08C568.71,-48.85 565.62,-38.41 562.95,-29.4"/>
<polygon fill="midnightblue" stroke="midnightblue" points="566.29,-28.34 560.09,-19.75 559.58,-30.33 566.29,-28.34"/>
</g>
<!-- Node4&#45;&gt;Node6 -->
<g id="edge5" class="edge">
<title>Node4&#45;&gt;Node6</title>
<path fill="none" stroke="midnightblue" d="M542.6,-56.44C509.23,-47.2 455.91,-32.44 419.15,-22.26"/>
<polygon fill="midnightblue" stroke="midnightblue" points="419.83,-18.81 409.25,-19.52 417.96,-25.56 419.83,-18.81"/>
</g>
<!-- Node8&#45;&gt;Node9 -->
<g id="edge8" class="edge">
<title>Node8&#45;&gt;Node9</title>
<path fill="none" stroke="midnightblue" d="M291.26,-112.08C298.04,-104.3 308.04,-92.8 316.26,-83.37"/>
<polygon fill="midnightblue" stroke="midnightblue" points="318.96,-85.59 322.88,-75.75 313.68,-81 318.96,-85.59"/>
</g>
<!-- Node10&#45;&gt;Node4 -->
<g id="edge21" class="edge">
<title>Node10&#45;&gt;Node4</title>
<path fill="none" stroke="midnightblue" d="M1003.81,-112.47C910.1,-102.57 756.11,-86.3 659.99,-76.14"/>
<polygon fill="midnightblue" stroke="midnightblue" points="660.32,-72.66 650.01,-75.08 659.58,-79.62 660.32,-72.66"/>
</g>
<!-- Node10&#45;&gt;Node6 -->
<g id="edge27" class="edge">
<title>Node10&#45;&gt;Node6</title>
<path fill="none" stroke="midnightblue" d="M996.28,-112.47C890.91,-102.01 725.33,-84.61 697.5,-76 679.27,-70.36 677.61,-62.03 659.5,-56 639.82,-49.44 525,-32.12 448.36,-20.98"/>
<polygon fill="midnightblue" stroke="midnightblue" points="448.68,-17.49 438.28,-19.52 447.68,-24.42 448.68,-17.49"/>
</g>
<!-- Node11 -->
<g id="node11" class="node">
<title>Node11</title>
<g id="a_node11"><a xlink:href="read__result_8hpp.html" target="_top" xlink:title=" ">
<polygon fill="none" stroke="black" points="1008,-56.5 1008,-75.5 1161,-75.5 1161,-56.5 1008,-56.5"/>
<text text-anchor="middle" x="1084.5" y="-63.5" font-family="Helvetica,sans-Serif" font-size="10.00">roar/websocket/read_result.hpp</text>
</a>
</g>
</g>
<!-- Node10&#45;&gt;Node11 -->
<g id="edge10" class="edge">
<title>Node10&#45;&gt;Node11</title>
<path fill="none" stroke="midnightblue" d="M1084.5,-112.08C1084.5,-105.01 1084.5,-94.86 1084.5,-85.99"/>
<polygon fill="midnightblue" stroke="midnightblue" points="1088,-85.75 1084.5,-75.75 1081,-85.75 1088,-85.75"/>
</g>
<!-- Node13 -->
<g id="node13" class="node">
<title>Node13</title>
<g id="a_node13"><a xlink:href="error_8hpp.html" target="_top" xlink:title=" ">
<polygon fill="none" stroke="black" points="706.5,-56.5 706.5,-75.5 780.5,-75.5 780.5,-56.5 706.5,-56.5"/>
<text text-anchor="middle" x="743.5" y="-63.5" font-family="Helvetica,sans-Serif" font-size="10.00">roar/error.hpp</text>
</a>
</g>
</g>
<!-- Node10&#45;&gt;Node13 -->
<g id="edge12" class="edge">
<title>Node10&#45;&gt;Node13</title>
<path fill="none" stroke="midnightblue" d="M1027.22,-112.47C968.68,-103.67 875.17,-89.38 794.5,-76 793.23,-75.79 791.94,-75.57 790.64,-75.35"/>
<polygon fill="midnightblue" stroke="midnightblue" points="790.98,-71.86 780.53,-73.63 789.8,-78.76 790.98,-71.86"/>
</g>
<!-- Node16 -->
<g id="node16" class="node">
<title>Node16</title>
<g id="a_node16"><a xlink:title=" ">
<polygon fill="none" stroke="#bfbfbf" points="1064.5,-0.5 1064.5,-19.5 1110.5,-19.5 1110.5,-0.5 1064.5,-0.5"/>
<text text-anchor="middle" x="1087.5" y="-7.5" font-family="Helvetica,sans-Serif" font-size="10.00">variant</text>
</a>
</g>
</g>
<!-- Node10&#45;&gt;Node16 -->
<g id="edge32" class="edge">
<title>Node10&#45;&gt;Node16</title>
<path fill="none" stroke="midnightblue" d="M1007.39,-112.47C936.3,-103.81 840.05,-89.76 828.5,-76 822.78,-69.19 822.73,-62.76 828.5,-56 859.92,-19.21 990.74,-29.63 1054.21,-19.75"/>
<polygon fill="midnightblue" stroke="midnightblue" points="1054.97,-23.17 1064.16,-17.9 1053.69,-16.29 1054.97,-23.17"/>
</g>
<!-- Node20 -->
<g id="node20" class="node">
<title>Node20</title>
<g id="a_node20"><a xlink:href="stream__type_8hpp.html" target="_top" xlink:title=" ">
<polygon fill="none" stroke="black" points="1582,-56.5 1582,-75.5 1717,-75.5 1717,-56.5 1582,-56.5"/>
<text text-anchor="middle" x="1649.5" y="-63.5" font-family="Helvetica,sans-Serif" font-size="10.00">roar/detail/stream_type.hpp</text>
</a>
</g>
</g>
<!-- Node10&#45;&gt;Node20 -->
<g id="edge22" class="edge">
<title>Node10&#45;&gt;Node20</title>
<path fill="none" stroke="midnightblue" d="M1173.71,-112.47C1283.26,-102 1467.29,-84.41 1571.46,-74.46"/>
<polygon fill="midnightblue" stroke="midnightblue" points="1571.97,-77.93 1581.59,-73.49 1571.3,-70.96 1571.97,-77.93"/>
</g>
<!-- Node21 -->
<g id="node21" class="node">
<title>Node21</title>
<g id="a_node21"><a xlink:title=" ">
<polygon fill="none" stroke="#bfbfbf" points="1211.5,-0.5 1211.5,-19.5 1371.5,-19.5 1371.5,-0.5 1211.5,-0.5"/>
<text text-anchor="middle" x="1291.5" y="-7.5" font-family="Helvetica,sans-Serif" font-size="10.00">boost/beast/core/tcp_stream.hpp</text>
</a>
</g>
</g>
<!-- Node10&#45;&gt;Node21 -->
<g id="edge29" class="edge">
<title>Node10&#45;&gt;Node21</title>
<path fill="none" stroke="midnightblue" d="M1101.01,-112.43C1118.35,-103.41 1146.38,-88.79 1170.5,-76 1203.79,-58.35 1242.09,-37.72 1266.53,-24.52"/>
<polygon fill="midnightblue" stroke="midnightblue" points="1268.35,-27.51 1275.48,-19.68 1265.02,-21.35 1268.35,-27.51"/>
</g>
<!-- Node25 -->
<g id="node25" class="node">
<title>Node25</title>
<g id="a_node25"><a xlink:title=" ">
<polygon fill="none" stroke="#bfbfbf" points="837,-56.5 837,-75.5 990,-75.5 990,-56.5 837,-56.5"/>
<text text-anchor="middle" x="913.5" y="-63.5" font-family="Helvetica,sans-Serif" font-size="10.00">boost/beast/ssl/ssl_stream.hpp</text>
</a>
</g>
</g>
<!-- Node10&#45;&gt;Node25 -->
<g id="edge28" class="edge">
<title>Node10&#45;&gt;Node25</title>
<path fill="none" stroke="midnightblue" d="M1057.4,-112.44C1028.51,-103.32 982.58,-88.81 950.39,-78.65"/>
<polygon fill="midnightblue" stroke="midnightblue" points="951.06,-75.19 940.47,-75.52 948.95,-81.87 951.06,-75.19"/>
</g>
<!-- Node10&#45;&gt;Node26 -->
<g id="edge30" class="edge">
<title>Node10&#45;&gt;Node26</title>
<path fill="none" stroke="midnightblue" d="M1116.51,-112.44C1151.23,-103.16 1206.79,-88.31 1244.88,-78.13"/>
<polygon fill="midnightblue" stroke="midnightblue" points="1245.89,-81.48 1254.64,-75.52 1244.08,-74.72 1245.89,-81.48"/>
</g>
<!-- Node10&#45;&gt;Node27 -->
<g id="edge31" class="edge">
<title>Node10&#45;&gt;Node27</title>
<path fill="none" stroke="midnightblue" d="M1142.34,-112.44C1207.34,-102.83 1312.78,-87.23 1381.63,-77.04"/>
<polygon fill="midnightblue" stroke="midnightblue" points="1382.56,-80.44 1391.94,-75.52 1381.53,-73.52 1382.56,-80.44"/>
</g>
<!-- Node12 -->
<g id="node12" class="node">
<title>Node12</title>
<g id="a_node12"><a xlink:title=" ">
<polygon fill="none" stroke="#bfbfbf" points="1129,-0.5 1129,-19.5 1170,-19.5 1170,-0.5 1129,-0.5"/>
<text text-anchor="middle" x="1149.5" y="-7.5" font-family="Helvetica,sans-Serif" font-size="10.00">string</text>
</a>
</g>
</g>
<!-- Node11&#45;&gt;Node12 -->
<g id="edge11" class="edge">
<title>Node11&#45;&gt;Node12</title>
<path fill="none" stroke="midnightblue" d="M1094.94,-56.32C1104.65,-48.26 1119.32,-36.08 1131,-26.37"/>
<polygon fill="midnightblue" stroke="midnightblue" points="1133.41,-28.92 1138.87,-19.83 1128.94,-23.53 1133.41,-28.92"/>
</g>
<!-- Node13&#45;&gt;Node5 -->
<g id="edge18" class="edge">
<title>Node13&#45;&gt;Node5</title>
<path fill="none" stroke="midnightblue" d="M714.03,-56.44C682.33,-47.24 631.77,-32.56 596.73,-22.39"/>
<polygon fill="midnightblue" stroke="midnightblue" points="597.41,-18.94 586.83,-19.52 595.46,-25.67 597.41,-18.94"/>
</g>
<!-- Node13&#45;&gt;Node12 -->
<g id="edge15" class="edge">
<title>Node13&#45;&gt;Node12</title>
<path fill="none" stroke="midnightblue" d="M780.65,-60.92C863.49,-51.78 1060.08,-29.8 1119.07,-19.55"/>
<polygon fill="midnightblue" stroke="midnightblue" points="1119.8,-22.98 1128.96,-17.67 1118.48,-16.1 1119.8,-22.98"/>
</g>
<!-- Node14 -->
<g id="node14" class="node">
<title>Node14</title>
<g id="a_node14"><a xlink:href="forward_8hpp.html" target="_top" xlink:title=" ">
<polygon fill="none" stroke="black" points="932.5,-0.5 932.5,-19.5 1046.5,-19.5 1046.5,-0.5 932.5,-0.5"/>
<text text-anchor="middle" x="989.5" y="-7.5" font-family="Helvetica,sans-Serif" font-size="10.00">roar/beast/forward.hpp</text>
</a>
</g>
</g>
<!-- Node13&#45;&gt;Node14 -->
<g id="edge13" class="edge">
<title>Node13&#45;&gt;Node14</title>
<path fill="none" stroke="midnightblue" d="M780.6,-56.86C823.24,-47.5 893.39,-32.1 940.5,-21.76"/>
<polygon fill="midnightblue" stroke="midnightblue" points="941.46,-25.13 950.47,-19.57 939.96,-18.29 941.46,-25.13"/>
</g>
<!-- Node15 -->
<g id="node15" class="node">
<title>Node15</title>
<g id="a_node15"><a xlink:title=" ">
<polygon fill="none" stroke="#bfbfbf" points="605,-0.5 605,-19.5 760,-19.5 760,-0.5 605,-0.5"/>
<text text-anchor="middle" x="682.5" y="-7.5" font-family="Helvetica,sans-Serif" font-size="10.00">boost/system/system_error.hpp</text>
</a>
</g>
</g>
<!-- Node13&#45;&gt;Node15 -->
<g id="edge14" class="edge">
<title>Node13&#45;&gt;Node15</title>
<path fill="none" stroke="midnightblue" d="M733.7,-56.32C724.68,-48.34 711.09,-36.31 700.18,-26.65"/>
<polygon fill="midnightblue" stroke="midnightblue" points="702.29,-23.84 692.48,-19.83 697.65,-29.08 702.29,-23.84"/>
</g>
<!-- Node13&#45;&gt;Node16 -->
<g id="edge16" class="edge">
<title>Node13&#45;&gt;Node16</title>
<path fill="none" stroke="midnightblue" d="M780.52,-58.3C785.22,-57.5 789.97,-56.71 794.5,-56 907.02,-38.32 939.13,-43.59 1054.26,-20.02"/>
<polygon fill="midnightblue" stroke="midnightblue" points="1055.09,-23.42 1064.17,-17.96 1053.67,-16.57 1055.09,-23.42"/>
</g>
<!-- Node13&#45;&gt;Node17 -->
<g id="edge17" class="edge">
<title>Node13&#45;&gt;Node17</title>
<path fill="none" stroke="midnightblue" d="M706.11,-58.12C661.54,-49.78 584.85,-34.95 519.5,-20 519.4,-19.98 519.3,-19.95 519.2,-19.93"/>
<polygon fill="midnightblue" stroke="midnightblue" points="520.24,-16.58 509.7,-17.65 518.6,-23.39 520.24,-16.58"/>
</g>
<!-- Node18 -->
<g id="node18" class="node">
<title>Node18</title>
<g id="a_node18"><a xlink:title=" ">
<polygon fill="none" stroke="#bfbfbf" points="778.5,-0.5 778.5,-19.5 844.5,-19.5 844.5,-0.5 778.5,-0.5"/>
<text text-anchor="middle" x="811.5" y="-7.5" font-family="Helvetica,sans-Serif" font-size="10.00">string_view</text>
</a>
</g>
</g>
<!-- Node13&#45;&gt;Node18 -->
<g id="edge19" class="edge">
<title>Node13&#45;&gt;Node18</title>
<path fill="none" stroke="midnightblue" d="M754.43,-56.32C764.67,-48.18 780.22,-35.84 792.5,-26.09"/>
<polygon fill="midnightblue" stroke="midnightblue" points="794.72,-28.79 800.38,-19.83 790.37,-23.31 794.72,-28.79"/>
</g>
<!-- Node19 -->
<g id="node19" class="node">
<title>Node19</title>
<g id="a_node19"><a xlink:title=" ">
<polygon fill="none" stroke="#bfbfbf" points="862.5,-0.5 862.5,-19.5 914.5,-19.5 914.5,-0.5 862.5,-0.5"/>
<text text-anchor="middle" x="888.5" y="-7.5" font-family="Helvetica,sans-Serif" font-size="10.00">sstream</text>
</a>
</g>
</g>
<!-- Node13&#45;&gt;Node19 -->
<g id="edge20" class="edge">
<title>Node13&#45;&gt;Node19</title>
<path fill="none" stroke="midnightblue" d="M766.48,-56.44C790.66,-47.44 828.92,-33.19 856.15,-23.05"/>
<polygon fill="midnightblue" stroke="midnightblue" points="857.48,-26.29 865.63,-19.52 855.04,-19.73 857.48,-26.29"/>
</g>
<!-- Node20&#45;&gt;Node21 -->
<g id="edge23" class="edge">
<title>Node20&#45;&gt;Node21</title>
<path fill="none" stroke="midnightblue" d="M1592.77,-56.44C1529.01,-46.83 1425.6,-31.23 1358.07,-21.04"/>
<polygon fill="midnightblue" stroke="midnightblue" points="1358.37,-17.55 1347.96,-19.52 1357.33,-24.47 1358.37,-17.55"/>
</g>
<!-- Node22 -->
<g id="node22" class="node">
<title>Node22</title>
<g id="a_node22"><a xlink:title=" ">
<polygon fill="none" stroke="#bfbfbf" points="1395.5,-0.5 1395.5,-19.5 1553.5,-19.5 1553.5,-0.5 1395.5,-0.5"/>
<text text-anchor="middle" x="1474.5" y="-7.5" font-family="Helvetica,sans-Serif" font-size="10.00">boost/beast/core/rate_policy.hpp</text>
</a>
</g>
</g>
<!-- Node20&#45;&gt;Node22 -->
<g id="edge24" class="edge">
<title>Node20&#45;&gt;Node22</title>
<path fill="none" stroke="midnightblue" d="M1621.77,-56.44C1592.07,-47.28 1544.78,-32.69 1511.83,-22.52"/>
<polygon fill="midnightblue" stroke="midnightblue" points="1512.69,-19.12 1502.1,-19.52 1510.62,-25.81 1512.69,-19.12"/>
</g>
<!-- Node23 -->
<g id="node23" class="node">
<title>Node23</title>
<g id="a_node23"><a xlink:title=" ">
<polygon fill="none" stroke="#bfbfbf" points="1745,-0.5 1745,-19.5 1852,-19.5 1852,-0.5 1745,-0.5"/>
<text text-anchor="middle" x="1798.5" y="-7.5" font-family="Helvetica,sans-Serif" font-size="10.00">boost/asio/ip/tcp.hpp</text>
</a>
</g>
</g>
<!-- Node20&#45;&gt;Node23 -->
<g id="edge25" class="edge">
<title>Node20&#45;&gt;Node23</title>
<path fill="none" stroke="midnightblue" d="M1673.11,-56.44C1697.96,-47.44 1737.27,-33.19 1765.25,-23.05"/>
<polygon fill="midnightblue" stroke="midnightblue" points="1766.79,-26.21 1775,-19.52 1764.41,-19.63 1766.79,-26.21"/>
</g>
<!-- Node20&#45;&gt;Node24 -->
<g id="edge26" class="edge">
<title>Node20&#45;&gt;Node24</title>
<path fill="none" stroke="midnightblue" d="M1649.5,-56.08C1649.5,-49.01 1649.5,-38.86 1649.5,-29.99"/>
<polygon fill="midnightblue" stroke="midnightblue" points="1653,-29.75 1649.5,-19.75 1646,-29.75 1653,-29.75"/>
</g>
<!-- Node32&#45;&gt;Node12 -->
<g id="edge44" class="edge">
<title>Node32&#45;&gt;Node12</title>
<path fill="none" stroke="midnightblue" d="M1590.34,-168.46C1586.75,-145.79 1573.64,-83.9 1534.5,-56 1474.07,-12.92 1276,-30.22 1202.5,-20 1195.21,-18.99 1187.39,-17.74 1180.04,-16.51"/>
<polygon fill="midnightblue" stroke="midnightblue" points="1180.54,-13.04 1170.09,-14.79 1179.35,-19.94 1180.54,-13.04"/>
</g>
<!-- Node32&#45;&gt;Node23 -->
<g id="edge42" class="edge">
<title>Node32&#45;&gt;Node23</title>
<path fill="none" stroke="midnightblue" d="M1591.58,-168.46C1592.2,-154.55 1595.51,-127.06 1611.5,-112 1660.78,-65.59 1704.98,-116.13 1759.5,-76 1775.36,-64.32 1786.01,-44.08 1792.11,-29.28"/>
<polygon fill="midnightblue" stroke="midnightblue" points="1795.49,-30.26 1795.77,-19.67 1788.94,-27.77 1795.49,-30.26"/>
</g>
<!-- Node33 -->
<g id="node33" class="node">
<title>Node33</title>
<g id="a_node33"><a xlink:title=" ">
<polygon fill="none" stroke="#bfbfbf" points="1620,-112.5 1620,-131.5 1763,-131.5 1763,-112.5 1620,-112.5"/>
<text text-anchor="middle" x="1691.5" y="-119.5" font-family="Helvetica,sans-Serif" font-size="10.00">boost/system/error_code.hpp</text>
</a>
</g>
</g>
<!-- Node32&#45;&gt;Node33 -->
<g id="edge43" class="edge">
<title>Node32&#45;&gt;Node33</title>
<path fill="none" stroke="midnightblue" d="M1607.57,-168.32C1623.46,-159.74 1648.01,-146.49 1666.46,-136.52"/>
<polygon fill="midnightblue" stroke="midnightblue" points="1668.34,-139.49 1675.47,-131.65 1665.01,-133.33 1668.34,-139.49"/>
</g>
<!-- Node32&#45;&gt;Node34 -->
<g id="edge45" class="edge">
<title>Node32&#45;&gt;Node34</title>
<path fill="none" stroke="midnightblue" d="M1644.28,-169.76C1721.33,-159.16 1859.86,-139.95 1907.81,-131.9"/>
<polygon fill="midnightblue" stroke="midnightblue" points="1908.51,-135.33 1917.74,-130.14 1907.29,-128.44 1908.51,-135.33"/>
</g>
<!-- Node35 -->
<g id="node35" class="node">
<title>Node35</title>
<g id="a_node35"><a xlink:title=" ">
<polygon fill="none" stroke="#bfbfbf" points="1781.5,-112.5 1781.5,-131.5 1837.5,-131.5 1837.5,-112.5 1781.5,-112.5"/>
<text text-anchor="middle" x="1809.5" y="-119.5" font-family="Helvetica,sans-Serif" font-size="10.00">algorithm</text>
</a>
</g>
</g>
<!-- Node32&#45;&gt;Node35 -->
<g id="edge46" class="edge">
<title>Node32&#45;&gt;Node35</title>
<path fill="none" stroke="midnightblue" d="M1626.04,-168.44C1665.67,-158.63 1730.43,-142.59 1771.47,-132.42"/>
<polygon fill="midnightblue" stroke="midnightblue" points="1772.49,-135.77 1781.36,-129.97 1770.81,-128.98 1772.49,-135.77"/>
</g>
<!-- Node36 -->
<g id="node36" class="node">
<title>Node36</title>
<g id="a_node36"><a xlink:title=" ">
<polygon fill="none" stroke="#bfbfbf" points="1855.5,-112.5 1855.5,-131.5 1899.5,-131.5 1899.5,-112.5 1855.5,-112.5"/>
<text text-anchor="middle" x="1877.5" y="-119.5" font-family="Helvetica,sans-Serif" font-size="10.00">vector</text>
</a>
</g>
</g>
<!-- Node32&#45;&gt;Node36 -->
<g id="edge47" class="edge">
<title>Node32&#45;&gt;Node36</title>
<path fill="none" stroke="midnightblue" d="M1644.09,-169.42C1693.66,-161.89 1770.18,-149.29 1845.14,-132.12"/>
<polygon fill="midnightblue" stroke="midnightblue" points="1846.27,-135.45 1855.22,-129.78 1844.69,-128.63 1846.27,-135.45"/>
</g>
</g>
</svg>
        <g id="navigator" transform="translate(0 0)" fill="#404254">
                <rect fill="#f2f5e9" fill-opacity="0.5" stroke="#606060" stroke-width=".5" x="0" y="0" width="60" height="60"/>
                <use id="zoomplus" xlink:href="#zoomPlus" x="17" y="9" onmousedown="handleZoom(evt,'in')"/>
                <use id="zoomminus" xlink:href="#zoomMin" x="42" y="9" onmousedown="handleZoom(evt,'out')"/>
                <use id="reset" xlink:href="#resetDef" x="30" y="36" onmousedown="handleReset()"/>
                <g id="arrowUp" xlink:href="#dirArrow" transform="translate(30 24)" onmousedown="handlePan(0,-1)">
                  <use xlink:href="#rim" fill="#404040">
                        <set attributeName="fill" to="#808080" begin="arrowUp.mouseover" end="arrowUp.mouseout"/>
                  </use>
                  <path fill="none" stroke="white" stroke-width="1.5" d="M0,-3.0v7 M-2.5,-0.5L0,-3.0L2.5,-0.5"/>
                </g>
                <g id="arrowRight" xlink:href="#dirArrow" transform="rotate(90) translate(36 -43)" onmousedown="handlePan(1,0)">
                  <use xlink:href="#rim" fill="#404040">
                        <set attributeName="fill" to="#808080" begin="arrowRight.mouseover" end="arrowRight.mouseout"/>
                  </use>
                  <path fill="none" stroke="white" stroke-width="1.5" d="M0,-3.0v7 M-2.5,-0.5L0,-3.0L2.5,-0.5"/>
                </g>
                <g id="arrowDown" xlink:href="#dirArrow" transform="rotate(180) translate(-30 -48)" onmousedown="handlePan(0,1)">
                  <use xlink:href="#rim" fill="#404040">
                        <set attributeName="fill" to="#808080" begin="arrowDown.mouseover" end="arrowDown.mouseout"/>
                  </use>
                  <path fill="none" stroke="white" stroke-width="1.5" d="M0,-3.0v7 M-2.5,-0.5L0,-3.0L2.5,-0.5"/>
                </g>
                <g id="arrowLeft" xlink:href="#dirArrow" transform="rotate(270) translate(-36 17)" onmousedown="handlePan(-1,0)">
                  <use xlink:href="#rim" fill="#404040">
                        <set attributeName="fill" to="#808080" begin="arrowLeft.mouseover" end="arrowLeft.mouseout"/>
                  </use>
                  <path fill="none" stroke="white" stroke-width="1.5" d="M0,-3.0v7 M-2.5,-0.5L0,-3.0L2.5,-0.5"/>
                </g>
        </g>
        <svg viewBox="0 0 15 15" width="100%" height="30px" preserveAspectRatio="xMaxYMin meet">
         <g id="arrow_out" transform="scale(0.3 0.3)">
          <a xlink:href="websocket__client_8cpp__incl_org.svg" target="_base">
           <rect id="button" ry="5" rx="5" y="6" x="6" height="38" width="38"
                fill="#f2f5e9" fill-opacity="0.5" stroke="#606060" stroke-width="1.0"/>
           <path id="arrow"
             d="M 11.500037,31.436501 C 11.940474,20.09759 22.043105,11.32322 32.158766,21.979434 L 37.068811,17.246167 C 37.068811,17.246167 37.088388,32 37.088388,32 L 22.160133,31.978069 C 22.160133,31.978069 26.997745,27.140456 26.997745,27.140456 C 18.528582,18.264221 13.291696,25.230495 11.500037,31.436501 z"
             style="fill:#404040;"/>
          </a>
         </g>
        </svg>
</svg>
