<?xml version="1.0" encoding="UTF-8" standalone="no"?>
<!DOCTYPE svg PUBLIC "-//W3C//DTD SVG 1.1//EN"
 "http://www.w3.org/Graphics/SVG/1.1/DTD/svg11.dtd">
<!-- Generated by graphviz version 2.44.1 (20211215.1903)
 -->
<!-- Title: src/roar/websocket/websocket_session.cpp Pages: 1 -->
<svg width="3074pt" height="252pt"
 viewBox="0.00 0.00 3074.00 252.00" xmlns="http://www.w3.org/2000/svg" xmlns:xlink="http://www.w3.org/1999/xlink">
<g id="graph0" class="graph" transform="scale(1 1) rotate(0) translate(4 248)">
<title>src/roar/websocket/websocket_session.cpp</title>
<!-- Node1 -->
<g id="node1" class="node">
<title>Node1</title>
<g id="a_node1"><a xlink:title=" ">
<polygon fill="#bfbfbf" stroke="black" points="2210,-224.5 2210,-243.5 2418,-243.5 2418,-224.5 2210,-224.5"/>
<text text-anchor="middle" x="2314" y="-231.5" font-family="Helvetica,sans-Serif" font-size="10.00">src/roar/websocket/websocket_session.cpp</text>
</a>
</g>
</g>
<!-- Node2 -->
<g id="node2" class="node">
<title>Node2</title>
<g id="a_node2"><a xlink:href="websocket__session_8hpp.html" target="_top" xlink:title=" ">
<polygon fill="none" stroke="black" points="679.5,-168.5 679.5,-187.5 870.5,-187.5 870.5,-168.5 679.5,-168.5"/>
<text text-anchor="middle" x="775" y="-175.5" font-family="Helvetica,sans-Serif" font-size="10.00">roar/websocket/websocket_session.hpp</text>
</a>
</g>
</g>
<!-- Node1&#45;&gt;Node2 -->
<g id="edge1" class="edge">
<title>Node1&#45;&gt;Node2</title>
<path fill="none" stroke="midnightblue" d="M2209.73,-229.34C1929.65,-219.51 1163.15,-192.62 881.04,-182.72"/>
<polygon fill="midnightblue" stroke="midnightblue" points="880.92,-179.21 870.8,-182.36 880.67,-186.21 880.92,-179.21"/>
</g>
<!-- Node9 -->
<g id="node9" class="node">
<title>Node9</title>
<g id="a_node9"><a xlink:href="error_8hpp.html" target="_top" xlink:title=" ">
<polygon fill="none" stroke="black" points="1687,-56.5 1687,-75.5 1761,-75.5 1761,-56.5 1687,-56.5"/>
<text text-anchor="middle" x="1724" y="-63.5" font-family="Helvetica,sans-Serif" font-size="10.00">roar/error.hpp</text>
</a>
</g>
</g>
<!-- Node1&#45;&gt;Node9 -->
<g id="edge49" class="edge">
<title>Node1&#45;&gt;Node9</title>
<path fill="none" stroke="midnightblue" d="M2418.17,-228.19C2609.44,-217.5 2990.8,-186.55 2919,-112 2878.55,-70 1988.5,-67.06 1771.42,-66.97"/>
<polygon fill="midnightblue" stroke="midnightblue" points="1771.31,-63.47 1761.31,-66.97 1771.31,-70.47 1771.31,-63.47"/>
</g>
<!-- Node24 -->
<g id="node24" class="node">
<title>Node24</title>
<g id="a_node24"><a xlink:title=" ">
<polygon fill="none" stroke="#bfbfbf" points="1440.5,-56.5 1440.5,-75.5 1577.5,-75.5 1577.5,-56.5 1440.5,-56.5"/>
<text text-anchor="middle" x="1509" y="-63.5" font-family="Helvetica,sans-Serif" font-size="10.00">boost/beast/websocket.hpp</text>
</a>
</g>
</g>
<!-- Node1&#45;&gt;Node24 -->
<g id="edge50" class="edge">
<title>Node1&#45;&gt;Node24</title>
<path fill="none" stroke="midnightblue" d="M2209.92,-227.21C2075.94,-217.55 1837.15,-192.77 1642,-132 1601.13,-119.27 1557.15,-95.6 1531.4,-80.6"/>
<polygon fill="midnightblue" stroke="midnightblue" points="1533.17,-77.58 1522.78,-75.51 1529.61,-83.61 1533.17,-77.58"/>
</g>
<!-- Node27 -->
<g id="node27" class="node">
<title>Node27</title>
<g id="a_node27"><a xlink:href="request_8hpp.html" target="_top" xlink:title=" ">
<polygon fill="none" stroke="black" points="2270.5,-168.5 2270.5,-187.5 2357.5,-187.5 2357.5,-168.5 2270.5,-168.5"/>
<text text-anchor="middle" x="2314" y="-175.5" font-family="Helvetica,sans-Serif" font-size="10.00">roar/request.hpp</text>
</a>
</g>
</g>
<!-- Node1&#45;&gt;Node27 -->
<g id="edge37" class="edge">
<title>Node1&#45;&gt;Node27</title>
<path fill="none" stroke="midnightblue" d="M2314,-224.08C2314,-217.01 2314,-206.86 2314,-197.99"/>
<polygon fill="midnightblue" stroke="midnightblue" points="2317.5,-197.75 2314,-187.75 2310.5,-197.75 2317.5,-197.75"/>
</g>
<!-- Node36 -->
<g id="node36" class="node">
<title>Node36</title>
<g id="a_node36"><a xlink:title=" ">
<polygon fill="none" stroke="#bfbfbf" points="3004,-168.5 3004,-187.5 3066,-187.5 3066,-168.5 3004,-168.5"/>
<text text-anchor="middle" x="3035" y="-175.5" font-family="Helvetica,sans-Serif" font-size="10.00">type_traits</text>
</a>
</g>
</g>
<!-- Node1&#45;&gt;Node36 -->
<g id="edge51" class="edge">
<title>Node1&#45;&gt;Node36</title>
<path fill="none" stroke="midnightblue" d="M2418.07,-230.3C2551.17,-225.88 2788.58,-214.73 2990,-188 2991.11,-187.85 2992.23,-187.7 2993.35,-187.53"/>
<polygon fill="midnightblue" stroke="midnightblue" points="2994.33,-190.92 3003.62,-185.82 2993.18,-184.01 2994.33,-190.92"/>
</g>
<!-- Node3 -->
<g id="node3" class="node">
<title>Node3</title>
<g id="a_node3"><a xlink:href="pimpl__special__functions_8hpp.html" target="_top" xlink:title=" ">
<polygon fill="none" stroke="black" points="682.5,-112.5 682.5,-131.5 867.5,-131.5 867.5,-112.5 682.5,-112.5"/>
<text text-anchor="middle" x="775" y="-119.5" font-family="Helvetica,sans-Serif" font-size="10.00">roar/detail/pimpl_special_functions.hpp</text>
</a>
</g>
</g>
<!-- Node2&#45;&gt;Node3 -->
<g id="edge2" class="edge">
<title>Node2&#45;&gt;Node3</title>
<path fill="none" stroke="midnightblue" d="M775,-168.08C775,-161.01 775,-150.86 775,-141.99"/>
<polygon fill="midnightblue" stroke="midnightblue" points="778.5,-141.75 775,-131.75 771.5,-141.75 778.5,-141.75"/>
</g>
<!-- Node4 -->
<g id="node4" class="node">
<title>Node4</title>
<g id="a_node4"><a xlink:href="shared__from__base_8hpp.html" target="_top" xlink:title=" ">
<polygon fill="none" stroke="black" points="427.5,-112.5 427.5,-131.5 588.5,-131.5 588.5,-112.5 427.5,-112.5"/>
<text text-anchor="middle" x="508" y="-119.5" font-family="Helvetica,sans-Serif" font-size="10.00">roar/detail/shared_from_base.hpp</text>
</a>
</g>
</g>
<!-- Node2&#45;&gt;Node4 -->
<g id="edge3" class="edge">
<title>Node2&#45;&gt;Node4</title>
<path fill="none" stroke="midnightblue" d="M732.69,-168.44C685.92,-158.98 610.54,-143.74 560.15,-133.55"/>
<polygon fill="midnightblue" stroke="midnightblue" points="560.6,-130.07 550.11,-131.52 559.22,-136.93 560.6,-130.07"/>
</g>
<!-- Node5 -->
<g id="node5" class="node">
<title>Node5</title>
<g id="a_node5"><a xlink:title=" ">
<polygon fill="none" stroke="#bfbfbf" points="504,-56.5 504,-75.5 556,-75.5 556,-56.5 504,-56.5"/>
<text text-anchor="middle" x="530" y="-63.5" font-family="Helvetica,sans-Serif" font-size="10.00">memory</text>
</a>
</g>
</g>
<!-- Node2&#45;&gt;Node5 -->
<g id="edge35" class="edge">
<title>Node2&#45;&gt;Node5</title>
<path fill="none" stroke="midnightblue" d="M751.62,-168.43C728.4,-159.77 691.92,-145.74 661,-132 623.6,-115.38 581.36,-93.91 555.2,-80.3"/>
<polygon fill="midnightblue" stroke="midnightblue" points="556.81,-77.19 546.33,-75.66 553.57,-83.4 556.81,-77.19"/>
</g>
<!-- Node6 -->
<g id="node6" class="node">
<title>Node6</title>
<g id="a_node6"><a xlink:href="websocket__base_8hpp.html" target="_top" xlink:title=" ">
<polygon fill="none" stroke="black" points="923.5,-112.5 923.5,-131.5 1102.5,-131.5 1102.5,-112.5 923.5,-112.5"/>
<text text-anchor="middle" x="1013" y="-119.5" font-family="Helvetica,sans-Serif" font-size="10.00">roar/websocket/websocket_base.hpp</text>
</a>
</g>
</g>
<!-- Node2&#45;&gt;Node6 -->
<g id="edge5" class="edge">
<title>Node2&#45;&gt;Node6</title>
<path fill="none" stroke="midnightblue" d="M812.71,-168.44C854.14,-159.04 920.76,-143.93 965.67,-133.74"/>
<polygon fill="midnightblue" stroke="midnightblue" points="966.49,-137.14 975.46,-131.52 964.94,-130.32 966.49,-137.14"/>
</g>
<!-- Node12 -->
<g id="node12" class="node">
<title>Node12</title>
<g id="a_node12"><a xlink:title=" ">
<polygon fill="none" stroke="#bfbfbf" points="1466,-0.5 1466,-19.5 1512,-19.5 1512,-0.5 1466,-0.5"/>
<text text-anchor="middle" x="1489" y="-7.5" font-family="Helvetica,sans-Serif" font-size="10.00">variant</text>
</a>
</g>
</g>
<!-- Node2&#45;&gt;Node12 -->
<g id="edge36" class="edge">
<title>Node2&#45;&gt;Node12</title>
<path fill="none" stroke="midnightblue" d="M870.68,-168.47C1080.13,-149.34 1562.5,-102.6 1586,-76 1591.88,-69.34 1590.78,-63.49 1586,-56 1578.55,-44.33 1546.84,-30.98 1521.67,-21.87"/>
<polygon fill="midnightblue" stroke="midnightblue" points="1522.66,-18.51 1512.07,-18.48 1520.33,-25.11 1522.66,-18.51"/>
</g>
<!-- Node17 -->
<g id="node17" class="node">
<title>Node17</title>
<g id="a_node17"><a xlink:title=" ">
<polygon fill="none" stroke="#bfbfbf" points="799,-0.5 799,-19.5 925,-19.5 925,-0.5 799,-0.5"/>
<text text-anchor="middle" x="862" y="-7.5" font-family="Helvetica,sans-Serif" font-size="10.00">promise&#45;cpp/promise.hpp</text>
</a>
</g>
</g>
<!-- Node2&#45;&gt;Node17 -->
<g id="edge34" class="edge">
<title>Node2&#45;&gt;Node17</title>
<path fill="none" stroke="midnightblue" d="M820.65,-168.43C841.24,-162.04 863.67,-151 876,-132 880.84,-124.54 876.73,-120.86 876,-112 874.66,-95.83 872.32,-92.05 870,-76 867.76,-60.51 865.61,-42.88 864.11,-29.89"/>
<polygon fill="midnightblue" stroke="midnightblue" points="867.57,-29.39 862.97,-19.85 860.62,-30.18 867.57,-29.39"/>
</g>
<!-- Node18 -->
<g id="node18" class="node">
<title>Node18</title>
<g id="a_node18"><a xlink:href="stream__type_8hpp.html" target="_top" xlink:title=" ">
<polygon fill="none" stroke="black" points="235.5,-56.5 235.5,-75.5 370.5,-75.5 370.5,-56.5 235.5,-56.5"/>
<text text-anchor="middle" x="303" y="-63.5" font-family="Helvetica,sans-Serif" font-size="10.00">roar/detail/stream_type.hpp</text>
</a>
</g>
</g>
<!-- Node2&#45;&gt;Node18 -->
<g id="edge30" class="edge">
<title>Node2&#45;&gt;Node18</title>
<path fill="none" stroke="midnightblue" d="M679.21,-171.97C581.28,-165.76 436.48,-153.32 385,-132 358.13,-120.87 332.8,-98.24 317.59,-82.85"/>
<polygon fill="midnightblue" stroke="midnightblue" points="320.05,-80.36 310.6,-75.56 314.99,-85.2 320.05,-80.36"/>
</g>
<!-- Node19 -->
<g id="node19" class="node">
<title>Node19</title>
<g id="a_node19"><a xlink:title=" ">
<polygon fill="none" stroke="#bfbfbf" points="474,-0.5 474,-19.5 634,-19.5 634,-0.5 474,-0.5"/>
<text text-anchor="middle" x="554" y="-7.5" font-family="Helvetica,sans-Serif" font-size="10.00">boost/beast/core/tcp_stream.hpp</text>
</a>
</g>
</g>
<!-- Node2&#45;&gt;Node19 -->
<g id="edge33" class="edge">
<title>Node2&#45;&gt;Node19</title>
<path fill="none" stroke="midnightblue" d="M679.11,-171.37C579.29,-164.51 435.1,-151.39 418,-132 379.12,-87.91 468.54,-44.01 520.34,-23.3"/>
<polygon fill="midnightblue" stroke="midnightblue" points="521.8,-26.49 529.85,-19.59 519.26,-19.97 521.8,-26.49"/>
</g>
<!-- Node23 -->
<g id="node23" class="node">
<title>Node23</title>
<g id="a_node23"><a xlink:title=" ">
<polygon fill="none" stroke="#bfbfbf" points="587.5,-56.5 587.5,-75.5 740.5,-75.5 740.5,-56.5 587.5,-56.5"/>
<text text-anchor="middle" x="664" y="-63.5" font-family="Helvetica,sans-Serif" font-size="10.00">boost/beast/ssl/ssl_stream.hpp</text>
</a>
</g>
</g>
<!-- Node2&#45;&gt;Node23 -->
<g id="edge32" class="edge">
<title>Node2&#45;&gt;Node23</title>
<path fill="none" stroke="midnightblue" d="M732.37,-168.49C711.25,-162.04 687.28,-150.93 673,-132 663.04,-118.8 661.48,-99.66 662,-85.57"/>
<polygon fill="midnightblue" stroke="midnightblue" points="665.49,-85.79 662.74,-75.56 658.51,-85.28 665.49,-85.79"/>
</g>
<!-- Node26 -->
<g id="node26" class="node">
<title>Node26</title>
<g id="a_node26"><a xlink:title=" ">
<polygon fill="none" stroke="#bfbfbf" points="1416.5,-112.5 1416.5,-131.5 1577.5,-131.5 1577.5,-112.5 1416.5,-112.5"/>
<text text-anchor="middle" x="1497" y="-119.5" font-family="Helvetica,sans-Serif" font-size="10.00">boost/beast/http/empty_body.hpp</text>
</a>
</g>
</g>
<!-- Node2&#45;&gt;Node26 -->
<g id="edge31" class="edge">
<title>Node2&#45;&gt;Node26</title>
<path fill="none" stroke="midnightblue" d="M870.65,-170.82C993.66,-162.71 1213.85,-147.66 1402,-132 1403.47,-131.88 1404.95,-131.75 1406.45,-131.63"/>
<polygon fill="midnightblue" stroke="midnightblue" points="1406.76,-135.11 1416.42,-130.76 1406.15,-128.14 1406.76,-135.11"/>
</g>
<!-- Node4&#45;&gt;Node5 -->
<g id="edge4" class="edge">
<title>Node4&#45;&gt;Node5</title>
<path fill="none" stroke="midnightblue" d="M511.63,-112.08C514.61,-104.77 518.93,-94.18 522.62,-85.1"/>
<polygon fill="midnightblue" stroke="midnightblue" points="525.9,-86.33 526.43,-75.75 519.42,-83.69 525.9,-86.33"/>
</g>
<!-- Node7 -->
<g id="node7" class="node">
<title>Node7</title>
<g id="a_node7"><a xlink:href="read__result_8hpp.html" target="_top" xlink:title=" ">
<polygon fill="none" stroke="black" points="1269.5,-56.5 1269.5,-75.5 1422.5,-75.5 1422.5,-56.5 1269.5,-56.5"/>
<text text-anchor="middle" x="1346" y="-63.5" font-family="Helvetica,sans-Serif" font-size="10.00">roar/websocket/read_result.hpp</text>
</a>
</g>
</g>
<!-- Node6&#45;&gt;Node7 -->
<g id="edge6" class="edge">
<title>Node6&#45;&gt;Node7</title>
<path fill="none" stroke="midnightblue" d="M1065.76,-112.44C1124.83,-102.87 1220.47,-87.36 1283.31,-77.17"/>
<polygon fill="midnightblue" stroke="midnightblue" points="1284.17,-80.57 1293.48,-75.52 1283.05,-73.66 1284.17,-80.57"/>
</g>
<!-- Node6&#45;&gt;Node9 -->
<g id="edge8" class="edge">
<title>Node6&#45;&gt;Node9</title>
<path fill="none" stroke="midnightblue" d="M1102.69,-114.19C1255.25,-102.6 1560.1,-79.45 1676.93,-70.57"/>
<polygon fill="midnightblue" stroke="midnightblue" points="1677.28,-74.06 1686.99,-69.81 1676.75,-67.08 1677.28,-74.06"/>
</g>
<!-- Node6&#45;&gt;Node12 -->
<g id="edge29" class="edge">
<title>Node6&#45;&gt;Node12</title>
<path fill="none" stroke="midnightblue" d="M980.86,-112.41C945.36,-101.43 896.04,-80.84 919,-56 955.55,-16.46 1339.61,-11.62 1455.85,-11.06"/>
<polygon fill="midnightblue" stroke="midnightblue" points="1455.95,-14.56 1465.94,-11.02 1455.92,-7.56 1455.95,-14.56"/>
</g>
<!-- Node16 -->
<g id="node16" class="node">
<title>Node16</title>
<g id="a_node16"><a xlink:href="promise__compat_8hpp.html" target="_top" xlink:title=" ">
<polygon fill="none" stroke="black" points="1098.5,-56.5 1098.5,-75.5 1251.5,-75.5 1251.5,-56.5 1098.5,-56.5"/>
<text text-anchor="middle" x="1175" y="-63.5" font-family="Helvetica,sans-Serif" font-size="10.00">roar/detail/promise_compat.hpp</text>
</a>
</g>
</g>
<!-- Node6&#45;&gt;Node16 -->
<g id="edge16" class="edge">
<title>Node6&#45;&gt;Node16</title>
<path fill="none" stroke="midnightblue" d="M1038.67,-112.44C1065.92,-103.36 1109.18,-88.94 1139.65,-78.78"/>
<polygon fill="midnightblue" stroke="midnightblue" points="1141.07,-82 1149.45,-75.52 1138.86,-75.36 1141.07,-82"/>
</g>
<!-- Node6&#45;&gt;Node17 -->
<g id="edge24" class="edge">
<title>Node6&#45;&gt;Node17</title>
<path fill="none" stroke="midnightblue" d="M957.92,-112.45C933.2,-106.09 905.31,-95.06 886,-76 873.57,-63.73 867.52,-44.47 864.61,-30.1"/>
<polygon fill="midnightblue" stroke="midnightblue" points="868,-29.13 862.89,-19.84 861.09,-30.28 868,-29.13"/>
</g>
<!-- Node6&#45;&gt;Node18 -->
<g id="edge19" class="edge">
<title>Node6&#45;&gt;Node18</title>
<path fill="none" stroke="midnightblue" d="M923.44,-114.19C783.01,-103.51 513.38,-83 380.67,-72.91"/>
<polygon fill="midnightblue" stroke="midnightblue" points="380.82,-69.41 370.59,-72.14 380.29,-76.39 380.82,-69.41"/>
</g>
<!-- Node6&#45;&gt;Node19 -->
<g id="edge26" class="edge">
<title>Node6&#45;&gt;Node19</title>
<path fill="none" stroke="midnightblue" d="M978.86,-112.43C928.59,-99.84 831.65,-75.71 749,-56 698.79,-44.03 641.18,-30.79 601.67,-21.8"/>
<polygon fill="midnightblue" stroke="midnightblue" points="602.31,-18.35 591.79,-19.55 600.76,-25.18 602.31,-18.35"/>
</g>
<!-- Node6&#45;&gt;Node23 -->
<g id="edge25" class="edge">
<title>Node6&#45;&gt;Node23</title>
<path fill="none" stroke="midnightblue" d="M957.7,-112.44C895.67,-102.85 795.14,-87.29 729.3,-77.1"/>
<polygon fill="midnightblue" stroke="midnightblue" points="729.46,-73.59 719.04,-75.52 728.39,-80.5 729.46,-73.59"/>
</g>
<!-- Node6&#45;&gt;Node24 -->
<g id="edge27" class="edge">
<title>Node6&#45;&gt;Node24</title>
<path fill="none" stroke="midnightblue" d="M1093.93,-112.47C1175.93,-103.79 1306.73,-89.82 1430.09,-76.09"/>
<polygon fill="midnightblue" stroke="midnightblue" points="1430.55,-79.56 1440.1,-74.98 1429.77,-72.61 1430.55,-79.56"/>
</g>
<!-- Node25 -->
<g id="node25" class="node">
<title>Node25</title>
<g id="a_node25"><a xlink:title=" ">
<polygon fill="none" stroke="#bfbfbf" points="928,-56.5 928,-75.5 1080,-75.5 1080,-56.5 928,-56.5"/>
<text text-anchor="middle" x="1004" y="-63.5" font-family="Helvetica,sans-Serif" font-size="10.00">boost/beast/websocket/ssl.hpp</text>
</a>
</g>
</g>
<!-- Node6&#45;&gt;Node25 -->
<g id="edge28" class="edge">
<title>Node6&#45;&gt;Node25</title>
<path fill="none" stroke="midnightblue" d="M1011.51,-112.08C1010.32,-104.93 1008.61,-94.64 1007.12,-85.69"/>
<polygon fill="midnightblue" stroke="midnightblue" points="1010.55,-85.04 1005.46,-75.75 1003.65,-86.19 1010.55,-85.04"/>
</g>
<!-- Node8 -->
<g id="node8" class="node">
<title>Node8</title>
<g id="a_node8"><a xlink:title=" ">
<polygon fill="none" stroke="#bfbfbf" points="1607.5,-0.5 1607.5,-19.5 1648.5,-19.5 1648.5,-0.5 1607.5,-0.5"/>
<text text-anchor="middle" x="1628" y="-7.5" font-family="Helvetica,sans-Serif" font-size="10.00">string</text>
</a>
</g>
</g>
<!-- Node7&#45;&gt;Node8 -->
<g id="edge7" class="edge">
<title>Node7&#45;&gt;Node8</title>
<path fill="none" stroke="midnightblue" d="M1404.7,-56.47C1453.72,-48.91 1525.59,-36.79 1597.31,-19.92"/>
<polygon fill="midnightblue" stroke="midnightblue" points="1598.51,-23.23 1607.43,-17.51 1596.89,-16.43 1598.51,-23.23"/>
</g>
<!-- Node9&#45;&gt;Node8 -->
<g id="edge11" class="edge">
<title>Node9&#45;&gt;Node8</title>
<path fill="none" stroke="midnightblue" d="M1708.58,-56.32C1693.46,-47.82 1670.18,-34.73 1652.53,-24.8"/>
<polygon fill="midnightblue" stroke="midnightblue" points="1653.82,-21.51 1643.39,-19.65 1650.39,-27.61 1653.82,-21.51"/>
</g>
<!-- Node10 -->
<g id="node10" class="node">
<title>Node10</title>
<g id="a_node10"><a xlink:href="forward_8hpp.html" target="_top" xlink:title=" ">
<polygon fill="none" stroke="black" points="1667,-0.5 1667,-19.5 1781,-19.5 1781,-0.5 1667,-0.5"/>
<text text-anchor="middle" x="1724" y="-7.5" font-family="Helvetica,sans-Serif" font-size="10.00">roar/beast/forward.hpp</text>
</a>
</g>
</g>
<!-- Node9&#45;&gt;Node10 -->
<g id="edge9" class="edge">
<title>Node9&#45;&gt;Node10</title>
<path fill="none" stroke="midnightblue" d="M1724,-56.08C1724,-49.01 1724,-38.86 1724,-29.99"/>
<polygon fill="midnightblue" stroke="midnightblue" points="1727.5,-29.75 1724,-19.75 1720.5,-29.75 1727.5,-29.75"/>
</g>
<!-- Node11 -->
<g id="node11" class="node">
<title>Node11</title>
<g id="a_node11"><a xlink:title=" ">
<polygon fill="none" stroke="#bfbfbf" points="1799.5,-0.5 1799.5,-19.5 1954.5,-19.5 1954.5,-0.5 1799.5,-0.5"/>
<text text-anchor="middle" x="1877" y="-7.5" font-family="Helvetica,sans-Serif" font-size="10.00">boost/system/system_error.hpp</text>
</a>
</g>
</g>
<!-- Node9&#45;&gt;Node11 -->
<g id="edge10" class="edge">
<title>Node9&#45;&gt;Node11</title>
<path fill="none" stroke="midnightblue" d="M1748.24,-56.44C1773.87,-47.4 1814.49,-33.06 1843.24,-22.92"/>
<polygon fill="midnightblue" stroke="midnightblue" points="1844.61,-26.15 1852.87,-19.52 1842.28,-19.54 1844.61,-26.15"/>
</g>
<!-- Node9&#45;&gt;Node12 -->
<g id="edge12" class="edge">
<title>Node9&#45;&gt;Node12</title>
<path fill="none" stroke="midnightblue" d="M1686.81,-57.41C1647.98,-49.34 1585.11,-35.87 1521.78,-20.09"/>
<polygon fill="midnightblue" stroke="midnightblue" points="1522.58,-16.68 1512.03,-17.64 1520.88,-23.47 1522.58,-16.68"/>
</g>
<!-- Node13 -->
<g id="node13" class="node">
<title>Node13</title>
<g id="a_node13"><a xlink:title=" ">
<polygon fill="none" stroke="#bfbfbf" points="2492,-0.5 2492,-19.5 2542,-19.5 2542,-0.5 2492,-0.5"/>
<text text-anchor="middle" x="2517" y="-7.5" font-family="Helvetica,sans-Serif" font-size="10.00">optional</text>
</a>
</g>
</g>
<!-- Node9&#45;&gt;Node13 -->
<g id="edge13" class="edge">
<title>Node9&#45;&gt;Node13</title>
<path fill="none" stroke="midnightblue" d="M1761.18,-62.47C1894.91,-53.36 2350.41,-22.34 2481.46,-13.42"/>
<polygon fill="midnightblue" stroke="midnightblue" points="2481.99,-16.89 2491.73,-12.72 2481.52,-9.91 2481.99,-16.89"/>
</g>
<!-- Node14 -->
<g id="node14" class="node">
<title>Node14</title>
<g id="a_node14"><a xlink:title=" ">
<polygon fill="none" stroke="#bfbfbf" points="1530.5,-0.5 1530.5,-19.5 1589.5,-19.5 1589.5,-0.5 1530.5,-0.5"/>
<text text-anchor="middle" x="1560" y="-7.5" font-family="Helvetica,sans-Serif" font-size="10.00">functional</text>
</a>
</g>
</g>
<!-- Node9&#45;&gt;Node14 -->
<g id="edge14" class="edge">
<title>Node9&#45;&gt;Node14</title>
<path fill="none" stroke="midnightblue" d="M1698.01,-56.44C1670.3,-47.32 1626.25,-32.81 1595.38,-22.65"/>
<polygon fill="midnightblue" stroke="midnightblue" points="1596.46,-19.32 1585.86,-19.52 1594.27,-25.97 1596.46,-19.32"/>
</g>
<!-- Node15 -->
<g id="node15" class="node">
<title>Node15</title>
<g id="a_node15"><a xlink:title=" ">
<polygon fill="none" stroke="#bfbfbf" points="1973,-0.5 1973,-19.5 2039,-19.5 2039,-0.5 1973,-0.5"/>
<text text-anchor="middle" x="2006" y="-7.5" font-family="Helvetica,sans-Serif" font-size="10.00">string_view</text>
</a>
</g>
</g>
<!-- Node9&#45;&gt;Node15 -->
<g id="edge15" class="edge">
<title>Node9&#45;&gt;Node15</title>
<path fill="none" stroke="midnightblue" d="M1761.3,-58.22C1806.44,-49.96 1884.99,-35.41 1962.71,-20.02"/>
<polygon fill="midnightblue" stroke="midnightblue" points="1963.55,-23.42 1972.68,-18.04 1962.19,-16.56 1963.55,-23.42"/>
</g>
<!-- Node16&#45;&gt;Node14 -->
<g id="edge17" class="edge">
<title>Node16&#45;&gt;Node14</title>
<path fill="none" stroke="midnightblue" d="M1246.87,-56.49C1327.86,-46.76 1455.59,-30.96 1520.09,-19.97"/>
<polygon fill="midnightblue" stroke="midnightblue" points="1521.01,-23.36 1530.25,-18.18 1519.8,-16.47 1521.01,-23.36"/>
</g>
<!-- Node16&#45;&gt;Node17 -->
<g id="edge18" class="edge">
<title>Node16&#45;&gt;Node17</title>
<path fill="none" stroke="midnightblue" d="M1125.4,-56.44C1070,-46.89 980.36,-31.42 921.29,-21.23"/>
<polygon fill="midnightblue" stroke="midnightblue" points="921.81,-17.77 911.36,-19.52 920.62,-24.67 921.81,-17.77"/>
</g>
<!-- Node18&#45;&gt;Node19 -->
<g id="edge20" class="edge">
<title>Node18&#45;&gt;Node19</title>
<path fill="none" stroke="midnightblue" d="M342.77,-56.44C386.56,-47.02 457.01,-31.87 504.38,-21.68"/>
<polygon fill="midnightblue" stroke="midnightblue" points="505.37,-25.04 514.41,-19.52 503.9,-18.2 505.37,-25.04"/>
</g>
<!-- Node20 -->
<g id="node20" class="node">
<title>Node20</title>
<g id="a_node20"><a xlink:title=" ">
<polygon fill="none" stroke="#bfbfbf" points="0,-0.5 0,-19.5 158,-19.5 158,-0.5 0,-0.5"/>
<text text-anchor="middle" x="79" y="-7.5" font-family="Helvetica,sans-Serif" font-size="10.00">boost/beast/core/rate_policy.hpp</text>
</a>
</g>
</g>
<!-- Node18&#45;&gt;Node20 -->
<g id="edge21" class="edge">
<title>Node18&#45;&gt;Node20</title>
<path fill="none" stroke="midnightblue" d="M267.51,-56.44C228.68,-47.08 166.34,-32.06 124.08,-21.87"/>
<polygon fill="midnightblue" stroke="midnightblue" points="124.87,-18.46 114.33,-19.52 123.23,-25.26 124.87,-18.46"/>
</g>
<!-- Node21 -->
<g id="node21" class="node">
<title>Node21</title>
<g id="a_node21"><a xlink:title=" ">
<polygon fill="none" stroke="#bfbfbf" points="175.5,-0.5 175.5,-19.5 282.5,-19.5 282.5,-0.5 175.5,-0.5"/>
<text text-anchor="middle" x="229" y="-7.5" font-family="Helvetica,sans-Serif" font-size="10.00">boost/asio/ip/tcp.hpp</text>
</a>
</g>
</g>
<!-- Node18&#45;&gt;Node21 -->
<g id="edge22" class="edge">
<title>Node18&#45;&gt;Node21</title>
<path fill="none" stroke="midnightblue" d="M291.11,-56.32C279.85,-48.11 262.71,-35.6 249.29,-25.81"/>
<polygon fill="midnightblue" stroke="midnightblue" points="251.25,-22.9 241.11,-19.83 247.12,-28.56 251.25,-22.9"/>
</g>
<!-- Node22 -->
<g id="node22" class="node">
<title>Node22</title>
<g id="a_node22"><a xlink:title=" ">
<polygon fill="none" stroke="#bfbfbf" points="300.5,-0.5 300.5,-19.5 455.5,-19.5 455.5,-0.5 300.5,-0.5"/>
<text text-anchor="middle" x="378" y="-7.5" font-family="Helvetica,sans-Serif" font-size="10.00">boost/asio/any_io_executor.hpp</text>
</a>
</g>
</g>
<!-- Node18&#45;&gt;Node22 -->
<g id="edge23" class="edge">
<title>Node18&#45;&gt;Node22</title>
<path fill="none" stroke="midnightblue" d="M315.05,-56.32C326.46,-48.11 343.83,-35.6 357.43,-25.81"/>
<polygon fill="midnightblue" stroke="midnightblue" points="359.66,-28.52 365.73,-19.83 355.57,-22.84 359.66,-28.52"/>
</g>
<!-- Node27&#45;&gt;Node8 -->
<g id="edge46" class="edge">
<title>Node27&#45;&gt;Node8</title>
<path fill="none" stroke="midnightblue" d="M2270.43,-176.85C2132.07,-176 1709.04,-170.26 1662,-132 1631.49,-107.18 1627.09,-57.33 1627.15,-29.99"/>
<polygon fill="midnightblue" stroke="midnightblue" points="1630.66,-29.88 1627.39,-19.8 1623.66,-29.71 1630.66,-29.88"/>
</g>
<!-- Node27&#45;&gt;Node13 -->
<g id="edge45" class="edge">
<title>Node27&#45;&gt;Node13</title>
<path fill="none" stroke="midnightblue" d="M2357.64,-177.1C2490.12,-176.93 2880.98,-172.96 2919,-132 3025.75,-17.01 2668.68,-9.85 2552.38,-10.48"/>
<polygon fill="midnightblue" stroke="midnightblue" points="2552.19,-6.98 2542.21,-10.56 2552.24,-13.98 2552.19,-6.98"/>
</g>
<!-- Node27&#45;&gt;Node26 -->
<g id="edge39" class="edge">
<title>Node27&#45;&gt;Node26</title>
<path fill="none" stroke="midnightblue" d="M2270.39,-174.16C2162.04,-167.1 1871.94,-148.14 1630,-132 1616.34,-131.09 1601.9,-130.12 1587.76,-129.16"/>
<polygon fill="midnightblue" stroke="midnightblue" points="1587.74,-125.66 1577.53,-128.47 1587.27,-132.64 1587.74,-125.66"/>
</g>
<!-- Node28 -->
<g id="node28" class="node">
<title>Node28</title>
<g id="a_node28"><a xlink:title=" ">
<polygon fill="none" stroke="#bfbfbf" points="1671.5,-112.5 1671.5,-131.5 1820.5,-131.5 1820.5,-112.5 1671.5,-112.5"/>
<text text-anchor="middle" x="1746" y="-119.5" font-family="Helvetica,sans-Serif" font-size="10.00">boost/beast/http/message.hpp</text>
</a>
</g>
</g>
<!-- Node27&#45;&gt;Node28 -->
<g id="edge38" class="edge">
<title>Node27&#45;&gt;Node28</title>
<path fill="none" stroke="midnightblue" d="M2270.17,-173.16C2186.75,-165.81 1999.11,-149.03 1830.69,-132.16"/>
<polygon fill="midnightblue" stroke="midnightblue" points="1830.95,-128.67 1820.65,-131.15 1830.25,-135.63 1830.95,-128.67"/>
</g>
<!-- Node29 -->
<g id="node29" class="node">
<title>Node29</title>
<g id="a_node29"><a xlink:title=" ">
<polygon fill="none" stroke="#bfbfbf" points="1838.5,-112.5 1838.5,-131.5 2027.5,-131.5 2027.5,-112.5 1838.5,-112.5"/>
<text text-anchor="middle" x="1933" y="-119.5" font-family="Helvetica,sans-Serif" font-size="10.00">boost/algorithm/string/classification.hpp</text>
</a>
</g>
</g>
<!-- Node27&#45;&gt;Node29 -->
<g id="edge40" class="edge">
<title>Node27&#45;&gt;Node29</title>
<path fill="none" stroke="midnightblue" d="M2270.29,-170.81C2205.01,-161.55 2081.36,-144.03 2003.28,-132.96"/>
<polygon fill="midnightblue" stroke="midnightblue" points="2003.44,-129.45 1993.05,-131.51 2002.46,-136.38 2003.44,-129.45"/>
</g>
<!-- Node30 -->
<g id="node30" class="node">
<title>Node30</title>
<g id="a_node30"><a xlink:title=" ">
<polygon fill="none" stroke="#bfbfbf" points="2045.5,-112.5 2045.5,-131.5 2220.5,-131.5 2220.5,-112.5 2045.5,-112.5"/>
<text text-anchor="middle" x="2133" y="-119.5" font-family="Helvetica,sans-Serif" font-size="10.00">boost/algorithm/string/constants.hpp</text>
</a>
</g>
</g>
<!-- Node27&#45;&gt;Node30 -->
<g id="edge41" class="edge">
<title>Node27&#45;&gt;Node30</title>
<path fill="none" stroke="midnightblue" d="M2285.32,-168.44C2254.47,-159.24 2205.27,-144.56 2171.17,-134.39"/>
<polygon fill="midnightblue" stroke="midnightblue" points="2172.13,-131.02 2161.55,-131.52 2170.13,-137.73 2172.13,-131.02"/>
</g>
<!-- Node31 -->
<g id="node31" class="node">
<title>Node31</title>
<g id="a_node31"><a xlink:title=" ">
<polygon fill="none" stroke="#bfbfbf" points="2239,-112.5 2239,-131.5 2389,-131.5 2389,-112.5 2239,-112.5"/>
<text text-anchor="middle" x="2314" y="-119.5" font-family="Helvetica,sans-Serif" font-size="10.00">boost/algorithm/string/split.hpp</text>
</a>
</g>
</g>
<!-- Node27&#45;&gt;Node31 -->
<g id="edge42" class="edge">
<title>Node27&#45;&gt;Node31</title>
<path fill="none" stroke="midnightblue" d="M2314,-168.08C2314,-161.01 2314,-150.86 2314,-141.99"/>
<polygon fill="midnightblue" stroke="midnightblue" points="2317.5,-141.75 2314,-131.75 2310.5,-141.75 2317.5,-141.75"/>
</g>
<!-- Node32 -->
<g id="node32" class="node">
<title>Node32</title>
<g id="a_node32"><a xlink:title=" ">
<polygon fill="none" stroke="#bfbfbf" points="2406.5,-112.5 2406.5,-131.5 2555.5,-131.5 2555.5,-112.5 2406.5,-112.5"/>
<text text-anchor="middle" x="2481" y="-119.5" font-family="Helvetica,sans-Serif" font-size="10.00">boost/algorithm/string/trim.hpp</text>
</a>
</g>
</g>
<!-- Node27&#45;&gt;Node32 -->
<g id="edge43" class="edge">
<title>Node27&#45;&gt;Node32</title>
<path fill="none" stroke="midnightblue" d="M2340.46,-168.44C2368.68,-159.32 2413.54,-144.81 2444.97,-134.65"/>
<polygon fill="midnightblue" stroke="midnightblue" points="2446.22,-137.92 2454.66,-131.52 2444.07,-131.26 2446.22,-137.92"/>
</g>
<!-- Node33 -->
<g id="node33" class="node">
<title>Node33</title>
<g id="a_node33"><a xlink:title=" ">
<polygon fill="none" stroke="#bfbfbf" points="2574,-112.5 2574,-131.5 2746,-131.5 2746,-112.5 2574,-112.5"/>
<text text-anchor="middle" x="2660" y="-119.5" font-family="Helvetica,sans-Serif" font-size="10.00">boost/beast/websocket/rfc6455.hpp</text>
</a>
</g>
</g>
<!-- Node27&#45;&gt;Node33 -->
<g id="edge44" class="edge">
<title>Node27&#45;&gt;Node33</title>
<path fill="none" stroke="midnightblue" d="M2357.82,-170.16C2417.88,-160.79 2526.18,-143.88 2595.51,-133.07"/>
<polygon fill="midnightblue" stroke="midnightblue" points="2596.1,-136.52 2605.44,-131.51 2595.02,-129.6 2596.1,-136.52"/>
</g>
<!-- Node34 -->
<g id="node34" class="node">
<title>Node34</title>
<g id="a_node34"><a xlink:title=" ">
<polygon fill="none" stroke="#bfbfbf" points="2764,-112.5 2764,-131.5 2808,-131.5 2808,-112.5 2764,-112.5"/>
<text text-anchor="middle" x="2786" y="-119.5" font-family="Helvetica,sans-Serif" font-size="10.00">vector</text>
</a>
</g>
</g>
<!-- Node27&#45;&gt;Node34 -->
<g id="edge47" class="edge">
<title>Node27&#45;&gt;Node34</title>
<path fill="none" stroke="midnightblue" d="M2357.57,-175.17C2435.45,-171.33 2603.66,-160.47 2753.9,-131.89"/>
<polygon fill="midnightblue" stroke="midnightblue" points="2754.61,-135.31 2763.77,-129.98 2753.28,-128.44 2754.61,-135.31"/>
</g>
<!-- Node35 -->
<g id="node35" class="node">
<title>Node35</title>
<g id="a_node35"><a xlink:title=" ">
<polygon fill="none" stroke="#bfbfbf" points="2826.5,-112.5 2826.5,-131.5 2909.5,-131.5 2909.5,-112.5 2826.5,-112.5"/>
<text text-anchor="middle" x="2868" y="-119.5" font-family="Helvetica,sans-Serif" font-size="10.00">unordered_map</text>
</a>
</g>
</g>
<!-- Node27&#45;&gt;Node35 -->
<g id="edge48" class="edge">
<title>Node27&#45;&gt;Node35</title>
<path fill="none" stroke="midnightblue" d="M2357.54,-174.36C2443.28,-168.9 2640.25,-154.99 2816.33,-131.97"/>
<polygon fill="midnightblue" stroke="midnightblue" points="2816.84,-135.44 2826.3,-130.66 2815.92,-128.5 2816.84,-135.44"/>
</g>
</g>
</svg>
