<?xml version="1.0" encoding="UTF-8" standalone="no"?>
<!DOCTYPE svg PUBLIC "-//W3C//DTD SVG 1.1//EN"
 "http://www.w3.org/Graphics/SVG/1.1/DTD/svg11.dtd">
<!-- Generated by graphviz version 2.44.1 (20211215.1903)
 -->
<!-- Title: include/roar/websocket/websocket_session.hpp Pages: 1 -->
<svg width="2047pt" height="196pt"
 viewBox="0.00 0.00 2047.00 196.00" xmlns="http://www.w3.org/2000/svg" xmlns:xlink="http://www.w3.org/1999/xlink">
<g id="graph0" class="graph" transform="scale(1 1) rotate(0) translate(4 192)">
<title>include/roar/websocket/websocket_session.hpp</title>
<!-- Node1 -->
<g id="node1" class="node">
<title>Node1</title>
<g id="a_node1"><a xlink:title=" ">
<polygon fill="#bfbfbf" stroke="black" points="1118,-168.5 1118,-187.5 1343,-187.5 1343,-168.5 1118,-168.5"/>
<text text-anchor="middle" x="1230.5" y="-175.5" font-family="Helvetica,sans-Serif" font-size="10.00">include/roar/websocket/websocket_session.hpp</text>
</a>
</g>
</g>
<!-- Node2 -->
<g id="node2" class="node">
<title>Node2</title>
<g id="a_node2"><a xlink:href="pimpl__special__functions_8hpp.html" target="_top" xlink:title=" ">
<polygon fill="none" stroke="black" points="0,-112.5 0,-131.5 185,-131.5 185,-112.5 0,-112.5"/>
<text text-anchor="middle" x="92.5" y="-119.5" font-family="Helvetica,sans-Serif" font-size="10.00">roar/detail/pimpl_special_functions.hpp</text>
</a>
</g>
</g>
<!-- Node1&#45;&gt;Node2 -->
<g id="edge1" class="edge">
<title>Node1&#45;&gt;Node2</title>
<path fill="none" stroke="midnightblue" d="M1117.62,-173.78C928.88,-168.03 537.04,-154.5 195.32,-132.09"/>
<polygon fill="midnightblue" stroke="midnightblue" points="195.43,-128.59 185.23,-131.43 194.97,-135.58 195.43,-128.59"/>
</g>
<!-- Node3 -->
<g id="node3" class="node">
<title>Node3</title>
<g id="a_node3"><a xlink:href="shared__from__base_8hpp.html" target="_top" xlink:title=" ">
<polygon fill="none" stroke="black" points="203,-112.5 203,-131.5 364,-131.5 364,-112.5 203,-112.5"/>
<text text-anchor="middle" x="283.5" y="-119.5" font-family="Helvetica,sans-Serif" font-size="10.00">roar/detail/shared_from_base.hpp</text>
</a>
</g>
</g>
<!-- Node1&#45;&gt;Node3 -->
<g id="edge2" class="edge">
<title>Node1&#45;&gt;Node3</title>
<path fill="none" stroke="midnightblue" d="M1117.74,-172.54C954.55,-165.75 643.11,-151.51 378.5,-132 377.03,-131.89 375.54,-131.78 374.05,-131.66"/>
<polygon fill="midnightblue" stroke="midnightblue" points="374.32,-128.18 364.07,-130.87 373.76,-135.15 374.32,-128.18"/>
</g>
<!-- Node4 -->
<g id="node4" class="node">
<title>Node4</title>
<g id="a_node4"><a xlink:title=" ">
<polygon fill="none" stroke="#bfbfbf" points="303.5,-56.5 303.5,-75.5 355.5,-75.5 355.5,-56.5 303.5,-56.5"/>
<text text-anchor="middle" x="329.5" y="-63.5" font-family="Helvetica,sans-Serif" font-size="10.00">memory</text>
</a>
</g>
</g>
<!-- Node1&#45;&gt;Node4 -->
<g id="edge35" class="edge">
<title>Node1&#45;&gt;Node4</title>
<path fill="none" stroke="midnightblue" d="M1117.72,-174.38C909.64,-169.02 480.6,-155.29 416.5,-132 388.13,-121.69 361.22,-98.86 345.04,-83.19"/>
<polygon fill="midnightblue" stroke="midnightblue" points="347.15,-80.36 337.6,-75.76 342.2,-85.31 347.15,-80.36"/>
</g>
<!-- Node5 -->
<g id="node5" class="node">
<title>Node5</title>
<g id="a_node5"><a xlink:href="websocket__base_8hpp.html" target="_top" xlink:title=" ">
<polygon fill="none" stroke="black" points="1050,-112.5 1050,-131.5 1229,-131.5 1229,-112.5 1050,-112.5"/>
<text text-anchor="middle" x="1139.5" y="-119.5" font-family="Helvetica,sans-Serif" font-size="10.00">roar/websocket/websocket_base.hpp</text>
</a>
</g>
</g>
<!-- Node1&#45;&gt;Node5 -->
<g id="edge4" class="edge">
<title>Node1&#45;&gt;Node5</title>
<path fill="none" stroke="midnightblue" d="M1215.88,-168.32C1201.55,-159.82 1179.49,-146.73 1162.75,-136.8"/>
<polygon fill="midnightblue" stroke="midnightblue" points="1164.47,-133.75 1154.08,-131.65 1160.9,-139.77 1164.47,-133.75"/>
</g>
<!-- Node11 -->
<g id="node11" class="node">
<title>Node11</title>
<g id="a_node11"><a xlink:title=" ">
<polygon fill="none" stroke="#bfbfbf" points="532.5,-0.5 532.5,-19.5 578.5,-19.5 578.5,-0.5 532.5,-0.5"/>
<text text-anchor="middle" x="555.5" y="-7.5" font-family="Helvetica,sans-Serif" font-size="10.00">variant</text>
</a>
</g>
</g>
<!-- Node1&#45;&gt;Node11 -->
<g id="edge36" class="edge">
<title>Node1&#45;&gt;Node11</title>
<path fill="none" stroke="midnightblue" d="M1117.64,-170.99C906.86,-158.61 470.55,-127.06 425.5,-76 394.94,-41.36 474.56,-23.02 522.42,-15.39"/>
<polygon fill="midnightblue" stroke="midnightblue" points="523.02,-18.84 532.38,-13.88 521.97,-11.91 523.02,-18.84"/>
</g>
<!-- Node17 -->
<g id="node17" class="node">
<title>Node17</title>
<g id="a_node17"><a xlink:title=" ">
<polygon fill="none" stroke="#bfbfbf" points="1261.5,-0.5 1261.5,-19.5 1387.5,-19.5 1387.5,-0.5 1261.5,-0.5"/>
<text text-anchor="middle" x="1324.5" y="-7.5" font-family="Helvetica,sans-Serif" font-size="10.00">promise&#45;cpp/promise.hpp</text>
</a>
</g>
</g>
<!-- Node1&#45;&gt;Node17 -->
<g id="edge34" class="edge">
<title>Node1&#45;&gt;Node17</title>
<path fill="none" stroke="midnightblue" d="M1302.57,-168.49C1359.6,-157.55 1435.72,-132.62 1473.5,-76 1478.43,-68.61 1478.8,-63.14 1473.5,-56 1462.53,-41.23 1421.06,-29.44 1384.65,-21.64"/>
<polygon fill="midnightblue" stroke="midnightblue" points="1385.04,-18.14 1374.54,-19.54 1383.62,-25 1385.04,-18.14"/>
</g>
<!-- Node18 -->
<g id="node18" class="node">
<title>Node18</title>
<g id="a_node18"><a xlink:href="stream__type_8hpp.html" target="_top" xlink:title=" ">
<polygon fill="none" stroke="black" points="1577,-56.5 1577,-75.5 1712,-75.5 1712,-56.5 1577,-56.5"/>
<text text-anchor="middle" x="1644.5" y="-63.5" font-family="Helvetica,sans-Serif" font-size="10.00">roar/detail/stream_type.hpp</text>
</a>
</g>
</g>
<!-- Node1&#45;&gt;Node18 -->
<g id="edge30" class="edge">
<title>Node1&#45;&gt;Node18</title>
<path fill="none" stroke="midnightblue" d="M1343.13,-172.66C1404.3,-167.41 1480.32,-156.11 1544.5,-132 1575.93,-120.19 1607.67,-97.26 1626.71,-82.04"/>
<polygon fill="midnightblue" stroke="midnightblue" points="1629,-84.69 1634.52,-75.65 1624.56,-79.27 1629,-84.69"/>
</g>
<!-- Node19 -->
<g id="node19" class="node">
<title>Node19</title>
<g id="a_node19"><a xlink:title=" ">
<polygon fill="none" stroke="#bfbfbf" points="1405.5,-0.5 1405.5,-19.5 1565.5,-19.5 1565.5,-0.5 1405.5,-0.5"/>
<text text-anchor="middle" x="1485.5" y="-7.5" font-family="Helvetica,sans-Serif" font-size="10.00">boost/beast/core/tcp_stream.hpp</text>
</a>
</g>
</g>
<!-- Node1&#45;&gt;Node19 -->
<g id="edge33" class="edge">
<title>Node1&#45;&gt;Node19</title>
<path fill="none" stroke="midnightblue" d="M1331.51,-168.49C1367.46,-162.14 1407.03,-151.11 1439.5,-132 1468,-115.22 1476.87,-106.96 1488.5,-76 1494.09,-61.13 1492.63,-42.98 1490.18,-29.65"/>
<polygon fill="midnightblue" stroke="midnightblue" points="1493.58,-28.78 1488.03,-19.75 1486.74,-30.27 1493.58,-28.78"/>
</g>
<!-- Node23 -->
<g id="node23" class="node">
<title>Node23</title>
<g id="a_node23"><a xlink:title=" ">
<polygon fill="none" stroke="#bfbfbf" points="1311,-56.5 1311,-75.5 1464,-75.5 1464,-56.5 1311,-56.5"/>
<text text-anchor="middle" x="1387.5" y="-63.5" font-family="Helvetica,sans-Serif" font-size="10.00">boost/beast/ssl/ssl_stream.hpp</text>
</a>
</g>
</g>
<!-- Node1&#45;&gt;Node23 -->
<g id="edge32" class="edge">
<title>Node1&#45;&gt;Node23</title>
<path fill="none" stroke="midnightblue" d="M1242.82,-168.37C1269.65,-149.57 1333.59,-104.77 1366.76,-81.53"/>
<polygon fill="midnightblue" stroke="midnightblue" points="1369.06,-84.2 1375.24,-75.59 1365.04,-78.46 1369.06,-84.2"/>
</g>
<!-- Node26 -->
<g id="node26" class="node">
<title>Node26</title>
<g id="a_node26"><a xlink:title=" ">
<polygon fill="none" stroke="#bfbfbf" points="1597,-112.5 1597,-131.5 1758,-131.5 1758,-112.5 1597,-112.5"/>
<text text-anchor="middle" x="1677.5" y="-119.5" font-family="Helvetica,sans-Serif" font-size="10.00">boost/beast/http/empty_body.hpp</text>
</a>
</g>
</g>
<!-- Node1&#45;&gt;Node26 -->
<g id="edge31" class="edge">
<title>Node1&#45;&gt;Node26</title>
<path fill="none" stroke="midnightblue" d="M1301.33,-168.44C1381.76,-158.73 1512.72,-142.91 1596.97,-132.73"/>
<polygon fill="midnightblue" stroke="midnightblue" points="1597.49,-136.19 1607,-131.52 1596.66,-129.24 1597.49,-136.19"/>
</g>
<!-- Node3&#45;&gt;Node4 -->
<g id="edge3" class="edge">
<title>Node3&#45;&gt;Node4</title>
<path fill="none" stroke="midnightblue" d="M291.1,-112.08C297.73,-104.3 307.52,-92.8 315.56,-83.37"/>
<polygon fill="midnightblue" stroke="midnightblue" points="318.23,-85.63 322.05,-75.75 312.9,-81.09 318.23,-85.63"/>
</g>
<!-- Node6 -->
<g id="node6" class="node">
<title>Node6</title>
<g id="a_node6"><a xlink:href="read__result_8hpp.html" target="_top" xlink:title=" ">
<polygon fill="none" stroke="black" points="799,-56.5 799,-75.5 952,-75.5 952,-56.5 799,-56.5"/>
<text text-anchor="middle" x="875.5" y="-63.5" font-family="Helvetica,sans-Serif" font-size="10.00">roar/websocket/read_result.hpp</text>
</a>
</g>
</g>
<!-- Node5&#45;&gt;Node6 -->
<g id="edge5" class="edge">
<title>Node5&#45;&gt;Node6</title>
<path fill="none" stroke="midnightblue" d="M1097.67,-112.44C1051.42,-102.98 976.89,-87.74 927.06,-77.55"/>
<polygon fill="midnightblue" stroke="midnightblue" points="927.63,-74.09 917.14,-75.52 926.23,-80.95 927.63,-74.09"/>
</g>
<!-- Node8 -->
<g id="node8" class="node">
<title>Node8</title>
<g id="a_node8"><a xlink:href="error_8hpp.html" target="_top" xlink:title=" ">
<polygon fill="none" stroke="black" points="970.5,-56.5 970.5,-75.5 1044.5,-75.5 1044.5,-56.5 970.5,-56.5"/>
<text text-anchor="middle" x="1007.5" y="-63.5" font-family="Helvetica,sans-Serif" font-size="10.00">roar/error.hpp</text>
</a>
</g>
</g>
<!-- Node5&#45;&gt;Node8 -->
<g id="edge7" class="edge">
<title>Node5&#45;&gt;Node8</title>
<path fill="none" stroke="midnightblue" d="M1118.58,-112.44C1096.76,-103.52 1062.35,-89.44 1037.61,-79.32"/>
<polygon fill="midnightblue" stroke="midnightblue" points="1038.9,-76.06 1028.32,-75.52 1036.25,-82.54 1038.9,-76.06"/>
</g>
<!-- Node5&#45;&gt;Node11 -->
<g id="edge29" class="edge">
<title>Node5&#45;&gt;Node11</title>
<path fill="none" stroke="midnightblue" d="M1049.88,-118.24C978.03,-113.95 875.37,-103.14 789.5,-76 771.3,-70.25 769.43,-62.55 751.5,-56 684.28,-31.44 661.74,-37.53 588.25,-20.03"/>
<polygon fill="midnightblue" stroke="midnightblue" points="589.07,-16.63 578.53,-17.65 587.41,-23.43 589.07,-16.63"/>
</g>
<!-- Node16 -->
<g id="node16" class="node">
<title>Node16</title>
<g id="a_node16"><a xlink:href="promise__compat_8hpp.html" target="_top" xlink:title=" ">
<polygon fill="none" stroke="black" points="1063,-56.5 1063,-75.5 1216,-75.5 1216,-56.5 1063,-56.5"/>
<text text-anchor="middle" x="1139.5" y="-63.5" font-family="Helvetica,sans-Serif" font-size="10.00">roar/detail/promise_compat.hpp</text>
</a>
</g>
</g>
<!-- Node5&#45;&gt;Node16 -->
<g id="edge16" class="edge">
<title>Node5&#45;&gt;Node16</title>
<path fill="none" stroke="midnightblue" d="M1139.5,-112.08C1139.5,-105.01 1139.5,-94.86 1139.5,-85.99"/>
<polygon fill="midnightblue" stroke="midnightblue" points="1143,-85.75 1139.5,-75.75 1136,-85.75 1143,-85.75"/>
</g>
<!-- Node5&#45;&gt;Node17 -->
<g id="edge24" class="edge">
<title>Node5&#45;&gt;Node17</title>
<path fill="none" stroke="midnightblue" d="M1156.68,-112.48C1174.03,-103.74 1201.47,-89.54 1224.5,-76 1252.52,-59.52 1283.77,-38.82 1303.76,-25.26"/>
<polygon fill="midnightblue" stroke="midnightblue" points="1305.81,-28.1 1312.1,-19.58 1301.86,-22.32 1305.81,-28.1"/>
</g>
<!-- Node5&#45;&gt;Node18 -->
<g id="edge19" class="edge">
<title>Node5&#45;&gt;Node18</title>
<path fill="none" stroke="midnightblue" d="M1219.24,-112.47C1314.44,-102.29 1472.59,-85.38 1566.85,-75.3"/>
<polygon fill="midnightblue" stroke="midnightblue" points="1567.33,-78.77 1576.9,-74.23 1566.58,-71.81 1567.33,-78.77"/>
</g>
<!-- Node5&#45;&gt;Node19 -->
<g id="edge26" class="edge">
<title>Node5&#45;&gt;Node19</title>
<path fill="none" stroke="midnightblue" d="M1162.05,-112.4C1185.3,-103.48 1222.54,-89.05 1254.5,-76 1275.52,-67.42 1279.96,-63.16 1301.5,-56 1344.71,-41.63 1395.02,-29.64 1432.09,-21.66"/>
<polygon fill="midnightblue" stroke="midnightblue" points="1433.13,-25.01 1442.18,-19.51 1431.67,-18.17 1433.13,-25.01"/>
</g>
<!-- Node5&#45;&gt;Node23 -->
<g id="edge25" class="edge">
<title>Node5&#45;&gt;Node23</title>
<path fill="none" stroke="midnightblue" d="M1178.8,-112.44C1222.06,-103.02 1291.67,-87.87 1338.47,-77.68"/>
<polygon fill="midnightblue" stroke="midnightblue" points="1339.36,-81.06 1348.39,-75.52 1337.87,-74.22 1339.36,-81.06"/>
</g>
<!-- Node24 -->
<g id="node24" class="node">
<title>Node24</title>
<g id="a_node24"><a xlink:title=" ">
<polygon fill="none" stroke="#bfbfbf" points="435,-56.5 435,-75.5 572,-75.5 572,-56.5 435,-56.5"/>
<text text-anchor="middle" x="503.5" y="-63.5" font-family="Helvetica,sans-Serif" font-size="10.00">boost/beast/websocket.hpp</text>
</a>
</g>
</g>
<!-- Node5&#45;&gt;Node24 -->
<g id="edge27" class="edge">
<title>Node5&#45;&gt;Node24</title>
<path fill="none" stroke="midnightblue" d="M1049.54,-114.7C941.28,-106.91 753.73,-92.71 582.35,-76.05"/>
<polygon fill="midnightblue" stroke="midnightblue" points="582.68,-72.57 572.39,-75.08 582,-79.53 582.68,-72.57"/>
</g>
<!-- Node25 -->
<g id="node25" class="node">
<title>Node25</title>
<g id="a_node25"><a xlink:title=" ">
<polygon fill="none" stroke="#bfbfbf" points="590.5,-56.5 590.5,-75.5 742.5,-75.5 742.5,-56.5 590.5,-56.5"/>
<text text-anchor="middle" x="666.5" y="-63.5" font-family="Helvetica,sans-Serif" font-size="10.00">boost/beast/websocket/ssl.hpp</text>
</a>
</g>
</g>
<!-- Node5&#45;&gt;Node25 -->
<g id="edge28" class="edge">
<title>Node5&#45;&gt;Node25</title>
<path fill="none" stroke="midnightblue" d="M1064.81,-112.47C979.59,-102.74 840.5,-86.86 751.27,-76.68"/>
<polygon fill="midnightblue" stroke="midnightblue" points="751.52,-73.18 741.19,-75.53 750.72,-80.14 751.52,-73.18"/>
</g>
<!-- Node7 -->
<g id="node7" class="node">
<title>Node7</title>
<g id="a_node7"><a xlink:title=" ">
<polygon fill="none" stroke="#bfbfbf" points="597,-0.5 597,-19.5 638,-19.5 638,-0.5 597,-0.5"/>
<text text-anchor="middle" x="617.5" y="-7.5" font-family="Helvetica,sans-Serif" font-size="10.00">string</text>
</a>
</g>
</g>
<!-- Node6&#45;&gt;Node7 -->
<g id="edge6" class="edge">
<title>Node6&#45;&gt;Node7</title>
<path fill="none" stroke="midnightblue" d="M823.76,-56.46C779.4,-48.77 713.61,-36.51 648.1,-20.21"/>
<polygon fill="midnightblue" stroke="midnightblue" points="648.57,-16.72 638.02,-17.67 646.86,-23.5 648.57,-16.72"/>
</g>
<!-- Node8&#45;&gt;Node7 -->
<g id="edge10" class="edge">
<title>Node8&#45;&gt;Node7</title>
<path fill="none" stroke="midnightblue" d="M970.34,-57.62C967.02,-57.04 963.7,-56.49 960.5,-56 824.9,-35.27 785.78,-48.3 648.35,-20.07"/>
<polygon fill="midnightblue" stroke="midnightblue" points="648.79,-16.58 638.29,-17.96 647.36,-23.43 648.79,-16.58"/>
</g>
<!-- Node9 -->
<g id="node9" class="node">
<title>Node9</title>
<g id="a_node9"><a xlink:href="forward_8hpp.html" target="_top" xlink:title=" ">
<polygon fill="none" stroke="black" points="1051.5,-0.5 1051.5,-19.5 1165.5,-19.5 1165.5,-0.5 1051.5,-0.5"/>
<text text-anchor="middle" x="1108.5" y="-7.5" font-family="Helvetica,sans-Serif" font-size="10.00">roar/beast/forward.hpp</text>
</a>
</g>
</g>
<!-- Node8&#45;&gt;Node9 -->
<g id="edge8" class="edge">
<title>Node8&#45;&gt;Node9</title>
<path fill="none" stroke="midnightblue" d="M1023.73,-56.32C1039.85,-47.7 1064.8,-34.36 1083.46,-24.39"/>
<polygon fill="midnightblue" stroke="midnightblue" points="1085.14,-27.46 1092.31,-19.65 1081.84,-21.28 1085.14,-27.46"/>
</g>
<!-- Node10 -->
<g id="node10" class="node">
<title>Node10</title>
<g id="a_node10"><a xlink:title=" ">
<polygon fill="none" stroke="#bfbfbf" points="656,-0.5 656,-19.5 811,-19.5 811,-0.5 656,-0.5"/>
<text text-anchor="middle" x="733.5" y="-7.5" font-family="Helvetica,sans-Serif" font-size="10.00">boost/system/system_error.hpp</text>
</a>
</g>
</g>
<!-- Node8&#45;&gt;Node10 -->
<g id="edge9" class="edge">
<title>Node8&#45;&gt;Node10</title>
<path fill="none" stroke="midnightblue" d="M970.26,-57.66C922.97,-48.34 841.05,-32.2 787.06,-21.56"/>
<polygon fill="midnightblue" stroke="midnightblue" points="787.48,-18.07 776.99,-19.57 786.12,-24.94 787.48,-18.07"/>
</g>
<!-- Node8&#45;&gt;Node11 -->
<g id="edge11" class="edge">
<title>Node8&#45;&gt;Node11</title>
<path fill="none" stroke="midnightblue" d="M970.35,-57.56C967.03,-56.99 963.71,-56.46 960.5,-56 798.86,-32.78 752.98,-49.97 588.76,-19.92"/>
<polygon fill="midnightblue" stroke="midnightblue" points="589.28,-16.46 578.81,-18.07 588,-23.34 589.28,-16.46"/>
</g>
<!-- Node12 -->
<g id="node12" class="node">
<title>Node12</title>
<g id="a_node12"><a xlink:title=" ">
<polygon fill="none" stroke="#bfbfbf" points="829.5,-0.5 829.5,-19.5 879.5,-19.5 879.5,-0.5 829.5,-0.5"/>
<text text-anchor="middle" x="854.5" y="-7.5" font-family="Helvetica,sans-Serif" font-size="10.00">optional</text>
</a>
</g>
</g>
<!-- Node8&#45;&gt;Node12 -->
<g id="edge12" class="edge">
<title>Node8&#45;&gt;Node12</title>
<path fill="none" stroke="midnightblue" d="M983.26,-56.44C957.63,-47.4 917.01,-33.06 888.26,-22.92"/>
<polygon fill="midnightblue" stroke="midnightblue" points="889.22,-19.54 878.63,-19.52 886.89,-26.15 889.22,-19.54"/>
</g>
<!-- Node13 -->
<g id="node13" class="node">
<title>Node13</title>
<g id="a_node13"><a xlink:title=" ">
<polygon fill="none" stroke="#bfbfbf" points="1184,-0.5 1184,-19.5 1243,-19.5 1243,-0.5 1184,-0.5"/>
<text text-anchor="middle" x="1213.5" y="-7.5" font-family="Helvetica,sans-Serif" font-size="10.00">functional</text>
</a>
</g>
</g>
<!-- Node8&#45;&gt;Node13 -->
<g id="edge13" class="edge">
<title>Node8&#45;&gt;Node13</title>
<path fill="none" stroke="midnightblue" d="M1040.14,-56.44C1076.38,-46.94 1134.89,-31.61 1173.76,-21.42"/>
<polygon fill="midnightblue" stroke="midnightblue" points="1174.9,-24.74 1183.69,-18.82 1173.13,-17.97 1174.9,-24.74"/>
</g>
<!-- Node14 -->
<g id="node14" class="node">
<title>Node14</title>
<g id="a_node14"><a xlink:title=" ">
<polygon fill="none" stroke="#bfbfbf" points="897.5,-0.5 897.5,-19.5 963.5,-19.5 963.5,-0.5 897.5,-0.5"/>
<text text-anchor="middle" x="930.5" y="-7.5" font-family="Helvetica,sans-Serif" font-size="10.00">string_view</text>
</a>
</g>
</g>
<!-- Node8&#45;&gt;Node14 -->
<g id="edge14" class="edge">
<title>Node8&#45;&gt;Node14</title>
<path fill="none" stroke="midnightblue" d="M995.13,-56.32C983.34,-48.06 965.37,-35.45 951.36,-25.63"/>
<polygon fill="midnightblue" stroke="midnightblue" points="953.04,-22.53 942.84,-19.65 949.02,-28.26 953.04,-22.53"/>
</g>
<!-- Node15 -->
<g id="node15" class="node">
<title>Node15</title>
<g id="a_node15"><a xlink:title=" ">
<polygon fill="none" stroke="#bfbfbf" points="981.5,-0.5 981.5,-19.5 1033.5,-19.5 1033.5,-0.5 981.5,-0.5"/>
<text text-anchor="middle" x="1007.5" y="-7.5" font-family="Helvetica,sans-Serif" font-size="10.00">sstream</text>
</a>
</g>
</g>
<!-- Node8&#45;&gt;Node15 -->
<g id="edge15" class="edge">
<title>Node8&#45;&gt;Node15</title>
<path fill="none" stroke="midnightblue" d="M1007.5,-56.08C1007.5,-49.01 1007.5,-38.86 1007.5,-29.99"/>
<polygon fill="midnightblue" stroke="midnightblue" points="1011,-29.75 1007.5,-19.75 1004,-29.75 1011,-29.75"/>
</g>
<!-- Node16&#45;&gt;Node13 -->
<g id="edge17" class="edge">
<title>Node16&#45;&gt;Node13</title>
<path fill="none" stroke="midnightblue" d="M1151.39,-56.32C1162.65,-48.11 1179.79,-35.6 1193.21,-25.81"/>
<polygon fill="midnightblue" stroke="midnightblue" points="1195.38,-28.56 1201.39,-19.83 1191.25,-22.9 1195.38,-28.56"/>
</g>
<!-- Node16&#45;&gt;Node17 -->
<g id="edge18" class="edge">
<title>Node16&#45;&gt;Node17</title>
<path fill="none" stroke="midnightblue" d="M1168.81,-56.44C1200.34,-47.24 1250.63,-32.56 1285.49,-22.39"/>
<polygon fill="midnightblue" stroke="midnightblue" points="1286.7,-25.68 1295.32,-19.52 1284.74,-18.96 1286.7,-25.68"/>
</g>
<!-- Node18&#45;&gt;Node19 -->
<g id="edge20" class="edge">
<title>Node18&#45;&gt;Node19</title>
<path fill="none" stroke="midnightblue" d="M1619.31,-56.44C1592.56,-47.36 1550.1,-32.94 1520.19,-22.78"/>
<polygon fill="midnightblue" stroke="midnightblue" points="1521.17,-19.42 1510.58,-19.52 1518.92,-26.05 1521.17,-19.42"/>
</g>
<!-- Node20 -->
<g id="node20" class="node">
<title>Node20</title>
<g id="a_node20"><a xlink:title=" ">
<polygon fill="none" stroke="#bfbfbf" points="1583.5,-0.5 1583.5,-19.5 1741.5,-19.5 1741.5,-0.5 1583.5,-0.5"/>
<text text-anchor="middle" x="1662.5" y="-7.5" font-family="Helvetica,sans-Serif" font-size="10.00">boost/beast/core/rate_policy.hpp</text>
</a>
</g>
</g>
<!-- Node18&#45;&gt;Node20 -->
<g id="edge21" class="edge">
<title>Node18&#45;&gt;Node20</title>
<path fill="none" stroke="midnightblue" d="M1647.47,-56.08C1649.88,-48.85 1653.36,-38.41 1656.37,-29.4"/>
<polygon fill="midnightblue" stroke="midnightblue" points="1659.74,-30.34 1659.58,-19.75 1653.1,-28.13 1659.74,-30.34"/>
</g>
<!-- Node21 -->
<g id="node21" class="node">
<title>Node21</title>
<g id="a_node21"><a xlink:title=" ">
<polygon fill="none" stroke="#bfbfbf" points="1759,-0.5 1759,-19.5 1866,-19.5 1866,-0.5 1759,-0.5"/>
<text text-anchor="middle" x="1812.5" y="-7.5" font-family="Helvetica,sans-Serif" font-size="10.00">boost/asio/ip/tcp.hpp</text>
</a>
</g>
</g>
<!-- Node18&#45;&gt;Node21 -->
<g id="edge22" class="edge">
<title>Node18&#45;&gt;Node21</title>
<path fill="none" stroke="midnightblue" d="M1671.12,-56.44C1699.51,-47.32 1744.64,-32.81 1776.25,-22.65"/>
<polygon fill="midnightblue" stroke="midnightblue" points="1777.56,-25.91 1786,-19.52 1775.41,-19.24 1777.56,-25.91"/>
</g>
<!-- Node22 -->
<g id="node22" class="node">
<title>Node22</title>
<g id="a_node22"><a xlink:title=" ">
<polygon fill="none" stroke="#bfbfbf" points="1884,-0.5 1884,-19.5 2039,-19.5 2039,-0.5 1884,-0.5"/>
<text text-anchor="middle" x="1961.5" y="-7.5" font-family="Helvetica,sans-Serif" font-size="10.00">boost/asio/any_io_executor.hpp</text>
</a>
</g>
</g>
<!-- Node18&#45;&gt;Node22 -->
<g id="edge23" class="edge">
<title>Node18&#45;&gt;Node22</title>
<path fill="none" stroke="midnightblue" d="M1694.73,-56.44C1750.84,-46.89 1841.63,-31.42 1901.45,-21.23"/>
<polygon fill="midnightblue" stroke="midnightblue" points="1902.24,-24.65 1911.51,-19.52 1901.06,-17.75 1902.24,-24.65"/>
</g>
</g>
</svg>
