<?xml version="1.0" encoding="UTF-8" standalone="no"?>
<!DOCTYPE svg PUBLIC "-//W3C//DTD SVG 1.1//EN"
 "http://www.w3.org/Graphics/SVG/1.1/DTD/svg11.dtd">
<!-- Generated by graphviz version 2.44.1 (20211215.1903)
 -->
<!-- Title: src/roar/websocket/websocket_session.cpp Pages: 1 -->
<!--zoomable 252 -->
<svg id="main" version="1.1" xmlns="http://www.w3.org/2000/svg" xmlns:xlink="http://www.w3.org/1999/xlink" xml:space="preserve" onload="init(evt)">
<style type="text/css"><![CDATA[
.edge:hover path { stroke: red; }
.edge:hover polygon { stroke: red; fill: red; }
]]></style>
<script type="text/javascript"><![CDATA[
var edges = document.getElementsByTagName('g');
if (edges && edges.length) {
  for (var i=0;i<edges.length;i++) {
    if (edges[i].id.substr(0,4)=='edge') {
      edges[i].setAttribute('class','edge');
    }
  }
}
]]></script>
        <defs>
                <circle id="rim" cx="0" cy="0" r="7"/>
                <circle id="rim2" cx="0" cy="0" r="3.5"/>
                <g id="zoomPlus">
                        <use xlink:href="#rim" fill="#404040">
                                <set attributeName="fill" to="#808080" begin="zoomplus.mouseover" end="zoomplus.mouseout"/>
                        </use>
                        <path d="M-4,0h8M0,-4v8" fill="none" stroke="white" stroke-width="1.5" pointer-events="none"/>
                </g>
                <g id="zoomMin">
                        <use xlink:href="#rim" fill="#404040">
                                <set attributeName="fill" to="#808080" begin="zoomminus.mouseover" end="zoomminus.mouseout"/>
                        </use>
                        <path d="M-4,0h8" fill="none" stroke="white" stroke-width="1.5" pointer-events="none"/>
                </g>
                <g id="dirArrow">
                        <path fill="none" stroke="white" stroke-width="1.5" d="M0,-3.0v7 M-2.5,-0.5L0,-3.0L2.5,-0.5"/>
                </g>
               <g id="resetDef">
                       <use xlink:href="#rim2" fill="#404040">
                               <set attributeName="fill" to="#808080" begin="reset.mouseover" end="reset.mouseout"/>
                       </use>
               </g>
        </defs>

<script type="text/javascript">
var viewWidth = 2876;
var viewHeight = 252;
var sectionId = 'dynsection-0';
</script>
<script xlink:href="svgpan.js"/>
<svg id="graph" class="graph">
<g id="viewport">
<title>src/roar/websocket/websocket_session.cpp</title>
<!-- Node1 -->
<g id="node1" class="node">
<title>Node1</title>
<g id="a_node1"><a xlink:title=" ">
<polygon fill="#bfbfbf" stroke="black" points="2022.5,-224.5 2022.5,-243.5 2230.5,-243.5 2230.5,-224.5 2022.5,-224.5"/>
<text text-anchor="middle" x="2126.5" y="-231.5" font-family="Helvetica,sans-Serif" font-size="10.00">src/roar/websocket/websocket_session.cpp</text>
</a>
</g>
</g>
<!-- Node2 -->
<g id="node2" class="node">
<title>Node2</title>
<g id="a_node2"><a xlink:href="websocket__session_8hpp.html" target="_top" xlink:title=" ">
<polygon fill="none" stroke="black" points="617,-168.5 617,-187.5 808,-187.5 808,-168.5 617,-168.5"/>
<text text-anchor="middle" x="712.5" y="-175.5" font-family="Helvetica,sans-Serif" font-size="10.00">roar/websocket/websocket_session.hpp</text>
</a>
</g>
</g>
<!-- Node1&#45;&gt;Node2 -->
<g id="edge1" class="edge">
<title>Node1&#45;&gt;Node2</title>
<path fill="none" stroke="midnightblue" d="M2022.24,-229.02C1761.13,-219.05 1081.3,-193.08 818.42,-183.05"/>
<polygon fill="midnightblue" stroke="midnightblue" points="818.24,-179.54 808.11,-182.65 817.97,-186.53 818.24,-179.54"/>
</g>
<!-- Node9 -->
<g id="node9" class="node">
<title>Node9</title>
<g id="a_node9"><a xlink:href="error_8hpp.html" target="_top" xlink:title=" ">
<polygon fill="none" stroke="black" points="1292.5,-56.5 1292.5,-75.5 1366.5,-75.5 1366.5,-56.5 1292.5,-56.5"/>
<text text-anchor="middle" x="1329.5" y="-63.5" font-family="Helvetica,sans-Serif" font-size="10.00">roar/error.hpp</text>
</a>
</g>
</g>
<!-- Node1&#45;&gt;Node9 -->
<g id="edge50" class="edge">
<title>Node1&#45;&gt;Node9</title>
<path fill="none" stroke="midnightblue" d="M2022.15,-227.96C1809.31,-216.6 1341.11,-185.73 1293.5,-132 1280.29,-117.09 1296.11,-96.52 1310.75,-82.54"/>
<polygon fill="midnightblue" stroke="midnightblue" points="1313.46,-84.81 1318.57,-75.53 1308.79,-79.6 1313.46,-84.81"/>
</g>
<!-- Node24 -->
<g id="node24" class="node">
<title>Node24</title>
<g id="a_node24"><a xlink:title=" ">
<polygon fill="none" stroke="#bfbfbf" points="1997,-56.5 1997,-75.5 2134,-75.5 2134,-56.5 1997,-56.5"/>
<text text-anchor="middle" x="2065.5" y="-63.5" font-family="Helvetica,sans-Serif" font-size="10.00">boost/beast/websocket.hpp</text>
</a>
</g>
</g>
<!-- Node1&#45;&gt;Node24 -->
<g id="edge51" class="edge">
<title>Node1&#45;&gt;Node24</title>
<path fill="none" stroke="midnightblue" d="M2230.6,-228C2418.44,-217.09 2788.51,-185.93 2719.5,-112 2680.99,-70.75 2309.55,-66.41 2144.21,-66.54"/>
<polygon fill="midnightblue" stroke="midnightblue" points="2144.09,-63.04 2134.1,-66.56 2144.1,-70.04 2144.09,-63.04"/>
</g>
<!-- Node27 -->
<g id="node27" class="node">
<title>Node27</title>
<g id="a_node27"><a xlink:href="request_8hpp.html" target="_top" xlink:title=" ">
<polygon fill="none" stroke="black" points="2083,-168.5 2083,-187.5 2170,-187.5 2170,-168.5 2083,-168.5"/>
<text text-anchor="middle" x="2126.5" y="-175.5" font-family="Helvetica,sans-Serif" font-size="10.00">roar/request.hpp</text>
</a>
</g>
</g>
<!-- Node1&#45;&gt;Node27 -->
<g id="edge37" class="edge">
<title>Node1&#45;&gt;Node27</title>
<path fill="none" stroke="midnightblue" d="M2126.5,-224.08C2126.5,-217.01 2126.5,-206.86 2126.5,-197.99"/>
<polygon fill="midnightblue" stroke="midnightblue" points="2130,-197.75 2126.5,-187.75 2123,-197.75 2130,-197.75"/>
</g>
<!-- Node37 -->
<g id="node37" class="node">
<title>Node37</title>
<g id="a_node37"><a xlink:title=" ">
<polygon fill="none" stroke="#bfbfbf" points="2805.5,-168.5 2805.5,-187.5 2867.5,-187.5 2867.5,-168.5 2805.5,-168.5"/>
<text text-anchor="middle" x="2836.5" y="-175.5" font-family="Helvetica,sans-Serif" font-size="10.00">type_traits</text>
</a>
</g>
</g>
<!-- Node1&#45;&gt;Node37 -->
<g id="edge52" class="edge">
<title>Node1&#45;&gt;Node37</title>
<path fill="none" stroke="midnightblue" d="M2230.58,-230.14C2361.84,-225.57 2594.21,-214.29 2791.5,-188 2792.61,-187.85 2793.72,-187.69 2794.85,-187.53"/>
<polygon fill="midnightblue" stroke="midnightblue" points="2795.83,-190.91 2805.12,-185.82 2794.68,-184.01 2795.83,-190.91"/>
</g>
<!-- Node3 -->
<g id="node3" class="node">
<title>Node3</title>
<g id="a_node3"><a xlink:href="pimpl__special__functions_8hpp.html" target="_top" xlink:title=" ">
<polygon fill="none" stroke="black" points="0,-112.5 0,-131.5 185,-131.5 185,-112.5 0,-112.5"/>
<text text-anchor="middle" x="92.5" y="-119.5" font-family="Helvetica,sans-Serif" font-size="10.00">roar/detail/pimpl_special_functions.hpp</text>
</a>
</g>
</g>
<!-- Node2&#45;&gt;Node3 -->
<g id="edge2" class="edge">
<title>Node2&#45;&gt;Node3</title>
<path fill="none" stroke="midnightblue" d="M616.84,-168.77C514.93,-160 348.59,-145.62 195.31,-132.16"/>
<polygon fill="midnightblue" stroke="midnightblue" points="195.51,-128.66 185.24,-131.27 194.89,-135.63 195.51,-128.66"/>
</g>
<!-- Node4 -->
<g id="node4" class="node">
<title>Node4</title>
<g id="a_node4"><a xlink:href="shared__from__base_8hpp.html" target="_top" xlink:title=" ">
<polygon fill="none" stroke="black" points="203,-112.5 203,-131.5 364,-131.5 364,-112.5 203,-112.5"/>
<text text-anchor="middle" x="283.5" y="-119.5" font-family="Helvetica,sans-Serif" font-size="10.00">roar/detail/shared_from_base.hpp</text>
</a>
</g>
</g>
<!-- Node2&#45;&gt;Node4 -->
<g id="edge3" class="edge">
<title>Node2&#45;&gt;Node4</title>
<path fill="none" stroke="midnightblue" d="M644.52,-168.44C567.49,-158.75 442.16,-142.97 361.28,-132.79"/>
<polygon fill="midnightblue" stroke="midnightblue" points="361.52,-129.29 351.16,-131.52 360.64,-136.24 361.52,-129.29"/>
</g>
<!-- Node5 -->
<g id="node5" class="node">
<title>Node5</title>
<g id="a_node5"><a xlink:title=" ">
<polygon fill="none" stroke="#bfbfbf" points="303.5,-56.5 303.5,-75.5 355.5,-75.5 355.5,-56.5 303.5,-56.5"/>
<text text-anchor="middle" x="329.5" y="-63.5" font-family="Helvetica,sans-Serif" font-size="10.00">memory</text>
</a>
</g>
</g>
<!-- Node2&#45;&gt;Node5 -->
<g id="edge35" class="edge">
<title>Node2&#45;&gt;Node5</title>
<path fill="none" stroke="midnightblue" d="M617,-174.27C557.39,-169.75 480.16,-158.63 416.5,-132 388.95,-120.47 362.19,-98.33 345.78,-83.12"/>
<polygon fill="midnightblue" stroke="midnightblue" points="347.85,-80.25 338.2,-75.89 343.02,-85.32 347.85,-80.25"/>
</g>
<!-- Node6 -->
<g id="node6" class="node">
<title>Node6</title>
<g id="a_node6"><a xlink:href="websocket__base_8hpp.html" target="_top" xlink:title=" ">
<polygon fill="none" stroke="black" points="849,-112.5 849,-131.5 1028,-131.5 1028,-112.5 849,-112.5"/>
<text text-anchor="middle" x="938.5" y="-119.5" font-family="Helvetica,sans-Serif" font-size="10.00">roar/websocket/websocket_base.hpp</text>
</a>
</g>
</g>
<!-- Node2&#45;&gt;Node6 -->
<g id="edge5" class="edge">
<title>Node2&#45;&gt;Node6</title>
<path fill="none" stroke="midnightblue" d="M748.31,-168.44C787.49,-159.08 850.38,-144.06 893.02,-133.87"/>
<polygon fill="midnightblue" stroke="midnightblue" points="893.94,-137.24 902.86,-131.52 892.32,-130.44 893.94,-137.24"/>
</g>
<!-- Node12 -->
<g id="node12" class="node">
<title>Node12</title>
<g id="a_node12"><a xlink:title=" ">
<polygon fill="none" stroke="#bfbfbf" points="1145.5,-0.5 1145.5,-19.5 1191.5,-19.5 1191.5,-0.5 1145.5,-0.5"/>
<text text-anchor="middle" x="1168.5" y="-7.5" font-family="Helvetica,sans-Serif" font-size="10.00">variant</text>
</a>
</g>
</g>
<!-- Node2&#45;&gt;Node12 -->
<g id="edge36" class="edge">
<title>Node2&#45;&gt;Node12</title>
<path fill="none" stroke="midnightblue" d="M808.28,-172.15C873.78,-166.8 961.9,-155.56 1036.5,-132 1055.08,-126.13 1057.14,-118.52 1075.5,-112 1148.28,-86.15 1196.87,-136 1245.5,-76 1262.94,-54.48 1229.35,-34.72 1201.19,-22.77"/>
<polygon fill="midnightblue" stroke="midnightblue" points="1202.13,-19.37 1191.54,-18.88 1199.51,-25.86 1202.13,-19.37"/>
</g>
<!-- Node17 -->
<g id="node17" class="node">
<title>Node17</title>
<g id="a_node17"><a xlink:title=" ">
<polygon fill="none" stroke="#bfbfbf" points="923.5,-0.5 923.5,-19.5 1049.5,-19.5 1049.5,-0.5 923.5,-0.5"/>
<text text-anchor="middle" x="986.5" y="-7.5" font-family="Helvetica,sans-Serif" font-size="10.00">promise&#45;cpp/promise.hpp</text>
</a>
</g>
</g>
<!-- Node2&#45;&gt;Node17 -->
<g id="edge34" class="edge">
<title>Node2&#45;&gt;Node17</title>
<path fill="none" stroke="midnightblue" d="M720.51,-168.45C741.22,-146.79 799.02,-89.14 857.5,-56 883.83,-41.08 915.95,-29.86 941.55,-22.35"/>
<polygon fill="midnightblue" stroke="midnightblue" points="942.71,-25.66 951.37,-19.56 940.8,-18.93 942.71,-25.66"/>
</g>
<!-- Node18 -->
<g id="node18" class="node">
<title>Node18</title>
<g id="a_node18"><a xlink:href="stream__type_8hpp.html" target="_top" xlink:title=" ">
<polygon fill="none" stroke="black" points="645,-56.5 645,-75.5 780,-75.5 780,-56.5 645,-56.5"/>
<text text-anchor="middle" x="712.5" y="-63.5" font-family="Helvetica,sans-Serif" font-size="10.00">roar/detail/stream_type.hpp</text>
</a>
</g>
</g>
<!-- Node2&#45;&gt;Node18 -->
<g id="edge30" class="edge">
<title>Node2&#45;&gt;Node18</title>
<path fill="none" stroke="midnightblue" d="M712.5,-168.37C712.5,-150.62 712.5,-109.67 712.5,-85.6"/>
<polygon fill="midnightblue" stroke="midnightblue" points="716,-85.59 712.5,-75.59 709,-85.59 716,-85.59"/>
</g>
<!-- Node19 -->
<g id="node19" class="node">
<title>Node19</title>
<g id="a_node19"><a xlink:title=" ">
<polygon fill="none" stroke="#bfbfbf" points="271.5,-0.5 271.5,-19.5 431.5,-19.5 431.5,-0.5 271.5,-0.5"/>
<text text-anchor="middle" x="351.5" y="-7.5" font-family="Helvetica,sans-Serif" font-size="10.00">boost/beast/core/tcp_stream.hpp</text>
</a>
</g>
</g>
<!-- Node2&#45;&gt;Node19 -->
<g id="edge33" class="edge">
<title>Node2&#45;&gt;Node19</title>
<path fill="none" stroke="midnightblue" d="M673.81,-168.39C616.71,-154.62 507.78,-124.16 425.5,-76 402.59,-62.59 380.25,-41.54 366.22,-27.05"/>
<polygon fill="midnightblue" stroke="midnightblue" points="368.74,-24.62 359.32,-19.76 363.65,-29.43 368.74,-24.62"/>
</g>
<!-- Node23 -->
<g id="node23" class="node">
<title>Node23</title>
<g id="a_node23"><a xlink:title=" ">
<polygon fill="none" stroke="#bfbfbf" points="435,-56.5 435,-75.5 588,-75.5 588,-56.5 435,-56.5"/>
<text text-anchor="middle" x="511.5" y="-63.5" font-family="Helvetica,sans-Serif" font-size="10.00">boost/beast/ssl/ssl_stream.hpp</text>
</a>
</g>
</g>
<!-- Node2&#45;&gt;Node23 -->
<g id="edge32" class="edge">
<title>Node2&#45;&gt;Node23</title>
<path fill="none" stroke="midnightblue" d="M696.73,-168.37C661.87,-149.29 578.05,-103.42 536.18,-80.51"/>
<polygon fill="midnightblue" stroke="midnightblue" points="537.65,-77.32 527.2,-75.59 534.29,-83.46 537.65,-77.32"/>
</g>
<!-- Node26 -->
<g id="node26" class="node">
<title>Node26</title>
<g id="a_node26"><a xlink:title=" ">
<polygon fill="none" stroke="#bfbfbf" points="1085,-112.5 1085,-131.5 1246,-131.5 1246,-112.5 1085,-112.5"/>
<text text-anchor="middle" x="1165.5" y="-119.5" font-family="Helvetica,sans-Serif" font-size="10.00">boost/beast/http/empty_body.hpp</text>
</a>
</g>
</g>
<!-- Node2&#45;&gt;Node26 -->
<g id="edge31" class="edge">
<title>Node2&#45;&gt;Node26</title>
<path fill="none" stroke="midnightblue" d="M784.28,-168.44C865.79,-158.73 998.51,-142.91 1083.89,-132.73"/>
<polygon fill="midnightblue" stroke="midnightblue" points="1084.54,-136.18 1094.06,-131.52 1083.71,-129.22 1084.54,-136.18"/>
</g>
<!-- Node4&#45;&gt;Node5 -->
<g id="edge4" class="edge">
<title>Node4&#45;&gt;Node5</title>
<path fill="none" stroke="midnightblue" d="M291.1,-112.08C297.73,-104.3 307.52,-92.8 315.56,-83.37"/>
<polygon fill="midnightblue" stroke="midnightblue" points="318.23,-85.63 322.05,-75.75 312.9,-81.09 318.23,-85.63"/>
</g>
<!-- Node7 -->
<g id="node7" class="node">
<title>Node7</title>
<g id="a_node7"><a xlink:href="read__result_8hpp.html" target="_top" xlink:title=" ">
<polygon fill="none" stroke="black" points="1448,-56.5 1448,-75.5 1601,-75.5 1601,-56.5 1448,-56.5"/>
<text text-anchor="middle" x="1524.5" y="-63.5" font-family="Helvetica,sans-Serif" font-size="10.00">roar/websocket/read_result.hpp</text>
</a>
</g>
</g>
<!-- Node6&#45;&gt;Node7 -->
<g id="edge6" class="edge">
<title>Node6&#45;&gt;Node7</title>
<path fill="none" stroke="midnightblue" d="M1028.14,-112.74C1139.44,-102.48 1328.01,-85.11 1437.89,-74.98"/>
<polygon fill="midnightblue" stroke="midnightblue" points="1438.31,-78.46 1447.95,-74.05 1437.67,-71.49 1438.31,-78.46"/>
</g>
<!-- Node6&#45;&gt;Node9 -->
<g id="edge8" class="edge">
<title>Node6&#45;&gt;Node9</title>
<path fill="none" stroke="midnightblue" d="M1000.46,-112.44C1078.75,-101.63 1211.8,-83.26 1282.34,-73.51"/>
<polygon fill="midnightblue" stroke="midnightblue" points="1282.85,-76.98 1292.28,-72.14 1281.89,-70.04 1282.85,-76.98"/>
</g>
<!-- Node6&#45;&gt;Node12 -->
<g id="edge29" class="edge">
<title>Node6&#45;&gt;Node12</title>
<path fill="none" stroke="midnightblue" d="M957.77,-112.45C977.62,-103.57 1009.39,-89.17 1036.5,-76 1054.02,-67.49 1058.06,-64.69 1075.5,-56 1097.65,-44.96 1122.93,-32.76 1141.54,-23.84"/>
<polygon fill="midnightblue" stroke="midnightblue" points="1143.1,-26.98 1150.61,-19.5 1140.08,-20.66 1143.1,-26.98"/>
</g>
<!-- Node16 -->
<g id="node16" class="node">
<title>Node16</title>
<g id="a_node16"><a xlink:href="promise__compat_8hpp.html" target="_top" xlink:title=" ">
<polygon fill="none" stroke="black" points="875,-56.5 875,-75.5 1028,-75.5 1028,-56.5 875,-56.5"/>
<text text-anchor="middle" x="951.5" y="-63.5" font-family="Helvetica,sans-Serif" font-size="10.00">roar/detail/promise_compat.hpp</text>
</a>
</g>
</g>
<!-- Node6&#45;&gt;Node16 -->
<g id="edge16" class="edge">
<title>Node6&#45;&gt;Node16</title>
<path fill="none" stroke="midnightblue" d="M940.65,-112.08C942.37,-104.93 944.85,-94.64 947,-85.69"/>
<polygon fill="midnightblue" stroke="midnightblue" points="950.46,-86.29 949.39,-75.75 943.65,-84.65 950.46,-86.29"/>
</g>
<!-- Node6&#45;&gt;Node17 -->
<g id="edge24" class="edge">
<title>Node6&#45;&gt;Node17</title>
<path fill="none" stroke="midnightblue" d="M914.7,-112.34C887.52,-101.07 848.84,-79.97 865.5,-56 876.88,-39.63 894.96,-29.2 913.72,-22.56"/>
<polygon fill="midnightblue" stroke="midnightblue" points="914.79,-25.89 923.25,-19.51 912.66,-19.22 914.79,-25.89"/>
</g>
<!-- Node6&#45;&gt;Node18 -->
<g id="edge19" class="edge">
<title>Node6&#45;&gt;Node18</title>
<path fill="none" stroke="midnightblue" d="M902.69,-112.44C863.51,-103.08 800.62,-88.06 757.98,-77.87"/>
<polygon fill="midnightblue" stroke="midnightblue" points="758.68,-74.44 748.14,-75.52 757.06,-81.24 758.68,-74.44"/>
</g>
<!-- Node6&#45;&gt;Node19 -->
<g id="edge26" class="edge">
<title>Node6&#45;&gt;Node19</title>
<path fill="none" stroke="midnightblue" d="M848.92,-115.4C787.67,-109.72 705.25,-98.39 635.5,-76 616.95,-70.05 614.94,-62.27 596.5,-56 546.04,-38.84 487.39,-27.78 440.12,-20.91"/>
<polygon fill="midnightblue" stroke="midnightblue" points="440.61,-17.45 430.22,-19.51 439.63,-24.38 440.61,-17.45"/>
</g>
<!-- Node6&#45;&gt;Node23 -->
<g id="edge25" class="edge">
<title>Node6&#45;&gt;Node23</title>
<path fill="none" stroke="midnightblue" d="M870.84,-112.44C794.17,-102.75 669.42,-86.97 588.92,-76.79"/>
<polygon fill="midnightblue" stroke="midnightblue" points="589.2,-73.3 578.84,-75.52 588.32,-80.24 589.2,-73.3"/>
</g>
<!-- Node6&#45;&gt;Node24 -->
<g id="edge27" class="edge">
<title>Node6&#45;&gt;Node24</title>
<path fill="none" stroke="midnightblue" d="M1028.02,-114.86C1043.84,-113.85 1060.15,-112.85 1075.5,-112 1414.34,-93.17 1818.75,-76.64 1986.54,-70.05"/>
<polygon fill="midnightblue" stroke="midnightblue" points="1986.91,-73.54 1996.76,-69.65 1986.63,-66.54 1986.91,-73.54"/>
</g>
<!-- Node25 -->
<g id="node25" class="node">
<title>Node25</title>
<g id="a_node25"><a xlink:title=" ">
<polygon fill="none" stroke="#bfbfbf" points="1084.5,-56.5 1084.5,-75.5 1236.5,-75.5 1236.5,-56.5 1084.5,-56.5"/>
<text text-anchor="middle" x="1160.5" y="-63.5" font-family="Helvetica,sans-Serif" font-size="10.00">boost/beast/websocket/ssl.hpp</text>
</a>
</g>
</g>
<!-- Node6&#45;&gt;Node25 -->
<g id="edge28" class="edge">
<title>Node6&#45;&gt;Node25</title>
<path fill="none" stroke="midnightblue" d="M973.68,-112.44C1012.08,-103.1 1073.68,-88.12 1115.56,-77.93"/>
<polygon fill="midnightblue" stroke="midnightblue" points="1116.6,-81.28 1125.49,-75.52 1114.94,-74.48 1116.6,-81.28"/>
</g>
<!-- Node8 -->
<g id="node8" class="node">
<title>Node8</title>
<g id="a_node8"><a xlink:title=" ">
<polygon fill="none" stroke="#bfbfbf" points="1600,-0.5 1600,-19.5 1641,-19.5 1641,-0.5 1600,-0.5"/>
<text text-anchor="middle" x="1620.5" y="-7.5" font-family="Helvetica,sans-Serif" font-size="10.00">string</text>
</a>
</g>
</g>
<!-- Node7&#45;&gt;Node8 -->
<g id="edge7" class="edge">
<title>Node7&#45;&gt;Node8</title>
<path fill="none" stroke="midnightblue" d="M1539.92,-56.32C1555.04,-47.82 1578.32,-34.73 1595.97,-24.8"/>
<polygon fill="midnightblue" stroke="midnightblue" points="1598.11,-27.61 1605.11,-19.65 1594.68,-21.51 1598.11,-27.61"/>
</g>
<!-- Node9&#45;&gt;Node8 -->
<g id="edge11" class="edge">
<title>Node9&#45;&gt;Node8</title>
<path fill="none" stroke="midnightblue" d="M1366.52,-60.05C1415.48,-53.2 1504.57,-39.64 1590.07,-19.84"/>
<polygon fill="midnightblue" stroke="midnightblue" points="1591,-23.22 1599.93,-17.53 1589.4,-16.41 1591,-23.22"/>
</g>
<!-- Node10 -->
<g id="node10" class="node">
<title>Node10</title>
<g id="a_node10"><a xlink:href="forward_8hpp.html" target="_top" xlink:title=" ">
<polygon fill="none" stroke="black" points="1209.5,-0.5 1209.5,-19.5 1323.5,-19.5 1323.5,-0.5 1209.5,-0.5"/>
<text text-anchor="middle" x="1266.5" y="-7.5" font-family="Helvetica,sans-Serif" font-size="10.00">roar/beast/forward.hpp</text>
</a>
</g>
</g>
<!-- Node9&#45;&gt;Node10 -->
<g id="edge9" class="edge">
<title>Node9&#45;&gt;Node10</title>
<path fill="none" stroke="midnightblue" d="M1319.38,-56.32C1309.97,-48.26 1295.76,-36.08 1284.43,-26.37"/>
<polygon fill="midnightblue" stroke="midnightblue" points="1286.68,-23.68 1276.81,-19.83 1282.12,-29 1286.68,-23.68"/>
</g>
<!-- Node11 -->
<g id="node11" class="node">
<title>Node11</title>
<g id="a_node11"><a xlink:title=" ">
<polygon fill="none" stroke="#bfbfbf" points="1342,-0.5 1342,-19.5 1497,-19.5 1497,-0.5 1342,-0.5"/>
<text text-anchor="middle" x="1419.5" y="-7.5" font-family="Helvetica,sans-Serif" font-size="10.00">boost/system/system_error.hpp</text>
</a>
</g>
</g>
<!-- Node9&#45;&gt;Node11 -->
<g id="edge10" class="edge">
<title>Node9&#45;&gt;Node11</title>
<path fill="none" stroke="midnightblue" d="M1343.96,-56.32C1358,-47.9 1379.55,-34.97 1396.04,-25.07"/>
<polygon fill="midnightblue" stroke="midnightblue" points="1398.3,-27.8 1405.08,-19.65 1394.7,-21.8 1398.3,-27.8"/>
</g>
<!-- Node9&#45;&gt;Node12 -->
<g id="edge12" class="edge">
<title>Node9&#45;&gt;Node12</title>
<path fill="none" stroke="midnightblue" d="M1303.99,-56.44C1276.19,-47.12 1231.62,-32.17 1201.25,-21.99"/>
<polygon fill="midnightblue" stroke="midnightblue" points="1202.14,-18.59 1191.54,-18.73 1199.91,-25.23 1202.14,-18.59"/>
</g>
<!-- Node13 -->
<g id="node13" class="node">
<title>Node13</title>
<g id="a_node13"><a xlink:title=" ">
<polygon fill="none" stroke="#bfbfbf" points="2163.5,-0.5 2163.5,-19.5 2213.5,-19.5 2213.5,-0.5 2163.5,-0.5"/>
<text text-anchor="middle" x="2188.5" y="-7.5" font-family="Helvetica,sans-Serif" font-size="10.00">optional</text>
</a>
</g>
</g>
<!-- Node9&#45;&gt;Node13 -->
<g id="edge13" class="edge">
<title>Node9&#45;&gt;Node13</title>
<path fill="none" stroke="midnightblue" d="M1366.82,-61.71C1387.86,-59.91 1414.64,-57.7 1438.5,-56 1713.36,-36.41 2045.29,-18.51 2152.95,-12.85"/>
<polygon fill="midnightblue" stroke="midnightblue" points="2153.43,-16.33 2163.24,-12.31 2153.07,-9.34 2153.43,-16.33"/>
</g>
<!-- Node14 -->
<g id="node14" class="node">
<title>Node14</title>
<g id="a_node14"><a xlink:title=" ">
<polygon fill="none" stroke="#bfbfbf" points="1068,-0.5 1068,-19.5 1127,-19.5 1127,-0.5 1068,-0.5"/>
<text text-anchor="middle" x="1097.5" y="-7.5" font-family="Helvetica,sans-Serif" font-size="10.00">functional</text>
</a>
</g>
</g>
<!-- Node9&#45;&gt;Node14 -->
<g id="edge14" class="edge">
<title>Node9&#45;&gt;Node14</title>
<path fill="none" stroke="midnightblue" d="M1292.74,-56.44C1250.27,-46.56 1180.67,-30.36 1137.06,-20.21"/>
<polygon fill="midnightblue" stroke="midnightblue" points="1137.63,-16.75 1127.1,-17.89 1136.04,-23.56 1137.63,-16.75"/>
</g>
<!-- Node15 -->
<g id="node15" class="node">
<title>Node15</title>
<g id="a_node15"><a xlink:title=" ">
<polygon fill="none" stroke="#bfbfbf" points="1515.5,-0.5 1515.5,-19.5 1581.5,-19.5 1581.5,-0.5 1515.5,-0.5"/>
<text text-anchor="middle" x="1548.5" y="-7.5" font-family="Helvetica,sans-Serif" font-size="10.00">string_view</text>
</a>
</g>
</g>
<!-- Node9&#45;&gt;Node15 -->
<g id="edge15" class="edge">
<title>Node9&#45;&gt;Node15</title>
<path fill="none" stroke="midnightblue" d="M1364.2,-56.44C1402.53,-46.99 1464.28,-31.77 1505.61,-21.58"/>
<polygon fill="midnightblue" stroke="midnightblue" points="1506.52,-24.96 1515.39,-19.16 1504.85,-18.16 1506.52,-24.96"/>
</g>
<!-- Node16&#45;&gt;Node14 -->
<g id="edge17" class="edge">
<title>Node16&#45;&gt;Node14</title>
<path fill="none" stroke="midnightblue" d="M974.63,-56.44C998.98,-47.44 1037.51,-33.19 1064.92,-23.05"/>
<polygon fill="midnightblue" stroke="midnightblue" points="1066.31,-26.27 1074.47,-19.52 1063.88,-19.7 1066.31,-26.27"/>
</g>
<!-- Node16&#45;&gt;Node17 -->
<g id="edge18" class="edge">
<title>Node16&#45;&gt;Node17</title>
<path fill="none" stroke="midnightblue" d="M957.28,-56.08C962.17,-48.53 969.33,-37.49 975.33,-28.23"/>
<polygon fill="midnightblue" stroke="midnightblue" points="978.33,-30.05 980.83,-19.75 972.45,-26.24 978.33,-30.05"/>
</g>
<!-- Node18&#45;&gt;Node19 -->
<g id="edge20" class="edge">
<title>Node18&#45;&gt;Node19</title>
<path fill="none" stroke="midnightblue" d="M655.3,-56.44C591,-46.83 486.72,-31.23 418.63,-21.04"/>
<polygon fill="midnightblue" stroke="midnightblue" points="418.84,-17.53 408.43,-19.52 417.81,-24.46 418.84,-17.53"/>
</g>
<!-- Node20 -->
<g id="node20" class="node">
<title>Node20</title>
<g id="a_node20"><a xlink:title=" ">
<polygon fill="none" stroke="#bfbfbf" points="449.5,-0.5 449.5,-19.5 607.5,-19.5 607.5,-0.5 449.5,-0.5"/>
<text text-anchor="middle" x="528.5" y="-7.5" font-family="Helvetica,sans-Serif" font-size="10.00">boost/beast/core/rate_policy.hpp</text>
</a>
</g>
</g>
<!-- Node18&#45;&gt;Node20 -->
<g id="edge21" class="edge">
<title>Node18&#45;&gt;Node20</title>
<path fill="none" stroke="midnightblue" d="M683.34,-56.44C651.99,-47.24 601.97,-32.56 567.3,-22.39"/>
<polygon fill="midnightblue" stroke="midnightblue" points="568.1,-18.97 557.52,-19.52 566.13,-25.69 568.1,-18.97"/>
</g>
<!-- Node21 -->
<g id="node21" class="node">
<title>Node21</title>
<g id="a_node21"><a xlink:title=" ">
<polygon fill="none" stroke="#bfbfbf" points="625,-0.5 625,-19.5 732,-19.5 732,-0.5 625,-0.5"/>
<text text-anchor="middle" x="678.5" y="-7.5" font-family="Helvetica,sans-Serif" font-size="10.00">boost/asio/ip/tcp.hpp</text>
</a>
</g>
</g>
<!-- Node18&#45;&gt;Node21 -->
<g id="edge22" class="edge">
<title>Node18&#45;&gt;Node21</title>
<path fill="none" stroke="midnightblue" d="M706.89,-56.08C702.13,-48.53 695.18,-37.49 689.35,-28.23"/>
<polygon fill="midnightblue" stroke="midnightblue" points="692.3,-26.35 684.01,-19.75 686.38,-30.08 692.3,-26.35"/>
</g>
<!-- Node22 -->
<g id="node22" class="node">
<title>Node22</title>
<g id="a_node22"><a xlink:title=" ">
<polygon fill="none" stroke="#bfbfbf" points="750,-0.5 750,-19.5 905,-19.5 905,-0.5 750,-0.5"/>
<text text-anchor="middle" x="827.5" y="-7.5" font-family="Helvetica,sans-Serif" font-size="10.00">boost/asio/any_io_executor.hpp</text>
</a>
</g>
</g>
<!-- Node18&#45;&gt;Node22 -->
<g id="edge23" class="edge">
<title>Node18&#45;&gt;Node22</title>
<path fill="none" stroke="midnightblue" d="M730.72,-56.44C749.4,-47.68 778.66,-33.94 800.12,-23.86"/>
<polygon fill="midnightblue" stroke="midnightblue" points="801.8,-26.93 809.36,-19.52 798.82,-20.6 801.8,-26.93"/>
</g>
<!-- Node27&#45;&gt;Node8 -->
<g id="edge47" class="edge">
<title>Node27&#45;&gt;Node8</title>
<path fill="none" stroke="midnightblue" d="M2170.28,-174.52C2259.29,-169.04 2454.69,-154.53 2474.5,-132 2480.37,-125.32 2480.24,-118.79 2474.5,-112 2420.13,-47.7 1798.35,-18.29 1651.46,-12.21"/>
<polygon fill="midnightblue" stroke="midnightblue" points="1651.48,-8.71 1641.34,-11.8 1651.19,-15.71 1651.48,-8.71"/>
</g>
<!-- Node27&#45;&gt;Node13 -->
<g id="edge46" class="edge">
<title>Node27&#45;&gt;Node13</title>
<path fill="none" stroke="midnightblue" d="M2170.2,-177.02C2300.94,-176.64 2682.34,-172.08 2719.5,-132 2789.76,-56.21 2352.83,-21.63 2223.68,-13.14"/>
<polygon fill="midnightblue" stroke="midnightblue" points="2223.74,-9.64 2213.53,-12.49 2223.29,-16.62 2223.74,-9.64"/>
</g>
<!-- Node27&#45;&gt;Node26 -->
<g id="edge39" class="edge">
<title>Node27&#45;&gt;Node26</title>
<path fill="none" stroke="midnightblue" d="M2082.68,-174.88C1958.77,-168.85 1595.25,-150.76 1293.5,-132 1281.39,-131.25 1268.65,-130.41 1256.08,-129.55"/>
<polygon fill="midnightblue" stroke="midnightblue" points="1256.27,-126.06 1246.06,-128.86 1255.79,-133.04 1256.27,-126.06"/>
</g>
<!-- Node28 -->
<g id="node28" class="node">
<title>Node28</title>
<g id="a_node28"><a xlink:title=" ">
<polygon fill="none" stroke="#bfbfbf" points="2317,-112.5 2317,-131.5 2466,-131.5 2466,-112.5 2317,-112.5"/>
<text text-anchor="middle" x="2391.5" y="-119.5" font-family="Helvetica,sans-Serif" font-size="10.00">boost/beast/http/message.hpp</text>
</a>
</g>
</g>
<!-- Node27&#45;&gt;Node28 -->
<g id="edge38" class="edge">
<title>Node27&#45;&gt;Node28</title>
<path fill="none" stroke="midnightblue" d="M2168.49,-168.44C2214.91,-158.98 2289.73,-143.74 2339.74,-133.55"/>
<polygon fill="midnightblue" stroke="midnightblue" points="2340.61,-136.94 2349.71,-131.52 2339.21,-130.08 2340.61,-136.94"/>
</g>
<!-- Node29 -->
<g id="node29" class="node">
<title>Node29</title>
<g id="a_node29"><a xlink:title=" ">
<polygon fill="none" stroke="#bfbfbf" points="2522,-112.5 2522,-131.5 2711,-131.5 2711,-112.5 2522,-112.5"/>
<text text-anchor="middle" x="2616.5" y="-119.5" font-family="Helvetica,sans-Serif" font-size="10.00">boost/algorithm/string/classification.hpp</text>
</a>
</g>
</g>
<!-- Node27&#45;&gt;Node29 -->
<g id="edge40" class="edge">
<title>Node27&#45;&gt;Node29</title>
<path fill="none" stroke="midnightblue" d="M2170.42,-172.16C2250.97,-163.28 2423.74,-144.24 2529.06,-132.64"/>
<polygon fill="midnightblue" stroke="midnightblue" points="2529.48,-136.11 2539.03,-131.54 2528.71,-129.15 2529.48,-136.11"/>
</g>
<!-- Node30 -->
<g id="node30" class="node">
<title>Node30</title>
<g id="a_node30"><a xlink:title=" ">
<polygon fill="none" stroke="#bfbfbf" points="1303,-112.5 1303,-131.5 1478,-131.5 1478,-112.5 1303,-112.5"/>
<text text-anchor="middle" x="1390.5" y="-119.5" font-family="Helvetica,sans-Serif" font-size="10.00">boost/algorithm/string/constants.hpp</text>
</a>
</g>
</g>
<!-- Node27&#45;&gt;Node30 -->
<g id="edge41" class="edge">
<title>Node27&#45;&gt;Node30</title>
<path fill="none" stroke="midnightblue" d="M2082.7,-174.25C1980.67,-167.78 1718.94,-150.75 1488.27,-132.04"/>
<polygon fill="midnightblue" stroke="midnightblue" points="1488.25,-128.53 1478,-131.21 1487.68,-135.51 1488.25,-128.53"/>
</g>
<!-- Node31 -->
<g id="node31" class="node">
<title>Node31</title>
<g id="a_node31"><a xlink:title=" ">
<polygon fill="none" stroke="#bfbfbf" points="1496.5,-112.5 1496.5,-131.5 1646.5,-131.5 1646.5,-112.5 1496.5,-112.5"/>
<text text-anchor="middle" x="1571.5" y="-119.5" font-family="Helvetica,sans-Serif" font-size="10.00">boost/algorithm/string/split.hpp</text>
</a>
</g>
</g>
<!-- Node27&#45;&gt;Node31 -->
<g id="edge42" class="edge">
<title>Node27&#45;&gt;Node31</title>
<path fill="none" stroke="midnightblue" d="M2082.88,-173.03C2001.3,-165.57 1819.79,-148.77 1656.81,-132.23"/>
<polygon fill="midnightblue" stroke="midnightblue" points="1656.9,-128.72 1646.6,-131.19 1656.19,-135.68 1656.9,-128.72"/>
</g>
<!-- Node32 -->
<g id="node32" class="node">
<title>Node32</title>
<g id="a_node32"><a xlink:title=" ">
<polygon fill="none" stroke="#bfbfbf" points="1664,-112.5 1664,-131.5 1813,-131.5 1813,-112.5 1664,-112.5"/>
<text text-anchor="middle" x="1738.5" y="-119.5" font-family="Helvetica,sans-Serif" font-size="10.00">boost/algorithm/string/trim.hpp</text>
</a>
</g>
</g>
<!-- Node27&#45;&gt;Node32 -->
<g id="edge43" class="edge">
<title>Node27&#45;&gt;Node32</title>
<path fill="none" stroke="midnightblue" d="M2082.75,-170.91C2016.32,-161.67 1889.34,-143.99 1809.56,-132.89"/>
<polygon fill="midnightblue" stroke="midnightblue" points="1809.97,-129.41 1799.59,-131.5 1809.01,-136.35 1809.97,-129.41"/>
</g>
<!-- Node33 -->
<g id="node33" class="node">
<title>Node33</title>
<g id="a_node33"><a xlink:title=" ">
<polygon fill="none" stroke="#bfbfbf" points="1831.5,-112.5 1831.5,-131.5 2003.5,-131.5 2003.5,-112.5 1831.5,-112.5"/>
<text text-anchor="middle" x="1917.5" y="-119.5" font-family="Helvetica,sans-Serif" font-size="10.00">boost/beast/websocket/rfc6455.hpp</text>
</a>
</g>
</g>
<!-- Node27&#45;&gt;Node33 -->
<g id="edge44" class="edge">
<title>Node27&#45;&gt;Node33</title>
<path fill="none" stroke="midnightblue" d="M2093.38,-168.44C2057.38,-159.14 1999.73,-144.25 1960.31,-134.06"/>
<polygon fill="midnightblue" stroke="midnightblue" points="1961.02,-130.63 1950.46,-131.52 1959.27,-137.41 1961.02,-130.63"/>
</g>
<!-- Node34 -->
<g id="node34" class="node">
<title>Node34</title>
<g id="a_node34"><a xlink:title=" ">
<polygon fill="none" stroke="#bfbfbf" points="2021.5,-112.5 2021.5,-131.5 2135.5,-131.5 2135.5,-112.5 2021.5,-112.5"/>
<text text-anchor="middle" x="2078.5" y="-119.5" font-family="Helvetica,sans-Serif" font-size="10.00">boost/lexical_cast.hpp</text>
</a>
</g>
</g>
<!-- Node27&#45;&gt;Node34 -->
<g id="edge45" class="edge">
<title>Node27&#45;&gt;Node34</title>
<path fill="none" stroke="midnightblue" d="M2118.57,-168.08C2111.65,-160.3 2101.43,-148.8 2093.05,-139.37"/>
<polygon fill="midnightblue" stroke="midnightblue" points="2095.54,-136.9 2086.28,-131.75 2090.31,-141.55 2095.54,-136.9"/>
</g>
<!-- Node35 -->
<g id="node35" class="node">
<title>Node35</title>
<g id="a_node35"><a xlink:title=" ">
<polygon fill="none" stroke="#bfbfbf" points="2153.5,-112.5 2153.5,-131.5 2197.5,-131.5 2197.5,-112.5 2153.5,-112.5"/>
<text text-anchor="middle" x="2175.5" y="-119.5" font-family="Helvetica,sans-Serif" font-size="10.00">vector</text>
</a>
</g>
</g>
<!-- Node27&#45;&gt;Node35 -->
<g id="edge48" class="edge">
<title>Node27&#45;&gt;Node35</title>
<path fill="none" stroke="midnightblue" d="M2134.59,-168.08C2141.66,-160.3 2152.09,-148.8 2160.65,-139.37"/>
<polygon fill="midnightblue" stroke="midnightblue" points="2163.43,-141.51 2167.56,-131.75 2158.25,-136.8 2163.43,-141.51"/>
</g>
<!-- Node36 -->
<g id="node36" class="node">
<title>Node36</title>
<g id="a_node36"><a xlink:title=" ">
<polygon fill="none" stroke="#bfbfbf" points="2216,-112.5 2216,-131.5 2299,-131.5 2299,-112.5 2216,-112.5"/>
<text text-anchor="middle" x="2257.5" y="-119.5" font-family="Helvetica,sans-Serif" font-size="10.00">unordered_map</text>
</a>
</g>
</g>
<!-- Node27&#45;&gt;Node36 -->
<g id="edge49" class="edge">
<title>Node27&#45;&gt;Node36</title>
<path fill="none" stroke="midnightblue" d="M2147.26,-168.44C2168.82,-159.56 2202.76,-145.56 2227.29,-135.45"/>
<polygon fill="midnightblue" stroke="midnightblue" points="2228.93,-138.56 2236.84,-131.52 2226.26,-132.09 2228.93,-138.56"/>
</g>
</g>
</svg>
        <g id="navigator" transform="translate(0 0)" fill="#404254">
                <rect fill="#f2f5e9" fill-opacity="0.5" stroke="#606060" stroke-width=".5" x="0" y="0" width="60" height="60"/>
                <use id="zoomplus" xlink:href="#zoomPlus" x="17" y="9" onmousedown="handleZoom(evt,'in')"/>
                <use id="zoomminus" xlink:href="#zoomMin" x="42" y="9" onmousedown="handleZoom(evt,'out')"/>
                <use id="reset" xlink:href="#resetDef" x="30" y="36" onmousedown="handleReset()"/>
                <g id="arrowUp" xlink:href="#dirArrow" transform="translate(30 24)" onmousedown="handlePan(0,-1)">
                  <use xlink:href="#rim" fill="#404040">
                        <set attributeName="fill" to="#808080" begin="arrowUp.mouseover" end="arrowUp.mouseout"/>
                  </use>
                  <path fill="none" stroke="white" stroke-width="1.5" d="M0,-3.0v7 M-2.5,-0.5L0,-3.0L2.5,-0.5"/>
                </g>
                <g id="arrowRight" xlink:href="#dirArrow" transform="rotate(90) translate(36 -43)" onmousedown="handlePan(1,0)">
                  <use xlink:href="#rim" fill="#404040">
                        <set attributeName="fill" to="#808080" begin="arrowRight.mouseover" end="arrowRight.mouseout"/>
                  </use>
                  <path fill="none" stroke="white" stroke-width="1.5" d="M0,-3.0v7 M-2.5,-0.5L0,-3.0L2.5,-0.5"/>
                </g>
                <g id="arrowDown" xlink:href="#dirArrow" transform="rotate(180) translate(-30 -48)" onmousedown="handlePan(0,1)">
                  <use xlink:href="#rim" fill="#404040">
                        <set attributeName="fill" to="#808080" begin="arrowDown.mouseover" end="arrowDown.mouseout"/>
                  </use>
                  <path fill="none" stroke="white" stroke-width="1.5" d="M0,-3.0v7 M-2.5,-0.5L0,-3.0L2.5,-0.5"/>
                </g>
                <g id="arrowLeft" xlink:href="#dirArrow" transform="rotate(270) translate(-36 17)" onmousedown="handlePan(-1,0)">
                  <use xlink:href="#rim" fill="#404040">
                        <set attributeName="fill" to="#808080" begin="arrowLeft.mouseover" end="arrowLeft.mouseout"/>
                  </use>
                  <path fill="none" stroke="white" stroke-width="1.5" d="M0,-3.0v7 M-2.5,-0.5L0,-3.0L2.5,-0.5"/>
                </g>
        </g>
        <svg viewBox="0 0 15 15" width="100%" height="30px" preserveAspectRatio="xMaxYMin meet">
         <g id="arrow_out" transform="scale(0.3 0.3)">
          <a xlink:href="websocket__session_8cpp__incl_org.svg" target="_base">
           <rect id="button" ry="5" rx="5" y="6" x="6" height="38" width="38"
                fill="#f2f5e9" fill-opacity="0.5" stroke="#606060" stroke-width="1.0"/>
           <path id="arrow"
             d="M 11.500037,31.436501 C 11.940474,20.09759 22.043105,11.32322 32.158766,21.979434 L 37.068811,17.246167 C 37.068811,17.246167 37.088388,32 37.088388,32 L 22.160133,31.978069 C 22.160133,31.978069 26.997745,27.140456 26.997745,27.140456 C 18.528582,18.264221 13.291696,25.230495 11.500037,31.436501 z"
             style="fill:#404040;"/>
          </a>
         </g>
        </svg>
</svg>
