<?xml version="1.0" encoding="UTF-8" standalone="no"?>
<!DOCTYPE svg PUBLIC "-//W3C//DTD SVG 1.1//EN"
 "http://www.w3.org/Graphics/SVG/1.1/DTD/svg11.dtd">
<!-- Generated by graphviz version 2.44.1 (20211215.1903)
 -->
<!-- Title: include/roar/websocket/websocket_session.hpp Pages: 1 -->
<svg width="1988pt" height="196pt"
 viewBox="0.00 0.00 1988.00 196.00" xmlns="http://www.w3.org/2000/svg" xmlns:xlink="http://www.w3.org/1999/xlink">
<g id="graph0" class="graph" transform="scale(1 1) rotate(0) translate(4 192)">
<title>include/roar/websocket/websocket_session.hpp</title>
<!-- Node1 -->
<g id="node1" class="node">
<title>Node1</title>
<g id="a_node1"><a xlink:title=" ">
<polygon fill="#bfbfbf" stroke="black" points="1118,-168.5 1118,-187.5 1343,-187.5 1343,-168.5 1118,-168.5"/>
<text text-anchor="middle" x="1230.5" y="-175.5" font-family="Helvetica,sans-Serif" font-size="10.00">include/roar/websocket/websocket_session.hpp</text>
</a>
</g>
</g>
<!-- Node2 -->
<g id="node2" class="node">
<title>Node2</title>
<g id="a_node2"><a xlink:href="pimpl__special__functions_8hpp.html" target="_top" xlink:title=" ">
<polygon fill="none" stroke="black" points="0,-112.5 0,-131.5 185,-131.5 185,-112.5 0,-112.5"/>
<text text-anchor="middle" x="92.5" y="-119.5" font-family="Helvetica,sans-Serif" font-size="10.00">roar/detail/pimpl_special_functions.hpp</text>
</a>
</g>
</g>
<!-- Node1&#45;&gt;Node2 -->
<g id="edge1" class="edge">
<title>Node1&#45;&gt;Node2</title>
<path fill="none" stroke="midnightblue" d="M1117.62,-173.78C928.88,-168.03 537.04,-154.5 195.32,-132.09"/>
<polygon fill="midnightblue" stroke="midnightblue" points="195.43,-128.59 185.23,-131.43 194.97,-135.58 195.43,-128.59"/>
</g>
<!-- Node3 -->
<g id="node3" class="node">
<title>Node3</title>
<g id="a_node3"><a xlink:href="shared__from__base_8hpp.html" target="_top" xlink:title=" ">
<polygon fill="none" stroke="black" points="203,-112.5 203,-131.5 364,-131.5 364,-112.5 203,-112.5"/>
<text text-anchor="middle" x="283.5" y="-119.5" font-family="Helvetica,sans-Serif" font-size="10.00">roar/detail/shared_from_base.hpp</text>
</a>
</g>
</g>
<!-- Node1&#45;&gt;Node3 -->
<g id="edge2" class="edge">
<title>Node1&#45;&gt;Node3</title>
<path fill="none" stroke="midnightblue" d="M1117.74,-172.54C954.55,-165.75 643.11,-151.51 378.5,-132 377.03,-131.89 375.54,-131.78 374.05,-131.66"/>
<polygon fill="midnightblue" stroke="midnightblue" points="374.32,-128.18 364.07,-130.87 373.76,-135.15 374.32,-128.18"/>
</g>
<!-- Node4 -->
<g id="node4" class="node">
<title>Node4</title>
<g id="a_node4"><a xlink:title=" ">
<polygon fill="none" stroke="#bfbfbf" points="303.5,-56.5 303.5,-75.5 355.5,-75.5 355.5,-56.5 303.5,-56.5"/>
<text text-anchor="middle" x="329.5" y="-63.5" font-family="Helvetica,sans-Serif" font-size="10.00">memory</text>
</a>
</g>
</g>
<!-- Node1&#45;&gt;Node4 -->
<g id="edge34" class="edge">
<title>Node1&#45;&gt;Node4</title>
<path fill="none" stroke="midnightblue" d="M1117.72,-174.38C909.64,-169.02 480.6,-155.29 416.5,-132 388.13,-121.69 361.22,-98.86 345.04,-83.19"/>
<polygon fill="midnightblue" stroke="midnightblue" points="347.15,-80.36 337.6,-75.76 342.2,-85.31 347.15,-80.36"/>
</g>
<!-- Node5 -->
<g id="node5" class="node">
<title>Node5</title>
<g id="a_node5"><a xlink:href="websocket__base_8hpp.html" target="_top" xlink:title=" ">
<polygon fill="none" stroke="black" points="1050,-112.5 1050,-131.5 1229,-131.5 1229,-112.5 1050,-112.5"/>
<text text-anchor="middle" x="1139.5" y="-119.5" font-family="Helvetica,sans-Serif" font-size="10.00">roar/websocket/websocket_base.hpp</text>
</a>
</g>
</g>
<!-- Node1&#45;&gt;Node5 -->
<g id="edge4" class="edge">
<title>Node1&#45;&gt;Node5</title>
<path fill="none" stroke="midnightblue" d="M1215.88,-168.32C1201.55,-159.82 1179.49,-146.73 1162.75,-136.8"/>
<polygon fill="midnightblue" stroke="midnightblue" points="1164.47,-133.75 1154.08,-131.65 1160.9,-139.77 1164.47,-133.75"/>
</g>
<!-- Node11 -->
<g id="node11" class="node">
<title>Node11</title>
<g id="a_node11"><a xlink:title=" ">
<polygon fill="none" stroke="#bfbfbf" points="383.5,-0.5 383.5,-19.5 429.5,-19.5 429.5,-0.5 383.5,-0.5"/>
<text text-anchor="middle" x="406.5" y="-7.5" font-family="Helvetica,sans-Serif" font-size="10.00">variant</text>
</a>
</g>
</g>
<!-- Node1&#45;&gt;Node11 -->
<g id="edge35" class="edge">
<title>Node1&#45;&gt;Node11</title>
<path fill="none" stroke="midnightblue" d="M1117.85,-176.15C924.44,-172.53 539.82,-155.26 434.5,-76 419.95,-65.05 412.86,-44.99 409.47,-30.04"/>
<polygon fill="midnightblue" stroke="midnightblue" points="412.84,-29.01 407.54,-19.84 405.96,-30.32 412.84,-29.01"/>
</g>
<!-- Node16 -->
<g id="node16" class="node">
<title>Node16</title>
<g id="a_node16"><a xlink:title=" ">
<polygon fill="none" stroke="#bfbfbf" points="1180.5,-0.5 1180.5,-19.5 1306.5,-19.5 1306.5,-0.5 1180.5,-0.5"/>
<text text-anchor="middle" x="1243.5" y="-7.5" font-family="Helvetica,sans-Serif" font-size="10.00">promise&#45;cpp/promise.hpp</text>
</a>
</g>
</g>
<!-- Node1&#45;&gt;Node16 -->
<g id="edge33" class="edge">
<title>Node1&#45;&gt;Node16</title>
<path fill="none" stroke="midnightblue" d="M1296.76,-168.49C1385.54,-154.41 1526.07,-121.12 1472.5,-56 1462.47,-43.8 1379.72,-29.77 1316.54,-20.66"/>
<polygon fill="midnightblue" stroke="midnightblue" points="1316.98,-17.19 1306.59,-19.25 1315.99,-24.12 1316.98,-17.19"/>
</g>
<!-- Node17 -->
<g id="node17" class="node">
<title>Node17</title>
<g id="a_node17"><a xlink:href="stream__type_8hpp.html" target="_top" xlink:title=" ">
<polygon fill="none" stroke="black" points="1558,-56.5 1558,-75.5 1693,-75.5 1693,-56.5 1558,-56.5"/>
<text text-anchor="middle" x="1625.5" y="-63.5" font-family="Helvetica,sans-Serif" font-size="10.00">roar/detail/stream_type.hpp</text>
</a>
</g>
</g>
<!-- Node1&#45;&gt;Node17 -->
<g id="edge29" class="edge">
<title>Node1&#45;&gt;Node17</title>
<path fill="none" stroke="midnightblue" d="M1343.35,-175C1404.67,-170.45 1480.6,-159.08 1543.5,-132 1569.93,-120.62 1595.04,-98.44 1610.35,-83.18"/>
<polygon fill="midnightblue" stroke="midnightblue" points="1612.95,-85.53 1617.42,-75.93 1607.94,-80.65 1612.95,-85.53"/>
</g>
<!-- Node18 -->
<g id="node18" class="node">
<title>Node18</title>
<g id="a_node18"><a xlink:title=" ">
<polygon fill="none" stroke="#bfbfbf" points="1346.5,-0.5 1346.5,-19.5 1506.5,-19.5 1506.5,-0.5 1346.5,-0.5"/>
<text text-anchor="middle" x="1426.5" y="-7.5" font-family="Helvetica,sans-Serif" font-size="10.00">boost/beast/core/tcp_stream.hpp</text>
</a>
</g>
</g>
<!-- Node1&#45;&gt;Node18 -->
<g id="edge32" class="edge">
<title>Node1&#45;&gt;Node18</title>
<path fill="none" stroke="midnightblue" d="M1324.06,-168.48C1380.79,-161.6 1446.38,-150.04 1468.5,-132 1495.85,-109.7 1507.88,-87.26 1491.5,-56 1484.22,-42.11 1470.49,-31.65 1457.52,-24.33"/>
<polygon fill="midnightblue" stroke="midnightblue" points="1458.8,-21.05 1448.31,-19.55 1455.57,-27.27 1458.8,-21.05"/>
</g>
<!-- Node22 -->
<g id="node22" class="node">
<title>Node22</title>
<g id="a_node22"><a xlink:title=" ">
<polygon fill="none" stroke="#bfbfbf" points="1310,-56.5 1310,-75.5 1463,-75.5 1463,-56.5 1310,-56.5"/>
<text text-anchor="middle" x="1386.5" y="-63.5" font-family="Helvetica,sans-Serif" font-size="10.00">boost/beast/ssl/ssl_stream.hpp</text>
</a>
</g>
</g>
<!-- Node1&#45;&gt;Node22 -->
<g id="edge31" class="edge">
<title>Node1&#45;&gt;Node22</title>
<path fill="none" stroke="midnightblue" d="M1242.74,-168.37C1269.4,-149.57 1332.94,-104.77 1365.89,-81.53"/>
<polygon fill="midnightblue" stroke="midnightblue" points="1368.16,-84.21 1374.32,-75.59 1364.13,-78.49 1368.16,-84.21"/>
</g>
<!-- Node25 -->
<g id="node25" class="node">
<title>Node25</title>
<g id="a_node25"><a xlink:title=" ">
<polygon fill="none" stroke="#bfbfbf" points="1596,-112.5 1596,-131.5 1757,-131.5 1757,-112.5 1596,-112.5"/>
<text text-anchor="middle" x="1676.5" y="-119.5" font-family="Helvetica,sans-Serif" font-size="10.00">boost/beast/http/empty_body.hpp</text>
</a>
</g>
</g>
<!-- Node1&#45;&gt;Node25 -->
<g id="edge30" class="edge">
<title>Node1&#45;&gt;Node25</title>
<path fill="none" stroke="midnightblue" d="M1301.17,-168.44C1381.42,-158.73 1512.09,-142.91 1596.15,-132.73"/>
<polygon fill="midnightblue" stroke="midnightblue" points="1596.65,-136.19 1606.16,-131.52 1595.81,-129.24 1596.65,-136.19"/>
</g>
<!-- Node3&#45;&gt;Node4 -->
<g id="edge3" class="edge">
<title>Node3&#45;&gt;Node4</title>
<path fill="none" stroke="midnightblue" d="M291.1,-112.08C297.73,-104.3 307.52,-92.8 315.56,-83.37"/>
<polygon fill="midnightblue" stroke="midnightblue" points="318.23,-85.63 322.05,-75.75 312.9,-81.09 318.23,-85.63"/>
</g>
<!-- Node6 -->
<g id="node6" class="node">
<title>Node6</title>
<g id="a_node6"><a xlink:href="read__result_8hpp.html" target="_top" xlink:title=" ">
<polygon fill="none" stroke="black" points="473,-56.5 473,-75.5 626,-75.5 626,-56.5 473,-56.5"/>
<text text-anchor="middle" x="549.5" y="-63.5" font-family="Helvetica,sans-Serif" font-size="10.00">roar/websocket/read_result.hpp</text>
</a>
</g>
</g>
<!-- Node5&#45;&gt;Node6 -->
<g id="edge5" class="edge">
<title>Node5&#45;&gt;Node6</title>
<path fill="none" stroke="midnightblue" d="M1049.79,-113.4C951.23,-104.97 787.97,-90.71 636.79,-76.11"/>
<polygon fill="midnightblue" stroke="midnightblue" points="636.68,-72.58 626.39,-75.11 636,-79.55 636.68,-72.58"/>
</g>
<!-- Node8 -->
<g id="node8" class="node">
<title>Node8</title>
<g id="a_node8"><a xlink:href="error_8hpp.html" target="_top" xlink:title=" ">
<polygon fill="none" stroke="black" points="644.5,-56.5 644.5,-75.5 718.5,-75.5 718.5,-56.5 644.5,-56.5"/>
<text text-anchor="middle" x="681.5" y="-63.5" font-family="Helvetica,sans-Serif" font-size="10.00">roar/error.hpp</text>
</a>
</g>
</g>
<!-- Node5&#45;&gt;Node8 -->
<g id="edge7" class="edge">
<title>Node5&#45;&gt;Node8</title>
<path fill="none" stroke="midnightblue" d="M1049.6,-113.38C968.32,-105.99 845.15,-93.53 728.77,-76.08"/>
<polygon fill="midnightblue" stroke="midnightblue" points="729.02,-72.58 718.61,-74.54 727.97,-79.5 729.02,-72.58"/>
</g>
<!-- Node5&#45;&gt;Node11 -->
<g id="edge28" class="edge">
<title>Node5&#45;&gt;Node11</title>
<path fill="none" stroke="midnightblue" d="M1049.75,-118.83C877.89,-114.13 514.75,-101.31 463.5,-76 442.55,-65.65 426,-43.85 416.25,-28.35"/>
<polygon fill="midnightblue" stroke="midnightblue" points="419.2,-26.47 411.07,-19.68 413.19,-30.06 419.2,-26.47"/>
</g>
<!-- Node15 -->
<g id="node15" class="node">
<title>Node15</title>
<g id="a_node15"><a xlink:href="promise__compat_8hpp.html" target="_top" xlink:title=" ">
<polygon fill="none" stroke="black" points="737,-56.5 737,-75.5 890,-75.5 890,-56.5 737,-56.5"/>
<text text-anchor="middle" x="813.5" y="-63.5" font-family="Helvetica,sans-Serif" font-size="10.00">roar/detail/promise_compat.hpp</text>
</a>
</g>
</g>
<!-- Node5&#45;&gt;Node15 -->
<g id="edge15" class="edge">
<title>Node5&#45;&gt;Node15</title>
<path fill="none" stroke="midnightblue" d="M1087.84,-112.44C1030.02,-102.87 936.39,-87.36 874.88,-77.17"/>
<polygon fill="midnightblue" stroke="midnightblue" points="875.35,-73.7 864.91,-75.52 874.21,-80.6 875.35,-73.7"/>
</g>
<!-- Node5&#45;&gt;Node16 -->
<g id="edge23" class="edge">
<title>Node5&#45;&gt;Node16</title>
<path fill="none" stroke="midnightblue" d="M1168.15,-112.36C1186.72,-105.37 1210.04,-93.73 1224.5,-76 1235.29,-62.77 1239.95,-43.64 1241.97,-29.56"/>
<polygon fill="midnightblue" stroke="midnightblue" points="1245.45,-29.88 1243.08,-19.55 1238.49,-29.11 1245.45,-29.88"/>
</g>
<!-- Node5&#45;&gt;Node17 -->
<g id="edge18" class="edge">
<title>Node5&#45;&gt;Node17</title>
<path fill="none" stroke="midnightblue" d="M1216.24,-112.47C1306.86,-102.4 1456.76,-85.75 1547.8,-75.63"/>
<polygon fill="midnightblue" stroke="midnightblue" points="1548.23,-79.11 1557.78,-74.52 1547.46,-72.15 1548.23,-79.11"/>
</g>
<!-- Node5&#45;&gt;Node18 -->
<g id="edge25" class="edge">
<title>Node5&#45;&gt;Node18</title>
<path fill="none" stroke="midnightblue" d="M1159.98,-112.42C1190.46,-99.72 1249.64,-75.34 1300.5,-56 1331.36,-44.27 1366.79,-31.69 1392.21,-22.82"/>
<polygon fill="midnightblue" stroke="midnightblue" points="1393.47,-26.09 1401.76,-19.5 1391.17,-19.48 1393.47,-26.09"/>
</g>
<!-- Node5&#45;&gt;Node22 -->
<g id="edge24" class="edge">
<title>Node5&#45;&gt;Node22</title>
<path fill="none" stroke="midnightblue" d="M1178.64,-112.44C1221.73,-103.02 1291.06,-87.87 1337.67,-77.68"/>
<polygon fill="midnightblue" stroke="midnightblue" points="1338.52,-81.07 1347.55,-75.52 1337.03,-74.23 1338.52,-81.07"/>
</g>
<!-- Node23 -->
<g id="node23" class="node">
<title>Node23</title>
<g id="a_node23"><a xlink:title=" ">
<polygon fill="none" stroke="#bfbfbf" points="908,-56.5 908,-75.5 1045,-75.5 1045,-56.5 908,-56.5"/>
<text text-anchor="middle" x="976.5" y="-63.5" font-family="Helvetica,sans-Serif" font-size="10.00">boost/beast/websocket.hpp</text>
</a>
</g>
</g>
<!-- Node5&#45;&gt;Node23 -->
<g id="edge26" class="edge">
<title>Node5&#45;&gt;Node23</title>
<path fill="none" stroke="midnightblue" d="M1113.67,-112.44C1086.25,-103.36 1042.72,-88.94 1012.07,-78.78"/>
<polygon fill="midnightblue" stroke="midnightblue" points="1012.8,-75.34 1002.21,-75.52 1010.6,-81.98 1012.8,-75.34"/>
</g>
<!-- Node24 -->
<g id="node24" class="node">
<title>Node24</title>
<g id="a_node24"><a xlink:title=" ">
<polygon fill="none" stroke="#bfbfbf" points="1063.5,-56.5 1063.5,-75.5 1215.5,-75.5 1215.5,-56.5 1063.5,-56.5"/>
<text text-anchor="middle" x="1139.5" y="-63.5" font-family="Helvetica,sans-Serif" font-size="10.00">boost/beast/websocket/ssl.hpp</text>
</a>
</g>
</g>
<!-- Node5&#45;&gt;Node24 -->
<g id="edge27" class="edge">
<title>Node5&#45;&gt;Node24</title>
<path fill="none" stroke="midnightblue" d="M1139.5,-112.08C1139.5,-105.01 1139.5,-94.86 1139.5,-85.99"/>
<polygon fill="midnightblue" stroke="midnightblue" points="1143,-85.75 1139.5,-75.75 1136,-85.75 1143,-85.75"/>
</g>
<!-- Node7 -->
<g id="node7" class="node">
<title>Node7</title>
<g id="a_node7"><a xlink:title=" ">
<polygon fill="none" stroke="#bfbfbf" points="448,-0.5 448,-19.5 489,-19.5 489,-0.5 448,-0.5"/>
<text text-anchor="middle" x="468.5" y="-7.5" font-family="Helvetica,sans-Serif" font-size="10.00">string</text>
</a>
</g>
</g>
<!-- Node6&#45;&gt;Node7 -->
<g id="edge6" class="edge">
<title>Node6&#45;&gt;Node7</title>
<path fill="none" stroke="midnightblue" d="M536.49,-56.32C523.97,-47.98 504.82,-35.21 490.03,-25.35"/>
<polygon fill="midnightblue" stroke="midnightblue" points="491.74,-22.29 481.48,-19.65 487.86,-28.11 491.74,-22.29"/>
</g>
<!-- Node8&#45;&gt;Node7 -->
<g id="edge10" class="edge">
<title>Node8&#45;&gt;Node7</title>
<path fill="none" stroke="midnightblue" d="M644.56,-56.49C609.52,-48.3 555.19,-35.26 498.9,-20"/>
<polygon fill="midnightblue" stroke="midnightblue" points="499.69,-16.59 489.12,-17.33 497.84,-23.34 499.69,-16.59"/>
</g>
<!-- Node9 -->
<g id="node9" class="node">
<title>Node9</title>
<g id="a_node9"><a xlink:href="forward_8hpp.html" target="_top" xlink:title=" ">
<polygon fill="none" stroke="black" points="507.5,-0.5 507.5,-19.5 621.5,-19.5 621.5,-0.5 507.5,-0.5"/>
<text text-anchor="middle" x="564.5" y="-7.5" font-family="Helvetica,sans-Serif" font-size="10.00">roar/beast/forward.hpp</text>
</a>
</g>
</g>
<!-- Node8&#45;&gt;Node9 -->
<g id="edge8" class="edge">
<title>Node8&#45;&gt;Node9</title>
<path fill="none" stroke="midnightblue" d="M662.96,-56.44C643.88,-47.64 613.93,-33.81 592.06,-23.72"/>
<polygon fill="midnightblue" stroke="midnightblue" points="593.5,-20.53 582.95,-19.52 590.57,-26.88 593.5,-20.53"/>
</g>
<!-- Node10 -->
<g id="node10" class="node">
<title>Node10</title>
<g id="a_node10"><a xlink:title=" ">
<polygon fill="none" stroke="#bfbfbf" points="640,-0.5 640,-19.5 795,-19.5 795,-0.5 640,-0.5"/>
<text text-anchor="middle" x="717.5" y="-7.5" font-family="Helvetica,sans-Serif" font-size="10.00">boost/system/system_error.hpp</text>
</a>
</g>
</g>
<!-- Node8&#45;&gt;Node10 -->
<g id="edge9" class="edge">
<title>Node8&#45;&gt;Node10</title>
<path fill="none" stroke="midnightblue" d="M687.44,-56.08C692.48,-48.53 699.84,-37.49 706.01,-28.23"/>
<polygon fill="midnightblue" stroke="midnightblue" points="709.03,-30.01 711.67,-19.75 703.21,-26.13 709.03,-30.01"/>
</g>
<!-- Node8&#45;&gt;Node11 -->
<g id="edge11" class="edge">
<title>Node8&#45;&gt;Node11</title>
<path fill="none" stroke="midnightblue" d="M644.3,-57.85C640.99,-57.22 637.68,-56.6 634.5,-56 550.51,-40.25 526.45,-40.01 439.29,-20.01"/>
<polygon fill="midnightblue" stroke="midnightblue" points="440.04,-16.59 429.51,-17.75 438.46,-23.41 440.04,-16.59"/>
</g>
<!-- Node12 -->
<g id="node12" class="node">
<title>Node12</title>
<g id="a_node12"><a xlink:title=" ">
<polygon fill="none" stroke="#bfbfbf" points="813.5,-0.5 813.5,-19.5 863.5,-19.5 863.5,-0.5 813.5,-0.5"/>
<text text-anchor="middle" x="838.5" y="-7.5" font-family="Helvetica,sans-Serif" font-size="10.00">optional</text>
</a>
</g>
</g>
<!-- Node8&#45;&gt;Node12 -->
<g id="edge12" class="edge">
<title>Node8&#45;&gt;Node12</title>
<path fill="none" stroke="midnightblue" d="M706.38,-56.44C732.79,-47.36 774.72,-32.94 804.24,-22.78"/>
<polygon fill="midnightblue" stroke="midnightblue" points="805.42,-26.08 813.74,-19.52 803.14,-19.46 805.42,-26.08"/>
</g>
<!-- Node13 -->
<g id="node13" class="node">
<title>Node13</title>
<g id="a_node13"><a xlink:title=" ">
<polygon fill="none" stroke="#bfbfbf" points="966,-0.5 966,-19.5 1025,-19.5 1025,-0.5 966,-0.5"/>
<text text-anchor="middle" x="995.5" y="-7.5" font-family="Helvetica,sans-Serif" font-size="10.00">functional</text>
</a>
</g>
</g>
<!-- Node8&#45;&gt;Node13 -->
<g id="edge13" class="edge">
<title>Node8&#45;&gt;Node13</title>
<path fill="none" stroke="midnightblue" d="M718.63,-57.61C721.63,-57.05 724.62,-56.51 727.5,-56 825.79,-38.66 853.63,-39.52 955.63,-20.05"/>
<polygon fill="midnightblue" stroke="midnightblue" points="956.58,-23.43 965.74,-18.1 955.25,-16.55 956.58,-23.43"/>
</g>
<!-- Node14 -->
<g id="node14" class="node">
<title>Node14</title>
<g id="a_node14"><a xlink:title=" ">
<polygon fill="none" stroke="#bfbfbf" points="881.5,-0.5 881.5,-19.5 947.5,-19.5 947.5,-0.5 881.5,-0.5"/>
<text text-anchor="middle" x="914.5" y="-7.5" font-family="Helvetica,sans-Serif" font-size="10.00">string_view</text>
</a>
</g>
</g>
<!-- Node8&#45;&gt;Node14 -->
<g id="edge14" class="edge">
<title>Node8&#45;&gt;Node14</title>
<path fill="none" stroke="midnightblue" d="M718.42,-56.44C759.97,-46.81 827.38,-31.19 871.33,-21"/>
<polygon fill="midnightblue" stroke="midnightblue" points="872.2,-24.4 881.15,-18.73 870.62,-17.58 872.2,-24.4"/>
</g>
<!-- Node15&#45;&gt;Node13 -->
<g id="edge16" class="edge">
<title>Node15&#45;&gt;Node13</title>
<path fill="none" stroke="midnightblue" d="M842.34,-56.44C873.36,-47.24 922.83,-32.56 957.12,-22.39"/>
<polygon fill="midnightblue" stroke="midnightblue" points="958.21,-25.72 966.8,-19.52 956.21,-19.01 958.21,-25.72"/>
</g>
<!-- Node15&#45;&gt;Node16 -->
<g id="edge17" class="edge">
<title>Node15&#45;&gt;Node16</title>
<path fill="none" stroke="midnightblue" d="M881.63,-56.44C960.32,-46.56 1089.29,-30.37 1170.13,-20.21"/>
<polygon fill="midnightblue" stroke="midnightblue" points="1170.75,-23.66 1180.24,-18.94 1169.88,-16.72 1170.75,-23.66"/>
</g>
<!-- Node17&#45;&gt;Node18 -->
<g id="edge19" class="edge">
<title>Node17&#45;&gt;Node18</title>
<path fill="none" stroke="midnightblue" d="M1593.97,-56.44C1559.91,-47.2 1505.49,-32.44 1467.98,-22.26"/>
<polygon fill="midnightblue" stroke="midnightblue" points="1468.45,-18.76 1457.88,-19.52 1466.62,-25.51 1468.45,-18.76"/>
</g>
<!-- Node19 -->
<g id="node19" class="node">
<title>Node19</title>
<g id="a_node19"><a xlink:title=" ">
<polygon fill="none" stroke="#bfbfbf" points="1524.5,-0.5 1524.5,-19.5 1682.5,-19.5 1682.5,-0.5 1524.5,-0.5"/>
<text text-anchor="middle" x="1603.5" y="-7.5" font-family="Helvetica,sans-Serif" font-size="10.00">boost/beast/core/rate_policy.hpp</text>
</a>
</g>
</g>
<!-- Node17&#45;&gt;Node19 -->
<g id="edge20" class="edge">
<title>Node17&#45;&gt;Node19</title>
<path fill="none" stroke="midnightblue" d="M1621.87,-56.08C1618.89,-48.77 1614.57,-38.18 1610.88,-29.1"/>
<polygon fill="midnightblue" stroke="midnightblue" points="1614.08,-27.69 1607.07,-19.75 1607.6,-30.33 1614.08,-27.69"/>
</g>
<!-- Node20 -->
<g id="node20" class="node">
<title>Node20</title>
<g id="a_node20"><a xlink:title=" ">
<polygon fill="none" stroke="#bfbfbf" points="1700,-0.5 1700,-19.5 1807,-19.5 1807,-0.5 1700,-0.5"/>
<text text-anchor="middle" x="1753.5" y="-7.5" font-family="Helvetica,sans-Serif" font-size="10.00">boost/asio/ip/tcp.hpp</text>
</a>
</g>
</g>
<!-- Node17&#45;&gt;Node20 -->
<g id="edge21" class="edge">
<title>Node17&#45;&gt;Node20</title>
<path fill="none" stroke="midnightblue" d="M1645.78,-56.44C1666.85,-47.56 1700.02,-33.56 1723.99,-23.45"/>
<polygon fill="midnightblue" stroke="midnightblue" points="1725.46,-26.63 1733.31,-19.52 1722.74,-20.18 1725.46,-26.63"/>
</g>
<!-- Node21 -->
<g id="node21" class="node">
<title>Node21</title>
<g id="a_node21"><a xlink:title=" ">
<polygon fill="none" stroke="#bfbfbf" points="1825,-0.5 1825,-19.5 1980,-19.5 1980,-0.5 1825,-0.5"/>
<text text-anchor="middle" x="1902.5" y="-7.5" font-family="Helvetica,sans-Serif" font-size="10.00">boost/asio/any_io_executor.hpp</text>
</a>
</g>
</g>
<!-- Node17&#45;&gt;Node21 -->
<g id="edge22" class="edge">
<title>Node17&#45;&gt;Node21</title>
<path fill="none" stroke="midnightblue" d="M1669.39,-56.44C1718.02,-46.96 1796.45,-31.67 1848.72,-21.48"/>
<polygon fill="midnightblue" stroke="midnightblue" points="1849.67,-24.87 1858.81,-19.52 1848.33,-17.99 1849.67,-24.87"/>
</g>
</g>
</svg>
