<?xml version="1.0" encoding="UTF-8" standalone="no"?>
<!DOCTYPE svg PUBLIC "-//W3C//DTD SVG 1.1//EN"
 "http://www.w3.org/Graphics/SVG/1.1/DTD/svg11.dtd">
<!-- Generated by graphviz version 2.44.1 (20211215.1903)
 -->
<!-- Title: include/roar/websocket/websocket_base.hpp Pages: 1 -->
<!--zoomable 364 -->
<svg id="main" version="1.1" xmlns="http://www.w3.org/2000/svg" xmlns:xlink="http://www.w3.org/1999/xlink" xml:space="preserve" onload="init(evt)">
<style type="text/css"><![CDATA[
.edge:hover path { stroke: red; }
.edge:hover polygon { stroke: red; fill: red; }
]]></style>
<script type="text/javascript"><![CDATA[
var edges = document.getElementsByTagName('g');
if (edges && edges.length) {
  for (var i=0;i<edges.length;i++) {
    if (edges[i].id.substr(0,4)=='edge') {
      edges[i].setAttribute('class','edge');
    }
  }
}
]]></script>
        <defs>
                <circle id="rim" cx="0" cy="0" r="7"/>
                <circle id="rim2" cx="0" cy="0" r="3.5"/>
                <g id="zoomPlus">
                        <use xlink:href="#rim" fill="#404040">
                                <set attributeName="fill" to="#808080" begin="zoomplus.mouseover" end="zoomplus.mouseout"/>
                        </use>
                        <path d="M-4,0h8M0,-4v8" fill="none" stroke="white" stroke-width="1.5" pointer-events="none"/>
                </g>
                <g id="zoomMin">
                        <use xlink:href="#rim" fill="#404040">
                                <set attributeName="fill" to="#808080" begin="zoomminus.mouseover" end="zoomminus.mouseout"/>
                        </use>
                        <path d="M-4,0h8" fill="none" stroke="white" stroke-width="1.5" pointer-events="none"/>
                </g>
                <g id="dirArrow">
                        <path fill="none" stroke="white" stroke-width="1.5" d="M0,-3.0v7 M-2.5,-0.5L0,-3.0L2.5,-0.5"/>
                </g>
               <g id="resetDef">
                       <use xlink:href="#rim2" fill="#404040">
                               <set attributeName="fill" to="#808080" begin="reset.mouseover" end="reset.mouseout"/>
                       </use>
               </g>
        </defs>

<script type="text/javascript">
var viewWidth = 1830;
var viewHeight = 364;
var sectionId = 'dynsection-1';
</script>
<script xlink:href="svgpan.js"/>
<svg id="graph" class="graph">
<g id="viewport">
<title>include/roar/websocket/websocket_base.hpp</title>
<!-- Node1 -->
<g id="node1" class="node">
<title>Node1</title>
<g id="a_node1"><a xlink:title=" ">
<polygon fill="#bfbfbf" stroke="black" points="316.5,-336.5 316.5,-355.5 528.5,-355.5 528.5,-336.5 316.5,-336.5"/>
<text text-anchor="middle" x="422.5" y="-343.5" font-family="Helvetica,sans-Serif" font-size="10.00">include/roar/websocket/websocket_base.hpp</text>
</a>
</g>
</g>
<!-- Node2 -->
<g id="node2" class="node">
<title>Node2</title>
<g id="a_node2"><a xlink:href="websocket__client_8hpp.html" target="_top" xlink:title=" ">
<polygon fill="none" stroke="black" points="48,-280.5 48,-299.5 263,-299.5 263,-280.5 48,-280.5"/>
<text text-anchor="middle" x="155.5" y="-287.5" font-family="Helvetica,sans-Serif" font-size="10.00">include/roar/websocket/websocket_client.hpp</text>
</a>
</g>
</g>
<!-- Node1&#45;&gt;Node2 -->
<g id="edge1" class="edge">
<title>Node1&#45;&gt;Node2</title>
<path fill="none" stroke="midnightblue" d="M370.14,-334.41C319.68,-324.2 244.3,-308.96 197.61,-299.52"/>
<polygon fill="midnightblue" stroke="midnightblue" points="369.7,-337.89 380.19,-336.44 371.09,-331.03 369.7,-337.89"/>
</g>
<!-- Node4 -->
<g id="node4" class="node">
<title>Node4</title>
<g id="a_node4"><a xlink:href="websocket__session_8hpp.html" target="_top" xlink:title=" ">
<polygon fill="none" stroke="black" points="310,-280.5 310,-299.5 535,-299.5 535,-280.5 310,-280.5"/>
<text text-anchor="middle" x="422.5" y="-287.5" font-family="Helvetica,sans-Serif" font-size="10.00">include/roar/websocket/websocket_session.hpp</text>
</a>
</g>
</g>
<!-- Node1&#45;&gt;Node4 -->
<g id="edge3" class="edge">
<title>Node1&#45;&gt;Node4</title>
<path fill="none" stroke="midnightblue" d="M422.5,-325.8C422.5,-316.91 422.5,-306.78 422.5,-299.75"/>
<polygon fill="midnightblue" stroke="midnightblue" points="419,-326.08 422.5,-336.08 426,-326.08 419,-326.08"/>
</g>
<!-- Node29 -->
<g id="node29" class="node">
<title>Node29</title>
<g id="a_node29"><a xlink:href="websocket__base_8cpp.html" target="_top" xlink:title=" ">
<polygon fill="none" stroke="black" points="553,-280.5 553,-299.5 748,-299.5 748,-280.5 553,-280.5"/>
<text text-anchor="middle" x="650.5" y="-287.5" font-family="Helvetica,sans-Serif" font-size="10.00">src/roar/websocket/websocket_base.cpp</text>
</a>
</g>
</g>
<!-- Node1&#45;&gt;Node29 -->
<g id="edge42" class="edge">
<title>Node1&#45;&gt;Node29</title>
<path fill="none" stroke="midnightblue" d="M468.57,-334.09C511.65,-323.89 575.09,-308.86 614.54,-299.52"/>
<polygon fill="midnightblue" stroke="midnightblue" points="467.55,-330.73 458.63,-336.44 469.16,-337.54 467.55,-330.73"/>
</g>
<!-- Node3 -->
<g id="node3" class="node">
<title>Node3</title>
<g id="a_node3"><a xlink:href="websocket__client_8cpp.html" target="_top" xlink:title=" ">
<polygon fill="none" stroke="black" points="0,-224.5 0,-243.5 197,-243.5 197,-224.5 0,-224.5"/>
<text text-anchor="middle" x="98.5" y="-231.5" font-family="Helvetica,sans-Serif" font-size="10.00">src/roar/websocket/websocket_client.cpp</text>
</a>
</g>
</g>
<!-- Node2&#45;&gt;Node3 -->
<g id="edge2" class="edge">
<title>Node2&#45;&gt;Node3</title>
<path fill="none" stroke="midnightblue" d="M138.88,-273.25C128.77,-263.67 116.22,-251.79 107.82,-243.83"/>
<polygon fill="midnightblue" stroke="midnightblue" points="136.68,-275.99 146.34,-280.32 141.49,-270.91 136.68,-275.99"/>
</g>
<!-- Node5 -->
<g id="node5" class="node">
<title>Node5</title>
<g id="a_node5"><a xlink:href="examples_2websocket_2request__listener_8hpp.html" target="_top" xlink:title=" ">
<polygon fill="none" stroke="black" points="43.5,-112.5 43.5,-131.5 243.5,-131.5 243.5,-112.5 43.5,-112.5"/>
<text text-anchor="middle" x="143.5" y="-119.5" font-family="Helvetica,sans-Serif" font-size="10.00">examples/websocket/request_listener.hpp</text>
</a>
</g>
</g>
<!-- Node4&#45;&gt;Node5 -->
<g id="edge4" class="edge">
<title>Node4&#45;&gt;Node5</title>
<path fill="none" stroke="midnightblue" d="M431.74,-270.97C437.51,-256.94 442.18,-237.64 432.5,-224 403.31,-182.88 258.62,-147.23 185.68,-131.53"/>
<polygon fill="midnightblue" stroke="midnightblue" points="428.55,-269.55 427.54,-280.09 434.9,-272.48 428.55,-269.55"/>
</g>
<!-- Node8 -->
<g id="node8" class="node">
<title>Node8</title>
<g id="a_node8"><a xlink:href="session_8hpp.html" target="_top" xlink:title=" ">
<polygon fill="none" stroke="black" points="1194,-224.5 1194,-243.5 1353,-243.5 1353,-224.5 1194,-224.5"/>
<text text-anchor="middle" x="1273.5" y="-231.5" font-family="Helvetica,sans-Serif" font-size="10.00">include/roar/session/session.hpp</text>
</a>
</g>
</g>
<!-- Node4&#45;&gt;Node8 -->
<g id="edge7" class="edge">
<title>Node4&#45;&gt;Node8</title>
<path fill="none" stroke="midnightblue" d="M545.27,-279.89C787.54,-263.47 1061.43,-247.26 1193.81,-239.58"/>
<polygon fill="midnightblue" stroke="midnightblue" points="544.95,-276.4 535.21,-280.57 545.42,-283.38 544.95,-276.4"/>
</g>
<!-- Node28 -->
<g id="node28" class="node">
<title>Node28</title>
<g id="a_node28"><a xlink:href="websocket__session_8cpp.html" target="_top" xlink:title=" ">
<polygon fill="none" stroke="black" points="215.5,-224.5 215.5,-243.5 423.5,-243.5 423.5,-224.5 215.5,-224.5"/>
<text text-anchor="middle" x="319.5" y="-231.5" font-family="Helvetica,sans-Serif" font-size="10.00">src/roar/websocket/websocket_session.cpp</text>
</a>
</g>
</g>
<!-- Node4&#45;&gt;Node28 -->
<g id="edge41" class="edge">
<title>Node4&#45;&gt;Node28</title>
<path fill="none" stroke="midnightblue" d="M396.92,-275.59C377.88,-265.61 352.44,-252.27 336.01,-243.65"/>
<polygon fill="midnightblue" stroke="midnightblue" points="395.47,-278.78 405.95,-280.32 398.72,-272.58 395.47,-278.78"/>
</g>
<!-- Node6 -->
<g id="node6" class="node">
<title>Node6</title>
<g id="a_node6"><a xlink:href="websocket_2main_8cpp.html" target="_top" xlink:title=" ">
<polygon fill="none" stroke="black" points="195.5,-0.5 195.5,-19.5 347.5,-19.5 347.5,-0.5 195.5,-0.5"/>
<text text-anchor="middle" x="271.5" y="-7.5" font-family="Helvetica,sans-Serif" font-size="10.00">examples/websocket/main.cpp</text>
</a>
</g>
</g>
<!-- Node5&#45;&gt;Node6 -->
<g id="edge5" class="edge">
<title>Node5&#45;&gt;Node6</title>
<path fill="none" stroke="midnightblue" d="M168.64,-107.45C182.79,-99.25 200.4,-88.07 214.5,-76 235.25,-58.24 255.31,-32.88 265.17,-19.7"/>
<polygon fill="midnightblue" stroke="midnightblue" points="166.89,-104.41 159.91,-112.38 170.34,-110.51 166.89,-104.41"/>
</g>
<!-- Node7 -->
<g id="node7" class="node">
<title>Node7</title>
<g id="a_node7"><a xlink:href="examples_2websocket_2request__listener_8cpp.html" target="_top" xlink:title=" ">
<polygon fill="none" stroke="black" points="5.5,-56.5 5.5,-75.5 205.5,-75.5 205.5,-56.5 5.5,-56.5"/>
<text text-anchor="middle" x="105.5" y="-63.5" font-family="Helvetica,sans-Serif" font-size="10.00">examples/websocket/request_listener.cpp</text>
</a>
</g>
</g>
<!-- Node5&#45;&gt;Node7 -->
<g id="edge6" class="edge">
<title>Node5&#45;&gt;Node7</title>
<path fill="none" stroke="midnightblue" d="M131.44,-103.86C124.86,-94.5 116.99,-83.33 111.66,-75.75"/>
<polygon fill="midnightblue" stroke="midnightblue" points="128.61,-105.92 137.23,-112.08 134.33,-101.89 128.61,-105.92"/>
</g>
<!-- Node9 -->
<g id="node9" class="node">
<title>Node9</title>
<g id="a_node9"><a xlink:href="directory__server_8hpp.html" target="_top" xlink:title=" ">
<polygon fill="none" stroke="black" points="950,-112.5 950,-131.5 1181,-131.5 1181,-112.5 950,-112.5"/>
<text text-anchor="middle" x="1065.5" y="-119.5" font-family="Helvetica,sans-Serif" font-size="10.00">include/roar/directory_server/directory_server.hpp</text>
</a>
</g>
</g>
<!-- Node8&#45;&gt;Node9 -->
<g id="edge8" class="edge">
<title>Node8&#45;&gt;Node9</title>
<path fill="none" stroke="midnightblue" d="M1241.03,-220.63C1219.97,-212.23 1192.14,-200.43 1168.5,-188 1134.44,-170.1 1096.75,-144.8 1077.8,-131.67"/>
<polygon fill="midnightblue" stroke="midnightblue" points="1239.9,-223.95 1250.49,-224.35 1242.47,-217.43 1239.9,-223.95"/>
</g>
<!-- Node10 -->
<g id="node10" class="node">
<title>Node10</title>
<g id="a_node10"><a xlink:href="server_8hpp.html" target="_top" xlink:title=" ">
<polygon fill="none" stroke="black" points="978.5,-56.5 978.5,-75.5 1094.5,-75.5 1094.5,-56.5 978.5,-56.5"/>
<text text-anchor="middle" x="1036.5" y="-63.5" font-family="Helvetica,sans-Serif" font-size="10.00">include/roar/server.hpp</text>
</a>
</g>
</g>
<!-- Node8&#45;&gt;Node10 -->
<g id="edge35" class="edge">
<title>Node8&#45;&gt;Node10</title>
<path fill="none" stroke="midnightblue" d="M1241.54,-220.13C1227.37,-212.8 1211.83,-202.21 1202.5,-188 1183.72,-159.42 1213.09,-137.67 1190.5,-112 1166.67,-84.92 1127.54,-73.72 1094.69,-69.27"/>
<polygon fill="midnightblue" stroke="midnightblue" points="1240.04,-223.29 1250.57,-224.48 1243.08,-216.99 1240.04,-223.29"/>
</g>
<!-- Node16 -->
<g id="node16" class="node">
<title>Node16</title>
<g id="a_node16"><a xlink:href="server_8cpp.html" target="_top" xlink:title=" ">
<polygon fill="none" stroke="black" points="1582.5,-0.5 1582.5,-19.5 1680.5,-19.5 1680.5,-0.5 1582.5,-0.5"/>
<text text-anchor="middle" x="1631.5" y="-7.5" font-family="Helvetica,sans-Serif" font-size="10.00">src/roar/server.cpp</text>
</a>
</g>
</g>
<!-- Node8&#45;&gt;Node16 -->
<g id="edge38" class="edge">
<title>Node8&#45;&gt;Node16</title>
<path fill="none" stroke="midnightblue" d="M1363.37,-231.92C1507.73,-229.24 1778.12,-219.96 1807.5,-188 1869.09,-121 1711.2,-44.82 1652.47,-19.6"/>
<polygon fill="midnightblue" stroke="midnightblue" points="1363.14,-228.42 1353.2,-232.1 1363.26,-235.42 1363.14,-228.42"/>
</g>
<!-- Node17 -->
<g id="node17" class="node">
<title>Node17</title>
<g id="a_node17"><a xlink:href="include_2roar_2routing_2request__listener_8hpp.html" target="_top" xlink:title=" ">
<polygon fill="none" stroke="black" points="721.5,-168.5 721.5,-187.5 911.5,-187.5 911.5,-168.5 721.5,-168.5"/>
<text text-anchor="middle" x="816.5" y="-175.5" font-family="Helvetica,sans-Serif" font-size="10.00">include/roar/routing/request_listener.hpp</text>
</a>
</g>
</g>
<!-- Node8&#45;&gt;Node17 -->
<g id="edge17" class="edge">
<title>Node8&#45;&gt;Node17</title>
<path fill="none" stroke="midnightblue" d="M1191.33,-223.29C1105.11,-213.1 970.92,-197.25 888.66,-187.53"/>
<polygon fill="midnightblue" stroke="midnightblue" points="1191,-226.78 1201.34,-224.47 1191.82,-219.82 1191,-226.78"/>
</g>
<!-- Node24 -->
<g id="node24" class="node">
<title>Node24</title>
<g id="a_node24"><a xlink:href="route_8cpp.html" target="_top" xlink:title=" ">
<polygon fill="none" stroke="black" points="1211,-168.5 1211,-187.5 1336,-187.5 1336,-168.5 1211,-168.5"/>
<text text-anchor="middle" x="1273.5" y="-175.5" font-family="Helvetica,sans-Serif" font-size="10.00">src/roar/routing/route.cpp</text>
</a>
</g>
</g>
<!-- Node8&#45;&gt;Node24 -->
<g id="edge36" class="edge">
<title>Node8&#45;&gt;Node24</title>
<path fill="none" stroke="midnightblue" d="M1273.5,-213.8C1273.5,-204.91 1273.5,-194.78 1273.5,-187.75"/>
<polygon fill="midnightblue" stroke="midnightblue" points="1270,-214.08 1273.5,-224.08 1277,-214.08 1270,-214.08"/>
</g>
<!-- Node25 -->
<g id="node25" class="node">
<title>Node25</title>
<g id="a_node25"><a xlink:href="router_8cpp.html" target="_top" xlink:title=" ">
<polygon fill="none" stroke="black" points="1354.5,-168.5 1354.5,-187.5 1482.5,-187.5 1482.5,-168.5 1354.5,-168.5"/>
<text text-anchor="middle" x="1418.5" y="-175.5" font-family="Helvetica,sans-Serif" font-size="10.00">src/roar/routing/router.cpp</text>
</a>
</g>
</g>
<!-- Node8&#45;&gt;Node25 -->
<g id="edge37" class="edge">
<title>Node8&#45;&gt;Node25</title>
<path fill="none" stroke="midnightblue" d="M1305.98,-220.91C1333.24,-210.75 1371.49,-196.51 1395.63,-187.52"/>
<polygon fill="midnightblue" stroke="midnightblue" points="1304.63,-217.67 1296.48,-224.44 1307.07,-224.23 1304.63,-217.67"/>
</g>
<!-- Node26 -->
<g id="node26" class="node">
<title>Node26</title>
<g id="a_node26"><a xlink:href="factory_8cpp.html" target="_top" xlink:title=" ">
<polygon fill="none" stroke="black" points="1501,-168.5 1501,-187.5 1638,-187.5 1638,-168.5 1501,-168.5"/>
<text text-anchor="middle" x="1569.5" y="-175.5" font-family="Helvetica,sans-Serif" font-size="10.00">src/roar/session/factory.cpp</text>
</a>
</g>
</g>
<!-- Node8&#45;&gt;Node26 -->
<g id="edge39" class="edge">
<title>Node8&#45;&gt;Node26</title>
<path fill="none" stroke="midnightblue" d="M1330.5,-222.6C1386.44,-212.4 1470.73,-197.02 1522.82,-187.52"/>
<polygon fill="midnightblue" stroke="midnightblue" points="1329.61,-219.21 1320.4,-224.44 1330.87,-226.09 1329.61,-219.21"/>
</g>
<!-- Node27 -->
<g id="node27" class="node">
<title>Node27</title>
<g id="a_node27"><a xlink:href="session_8cpp.html" target="_top" xlink:title=" ">
<polygon fill="none" stroke="black" points="1656.5,-168.5 1656.5,-187.5 1798.5,-187.5 1798.5,-168.5 1656.5,-168.5"/>
<text text-anchor="middle" x="1727.5" y="-175.5" font-family="Helvetica,sans-Serif" font-size="10.00">src/roar/session/session.cpp</text>
</a>
</g>
</g>
<!-- Node8&#45;&gt;Node27 -->
<g id="edge40" class="edge">
<title>Node8&#45;&gt;Node27</title>
<path fill="none" stroke="midnightblue" d="M1355.15,-223.29C1440.93,-213.09 1574.51,-197.2 1656.19,-187.48"/>
<polygon fill="midnightblue" stroke="midnightblue" points="1354.7,-219.82 1345.19,-224.47 1355.53,-226.77 1354.7,-219.82"/>
</g>
<!-- Node9&#45;&gt;Node10 -->
<g id="edge9" class="edge">
<title>Node9&#45;&gt;Node10</title>
<path fill="none" stroke="midnightblue" d="M1055.82,-102.98C1050.9,-93.82 1045.14,-83.09 1041.2,-75.75"/>
<polygon fill="midnightblue" stroke="midnightblue" points="1052.9,-104.93 1060.71,-112.08 1059.06,-101.62 1052.9,-104.93"/>
</g>
<!-- Node10&#45;&gt;Node6 -->
<g id="edge14" class="edge">
<title>Node10&#45;&gt;Node6</title>
<path fill="none" stroke="midnightblue" d="M968.01,-60.17C825.22,-50.09 496.65,-26.89 347.56,-16.37"/>
<polygon fill="midnightblue" stroke="midnightblue" points="968.15,-63.68 978.37,-60.9 968.64,-56.7 968.15,-63.68"/>
</g>
<!-- Node11 -->
<g id="node11" class="node">
<title>Node11</title>
<g id="a_node11"><a xlink:href="100__continue_2main_8cpp.html" target="_top" xlink:title=" ">
<polygon fill="none" stroke="black" points="840.5,-0.5 840.5,-19.5 1002.5,-19.5 1002.5,-0.5 840.5,-0.5"/>
<text text-anchor="middle" x="921.5" y="-7.5" font-family="Helvetica,sans-Serif" font-size="10.00">examples/100_continue/main.cpp</text>
</a>
</g>
</g>
<!-- Node10&#45;&gt;Node11 -->
<g id="edge10" class="edge">
<title>Node10&#45;&gt;Node11</title>
<path fill="none" stroke="midnightblue" d="M1009.02,-52.1C987.53,-42.01 958.28,-28.27 939.64,-19.52"/>
<polygon fill="midnightblue" stroke="midnightblue" points="1007.74,-55.36 1018.28,-56.44 1010.71,-49.02 1007.74,-55.36"/>
</g>
<!-- Node12 -->
<g id="node12" class="node">
<title>Node12</title>
<g id="a_node12"><a xlink:href="most__minimal_2main_8cpp.html" target="_top" xlink:title=" ">
<polygon fill="none" stroke="black" points="1021,-0.5 1021,-19.5 1186,-19.5 1186,-0.5 1021,-0.5"/>
<text text-anchor="middle" x="1103.5" y="-7.5" font-family="Helvetica,sans-Serif" font-size="10.00">examples/most_minimal/main.cpp</text>
</a>
</g>
</g>
<!-- Node10&#45;&gt;Node12 -->
<g id="edge11" class="edge">
<title>Node10&#45;&gt;Node12</title>
<path fill="none" stroke="midnightblue" d="M1055.33,-49.82C1067.34,-40.15 1082.47,-27.95 1092.54,-19.83"/>
<polygon fill="midnightblue" stroke="midnightblue" points="1052.85,-47.32 1047.26,-56.32 1057.25,-52.77 1052.85,-47.32"/>
</g>
<!-- Node13 -->
<g id="node13" class="node">
<title>Node13</title>
<g id="a_node13"><a xlink:href="serve__directory_2main_8cpp.html" target="_top" xlink:title=" ">
<polygon fill="none" stroke="black" points="1278,-0.5 1278,-19.5 1449,-19.5 1449,-0.5 1278,-0.5"/>
<text text-anchor="middle" x="1363.5" y="-7.5" font-family="Helvetica,sans-Serif" font-size="10.00">examples/serve_directory/main.cpp</text>
</a>
</g>
</g>
<!-- Node10&#45;&gt;Node13 -->
<g id="edge12" class="edge">
<title>Node10&#45;&gt;Node13</title>
<path fill="none" stroke="midnightblue" d="M1098.32,-54.79C1160.11,-44.59 1254.03,-29.08 1311.93,-19.52"/>
<polygon fill="midnightblue" stroke="midnightblue" points="1097.61,-51.36 1088.31,-56.44 1098.75,-58.27 1097.61,-51.36"/>
</g>
<!-- Node14 -->
<g id="node14" class="node">
<title>Node14</title>
<g id="a_node14"><a xlink:href="simple__server_2main_8cpp.html" target="_top" xlink:title=" ">
<polygon fill="none" stroke="black" points="466,-0.5 466,-19.5 631,-19.5 631,-0.5 466,-0.5"/>
<text text-anchor="middle" x="548.5" y="-7.5" font-family="Helvetica,sans-Serif" font-size="10.00">examples/simple_server/main.cpp</text>
</a>
</g>
</g>
<!-- Node10&#45;&gt;Node14 -->
<g id="edge13" class="edge">
<title>Node10&#45;&gt;Node14</title>
<path fill="none" stroke="midnightblue" d="M968,-57.42C877.79,-47.44 719.61,-29.93 625.4,-19.51"/>
<polygon fill="midnightblue" stroke="midnightblue" points="967.8,-60.92 978.12,-58.54 968.57,-53.96 967.8,-60.92"/>
</g>
<!-- Node15 -->
<g id="node15" class="node">
<title>Node15</title>
<g id="a_node15"><a xlink:href="src_2roar_2routing_2request__listener_8cpp.html" target="_top" xlink:title=" ">
<polygon fill="none" stroke="black" points="649,-0.5 649,-19.5 822,-19.5 822,-0.5 649,-0.5"/>
<text text-anchor="middle" x="735.5" y="-7.5" font-family="Helvetica,sans-Serif" font-size="10.00">src/roar/routing/request_listener.cpp</text>
</a>
</g>
</g>
<!-- Node10&#45;&gt;Node15 -->
<g id="edge15" class="edge">
<title>Node10&#45;&gt;Node15</title>
<path fill="none" stroke="midnightblue" d="M978.89,-54.66C922,-44.46 836.05,-29.04 782.97,-19.52"/>
<polygon fill="midnightblue" stroke="midnightblue" points="978.34,-58.12 988.81,-56.44 979.58,-51.23 978.34,-58.12"/>
</g>
<!-- Node10&#45;&gt;Node16 -->
<g id="edge16" class="edge">
<title>Node10&#45;&gt;Node16</title>
<path fill="none" stroke="midnightblue" d="M1104.69,-58.58C1114.03,-57.71 1123.5,-56.83 1132.5,-56 1297.29,-40.85 1492.74,-23.36 1582.27,-15.38"/>
<polygon fill="midnightblue" stroke="midnightblue" points="1104.25,-55.1 1094.62,-59.52 1104.91,-62.07 1104.25,-55.1"/>
</g>
<!-- Node17&#45;&gt;Node5 -->
<g id="edge31" class="edge">
<title>Node17&#45;&gt;Node5</title>
<path fill="none" stroke="midnightblue" d="M710.95,-168.53C583.03,-158.27 369.1,-141.1 243.66,-131.04"/>
<polygon fill="midnightblue" stroke="midnightblue" points="710.9,-172.04 721.15,-169.35 711.46,-165.06 710.9,-172.04"/>
</g>
<!-- Node17&#45;&gt;Node6 -->
<g id="edge30" class="edge">
<title>Node17&#45;&gt;Node6</title>
<path fill="none" stroke="midnightblue" d="M710.99,-172.8C576.9,-166.61 359.06,-153.41 328.5,-132 289.14,-104.41 276.16,-42.33 272.64,-19.57"/>
<polygon fill="midnightblue" stroke="midnightblue" points="711.15,-176.31 721.3,-173.27 711.47,-169.31 711.15,-176.31"/>
</g>
<!-- Node17&#45;&gt;Node9 -->
<g id="edge32" class="edge">
<title>Node17&#45;&gt;Node9</title>
<path fill="none" stroke="midnightblue" d="M865.92,-166.28C912.98,-156.08 982.87,-140.92 1026.23,-131.52"/>
<polygon fill="midnightblue" stroke="midnightblue" points="864.99,-162.9 855.95,-168.44 866.47,-169.74 864.99,-162.9"/>
</g>
<!-- Node17&#45;&gt;Node10 -->
<g id="edge33" class="edge">
<title>Node17&#45;&gt;Node10</title>
<path fill="none" stroke="midnightblue" d="M841.45,-163.68C866.58,-150.34 906.53,-129.37 941.5,-112 967.82,-98.93 998.61,-84.5 1017.83,-75.59"/>
<polygon fill="midnightblue" stroke="midnightblue" points="839.77,-160.61 832.58,-168.39 843.06,-166.79 839.77,-160.61"/>
</g>
<!-- Node17&#45;&gt;Node11 -->
<g id="edge18" class="edge">
<title>Node17&#45;&gt;Node11</title>
<path fill="none" stroke="midnightblue" d="M835.76,-161.91C845.26,-153.78 856.39,-143.15 864.5,-132 892.23,-93.88 911.82,-40.13 918.75,-19.51"/>
<polygon fill="midnightblue" stroke="midnightblue" points="833.43,-159.3 827.95,-168.36 837.89,-164.69 833.43,-159.3"/>
</g>
<!-- Node17&#45;&gt;Node13 -->
<g id="edge25" class="edge">
<title>Node17&#45;&gt;Node13</title>
<path fill="none" stroke="midnightblue" d="M922.01,-173.11C1095.59,-166.19 1424.09,-150.7 1441.5,-132 1476.06,-94.86 1406.77,-40.54 1376.59,-19.64"/>
<polygon fill="midnightblue" stroke="midnightblue" points="921.67,-169.62 911.82,-173.51 921.95,-176.61 921.67,-169.62"/>
</g>
<!-- Node17&#45;&gt;Node14 -->
<g id="edge26" class="edge">
<title>Node17&#45;&gt;Node14</title>
<path fill="none" stroke="midnightblue" d="M711.31,-168.46C680.19,-161.97 647.52,-150.86 621.5,-132 580.58,-102.33 558.25,-42.06 551.08,-19.65"/>
<polygon fill="midnightblue" stroke="midnightblue" points="710.86,-171.94 721.35,-170.41 712.2,-165.07 710.86,-171.94"/>
</g>
<!-- Node17&#45;&gt;Node15 -->
<g id="edge34" class="edge">
<title>Node17&#45;&gt;Node15</title>
<path fill="none" stroke="midnightblue" d="M736.69,-166.8C694.67,-159.62 649.25,-148.34 636.5,-132 615.71,-105.38 618.21,-84.4 636.5,-56 648.71,-37.03 671.1,-25.97 691.49,-19.56"/>
<polygon fill="midnightblue" stroke="midnightblue" points="736.27,-170.28 746.71,-168.45 737.41,-163.37 736.27,-170.28"/>
</g>
<!-- Node18 -->
<g id="node18" class="node">
<title>Node18</title>
<g id="a_node18"><a xlink:href="examples_2100__continue_2request__listener_8hpp.html" target="_top" xlink:title=" ">
<polygon fill="none" stroke="black" points="645.5,-112.5 645.5,-131.5 855.5,-131.5 855.5,-112.5 645.5,-112.5"/>
<text text-anchor="middle" x="750.5" y="-119.5" font-family="Helvetica,sans-Serif" font-size="10.00">examples/100_continue/request_listener.hpp</text>
</a>
</g>
</g>
<!-- Node17&#45;&gt;Node18 -->
<g id="edge19" class="edge">
<title>Node17&#45;&gt;Node18</title>
<path fill="none" stroke="midnightblue" d="M797.95,-161.82C786.12,-152.15 771.21,-139.95 761.3,-131.83"/>
<polygon fill="midnightblue" stroke="midnightblue" points="795.94,-164.7 805.9,-168.32 800.37,-159.28 795.94,-164.7"/>
</g>
<!-- Node20 -->
<g id="node20" class="node">
<title>Node20</title>
<g id="a_node20"><a xlink:href="file__server_8hpp.html" target="_top" xlink:title=" ">
<polygon fill="none" stroke="black" points="1237,-112.5 1237,-131.5 1432,-131.5 1432,-112.5 1237,-112.5"/>
<text text-anchor="middle" x="1334.5" y="-119.5" font-family="Helvetica,sans-Serif" font-size="10.00">examples/serve_directory/file_server.hpp</text>
</a>
</g>
</g>
<!-- Node17&#45;&gt;Node20 -->
<g id="edge22" class="edge">
<title>Node17&#45;&gt;Node20</title>
<path fill="none" stroke="midnightblue" d="M908.45,-167.41C1006.13,-157.23 1159.09,-141.29 1252.71,-131.53"/>
<polygon fill="midnightblue" stroke="midnightblue" points="907.88,-163.96 898.29,-168.47 908.6,-170.92 907.88,-163.96"/>
</g>
<!-- Node22 -->
<g id="node22" class="node">
<title>Node22</title>
<g id="a_node22"><a xlink:href="examples_2simple__server_2request__listener_8hpp.html" target="_top" xlink:title=" ">
<polygon fill="none" stroke="black" points="338,-112.5 338,-131.5 551,-131.5 551,-112.5 338,-112.5"/>
<text text-anchor="middle" x="444.5" y="-119.5" font-family="Helvetica,sans-Serif" font-size="10.00">examples/simple_server/request_listener.hpp</text>
</a>
</g>
</g>
<!-- Node17&#45;&gt;Node22 -->
<g id="edge27" class="edge">
<title>Node17&#45;&gt;Node22</title>
<path fill="none" stroke="midnightblue" d="M747.47,-166.98C677.2,-156.78 569.44,-141.14 503.17,-131.52"/>
<polygon fill="midnightblue" stroke="midnightblue" points="747.16,-170.47 757.56,-168.44 748.16,-163.54 747.16,-170.47"/>
</g>
<!-- Node18&#45;&gt;Node11 -->
<g id="edge20" class="edge">
<title>Node18&#45;&gt;Node11</title>
<path fill="none" stroke="midnightblue" d="M793.37,-109.43C815.83,-102.09 843.05,-91.1 864.5,-76 887.08,-60.1 906.65,-33.48 915.87,-19.76"/>
<polygon fill="midnightblue" stroke="midnightblue" points="792.24,-106.12 783.74,-112.45 794.33,-112.79 792.24,-106.12"/>
</g>
<!-- Node19 -->
<g id="node19" class="node">
<title>Node19</title>
<g id="a_node19"><a xlink:href="examples_2100__continue_2request__listener_8cpp.html" target="_top" xlink:title=" ">
<polygon fill="none" stroke="black" points="645.5,-56.5 645.5,-75.5 855.5,-75.5 855.5,-56.5 645.5,-56.5"/>
<text text-anchor="middle" x="750.5" y="-63.5" font-family="Helvetica,sans-Serif" font-size="10.00">examples/100_continue/request_listener.cpp</text>
</a>
</g>
</g>
<!-- Node18&#45;&gt;Node19 -->
<g id="edge21" class="edge">
<title>Node18&#45;&gt;Node19</title>
<path fill="none" stroke="midnightblue" d="M750.5,-101.8C750.5,-92.91 750.5,-82.78 750.5,-75.75"/>
<polygon fill="midnightblue" stroke="midnightblue" points="747,-102.08 750.5,-112.08 754,-102.08 747,-102.08"/>
</g>
<!-- Node20&#45;&gt;Node13 -->
<g id="edge24" class="edge">
<title>Node20&#45;&gt;Node13</title>
<path fill="none" stroke="midnightblue" d="M1339.33,-102.67C1345.67,-78.62 1356.54,-37.39 1361.23,-19.59"/>
<polygon fill="midnightblue" stroke="midnightblue" points="1335.94,-101.81 1336.78,-112.37 1342.71,-103.59 1335.94,-101.81"/>
</g>
<!-- Node21 -->
<g id="node21" class="node">
<title>Node21</title>
<g id="a_node21"><a xlink:href="file__server_8cpp.html" target="_top" xlink:title=" ">
<polygon fill="none" stroke="black" points="1141,-56.5 1141,-75.5 1336,-75.5 1336,-56.5 1141,-56.5"/>
<text text-anchor="middle" x="1238.5" y="-63.5" font-family="Helvetica,sans-Serif" font-size="10.00">examples/serve_directory/file_server.cpp</text>
</a>
</g>
</g>
<!-- Node20&#45;&gt;Node21 -->
<g id="edge23" class="edge">
<title>Node20&#45;&gt;Node21</title>
<path fill="none" stroke="midnightblue" d="M1309.93,-107.18C1292.26,-97.24 1268.99,-84.15 1253.89,-75.65"/>
<polygon fill="midnightblue" stroke="midnightblue" points="1308.64,-110.47 1319.08,-112.32 1312.08,-104.37 1308.64,-110.47"/>
</g>
<!-- Node22&#45;&gt;Node14 -->
<g id="edge28" class="edge">
<title>Node22&#45;&gt;Node14</title>
<path fill="none" stroke="midnightblue" d="M387.68,-109.99C348.5,-99.83 307.04,-82.3 328.5,-56 345.88,-34.71 410.85,-23.22 465.72,-17.19"/>
<polygon fill="midnightblue" stroke="midnightblue" points="387.01,-113.43 397.55,-112.41 388.68,-106.63 387.01,-113.43"/>
</g>
<!-- Node23 -->
<g id="node23" class="node">
<title>Node23</title>
<g id="a_node23"><a xlink:href="examples_2simple__server_2request__listener_8cpp.html" target="_top" xlink:title=" ">
<polygon fill="none" stroke="black" points="338,-56.5 338,-75.5 551,-75.5 551,-56.5 338,-56.5"/>
<text text-anchor="middle" x="444.5" y="-63.5" font-family="Helvetica,sans-Serif" font-size="10.00">examples/simple_server/request_listener.cpp</text>
</a>
</g>
</g>
<!-- Node22&#45;&gt;Node23 -->
<g id="edge29" class="edge">
<title>Node22&#45;&gt;Node23</title>
<path fill="none" stroke="midnightblue" d="M444.5,-101.8C444.5,-92.91 444.5,-82.78 444.5,-75.75"/>
<polygon fill="midnightblue" stroke="midnightblue" points="441,-102.08 444.5,-112.08 448,-102.08 441,-102.08"/>
</g>
</g>
</svg>
        <g id="navigator" transform="translate(0 0)" fill="#404254">
                <rect fill="#f2f5e9" fill-opacity="0.5" stroke="#606060" stroke-width=".5" x="0" y="0" width="60" height="60"/>
                <use id="zoomplus" xlink:href="#zoomPlus" x="17" y="9" onmousedown="handleZoom(evt,'in')"/>
                <use id="zoomminus" xlink:href="#zoomMin" x="42" y="9" onmousedown="handleZoom(evt,'out')"/>
                <use id="reset" xlink:href="#resetDef" x="30" y="36" onmousedown="handleReset()"/>
                <g id="arrowUp" xlink:href="#dirArrow" transform="translate(30 24)" onmousedown="handlePan(0,-1)">
                  <use xlink:href="#rim" fill="#404040">
                        <set attributeName="fill" to="#808080" begin="arrowUp.mouseover" end="arrowUp.mouseout"/>
                  </use>
                  <path fill="none" stroke="white" stroke-width="1.5" d="M0,-3.0v7 M-2.5,-0.5L0,-3.0L2.5,-0.5"/>
                </g>
                <g id="arrowRight" xlink:href="#dirArrow" transform="rotate(90) translate(36 -43)" onmousedown="handlePan(1,0)">
                  <use xlink:href="#rim" fill="#404040">
                        <set attributeName="fill" to="#808080" begin="arrowRight.mouseover" end="arrowRight.mouseout"/>
                  </use>
                  <path fill="none" stroke="white" stroke-width="1.5" d="M0,-3.0v7 M-2.5,-0.5L0,-3.0L2.5,-0.5"/>
                </g>
                <g id="arrowDown" xlink:href="#dirArrow" transform="rotate(180) translate(-30 -48)" onmousedown="handlePan(0,1)">
                  <use xlink:href="#rim" fill="#404040">
                        <set attributeName="fill" to="#808080" begin="arrowDown.mouseover" end="arrowDown.mouseout"/>
                  </use>
                  <path fill="none" stroke="white" stroke-width="1.5" d="M0,-3.0v7 M-2.5,-0.5L0,-3.0L2.5,-0.5"/>
                </g>
                <g id="arrowLeft" xlink:href="#dirArrow" transform="rotate(270) translate(-36 17)" onmousedown="handlePan(-1,0)">
                  <use xlink:href="#rim" fill="#404040">
                        <set attributeName="fill" to="#808080" begin="arrowLeft.mouseover" end="arrowLeft.mouseout"/>
                  </use>
                  <path fill="none" stroke="white" stroke-width="1.5" d="M0,-3.0v7 M-2.5,-0.5L0,-3.0L2.5,-0.5"/>
                </g>
        </g>
        <svg viewBox="0 0 15 15" width="100%" height="30px" preserveAspectRatio="xMaxYMin meet">
         <g id="arrow_out" transform="scale(0.3 0.3)">
          <a xlink:href="websocket__base_8hpp__dep__incl_org.svg" target="_base">
           <rect id="button" ry="5" rx="5" y="6" x="6" height="38" width="38"
                fill="#f2f5e9" fill-opacity="0.5" stroke="#606060" stroke-width="1.0"/>
           <path id="arrow"
             d="M 11.500037,31.436501 C 11.940474,20.09759 22.043105,11.32322 32.158766,21.979434 L 37.068811,17.246167 C 37.068811,17.246167 37.088388,32 37.088388,32 L 22.160133,31.978069 C 22.160133,31.978069 26.997745,27.140456 26.997745,27.140456 C 18.528582,18.264221 13.291696,25.230495 11.500037,31.436501 z"
             style="fill:#404040;"/>
          </a>
         </g>
        </svg>
</svg>
